<svg version="1.1" id="Layer_1" xmlns="http://www.w3.org/2000/svg" x="0" y="0" viewBox="0 0 909 411" xml:space="preserve"><style>.st1,.st2{stroke:#000;stroke-width:.425;stroke-linecap:round;stroke-linejoin:round}.st1{stroke-miterlimit:10;fill:#fff}.st2{fill:none}.st2,.st5{stroke-miterlimit:10}.st5,.st6{fill:none;stroke:#000;stroke-width:.283;stroke-linecap:round;stroke-linejoin:round}.st7,.st8{fill:none;stroke:#fff;stroke-width:1.417;stroke-miterlimit:10;stroke-dasharray:5.6693,2.8347,1.4173,2.8347}.st8{stroke:#000;stroke-width:.283}.st9{enable-background:new}.st10{font-family:Helvetica,Arial,sans-serif}.st11{font-size:22px}.st13{fill:#1a1a18}.st14{font-size:13.27px}</style><path d="M435.4 96.8h10.1v7.1h3.6v1.2h1.3v1.4h.9v9.1h2.5V136h-2.5v2.3h3.1V152h-.7v21.1h-4.6v1.4h4.7v.8h.4V189h-.5v6h-8.3v1.8h7.1V218h2.2v14.6h-4.4v10.8h8v3h4.7v28.1l4.4 1.9v16.1c0 1.4-1.5 1.7-1.5 1.7H450v1.9l-.8.8h-3.8v7.4h.7v17.5h-.7V334h-9.9v-10.8h-8v-20.7h2.5v-4h1v-.8h-3.6v-16.5h.5v-13.3H425s-.6-11.2-4.2-17.5v-70.1l2.3-5.7v-17h7.4v-1.3h-3.2V146h3.8v-3h-3.6v-10.1h3.6v-7.1h4.6v-2.7h-5.6v-14.2h5.5l-.2-12.1zm161 3.6c-7.3 0-13.2 5.9-13.2 13.2v210.9c0 7.3 5.9 13.2 13.2 13.2h117.4c.3 0 1.1-.1 1.2-.7.4-2.4 2.6-4 5-3.7 1.9.3 3.4 1.8 3.7 3.7.1.5.9.7 1.2.7h82.3c7.3 0 13.2-5.9 13.2-13.2V113.6c0-7.3-5.9-13.2-13.2-13.2H663.5c-.3 0-.7.1-.9.4l-.3.3c-.4 2.4-2.6 4-5 3.7-1.9-.3-3.4-1.8-3.7-3.7l-.3-.3c-.2-.2-.6-.4-.9-.4h-56m-354.6-3.5c7.3 0 13.2 5.9 13.2 13.2V321c0 7.3-5.9 13.2-13.2 13.2H124.4c-.3 0-1.1-.1-1.2-.7-.4-2.4-2.6-4-5-3.7-1.9.3-3.4 1.8-3.7 3.7-.1.5-.9.7-1.2.7H30.9c-7.3 0-13.2-5.9-13.2-13.2V110.1c0-7.3 5.9-13.2 13.2-13.2h143.8c.3 0 .7.1.9.4l.3.3c.4 2.4 2.6 4 5 3.7 1.9-.3 3.4-1.8 3.7-3.7l.3-.3c.2-.2.6-.4.9-.4h56" fill="#f1f2f2"/><path class="st1" d="M590.7 317.5c0-7.3 5.9-13.2 13.2-13.2s13.2 5.9 13.2 13.2c0 7.3-5.9 13.2-13.2 13.2-7.3-.1-13.2-6-13.2-13.2zm196.9 0c0-7.3 5.9-13.2 13.2-13.2s13.2 5.9 13.2 13.2c0 7.3-5.9 13.2-13.2 13.2-7.3-.1-13.2-6-13.2-13.2zm0-196.9c0-7.3 5.9-13.2 13.2-13.2s13.2 5.9 13.2 13.2c0 7.3-5.9 13.2-13.2 13.2s-13.2-5.9-13.2-13.2zm-196.9 0c0-7.3 5.9-13.2 13.2-13.2s13.2 5.9 13.2 13.2c0 7.3-5.9 13.2-13.2 13.2s-13.2-5.9-13.2-13.2z"/><path class="st2" d="M753.1 306.2H743m10.1 20.7v-20.7M743 326.9h10.1M743 306.2v20.7m25-36.5v6.6m13.6-6.6H768m13.6 6.6v-6.6M768 297h13.6m-25-6.1v-6.6m-13.6 6.6h13.6m-13.6-6.6v6.6m13.6-6.6H743m-1.8 6.6v-6.6m-13.6 6.6h13.6m-13.6-6.6v6.6m13.6-6.6h-13.6m-42.6 6.6v-6.6m-13.6 6.6H685m-13.6-6.6v6.6m13.6-6.6h-13.6m-7.9 17.1v-10.1m-20.7 10.1h20.7m-20.7-10.1v10.1m20.7-10.1h-20.7m42.2-7.5v-6.5m-13.6 6.5H685m-13.6-6.5v6.5m13.6-6.5h-13.6m-2.7 6.5v-6.5m-13.6 6.5h13.6m-13.6-6.5v6.5m13.6-6.5h-13.6m139.5-21.6v7.5m14.1-7.5h-14.1m14.1 7.5v-7.5m-14.1 7.5h14.1m-172.5-10.6h-6.6m6.6 13.7v-13.7m-6.6 13.7h6.6m-6.6-13.7v13.7m104.6 59.4v-20m-25.1 20h25.1m-25.1-20v20m25.1-20h-25.1m58.7-52.2v6.6m13.2-6.6h-13.2m13.2 6.6v-6.6m-13.2 6.6H781m-143.5-8.8h6.6m-6.6-13.6v13.6m6.6-13.6h-6.6m6.6 13.6v-13.6m123.5-15.4h6.6m-6.6-13.6v13.6m6.6-13.6h-6.6m6.6 13.6v-13.6m-175.3 30.8v6.6m13.6-6.6h-13.6m13.6 6.6v-6.6m-13.6 6.6h13.6m79.3 78.6V312m-21.1 12.7h21.1M670.7 312v12.7m21.1-12.7h-21.1m89.4-45.5h6.6m-6.6-13.2v13.2m6.6-13.2h-6.6m6.6 13.2v-13.2m7.9-30.5h10.1m-10.1-20.7v20.7m10.1-20.7h-10.1m10.1 20.7v-20.7m-5.9-21.5v-7.5m-14.1 7.5h14.1m-14.1-7.5v7.5m14.1-7.5h-14.1m18.7-23.3v10.1m20.6-10.1h-20.6m20.6 10.1v-10.1m-20.6 10.1H804M658.6 313.5H652m6.6 13.2v-13.2m-6.6 13.2h6.6m-6.6-13.2v13.2m-14.9-160.2h-6.6m6.6 13.7v-13.7m-6.6 13.7h6.6m-6.6-13.7v13.7m169.6 95.5h-6.6m6.6 13.2v-13.2m-6.6 13.2h6.6m-6.6-13.2v13.2M704.8 277h-6.6m6.6 13.2V277m-6.6 13.2h6.6m-6.6-13.2v13.2m-1.4-13.2h-6.5m6.5 13.2V277m-6.5 13.2h6.5m-6.5-13.2v13.2m-47.7-15.6V268m-13.2 6.6h13.2m-13.2-6.6v6.6m13.2-6.6h-13.2m77.5-113.8v6.6m13.7-6.6h-13.7m13.7 6.6v-6.6m-13.7 6.6h13.7m74.4 87.5v6.5m13.2-6.5H795m13.2 6.5v-6.5m-13.2 6.5h13.2M706.9 147.2v6.6m13.7-6.6h-13.7m13.7 6.6v-6.6m-13.7 6.6h13.7m-40.7 138.8v6.6m13.2-6.6h-13.2m13.2 6.6v-6.6m-13.2 6.6h13.2m3.3-138.4v-6.6m-13.6 6.6h13.6m-13.6-6.6v6.6m13.6-6.6h-13.6m-17.2 0v6.6m13.7-6.6h-13.7m13.7 6.6v-6.6m-13.7 6.6h13.7m-81.1 123h20.2m-20.2-32.9v32.9m20.2-32.9h-20.2m20.2 32.9v-32.9m185-29v-6.6m-13.2 6.6h13.2m-13.2-6.6v6.6m13.2-6.6h-13.2m-18 17.1v12.8m21.1-12.8h-21.1m21.1 12.8v-12.8m-21.1 12.8h21.1m-33.4-109v-6.6m-13.2 6.6h13.2m-13.2-6.6v6.6m13.2-6.6h-13.2m-120.8 85.3v-6.6m-13.2 6.6h13.2m-13.2-6.6v6.6m13.2-6.6h-13.2m119.1-78.7v6.6m13.2-6.6h-13.2m13.2 6.6v-6.6m-13.2 6.6H745m35.8 56.3h29.4m-29.4-31.2v31.2m29.4-31.2h-29.4m29.4 31.2v-31.2m-109-14.5v-10.1m-20.6 10.1h20.6m-20.6-10.1v10.1m20.6-10.1h-20.6m96.9 56.6v-6.6m-13.2 6.6h13.2m-13.2-6.6v6.6m13.2-6.6h-13.2M687 129.6v6.6m13.1-6.6H687m13.1 6.6v-6.6m-13.1 6.6h13.1m33-9.2v-12.7M712 127h21.1M712 114.3V127m21.1-12.7H712M598.9 216.4v21.1m24.1-21.1h-24.1m24.1 21.1v-21.1m-24.1 21.1H623m40.7-107.9v6.6m13.2-6.6h-13.2m13.2 6.6v-6.6m-13.2 6.6h13.2m26.1-9.4h7.5m-7.5-14.1v14.1m7.5-14.1H703m7.5 14.1v-14.1m-117.1 51.9v7m19.3-7h-19.3m19.3 7v-7m-19.3 7h19.3m-19.3-20.2v7m19.3-7h-19.3m19.3 7v-7m-19.3 7h19.3m-19.3 32.1v7.9m19.3-7.9h-19.3m19.3 7.9v-7.9m-19.3 7.9h19.3m-19.3-21.5v8.7m26.3-8.7h-26.3m26.3 8.7v-8.7m-26.3 8.7h26.3m67.9-59.3h6.6m-6.6-13.1v13.1m6.6-13.1h-6.6m6.6 13.1v-13.1m-16.7 33.6v-10.1m-20.6 10.1h20.6m-20.6-10.1v10.1m20.6-10.1h-20.6m-25.7 172.8v17.6m17.5-17.6h-17.5m17.5 17.6v-17.6m-17.5 17.6h17.5m129.4-176.6h-12.7m12.7 21.1v-21.1m-12.7 21.1h12.7m-12.7-21.1v21.1m-50.3-35.4v-6.6m-13.2 6.6h13.2m-13.2-6.6v6.6m13.2-6.6h-13.2m-103.3 78.7v6.6m13.2-6.6h-13.2m13.2 6.6v-6.6m-13.2 6.6h13.2m89.9-78.2v10.1m20.6-10.1h-20.6m20.6 10.1v-10.1m-20.6 10.1h20.6m33.6-35.8v17.5m17.6-17.5h-17.6m17.6 17.5V111m-17.6 17.5h17.6m-28.3 18.3v-10.1m-20.7 10.1h20.7m-20.7-10.1v10.1m20.7-10.1h-20.7m53 63.7v-6.6m-13.2 6.6h13.2m-13.2-6.6v6.6m13.2-6.6h-13.2m-17.8-57.1v10.1m20.6-10.1h-20.6m20.6 10.1v-10.1m-20.6 10.1h20.6m-129.6 75.3h6.6m-6.6-13.2v13.2m6.6-13.2h-6.6m6.6 13.2v-13.2m3.1-54.7v6.6m13.6-6.6h-13.6m13.6 6.6v-6.6m-13.6 6.6h13.6m35.6-7v-6.6m-13.6 6.6h13.6m-13.6-6.6v6.6m13.6-6.6h-13.6M768.2 312v-6.6m-13.1 6.6h13.1m-13.1-6.6v6.6m13.1-6.6h-13.1m20.6-80.4v6.6m13.2-6.6h-13.2m13.2 6.6V225m-13.2 6.6h13.2m2.4 57.5v-27.6m-23.2 27.6h23.2m-23.2-27.6v27.6m23.2-27.6h-23.2m-30.4-107.7v-6.6m-13.6 6.6h13.6m-13.6-6.6v6.6m13.6-6.6h-13.6m13.6 13.6v-6.6m-13.6 6.6h13.6m-13.6-6.6v6.6m13.6-6.6h-13.6m22.4-7v6.6m13.6-6.6h-13.6m13.6 6.6v-6.6m-13.6 6.6h13.6m-112.9-6.6v6.6m13.6-6.6h-13.6m13.6 6.6v-6.6m-13.6 6.6h13.6m85.7.4v6.6m13.6-6.6h-13.6m13.6 6.6v-6.6m-13.6 6.6h13.6m-116 5.7h-6.6m6.6 13.7v-13.7m-6.6 13.7h6.6m-6.6-13.7v13.7m124.4 133.3h-6.6m6.6 13.2v-13.2m-6.6 13.2h6.6m-6.6-13.2v13.2m4.8-29.5h6.6m-6.6-13.1v13.1m6.6-13.1h-6.6m6.6 13.1v-13.1m22.8-79.8v10.1m20.7-10.1h-20.7m20.7 10.1v-10.1m-20.7 10.1h20.7m-13.6-17.1v6.6m13.6-6.6h-13.6m13.6 6.6v-6.6m-13.6 6.6h13.6m-174 18.9h-6.6m6.6 13.6v-13.6m-6.6 13.6h6.6m-6.6-13.6v13.6m14.5-13.6h-6.6m6.6 13.6v-13.6m-6.6 13.6h6.6m-6.6-13.6v13.6m28.1-89.2v6.6m13.7-6.6h-13.7m13.7 6.6v-6.6m-13.7 6.6h13.7m81.2 68.5h6.6m-6.6-13.6v13.6m6.6-13.6h-6.6m6.6 13.6v-13.6m-137.5 42.6h6.6m-6.6-13.6v13.6m6.6-13.6h-6.6m6.6 13.6v-13.6m14.3 64.2v6.5m13.2-6.5h-13.2m13.2 6.5v-6.5m-13.2 6.5h13.2m107.4-76.2h-7.5m7.5 14.1v-14.1m-7.5 14.1h7.5m-7.5-14.1v14.1m38.7-14.1h-7.5m7.5 14.1v-14.1m-7.5 14.1h7.5m-7.5-14.1v14.1m-150.7 6.3h-6.6m6.6 13.7v-13.7m-6.6 13.7h6.6m-6.6-13.7v13.7m68.6 11v6.5m13.6-6.5h-13.6m13.6 6.5v-6.5m-13.6 6.5h13.6m21.5 0v-6.5m-13.6 6.5h13.6m-13.6-6.5v6.5m13.6-6.5h-13.6m29 6.5v-6.5m-13.6 6.5h13.6m-13.6-6.5v6.5m13.6-6.5H743m-74.3 13.6v-6.6m-13.6 6.6h13.6m-13.6-6.6v6.6m13.6-6.6h-13.6m50.1.9v10.1m20.6-10.1h-20.6m20.6 10.1v-10.1m-20.6 10.1h20.6m-55.1 7v7.5m14.1-7.5h-14.1m14.1 7.5v-7.5m-14.1 7.5h14.1m23.5-3.6h-10.1m10.1 20.7v-20.7m-10.1 20.7h10.1m-10.1-20.7v20.7m43.5-16.3h-6.6m6.6 13.7v-13.7m-6.6 13.7h6.6m-6.6-13.7v13.7m33.8-11h-6.6m6.6 13.6v-13.6m-6.6 13.6h6.6m-6.6-13.6v13.6m-7.2-160.6v105.5m-105.5 0V166.3m0 0h105.5m0 105.5H649.6m-186.5-25.4h-4.8m7.5 47.9c1 0 1.8-.8 1.8-1.8m-.1-16.1v16.1m-10.9 1.8h-.1m.1-3.5v3.5m0 0h9.2m-2.7-19.8l4.4 1.9m-4.4 14.4h-14.9m0 0v-1.2m0-14.5v-1.8m0-13.6v-1.8m8.3 36.4v-3.5m-8.3 3.5h4.7m-6.2-19.2v-1.8m0-13.6v-1.8m16.4-11.5v6.1m-4.8 0h4.8m-14.6 42c.2 0 .3-.1.4-.3m-1.5.3h1.1m-1.5-.2c.1.2.2.3.4.3m-1.7 0l.1-.5m.2.9l-.3-.4m.3.7v-.3m-.4.9l.4-.6m-.4.6v.2m.4.4l-.4-.5m1.5.5H446m1.6.4c0-.2-.2-.4-.4-.4m2.1.4h-1.7m2.2-.4c-.2 0-.4.2-.4.4m.4-.4c.2 0 .4-.2.4-.4m-.1-1.8v1.8m-4.4-6.5v4.2m0 0c0 .2.2.4.4.4m2.1.1h-2m2.4-.5c-.2 0-.4.2-.4.4m.4-.4h3.9m.4.5c0-.2-.2-.4-.4-.4m.4.4h3.6m0 0v-3.5m6.6 0v-38.3m-12.5-9.1c-.2-.8-.9-1.4-1.7-1.4m0 0H446m0 0l-.4.4m-9.7 91.7V321m0-210.9V321m0-210.9V96.9m9.7 0v13.2m0 210.9V110.1m0 210.9v13.1m0-237.2h-9.7m9.7 237.2h-9.7M446 136.2h7.8m0-20.6v20.6m-8.2-20.6h8.2m-8.2-9h5.7m0 0v9m-20.2 187.1h-3.5m0 20.7v-20.7m3.5 20.7h-3.5m8.3-36.5h-4.8m0 6.6v-6.6m4.8 6.6h-4.8m-3.5 4.4v-6.1m8.3 6.1h-8.3m8.3-45.7h-5.7m0 7.5v-7.5m5.7 7.5h-5.7m.9 42.5h-.7m0 .5v-.5m2-50v-.9m16.7-78v1.4m-13.2 44.6h-8.3m3.5-20.7h-3.5m0 20.7v-8.4m0-10.1v-2.2m8.3-52.3h-8.3m0 10.1v-10.1m8.3 10.1h-8.3m22.8 76h4.4m0-14.5v14.5m-2.2-14.5h2.2m-18.9 54.3h-3.5m0 13.2v-13.2m3.5 13.2h-3.5m21.5-96.5h.4m0-13.6v13.6m-.4-13.6h.4m-8.7 19.6h8.3m0-20.2v20.2m-8.3-20.2h8.3m0-22.7h.4m0-13.6V152m-8.3-13.6h8.3m-8.3-2h5.2m0-.2v.2m-15.3 108.3h-3.5m0 6.6v-6.6m3.5 6.6h-3.5m-1.3 44.4v-2m4.8 2h-4.8m4.8-83.9h-4.8m0 6.6v-6.6m4.8 6.6h-4.8m4.8-92.3h-4.8m0 6.6v-6.6m4.8 6.6h-4.8m4.8 56.2h-12.8m12.8-31.2h-12.8m0 31.2v-31.2m22.9-30v16m-.4-16h.4m-13.6 62.1v-.9m3.5.9h-3.5m3.1-79.1h-4.9m0 12.8v-12.8m4.9 12.8h-4.9m0-.2h-.4m5.3-14.1h-5.3m0 14.1v-14.1m15.4 148.7h12.7m0-14.5v14.5m-12.7-14.5h12.7m-12.7-8.8h4.8m0-6.6v6.6m-4.8-6.6h4.8m0-7.6v7.6m-4.8 13.7h4.8m0-6.6v6.6m-4.8-6.6h4.8m-4.8 54.5h12.7m0-14.5v14.5m-12.7-14.5h12.7m-22.5-84.8v-.5m9.8 68.6h1.1m-1.1 63.4h.4m0-17.5v17.5m-.4-17.5h.4m-10.5 19.3v-.2m.4.2h-.4m-4.9-165.9v-1.3m5.3-49h-.4m0 17.6v-17.6m.4 17.6h-.4m.4 65.3h-3.5m0 3.5v-3.5m3.5-57.2h-8.3m0 10.2v-10.2m8.3 10.2h-8.3m8.3 158.6h-4.8m0 6.5v-6.5m4.8 6.5h-4.8M446 105v-.2m-.4 0h.4m-10.1 116.7h-3.5m0 6.5v-6.5m3.5 6.5h-3.5m21.4-69.2h.1m0-20.2v20.2m-7.9-20.2h7.9M430.2 258H428m0 27.6V258m7.9 27.6H428m23.3-149.4v2.2m-5.7 34.9h5.6m0-.2v.2m-15.3-29.6h-4.8m0 2.6v-2.6m14.5 76.7h7m0-23.8v23.8m-7-23.8h7m-7 76.7h8.7m0-13.6v13.6m-8.7-13.6h8.7m-18.4 34h-4.8m0 0v-.2m0-6.6v-1.3m14.5-172.2h3.5m0-6.6v6.6m-3.5-6.6h3.5m0-2.9v1.1m-3.5-1.1h3.5m-13.2 96.9h-8.3m0 10.1v-10.1m8.3 10.1h-8.3m18-60.6h3.5m0-6.6v6.6m-3.5-6.6h3.5m-13.2 50.1h-4.8m0 6.6v-6.6m4.8 6.6h-4.8m4.8 97.9h-4.8m0 .5v-.5m4.8-69.6h-5.7m0 14.1v-14.1m5.7 14.1h-5.7m-2.2 38.8h-.4m0 10.2v-10.2m3.5 10.2h-3.5m8.3 7h-5.7m0 3.9v-3.9m5.7 11h-4.8m0 13.6v-13.6m4.8 13.6h-4.8M450.4 105v1.6m-4.8-1.6h4.8m-4.8 68.1h8.2m0-20.6v20.6m-8.2-20.6h8.2M421 250.7v-70.3m0 0c.1-.3.2-.5.3-.8.7-1.7 1.4-3.3 1.9-4.9m1.9 93.5c0-.6 0-1.2-.1-1.8-.1-.8-.1-1.6-.2-2.3-.2-1.5-.4-2.8-.7-4.2-.6-2.8-1.5-5.6-2.8-8.5-.1-.3-.2-.5-.3-.8m4.1-61.7v79.3m2.9 0h-2.9m8-78.4v.5m0 29v2.2m0 6.5v.7m0 14.1v1.9m0-54.9v.5m0 29v2.2m0 6.5v.7m0 14.1v1.9m2.1-54.9v.5m0 29v2.2m0 6.5v.7m0 14.1v1.9m-278.5-.9V242m0 1.8v2m0 .6v-.6m-1.1.6v-.6m0-2v2m0-2V242m0 0h1.1m-87.9 4.4h135.1m-30.7-4.4h1m0 1.8V242m-1 1.8V242M62 260.8h148.7m-139.8 4h5.6m1.1 0h3.3m1.1 0h3.3m1.1 0h3.3m1.1 0h3.3m1 0h3.4m1 0h3.4m1 0h3.4m1 0h3.4m1 0h3.4m1 0h3.4m1 0h3.4m1 0h3.3m1.1 0h3.3m1.1 0h3.3m1.1 0h3.3m1.1 0h3.3m1.1 0h3.3m1.1 0h3.3m1.1 0h3.3m1.1 0h3.3m1 0h3.4m1 0h3.4m1 0h3.4m1 0h3.4m1 0h3.4m4.4 0h-3.4m7.7 0h-3.3m10 0h-5.6m-125.3 0v1.5m0 0h-8.3m13.9 1.1v-1.1m0 0v-5.5m0 6.6h1.1m0 0v-1.1m0 0h-1.1m1.1 0v-5.5m118.6 6.6h-1.1m-3.3 0h-1m-3.4 0h-1m-4.4 0h1m-5.4 0h1m-5.4 0h1m-5.4 0h1m-5.4 0h1m-5.4 0h1.1m-5.5 0h1.1m-5.5 0h1.1m-5.5 0h1.1m-5.5 0h1.1m-5.5 0h1.1m-5.5 0h1.1m-5.5 0h1.1m-5.4 0h1m-5.4 0h1m-5.4 0h1m-5.4 0h1m-5.4 0h1m-5.4 0h1m-5.4 0h1m-5.4 0h1m-5.4 0h1.1m-5.5 0h1.1m-5.5 0H82m-19.4-1.1v16.6m3.5 0h-3.5m3.5-9.6h140.6m0 9.6h3.5m0-16.6v16.6m-8.4-16.6h8.4m-8.4-1.5v1.5m-6.7 1.1v-1.1m0-5.5v5.5m0 0h1.1m0 0v-5.5m0 6.6v-1.1m-4.4 0v-5.5m0 6.6v-1.1m-1 0h1m-1 1.1v-1.1m0 0v-5.5m-3.4 5.5v-5.5m0 6.6v-1.1m-1 0h1m-1 1.1v-1.1m0 0v-5.5m-7.8 5.5v-5.5m0 6.6v-1.1m0 0h-1m0 1.1v-1.1m0 0v-5.5m-3.4 0v5.5m0 1.1v-1.1m-1 1.1v-1.1m0-5.5v5.5m1 0h-1m-3.4 0v-5.5m0 6.6v-1.1m0 0h-1m0 1.1v-1.1m0 0v-5.5m-3.4 5.5v-5.5m0 6.6v-1.1m0 0h-1m0 1.1v-1.1m0 0v-5.5m-3.3 0v5.5m0 1.1v-1.1m-1.1 1.1v-1.1m0-5.5v5.5m1.1 0H160m-3.3 0v-5.5m0 6.6v-1.1m0 0h-1.1m0 1.1v-1.1m0 0v-5.5m-3.3 5.5v-5.5m0 6.6v-1.1m0 0h-1.1m0 1.1v-1.1m0 0v-5.5m-3.3 5.5v-5.5m0 6.6v-1.1m0 0h-1.1m0 1.1v-1.1m0 0v-5.5m-3.3 5.5v-5.5m0 6.6v-1.1m0 0h-1.1m0 1.1v-1.1m0 0v-5.5m-3.3 5.5v-5.5m0 6.6v-1.1m0 0H138m0 1.1v-1.1m0 0v-5.5m-3.3 5.5v-5.5m0 6.6v-1.1m0 0h-1.1m0 1.1v-1.1m0 0v-5.5m-3.3 0v5.5m0 1.1v-1.1m-1.1 1.1v-1.1m0-5.5v5.5m1.1 0h-1.1m-3.3 0v-5.5m0 6.6v-1.1m0 0h-1m0 1.1v-1.1m0 0v-5.5m-3.4 5.5v-5.5m0 6.6v-1.1m0 0h-1m0 1.1v-1.1m0 0v-5.5m-3.4 0v5.5m0 1.1v-1.1m-1 1.1v-1.1m0-5.5v5.5m1 0h-1m-3.4 0v-5.5m0 6.6v-1.1m0 0h-1m0 1.1v-1.1m0 0v-5.5m-3.4 5.5v-5.5m0 6.6v-1.1m0 0h-1m0 1.1v-1.1m0 0v-5.5m-3.4 0v5.5m0 1.1v-1.1m-1 1.1v-1.1m0-5.5v5.5m1 0h-1m-3.4 0v-5.5m0 6.6v-1.1m0 0h-1m0 1.1v-1.1m0 0v-5.5m-3.4 5.5v-5.5m0 6.6v-1.1m0 0h-1m0 1.1v-1.1m0 0v-5.5m-3.3 5.5v-5.5m0 6.6v-1.1m0 0h-1.1m0 1.1v-1.1m0 0v-5.5m-3.3 5.5v-5.5m0 6.6v-1.1m0 0h-1.1m0 1.1v-1.1m0 0v-5.5m-3.3 5.5v-5.5m0 6.6v-1.1m0 0h-1.1m0 1.1v-1.1m0 0v-5.5m125.8 33.5H66.1m140.6-1.8v1.8m-140.6-1.8v1.8m140.6-17.9v16.1M66.1 276.4h140.6m-140.6 0v16.1m0-19.2v3.1m140.6-3.1v3.1m-24.7-9v-1.1m0 0v-5.5m1 5.5v-5.5m0 6.6v-1.1m0 0h-1m-109.7-1.9v-3.6m-1.7 5.4h-3.5m5.2-1.8l-.3.4m-1.1 1.1l-.3.3m-13.3 24.6h8.2m.6 0h-.6m1.6-24.5v-5.5m133.3 3.6v-3.6m6.8 24.7v5.3m-11-47V242m0 3.8v-2m0 2.6v-.6m19.2 45v-38.3m-13.3 13.7h3.6m5 19.3v-24.7m-10.3 3.6l.3.4m1.1 1.1l.3.3M68.8 246.4v6.1m136.9 13.8v-5.5m-148.4-8.3h11.5m-3.3 33v5.3m-3.5-5.3h3.5m-3.5 0v-24.7m23.3 36.1v-.4m0 0v-.4m0-1.8v1.8m1.1-1.8v1.8m0 .4v-.4m0 .8v-.4m0 .4h-1.1m22 0v-.4m0 0v-.4m0-1.8v1.8m1-1.8v1.8m0 .4v-.4m0 .8v-.4m0 .4h-1m21.9 0v-.4m0 0v-.4m0-1.8v1.8m1.1-1.8v1.8m0 .4v-.4m0 .8v-.4m0 .4h-1.1m22 0v-.4m0 0v-.4m0-1.8v1.8m1.1-1.8v1.8m0 .4v-.4m0 .8v-.4m0 .4h-1.1m22 0v-.4m0 0v-.4m0-1.8v1.8m1-1.8v1.8m0 .4v-.4m0 .8v-.4m0 .4h-1m-107.6-2.6v-3.5m.5 3.5h-.5m-8.3-3.5v-38.3m116.9-6.1v-.6m-1 .6v-.6m21.9.6v-.6m0-2v2m0-2V242m1.1 0h-1.1m-17.5 4.4v-.6m0-2v2m0-2V242m1 1.8v2m0-2V242m0 4.4v-.6m-1-3.8h1m-9.8 4.4v-.6m0-2v2m0-2V242m1 1.8v2m0-2V242m0 4.4v-.6m-1-3.8h1m12.2 4.4v-.6m0-2v2m0-2V242m1 1.8v2m0-2V242m0 4.4v-.6m-1-3.8h1m8.8 1.8V242m0 1.8v2m0 .6v-.6m-1-2v2m1-3.8h-1m0 1.8V242m0 4.4v-.6m-3.4-2V242m0 1.8v2m0 .6v-.6m-1-2v2m1-3.8h-1m0 1.8V242m0 4.4v-.6m-109.9.6v-.6m0-2v2m0-2V242m1.1 1.8v2m0-2V242m0 4.4v-.6m-1.1-3.8h1.1m3.3 4.4v-.6m0-2v2m0-2V242m1.1 1.8v2m0-2V242m0 4.4v-.6m-1.1-3.8H82m3.3 4.4v-.6m0-2v2m0-2V242m1.1 1.8v2m0-2V242m0 4.4v-.6m-1.1-3.8h1.1m3.3 4.4v-.6m0-2v2m0-2V242m1.1 1.8v2m0-2V242m0 4.4v-.6m-1.1-3.8h1.1m3.3 4.4v-.6m0-2v2m0-2V242m1 1.8v2m0-2V242m0 4.4v-.6m-1-3.8h1m4.4 1.8V242m0 1.8v2m0 .6v-.6m-1-2v2m0-3.8h1m-1 1.8V242m0 4.4v-.6m4.4.6v-.6m0-2v2m0-2V242m1 1.8v2m0-2V242m0 4.4v-.6m-1-3.8h1m3.4 4.4v-.6m0-2v2m0-2V242m1 1.8v2m0-2V242m0 4.4v-.6m-1-3.8h1m3.4 4.4v-.6m0-2v2m0-2V242m1 1.8v2m0-2V242m0 4.4v-.6m-1-3.8h1m3.4 4.4v-.6m0-2v2m0-2V242m1 1.8v2m0-2V242m0 4.4v-.6m-1-3.8h1m3.4 4.4v-.6m0-2v2m0-2V242m1 1.8v2m0-2V242m0 4.4v-.6m-1-3.8h1m3.4 4.4v-.6m0-2v2m0-2V242m1 1.8v2m0-2V242m0 4.4v-.6m-1-3.8h1m4.4 1.8V242m0 1.8v2m0 .6v-.6m-1.1-2v2m0-3.8h1.1m-1.1 1.8V242m0 4.4v-.6m4.4.6v-.6m0-2v2m0-2V242m1.1 1.8v2m0-2V242m0 4.4v-.6m-1.1-3.8h1.1m3.3 4.4v-.6m0-2v2m0-2V242m1.1 1.8v2m0-2V242m0 4.4v-.6M138 242h1.1m3.3 4.4v-.6m0-2v2m0-2V242m1.1 1.8v2m0-2V242m0 4.4v-.6m-1.1-3.8h1.1m3.3 4.4v-.6m0-2v2m0-2V242m1.1 1.8v2m0-2V242m0 4.4v-.6m-1.1-3.8h1.1m4.4 1.8V242m0 1.8v2m0 .6v-.6m-1.1-2v2m0-3.8h1.1m-1.1 1.8V242m0 4.4v-.6m8.8.6v-.6m0-2v2m0-2V242m1.1 1.8v2m0-2V242m0 4.4v-.6M160 242h1.1m3.3 4.4v-.6m0-2v2m0-2V242m1 1.8v2m0-2V242m0 4.4v-.6m-1-3.8h1m7.8 1.8v2m1-2v2m32.5 45h.5m3.5-5.3h-3.5m-3.3-39.1v6.1m11.5 38.3h-8.2m8.2-38.3h-11.5m3.2 41.8v-3.5m-.4 3.5h.4"/><path class="st1" d="M221.6 313.9c0-7.3 5.9-13.2 13.2-13.2 7.3 0 13.2 5.9 13.2 13.2 0 7.3-5.9 13.2-13.2 13.2-7.3 0-13.2-5.9-13.2-13.2zm-196.8 0c0-7.3 5.9-13.2 13.2-13.2 7.3 0 13.2 5.9 13.2 13.2 0 7.3-5.9 13.2-13.2 13.2-7.3 0-13.2-5.9-13.2-13.2zm0-196.8c0-7.3 5.9-13.2 13.2-13.2 7.3 0 13.2 5.9 13.2 13.2 0 7.3-5.9 13.2-13.2 13.2-7.3 0-13.2-5.9-13.2-13.2zm196.8 0c0-7.3 5.9-13.2 13.2-13.2 7.3 0 13.2 5.9 13.2 13.2 0 7.3-5.9 13.2-13.2 13.2-7.3 0-13.2-5.9-13.2-13.2z"/><path class="st2" d="M125.2 135.3h6.5m-6.5-13.6v13.6m6.5-13.6h-6.5m6.5 13.6v-13.6m-24.1 14.5h10.1m-10.1-20.6v20.6m10.1-20.6h-10.1m10.1 20.6v-20.6M76 136.2h10.1M76 115.6v20.6m10.1-20.6H76m10.1 20.6v-20.6m45.6-9h-7.4m7.4 14v-14m-7.4 14h7.4m-7.4-14v14m-65 94.5h6.5m-6.5-13.2v13.2m6.5-13.2h-6.5m6.5 13.2v-13.2m107.7-18.5h6.6m-6.6-13.1v13.1m6.6-13.1h-6.6m6.6 13.1v-13.1M62.8 188.7h6.6m-6.6-13.2v13.2m6.6-13.2h-6.6m6.6 13.2v-13.2m74.7-7.9h-6.6m6.6 13.2v-13.2m-6.6 13.2h6.6m-6.6-13.2v13.2m3.5-29.4h-6.6m6.6 13.2v-13.2m-6.6 13.2h6.6m-6.6-13.2v13.2m-90.7-20.9v6.6m13.1-6.6H43.7m13.1 6.6v-6.6m-13.1 6.6h13.1m82-28.4h-6.6m6.6 13.2v-13.2m-6.6 13.2h6.6m-6.6-13.2v13.2m72-3.5h-6.5m6.5 13.2v-13.2m-6.5 13.2h6.5m-6.5-13.2v13.2m-53.9 72.7v15.4m24.6-15.4h-24.6m24.6 15.4v-15.4m-24.6 15.4h24.6m-50.9-15.4v15.4m24.6-15.4h-24.6m24.6 15.4v-15.4m-24.6 15.4h24.6m-54.3-.5v-14.5m-24.2 14.5h24.2m-24.2-14.5v14.5m24.2-14.5H63.6m-26.1-42.6v13.6m23.7-13.6H37.5m23.7 13.6v-13.6m-23.7 13.6h23.7m-37.1 6h10.1m-10.1-20.2v20.2m10.1-20.2H24.1m10.1 20.2v-20.2m55.2-36.3V152m23.7-13.6H89.4m23.7 13.6v-13.6M89.4 152h23.7m-23.7-34.9v19.3m14.9-19.3H89.4m14.9 19.3v-19.3m-14.9 19.3h14.9m-29.4 8.8v-17.5m-17.6 17.5h17.6m-17.6-17.5v17.5m17.6-17.5H57.3M50 257.9v-14.5m-24.1 14.5H50m-24.1-14.5v14.5M50 243.4H25.9m13.6-8.8V228m-13.6 6.6h13.6M25.9 228v6.6m13.6-6.6H25.9m29.8-54.9h10.1m-10.1-20.6v20.6m10.1-20.6H55.7m10.1 20.6v-20.6M55.7 232h6.6m-6.6-13.6V232m6.6-13.6h-6.6m6.6 13.6v-13.6m-22.8 23.3v-6.6m-13.6 6.6h13.6m-13.6-6.6v6.6m13.6-6.6H25.9M50 289.6v-14.5m-24.1 14.5H50m-24.1-14.5v14.5M50 275.1H25.9m203.6-30.4h-7m7 13.7v-13.7m-7 13.7h7m-7-13.7v13.7m-11.9 63.4v-17.5M193 321.8h17.6M193 304.3v17.5m17.6-17.5H193m-4.8-196c0-1.9 1.6-3.5 3.5-3.5s3.5 1.6 3.5 3.5-1.6 3.5-3.5 3.5-3.5-1.5-3.5-3.5zm-56 12.3h6.6m-6.6-13.2v13.2m6.6-13.2h-6.6m6.6 13.2v-13.2M76 158.8h10.1M76 138.6v20.2m10.1-20.2H76m10.1 20.2v-20.2m107.4 26v-51m-51 51h51m-51-51v51m51-51h-51M37.5 154v19.3M52.4 154H37.5m14.9 19.3V154m-14.9 19.3h14.9m-27.6 47.1h24.6m-24.6-23.8v23.8m24.6-23.8H24.8m24.6 23.8v-23.8m41.7 20.9v15.4m24.6-15.4H91.1m24.6 15.4v-15.4m-24.6 15.4h24.6m-65.9 40.4v-13.6m-23.7 13.6h23.7m-23.7-13.6v13.6m23.7-13.6H26.1M92 106.8v6.6m13.2-6.6H92m13.2 6.6v-6.6M92 113.4h13.2m65 104.1v15.4m24.6-15.4h-24.6m24.6 15.4v-15.4m-24.6 15.4h24.6m2.9-115.8h6.5m-6.5-13.2v13.2m6.5-13.2h-6.5m6.5 13.2v-13.2M41 150.3v-6.6m-13.2 6.6H41m-13.2-6.6v6.6m13.2-6.6H27.8m49.9 45h6.6m-6.6-13.2v13.2m6.6-13.2h-6.6m6.6 13.2v-13.2m96.2 7.9h6.6m-6.6-13.1v13.1m6.6-13.1h-6.6m6.6 13.1v-13.1M51.3 215.1h6.6m-6.6-13.2v13.2m6.6-13.2h-6.6m6.6 13.2v-13.2M159 111.6V105m-13.6 6.6H159m-13.6-6.6v6.6M159 105h-13.6m52.3 26.2h6.5m-6.5-13.7v13.7m6.5-13.7h-6.5m6.5 13.7v-13.7M24.1 173.1h10.1m-10.1-20.6v20.6m10.1-20.6H24.1m10.1 20.6v-20.6"/><g fill="none" stroke="#000" stroke-width=".709" stroke-miterlimit="10"><path d="M435.4 96.8h10.1v7.1h3.6v1.2h1.3v1.4h.9v9.1h2.5V136h-2.5v2.3h3.1V152h-.7v21.1h-4.6v1.4h4.7v.8h.4V189h-.5v6h-8.3v1.8h7.1V218h2.2v14.6h-4.4v10.8h8v3h4.7v28.1l4.4 1.9v16.1c0 1.4-1.5 1.7-1.5 1.7H450v1.9l-.8.8h-3.8v7.4h.7v17.5h-.7V334h-9.9v-10.8h-8v-20.7h2.5v-4h1v-.8h-3.6v-16.5h.5v-13.3H425s-.6-11.2-4.2-17.5v-70.1l2.3-5.7v-17h7.4v-1.3h-3.2V146h3.8v-3h-3.6v-10.1h3.6v-7.1h4.6v-2.7h-5.6v-14.2h5.5l-.2-12.1h0z"/><path d="M596.4 100.4c-7.3 0-13.2 5.9-13.2 13.2v210.9c0 7.3 5.9 13.2 13.2 13.2h117.4c.3 0 1.1-.1 1.2-.7.4-2.4 2.6-4 5-3.7 1.9.3 3.4 1.8 3.7 3.7.1.5.9.7 1.2.7h82.3c7.3 0 13.2-5.9 13.2-13.2V113.6c0-7.3-5.9-13.2-13.2-13.2H663.5c-.3 0-.7.1-.9.4l-.3.3c-.4 2.4-2.6 4-5 3.7-1.9-.3-3.4-1.8-3.7-3.7l-.3-.3c-.2-.2-.6-.4-.9-.4h-56m-354.6-3.5c7.3 0 13.2 5.9 13.2 13.2V321c0 7.3-5.9 13.2-13.2 13.2H124.4c-.3 0-1.1-.1-1.2-.7-.4-2.4-2.6-4-5-3.7-1.9.3-3.4 1.8-3.7 3.7-.1.5-.9.7-1.2.7H30.9c-7.3 0-13.2-5.9-13.2-13.2V110.1c0-7.3 5.9-13.2 13.2-13.2h143.8c.3 0 .7.1.9.4l.3.3c.4 2.4 2.6 4 5 3.7 1.9-.3 3.4-1.8 3.7-3.7l.3-.3c.2-.2.6-.4.9-.4h56" stroke-linecap="round" stroke-linejoin="round"/></g><path class="st5" d="M435.9 96.9V65.3m9.7 31.6V65.3"/><path class="st6" d="M449.4 68.9H504"/><path d="M450.1 69.8l-3.7-.9 3.7-1v1.9z"/><path class="st6" d="M470.5 35.5h37"/><path d="M471.2 36.5l-3.7-1 3.7-1v2z"/><path class="st6" d="M417.5 35.5h-37"/><path d="M416.8 34.5l3.7 1-3.7 1v-2z"/><path class="st6" d="M432.9 68.9H322.8"/><path d="M432.2 67.9l3.7 1-3.7.9v-1.9z"/><path class="st5" d="M445.6 68.9h-9.7M421 180.4V31.6m46.5 244.8V31.6m-45.7 3.5h45.7m136.4 69.7V64.4m196.9 40.4V64.4"/><path class="st6" d="M607.8 67.9h189.9"/><path d="M608.5 68.9l-3.7-1 3.7-1v2zm188.6 0l3.7-1-3.7-1v2z"/><path class="st5" d="M800.8 120.6h65.9m-65.9 196.9h65.9"/><path class="st6" d="M863.1 124.5v189.9"/><path d="M862.2 125.2l.9-3.7 1 3.7h-1.9zm0 188.6l.9 3.7 1-3.7h-1.9z"/><path class="st5" d="M583.7 113.6V32.8M821 113.6V32.8"/><path class="st6" d="M587.6 36.3h230.3"/><path d="M588.3 37.3l-3.7-1 3.7-1v2zm229 0l3.7-1-3.7-1v2z"/><path class="st5" d="M807.8 100.4h95.5m-92.8 237.3h92.8"/><path class="st6" d="M899.7 104.3v230.4"/><path d="M898.7 105l1-3.7 1 3.7h-2zm0 229l1 3.7 1-3.7h-2z"/><path class="st6" d="M48.4 327l45.2 50.2"/><path d="M48.2 328.2l-1.8-3.4 3.2 2.1-1.4 1.3z"/><path class="st5" d="M93.6 377.2h91.1"/><path class="st7" d="M135.7 344.3V85.6M10 215.5h277"/><path class="st8" d="M135.7 344.3V85.6M10 215.5h277"/><path class="st7" d="M392.7 216.3h98"/><path class="st8" d="M392.7 216.3h98"/><path class="st7" d="M702.8 349.7V85M570.6 219H835"/><path class="st8" d="M702.8 349.7V85M570.6 219H835"/><path class="st5" d="M53.8 117.1H22.1m15.8-15.8v31.6m212.7-15.8H219m15.8-15.8v31.6m15.8 181H219m15.8-15.8v31.7m-181-15.9H22.1m15.8-15.8v31.7m581.8-209.2h-31.6m15.8-15.8v31.6m212.7-15.8h-31.7m15.9-15.8v31.6m15.8 181.1h-31.7m15.9-15.9v31.7m-181.1-15.8h-31.6m15.8-15.9v31.7"/><text transform="translate(107.201 371.81)" class="st9"><tspan x="0" y="0" class="st10 st11">4 x </tspan><tspan x="46.5" y="0" class="st10 st11">Ø 3</tspan></text><text transform="translate(328.618 64.483)" class="st10 st11">max. 1.1</text><text transform="translate(420.297 24.796)" class="st9"><tspan x="11" y="0" class="st10 st11">≈ 5.3</tspan></text><text transform="translate(678.64 62.17)" class="st10 st11">22.4</text><text transform="rotate(-90 550.512 -306.897)" class="st10 st11">22.4</text><text transform="translate(688.982 30.534)" class="st10 st11">27</text><text transform="rotate(-90 563.64 -330.366)" class="st10 st11">27</text><text transform="translate(795 386.25)" class="st13 st10 st14">Not to scale</text><text transform="translate(795 402.15)" class="st13 st10 st14">Dimensions in mm</text></svg>