<svg version="1.0" xmlns="http://www.w3.org/2000/svg" viewBox="0 0 1000 335"><path clip-rule="evenodd" fill="none" stroke="#000" stroke-miterlimit="3.864" d="M279.8 213.3v-38.9"/><g clip-rule="evenodd"><path fill-rule="evenodd" d="M328.3 193.9v-6l15 6-15 6z"/><path fill="none" stroke="#000" stroke-linejoin="round" stroke-miterlimit="3.864" d="M304 201.2h20.6l-10.3-7.3h15"/></g><path clip-rule="evenodd" fill="none" stroke="#000" stroke-linejoin="round" stroke-miterlimit="3.864" d="M527.9 255.6h39.8m-194.1-40.8h138.6m-151.9-34.9v29.7m.2-8.5l13.5 13.5m152.3-13.2v-27.1m2 82.1v-27m38.8 26.4v-54.4m-193.6-27.3h286.1"/><path d="M521.7 175.5c0-2.7 2.2-4.9 4.9-4.9s4.9 2.2 4.9 4.9-2.2 4.9-4.9 4.9-4.9-2.2-4.9-4.9z"/><path fill="none" stroke="#000" stroke-width=".5" stroke-miterlimit="3.864" d="M521.7 175.5c0-2.7 2.2-4.9 4.9-4.9s4.9 2.2 4.9 4.9-2.2 4.9-4.9 4.9-4.9-2.2-4.9-4.9z"/><g clip-rule="evenodd"><path fill-rule="evenodd" d="M364 211.4l6.9-6.8v6.8z"/><path fill="none" stroke="#000" stroke-linejoin="round" stroke-miterlimit="3.864" d="M364 211.4l6.9-6.8v6.8z"/></g><path clip-rule="evenodd" fill="none" stroke="#000" stroke-linejoin="round" stroke-miterlimit="3.864" d="M360.3 187.9l13.6-13.6M512.3 200v29.8m.2-15.1l13.5 13.5"/><g clip-rule="evenodd"><path fill-rule="evenodd" fill="#FFF" d="M516.7 229.8l10.9-10.9v10.9z"/><path fill="none" stroke="#000" stroke-linejoin="round" stroke-miterlimit="3.864" d="M516.7 229.8l10.9-10.9v10.9z"/></g><path clip-rule="evenodd" fill="none" stroke="#000" stroke-linejoin="round" stroke-miterlimit="3.864" d="M512.3 214.3l13.6-13.6"/><text transform="translate(478.743 204.724)" font-family="Helvetica,Arial,sans-serif" font-size="18.021">Q1</text><text transform="translate(660.434 31.07)"><tspan x="0" y="0" font-family="Helvetica,Arial,sans-serif" font-size="18.021">6-pin </tspan><tspan x="-22.1" y="19.2" font-family="Helvetica,Arial,sans-serif" font-size="18.021">receptacle</tspan></text><path fill="none" stroke="#000" stroke-linejoin="round" stroke-miterlimit="3.864" d="M659.8 65.4h30.1v182.2h-30.1V65.4z"/><text transform="translate(669.611 93.544)" font-family="Helvetica,Arial,sans-serif" font-size="18.021">1</text><text transform="translate(669.611 122.41)" font-family="Helvetica,Arial,sans-serif" font-size="18.021">2</text><text transform="translate(669.611 151.275)" font-family="Helvetica,Arial,sans-serif" font-size="18.021">3</text><text transform="translate(669.611 180.137)" font-family="Helvetica,Arial,sans-serif" font-size="18.021">4</text><text transform="translate(669.611 209.002)" font-family="Helvetica,Arial,sans-serif" font-size="18.021">5</text><text transform="translate(669.611 237.866)" font-family="Helvetica,Arial,sans-serif" font-size="18.021">6</text><path clip-rule="evenodd" fill="none" stroke="#000" stroke-linejoin="round" stroke-miterlimit="3.864" d="M566 201.2h94.1"/><text transform="translate(271.164 151.5)" font-family="Helvetica,Arial,sans-serif" font-size="18.026">Optocoupler</text><g fill="none" stroke="#000" stroke-miterlimit="3.864"><path clip-rule="evenodd" d="M785.8 305.2v-104"/><path clip-rule="evenodd" stroke-linejoin="round" d="M786.2 201.7h-96.3"/><g stroke-linejoin="round"><path clip-rule="evenodd" d="M794.8 305.2h-18"/><path d="M780.2 309.1h11.3m-8.9 3.9h6.4"/></g></g><g fill="none" stroke="#000" stroke-linejoin="round" stroke-miterlimit="3.864"><path clip-rule="evenodd" d="M975.4 305.2h-18"/><path d="M960.8 309.1h11.3m-8.9 3.9h6.4"/></g><path fill="none" stroke="#000" stroke-miterlimit="3.864" d="M785.4 51.6V25h181v280.2"/><text transform="translate(893.806 74.41)"><tspan x="0" y="0" font-family="Helvetica,Arial,sans-serif" font-size="18.026">3.3–24 </tspan><tspan x="11" y="19.3" font-family="Helvetica,Arial,sans-serif" font-size="18.026">VDC</tspan></text><g clip-rule="evenodd" stroke="#000" stroke-linejoin="round" stroke-miterlimit="3.864"><path fill-rule="evenodd" fill="#FFF" d="M981.1 76.1c0 7-5.7 12.6-12.6 12.6-7 0-12.7-5.7-12.7-12.6 0-7 5.7-12.6 12.7-12.6 7-.1 12.6 5.6 12.6 12.6z"/><path d="M961.5 74.1h13.9m-13.9 4h13.9" fill="none"/></g><path clip-rule="evenodd" fill="none" stroke="#000" stroke-linejoin="round" stroke-miterlimit="3.864" d="M785.3 34.2v138.2"/><path clip-rule="evenodd" fill="none" stroke="#000" stroke-miterlimit="3.864" d="M770.9 123.5h29.2"/><g clip-rule="evenodd"><path fill-rule="evenodd" d="M770.9 102h29.2l-14.6 19.7z"/><path fill="none" stroke="#000" stroke-linejoin="round" stroke-miterlimit="3.864" d="M770.9 102h29.2l-14.6 19.7z"/></g><g clip-rule="evenodd"><path fill-rule="evenodd" d="M819.9 105.3l-2.5-3.3 10.9-3-5.9 9.7z"/><path fill="none" stroke="#000" stroke-width=".5" stroke-linejoin="round" stroke-miterlimit="3.864" d="M807.3 114.7l13.2-9.8"/></g><g clip-rule="evenodd"><path fill-rule="evenodd" d="M818.7 93.4l-2.6-3.3 11-3-5.9 9.7z"/><path fill="none" stroke="#000" stroke-width=".5" stroke-linejoin="round" stroke-miterlimit="3.864" d="M806.1 102.8l13.1-9.8"/></g><text transform="translate(842.085 95.952)"><tspan x="0" y="0" font-family="Helvetica,Arial,sans-serif" font-size="18.021">LED</tspan><tspan x="-10.1" y="19.2" font-family="Helvetica,Arial,sans-serif" font-size="18.021">output</tspan></text><path clip-rule="evenodd" fill="none" stroke="#000" stroke-linejoin="round" stroke-miterlimit="3.864" d="M786.1 173.9l-96.2.3"/><path fill="#FFF" d="M762.4 164v19.4H704V164h58.4z"/><path fill="none" stroke="#000" stroke-miterlimit="3.864" d="M762.4 164v19.4H704V164h58.4z"/><path clip-rule="evenodd" fill="none" stroke="#000" stroke-miterlimit="3.864" d="M270.1 199.1h19.5"/><g clip-rule="evenodd"><path fill-rule="evenodd" d="M270.1 187.5h19.5l-9.8 9.7z"/><path fill="none" stroke="#000" stroke-linejoin="round" stroke-miterlimit="3.864" d="M270.1 187.5h19.5l-9.8 9.7z"/></g><path fill="none" stroke="#000" stroke-linejoin="round" stroke-miterlimit="3.864" d="M249.4 162.7h150.7v63H249.4v-63z"/><path clip-rule="evenodd" fill="none" stroke="#000" stroke-miterlimit="3.864" d="M244 174.8h35.9l-.1-.3v39"/><path clip-rule="evenodd" fill="none" stroke="#000" stroke-linejoin="round" stroke-miterlimit="3.864" d="M241.4 213.6h38.7"/><path clip-rule="evenodd" fill="none" stroke="#000" stroke-width=".9" stroke-linejoin="round" stroke-miterlimit="3.864" stroke-dasharray="8,4" d="M141.5 213.6h99.9"/><path clip-rule="evenodd" fill="none" stroke="#000" stroke-linejoin="round" stroke-miterlimit="3.864" stroke-dasharray="8,4" d="M141.5 174.7h102.6"/><text transform="translate(59.324 188.037)"><tspan x="0" y="0" font-family="Helvetica,Arial,sans-serif" font-size="18.975">Further</tspan><tspan x="0" y="22.8" font-family="Helvetica,Arial,sans-serif" font-size="18.975">circuitry</tspan></text><path fill="none" stroke="#000" stroke-linejoin="round" stroke-miterlimit="3.864" stroke-dasharray="8,4" d="M19.8 67.6h640v249h-640v-249z"/><text transform="translate(37.969 105.653)" font-family="Helvetica,Arial,sans-serif" font-weight="bold" font-size="22.77">Camera</text><path clip-rule="evenodd" fill="none" stroke="#000" stroke-miterlimit="3.864" d="M606.3 174.1v27.1"/><g clip-rule="evenodd"><path fill-rule="evenodd" d="M616.1 194.7h-19.5l9.7-11.6z"/><path fill="none" stroke="#000" stroke-width=".003" stroke-linejoin="round" stroke-miterlimit="3.864" d="M616.1 194.7h-19.5l9.7-11.6z"/><path fill="none" stroke="#000" stroke-width=".85" stroke-miterlimit="3.864" d="M600.6 183.6h11.3m-.3-.2l3.4 3.4m-17.6-6.4l3.5 3.4"/></g><path d="M601.4 174.1c0-2.7 2.2-4.9 4.9-4.9s4.9 2.2 4.9 4.9-2.2 4.9-4.9 4.9-4.9-2.2-4.9-4.9z"/><path fill="none" stroke="#000" stroke-width=".5" stroke-miterlimit="3.864" d="M601.4 174.1c0-2.7 2.2-4.9 4.9-4.9s4.9 2.2 4.9 4.9-2.2 4.9-4.9 4.9-4.9-2.2-4.9-4.9z"/><path d="M601.4 201.2c0-2.7 2.2-4.9 4.9-4.9s4.9 2.2 4.9 4.9-2.2 4.9-4.9 4.9c-2.8-.1-4.9-2.2-4.9-4.9z"/><path fill="none" stroke="#000" stroke-width=".5" stroke-miterlimit="3.864" d="M601.4 201.2c0-2.7 2.2-4.9 4.9-4.9s4.9 2.2 4.9 4.9-2.2 4.9-4.9 4.9c-2.8-.1-4.9-2.2-4.9-4.9z"/><text transform="translate(969.671 61.238)" font-family="Helvetica,Arial,sans-serif" font-size="18.975">+</text><text transform="translate(969.631 103.017)" font-family="Helvetica,Arial,sans-serif" font-size="18.975">-</text></svg>