<svg version="1.0" xmlns="http://www.w3.org/2000/svg" viewBox="0 0 445.4 35.7"><path fill="#E64614" d="M40.8 9.5h18.9v18.9H40.8V9.5z"/><path fill="none" d="M44.7 12h11.1v18.9H44.7V12z"/><text transform="translate(44.713 25.958)" fill="#FFF" font-family="Helvetica,Arial,sans-serif" font-weight="bold" font-size="18.672">1</text><path fill="#E64614" d="M3.9 9.5h18.9v18.9H3.9V9.5z"/><path fill="none" d="M7.8 12h11.1v18.9H7.8V12z"/><text transform="translate(7.842 25.958)" fill="#FFF" font-family="Helvetica,Arial,sans-serif" font-weight="bold" font-size="18.672">0</text><path fill="#E64614" d="M78.2 9.5h18.9v18.9H78.2V9.5z"/><path fill="none" d="M82.1 12h11v18.9h-11V12z"/><text transform="translate(82.087 25.958)" fill="#FFF" font-family="Helvetica,Arial,sans-serif" font-weight="bold" font-size="18.672">2</text><path fill="#E64614" d="M115.5 9.5h18.9v18.9h-18.9V9.5z"/><path fill="none" d="M119.5 12h11v18.9h-11V12z"/><text transform="translate(119.458 25.958)" fill="#FFF" font-family="Helvetica,Arial,sans-serif" font-weight="bold" font-size="18.672">3</text><path fill="#E64614" d="M152.9 9.5h18.9v18.9h-18.9V9.5z"/><path fill="none" d="M156.8 12h11.1v18.9h-11.1V12z"/><text transform="translate(156.832 25.958)" fill="#FFF" font-family="Helvetica,Arial,sans-serif" font-weight="bold" font-size="18.672">4</text><path fill="#32B09E" d="M190.3 9.5h18.9v18.9h-18.9V9.5z"/><path fill="none" d="M194.2 12h11.1v18.9h-11.1V12z"/><text transform="translate(194.205 25.958)" fill="#FFF" font-family="Helvetica,Arial,sans-serif" font-weight="bold" font-size="18.672">0</text><path fill="#32B09E" d="M227.7 9.5h18.9v18.9h-18.9V9.5z"/><path fill="none" d="M231.6 12h11v18.9h-11V12z"/><text transform="translate(231.578 25.958)" fill="#FFF" font-family="Helvetica,Arial,sans-serif" font-weight="bold" font-size="18.672">1</text><path fill="none" stroke="#000" stroke-width="2" stroke-miterlimit="3.864" d="M28.3 18.9h6.5m30.9 0h6.5m30.9.1h6.4m30.9-.1h6.5m30.9 0h6.5m30.9 0h6.5m30.9 0h6.4"/><text transform="translate(266.694 25.519)" font-family="Helvetica,Arial,sans-serif" font-weight="bold" font-size="18.672">...</text><text transform="translate(26.404 12.706)" font-family="Helvetica,Arial,sans-serif" font-size="9.699">P1</text><text transform="translate(63.674 12.706)" font-family="Helvetica,Arial,sans-serif" font-size="9.699">P1</text><text transform="translate(100.944 12.706)" font-family="Helvetica,Arial,sans-serif" font-size="9.699">P1</text><text transform="translate(138.214 12.706)" font-family="Helvetica,Arial,sans-serif" font-size="9.699">P1</text><text transform="translate(175.484 12.706)" font-family="Helvetica,Arial,sans-serif" font-size="9.699">P1</text><text transform="translate(212.754 12.706)" font-family="Helvetica,Arial,sans-serif" font-size="9.699">P1</text><path fill="#FFF" stroke="#1D1D1B" stroke-miterlimit="10" d="M308.6 8.7h134.1v19.2H308.6z"/><text transform="translate(313.661 21.686)" font-family="Helvetica,Arial,sans-serif" font-size="11">P1 = path 1 trigger signal</text></svg>