<svg version="1.0" xmlns="http://www.w3.org/2000/svg" viewBox="0 0 914.4 540"><path fill="#EDEDEE" d="M195.8 108.4h189v213.4h-189V108.4z"/><g font-family="Helvetica,Arial,sans-serif" font-size="17.032"><text transform="translate(619.829 271.59)">6-pin</text><text transform="translate(596.425 288.518)">receptacle</text></g><path fill="none" stroke="#000" stroke-linejoin="round" stroke-miterlimit="3.864" d="M589.5 297.8h26.6v160.4h-26.6V297.8z"/><g font-family="Helvetica,Arial,sans-serif" font-size="17.032"><text transform="translate(598.462 321.696)">1</text><text transform="translate(598.462 347.086)">2</text><text transform="translate(598.462 372.475)">3</text><text transform="translate(598.462 397.866)">4</text><text transform="translate(598.462 423.252)">5</text><text transform="translate(598.462 448.643)">6</text></g><path clip-rule="evenodd" fill="none" stroke="#000" stroke-linejoin="round" stroke-miterlimit="3.864" d="M521.6 441.9H589m-250.2 0h182.8m-197.8-49.5v26.2m0-7.7l15.1 15.2m-.7-57.7h252M338.8 426v15.9m-15-42.3l15.3-15.3m-174.3 21h158.9"/><path clip-rule="evenodd" fill="none" stroke="#000" stroke-miterlimit="3.864" d="M338.8 368.5v16.4"/><path d="M334.6 441.9c0-2.4 1.9-4.3 4.3-4.3s4.3 1.9 4.3 4.3-1.9 4.3-4.3 4.3-4.3-1.9-4.3-4.3z"/><path fill="none" stroke="#000" stroke-width=".5" stroke-miterlimit="3.864" d="M334.6 441.9c0-2.4 1.9-4.3 4.3-4.3s4.3 1.9 4.3 4.3-1.9 4.3-4.3 4.3-4.3-1.9-4.3-4.3z"/><path d="M334.6 368.5c0-2.4 1.9-4.3 4.3-4.3s4.3 1.9 4.3 4.3-1.9 4.3-4.3 4.3c-2.4-.1-4.3-2-4.3-4.3z"/><path fill="none" stroke="#000" stroke-width=".5" stroke-miterlimit="3.864" d="M334.6 368.5c0-2.4 1.9-4.3 4.3-4.3s4.3 1.9 4.3 4.3-1.9 4.3-4.3 4.3c-2.4-.1-4.3-2-4.3-4.3z"/><path d="M440.8 441.9c0-2.4 1.9-4.3 4.3-4.3s4.3 1.9 4.3 4.3-1.9 4.3-4.3 4.3c-2.3 0-4.3-1.9-4.3-4.3z"/><path fill="none" stroke="#000" stroke-width=".5" stroke-miterlimit="3.864" d="M440.8 441.9c0-2.4 1.9-4.3 4.3-4.3s4.3 1.9 4.3 4.3-1.9 4.3-4.3 4.3c-2.3 0-4.3-1.9-4.3-4.3z"/><path d="M440.9 368.4c0-2.4 1.9-4.3 4.3-4.3s4.3 1.9 4.3 4.3-1.9 4.3-4.3 4.3-4.3-1.9-4.3-4.3z"/><path fill="none" stroke="#000" stroke-width=".5" stroke-miterlimit="3.864" d="M440.9 368.4c0-2.4 1.9-4.3 4.3-4.3s4.3 1.9 4.3 4.3-1.9 4.3-4.3 4.3-4.3-1.9-4.3-4.3z"/><path clip-rule="evenodd" fill="none" stroke="#000" stroke-miterlimit="3.864" d="M445.1 368.9V443"/><g font-family="Helvetica,Arial,sans-serif" font-size="17.032"><text transform="translate(57.776 410.182)">FPGA</text><text transform="translate(107.665 410.182)">output</text></g><path clip-rule="evenodd" fill="none" stroke="#000" stroke-miterlimit="3.864" d="M55.5 390.6h94.6l14.7 14.7-15.1 15.1H55.5z"/><path fill="#FFF" d="M241.4 413.9v-17.2h51.4v17.2h-51.4z"/><path fill="none" stroke="#000" stroke-miterlimit="3.864" d="M241.4 413.9v-17.2h51.4v17.2h-51.4z"/><path clip-rule="evenodd" fill="none" stroke="#000" stroke-linejoin="round" stroke-miterlimit="3.864" d="M250.9 153.3H340"/><path d="M334.6 153.2c0-2.4 1.9-4.3 4.3-4.3s4.3 1.9 4.3 4.3-1.9 4.3-4.3 4.3-4.3-1.9-4.3-4.3z"/><path fill="none" stroke="#000" stroke-width=".5" stroke-miterlimit="3.864" d="M334.6 153.2c0-2.4 1.9-4.3 4.3-4.3s4.3 1.9 4.3 4.3-1.9 4.3-4.3 4.3-4.3-1.9-4.3-4.3z"/><path clip-rule="evenodd" fill="none" stroke="#000" stroke-linejoin="round" stroke-miterlimit="3.864" d="M265.9 206.2h72.9"/><path clip-rule="evenodd" fill="none" stroke="#000" stroke-miterlimit="3.864" d="M338.8 368.5V75.6"/><path fill="#FFF" d="M330.3 219.2h17.2v23h-17.2v-23z"/><path fill="none" stroke="#000" stroke-width=".669" stroke-miterlimit="3.864" d="M330.3 219.2h17.2v23h-17.2v-23z"/><path clip-rule="evenodd" fill="none" stroke="#000" stroke-linejoin="round" stroke-miterlimit="3.864" d="M265.9 219.3v-26.2m0 7.7l-15.4-15.4m.3.3v-32.3m15.1 58.6l-15.3 15.3"/><g fill="none" stroke="#000" stroke-linejoin="round"><path d="M250.7 227.1h-3"/><path stroke-dasharray="5.6986,2.8493" d="M244.9 227.1h-75.5"/><path d="M168 227.1h-3"/></g><path d="M246.5 227.1c0-2.4 1.9-4.3 4.3-4.3s4.3 1.9 4.3 4.3-1.9 4.3-4.3 4.3c-2.3 0-4.3-2-4.3-4.3z"/><path fill="none" stroke="#000" stroke-width=".5" stroke-miterlimit="3.864" d="M246.5 227.1c0-2.4 1.9-4.3 4.3-4.3s4.3 1.9 4.3 4.3-1.9 4.3-4.3 4.3c-2.3 0-4.3-2-4.3-4.3z"/><path d="M246.5 153.3c0-2.4 1.9-4.3 4.3-4.3s4.3 1.9 4.3 4.3-1.9 4.3-4.3 4.3c-2.4-.1-4.3-2-4.3-4.3z"/><path fill="none" stroke="#000" stroke-width=".5" stroke-miterlimit="3.864" d="M246.5 153.3c0-2.4 1.9-4.3 4.3-4.3s4.3 1.9 4.3 4.3-1.9 4.3-4.3 4.3c-2.4-.1-4.3-2-4.3-4.3z"/><path clip-rule="evenodd" fill="none" stroke="#000" stroke-linejoin="round" stroke-miterlimit="3.864" d="M250.8 227.1v84.8"/><path fill="#FFF" d="M242.4 257.2h17.1v23.1h-17.1v-23.1z"/><path fill="none" stroke="#000" stroke-width=".669" stroke-miterlimit="3.864" d="M242.4 257.2h17.1v23.1h-17.1v-23.1z"/><path fill="#FFF" d="M330.3 170.5h17.2v23h-17.2v-23z"/><path fill="none" stroke="#000" stroke-width=".669" stroke-miterlimit="3.864" d="M330.3 170.5h17.2v23h-17.2v-23z"/><path d="M334.5 206.2c0-2.4 1.9-4.3 4.3-4.3s4.3 1.9 4.3 4.3-1.9 4.3-4.3 4.3c-2.3 0-4.3-1.9-4.3-4.3z"/><path fill="none" stroke="#000" stroke-width=".5" stroke-miterlimit="3.864" d="M334.5 206.2c0-2.4 1.9-4.3 4.3-4.3s4.3 1.9 4.3 4.3-1.9 4.3-4.3 4.3c-2.3 0-4.3-1.9-4.3-4.3z"/><path clip-rule="evenodd" fill="none" stroke="#000" stroke-linejoin="round" stroke-miterlimit="3.864" d="M338.8 425.6v48"/><text transform="translate(202.202 127.018)" font-family="Helvetica,Arial,sans-serif" font-size="17.032">Pull-up resistor</text><path fill="none" stroke="#000" stroke-width=".722" stroke-linejoin="round" stroke-miterlimit="3.864" stroke-dasharray="8,4" d="M25.6 24.6h563.9v485.7H25.6V24.6z"/><text transform="translate(49.89 62.377)" font-family="Helvetica,Arial,sans-serif" font-weight="bold" font-size="21.514">Camera</text><g clip-rule="evenodd"><path fill-rule="evenodd" d="M325.8 422l9.1-9v9z"/><path fill="none" d="M325.8 422l9.1-9v9z"/></g><g clip-rule="evenodd"><path fill-rule="evenodd" d="M260.3 186.1l-9 9.1h9z"/><path fill="none" stroke="#000" stroke-width=".028" stroke-linejoin="round" stroke-miterlimit="3.864" d="M260.3 186.1l-9 9.1h9z"/></g><g clip-rule="evenodd"><path fill-rule="evenodd" d="M457.6 412.6h-25l12.5-14.9z"/><path fill="none" stroke="#000" stroke-width=".003" stroke-linejoin="round" stroke-miterlimit="3.864" d="M457.6 412.6h-25l12.5-14.9z"/></g><path clip-rule="evenodd" fill="none" stroke="#000" stroke-width=".85" stroke-miterlimit="3.864" d="M437.8 398.4h14.5m-.4-.3l4.4 4.4m-22.5-8.3l4.4 4.4"/><g clip-rule="evenodd"><path fill-rule="evenodd" d="M326.4 264.9h25l-12.5 14.8z"/><path fill="none" stroke="#000" stroke-width=".003" stroke-linejoin="round" stroke-miterlimit="3.864" d="M326.4 264.9h25l-12.5 14.8z"/></g><path clip-rule="evenodd" fill="none" stroke="#000" stroke-width=".85" stroke-miterlimit="3.864" d="M344.2 276.4h2.9v3.6H331v3.7h3.1"/><path clip-rule="evenodd" fill="none" stroke="#000" stroke-linejoin="round" stroke-miterlimit="3.864" d="M832.4 441.9H616.1"/><path clip-rule="evenodd" fill="none" stroke="#000" stroke-miterlimit="3.864" d="M832.1 502.1v-60.7"/><g fill="none" stroke="#000" stroke-linejoin="round" stroke-miterlimit="3.864"><path clip-rule="evenodd" d="M840.6 503h-17"/><path d="M826.7 506.7h10.7m-8.4 3.6h6.1"/></g><path clip-rule="evenodd" fill="none" stroke="#000" stroke-linejoin="round" stroke-miterlimit="3.864" d="M347.6 473.6h-17M259 311.9h-17"/><text transform="translate(94.929 221.174)"><tspan x="0" y="0" font-family="Helvetica,Arial,sans-serif" font-size="17.928">Further</tspan><tspan x="0" y="21.5" font-family="Helvetica,Arial,sans-serif" font-size="17.928">circuitry</tspan></text><text transform="translate(307.944 46.077)"><tspan x="0" y="0" font-family="Helvetica,Arial,sans-serif" font-size="17.032">3.3 VDC</tspan><tspan x="0" y="20.4" font-family="Helvetica,Arial,sans-serif" font-size="17.032">(typical)</tspan></text><g clip-rule="evenodd"><path fill-rule="evenodd" d="M771.3 368.4v-5.7l15.3 5.7-15.3 5.7z"/><path fill="none" stroke="#000" stroke-width="1.001" stroke-linejoin="round" stroke-miterlimit="3.864" d="M772.3 368.4H616.1"/></g><path clip-rule="evenodd" fill="none" stroke="#000" stroke-miterlimit="3.864" d="M706.4 367.8V246.6"/><path fill="#FFF" d="M697.8 291.2h18.4v55.4h-18.4v-55.4z"/><path fill="none" stroke="#000" stroke-miterlimit="3.864" d="M697.8 291.2h18.4v55.4h-18.4v-55.4z"/><path d="M702 368.5c0-2.5 2.1-4.6 4.6-4.6 2.5 0 4.6 2.1 4.6 4.6 0 2.5-2.1 4.6-4.6 4.6-2.6 0-4.6-2.1-4.6-4.6z"/><path fill="none" stroke="#000" stroke-width=".5" stroke-miterlimit="3.864" d="M702 368.5c0-2.5 2.1-4.6 4.6-4.6 2.5 0 4.6 2.1 4.6 4.6 0 2.5-2.1 4.6-4.6 4.6-2.6 0-4.6-2.1-4.6-4.6z"/><text transform="translate(789.629 351.11)"><tspan x="0" y="0" font-family="Helvetica,Arial,sans-serif" font-size="17.032">Voltage</tspan><tspan x="4.5" y="18.2" font-family="Helvetica,Arial,sans-serif" font-size="17.032">output</tspan><tspan x="6.4" y="36.4" font-family="Helvetica,Arial,sans-serif" font-size="17.032">signal</tspan></text><g fill="none" stroke="#000" stroke-linejoin="round" stroke-miterlimit="3.864"><path clip-rule="evenodd" d="M885.8 503h-17"/><path d="M872 506.7h10.7m-8.4 3.6h6"/></g><path fill="none" stroke="#000" stroke-miterlimit="3.864" d="M706.2 256.9v-25.2h171.1v272.2"/><text transform="translate(803.434 268.54)"><tspan x="0" y="0" font-family="Helvetica,Arial,sans-serif" font-size="17.032">3.3–24 </tspan><tspan x="10.4" y="18.2" font-family="Helvetica,Arial,sans-serif" font-size="17.032">VDC</tspan></text><g clip-rule="evenodd" stroke="#000" stroke-linejoin="round" stroke-miterlimit="3.864"><path fill-rule="evenodd" fill="#FFF" d="M888.9 270.4c0 6.6-5.4 12-12 12s-12-5.4-12-12 5.4-12 12-12c6.6.1 12 5.4 12 12z"/><path d="M870.4 268.5h13.1m-13.1 3.8h13.1" fill="none"/></g><text transform="translate(880.298 255.9)" font-family="Helvetica,Arial,sans-serif" font-size="17.928">+</text><text transform="translate(880.259 295.375)" font-family="Helvetica,Arial,sans-serif" font-size="17.928">-</text></svg>