<svg version="1.1" id="Layer_1" xmlns="http://www.w3.org/2000/svg" x="0" y="0" viewBox="0 0 1000 400" xml:space="preserve"><style>.st0,.st1{stroke-width:.425}.st0,.st1,.st2{fill:none;stroke:#000;stroke-miterlimit:10}.st1,.st2{stroke-linecap:round;stroke-linejoin:round}.st2{stroke-width:.709}.st12,.st13,.st14,.st15,.st16,.st17,.st18,.st19,.st7,.st8{fill:none;stroke:#000;stroke-width:.283;stroke-miterlimit:10}.st8{stroke-linecap:round;stroke-linejoin:round}.st12{stroke-dasharray:1.7508,3.5016}.st13{stroke-dasharray:7.0032,3.5016,1.7508,3.5016}.st14{stroke-dasharray:1.8102,3.6205}.st15{stroke-dasharray:7.241,3.6205,1.8102,3.6205}.st16{stroke-dasharray:1.7508,3.5017}.st17{stroke-dasharray:7.0034,3.5017,1.7508,3.5017}.st18{stroke-dasharray:1.81,3.6201}.st19{stroke-dasharray:7.2401,3.6201,1.81,3.6201}.st21{font-family:Helvetica,Arial,sans-serif}.st22{font-size:15.081px}.st23{enable-background:new}.st25{fill:#1a1a18}.st26{font-size:15.08px}</style><path class="st0" d="M46.7 105.7c0 5-4 9-9 9s-9-4-9-9 4-9 9-9 9 4 9 9zm116.2 0c0 5 4 9 9 9s9-4 9-9-4-9-9-9c-4.9 0-9 4-9 9zM46.7 240.8c0-5-4-9-9-9s-9 4-9 9 4 9 9 9 9-4 9-9zm116.2 0c0-5 4-9 9-9s9 4 9 9-4 9-9 9c-4.9 0-9-4-9-9z"/><path class="st1" d="M60.4 101.3h48v48.1h-48v-48.1zm62.9 3.7h24.9v18.6h-24.9V105zm36.8 29.5h30v77.9h-30v-77.9zm0 46.4h6.6m0 0v-20.3m0 0h-6.6m30 47.8h-30m30-69.9h-30"/><path class="st1" d="M184.7 177.2v.6l-.1.1-.1.2-.2.1h-2.1l-.2-.1-.1-.1-.1-.2-.1-.1v-.2l-.1-.1-.1-.1-.2-.1H176l-.1-.1-.2-.1-.1-.1-.1-.2-.1-.1v-2.8l.1-.1.1-.2.1-.1.2-.1h5.2l.2-.1h.2l.1-.1.1-.2v-.1l.1-.3.1-.1.1-.1.2-.1h2.1l.2.1.1.1.1.2v.7h2.8v3.9h-2.8m0 28.4v.7l-.1.1-.1.2-.2.1h-2.1l-.2-.1-.1-.1-.1-.2-.1-.1v-.3l-.1-.1-.1-.1-.2-.1h-5.4l-.2-.1-.1-.1-.1-.2-.1-.2v-2.7l.1-.2.1-.1.1-.2h.2l.1-.1h5.3l.2-.1.1-.1.1-.1v-.2l.1-.2.1-.1.1-.1.2-.1h2.1l.2.1.1.1.1.2v.6h2.8v3.9h-2.8m-18-40.7h2.7c1.1 0 .9 1.1.9 1.1v7.4c0 .8-.4 1.1-1.2 1.1h-2.4M54.5 144.2h-3.3m0 0v-6.3m0 0h3.3m0 0v6.3m60.7-32.8h3.3m0 0v6.4m0 0h-3.3m0 0v-6.4m3.3-3.9h-3.3m0 0v-6.3m0 0h3.3m0 0v6.3m-42.9 125h3.3m0 0v6.3m0 0h-3.3m0 0v-6.3m72.1-28.4h5.5m0 0v10.2m0 0h-5.5m0 0v-10.2m-19.3 20h6.3v-3.3h-6.3m0 3.3v-3.3m12.6 24.3v5.7h-10.5v-5.7m0 0H141m-18.3-24.6h3.3m-3.3 0v6.3h3.3v-6.3M99.3 249H96m0 0v-6.3m0 0h3.3m0 0v6.3m-50.5-46.5h-3.3m0 0v-6.3m0 0h3.3m0 0v6.3m73.6 37.8h3.3m0 0v6.3m0 0h-3.3m0 0v-6.3m-28.2 8.4h-3.3m0 0v-6.3m0 0h3.3m0 0v6.3m-40.6-43.2v3.3m0 0h-6.3m0 0v-3.3m0 0h6.3m27 27h3.3m0 0v6.3m0 0h-3.3m0 0v-6.3m-31.8-40.3h-3.3m0 0v-6.3m0 0h3.3m0 0v6.3M72.9 237v3.3m0 0h-6.4m0 0V237m0 0h6.4m-42.4-60.7V173h6.3v3.3m0 0h-6.3m18.3 4.9h-3.3m0 0v-6.4h3.3v6.4M62.9 237v3.3m0 0h-6.3m0 0V237m0 0h6.3m-12-55.8h3.3v-6.4h-3.3v6.4m16.6 61.2v5.7m0 0H56.9m0 0v-5.7m0 0h10.6m-16.3-79.9h3.3m-3.3 0v6.3h3.3v-6.3m100.4 67v3.3h-6.3v-3.3h6.3M43.4 181.2h-3.3m0 0v-6.4h3.3v6.4M150 227.7v-3.3m0 0h6.3v3.3H150m-54 4.8h3.3m0 0v6.3m0 0H96m0 0v-6.3M51.2 128.2h3.3m0 0v6.3m0 0h-3.3m0 0v-6.3m39.7 104.3h3.3m0 0v6.3m0 0h-3.3m0 0v-6.3m9.9-72.4h6.3v-3.3h-6.3m0 3.3v-3.3m-15 75.7H89m0 0v6.3m0 0h-3.2m0 0v-6.3m-27.6-75.7v3.3m0 0h-6.4m0 0v-3.3m0 0h6.4m14.7 74.8v3.3m0 0h-6.4m0 0v-3.3m0 0h6.4m71.2-10.8v3.3m0-3.3h-6.4v3.3h6.4m1.5 11.8h8.7v13.3h-8.7v-13.3m-82.7-4.3v3.3m0 0h-6.3m0 0v-3.3m0 0h6.3m-8.4-106.4h-3.3m0 0v-6.3m0 0h3.3m0 0v6.3m77.2 85.4h-3.3m0 0v-6.4m0 0h3.3m0 0v6.4m18.3 11.7V219m0 3.3h6.3V219H150m-26.4-55.3h3.3v6.3h-3.3v-6.3zm-72.7 54.4h3.3v-6.3h-3.3m0 6.3v-6.3m37 34.8v3.3m0 0h-6.3m0 0v-3.3m0 0h6.3m41.7-89.2v6.3h3.3v-6.3m-3.3 0h3.3m-87.4 54.4h3.3m0 0v6.3m0 0h-3.3m0 0v-6.3m36.1 33v-3.3m0 0h6.3m0 0v3.3m0 0h-6.3m46.2-102.7v3.3m0 0h-6.3m0 0v-3.3m0 0h6.3m-86.2 74.2v5.7m0 0H31.1m0 0v-5.7m0 0h10.5m93.9-72.4v.4m0 0l-.1.4m0 0l-.2.4m0 0l-.2.3m0 0l-.3.3m0 0l-.4.2m0 0l-.4.2m0 0l-.3.1m0 0l-.5.1m0 0l-.4-.1m0 0l-.4-.1m0 0l-.4-.2m0 0l-.3-.2m0 0l-.3-.3m0 0l-.3-.3m0 0l-.1-.4m0 0l-.1-.4m0 0l-.1-.4m0 0l.1-.5m0 0l.1-.4m0 0l.1-.4m0 0l.3-.3m0 0l.3-.3m0 0l.3-.2m0 0l.4-.2m0 0l.4-.1m0 0h.4m0 0h.5m0 0l.3.1m0 0l.4.2m0 0l.4.2m0 0l.3.3m0 0l.2.3m0 0l.2.4m0 0l.1.4m0 0v.5m-1.9 64.9h5.6v-10.6h-5.6m0 10.6v-10.6m-10.6 6h3.3m0 0v6.4m0 0H123m0 0v-6.4m-92.2.4v-3.4m0 0h6.3m0 0v3.4m0 0h-6.3m93.1-2.7v-3.4m0 0h6.3m0 0v3.4m0 0h-6.3m0-10.6V188m0 0h6.3m0 0v3.3m0 0h-6.3m0 4.9v-3.3m0 0h6.3m0 0v3.3m0 0h-6.3m-73 6.3h3.3v-6.3h-3.3m0 6.3v-6.3m-9.3-2.7v5.7m0 0H31.1m0 0v-5.7m0 0h10.5m86.4 47h15.6v-12.6H128m0 12.6v-12.6m-77.1-35.7h3.3v-6.3h-3.3m0 6.3v-6.3m-19.5 28.3v-7.6m0 0h9.9m0 0v7.6m0 0h-9.9m-.6-32.5v-3.3m0 0h6.3m0 0v3.3m0 0h-6.3m118.7 9.1l4.4 4.4m0 0l-3.6 3.6m0 0l-4.4-4.4m0 0l3.6-3.6m-15-12.7h-5.8m0 0v-10.5h5.8v10.5m-7.6 1.5h-3.3m0 0v-6.3h3.3v6.3m-95.5 11.7v-7.5m0 0h9.9m0 0v7.5m0 0h-9.9m95.2-34.5v3.3m0 0h-6.3m0 0v-3.3m0 0h6.3m26.3.4h-6.6m0 0v-15.6m0 0h6.6m0 0v15.6m-20.9-8.5v5.7m0 0h-10.5m0 0v-5.7m0 0H132m21.1-27.1h6.3m-6.3 0v5.2h6.3v-5.2m-41.2 31.9h-3.3m0 0v-6.3m0 0h3.3m0 0v6.3m-1.5 3.3h-6.3v3.3h6.3m0-3.3v3.3m5.4-19.9v-6.3m0 0h5.1m0 0v6.3m0 0h-5.1m-30.9 19.9v-3.3m0 0h6.3m0 0v3.3m0 0h-6.3m40.8-19.9v-6.3m0 0h5.1m0 0v6.3m0 0H132m-44.4 16.6v3.3m0 0h-6.3m0 0v-3.3m0 0h6.3m-16.3 3.3v-3.3m0 0h6.3m0 0v3.3m0 0h-6.3m-3.5-3.3v3.3m0 0h-6.4m0 0v-3.3m0 0h6.4m50.4-13.2h-3.3m0 0v-6.3m0 0h3.3m0 0v6.3m-67 4.2h3.3m-3.3 0v6.3h3.3v-6.3m48.5 85.4h15.6m0 0v12.7m0 0H103m0 0v-12.7m15.2-99.5h-3.3m0 0v-6.3h3.3v6.3M47 224.1v-3.3m0 0h6.3m0 0v3.3m0 0H47m30.8 18.2v3.6m0 0h-6.6m0 0v-3.6m0 0h6.6m-19.2-75.4h60.1V227H58.6v-60.1zm111.1 56.5c0 1.6-1.3 2.8-2.8 2.8-1.6 0-2.9-1.3-2.9-2.8 0-1.6 1.3-2.9 2.9-2.9 1.5.1 2.8 1.4 2.8 2.9zM57.5 101.3c0 1.7-1.3 3-3 3s-3-1.3-3-3 1.3-3 3-3c1.6 0 3 1.4 3 3zM71 254.1c.7 0 .8-.5.8-.7.3-1.4 1.5-2.4 3-2.4 1.4 0 2.7 1 3 2.4 0 .2.2.7.8.7m42.1-162.2c-.7 0-.8.5-.8.7-.3 1.4-1.5 2.4-3 2.4s-2.7-1-3-2.4c-.1-.2-.2-.7-.8-.7"/><path class="st0" d="M185.8 134.5h4.3l2.2-1.6 1.5 1.3-2.6 2.2-1.1.3v1.7h3.5v69.3h-3.5v2.4l1.1.4 2.6 2.2-1.5 1.3-2.2-1.8h-4.3v32.1c0 5.3-4.3 9.6-9.6 9.6h-143c-5.3 0-9.6-4.3-9.6-9.6v-143c0-5.3 4.3-9.6 9.6-9.6h143c5.3 0 9.6 4.3 9.6 9.6v33.2z"/><path class="st1" d="M37.7 247c3.4 0 6.2-2.8 6.2-6.2s-2.8-6.2-6.2-6.2-6.2 2.8-6.2 6.2 2.8 6.2 6.2 6.2z"/><path class="st1" d="M37.7 253.1c6.8 0 12.3-5.5 12.3-12.3s-5.5-12.3-12.3-12.3-12.3 5.5-12.3 12.3 5.5 12.3 12.3 12.3zm134.2-6.1c-3.4 0-6.2-2.8-6.2-6.2s2.8-6.2 6.2-6.2 6.2 2.8 6.2 6.2c.1 3.4-2.7 6.2-6.2 6.2z"/><path class="st1" d="M171.9 253.1c-6.8 0-12.3-5.5-12.3-12.3s5.5-12.3 12.3-12.3 12.3 5.5 12.3 12.3c.1 6.8-5.5 12.3-12.3 12.3zm0-153.6c-3.4 0-6.2 2.8-6.2 6.2 0 3.4 2.8 6.2 6.2 6.2s6.2-2.8 6.2-6.2c.1-3.4-2.7-6.2-6.2-6.2z"/><path class="st1" d="M171.9 93.4c-6.8 0-12.3 5.5-12.3 12.3s5.5 12.3 12.3 12.3 12.3-5.5 12.3-12.3c.1-6.8-5.5-12.3-12.3-12.3z"/><path class="st2" d="M191.4 93.1c0-3.9-3.2-7.1-7.1-7.1H25.4c-3.9 0-7.1 3.2-7.1 7.1v160.3c0 3.9 3.2 7.1 7.1 7.1h155.9c1 0 1.4-.3 2.2-1l7.1-7.1c.6-.8.8-1.4.8-2.1V93.1z"/><path class="st1" d="M37.7 99.5c3.4 0 6.2 2.8 6.2 6.2 0 3.4-2.8 6.2-6.2 6.2s-6.2-2.8-6.2-6.2c0-3.4 2.8-6.2 6.2-6.2z"/><path class="st1" d="M37.7 93.4c6.8 0 12.3 5.5 12.3 12.3S44.5 118 37.7 118s-12.3-5.5-12.3-12.3 5.5-12.3 12.3-12.3z"/><path class="st1" d="M21.8 100.5c0-5.9 4.8-10.6 10.6-10.6h79.2c1.9 0 2 3 2 3 0 1.7 1.4 3 3 3 1.7 0 3-1.4 3-3 0 0 0-3 1.8-3h55.7c5.9 0 10.6 4.8 10.6 10.6V246c0 5.9-4.8 10.6-10.6 10.6H80.3c-1.9 0-2-3-2-3 0-1.7-1.4-3-3-3-1.7 0-3 1.4-3 3 0 0 0 3-1.8 3h-38c-5.9 0-10.6-4.8-10.6-10.6V100.5h-.1z"/><path d="M633.1 134.8h-4.3l-2.2-1.6-1.5 1.3 2.6 2.2 1.1.3v1.7h-3.5V208h3.5v2.4l-1.1.4-2.6 2.2 1.5 1.3 2.2-1.8h4.3v32.1c0 5.3 4.3 9.6 9.6 9.6h143c5.3 0 9.6-4.3 9.6-9.6v-143c0-5.3-4.3-9.6-9.6-9.6h-143c-5.3 0-9.6 4.3-9.6 9.6v33.2h0z" fill="#fff" stroke="#000" stroke-width=".709" stroke-miterlimit="10"/><path d="M797 260.5c4 0 7.2-3.2 7.2-7.2V93.2c0-4-3.2-7.2-7.2-7.2H635.5c-4 0-7.2 3.2-7.2 7.2v157.1c0 1 .3 1.4 1 2.2l7.2 7.2c.8.6 1.5.8 2.2.8H797z" fill="#fff" stroke="#000" stroke-width=".709" stroke-linecap="round" stroke-linejoin="round" stroke-miterlimit="10"/><path class="st1" d="M785.3 98.7c-3.5 0-6.3 2.8-6.3 6.3s2.8 6.3 6.3 6.3 6.3-2.8 6.3-6.3-2.9-6.3-6.3-6.3zm-135.1 0c3.5 0 6.3 2.8 6.3 6.3s-2.8 6.3-6.3 6.3-6.3-2.8-6.3-6.3 2.8-6.3 6.3-6.3zm0 148.6c3.5 0 6.3-2.8 6.3-6.3s-2.8-6.3-6.3-6.3-6.3 2.8-6.3 6.3 2.8 6.3 6.3 6.3zm135.1 0c-3.5 0-6.3-2.8-6.3-6.3s2.8-6.3 6.3-6.3 6.3 2.8 6.3 6.3-2.9 6.3-6.3 6.3zM648.5 119.4c-11.4 14.7-18.3 33.1-18.3 53.2s6.8 38.6 18.3 53.3l.1.2c1.3 1.2 2.2 1.3 3.4 1.6 4.7 1.3 8.4 5 9.7 9.7.3 1.2.3 2.3 1.6 3.4l.1.1c14.7 11.5 33.2 18.3 53.3 18.3 20.2 0 38.7-6.9 53.5-18.5 1.2-1.3 1.3-2.3 1.6-3.4 1.3-4.7 5-8.4 9.7-9.7 1.2-.3 2.3-.3 3.4-1.6 11.5-14.7 18.4-33.3 18.4-53.4s-6.9-38.7-18.4-53.4l-.1-.1c-1.3-1.2-2.2-1.3-3.4-1.6-4.7-1.3-8.4-5-9.7-9.7-.3-1.2-.3-2.3-1.6-3.4l-.1-.1C755.4 92.8 736.9 86 716.8 86s-38.6 6.9-53.3 18.4l-.1.1c-1.2 1.3-1.3 2.2-1.6 3.4-1.3 4.7-5 8.4-9.7 9.7-1.2.3-2.3.3-3.4 1.6l-.2.2z"/><path class="st1" d="M784 172.6c0 37.1-30.1 67.2-67.2 67.2s-67.2-30.1-67.2-67.2 30.1-67.2 67.2-67.2 67.2 30 67.2 67.2z"/><circle class="st1" cx="716.8" cy="172.6" r="77.8"/><path class="st1" d="M762.6 200c0 10.1-8.2 18.3-18.3 18.3h-55c-10.1 0-18.3-8.2-18.3-18.3v-55c0-10.1 8.2-18.3 18.3-18.3h55c10.1 0 18.3 8.2 18.3 18.3v55z"/><path class="st1" d="M751 203.1c0 3.4-2.7 6.1-6.1 6.1h-56.2c-3.4 0-6.1-2.7-6.1-6.1V142c0-3.4 2.7-6.1 6.1-6.1h56.2c3.4 0 6.1 2.7 6.1 6.1v61.1z"/><path class="st2" d="M448.5 253.1v4.8c0 .8-.6 1-1.2 1l-4.2.1-46.2-1.2c-.9 0-1.1-.9-1.1-.9l-30.7-.8c-.5 0-.9-.7-.9-1.3v.2V91.4c0-.6.4-1.3.9-1.3l30.7-.9s.2-.9 1.1-.9l46.2-1.2 4.2.1c.5 0 1.2.2 1.2.9V93h1.2v2.9c.4-2.6 3.9-1.2 4.3 1.5v3.8h2.3v3.7h21.6v18.6h-17.6v9.3h.8s.4.2.4.4v1.2s3.6.2 3.9 3.6l-.1.4.2.5s0 .1.1.1h.7c.2 0 .5.2.5.5v67.8c0 .4-.2.5-.3.5h-.7s-.2 0-.2.1-.2.5-.2.5v.6c0 .5-.7 3.2-3.8 3.4h-.1v1.3s-.1.4-.4.4h-2.8s-.4-.1-.4-.4v-1.2h-1.6v14.6h-3.9v.9h1.5v8.1h1.5v13.2h-.9v1.7H453"/><path class="st1" d="M395.9 173.4l1.4-13m0 0V88.5m-1.4 84.9l1.4 13.1m0 0v71.9"/><path d="M448.5 253.1h1.2v-2.9h0c.3 1.8 2.1 1.7 3.2.6" fill="#f2f2f2" stroke="#000" stroke-width=".425" stroke-linecap="round" stroke-linejoin="round" stroke-miterlimit="10"/><path class="st1" d="M448.5 253.1h1.2v-2.9c.4 2.6 4 1.2 4.3-1.5v-18.5c-.4-2.7-3.9-4.1-4.3-1.5V117.5c.4 2.6 3.9 1.2 4.3-1.5V97.5c-.4-2.7-3.9-4.1-4.3-1.5v-2.9h-1.2v-4.9c0-.7-.6-1-1.2-.9l-4.2-.1m-46.2 7.1h-.2m0 0h-.3m0 0h-.2m0 0h-.2m0 0h-.1m0 0h-.1m51.5-6.9v171.5m2.3-164.6h-52.7m46.3 164.8V87.3m5.3 5.9h1.2m0 24.3V96.1m2.3-1.3v23.9M449.6 252h-53.8m56.2-.5v-23.9m-2.3 1.2v21.5M395.8 89.4v167.2m-.2-17.4h-31.5m31.7-14.2h-31.7m31.5 11.7h-31.5m31.5-9.2h-31.4m31.4-120.8h-31.5m31.7 14.1h-31.7m31.5-11.7h-31.5m31.5 9.3h-31.4m88.3 58.5v-3.4m-2.7 0h2.7m-2.7 3.4h2.7m-2.7 47h5.1m0 0V218m-5.1 0h5.1m-2.4-12v-3.4m-2.7 3.4h2.7m0-3.4v-2.2m-2.7 0h5.1m0 0v-5.8m-5.1 0h5.1m-2 21.3v-7.8m-3.1 0h3.1m-3.1 7.8h3.1m-.4-33.4V179m-2.7 0h2.7m-2.7 3.5h2.7m-2.7 46.5h2.8m4-15v-44.5m-3.7 25.1v-9.9m-3.1 0h3.1m-3.1-15.2h10.9m5.2-8.7h-.1m0 0h-.2m0 0h-.2m0 0h-.3m0 0h-.3m0 0h-.4m0 0h-.4m0 0h-.5m0 0h-.4m0 0h-.5m-1.9 0h1.9m-1.9-6.2h1.9m1.1 55.4v.4m0 0l-.1.3m0 0l-.2.4m0 0l-.2.2m0 0l-.3.2m0 0l-.3.2m0 0l-.3.1m0 0h-.4m4-57.2h-.1m0 0h-.2m0 0h-.2m0 0h-.3m0 0h-.3m0 0h-.4m0 0h-.4m0 0h-.5m0 0h-.4m0 0h-.5m1.1 51.9v-.3m0 0l-.1-.3m0 0l-.1-.3m0 0l-.2-.3m0 0l-1.9-2.3m0 0l-.2-.1m0 0l-.1-.1m0 0l-.1-.1m0 0v-.1m2.7 3.9v1.2m-.4-21h.1m0 0h.1m.1 7.4h-.1m0 0h-.1m0 0h-.1m-.7 0h.5m0 0h.4m0 0h.5m0 0h.4m0 0h.4m0 0h.3m0 0h.3m0 0h.2m0 0h.2m-4 0h.8m-4.4 19.9v.1m3.7-2.3h-5.3m4-23.8v4.9m2-6.2h.5m0 0h.4m0 0h.5m0 0h.4m0 0h.4m0 0h.3m0 0h.3m0 0h.2m0 0h.2m.1 0v-4.9m-3.3 0h.5m0 0h.4m0 0h.5m0 0h.4m0 0h.4m0 0h.3m0 0h.3m0 0h.2m0 0h.2m0 0h.1m-3.3 17.3h.5m0 0h.4m0 0h.5m0 0h.4m0 0h.4m0 0h.3m0 0h.3m0 0h.2m0 0h.2m0 0h.1m-7.7 0h4.4m-6-2.9l1.6 2.9m3.6-5h-.3m0 0l-.2-.1m0 0l-.3-.1m0 0l-.1-.2m0 0l-.2-.2m0 0l-.1-.3m0 0v-.3m1.3 21.1v.1m.7-12.9l-1.6 1.4m4 1.3l-2-2.3m0 0l-.1-.1m0 0l-.1-.1m0 0l-.1-.1m0 0l-.1-.1m2.4 2.7l.3.4m0 0l.2.4m0 0l.1.4m0 0l.2.5m0 0l.1.4m0 0v.5m-5.3-18.5v-.3m0 0l.1-.3m0 0l.2-.2m0 0l.1-.2m0 0l.3-.1m0 0l.2-.2m0 0h.3m4.1 12.4v7.4m-7.7-24.7h4.4m-6 3l1.6-3m4.4 4.9h-.8m4.1 12.4v-5m-8.2 17.7h-.3m6.3-11.4v-1.3m0-17.3v-1.2m0-18.3v-1.5m0 17.4v-15.9m0 18.3v-2.4m0 22.2v2.1m0 5.2v-.4m0 .4v2.1m0 0v.2m2.2-3.5v3.5m0-55.4v6.2"/><path d="M458.8 132.5c-.2.1-.4.3-.4.6m8.6 5.9c-.1-.3-.3-.5-.5-.5m-.5 0h.5m-.8-.6c0 .3.1.6.3.6m-.3 24.7v.9m0 0h0v.1h0v.3h0m-3.1-5.3h3.1m-10.1 0h7m-7 0h0m0-5.8h7m-7 0v5.8m7-5.8v5.8m2.1-15.5l-1.7 2m-.4.4l.4-.4m.7-7.8c0-1-.8-1.7-1.7-1.7m-6.4 17.2h0m0 0v5.8m10.1-5.8v-12.2m-3.1 12.2h3.1m-.1 11.6h-1.9m0-1.8h2m-7.2-29.1h0m3.4 0h0m0 0h-3.4m4.7 8.3c.3-.3.4-.7.4-1.1m2.1 21.9v-4m-3.8-26.1c0-.2-.1-.4-.4-.6m.4.6v1m-3.4-1v1m2.6 10.7l1.5 1.3m.6-3.7l-1.8 2m-.3.4l.3-.4m3.3-.7c.6-.7.9-1.6.9-2.5m.1-3.3c0-2.1-1.7-3.8-3.7-3.8m-.1 2.1H457m4.9-2.1H457m4.4 10.3l1.6 1.3m2.7-7.8v3.3m-2-3.3v.2m0 0v.9m0 0v2.2m0 19.4v-1.4m-1.8-22.8H457m6.7 1.7c0-1-.8-1.7-1.7-1.7m1.7 2.6H457m4.3 13.7v.7m0 5.8v1.4m0-7.9h3.5m0-5.8v5.8m0-5.8h-4.6m0-2.2v2.2m3-5.7l-3 3.5m3-3.5c.3-.3.4-.7.4-1.1m-.5 5.5v1.3m0-5.5v1.1m.6 2.4v2m0 6.5v-.7m0 7.9h-10.5m12.5-7.2v5.8m-4.1-26.7h-2.8m-6.5 26.2h.9m0 0v-3.2m-.9 0h.9m-3.2-8.7h3.2m-3.2 6.1h3.2m0 0v-6.1m-3.2 6.4h5.5m0 0v-4.8m-5.5-20.3h2.3m-2.3 6h2.3m0 0v-6m.9 34v-3.4m0-10.3h3.8m0 0v-46.1m-7 56.4h2.3m0 0v-3.2m-2.3 0h2.3M450 161h2.3m-2.3 6h2.3m0 0v-6m-2.3-35.8h2.3m0 0v-6.1m-2.3 0h2.3m.9 36.4v-2.3m-3.2-9.8h3.2m0 0v-6.1m-3.2 0h3.2m-.9 24.8h.9m0 3v-3" fill="none" stroke="#000" stroke-width=".3" stroke-linecap="round" stroke-linejoin="round" stroke-miterlimit="10"/><path class="st7" d="M662.4 104.8h-60.1m48.1 13.4V64.8m134.7 53.4V64.8M662.4 240.9h-60.1"/><path class="st8" d="M653.4 66H782M632.9 42.7h165m-169.7 52V41.5m176.3 98.8V41.5M645.6 85.7h-69.4m69.4 175.1h-69.4m27.2-153v128.6m-236-180.3h71.9m38.5 48.9V29.9m-10.5 292.5V204.6M448.6 90V54.8m-118.1 192V99.4m34-9.3h-35.2m35.2 165.6h-35.2M311.6 78.3h105.5m31.5 33.9V77m369 142.1l-30.8 20.3m30.8-20.3h172.7"/><path class="st7" d="M662.4 104.8h-60.1m48.1 13.4V64.8m134.7 53.4V64.8"/><path class="st8" d="M373 31.7h101.8M364.5 90.1V30.4m0 292.3v-67.3m31.1-166.9V74.9m182.6 19.6v155.7M373 319h92"/><path d="M804 42.7l-10.4-1.8v3.5l10.4-1.7zM785 66l-10.5-1.7v3.4L785 66zM448.6 56l-10.4-1.7v3.5l10.4-1.8zm336 184.6l9.6-4.2-1.9-3-7.7 7.2zM364.6 56l10.4-1.7v3.5L364.6 56zm-34.1 34.2l-1.7 10.4h3.4l-1.7-10.4zm0 165l-1.7-10.4h3.4l-1.7 10.4zm34.1-177l-10.4-1.7V80l10.4-1.8zm31.2 0l10.4-1.7V80l-10.4-1.8zM629 42.7l10.4-1.8v3.5L629 42.7zM650.7 66l10.5-1.7v3.4L650.7 66zm-47.3 38.9l1.8 10.4h-3.5l1.7-10.4zm0 136l-1.7-10.5h3.5l-1.8 10.5zM578.2 85.8l1.7 10.4h-3.5l1.8-10.4zm0 174.6l-1.8-10.4h3.5l-1.7 10.4zM477.4 31.6L467 29.9v3.5l10.4-1.8zm-112.8 0l10.4-1.7v3.5l-10.4-1.8zm103.1 287.3l-10.5-1.7v3.5l10.5-1.8zm-103.1 0l10.4-1.7v3.5l-10.4-1.8z" fill-rule="evenodd" clip-rule="evenodd" fill="#1a171b"/><path d="M38.5 242.7l24.2 56.9" fill="none" stroke="#000" stroke-width=".283" stroke-linecap="round" stroke-linejoin="round"/><path d="M37.4 243.7l.3-2.8 2.3 1.7-2.6 1.1z"/><path class="st8" d="M62.7 299.6h76.5"/><path d="M348 173.4h139.5M104.8 270V84.4m-92 89h202.8M717.8 270V74.4m-101.5 99h205" fill="none" stroke="#fff" stroke-width="1.417" stroke-miterlimit="10" stroke-dasharray="5.6693,2.8347,1.4173,2.8347"/><path class="st7" d="M156.6 241h2.8"/><path class="st12" d="M162.9 241h3.5"/><path class="st13" d="M168.2 241h14"/><path class="st7" d="M183.9 241h2.9m-14.7-15.5v2.8"/><path class="st14" d="M172.1 231.9v3.6"/><path class="st15" d="M172.1 237.4v14.4"/><path class="st7" d="M172.1 253.7v2.8M22.1 241h2.8"/><path class="st16" d="M28.4 241h3.5"/><path class="st17" d="M33.6 241h14.1"/><path class="st7" d="M49.4 241h2.8m-14.6-15.5v2.8"/><path class="st14" d="M37.6 231.9v3.6"/><path class="st15" d="M37.6 237.4v14.4"/><path class="st7" d="M37.6 253.7v2.8m119-150.9h2.8"/><path class="st12" d="M162.9 105.6h3.5"/><path class="st13" d="M168.2 105.6h14"/><path class="st7" d="M183.9 105.6h2.9m-14.7-15.5v2.8"/><path class="st18" d="M172.1 96.5v3.6"/><path class="st19" d="M172.1 101.9v14.5"/><path class="st7" d="M172.1 118.2v2.9m-150-15.5h2.8"/><path class="st16" d="M28.4 105.6h3.5"/><path class="st17" d="M33.6 105.6h14.1"/><path class="st7" d="M49.4 105.6h2.8M37.6 90.1v2.8"/><path class="st18" d="M37.6 96.5v3.6"/><path class="st19" d="M37.6 101.9v14.5"/><path class="st7" d="M37.6 118.2v2.9m613.1 104.4v2.8"/><path class="st14" d="M650.7 231.9v3.6"/><path class="st15" d="M650.7 237.4v14.4"/><path class="st7" d="M650.7 253.7v2.8M769.8 241h2.8"/><path class="st12" d="M776.1 241h3.5"/><path class="st13" d="M781.4 241h14"/><path class="st7" d="M797.1 241h2.9m-15.1-15.5v2.8"/><path class="st14" d="M784.9 231.9v3.6"/><path class="st15" d="M784.9 237.4v14.4"/><path class="st7" d="M784.9 253.7v2.8m-15.1-151.4h2.8"/><path class="st12" d="M776.1 105.1h3.5"/><path class="st13" d="M781.4 105.1h14"/><path class="st7" d="M797.1 105.1h2.9"/><path d="M104.8 270V84.4m-92 89h202.8m132.4 0h139.5M717.8 270V74.4m-101.5 99h205" fill="none" stroke="#000" stroke-width=".283" stroke-miterlimit="10" stroke-dasharray="5.6693,2.8347,1.4173,2.8347"/><text transform="translate(709.737 39.595)" class="st21 st22">29</text><text transform="translate(394.556 52.544)" class="st21 st22">14.3</text><text transform="rotate(-90 259.774 -67.245)" class="st23"><tspan x="7.5" y="0" class="st21 st22">Ø 28.3</tspan></text><text transform="translate(320.043 74.966)" class="st21 st22">5.4</text><text transform="translate(394.706 27.902)" class="st23"><tspan x="7.5" y="0" class="st21 st22">≈ 19.3</tspan></text><text transform="translate(390.471 315.177)" class="st23"><tspan x="7.5" y="0" class="st21 st22">≈ 17.42</tspan></text><text transform="translate(827.587 213.712)" class="st23"><tspan x="0" y="0" class="st21 st22">4 x </tspan><tspan x="31.8" y="0" class="st21 st22">Ø 2.2; max. 3.2 deep</tspan></text><text transform="rotate(-90 393.23 -206.156)" class="st21 st22">22.4</text><text transform="rotate(-90 376.803 -195.948)" class="st21 st22">29</text><text transform="translate(703.518 62.533)" class="st21 st22">22.4</text><text transform="translate(69.206 296.597)" class="st23"><tspan x="0" y="0" class="st21 st22">4 x </tspan><tspan x="31.8" y="0" class="st21 st22">Ø 2.08</tspan></text><text transform="translate(707.735 306.09)" class="st21 st22">Recommended screw size: max. M2</text><text transform="translate(684.735 324.19)" class="st21 st22">Bigger screws may damage the camera</text><text transform="translate(836 370.25)" class="st25 st21 st26">Not to scale</text><text transform="translate(836 386.15)" class="st25 st21 st26">Dimensions in mm</text></svg>