<svg version="1.1" id="Layer_1" xmlns="http://www.w3.org/2000/svg" x="0" y="0" viewBox="0 0 430 160" xml:space="preserve"><style>.st1{stroke-miterlimit:10}.st1,.st2{fill:none;stroke:#1a1a18;stroke-width:.283;stroke-linecap:round;stroke-linejoin:round}.st4{fill:none;stroke:#000;stroke-miterlimit:10}.st5{font-family:Helvetica,Arial,sans-serif}.st6{font-size:15.08px}</style><path d="M21.5 147.3c-2.5 0-4.6-2.1-4.6-4.6V18.4c0-2.5 2.1-4.6 4.6-4.6h124.3c2.5 0 4.6 2.1 4.6 4.6v124.2c0 2.6-2.1 4.6-4.6 4.6H21.5v.1z" fill="none" stroke="#1a1a18" stroke-width=".567" stroke-linecap="round" stroke-linejoin="round" stroke-miterlimit="10"/><path class="st1" d="M45.4 123.1c1.7 0 3.1-1.4 3.1-3.1s-1.4-3.1-3.1-3.1c-1.7 0-3.1 1.4-3.1 3.1s1.4 3.1 3.1 3.1z"/><path class="st1" d="M45.4 125.3c2.9 0 5.3-2.4 5.3-5.3s-2.4-5.3-5.3-5.3-5.3 2.4-5.3 5.3c.1 2.9 2.4 5.3 5.3 5.3zm0-85.6c1.7 0 3.1-1.4 3.1-3.1 0-1.7-1.4-3.1-3.1-3.1-1.7 0-3.1 1.4-3.1 3.1 0 1.7 1.4 3.1 3.1 3.1z"/><path class="st1" d="M45.4 41.9c2.9 0 5.3-2.4 5.3-5.3s-2.4-5.3-5.3-5.3-5.3 2.4-5.3 5.3c.1 2.9 2.4 5.3 5.3 5.3z"/><path class="st1" d="M30.5 130.5c-3 0-5.5-2.5-5.5-5.5V30.9c0-3 2.5-5.5 5.5-5.5h30c3 0 5.5 2.5 5.5 5.5V125c0 3-2.5 5.5-5.5 5.5h-30z"/><path class="st1" d="M48.1 47.9h-2.8l-1.6.7-4.1 4L39 54v51c0 2 1.7 3.7 3.7 3.7h5.4c2 0 3.7-1.7 3.7-3.7V51.6c0-2-1.7-3.7-3.7-3.7z"/><path class="st2" d="M78 120c0 1.7-1.4 3.1-3.1 3.1s-3.1-1.4-3.1-3.1 1.4-3.1 3.1-3.1 3.1 1.4 3.1 3.1z"/><path class="st2" d="M80.6 120c0 3.1-2.5 5.7-5.7 5.7-3.1 0-5.7-2.5-5.7-5.7 0-3.1 2.5-5.7 5.7-5.7 3.1 0 5.7 2.6 5.7 5.7zm49-2.1c0 10.6-8.6 19.3-19.3 19.3-10.6 0-19.3-8.6-19.3-19.3 0-10.6 8.6-19.3 19.3-19.3 10.7.1 19.3 8.7 19.3 19.3z"/><path class="st2" d="M126.4 117.9c0 8.9-7.2 16.1-16.1 16.1s-16.1-7.2-16.1-16.1 7.2-16.1 16.1-16.1 16.1 7.2 16.1 16.1z"/><path class="st2" d="M133.5 117.9c0 12.8-10.4 23.2-23.2 23.2s-23.2-10.4-23.2-23.2 10.4-23.2 23.2-23.2c12.8.1 23.2 10.5 23.2 23.2z"/><path class="st2" d="M107.5 117.9c0-1.7 1.4-3.1 3.1-3.1s3.1 1.4 3.1 3.1-1.4 3.1-3.1 3.1c-1.7.1-3.1-1.3-3.1-3.1zm-9 0c0-1.7 1.4-3.1 3.1-3.1s3.1 1.4 3.1 3.1-1.4 3.1-3.1 3.1c-1.7.1-3.1-1.3-3.1-3.1zm15.2-6.6c0-1.7 1.4-3.1 3.1-3.1s3.1 1.4 3.1 3.1-1.4 3.1-3.1 3.1-3.1-1.4-3.1-3.1zm-9.5-1.4c0-1.7 1.4-3.1 3.1-3.1s3.1 1.4 3.1 3.1-1.4 3.1-3.1 3.1-3.1-1.4-3.1-3.1zm9.5 14.7c0 1.7 1.4 3.1 3.1 3.1s3.1-1.4 3.1-3.1-1.4-3.1-3.1-3.1-3.1 1.4-3.1 3.1zm-2 3.3c0 .7.6 1.3 1.3 1.3.7 0 1.3-.6 1.3-1.3s-.6-1.3-1.3-1.3c-.7 0-1.3.6-1.3 1.3zm-10.9-4.4c0 .7.6 1.3 1.3 1.3.7 0 1.3-.6 1.3-1.3 0-.7-.6-1.3-1.3-1.3-.7 0-1.3.6-1.3 1.3zm10.9-15.5c0-.7.6-1.3 1.3-1.3.7 0 1.3.6 1.3 1.3 0 .7-.6 1.3-1.3 1.3-.7 0-1.3-.6-1.3-1.3zm-10.9 4.4c0-.7.6-1.3 1.3-1.3.7 0 1.3.6 1.3 1.3 0 .7-.6 1.3-1.3 1.3-.7 0-1.3-.6-1.3-1.3zm3.4 13.6c0 1.7 1.4 3.1 3.1 3.1s3.1-1.4 3.1-3.1-1.4-3.1-3.1-3.1-3.1 1.4-3.1 3.1zm18.1-10.9v-.7h-1.1l-3.2 2.3h-1.6c-.5 0-.7-.1-.7.4v1.7c0 .5.3.4.7.4h1.6l3.2 2.3h1.1v-.7s-.1 0-.1-.1c-.9-.6-1.5-1.6-1.5-2.8-.1-1.2.6-2.3 1.6-2.8z"/><path class="st2" d="M123.6 120.7c-1.3 6-6.6 10.6-13 10.6-7.3 0-13.3-6-13.3-13.3s6-13.3 13.3-13.3c6.4 0 11.8 4.5 13 10.6-1.4.2-2.4 1.3-2.4 2.7 0 1.4 1.1 2.5 2.4 2.7z"/><path d="M9 5.9h149.2v149.2H9V5.9z" fill="none"/><path class="st4" d="M74.9 120h151.4M56.6 41.1h169.7"/><text transform="translate(239.584 75.223)" class="st5 st6">I/O connector</text><text transform="translate(239.584 93.323)" class="st5 st6">(6-pin connector)</text><text transform="translate(239.584 124.59)" class="st5 st6">Status LED</text><text transform="translate(239.584 45.664)" class="st5 st6">USB 3.0 Micro-B connector</text><path class="st4" d="M226.3 78.3l-116 20.4"/></svg>