<svg version="1.1" id="Layer_1" xmlns="http://www.w3.org/2000/svg" x="0" y="0" viewBox="0 0 300 230" xml:space="preserve"><style>.st3{font-family:Helvetica,Arial,sans-serif}.st4{font-size:8.905px}.st5{font-size:10.019px}</style><path d="M38.8 9.4h250.1v177.7H38.8V9.4z" fill="none" stroke="#000" stroke-width="1.092" stroke-miterlimit="3.864"/><path d="M38.8 9.4v179.9m35.6-180v180m35.7-180v180m35.7-180v179.9m36-179.9v180m35.7-180v180m35.7-180v179.9M288.9 9.3v179.9M36.5 157.5h252.4M36.6 187.1H289M36.5 127.9H289M36.5 98.4h252.4M36.5 68.5h252.4M36.5 38.9h252.4M36.5 9.3h252.4" fill="none" stroke="#000" stroke-width=".5" stroke-miterlimit="3.864"/><path d="M38.8 186.9l3.4-5.7 3.5-5.5 3.8-4.9 3.4-4.7 3.6-4.2 3.4-3.9 3.8-3.2 3.6-3.3 3.5-3 3.5-3 3.7-2.9 3.4-2.9 3.8-2.1 3.4-2.6 3.7-2.5 3.4-1.8 3.9-2.4 3.1-1.7 3.8-2.1 3.7-5.7 3.7-4.9 3.3-4.3 3.6-4.1 3.7-3.7 3.4-3.6 3.6-3.4 3.6-2.9 3.4-3 3.8-2.7 3.3-2.9 3.7-2.3 3.6-2.7 3.5-1.9 3.7-2.5 3.6-2.1 3.7-2 3.5-2 3.6-1.7 3.5-1.7 3.9-2.1 3.3-1.5 3.7-1.6 3.5-1.7 3.7-1.3 3.4-1.8 3.8-1.4 3.4-1.2 3.8-1.3 3.3-1.4 3.5-1.2 3.6-1.5 3.9-1 3.2-1.5 3.5-1 3.5-1.2 3.8-1.4 3.4-.9 3.6-1.2 3.4-1.1 3.9-1.1 3.5-.9 3.7-.9 3.4-1.1" fill="none" stroke="#2950a3" stroke-miterlimit="3.864"/><text transform="translate(36.23 200.749)" class="st3 st4">0</text><text transform="translate(68.829 200.749)" class="st3 st4">10</text><text transform="translate(105.1 200.749)" class="st3 st4">20</text><text transform="translate(140.662 200.749)" class="st3 st4">30</text><text transform="translate(177.29 200.749)" class="st3 st4">40</text><text transform="translate(212.851 200.749)" class="st3 st4">50</text><text transform="translate(248.057 200.749)" class="st3 st4">60</text><text transform="translate(283.619 200.749)" class="st3 st4">70</text><text transform="translate(29.3 160.21)" class="st3 st4">5</text><text transform="translate(24.732 129.982)" class="st3 st4">10</text><text transform="translate(24.732 101.534)" class="st3 st4">15</text><text transform="translate(24.732 70.951)" class="st3 st4">20</text><text transform="translate(24.732 41.08)" class="st3 st4">25</text><text transform="translate(24.732 11.92)" class="st3 st4">30</text><text transform="translate(121.95 219.187)" class="st3 st5">Gain Raw setting</text><text transform="rotate(-90 69.142 53.5)" class="st3 st5">Gain in dB</text></svg>