<svg xmlns="http://www.w3.org/2000/svg" viewBox="0 0 1380 920"><style>.st1{fill:none;stroke:#1a1a18;stroke-width:.4252;stroke-linecap:round;stroke-linejoin:round;stroke-miterlimit:10}.st2{fill:#f6f6f6}.st4{fill:none;stroke-width:.7087;stroke-miterlimit:10}.st4,.st5{stroke:#1a1a18}.st5,.st6,.st7{fill:none;stroke-miterlimit:10}.st5,.st6,.st7{stroke-width:.4252}.st6,.st7{stroke:#000}.st7{stroke-dasharray:5.6693,2.8346}.st10,.st11,.st12,.st13,.st14,.st23,.st24,.st25,.st26,.st27,.st28,.st33,.st34{fill:none;stroke:#000;stroke-width:.3004;stroke-linecap:round;stroke-linejoin:round}.st11{stroke-dasharray:.835,1.3916}.st12{stroke-dasharray:5.5664,1.3916,.835,1.3916}.st13{stroke-dasharray:.7994,1.3324}.st14{stroke-dasharray:5.3295,1.3324,.7994,1.3324}.st23{stroke-dasharray:.6587,1.0979}.st24{stroke-dasharray:4.3917,1.0979,.6587,1.0979}.st25{stroke-dasharray:.4596,.766}.st26{stroke-dasharray:3.0642,.766,.4596,.766}.st27{stroke-dasharray:.4401,.7334}.st28{stroke-dasharray:2.9338,.7334,.4401,.7334}.st33{stroke-dasharray:11.0348,18.3913}.st34{stroke-dasharray:73.5654,18.3913,11.0348,18.3913}.st35{stroke-width:.3009}.st35,.st36,.st37{fill:none;stroke:#000;stroke-linecap:round;stroke-linejoin:round}.st36{stroke-miterlimit:10;stroke-width:.3009}.st37{stroke-width:.3005}.st39{font-family:Helvetica,Arial,sans-serif}.st40{font-size:14px}.st41{font-size:16.625px}</style><g id="boost"><path d="M606.5 558.1H393.1c-.4 0-.9-.3-1.2-.7-1.4-1.9-3.1-3.6-4.9-5-.3-.3-.5-.6-.5-1V337.9c0-.4.2-.9.5-1.1 1.9-1.4 3.6-3.1 5-4.9.3-.3.8-.5 1.2-.5h213.4v0c.4 0 1 .2 1.3.5 1.4 1.9 3.1 3.6 4.9 5 .3.3.5.8.5 1.2v213.5c0 .4-.2.8-.5 1-1.9 1.4-3.6 3.1-5 4.9-.3.3-.8.6-1.3.6z" fill="#f6f6f6" stroke="#1a1a18" stroke-width=".709" stroke-miterlimit="10"/><path class="st1" d="M467.1 410.7c-3.1 0-5.7 2.5-5.7 5.7m71-5.7h-65.2m70.9 5.7c0-3.1-2.5-5.7-5.7-5.7m5.7 62.3v-56.7m-5.6 62.5c3.1 0 5.7-2.5 5.7-5.7m-71 5.7h65.2m-70.9-5.7c0 3.1 2.5 5.7 5.7 5.7m-5.7-62.5V473"/><path class="st1" d="M566.4 444.7c0-36.8-29.8-66.7-66.7-66.7-36.8 0-66.7 29.8-66.7 66.7 0 36.8 29.8 66.7 66.7 66.7s66.7-29.9 66.7-66.7m-122.8 51.2c20 21.9 50.9 30.2 79.1 21.2m-79.1-21.2c-2.4-2.6-5.6-4.2-9.2-4.4m-7.9-13.5c-1.5 2.8-1.4 6.2.2 9s4.5 4.5 7.7 4.6m-7.8-13.7c1.7-3.2 1.7-6.9.6-10.3m21.2-79.1c-21.9 20-30.2 50.9-21.2 79.1m21.2-79.1c2.6-2.4 4.4-5.6 4.6-9.2m13.6-7.8c-2.8-1.5-6.2-1.4-9 .2s-4.5 4.5-4.6 7.7m13.6-7.9c3.2 1.7 6.9 1.9 10.3.8m79 21.1c-20-21.9-50.7-30-78.9-21.1m78.9 21.1c2.4 2.6 5.8 4.4 9.4 4.6"/><path class="st1" d="M573.1 411.5c1.5-2.8 1.4-6.2-.2-9s-4.5-4.5-7.7-4.6m7.9 13.6c-1.7 3.2-2.1 6.7-1 10.2M551 500.8c21.9-20 30-50.9 21.1-79.1M551 500.8c-2.6 2.4-4.2 5.8-4.4 9.4M533 518c2.8 1.5 6.2 1.4 9-.2s4.5-4.5 4.6-7.7m-13.6 7.8c-3.2-1.7-6.9-1.9-10.3-.8"/><path class="st1" d="M606.5 558.1H393.1c-.4 0-.9-.3-1.2-.7-1.4-1.9-3.1-3.6-4.9-5-.3-.3-.5-.6-.5-1V337.9c0-.4.2-.9.5-1.1 1.9-1.4 3.6-3.1 5-4.9.3-.3.8-.5 1.2-.5h213.4c.4 0 1 .2 1.3.5 1.4 1.9 3.1 3.6 4.9 5 .3.3.5.8.5 1.2v213.5c0 .4-.2.8-.5 1-1.9 1.4-3.6 3.1-5 4.9-.3.3-.8.6-1.3.6z"/><path class="st1" d="M437.5 482.3c0-1.5-1.2-2.8-2.8-2.8s-2.8 1.2-2.8 2.8c0 1.5 1.2 2.8 2.8 2.8 1.6 0 2.8-1.3 2.8-2.8m130.2-75.1c0-1.5-1.2-2.8-2.8-2.8s-2.8 1.2-2.8 2.8c0 1.5 1.2 2.8 2.8 2.8 1.5 0 2.8-1.2 2.8-2.8m-102.6-27.5c0-1.5-1.2-2.8-2.8-2.8s-2.8 1.2-2.8 2.8c0 1.5 1.2 2.8 2.8 2.8 1.5 0 2.8-1.3 2.8-2.8m75 130.1c0-1.5-1.2-2.8-2.8-2.8s-2.8 1.2-2.8 2.8c0 1.5 1.2 2.8 2.8 2.8 1.6 0 2.8-1.2 2.8-2.8M435 515.6c0-3.3-2.7-6-6-6s-6 2.7-6 6 2.7 6 6 6 6-2.7 6-6m0-141.7c0-3.3-2.7-6-6-6s-6 2.7-6 6 2.7 6 6 6c3.3.1 6-2.6 6-6m141.7 0c0-3.3-2.7-6-6-6s-6 2.7-6 6 2.7 6 6 6c3.3.1 6-2.6 6-6m0 141.7c0-3.3-2.7-6-6-6s-6 2.7-6 6 2.7 6 6 6 6-2.7 6-6"/><path class="st1" d="M433.6 515.6c0-2.5-2.1-4.6-4.6-4.6-2.5 0-4.6 2.1-4.6 4.6 0 2.5 2.1 4.6 4.6 4.6 2.5 0 4.6-2.1 4.6-4.6m0-141.7c0-2.5-2.1-4.6-4.6-4.6-2.5 0-4.6 2.1-4.6 4.6 0 2.5 2.1 4.6 4.6 4.6 2.5 0 4.6-2 4.6-4.6m141.6 0c0-2.5-2.1-4.6-4.6-4.6-2.5 0-4.6 2.1-4.6 4.6 0 2.5 2.1 4.6 4.6 4.6 2.6 0 4.6-2 4.6-4.6m0 141.7c0-2.5-2.1-4.6-4.6-4.6-2.5 0-4.6 2.1-4.6 4.6 0 2.5 2.1 4.6 4.6 4.6 2.6 0 4.6-2.1 4.6-4.6m-42.5-99.5h-65.8v57.3h65.8v-57.3"/><path class="st2" d="M1239.7 558.1h-213.5c-.4 0-.9-.3-1.2-.7-1.4-1.9-3.1-3.6-4.9-5-.3-.3-.5-.6-.5-1V337.8c0-.4.2-.9.5-1.1 1.9-1.4 3.6-3.1 5-4.9.3-.3.8-.5 1.2-.5h213.4c.4 0 1 .2 1.3.5 1.4 1.9 3.1 3.6 4.9 5 .3.3.5.8.5 1.2v213.5c0 .4-.2.8-.5 1-1.9 1.4-3.6 3.1-5 4.9-.2.3-.7.7-1.2.7z"/><path d="M1239.7 558.1h-213.5c-.4 0-.9-.3-1.2-.7-1.4-1.9-3.1-3.6-4.9-5-.3-.3-.5-.6-.5-1V337.8c0-.4.2-.9.5-1.1 1.9-1.4 3.6-3.1 5-4.9.3-.3.8-.5 1.2-.5h213.4v0c.4 0 1 .2 1.3.5 1.4 1.9 3.1 3.6 4.9 5 .3.3.5.8.5 1.2v213.5c0 .4-.2.8-.5 1-1.9 1.4-3.6 3.1-5 4.9-.2.3-.7.7-1.2.7z" fill="none" stroke="#1a1a18" stroke-width=".709" stroke-linecap="round" stroke-linejoin="round" stroke-miterlimit="10"/><path class="st1" d="M1186.9 488.7c.9-2.4-.4-5-2.8-5.9-2.4-.9-5 .4-5.9 2.8s.4 5 2.8 5.9c2.4.8 5-.4 5.9-2.8m46.7 62.2c3.1 0 5.7-2.5 5.7-5.7m-212.6 0c0 3.1 2.5 5.7 5.7 5.7M1239.3 344c0-3.1-2.5-5.7-5.7-5.7m-201.2 0c-3.1 0-5.7 2.5-5.7 5.7m212.6 201.3V344m-212.6 0v201.3m207-207h-201.4m0 212.6h201.4m4.1-9.8c-.3-4.3-4-7.6-8.3-7.3-4.3.3-7.6 4-7.3 8.3.3 4.3 4 7.6 8.3 7.3s7.6-4 7.3-8.3"/><path class="st1" d="M1226.5 543.8l-.2-4.1 3.4-2.2 3.6 1.8.2 4-3.2 2.3-3.8-1.8m-195-202.5c-3.5 2.5-4.4 7.4-1.9 10.9 2.5 3.5 7.4 4.4 10.9 1.9 3.5-2.5 4.4-7.4 1.9-10.9-2.5-3.5-7.4-4.4-10.9-1.9"/><path class="st1" d="M1039.8 349.4l-3.4 2.4-3.8-1.8-.3-4 3.4-2.3 3.6 1.6.5 4.1m3.8 193.8c.9-4.2-1.8-8.4-6.1-9.3-4.2-.9-8.4 1.8-9.3 6.1s1.8 8.4 6.1 9.3c4.3.9 8.4-1.9 9.3-6.1"/><path class="st1" d="M1032.1 542.8l.9-4 4-1.3 2.8 2.7-.7 4-3.9 1.4-3.1-2.8m191.1-199c-2.2 3.7-.9 8.5 2.8 10.7 3.7 2.2 8.5.9 10.7-2.8 2.2-3.7.9-8.5-2.8-10.7s-8.5-.9-10.7 2.8"/><path class="st1" d="M1234.1 347.6l-2.2 3.6h-4l-2.1-3.6 2.1-3.6 4.2.2 2 3.4m-188 .8v-10.2m-9.3 19.5c5.1 0 9.4-4.2 9.4-9.4m-19.4 9.4h10m9.3 183.1c0-5.1-4.2-9.4-9.4-9.4h-10m19.4 19.5v-10.1m-14.4 10.1h14.4m183.1-193.2h10m-19.4-9.3c0 5.1 4.3 9.4 9.4 9.4m-9.4-19.5v10.1m0 192.4v10.1m9.4-19.5c-5.1 0-9.4 4.2-9.4 9.4m19.3-9.4h-9.9m-77.8 19.5v-38.6m17-16.9c-9.4 0-17 7.6-17 17m87.9-17h-70.8m-11.4 55.5v-38.6m11.3-11.1c-6.2 0-11.2 5-11.3 11.2m11.4-11.4h70.8m-207.4 51.8h202.2m-209.2-7.1c0 3.9 3.2 7.1 7.1 7.1m-7.1-209.3v202.1m7.1-209.1c-3.9 0-7.1 3.2-7.1 7.1m209.2-7.1h-202.2m209.2 7.1c0-3.9-3.2-7.1-7.1-7.1m7.1 209.1V343.5m-7.1 209.3c3.9 0 7.1-3.2 7.1-7.1m-100.5-27.1c0-4.4-3.6-8-8-8s-8 3.6-8 8 3.6 8 8 8 8-3.6 8-8"/><path class="st1" d="M1146.7 518.6c0-7.8-6.3-14.1-14.1-14.1s-14.1 6.3-14.1 14.1 6.3 14.1 14.1 14.1 14.1-6.3 14.1-14.1"/><path class="st1" d="M1144.5 518.6c0-6.6-5.4-12-12-12s-12 5.4-12 12 5.4 12 12 12 12-5.4 12-12"/><path class="st1" d="M1122.8 518.6c0 5.4 4.4 9.8 9.8 9.8s9.8-4.4 9.8-9.8-4.4-9.8-9.8-9.8-9.8 4.4-9.8 9.8m4.8-3.3h-.9m.6-.6h-.6m.9-.2l-.3.2m3.4-.2h-.9"/><path class="st1" d="M1127.6 515.3l1.1.5 1.1-.5.8-.1m-3-.7l1.1-.5 1.1.5m-2.2 7.4l-.2.4-.1.3m1.2-3.6v.4l-.2.5m-1.6 2.2v.4m.2-.9l-.2.5m1.2-3.4l-.3.9m.7.3l.2 1.1-.9.9m-.7-.3l-.2-1.1.9-.9m6 5l.3.2.4.4m-2.6-2.1c-.1.1-.1.2-.2.3m.5-.4c-.1.1-.2.1-.3.2m1.9 2.1l.1.4m-.5-.7l.4.3m-2.4-2.1l.4.3m.5-.5l1.1.4.4 1.2m-.4.4l-1.3-.4-.3-1.1m6.8-3.6h.4l.5-.1m-3.6 1.4l.4-.2.3-.2m2.7-.3l.4-.2m-.9.4l.5-.2m-2.8 1.2l.3-.1m-.2-.8l.8-.9h1.2m.2.8l-.7.9h-1.3m-.5-7.8v-.3l.2-.6m.5.6v-.6m0 .9v-.3m0 3.5v-1m-.7-2.2l-.6 1.1.6 1.1v.9m.7-3.1l.5 1.1-.5 1.1m-4.5 1.6v-.9m.4 3.2c.1 0 .2 0 .3-.1m-.7.1c.1 0 .2.1.3.1m.2-2.9v-.4m-.2.5c-.1 0-.2 0-.3.1m.7 0c-.1 0-.2-.1-.3-.1m.3.4l-.2-.5m0 3l.2-.3m-.7 0l-.5-1.1.5-1.1m.7 0l.6 1.1-.6 1.1"/><path class="st1" d="M1137.1 513c-.9-.2-1.8.1-2.3.9-.5.8-.4 1.8.3 2.5.6.7 1.7.8 2.5.4s1.2-1.4 1-2.3"/><path class="st1" d="M1137 513.1l.9.4.5 1m-11.6 0c-.2.9.2 1.8 1 2.3.8.4 1.8.3 2.5-.4s.8-1.7.3-2.5-1.4-1.2-2.3-.9m-1.6 1.5l.6-.9.9-.5m-1.7 9.3c.8.5 1.8.5 2.5-.1s1-1.6.6-2.4c-.4-.9-1.3-1.4-2.2-1.2s-1.7.8-1.8 1.8m.9 2l-.7-.9-.2-1.1m8 5.3c.8-.5 1.2-1.4.9-2.3-.2-.9-1.1-1.5-2-1.5-.9 0-1.7.6-2 1.5-.2.9.1 1.8.9 2.3"/><path class="st1" d="M1133.6 525.7l-.9.4-1.1-.4m8.1-5.2c-.1-.9-.9-1.6-1.8-1.8-.9-.1-1.8.4-2.2 1.2-.4.9-.1 1.9.6 2.4s1.8.6 2.5.1"/><path class="st1" d="M1139.5 520.5l-.2 1.1-.5.9m-4.2-3.9c0-1.1-.9-2.1-2.1-2.1s-2.1.9-2.1 2.1c0 1.1.9 2.1 2.1 2.1s2.1-1 2.1-2.1m-3.4-7.2c.3.5.8.8 1.4.8.6 0 1.1-.3 1.4-.8m-3-.5v.2l.2.4"/><path class="st1" d="M1133.9 511.5l.2-.4v-.2"/><path class="st1" d="M1131 510.7c-4 .8-6.8 4.5-6.4 8.6.4 4.1 3.9 7.2 8 7.2s7.6-3.1 8-7.2c.4-4.1-2.4-7.8-6.4-8.6m-.1 0c-1-.2-2.1-.2-3.1 0m51.2 15.9c0 .3.3.6.6.6s.6-.3.6-.6-.3-.6-.6-.6-.6.3-.6.6"/><path class="st1" d="M1176.3 526.6c0 3.6 2.9 6.6 6.6 6.6 3.6 0 6.6-2.9 6.6-6.6 0-3.6-2.9-6.6-6.6-6.6-3.7.1-6.6 3-6.6 6.6m4.6 7.9h.2l.4.1h2.5l.5-.1m0-15.7h-.5l-.5-.2h-1.5l-.5.2h-.6m3.6 0v1.6m-3.6-1.6v1.6m3.6 12.4v1.7m-3.6-1.7v1.7m-4.3.9l.6-.9m8.6-16.8l.5-1.1m-9.6 18.8c.8.5 1.6 1 2.5 1.3m.5-1l-.4.9m9.6-18.7l-.6 1.1m.6-1.2c-.8-.5-1.6-1-2.5-1.3"/><path class="st1" d="M1179.3 536.7c5.1 1.8 10.7-.4 13.1-5.2s1-10.6-3.4-13.7m-2.6-1.3c-5.1-1.8-10.7.4-13.1 5.2-2.4 4.8-1 10.6 3.4 13.7"/><path class="st1" d="M1179.8 535.6c4.4 1.5 9.3-.5 11.4-4.7 2.1-4.2.9-9.3-2.9-12m-2.5-1.2c-4.4-1.5-9.3.5-11.4 4.7-2.1 4.2-.9 9.3 2.9 12"/><path class="st2" d="M206.5 331.7h-72l-.9.9v225l.9.9h72l.9-.9v-6.3h2.7l.5-.5h1.6l.5.5H260l.9-.9v-12.8h5l.5-.7v-21.2l-.5-.5h-5v-22.5s2.7-1.6 2.7-5.3-2.7-5.7-2.7-5.7V339.8l-.9-.9h-47.2l-.5.5h-1.6l-.5-.5h-2.7v-6.3l-1-.9"/><path class="st1" d="M229.5 341.2v13.9m0 0c0 .4-.3.9-.7.9m-.1-15.7c.4 0 .8.4.8.8m-.7-.8h-7.7m7.7 15.7h-7.7m8.4 179.1V549m0 0c0 .4-.4.8-.8.8m0-15.6c.4 0 .8.4.8.8m-.7-.8h-7.7m7.7 15.7h-7.7m39.8-17.9h-40.7m.9 0v19.3m-.9 0V532m40.6-173.8h-40.6m0 0v-19.3m-9.5 211.9V339.4m2.1 211.9V338.9m-5.4.1v212.8m-39.7-171.5c-3.3 0-6-2.7-6-6s2.7-6 6-6 6 2.7 6 6-2.6 6-6 6m0 141.7c-3.3 0-6-2.7-6-6s2.7-6 6-6 6 2.7 6 6c.1 3.3-2.6 6-6 6"/><path class="st1" d="M167.7 520.5c-2.5 0-4.6-2.1-4.6-4.6s2.1-4.6 4.6-4.6c2.5 0 4.6 2.1 4.6 4.6s-2 4.6-4.6 4.6m0-141.6c-2.5 0-4.6-2.1-4.6-4.6s2.1-4.6 4.6-4.6c2.5 0 4.6 2.1 4.6 4.6 0 2.5-2 4.6-4.6 4.6m53.4-40v19.2m39.8 179.5v-22.5"/><path class="st4" d="M206.5 331.7h-72l-.9.9v225l.9.9h72l.9-.9v-6.3h2.7l.5-.5h1.6l.5.5H260l.9-.9v-12.8h5l.5-.7v-21.2l-.5-.5h-5v-22.5s2.7-1.6 2.7-5.3-2.7-5.7-2.7-5.7V339.8l-.9-.9h-47.2l-.5.5h-1.6l-.5-.5h-2.7v-6.3l-1-.9"/><path class="st5" d="M260.9 492.6v-10.9"/><path class="st2" d="M386.4 740.1v72l.9.9h225l.9-.9v-72l-.9-.9H606v-2.7l-.5-.5v-1.6l.5-.5v-47.2l-.9-.9h-99.3v-5l-.7-.5h-18.7l-.5.5v5h-31l-.1-.4c-2.7-2.3-6.7-2.3-9.4 0l-.1.4h-50.9l-.9.9v47.2l.5.5v1.6l-.5.5v2.7h-6.3l-.8.9"/><path class="st1" d="M395.9 717.1h13.9m0 0c.4 0 .9.3.9.7m-15.7.1c0-.4.4-.8.8-.8m-.8.7v7.7m15.7-7.7v7.7m179.1-8.4h13.9m0 0c.4 0 .8.4.8.8m-15.6 0c0-.4.4-.8.8-.8m-.8.7v7.7m15.7-7.7v7.7m-17.9-39.7v40.6m0-.9H606m0 .9h-19.3m-173.8-40.6v40.6m-9.4-10.8h9.4m-19.3 0h9.9m9.4 10.8h-19.3m211.9 9.5H394.1m211.9-2.1H393.6m.1 5.4h212.8M435 778.9c0 3.3-2.7 6-6 6s-6-2.7-6-6 2.7-6 6-6 6 2.6 6 6m141.7 0c0 3.3-2.7 6-6 6s-6-2.7-6-6 2.7-6 6-6c3.3-.1 6 2.6 6 6"/><path class="st1" d="M575.2 778.9c0 2.5-2.1 4.6-4.6 4.6s-4.6-2.1-4.6-4.6c0-2.5 2.1-4.6 4.6-4.6s4.6 2 4.6 4.6m-141.6 0c0 2.5-2.1 4.6-4.6 4.6s-4.6-2.1-4.6-4.6c0-2.5 2.1-4.6 4.6-4.6 2.5 0 4.6 2 4.6 4.6m-40-53.4h19.3m92.9-39.8h-19.9"/><path class="st4" d="M386.4 740.1v72l.9.9h225l.9-.9v-72l-.9-.9H606v-2.7l-.5-.5v-1.6l.5-.5v-47.2l-.9-.9h-99.3v-5l-.7-.5h-18.7l-.5.5v5h-31l-.1-.4c-2.7-2.3-6.7-2.3-9.4 0l-.1.4h-50.9l-.9.9v47.2l.5.5v1.6l-.5.5v2.7h-6.3l-.8.9"/><path class="st5" d="M445.4 685.7h9.5"/><path class="st2" d="M386.4 179.9v-72l.9-.9h225l.9.9v72l-.9.9H606v2.7l-.5.5v1.6l.5.5v47.2l-.9.9h-99.3v5l-.7.5h-18.7l-.5-.5v-5h-31l-.1.4c-2.7 2.3-6.7 2.3-9.4 0l-.1-.4h-50.9l-.9-.9v-47.2l.5-.5V184l-.5-.5v-2.7h-6.3l-.8-.9"/><path class="st1" d="M395.9 202.9h13.9m0 0c.4 0 .9-.3.9-.7m-15.7-.1c0 .4.4.8.8.8m-.8-.7v-7.7m15.7 7.7v-7.7m179.1 8.4h13.9m0 0c.4 0 .8-.4.8-.8m-15.6 0c0 .4.4.8.8.8m-.8-.7v-7.7m15.7 7.7v-7.7m-17.9 39.7v-40.6m0 .9H606m0-.9h-19.3m-111 34.9v-24.1m-62.8 0h62.8m-62.8 0v-10.8m-9.4 10.8h9.4m-19.3 0h9.9m9.4-10.8h-19.3m82.1 34.9h-19.1m-12.9 0h-50.1m211.9-44.4H394.1m211.9 2.1H393.6m.1-5.4h212.8M435 141.1c0-3.3-2.7-6-6-6s-6 2.7-6 6 2.7 6 6 6 6-2.6 6-6m141.7 0c0-3.3-2.7-6-6-6s-6 2.7-6 6 2.7 6 6 6c3.3.1 6-2.6 6-6"/><path class="st1" d="M575.2 141.1c0-2.5-2.1-4.6-4.6-4.6s-4.6 2.1-4.6 4.6c0 2.5 2.1 4.6 4.6 4.6s4.6-2 4.6-4.6m-141.6 0c0-2.5-2.1-4.6-4.6-4.6s-4.6 2.1-4.6 4.6c0 2.5 2.1 4.6 4.6 4.6 2.5 0 4.6-2 4.6-4.6m76.1 0c0-5.5-4.5-10-10-10s-10 4.5-10 10 4.5 10 10 10 10-4.4 10-10"/><path class="st1" d="M492.6 141.1c0 3.9 3.2 7.1 7.1 7.1 3.9 0 7.1-3.2 7.1-7.1 0-3.9-3.2-7.1-7.1-7.1-3.9 0-7.1 3.2-7.1 7.1m-36 69v9.2m-12.9-9.2v9.2m0 4.3v5.8h12.9v-5.8m-8.3-2.1l.2-.7.4-.6.5-.5h1.5l.5.5.5.6v1.4l-.5.5-.5.4-.8.2-.7-.2-.5-.4-.4-.5-.2-.7m-4.6-2.2h3.9m5.2 0h3.8m-9 4.3h-3.9m12.9 0h-3.8m-9.1 0c.4-1.5.4-3 0-4.4m12.8 0c-.4 1.5-.4 3 0 4.4m-8.9-4.3l1.1-.9 1.4-.3 1.5.3 1.2.9"/><path class="st1" d="M447.6 219.3l.6 1.1.1 1.1-.1 1.1-.6 1 1.1.9 1.4.4 1.5-.4 1.2-.9m0 0l-.5-1-.2-1.1.2-1.1.5-1.1m4.5-9.2v-1m-16.2 0v.5l.6.5h15.6m-1.6-1h-.2m.8-1.3l-.6 1.3m-2-1.3v-.5h2.6v.5m-3.1 1.3l.5-1.3m0 0h-14.2m21.3 0h-4.5m-15.7 1.3h12.6m2.5 0h4m-19.1 0l-1.1-1.3m20.2 1.3l1.1-1.3v-3.4m-21.3 0v3.4m-45.9-13.3h19.3m92.9 39.8h-19.9"/><path class="st4" d="M386.4 179.9v-72l.9-.9h225l.9.9v72l-.9.9H606v2.7l-.5.5v1.6l.5.5v47.2l-.9.9h-99.3v5l-.7.5h-18.7l-.5-.5v-5h-31l-.1.4c-2.7 2.3-6.7 2.3-9.4 0l-.1-.4h-50.9l-.9-.9v-47.2l.5-.5V184l-.5-.5v-2.7h-6.3l-.8-.9"/><path class="st1" d="M475.7 228.5l5.6 5.6"/><path class="st5" d="M445.4 234.3h9.5"/><path class="st2" d="M831.8 557.6h72l.9-.9v-225l-.9-.9h-72l-.9.9v6.3h-2.7l-.5.5H826l-.5-.5h-47.2l-.9.9v143.6l-.4.1c-2.3 2.7-2.3 6.7 0 9.4l.4.1v23.8h-5l-.5.7v20.7l.5.5h5v8.1l.9 4.6h47.2l.5-.5h1.6l.5.5h2.7v6.3l1 .8"/><path class="st1" d="M808.8 548.1v-13.9m0 0c0-.4.3-.9.7-.9m.1 15.7c-.4 0-.8-.4-.8-.8m.7.8h7.7m-7.7-15.7h7.7m-8.4-179.1v-13.9m0-.1c0-.4.4-.8.8-.8m0 15.7c-.4 0-.8-.4-.8-.8m.7.8h7.7m-7.7-15.7h7.7m-39.7 17.9h40.6m-.9 0V338m.9 0v19.3m-34.9 143.6h24.1m0 49.5v-49.5m0 30.2h10.8m-10.8 9.4v-9.4m0 19.3v-9.9m10.8-9.4v19.3m-34.9-49.5v10.9m0 12.9v25.7m44.4-211.9v211.4M825.5 338v212.4m5.4-.1V337.5M870.6 509c3.3 0 6 2.7 6 6s-2.7 6-6 6-6-2.7-6-6c-.1-3.3 2.6-6 6-6m0-141.7c3.3 0 6 2.7 6 6s-2.7 6-6 6-6-2.7-6-6c-.1-3.3 2.6-6 6-6"/><path class="st1" d="M870.6 368.8c2.5 0 4.6 2.1 4.6 4.6s-2.1 4.6-4.6 4.6c-2.5 0-4.6-2.1-4.6-4.6s2-4.6 4.6-4.6m0 141.6c2.5 0 4.6 2.1 4.6 4.6s-2.1 4.6-4.6 4.6c-2.5 0-4.6-2.1-4.6-4.6 0-2.5 2-4.6 4.6-4.6m-69 1.4h-9.2m9.2 12.9h-9.2m-4.3 0h-5.8v-12.9h5.8m2.1 8.2l.7-.1.6-.4.5-.5v-1.5l-.5-.5-.6-.6h-1.4l-.5.6-.4.5-.2.7.2.8.4.5.5.4.7.1m2.2 4.7v-3.9m0-5.3v-3.7m-4.3 9v3.9m0-12.9v3.7m0 9.1c1.5-.4 3-.4 4.4 0m0-12.8c-1.5.4-3 .4-4.4 0m4.3 9l.9-1.1.3-1.5-.3-1.4-.9-1.3"/><path class="st1" d="M792.4 520.8l-1.1-.6-1.1-.2-1.1.2-1 .6-.9-1.1-.4-1.5.4-1.4.9-1.3m0 0l1 .6 1.1.2 1.1-.2 1.1-.6m9.2-4.5h1m0 16.2h-.5l-.5-.5V511m1 1.7v.1m1.3-.7l-1.3.6m1.3 1.9h.5v-2.5h-.5m-1.3 3.1l1.3-.6m0 0v14.3m0-21.3v4.5m-1.3 15.7v-12.6m0-2.5v-4m0 19.1l1.3 1.1m-1.3-20.2l1.3-1.1h3.4m0 21.3h-3.4m13.3 21.5v-19.3m-39.8-15.3v22"/><path class="st4" d="M831.8 557.6h72l.9-.9v-225l-.9-.9h-72l-.9.9v6.3h-2.7l-.5.5H826l-.5-.5h-47.2l-.9.9v143.6l-.4.1c-2.3 2.7-2.3 6.7 0 9.4l.4.1v23.8h-5l-.5.7v20.7l.5.5h5v8.1l.9 4.6h47.2l.5-.5h1.6l.5.5h2.7v6.3l1 .8"/><path class="st1" d="M783.2 500.9l-5.6-5.8"/><path class="st5" d="M777.4 482.5v9.6"/><path class="st6" d="M150.9 368.2h-2.8"/><path class="st7" d="M145.3 368.2h-7.1"/><path class="st6" d="M136.7 368.2h-2.8m17 152.2h-2.8"/><path class="st7" d="M145.3 520.4h-7.1"/><path class="st6" d="M136.7 520.4h-2.8m17-152.2v2.9"/><path fill="none" stroke="#000" stroke-width=".425" stroke-miterlimit="10" stroke-dasharray="5.6347,2.8173" d="M150.9 373.9v7"/><path fill="none" stroke="#000" stroke-width=".425" stroke-miterlimit="10" stroke-dasharray="5.6347,2.8173,5.6347,2.8173" d="M150.9 382.3v133.9"/><path class="st6" d="M150.9 517.6v2.8"/></g><g id="Mittellinien"><path class="st10" d="M167.2 364v3"/><path class="st11" d="M167.2 368.4v1.5"/><path class="st12" d="M167.2 370.6v8.5"/><path class="st10" d="M167.2 379.8v3m-9.3-9.3h3"/><path class="st13" d="M162.2 373.5h1.5"/><path class="st14" d="M164.4 373.5h8.1"/><path class="st10" d="M173.2 373.5h3m-9 132.8v3"/><path class="st11" d="M167.2 510.7v1.6"/><path class="st12" d="M167.2 513v8.4"/><path class="st10" d="M167.2 522.1v3m-9.3-9.3h3"/><path class="st13" d="M162.2 515.8h1.5"/><path class="st14" d="M164.4 515.8h8.1"/><path class="st10" d="M173.2 515.8h3m693.7 8.9v-3"/><path class="st11" d="M869.9 520.3v-1.6"/><path class="st12" d="M869.9 518v-8.5"/><path class="st10" d="M869.9 508.8v-3m9.3 9.4h-3"/><path class="st13" d="M874.9 515.2h-1.5"/><path class="st14" d="M872.8 515.2h-8.2"/><path class="st10" d="M864 515.2h-3m271.3 20.8v-5.5"/><path fill="none" stroke="#000" stroke-width=".3" stroke-linecap="round" stroke-linejoin="round" stroke-dasharray="1.5466,2.5776" d="M1132.3 527.9V525"/><path fill="none" stroke="#000" stroke-width=".3" stroke-linecap="round" stroke-linejoin="round" stroke-dasharray="10.3106,2.5776,1.5466,2.5776" d="M1132.3 523.8V508"/><path class="st10" d="M1132.3 506.7v-5.5m17.2 17.2h-5.5"/><path fill="none" stroke="#000" stroke-width=".3" stroke-linecap="round" stroke-linejoin="round" stroke-dasharray="1.4808,2.4679" d="M1141.5 518.4h-2.7"/><path fill="none" stroke="#000" stroke-width=".3" stroke-linecap="round" stroke-linejoin="round" stroke-dasharray="9.8717,2.4679,1.4808,2.4679" d="M1137.5 518.4h-15"/><path class="st10" d="M1121.2 518.4h-5.5m66.9 22.1v-4.4"/><path fill="none" stroke="#000" stroke-width=".3" stroke-linecap="round" stroke-linejoin="round" stroke-dasharray="1.2203,2.0338" d="M1182.6 534.1v-2.3"/><path fill="none" stroke="#000" stroke-width=".3" stroke-linecap="round" stroke-linejoin="round" stroke-dasharray="8.1353,2.0338,1.2203,2.0338" d="M1182.6 530.8v-12.4"/><path class="st10" d="M1182.6 517.4V513m13.6 13.6h-4.4"/><path fill="none" stroke="#000" stroke-width=".3" stroke-linecap="round" stroke-linejoin="round" stroke-dasharray="1.1684,1.9473" d="M1189.9 526.6h-2.2"/><path fill="none" stroke="#000" stroke-width=".3" stroke-linecap="round" stroke-linejoin="round" stroke-dasharray="7.7891,1.9473,1.1684,1.9473" d="M1186.7 526.6h-11.8"/><path class="st10" d="M1173.9 526.6h-4.4m12.9-32.1v-2.4"/><path class="st23" d="M1182.4 491v-1.2"/><path class="st24" d="M1182.4 489.2v-6.7"/><path class="st10" d="M1182.4 482v-2.4m7.4 7.4h-2.4"/><path class="st23" d="M1186.3 487h-1.2"/><path class="st24" d="M1184.6 487h-6.7"/><path class="st10" d="M1177.3 487h-2.4m-305-104.7v-3"/><path class="st11" d="M869.9 377.9v-1.5"/><path class="st12" d="M869.9 375.7v-8.5"/><path class="st10" d="M869.9 366.5v-3m9.3 9.3h-3"/><path class="st13" d="M874.9 372.8h-1.5"/><path class="st14" d="M872.8 372.8h-8.2"/><path class="st10" d="M864 372.8h-3m-441.8 143h3"/><path class="st11" d="M423.6 515.8h1.5"/><path class="st12" d="M425.8 515.8h8.5"/><path class="st10" d="M435 515.8h3m-9-9.3v3"/><path class="st13" d="M429 510.9v1.4"/><path class="st14" d="M429 513v8.1"/><path class="st10" d="M429 521.8v3m132.5-9h3.1"/><path class="st11" d="M565.9 515.8h1.6"/><path class="st12" d="M568.2 515.8h8.5"/><path class="st10" d="M577.4 515.8h3m-9.9-9.3v3"/><path class="st13" d="M570.5 510.9v1.4"/><path class="st14" d="M570.5 513v8.1"/><path class="st10" d="M570.5 521.8v3M419.2 373.7h3"/><path class="st11" d="M423.6 373.7h1.5"/><path class="st12" d="M425.8 373.7h8.5"/><path class="st10" d="M435 373.7h3m-9-9.3v3"/><path class="st13" d="M429 368.7v1.5"/><path class="st14" d="M429 370.9v8.1"/><path class="st10" d="M429 379.7v3m132.5-9h3.1"/><path class="st11" d="M565.9 373.7h1.6"/><path class="st12" d="M568.2 373.7h8.5"/><path class="st10" d="M577.4 373.7h3m-9.9-9.3v3"/><path class="st13" d="M570.5 368.7v1.5"/><path class="st14" d="M570.5 370.9v8.1"/><path class="st10" d="M570.5 379.7v3m-9.6 26.8l1.4-.9"/><path class="st25" d="M563 408.2l.7-.4"/><path class="st26" d="M564 407.6l4.1-2.3"/><path class="st10" d="M568.4 405.1l1.4-.8m-7-1.9l.9 1.4"/><path class="st27" d="M564 404.5l.4.7"/><path class="st28" d="M564.6 405.5l2.2 3.9"/><path class="st10" d="M567 409.7l.9 1.4m-138 73.9l1.5-.8"/><path class="st25" d="M432 483.8l.8-.4"/><path class="st26" d="M433.1 483.2l4-2.4"/><path class="st10" d="M437.5 480.7l1.4-.9m-7-1.8l.8 1.4"/><path class="st27" d="M433.1 480l.4.7"/><path class="st28" d="M433.7 481l2.2 3.9"/><path class="st10" d="M436.1 485.2l.8 1.5m98.2 18.9l.8 1.4"/><path class="st25" d="M536.3 507.7l.4.7"/><path class="st26" d="M536.9 508.7l2.3 4.1"/><path class="st10" d="M539.4 513.1l.8 1.5m1.9-7l-1.4.8"/><path class="st27" d="M540 508.7l-.7.5"/><path class="st28" d="M539 509.3l-3.8 2.3"/><path class="st10" d="M534.8 511.8l-1.4.8m-73.9-137.9l.8 1.4"/><path class="st25" d="M460.7 376.8l.4.7"/><path class="st26" d="M461.3 377.8l2.4 4.1"/><path class="st10" d="M463.9 382.2l.8 1.4m1.9-7l-1.5.9"/><path class="st27" d="M464.5 377.8l-.7.4"/><path class="st28" d="M463.5 378.4l-3.9 2.2"/><path class="st10" d="M459.3 380.8l-1.5.9m-38.3 396.8h3"/><path class="st11" d="M423.9 778.5h1.6"/><path class="st12" d="M426.2 778.5h8.5"/><path class="st10" d="M435.3 778.5h3.1m-9.4 9.3v-3"/><path class="st13" d="M429 783.4V782"/><path class="st14" d="M429 781.3v-8.1"/><path class="st10" d="M429 772.5v-3m132 9.3h3"/><path class="st11" d="M565.4 778.8h1.6"/><path class="st12" d="M567.7 778.8h8.5"/><path class="st10" d="M576.9 778.8h3m-9.4 9.3V785"/><path class="st13" d="M570.5 783.7v-1.5"/><path class="st14" d="M570.5 781.6v-8.1"/><path class="st10" d="M570.5 772.8v-3M419.4 141h3"/><path class="st11" d="M423.8 141h1.6"/><path class="st12" d="M426.1 141h8.4"/><path class="st10" d="M435.2 141h3m-9.3-9.3v3"/><path class="st13" d="M428.9 136v1.5"/><path class="st14" d="M428.9 138.2v8.1"/><path class="st10" d="M428.9 146.9v3.1m132.3-9h3"/><path class="st11" d="M565.6 141h1.5"/><path class="st12" d="M567.8 141h8.5"/><path class="st10" d="M577 141h3m-9.3-9.3v3"/><path class="st13" d="M570.7 136v1.5"/><path class="st14" d="M570.7 138.2v8.1"/><path class="st10" d="M570.7 146.9v3.1m-83.5-9h3"/><path fill="none" stroke="#000" stroke-width=".3" stroke-linecap="round" stroke-linejoin="round" stroke-dasharray=".7028,1.1713" d="M491.4 141h1.2"/><path fill="none" stroke="#000" stroke-width=".3" stroke-linecap="round" stroke-linejoin="round" stroke-dasharray="4.6851,1.1713,.7028,1.1713" d="M493.2 141h14.9"/><path class="st10" d="M508.7 141h3M499.5 128.8v3"/><path fill="none" stroke="#000" stroke-width=".3" stroke-linecap="round" stroke-linejoin="round" stroke-dasharray="1.1714,1.9523" d="M499.5 133.8v2.1"/><path fill="none" stroke="#000" stroke-width=".3" stroke-linecap="round" stroke-linejoin="round" stroke-dasharray="7.8093,1.9523,1.1714,1.9523" d="M499.5 136.9v11.9"/><path class="st10" d="M499.5 149.8v3"/><g><path class="st10" d="M499.8 568.9v-39.8"/><path class="st33" d="M499.8 510.7v-20.2"/><path class="st34" d="M499.8 481.3V369.1"/><path class="st10" d="M499.8 359.9v-39.8m124.4 124.4h-39.8"/><path class="st33" d="M566 444.5h-20.2"/><path class="st34" d="M536.6 444.5H424.4"/><path class="st10" d="M415.2 444.5h-39.8"/></g></g><g id="Bemaßung"><path class="st35" d="M104.4 383.9v122.4"/><path d="M101.5 385.8l2.9-10.6 2.8 10.6zm0 118.6l2.9 10.6 2.8-10.6z"/><path class="st36" d="M158.2 515.8H98.6"/><path class="st35" d="M437.4 77.7H562"/><path d="M439.4 80.5l-10.6-2.8 10.6-2.9zm120.7 0l10.6-2.8-10.6-2.9z"/><path class="st36" d="M570.7 131.5V71.9m-142.4 59.6V71.9"/><path class="st35" d="M437.7 843.3h125.2"/><path d="M439.7 846.1l-10.6-2.8 10.6-2.9zm121.2 0l10.6-2.8-10.6-2.9z"/><path class="st36" d="M570.7 786.5V846"/><path class="st35" d="M946.8 506.2V382.1"/><path d="M949.7 504.3l-2.9 10.6-2.8-10.6zm0-120.2l-2.9-10.6-2.8 10.6z"/><path class="st36" d="M878.8 372.7h73.8m-73.8 142.2h73.8"/><path class="st35" d="M437.8 300.5H563"/><path d="M439.8 303.3l-10.6-2.8 10.6-2.9zm121.2 0l10.6-2.8-10.6-2.9z"/><path class="st36" d="M571.6 362.9v-68"/><path class="st35" d="M357.9 381.8v125.3"/><path d="M355.1 383.8l2.8-10.6 2.8 10.6zm0 121.4l2.8 10.6 2.8-10.6z"/><path class="st36" d="M420.3 515.8h-68.1"/><path class="st35" d="M141.6 586h17.3"/><path d="M143.6 588.8L133 586l10.6-2.8zm13.3 0l10.6-2.8-10.6-2.8z"/><path class="st35" d="M878.2 593.9H895"/><path d="M880.1 596.7l-10.6-2.8 10.6-2.8zm13 0l10.6-2.8-10.6-2.8z"/><path class="st36" d="M133.1 550.5v41m34.6-68.1v68.1"/><path class="st37" d="M98.7 305.1h26"/><path d="M122.7 308l10.6-2.8-10.6-2.9z"/><path class="st37" d="M159.5 305.1h25.9"/><path d="M161.4 308l-10.6-2.8 10.6-2.9z"/><path class="st36" d="M133.1 301.9v30.8m17.7-30.7v65.9"/><path class="st35" d="M104.4 548.8v-25.5"/><path d="M107.2 546.9l-2.8 10.6-2.9-10.6zm0-21.7l-2.8-10.6-2.9 10.6z"/><path class="st36" d="M133.7 557.7H98.6m59.6-184.3H98.6"/><path class="st35" d="M357.3 131.4v-16.9"/><path d="M360.2 129.5l-2.9 10.6-2.8-10.6zm0-13l-2.9-10.6-2.8 10.6z"/><path class="st36" d="M392.5 106.1h-41m68.1 34.2h-68.1"/><path class="st35" d="M605 77.7h-25.5"/><path d="M603 74.8l10.6 2.9-10.6 2.8zm-21.5 0l-10.6 2.9 10.6 2.8z"/><path class="st36" d="M613.6 107V71.9"/><path class="st35" d="M604.4 300.5h-24.2"/><path d="M602.4 297.6l10.6 2.9-10.6 2.8zm-20.2 0l-10.6 2.9 10.6 2.8z"/><path class="st36" d="M613.1 335.8v-40.9m-183.9 68v-68"/><path class="st35" d="M1028.1 304.7h94.6"/><path d="M1030 307.6l-10.6-2.9 10.6-2.8zm90.8 0l10.6-2.9-10.6-2.8z"/><path class="st36" d="M1019.5 337.9v-89.5m112.7 262.1V297.4"/><path class="st35" d="M1028.1 276.3h120.6"/><path d="M1030 279.1l-10.6-2.8 10.6-2.8zm116.7 0l10.7-2.8-10.7-2.8z"/><path class="st35" d="M1028.1 252.9h143.7"/><path d="M1030 255.8l-10.6-2.9 10.6-2.8zm139.9 0l10.6-2.9-10.6-2.8z"/><path class="st36" d="M1157.6 511.7V269m25.1 257.3V248.4"/><path class="st35" d="M357.9 548.5v-24.1"/><path d="M360.7 546.6l-2.8 10.6-2.8-10.6zm0-20.2l-2.8-10.6-2.8 10.6z"/><path class="st36" d="M393 558.2h-40.9m68.1-185h-68.1"/><path class="st35" d="M946.8 548.9v-25.3"/><path d="M949.7 546.9l-2.9 10.6-2.8-10.6zm0-21.4l-2.9-10.6-2.8 10.6z"/><path class="st36" d="M903.2 557.6h49.4m36-39.2h126.8"/><path class="st35" d="M994.2 549v-21.3"/><path d="M997.1 547l-2.8 10.6-2.9-10.6zm0-17.4l-2.8-10.6-2.9 10.6z"/><path class="st36" d="M1282.5 526.6h-87"/><path class="st35" d="M1278.1 549v-13.3"/><path d="M1281 547l-2.9 10.6-2.8-10.6zm0-9.4l-2.9-10.6-2.8 10.6z"/><path class="st36" d="M1316.1 500.9h-84.7"/><path class="st35" d="M1311.7 549v-39.4"/><path d="M1314.6 547l-2.9 10.6-2.8-10.6zm0-35.4l-2.9-10.6-2.8 10.6z"/><path class="st36" d="M1349.3 487h-167"/><path class="st35" d="M1342.9 549v-53.7"/><path d="M1345.7 547l-2.8 10.6-2.8-10.6zm0-49.7l-2.8-10.6-2.8 10.6z"/><path class="st36" d="M988.6 557.8h360.9M878.8 372.7h73.8"/><path class="st35" d="M604.9 843.3h-25.6"/><path d="M602.9 840.4l10.7 2.9-10.7 2.8zm-21.6 0l-10.6 2.9 10.6 2.8z"/><path class="st36" d="M613.4 810.9V846m-184.3-59.5V846"/><path class="st35" d="M584.3 146.1l38.7 16.5h101.5"/><path d="M584.9 149.4l-8.6-6.8 10.9 1.6z"/><path class="st35" d="M174.3 527.4l34.8 57.8h104.5"/><path d="M172.9 530.5l-3.1-10.6 7.9 7.7z"/><path class="st35" d="M864.3 528.3l-37.1 120.2-104.5-.3"/><path d="M861.1 529.3l5.8-9.3-.4 11z"/><path class="st35" d="M1128.6 528.3l-20.9 66.6H946.4"/><path d="M1125.3 529.3l5.9-9.3-.5 11z"/><path class="st35" d="M1179.7 535.9l-29.2 91.2h-138.8"/><path d="M1176.4 536.9l6-9.2-.6 11z"/><path class="st35" d="M581.8 361.3l60.7-52.4H737"/><path d="M585.1 362.2l-9.9 4.8 6.2-9.1z"/><path class="st35" d="M583 786.3l59.5 41.1H737"/><path d="M583 789.7l-7.1-8.4 10.3 3.7z"/><path class="st35" d="M454.2 369.4l-52.1-60.5H290.3"/><path d="M455.1 366.1l4.7 9.9-9-6.2z"/><path class="st35" d="M523.9 389.6l-23.6 53.8"/><path d="M520.6 390.2l6.8-8.5-1.6 10.8z"/><path class="st35" d="M500.3 443.4l-23.4 53.3"/><path d="M475.1 493.8l-1.7 10.8 6.9-8.5z"/><path class="st36" d="M473.4 504.6L439 583.1h-45.8"/><path class="st35" d="M358 787.6v15.6"/><path d="M355.1 789.5l2.9-10.6 2.8 10.6zm0 11.8l2.9 10.6 2.8-10.6z"/><path class="st36" d="M387.4 812.9H355m64.1-34.5H355m549.8-222v43m-34.9-75.2v75.2"/><path class="st35" d="M642.9 340.2v208.3"/><path d="M640.1 342.2l2.8-10.6 2.9 10.6zm0 204.3l2.8 10.6 2.9-10.6z"/><path class="st36" d="M607.8 558.1h40.9m-40.9-226.5h40.9"/><path class="st35" d="M294.2 346.9v196"/><path d="M291.4 348.9l2.8-10.6 2.8 10.6zm0 192.1l2.8 10.6L297 541z"/><path class="st36" d="M259.1 551.7H300m-40.9-213.5H300"/><path class="st35" d="M394.9 603.6h208.3"/><path d="M396.9 606.5l-10.6-2.9 10.6-2.8zm204.3 0l10.6-2.9-10.6-2.8z"/><path class="st36" d="M386.3 545.5v63.9m226.8-63.9v63.9"/><path class="st35" d="M402.3 662.4h195.2"/><path d="M404.2 665.2l-10.6-2.8 10.6-2.8zm191.4 0l10.6-2.8-10.6-2.8z"/><path class="st36" d="M393.7 656.2v31.3m212.5-31.3v46"/><path class="st35" d="M896.4 276.2H785.7"/><path d="M894.4 273.3l10.6 2.9-10.6 2.8zm-106.7 0l-10.6 2.9 10.6 2.8z"/><path class="st35" d="M896.4 305h-57"/><path d="M894.4 302.2L905 305l-10.6 2.8zm-53.1 0l-10.6 2.8 10.6 2.8z"/><path class="st36" d="M905 336.6v-66m-127.9 85.9v-85.9m53.6 85.9v-58"/><path class="st35" d="M895.5 253.3h-114"/><path d="M893.6 250.5l10.6 2.8-10.6 2.9zm-110.1 0l-10.6 2.8 10.6 2.9z"/><path class="st36" d="M905 336.6v-88.9M771.9 575.2V247.7m0 366.9v-32.8m5.6-.7v-33.8m29.8 66.3v-64.2"/><path class="st35" d="M516.2 149.1l106.3 45h148.1"/><path d="M516.9 152.4l-8.7-6.7 10.9 1.5z"/><path class="st36" d="M571.2 403.2l112.2-64.7m-32.2 106h70.7m-181.2 70.7l65.2 112.9"/><path class="st35" d="M673 435.3c-1.2-25.1-7.8-48.8-18.6-70"/><path d="M675.7 433.2l-2.5 10.7-3.2-10.5zm-18-67.6l-7.5-8 2.5 10.7z"/><path class="st35" d="M611 618.8c57.7-36.8 96-101.4 96-174.9 0-34.5-8.4-67-23.3-95.6"/><path d="M614.1 620.1l-10.5 3.2 7.5-8zM687 348.7l-7.5-8 2.5 10.7z"/><path class="st35" d="M827 608.8h-11"/><path d="M817.9 606l-10.6 2.8 10.6 2.9z"/><path class="st35" d="M763.8 608.7l-11-.2"/><path d="M761.9 605.8l10.6 3-10.6 2.7z"/><path class="st36" d="M772.5 608.8h36.2"/><path class="st35" d="M827 578.4h-11"/><path d="M817.9 575.6l-10.6 2.8 10.6 2.9z"/><path class="st35" d="M768.6 578.4h-11.1"/><path d="M766.6 575.6l10.6 2.8-10.6 2.9z"/><path class="st36" d="M777.5 578.4h31.2m-277.9 4.7h37.8"/><path class="st35" d="M486.2 377.5l14.1 65.6"/><path d="M483.8 380l.5-11 5.1 9.8z"/><path class="st35" d="M500.3 443.1l14.5 66"/><path d="M511.6 507.8l5.1 9.7.5-10.9z"/><path class="st36" d="M514.7 508.8l16.1 74.3m48.5.1h21.8m-11-19l11 19m-21.8 0l10.8-19m49.9-23v-21.8m-19 11l19-11m0 21.8l-19-10.8"/><path fill="none" stroke="#000" stroke-width=".3" stroke-linecap="round" stroke-linejoin="round" stroke-miterlimit="10" d="M133.3 305.1h17.5"/></g><g id="Text"><text transform="translate(142.22 576.868)" class="st39 st40">12</text><text transform="translate(136.411 300.496)" class="st39 st40">6</text><text transform="rotate(-90 322.071 221.674)" class="st39 st40">15</text><text transform="rotate(-90 276.683 176.929)" class="st39 st40">50</text><text transform="rotate(-90 448.66 97.467)" class="st39 st40">15</text><text transform="rotate(-90 403.825 53.274)" class="st39 st40">50</text><text transform="rotate(-90 741.176 -197.96)" class="st39 st40">15</text><text transform="rotate(-90 768.024 -219.32)" class="st39 st40">14</text><text transform="rotate(-90 911.498 -361.55)" class="st39 st40">11</text><text transform="rotate(-90 921.736 -384.788)" class="st39 st40">20</text><text transform="rotate(-90 932.65 -403.227)" class="st39 st40">25</text><text transform="rotate(-90 696.465 -242.2)" class="st39 st40">50</text><text transform="rotate(-90 546.472 -93.232)" class="st39 st40">80</text><text transform="rotate(77.784 96.115 607.802)" class="st39 st40">30°</text><text transform="rotate(-66.74 735.092 -259.371)" class="st39 st40">90°</text><text transform="rotate(-90 370.273 89.178)" class="st39 st40">74.9</text><text transform="translate(583.624 294.284)" class="st39 st40">15</text><text transform="translate(496.15 293.641)" class="st39 st40">50</text><text transform="translate(1067.295 298.907)" class="st39 st40">40</text><text transform="translate(1085.296 272.13)" class="st39 st40">48.5</text><text transform="translate(1109.385 250.105)" class="st39 st40">57.5</text><text transform="translate(584.127 72.357)" class="st39 st40">15</text><text transform="translate(494.166 72.358)" class="st39 st40">50</text><text transform="translate(481.978 598.214)" class="st39 st40">80</text><text transform="translate(484.644 655.415)" class="st39 st40">74.9</text><text transform="translate(395.99 578.48)" class="st39 st40">Ø46.7</text><text transform="translate(537.25 578.48)" class="st39 st40">Ø53</text><text transform="translate(878.386 585.576)" class="st39 st40">12</text><text transform="translate(775.508 604.578)" class="st39 st40">12.5</text><text transform="translate(778.35 573.703)" class="st39 st40">10.5</text><text transform="translate(646.218 304.527)" class="st39 st40">4x M4; 6 deep</text><text transform="translate(646.757 821.69)" class="st39 st40">2x M4; 6 deep</text><text transform="translate(287.975 303.96)" class="st39 st40">4x M2.5; 3.3 deep</text><text transform="translate(218.058 579.67)" class="st39 st40">2x M4; 6 deep</text><text transform="translate(722.963 643.46)" class="st39 st40">2x M4; 6 deep</text><text transform="translate(947.71 590.172)" class="st39 st40">I/O Connector (M8 6-pin)</text><text transform="translate(1012.338 622.342)" class="st39 st40">Micro-BNC connector</text><text transform="translate(635.241 154.88)" class="st39 st40">2x M4; 6 deep</text><text transform="translate(632.998 186.85)" class="st39 st40">1/4-20 UNC; 7.5 deep</text><text transform="translate(823.461 249.236)" class="st39 st40">46.8</text><text transform="translate(826.148 270.997)" class="st39 st40">44.8</text><text transform="translate(857.886 301)" class="st39 st40">26</text><text transform="rotate(-90 239.399 -108.79)" class="st39 st40">12</text><text transform="rotate(-90 575.985 226.857)" class="st39 st40">12</text><text transform="translate(483.48 836.207)" class="st39 st40">50</text><text transform="translate(586.112 836.207)" class="st39 st40">15</text><text transform="translate(1155.04 766.946)"><tspan x="0" y="0" class="st39 st41">= Reference plane </tspan><tspan x="0" y="39.9" class="st39 st41">Not to scale</tspan><tspan x="0" y="59.8" class="st39 st41">Dimensions in mm</tspan></text><path d="M1127.6 774.3l22.5-12.9m-22.5-13v25.9m22.5-12.9l-22.5-13" fill="none" stroke="#000" stroke-width=".354" stroke-linecap="round" stroke-linejoin="round" stroke-miterlimit="10"/></g></svg>