<svg version="1.1" id="Layer_1" xmlns="http://www.w3.org/2000/svg" x="0" y="0" viewBox="0 0 1000 405" xml:space="preserve"><style>.st0,.st1,.st2{fill:none;stroke:#000;stroke-miterlimit:10}.st0{stroke-linecap:round;stroke-linejoin:round;stroke-width:.5}.st1,.st2{stroke-width:.283}.st2{stroke-linecap:round;stroke-linejoin:round}.st10,.st11,.st12,.st13,.st14,.st15{fill:none;stroke:#000;stroke-width:.283;stroke-miterlimit:10}.st6{stroke-dasharray:1.7649,3.5298}.st6,.st7,.st8,.st9{fill:none;stroke:#000;stroke-width:.283;stroke-miterlimit:10}.st7{stroke-dasharray:7.0596,3.5298,1.7649,3.5298}.st8{stroke-dasharray:1.1107,2.2214}.st9{stroke-dasharray:4.4429,2.2214,1.1107,2.2214}.st10{stroke-dasharray:1.765,3.5299}.st11{stroke-dasharray:7.0599,3.5299,1.765,3.5299}.st12{stroke-dasharray:1.1105,2.221}.st13{stroke-dasharray:4.442,2.221,1.1105,2.221}.st14{stroke-dasharray:1.7649,3.5299}.st15{stroke-dasharray:7.0598,3.5299,1.7649,3.5299}.st17{font-family:Helvetica,Arial,sans-serif}.st18{font-size:15.18px}.st20{fill:#1a1a18}</style><path class="st0" d="M456.6 192.2h-11m12.8 31.9c.6 0 1.2-.5 1.2-1.2m-.1-10.7V223m-7.2 1.1h-.1m.1-2.3v2.3m0 0h6.1m-1.8-13.2l2.9 1.3m-2.9 9.6h-10m0 0v-7.9m0-3.2V207m5.6 17.1v-2.3m-5.6 2.3h3.2m2.3 0h.1m4.4-31.9v4.1m-6.3 0h6.3m-9.8 28c.1 0 .2-.1.3-.2m-1 .2h.7m-1-.2c0 .1.2.2.3.2m-.2 1.3h-.3m.6.3c0-.2-.1-.3-.3-.3m1.5.3h-1.2m1.5-.3c-.2 0-.3.1-.3.3m.3-.3c.1 0 .2-.1.2-.2m0-1.3v1.3m-1.3-7.1l-.6-.9m-.1 0h.1m.6 6.7h-1m1.3-.3c-.2 0-.3.1-.3.3m.3-.3h2.6m.3.3c0-.2-.1-.3-.3-.3m.3.3h2.3m0 0v-2.3m4.5 0v-25.5m-9.8-4.1V191m1.5.8c0 .2.1.3.2.4m-.2-1.8v1.4m-1.8-1.1h-.9m1.2.3c0-.2-.1-.3-.3-.3m-.9 4h4.7m-4.7 12.3h4.7m0 0v-12.3m-2.3-48.3v-3.2m-2.4 0h2.4m-2.4 3.2h2.4m-2.4-24.9h3.2m0 0v-3.1m-3.2-.1h.1m5.2 2.3v-15.5m-1 0h1m-2.1 15.5h2.1m-2.9 30.8v-3.2m-2.4 0h2.4m-2.4 3.2h2.4m3.8 31.1h2.3m0 0V174m-2.3 0h2.3m-6.1-14.8h4.8m0 0v-29.9m-3.4 0h3.4m-7.2 84.6h2.4m0 0v-3.2m-2.4 0h2.4m-2.4-40.2h3.2m0 0v-6.2m-3.2 0h3.2m-3.2 18.2h6.2m0 0V174m-6.2 0h6.2m-3-10.6V162m-.8 0h.8m-.8 1.4V162m-2.4 0h2.4m-2.4-30.8h3.8m0 0v-6.8m-3.8 0h3.8m-.6 0v-.9m-3.2 0h3.2m-3.2 10.9h2.4m-2.4 6.1h2.4m0 0v-6.1m0 27v-3.3m-2.4 0h2.4m-2.4 3.3h2.4m4.7-1.9v-.3m0-29.9v-17.9m-1.8 0h1.8m-4.7 48.1h4.7m-6.8 57.2v4.7m-.3-4.7h.3m-.3 4.7h.3m3-47.4v-2.1m-3.3 0h8.5m0 0v-8.5m-8.5 0h8.5m-3.2 27v-5.6m-5.3 0h5.3m-5.3 5.6h5.3m-2.9-56h.8m-.8 6.1h.8m0 0v-6.1m4.7 57.8v-7.8m-7.9 0h7.9m-5.5-28v-3.2m-2.4 0h2.4m-2.4 3.2h2.4m0 5.6v-.3m-2.4 0h2.4m-2.4-67.9h-1.2m1.2 8.8h-1.2m1.2-8.8v8.8m0 140.8h-1.2m1.2 0V102.6m0 149.6h-1.2m1.2-8.8v8.8M391.4 90.3c.4 0 .8-.2 1-.6m0 0c.1-.1.1-.2.1-.2v-.2l-.1-.1h-.1m-.1-.1c-.1 0-.1 0-.2.1-.1 0-.1.1-.2.2s-.1.2-.2.4c-.1.1-.2.3-.3.5m1.1 96.5c-.2-.1-.6-.1-1-.2m1 .2c.1-1.2.1-2.3.1-3.5v-3.4c0-1.1-.1-2.2-.1-3.3 0-1.2-.1-2.3-.1-3.5m-.1-.1c-.1 1.2-.1 2.3-.2 3.5-.1 1.1-.1 2.2-.2 3.3s-.1 2.3-.2 3.4-.2 2.3-.3 3.4m.1-27.2c.1 1.1.2 2.2.3 3.4.1 1.1.1 2.3.2 3.4s.1 2.2.2 3.3c.1 1.2.1 2.3.2 3.5"/><path class="st0" d="M392.2 173c0-1.2.1-2.4.1-3.5s.1-2.2.1-3.3v-3.5c0-1.2 0-2.3-.1-3.5m-.9.2c.4 0 .8-.1 1-.2m-31.2-48.5v-.6c0-.3.1-.6.2-.9.1-.4.2-.8.3-1.1v-.4m.1-.1c-.6 0-1.1.4-1.1.9m-.1.1v2.3m.6-.2c-.3 0-.6.1-.6.2m0-2.3V91.1m1.2-1.2v17.7m29.3-.7c0 .2 0 .3.1.5.1.3.2.6.3 1 .1.5.2 1.1.2 1.7m0 .1c.3 0 .6-.1.6-.1m-1.2-3.2c.6 0 1.1-.4 1.1-.9m-30.4 15.7c-.6 0-1.1.3-1.1.7m1.1-.7c0-.3 0-.6-.1-.8-.1-.3-.2-.6-.3-.8-.1-.2-.2-.3-.2-.5m0 .1c-.3 0-.6.3-.6.6m0 0v2.2m31.1-3.2c0 .1 0 .2-.1.4s-.2.5-.3.8c-.1.3-.2.6-.2 1m0-.1c.6 0 1.1-.3 1.1-.7m-.5-1.4c.3 0 .6-.3.6-.6m-1.2 35c.6 0 1.1-.1 1.1-.3m-1.1.3v-32.3m-29.3.3h3.8c3.6 0 7.2-.1 10.8-.1s7.2-.1 10.8-.1h3.9m-30.5-10.6v9.4m.6 105.9v-.2c0-.1.1-.3.2-.4.1-.2.2-.4.2-.6.1-.2.1-.5.1-.8m-1.1-.7c0 .4.5.7 1.1.7m-1.1-.7v2.2m0 0c0 .3.3.6.6.6m-.6-2.8V122.4m1.2-.7v102.5m-1.2 13.2c0 .5.5.9 1.1.9m.1 0c0-.2 0-.5-.1-.8-.1-.4-.2-.7-.3-1.1-.1-.4-.2-.8-.2-1.2m-.6-.1c0 .1.3.2.6.2m-.6-.2v2.3m30.5-12.9c0 .2 0 .4.1.6.1.3.2.6.3.8.1.3.2.6.2.7m.5.6c0-.3-.3-.6-.6-.6m.6-1.3c0-.4-.5-.7-1.1-.7m.6 11.2c0 .4 0 .7-.1 1.1-.1.5-.2.9-.3 1.2-.1.4-.2.7-.2 1m1.1.8c0-.5-.5-.9-1.1-.9m1.1-3.1c0-.1-.3-.1-.6-.1m.6 19.8c0-.6-.5-1.1-1.1-1.1m0 0V239m-29.3-.7c1.3 0 2.5.1 3.8.1l10.8.3 10.8.3c1.3 0 2.6.1 3.9.1m1.1-46.6c0-.1-.5-.3-1.1-.3m0 32.3v-32.2m0 32.2h-3.9c-3.6 0-7.2-.1-10.8-.1-3.6 0-7.2-.1-10.8-.1h-3.8m-1.2 1.4v9.4m0 19.7v-17.4m1.2.9V256m29.3-164.6c.6 0 1.1-.5 1.1-1.1m-1.1 16.6V91.4m0 15.5c-1.3 0-2.6.1-3.9.1l-10.8.3-10.8.3c-1.3 0-2.5.1-3.8.1m29.6 148c.1.2.2.4.3.5.1.1.1.3.2.4s.1.2.2.2c.1.1.1.1.2.1"/><path class="st0" d="M392.2 256.8h.1l.1-.1v-.2c0-.1 0-.2-.1-.2m.1-.1c-.2-.4-.6-.6-1-.6m-.3-1.1c0 .2 0 .4.1.6.1.2.1.4.2.5m.8-63.1v-2.9c0-1 .1-1.9.1-2.9m-.9-.1c-.1 1-.2 1.9-.2 2.9s-.1 1.9-.1 2.8m1.3-33.1c0-1-.1-1.9-.1-2.9v-2.9m-1.2.3c0 .9 0 1.9.1 2.8.1 1 .1 1.9.2 2.9m0-69.1c-.1.2-.2.3-.2.5-.1.2-.1.4-.1.6m-29.3-1.5c-.6 0-1.1.5-1.1 1.2m-.1 163.7c0 .6.5 1.2 1.1 1.2m30-145.8v9.1m0 0c-1.5 0-2.9 0-4.4.1-3.6 0-7.2.1-10.8.1-3.6 0-7.2.1-10.8.1-1.5 0-3 0-4.4.1m-.1 0v-9m30.5 115.9v9.2m0 0c-1.5 0-2.9 0-4.4-.1-3.6-.1-7.2-.1-10.8-.2-3.6-.1-7.2-.1-10.8-.2-1.5 0-3-.1-4.4-.1m-.1-9c1.5 0 2.9 0 4.4.1 3.6 0 7.2.1 10.8.1 3.6 0 7.2.1 10.8.1 1.5 0 2.9 0 4.4.1m-30.4 8.6v-9m0-115.5c1.5 0 2.9-.1 4.4-.1 3.6-.1 7.2-.1 10.8-.2 3.6-.1 7.2-.1 10.8-.2 1.5 0 2.9-.1 4.4-.1m.6 62.9c.3-2.3.5-4.6.8-6.9.2-2.3.4-4.6.4-6.9m0 0h-1m0 27.6h1m0 0c0-2.3-.2-4.6-.4-6.9-.2-2.3-.5-4.6-.8-6.9m0 19.5V251m0 0h1.2m0 0v-64.2m-1.2 68.8V251m0 4.6c0 .6.5 1.2 1.1 1.2m-1.1 0h1.2m0-5.8v5.8m0-97.6V98.4m-1.2 0h1.2m-1.2 0v55m1.2-57.1c-.6 0-1.1.4-1.1.8m-.1 1.3v-1.2m1.2-.9v2.1m0-8.4c-.6 0-1.1.4-1.1.8m-.1 0v6.4m1.2-.9V90m0-.9c-.6 0-1.1.5-1.1 1.2m-.1.5v-.5m1.2-1.2v.9m0-.9h-1.2m47 168.9l-45.8-1.2m45.8-5.8h-45.8m45.8 0v7m0 0l4.1-.1m-4.1-6.9h4.1m-4.1 0V97.9m0-2.1v-7m4.1 118c.1.1.2.2.2.3.1.2.3.3.5.4.2.1.4 0 .4-.1m0 0c0-.1 0-.2-.1-.2"/><path class="st0" d="M444.3 207.2c0 .1-.1.2-.2.1s-.2-.2-.3-.4c0-.1-.1-.2-.1-.3m-.4.2c.2-.1.4-.1.5-.2m.5-67.9c.1-.1.1-.1.1-.2m0 0c0-.1 0-.2-.1-.2h-.2c-.1 0-.2.1-.3.2l-.3.3c-.1.1-.1.2-.2.3m.5.2c-.1 0-.3-.1-.5-.2"/><path class="st0" d="M443.8 139.3c0-.1.1-.2.1-.2 0-.1.1-.2.2-.3 0-.1.1-.1.2-.2h.1v.2M443.3 98h1.1m-1.1 0v41.1m1.1-.6V98m0-1.3c0-.5-.5-.8-1.1-.8m0 2.1v-2.1m1.1.8V98m0-8.3c0-.4-.5-.8-1.1-.8m0 0v7m1.1.8v-7m0-.5c0-.6-.5-1.2-1.1-1.2m0 .9V88m1.1 1.2v.5m-1.1 168.2c.6 0 1.1-.5 1.1-1.2m-1.1-5.7h1.1m-1.1 6.9V251m1.1 0v5.7m-1.1-49.9V251m1.1 0v-43.6m-1.5-2.7h.5m-.5 0c0 .7.1 1.4.4 2.1m.1-2.1c0 .7.1 1.3.3 1.9m-.8-65.4h.5m-.5 0v63.5m.5 0v-63.5m-.1-2.1c-.2.7-.4 1.4-.4 2.1m.9-1.9c-.2.6-.3 1.3-.3 1.9m.9 0v-2.7m0 2.7v-2.5m0 66v-63.5m0 0v63.5m0 2.7v-2.7m-.1 2.5v-2.5m-.9-63.5h1m-1 63.5h1m-5.2-106.8l4.1.1m-49.9-8l45.8-1.2m0-.9v.9m0-.9l-45.8 1.2m49.9-1.1l-4.1-.1m0 .9l4.1.1m0 7l-4.1-.1m0 2.1v-2.1m-45.8 2.6l45.8-.5m0-2.1l-45.8.5m-31.6-6.4l30.4-.8M361.8 256l30.4.8m55.7-6.3v-23.7m2 20.5V230m-4.3 19.1c0 .9.7 1.6 1.6 1.6.2 0 .5-.1.7-.2m0-23.7c-.8-.4-1.7-.1-2.1.7-.1.2-.2.5-.2.7m2.3 22.3c1.2-.6 2-1.9 2-3.2m0-17.3c0-1.4-.8-2.6-2-3.2m0-107.7V95.4m2 20.5V98.6m-4.3 19.1c0 .9.7 1.6 1.6 1.6.2 0 .5-.1.7-.2m0-23.7c-.8-.4-1.7-.1-2.1.7-.1.2-.2.5-.2.7m2.3 22.3c1.2-.6 2-1.9 2-3.2m0-17.3c0-1.4-.8-2.6-2-3.2M729 88.5s.1-.2.2-.6m0 0l-3.6-.3c-1.2-.1-2.4-.1-3.6-.2-1.2-.1-2.3-.1-3.5-.1h-3.7"/><path class="st0" d="M714.9 87.3c1.2 0 2.4 0 3.6.1 1.1 0 2.3.1 3.4.2 1.2.1 2.4.2 3.5.4 1.2.2 2.3.3 3.5.5m-28.1 0c1.2-.2 2.3-.4 3.5-.5s2.3-.3 3.5-.4c1.1-.1 2.3-.2 3.4-.2 1.2-.1 2.4-.1 3.6-.1"/><path class="st0" d="M714.9 87.3h-3.7c-1.2 0-2.3.1-3.5.1s-2.4.1-3.6.2l-3.6.3m.1 0c.1.4.2.6.2.6m99.8 99.8s.2.1.6.2m0 0l.3-3.6c.1-1.2.1-2.4.2-3.6 0-1.2.1-2.3.1-3.5v-3.7"/><path class="st0" d="M801.8 174.2c0 1.2 0 2.4-.1 3.6-.1 1.1-.1 2.3-.2 3.4-.1 1.2-.2 2.4-.4 3.5-.1 1.2-.3 2.3-.5 3.5m0-28.1c.2 1.2.4 2.3.5 3.5s.3 2.3.4 3.5c.1 1.1.2 2.3.2 3.4 0 1.2.1 2.4.1 3.6"/><path class="st0" d="M801.8 174.2v-3.7c0-1.2-.1-2.3-.1-3.5s-.1-2.4-.2-3.6l-.3-3.6m0 .1c-.4.1-.6.2-.6.2m-141.4-51c.1-.4.2-.7.4-1.1.2-.5.5-.9.8-1.3s.6-.7 1-1m-.7-.9l.7 1m-.7-1c-.4.4-.8.8-1.1 1.3s-.5 1.1-.6 1.6c-.1.4-.2.8-.3 1.3m.5.1l-.5-.1m36.2-19.3l-.3-1.2m0 0c-12.4 2.9-23.9 8.5-33.9 16.3m34.2-15.1c-12.2 2.9-23.6 8.4-33.5 16.1m1.1 1.7l-.7-1m0 0c-.3.2-.6.5-.8.8-.3.4-.6.8-.8 1.2-.2.4-.4.8-.5 1.2m0 0l.6.1m0 0c.1-.4.3-.7.6-1s.6-.6.9-.8c.3-.2.5-.4.7-.6"/><path class="st0" d="M661.8 106.5s-.1-.1 0 0c-.1-.2-.1-.3-.2-.4 0-.1-.1-.2-.1-.3v-.1m-15.1 15.1c.2-.2.4-.4.5-.6.3-.3.7-.6 1.1-.8.5-.3 1.1-.6 1.7-.7m-.1-.7l.2.6m-.2-.6c-.7.2-1.4.3-2 .6-.5.2-1 .4-1.4.8-.3.2-.5.4-.7.7m.9.7l-.9-.8m4.1-2c4.5-1.1 7.9-4.6 9-9m-29.4 44.9l1.2.3m16-33.4c-7.7 9.9-13.2 21.3-16.1 33.5m15.2-34.3c-7.8 10-13.4 21.6-16.3 33.9m21.1-34.9c-.2.1-.4.1-.6.2-.3.1-.6.3-.9.5l-.9.6c-.3.2-.5.5-.8.8m.1 0l.9.8m0 0c.2-.2.4-.5.6-.7.2-.2.4-.5.6-.7.2-.2.5-.4.7-.6.2-.1.3-.2.5-.2m0-.1l-.2-.6m119.8-9.3c-.1-.2-.1-.4-.2-.6-.1-.3-.3-.6-.5-.9-.2-.4-.5-.8-.9-1.2l-.5-.5m0 0l-.7 1m0 0c.1.1.3.2.4.3.3.3.7.5 1 .8.2.2.4.5.6.7.1.2.2.3.2.5m0 0l.6-.1m-2.8-2.2c-30.8-24.1-74-24.1-104.8 0m105.5-1c-31.2-24.5-75-24.5-106.2 0m106.6-.7c.2.2.4.4.6.5.3.3.6.7.8 1.1.3.5.6 1.1.7 1.7m.6-.1l-.5.1m.5-.1c-.2-.7-.3-1.4-.6-2-.2-.5-.4-1-.8-1.4-.2-.3-.4-.5-.7-.7m-.6.9l.7-1m-121 121.8l-.9.8m0 0c.2.3.5.6.8.8.4.3.8.6 1.2.8s.8.4 1.2.5m-.1 0l.2-.6m0 0c-.4-.1-.7-.3-1-.6s-.6-.6-.8-.9c-.2-.3-.4-.5-.6-.7m133.6-104.8l.9-.8m0 0c-.2-.3-.5-.6-.8-.8-.4-.3-.8-.6-1.2-.8-.4-.2-.8-.4-1.2-.5m.1 0l-.2.6m0 0c.4.1.7.3 1 .6.3.3.6.6.8.9.2.2.4.5.6.7m-1.7-3.2c.4.1.7.2 1.1.4.5.2.9.5 1.3.8.4.3.7.6 1 1m.9-.8l-.9.8m.9-.8c-.4-.4-.8-.8-1.3-1.1-.5-.3-1.1-.5-1.6-.6-.4-.1-.8-.2-1.3-.3m-.1.6l.2-.6m19.2 36.2l1.2-.3m0 0c-2.9-12.4-8.5-23.9-16.3-33.9m15.1 34.2c-2.9-12.2-8.4-23.6-16.1-33.5M771.1 109c1.1 4.5 4.6 7.9 9 9"/><path class="st0" d="M782.6 121.1c.1 0 .1 0 0 0 .2-.1.3-.1.4-.2.1 0 .2-.1.3-.1h.1m-13.9-11c1.3 4.7 5 8.4 9.8 9.8M649.8 229.9c-.4-.1-.7-.2-1.1-.4-.5-.2-.9-.5-1.3-.8-.4-.3-.7-.6-1-1m-.9.8l.9-.8m-.9.8c.3.4.8.8 1.3 1.1s1.1.5 1.6.6c.4.1.8.2 1.3.3m.1-.6l-.2.6m-19.2-36.2l-1.2.2m0 0c2.9 12.3 8.5 23.9 16.3 33.9m-15.1-34.1c2.9 12.2 8.4 23.6 16.1 33.5m13.2 11c.1.2.1.4.2.6.1.3.3.6.5.9l.6.9c.2.3.5.5.8.8m0 0l.7-1m0 0c-.2-.2-.5-.4-.7-.6-.2-.2-.5-.4-.7-.6-.2-.2-.4-.5-.6-.7-.1-.2-.2-.3-.2-.5m0 0l-.6.2m119.8-9.3c.2-.1.4-.1.6-.2.3-.1.6-.3.9-.5l.9-.6c.3-.2.5-.5.8-.8m-.1 0l-.9-.8m0 0c-.2.2-.4.5-.5.7-.2.2-.4.5-.6.7-.2.2-.5.4-.7.6-.2.1-.3.2-.5.2m-.1.1l.2.6m2.2-2.9c24.1-30.8 24.1-74 0-104.8m.9 105.6c24.5-31.2 24.5-75.1 0-106.3M767.3 241l.7 1m0 0c.3-.2.6-.5.8-.8.3-.4.6-.8.8-1.2s.4-.8.5-1.2m0 0l-.6-.2m0 0c-.1.4-.3.7-.6 1s-.6.6-.9.8c-.3.2-.5.4-.7.6m16.1-13.3l-.6.6c-.3.3-.7.6-1.1.8-.5.3-1.1.6-1.7.7m.2.7l-.2-.6m.2.6c.7-.2 1.4-.3 2-.6.5-.2 1-.4 1.4-.7.3-.2.5-.4.7-.7m-.9-.8l.9.8m-13.7 10.9c-.1.4-.2.8-.4 1.1-.2.5-.5.9-.8 1.3-.3.4-.6.7-1 1m.7.9l-.7-1m.7 1c.4-.3.8-.8 1.1-1.3s.5-1 .6-1.6c.1-.4.2-.8.3-1.3m-.5-.1l.5.1m-36.2 19.3l.3 1.2m0 0c12.4-2.9 23.9-8.5 33.9-16.3m-34.2 15.1c12.2-2.9 23.6-8.4 33.5-16.1m11.8-12.2c-4.5 1.1-7.9 4.6-9 9"/><path class="st0" d="M768 242s.1 0 0 0c.1.2.1.3.2.4 0 .1.1.2.1.3v.1m32.3-48.3l-1.2-.2m-16 33.4c7.7-9.9 13.2-21.3 16.1-33.5m-15.2 34.3c7.8-10 13.4-21.6 16.3-33.9m-17.2 33.1c-.1 0-.1 0 0 0-.2-.1-.3-.1-.4-.2-.1 0-.2-.1-.3-.1h-.1m-3.3 1.5c-4.7 1.3-8.4 5-9.8 9.8m-107 2.3c30.8 24.1 74 24.1 104.8 0m-105.5 1c31.2 24.5 75.1 24.5 106.3 0m-107.8-3.4c-1.3-4.7-5-8.4-9.8-9.8m10.9 13.9c-.2-.2-.4-.4-.6-.5-.3-.3-.6-.7-.8-1.1-.3-.5-.6-1.1-.7-1.7m-.6.1l.5-.1m-.5.1c.2.7.3 1.4.6 2 .2.5.4 1 .8 1.4.2.3.4.5.7.7m.6-.9l-.7 1m-2-4.2c-1.1-4.5-4.6-7.9-9-9m44.9 29.5l.3-1.2m-33.5-16.1c9.9 7.7 21.3 13.2 33.5 16.1m-34.2-15.1c10 7.8 21.6 13.4 33.9 16.3m-33.2-17.3s.1-.1 0 0c.1-.2.1-.3.2-.4 0-.1.1-.2.1-.3v-.1m-14.5-14.5c-.1 0-.1 0 0 0-.2.1-.3.1-.4.2-.1 0-.2.1-.3.1h-.1m1.7-105.8c-24.1 30.7-24.1 74 0 104.8m-.9-105.6c-24.5 31.2-24.5 75.1 0 106.3m88-138.9l-.3 1.2m33.5 16.1c-9.9-7.7-21.3-13.2-33.5-16.1m34.2 15.1c-10-7.8-21.6-13.4-33.9-16.3m33.2 17.3s-.1 0 0 0c-.1.2-.1.3-.2.4 0 .1-.1.2-.1.3v.1m-117.6 13c4.7-1.3 8.4-5 9.8-9.8m-13.9 11c.1 0 .1 0 0 0 .2.1.3.1.4.2.1 0 .2.1.3.1h.1"/><path class="st0" d="M729 260c-1.2.2-2.3.4-3.5.5s-2.3.3-3.5.4c-1.1.1-2.3.2-3.4.2-1.2.1-2.4.1-3.6.1"/><path class="st0" d="M714.9 261.2h3.7c1.2 0 2.3-.1 3.5-.1s2.4-.1 3.6-.2l3.6-.3m-.1 0c-.1-.4-.2-.6-.2-.6m-28.2 0s-.1.2-.2.6"/><path class="st0" d="M700.6 260.6l3.6.3c1.2.1 2.4.1 3.6.2 1.2.1 2.3.1 3.5.1h3.7"/><path class="st0" d="M714.9 261.2c-1.2 0-2.4 0-3.6-.1-1.1 0-2.3-.1-3.4-.2-1.2-.1-2.4-.2-3.5-.4-1.2-.1-2.3-.3-3.5-.5m28.3.6l3-.3 3-.3m-.3-1.2l-3 .6c-1 .2-2 .4-3 .5m-34.3.1l3 .3 3 .3m.2-.6c-1-.2-2-.4-3-.5-1-.2-2-.4-2.9-.6m105.7-64.4l.3-3 .3-3m-.6-.2c-.2 1-.3 2-.5 3s-.4 2-.6 2.9m1.7-34.3l-.3-3-.3-3m-1.2.3l.6 3c.2 1 .4 2 .5 3m-171.3 28.1c-.2-1.2-.4-2.3-.5-3.5s-.3-2.3-.4-3.5c-.1-1.1-.2-2.3-.2-3.4-.1-1.2-.1-2.4-.1-3.6"/><path class="st0" d="M628 174.2v3.7c0 1.2.1 2.3.1 3.5s.1 2.4.2 3.6l.3 3.6m0-.1c.4-.1.6-.2.6-.2m0-28.2s-.2-.1-.6-.2"/><path class="st0" d="M628.6 159.9l-.3 3.6c-.1 1.2-.1 2.4-.2 3.6 0 1.2-.1 2.3-.1 3.5v3.7"/><path class="st0" d="M628 174.2c0-1.2 0-2.4.1-3.6.1-1.1.1-2.3.2-3.4.1-1.2.2-2.4.4-3.5.1-1.2.3-2.3.5-3.5m-.6 28.3l.3 3 .3 3m1.2-.2c-.2-1-.4-2-.6-2.9-.2-1-.4-2-.5-3m-.1-34.5l-.3 3-.3 3m.6.2c.2-1 .3-2 .5-3l.6-3m104.9-65.6l-3-.3-3-.3m-.2.6c1 .2 2 .3 3 .5l3 .6m-34.4-1.7l-3 .3-3 .3m.3 1.2c1-.2 2-.4 2.9-.6 1-.2 2-.4 3-.5m-41.6 20.5c.1 0 .1.1 0 0 .1.1.2.2.2.3 0 .1.1.1.1.2 0 0 0 .1.1.1m-9.8 8.9c4.7-1.1 8.3-4.8 9.5-9.5m111.3 0c1.1 4.7 4.8 8.3 9.5 9.5m-.1 0c-.1.1-.2.2-.3.2l-.2.2s-.1 0-.1.1m-9.3-9.4c1.3 4.5 4.8 8.1 9.3 9.3m.6 110.9c-4.7 1.1-8.3 4.8-9.5 9.5"/><path class="st0" d="M770.6 239.4c-.1-.1-.1-.1 0 0-.1-.1-.2-.2-.2-.3s-.1-.1-.1-.2c0 0 0-.1-.1-.1m9.3-9.3c.2.1.2.2.3.2s.1.1.2.2c0 0 .1 0 .1.1m-.6-.5c-4.5 1.2-8.1 4.8-9.3 9.3m-110.5 0c-1.3-4.5-4.8-8.1-9.3-9.3m8.8 9.9c-1.1-4.7-4.8-8.3-9.5-9.5m10 8.9c-.1 0-.1.1 0 0-.1.2-.2.2-.2.3s-.1.1-.2.2c0 0 0 .1-.1.1m-9.4-9.5c.1-.1.2-.2.3-.2.1-.1.1-.1.2-.1 0 0 .1 0 .1-.1m119.7-119.8c.1 0 .1-.1 0 0 .1-.2.2-.2.2-.3l.2-.2s0-.1.1-.1M650.3 119c4.5-1.3 8.1-4.8 9.3-9.3m-9.3 9.3c-.2-.1-.2-.2-.3-.2s-.1-.1-.2-.1c0 0-.1 0-.1-.1m152.1 55.6v-14.3m0 0h-.6m0 28.6h.6m0 0v-14.3m-1.2 20.3v60.6m0 0h1.2m0 0v-66.6m-6 71.5h-60.6m60.6 0c2.7 0 4.8-2.2 4.8-4.8m-71.4 6v-.6m0 .6h66.6m0-1.2v1.2m-80.9 0h14.3m-28.6-.6v.6m0 0h14.3m-20.3-1.2H634m0 0v1.2m0 0h66.6m-71.4-6.1v-60.6m0 60.6c0 2.7 2.2 4.8 4.8 4.8m-6-71.4h.6m-.6 0v66.6m1.2 0H628m0-80.9v14.3m167.8 72.7c3.3 0 6.1-2.7 6.1-6.1m-173.9 0c0 3.3 2.7 6.1 6.1 6.1m167.7-101.3v-63m-1.2 0h1.2m-1.2 0v57m-.5-58.2l.9-.9m-.4 2.1c0-.5-.2-.9-.5-1.3m1.7 1.3c0-.8-.3-1.6-.9-2.2m-7.4-5.7l.8-.8m-.8.8l6.6 6.7m.9-.9l-6.7-6.6m-2.1.3v-1.2m1.3 1.7c-.3-.3-.8-.5-1.3-.5m2.1-.3c-.6-.6-1.3-.9-2.1-.9m-57 1.2h57m0-1.2h-63m0 .6v-.6m0 0h-14.3m-14.3 0v.6m0-.6H634m0 1.2v-1.2m0 1.2h60.6m-65.4 4.8H628m6-4.8c-2.7 0-4.8 2.2-4.8 4.8m4.8-6c-3.3 0-6.1 2.7-6.1 6.1m1.3 60.5V93.3m-1.2 0v66.6m.6 0h-.6m86.9-72.6h-14.3M628 159.9v14.3m162.8 68.2c0-4.3-3.5-7.8-7.8-7.8s-7.8 3.5-7.8 7.8 3.5 7.8 7.8 7.8c4.3-.1 7.8-3.6 7.8-7.8z"/><path class="st0" d="M789.9 242.4c0-3.8-3.1-6.9-6.9-6.9-3.8 0-6.9 3.1-6.9 6.9 0 3.8 3.1 6.9 6.9 6.9 3.8-.1 6.9-3.2 6.9-6.9z"/><path class="st0" d="M789.6 242.4c0-3.6-2.9-6.5-6.5-6.5s-6.5 2.9-6.5 6.5 2.9 6.5 6.5 6.5c3.5 0 6.5-2.9 6.5-6.5zm-135.1 0c0-4.3-3.5-7.8-7.8-7.8s-7.8 3.5-7.8 7.8 3.5 7.8 7.8 7.8c4.4-.1 7.8-3.6 7.8-7.8z"/><path class="st0" d="M653.6 242.4c0-3.8-3.1-6.9-6.9-6.9-3.8 0-6.9 3.1-6.9 6.9 0 3.8 3.1 6.9 6.9 6.9 3.9-.1 6.9-3.2 6.9-6.9z"/><path class="st0" d="M653.3 242.4c0-3.6-2.9-6.5-6.5-6.5s-6.5 2.9-6.5 6.5 2.9 6.5 6.5 6.5 6.5-2.9 6.5-6.5zm139.3-68.2c0-42.9-34.8-77.7-77.7-77.7s-77.7 34.8-77.7 77.7 34.8 77.7 77.7 77.7 77.7-34.8 77.7-77.7z"/><path class="st0" d="M789.5 174.2c0-41.2-33.4-74.6-74.6-74.6-41.2 0-74.6 33.4-74.6 74.6s33.4 74.6 74.6 74.6c41.2.1 74.6-33.4 74.6-74.6zm6.3 88.2v-1.2m7.3-6.1h-1.3M634 262.4v-1.2m-7.3-6.1h1.3m-1.3-161.8h1.3m6-7.3v1.3m161.8 175.1c4 0 7.3-3.3 7.3-7.3M634 262.4h161.8m-169.1-7.3c0 4 3.3 7.3 7.3 7.3m-7.3-169.1v161.8M634 86c-4 0-7.3 3.3-7.3 7.3m176.4 161.8V96.4M792.7 86H634m168.2 8.3l-7.3-7.4m-4.1 19.2c0-4.3-3.5-7.8-7.8-7.8s-7.8 3.5-7.8 7.8 3.5 7.8 7.8 7.8 7.8-3.5 7.8-7.8zm-136.3 0c0-4.3-3.5-7.8-7.8-7.8s-7.8 3.5-7.8 7.8 3.5 7.8 7.8 7.8c4.4 0 7.8-3.5 7.8-7.8z"/><path class="st0" d="M789.9 106.1c0-3.8-3.1-6.9-6.9-6.9-3.8 0-6.9 3.1-6.9 6.9s3.1 6.9 6.9 6.9c3.8 0 6.9-3.1 6.9-6.9z"/><path class="st0" d="M789.6 106.1c0-3.6-2.9-6.5-6.5-6.5s-6.5 2.9-6.5 6.5 2.9 6.5 6.5 6.5c3.5.1 6.5-2.9 6.5-6.5zm-136 0c0-3.8-3.1-6.9-6.9-6.9-3.8 0-6.9 3.1-6.9 6.9s3.1 6.9 6.9 6.9c3.9 0 6.9-3.1 6.9-6.9z"/><path class="st0" d="M653.3 106.1c0-3.6-2.9-6.5-6.5-6.5s-6.5 2.9-6.5 6.5 2.9 6.5 6.5 6.5c3.6.1 6.5-2.9 6.5-6.5zm128 68.1c0-36.7-29.7-66.4-66.4-66.4s-66.4 29.7-66.4 66.4 29.7 66.4 66.4 66.4c36.7.1 66.4-29.7 66.4-66.4z"/><path class="st0" d="M784.6 174.2c0-38.5-31.2-69.7-69.7-69.7s-69.7 31.2-69.7 69.7 31.2 69.7 69.7 69.7c38.5.1 69.7-31.1 69.7-69.7z"/><path class="st0" d="M781.6 174.2c0-36.8-29.9-66.7-66.7-66.7s-66.7 29.9-66.7 66.7 29.9 66.7 66.7 66.7 66.7-29.8 66.7-66.7zm12.7-86l.6-1.3m0 0c-.6-.6-1.3-.9-2.1-.9m-.1 0l-.5 1.3m10.9 9.1c0-.8-.3-1.6-.9-2.2m-.4 2.7l1.3-.5m-.9-2.1l-1.2.5"/><path class="st0" d="M701.5 98.2c-42 7.4-70.1 47.5-62.7 89.5 7.4 42 47.5 70.1 89.5 62.7s70.1-47.5 62.7-89.5m-137.9-54.8c0-3.5-2.8-6.3-6.3-6.3s-6.3 2.8-6.3 6.3 2.8 6.3 6.3 6.3 6.3-2.8 6.3-6.3zm0 136.3c0-3.5-2.8-6.3-6.3-6.3s-6.3 2.8-6.3 6.3 2.8 6.3 6.3 6.3 6.3-2.9 6.3-6.3zm136.2 0c0-3.5-2.8-6.3-6.3-6.3s-6.3 2.8-6.3 6.3 2.8 6.3 6.3 6.3 6.3-2.9 6.3-6.3zm0-136.3c0-3.5-2.8-6.3-6.3-6.3s-6.3 2.8-6.3 6.3 2.8 6.3 6.3 6.3 6.3-2.8 6.3-6.3zm-110.9 43.8v48.7m0 0c0 5.1 4.1 9.2 9.2 9.2m-.1-.1h54.8m0 0c5.1 0 9.2-4.1 9.2-9.2m-.1.1v-48.7m0 0c0-5.1-4.1-9.2-9.2-9.2m.1.1h-54.8m0 0c-5.1 0-9.2 4.1-9.2 9.2m64 57.7v.6m0 0c5.4 0 9.7-4.4 9.7-9.7m-.6 0h.6m-64.5 9.1v.6m0 0h54.8m-63.9-9.7h-.6m0 0c0 5.4 4.4 9.7 9.7 9.7m-9.7-58.4h.6m-.6 0v48.7m64.5 11.4v-1.4m-54.8 0h54.8m-54.8 1.4v-1.4m66.2-10h-1.4m-10 10c5.5 0 10-4.5 10-10m1.4-48.7h-1.4m0 48.7v-48.7m-10-11.4v1.4m10 10c0-5.5-4.5-10-10-10m-64.8 10h-1.4m11.4-10c-5.5 0-10 4.5-10 10m10-11.4v1.4m-10 10h.3m9.7-9.7c-5.4 0-9.7 4.4-9.7 9.7m9.7-9.7v-.3m0 .9v-.6m54.8-.3h-54.8m54.8.3h-54.8m54.8 0v-.3m0 .9v-.6m9.7 9.7c0-5.4-4.4-9.7-9.7-9.7m9.7 9.7h.3m-.9 0h.6m0 48.7v-48.7m0 48.7h.3m-10 9.7v.3m-54.8-.3v.3m-10-10c0 5.5 4.5 10 10 10m-11.4-10h1.4m.3 0h-.3m0-48.7v48.7m77-48.7h-.8m.8 0c0-6.7-5.5-12.2-12.2-12.2m0 .8v-.8m11.4 12.2c0-6.3-5.1-11.4-11.4-11.4m-54.8 0v-.8m0 .8h54.8m0-.8h-54.8m-11.4 12.2h-.8m12.2-11.4c-6.3 0-11.4 5.1-11.4 11.4m11.4-12.2c-6.7 0-12.2 5.5-12.2 12.2m.8 48.7h-.8m.8 0v-48.7m-.8 0v48.7m12.2 11.4v.8m-11.4-12.2c0 6.3 5.1 11.4 11.4 11.4m-12.2-11.4c0 6.7 5.5 12.2 12.2 12.2m54.8-.8v.8m0-.8h-54.8m0 .8h54.8m11.4-12.2h.8M742.3 210c6.3 0 11.4-5.1 11.4-11.4m-11.4 12.2c6.7 0 12.2-5.5 12.2-12.2m-.8-48.7v48.7m.8 0v-48.7M681.4 219v.5m67 0v-.5m0 0h-67m81.8-14.4h-.5M748.4 219c7.9 0 14.3-6.4 14.3-14.3m.5-60.9h-.5m0 0v60.8m-14.3-75.7v.6m14.3 14.3c0-7.9-6.4-14.3-14.3-14.3m-67-.6v.6m0 0h67m-81.8 14.3h.5m14.3-14.3c-7.9 0-14.3 6.4-14.3 14.3m-.5 60.8h.5m0 0v-60.8m0 60.8c0 7.9 6.4 14.3 14.3 14.3m-10.9-14.3c0 6.1 4.9 11 11 11m-.1 0h67m0 0c6.1 0 11-4.9 11-11m-.1 0v-60.8m0 0c0-6.1-4.9-11-11-11m.1.1h-67m0 0c-6.1 0-11 4.9-11 11m.1-.1v60.8m-3.1-60.8h-.3m14.3-14c-7.7 0-14 6.3-14 14m14-14.3v.3m-14.3 74.8h.3m0-60.8v60.8m14 14.4v-.3m-14-14.1c0 7.7 6.3 14 14 14m67 .4v-.3m-67 0h67m-81-74.9h3.1m10.9-10.9v-3.1m67 3.1v-3.1m0 0h-67m67-.3v.3m10.9 14h3.1m0 0c0-7.7-6.3-14-14-14m14.3 14h-.3m-3.1 60.8h3.1m0 0v-60.8m.3 60.8h-.3m-14 11v3.1m0 0c7.7 0 14-6.3 14-14m-81 10.9v3.1m-10.9-14.1h-3.1m-554.3-13.5v-1.2m0 1.2v1.4m0 .5v-.5m-.8.5v-.5m0-1.4v1.4m0-1.4v-1.2m0 2.6h.8m0-1.4h-.8m0-1.2h.8M52.6 193h93m-21.2-3.1h.8m0 1.2v-1.2m-.8 1.2v-1.2m.8 1.2h-.8m-76.5 11.8h102.4m-96.2 2.7h3.8m.8 0h2.2m.8 0H64m.7 0H67m.7 0H70m.7 0H73m.8 0h2.3m.7 0h2.3m.7 0h2.3m.7 0h2.3m.8 0h2.3m.7 0h2.3m.7 0h2.3m.7 0h2.3m.8 0h2.2m.8 0h2.3m.7 0h2.3m.7 0h2.3m.7 0h2.3m.8 0h2.3m.7 0h2.3m.7 0h2.3m.7 0h2.3m.8 0h2.3m.7 0h2.3m.7 0h2.3m3 0h-2.3m5.4 0h-2.3m6.8 0h-3.8m-86.2 0v1.1m0 0h-5.8m9.6.7v-.7m0 0v-3.8m0 4.5h.8m0 0v-.7m0 0h-.8m.8 0v-3.8m81.6 4.5h-.7m-2.3 0h-.8m-2.3 0h-.7m-3 0h.7m-3.7 0h.7m-3.8 0h.8m-3.8 0h.7m-3.7 0h.7m-3.7 0h.7m-3.8 0h.8m-3.8 0h.7m-3.7 0h.7m-3.7 0h.7m-3.8 0h.8m-3.8 0h.8m-3.8 0h.7m-3.7 0h.7m-3.7 0h.7m-3.8 0h.8m-3.8 0h.7m-3.7 0h.7m-3.7 0h.7m-3.8 0h.8m-3.8 0h.7m-3.7 0h.7m-3.7 0h.7m-3.8 0h.8m-13.4-.7v11.4m2.4 0h-2.4m2.4-6.6h96.8m0 6.6h2.4m0-11.4v11.4m-5.8-11.4h5.8m-5.8-1.1v1.1m-4.5.7v-.7m0-3.8v3.8m0 0h.7m0 0v-3.8m0 4.5v-.7m-3 0v-3.8m0 4.5v-.7m-.8 0h.8m-.8.7v-.7m0 0v-3.8m-2.3 3.8v-3.8m0 4.5v-.7m-.7 0h.7m-.7.7v-.7m0 0v-3.8m-5.3 3.8v-3.8m0 4.5v-.7m0 0h-.7m0 .7v-.7m0 0v-3.8m-2.3 0v3.8m0 .7v-.7m-.8.7v-.7m0-3.8v3.8m.8 0h-.8m-2.3 0v-3.8m0 4.5v-.7m0 0h-.7m0 .7v-.7m0 0v-3.8m-2.3 3.8v-3.8m0 4.5v-.7m0 0h-.7m0 .7v-.7m0 0v-3.8m-2.3 0v3.8m0 .7v-.7m-.7.7v-.7m0-3.8v3.8m.7 0h-.7m-2.3 0v-3.8m0 4.5v-.7m0 0h-.8m0 .7v-.7m0 0v-3.8m-2.3 3.8v-3.8m0 4.5v-.7m0 0h-.7m0 .7v-.7m0 0v-3.8m-2.3 3.8v-3.8m0 4.5v-.7m0 0h-.7m0 .7v-.7m0 0v-3.8m-2.3 3.8v-3.8m0 4.5v-.7m0 0h-.7m0 .7v-.7m0 0v-3.8m-2.3 3.8v-3.8m0 4.5v-.7m0 0h-.8m0 .7v-.7m0 0v-3.8m-2.2 3.8v-3.8m0 4.5v-.7m0 0h-.8m0 .7v-.7m0 0v-3.8m-2.3 0v3.8m0 .7v-.7m-.7.7v-.7m0-3.8v3.8m.7 0h-.7m-2.3 0v-3.8m0 4.5v-.7m0 0h-.7m0 .7v-.7m0 0v-3.8m-2.3 3.8v-3.8m0 4.5v-.7m0 0h-.7m0 .7v-.7m0 0v-3.8m-2.3 0v3.8m0 .7v-.7m-.8.7v-.7m0-3.8v3.8m.8 0h-.8m-2.3 0v-3.8m0 4.5v-.7m0 0h-.7m0 .7v-.7m0 0v-3.8m-2.3 3.8v-3.8m0 4.5v-.7m0 0h-.7m0 .7v-.7m0 0v-3.8m-2.3 0v3.8m0 .7v-.7m-.7.7v-.7m0-3.8v3.8m.7 0h-.7m-2.3 0v-3.8m0 4.5v-.7m0 0H73m0 .7v-.7m0 0v-3.8m-2.3 3.8v-3.8m0 4.5v-.7m0 0H70m0 .7v-.7m0 0v-3.8m-2.3 3.8v-3.8m0 4.5v-.7m0 0H67m0 .7v-.7m0 0v-3.8m-2.3 3.8v-3.8m0 4.5v-.7m0 0H64m0 .7v-.7m0 0v-3.8m-2.3 3.8v-3.8m0 4.5v-.7m0 0h-.8m0 .7v-.7m0 0v-3.8m86.6 23H50.7m96.8-1.2v1.2m0-1.2H50.7m0 0v1.2m96.8-12.3v11.1m-96.8-11.1h96.8m-96.8 0v11.1m0-13.2v2.1m96.8-2.1v2.1m-17-6.2v-.7m0 0v-3.8m.7 3.8v-3.8m0 4.5v-.7m0 0h-.7m-75.4-1.4v-2.4m-1.3 3.7h-2.4m3.7-1.3l-.3.3m-.7.7l-.3.3m-9.1 16.9h5.7m.3 0h-.3m1-16.8v-3.8m91.7 2.4v-2.4m4.7 17v3.6m-7.5-32.4v-1.2m0 2.6v-1.4m0 1.9v-.5m13.2 31v-26.3m-9.1 9.4h2.4m3.5 13.3v-17m-7.2 2.4l.3.3m.7.7l.3.3M52.6 193v4.2m94.2 9.5v-3.8m-102.1-5.7h7.9m-2.2 22.7v3.6m-2.5-3.6h2.5m-2.5 0v-17M64 227.7v-.3m0 0v-.2m0-1.3v1.3m.7-1.3v1.3m0 .2v-.2m0 .5v-.3m0 .3H64m0-.3h.7m0-.2H64m15.1.5v-.3m0 0v-.2m0-1.3v1.3m.7-1.3v1.3m0 .2v-.2m0 .5v-.3m0-.2h-.7m0 .2h.7m0 .3h-.7m15.1 0v-.3m0 0v-.2m0-1.3v1.3m.7-1.3v1.3m0 .2v-.2m0 .5v-.3m0 .3h-.7m0-.3h.7m0-.2h-.7m15.1.5v-.3m0 0v-.2m0-1.3v1.3m.7-1.3v1.3m0 .2v-.2m0 .5v-.3m0 .3h-.7m0-.3h.7m0-.2h-.7m15.1.5v-.3m0 0v-.2m0-1.3v1.3m.8-1.3v1.3m0 .2v-.2m0 .5v-.3m0 .3h-.8m0-.3h.8m0-.2h-.8m-74-1.3v-2.4m.3 2.4h-.3m-5.7-2.4v-26.3m80.5-4.2v-.5m-.8 0h.8m-.8.5v-.5m15.9 0h-.7m0 .5v-.5m0-1.4v1.4m0-1.4v-1.2m0 1.2h.7m0-1.2h-.7m-12.1 3.1v-.5m0-1.4v1.4m0-1.4v-1.2m0 2.6h.7m0-1.4v1.4m0-1.4h-.7m.7 0v-1.2m0 3.1v-.5m-.7-2.6h.7m-6.8 3.1v-.5m0-1.4v1.4m0-1.4v-1.2m0 2.6h.7m0-1.4v1.4m0-1.4h-.7m.7 0v-1.2m0 3.1v-.5m-.7-2.6h.7m8.4 3.1v-.5m0-1.4v1.4m0-1.4v-1.2m0 2.6h.7m0-1.4v1.4m0-1.4h-.7m.7 0v-1.2m0 3.1v-.5m-.7-2.6h.7m6.1 1.2v-1.2m0 1.2v1.4m0 .5v-.5m-.8-1.4h.8m-.8 0v1.4m.8 0h-.8m.8-2.6h-.8m0 1.2v-1.2m0 3.1v-.5m-2.3-1.4v-1.2m0 1.2v1.4m0 .5v-.5m-.7-1.4h.7m-.7 0v1.4m.7 0h-.7m.7-2.6h-.7m0 1.2v-1.2m0 3.1v-.5m-75.6.5v-.5m0-1.4v1.4m0-1.4v-1.2m0 2.6h.8m0-1.4v1.4m0-1.4h-.8m.8 0v-1.2m0 3.1v-.5m-.8-2.6h.8m2.2 3.1v-.5m0-1.4v1.4m0-1.4v-1.2m0 2.6h.8m0-1.4v1.4m0-1.4h-.8m.8 0v-1.2m0 3.1v-.5m-.8-2.6h.8M64 193v-.5m0-1.4v1.4m0-1.4v-1.2m0 2.6h.7m0-1.4v1.4m0-1.4H64m.7 0v-1.2m0 3.1v-.5m-.7-2.6h.7M67 193v-.5m0-1.4v1.4m0-1.4v-1.2m0 2.6h.7m0-1.4v1.4m0-1.4H67m.7 0v-1.2m0 3.1v-.5m-.7-2.6h.7M70 193v-.5m0-1.4v1.4m0-1.4v-1.2m0 2.6h.7m0-1.4v1.4m0-1.4H70m.7 0v-1.2m0 3.1v-.5m-.7-2.6h.7m3.1 1.2v-1.2m0 1.2v1.4m0 .5v-.5m-.8 0h.8m0-1.4H73m0 0v1.4m0-2.6h.8m-.8 1.2v-1.2m0 3.1v-.5m3.1.5v-.5m0-1.4v1.4m0-1.4v-1.2m0 2.6h.7m0-1.4v1.4m0-1.4h-.7m.7 0v-1.2m0 3.1v-.5m-.7-2.6h.7m2.3 3.1v-.5m0-1.4v1.4m0-1.4v-1.2m0 2.6h.7m0-1.4v1.4m0-1.4h-.7m.7 0v-1.2m0 3.1v-.5m-.7-2.6h.7m2.3 3.1v-.5m0-1.4v1.4m0-1.4v-1.2m0 2.6h.7m0-1.4v1.4m0-1.4h-.7m.7 0v-1.2m0 3.1v-.5m-.7-2.6h.7m2.3 3.1v-.5m0-1.4v1.4m0-1.4v-1.2m0 2.6h.8m0-1.4v1.4m0-1.4h-.8m.8 0v-1.2m0 3.1v-.5m-.8-2.6h.8m2.3 3.1v-.5m0-1.4v1.4m0-1.4v-1.2m0 2.6h.7m0-1.4v1.4m0-1.4h-.7m.7 0v-1.2m0 3.1v-.5m-.7-2.6h.7m2.3 3.1v-.5m0-1.4v1.4m0-1.4v-1.2m0 2.6h.7m0-1.4v1.4m0-1.4h-.7m.7 0v-1.2m0 3.1v-.5m-.7-2.6h.7m3 1.2v-1.2m0 1.2v1.4m0 .5v-.5m-.7 0h.7m0-1.4h-.7m0 0v1.4m0-2.6h.7m-.7 1.2v-1.2m0 3.1v-.5m3 .5v-.5m0-1.4v1.4m0-1.4v-1.2m0 2.6h.8m0-1.4v1.4m0-1.4h-.8m.8 0v-1.2m0 3.1v-.5m-.8-2.6h.8m2.2 3.1v-.5m0-1.4v1.4m0-1.4v-1.2m0 2.6h.8m0-1.4v1.4m0-1.4h-.8m.8 0v-1.2m0 3.1v-.5m-.8-2.6h.8m2.3 3.1v-.5m0-1.4v1.4m0-1.4v-1.2m0 2.6h.7m0-1.4v1.4m0-1.4h-.7m.7 0v-1.2m0 3.1v-.5m-.7-2.6h.7m2.3 3.1v-.5m0-1.4v1.4m0-1.4v-1.2m0 2.6h.7m0-1.4v1.4m0-1.4h-.7m.7 0v-1.2m0 3.1v-.5m-.7-2.6h.7m3 1.2v-1.2m0 1.2v1.4m0 .5v-.5m-.7 0h.7m0-1.4h-.7m0 0v1.4m0-2.6h.7m-.7 1.2v-1.2m0 3.1v-.5m6.1.5v-.5m0-1.4v1.4m0-1.4v-1.2m0 2.6h.7m0-1.4v1.4m0-1.4h-.7m.7 0v-1.2m0 3.1v-.5m-.7-2.6h.7m2.3 3.1v-.5m0-1.4v1.4m0-1.4v-1.2m0 2.6h.7m0-1.4v1.4m0-1.4h-.7m.7 0v-1.2m0 3.1v-.5m-.7-2.6h.7m5.3 1.2v1.4m.8-1.4v1.4m22.3 31h.3m2.5-3.6h-2.5m-2.2-26.9v4.2m7.9 26.3h-5.7m5.7-26.3h-7.9m2.2 28.7v-2.4m-.3 2.4h.3M139 175v6.6m0 0h-15.7m0 0V175m0 0H139M23.8 195.5h15.7m0 0v12.7m0 0H23.8m0 0v-12.7m114.1-64.2h3.4m0 0v6.3m0 0h-3.4m0 0v-6.3m13.7 35.4v3.3m0 0h-6.4m0 0v-3.3m0 0h6.4m22 13v3.3m0 0h-6.3m0 0v-3.3m0 0h6.3m-35.7-59h3.4m0 0v6.3m0 0h-3.4m0 0v-6.3m-6.3-18.7v-3.4m0 0h6.3m0 0v3.4m0 0h-6.3M26.1 145.8v-3.3m0 0h6.3m0 0v3.3m0 0h-6.3m78.3-38.7v-3.3m0 0h6.3m0 0v3.3m0 0h-6.3m-1.7 67.9v6.6m0 0H87m0 0V175m0 0h15.7m-31.6-15.6v-3.3m0 0h6.4m0 0v3.3m0 0h-6.4m-20.2-42.6v3.3m0 0h-6.4m0 0v-3.3m0 0h6.4m23.9 6h3.3m0 0v6.4m0 0h-3.3m0 0v-6.4m-8.5-.6v3.3m0 0H60m0 0v-3.3m0 0h6.3m78.9 32.4v-3.4m0 0h6.4m0 0v3.4m0 0h-6.4M120.9 175v6.6m0 0h-15.8m0 0V175m0 0h15.8m54.1 37.1v4.3m0 0h-15.7m0 0v-4.3m0 0H175m-89.7-41.8V167m0 0h6.4m0 0v3.3m0 0h-6.4m-31.1-51.1v-16m0 0h13m0 0v16m0 0h-13m-28.1 31.7v-3.3m0 0h6.3m0 0v3.3m0 0h-6.3m31 23.3v8.8m0 0H43.8m0 0v-8.8m0 0h13.3m10-46.1v30.8m0 0H36.2m0 0v-30.8m0 0h30.9m29.7 37v-3.3m0 0h6.4m0 0v3.3m0 0h-6.4m21.2 0v-3.3m0 0h6.3m0 0v3.3m0 0H118m-10.6 5.2V167m0 0h6.4m0 0v3.3m0 0h-6.4m-74.1-40.5H30m0 0v-6.4m0 0h3.3m0 0v6.4m115.4 104.7v4.3m0 0h-11.5m0 0v-4.3m0 0h11.5M34.6 170.6h-3.4m0 0v-6.4m0 0h3.4m0 0v6.4m48.6-12.1h-3.3m0 0v-6.4m0 0h3.3m0 0v6.4m91.9 46.8v3.4m0 0h-6.3m0 0v-3.4m0 0h6.3M29.4 212v3.3m0 0h-6.3m0 0V212m0 0h6.3m-.6-41.4h-3.3m0 0v-6.4m0 0h3.3m0 0v6.4m10.4 3.6v8.8m0 0H25.9m0 0v-8.8m0 0h13.3m-6.5 41.1V212m0 0h6.4m0 0v3.3m0 0h-6.4m53.9-50.2v-3.3m0 0h6.3m0 0v3.3m0 0h-6.3m13.6-61.3v3.3m0 0h-6.4m0 0v-3.3m0 0h6.4m45 55.9v-3.3m0 0h6.4m0 0v3.3m0 0h-6.4m-72.3-6.4h-3.3m0 0V147m0 0h3.3m0 0v6.3m21.8 17V167m0 0h6.4m0 0v3.3m0 0h-6.4m-25.1-47.5h3.3m0 0v6.4m0 0h-3.3m0 0v-6.4m-8.7 42.3v-3.3m0 0h6.3m0 0v3.3m0 0h-6.3m35.5-68.7v4.2m0 0H84.9m0 0v-4.2m0 0h11.5m-40.1 3.1v-3.3m0 0h6.4m0 0v3.3m0 0h-6.4m75.3 7.6v-3.3m0 0h6.3m0 0v3.3m0 0h-6.3m-103.4 23h-3.9m0 0v-7m0 0h3.9m0 0v7M76 171.5v-3.3m0 0h6.3m0 0v3.3m0 0H76m-1.2-61.1h3.3m0 0v6.4m0 0h-3.3m0 0v-6.4m-5.2 0h3.3m0 0v6.4m0 0h-3.3m0 0v-6.4m-13.4 135c0-1.7-1.4-3-3-3-1.7 0-3 1.4-3 3 0 1.7 1.4 3 3 3s3-1.3 3-3zm-8-137.7h3.3m0 0v6.3m0 0h-3.3m0 0v-6.3m-1.9 14.5v3.3m0 0H40m0 0v-3.3m0 0h6.3m41.8-18.4v3.3m0 0h-6.4m0 0v-3.3m0 0h6.4m29.9 66.5V167m0 0h6.3m0 0v3.3m0 0H118m-66.5-65.9h-3.3m0 0V98m0 0h3.3m0 0v6.4m-26.9 29h3.3m0 0v6.3m0 0h-3.3m0 0v-6.3m1.5 27.8v-3.3m0 0h6.3m0 0v3.3m0 0h-6.3m108.8.6v3.3m0 0h-6.3m0 0v-3.3m0 0h6.3m-56.8-8.5h-3.3m0 0V147m0 0h3.3m0 0v6.3m-37.8 17.3H37m0 0v-6.4m0 0h3.3m0 0v6.4m42.9-53.8h-3.3m0 0v-6.4m0 0h3.3m0 0v6.4m21.2-14.8v-3.4m0 0h6.3m0 0v3.4m0 0h-6.3m-18.6 57.2v-49.5m0 0h49.6m0 0v49.5m0 0H85.8m77.8 20.5v3.3m0 0h-6.3m0 0v-3.3m0 0h6.3M115 102v-3.4m0 0h6.3m0 0v3.4m0 0H115m22.9 8.1h3.4m0 0v6.4m0 0h-3.4m0 0v-6.4m20.9 98.6v-3.4m0 0h6.4m0 0v3.4m0 0h-6.4M76 166v-3.3m0 0h6.3m0 0v3.3m0 0H76m3.9-23.8h3.3m0 0v6.3m0 0h-3.3m0 0v-6.3m27.5 22.9v-3.3m0 0h6.4m0 0v3.3m0 0h-6.4m-80 55.6c0-1.3-1.1-2.4-2.4-2.4s-2.4 1.1-2.4 2.4c0 1.3 1.1 2.4 2.4 2.4s2.4-1.1 2.4-2.4zm143.7-.7v4.2m0 0h-11.5m0 0V220m0 0h11.5M50 125.5v-3.3m0 0h6.3m0 0v3.3m0 0H50m16.4 55.1h-5.9m0 0V170m0 0h5.9m0 0v10.6m18.2-5.6v6.6m0 0H68.9m0 0V175m0 0h15.7m-27.5-11.7v8.8m0 0H43.8m0 0v-8.8m0 0h13.3m-30.7 27.8v-5.7m0 0H37m0 0v5.7m0 0H26.4m88.6-84v-3.3m0 0h6.3m0 0v3.3m0 0H115m28.1 24.2h3.3m0 0v6.3m0 0h-3.3m0 0v-6.3m-5.2 21.4h3.4m0 0v6.4m0 0h-3.4m0 0v-6.4m-48.8 81.5v4.3m0 0H47.4m0 0v-4.3m0 0h41.7M30 133.4h3.3m0 0v6.3m0 0H30m0 0v-6.3m42.9 8.2h-3.3m0 0v-6.4m0 0h3.3m0 0v6.4m90 61.5v-18.2m0 0h8.5m0 0v18.2m0 0h-8.5M66.1 99.7v-3.6m0 0h6.7m0 0v3.6m0 0h-6.7m3.8 63.6h3.4m0 0v6.4m0 0h-3.4m0 0v-6.4m73.2-42.6h3.3m0 0v6.3m0 0h-3.3m0 0v-6.3m-63.2 2.1h3.3m0 0v6.4m0 0h-3.3m0 0v-6.4m-53.8 33.3v-3.4m0 0h6.3m0 0v3.4m0 0h-6.3m122.6-55.2c0-1.7-1.4-3-3-3-1.7 0-3 1.4-3 3 0 1.7 1.4 3 3 3s3-1.3 3-3zm2.9 60.6v3.3m0 0h-6.4m0 0v-3.3m0 0h6.4m-13.7-19.6h3.4m0 0v6.3m0 0h-3.4m0 0v-6.3M126.3 92c.3 1.7 1.8 2.8 3.4 2.5 1.3-.2 2.3-1.2 2.5-2.5m-6.1-.2c.1.1.2.1.2.2m-.2-.2c-.2-.2-.4-.2-.6-.2m-99-.1h99m-99 0c-5 0-9.1 4.1-9.1 9.1m.1 145.1V100.6m0 145.1c0 5 4.1 9.1 9.1 9.1m56.6 0H26.5m56.7 0c.2 0 .5-.1.6-.2m.2-.3c-.1.1-.2.1-.2.2m6.2-.2c-.3-1.7-1.8-2.8-3.4-2.5-1.3.2-2.3 1.2-2.5 2.5m6.1.2c-.1-.1-.2-.1-.2-.2m.2.2c.2.2.4.2.6.2m80.9.1H90.8m80.9 0c5 0 9.1-4.1 9.1-9.1m-.1-145.1v145.1m0-145.1c0-5-4.1-9.1-9.1-9.1m-38.4 0h38.5m-38.5 0c-.2 0-.5.1-.6.2m-.3.3c.1-.1.2-.1.2-.2M11.4 253.6c0 4 3.2 7.3 7.3 7.3m160.8-.1H18.7m160.8 0c4 0 7.3-3.3 7.3-7.3m0-160.8v160.9m0-160.9c0-4-3.2-7.3-7.3-7.3M18.7 260.8v-.1m160.8.1v-.1m-168.1-7.1h.1m-.1 0V95.8m10.3-10.3h157.8m7.3 7.2h-.1m.1 160.9h-.1M12.3 93.7l7.3-7.3M11.5 208v.3c0 .2.1.3.3.4.2.1.6 0 .9-.1m0 0l-.2-.2"/><path class="st0" d="M12.5 208.4c-.1.1-.3.2-.4.1-.1-.1-.1-.2-.2-.4v-.3m0 .1c-.2 0-.3.1-.3.2m.9-70.2l.2-.2m0 0l-.1-.1c-.1 0-.2-.1-.3-.1h-.4c-.1 0-.2.1-.3.2-.1.1-.1.2-.1.3v.3m0 0c0 .1.1.1.3.2"/><path class="st0" d="M11.9 138.4v-.2c0-.1 0-.2.1-.3 0-.1.1-.1.1-.2h.2s.1 0 .1.1l.1.1m-1-42.1h1.2m-1.2 0v42.5m1.2-.6V95.8m-.3-2.1l.9.9m-.9-.9c-.6.6-.9 1.3-.9 2.1m1.8-1.2c-.3.3-.5.8-.5 1.3m6.9-9.4l.8.8m-.8-.8l-7.3 7.2m.9.9l7.2-7.3m1.3-1.7v1.2m0-1.2c-.8 0-1.6.3-2.1.9m2.1.3c-.5 0-.9.2-1.3.5m159-1.7v1.2m0-1.2H21.8m0 1.2h157.7m7.2 5.9h-1.2m1.2 0c0-3.9-3.2-7.1-7.1-7.1m5.9 7.1c0-3.3-2.7-5.9-5.9-5.9m7.1 166.8h-1.2m1.2 0V92.7m-1.2 0v160.9m-6 7.1v-1.2m0 1.2c3.9 0 7.1-3.2 7.1-7.1m-7.1 5.9c3.3 0 5.9-2.7 5.9-5.9m-166.7 7.1v-1.2m0 1.2h160.8m0-1.2H18.7m-7.2-5.9h1.2m-1.2 0c0 3.9 3.2 7.1 7.1 7.1m-5.9-7.1c0 3.3 2.7 5.9 5.9 5.9M11.5 208v45.6m1.2 0v-45m-1.2-2.7h.3m-.3 0v2.2m.3-2.2v2m-.3-67.5h.3m-.3 0v65.5m.3 0v-65.5m-.3-2.1v2.2m.4-2.1v2m1.9 0h-.3m.3 0c0-1-.4-1.9-1-2.8m.7 2.8c0-.9-.3-1.7-1-2.6m1.3 68.1h-.3m.3 0v-65.5m-.3 0v65.5m-.8 2.7c.7-.9 1-1.8 1-2.8m-1.2 2.6c.7-.8 1-1.7 1-2.6m-1.7-65.4h1.7m-1.7 65.5h1.7M11.4 95.8h.1m10.2-10.3c-.8 0-1.6.3-2.1.9m2.2-.8l-.1-.1m-2.1.9l.1.1m-7.3 7.2h-.1m0 0c-.6.6-.9 1.3-.9 2.1M25.8 257h57.9m-68.5-10.6c0 5.8 4.7 10.6 10.6 10.6M15.2 99.9v146.5M25.8 89.3c-5.8 0-10.6 4.7-10.6 10.6M126 89.3H25.8m101.7 1.5c0-.8-.7-1.5-1.5-1.5m1.5 1.9v-.4m0 .4c0 1 .8 1.8 1.8 1.8s1.8-.8 1.8-1.8m0-.4v.4m1.5-1.9c-.8 0-1.5.7-1.5 1.5m41.3-1.5h-39.8M183 99.9c0-5.8-4.7-10.6-10.6-10.6M183 246.4V99.9M172.4 257c5.8 0 10.6-4.7 10.6-10.6M90.3 257h82.1m-83.6-1.5c0 .8.7 1.5 1.5 1.5m-1.5-1.9v.4m0-.4c0-1-.8-1.8-1.8-1.8s-1.8.8-1.8 1.8m0 .4v-.4m-1.5 1.9c.8 0 1.5-.7 1.5-1.5m-1.5 1.4v.1m-57.9 0v-.1m-10.6-10.5h.1m-.1-146.5h.1m115.8-8.7h.1m-.1-.4h.1m51.8 9.1h-.1m.1 146.5h-.1M172.4 257v-.1m-82.1.1v-.1M179 105.4c0-6.8-5.5-12.2-12.2-12.2-6.8 0-12.2 5.5-12.2 12.2 0 6.8 5.5 12.2 12.2 12.2 6.8.1 12.2-5.4 12.2-12.2z"/><path class="st0" d="M175.7 105.4c0-4.9-4-8.9-8.9-8.9s-8.9 4-8.9 8.9 4 8.9 8.9 8.9 8.9-3.9 8.9-8.9z"/><path class="st0" d="M173.9 105.4c0-3.9-3.2-7-7.1-7-3.9 0-7.1 3.2-7.1 7 0 3.9 3.2 7 7.1 7 3.9.1 7.1-3.1 7.1-7z"/><path class="st0" d="M173.1 105.4c0-3.5-2.8-6.3-6.3-6.3s-6.3 2.8-6.3 6.3 2.8 6.3 6.3 6.3 6.3-2.8 6.3-6.3z"/><path class="st0" d="M179.2 105.4c0-6.8-5.6-12.4-12.4-12.4-6.8 0-12.4 5.5-12.4 12.4 0 6.8 5.5 12.4 12.4 12.4s12.4-5.5 12.4-12.4zm-.2 135.5c0-6.8-5.5-12.2-12.2-12.2-6.8 0-12.2 5.5-12.2 12.2s5.5 12.2 12.2 12.2c6.8 0 12.2-5.5 12.2-12.2z"/><path class="st0" d="M175.7 240.9c0-4.9-4-8.9-8.9-8.9s-8.9 4-8.9 8.9 4 8.9 8.9 8.9 8.9-4 8.9-8.9z"/><path class="st0" d="M173.9 240.9c0-3.9-3.2-7.1-7.1-7.1-3.9 0-7.1 3.2-7.1 7.1 0 3.9 3.2 7 7.1 7 3.9 0 7.1-3.1 7.1-7z"/><path class="st0" d="M173.1 240.9c0-3.5-2.8-6.3-6.3-6.3s-6.3 2.8-6.3 6.3 2.8 6.3 6.3 6.3 6.3-2.9 6.3-6.3z"/><path class="st0" d="M179.2 240.9c0-6.8-5.6-12.4-12.4-12.4-6.8 0-12.4 5.5-12.4 12.4 0 6.8 5.5 12.4 12.4 12.4s12.4-5.6 12.4-12.4zm-135.6 0c0-6.8-5.5-12.2-12.2-12.2-6.8 0-12.2 5.5-12.2 12.2s5.5 12.2 12.2 12.2 12.2-5.5 12.2-12.2z"/><path class="st0" d="M40.3 240.9c0-4.9-4-8.9-8.9-8.9s-8.9 4-8.9 8.9 4 8.9 8.9 8.9 8.9-4 8.9-8.9z"/><path class="st0" d="M38.4 240.9c0-3.9-3.2-7.1-7.1-7.1s-7.1 3.2-7.1 7.1c0 3.9 3.2 7 7.1 7 4 0 7.1-3.1 7.1-7z"/><path class="st0" d="M37.7 240.9c0-3.5-2.8-6.3-6.3-6.3s-6.3 2.8-6.3 6.3 2.8 6.3 6.3 6.3 6.3-2.9 6.3-6.3z"/><path class="st0" d="M43.8 240.9c0-6.8-5.6-12.4-12.4-12.4S19 234 19 240.9c0 6.8 5.5 12.4 12.4 12.4 6.8 0 12.4-5.6 12.4-12.4zm-.2-135.5c0-6.8-5.5-12.2-12.2-12.2-6.8 0-12.2 5.5-12.2 12.2 0 6.8 5.5 12.2 12.2 12.2 6.7.1 12.2-5.4 12.2-12.2z"/><path class="st0" d="M40.3 105.4c0-4.9-4-8.9-8.9-8.9s-8.9 4-8.9 8.9 4 8.9 8.9 8.9 8.9-3.9 8.9-8.9z"/><path class="st0" d="M38.4 105.4c0-3.9-3.2-7-7.1-7s-7.1 3.2-7.1 7c0 3.9 3.2 7 7.1 7 4 .1 7.1-3.1 7.1-7z"/><path class="st0" d="M37.7 105.4c0-3.5-2.8-6.3-6.3-6.3s-6.3 2.8-6.3 6.3 2.8 6.3 6.3 6.3 6.3-2.8 6.3-6.3z"/><path class="st0" d="M43.8 105.4c0-6.8-5.6-12.4-12.4-12.4-6.9 0-12.4 5.6-12.4 12.4s5.5 12.4 12.4 12.4c6.8 0 12.4-5.5 12.4-12.4z"/><path class="st1" d="M653.7 106.3h-53.9m47.1 12V64.6m136 53.7V64.6M660.4 242.4h-60.6"/><path class="st2" d="M651.3 65.8h129.4m-150-23.5h166M625.9 94.6V41.1m177.4 99.5V41.1M643.4 85.6h-69.8m69.8 176.2h-69.8M601 107.9v129.4M363.4 55.8h72.4M460 214.5V29.4M445.2 90V54.6M326.3 247.8V99.4m34.2-9.3h-35.4m35.4 166.6h-35.4M307.2 78.1h106.2m31.8 34.2V76.9m371.3 143l-31 20.4m31-20.4h173.9M369 31.2h87.2M360.5 90V30m31.2 58.4V74.8m183.8 19.7v156.7"/><path d="M802.9 42.3l-10.5-1.8V44l10.5-1.7zm-20.2 23.5L772.3 64v3.5l10.4-1.7zM445.1 55.7L434.6 54v3.5l10.5-1.8zm338.2 185.9l9.7-4.3-1.9-3-7.8 7.3zM360.5 55.7L371 54v3.5l-10.5-1.8zm-34.2 34.4l-1.8 10.5h3.5l-1.7-10.5zm0 166.1l-1.8-10.5h3.5l-1.7 10.5zm34.3-178.1l-10.5-1.8v3.5l10.5-1.7zm31.4 0l10.5-1.8v3.5L392 78.1zm234.3-35.8l10.4-1.8V44l-10.4-1.7zm20.9 23.5l10.5-1.8v3.5l-10.5-1.7zM601 106.3l1.7 10.5h-3.5l1.8-10.5zm0 136l-1.8-10.5h3.5l-1.7 10.5zM575.5 85.7l1.8 10.5h-3.5l1.7-10.5zm0 175.8l-1.7-10.5h3.5l-1.8 10.5zM460.9 31.2l-10.5-1.8v3.5l10.5-1.7zm-100.4 0l10.5-1.8v3.5l-10.5-1.7z" fill-rule="evenodd" clip-rule="evenodd" fill="#1a171b"/><path d="M32.4 243.7l24.3 57.2" fill="none" stroke="#000" stroke-width=".283" stroke-linecap="round" stroke-linejoin="round"/><path d="M31.2 244.6l.4-2.8 2.2 1.7-2.6 1.1z"/><path class="st2" d="M56.7 300.9h77"/><path d="M343.9 173.9h140.3M99.1 271.1V84.3M6.4 173.9h204.2m505.5 97.2V74.2m-102.2 99.7h206.4" fill="none" stroke="#fff" stroke-width="1.417" stroke-miterlimit="10" stroke-dasharray="5.6693,2.8347,1.4173,2.8347"/><path class="st1" d="M151.8 241.7h2.8"/><path class="st6" d="M158.1 241.7h3.6"/><path class="st7" d="M163.4 241.7h14.1"/><path class="st1" d="M179.3 241.7h2.8M167 226.3v2.8"/><path class="st8" d="M167 231.4v2.2"/><path class="st9" d="M167 234.7v18.9"/><path class="st1" d="M167 254.7v2.8M16.1 241.7h2.8"/><path class="st10" d="M22.4 241.7H26"/><path class="st11" d="M27.7 241.7h14.1"/><path class="st1" d="M43.6 241.7h2.8m-15.1-15.4v2.8"/><path class="st8" d="M31.3 231.4v2.2"/><path class="st9" d="M31.3 234.7v18.9"/><path class="st1" d="M31.3 254.7v2.8m120.5-151.8h2.8"/><path class="st6" d="M158.1 105.7h3.6"/><path class="st7" d="M163.4 105.7h14.1"/><path class="st1" d="M179.3 105.7h2.8M167 90v2.8"/><path class="st12" d="M167 95.1v2.2"/><path class="st13" d="M167 98.4v18.9"/><path class="st1" d="M167 118.4v2.8M16.1 105.7h2.8"/><path class="st10" d="M22.4 105.7H26"/><path class="st11" d="M27.7 105.7h14.1"/><path class="st1" d="M43.6 105.7h2.8M31.3 90v2.8"/><path class="st12" d="M31.3 95.1v2.2"/><path class="st13" d="M31.3 98.4v18.9"/><path class="st1" d="M31.3 118.4v2.8m615.3 105.1v2.8"/><path class="st8" d="M646.6 231.4v2.2"/><path class="st9" d="M646.6 234.7v18.9"/><path class="st1" d="M646.6 254.7v2.8m121.8-15.1h2.8"/><path class="st14" d="M774.8 242.4h3.5"/><path class="st15" d="M780.1 242.4h14.1"/><path class="st1" d="M796 242.4h2.8m-16.1-15.6v2.8"/><path class="st8" d="M782.7 231.8v2.3"/><path class="st9" d="M782.7 235.2V254"/><path class="st1" d="M782.7 255.2v2.8m-14.3-151.9h2.8"/><path class="st14" d="M774.8 106.1h3.5"/><path class="st15" d="M780.1 106.1h14.1"/><path class="st1" d="M796 106.1h2.8"/><path d="M99.1 271.1V84.3M6.4 173.9h204.2m133.3 0h140.3m231.9 97.2V74.2m-102.2 99.7h206.4" fill="none" stroke="#000" stroke-width=".283" stroke-miterlimit="10" stroke-dasharray="5.6693,2.8347,1.4173,2.8347"/><text transform="translate(708.052 39.209)" class="st17 st18">29</text><text transform="translate(390.734 52.243)" class="st17 st18">14.3</text><text transform="rotate(-90 254.595 -68.15)" class="st17 st18">Ø 28.3</text><text transform="translate(315.692 74.811)" class="st17 st18">5.4</text><text transform="translate(398.366 27.44)" class="st17 st18">≈ 16.9</text><text transform="translate(823.987 214.467)" class="st17 st18">4 x</text><text transform="translate(856.087 214.467)" class="st17 st18">Ø 2.2; max. 3.2 deep</text><text transform="rotate(-90 392.268 -204.626)" class="st17 st18">22.4</text><text transform="rotate(-90 375.7 -194.387)" class="st17 st18">29</text><text transform="translate(701.723 62.297)" class="st17 st18">22.4</text><text transform="translate(62.116 297.896)" class="st17 st18">4 x</text><text transform="translate(94.216 297.896)" class="st17 st18">Ø 2.08</text><text transform="translate(743.246 298.843)" class="st17 st18">Recommended screw size: max. M2</text><text transform="translate(724.646 317.043)" class="st17 st18">Bigger screws can damage the camera.</text><text transform="translate(867.983 372.462)" class="st20 st17 st18">Not to scale</text><text transform="translate(867.983 392.662)" class="st20 st17 st18">Dimensions in mm</text></svg>