<svg version="1.0" xmlns="http://www.w3.org/2000/svg" viewBox="0 0 520 435"><g clip-rule="evenodd"><path fill-rule="evenodd" fill="#1D1D1B" d="M500.6 413.1v-3.8l9.5 3.8-9.5 3.8z"/><path fill="none" stroke="#1D1D1B" stroke-width="2.5" stroke-miterlimit="3.864" d="M80.6 413.1h420.6"/></g><path fill="#80FF80" d="M235.6 371.4h28.9v9.6h-28.9v-9.6z"/><path fill="none" stroke="#80FF80" stroke-miterlimit="3.864" d="M235.6 371.4h28.9v9.6h-28.9v-9.6z"/><g clip-rule="evenodd"><path fill-rule="evenodd" fill="#B3B3B3" d="M266 394h4.4l-4.4 11-4.4-11z"/><path fill="none" stroke="#B3B3B3" stroke-width="3" stroke-miterlimit="3.864" stroke-dasharray="2,2" d="M266 384.3v10.4"/></g><g clip-rule="evenodd"><path fill-rule="evenodd" fill="#80FF80" d="M312.5 371.4h32v9.6h-32z"/><path fill="none" stroke="#80FF80" stroke-miterlimit="3.864" d="M312.5 371.4h32v9.6h-32z"/></g><g clip-rule="evenodd"><path fill-rule="evenodd" fill="#B3B3B3" d="M346.3 394h4.5l-4.5 11-4.4-11z"/><path fill="none" stroke="#B3B3B3" stroke-width="3" stroke-miterlimit="3.864" stroke-dasharray="2,2" d="M346.3 384.3v10.4"/></g><g clip-rule="evenodd"><path fill-rule="evenodd" fill="#80FF80" d="M351 371.4h8.4v9.6H351z"/><path fill="none" stroke="#80FF80" stroke-miterlimit="3.864" d="M351 371.4h8.4v9.6H351z"/></g><g clip-rule="evenodd"><path fill-rule="evenodd" fill="#B3B3B3" d="M361.2 394h4.5l-4.5 11-4.4-11z"/><path fill="none" stroke="#B3B3B3" stroke-width="3" stroke-miterlimit="3.864" stroke-dasharray="2,2" d="M361.2 384.3v10.4"/></g><path fill="#80FF80" d="M389.5 371.4h28.8v9.6h-28.8v-9.6z"/><path fill="none" stroke="#80FF80" stroke-miterlimit="3.864" d="M389.5 371.4h28.8v9.6h-28.8v-9.6z"/><g clip-rule="evenodd"><path fill-rule="evenodd" fill="#B3B3B3" d="M419.8 394h4.5l-4.5 11-4.4-11z"/><path fill="none" stroke="#B3B3B3" stroke-width="3" stroke-miterlimit="3.864" stroke-dasharray="2,2" d="M419.8 384.3v10.4"/></g><path clip-rule="evenodd" fill="none" stroke="#1D1D1B" stroke-miterlimit="3.864" d="M80.1 336.2h37.7m0-14.5v14.5m4.8-14.5v14.5m-4.8-14.5h4.8m0 14.5h33.6m0-14.5v14.5m4.8-14.5v14.5m-4.8-14.5h4.8m0 14.5h33.7m0-14.5v14.5m4.8-14.5v14.5m-4.8-14.5h4.8m72.1 0v14.5m4.8-14.5v14.5m-4.8-14.5h4.8m0 14.5H310m0-14.5v14.5m4.8-14.5v14.5m-4.8-14.5h4.8m0 14.5h33.7m0-14.5v14.5m4.8-14.5v14.5m-4.8-14.5h4.8m-153.8 14.5h33.6m0-14.4v14.4m4.8-14.4v14.4m-4.8-14.4h4.8m0 14.4h33.7m81.7 0H387m0-14.4v14.4"/><path clip-rule="evenodd" fill="none" stroke="#999" stroke-width="1.8" stroke-miterlimit="3.864" d="M93.6 243.2v146.6"/><g clip-rule="evenodd"><path fill-rule="evenodd" fill="#1D1D1B" d="M117.8 342.8l2.1 4.1 2-4.1z"/><path fill="none" stroke="#1D1D1B" stroke-miterlimit="3.864" d="M117.8 342.8l2.1 4.1 2-4.1z"/></g><path clip-rule="evenodd" fill="none" stroke="#1D1D1B" stroke-miterlimit="3.864" d="M113.4 336.2h4.7"/><g clip-rule="evenodd"><path fill-rule="evenodd" fill="#1D1D1B" d="M156.2 342.8l2.1 4.1 2.1-4.1z"/><path fill="none" stroke="#1D1D1B" stroke-miterlimit="3.864" d="M156.2 342.8l2.1 4.1 2.1-4.1z"/></g><path fill="#E64614" d="M119.9 349.4h8.1v8.1h-8.1v-8.1z"/><path fill="none" d="M119.9 349.4h8.1v8.1h-8.1v-8.1z"/><path fill="none" d="M121.3 348.3h4.5v8.8h-4.5z"/><text transform="translate(121.261 356.792)" fill="#FFF" font-family="Helvetica,Arial,sans-serif" font-size="8.012">0</text><path fill="#E64614" d="M158.3 349.4h8.1v8.1h-8.1v-8.1z"/><path fill="none" d="M158.3 349.4h8.1v8.1h-8.1v-8.1z"/><path fill="none" d="M159.7 348.3h4.5v8.8h-4.5z"/><text transform="translate(159.707 356.792)" fill="#FFF" font-family="Helvetica,Arial,sans-serif" font-size="8.012">1</text><g clip-rule="evenodd"><path fill-rule="evenodd" fill="#1D1D1B" d="M194.7 342.8l2.1 4.1 2-4.1z"/><path fill="none" stroke="#1D1D1B" stroke-miterlimit="3.864" d="M194.7 342.8l2.1 4.1 2-4.1z"/></g><path fill="#E64614" d="M196.8 349.4h8.1v8.1h-8.1v-8.1z"/><path fill="none" d="M196.8 349.4h8.1v8.1h-8.1v-8.1z"/><path fill="none" d="M198.2 348.3h4.5v8.8h-4.5z"/><text transform="translate(198.168 356.791)" fill="#FFF" font-family="Helvetica,Arial,sans-serif" font-size="8.012">1</text><g clip-rule="evenodd"><path fill-rule="evenodd" fill="#1D1D1B" d="M233.1 342.8l2.1 4.2 2.1-4.2z"/><path fill="none" stroke="#1D1D1B" stroke-miterlimit="3.864" d="M233.1 342.8l2.1 4.2 2.1-4.2z"/></g><path fill="#E64614" d="M235.2 349.4h8.1v8.1h-8.1v-8.1z"/><path fill="none" d="M235.2 349.4h8.1v8.1h-8.1v-8.1z"/><path fill="none" d="M236.6 348.3h4.5v8.8h-4.5z"/><text transform="translate(236.627 356.788)" fill="#FFF" font-family="Helvetica,Arial,sans-serif" font-size="8.012">1</text><g clip-rule="evenodd"><path fill-rule="evenodd" fill="#1D1D1B" d="M271.6 342.8l2.1 4.2 2.1-4.2z"/><path fill="none" stroke="#1D1D1B" stroke-miterlimit="3.864" d="M271.6 342.8l2.1 4.2 2.1-4.2z"/></g><path fill="#E64614" d="M273.7 349.5h8.1v8.1h-8.1v-8.1z"/><path fill="none" d="M273.7 349.5h8.1v8.1h-8.1v-8.1z"/><path fill="none" d="M275.1 348.4h4.5v8.8h-4.5z"/><text transform="translate(275.085 356.868)" fill="#FFF" font-family="Helvetica,Arial,sans-serif" font-size="8.012">2</text><g clip-rule="evenodd"><path fill-rule="evenodd" fill="#1D1D1B" d="M310 342.8l2.1 4.1 2.1-4.1z"/><path fill="none" stroke="#1D1D1B" stroke-miterlimit="3.864" d="M310 342.8l2.1 4.1 2.1-4.1z"/></g><path fill="#E64614" d="M312.1 349.4h8.1v8.1h-8.1v-8.1z"/><path fill="none" d="M312.1 349.4h8.1v8.1h-8.1v-8.1z"/><path fill="none" d="M313.5 348.3h4.5v8.8h-4.5z"/><text transform="translate(313.537 356.797)" fill="#FFF" font-family="Helvetica,Arial,sans-serif" font-size="8.012">3</text><g clip-rule="evenodd"><path fill-rule="evenodd" fill="#1D1D1B" d="M348.5 342.8l2.1 4.1 2.1-4.1z"/><path fill="none" stroke="#1D1D1B" stroke-miterlimit="3.864" d="M348.5 342.8l2.1 4.1 2.1-4.1z"/></g><path fill="#E64614" d="M350.6 349.4h8.1v8.1h-8.1v-8.1z"/><path fill="none" d="M350.6 349.4h8.1v8.1h-8.1v-8.1z"/><path fill="none" d="M352 348.3h4.5v8.8H352z"/><text transform="translate(351.996 356.797)" fill="#FFF" font-family="Helvetica,Arial,sans-serif" font-size="8.012">4</text><g clip-rule="evenodd"><path fill-rule="evenodd" fill="#1D1D1B" d="M387 342.8l2.1 4.2 2-4.2z"/><path fill="none" stroke="#1D1D1B" stroke-miterlimit="3.864" d="M387 342.8l2.1 4.2 2-4.2z"/></g><path fill="#E64614" d="M389.1 349.4h8.1v8.1h-8.1v-8.1z"/><path fill="none" d="M389.1 349.4h8.1v8.1h-8.1v-8.1z"/><path fill="none" d="M390.5 348.3h4.5v8.8h-4.5z"/><text transform="translate(390.459 356.781)" fill="#FFF" font-family="Helvetica,Arial,sans-serif" font-size="8.012">5</text><path fill="#80FF80" d="M427.9 371.4h28.9v9.6h-28.9v-9.6z"/><path fill="none" stroke="#80FF80" stroke-miterlimit="3.864" d="M427.9 371.4h28.9v9.6h-28.9v-9.6z"/><g clip-rule="evenodd"><path fill-rule="evenodd" fill="#B3B3B3" d="M458.3 394h4.4l-4.4 11-4.4-11z"/><path fill="none" stroke="#B3B3B3" stroke-width="3" stroke-miterlimit="3.864" stroke-dasharray="2,2" d="M458.3 384.3v10.4"/></g><path clip-rule="evenodd" fill="none" stroke="#1D1D1B" stroke-miterlimit="3.864" d="M425.4 321.7v14.4m0-14.4h4.8m-43.2.1h4.8m0 0v14.4m0 0h33.6"/><g clip-rule="evenodd"><path fill-rule="evenodd" fill="#1D1D1B" d="M425.4 342.8l2.1 4.2 2.1-4.2z"/><path fill="none" stroke="#1D1D1B" stroke-miterlimit="3.864" d="M425.4 342.8l2.1 4.2 2.1-4.2z"/></g><path fill="#E64614" d="M427.5 349.4h8.1v8.1h-8.1v-8.1z"/><path fill="none" d="M427.5 349.4h8.1v8.1h-8.1v-8.1z"/><path fill="none" d="M428.9 348.3h4.5v8.8h-4.5z"/><text transform="translate(428.911 356.781)" fill="#FFF" font-family="Helvetica,Arial,sans-serif" font-size="8.012">5</text><path fill="#80FF80" d="M158.7 371.4h28.9v9.6h-28.9v-9.6z"/><path fill="none" stroke="#80FF80" stroke-miterlimit="3.864" d="M158.7 371.4h28.9v9.6h-28.9v-9.6z"/><g clip-rule="evenodd"><path fill-rule="evenodd" fill="#B3B3B3" d="M189.2 394h4.4l-4.4 11-4.4-11z"/><path fill="none" stroke="#B3B3B3" stroke-width="3" stroke-miterlimit="3.864" stroke-dasharray="2,2" d="M189.2 384.3v10.4"/></g><path fill="#80FF80" d="M197.2 371.4H226v9.6h-28.8v-9.6z"/><path fill="none" stroke="#80FF80" stroke-miterlimit="3.864" d="M197.2 371.4H226v9.6h-28.8v-9.6z"/><g clip-rule="evenodd"><path fill-rule="evenodd" fill="#B3B3B3" d="M227.7 394h4.4l-4.4 11-4.4-11z"/><path fill="none" stroke="#B3B3B3" stroke-width="3" stroke-miterlimit="3.864" stroke-dasharray="2,2" d="M227.7 384.3v10.4"/></g><g clip-rule="evenodd"><path fill-rule="evenodd" fill="#80FF80" d="M120.3 371.4h14.1v9.6h-14.1z"/><path fill="none" stroke="#80FF80" stroke-miterlimit="3.864" d="M120.3 371.4h14.1v9.6h-14.1z"/><path fill-rule="evenodd" fill="#B3B3B3" d="M136.2 394h4.4l-4.4 11-4.4-11z"/><path fill="none" stroke="#B3B3B3" stroke-width="3" stroke-miterlimit="3.864" stroke-dasharray="2,2" d="M136.2 384.3v10.4"/></g><path fill="#80FF80" d="M274.1 371.5h28.8v9.6h-28.8v-9.6z"/><path fill="none" stroke="#80FF80" stroke-miterlimit="3.864" d="M274.1 371.5h28.8v9.6h-28.8v-9.6z"/><g clip-rule="evenodd"><path fill-rule="evenodd" fill="#B3B3B3" d="M304.5 394h4.4l-4.4 11.1-4.4-11.1z"/><path fill="none" stroke="#B3B3B3" stroke-width="3" stroke-miterlimit="3.864" stroke-dasharray="2,2" d="M304.5 384.4v10.4"/></g><g clip-rule="evenodd"><path fill-rule="evenodd" fill="#80FF80" d="M466.4 371.4h14.1v9.6h-14.1z"/><path fill="none" stroke="#80FF80" stroke-miterlimit="3.864" d="M466.4 371.4h14.1v9.6h-14.1z"/><path fill-rule="evenodd" fill="#B3B3B3" d="M482.3 394h4.4l-4.4 11-4.4-11z"/><path fill="none" stroke="#B3B3B3" stroke-width="3" stroke-miterlimit="3.864" stroke-dasharray="2,2" d="M482.3 384.3v10.4"/></g><path clip-rule="evenodd" fill="none" stroke="#1D1D1B" stroke-miterlimit="3.864" d="M463.9 321.7v14.4m4.8-14.4v14.4m-4.8-14.4h4.8m0 14.4h30.6m-69.1.1h33.7"/><g clip-rule="evenodd"><path fill-rule="evenodd" fill="#1D1D1B" d="M463.9 342.8l2.1 4.2 2-4.2z"/><path fill="none" stroke="#1D1D1B" stroke-miterlimit="3.864" d="M463.9 342.8l2.1 4.2 2-4.2z"/></g><path fill="#E64614" d="M466 349.4h8.1v8.1H466v-8.1z"/><path fill="none" d="M466 349.4h8.1v8.1H466v-8.1z"/><path fill="none" d="M467.4 348.3h4.5v8.8h-4.5z"/><text transform="translate(467.37 356.782)" fill="#FFF" font-family="Helvetica,Arial,sans-serif" font-size="8.012">0</text><path clip-rule="evenodd" fill="none" stroke="#1D1D1B" stroke-miterlimit="3.864" d="M430.2 321.7v14.5M80.1 278.5h36.3m-.7 0h14.8m-.5 0h18.5m11.4 0h34.8m59.4-14.5v14.5m-.4-14.5h65.5m-124.6 14.5h59.8m77-14.4v14.4m71.5-14.4v14.4M331 264.1h72.3m32-.1v14.5m-.4-14.5h64.4m-180.4.1v14.4m83.6 0h33.1m-287.5-14.4v14.4m12.1-14.4v14.4m-12.4-14.4h12.7m158 14.4h13.2"/><g clip-rule="evenodd"><path fill-rule="evenodd" fill="#1D1D1B" d="M466 317.1h2l-2 3.1-2-3.1z"/><path fill="none" stroke="#1D1D1B" stroke-linejoin="round" stroke-miterlimit="3.864" d="M466 317.3v-8.5"/></g><path clip-rule="evenodd" fill="none" stroke="#999" stroke-width="1.8" stroke-miterlimit="3.864" d="M489.1 243.2v146.6"/><path clip-rule="evenodd" fill="none" stroke="#000" stroke-miterlimit="10" d="M12.5 10h313.7v106H12.5z"/><path fill="#80FF80" d="M22.4 60.3h30v12h-30v-12z"/><path fill="none" stroke="#80FF80" stroke-miterlimit="3.864" d="M22.4 60.3h30v12h-30v-12z"/><g clip-rule="evenodd"><path fill-rule="evenodd" fill="#B3B3B3" d="M37.2 92.9h5.5l-5.5 13.7-5.5-13.7z"/><path fill="none" stroke="#B3B3B3" stroke-width="3" stroke-miterlimit="3.864" stroke-dasharray="2,2" d="M37.2 80.8v13"/></g><g clip-rule="evenodd"><path fill-rule="evenodd" fill="#1D1D1B" d="M34.6 22.7l2.6 5.2 2.6-5.2z"/><path fill="none" stroke="#1D1D1B" stroke-miterlimit="3.864" d="M34.6 22.7l2.6 5.2 2.6-5.2z"/></g><path fill="#E64614" d="M32.1 39.4h10.2v10.1H32.1V39.4z"/><path fill="#E64614" d="M32.1 39.4h10.2v10.1H32.1V39.4z"/><path fill="none" d="M34.4 38H40v11h-5.6z"/><text transform="translate(34.4 48.188)" fill="#FFF" font-family="Helvetica,Arial,sans-serif" font-size="10">0</text><path clip-rule="evenodd" fill="none" stroke="#000" stroke-miterlimit="10" d="M12.5 127.5h313.7v67.3H12.5z"/><text transform="translate(70.044 225.788)"><tspan x="0" y="0" fill="#1D1D1D" font-family="Helvetica,Arial,sans-serif" font-size="10">Sequencer</tspan><tspan x="6" y="12" fill="#1D1D1D" font-family="Helvetica,Arial,sans-serif" font-size="10">enabled</tspan></text><text transform="translate(465.513 225.788)"><tspan x="0" y="0" fill="#1D1D1D" font-family="Helvetica,Arial,sans-serif" font-size="10">Sequencer</tspan><tspan x="4.8" y="12" fill="#1D1D1D" font-family="Helvetica,Arial,sans-serif" font-size="10">disabled</tspan></text><text transform="translate(283.502 428.759)" fill="#1D1D1D" font-family="Helvetica,Arial,sans-serif" font-weight="bold" font-size="11">Time</text><text transform="translate(417.255 293.22)"><tspan x="0" y="0" fill="#1D1D1D" font-family="Helvetica,Arial,sans-serif" font-size="10">Sequence set </tspan><tspan x="1.3" y="12" fill="#1D1D1D" font-family="Helvetica,Arial,sans-serif" font-size="10">cycle restarts</tspan></text><text transform="translate(17 330.55)"><tspan x="0" y="0" fill="#1D1D1D" font-family="Helvetica,Arial,sans-serif" font-size="10">Frame Start </tspan><tspan x="0" y="12" fill="#1D1D1D" font-family="Helvetica,Arial,sans-serif" font-size="10">trigger signal</tspan></text><text transform="translate(17 280.55)" fill="#1D1D1D" font-family="Helvetica,Arial,sans-serif" font-size="10">Line1 signal</text><text transform="translate(62.3 29.04)" fill="#1D1D1D" font-family="Helvetica,Arial,sans-serif" font-size="10">= Camera selects a sequence set</text><text transform="translate(62.3 47.574)" fill="#1D1D1D" font-family="Helvetica,Arial,sans-serif" font-size="10">= Sequence set used for image acquisition (index number)</text><text transform="translate(62.3 70.706)" fill="#1D1D1D" font-family="Helvetica,Arial,sans-serif" font-size="10">= Frame exposure and readout</text><text transform="translate(62.3 96.766)" fill="#1D1D1D" font-family="Helvetica,Arial,sans-serif" font-size="10">= Frame transmission</text><text transform="translate(22.363 161.75)"><tspan x="0" y="0" fill="#1D1D1D" font-family="Helvetica,Arial,sans-serif" font-size="10">SequenceSetTotalNumber = 6</tspan><tspan x="0" y="12" fill="#1D1D1D" font-family="Helvetica,Arial,sans-serif" font-size="10">SequenceControlSource (Advance) = Line1</tspan><tspan x="0" y="24" fill="#1D1D1D" font-family="Helvetica,Arial,sans-serif" font-size="10">SequenceControlSource (Reset) = Disabled</tspan></text><text transform="translate(22.541 144.5)" fill="#1D1D1D" font-family="Helvetica,Arial,sans-serif" font-size="10">Settings:</text></svg>