<svg version="1.0" xmlns="http://www.w3.org/2000/svg" viewBox="0 0 510 363.3"><g fill="none" stroke="#000" stroke-linecap="round" stroke-linejoin="round" stroke-miterlimit="10"><path stroke-width=".454" d="M46.3 289h438.3M46.3 254.8h438.3M46.3 220.6h438.3M46.3 186.4h438.3M46.3 152.2h438.3M46.3 117.9h438.3M46.3 83.6h438.3M46.3 49.4h438.3M46.3 15.1h438.3m-383.5 0v308.3M156 15.1v308.3m54.6-308.3v308.3m54.9-308.3v308.3m54.8-308.3v308.3m54.8-308.3v308.3m54.8-308.3v308.3m54.7-308.3v308.3"/><path stroke-width=".964" d="M46.3 323.4V15.1m0 308.3h438.3"/></g><g fill="none" stroke-miterlimit="10"><path stroke="red" d="M68.2 248.5c1.9 1.4 3.6 2 5.5 3.9 1.9 2 3.6 5.3 5.5 7.9 1.8 2.6 3.6 5.2 5.5 7.5 1.8 2.3 3.6 4.6 5.5 6.5 1.8 1.9 3.6 3.2 5.4 4.7 1.8 1.5 3.6 3.1 5.5 4.3 1.9 1 3.6 2.2 5.5 2.3 1.9.2 3.6-.7 5.5-1.3 1.8-.6 3.6-1.8 5.4-2 1.9-.2 3.7.4 5.5.5 1.9 0 3.7.4 5.5-.3 1.9-.7 3.6-1.9 5.5-3.9 1.9-2.2 3.6-6.9 5.5-8.8 1.8-1.8 3.6-3.7 5.5-2.4 1.8 1.3 3.6 7 5.4 10.2 1.9 3.2 3.7 7.2 5.5 9 1.7 1.6 3.8 4.9 5.5 1.5 1.2-2.4 4.3-11 5.5-23.3 1.8-18.6 3.6-62.9 5.5-87.9 1.8-25 3.6-51.5 5.4-62 .7-4.1 4.8-1.2 5.5-1 1.9.6 3.6 3 5.5 4.2 1.9 1.2 3.6 1.2 5.5 2.8 1.8 1.7 3.6 3.9 5.5 7.2 1.8 3.3 3.6 7.8 5.4 12.3 1.9 4.5 3.7 9.9 5.5 14.7 1.9 4.7 3.6 9.9 5.5 13.8 1.8 4.1 3.6 7.4 5.5 10.2 1.8 2.9 3.6 5.4 5.5 7 1.8 1.7 3.6 2.4 5.4 2.8 1.9.4 3.7-.6 5.5-.2 1.9.4 3.6.6 5.5 2.3 1.9 1.7 3.6 4.9 5.5 7.8 1.9 3 3.6 6.4 5.5 10.1 1.8 3.6 3.6 8.2 5.4 11.5 1.9 3.3 3.7 5.8 5.5 8.5 1.9 2.6 3.7 5.1 5.5 7.2 1.9 2 3.6 3.7 5.5 4.9 1.8 1.2 3.6 1.9 5.5 2.2 1.8.4 3.6-.1 5.5-.3 1.8-.2 3.6-1 5.4-1.2 1.9-.2 3.7-.2 5.5-.1 1.8.1 3.6.4 5.5 1s3.6 1.3 5.5 2.3c1.8 1.1 3.6 2.3 5.5 3.9 1.8 1.5 3.6 3.5 5.4 5.4 1.8 1.9 3.7 3.8 5.5 5.8 1.9 1.9 3.6 3.8 5.5 5.7 1.9 2 3.6 4.1 5.5 6 1.8 2 3.6 3.9 5.5 5.7 1.8 1.7 3.6 3.4 5.5 4.8 1.8 1.4 3.6 2.5 5.4 3.7 1.9 1.2 3.6 2.7 5.5 3.7 1.9 1.1 3.6 2 5.5 2.7 1.9.7 3.6 1 5.5 1.6 1.8.6 3.6 1.1 5.4 1.9 1.9.7 3.7 1.7 5.5 2.3 1.8.7 3.7 1.2 5.5 1.7 1.9.6 3.6 1.1 5.5 1.8s3.6 1.4 5.5 2.2c1.8.7 3.6 1.5 5.5 2.3 1.8.8 3.6 1.7 5.4 2.6 1.9.9 3.7 1.8 5.5 2.6 1.9.8 3.6 1.6 5.5 2.3 1.9.7 3.6 1.4 5.5 1.9 1.8.6 3.6 1.1 5.5 1.7l5.4 1.8c1.9.5 3.7.9 5.5 1.3 1.9.3 3.6.4 5.5.6 1.9.2 3.6.2 5.5.4 1.8.1 3.6.2 5.5.4"/><path stroke="#0F0" stroke-dasharray="3,3,3,3" d="M68.2 262c1.9 1.1 3.6 1.7 5.5 3.3 1.9 1.5 3.6 3.9 5.5 5.9 1.8 2 3.6 4.4 5.5 6 1.8 1.7 3.6 3.9 5.5 3.9 1.8.1 3.6-3 5.4-3.8 1.8-.8 3.6.9 5.5-1 1-1 4.4-3.6 5.5-10.1 1.9-11.2 3.6-32.1 5.5-56.9 1.8-24.8 3.6-66.9 5.4-91.8 1.9-24.9 3.7-44.3 5.5-57.6 1.6-11.5 3.9-18.6 5.5-22 1.6-3.5 3.8-2.4 5.5-1.9 1.9.6 3.6 3.6 5.5 5.6 1.8 2 3.6 3.6 5.5 6.2 1.8 2.7 3.6 5.2 5.4 9.7 1.9 4.5 3.7 10.4 5.5 17.5 1.8 7.1 3.6 17 5.5 24.9 1.8 8 3.6 15.9 5.5 22.6 1.8 6.7 3.6 11.4 5.5 17.6 1.8 6.4 3.6 12 5.4 20.2 1.9 8.1 3.7 19.1 5.5 28.8 1.9 9.7 3.6 21 5.5 29.7 1.9 8.6 3.6 16.2 5.5 22 1.8 5.7 3.6 9.3 5.5 12.6 1.8 3.3 3.6 5.4 5.4 7.5 1.9 2.1 3.7 4 5.5 5.1 1.9 1.1 3.6 1.8 5.5 1.5 1.8-.2 3.6-1.6 5.5-3.1 1.8-1.4 3.6-3.5 5.5-5.6 1.8-2 3.6-4.3 5.4-6.5 1.9-2.1 3.7-4.9 5.5-6.4 1.9-1.4 3.6-2.5 5.5-2.3 1.9.2 3.6 2.3 5.5 3.7 1.9 1.4 3.6 3.4 5.5 4.7 1.8 1.2 3.6 2.3 5.4 2.8 1.9.6 3.7.2 5.5.6 1.9.3 3.7 1 5.5 1.5 1.9.6 3.6 1.4 5.5 1.6 1.8.2 3.6.3 5.5-.2 1.8-.6 3.6-1.9 5.5-3 1.8-1.1 3.6-2.7 5.4-3.6 1.9-1 3.7-1.8 5.5-2.3 1.8-.6 3.6-1 5.5-1 1.9-.1 3.6.2 5.5.8 1.8.6 3.6 1.5 5.5 2.7 1.8 1.2 3.6 2.8 5.4 4.4 1.8 1.6 3.7 3.5 5.5 5.2 1.9 1.8 3.6 3.6 5.5 5.4 1.9 1.9 3.6 3.8 5.5 5.7 1.8 1.9 3.6 3.8 5.5 5.4 1.8 1.7 3.6 3.3 5.5 4.6 1.8 1.4 3.6 2.3 5.4 3.5 1.9 1.2 3.6 2.6 5.5 3.6s3.6 2 5.5 2.7c1.9.7 3.6 1 5.5 1.7 1.8.6 3.6 1.1 5.4 1.8 1.9.7 3.7 1.7 5.5 2.4 1.8.7 3.7 1.1 5.5 1.7 1.9.6 3.6 1.1 5.5 1.8 1.9.6 3.6 1.4 5.5 2.2 1.8.7 3.6 1.5 5.5 2.3 1.8.9 3.6 1.7 5.4 2.6 1.9.9 3.7 1.8 5.5 2.6 1.9.8 3.6 1.6 5.5 2.3 1.9.7 3.6 1.4 5.5 1.9 1.8.6 3.6 1.2 5.5 1.7l5.4 1.8c1.9.5 3.7 1 5.5 1.3 1.9.3 3.6.5 5.5.6 1.9.2 3.6.2 5.5.4 1.8.1 3.6.2 5.5.4"/><path stroke="#00F" stroke-dasharray="12,2,2,2" d="M68.2 202.1c1.9-17.2 3.6-37.9 5.5-51.4s3.6-21.3 5.5-29.5c1.8-8.1 3.6-13.5 5.5-19.4 1.8-5.9 3.6-11.8 5.5-15.9 1.8-4.1 3.6-5.9 5.4-8.8 1.8-2.9 3.6-6.8 5.5-8.5 1.9-1.7 3.6-2.6 5.5-1.6s3.6 3.3 5.5 7.6c1.8 4.2 3.6 10.1 5.4 17.8 1.9 7.7 3.7 17.7 5.5 28.1 1.9 10.4 3.7 22.6 5.5 34.4 1.9 11.8 3.6 25.1 5.5 36.3 1.9 11.2 3.6 22.4 5.5 31 1.8 8.6 3.6 14.9 5.5 20.7 1.8 5.8 3.6 9.7 5.4 14.3 1.9 4.5 3.7 8.9 5.5 13 1.8 4 3.6 8.3 5.5 11.2 1.8 2.8 3.6 4.6 5.5 6 1.8 1.4 3.6 1.5 5.5 2.2 1.8.7 3.6 1.2 5.4 2 1.9.8 3.7 2 5.5 2.9 1.9.9 3.6 1.9 5.5 2.5 1.9.7 3.6 1.2 5.5 1.3 1.8.2 3.6.1 5.5-.3 1.8-.3 3.6-.9 5.4-1.5 1.9-.6 3.7-1.5 5.5-2.2 1.9-.7 3.6-1.5 5.5-2 1.8-.6 3.6-1 5.5-1.4 1.8-.3 3.6-.2 5.5-.5 1.8-.2 3.6-.6 5.4-1 1.9-.4 3.7-1.2 5.5-1.3 1.9-.1 3.6 0 5.5.5 1.9.4 3.6 1.7 5.5 2.5 1.9.7 3.6 1.6 5.5 2.2 1.8.6 3.6.9 5.4 1.2 1.9.2 3.7.4 5.5.4 1.9 0 3.7.2 5.5-.4 1.9-.6 3.6-.9 5.5-3 1.8-2.1 3.6-5.4 5.5-9.6 1.8-4.3 3.6-11.5 5.5-16.2 1.8-4.8 3.6-9.4 5.4-12.3 1.9-2.9 3.7-3.9 5.5-5 1.8-1.2 3.6-1.4 5.5-1.9s3.6-.9 5.5-1c1.8-.2 3.6-.3 5.5.1 1.8.5 3.6 1.5 5.4 2.8 1.8 1.2 3.7 2.8 5.5 4.5 1.9 1.6 3.6 3.3 5.5 5.3s3.6 4.5 5.5 6.9c1.8 2.4 3.6 5.1 5.5 7.3 1.8 2.3 3.6 4.3 5.5 6 1.8 1.8 3.6 3 5.4 4.6 1.9 1.5 3.6 3.4 5.5 4.8s3.6 2.6 5.5 3.5c1.9.9 3.6 1.4 5.5 2 1.8.7 3.6 1.2 5.4 2 1.9.7 3.7 1.9 5.5 2.6 1.8.7 3.7 1.3 5.5 1.9 1.9.6 3.6 1.1 5.5 1.7 1.9.7 3.6 1.4 5.5 2.1 1.8.7 3.6 1.5 5.5 2.3l5.4 2.7c1.9.9 3.7 1.9 5.5 2.7 1.9.8 3.6 1.6 5.5 2.3 1.9.7 3.6 1.4 5.5 2 1.8.6 3.6 1.2 5.5 1.8 1.8.6 3.6 1.3 5.4 1.9 1.9.5 3.7 1 5.5 1.4 1.9.3 3.6.5 5.5.6 1.9.2 3.6.3 5.5.4 1.8.1 3.6.2 5.5.4"/></g><g clip-rule="evenodd"><path fill-rule="evenodd" fill="#1D1D1B" d="M344.8 141h117.1v76.2H344.8z"/><path fill="none" stroke="#1D1D1B" stroke-width="1.117" stroke-miterlimit="3.864" d="M344.8 141h117.1v76.2H344.8z"/></g><g clip-rule="evenodd"><path fill-rule="evenodd" fill="#FFF" d="M341.3 137.4h117.1v76.2H341.3z"/><path fill="none" stroke="#1D1D1B" stroke-width="1.117" stroke-miterlimit="3.864" d="M341.3 137.4h117.1v76.2H341.3z"/></g><path clip-rule="evenodd" fill="none" stroke="#00F" stroke-miterlimit="3.864" stroke-dasharray="12,2,2,2" d="M351.8 153.5h42.3"/><path clip-rule="evenodd" fill="none" stroke="#0F0" stroke-miterlimit="3.864" stroke-dasharray="2,2" d="M351.8 177.7h42.3"/><path clip-rule="evenodd" fill="none" stroke="red" stroke-miterlimit="3.864" stroke-dasharray="72" d="M351.8 202h42.3"/><text transform="translate(406.917 156.722)" fill="#1D1D1B" font-family="Helvetica,Arial,sans-serif" font-size="12">Blue</text><text transform="translate(406.917 182.02)" fill="#1D1D1B" font-family="Helvetica,Arial,sans-serif" font-size="12">Green</text><text transform="translate(406.917 204.77)" fill="#1D1D1B" font-family="Helvetica,Arial,sans-serif" font-size="12">Red</text><text transform="translate(213.857 357.334)" font-family="Helvetica,Arial,sans-serif" font-size="12">Wavelength (nm)</text><text transform="rotate(-90 128.403 111.313)" fill="#1D1D1B" font-family="Helvetica,Arial,sans-serif" font-size="12">Quantum Efficiency (%)</text><text transform="translate(29.495 15.143)" font-family="Helvetica,Arial,sans-serif" font-size="8.706">90</text><text transform="translate(29.495 50.002)" font-family="Helvetica,Arial,sans-serif" font-size="8.706">80</text><text transform="translate(29.495 84.799)" font-family="Helvetica,Arial,sans-serif" font-size="8.706">70</text><text transform="translate(29.495 119.658)" font-family="Helvetica,Arial,sans-serif" font-size="8.706">60</text><text transform="translate(29.495 154.519)" font-family="Helvetica,Arial,sans-serif" font-size="8.706">50</text><text transform="translate(29.495 189.378)" font-family="Helvetica,Arial,sans-serif" font-size="8.706">40</text><text transform="translate(29.495 224.237)" font-family="Helvetica,Arial,sans-serif" font-size="8.706">30</text><text transform="translate(29.495 259.036)" font-family="Helvetica,Arial,sans-serif" font-size="8.706">20</text><text transform="translate(29.495 293.896)" font-family="Helvetica,Arial,sans-serif" font-size="8.706">10</text><text transform="translate(34.368 328.755)" font-family="Helvetica,Arial,sans-serif" font-size="8.706">0</text><text transform="translate(41.896 337.084)"><tspan x="0" y="0" font-family="Helvetica,Arial,sans-serif" font-size="8.706">35</tspan><tspan x="9.8" y="0" font-family="Helvetica,Arial,sans-serif" font-size="8.706" letter-spacing="38">0</tspan><tspan x="53.4" y="0" font-family="Helvetica,Arial,sans-serif" font-size="8.706">45</tspan><tspan x="63.2" y="0" font-family="Helvetica,Arial,sans-serif" font-size="8.706" letter-spacing="39">0</tspan><tspan x="107.9" y="0" font-family="Helvetica,Arial,sans-serif" font-size="8.706">55</tspan><tspan x="117.7" y="0" font-family="Helvetica,Arial,sans-serif" font-size="8.706" letter-spacing="39">0</tspan><tspan x="162.4" y="0" font-family="Helvetica,Arial,sans-serif" font-size="8.706">65</tspan><tspan x="172.2" y="0" font-family="Helvetica,Arial,sans-serif" font-size="8.706" letter-spacing="40">0</tspan><tspan x="218" y="0" font-family="Helvetica,Arial,sans-serif" font-size="8.706">75</tspan><tspan x="227.8" y="0" font-family="Helvetica,Arial,sans-serif" font-size="8.706" letter-spacing="39">0</tspan><tspan x="272.5" y="0" font-family="Helvetica,Arial,sans-serif" font-size="8.706">85</tspan><tspan x="282.3" y="0" font-family="Helvetica,Arial,sans-serif" font-size="8.706" letter-spacing="40">0</tspan><tspan x="328" y="0" font-family="Helvetica,Arial,sans-serif" font-size="8.706">95</tspan><tspan x="337.8" y="0" font-family="Helvetica,Arial,sans-serif" font-size="8.706" letter-spacing="38">0</tspan><tspan x="381.1" y="0" font-family="Helvetica,Arial,sans-serif" font-size="8.706">105</tspan><tspan x="395.8" y="0" font-family="Helvetica,Arial,sans-serif" font-size="8.706" letter-spacing="36">0</tspan><tspan x="437.1" y="0" font-family="Helvetica,Arial,sans-serif" font-size="8.706">1</tspan><tspan x="441.3" y="0" font-family="Helvetica,Arial,sans-serif" font-size="8.706">150</tspan></text></svg>