<svg version="1.0" xmlns="http://www.w3.org/2000/svg" viewBox="0 0 240 30"><path fill="#E64614" d="M32.8 8.4h15.6V24H32.8V8.4z"/><path fill="none" d="M36.1 10h9.1v15.6h-9.1V10z"/><text transform="translate(36.066 21.564)" fill="#FFF" font-family="Helvetica,Arial,sans-serif" font-weight="bold" font-size="15.401">1</text><path fill="#E64614" d="M2.4 8.4H18V24H2.4V8.4z"/><path fill="none" d="M5.7 10h9.1v15.6H5.7V10z"/><text transform="translate(5.654 21.564)" fill="#FFF" font-family="Helvetica,Arial,sans-serif" font-weight="bold" font-size="15.401">0</text><path fill="#E64614" d="M63.7 8.4h15.5V24H63.7V8.4z"/><path fill="none" d="M66.9 10H76v15.6h-9.1V10z"/><text transform="translate(66.894 21.564)" fill="#FFF" font-family="Helvetica,Arial,sans-serif" font-weight="bold" font-size="15.401">2</text><path fill="#E64614" d="M94.5 8.4h15.6V24H94.5V8.4z"/><path fill="none" d="M97.7 10h9.1v15.6h-9.1V10z"/><text transform="translate(97.719 21.564)" fill="#FFF" font-family="Helvetica,Arial,sans-serif" font-weight="bold" font-size="15.401">3</text><path fill="#E64614" d="M125.3 8.4h15.6V24h-15.6V8.4z"/><path fill="none" d="M128.5 10h9.2v15.6h-9.2V10z"/><text transform="translate(128.546 21.564)" fill="#FFF" font-family="Helvetica,Arial,sans-serif" font-weight="bold" font-size="15.401">4</text><path fill="#32B09E" d="M156.1 8.4h15.6V24h-15.6V8.4z"/><path fill="none" d="M159.4 10h9.1v15.6h-9.1V10z"/><text transform="translate(159.372 21.564)" fill="#FFF" font-family="Helvetica,Arial,sans-serif" font-weight="bold" font-size="15.401">0</text><path fill="#32B09E" d="M187 8.4h15.6V24H187V8.4z"/><path fill="none" d="M190.2 10h9.1v15.6h-9.1V10z"/><text transform="translate(190.198 21.564)" fill="#FFF" font-family="Helvetica,Arial,sans-serif" font-weight="bold" font-size="15.401">1</text><path fill="none" stroke="#000" stroke-width="2" stroke-miterlimit="3.864" d="M22.5 16.1h5.4m25.5 0h5.3m25.5.1h5.3m25.5-.1h5.4m25.4 0h5.4m25.5 0h5.3m25.5 0h5.3"/><text transform="translate(219.163 21.202)" font-family="Helvetica,Arial,sans-serif" font-weight="bold" font-size="15.401">...</text></svg>