<svg version="1.0" xmlns="http://www.w3.org/2000/svg" viewBox="0 0 286.5 150"><path fill="#716F6E" d="M73.9 117.3l-.6-.1-.7-.2-.8-.2-.5-.6-.4-.3-.4-.8-.2-.5-.1-.6 2-.3v.3l.2.4.2.2.2.4.1.1h.4l.4.2h.4z"/><path fill="#716F6E" d="M70.2 18.9h2v95h-2z"/><path fill="#716F6E" d="M70.2 113.9c0-.5.5-.9 1-.9.6 0 1 .4 1 .9s-.5.9-1 .9c-.6 0-1-.4-1-.9zm0-95.2l.1-.6.2-.7.4-.5.4-.6.7-.4.6-.3.7-.2h.6l.2 2h-.8l-.4.2-.1.2-.2.2-.2.3-.2.2v.4z"/><path fill="#716F6E" d="M70.2 18.8c0-.6.5-1 1-1 .6 0 1 .4 1 1s-.5 1-1 1c-.6 0-1-.5-1-1zm3.9-3.4v2l14.4-.2v-2l-14.4.2z"/><path fill="#716F6E" d="M72.9 16.4c0-.6.5-1 1-1 .6 0 1 .4 1 1s-.5 1-1 1-1-.4-1-1zm15.8-1.2h.6l.7.2.6.4.5.3.6.6.4.5.2.8v.5l-2.1.2v-.6L90 18l-.2-.4-.1-.2-.4-.2h-.8z"/><path fill="#716F6E" d="M87.6 16.2c0-.6.5-1 1-1 .6 0 1 .4 1 1s-.5 1-1 1-1-.4-1-1zm2.8 2.5h1.9v95h-1.9z"/><path fill="#716F6E" d="M90.4 18.7c0-.5.4-.9.9-.9s.9.4.9.9-.4.9-.9.9-.9-.4-.9-.9zm1.9 95v.7l-.2.7-.4.6-.6.5-.5.4-.6.4-.7.2h-.6l-.3-2.1h.9l.2-.1.3-.2.2-.2.2-.4v-.7z"/><path fill="#716F6E" d="M90.4 113.7c0-.5.4-.9.9-.9s.9.4.9.9-.4.9-.9.9-.9-.4-.9-.9zm-1.9 3.5v-2.1l-14.4.2v2l14.4-.1z"/><path fill="#716F6E" d="M87.6 116.1c0-.6.5-1 1-1 .6 0 1 .4 1 1s-.5 1-1 1c-.5.1-1-.4-1-1zm-14.7.2c0-.6.5-1 1-1 .6 0 1 .4 1 1s-.5 1-1 1-1-.4-1-1z"/><path fill="#FFF" d="M20.4 96.1h18v17.8h-18z"/><path fill="none" stroke="#74D53D" stroke-width=".384" stroke-linecap="square" stroke-miterlimit="10" d="M20.2 95.9h18.4V114H20.2z"/><path fill-rule="evenodd" clip-rule="evenodd" fill="#00BE5A" d="M29.7 106v-1.1h4.6v3.8l-1.1.8-1.1.5-1.1.2-1.2.2h-.7l-.7-.2-.8-.2-.7-.4-.6-.3-.5-.4-.4-.5-.4-.6-.2-.7-.3-.7v-3l.3-.5.2-.8.4-.7.4-.4.5-.5.6-.4.7-.2.6-.3h2.6l.5.2.4.1.9.4.6.6.5.7.4 1.1-1.3.2-.4-.6-.1-.5-.6-.6-.6-.2-.7-.3h-1.7l-.7.3-.6.2-.5.6-.4.3-.2.6-.4 1.1-.1 1.1.1.7v.6l.2.5.2.6.2.3.4.4.9.7.9.2 1 .2h.9l.9-.4.8-.3.5-.4v-2h-3.1z"/><path fill-rule="evenodd" clip-rule="evenodd" fill="#FFF" d="M20.4 70.3h18v17.8h-18z"/><path fill="none" stroke="#14487E" stroke-width=".384" stroke-linecap="square" stroke-miterlimit="10" d="M20.2 70.1h18.4v18.1H20.2z"/><path fill-rule="evenodd" clip-rule="evenodd" fill="#005ABE" d="M25.6 84.2V73.8h5.2l.9.4.2.2.4.2.6.5.2.7.2.7-.3.6v.4l-.2.4-.6.5-.6.4.9.4.2.2.4.4.2.4.2.4.2.4v.5l-.1.5-.2.5-.4.6-.4.5-.6.2-.5.2-.9.2h-5zm1.5-6h3.1l.6-.2.4-.2.4-.2.2-.5.2-.4-.2-.5-.2-.4-.4-.4-.4-.2-.6-.2h-3.1v3.2zm0 4.9h2.6l1.1-.2h.4l.4-.2.2-.4.4-.2.2-.5v-.9l-.4-.6-.4-.4-.4-.2-.7-.2h-3.3v3.8h-.1zm-6.7-64h18v17.8h-18z"/><path fill="none" stroke="#000" stroke-width=".384" stroke-linecap="square" stroke-miterlimit="10" d="M20.2 18.9h18.4V37H20.2z"/><path fill-rule="evenodd" clip-rule="evenodd" fill="#FFF" d="M25.2 33.1V22.7h5.2l.7.2.4.2.4.4.6.6.2.7.2.5-.3.7v.4l-.2.2-.6.5-.6.5.7.4.4.2.4.4.2.4.2.4v.4l.2.4-.2.7-.1.6-.4.5-.4.4-.6.4-.6.2-.7.2h-5.1v-.1zm1.5-6h3.1l.6-.2.4-.2.4-.4.2-.4V25l-.2-.5-.4-.4-.4-.1h-.6l-1.1-.2h-2v3.3zm0 4.8h3.5l.6-.2.4-.2.2-.2.4-.4.2-.4V30l-.2-.5-.2-.4-.4-.4-.4-.4h-4.1v3.6z"/><path fill-rule="evenodd" clip-rule="evenodd" fill="#00BE5A" d="M47.1 19.1h18v17.8h-18z"/><path fill="none" stroke="#000" stroke-width=".384" stroke-linecap="square" stroke-miterlimit="10" d="M46.9 18.9h18.4V37H46.9z"/><path fill-rule="evenodd" clip-rule="evenodd" d="M56.6 29.1v-1.3h4.5v3.9l-1.2.7-1.1.6-1.1.1-1.1.2h-.7l-.8-.2-.7-.1-.6-.4-.7-.4-.4-.3-.6-.6-.3-.5-.2-.8-.2-.5-.2-.7v-1.5l.2-.7.2-.8.2-.7.3-.6.6-.5.4-.6.5-.3.8-.2.5-.2.8-.2h1.8l.6.2.5.2.8.4.7.5.4.9.4.9-1.3.4-.2-.7-.4-.6-.4-.3-.7-.4-.6-.2-.9-.2-.7.2-.8.2-.7.4-.6.3-.3.6-.2.5-.4.9v2.4l.2.6.2.5.3.4.2.5 1 .6.9.3h1.8l1-.3.7-.4.6-.4v-1.8h-3z"/><path fill-rule="evenodd" clip-rule="evenodd" fill="#00BE5A" d="M20.4 44.3h18v17.8h-18z"/><path fill="none" stroke="#000" stroke-width=".384" stroke-linecap="square" stroke-miterlimit="10" d="M20.2 44.1h18.4v18.1H20.2z"/><path fill-rule="evenodd" clip-rule="evenodd" d="M29.7 54.2v-1.1h4.6v3.8l-1.1.8-1.1.5-1.1.2-1.2.2h-.7l-.7-.2-.8-.2-.7-.3-.6-.4-.5-.4-.4-.5-.4-.6-.2-.7-.3-.7v-3l.3-.5.2-.8.4-.7.4-.3.5-.6.6-.4.7-.1.6-.4h2.6l.5.2.4.2.9.3.6.6.5.7.4 1.1-1.3.2-.4-.6-.1-.5-.6-.6-.6-.1-.7-.4h-1.7l-.7.4-.6.1-.5.6-.4.5-.2.4-.4 1.1-.1 1.1.1.7v.6l.2.5.2.6.2.3.4.4.9.7.9.2 1 .2h.9l.9-.4.8-.3.5-.4v-2h-3.1z"/><path fill-rule="evenodd" clip-rule="evenodd" fill="#FFF" d="M47.1 70.3h18v17.8h-18z"/><path fill="none" stroke="#74D53D" stroke-width=".384" stroke-linecap="square" stroke-miterlimit="10" d="M46.9 70.1h18.4v18.1H46.9z"/><path fill-rule="evenodd" clip-rule="evenodd" fill="#00BE5A" d="M56.6 80.2v-1.3h4.5v3.8l-1.2.8-1.1.5-1.1.4h-1.8l-.8-.2-.7-.2-.6-.2-.7-.3-.4-.6-.6-.5-.3-.6-.2-.5-.2-.8-.2-.7v-1.4l.2-.8.2-.7.2-.7.3-.6.6-.5.4-.4.5-.4.8-.3.5-.2.8-.2h.7l1.1.2h.6l.5.2.8.3.7.8.4.7.4.9-1.3.4-.2-.8-.4-.5-.4-.4-.7-.3-.6-.2h-1.6l-.8.2-.7.3-.6.4-.3.5-.2.6-.4 1.1v2.4l.2.5.2.4.3.5.2.4 1 .5.9.4 1.1.2.7-.2 1-.2.7-.3.6-.4v-2h-3z"/><path fill-rule="evenodd" clip-rule="evenodd" fill="#FFF" d="M73.9 70.3h18v17.8h-18z"/><path fill="none" stroke="#14487E" stroke-width=".384" stroke-linecap="square" stroke-miterlimit="10" d="M73.7 70.1h18.4v18.1H73.7z"/><path fill-rule="evenodd" clip-rule="evenodd" fill="#005ABE" d="M78.9 84.2V73.8h5l.9.4.4.2.2.2.6.5.4.7V77l-.2.4-.2.4-.4.5-.7.4.9.4.4.2.2.4.4.4v.4l.2.4V82l-.4.5-.2.6-.6.5-.6.2-.6.2-.7.2h-5zm1.3-6h3.1l.6-.2.6-.2.2-.2.4-.5v-.9l-.2-.4-.4-.4-.4-.2-.7-.2h-3.1v3.2h-.1zm0 4.9H83l.9-.2h.4l.4-.2.4-.4.2-.2.2-.5v-.9l-.2-.6-.4-.4-.6-.2-.6-.2h-3.5v3.8z"/><path fill-rule="evenodd" clip-rule="evenodd" fill="red" d="M47.1 44.3h18v17.8h-18z"/><path fill="none" stroke="#000" stroke-width=".384" stroke-linecap="square" stroke-miterlimit="10" d="M46.9 44.1h18.4v18.1H46.9z"/><path fill-rule="evenodd" clip-rule="evenodd" fill="#FFF" d="M51.4 58.4V48h5.9l.9.2.4.2.4.2.4.7.4.7.2.4v.9l-.2.5-.2.4-.4.4-.4.4-.6.4-.6.2H57l.7.5.7.5.6.7 1.7 2.9H59L57.5 56l-.9-1.5-.7-.5-.6-.2-.9-.2h-1.5v4.8h-1.5zm1.5-5.9h3.9l.6-.2.2-.2.4-.2.2-.4.4-.4v-.5l-.3-.6-.4-.5-.7-.4h-4.3v3.4zm-5.8 43.6h18v17.8h-18z"/><path fill="none" stroke="#E2001A" stroke-width=".384" stroke-linecap="square" stroke-miterlimit="10" d="M46.9 95.9h18.4V114H46.9z"/><path fill-rule="evenodd" clip-rule="evenodd" fill="red" d="M52 110.2V99.8h5.9l.9.2.4.2.4.2.6.7.2.7.2.4v.9l-.2.5-.2.4-.4.5-.4.2-.6.4-.6.2-.7.2.7.5.7.6.6.7 1.9 2.9h-1.9l-1.3-2.2-1.1-1.5-.7-.7-.6-.2h-2.4v4.6H52zm1.4-5.9h3.9l.6-.2.4-.2.2-.2.4-.4.2-.4v-.5l-.2-.5-.4-.5-.7-.4-.4-.2h-3.9v3.5h-.1z"/><path fill-rule="evenodd" clip-rule="evenodd" fill="#FFF" d="M73.9 96.1h18v17.8h-18z"/><path fill="none" stroke="#74D53D" stroke-width=".384" stroke-linecap="square" stroke-miterlimit="10" d="M73.7 95.9h18.4V114H73.7z"/><path fill-rule="evenodd" clip-rule="evenodd" fill="#00BE5A" d="M83.3 106v-1.1h4.5v3.8l-1.1.8-1.1.5-1.1.2-1.2.2h-.7l-.7-.2-.8-.2-.5-.4-.6-.3-.6-.4-.3-.5-.4-.6-.4-.7-.2-.7-.1-.6v-1.6l.1-.8.2-.5.4-.8.2-.7.5-.4.4-.5.8-.4.5-.2.8-.3h2.6l.3.2.6.1.7.4.8.6.3.7.4 1.1-1.3.2-.2-.6-.3-.5-.4-.6-.6-.2-.7-.3h-1.7l-.7.3-.8.2-.3.6-.4.3-.4.6-.4 1.1v1.8l.2.6v.5l.2.6.4.3.4.4.7.7.9.2 1.1.2h1l.7-.4.9-.3.6-.4v-2h-3.2z"/><path fill="#716F6E" d="M73.9 140.4l-.6-.2-.7-.2-.8-.3-.5-.4-.4-.6-.4-.5-.2-.7v-.6l1.9-.4v.6l.2.2.2.3.2.2.1.2.4.2.4.2h.4z"/><path fill="#716F6E" d="M70.3 122.1h1.9v14.6h-1.9z"/><path fill="#716F6E" d="M70.3 136.7c0-.5.4-.9.9-.9s.9.4.9.9-.4.9-.9.9c-.4 0-.9-.4-.9-.9zm0-14.6v-.7l.2-.8.4-.5.4-.6.5-.3.8-.4.7-.2h.6l.2 1.8h-.4l-.4.2-.4.2-.1.2-.2.4-.2.1-.2.4v.4z"/><path fill="#716F6E" d="M70.3 122.2c0-.6.4-1 .9-1s.9.4.9 1-.4 1-.9 1c-.4 0-.9-.5-.9-1zm3.8-3.6v1.8h14.6v-2l-14.6.2z"/><path fill="#716F6E" d="M73.1 119.5c0-.5.4-.9.9-.9s.9.4.9.9-.4.9-.9.9-.9-.4-.9-.9zm15.6-1.1h.8l.7.2.6.4.5.5.6.4.2.7.3.8v.5l-2 .2v-.7l-.2-.2-.2-.4-.3-.2-.2-.2h-1z"/><path fill="#716F6E" d="M87.8 119.4c0-.6.4-1 .9-1s.9.5.9 1-.4 1-.9 1-.9-.4-.9-1zm2.8 2.7h1.9v14.5h-1.9z"/><path fill="#716F6E" d="M90.6 122c0-.6.4-1 .9-1s.9.4.9 1-.4 1-.9 1-.9-.4-.9-1zm1.8 14.7v.6l-.3.7-.2.6-.6.5-.5.6-.6.1-.7.2-.8.2-.2-2h.8l.4-.2.3-.4.2-.1.2-.4v-.6z"/><path fill="#716F6E" d="M90.6 136.6c0-.6.4-1 .9-1s.9.4.9 1-.4 1-.9 1-.9-.4-.9-1zm-1.9 3.6v-2l-14.6.2v2l14.6-.2z"/><path fill="#716F6E" d="M87.8 139.2c0-.6.4-1 .9-1s.9.4.9 1-.4 1-.9 1-.9-.4-.9-1zm-14.7.2c0-.6.4-1 .9-1s.9.4.9 1-.4 1-.9 1-.9-.5-.9-1z"/><path fill="#005ABE" d="M20.4 122.6h18v17.8h-18z"/><path fill="none" stroke="#000" stroke-width=".384" stroke-linecap="square" stroke-miterlimit="10" d="M20.2 122.5h18.4v18.1H20.2z"/><path fill-rule="evenodd" clip-rule="evenodd" fill="#FFF" d="M25.4 136.5v-10.4h3.9l1.1.2.9.2.2.2.4.2.6.5.4.7v1.2l-.2.4-.2.4-.4.6-.7.4.9.4.4.2.2.4.2.4.2.4.2.4v.5l-.2.7-.2.5-.4.5-.4.5-.6.2-.6.2-.9.2h-4.8v-.1zm1.3-6h3.7l.4-.4.4-.2.2-.6.2-.4-.2-.5-.2-.4-.2-.4-.6-.2-.6-.2h-3.1v3.3zm0 5h2.6l1.1-.2h.4l.4-.2.4-.2.2-.4.2-.5v-.9l-.4-.5-.4-.4-.4-.2-.7-.2h-3.3v3.7h-.1z"/><path fill-rule="evenodd" clip-rule="evenodd" fill="#005ABE" d="M73.9 122.5h18v17.8h-18z"/><path fill="none" stroke="#000" stroke-width=".384" stroke-linecap="square" stroke-miterlimit="10" d="M73.7 122.3h18.4v18.1H73.7z"/><path fill-rule="evenodd" clip-rule="evenodd" fill="#FFF" d="M78.9 136.4V126h5l.9.4.4.2.2.2.6.5.4.7v1.2l-.2.4-.2.4-.4.5-.7.4.9.4.4.2.2.4.2.4.2.4.2.4v1.2l-.4.5-.4.5-.4.4-.6.4-.6.2-.7.2h-5v-.1zm1.3-6.1h3.1l.6-.2.4-.2.4-.2.2-.5.2-.4-.2-.5-.2-.4-.2-.4-.6-.2-.6-.2h-3.1v3.2zm0 5H83l.9-.2h.4l.4-.2.4-.4.2-.2.2-.6v-.9l-.4-.5-.4-.4-.4-.2-.7-.2h-3.3v3.8h-.1z"/><path fill-rule="evenodd" clip-rule="evenodd" fill="#005ABE" d="M73.9 19.1h18v17.8h-18z"/><path fill="none" stroke="#000" stroke-width=".384" stroke-linecap="square" stroke-miterlimit="10" d="M73.7 18.9h18.4V37H73.7z"/><path fill-rule="evenodd" clip-rule="evenodd" fill="#FFF" d="M78.9 33.1V22.7h5l.9.2.4.2.2.4.6.6.4.7V26l-.2.4-.2.2-.4.5-.7.5.9.4.4.2.2.4.4.4v.4l.2.4v.9l-.4.7-.3.6-.6.4-.6.4-.5.2-.7.2h-5v-.1zm1.3-6h3.1l.6-.2.6-.2.2-.4.3-.3v-.9l-.2-.5-.4-.4-.3-.2h-.7l-.9-.2h-2.2v3.3h-.1zm0 4.8h3.7l.4-.2.4-.2.4-.2.2-.4.2-.4v-1l-.2-.4-.4-.4-.6-.2-.6-.2h-3.5v3.6z"/><path fill-rule="evenodd" clip-rule="evenodd" fill="#00BE5A" d="M47.1 122.5h18v17.8h-18z"/><path fill="none" stroke="#000" stroke-width=".384" stroke-linecap="square" stroke-miterlimit="10" d="M46.9 122.3h18.4v18.1H46.9z"/><path fill-rule="evenodd" clip-rule="evenodd" d="M56.4 132.3v-1.2h4.7v3.8l-1.2.7-1.1.6-1.1.3h-1.8l-.8-.1-.7-.2-.6-.2-.7-.4-.6-.5-.4-.6-.3-.5-.2-.6-.4-.7v-2.9l.4-.8.2-.7.3-.5.4-.6.6-.4.5-.3.8-.4.5-.2.8-.1h.7l1.1.1h.6l.5.2.8.4.5.7.6.7.4 1-1.3.3-.4-.7-.2-.6-.5-.3-.6-.4-.7-.2h-1.7l-.8.2-.5.4-.6.3-.3.6-.2.5-.4 1.1-.2 1.1.2.6v.7l.2.6.2.3.3.6.2.4 1 .5.9.4.9.2.9-.2 1-.2.7-.4.6-.3v-2.1h-3.2z"/><path fill-rule="evenodd" clip-rule="evenodd" fill="#00BE5A" d="M74.2 44.7h18v17.8h-18z"/><path fill="none" stroke="#000" stroke-width=".384" stroke-linecap="square" stroke-miterlimit="10" d="M74.1 44.5h18.4v18.1H74.1z"/><path fill-rule="evenodd" clip-rule="evenodd" d="M83.5 54.6v-1.3h4.7v3.8l-1.1.8-1.2.5-1.1.4H83l-.8-.2-.7-.2-.6-.2-.7-.3-.6-.6-.3-.4-.4-.7-.2-.5-.2-.8-.2-.7V52l.4-.7.2-.8.4-.5.3-.6.6-.3.5-.4.8-.4.5-.1.8-.2h.7l1.1.2h.6l.6.1.7.6.6.5.5.8.4.9-1.3.3-.4-.7-.2-.5-.5-.4-.6-.4-.7-.1h-1.7l-.7.1-.6.4-.6.4-.3.5-.2.6-.4 1.1-.2 1.1.2.5v.7l.2.6.2.4.4.5.1.4 1 .5.9.4.9.2 1-.2.9-.2.7-.4.6-.3v-2h-3.2z"/><path fill="#716F6E" d="M21.1 117.3l-.7-.1-.8-.2-.7-.2-.6-.4-.5-.5-.4-.6-.2-.7-.2-.6 2.1-.3v.3l.2.4v.2l.3.2.2.3h.6l.3.2h.6z"/><path fill="#716F6E" d="M17 18.9h2v95h-2z"/><path fill="#716F6E" d="M17 113.9c0-.5.5-.9 1-.9s1 .4 1 .9-.5.9-1 .9-1-.4-1-.9zm0-95.2l.2-.6.2-.7.4-.5.5-.6.6-.4.7-.3.8-.2h.7l.2 2h-1.1l-.4.2-.2.2-.3.3v.2l-.2.4v.4z"/><path fill="#716F6E" d="M17 18.9c0-.5.5-.9 1-.9s1 .4 1 .9-.5.9-1 .9-1-.4-1-.9zm4.1-3.5v2l16.7-.2v-2l-16.7.2z"/><path fill="#716F6E" d="M20.2 16.4c0-.6.5-1 1-1 .6 0 1 .4 1 1s-.5 1-1 1c-.6 0-1-.4-1-1zm17.6-1.2h.8l.7.2.8.4.5.3.6.6.3.5.4.8v.5l-2 .2v-.6l-.2-.1-.2-.2-.4-.4h-.3l-.6-.2h-.6z"/><path fill="#716F6E" d="M36.9 16.2c0-.6.4-1 .9-1s.9.4.9 1-.4 1-.9 1-.9-.4-.9-1zm3.2 2.5H42v95h-1.9z"/><path fill="#716F6E" d="M40.1 18.7c0-.5.4-.9.9-.9s.9.4.9.9-.4.9-.9.9-.9-.4-.9-.9zm1.8 95v.7l-.4.7-.3.6-.6.5-.5.4-.8.4-.7.2h-.8l-.2-2.1h1l.5-.1.2-.2.4-.4.2-.2v-.7z"/><path fill="#716F6E" d="M40.1 113.7c0-.5.4-.9.9-.9s.9.4.9.9-.4.9-.9.9-.9-.4-.9-.9zm-2.3 3.5v-2.1l-16.7.2v2l16.7-.1z"/><path fill="#716F6E" d="M36.9 116.1c0-.6.4-1 .9-1s.9.4.9 1-.4 1-.9 1c-.5.1-.9-.4-.9-1zm-16.7.2c0-.6.5-1 1-1 .6 0 1 .4 1 1s-.5 1-1 1c-.6 0-1-.4-1-1zm27.3 1h-.7l-.8-.1-.7-.4-.6-.4-.5-.3-.6-.8-.2-.5v-.8l1.9-.1v.3l.2.2.1.4.2.2.4.1.4.2.5.2h.6zm-4.1-98.4h1.9v95h-1.9z"/><path fill="#716F6E" d="M43.4 113.9c0-.6.4-1 .9-1s.9.4.9 1-.4 1-.9 1c-.5.1-.9-.4-.9-1zm0-95v-.8l.2-.7.6-.5.1-.2.4-.4.6-.4.7-.1.8-.2.7-.2.2 2h-.6l-.5.2-.4.2-.4.2-.2.1-.1.4-.2.2v.4z"/><path fill="#716F6E" d="M43.4 19c0-.6.4-1 .9-1s.9.4.9 1-.4 1-.9 1-.9-.5-.9-1zm4.1-3.6v2l17.3-.2v-1.8H47.5z"/><path fill="#716F6E" d="M46.6 16.4c0-.6.5-1 1-1 .6 0 1 .4 1 1s-.5 1-1 1c-.6 0-1-.4-1-1zm18.2-1h.9l.6.2.7.3.7.4.6.4.4.7.3.7v.6l-2 .2v-.6l-.2-.2-.4-.3-.3-.2-.4-.2-.4-.2h-.5z"/><path fill="#716F6E" d="M63.8 16.3c0-.5.5-.9 1-.9.6 0 1 .4 1 .9s-.5.9-1 .9-1-.4-1-.9zm3.2 2.6h2v95h-2z"/><path fill="#716F6E" d="M67 18.8c0-.6.5-1 1-1 .6 0 1 .4 1 1s-.5 1-1 1-1-.5-1-1zm2 95.1v.7l-.3.5-.4.6-.4.4-.2.3-.7.4-.6.2-.7.2-.7.1-.2-2h.5l.4-.2.4-.1.3-.2h.2v-.2l.4-.4v-.5z"/><path fill="#716F6E" d="M67 113.8c0-.6.5-1 1-1 .6 0 1 .4 1 1s-.5 1-1 1-1-.5-1-1zm-2.2 3.5v-2l-17.3.2v2l17.3-.2z"/><path fill="#716F6E" d="M63.8 116.3c0-.6.5-1 1-1 .6 0 1 .4 1 1s-.5 1-1 1-1-.4-1-1zm-17.2.2c0-.6.5-1 1-1 .6 0 1 .4 1 1s-.5 1-1 1c-.6 0-1-.4-1-1zm1.3 23.9h-.8l-.9-.2-.6-.4-.7-.3-.4-.4-.3-.4-.2-.3-.2-.8v-.7l1.8-.2v.4l.2.4v.1h.2l.2.4.4.2.3.2.6.2h.6z"/><path fill="#716F6E" d="M43.8 122.3h1.9v14.6h-1.9z"/><path fill="#716F6E" d="M43.8 136.8c0-.6.4-1 .9-1s.9.4.9 1-.4 1-.9 1-.9-.4-.9-1zm0-14.7v-.7l.4-.8.3-.5.4-.6.7-.3.6-.4.9-.2h.8v1.8h-.4l-.6.2-.3.2-.4.2-.2.4-.2.1-.2.4v.4z"/><path fill="#716F6E" d="M43.8 122.2c0-.6.4-1 .9-1s.9.4.9 1-.4 1-.9 1-.9-.5-.9-1zm4.1-3.6v1.8h16.7v-2l-16.7.2z"/><path fill="#716F6E" d="M46.9 119.5c0-.5.5-.9 1-.9.6 0 1 .4 1 .9s-.5.9-1 .9-1-.4-1-.9zm17.7-1.1h.7l1 .2.5.4.6.3.5.6.2.4.4.3.2.6v.7l-2.1.2v-.7l-.2-.2-.3-.2-.2-.4-.4-.2h-1.1z"/><path fill="#716F6E" d="M63.7 119.4c0-.6.4-1 .9-1s.9.5.9 1-.4 1-.9 1-.9-.4-.9-1zm3.1 2.7h1.9v14.6h-1.9z"/><path fill="#716F6E" d="M66.8 122c0-.6.4-1 .9-1s.9.4.9 1-.4 1-.9 1-.9-.4-.9-1zm1.9 14.7v.8l-.4.7-.4.5-.5.6-.6.5-.5.2-1 .2-.7.2-.2-2h.6l.5-.2.4-.2.2-.2.3-.2.2-.3v-.8z"/><path fill="#716F6E" d="M66.8 136.7c0-.5.4-.9.9-.9s.9.4.9.9-.4.9-.9.9-.9-.4-.9-.9zm-2.2 3.7v-2l-16.7.2v2l16.7-.2z"/><path fill="#716F6E" d="M63.7 139.4c0-.6.4-1 .9-1s.9.4.9 1-.4 1-.9 1-.9-.5-.9-1zm-16.8.2c0-.6.5-1 1-1 .6 0 1 .4 1 1s-.5 1-1 1-1-.5-1-1zm-25.8 1l-.7-.2-.8-.2-.5-.2-.8-.5-.3-.4-.4-.4-.2-.3-.2-.8v-.5l1.9-.4v.6l.2.3.1.2.2.2.4.2.4.2.3.2h.6z"/><path fill="#716F6E" d="M17.2 122.3h1.9v14.6h-1.9z"/><path fill="#716F6E" d="M17.2 136.9c0-.5.4-.9.9-.9s.9.4.9.9-.4.9-.9.9-.9-.4-.9-.9zm0-14.8v-.7l.2-.8.4-.5.5-.6.8-.3.5-.4.8-.2h.7l.2 1.8h-.6l-.3.2-.4.2-.4.2-.2.4-.1.1-.2.4v.4z"/><path fill="#716F6E" d="M17.2 122.2c0-.6.4-1 .9-1s.9.4.9 1-.4 1-.9 1-.9-.5-.9-1zm4.1-3.6v1.8H38v-2l-16.7.2z"/><path fill="#716F6E" d="M20.4 119.5c0-.5.4-.9.9-.9s.9.4.9.9-.4.9-.9.9-.9-.4-.9-.9zm17.6-1.1h.8l.7.2.8.4.5.3.6.6.1.4.2.3.4.8v.5l-2 .2v-.4l-.2-.3v-.2l-.4-.2-.2-.4-.5-.2h-1z"/><path fill="#716F6E" d="M36.9 119.4c0-.6.5-1 1-1 .6 0 1 .5 1 1s-.5 1-1 1-1-.4-1-1zm3.4 2.7h1.9v14.6h-1.9z"/><path fill="#716F6E" d="M40.3 122c0-.6.4-1 .9-1s.9.4.9 1-.4 1-.9 1-.9-.4-.9-1zm1.8 14.9v.6l-.4.7-.3.5-.6.6-.5.5-.8.2-.7.4H38l-.2-2h.6l.4-.2h.5l.2-.4.4-.2v-.3l.2-.2v-.4z"/><path fill="#716F6E" d="M40.3 136.8c0-.6.4-1 .9-1s.9.4.9 1-.4 1-.9 1-.9-.4-.9-1zm-2.3 3.6v-2l-16.7.2v2l16.7-.2z"/><path fill="#716F6E" d="M36.9 139.4c0-.6.5-1 1-1 .6 0 1 .4 1 1s-.5 1-1 1-1-.5-1-1zm-16.5.2c0-.6.4-1 .9-1s.9.4.9 1-.4 1-.9 1-.9-.5-.9-1z"/><path fill-rule="evenodd" clip-rule="evenodd" fill="#FFF" d="M15.4 133.8l25.6 1.5 41-1.1 5.8-.4-6.3-25.4 3-23.6L81.3 15h11.3l.2 126.1-77.6-.3.2-7z"/><path fill="none" stroke="#FFF" stroke-width=".128" stroke-linecap="square" stroke-miterlimit="10" d="M15.4 133.8l25.6 1.5 41-1.1 5.8-.4-6.3-25.4 3-23.6L81.3 15h11.3l.2 126.1-77.6-.3.2-7"/><path fill="#FFF" d="M30 48l-5-14.3L20.2 48H30z"/><path fill-rule="evenodd" clip-rule="evenodd" fill="#FFF" d="M22.8 46.5l.2 34.2h4.2l.2-34.2h-4.6z"/><path fill-rule="evenodd" clip-rule="evenodd" d="M23.9 47.1v32.3h2.2V47.1h-2.2z"/><path d="M28.7 47.1L25 36.4l-3.5 10.7h7.2z"/><path fill="#FFF" d="M38.8 72.9l-5.1-14.3-5 14.3h10.1z"/><path fill-rule="evenodd" clip-rule="evenodd" fill="#FFF" d="M31.5 71.4v34.2h4.3l.2-34.2h-4.5z"/><path fill-rule="evenodd" clip-rule="evenodd" d="M32.6 71.9v32.4h2.3V71.9h-2.3z"/><path d="M37.3 71.9l-3.6-10.6-3.5 10.6h7.1z"/><path fill="#FFF" d="M56.6 48l-5-14.5-5 14.5h10z"/><path fill-rule="evenodd" clip-rule="evenodd" fill="#FFF" d="M49.4 46.3v34.2h4.4V46.3h-4.4z"/><path fill-rule="evenodd" clip-rule="evenodd" d="M50.5 46.9v32.4h2.2V46.9h-2.2z"/><path d="M55.1 46.9l-3.5-10.6-3.5 10.6h7z"/><path fill="#FFF" d="M65.1 72.9l-4.8-14.5-5 14.5h9.8z"/><path fill-rule="evenodd" clip-rule="evenodd" fill="#FFF" d="M57.9 71.2l.2 34.2h4.3l.1-34.2h-4.6z"/><path fill-rule="evenodd" clip-rule="evenodd" d="M59 71.8v32.4h2.4V71.8H59z"/><path d="M63.8 71.8l-3.7-10.7-3.5 10.7h7.2z"/><text transform="translate(138.334 78.075)" font-family="Helvetica,Arial,sans-serif" font-size="12">Vertical color binning by 2</text></svg>