<svg version="1.0" xmlns="http://www.w3.org/2000/svg" viewBox="0 0 540 540"><path fill="none" stroke="#000" stroke-width=".85" stroke-miterlimit="3.864" d="M424 189.2l-9.8-3 9.8-3.1zm-265.2-6l9.8 3.1-9.8 3zM71 23.7L84.5 28 71 32.1z"/><path fill="none" stroke="#000" stroke-width="2.5" stroke-miterlimit="3.864" d="M51.2 501.8h453.2"/><path d="M501.5 506l15.7-4.2-15.7-4.2z"/><path fill="none" stroke="#000" stroke-width=".709" stroke-miterlimit="3.864" d="M50 149.8h5.5"/><g fill="none" stroke="#000" stroke-width="1.559" stroke-miterlimit="3.864" stroke-dasharray="2.835"><path clip-rule="evenodd" d="M55.5 340.5h140.6m0-58.9h263"/><path d="M196.1 281.6v58.9m263-58.9v58.9"/><path clip-rule="evenodd" d="M459.1 340.5h58.1"/></g><path clip-rule="evenodd" fill="none" stroke="#000" stroke-width=".709" stroke-miterlimit="3.864" d="M55.5 281.7v58.9h461.7"/><path fill="none" stroke="#000" stroke-width=".709" stroke-miterlimit="3.864" d="M50 281.6h5.5"/><path fill="none" stroke="#000" stroke-width=".85" stroke-miterlimit="3.864" d="M203.8 323.1h19"/><path d="M205.5 325.6l-9.2-2.5 9.2-2.5z"/><path fill="none" stroke="#000" stroke-width=".85" stroke-miterlimit="3.864" d="M164.2 323.1h-29.9"/><path d="M162.5 320.6l9.2 2.5-9.2 2.5z"/><path fill="none" stroke="#000" stroke-width=".85" stroke-miterlimit="3.864" d="M466.8 323.1h18.9"/><path d="M468.5 325.6l-9.2-2.5 9.2-2.5z"/><path fill="none" stroke="#000" stroke-width=".85" stroke-miterlimit="3.864" d="M404.1 323.1H375"/><path d="M402.5 320.6l9.2 2.5-9.2 2.5z"/><g fill="none" stroke="#000" stroke-width="1.559" stroke-miterlimit="3.864" stroke-dasharray="2.835"><path clip-rule="evenodd" d="M55.5 472.2h124.3m0-58.9h236"/><path d="M179.8 413.3v58.9m236-58.9v58.9"/><path clip-rule="evenodd" d="M415.8 472.2h101.4"/></g><path clip-rule="evenodd" fill="none" stroke="#000" stroke-width=".709" stroke-miterlimit="3.864" d="M55.4 413.3v58.9h454.2"/><path fill="none" stroke="#000" stroke-width=".709" stroke-miterlimit="3.864" d="M50 413.3h5.4m454.2 58.9h5.4"/><path fill="none" stroke="#000" stroke-width=".85" stroke-miterlimit="3.864" d="M187.5 454.8h18.9"/><path d="M189.1 457.3l-9.2-2.5 9.2-2.5z"/><path fill="none" stroke="#000" stroke-width=".85" stroke-miterlimit="3.864" d="M423.5 454.8h18.9"/><path d="M425.2 457.3l-9.2-2.5 9.2-2.5z"/><path fill="none" stroke="#000" stroke-width=".85" stroke-miterlimit="3.864" d="M404.1 454.8H375"/><path d="M402.4 452.3l9.2 2.5-9.2 2.5z"/><path fill="none" stroke="#000" stroke-width=".85" stroke-miterlimit="3.864" d="M164 454.8h-29.7"/><path d="M162.3 452.3l9.2 2.5-9.2 2.5z"/><path fill="none" stroke="#000" stroke-width=".709" stroke-miterlimit="3.864" d="M55.5 140.2v43.4"/><path d="M53.4 141.6l2.1-7.7 2.1 7.7z"/><path fill="none" stroke="#000" stroke-width=".567" stroke-miterlimit="3.864" d="M170.4 323.1h27.2m211.2 0h53.5M162.1 454.8h27.2m211.6 0h27.3"/><path clip-rule="evenodd" fill="none" stroke="#000" stroke-width="1.559" stroke-miterlimit="3.864" d="M517.2 208.9h-83l-59.1-59H208.3l-59 59H55.5"/><path d="M171.7 179.7v292.4m240-292.4v292.4" fill="none" stroke="#262626" stroke-width="1.001" stroke-miterlimit="3.864" stroke-dasharray="12.7559,7.0866"/><path clip-rule="evenodd" fill="none" stroke="#000" stroke-width=".709" stroke-miterlimit="3.864" d="M55.5 149.8v59.1h461.7"/><path fill="none" stroke="#000" stroke-width=".709" stroke-miterlimit="3.864" d="M50 173.4h5.5m-5.5 26h5.5"/><text transform="translate(39.348 213.807)" font-family="Helvetica,Arial,sans-serif" font-size="12">0</text><text transform="translate(39.348 344.307)" font-family="Helvetica,Arial,sans-serif" font-size="12">0</text><text transform="translate(39.348 285.307)" font-family="Helvetica,Arial,sans-serif" font-size="12">1</text><text transform="translate(39.348 474.307)" font-family="Helvetica,Arial,sans-serif" font-size="12">0</text><text transform="translate(39.348 415.307)" font-family="Helvetica,Arial,sans-serif" font-size="12">1</text><text transform="translate(96 32.122)" font-family="Helvetica,Arial,sans-serif" font-size="12">= Signal threshold</text><text transform="translate(97 54.071)" font-family="Helvetica,Arial,sans-serif" font-size="12">= Low-to-high propagation delay</text><text transform="translate(70.259 52.071)" font-family="Helvetica,Arial,sans-serif" font-size="12">t</text><text transform="matrix(.583 0 0 .583 74.179 56.067)" font-family="Helvetica,Arial,sans-serif" font-size="12">PLH</text><text transform="translate(141.092 444.834)" font-family="Helvetica,Arial,sans-serif" font-size="12">t</text><text transform="matrix(.583 0 0 .583 145.012 448.83)" font-family="Helvetica,Arial,sans-serif" font-size="12">PLH</text><text transform="translate(141.092 314.093)" font-family="Helvetica,Arial,sans-serif" font-size="12">t</text><text transform="matrix(.583 0 0 .583 145.012 318.089)" font-family="Helvetica,Arial,sans-serif" font-size="12">PLH</text><text transform="translate(70.926 72.738)" font-family="Helvetica,Arial,sans-serif" font-size="12">t</text><text transform="matrix(.583 0 0 .583 74.846 76.734)" font-family="Helvetica,Arial,sans-serif" font-size="12">PHL</text><text transform="translate(380.846 314.093)" font-family="Helvetica,Arial,sans-serif" font-size="12">t</text><text transform="matrix(.583 0 0 .583 384.766 318.089)" font-family="Helvetica,Arial,sans-serif" font-size="12">PHL</text><text transform="translate(380.848 444.835)" font-family="Helvetica,Arial,sans-serif" font-size="12">t</text><text transform="matrix(.583 0 0 .583 384.768 448.832)" font-family="Helvetica,Arial,sans-serif" font-size="12">PHL</text><text transform="translate(98 75.166)" font-family="Helvetica,Arial,sans-serif" font-size="12">= High-to-low propagation delay</text><text transform="translate(174.348 273.166)" fill="#68BD45" font-family="Helvetica,Arial,sans-serif" font-size="11">Fast edge</text><text transform="translate(54.97 251.666)"><tspan x="0" y="0" font-family="Helvetica,Arial,sans-serif" font-size="12">Internal line status</tspan><tspan x="0" y="14.4" font-family="Helvetica,Arial,sans-serif" font-size="12">(</tspan><tspan x="4.1" y="14.4" font-family="Helvetica,Arial,sans-serif" font-weight="bold" font-size="12">opto-coupled</tspan><tspan x="76.1" y="14.4" font-family="Helvetica,Arial,sans-serif" font-size="12"> line)</tspan></text><text transform="translate(54.97 120.666)" font-family="Helvetica,Arial,sans-serif" font-size="12">Analog signal</text><text transform="translate(54.97 384.666)"><tspan x="0" y="0" font-family="Helvetica,Arial,sans-serif" font-size="12">Internal line status</tspan><tspan x="0" y="14.4" font-family="Helvetica,Arial,sans-serif" font-size="12">(</tspan><tspan x="4.1" y="14.4" font-family="Helvetica,Arial,sans-serif" font-weight="bold" font-size="12">GPIO</tspan><tspan x="31.8" y="14.4" font-family="Helvetica,Arial,sans-serif" font-size="12"> line)</tspan></text><text transform="translate(488.16 526.5)" font-family="Helvetica,Arial,sans-serif" font-weight="bold" font-size="12">Time</text><text transform="rotate(-90 112.008 83.34)" font-family="Helvetica,Arial,sans-serif" font-size="12">Voltage</text><text transform="rotate(-90 184.054 155.387)" font-family="Helvetica,Arial,sans-serif" font-size="12">Logic level</text><text transform="rotate(-90 247.888 219.22)" font-family="Helvetica,Arial,sans-serif" font-size="12">Logic level</text><text transform="translate(414.96 406.833)" fill="#68BD45" font-family="Helvetica,Arial,sans-serif" font-size="11">Fast edge</text><path clip-rule="evenodd" fill="none" stroke="#000" stroke-miterlimit="10" d="M55.8 14h229.3v74.7H55.8z"/><text transform="translate(414.961 274.166)" fill="#E2001A" font-family="Helvetica,Arial,sans-serif" font-size="11">Slow edge</text><text transform="translate(174.348 404.832)" fill="#E2001A" font-family="Helvetica,Arial,sans-serif" font-size="11">Slow edge</text></svg>