<svg version="1.0" xmlns="http://www.w3.org/2000/svg" xmlns:xlink="http://www.w3.org/1999/xlink" viewBox="0 94.5 400 400"><path fill="#FFF" d="M59.7 385h322V135.7h-322V385z"/><path fill="none" stroke="#000" stroke-linecap="square" d="M59.7 385h322m-322-249.3h322m.1 249.3V135.7M59.7 385V135.7"/><path stroke="#000" stroke-width=".5" stroke-linejoin="round" d="M59.7 385v-2.9m0-246.4v2.9M122.9 385v-2.9m0-246.4v2.9M186 385v-2.9m0-246.4v2.9M249.2 385v-2.9m0-246.4v2.9M312.3 385v-2.9m0-246.4v2.9M375.4 385v-2.9m0-246.4v2.9M59.7 385h2.9m319.2 0h-2.9M59.7 336.1h2.9m319.2 0h-2.9M59.7 287.2h2.9m319.2 0h-2.9M59.7 238.3h2.9m319.2 0h-2.9M59.7 189.4h2.9m319.2 0h-2.9M59.7 140.6h2.9m319.2 0h-2.9"/><defs><path id="a" d="M59.7 135.7h322V385h-322z"/></defs><clipPath id="b"><use xlink:href="#a" overflow="visible"/></clipPath><path clip-path="url(#b)" fill="none" stroke="#006AB3" stroke-linecap="square" stroke-linejoin="round" d="M59.7 385l322-249.3h0"/><defs><path id="c" d="M59.7 135.7h322V385h-322z"/></defs><clipPath id="d"><use xlink:href="#c" overflow="visible"/></clipPath><g clip-path="url(#d)"><path fill="green" stroke="#000" stroke-width=".5" stroke-linejoin="round" d="M220.7 262.5c.6 0 1.1-.2 1.5-.6.4-.4.6-1 .6-1.5 0-.6-.2-1.1-.6-1.5-.4-.4-1-.6-1.5-.6s-1.1.2-1.5.6c-.4.4-.6 1-.6 1.5 0 .6.2 1.1.6 1.5.4.4 1 .6 1.5.6z"/></g><text transform="translate(39.997 340.35)" font-family="Helvetica,Arial,sans-serif" font-size="13">50</text><text transform="translate(115.74 402.154)" font-family="Helvetica,Arial,sans-serif" font-size="13">50</text><text transform="translate(32.775 291.364)" font-family="Helvetica,Arial,sans-serif" font-size="13">100</text><text transform="translate(175.255 402.154)" font-family="Helvetica,Arial,sans-serif" font-size="13">100</text><text transform="translate(32.775 242.378)" font-family="Helvetica,Arial,sans-serif" font-size="13">150</text><text transform="translate(238.382 402.154)" font-family="Helvetica,Arial,sans-serif" font-size="13">150</text><text transform="translate(32.775 193.39)" font-family="Helvetica,Arial,sans-serif" font-size="13">200</text><text transform="translate(301.508 402.155)" font-family="Helvetica,Arial,sans-serif" font-size="13">200</text><text transform="translate(32.775 144.404)" font-family="Helvetica,Arial,sans-serif" font-size="13">250</text><text transform="translate(364.634 402.154)" font-family="Helvetica,Arial,sans-serif" font-size="13">250</text><text transform="translate(47.22 402.154)" font-family="Helvetica,Arial,sans-serif" font-size="13">0</text><g fill="none" stroke="#000" stroke-linecap="square" stroke-linejoin="round"><path stroke-dasharray="12,6" d="M59.7 120.2v8.3m322.1-8.3v8.3"/><path d="M59.7 124.3h322.1"/></g><text transform="translate(179.591 116.044)" font-family="Helvetica,Arial,sans-serif" font-size="13">Dynamic range</text><text transform="translate(167.258 422.044)" font-family="Helvetica,Arial,sans-serif" font-size="13">Input pixel values</text><text transform="rotate(-90 169.318 147.727)" font-family="Helvetica,Arial,sans-serif" font-size="13">Output pixel values</text><text transform="translate(57.924 447.377)"><tspan x="0" y="0" fill="#F99D33" font-family="Helvetica,Arial,sans-serif" font-weight="bold" font-size="13">Contrast = 0</tspan><tspan x="0" y="15.6" font-family="Helvetica,Arial,sans-serif" font-size="13">Brightness = 0</tspan><tspan x="0" y="31.2" font-family="Helvetica,Arial,sans-serif" font-size="13">Linear contrast mode</tspan></text><text transform="translate(246.153 462.977)"><tspan x="0" y="0" font-family="Helvetica,Arial,sans-serif" font-size="13">8-bit pixel values shown</tspan><tspan x="0" y="15.6" font-family="Helvetica,Arial,sans-serif" font-size="13">as an example</tspan></text></svg>