<svg version="1.0" xmlns="http://www.w3.org/2000/svg" viewBox="0 0 1000 581.8"><path fill="#F6F6F6" d="M190 220.4V52l-59.9.5v-5.9h65.5v154h5.4c2.2 0 4 .2 4.3 4.4 0 .5.1 4.3.1 10.7h10.1v-45.2h26s.7 1.1 1.8 1.1.6-2.5 2.2-2.4c1.6.1 2.2 1.8 2.2 1.8s.1-.9 1.6-.8c1.4.1 1.3 1.3 2.1 1.2.8-.1.7-1.1 2-1.1 1.3.1 1.2.9 1.9.9s.6-1.1 1.3-1.1c.7.1 2.1.9 2.5.9.4 0-.2-2.2 1.7-2.1 1.9.1 1.3 2.7 2.3 2.5 1-.2.9-.8.9-.8h318.4s.6.4 2 .2c1.4-.1 1.5-2.4 2.6-2.4s.9 2.4 1.8 2.4c.9.1.7-2 1.8-2s.9 2.3 2 2.4c1.1.1.5-2.4 1.8-2.4 1.2 0 .9 2.6 2 2.6s.9-2 2-1.9c1.1 0-.3 2.3 1.5 2.1 1.8-.1 1-2.2 2.5-2.1 1.5 0 .1 2.5 1.9 2.3 1.8-.1 1.4-1.2 1.4-1.2h336.6c.8 0 .7 1.6 1.5 1.6s.9-2.6 2.6-2.4c1.7.2.7 2.4 1.6 2.5.8.1.5-1.8 1.9-1.6 1.3.2.7 1.5 1.7 1.4.9-.1 1.2-.9 2.2-.9 1 .1 1.3 1.3 2 1.3s.7-1.8 1.8-1.7c1 .1 1.1 1.3 1.8 1.3.7-.1.9-.6 1-2.1 1.3-1.3 2.4-.1 2.4.5s.4 1.8 1.3 1.8 1.1-1.8 1.1-1.8h11.7c.9 0 1.1.9 1.1 1.4v251.9c0 .4 0 1.6-1.3 1.6h-35.3l-1.1.1h-.6v2.8l-2.7-1.4v-1.5h-.9v1.6h-3v-1.6h-.8v1.6h-3.1v-1.8h-.7v2h-3.1v-1.7h-1.3v2.8l-2.7-1.5v-1.4h-.9v.1s-336.3-.3-339.5 0c-3.2.3-5.7 1.3-5.7 4.8v49.4l-3 3h-90.8l-2.9-2.9v-31.5c.1-6.9-8.2-6.8-8.2-.5v29.3l-.8 3.2-2.2 2.2h-46l-2.5-2.5v-48c-.3-3.4-3-6.3-7.3-6.6-3.6.2-8.3 1.9-8.3 5.9v30.2l-.9.9H394v-1.5h-1.3v2.4h-2.4v-2.2h-1.6v1.8h-2.2V461h-1.6v1.9h-2.1V461h-2v1.7H379v-1.5h-2v2.1h-2.1V462s-.6-1.4-1.5-1.5c-.9-.1-.9 1.2-.9 1.2h-6.9v-32.4c0-1.4-.7-3.9-3.5-4h-74.9c-2.9.1-3.7 1.1-3.7 2.8v31.6l-1.1 1.2h-24.1v-1.2h-.9v2.3h-3.2v-2.3h-1.1v1.3h-2.5v-1h-.9v2h-3.1v-2h-.9v2H243v-1.3c-.4-1.5-1.1 0-1.1 0v1.3h-3.1v-1s0-.8-1-.7c-1 .1-1 .7-1 .7h-21.2l-.1-7.3h-10.1V471c0 3.2-3.1 5.1-5.6 4.9h-5.7v61.8h-4V371.5l-1.7-.5-1.3.5-1.9-2.8H167s-.2-2.2-2.1-2.2c-1.8 0-2.1 2.2-2.1 2.2h-5.7v-17.9h5.7s.3 2.2 2.1 2.2 2.1-2.2 2.1-2.2h18.1l1.9-2.8 1.3.5 1.7-.5v-29.7h-21v-15h21v-8.1h-7.8v-53.4h7.8v-6.4h-21v-15h21z"/><path d="M205.4 344.6H239v30.1h-33.6m-20.3-24v18m-18.1-18v18m-4.2-18v18m27.1-57.9H169m20.9-82.9H169m808.561 10.784h-58.5v-63.7h58.5zm-58.52-8.476h-30.6v-4.6h30.6zm0-21.025h-30.6v-4.6h30.6zm0-21.125h-30.6v-4.6h30.6zM939.1 266.7c0-7.7 6.3-14 14-14s14 6.3 14 14-6.3 14-14 14-14-6.2-14-14zm-636.4 23.4c0-5 4-9 9-9s9 4 9 9-4 9-9 9-9-4.1-9-9zm636.4 88.6c0-7.7 6.3-14 14-14s14 6.3 14 14-6.3 14-14 14-14-6.3-14-14zm-364.4 78.1H478m-8.2 0h-51.6m66.1.6v16.8h-3.4v-16.8m7.9 0v16.8h-3.3v-16.8m7.9 0v16.8h-3.3v-16.8m7.9 0v16.8h-3.4v-16.8m8 0v16.8h-3.4v-16.8m8 0v13h-3.4v-13m8 0v16.8h-3.4v-16.8m8 0v16.8H513v-16.8m8 0v16.8h-3.4v-16.8m7.9 0v16.8h-3.3v-16.8m7.9 0v16.8h-3.3v-16.8m7.9 0v16.8h-3.4v-16.8m8 0v16.8h-3.4v-16.8m8 0v16.8h-3.4v-16.8m8 0v16.8h-3.4v-16.8m8 0v16.8h-3.4v-16.8m-119.7 0v16.8h-3.4v-16.8m-1.6 0v16.8h-3.4v-16.8m13 0v16.8h-3.4v-16.8m7.9 0v16.8h-3.3v-16.8m7.9 0v16.8h-3.3v-16.8m7.9 0v16.8h-3.4v-16.8m8 0v16.8h-3.4v-16.8m8 0v16.8h-3.4v-16.8m8 0v16.8h-3.4v-16.8m8 0v16.8h-3.4v-16.8m94.4 0v16.8h-3.4v-16.8m7.9 0v16.8h-3.3v-16.8m7.9 0v13h-3.3v-13m7.9 0v16.8H568v-16.8M258.4 345h18.8c1.4 0 2.6-1.2 2.6-2.6v-14.6c0-1.4-1.2-2.6-2.6-2.6h-18.8c-1.4 0-2.6 1.2-2.6 2.6v14.6c0 1.4 1.2 2.6 2.6 2.6zm57.9-103.4h21.9c1.9 0 3.4-1.5 3.4-3.4v-21.9c0-1.9-1.5-3.4-3.4-3.4h-21.9c-1.9 0-3.4 1.5-3.4 3.4v21.9c0 1.9 1.5 3.4 3.4 3.4zm15.6 67.2h13.3c1.1 0 2.1-.9 2.1-2.1v-13.3c0-1.1-.9-2.1-2.1-2.1h-13.3c-1.1 0-2.1.9-2.1 2.1v13.3c.1 1.2 1 2.1 2.1 2.1zm-17.312 78.123v-16.7h22v16.7zM316.7 370.2v-7.5m6 7.5v-7.5m6 7.5v-7.5m6 7.5v-7.5m-18 32v-7.6m6 7.6v-7.6m6 7.6v-7.6m6 7.6v-7.6m-59.704-161.116v-16.7h22v16.7zM277.1 209.3v-7.6m6 7.6v-7.6m6 7.6v-7.6m6 7.6v-7.6m-18 32.1v-7.6m6 7.6v-7.6m6 7.6v-7.6m6 7.6v-7.6m-33.127 37.02v-18.8h24v18.8zm2.327-18.72V236m6.5 8.5V236m6.6 8.5V236m6.5 8.5V236m-19.6 36v-8.5m6.5 8.5v-8.5m6.6 8.5v-8.5m6.5 8.5v-8.5m4.547-.207v-18.8h24v18.8zM290.8 244.5V236m6.5 8.5V236m6.5 8.5V236m6.6 8.5V236m-19.6 36v-8.5m6.5 8.5v-8.5m6.5 8.5v-8.5m6.6 8.5v-8.5m582.885 78.893h-8.1v-22.7h8.1zm-.085-3.693h-8.1m8.1-15.3h-8.1m19.624 18.993h-8.1v-22.7h8.1zm-.024-3.693h-8.1m8.1-15.3h-8.1m-88.531 87.196h-8.1v-22.7h8.1zm.031-3.796H800m8.1-15.2H800m19.507 18.996h-8.1v-22.7h8.1zm-.007-3.796h-8m8-15.2h-8m35.604-52.203v8.1h-22.7v-8.1zm-3.804.003v8m-15.2-8v8m18.934-19.472v8.1h-22.7v-8.1zm-3.734-.028v8.1m-15.2-8.1v8.1m18.965-19.541v8.1h-22.7v-8.1zm-3.765-.059v8.1m-15.2-8.1v8.1m46.148 14.853v8.1h-22.7v-8.1zm-3.748.047v8m-15.3-8v8m76.06-4.945v8.1h-18.3v-8.1zm-2.96-.055v8.1m-12.4-8.1v8.1m6.317-99.158v12.1h-18.3v-12.1zm-2.917.058v12.1m-12.4-12.1v12.1m-62.004 137.09v8.1h-18.3v-8.1zm-2.996-.09v8.1m-12.4-8.1v8.1m15.326-19.48v8.1h-18.3v-8.1zm-2.926-.02v8.1m-12.4-8.1v8.1m49.757 2.234v8.1h-18.3v-8.1zm-2.957-.034v8.1m-12.4-8.1v8.1m89.246-8.055v8.1h-18.3v-8.1zm-2.946-.045v8.1m-12.4-8.1v8.1m-63.622-79.616v8.1h-22.7v-8.1zm-3.678.016v8.1m-15.3-8.1v8.1m19.009-19.586v8.1h-22.7v-8.1zm-3.709-.014v8.1m-15.3-8.1v8.1m-42.1-109.237H805v-17.5h8.1zm0-2.863h-8m8-11.7h-8m19.539 14.563h-8.1v-17.5h8.1zm-.039-2.863h-8.1m8.1-11.7h-8.1m-4.339 144.054h-8.1v-17.5h8.1zm-.061-2.854H804m8.1-11.8H804m29.657-104.475v-8.1h17.5v8.1zm2.843-.025v-8.1m11.7 8.1v-8.1" fill="none" stroke="#000" stroke-width=".5" stroke-miterlimit="10"/><path fill="none" stroke="#000" stroke-width=".5" stroke-miterlimit="10" d="M810.3 288.7h19.6c1.2 0 2.2 1 2.2 2.2v19.6c0 1.2-1 2.2-2.2 2.2h-19.6c-1.2 0-2.2-1-2.2-2.2v-19.6c0-1.2 1-2.2 2.2-2.2zm23.1-107.3h11.2c.7 0 1.3.6 1.3 1.3v11.2c0 .7-.6 1.3-1.3 1.3h-11.2c-.7 0-1.3-.6-1.3-1.3v-11.2c0-.7.6-1.3 1.3-1.3zm79.9 123.7h10.8c.7 0 1.2.5 1.2 1.2v10.8c0 .7-.5 1.2-1.2 1.2h-10.8c-.7 0-1.2-.5-1.2-1.2v-10.8c0-.7.6-1.2 1.2-1.2zm64.29-91.774h-15.1v-15.1h15.1zm-57.734 80.901h-31.3v-26.1h31.3zm-23.273 110.146v-31.3h26.1v31.3zm-39.728-18.636h-21.6v-18.1h21.6zm-27.36 0h-19v-18.1h19zm33.298-80.669h-23.7v-27.2h23.7zM894.4 230.2a6.3 6.3 0 01-5.9 4.1c-3.5 0-6.4-2.9-6.4-6.4 0-3.5 2.9-6.4 6.4-6.4 2.6 0 4.9 1.6 5.9 3.9m0-16.3a6.3 6.3 0 01-5.9 4.1c-3.5 0-6.4-2.9-6.4-6.4 0-3.5 2.9-6.4 6.4-6.4 2.6 0 4.9 1.6 5.9 3.9m0-16.3a6.3 6.3 0 01-5.9 4.1c-3.5 0-6.4-2.9-6.4-6.4 0-3.5 2.9-6.4 6.4-6.4 2.7 0 5 1.7 5.9 4.1m12.7 42.3a6.3 6.3 0 015.9-4.1c2.6 0 4.9 1.6 5.9 3.9m.1 4.7a6.3 6.3 0 01-5.9 4.1c-2.7 0-5-1.7-5.9-4.1m-.1-25.7a6.3 6.3 0 015.9-4.1c2.6 0 4.9 1.6 5.9 3.9m.1 4.8a6.3 6.3 0 01-5.9 4.1c-2.7 0-5-1.7-5.9-4.1m-.1-25.7a6.3 6.3 0 015.9-4.1c2.7 0 5 1.7 5.9 4.1m.1 4.6a6.3 6.3 0 01-5.9 4.1c-2.7 0-5-1.7-5.9-4.1m-691.6 27.8H239v24.1h9.3m0 8.4h-8.7v-3h-5.5v3h-20.3v17.8l-4.1-2.8m29.3 62.2v-24.2h9.3m0-8.4h-8.7v3h-5.5v-3h-20.3v-17.8l-4.1 2.9m38.6 23.3v-61.4M209.7 278v-14.7m29.3 62.2h-33.6m117.304-129.326v12.1h-14.9v-12.1zM308 199.4h14.7m-14.9 5.7h14.9m17.973-8.895v12.1h-14.9v-12.1zM326 199.4h14.7m-14.9 5.7h14.9m245.4 200.7h5.8v19.8h-5.8zm0-31.4h5.8v19.8h-5.8zm0-31.4h5.8v19.8h-5.8zm0-31.4h5.8v19.8h-5.8zm0-31.4h5.8V300h-5.8zm0-31.5h5.8v19.8h-5.8zm0-31.4h5.8v19.8h-5.8zm0-31.4h5.8v19.8h-5.8zm-25.6 219.9h5.8v19.8h-5.8zm0-31.4h5.8v19.8h-5.8zm0-31.4h5.8v19.8h-5.8zm0-31.4h5.8v19.8h-5.8zm0-31.4h5.8V300h-5.8zm0-31.5h5.8v19.8h-5.8zm0-31.4h5.8v19.8h-5.8zm0-31.4h5.8v19.8h-5.8zm-25.6 219.9h5.8v19.8h-5.8zm0-31.4h5.8v19.8h-5.8zm0-31.4h5.8v19.8h-5.8zm0-31.4h5.8v19.8h-5.8zm0-31.4h5.8V300h-5.8zm0-31.5h5.8v19.8h-5.8zm0-31.4h5.8v19.8h-5.8zm0-31.4h5.8v19.8h-5.8zm-25.6 219.9h5.8v19.8h-5.8zm0-31.4h5.8v19.8h-5.8zm0-31.4h5.8v19.8h-5.8zm0-31.4h5.8v19.8h-5.8zm0-31.4h5.8V300h-5.8zm0-31.5h5.8v19.8h-5.8zm0-31.4h5.8v19.8h-5.8zm0-31.4h5.8v19.8h-5.8zm-25.6 219.9h5.8v19.8h-5.8zm0-31.4h5.8v19.8h-5.8zm0-31.4h5.8v19.8h-5.8zm0-31.4h5.8v19.8h-5.8zm0-31.4h5.8V300h-5.8zm0-31.5h5.8v19.8h-5.8zm0-31.4h5.8v19.8h-5.8zm0-31.4h5.8v19.8h-5.8zm-25.6 219.9h5.8v19.8h-5.8zm0-31.4h5.8v19.8h-5.8zm0-31.4h5.8v19.8h-5.8zm0-31.4h5.8v19.8h-5.8zm0-31.4h5.8V300h-5.8zm0-31.5h5.8v19.8h-5.8zm0-31.4h5.8v19.8h-5.8zm0-31.4h5.8v19.8h-5.8zm-25.6 219.9h5.8v19.8h-5.8zm0-31.4h5.8v19.8h-5.8zm0-31.4h5.8v19.8h-5.8zm0-31.4h5.8v19.8h-5.8zm0-31.4h5.8V300h-5.8zm0-31.5h5.8v19.8h-5.8zm0-31.4h5.8v19.8h-5.8zm0-31.4h5.8v19.8h-5.8zm-25.6 219.9h5.8v19.8h-5.8zm0-31.4h5.8v19.8h-5.8zm0-31.4h5.8v19.8h-5.8zm0-31.4h5.8v19.8h-5.8zm0-31.4h5.8V300h-5.8zm0-31.5h5.8v19.8h-5.8zm0-31.4h5.8v19.8h-5.8zm0-31.4h5.8v19.8h-5.8zm-25.6 219.9h5.8v19.8h-5.8zm0-31.4h5.8v19.8h-5.8zm0-31.4h5.8v19.8h-5.8zm0-31.4h5.8v19.8h-5.8zm0-31.4h5.8V300h-5.8zm0-31.5h5.8v19.8h-5.8zm0-31.4h5.8v19.8h-5.8zm0-31.4h5.8v19.8h-5.8zm-25.6 219.9h5.8v19.8h-5.8zm0-31.4h5.8v19.8h-5.8zm0-31.4h5.8v19.8h-5.8zm0-31.4h5.8v19.8h-5.8zm0-31.4h5.8V300h-5.8zm0-31.5h5.8v19.8h-5.8zm0-31.4h5.8v19.8h-5.8zm0-31.4h5.8v19.8h-5.8zm256 219.9h5.8v19.8h-5.8zm0-31.4h5.8v19.8h-5.8zm0-31.4h5.8v19.8h-5.8zm0-31.4h5.8v19.8h-5.8zm0-31.4h5.8V300h-5.8zm0-31.5h5.8v19.8h-5.8zm0-31.4h5.8v19.8h-5.8zm0-31.4h5.8v19.8h-5.8zm25.6 219.9h5.8v19.8h-5.8zm0-31.4h5.8v19.8h-5.8zm0-31.4h5.8v19.8h-5.8zm0-31.4h5.8v19.8h-5.8zm0-31.4h5.8V300h-5.8zm0-31.5h5.8v19.8h-5.8zm0-31.4h5.8v19.8h-5.8zm0-31.4h5.8v19.8h-5.8zm25.6 219.9h5.8v19.8h-5.8zm0-31.4h5.8v19.8h-5.8zm0-31.4h5.8v19.8h-5.8zm0-31.4h5.8v19.8h-5.8zm0-31.4h5.8V300h-5.8zm0-31.5h5.8v19.8h-5.8zm0-31.4h5.8v19.8h-5.8zm0-31.4h5.8v19.8h-5.8zm25.5 219.9h5.8v19.8h-5.8zm0-31.4h5.8v19.8h-5.8zm0-31.4h5.8v19.8h-5.8zm0-31.4h5.8v19.8h-5.8zm0-31.4h5.8V300h-5.8zm0-31.5h5.8v19.8h-5.8zm0-31.4h5.8v19.8h-5.8zm0-31.4h5.8v19.8h-5.8zM714 405.8h5.8v19.8H714zm0-31.4h5.8v19.8H714zm0-31.4h5.8v19.8H714zm0-31.4h5.8v19.8H714zm0-31.4h5.8V300H714zm0-31.5h5.8v19.8H714zm0-31.4h5.8v19.8H714zm0-31.4h5.8v19.8H714zm25.6 219.9h5.8v19.8h-5.8zm0-31.4h5.8v19.8h-5.8zm0-31.4h5.8v19.8h-5.8zm0-31.4h5.8v19.8h-5.8zm0-31.4h5.8V300h-5.8zm0-31.5h5.8v19.8h-5.8zm0-31.4h5.8v19.8h-5.8zm0-31.4h5.8v19.8h-5.8zm25.6 219.9h5.8v19.8h-5.8zm0-31.4h5.8v19.8h-5.8zm0-31.4h5.8v19.8h-5.8zm0-31.4h5.8v19.8h-5.8zm0-31.4h5.8V300h-5.8zm0-31.5h5.8v19.8h-5.8zm0-31.4h5.8v19.8h-5.8zm0-31.4h5.8v19.8h-5.8zm25.6 219.9h5.8v19.8h-5.8zm0-31.4h5.8v19.8h-5.8zm0-31.4h5.8v19.8h-5.8zm0-31.4h5.8v19.8h-5.8zm0-31.4h5.8V300h-5.8zm0-31.5h5.8v19.8h-5.8zm0-31.4h5.8v19.8h-5.8zm0-31.4h5.8v19.8h-5.8zm184.6 124c0 1.9-1.5 3.4-3.4 3.4s-3.4-1.5-3.4-3.4 1.5-3.4 3.4-3.4 3.4 1.5 3.4 3.4zm0-11.5c0 1.9-1.5 3.4-3.4 3.4s-3.4-1.5-3.4-3.4 1.5-3.4 3.4-3.4 3.4 1.6 3.4 3.4zm0-11.4c0 1.9-1.5 3.4-3.4 3.4s-3.4-1.5-3.4-3.4 1.5-3.4 3.4-3.4 3.4 1.5 3.4 3.4zm0-11.5c0 1.9-1.5 3.4-3.4 3.4s-3.4-1.5-3.4-3.4 1.5-3.4 3.4-3.4 3.4 1.5 3.4 3.4zm0-11.5c0 1.9-1.5 3.4-3.4 3.4s-3.4-1.5-3.4-3.4 1.5-3.4 3.4-3.4 3.4 1.5 3.4 3.4zm0-11.4c0 1.9-1.5 3.4-3.4 3.4s-3.4-1.5-3.4-3.4 1.5-3.4 3.4-3.4 3.4 1.5 3.4 3.4zm0 149.1c0 1.9-1.5 3.4-3.4 3.4s-3.4-1.5-3.4-3.4 1.5-3.4 3.4-3.4 3.4 1.5 3.4 3.4z"/><circle fill="none" stroke="#000" stroke-width=".5" stroke-miterlimit="10" cx="875.1" cy="412" r="2.4"/><path fill="none" stroke="#000" stroke-width=".5" stroke-miterlimit="10" d="M885.2 412c0 1.3-1.1 2.4-2.4 2.4-1.3 0-2.4-1.1-2.4-2.4 0-1.3 1.1-2.4 2.4-2.4 1.3 0 2.4 1.1 2.4 2.4zm7.6 0c0 1.3-1.1 2.4-2.4 2.4-1.3 0-2.4-1.1-2.4-2.4 0-1.3 1.1-2.4 2.4-2.4 1.4 0 2.4 1.1 2.4 2.4zm-15.3 7.7c0 1.3-1.1 2.4-2.4 2.4-1.3 0-2.4-1.1-2.4-2.4 0-1.3 1.1-2.4 2.4-2.4 1.4 0 2.4 1.1 2.4 2.4zm7.7 0c0 1.3-1.1 2.4-2.4 2.4-1.3 0-2.4-1.1-2.4-2.4 0-1.3 1.1-2.4 2.4-2.4 1.3 0 2.4 1.1 2.4 2.4zm7.6 0c0 1.3-1.1 2.4-2.4 2.4-1.3 0-2.4-1.1-2.4-2.4 0-1.3 1.1-2.4 2.4-2.4 1.4 0 2.4 1.1 2.4 2.4zm82.6-18c0 1.9-1.5 3.4-3.4 3.4s-3.4-1.5-3.4-3.4 1.5-3.4 3.4-3.4 3.4 1.5 3.4 3.4zm0-11.5c0 1.9-1.5 3.4-3.4 3.4s-3.4-1.5-3.4-3.4 1.5-3.4 3.4-3.4 3.4 1.5 3.4 3.4zm0-11.5c0 1.9-1.5 3.4-3.4 3.4s-3.4-1.5-3.4-3.4 1.5-3.4 3.4-3.4 3.4 1.5 3.4 3.4zm0-11.5c0 1.9-1.5 3.4-3.4 3.4s-3.4-1.5-3.4-3.4 1.5-3.4 3.4-3.4 3.4 1.6 3.4 3.4zm0-11.4c0 1.9-1.5 3.4-3.4 3.4s-3.4-1.5-3.4-3.4 1.5-3.4 3.4-3.4 3.4 1.5 3.4 3.4zm0-11.5c0 1.9-1.5 3.4-3.4 3.4s-3.4-1.5-3.4-3.4 1.5-3.4 3.4-3.4 3.4 1.5 3.4 3.4zM308.57 192.997l-8.1.011-.026-18.3 8.1-.01zM308.5 190h-8.1m8.1-12.4h-8.1m19.609 15.397l-8.1.012-.026-18.3 8.1-.012zM320 190h-8.1m8.1-12.4h-8.1m19.547 15.397l-8.1.012-.025-18.3 8.1-.012zM331.5 190h-8.1m8.1-12.4h-8.1m92.2-3.1h11.3v5.1h-11.3zm-15.7 0h11.3v5.1h-11.3zm30.9 0h11.3v5.1h-11.3zm15.3 0h11.3v5.1h-11.3zm15.3 0h11.3v5.1h-11.3zm15.3 0H488v5.1h-11.3zm15.3 0h11.3v5.1H492zm15.3 0h11.3v5.1h-11.3zm15.3 0h11.3v5.1h-11.3zm313.1 24.6h13.9v7.7h-13.9zM915.3 324h13.9v7.7h-13.9zM355.7 185.9h440.9m0 0v239.7M355.7 185.9v239.7m0 0h230.4m-370.5-81v-19.1m-10.1 92.2h10.1m45.9 18.5c0 7.7-6.3 14-14 14s-14-6.3-14-14 6.3-14 14-14 14 6.2 14 14z"/><path fill="none" stroke="#000" stroke-width=".5" stroke-miterlimit="10" d="M249.4 446.4h-3.8v-8.3h-8.3v-3.9h8.3v-8.3h3.8v8.3h8.4v3.9h-8.4zm69.13-176.178v-8.1h17.5v8.1zm2.87-.022v-8.1m11.8 8.1v-8.1m-69.5 13h8.1v17.5h-8.1zm0 2.9h8.1m-8.1 11.7h8.1m13.2 91h5.8v12.5H285zm0 2h5.8m-5.8 8.4h5.8M285.9 281h13.6v7.6h-13.6zm17.353 23.764v13.6h-7.6v-13.6zM215.6 374.7v79m-10.1-237.9v237.9"/><path fill="none" stroke="#000" stroke-width=".5" stroke-miterlimit="10" d="M190 220.4V52l-59.9.5v-5.9h65.5v154h5.4c2.2 0 4 .2 4.3 4.4 0 .5.1 4.3.1 10.7h10.1v-45.2h26s.7 1.1 1.8 1.1.6-2.5 2.2-2.4c1.6.1 2.2 1.8 2.2 1.8s.1-.9 1.6-.8c1.4.1 1.3 1.3 2.1 1.2.8-.1.7-1.1 2-1.1 1.3.1 1.2.9 1.9.9s.6-1.1 1.3-1.1c.7.1 2.1.9 2.5.9.4 0-.2-2.2 1.7-2.1 1.9.1 1.3 2.7 2.3 2.5 1-.2.9-.8.9-.8h318.4s.6.4 2 .2c1.4-.1 1.5-2.4 2.6-2.4s.9 2.4 1.8 2.4c.9.1.7-2 1.8-2s.9 2.3 2 2.4c1.1.1.5-2.4 1.8-2.4 1.2 0 .9 2.6 2 2.6s.9-2 2-1.9c1.1 0-.3 2.3 1.5 2.1 1.8-.1 1-2.2 2.5-2.1 1.5 0 .1 2.5 1.9 2.3 1.8-.1 1.4-1.2 1.4-1.2h336.6c.8 0 .7 1.6 1.5 1.6s.9-2.6 2.6-2.4c1.7.2.7 2.4 1.6 2.5.8.1.5-1.8 1.9-1.6 1.3.2.7 1.5 1.7 1.4.9-.1 1.2-.9 2.2-.9 1 .1 1.3 1.3 2 1.3s.7-1.8 1.8-1.7c1 .1 1.1 1.3 1.8 1.3.7-.1.9-.6 1-2.1 1.3-1.3 2.4-.1 2.4.5s.4 1.8 1.3 1.8 1.1-1.8 1.1-1.8h11.7c.9 0 1.1.9 1.1 1.4v251.9c0 .4 0 1.6-1.3 1.6h-35.3l-1.1.1h-.6v2.8l-2.7-1.4v-1.5h-.9v1.6h-3v-1.6h-.8v1.6h-3.1v-1.8h-.7v2h-3.1v-1.7h-1.3v2.8l-2.7-1.5v-1.4h-.9v.1s-336.3-.3-339.5 0c-3.2.3-5.7 1.3-5.7 4.8v49.4l-3 3h-90.8l-2.9-2.9v-31.5c.1-6.9-8.2-6.8-8.2-.5v29.3l-.8 3.2-2.2 2.2h-46l-2.5-2.5v-48c-.3-3.4-3-6.3-7.3-6.6-3.6.2-8.3 1.9-8.3 5.9v30.2l-.9.9H394v-1.5h-1.3v2.4h-2.4v-2.2h-1.6v1.8h-2.2V461h-1.6v1.9h-2.1V461h-2v1.7H379v-1.5h-2v2.1h-2.1V462s-.6-1.4-1.5-1.5c-.9-.1-.9 1.2-.9 1.2h-6.9v-32.4c0-1.4-.7-3.9-3.5-4h-74.9c-2.9.1-3.7 1.1-3.7 2.8v31.6l-1.1 1.2h-24.1v-1.2h-.9v2.3h-3.2v-2.3h-1.1v1.3h-2.5v-1h-.9v2h-3.1v-2h-.9v2H243v-1.3c-.4-1.5-1.1 0-1.1 0v1.3h-3.1v-1s0-.8-1-.7c-1 .1-1 .7-1 .7h-21.2l-.1-7.3h-10.1V471c0 3.2-3.1 5.1-5.6 4.9h-5.7v61.8h-4V371.5l-1.7-.5-1.3.5-1.9-2.8H167s-.2-2.2-2.1-2.2c-1.8 0-2.1 2.2-2.1 2.2h-5.7v-17.9h5.7s.3 2.2 2.1 2.2 2.1-2.2 2.1-2.2h18.1l1.9-2.8 1.3.5 1.7-.5v-29.7h-21v-15h21v-8.1h-7.8v-53.4h7.8v-6.4h-21v-15h21zm0 97.9v-15m0-8.2v-53.3m0-6.4v-15m0 151.1v-23.6"/><path fill="none" stroke="#000" stroke-width=".5" stroke-miterlimit="10" d="M280.3 174.5h11.3v5.1h-11.3zm487.4 0H779v5.1h-11.3zm15.3 0h11.3v5.1H783z"/><text transform="translate(273.608 103.45)"><tspan x="0" y="0" font-family="Helvetica,Arial,sans-serif" font-size="14">LED</tspan><tspan x="-10.6" y="16.8" font-family="Helvetica,Arial,sans-serif" font-size="14">Block 1</tspan></text><text transform="translate(451.149 103.45)"><tspan x="0" y="0" font-family="Helvetica,Arial,sans-serif" font-size="14">LEDs</tspan><tspan x="-7" y="16.8" font-family="Helvetica,Arial,sans-serif" font-size="14">Block 2</tspan></text><text transform="translate(757.393 103.45)"><tspan x="0" y="0" font-family="Helvetica,Arial,sans-serif" font-size="14">LEDs</tspan><tspan x="-7" y="16.8" font-family="Helvetica,Arial,sans-serif" font-size="14">Block 3</tspan></text><text transform="translate(895.638 103.45)"><tspan x="0" y="0" font-family="Helvetica,Arial,sans-serif" font-size="14">PCIe power </tspan><tspan x="-16" y="16.8" font-family="Helvetica,Arial,sans-serif" font-size="14">connector (6-pin)</tspan></text><text transform="translate(404.308 526.45)"><tspan x="0" y="0" font-family="Helvetica,Arial,sans-serif" font-size="14">DMA 3900</tspan><tspan x="-2.4" y="16.8" font-family="Helvetica,Arial,sans-serif" font-size="14">PCIe 3.0 x4</tspan></text><text transform="translate(14.835 261.01)"><tspan x="0" y="0" font-family="Helvetica,Arial,sans-serif" font-size="14">D-Sub Micro-D </tspan><tspan x="0" y="16.8" font-family="Helvetica,Arial,sans-serif" font-size="14">connector (15-pin)</tspan></text><text transform="translate(14.834 352.878)"><tspan x="0" y="0" font-family="Helvetica,Arial,sans-serif" font-size="14">Micro-BNC</tspan><tspan x="0" y="16.8" font-family="Helvetica,Arial,sans-serif" font-size="14">connector</tspan></text><path fill="none" stroke="#000" stroke-miterlimit="10" d="M285.9 127.2v49.9m181.2-49.9v49.9m-28 272.2v59.2m334.2-381.3v49.9M944 127.2v75.3M99.6 358.6h52m-16-89.7h39"/></svg>