<svg version="1.0" xmlns="http://www.w3.org/2000/svg" viewBox="0 0 520 293.8"><path fill="none" stroke="#000" stroke-width=".709" stroke-miterlimit="10" d="M60.1 22.8H505v222.7H60.1z"/><path fill="none" stroke="#000" stroke-width=".227" stroke-miterlimit="10" d="M60.1 48.3h445.1M60.1 72.9h445m-445 24.7h445M60.2 122.1h444.9m-445 25.2h445M60.2 171.9h444.9m-445 24.6H505M60.1 221H505M187.1 22.8v222.7m63.8-222.7v222.7m63.4-222.7v222.8m63.5-222.9v222.9m63.8-222.8v222.8m-318-222.8v222.6"/><g clip-rule="evenodd"><path fill-rule="evenodd" d="M369.3 34.3h109.5v64.3H369.3z"/><path fill="none" stroke="#000" stroke-width="1.117" stroke-miterlimit="3.864" d="M369.3 34.3h109.5v64.3H369.3z"/></g><g clip-rule="evenodd"><path fill-rule="evenodd" fill="#FFF" d="M366 31.2h109.5v64.3H366z"/><path fill="none" stroke="#000" stroke-width="1.117" stroke-miterlimit="3.864" d="M366 31.2h109.5v64.3H366z"/></g><path clip-rule="evenodd" fill="none" stroke="#2A4B9B" stroke-miterlimit="3.864" stroke-dasharray="12,2,2,2" d="M375.9 44.9h39.5"/><path clip-rule="evenodd" fill="none" stroke="#66B32E" stroke-miterlimit="3.864" stroke-dasharray="2,2" d="M375.9 65.2h39.5"/><path clip-rule="evenodd" fill="none" stroke="#E52420" stroke-miterlimit="3.864" stroke-dasharray="72" d="M375.9 85.7h39.5"/><g font-family="Helvetica,Arial,sans-serif"><text transform="translate(115.94 257.808)" font-size="8">400</text><text transform="translate(243.39 257.808)" font-size="8">500</text><text transform="translate(369.892 257.808)" font-size="8">600</text><text transform="translate(493.664 257.848)" font-size="8">700</text><text transform="translate(43.527 198.711)" font-size="8">0.1</text><text transform="translate(43.462 149.979)" font-size="8">0.2</text><text transform="translate(43.495 100.995)" font-size="8">0.3</text><text transform="translate(43.464 51.748)" font-size="8">0.4</text><text transform="translate(43.528 248.99)" font-size="8">0.0</text><text transform="translate(220.093 281.576)" fill="#010202" font-size="12">Wavelength (nm)</text><text transform="rotate(-90 110.809 88.211)" fill="#1E1E1C" font-size="12">Quantum Efficiency (%)</text><text transform="translate(427.302 88.852)" fill="#1E1E1C" font-size="12">Red</text><text transform="translate(427.302 69.102)" fill="#1E1E1C" font-size="12">Green</text><text transform="translate(427.302 47.805)" fill="#1E1E1C" font-size="12">Blue</text></g><g fill="none" stroke-miterlimit="10"><path stroke="#2A4B9B" stroke-dasharray="12,2,2,2" d="M111.5 187.5l3.8-8.4 2.8-7.2 2-5.5 3.4-9.9 2.2-6.4 2.6-7.2 5.2-14.7 2.4-6 1.3-3.1 1.4-2.7 1.7-2.8 4.2-6 4.7-6 6.5-8.4 3.3-4.3 2.6-3.6 2-3 1.3-2.4 4.8-9.4 1.7-3.2 1.6-2.8 2-2.9 1.8-2.6 2.9-3.2 2.4-2.3 1.7-1.2 1.7-1.2 1.9-.9 1.5-.6 1.6-.2h1.5l2.7.5 1.7.5 2 1 2.4 1.5 2 1.8 3 2.9 3.1 3.9 3.4 4.6 2.9 3.6 2.4 2.7 2.3 3.2 3.3 4.8 3.4 5.9 4.9 9.2 5.3 12.1 5.5 13.5 3.6 9.6 5.3 14.6 1.6 4.7 3.3 8.7 3.5 8.6 3.2 6.9 4.4 9.7 3.2 5.9 2.6 4.7 2.4 3.6 2.5 3.4 3.1 3.3 3.5 3 3.7 2.8 5.3 3.4 5 2.6 5.3 2.7 5.4 2.9 4 2.3 5 2.6 4.6 2.4 6.1 2.7 4.1 1.3 3.2.9 4.4.8 4.4.8 3.2.3 3.7.4h2.5l5.3.5 4.9.5 6 .7 7 1.1 7 .9 6.1.9 7 .6 7.4.3h17.2l8.8-.5 10.6-.7 8.2-.6 10.2-.7 8.7-.4 8-.1 8.2-.2h8.5l11.5.1"/><path stroke="#E52420" d="M111.5 214l4.6 2.2 4.7 2.1 2.9 1.2 2.8 1.1 4.2 1.3 5.7 1.9 1.9.6 3.1 1.3 3.6 1.5 3.2 1.2 3.8 1.2 4.5 1.3 5 1.1 5 .9 4.8.9 6.2 1 5.8.7 4.3.3 4.7.5h10.4l4.9-.3 4.4-.4 4.5-.5 3.8-.4 4.1-.3 3.6-.3 3.8-.3 4.9-.2 5-.3 2.7-.2 2.9-.3 4.3-.5 3.8-.8 4.6-1.1 3.8-1 2.9-1 2.3-.9 2.6-1 3.4-1.3 2.9-1 2.6-.8 2.2-.5 2.3-.4 2.2-.3h1.7l2.4.2 2.9.6 2.8.8s3.4.9 3.6.9c.2 0 3.3.9 3.3.9l3.5 1.1 4 1.1 3.7 1 3.2.8 3.7.6 3.5.3 3-.2 3.1-.5 2.1-.6 2-.7 1.7-.9 1.4-1.1.9-1.3.9-1.8 2.1-5 3.4-10.4 1.7-6.9 5.4-19.8 3.4-16.6 2.3-11.5 2.2-10 1.5-6.5 1.6-5.9 1.1-3.6 1.1-2.5 1-1.9.9-1.4 1.4-1.8 1.6-1.8 1.7-1.5 1.7-1.3 1.6-.8 1.1-.5.9-.2 1.2.2.8.4 1.1.6 1.4 1.2 1.3 1.4 2.1 2.5 1.9 2.5 1.3 1.6 1.3 1.4 2.4 2.6 4.3 4.6 5.4 5.8 2.9 3 4.6 4.3 3.1 3.1 4.9 4.3s3.6 3.6 3.8 3.7c.1.1 4.2 3.4 4.2 3.4l4 2.8 3.5 2.2 3.3 1.5 3.2 1.3 2.3.8 4.3 1.1 3.3.6 2.3.5 3.3 1 2.8.9 4.6 1.7 3.8 1.7 3.7 1.6 3.4 2.6 4 2.8 2.9 1.8 2.9 1.9 2.8 1.8 2.2 1.3 3.4 1.2 3.3 1.6 3.3.9 2.6 1.1 3.4.5h.3"/><path stroke="#66B32E" stroke-dasharray="2,2" d="M111.5 230.6l5.5-.3 3.1-.4 3.1-.2 3.5-.5 3.4-.6 3.9-.9 2.9-.6 4-.6 5.1-.8 5.6-.9 4-1s4.5-1.5 4.7-1.5c.2 0 4.5-1.7 4.5-1.7l3.9-1.6 3.2-1.7 3.5-1.7 3.5-1.6 3.4-1.4 3.1-1.7 3.6-2.2 2.8-2 2.8-2.5 2.5-2.4 3.3-3.2 2.7-3.3 2.8-3.8 3.1-4.1 3-4.2 2.2-2.9 2.3-2.9 2.1-2.6 3.3-3.8 3-3.1 2.3-2.3 2.3-1.7 3.3-2.3 2.3-1.7 1.9-1.5 1.7-1.5 2.1-2.3 2.5-3.4 4.5-5.9 3.6-5.5 4.7-7 4.2-6.3 2.2-3.2 2-2.8 2.6-2.8 2-2.5 5.7-5.8 3-2.6 1.4-1.6 2.6-2.3 1.6-1.6 2.3-2.2 2.3-1.6 2.2-1.3 2.2-.7 2.3-.6 1.9-.3h1.7l2.1.6 1.9.9 1.3.7 1.6 1.8 2.3 2.6 2.2 3.1 4 5.9 2.6 4.4 2 3.9 1.1 2.2 5.9 12 5.1 10.1 3.9 6.5 4.1 6.8 2.9 5 4.4 5.1 4.8 5.3 8.2 9.4 3.8 4.3 3.4 4.1 2 2.6 4.4 5.9 5.4 7.4 4.4 5.5 4.9 5.6s3.3 3.8 3.8 4.1c.5.3 4 3.4 4 3.4l5.5 3.7 3.5 1.8 4.2 1.7 4.4 1.3 5.5 1.2 5.3.7 4.6.3 5 .3 6.5.3h9.6l7.7-.5 6.6-.6 6.2-.9 5.3-.4 5.9-.9 6.3-.9 7.8-1.3 5-.8 5.5-1"/></g></svg>