<svg version="1.0" xmlns="http://www.w3.org/2000/svg" viewBox="0 0 200 190"><path fill="#FFF" d="M154.6 147c0 2.8-2.3 5.1-5.1 5.1H11.3c-2.8 0-5.1-2.3-5.1-5.1V8.8c0-2.8 2.3-5.1 5.1-5.1h138.1c2.8 0 5.1 2.3 5.1 5.1V147z"/><path fill="none" stroke="#1A1A18" stroke-width=".567" stroke-linecap="round" stroke-linejoin="round" stroke-miterlimit="10" d="M154.6 147c0 2.8-2.3 5.1-5.1 5.1H11.3c-2.8 0-5.1-2.3-5.1-5.1V8.8c0-2.8 2.3-5.1 5.1-5.1h138.1c2.8 0 5.1 2.3 5.1 5.1V147z"/><path fill="none" stroke="#1A1A18" stroke-width=".283" stroke-linecap="round" stroke-linejoin="round" d="M64.4 117.5c0-1.9 1.5-3.5 3.5-3.5 1.9 0 3.5 1.5 3.5 3.5 0 1.9-1.5 3.5-3.5 3.5-1.9-.1-3.5-1.6-3.5-3.5z"/><path fill="none" stroke="#1A1A18" stroke-width=".283" stroke-linecap="round" stroke-linejoin="round" d="M61.6 117.5c0-3.5 2.8-6.3 6.3-6.3s6.3 2.8 6.3 6.3-2.8 6.3-6.3 6.3-6.3-2.8-6.3-6.3zm28 1.6c0-11.8 9.6-21.4 21.4-21.4 11.8 0 21.4 9.6 21.4 21.4 0 11.8-9.6 21.4-21.4 21.4-11.8 0-21.4-9.6-21.4-21.4z"/><path fill="none" stroke="#1A1A18" stroke-width=".283" stroke-linecap="round" stroke-linejoin="round" d="M93.2 119.1c0-9.9 8-17.9 17.9-17.9 9.9 0 17.9 8 17.9 17.9 0 9.9-8 17.9-17.9 17.9-9.9 0-17.9-8-17.9-17.9z"/><path fill="none" stroke="#1A1A18" stroke-width=".283" stroke-linecap="round" stroke-linejoin="round" d="M85.3 119.1c0-14.2 11.5-25.7 25.7-25.7s25.7 11.5 25.7 25.7-11.5 25.7-25.7 25.7c-14.1.1-25.7-11.5-25.7-25.7z"/><g fill="none" stroke="#1A1A18" stroke-width=".283" stroke-linecap="round" stroke-linejoin="round"><path d="M114.2 119.1c0 1.9-1.5 3.5-3.5 3.5-1.9 0-3.5-1.5-3.5-3.5 0-1.9 1.5-3.5 3.5-3.5s3.5 1.6 3.5 3.5zm10 0c0 1.9-1.5 3.5-3.5 3.5-1.9 0-3.5-1.5-3.5-3.5 0-1.9 1.5-3.5 3.5-3.5s3.5 1.6 3.5 3.5zm-16.8 7.4c0 1.9-1.5 3.5-3.5 3.5-1.9 0-3.5-1.5-3.5-3.5 0-1.9 1.5-3.5 3.5-3.5 1.9 0 3.5 1.6 3.5 3.5zm10.5 1.6c0 1.9-1.5 3.5-3.5 3.5-1.9 0-3.5-1.5-3.5-3.5 0-1.9 1.5-3.5 3.5-3.5s3.5 1.6 3.5 3.5zm-10.5-16.4c0-1.9-1.5-3.5-3.5-3.5-1.9 0-3.5 1.5-3.5 3.5 0 1.9 1.5 3.5 3.5 3.5 1.9 0 3.5-1.6 3.5-3.5zm2.2-3.7c0-.8-.7-1.5-1.5-1.5s-1.5.7-1.5 1.5.7 1.5 1.5 1.5 1.5-.7 1.5-1.5zm12.1 4.9c0-.8-.7-1.5-1.5-1.5s-1.5.7-1.5 1.5.7 1.5 1.5 1.5 1.5-.7 1.5-1.5zm-12.1 17.3c0 .8-.7 1.5-1.5 1.5s-1.5-.7-1.5-1.5.7-1.5 1.5-1.5 1.5.7 1.5 1.5zm12.1-4.9c0 .8-.7 1.5-1.5 1.5s-1.5-.7-1.5-1.5.7-1.5 1.5-1.5 1.5.7 1.5 1.5zm-3.8-15.2c0-1.9-1.5-3.5-3.5-3.5-1.9 0-3.5 1.5-3.5 3.5 0 1.9 1.5 3.5 3.5 3.5s3.5-1.6 3.5-3.5zm-20.1 12.2v.7H99l3.6-2.6h1.8c.5 0 .8.1.8-.4v-1.9c0-.5-.3-.4-.8-.4h-1.8l-3.6-2.6h-1.2v.7l.1.1c1 .7 1.7 1.8 1.7 3.1 0 1.5-.7 2.7-1.8 3.3z"/><path d="M96.3 116.1c1.4-6.7 7.4-11.7 14.5-11.7 8.2 0 14.8 6.6 14.8 14.8 0 8.2-6.6 14.8-14.8 14.8-7.1 0-13.1-5-14.5-11.7 1.5-.2 2.7-1.5 2.7-3 0-1.8-1.2-3.1-2.7-3.2z"/></g><path fill="none" stroke="#1A1A18" stroke-width=".283" stroke-linecap="round" stroke-linejoin="round" stroke-miterlimit="10" d="M39 48.1c0 5.3-4.3 9.6-9.7 9.6-5.3 0-9.7-4.3-9.7-9.6s4.3-9.7 9.7-9.7c5.3.1 9.7 4.4 9.7 9.7z"/><path fill="none" stroke="#1A1A18" stroke-width=".283" stroke-linecap="round" stroke-linejoin="round" stroke-miterlimit="10" d="M34.6 48.1c0 2.9-2.4 5.3-5.3 5.3S24 51 24 48.1s2.4-5.3 5.3-5.3c2.9.1 5.3 2.4 5.3 5.3zm106.9 0c0 5.3-4.3 9.6-9.6 9.6s-9.7-4.3-9.7-9.6 4.3-9.7 9.7-9.7c5.3.1 9.6 4.4 9.6 9.7z"/><path fill="none" stroke="#1A1A18" stroke-width=".283" stroke-linecap="round" stroke-linejoin="round" stroke-miterlimit="10" d="M137.1 48.1c0 2.9-2.4 5.3-5.3 5.3s-5.3-2.4-5.3-5.3 2.4-5.3 5.3-5.3c3 .1 5.3 2.4 5.3 5.3zM39.8 11.9h81.4v72.7H39.8z"/><path fill="none" stroke="#1A1A18" stroke-width=".283" stroke-linecap="round" stroke-linejoin="round" stroke-miterlimit="10" d="M109.6 15.7h8.1v10.4h-8.1zm-65.3 0h8.1v10.4h-8.1zm47.6 3.6h7.2v6.3h3v3.9h11.2v39.3H47.5l.2-39h11.2v-4.2h3v-6.3h7.2v-4.5h22.8v4.5"/><path fill="none" stroke="#000" stroke-miterlimit="10" d="M104.7 126.4l-44.4 39.4m44.4-53.4L60.3 98.7m54.1 12l27.1-28.6m-30.3 37.3l48.5 44.2M121 120l45.7-14.3m-52.3 22.4l-3.2 44.5"/><text transform="translate(169.704 109.481)" font-family="Helvetica,Arial,sans-serif" font-size="14.889">4</text><text transform="translate(143.858 82.115)" font-family="Helvetica,Arial,sans-serif" font-size="14.889">3</text><text transform="translate(50.064 103.203)" font-family="Helvetica,Arial,sans-serif" font-size="14.889">2</text><text transform="translate(48.381 177.666)" font-family="Helvetica,Arial,sans-serif" font-size="14.889">1</text><text transform="translate(106.63 187.732)" font-family="Helvetica,Arial,sans-serif" font-size="14.889">5</text><text transform="translate(162.277 173.68)" font-family="Helvetica,Arial,sans-serif" font-size="14.889">6</text></svg>