<svg version="1.0" xmlns="http://www.w3.org/2000/svg" viewBox="0 0 364 125"><text transform="translate(11 65.3)"><tspan x="0" y="0" font-family="Helvetica,Arial,sans-serif" font-size="12">Hardware Frame Start</tspan><tspan x="0" y="14.4" font-family="Helvetica,Arial,sans-serif" font-size="12">trigger signal</tspan></text><text transform="translate(184.665 96.827)" font-family="Helvetica,Arial,sans-serif" font-size="12">Exposure</text><text transform="translate(171.665 111.827)" font-family="Helvetica,Arial,sans-serif" font-size="10">= ExposureTime</text><text transform="translate(125.5 21)"><tspan x="0" y="0" font-family="Helvetica,Arial,sans-serif" font-size="12">This rise in the trigger signal is ignored.</tspan><tspan x="0" y="14.4" font-family="Helvetica,Arial,sans-serif" font-size="12">A FrameStartOvertrigger event is generated.</tspan></text><path fill="none" stroke="#000" stroke-width=".709" stroke-miterlimit="3.864" d="M211.8 41.3l13.5 20.2"/><path d="M222.8 61.5l5.9 5.3-2.5-7.6z"/><path d="M118.7 81.7h36m0-24v24m0-24h42m0 0v24m0 0h36.8m.2-24v24m0-24h124.7" clip-rule="evenodd" fill="none" stroke="#000" stroke-width=".709" stroke-miterlimit="3.864"/><path clip-rule="evenodd" fill="none" stroke="#000" stroke-width=".227" stroke-miterlimit="3.864" d="M158.5 101.4h98.8"/><path d="M161.4 99.6v3.7l-6.6-1.8zm94.9 0v3.7l6.5-1.8z"/></svg>