<svg version="1.0" xmlns="http://www.w3.org/2000/svg" viewBox="0 0 520 372.2"><path fill="none" stroke="#1D1D1B" stroke-width=".733" stroke-miterlimit="3.864" d="M66 18.7h432.9v288H66v-288z"/><path clip-rule="evenodd" fill="none" stroke="#1D1D1B" stroke-width=".227" stroke-miterlimit="3.864" d="M120.5 18.9v288.3M174 18.6v288.6m55-288.3v288.3m53.5-288.7v288.7M337 18.8v288.4m54.1-288.1v288.1m54.4-288.4v288.4M66 47.3h433M66.1 76.5h433M66 105.6h433M66 134.8h432.9M65.8 163.3h433M65.7 191.5h433M65.9 220.6h433m-433 28.6h433M66.1 277.9h433"/><g clip-rule="evenodd"><path fill-rule="evenodd" fill="#1D1D1B" d="M361.4 30.7h117.1v76.2H361.4z"/><path fill="none" stroke="#1D1D1B" stroke-width="1.117" stroke-miterlimit="3.864" d="M361.4 30.7h117.1v76.2H361.4z"/></g><g clip-rule="evenodd"><path fill-rule="evenodd" fill="#FFF" d="M357.9 27H475v76.2H357.9z"/><path fill="none" stroke="#1D1D1B" stroke-width="1.117" stroke-miterlimit="3.864" d="M357.9 27H475v76.2H357.9z"/></g><path clip-rule="evenodd" fill="none" stroke="#00F" stroke-miterlimit="3.864" stroke-dasharray="12,2,2,2" d="M368.5 43.2h42.2"/><path clip-rule="evenodd" fill="none" stroke="#0F0" stroke-miterlimit="3.864" stroke-dasharray="2,2" d="M368.5 67.3h42.2"/><path clip-rule="evenodd" fill="none" stroke="red" stroke-miterlimit="3.864" stroke-dasharray="72" d="M368.5 91.6h42.2"/><g clip-rule="evenodd" fill="none" stroke-width="1.034" stroke-miterlimit="3.864"><path stroke="#00F" stroke-dasharray="12,2,2,2" d="M108.9 212.2l2.9-12.6 1-6.7.6-6.4 1.6-5.7 1.6-6.7 3.5-13.5 3.1-9.5 3.3-9.9 4.7-12.7 5.7-14.3 3.4-8.1 2.5-4.5 1.8-3.3.7-1.9 1.7-3.3 3.6-5 3.8-6.1 3.1-5.1 2.8-3.6 2.9-3.6 3.9-3.7 4.9-2.6 2.5-.7 2.3.5 2.7 1.6 4.2 3.7 3.9 3.7 4 6.3 4.1 6.8 4.3 9.8 3 8.2 3.6 10.5 3.7 12.1 2 7.2 1.1 6.4 2.6 11.1 2.4 10.2 3.3 12.4 3 10.3 2.9 9.4 3 9.6 3.4 11.3 2.2 6.8 2.6 7.1 3.2 7.1 3.3 5.7 2.6 4.4 3.8 4.3 3.6 3.2 4.6 2.2 5 3.2 6.2 2.8 6.3 3.5 9.3 4.6 11.5 5.2 8.3 3 3.8 1.1 3.3.6 2.5.2 3.5-.7h7.9l3.8 1.2 4.2 1.4 4.2 1.7 6.1 2.6 5 1.1 6.2 1.1 24.5.4 3.3-.9h18.1l7.4-.9 6.2-.9 6.3-1.8 8.9-2.5 7.5-2.6 5.5-.9 4.5-.8 12.9-.2 3 .9 5.8-.2 5.3-.4 5-.9 4.6-1.1 4-1.2 3.3-.6 2.6-.5 3.1-.3"/><path stroke="#0F0" stroke-dasharray="2,2" d="M108.3 280.1l19.1-.6 6.7-1.1 6.7-1.9 13.3-5.5 13.4-7.8 6.1-5.3 3-4.4 5.1-7.9 5-10.4 2.6-9 1.2-4 1.9-5 1.9-5.3 3-6.4 2.7-4.9 4.6-7.1 4.8-6.8 3.1-3.2 3-4.6 1.6-3.6 1.9-5 2.4-8.6 4.4-18.1 5.4-20.3 5-17.8 4.8-16.8 5-18.5 2.4-8.9 3.4-8 3.5-8.9 2.9-2.8 3.2-1.3 2.1.5 3.6 3.8 6.5 9.3 3.2 7.4 4 11.1 3.5 9.7 5 13.3 3.9 10.7 2.7 9.4 6.3 22.6 5.6 18.6 3.4 12.1 3.1 9 3.5 8.2 2.3 6.4 3 5.8 2.2 4.6 3.7 9.4 4.4 11.2 3.7 8.8 3.9 9 4.2 8.9 4 5.6 6.9 7 3.6 3.2 5.4 1.9 5.2.9 6.3 1.4 5.3.9 5.5 1.8 7.8 1.3 6.9.3 4.2-1.1 10.1-4 7.7-3.9 7.1-5 6.9-5.3 3.7-2.3 5.1-2.6 5.7-1.2 9.2-.6 5.3-.1 7.3-1.3 3.5-.9 4.4-2.1 16.3-7.5"/><path stroke="red" d="M108.4 272.4l10.7 9.3 7.9 4.9 6.8 2.9 7.9 5.2 11 3.7 13.7 1.9 18.2.7 7.6-2 8.4-1.8 10.8-1.7 7.1-1.7 5.8-3.2 5.4-3.7 8.3-5.9 7.9-6.4 5.3-5.1 4.3-3.1 4.6-1.2 7.9.1 12.4 2.1 5.9 1.5 6.8.6 4.9.8 3.7-.3 1.6-1.1 1.5-3.1 1.2-4.6 1.5-4 1.1-6.8 1.5-6.9 1.6-11.6 2.4-15.8 3.4-25 2.1-20.5 1.4-14.8 2.2-18.2 1.5-8.9.8-8.5 1.6-8.8 3-7.2 3-4.4 3.2-3.3 1.6.1 1.7 2.4.9 2.5 1.9 3 1.5 3.4 2.6 4.7 1.4 3.1 5.7 8.7 2.7 4.5 5.8 4.2 5.5 3 6 2.4 5.9 4.4 4.9 5.6 4.7 6.5 3.6 5.6 1.5 3.3 1.3 4 3 5 2.6 4.4 3.6 4.6 4 3.1 3.9 3 5.1 2.4 5.6 2.7 4.8 1.9 5.2 1.8 7.5-.1 4.5-.8 5.8.4 15 2.5 4.5-.6 6.9-1.4 10.5-3.3h7.6l3.2.7"/></g><text transform="translate(238.19 346.998)" font-family="Helvetica,Arial,sans-serif" font-size="12">Wavelength (nm)</text><text transform="translate(423.543 46.388)" fill="#1D1D1B" font-family="Helvetica,Arial,sans-serif" font-size="12">Blue</text><text transform="translate(423.543 71.685)" fill="#1D1D1B" font-family="Helvetica,Arial,sans-serif" font-size="12">Green</text><text transform="rotate(-90 134.07 104.98)" fill="#1D1D1B" font-family="Helvetica,Arial,sans-serif" font-size="12">Quantum Efficiency (%)</text><text transform="translate(423.543 94.435)" fill="#1D1D1B" font-family="Helvetica,Arial,sans-serif" font-size="12">Red</text><path fill="none" d="M58.9 311.4H82v13.3H58.9z"/><text transform="translate(58.938 319.866)" fill="#1D1D1B" font-family="Helvetica,Arial,sans-serif" font-size="8">350</text><path fill="none" d="M113.8 311.4h23.1v13.3h-23.1z"/><text transform="translate(113.775 319.866)" fill="#1D1D1B" font-family="Helvetica,Arial,sans-serif" font-size="8">400</text><path fill="none" d="M168.4 311.4h23.1v13.3h-23.1z"/><text transform="translate(168.449 319.866)" fill="#1D1D1B" font-family="Helvetica,Arial,sans-serif" font-size="8">450</text><path fill="none" d="M221 311.4h23.2v13.3H221z"/><text transform="translate(220.956 319.866)" fill="#1D1D1B" font-family="Helvetica,Arial,sans-serif" font-size="8">500</text><path fill="none" d="M277.2 311.4h23.2v13.3h-23.2z"/><text transform="translate(277.212 319.866)" fill="#1D1D1B" font-family="Helvetica,Arial,sans-serif" font-size="8">550</text><path fill="none" d="M329.5 311.4h23.1v13.3h-23.1z"/><text transform="translate(329.468 319.866)" fill="#1D1D1B" font-family="Helvetica,Arial,sans-serif" font-size="8">600</text><path fill="none" d="M385.1 311.4h23.2v13.3h-23.2z"/><text transform="translate(385.14 319.866)" fill="#1D1D1B" font-family="Helvetica,Arial,sans-serif" font-size="8">650</text><path fill="none" d="M438.2 311.4h23.1v13.3h-23.1z"/><text transform="translate(438.232 319.866)" fill="#1D1D1B" font-family="Helvetica,Arial,sans-serif" font-size="8">700</text><path fill="none" d="M489.5 311.4h23.2v13.3h-23.2z"/><text transform="translate(489.487 319.866)" fill="#1D1D1B" font-family="Helvetica,Arial,sans-serif" font-size="8">750</text><path fill="none" d="M58.1 297.5h7.7v13.3h-7.7z"/><text transform="translate(58.073 305.924)" fill="#1D1D1B" font-family="Helvetica,Arial,sans-serif" font-size="8">0</text><path fill="none" d="M58.1 272.1h7.7v13.3h-7.7z"/><text transform="translate(58.073 280.542)" fill="#1D1D1B" font-family="Helvetica,Arial,sans-serif" font-size="8">5</text><path fill="none" d="M50.4 242.3h15.4v13.3H50.4z"/><text transform="translate(50.365 250.743)" fill="#1D1D1B" font-family="Helvetica,Arial,sans-serif" font-size="8">10</text><path fill="none" d="M50.4 214.9h15.4v13.3H50.4z"/><text transform="translate(50.365 223.36)" fill="#1D1D1B" font-family="Helvetica,Arial,sans-serif" font-size="8">15</text><path fill="none" d="M50.4 186.1h15.4v13.3H50.4z"/><text transform="translate(50.365 194.561)" fill="#1D1D1B" font-family="Helvetica,Arial,sans-serif" font-size="8">20</text><path fill="none" d="M50.4 155.7h15.4V169H50.4z"/><text transform="translate(50.365 164.178)" fill="#1D1D1B" font-family="Helvetica,Arial,sans-serif" font-size="8">25</text><path fill="none" d="M50.4 128.3h15.4v13.3H50.4z"/><text transform="translate(50.365 136.796)" fill="#1D1D1B" font-family="Helvetica,Arial,sans-serif" font-size="8">30</text><path fill="none" d="M50.4 101.1h15.4v13.3H50.4z"/><text transform="translate(50.365 109.579)" fill="#1D1D1B" font-family="Helvetica,Arial,sans-serif" font-size="8">35</text><path fill="none" d="M50.4 69.9h15.4v13.3H50.4z"/><text transform="translate(50.365 78.36)" fill="#1D1D1B" font-family="Helvetica,Arial,sans-serif" font-size="8">40</text><path fill="none" d="M50.4 40.5h15.4v13.3H50.4z"/><text transform="translate(50.365 48.98)" fill="#1D1D1B" font-family="Helvetica,Arial,sans-serif" font-size="8">45</text><path fill="none" d="M50.4 14.1h15.4v13.3H50.4z"/><text transform="translate(50.365 22.598)" fill="#1D1D1B" font-family="Helvetica,Arial,sans-serif" font-size="8">50</text></svg>