<svg version="1.0" xmlns="http://www.w3.org/2000/svg" viewBox="0 0 550 204.6"><path fill="#5EC5ED" d="M382 57.4h160v30H382zm-80 30h240v30H302zm-80 30h320v30H222zm-160 30h480v28.5H62z"/><path fill="#DCDCDC" d="M5.5 26.7H542v30H5.5z"/><path fill="none" stroke="#1D1D1B" stroke-miterlimit="10" d="M5.5 26.3H542V176H5.5zm0 31.1H542M5.5 87.4H542m-536.5 30H542m-536.5 30H542m-20-121v149.5M502 26.4v149.5M482 26.4v149.5M462 26.4v149.5M442 26.4v149.5M422 26.4v149.5M202 26.4v149.5M182 26.4v149.5M162 26.4v149.5M142 26.4v149.5M122 26.4v149.5M102 26.4v149.5M82 26.4v149.5M62 26.4v149.5M402 26.4v149.5M382 26.4v149.5M362 26.4v149.5M342 26.4v149.5M322 26.4v149.5M302 26.4v149.5M282 26.4v149.5M262 26.4v149.5M242 26.4v149.5M222 26.4v149.5"/><text transform="translate(7.254 40.464)"><tspan x="0" y="0" font-family="Helvetica,Arial,sans-serif" font-size="9">Data channel</tspan><tspan x="18.7" y="10.8" font-family="Helvetica,Arial,sans-serif" font-size="9">bits</tspan></text><text transform="translate(18.155 70.464)"><tspan x="0" y="0" font-family="Helvetica,Arial,sans-serif" font-weight="bold" font-size="9">Mono 8</tspan><tspan x="-.1" y="10.8" font-family="Helvetica,Arial,sans-serif" font-weight="bold" font-size="9">Bayer 8</tspan></text><text transform="translate(15.573 100.464)"><tspan x="0" y="0" font-family="Helvetica,Arial,sans-serif" font-weight="bold" font-size="9">Mono 12</tspan><tspan x="-.1" y="10.8" font-family="Helvetica,Arial,sans-serif" font-weight="bold" font-size="9">Bayer 12</tspan></text><text transform="translate(12.817 135.464)" font-family="Helvetica,Arial,sans-serif" font-weight="bold" font-size="9">YCbCr422</text><text transform="translate(20.897 164.464)" font-family="Helvetica,Arial,sans-serif" font-weight="bold" font-size="9">RGB 8</text><text transform="translate(16 193.418)" font-family="Helvetica,Arial,sans-serif" font-size="10">= Pixel data, x = not used</text><text transform="translate(65.663 17.623)" font-family="Helvetica,Arial,sans-serif" font-weight="bold" font-size="12.431">MSB</text><text transform="translate(514.134 17.623)" font-family="Helvetica,Arial,sans-serif" font-weight="bold" font-size="12.431">LSB</text><text transform="translate(66.357 46.602)" font-family="Helvetica,Arial,sans-serif" font-size="11">23</text><text transform="translate(106.357 46.602)" font-family="Helvetica,Arial,sans-serif" font-size="11">21</text><text transform="translate(126.357 46.602)" font-family="Helvetica,Arial,sans-serif" font-size="11">20</text><text transform="translate(147.357 46.602)" font-family="Helvetica,Arial,sans-serif" font-size="11">19</text><text transform="translate(166.357 46.602)" font-family="Helvetica,Arial,sans-serif" font-size="11">18</text><text transform="translate(186.357 46.602)" font-family="Helvetica,Arial,sans-serif" font-size="11">17</text><text transform="translate(206.357 46.602)" font-family="Helvetica,Arial,sans-serif" font-size="11">16</text><text transform="translate(226.357 46.602)" font-family="Helvetica,Arial,sans-serif" font-size="11">15</text><text transform="translate(266.357 46.602)" font-family="Helvetica,Arial,sans-serif" font-size="11">13</text><text transform="translate(286.357 46.602)" font-family="Helvetica,Arial,sans-serif" font-size="11">12</text><text transform="translate(306.357 46.602)" font-family="Helvetica,Arial,sans-serif" font-size="11">11</text><text transform="translate(326.357 46.602)" font-family="Helvetica,Arial,sans-serif" font-size="11">10</text><text transform="translate(350.179 46.602)" font-family="Helvetica,Arial,sans-serif" font-size="11">9</text><text transform="translate(370.179 46.602)" font-family="Helvetica,Arial,sans-serif" font-size="11">8</text><text transform="translate(246.357 46.602)" font-family="Helvetica,Arial,sans-serif" font-size="11">14</text><text transform="translate(389.179 46.602)" font-family="Helvetica,Arial,sans-serif" font-size="11">7</text><text transform="translate(429.179 46.602)" font-family="Helvetica,Arial,sans-serif" font-size="11">5</text><text transform="translate(449.179 46.602)" font-family="Helvetica,Arial,sans-serif" font-size="11">4</text><text transform="translate(470.179 46.602)" font-family="Helvetica,Arial,sans-serif" font-size="11">3</text><text transform="translate(490.179 46.602)" font-family="Helvetica,Arial,sans-serif" font-size="11">2</text><text transform="translate(510.179 46.602)" font-family="Helvetica,Arial,sans-serif" font-size="11">1</text><text transform="translate(529.179 46.602)" font-family="Helvetica,Arial,sans-serif" font-size="11">0</text><text transform="translate(409.179 46.602)" font-family="Helvetica,Arial,sans-serif" font-size="11">6</text><text transform="translate(528.5 169.602)" font-family="Helvetica,Arial,sans-serif" font-size="20">•</text><text transform="translate(508.5 169.602)" font-family="Helvetica,Arial,sans-serif" font-size="20">•</text><text transform="translate(488.5 169.602)" font-family="Helvetica,Arial,sans-serif" font-size="20">•</text><text transform="translate(468.5 169.602)" font-family="Helvetica,Arial,sans-serif" font-size="20">•</text><text transform="translate(448.5 169.602)" font-family="Helvetica,Arial,sans-serif" font-size="20">•</text><text transform="translate(428.5 169.602)" font-family="Helvetica,Arial,sans-serif" font-size="20">•</text><text transform="translate(408.5 169.602)" font-family="Helvetica,Arial,sans-serif" font-size="20">•</text><text transform="translate(388.5 169.602)" font-family="Helvetica,Arial,sans-serif" font-size="20">•</text><text transform="translate(368.5 169.602)" font-family="Helvetica,Arial,sans-serif" font-size="20">•</text><text transform="translate(348.5 169.602)" font-family="Helvetica,Arial,sans-serif" font-size="20">•</text><text transform="translate(328.5 169.602)" font-family="Helvetica,Arial,sans-serif" font-size="20">•</text><text transform="translate(308.5 169.602)" font-family="Helvetica,Arial,sans-serif" font-size="20">•</text><text transform="translate(288.5 169.602)" font-family="Helvetica,Arial,sans-serif" font-size="20">•</text><text transform="translate(268.5 169.602)" font-family="Helvetica,Arial,sans-serif" font-size="20">•</text><text transform="translate(248.5 169.602)" font-family="Helvetica,Arial,sans-serif" font-size="20">•</text><text transform="translate(228.5 169.602)" font-family="Helvetica,Arial,sans-serif" font-size="20">•</text><text transform="translate(528.5 139.602)" font-family="Helvetica,Arial,sans-serif" font-size="20">•</text><text transform="translate(508.5 139.602)" font-family="Helvetica,Arial,sans-serif" font-size="20">•</text><text transform="translate(488.5 139.602)" font-family="Helvetica,Arial,sans-serif" font-size="20">•</text><text transform="translate(468.5 139.602)" font-family="Helvetica,Arial,sans-serif" font-size="20">•</text><text transform="translate(448.5 139.602)" font-family="Helvetica,Arial,sans-serif" font-size="20">•</text><text transform="translate(428.5 139.602)" font-family="Helvetica,Arial,sans-serif" font-size="20">•</text><text transform="translate(408.5 139.602)" font-family="Helvetica,Arial,sans-serif" font-size="20">•</text><text transform="translate(388.5 139.602)" font-family="Helvetica,Arial,sans-serif" font-size="20">•</text><text transform="translate(368.5 139.602)" font-family="Helvetica,Arial,sans-serif" font-size="20">•</text><text transform="translate(348.5 139.602)" font-family="Helvetica,Arial,sans-serif" font-size="20">•</text><text transform="translate(328.5 139.602)" font-family="Helvetica,Arial,sans-serif" font-size="20">•</text><text transform="translate(308.5 139.602)" font-family="Helvetica,Arial,sans-serif" font-size="20">•</text><text transform="translate(528.5 109.603)" font-family="Helvetica,Arial,sans-serif" font-size="20">•</text><text transform="translate(508.5 109.603)" font-family="Helvetica,Arial,sans-serif" font-size="20">•</text><text transform="translate(488.5 109.603)" font-family="Helvetica,Arial,sans-serif" font-size="20">•</text><text transform="translate(468.5 109.603)" font-family="Helvetica,Arial,sans-serif" font-size="20">•</text><text transform="translate(448.5 109.603)" font-family="Helvetica,Arial,sans-serif" font-size="20">•</text><text transform="translate(428.5 109.603)" font-family="Helvetica,Arial,sans-serif" font-size="20">•</text><text transform="translate(408.5 109.603)" font-family="Helvetica,Arial,sans-serif" font-size="20">•</text><text transform="translate(388.5 109.603)" font-family="Helvetica,Arial,sans-serif" font-size="20">•</text><text transform="translate(528.5 79.603)" font-family="Helvetica,Arial,sans-serif" font-size="20">•</text><text transform="translate(508.5 79.603)" font-family="Helvetica,Arial,sans-serif" font-size="20">•</text><text transform="translate(488.5 79.603)" font-family="Helvetica,Arial,sans-serif" font-size="20">•</text><text transform="translate(468.5 79.603)" font-family="Helvetica,Arial,sans-serif" font-size="20">•</text><text transform="translate(448.5 79.603)" font-family="Helvetica,Arial,sans-serif" font-size="20">•</text><text transform="translate(428.5 79.603)" font-family="Helvetica,Arial,sans-serif" font-size="20">•</text><text transform="translate(408.5 79.603)" font-family="Helvetica,Arial,sans-serif" font-size="20">•</text><text transform="translate(388.5 79.603)" font-family="Helvetica,Arial,sans-serif" font-size="20">•</text><text transform="translate(368.5 109.603)" font-family="Helvetica,Arial,sans-serif" font-size="20">•</text><text transform="translate(348.5 109.603)" font-family="Helvetica,Arial,sans-serif" font-size="20">•</text><text transform="translate(328.5 109.603)" font-family="Helvetica,Arial,sans-serif" font-size="20">•</text><text transform="translate(308.5 109.603)" font-family="Helvetica,Arial,sans-serif" font-size="20">•</text><text transform="translate(288.5 139.602)" font-family="Helvetica,Arial,sans-serif" font-size="20">•</text><text transform="translate(268.5 139.602)" font-family="Helvetica,Arial,sans-serif" font-size="20">•</text><text transform="translate(248.5 139.602)" font-family="Helvetica,Arial,sans-serif" font-size="20">•</text><text transform="translate(228.5 139.602)" font-family="Helvetica,Arial,sans-serif" font-size="20">•</text><text transform="translate(208.5 169.602)" font-family="Helvetica,Arial,sans-serif" font-size="20">•</text><text transform="translate(188.5 169.602)" font-family="Helvetica,Arial,sans-serif" font-size="20">•</text><text transform="translate(168.5 169.602)" font-family="Helvetica,Arial,sans-serif" font-size="20">•</text><text transform="translate(148.5 169.602)" font-family="Helvetica,Arial,sans-serif" font-size="20">•</text><text transform="translate(128.5 169.602)" font-family="Helvetica,Arial,sans-serif" font-size="20">•</text><text transform="translate(108.5 169.602)" font-family="Helvetica,Arial,sans-serif" font-size="20">•</text><text transform="translate(88.5 169.602)" font-family="Helvetica,Arial,sans-serif" font-size="20">•</text><text transform="translate(68.5 169.602)" font-family="Helvetica,Arial,sans-serif" font-size="20">•</text><text transform="translate(369 76.103)" font-family="Helvetica,Arial,sans-serif" font-size="14">x</text><text transform="translate(349 76.103)" font-family="Helvetica,Arial,sans-serif" font-size="14">x</text><text transform="translate(329 76.103)" font-family="Helvetica,Arial,sans-serif" font-size="14">x</text><text transform="translate(309 76.103)" font-family="Helvetica,Arial,sans-serif" font-size="14">x</text><text transform="translate(289 76.103)" font-family="Helvetica,Arial,sans-serif" font-size="14">x</text><text transform="translate(269 76.103)" font-family="Helvetica,Arial,sans-serif" font-size="14">x</text><text transform="translate(249 76.103)" font-family="Helvetica,Arial,sans-serif" font-size="14">x</text><text transform="translate(229 76.103)" font-family="Helvetica,Arial,sans-serif" font-size="14">x</text><text transform="translate(289 106.103)" font-family="Helvetica,Arial,sans-serif" font-size="14">x</text><text transform="translate(269 106.103)" font-family="Helvetica,Arial,sans-serif" font-size="14">x</text><text transform="translate(249 106.103)" font-family="Helvetica,Arial,sans-serif" font-size="14">x</text><text transform="translate(229 106.103)" font-family="Helvetica,Arial,sans-serif" font-size="14">x</text><text transform="translate(209 76.103)" font-family="Helvetica,Arial,sans-serif" font-size="14">x</text><text transform="translate(189 76.103)" font-family="Helvetica,Arial,sans-serif" font-size="14">x</text><text transform="translate(169 76.103)" font-family="Helvetica,Arial,sans-serif" font-size="14">x</text><text transform="translate(149 76.103)" font-family="Helvetica,Arial,sans-serif" font-size="14">x</text><text transform="translate(129 76.103)" font-family="Helvetica,Arial,sans-serif" font-size="14">x</text><text transform="translate(109 76.103)" font-family="Helvetica,Arial,sans-serif" font-size="14">x</text><text transform="translate(89 76.103)" font-family="Helvetica,Arial,sans-serif" font-size="14">x</text><text transform="translate(69 76.103)" font-family="Helvetica,Arial,sans-serif" font-size="14">x</text><text transform="translate(209 106.103)" font-family="Helvetica,Arial,sans-serif" font-size="14">x</text><text transform="translate(189 106.103)" font-family="Helvetica,Arial,sans-serif" font-size="14">x</text><text transform="translate(169 106.103)" font-family="Helvetica,Arial,sans-serif" font-size="14">x</text><text transform="translate(149 106.103)" font-family="Helvetica,Arial,sans-serif" font-size="14">x</text><text transform="translate(129 106.103)" font-family="Helvetica,Arial,sans-serif" font-size="14">x</text><text transform="translate(109 106.103)" font-family="Helvetica,Arial,sans-serif" font-size="14">x</text><text transform="translate(89 106.103)" font-family="Helvetica,Arial,sans-serif" font-size="14">x</text><text transform="translate(69 106.103)" font-family="Helvetica,Arial,sans-serif" font-size="14">x</text><text transform="translate(209 136.102)" font-family="Helvetica,Arial,sans-serif" font-size="14">x</text><text transform="translate(189 136.102)" font-family="Helvetica,Arial,sans-serif" font-size="14">x</text><text transform="translate(169 136.102)" font-family="Helvetica,Arial,sans-serif" font-size="14">x</text><text transform="translate(149 136.102)" font-family="Helvetica,Arial,sans-serif" font-size="14">x</text><text transform="translate(129 136.102)" font-family="Helvetica,Arial,sans-serif" font-size="14">x</text><text transform="translate(109 136.102)" font-family="Helvetica,Arial,sans-serif" font-size="14">x</text><text transform="translate(89 136.102)" font-family="Helvetica,Arial,sans-serif" font-size="14">x</text><text transform="translate(69 136.102)" font-family="Helvetica,Arial,sans-serif" font-size="14">x</text><text transform="translate(6.5 197.418)" font-family="Helvetica,Arial,sans-serif" font-size="20">•</text><text transform="translate(86.357 46.602)" font-family="Helvetica,Arial,sans-serif" font-size="11">22</text></svg>