<svg version="1.0" xmlns="http://www.w3.org/2000/svg" viewBox="0 0 520 355.3"><path clip-rule="evenodd" fill="none" stroke="#000" stroke-width=".709" stroke-miterlimit="3.864" d="M55.4 185s17.6-44.2 22.4-53.3c4.8-9 13.9-26.5 18-32.1 4.1-5.6 15-21.3 16-22.8 1.1-1.6 15-18 17.9-20.6 2.8-2.6 17-15.5 21.3-17.9 4.3-2.4 20.6-14.5 41-14.2 20.4.4 33.9 14.2 33.9 14.2s12.9 16.1 16 22.3c.7 1.3 7.3 9.1 7.3 9.1l14.3 19.1 26.3 35.5 8.1 11.2s9.2 11.5 10.1 12.3c1 .8 11.8 11.9 13.5 13.2 1.7 1.3 31.4 29.5 32.7 30.8 1.3 1.3 54.2 49.1 69 59.5 14.8 10.4 28 19.9 40.1 25.1 12 5.3 26 13 34.1 13.2"/><path fill="none" stroke="#000" stroke-width=".709" stroke-miterlimit="3.864" d="M54.2 19.7h442.2v286.5H54.2V19.7z"/><path clip-rule="evenodd" fill="none" stroke="#000" stroke-width=".227" stroke-miterlimit="3.864" d="M54.4 47.8h442.3M54.3 76.9h442.3M54.3 105.4h442.3M54.2 134.1h442.4M54.3 162.5h442.3M54.4 191.8h442.3M54.1 220.3h442.3m-442 28.4h442.3M54.3 277.2h442.3M127.8 19.6v286.8m73.9-286.6v286.8m74.1-287v286.8m73.1-286.9v286.8m73.9-286.5v286.8"/><g font-family="Helvetica,Arial,sans-serif"><text transform="translate(39.374 23.4)" font-size="8">1.0</text><text transform="translate(39.374 50.4)" font-size="8">0.9</text><text transform="translate(39.374 79.4)" font-size="8">0.8</text><text transform="translate(39.374 108.4)" font-size="8">0.7</text><text transform="translate(39.374 136.4)" font-size="8">0.6</text><text transform="translate(39.374 165.4)" font-size="8">0.5</text><text transform="translate(39.374 195.4)" font-size="8">0.4</text><text transform="translate(39.374 223.4)" font-size="8">0.3</text><text transform="translate(39.374 252.4)" font-size="8">0.2</text><text transform="translate(39.374 281.4)" font-size="8">0.1</text><text transform="translate(45.374 309.4)" font-size="8">0</text><text transform="rotate(-90 123.358 101.237)" fill="#131718" font-size="12">Relative Response</text><text transform="translate(214.721 341.302)" font-size="12">Wavelength (nm)</text><text transform="translate(49.574 321.4)" font-size="8">400</text><text transform="translate(121.574 321.4)" font-size="8">500</text><text transform="translate(195.574 321.4)" font-size="8">600</text><text transform="translate(270.574 321.4)" font-size="8">700</text><text transform="translate(340.574 321.4)" font-size="8">800</text><text transform="translate(417.574 321.4)" font-size="8">900</text><text transform="translate(488.574 321.4)" font-size="8">1000</text></g></svg>