<svg version="1.0" xmlns="http://www.w3.org/2000/svg" viewBox="0 0 520 291.5"><g clip-rule="evenodd" fill="none" stroke="#000" stroke-miterlimit="3.864"><path stroke-width=".227" d="M410.8 19.1v229m33.8-229v230.2m31.9-230.2v230.2"/><path stroke-width=".866" d="M43.1 19.1l467.5-.2v229.8l-467.5.3z"/><path stroke-width=".227" d="M75.7 20.5v228.2M110.1 18v228.2m33.2-225.7v228.2m33.2-229.3v229.3m32.2-229.9l.4 230.5m34.4-228.8v228.2m32.6-230.5v231.7m33.8-229.4v228.2m33.9-227.6v228.2m33.1-227.6v228.2M41.1 96.5l468.8-.2M43.3 135.2l466.6-.2M44.7 174.6l467.1-.3M42.7 212.1l466.6-.3M42.8 58.2l468.8-.2"/></g><text transform="rotate(-90 112.889 97.136)" fill="#131718" font-family="Helvetica,Arial,sans-serif" font-size="12">Quantum Efficiency (%)</text><text transform="translate(34.422 251.963)" font-family="Helvetica,Arial,sans-serif" font-size="8">0</text><text transform="translate(29.968 214.99)" font-family="Helvetica,Arial,sans-serif" font-size="8">10</text><text transform="translate(29.968 175.99)" font-family="Helvetica,Arial,sans-serif" font-size="8">20</text><text transform="translate(29.968 138.99)" font-family="Helvetica,Arial,sans-serif" font-size="8">30</text><text transform="translate(29.968 97.99)" font-family="Helvetica,Arial,sans-serif" font-size="8">40</text><text transform="translate(29.968 60.99)" font-family="Helvetica,Arial,sans-serif" font-size="8">50</text><text transform="translate(29.968 21.99)" font-family="Helvetica,Arial,sans-serif" font-size="8">60</text><text transform="translate(37.855 262.121)" font-family="Helvetica,Arial,sans-serif" font-size="8">400</text><text transform="translate(104.957 262.121)" font-family="Helvetica,Arial,sans-serif" font-size="8">500</text><text transform="translate(169.324 262.121)" font-family="Helvetica,Arial,sans-serif" font-size="8">600</text><text transform="translate(237.906 262.121)" font-family="Helvetica,Arial,sans-serif" font-size="8">700</text><text transform="translate(302.906 262.121)" font-family="Helvetica,Arial,sans-serif" font-size="8">800</text><text transform="translate(369.788 262.121)" font-family="Helvetica,Arial,sans-serif" font-size="8">900</text><text transform="translate(434.953 262.121)" font-family="Helvetica,Arial,sans-serif" font-size="8">1000</text><text transform="translate(70.957 262.121)" font-family="Helvetica,Arial,sans-serif" font-size="8">450</text><text transform="translate(138.458 262.121)" font-family="Helvetica,Arial,sans-serif" font-size="8">550</text><text transform="translate(202.958 262.121)" font-family="Helvetica,Arial,sans-serif" font-size="8">650</text><text transform="translate(268.69 262.121)" font-family="Helvetica,Arial,sans-serif" font-size="8">750</text><text transform="translate(335.406 262.121)" font-family="Helvetica,Arial,sans-serif" font-size="8">850</text><text transform="translate(402.639 262.121)" font-family="Helvetica,Arial,sans-serif" font-size="8">950</text><text transform="translate(466.734 262.121)" font-family="Helvetica,Arial,sans-serif" font-size="8">1050</text><g font-family="Helvetica,Arial,sans-serif" font-size="8"><text transform="translate(497.234 262.121)">1</text><text transform="translate(501.937 262.121)">100</text></g><text transform="translate(235.645 283.334)" font-family="Helvetica,Arial,sans-serif" font-size="12">Wavelength (nm)</text><g fill="none" stroke="#000" stroke-miterlimit="3.864"><path clip-rule="evenodd" d="M43.6 94.6l3.2-4.7 7.3-8.5 4.6-4.7 4.5-4.5 7.8-3.4c3.5-.7 14.7-2.5 15.9-2.7 0 .2 3.1 0 3.1 0 0-1.2 6.9-2.5 6.9-2.5l12.8-1.7 6.9 2.6 6.8-2.9 5.8 2.8 7.4-2.3 6.6 2.8 8-4.9 9.7 4.9 3.5.5 13.7 13.8c-.3-1.2 6.8-4 6.8-4l12.9 7.4 6.9-3.2 7.2 3.5 5.1 3.8 8 2.3 13.4 19.7 5.2 1.2 8-.6 13.1 11.5 13.2.6 9.4 11.7 5.7 5.5 1.8 2 1.4 1.4c1 .2 14.3 10.8 14.3 10.8l-3-1.9c1.3-.1 13.3 17.1 13.3 17.1-1.1 1.2 8.8 7.7 8.8 7.7l10.6 6 11.5 9.5 10.1 4.9 9.8 2.5 8 3.4 5.4 3.2 11.8 11.4 5.5 4.1"/><path d="M483.4 246.3l-16.6-1.7-15.8-1.7"/><path clip-rule="evenodd" d="M402.7 221l10.5 6 10.1 3.4 11.8 5.1c1.2 3.8 17.1 8 17.1 8"/></g></svg>