<svg version="1.0" xmlns="http://www.w3.org/2000/svg" viewBox="0 0 520 350"><path fill="none" stroke="#1D1D1B" stroke-width=".709" stroke-miterlimit="3.864" d="M64.2 19.4h434.9v281.8H64.2V19.4z"/><path clip-rule="evenodd" fill="none" stroke="#1D1D1B" stroke-width=".227" stroke-miterlimit="3.864" d="M64.3 47.1h435.1M64.3 75.7h435m-435 28h435.1M64.2 131.9h435.1m-435 28h435.1m-435 28.8h435m-435.3 28h435.1m-434.9 28h435.1m-435.1 28h435M136.6 19.4v282.1m72.7-282v282.1m72.9-282.3v282.1m71.9-282.1v282.1m72.7-281.8v282.1"/><g clip-rule="evenodd"><path fill-rule="evenodd" fill="#1D1D1B" d="M365.1 122.5h113.4v73.3H365.1z"/><path fill="none" stroke="#1D1D1B" stroke-width="1.117" stroke-miterlimit="3.864" d="M365.1 122.5h113.4v73.3H365.1z"/><path fill-rule="evenodd" fill="#FFF" d="M361.7 119h113.4v73.3H361.7z"/><path fill="none" stroke="#1D1D1B" stroke-width="1.117" stroke-miterlimit="3.864" d="M361.7 119h113.4v73.3H361.7z"/><path fill="none" stroke="#00F" stroke-miterlimit="3.864" stroke-dasharray="12,2,2,2" d="M372 134.5h40.9"/><path fill="none" stroke="#0F0" stroke-miterlimit="3.864" stroke-dasharray="2,2" d="M372 157.8h40.9"/><path fill="none" stroke="red" stroke-miterlimit="3.864" stroke-dasharray="72" d="M372 181.1h40.9"/></g><g clip-rule="evenodd" fill="none" stroke-miterlimit="3.864"><path stroke="#0000D7" stroke-dasharray="12,2,2,2" d="M65.2 256.6l1.9-3.2 13.8-21.3 9.8-14.5L105 197l14.6-21.1 11.3-14.2 8.7-9 9.2-8.4 5.9-2.8 4.7-.5 5.2 1.1 5.1 1.5 4.5 3.1 4.8 4.9 5.9 5.7 6.4 6.9 4.9 7 10.1 15.9 12 20.5 12.8 20.4 11.6 18.3 9.1 13.5 9.3 13.4 9.2 12.1 3.8 4.9 3.5 3.4 4.5 2.8 3.7 1.3 4.2.5 81.4 1.3 34.9 1.1"/><path stroke="#0F0" stroke-dasharray="2,2" d="M64.8 296l11.9-1.4 14.8-2.1 12.4-2.8 10.5-3.1 9-2.8 9-3.7 6.6-3.8 5.6-4.7 8.9-9.7 7.3-8.6 11.1-14.1 9.2-12.9 7.5-10.4 7.7-11.7 4.4-7.1 6.8-12.6 4.8-10.7 5.9-13 7.2-17.7 4.3-10.3 4.4-10 5.7-10.8 5.3-9.2 6-9.1 8.9-9 3-1.9 3-.5h8.7l4.9 1.7 5.5 3.3 5.5 4.3 7.4 6.9 7.3 11.1 7.5 14 4.3 8.9 8.5 22.5 7.2 20.1 9 24.6 7.1 19.1 8.8 23.8 2.5 6.7 2.3 4.8 8.2 12.4 4.2 5.6 4.3 5.8 4.5 4 7.7 5.1 7.5 3.4 8.7 2.8 7.6 1.3 8 .9 9.5.1 6.1-.7 9.5-2.4 10.3-3.5 8.7-4.4 8.1-4.5 6.7-4.2 5.2-3.3 6.4-4.4 2.9-1.6 2.2-.4"/><path stroke="red" d="M64.6 297.3l38.2 1.5 25.5.6h28.2l5 1 14.9.9 10.1-.4 14.3-1.9 10.5-1.5 14.1-3.1 9.9-2.6 6.7-1.2 5.5-.9 6.7.2 7.6 1.3 8.8 1.7 6.5 1 5.5-.2 5.5-1.9 4.8-5 6.1-8.9 6.9-18.7 6.1-23.9 3.4-19 4-24.3 6.5-40.8 2.8-24 2.5-15.6 3.5-18.9 5.5-24.6 5.7-15.3 6.9-15.2 4.9-6.9 4.4-5.1 3.8-2.5 4.8-1.4 8.8-.7 7.8-.8 5.3-.1 8.4.3 8 1.7 9.6 2.9 17.1 4.2 12.8 3.2 4.8 1.5 3.6 2.1 4 2.9 3.4 3.8 3.1 2.7 3.6 3.4 5.4 2.7 12.9 5.7 10.3 4.6"/></g><g font-family="Helvetica,Arial,sans-serif"><text transform="translate(224.19 336.83)" font-size="12">Wavelength (nm)</text><text transform="translate(427.543 137.712)" fill="#1D1D1B" font-size="12">Blue</text><text transform="translate(427.543 162.009)" fill="#1D1D1B" font-size="12">Green</text><text transform="rotate(-90 126.486 102.397)" fill="#1D1D1B" font-size="12">Relative Response</text><text transform="translate(427.543 183.76)" fill="#1D1D1B" font-size="12">Red</text><text transform="translate(47.5 24.166)" font-size="8">1.0</text><text transform="translate(47.5 49.166)" font-size="8">0.9</text><text transform="translate(47.5 79.166)" font-size="8">0.8</text><text transform="translate(47.5 106.166)" font-size="8">0.7</text><text transform="translate(47.5 136.167)" font-size="8">0.6</text><text transform="translate(47.5 163.167)" font-size="8">0.5</text><text transform="translate(47.5 193.167)" font-size="8">0.4</text><text transform="translate(47.5 220.167)" font-size="8">0.3</text><text transform="translate(47.5 248.167)" font-size="8">0.2</text><text transform="translate(47.5 275.166)" font-size="8">0.1</text><text transform="translate(53.5 302.166)" font-size="8">0</text><text transform="translate(57.5 316.166)" font-size="8">400</text><text transform="translate(129.5 316.166)" font-size="8">450</text><text transform="translate(202.5 316.166)" font-size="8">500</text><text transform="translate(277.5 316.166)" font-size="8">550</text><text transform="translate(346.5 316.166)" font-size="8">600</text><text transform="translate(418.5 316.166)" font-size="8">650</text><text transform="translate(490.5 316.166)" font-size="8">700</text></g></svg>