<svg version="1.0" xmlns="http://www.w3.org/2000/svg" viewBox="0 0 290 220"><path d="M170.7 70.2l2.9-37.4m4.4 43.6L226.1 34M178 85.3l67.2 21.5m-74.9-17l-27.6 29.1m20-42.5L118 33.9m44.7 51.4l-43 13.4" fill="none" stroke="#000" stroke-miterlimit="10"/><path fill="none" stroke="#000" stroke-width=".283" stroke-linecap="round" stroke-linejoin="round" stroke-miterlimit="10" d="M238.3 189.1V51.3m-192 142.8h187m0-147.7h-187m0 1h187m-187 0c-2.2 0-3.9 1.8-3.9 3.9"/><path fill="none" stroke="#000" stroke-width=".283" stroke-miterlimit="3.864" d="M42.3 189.1V51.3m-.9 0v137.8"/><path fill="none" stroke="#000" stroke-width=".238" stroke-linecap="round" stroke-linejoin="round" stroke-miterlimit="10" d="M42.3 189.1c0 2.2 1.8 3.9 3.9 3.9"/><path fill="none" stroke="#000" stroke-width=".283" stroke-linecap="round" stroke-linejoin="round" stroke-miterlimit="10" d="M233.3 193.1h-187m187 0c2.2 0 3.9-1.8 3.9-3.9m.1-137.9v137.8m0-137.8c0-2.2-1.8-3.9-3.9-3.9m-32.8 33.2c0-17-13.8-30.8-30.8-30.8S139 63.6 139 80.6s13.8 30.8 30.8 30.8 30.8-13.8 30.8-30.8h0z"/><path fill="none" stroke="#000" stroke-width=".283" stroke-linecap="round" stroke-linejoin="round" stroke-miterlimit="10" d="M201.6 80.6c0-17.6-14.2-31.8-31.8-31.8S138 63 138 80.6s14.2 31.8 31.8 31.8c17.5 0 31.8-14.3 31.8-31.8h0zM95.5 173.4h88.6m0-1H95.5m-9.8-8.9c0 5.4 4.4 9.8 9.8 9.8m-8.9-9.8c0 4.9 4 8.9 8.9 8.9m-9.8-31v22.1m.9 0v-22.1m8.9-9.9c-5.4 0-9.8 4.4-9.8 9.8m9.8-8.8c-4.9 0-8.9 4-8.9 8.9m97.5-9.9H95.5m0 1h88.6m9.9 8.9c0-5.4-4.4-9.8-9.8-9.8m8.8 9.8c0-4.9-4-8.9-8.9-8.9m9.9 31v-22.1m-1 0v22.1m-8.9 9.9c5.4 0 9.8-4.4 9.8-9.8m-9.8 8.8c4.9 0 8.9-4 8.9-8.9m-24.6-19h-57.1m62 5c0-2.7-2.2-4.9-4.9-4.9m4.9 10.8v-5.9m-4.9 10.9c2.7 0 4.9-2.2 4.9-4.9m-59.8 4.9h54.9m-58.4-1.5c.9.9 2.2 1.4 3.5 1.4m-5.7-3.6l2.2 2.2m-3.7-5.7c0 1.3.5 2.6 1.4 3.5m-1.4-7.2v3.7m5-8.7c-2.7 0-4.9 2.2-4.9 4.9m4.9-3.9h57.1m3.9 4c0-2.2-1.8-3.9-3.9-3.9m3.9 3.9v5.9m-3.9 4c2.2 0 3.9-1.8 3.9-3.9m-3.9 3.9h-54.9m-2.8-1.2c.7.7 1.7 1.2 2.8 1.2m-2.8-1.2l-2.2-2.2m-1.2-2.8c0 1 .4 2 1.2 2.8m-1.2-2.8v-3.7m4-4c-2.2 0-3.9 1.8-3.9 3.9"/><path fill="none" stroke="#000" stroke-width=".283" stroke-linecap="round" stroke-linejoin="round" stroke-miterlimit="10" d="M197.8 80.6c0-15.5-12.6-28.1-28.1-28.1-15.5 0-28.1 12.6-28.1 28.1 0 15.5 12.6 28.1 28.1 28.1 15.6-.1 28.1-12.7 28.1-28.1h0zm-7.8 71.8c0-3.3-2.6-5.9-5.9-5.9-3.3 0-5.9 2.6-5.9 5.9 0 3.3 2.6 5.9 5.9 5.9 3.3.1 5.9-2.6 5.9-5.9h0zm-88.6 0c0-3.3-2.6-5.9-5.9-5.9-3.3 0-5.9 2.6-5.9 5.9 0 3.3 2.6 5.9 5.9 5.9 3.3.1 5.9-2.6 5.9-5.9h0z"/><path fill="none" stroke="#000" stroke-width=".283" stroke-linecap="round" stroke-linejoin="round" stroke-miterlimit="10" d="M188 152.4c0-2.1-1.7-3.9-3.9-3.9-2.1 0-3.9 1.7-3.9 3.9 0 2.1 1.7 3.9 3.9 3.9 2.1 0 3.9-1.7 3.9-3.9h0zm-88.6 0c0-2.1-1.7-3.9-3.9-3.9-2.1 0-3.9 1.7-3.9 3.9 0 2.1 1.7 3.9 3.9 3.9 2.1 0 3.9-1.7 3.9-3.9h0zm-53.1-106c-2.7 0-4.9 2.2-4.9 4.9"/><path fill="none" stroke="#000" stroke-width=".238" stroke-linecap="round" stroke-linejoin="round" stroke-miterlimit="10" d="M41.4 189.1c0 2.7 2.2 4.9 4.9 4.9"/><path fill="none" stroke="#000" stroke-width=".283" stroke-linecap="round" stroke-linejoin="round" stroke-miterlimit="10" d="M233.3 194.1c2.7 0 4.9-2.2 4.9-4.9m.1-137.9c0-2.7-2.2-4.9-4.9-4.9m-39.7 73.1c0-2.7-2.2-4.9-4.9-4.9s-4.9 2.2-4.9 4.9 2.2 4.9 4.9 4.9 4.9-2.2 4.9-4.9h0z"/><path fill="none" stroke="#000" stroke-width=".283" stroke-linecap="round" stroke-linejoin="round" stroke-miterlimit="10" d="M191.7 119.5c0-1.6-1.3-3-3-3-1.6 0-3 1.3-3 3 0 1.6 1.3 3 3 3 1.7-.1 3-1.4 3-3h0zm-50-38.7c0 1.3.7 2.5 1.8 3.2m0-6.9c-1.1.7-1.8 1.9-1.8 3.2m-33.8 74.5h-.2m64.6 1h-.6m-1.8 0h-.2m16.5-37.7l2.7-1.6m2.3 4.7l-2.2 1.2m-19.3 36.7h-3.3m-6.8 0h-.3m-6.9 0h-13.9m-23.6 0h-2.8m28.7-.2h4.9m-4.9.2v-.2m4.9.2v-.2m-33 .1v.1m54.2 0v-.4m2.9-5s0 0 0 0m0 0h0m2.5 1.3c-.2-.3-.4-.5-.6-.7m-1.7-.6h-.1m-62 .6l-.3.3m62.1 4.5h-3.3m-6.8 0h-.3m-6.9 0h-13.9m-23.6 0h-2.8m47.4-7.1h-10.9m10.9 0v-.8m-11.6 0h11.6m-39.4 0h25.3m-25.3 0v.8m24.5 0h-24.5m22.9 1.6l-2.6 2.9m2.6-2.9l1.9-2m1.8-.7h-.1m0 0c-.6 0-1.2.3-1.6.7m26.3.7c.4 0 .7-.4.7-1m.3 1h-1m.6-1.9v.9m-5 7.4c-.3 0-.5.1-.5.3m-6.8-1.1c0 .3.4.5 1 .5m-1-.5v1.5m-7.2-.4c0-.2-.2-.3-.5-.3m.5-.8c0 .3.4.5 1 .5m-1-.5v1.5m-36.5-1h21.6m1-.5v1.5m-1-1c.5 0 1-.2 1-.5m-30.2-5.6h-1m.4-1c0 .5.3 1 .7 1m59.5-6.4c0 .2.2.3.5.3m-57.2 0c.3 0 .5-.1.5-.3m56.2 1c0-.3-.4-.5-1-.5m1-.9v1.4m-55.2-.4H167m.9 1.2v-.8m0 .9v-.1m-56.2.1v-.1m0 .1s0 0 0 0 0 0 0 0c0 .1-.1.1 0 0-.1.1-.1.1 0 0-.1.1-.1.1 0 0-.1.1-.1.1 0 0l-.1.1s0 0 0 0 0 0 0 0 0 0 0 0 0 0 0 0 0 0 0 0 0 0 0 0 0 0 0 0 0 0 0 0 0 0 0 0 0 0 0 0 0 0 0 0 0 0 0 0 0 0 0 0m56.8 0h-57.2m57.2 0s0 0 0 0h-.3s0 0 0 0 0 0 0 0 0 0 0 0 0 0 0 0 0 0 0 0 0 0 0 0 0 0 0 0 0 0 0 0 0 0 0 0 0 0 0 0 0 0 0 0 0 0 0 0 0 0 0 0m-22 0s0 0 0 0h-.2s0 0 0 0 0 0 0 0h-.2s0 0 0 0 0 0 0 0 0 0 0 0 0 0 0 0 0 0 0 0 0 0 0 0 0 0 0 0 0 0 0 0 0 0 0 0 0 0 0 0 0 0 0 0 0 0 0 0 0 0 0 0 0 0 0 0 0 0 0 0 0 0 0 0 0 0 0 0m24.3 1.5c0-.8-.7-1.5-1.5-1.5m-57.4 0c-.8 0-1.5.7-1.5 1.5m35.8-1.3v1.3m0 0v.2m-1.4 3h-3.5m0-.6v.6m0-1.4h0m0-1.8v.2m0-1.5v1.3m31.2 0c0-1.8-1.4-3.2-3.2-3.2m0 0h-.1m.1 1.7h-.1m-27.9.2s0 0 0 0 0-.1 0 0c0-.1 0-.1 0 0-.1-.1-.1-.1 0 0v-.1s0 0 0 0 0 0 0 0 0 0 0 0 0 0 0 0 0 0 0 0 0 0 0 0 0 0 0 0 0 0 0 0 0 0 0 0 0 0 0 0h-.1s0 0 0 0h-.1s0 0 0 0 0 0 0 0 0 0 0 0 0 0 0 0h-.2m-28.4-.3v-.8m0-1.4v1.4m2.4 12.1c.2 0 .4 0 .7-.1m56.5-9.5h1m-.4 1c0-.5-.3-1-.7-1m-58.5-2.9c-.5 0-1 .2-1 .5m58.3 2.4h.5m.8 0h-.8m.8 2.9h-.8m-.5 0h.5m-60.8 3.5c0 .8.7 1.5 1.5 1.5m-1.5-1.6v.1m-1.8-3.1v2.6m2.6-7.2c-.4.3-.7.7-.7 1.2m1.5-1.4h-.6s0 0 0 0 0 0 0 0h-.1s0 0 0 0 0 0 0 0 0 0 0 0 0 0 0 0 0 0 0 0 0 0 0 0h-.1m-.7 1.5v4m58.7 3.6c.8 0 1.5-.7 1.5-1.5m-21.1-2.4c0-1.2-1-2.2-2.2-2.2m-33.3 8.1h.7"/><path fill="none" stroke="#000" stroke-width=".283" stroke-linecap="round" stroke-linejoin="round" stroke-miterlimit="10" d="M114.2 158.9s0 0 0 0 0 0 0 0c0 .1 0 .1 0 0h-.1s0 0 0 0m.1 0l.2-.1m0 0s.1 0 0 0c.1 0 .1-.1 0 0 .1-.1.1-.1 0 0 .1-.1.1-.1 0 0m34.5-5.7v2.4m0 0c0 .8.7 1.5 1.5 1.5m-3.2-1.5c0 1.8 1.4 3.2 3.2 3.2m-3.2-5.6c0-.3-.2-.5-.5-.5m21.8 6.1h-1.6m-7.6 0h.3m-7.7 0h-1.5m1.5-1.7h-1.5m1.5 0h7.4m0 0h.3m0 0h7.3m1.6 0h-1.6m.6 1.7s0 0 0 0 0 0 0 0 0 0 0 0c.1 0 .1 0 0 0 .1 0 .1 0 0 0h.1s0 0 0 0 0 0 0 0m0 .1l.2.1m.2.1s0 0 0 0c-.1 0-.1 0 0 0h-.1s0 0 0 0m.1 0h.5m0 0h.2m.4.1c-.1-.1-.3-.1-.4-.1m2.2-.6c-.1-.2-.3-.3-.4-.4m-.5-8.6v2.9m-10.7 5.6v1.5m0-2.2v-.2m0 .2v.7m.3-.7v.7m0-.7v-.2m6.8.2v-.1m0 .1v.7m0 0v1.5m0-2.3s0 0 0 0c.1-.1.1-.1 0 0 .1-.1.1-.1 0 0 .1-.1.1-.1 0 0 .1-.1.1-.1 0 0 .1-.1.1-.1 0 0l.1-.1s0 0 0 0 0 0 0 0 0 0 0 0 0 0 0 0 0 0 0 0 0 0 0 0 0 0 0 0 0 0 0 0 0 0 0 0 0 0 0 0 0 0 0 0 0 0 0 0 0 0 0 0m-6 1.4h5m0 0c.5 0 1-.2 1-.5m2 .8c1.8 0 3.2-1.4 3.2-3.2m-13.4 2.9h-4.9m-1-1.2v.7m0-.7v-.1m-.5-.1c.1 0 .1 0 0 0h.2s0 0 0 0 0 0 0 0 0 0 0 0 0 0 0 0 0 0 0 0 0 0 0 0 0 0 0 0 0 0 0 0 0 0 0 0 0 0 0 0 0 0 0 0 0 0 0 0 0 0 0 0 0 0 0 0 0 0 0 0 0 0 0 0 0 0 0 0m6.2 1.4c.5 0 1-.2 1-.5m-12.7-5.3c-.1 0-.3.1-.4.2m-6.9 4.2c.4 0 .8-.2 1.1-.5m-.2-3.7h3.6m-3.8.3l.2-.3m3.4.3H140m.2-.3v-.8m0-.8h0m0-1.6v-1.7m-.2 1.7v-1.5m-23.2 2.1l2.1-2.1m-3.5 2.1h1.4m-3.5-2.1l2.1 2.1m24.6 2.9V152m0-.8h0m31.7 6.3h0m-1.7-5.2v3.2m1.7-3.2v3.2m-63.8-3.2v.4m1.8-.4v-2.9m-.5 0h.5m-.5 2.9h.5m-1.4-2.9c-.4 0-.7.4-.7 1m-.3-1h1m0 2.9h.9m.5 0v.4m1.4-6.5c-1.8 0-3.2 1.4-3.2 3.2m63.8 6.1v2m-58.8-.9l-2.8-2.9m-2.4-3.3v.9m.6-1.9h.9m35.1 5.4l1.9-2m-38.3-.1c0 .8.3 1.7.9 2.3m2.9 2.8l-2.8-2.8m4 1.6c.3.3.7.4 1 .4m25.4 1.7h-.3m-24.6 0h-.4m-4.3-6c0 .4.2.8.4 1m1.6 4.1c.6.6 1.4.9 2.3.9m-2.9-1.5c-.4 0-.8.1-1.2.2m29.1 1.3c-.3 0-.5.1-.5.3m0-1.9s0 0 0 0c0-.1 0-.1 0 0 0-.1 0-.1 0 0 0-.1.1-.1 0 0 .1-.1.1-.1 0 0l.1-.1s0 0 0 0 0 0 0 0 0 0 0 0 0 0 0 0 0 0 0 0 0 0 0 0 0 0 0 0 0 0 0 0 0 0 0 0 0 0 0 0 0 0 0 0h.1m-23.8 2c0-.2-.2-.3-.5-.3m.5-1.5v.7m0 0c0 .3.4.5 1 .5m22.6-1.2v.7m-23.6 0v1.5m0-2.2v-.1m-.5-.1s.1 0 0 0h.2s0 0 0 0 0 0 0 0 0 0 0 0 0 0 0 0 0 0 0 0 0 0 0 0 0 0 0 0 0 0 0 0 0 0 0 0 0 0 0 0 0 0 0 0 0 0 0 0 0 0 0 0 0 0 0 0 0 0 0 0 0 0 0 0 0 0 0 0m-.2 0H139m-.5.2v-.1m8.2-4.5h-.1m.6.5v2.4m-32.8 1.5h-.4m-.6 2h-1.6m-.7-1.8h.1m28.1-.2h-.3m.3 1.7c.9 0 1.7-.4 2.3-1m1.2-3.7l.1.2m-.1-.2s0 0 0 0 0 0 0 0 0 0 0 0 0 0 0 0 0 0 0 0v-.1s0 0 0 0 0 0 0 0 0 0 0 0 0 0 0 0 0 0 0 0 0 0 0 0 0 0 0 0 0 0 0 0 0 0 0 0 0 0 0 0 0 0 0 0 0 0 0 0 0 0 0 0m-2.4 2.6s0 0 0 0l.1-.1s0 0 0 0 0 0 0 0 0 0 0 0 0 0 0 0 0 0 0 0 0 0 0 0 0 0 0 0 0 0 0 0 0 0 0 0 0 0 0 0 0 0 0 0 0 0 0 0m.3-.2l.1.2m.6.5l1.1 1m-1.1-1l-.6-.5m3.4-1.6c-.2.2-.2.5-.1.6m.1 1.4c.4-.4.5-.9.3-1.1m-1 1.8l.7-.7m-1.7 1.1c.2.2.7.1 1.1-.3m-1.5 0c-.1-.1-.4-.1-.6.1m1.9-2.9l-.6-.6m.6.6l1.1.9m-2 .9l.7-.7m0 0c.4-.4.5-.9.3-1.1m-2.1 2.1c.2.2.7.1 1.1-.3m26 .4c.7-.3 1.2-1 1.2-1.8m0-5.8v5.8m0-5.8c0-.5-.2-1-.7-1.2m-23.2 1.4v-1.5m-35.8 8.1c.2.3.4.5.7.6m8.1-8.7l.3-.2m-6.2 0l.3.2m26.9-.2c-.1 0-.2.1-.2.2m5.9 0c0-.1-.1-.2-.2-.2m23.4.2s0 0 0 0-.1 0 0 0l-.1-.1s0 0 0 0 0 0 0 0 0 0 0 0h-.1s0 0 0 0 0 0 0 0h-.1s0 0 0 0 0 0 0 0h-.5m-22.7-.1v1.7m0-.2h-.2m-4.9 0h-.3m-29-1.5h-.1m36.5 9.2H144m22.7 2v-.3m-55.5-12.6h-.1m9 5h25.3m2.5 0h11.6m-39.4-1.6v1.6m39.4-1.6h-39.4m39.4 1.6v-1.6M173.3 63v2.9m-5.9 0V63m5.9 2.9h-5.9m0 32.3v-3m5.9 0v3m-5.9-3h5.9m14.9-14.6c0-9.9-8-17.8-17.8-17.8-9.9 0-17.8 8-17.8 17.8s8 17.8 17.8 17.8 17.8-8 17.8-17.8h0z"/><path fill="#1D1D1B" stroke="#000" stroke-width=".283" stroke-linecap="round" stroke-linejoin="round" stroke-miterlimit="10" d="M179.4 85c0-.7-.6-1.4-1.4-1.4-.7 0-1.4.6-1.4 1.4 0 .7.6 1.4 1.4 1.4.8-.1 1.4-.7 1.4-1.4h0zm0-8.9c0-.7-.6-1.4-1.4-1.4-.7 0-1.4.6-1.4 1.4s.6 1.4 1.4 1.4c.8 0 1.4-.6 1.4-1.4h0zm-7.7-4.4c0-.7-.6-1.4-1.4-1.4-.7 0-1.4.6-1.4 1.4 0 .7.6 1.4 1.4 1.4.8-.1 1.4-.7 1.4-1.4h0zm-7.7 4.4c0-.7-.6-1.4-1.4-1.4-.7 0-1.4.6-1.4 1.4s.6 1.4 1.4 1.4c.8 0 1.4-.6 1.4-1.4h0zm0 8.9c0-.7-.6-1.4-1.4-1.4-.7 0-1.4.6-1.4 1.4 0 .7.6 1.4 1.4 1.4.8-.1 1.4-.7 1.4-1.4h0zm7.7 4.4c0-.7-.6-1.4-1.4-1.4-.7 0-1.4.6-1.4 1.4 0 .7.6 1.4 1.4 1.4.8 0 1.4-.6 1.4-1.4h0z"/><path fill="none" stroke="#000" stroke-width=".283" stroke-linecap="round" stroke-linejoin="round" stroke-miterlimit="10" d="M197.4 80.6c0-15-12.1-27.1-27.1-27.1-15 0-27.1 12.1-27.1 27.1 0 15 12.1 27.1 27.1 27.1 15-.1 27.1-12.2 27.1-27.1h0z"/><path fill="none" stroke="#000" stroke-width=".283" stroke-linecap="round" stroke-linejoin="round" stroke-miterlimit="10" d="M192.1 80.6c0-12-9.8-21.8-21.8-21.8s-21.8 9.8-21.8 21.8 9.8 21.8 21.8 21.8c12.1-.1 21.8-9.8 21.8-21.8h0zm41.2-33.2v-1m-187 0v1m-4.9 3.9h.9m-.9 137.8h.9m4 5v-1m187 1v-1m5-4h-1m1-137.8h-1M95.5 172.4v1m88.6 0v-1m-97.5-8.9h-.9m.9-22.1h-.9m9.8-8.9v-1m88.6 1v-1m8.9 9.9h1m-1 22.1h1m-25.6-18v-1m-57.1 0v1m61 4h1m-1 5.9h1m-4.9 4v1m-54.9-1v1m-2.8-2.2l-.7.7m-1.5-2.9l-.7.7m-.5-3.5h-1m1-3.7h-1m66 1.8h-.4m0-.9h.4m-11.8 8v1m-7.1-1v1m-15.9-1v1m-21.6-1v1m-8.2-8.1h-.4m59.7-5.8v1m-54.3-1v1m-1 1.2h56.2m-22.5 1.7h-4.9m27.9-3.2v1.7m-57.2-1.7v1.7m59.3 1.5v2.9m-57.1 6.4v.3m55.3-.3v.3m-1.8-.3V157m-7.3.2h6.8m-.9 1.2v1m-7.2-1v1m-6.4-2.4v1.7m7.4-1.5h-6.9m-12.4-9.1h-21.1m-5.6 0h-2.8m61.2 9.4h-.7m-61.8-8.1v2.9m-1.9-1.9h.4M139 157v1.7m-.5-1.5h-23.6m-.5-.2v1.7m26-2.2l1.2 1.2m1.4-4.1l1.3 1.2m-3.4 1.6l2-2.2m.4 1.7l1 .9m-1.7-.2l1 .9m25.5-9.4h-23.2"/><path fill="none" stroke="#000" stroke-width=".227" stroke-linecap="round" stroke-linejoin="round" stroke-miterlimit="10" d="M46.3 194.1h0m0 0h0m-4.9-5h0m0 0h0"/><text transform="translate(107.999 104.002)" font-family="Helvetica,Arial,sans-serif" font-size="14">1</text><text transform="translate(132.918 127.922)" font-family="Helvetica,Arial,sans-serif" font-size="14">2</text><text transform="translate(247.418 112.313)" font-family="Helvetica,Arial,sans-serif" font-size="14">3</text><text transform="translate(227.918 33.48)" font-family="Helvetica,Arial,sans-serif" font-size="14">4</text><text transform="translate(169.76 29.313)" font-family="Helvetica,Arial,sans-serif" font-size="14">5</text><text transform="translate(108.476 34.147)" font-family="Helvetica,Arial,sans-serif" font-size="14">6</text></svg>