<svg version="1.0" xmlns="http://www.w3.org/2000/svg" viewBox="0 0 473 260"><g fill="none" stroke-linecap="round" stroke-linejoin="round" stroke-miterlimit="10"><path stroke="#000" stroke-width=".283" d="M121.7 93.3l.5-.2.2-.2m-.7.4H86.1m0 11.8h36.3m0 0V49.3m0 7.2h272.2m-.1 140.7v-63.3M86 52.1h36.4m-.7 115.3l.5.2.2.2m-.7-.4H86.1m0-11.8h36.3m0 0v55.8M86 208.6h36.4"/><path stroke="#101416" stroke-width=".567" d="M395.7 134.8c-.6 0-1.1-.5-1.1-1.2V85.1c0-.3.3-.6.6-.6h.6c.3 0 .6-.3.6-.6V65.3c0-.3-.3-.6-.6-.6h-.6c-.3 0-.6-.3-.6-.6V50.8c0-.6-.5-1.1-1.1-1.1h.1l-11.7-.4-1.8.5H146.5l-1.8-.5h-56L86 52.1v156.5l2.7 2.8h56l1.8-.5h233.6l1.8.5 11.7-.4h-.1c.6 0 1.1-.5 1.1-1.1v-12.8c0-.3.3-.6.6-.6h.6c.2 0 .5-.3.5-.6v-3.7l34.2-1.1c.7 0 1.3-.6 1.3-1.3V137c0-.7-.6-1.3-1.3-1.3l-34.8-.9z"/><path stroke="#000" stroke-width=".283" d="M394.5 85.1V64M122.4 204.2h272.1m1.8-12h-1.8m-4.7-61.6c0 5-4 9-9 9s-9-4-9-9 4-9 9-9c4.9-.1 9 4 9 9z"/><path stroke="#000" stroke-width=".283" d="M385 130.6c0 2.3-1.9 4.2-4.2 4.2-2.3 0-4.2-1.9-4.2-4.2 0-2.3 1.9-4.2 4.2-4.2 2.3-.1 4.2 1.8 4.2 4.2zM144.1 72.1c0 5-4 9-9 9s-9-4-9-9 4-9 9-9c4.9 0 9 4 9 9z"/><circle stroke="#000" stroke-width=".283" cx="135" cy="72.1" r="4.2"/><path stroke="#000" stroke-width=".283" d="M144.1 189c0 5-4 9-9 9s-9-4-9-9 4-9 9-9c4.9 0 9 4 9 9z"/><path stroke="#000" stroke-width=".283" d="M139.3 189c0 2.3-1.9 4.2-4.2 4.2-2.3 0-4.2-1.9-4.2-4.2 0-2.3 1.9-4.2 4.2-4.2 2.3 0 4.2 1.9 4.2 4.2zm242.5 22.3l-1.8-.5v-13.3c0-2.7-1.6-5.1-4.1-6.1l-10.6-4.5c-2.5-1-4.3-3.4-4.3-6V80.5c0-2.7 1.8-5 4.3-6L376 70c2.5-1 4.1-3.4 4.1-6.1V50.5"/><path stroke="#000" stroke-width=".283" d="M381.8 211.3l-1.8-.5v-13.3c0-2.7-1.6-5.1-4.1-6.1l-10.6-4.5c-2.5-1-4.3-3.4-4.3-6V80.5c0-2.7 1.8-5 4.3-6L376 70c2.5-1 4.1-3.4 4.1-6.1V50.5M144.9 211.3v-10c0-2.7 1.6-5.1 4.1-6.1l12.8-5.4c2.5-1 4.3-3.4 4.3-6V77.7c0-2.7-1.8-5-4.3-6L149 66.3c-2.5-1-4.1-3.4-4.1-6.1v-10"/></g><text transform="translate(14.672 17.163)" font-family="Helvetica,Arial,sans-serif" font-size="12">(a)</text><text transform="translate(14.672 247.364)" font-family="Helvetica,Arial,sans-serif" font-size="12">(a)</text><text transform="translate(449.649 93.097)" font-family="Helvetica,Arial,sans-serif" font-size="12">(b)</text><text transform="translate(242.908 133.352)" font-family="Helvetica,Arial,sans-serif" font-size="12">Bottom</text><g clip-rule="evenodd"><path fill-rule="evenodd" fill="#FFF" d="M116.1 66.4l4-7.4 11 9.6-1.1 2z"/><path fill="none" stroke="#FFF" stroke-width=".003" stroke-miterlimit="3.864" d="M116.1 66.4l4-7.4 11 9.6-1.1 2z"/></g><g clip-rule="evenodd"><path fill-rule="evenodd" d="M120.7 61l-2.6 4.8 12.5 3.6z"/><path fill="none" stroke="#000" stroke-width=".227" stroke-miterlimit="3.864" d="M119.4 63.4L34.2 17.2"/></g><g clip-rule="evenodd"><path fill-rule="evenodd" fill="#FFF" d="M116.4 194.5l4 7 10.9-9.1-1.1-1.8z"/><path fill="none" stroke="#FFF" stroke-width=".003" stroke-miterlimit="3.864" d="M116.4 194.5l4 7 10.9-9.1-1.1-1.8z"/></g><g clip-rule="evenodd"><path fill-rule="evenodd" d="M118.4 195.1l2.5 4.5 9.9-7.9z"/><path fill="none" stroke="#000" stroke-width=".227" stroke-miterlimit="3.864" d="M119.6 197.3L35 240.6"/></g><g clip-rule="evenodd"><path fill-rule="evenodd" fill="#FFF" d="M399.8 124.4l-4.2-7.9-11.5 10.3 1.2 2.2z"/><path fill="none" stroke="#FFF" stroke-width=".003" stroke-miterlimit="3.864" d="M399.8 124.4l-4.2-7.9-11.5 10.3 1.2 2.2z"/></g><g clip-rule="evenodd"><path fill-rule="evenodd" d="M397.7 123.8l-2.7-5.1-10.4 8.9z"/><path fill="none" stroke="#000" stroke-width=".227" stroke-miterlimit="3.864" d="M396.3 121.2l50.5-28.1"/></g><path d="M139.1 72.1c0 2.3-1.9 4.2-4.2 4.2-2.3 0-4.2-1.9-4.2-4.2 0-2.3 1.9-4.2 4.2-4.2 2.3 0 4.2 1.9 4.2 4.2zm.2 116.9c0 2.3-1.9 4.2-4.2 4.2-2.3 0-4.2-1.9-4.2-4.2 0-2.3 1.9-4.2 4.2-4.2 2.3 0 4.2 1.9 4.2 4.2zM385 130.3c0 2.3-1.9 4.2-4.2 4.2-2.3 0-4.2-1.9-4.2-4.2 0-2.3 1.9-4.2 4.2-4.2 2.3 0 4.2 1.9 4.2 4.2z"/></svg>