<svg version="1.0" xmlns="http://www.w3.org/2000/svg" viewBox="0 0 370 30"><path fill="#E64614" d="M33.7 7.8h16.2V24H33.7V7.8z"/><path fill="none" d="M37.1 9.5h9.4v16.2h-9.4V9.5z"/><text transform="translate(37.088 21.514)" fill="#FFF" font-family="Helvetica,Arial,sans-serif" font-weight="bold" font-size="15.966">1</text><path fill="#E64614" d="M128.9 7.8h16.2V24h-16.2V7.8z"/><path fill="none" d="M132.3 9.5h9.4v16.2h-9.4V9.5z"/><text transform="translate(132.274 21.513)" fill="#FFF" font-family="Helvetica,Arial,sans-serif" font-weight="bold" font-size="15.966">2</text><path fill="#E64614" d="M160.6 7.8h16.2V24h-16.2V7.8z"/><path fill="none" d="M164 9.5h9.5v16.2H164V9.5z"/><text transform="translate(164.004 21.513)" fill="#FFF" font-family="Helvetica,Arial,sans-serif" font-weight="bold" font-size="15.966">3</text><path fill="#E64614" d="M192.4 7.8h16.1V24h-16.1V7.8z"/><path fill="none" d="M195.7 9.5h9.5v16.2h-9.5V9.5z"/><text transform="translate(195.73 21.513)" fill="#FFF" font-family="Helvetica,Arial,sans-serif" font-weight="bold" font-size="15.966">4</text><path fill="#E64614" d="M224.1 7.8h16.2V24h-16.2V7.8z"/><path fill="none" d="M227.5 9.5h9.4v16.2h-9.4V9.5z"/><text transform="translate(227.46 21.513)" fill="#FFF" font-family="Helvetica,Arial,sans-serif" font-weight="bold" font-size="15.966">5</text><path fill="#E64614" d="M255.8 7.8H272V24h-16.2V7.8z"/><path fill="none" d="M259.2 9.5h9.4v16.2h-9.4V9.5z"/><text transform="translate(259.188 21.514)" fill="#FFF" font-family="Helvetica,Arial,sans-serif" font-weight="bold" font-size="15.966">5</text><path fill="none" stroke="#000" stroke-width="2" stroke-miterlimit="3.864" d="M23.2 17.3h5.5"/><path fill="#E64614" d="M65.5 7.8h16.1V24H65.5V7.8z"/><path fill="none" d="M68.8 9.5h9.5v16.2h-9.5V9.5z"/><text transform="translate(68.817 21.513)" fill="#FFF" font-family="Helvetica,Arial,sans-serif" font-weight="bold" font-size="15.966">1</text><path fill="none" stroke="#000" stroke-width="2" stroke-miterlimit="3.864" d="M54.9 17.3h5.5"/><path fill="#E64614" d="M97.2 7.8h16.2V24H97.2V7.8z"/><path fill="none" d="M100.5 9.5h9.5v16.2h-9.5V9.5z"/><text transform="translate(100.544 21.513)" fill="#FFF" font-family="Helvetica,Arial,sans-serif" font-weight="bold" font-size="15.966">1</text><path fill="none" stroke="#000" stroke-width="2" stroke-miterlimit="3.864" d="M86.6 17.3h5.6m26.2 0h5.5m26.2 0h5.5m26.2 0h5.6m26.2 0h5.5m26.2 0h5.5"/><path fill="#32B09E" d="M287.6 7.9h16.1V24h-16.1V7.9z"/><path fill="none" d="M290.9 9.6h9.4v16.1h-9.4V9.6z"/><text transform="translate(290.943 21.483)" fill="#FFF" font-family="Helvetica,Arial,sans-serif" font-weight="bold" font-size="15.878">0</text><path fill="#32B09E" d="M319.3 7.9h16.1V24h-16.1V7.9z"/><path fill="none" d="M322.7 9.6h9.4v16.1h-9.4V9.6z"/><text transform="translate(322.672 21.483)" fill="#FFF" font-family="Helvetica,Arial,sans-serif" font-weight="bold" font-size="15.878">1</text><path fill="none" stroke="#000" stroke-width="2" stroke-miterlimit="3.864" d="M277 17.3h5.5m26.3 0h5.5m26.2 0h5.5"/><text transform="translate(352.48 20.09)" font-family="Helvetica,Arial,sans-serif" font-weight="bold" font-size="15.878">...</text><path fill="#E64614" d="M2 7.8h16.2V24H2V7.8z"/><path fill="none" d="M5.4 9.6h9.4v16.1H5.4V9.6z"/><text transform="translate(5.36 21.532)" fill="#FFF" font-family="Helvetica,Arial,sans-serif" font-weight="bold" font-size="15.966">0</text></svg>