<svg version="1.0" xmlns="http://www.w3.org/2000/svg" viewBox="0 0 550 290"><path fill="#3C3C3C" d="M86.6 100.6h89.7v17.9H86.6v-17.9z"/><path fill="#3C3C3C" stroke="#000" stroke-width=".5" stroke-miterlimit="3.864" d="M86.6 100.6h89.7v17.9H86.6v-17.9z"/><path fill="#BDE4F7" d="M22.4 100.6h64.3v17.9H22.4v-17.9z"/><path fill="none" stroke="#000" stroke-width=".5" stroke-miterlimit="3.864" d="M22.4 100.6h64.3v17.9H22.4v-17.9z"/><path fill="none" stroke="#000" stroke-width=".5" stroke-miterlimit="3.864" d="M22.5 87.9h153.8v30.7H22.5V87.9z"/><g clip-rule="evenodd"><path fill-rule="evenodd" d="M526.5 258v-6.3l15.7 6.3-15.7 6.3z"/><path fill="none" stroke="#000" stroke-width="2.5" stroke-miterlimit="3.864" d="M2.6 258h524.9"/></g><path fill="#3C3C3C" d="M396.3 222.2H486v17.9h-89.7v-17.9z"/><path fill="#3C3C3C" stroke="#000" stroke-width=".5" stroke-miterlimit="3.864" d="M396.3 222.2H486v17.9h-89.7v-17.9z"/><path fill="#BDE4F7" d="M332.1 222.2h64.3v17.9h-64.3v-17.9z"/><path fill="#BDE4F7" stroke="#000" stroke-width=".5" stroke-miterlimit="3.864" d="M332.1 222.2h64.3v17.9h-64.3v-17.9z"/><path fill="none" stroke="#000" stroke-width=".5" stroke-miterlimit="3.864" d="M332.2 209.6H486v30.6H332.2v-30.6z"/><path clip-rule="evenodd" fill="none" stroke="#000" stroke-miterlimit="3.864" d="M22.8 75.1v-26m63.6 25.5V48.7m-63.7-.2h64m-.4 26.4H126m-118.8.3h15.6m103.3-.4v-26M190 74.3V48.4m-64.5-.2h64.9m-.8 26.4h39.8m-.5-.1v-26M267.8 74V48m-39-.1h39m0 26.3h65m-.3-.1V48.2m64.2 25.4V47.7m-64.6-.2H397m.1 26.4h129.4"/><path clip-rule="evenodd" fill="none" stroke="#000" stroke-width=".8" stroke-miterlimit="3.864" d="M271.4 188.8l41.2-39.3m0 0l17-.1"/><g fill="#BDE4F7"><path d="M228.8 183.6h39v18h-39v-18z"/><path stroke="#000" stroke-width=".5" stroke-miterlimit="3.864" d="M228.8 183.6h39v18h-39v-18z"/></g><path fill="none" stroke="#000" stroke-width=".5" stroke-miterlimit="3.864" d="M228.8 170.9h39v30.8h-39v-30.8z"/><text transform="translate(237.247 197.025)" font-family="Helvetica,Arial,sans-serif" font-size="13.523">Expo</text><path fill="#3C3C3C" d="M189.8 141.1h89.7V159h-89.7v-17.9z"/><path fill="#3C3C3C" stroke="#000" stroke-width=".5" stroke-miterlimit="3.864" d="M189.8 141.1h89.7V159h-89.7v-17.9z"/><path fill="#BDE4F7" d="M125.7 141.1h64.2V159h-64.2v-17.9z"/><path fill="#BDE4F7" stroke="#000" stroke-width=".5" stroke-miterlimit="3.864" d="M125.7 141.1h64.2V159h-64.2v-17.9z"/><path fill="none" stroke="#000" stroke-width=".5" stroke-miterlimit="3.864" d="M125.7 128.5h153.8v30.6H125.7v-30.6z"/><path clip-rule="evenodd" fill="none" stroke="#000" stroke-miterlimit="3.864" stroke-dasharray="2,2" d="M267.8 159.1v72.1"/><text transform="translate(261.326 279.64)" font-family="Helvetica,Arial,sans-serif" font-size="16.527">Time</text><text transform="translate(27.033 114.804)" fill="#101417" font-family="Helvetica,Arial,sans-serif" font-size="13.523">Exposure</text><text transform="translate(108.675 114.496)" fill="#F5F5F5" font-family="Helvetica,Arial,sans-serif" font-size="13.523">Readout</text><text transform="translate(44.35 98.633)" font-family="Helvetica,Arial,sans-serif" font-size="12.293">Frame acquisition n</text><text transform="translate(130.515 155.541)" font-family="Helvetica,Arial,sans-serif" font-size="13.523">Exposure</text><text transform="translate(210.928 155.541)" fill="#F5F5F5" font-family="Helvetica,Arial,sans-serif" font-size="13.523">Readout</text><text transform="translate(143.222 139.37)" font-family="Helvetica,Arial,sans-serif" font-size="12.293">Frame acquisition n+1</text><text transform="translate(337.137 236.84)" font-family="Helvetica,Arial,sans-serif" font-size="13.523">Exposure</text><text transform="translate(415.398 236.84)" fill="#F5F5F5" font-family="Helvetica,Arial,sans-serif" font-size="13.523">Readout</text><text transform="translate(348.922 220.977)" font-family="Helvetica,Arial,sans-serif" font-size="12.293">Frame acquisition n+3</text><text transform="translate(334.74 140.208)"><tspan x="0" y="0" font-family="Helvetica,Arial,sans-serif" font-size="13.523">This exposure was stopped too</tspan><tspan x="0" y="16.2" font-family="Helvetica,Arial,sans-serif" font-size="13.523">soon. The frame will be dropped</tspan><tspan x="0" y="32.5" font-family="Helvetica,Arial,sans-serif" font-size="13.523">and an overtrigger event declared.</tspan></text><path clip-rule="evenodd" fill="none" stroke="#000" stroke-miterlimit="3.864" stroke-dasharray="2,2" d="M267.8 77.7v50.8"/><text transform="translate(7.24 20.164)"><tspan x="0" y="0" font-family="Helvetica,Arial,sans-serif" font-size="13.506">Frame Start </tspan><tspan x="0" y="16.2" font-family="Helvetica,Arial,sans-serif" font-size="13.506">trigger signal</tspan></text></svg>