<svg version="1.0" xmlns="http://www.w3.org/2000/svg" viewBox="0 0 400 340"><path fill="#EFEFEF" d="M10.8 110.9H390v221H10.8z"/><path fill="none" stroke="#000" stroke-linecap="square" stroke-miterlimit="10" d="M159.9 10H233v20.8h-73.1zM18.2 10h84.7v20.8H18.2z"/><path d="M80.3 158h35.8v1.4H80.3z"/><path d="M115.5 158.6h1.4v42h-1.4z"/><path d="M116.1 158h.7v.6h-1.3l.6.8V158zm-35.8 42h35.8v1.4H80.3z"/><path d="M116.8 200.6v.8h-.7V200l-.6.6h1.3zm-37.1-42h1.4v42h-1.4z"/><path d="M80.3 201.4h-.6v-.8H81l-.7-.6v1.4zm-.6-42.8v-.6h.6v1.4l.7-.8h-1.3zm7.8 41.2h21.6v1.4H87.5z"/><path d="M108.5 200.4h1.4v12.1h-1.4z"/><path d="M109.1 199.8h.7v.6h-1.3l.6.8v-1.4zm-21.6 12.1h21.6v1.4H87.5z"/><path d="M109.8 212.5v.7h-.7v-1.3l-.6.6h1.3zm-22.9-12.1h1.4v12.1h-1.4z"/><path d="M87.5 213.2h-.6v-.7h1.3l-.7-.6v1.3zm-.6-12.8v-.6h.6v1.4l.7-.8h-1.3zm41-42.4h36v1.4h-36z"/><path d="M163.3 158.6h1.4v42h-1.4z"/><path d="M163.9 158h.8v.6h-1.4l.6.8V158zm-36 42h36v1.4h-36z"/><path d="M164.7 200.6v.8h-.8V200l-.6.6h1.4zm-37.4-42h1.4v42h-1.4z"/><path d="M127.9 201.4h-.6v-.8h1.4l-.8-.6v1.4zm-.6-42.8v-.6h.6v1.4l.8-.8h-1.4zm7.8 41.2h21.6v1.4h-21.6z"/><path d="M156.1 200.4h1.4v12.1h-1.4z"/><path d="M156.7 199.8h.8v.6h-1.4l.6.8v-1.4zm-21.6 12.1h21.6v1.4h-21.6z"/><path d="M157.5 212.5v.7h-.8v-1.3l-.6.6h1.4zm-23-12.1h1.4v12.1h-1.4z"/><path d="M135.1 213.2h-.6v-.7h1.4l-.8-.6v1.3zm-.6-12.8v-.6h.6v1.4l.8-.8h-1.4zm-87.1-89.9h1.2v48h-1.2zm96.5-.2h1.2v48.1h-1.2zm-46.5 0h1.2v48.1h-1.2zM232.6 158h35.8v1.4h-35.8z"/><path d="M267.8 158.6h1.4v42h-1.4z"/><path d="M268.3 158h.8v.6h-1.3l.5.8V158zm-35.7 42h35.8v1.4h-35.8z"/><path d="M269.1 200.6v.8h-.8V200l-.5.6h1.3zm-37.1-42h1.4v42H232z"/><path d="M232.6 201.4h-.6v-.8h1.3l-.7-.6v1.4zm-.6-42.8v-.6h.6v1.4l.7-.8H232zm7.8 41.2h21.4v1.4h-21.4z"/><path d="M260.6 200.4h1.4v12.1h-1.4z"/><path d="M261.1 199.8h.8v.6h-1.3l.5.8v-1.4zm-21.3 12.1h21.4v1.4h-21.4z"/><path d="M261.9 212.5v.7h-.8v-1.3l-.5.6h1.3zm-22.7-12.1h1.4v12.1h-1.4z"/><path d="M239.8 213.2h-.6v-.7h1.3l-.7-.6v1.3zm-.6-12.8v-.6h.6v1.4l.7-.8h-1.3zm44.7-42.4h35.8v1.4h-35.8z"/><path d="M319.1 158.6h1.4v42h-1.4z"/><path d="M319.7 158h.8v.6h-1.4l.6.8V158zm-35.8 42h35.8v1.4h-35.8z"/><path d="M320.5 200.6v.8h-.8V200l-.6.6h1.4zm-37.2-42h1.4v42h-1.4z"/><path d="M283.9 201.4h-.6v-.8h1.4l-.8-.6v1.4zm-.6-42.8v-.6h.6v1.4l.8-.8h-1.4zm7.8 41.2h21.4v1.4h-21.4z"/><path d="M311.9 200.4h1.4v12.1h-1.4z"/><path d="M312.5 199.8h.8v.6h-1.4l.6.8v-1.4zm-21.4 12.1h21.4v1.4h-21.4z"/><path d="M313.3 212.5v.7h-.8v-1.3l-.6.6h1.4zm-22.8-12.1h1.4v12.1h-1.4z"/><path d="M291.1 213.2h-.6v-.7h1.4l-.8-.6v1.3zm-.6-12.8v-.6h.6v1.4l.8-.8h-1.4zm43.6-42.4h36v1.4h-36z"/><path d="M369.5 158.6h1.4v42h-1.4z"/><path d="M370.1 158h.7v.6h-1.3l.6.8V158zm-36 42h36v1.4h-36z"/><path d="M370.8 200.6v.8h-.7V200l-.6.6h1.3zm-37.3-42h1.4v42h-1.4z"/><path d="M334.1 201.4h-.6v-.8h1.4l-.8-.6v1.4zm-.6-42.8v-.6h.6v1.4l.8-.8h-1.4zm7.8 41.2h21.6v1.4h-21.6z"/><path d="M362.3 200.4h1.4v12.1h-1.4z"/><path d="M362.9 199.8h.8v.6h-1.4l.6.8v-1.4zm-21.6 12.1h21.6v1.4h-21.6z"/><path d="M363.7 212.5v.7h-.8v-1.3l-.6.6h1.4zm-23-12.1h1.4v12.1h-1.4z"/><path d="M341.3 213.2h-.6v-.7h1.4l-.8-.6v1.3zm-.6-12.8v-.6h.6v1.4l.8-.8h-1.4zM251 110.5h1.2v48H251zm100.6-.2h1.2v48.1h-1.2zm-50.6 0h1.2v48.1H301zM29.9 158h36v1.4h-36z"/><path d="M65.3 158.6h1.4v42h-1.4z"/><path d="M65.9 158h.7v.6h-1.3l.6.8V158zm-36 42h36v1.4h-36z"/><path d="M66.6 200.6v.8h-.7V200l-.6.6h1.3zm-37.3-42h1.4v42h-1.4z"/><path d="M29.9 201.4h-.6v-.8h1.4l-.8-.6v1.4zm-.6-42.8v-.6h.6v1.4l.8-.8h-1.4zm7.8 41.2h21.6v1.4H37.1z"/><path d="M58.1 200.4h1.4v12.1h-1.4z"/><path d="M58.7 199.8h.8v.6h-1.4l.6.8v-1.4zm-21.6 12.1h21.6v1.4H37.1z"/><path d="M59.5 212.5v.7h-.8v-1.3l-.6.6h1.4zm-23-12.1h1.4v12.1h-1.4z"/><path d="M37.1 213.2h-.6v-.7h1.4l-.8-.6v1.3zm-.6-12.8v-.6h.6v1.4l.8-.8h-1.4zM180.6 158h36v1.4h-36z"/><path d="M216 158.6h1.4v42H216z"/><path d="M216.6 158h.8v.6H216l.6.8V158zm-36 42h36v1.4h-36z"/><path d="M217.4 200.6v.8h-.8V200l-.6.6h1.4zm-37.4-42h1.4v42H180z"/><path d="M180.6 201.4h-.6v-.8h1.4l-.8-.6v1.4zm-.6-42.8v-.6h.6v1.4l.8-.8H180zm7.8 41.2h21.6v1.4h-21.6z"/><path d="M208.8 200.4h1.4v12.1h-1.4z"/><path d="M209.4 199.8h.8v.6h-1.4l.6.8v-1.4zm-21.6 12.1h21.6v1.4h-21.6z"/><path d="M210.2 212.5v.7h-.8v-1.3l-.6.6h1.4zm-23-12.1h1.4v12.1h-1.4z"/><path d="M187.8 213.2h-.6v-.7h1.4l-.8-.6v1.3zm-.6-12.8v-.6h.6v1.4l.8-.8h-1.4zm9-90.1h1.2v48.1h-1.2z"/><path d="M10.8 109.7H390v1.2H10.8zm273.1 147.5h35.8v1.4h-35.8z"/><path d="M319.1 257.8h1.4v42h-1.4z"/><path d="M319.7 257.2h.8v.6h-1.4l.6.8v-1.4zm-35.8 42h35.8v1.4h-35.8z"/><path d="M320.5 299.8v.8h-.8v-1.4l-.6.6h1.4zm-37.2-42h1.4v42h-1.4z"/><path d="M283.9 300.6h-.6v-.8h1.4l-.8-.6v1.4zm-.6-42.8v-.6h.6v1.4l.8-.8h-1.4zm7.8-12.7h21.4v1.4h-21.4z"/><path d="M311.9 245.7h1.4v12.1h-1.4z"/><path d="M312.5 245.1h.8v.6h-1.4l.6.8v-1.4zm-21.4 12.1h21.4v1.4h-21.4z"/><path d="M313.3 257.8v.8h-.8v-1.4l-.6.6h1.4zm-22.8-12.1h1.4v12.1h-1.4z"/><path d="M291.1 258.6h-.6v-.8h1.4l-.8-.6v1.4zm-.6-12.9v-.6h.6v1.4l.8-.8h-1.4zm-57.9 11.5h35.8v1.4h-35.8z"/><path d="M267.8 257.8h1.4v42h-1.4z"/><path d="M268.3 257.2h.8v.6h-1.3l.5.8v-1.4zm-35.7 42h35.8v1.4h-35.8z"/><path d="M269.1 299.8v.8h-.8v-1.4l-.5.6h1.3zm-37.1-42h1.4v42H232z"/><path d="M232.6 300.6h-.6v-.8h1.3l-.7-.6v1.4zm-.6-42.8v-.6h.6v1.4l.7-.8H232zm7.8-12.7h21.4v1.4h-21.4z"/><path d="M260.6 245.7h1.4v12.1h-1.4z"/><path d="M261.1 245.1h.8v.6h-1.3l.5.8v-1.4zm-21.3 12.1h21.4v1.4h-21.4z"/><path d="M261.9 257.8v.8h-.8v-1.4l-.5.6h1.3zm-22.7-12.1h1.4v12.1h-1.4z"/><path d="M239.8 258.6h-.6v-.8h1.3l-.7-.6v1.4zm-.6-12.9v-.6h.6v1.4l.7-.8h-1.3zm113.6 53.9h1.2v32.9h-1.2zm-100.6.2h1.2v32.7h-1.2zm50.8 0h1.2v32.7H303zm-175.1-42.6h36v1.4h-36z"/><path d="M163.3 257.8h1.4v42h-1.4z"/><path d="M163.9 257.2h.8v.6h-1.4l.6.8v-1.4zm-36 42h36v1.4h-36z"/><path d="M164.7 299.8v.8h-.8v-1.4l-.6.6h1.4zm-37.4-42h1.4v42h-1.4z"/><path d="M127.9 300.6h-.6v-.8h1.4l-.8-.6v1.4zm-.6-42.8v-.6h.6v1.4l.8-.8h-1.4zm7.8-12.7h21.6v1.4h-21.6z"/><path d="M156.1 245.7h1.4v12.1h-1.4z"/><path d="M156.7 245.1h.8v.6h-1.4l.6.8v-1.4zm-21.6 12.1h21.6v1.4h-21.6z"/><path d="M157.5 257.8v.8h-.8v-1.4l-.6.6h1.4zm-23-12.1h1.4v12.1h-1.4z"/><path d="M135.1 258.6h-.6v-.8h1.4l-.8-.6v1.4zm-.6-12.9v-.6h.6v1.4l.8-.8h-1.4zm-54.2 11.5h35.8v1.4H80.3z"/><path d="M115.5 257.8h1.4v42h-1.4z"/><path d="M116.1 257.2h.7v.6h-1.3l.6.8v-1.4zm-35.8 42h35.8v1.4H80.3z"/><path d="M116.8 299.8v.8h-.7v-1.4l-.6.6h1.3zm-37.1-42h1.4v42h-1.4z"/><path d="M80.3 300.6h-.6v-.8H81l-.7-.6v1.4zm-.6-42.8v-.6h.6v1.4l.7-.8h-1.3zm7.8-12.7h21.6v1.4H87.5z"/><path d="M108.5 245.7h1.4v12.1h-1.4z"/><path d="M109.1 245.1h.7v.6h-1.3l.6.8v-1.4zm-21.6 12.1h21.6v1.4H87.5z"/><path d="M109.8 257.8v.8h-.7v-1.4l-.6.6h1.3zm-22.9-12.1h1.4v12.1h-1.4z"/><path d="M87.5 258.6h-.6v-.8h1.3l-.7-.6v1.4zm-.6-12.9v-.6h.6v1.4l.7-.8h-1.3zm-57 11.5h36v1.4h-36z"/><path d="M65.3 257.8h1.4v42h-1.4z"/><path d="M65.9 257.2h.7v.6h-1.3l.6.8v-1.4zm-36 42h36v1.4h-36z"/><path d="M66.6 299.8v.8h-.7v-1.4l-.6.6h1.3zm-37.3-42h1.4v42h-1.4z"/><path d="M29.9 300.6h-.6v-.8h1.4l-.8-.6v1.4zm-.6-42.8v-.6h.6v1.4l.8-.8h-1.4zm7.8-12.7h21.6v1.4H37.1z"/><path d="M58.1 245.7h1.4v12.1h-1.4z"/><path d="M58.7 245.1h.8v.6h-1.4l.6.8v-1.4zm-21.6 12.1h21.6v1.4H37.1z"/><path d="M59.5 257.8v.8h-.8v-1.4l-.6.6h1.4zm-23-12.1h1.4v12.1h-1.4z"/><path d="M37.1 258.6h-.6v-.8h1.4l-.8-.6v1.4zm-.6-12.9v-.6h.6v1.4l.8-.8h-1.4zm107.2 53.9h1.2v32.9h-1.2zm-94.9.2H50v32.7h-1.2zm48.4 0h1.2v32.7h-1.2zm236.9-42.6h36v1.4h-36z"/><path d="M369.5 257.8h1.4v42h-1.4z"/><path d="M370.1 257.2h.7v.6h-1.3l.6.8v-1.4zm-36 42h36v1.4h-36z"/><path d="M370.8 299.8v.8h-.7v-1.4l-.6.6h1.3zm-37.3-42h1.4v42h-1.4z"/><path d="M334.1 300.6h-.6v-.8h1.4l-.8-.6v1.4zm-.6-42.8v-.6h.6v1.4l.8-.8h-1.4zm7.8-12.7h21.6v1.4h-21.6z"/><path d="M362.3 245.7h1.4v12.1h-1.4z"/><path d="M362.9 245.1h.8v.6h-1.4l.6.8v-1.4zm-21.6 12.1h21.6v1.4h-21.6z"/><path d="M363.7 257.8v.8h-.8v-1.4l-.6.6h1.4zm-23-12.1h1.4v12.1h-1.4z"/><path d="M341.3 258.6h-.6v-.8h1.4l-.8-.6v1.4zm-.6-12.9v-.6h.6v1.4l.8-.8h-1.4zm-160.1 11.5h36v1.4h-36z"/><path d="M216 257.8h1.4v42H216z"/><path d="M216.6 257.2h.8v.6H216l.6.8v-1.4zm-36 42h36v1.4h-36z"/><path d="M217.4 299.8v.8h-.8v-1.4l-.6.6h1.4zm-37.4-42h1.4v42H180z"/><path d="M180.6 300.6h-.6v-.8h1.4l-.8-.6v1.4zm-.6-42.8v-.6h.6v1.4l.8-.8H180zm7.8-12.7h21.6v1.4h-21.6z"/><path d="M208.8 245.7h1.4v12.1h-1.4z"/><path d="M209.4 245.1h.8v.6h-1.4l.6.8v-1.4zm-21.6 12.1h21.6v1.4h-21.6z"/><path d="M210.2 257.8v.8h-.8v-1.4l-.6.6h1.4zm-23-12.1h1.4v12.1h-1.4z"/><path d="M187.8 258.6h-.6v-.8h1.4l-.8-.6v1.4zm-.6-12.9v-.6h.6v1.4l.8-.8h-1.4zm12.1 54.1h1.2v32.7h-1.2z"/><path d="M11.4 331.9h378.7v1.2H11.4z"/><path d="M388.9 110.3h1.2v222.2h-1.2z"/><g fill="none" stroke="#E2001A" stroke-width="2" stroke-miterlimit="10"><path d="M119.8 312.6v.5h-.5"/><path stroke-dasharray="1.0023,1.0023" d="M118.3 313.1H22.6"/><path d="M22.1 313.1h-.5v-.5"/><path stroke-dasharray="1.0014,1.0014" d="M21.6 311.6V49.7"/><path d="M21.6 49.2v-.5h.5"/><path stroke-dasharray="1.0023,1.0023" d="M23.1 48.7h95.7"/><path d="M119.3 48.7h.5v.5"/><path stroke-dasharray="1.0014,1.0014" d="M119.8 50.2v261.9"/></g><g fill="none" stroke="#F99D33" stroke-width="2" stroke-miterlimit="10"><path d="M173.8 302.3v7.5h-7.5"/><path stroke-dasharray="15.0104,2.0014" d="M164.3 309.8h-84"/><path d="M79.3 309.8h-7.5v-7.5"/><path stroke-dasharray="15.1974,2.0263" d="M71.8 300.3V77.4"/><path d="M71.8 76.4v-7.5h7.5"/><path stroke-dasharray="15.0104,2.0014" d="M81.3 68.9h84"/><path d="M166.3 68.9h7.5v7.5"/><path stroke-dasharray="15.1974,2.0263" d="M173.8 78.4v222.9"/></g><g fill="none" stroke="#14487E" stroke-width="2" stroke-miterlimit="10"><path d="M221.2 312.1v1h-1"/><path stroke-dasharray="6.1762,2.0587" d="M218.1 313.1h-7.2"/><path stroke-dasharray="2.0587,2.0587,6.1762,2.0587" d="M209.9 313.1h-85.5"/><path d="M123.4 313.1h-1v-1"/><path stroke-dasharray="5.9251,1.975" d="M122.4 310.1v-6.9"/><path stroke-dasharray="1.975,1.975,5.9251,1.975" d="M122.4 302.2V89.9"/><path d="M122.4 88.9v-1h1"/><path stroke-dasharray="6.1762,2.0587" d="M125.5 87.9h7.2"/><path stroke-dasharray="2.0587,2.0587,6.1762,2.0587" d="M133.7 87.9h85.4"/><path d="M220.2 87.9h1v1"/><path stroke-dasharray="5.9251,1.975" d="M221.2 90.9v6.9"/><path stroke-dasharray="1.975,1.975,5.9251,1.975" d="M221.2 98.8v212.3"/></g><path d="M10.2 110.3h1.2v222.2h-1.2z"/><g fill-rule="evenodd" clip-rule="evenodd"><path fill="#060606" d="M48.6 235.9c-1.2-1.5-2-3.3-3.6-5-.3 1.5-.2 2.6-.1 3.7 0 .6 0 1.1-.5 1.5-1.4 1.4-2.7 3-4.9 3.4-.3-1.5 1.3-1.4 1.9-2.1.2-.3.7-.4 1.1-.7 1-.7 1.5-1.5.9-2.7-.1-.3-.1-.6-.2-.9-.4-1.8-.4-1.8-2.1-1.5-1.5.2-3 .1-4.5-.5-.9-.4-1.4-.1-1.7.8-.3 1-.7 2-1 3-.2.8-.1 1.5.4 2.1.8 1 1.6 2 2.4 2.9.2.3.6.5.4 1-1.6.3-1.7-1.4-2.6-2.1-.6-.4-.9-1.2-1.4-1.8-.9-.9-1.5-1.9-.9-3.2.1-.3.1-.6.1-.9-.1-1.2-.3-1.3-1.3-.6-.6.4-1.2.7-1.7 1.1-1.3.9-2.2 2-2.6 3.6-.5 2.1-.6 2.1-2.8 3.3-.4-.6-.2-1.2.2-1.4 1.5-.7 1.8-2.1 2-3.5.2-1.3.5-2.3 1.8-3 .8-.4 1.3-1.3 1.1-2.4-.3-1.9-.4-1.9-2.2-1.1-1.2.5-2.4.8-3.6 1.5-1.1.6-1.9-.1-1.7-1.4.2-1.1.4-2.3 1.7-2.8.7-.3 1.2-.9 1.5-1.6.4-.9 1-1.1 2-.4.9.7 2.1 1.1 3.2.6 2.3-.9 4.7-.9 7.1-.8h2.5c.7 0 1.5 0 1.7-1.1.2-.7 1-1.1 1.6-1.1 1 .1 1.5-.4 2-1 1.1-1.3 2.5-2.1 4.2-2.2.8-.1 1.7-1 2.5-.1 0 0 .3-.3.7-.5.1 1.9 1.3 3.3 2 4.9.2.5.5.9.5 1.4 0 .5-.3.8-.7 1-.4.2-.7 0-1-.3-.7-.9-1.7-1.2-2.6-1.9-.4-.3-.9-.4-1.1.1-.6 1.3-1.4 2.6-1.8 4.1-.6 2.5 0 4.6 1.1 6.8.3.5.4 1.1.6 1.6-.1.3-.3.3-.6.2z"/><path fill="#131313" d="M48.6 235.9c.2 0 .5-.1.7-.1.7.8.7 2 1.7 2.7.3.2.5.5.2.8-.3.3-.9.2-1-.1-.4-1.2-1.7-1.9-1.6-3.3z"/></g><path fill="none" stroke="#000" stroke-miterlimit="10" d="M196.8 31.6v69.9"/><path d="M193.9 99.5l2.9 10.8 2.9-10.8z"/><text transform="translate(30.057 24.87)" font-family="Helvetica,Arial,sans-serif" font-size="12.681">Computer</text><text transform="translate(175.822 24.87)" font-family="Helvetica,Arial,sans-serif" font-size="12.681">Switch</text><text transform="translate(201.849 62.522)" font-family="Helvetica,Arial,sans-serif" font-size="12.681">Action Command</text><text transform="translate(76.067 83.273)" font-family="Helvetica,Arial,sans-serif" font-weight="bold" font-size="12.681">Subgroup 2</text><text transform="translate(26.07 63.099)" font-family="Helvetica,Arial,sans-serif" font-weight="bold" font-size="12.681">Subgroup 1</text><text transform="translate(126.867 101.717)" font-family="Helvetica,Arial,sans-serif" font-weight="bold" font-size="12.681">Subgroup 3</text><text transform="translate(344.368 102.87)" font-family="Helvetica,Arial,sans-serif" font-weight="bold" font-size="12.681">Group 1</text><path fill="none" stroke="#000" stroke-miterlimit="10" d="M102.9 20.8h57"/></svg>