<svg version="1.0" xmlns="http://www.w3.org/2000/svg" viewBox="0 0 520 313"><path fill="none" stroke="#1E1F1D" stroke-width=".227" stroke-miterlimit="10" d="M54.8 71h444.6M54.7 95.8h444.7M54.8 120.6h445M54.9 145.5h444.6M54.8 170.3h444.7M54.9 195h444.6M54.8 219.8h444.7M54.9 244.6H499M54.9 46.2h444.6m-408.2-25v248m37.2-248v248.1m37.1-247.8v247.8m37.1-247.4v247.4m37.2-248.6v248.6M314 20.8v248.5m37.1-248.1v248.1m37.2-248.1v248.1m37.1-247.4v247.3m37.1-248v248M276.9 21.4v248"/><path fill="none" stroke="#1E1F1D" stroke-width=".709" stroke-miterlimit="10" d="M54.8 21.3h444.8v248H54.8z"/><g clip-rule="evenodd"><path fill-rule="evenodd" d="M387.5 56.6h93.3v58.1h-93.3z"/><path fill="none" stroke="#000" stroke-width="1.117" stroke-miterlimit="3.864" d="M387.5 56.6h93.3v58.1h-93.3z"/><path fill-rule="evenodd" fill="#FFF" d="M384.7 53.8H478v58.1h-93.3z"/><path fill="none" stroke="#000" stroke-width="1.117" stroke-miterlimit="3.864" d="M384.7 53.8H478v58.1h-93.3z"/><path fill="none" stroke="#2A4B9B" stroke-miterlimit="3.864" stroke-dasharray="12,2,2,2" d="M393.2 66.1h33.6"/><path fill="none" stroke="#66B32E" stroke-miterlimit="3.864" stroke-dasharray="2,2" d="M393.2 84.5h33.6"/><path fill="none" stroke="#E52420" stroke-miterlimit="3.864" stroke-dasharray="72" d="M393.2 103.1h33.6"/></g><g font-family="Helvetica,Arial,sans-serif"><text transform="translate(227.69 303.997)" fill="#010202" font-size="12">Wavelength (nm)</text><text transform="rotate(-90 109.82 89.23)" fill="#1E1E1C" font-size="12">Relative Response</text><text transform="translate(38.233 221.097)" font-size="8">0.2</text><text transform="translate(38.197 170.835)" font-size="8">0.4</text><text transform="translate(38.211 124.007)" font-size="8">0.6</text><text transform="translate(38.088 72.603)" font-size="8">0.8</text><text transform="translate(38.22 24.85)" font-size="8">1.0</text><text transform="translate(46.823 282.94)" font-size="8">400</text><text transform="translate(121.414 282.98)" font-size="8">500</text><text transform="translate(196.83 282.916)" font-size="8">600</text><text transform="translate(268.18 283.034)" font-size="8">700</text><text transform="translate(346.552 282.997)" font-size="8">800</text><text transform="translate(420.748 282.956)" font-size="8">900</text><text transform="translate(489.666 283.058)" font-size="8">1000</text><text transform="translate(39.349 269.718)" font-size="8">0.0</text><text transform="translate(437.17 107.182)" fill="#1E1E1C" font-size="12">Red</text><text transform="translate(437.17 87.431)" fill="#1E1E1C" font-size="12">Green</text><text transform="translate(437.17 70.134)" fill="#1E1E1C" font-size="12">Blue</text></g><g fill="none" stroke-miterlimit="10"><path stroke="#6CB333" stroke-width="1.001" stroke-dasharray="2.0013,2,2,2" d="M55.4 255.5s13.4 4.3 15.4 4.4c2 .2 8.3-.7 11.5-1.5 3.1-.8 8-1 10.2-2.8 2.2-1.8 5.2-7.7 6-10.3.8-2.6 4.1-12.5 8-42.1 3.9-29.7 5-38.2 6.6-50.8 1.6-12.6 4.4-31.6 7.4-51 3-19.3 4.2-22.3 7.5-29.3s9.1-17.9 11.5-20.8c2.4-2.9 4.9-5.7 6.3-6.7 1.4-1 4.9-4.4 10.8-4.1 6 .3 8.5 5.4 9.7 6.6 1.3 1.1 6.9 5.6 9.7 9.8 2.8 4.3 10.1 14.7 13.8 29 3.8 14.3 8.6 33.1 13.2 54.4 4.6 21.3 11.2 55.1 17.8 65.1 6.6 10 15.3 22.1 24.2 21.5 9-.7 16-16.7 17.8-19.7 1.7-2.9 10.5-18.2 12.4-21 1.9-2.8 6-7.5 8.3-8.2 2.4-.7 10.1 1.5 12.9 1.6 2.8.2 8.5-2.1 10.4-3.1 1.9-1 8.6-4.1 10.5-5.6 1.9-1.5 14-13.4 15.7-14.6 1.7-1.1 10.4-3.6 17.8-4.3 7.4-.7 12.7-2 16.5-.3 3.8 1.6 11.3 8.7 13.2 10.8 1.9 2.1 6.9 6.4 8.8 7.7 1.9 1.3 7.4 4.8 8.8 5.9 1.4 1.1 9.3 8.4 12 11.1 2.7 2.8 9.7 8.7 11.6 11.3 1.9 2.6 10.1 8.7 11.3 9.3 1.3.7 5.8 4.4 7.4 5.6 1.6 1.1 9.6 8.7 10.8 10.2 1.3 1.5 5 5.6 8 7.4 3 1.8 18.2 9.3 19.7 9.8 1.4.5 10.1 5.6 11.2 6.4 1.1.8 9.4 4.9 9.4 4.9"/><path stroke="#2B4C99" stroke-width="1.001" stroke-dasharray="11.9991,2,2,2" d="M55 185.2s12.6-31.5 14-34.4c1.4-2.9 11.8-24.9 12.9-27.2 1.1-2.3 5.7-9.2 6.8-10 1.1-.8 6.3-6.2 10.5-5.9 4.2.3 7.2 5.9 7.9 7 .6 1.1 8.8 17.7 10.1 21.6 1.3 3.9 14.1 46.1 15.9 51.6 1.7 5.6 10.2 33.4 14.8 40.3 4.6 6.9 17.9 24.9 25.6 28.8 7.7 3.9 16.2 5.2 19.3 5.7 3.1.5 18.2 1.5 20.8 1.3 2.5-.2 16.2-3.3 22.5-6.2 6.3-3 17.5-8.5 30.8-9.2 13.4-.7 25.9 5.6 29.2 6.4 3.3.8 10.7 1 12.4 1 1.7 0 9.7.5 13.4-1.8 3.6-2.3 8.3-10.7 9.6-13.8 1.3-3.1 7.2-21.5 10.1-34.3 2.8-12.8 9.4-41.3 10.4-44.6.9-3.3 4.1-12.9 5-15.6.9-2.6 3.9-7.5 6.1-7.5 2.2 0 6.1 3.6 10.2 10.5s5.8 10.2 8.5 11.8c2.7 1.6 4.4 3.3 6.9 3.1 2.5-.2 9.5 0 11 .8 6.9 3.6 23.1 27.9 25.9 31.3 2.8 3.4 15.4 12.9 20 16.4 4.3 3.3 13.7 13.1 17.1 15.7 3.5 2.6 15.6 9.5 19 11.6 3.5 2.1 17.8 10.3 17.8 10.3"/><path stroke="#E52922" d="M55.2 253.7s22 8.8 25.5 9.3 13.2 2.1 16 2.1c2.8 0 12.6-1 15.9-1 3.3 0 7.7 0 11.2-.3 3.5-.3 11.2-3.1 13.2-4.8 2-1.6 7.2-5.1 9.9-5.1s7.2 1.6 9.3 2.6c2 1 7.7 3.9 10.2 3.8 2.5-.2 6.3-2.1 7.1-3.3.8-1.1 3.3-9.8 3.9-13.3.6-3.4 6.8-48.8 9-85.7 2.2-36.9 8.5-94.4 9.4-101.3.9-6.9 3.5-27.2 9.6-32 6.1-4.8 3.6-2.5 6-2.5s9.7 3.1 13.2 3.3c3.5.2 4.2-1.3 7.4-1.3 3.1 0 6.9 5.1 8.2 6.6 1.3 1.5 9.3 12.9 11.5 16.1 2.2 3.1 14.3 25.9 16.2 26.9 1.9 1 1.9 2 3.8 1.5s8.3-4.9 9.9-5.2c1.6-.3 6.8 0 7.7-.5.9-.5 8.8-4.4 11.3-4.4s4.7 3 6.3 5.2c1.6 2.3 5.5 10 6.1 11.5.6 1.5 6.3 10.7 8.3 11.8 2 1.1 7.2-1 9.7 1 2.5 2 14 18.4 17.5 21.1 3.5 2.8 15.4 13.9 17.9 17.9 2.5 3.9 13.2 20.7 15.9 23.1 2.7 2.5 9.6 5.7 14.3 9.3 4.7 3.6 20.6 22.9 22.8 25.4 2.2 2.5 23 19.5 25.5 22.3 2.5 2.8 15.4 14.6 18.1 16.6 2.7 2 36.6 20.8 36.6 20.8"/></g></svg>