<svg version="1.0" xmlns="http://www.w3.org/2000/svg" viewBox="0 0 400 230"><path clip-rule="evenodd" fill="none" stroke="#020405" stroke-width=".283" stroke-linecap="round" stroke-linejoin="round" stroke-miterlimit="10" d="M247.4 192.3v-7l17.3-.4"/><path clip-rule="evenodd" fill="none" stroke="#020405" stroke-width=".283" stroke-linecap="round" stroke-linejoin="bevel" stroke-miterlimit="10" d="M264.8 184.7l1.6-.4 1.4-.6 1.1-1.1.8-1.6.2-1.6"/><path clip-rule="evenodd" fill="none" stroke="#020405" stroke-width=".283" stroke-linecap="round" stroke-linejoin="round" stroke-miterlimit="10" d="M269.9 179.4v-17.6"/><path clip-rule="evenodd" fill="none" stroke="#020405" stroke-width=".283" stroke-linecap="round" stroke-linejoin="bevel" stroke-miterlimit="10" d="M269.9 161.8l-.2-1.6-.8-1.5-1.1-1.2-1.4-.6-1.6-.4"/><path clip-rule="evenodd" fill="none" stroke="#020405" stroke-width=".283" stroke-linecap="round" stroke-linejoin="round" stroke-miterlimit="10" d="M264.7 156.5l-5.7-.2"/><path clip-rule="evenodd" fill="none" stroke="#020405" stroke-width=".283" stroke-linecap="round" stroke-linejoin="bevel" stroke-miterlimit="10" d="M249.7 146.6l.4 2.4.8 2.3 1.5 1.9 2 1.6 2.1 1 2.5.3"/><path clip-rule="evenodd" fill="none" stroke="#020405" stroke-width=".283" stroke-linecap="round" stroke-linejoin="round" stroke-miterlimit="10" d="M249.5 146.6v-25"/><path clip-rule="evenodd" fill="none" stroke="#020405" stroke-width=".283" stroke-linecap="round" stroke-linejoin="bevel" stroke-miterlimit="10" d="M249.7 107.4l-1.2 2.1-.7 2.4-.2 2.5.2 2.5.7 2.4 1.2 2.1"/><path clip-rule="evenodd" fill="none" stroke="#020405" stroke-width=".283" stroke-linecap="round" stroke-linejoin="round" stroke-miterlimit="10" d="M249.5 107.4v-25"/><path clip-rule="evenodd" fill="none" stroke="#020405" stroke-width=".283" stroke-linecap="round" stroke-linejoin="bevel" stroke-miterlimit="10" d="M259 72.8l-2.5.4-2.1 1-2 1.6-1.5 1.9-.8 2.3-.4 2.4"/><path clip-rule="evenodd" fill="none" stroke="#020405" stroke-width=".283" stroke-linecap="round" stroke-linejoin="round" stroke-miterlimit="10" d="M259 72.6l5.7-.1"/><path clip-rule="evenodd" fill="none" stroke="#020405" stroke-width=".283" stroke-linecap="round" stroke-linejoin="bevel" stroke-miterlimit="10" d="M264.8 72.3l1.6-.4 1.4-.6 1.1-1.2.8-1.5.2-1.6"/><path clip-rule="evenodd" fill="none" stroke="#020405" stroke-width=".283" stroke-linecap="round" stroke-linejoin="round" stroke-miterlimit="10" d="M269.9 67V49.3"/><path clip-rule="evenodd" fill="none" stroke="#020405" stroke-width=".283" stroke-linecap="round" stroke-linejoin="bevel" stroke-miterlimit="10" d="M269.9 49.3l-.2-1.5-.8-1.6-1.1-1.1-1.4-.6-1.6-.4"/><path clip-rule="evenodd" fill="none" stroke="#020405" stroke-width=".283" stroke-linecap="round" stroke-linejoin="round" stroke-miterlimit="10" d="M264.7 44.1l-17.3-.4v-7"/><path clip-rule="evenodd" fill="none" stroke="#020405" stroke-width=".283" stroke-linecap="round" stroke-linejoin="bevel" stroke-miterlimit="10" d="M267.2 170.7l-.2-2.1-.8-1.9c-3.6-6.6-13.3-6.6-16.3 1l-.6 2.1v1.9c1.5 9 12.4 10.8 16.9 3.1l.8-1.9.2-2.2z"/><path clip-rule="evenodd" fill="none" stroke="#020405" stroke-width=".283" stroke-linecap="round" stroke-linejoin="bevel" stroke-miterlimit="10" d="M267.6 170.7l-.2-2.1-.8-2.1c-3.6-7.1-14.5-6.6-17.1 1.2l-.6 1.9v2.3c1.5 9.2 13.3 11.2 17.7 3.1l.8-2.1.2-2.2zm0-112.4l-.2-2.1-.8-2.1c-3.6-7.1-14.5-6.6-17.1 1.2l-.6 1.9v2.3c1.5 9.2 13.3 11.2 17.7 3.1l.8-2.1.2-2.2z"/><path clip-rule="evenodd" fill="none" stroke="#020405" stroke-width=".283" stroke-linecap="round" stroke-linejoin="bevel" stroke-miterlimit="10" d="M267.2 58.3l-.2-2.1-.8-1.9c-3.6-6.6-13.3-6.6-16.3 1l-.6 2.1v1.9c1.5 8.9 12.4 10.8 16.9 3.1l.8-1.9.2-2.2z"/><path clip-rule="evenodd" fill="none" stroke="#020405" stroke-width=".283" stroke-linecap="round" stroke-linejoin="round" stroke-miterlimit="10" d="M117.1 100.4h-.2l-.2.2h-.8v-61l.2-.2h.4l.4-.3v-.4l.2-.2m-.6-.4l-.2.4-.4 1.1"/><path clip-rule="evenodd" fill="none" stroke="#020405" stroke-width=".283" stroke-linecap="round" stroke-linejoin="round" stroke-miterlimit="10" d="M115.9 100.6l.4 13.8-.4 14h1v.2h.2l.2-14.2-.2-14m0 90.1l-.2-.2v-.4l-.4-.4h-.2l-.2-.2h-.2v-60.9m0 60.9l.4 1.2.2.4"/><path clip-rule="evenodd" fill="none" stroke="#020405" stroke-width=".283" stroke-linecap="round" stroke-linejoin="bevel" stroke-miterlimit="10" d="M116.5 37.9l.8-.4m0 154l-.8-.4"/><path clip-rule="evenodd" fill="none" stroke="#020405" stroke-width=".283" stroke-linecap="round" stroke-linejoin="round" stroke-miterlimit="10" d="M118.6 42.4l9.7-.4h119.1m0 145H128.3l-9.7-.4m9.7.4v5.3h119.1m0-155.6H128.3V42m0-5.3l-9.7.2m0 155.2l9.7.2m-9.7-5.7V42.4"/><path clip-rule="evenodd" fill="none" stroke="#020405" stroke-width=".283" stroke-linecap="round" stroke-linejoin="bevel" stroke-miterlimit="10" d="M118.6 36.9l-1.1.4-.4 1.2"/><path clip-rule="evenodd" fill="none" stroke="#020405" stroke-width=".283" stroke-linecap="round" stroke-linejoin="round" stroke-miterlimit="10" d="M117.1 38.5v61.9m0 28.2v58m1.5 0h-1.5m0-144.2h1.5v-5.5"/><path clip-rule="evenodd" fill="none" stroke="#020405" stroke-width=".283" stroke-linecap="round" stroke-linejoin="bevel" stroke-miterlimit="10" d="M117.1 190.5l.4 1.2 1.1.4"/><path clip-rule="evenodd" fill="none" stroke="#020405" stroke-width=".283" stroke-linecap="round" stroke-linejoin="round" stroke-miterlimit="10" d="M118.6 186.6v5.5m-1.5-1.6v-3.9"/><path clip-rule="evenodd" fill="none" stroke="#020405" stroke-width=".283" stroke-linecap="round" stroke-linejoin="bevel" stroke-miterlimit="10" d="M267 170.7l-.2-2.1-.8-1.9c-3.8-7.1-14.2-5.9-16.3 1.9l-.2 2.1.2 2.1c2.1 7.9 12.5 9 16.3 1.9l.8-1.9.2-2.1zm0-112.4l-.2-2.1-.8-1.9c-3.8-7.1-14.2-5.9-16.3 1.9l-.2 2.1.2 2.1c2.1 7.9 12.5 9 16.3 1.9l.8-1.9.2-2.1z"/><path clip-rule="evenodd" fill="none" stroke="#020405" stroke-width=".283" stroke-linecap="round" stroke-linejoin="round" stroke-miterlimit="10" d="M53.6 39.6v149.7m62.9 1.6l-62.9-1.6-1-1.1V40.8l1-1.2 62.9-1.5m132.6 154.2l23.5-.6m0-154.4l-23.5-.6m-.2 5.3l23.7.7m0 143.5l-23.7.6m-1.5-150.1h1.7l-.2 5.3m0 0h-1.5m0 150.3h1.7l-.2-5.5m0 0h-1.5m25.2-144.1v-5.4m1.8 1.6v151"/><path clip-rule="evenodd" fill="none" stroke="#020405" stroke-width=".283" stroke-linecap="round" stroke-linejoin="bevel" stroke-miterlimit="10" d="M274.2 38.9l-.4-1.2-1.2-.4"/><path clip-rule="evenodd" fill="none" stroke="#020405" stroke-width=".283" stroke-linecap="round" stroke-linejoin="round" stroke-miterlimit="10" d="M274.4 42.7h-1.8m1.8 143.5h-1.8V42.7"/><path clip-rule="evenodd" fill="none" stroke="#020405" stroke-width=".283" stroke-linecap="round" stroke-linejoin="bevel" stroke-miterlimit="10" d="M272.6 191.5l1.2-.4.4-1.2"/><path clip-rule="evenodd" fill="none" stroke="#020405" stroke-width=".283" stroke-linecap="round" stroke-linejoin="round" stroke-miterlimit="10" d="M272.6 191.7v-5.5m3.3-12.6v8.2"/><path clip-rule="evenodd" fill="none" stroke="#020405" stroke-width=".283" stroke-linecap="round" stroke-linejoin="bevel" stroke-miterlimit="10" d="M275.9 182l-1.1.4-.4 1.1"/><path clip-rule="evenodd" fill="none" stroke="#020405" stroke-width=".283" stroke-linecap="round" stroke-linejoin="round" stroke-miterlimit="10" d="M279.6 181.8v-69.3m1.2 1.1v67"/><path clip-rule="evenodd" fill="none" stroke="#020405" stroke-width=".283" stroke-linecap="round" stroke-linejoin="bevel" stroke-miterlimit="10" d="M280.6 113.6l-.2-.6-.8-.4m0 69l.8-.4.2-.6"/><path clip-rule="evenodd" fill="none" stroke="#020405" stroke-width=".283" stroke-linecap="round" stroke-linejoin="round" stroke-miterlimit="10" d="M277.5 162.7v9.8m0-116v106.2"/><path clip-rule="evenodd" fill="none" stroke="#020405" stroke-width=".283" stroke-linecap="round" stroke-linejoin="bevel" stroke-miterlimit="10" d="M276.5 173.4l.8-.4.2-.5"/><path clip-rule="evenodd" fill="none" stroke="#020405" stroke-width=".283" stroke-linecap="round" stroke-linejoin="round" stroke-miterlimit="10" d="M276.5 173.6v-10.9h1m-1 0V66.2h1"/><path clip-rule="evenodd" fill="none" stroke="#020405" stroke-width=".283" stroke-linecap="round" stroke-linejoin="bevel" stroke-miterlimit="10" d="M277.5 56.5l-.2-.6-.8-.3"/><path clip-rule="evenodd" fill="none" stroke="#020405" stroke-width=".283" stroke-linecap="round" stroke-linejoin="round" stroke-miterlimit="10" d="M276.5 66.2V55.4m-1.2 107.3v10.9"/><path clip-rule="evenodd" fill="none" stroke="#020405" stroke-width=".283" stroke-linecap="round" stroke-linejoin="bevel" stroke-miterlimit="10" d="M275.3 173.6l-.7.4-.2.6"/><path clip-rule="evenodd" fill="none" stroke="#020405" stroke-width=".283" stroke-linecap="round" stroke-linejoin="round" stroke-miterlimit="10" d="M275.3 162.7h-.9m1.5 0V66.2h-1"/><path clip-rule="evenodd" fill="none" stroke="#020405" stroke-width=".283" stroke-linecap="round" stroke-linejoin="bevel" stroke-miterlimit="10" d="M274.4 54.4l.2.6.7.4"/><path clip-rule="evenodd" fill="none" stroke="#020405" stroke-width=".283" stroke-linecap="round" stroke-linejoin="round" stroke-miterlimit="10" d="M275.3 55.4v10.8m1.2 107.4h-1.2m1.2-10.9h-1.2m1.2-107.3h-1.2m1.2 10.8h-1.2m-24.6 55v25.4"/><path clip-rule="evenodd" fill="none" stroke="#020405" stroke-width=".283" stroke-linecap="round" stroke-linejoin="bevel" stroke-miterlimit="10" d="M250.7 146.6l.2 2.2.9 2.1 1.2 1.7 1.8 1.4 2.1.8 2.1.4"/><path clip-rule="evenodd" fill="none" stroke="#020405" stroke-width=".283" stroke-linecap="round" stroke-linejoin="round" stroke-miterlimit="10" d="M259 155.2l5.8.2"/><path clip-rule="evenodd" fill="none" stroke="#020405" stroke-width=".283" stroke-linecap="round" stroke-linejoin="bevel" stroke-miterlimit="10" d="M271.1 161.8l-.4-2-.8-1.7-1.4-1.4-1.7-.9-2-.4"/><path clip-rule="evenodd" fill="none" stroke="#020405" stroke-width=".283" stroke-linecap="round" stroke-linejoin="round" stroke-miterlimit="10" d="M271.1 161.8v17.6"/><path clip-rule="evenodd" fill="none" stroke="#020405" stroke-width=".283" stroke-linecap="round" stroke-linejoin="bevel" stroke-miterlimit="10" d="M264.8 185.9l2-.4 1.7-1 1.4-1.4.8-1.7.4-2"/><path clip-rule="evenodd" fill="none" stroke="#020405" stroke-width=".283" stroke-linecap="round" stroke-linejoin="round" stroke-miterlimit="10" d="M264.8 185.9l-17.4.5m0-143.9l17.4.4"/><path clip-rule="evenodd" fill="none" stroke="#020405" stroke-width=".283" stroke-linecap="round" stroke-linejoin="bevel" stroke-miterlimit="10" d="M271.1 49.3l-.4-1.9-.8-1.7-1.4-1.4-1.7-1-2-.4"/><path clip-rule="evenodd" fill="none" stroke="#020405" stroke-width=".283" stroke-linecap="round" stroke-linejoin="round" stroke-miterlimit="10" d="M271.1 49.3V67"/><path clip-rule="evenodd" fill="none" stroke="#020405" stroke-width=".283" stroke-linecap="round" stroke-linejoin="bevel" stroke-miterlimit="10" d="M264.8 73.4l2-.4 1.7-.9 1.4-1.4.8-1.7.4-2"/><path clip-rule="evenodd" fill="none" stroke="#020405" stroke-width=".283" stroke-linecap="round" stroke-linejoin="round" stroke-miterlimit="10" d="M264.8 73.6H259"/><path clip-rule="evenodd" fill="none" stroke="#020405" stroke-width=".283" stroke-linecap="round" stroke-linejoin="bevel" stroke-miterlimit="10" d="M259 73.8l-2.1.4-2.1.8-1.8 1.3-1.2 1.8-.9 2.1-.2 2.2"/><path clip-rule="evenodd" fill="none" stroke="#020405" stroke-width=".283" stroke-linecap="round" stroke-linejoin="round" stroke-miterlimit="10" d="M250.7 82.4v25.2"/><path clip-rule="evenodd" fill="none" stroke="#020405" stroke-width=".283" stroke-linecap="round" stroke-linejoin="bevel" stroke-miterlimit="10" d="M250.9 107.8l-1.2 1.9-.8 2.4-.2 2.3.2 2.3.8 2.4 1.2 1.9"/><path clip-rule="evenodd" fill="none" stroke="#020405" stroke-width=".283" stroke-linecap="round" stroke-linejoin="round" stroke-miterlimit="10" d="M279.6 181.8h-3.7m3.7-69.3h-2.1m23.1 32.6H285m0 6.4h9.8v-6.4m5.8 0v6.4h-5.8"/><path clip-rule="evenodd" fill="none" stroke="#020405" stroke-width=".283" stroke-linecap="round" stroke-linejoin="round" stroke-miterlimit="10" d="M285 143.9h17.1v8.5H285zm-2.9-25.2v59m29.2-53.2v47.4m-30.5-53.2h1.3m-1.3 59h1.3m0-53.2h29.2m-29.2 47.4h29.2m-54.4-5.7l-.2-.7"/><path clip-rule="evenodd" fill="none" stroke="#020405" stroke-width=".283" stroke-linecap="round" stroke-linejoin="bevel" stroke-miterlimit="10" d="M258.8 166.2l-1.9.2"/><path clip-rule="evenodd" fill="none" stroke="#020405" stroke-width=".283" stroke-linecap="round" stroke-linejoin="round" stroke-miterlimit="10" d="M258.6 165.3v.7"/><path clip-rule="evenodd" fill="none" stroke="#020405" stroke-width=".283" stroke-linecap="round" stroke-linejoin="bevel" stroke-miterlimit="10" d="M258.8 165.5l-1.9.2"/><path clip-rule="evenodd" fill="none" stroke="#020405" stroke-width=".283" stroke-linecap="round" stroke-linejoin="round" stroke-miterlimit="10" d="M253.8 172.1h-.8"/><path clip-rule="evenodd" fill="none" stroke="#020405" stroke-width=".283" stroke-linecap="round" stroke-linejoin="bevel" stroke-miterlimit="10" d="M253.8 170.1l.2 2"/><path clip-rule="evenodd" fill="none" stroke="#020405" stroke-width=".283" stroke-linecap="round" stroke-linejoin="round" stroke-miterlimit="10" d="M252.8 170.1h.8"/><path clip-rule="evenodd" fill="none" stroke="#020405" stroke-width=".283" stroke-linecap="round" stroke-linejoin="bevel" stroke-miterlimit="10" d="M253 170.1l.2 2"/><path clip-rule="evenodd" fill="none" stroke="#020405" stroke-width=".283" stroke-linecap="round" stroke-linejoin="round" stroke-miterlimit="10" d="M259.4 175.2l.2.6"/><path clip-rule="evenodd" fill="none" stroke="#020405" stroke-width=".283" stroke-linecap="round" stroke-linejoin="bevel" stroke-miterlimit="10" d="M257.7 175.2l1.9-.2"/><path clip-rule="evenodd" fill="none" stroke="#020405" stroke-width=".283" stroke-linecap="round" stroke-linejoin="round" stroke-miterlimit="10" d="M257.7 175.9v-.7"/><path clip-rule="evenodd" fill="none" stroke="#020405" stroke-width=".283" stroke-linecap="round" stroke-linejoin="bevel" stroke-miterlimit="10" d="M257.7 175.9l1.9-.1"/><path clip-rule="evenodd" fill="none" stroke="#020405" stroke-width=".283" stroke-linecap="round" stroke-linejoin="round" stroke-miterlimit="10" d="M262.5 169.3h.8"/><path clip-rule="evenodd" fill="none" stroke="#020405" stroke-width=".283" stroke-linecap="round" stroke-linejoin="bevel" stroke-miterlimit="10" d="M262.7 171.3l-.2-2"/><path clip-rule="evenodd" fill="none" stroke="#020405" stroke-width=".283" stroke-linecap="round" stroke-linejoin="round" stroke-miterlimit="10" d="M263.5 171.1l-.8.2"/><path clip-rule="evenodd" fill="none" stroke="#020405" stroke-width=".283" stroke-linecap="round" stroke-linejoin="bevel" stroke-miterlimit="10" d="M263.5 171.3l-.2-2"/><path clip-rule="evenodd" fill="none" stroke="#020405" stroke-width=".283" stroke-linecap="round" stroke-linejoin="round" stroke-miterlimit="10" d="M256.9 166.2l.6 2.2v.2"/><path clip-rule="evenodd" fill="none" stroke="#020405" stroke-width=".283" stroke-linecap="round" stroke-linejoin="bevel" stroke-miterlimit="10" d="M258.6 168.6l-1.1.2"/><path clip-rule="evenodd" fill="none" stroke="#020405" stroke-width=".283" stroke-linecap="round" stroke-linejoin="round" stroke-miterlimit="10" d="M258.6 168.6V166m-4.8 6.1l2.1-.6h.2"/><path clip-rule="evenodd" fill="none" stroke="#020405" stroke-width=".283" stroke-linecap="round" stroke-linejoin="bevel" stroke-miterlimit="10" d="M256.1 170.3l.2 1.2"/><path clip-rule="evenodd" fill="none" stroke="#020405" stroke-width=".283" stroke-linecap="round" stroke-linejoin="round" stroke-miterlimit="10" d="M256.1 170.3h-.4l-2.1-.2m5.8 5.1l-.4-2.4-.2-.2"/><path clip-rule="evenodd" fill="none" stroke="#020405" stroke-width=".283" stroke-linecap="round" stroke-linejoin="bevel" stroke-miterlimit="10" d="M257.9 172.8l1.1-.2"/><path clip-rule="evenodd" fill="none" stroke="#020405" stroke-width=".283" stroke-linecap="round" stroke-linejoin="round" stroke-miterlimit="10" d="M257.9 172.8v.2l-.2 2.2m4.8-5.9l-2.1.6h-.2"/><path clip-rule="evenodd" fill="none" stroke="#020405" stroke-width=".283" stroke-linecap="round" stroke-linejoin="bevel" stroke-miterlimit="10" d="M260.4 171.1l-.2-1.2"/><path clip-rule="evenodd" fill="none" stroke="#020405" stroke-width=".283" stroke-linecap="round" stroke-linejoin="round" stroke-miterlimit="10" d="M260.4 171.1h.2l2.1.2m-6.6.2l1.2.4.6.9m.9-.2l.4-.9 1.2-.6m-.2-1.2l-1-.4-.6-.9m-1.1 0l-.4 1.1-1 .6"/><path clip-rule="evenodd" fill="none" stroke="#020405" stroke-width=".283" stroke-linecap="round" stroke-linejoin="bevel" stroke-miterlimit="10" d="M265 170.7l-.2-1.7-.8-1.7c-2.7-4.6-9.9-4.4-12 .8l-.6 1.7v1.9c1.1 6.3 9.3 8 12.6 2.5l.8-1.7.2-1.8z"/><path clip-rule="evenodd" fill="none" stroke="#020405" stroke-width=".283" stroke-linecap="round" stroke-linejoin="bevel" stroke-miterlimit="10" d="M266.2 170.7l-.2-1.9-.8-1.9c-3.2-5.9-12-5.2-14.4 1l-.6 1.9v1.9c1.2 7.6 11.1 9.7 15 2.9l.8-1.9.2-2z"/><path clip-rule="evenodd" fill="none" stroke="#020405" stroke-width=".283" stroke-linecap="round" stroke-linejoin="round" stroke-miterlimit="10" d="M259 168.2l-.4-2.9"/><path clip-rule="evenodd" fill="none" stroke="#020405" stroke-width=".283" stroke-linecap="round" stroke-linejoin="bevel" stroke-miterlimit="10" d="M259.2 168.4l.4.8.8.1"/><path clip-rule="evenodd" fill="none" stroke="#020405" stroke-width=".283" stroke-linecap="round" stroke-linejoin="round" stroke-miterlimit="10" d="M263.3 169.3l-2.9.2m.2 2l2.9-.4"/><path clip-rule="evenodd" fill="none" stroke="#020405" stroke-width=".283" stroke-linecap="round" stroke-linejoin="bevel" stroke-miterlimit="10" d="M260.6 171.7l-.8.4-.2.7"/><path clip-rule="evenodd" fill="none" stroke="#020405" stroke-width=".283" stroke-linecap="round" stroke-linejoin="round" stroke-miterlimit="10" d="M259.6 175.8l-.2-3m-2.1.2l.4 2.9"/><path clip-rule="evenodd" fill="none" stroke="#020405" stroke-width=".283" stroke-linecap="round" stroke-linejoin="bevel" stroke-miterlimit="10" d="M257.3 173l-.4-.7-.8-.2"/><path clip-rule="evenodd" fill="none" stroke="#020405" stroke-width=".283" stroke-linecap="round" stroke-linejoin="round" stroke-miterlimit="10" d="M253 172.1l2.9-.2m0 0v-.4m1.4 1.5h.6m1.5-.2h-.4m1.6-1.3v-.4m-.2-1.6v.4m-1.4-1.7l-.4.2m-2.9 1.5l-2.9.2"/><path clip-rule="evenodd" fill="none" stroke="#020405" stroke-width=".283" stroke-linecap="round" stroke-linejoin="bevel" stroke-miterlimit="10" d="M255.9 169.7l.8-.4.2-.7"/><path clip-rule="evenodd" fill="none" stroke="#020405" stroke-width=".283" stroke-linecap="round" stroke-linejoin="round" stroke-miterlimit="10" d="M256.7 165.5l.2 2.9m0 0h.6m-1.8 1.5v.4m-1.7-114l-.6-.4"/><path clip-rule="evenodd" fill="none" stroke="#020405" stroke-width=".283" stroke-linecap="round" stroke-linejoin="bevel" stroke-miterlimit="10" d="M255.1 55l-.9 1.5"/><path clip-rule="evenodd" fill="none" stroke="#020405" stroke-width=".283" stroke-linecap="round" stroke-linejoin="round" stroke-miterlimit="10" d="M254.6 54.4l.5.4"/><path clip-rule="evenodd" fill="none" stroke="#020405" stroke-width=".283" stroke-linecap="round" stroke-linejoin="bevel" stroke-miterlimit="10" d="M254.6 54.6l-1 1.3"/><path clip-rule="evenodd" fill="none" stroke="#020405" stroke-width=".283" stroke-linecap="round" stroke-linejoin="round" stroke-miterlimit="10" d="M256.3 62.5l-.4.6"/><path clip-rule="evenodd" fill="none" stroke="#020405" stroke-width=".283" stroke-linecap="round" stroke-linejoin="bevel" stroke-miterlimit="10" d="M254.9 61.4l1.6 1"/><path clip-rule="evenodd" fill="none" stroke="#020405" stroke-width=".283" stroke-linecap="round" stroke-linejoin="round" stroke-miterlimit="10" d="M254.4 62l.4-.6"/><path clip-rule="evenodd" fill="none" stroke="#020405" stroke-width=".283" stroke-linecap="round" stroke-linejoin="bevel" stroke-miterlimit="10" d="M254.6 62l1.3.9"/><path clip-rule="evenodd" fill="none" stroke="#020405" stroke-width=".283" stroke-linecap="round" stroke-linejoin="round" stroke-miterlimit="10" d="M262.3 60.2l.6.4"/><path clip-rule="evenodd" fill="none" stroke="#020405" stroke-width=".283" stroke-linecap="round" stroke-linejoin="bevel" stroke-miterlimit="10" d="M261.4 61.6l.9-1.6"/><path clip-rule="evenodd" fill="none" stroke="#020405" stroke-width=".283" stroke-linecap="round" stroke-linejoin="round" stroke-miterlimit="10" d="M261.9 62.2l-.5-.6"/><path clip-rule="evenodd" fill="none" stroke="#020405" stroke-width=".283" stroke-linecap="round" stroke-linejoin="bevel" stroke-miterlimit="10" d="M261.9 62l1-1.4"/><path clip-rule="evenodd" fill="none" stroke="#020405" stroke-width=".283" stroke-linecap="round" stroke-linejoin="round" stroke-miterlimit="10" d="M260 54l.4-.6"/><path clip-rule="evenodd" fill="none" stroke="#020405" stroke-width=".283" stroke-linecap="round" stroke-linejoin="bevel" stroke-miterlimit="10" d="M261.5 55.2l-1.5-1"/><path clip-rule="evenodd" fill="none" stroke="#020405" stroke-width=".283" stroke-linecap="round" stroke-linejoin="round" stroke-miterlimit="10" d="M261.9 54.6l-.4.6"/><path clip-rule="evenodd" fill="none" stroke="#020405" stroke-width=".283" stroke-linecap="round" stroke-linejoin="bevel" stroke-miterlimit="10" d="M261.9 54.6l-1.3-1"/><path clip-rule="evenodd" fill="none" stroke="#020405" stroke-width=".283" stroke-linecap="round" stroke-linejoin="round" stroke-miterlimit="10" d="M254 56.3l1.9 1 .2.2"/><path clip-rule="evenodd" fill="none" stroke="#020405" stroke-width=".283" stroke-linecap="round" stroke-linejoin="bevel" stroke-miterlimit="10" d="M256.9 56.5l-.6 1"/><path clip-rule="evenodd" fill="none" stroke="#020405" stroke-width=".283" stroke-linecap="round" stroke-linejoin="round" stroke-miterlimit="10" d="M255.1 54.8l1.6 1.7m-.4 6l1-2.1.2-.2"/><path clip-rule="evenodd" fill="none" stroke="#020405" stroke-width=".283" stroke-linecap="round" stroke-linejoin="bevel" stroke-miterlimit="10" d="M256.5 59.6l1 .6"/><path clip-rule="evenodd" fill="none" stroke="#020405" stroke-width=".283" stroke-linecap="round" stroke-linejoin="round" stroke-miterlimit="10" d="M256.5 59.6l-1.7 1.8m7.5-1.2l-1.9-1.1h-.2"/><path clip-rule="evenodd" fill="none" stroke="#020405" stroke-width=".283" stroke-linecap="round" stroke-linejoin="bevel" stroke-miterlimit="10" d="M259.6 60l.6-.9"/><path clip-rule="evenodd" fill="none" stroke="#020405" stroke-width=".283" stroke-linecap="round" stroke-linejoin="round" stroke-miterlimit="10" d="M259.6 60h.2l1.6 1.6M260 54l-1 2.1"/><path clip-rule="evenodd" fill="none" stroke="#020405" stroke-width=".283" stroke-linecap="round" stroke-linejoin="bevel" stroke-miterlimit="10" d="M260 56.9l-1-.6"/><path clip-rule="evenodd" fill="none" stroke="#020405" stroke-width=".283" stroke-linecap="round" stroke-linejoin="round" stroke-miterlimit="10" d="M259.8 56.9l1.7-1.7m-4 5l.9-.6 1.2.4m.6-.9l-.6-1 .2-1.2m-.8-.8l-1.1.6-1.2-.2m-.6 1l.6 1-.2 1.1"/><path clip-rule="evenodd" fill="none" stroke="#020405" stroke-width=".283" stroke-linecap="round" stroke-linejoin="bevel" stroke-miterlimit="10" d="M265 58.3l-.2-1.7-.8-1.7c-2.7-4.6-9.9-4.3-12 .8l-.6 1.7v1.9c1.1 6.3 9.3 8 12.6 2.5l.8-1.7.2-1.8z"/><path clip-rule="evenodd" fill="none" stroke="#020405" stroke-width=".283" stroke-linecap="round" stroke-linejoin="bevel" stroke-miterlimit="10" d="M266.2 58.3l-.2-1.9-.8-1.9c-3.2-5.9-12-5.2-14.4 1l-.6 1.9v1.9c1.2 7.6 11.1 9.7 15 2.9l.8-1.9.2-2z"/><path clip-rule="evenodd" fill="none" stroke="#020405" stroke-width=".283" stroke-linecap="round" stroke-linejoin="round" stroke-miterlimit="10" d="M256.9 56.1l-2.3-1.7"/><path clip-rule="evenodd" fill="none" stroke="#020405" stroke-width=".283" stroke-linecap="round" stroke-linejoin="bevel" stroke-miterlimit="10" d="M257.1 55.9l.8.2.7-.3"/><path clip-rule="evenodd" fill="none" stroke="#020405" stroke-width=".283" stroke-linecap="round" stroke-linejoin="round" stroke-miterlimit="10" d="M260.4 53.4l-1.8 2.4m1.8 1.1l1.5-2.3"/><path clip-rule="evenodd" fill="none" stroke="#020405" stroke-width=".283" stroke-linecap="round" stroke-linejoin="bevel" stroke-miterlimit="10" d="M260.4 57.1l-.2.8.4.8"/><path clip-rule="evenodd" fill="none" stroke="#020405" stroke-width=".283" stroke-linecap="round" stroke-linejoin="round" stroke-miterlimit="10" d="M262.9 60.6l-2.3-1.7m-1.2 1.5l2.5 1.8"/><path clip-rule="evenodd" fill="none" stroke="#020405" stroke-width=".283" stroke-linecap="round" stroke-linejoin="bevel" stroke-miterlimit="10" d="M259.2 60.6l-.8-.2-.7.4"/><path clip-rule="evenodd" fill="none" stroke="#020405" stroke-width=".283" stroke-linecap="round" stroke-linejoin="round" stroke-miterlimit="10" d="M255.9 63.1l1.8-2.3m0 0l-.4-.4m2.1 0l.4-.4m.8-1.1l-.2.2m0-2.2l-.4-.2m-1.4-.9l.4.3m-2.1 0l-.2.4m-.8 3.1l-1.5 2.4"/><path clip-rule="evenodd" fill="none" stroke="#020405" stroke-width=".283" stroke-linecap="round" stroke-linejoin="bevel" stroke-miterlimit="10" d="M255.9 59.4l.2-.7-.4-.8"/><path clip-rule="evenodd" fill="none" stroke="#020405" stroke-width=".283" stroke-linecap="round" stroke-linejoin="round" stroke-miterlimit="10" d="M253.4 55.9l2.3 1.8m0 0l.2-.4m0 2.3l.4.2"/><path d="M146.6 168.2H120m13.2-13.3v26.2" clip-rule="evenodd" fill="none" stroke="#020405" stroke-width=".227" stroke-linecap="round" stroke-linejoin="round" stroke-miterlimit="10"/><path fill="none" stroke="#000" stroke-width=".283" stroke-miterlimit="3.864" d="M253.2 82.4c0-3.3 2.7-6 6-6s6 2.7 6 6-2.7 6-6 6-6-2.7-6-6z"/><path d="M255.1 82.4c0-2.3 1.8-4.1 4.1-4.1s4.1 1.8 4.1 4.1-1.8 4.1-4.1 4.1-4.1-1.9-4.1-4.1z"/><path fill="none" stroke="#000" stroke-width=".283" stroke-miterlimit="3.864" d="M255.1 82.4c0-2.3 1.8-4.1 4.1-4.1s4.1 1.8 4.1 4.1-1.8 4.1-4.1 4.1-4.1-1.9-4.1-4.1z"/><circle transform="matrix(.9996 -.02775 .02775 .9996 -3.075 7.268)" fill="none" stroke="#000" stroke-width=".283" stroke-miterlimit="3.864" cx="260.4" cy="114.4" r="9.3"/><path fill="none" stroke="#000" stroke-width=".283" stroke-miterlimit="3.864" d="M253.9 114.4c0-3.6 2.9-6.4 6.4-6.4 3.6 0 6.4 2.9 6.4 6.4 0 3.6-2.9 6.4-6.4 6.4-3.5.1-6.4-2.8-6.4-6.4zm-.7 32.2c0-3.3 2.7-6 6-6s6 2.7 6 6-2.7 6-6 6-6-2.7-6-6z"/><path d="M255.1 146.6c0-2.3 1.8-4.1 4.1-4.1s4.1 1.8 4.1 4.1-1.8 4.1-4.1 4.1c-2.2 0-4.1-1.8-4.1-4.1z"/><path fill="none" stroke="#000" stroke-width=".283" stroke-miterlimit="3.864" d="M255.1 146.6c0-2.3 1.8-4.1 4.1-4.1s4.1 1.8 4.1 4.1-1.8 4.1-4.1 4.1c-2.2 0-4.1-1.8-4.1-4.1zm-131.3 21.5c0-5.2 4.2-9.4 9.4-9.4s9.4 4.2 9.4 9.4-4.2 9.4-9.4 9.4-9.4-4.2-9.4-9.4z"/><path fill="none" stroke="#000" stroke-width=".283" stroke-miterlimit="3.864" d="M126.7 168.2c0-3.6 2.9-6.5 6.5-6.5s6.5 2.9 6.5 6.5-2.9 6.5-6.5 6.5-6.5-2.9-6.5-6.5z"/><path fill="none" stroke="#000" stroke-width=".283" stroke-miterlimit="3.864" d="M126.9 168.2c0-3.5 2.8-6.3 6.3-6.3s6.3 2.8 6.3 6.3-2.8 6.3-6.3 6.3-6.3-2.8-6.3-6.3zm-3-107.4c0-5.1 4.2-9.3 9.3-9.3 5.1 0 9.3 4.2 9.3 9.3 0 5.1-4.2 9.3-9.3 9.3-5.1 0-9.3-4.2-9.3-9.3z"/><path fill="none" stroke="#000" stroke-width=".283" stroke-miterlimit="3.864" d="M127 60.8c0-3.5 2.8-6.3 6.3-6.3s6.3 2.8 6.3 6.3-2.8 6.3-6.3 6.3-6.3-2.8-6.3-6.3z"/><path fill="none" stroke="#000" stroke-width=".283" stroke-miterlimit="3.864" d="M126.7 60.8c0-3.6 2.9-6.5 6.5-6.5s6.5 2.9 6.5 6.5-2.9 6.5-6.5 6.5-6.5-2.9-6.5-6.5zm8.4 21.6c0-3.3 2.7-6 6-6s6 2.7 6 6-2.7 6-6 6-6-2.7-6-6z"/><path fill="none" stroke="#000" stroke-width=".283" stroke-miterlimit="3.864" d="M137.1 82.4c0-2.3 1.8-4.1 4.1-4.1s4.1 1.8 4.1 4.1-1.8 4.1-4.1 4.1c-2.3-.1-4.1-1.9-4.1-4.1z"/><path fill="none" stroke="#000" stroke-width=".283" stroke-miterlimit="3.864" d="M137.3 82.3c0-2.2 1.7-3.9 3.9-3.9s3.9 1.7 3.9 3.9-1.7 3.9-3.9 3.9-3.9-1.7-3.9-3.9z"/><path d="M137.5 82.3c0-2.1 1.7-3.7 3.7-3.7 2.1 0 3.7 1.7 3.7 3.7 0 2.1-1.7 3.7-3.7 3.7-2.1.1-3.7-1.6-3.7-3.7z"/><path fill="none" stroke="#000" stroke-width=".283" stroke-miterlimit="3.864" d="M137.5 82.3c0-2.1 1.7-3.7 3.7-3.7 2.1 0 3.7 1.7 3.7 3.7 0 2.1-1.7 3.7-3.7 3.7-2.1.1-3.7-1.6-3.7-3.7zm-2.4 64.3c0-3.3 2.7-6 6-6s6 2.7 6 6-2.7 6-6 6c-3.3.1-6-2.6-6-6z"/><path fill="none" stroke="#000" stroke-width=".283" stroke-miterlimit="3.864" d="M137.1 146.6c0-2.3 1.8-4.1 4.1-4.1s4.1 1.8 4.1 4.1-1.8 4.1-4.1 4.1-4.1-1.8-4.1-4.1z"/><circle fill="none" stroke="#000" stroke-width=".283" stroke-miterlimit="3.864" cx="141.1" cy="146.6" r="3.9"/><path d="M137.4 146.6c0-2.1 1.7-3.7 3.7-3.7 2.1 0 3.7 1.7 3.7 3.7 0 2.1-1.7 3.7-3.7 3.7s-3.7-1.6-3.7-3.7z"/><path fill="none" d="M137.4 146.6c0-2.1 1.7-3.7 3.7-3.7 2.1 0 3.7 1.7 3.7 3.7 0 2.1-1.7 3.7-3.7 3.7s-3.7-1.6-3.7-3.7z"/><path clip-rule="evenodd" fill="none" stroke="#020405" stroke-width=".227" stroke-linecap="round" stroke-linejoin="round" stroke-miterlimit="10" stroke-dasharray="12,2,2,2" d="M39.3 114.4h251.8"/><path clip-rule="evenodd" fill="none" stroke="#020405" stroke-width=".227" stroke-linecap="round" stroke-linejoin="round" stroke-miterlimit="10" d="M312.9 114.4h-47.2m-124.5 21v21.8m10.1-10.6h-20.7m16-85.8H120m13.2-13.2v26.2m140.6 40.6h-26.7m13.3-13.2v26.1M141.2 71.2v21.7m10.1-10.5h-20.7m128.6-11.2v21.7m10.2-10.5h-20.7m10.5 53v21.8m10.2-10.6h-20.7"/><g clip-rule="evenodd"><path fill-rule="evenodd" fill="#FFF" d="M120.8 76.7l4.4-8 11.9 10.5-1.2 2.1z"/><path fill="none" stroke="#FFF" stroke-width=".003" stroke-miterlimit="3.864" d="M120.8 76.7l4.4-8 11.9 10.5-1.2 2.1z"/><path fill-rule="evenodd" d="M125.8 70.9l-2.8 5.2 13.6 3.9z"/><path fill="none" stroke="#000" stroke-width=".227" stroke-miterlimit="3.864" d="M124.4 73.5L31.6 23.2"/></g><g clip-rule="evenodd"><path fill-rule="evenodd" fill="#FFF" d="M121.6 153.1l4.3 8 12-10.5-1.2-2.1z"/><path fill="none" stroke="#FFF" stroke-width=".003" stroke-miterlimit="3.864" d="M121.6 153.1l4.3 8 12-10.5-1.2-2.1z"/><path fill-rule="evenodd" d="M123.7 153.7l2.8 5.2 10.9-9.1z"/><path fill="none" stroke="#000" stroke-width=".227" stroke-miterlimit="3.864" d="M125.1 156.3l-92.7 50.2"/></g><g clip-rule="evenodd"><path fill-rule="evenodd" fill="#FFF" d="M279.2 76.9l-4.4-8-11.9 10.5 1.2 2.1z"/><path fill="none" stroke="#FFF" stroke-width=".003" stroke-miterlimit="3.864" d="M279.2 76.9l-4.4-8-11.9 10.5 1.2 2.1z"/><path fill-rule="evenodd" d="M277 76.3l-2.7-5.2-10.9 9.1z"/><path fill="none" stroke="#000" stroke-width=".227" stroke-miterlimit="3.864" d="M275.6 73.7l92.8-50.3"/></g><g clip-rule="evenodd"><path fill-rule="evenodd" fill="#FFF" d="M279 152.7l-4.4 8-11.9-10.5 1.2-2.1z"/><path fill="none" stroke="#FFF" stroke-width=".003" stroke-miterlimit="3.864" d="M279 152.7l-4.4 8-11.9-10.5 1.2-2.1z"/><path fill-rule="evenodd" d="M274.1 158.5l2.7-5.2-13.6-3.9z"/><path fill="none" stroke="#000" stroke-width=".227" stroke-miterlimit="3.864" d="M275.4 155.9l92.8 50.2"/></g><g font-family="Helvetica,Arial,sans-serif" font-size="12"><text transform="translate(13.5 23.742)">(a)</text><text transform="translate(13.5 214.242)">(a)</text><text transform="translate(371.5 214.242)">(b)</text><text transform="translate(371.5 23.742)">(b)</text><text transform="translate(168 107.976)">Bottom</text></g></svg>