<svg version="1.0" xmlns="http://www.w3.org/2000/svg" viewBox="0 0 411 155.9"><path fill="#FFF" d="M128 48.2h3l1.5-1.1 1 .9-1.8 1.5-.7.2v1.2h2.5v48.4H131v1.7l.7.3 1.8 1.5-1 .9-1.5-1.2h-3V125c0 3.7-3 6.7-6.7 6.7H21.4c-3.7 0-6.7-3-6.7-6.7V25.1c0-3.7 3-6.7 6.7-6.7h99.9c3.7 0 6.7 3 6.7 6.7v23.1z"/><path fill="#FFF" stroke="#010202" stroke-width=".425" stroke-miterlimit="10" d="M30.7 28c0 3.5-2.8 6.3-6.3 6.3s-6.3-2.8-6.3-6.3 2.8-6.3 6.3-6.3 6.3 2.8 6.3 6.3zm81.4 0c0 3.5 2.8 6.3 6.3 6.3s6.3-2.8 6.3-6.3-2.8-6.3-6.3-6.3c-3.4 0-6.3 2.8-6.3 6.3zm-81.4 94.5c0-3.5-2.8-6.3-6.3-6.3s-6.3 2.8-6.3 6.3 2.8 6.3 6.3 6.3 6.3-2.8 6.3-6.3zm81.4 0c0-3.5 2.8-6.3 6.3-6.3s6.3 2.8 6.3 6.3-2.8 6.3-6.3 6.3c-3.4 0-6.3-2.8-6.3-6.3z"/><path fill="none" stroke="#000" stroke-width=".425" stroke-linecap="round" stroke-linejoin="round" stroke-miterlimit="10" d="M40.4 25H74v33.6H40.4zm43.9 2.5h17.4v13H84.3zM110 48.2h21v54.4h-21zm0 32.4h4.6m0 0V66.4m0 0H110m21 33.4h-21m21-48.9h-21"/><path fill="none" stroke="#000" stroke-width=".425" stroke-linecap="round" stroke-linejoin="round" stroke-miterlimit="10" d="M127.2 78v.5l-.1.1-.2.1h-1.4l-.2-.1-.1-.1v-.1l-.1-.1v-.1l-.1-.1V78h-3.8l-.2-.1-.1-.1h-.1v-.2l-.1-.1v-1.9l.1-.1v-.1l.1-.1h.1l.2-.1h3.7l.1-.1h0l.1-.1v-.1l.1-.2v-.1l.1-.1h1.8l.1.2v.5h2V78h-2m0 19.8v.6l-.1.1-.2.1h-1.4l-.2-.1-.1-.1v-.1l-.1-.1v-.1l-.1-.1v-.1l-.1-.1H121l-.1-.1h-.1v-.2l-.1-.1v-1.9l.1-.1v-.1l.1-.1.1-.1h3.9l.1-.1h0l.1-.1v-.2l.1-.1v-.1l.1-.1h1.8l.1.1v.6h2v2.7h-2m-12.6-28.4h1.9c.8 0 .6.7.6.7v5.2c0 .5-.3.8-.8.8h-1.7M36.3 54.9h-2.4m0 0v-4.4m0 0h2.4m0 0v4.4M78.7 32H81m0 0v4.4m0 0h-2.3m0 0V32m2.3-2.7h-2.3m0 0v-4.4m0 0H81m0 0v4.4m-30 87.3h2.3m0 0v4.4m0 0H51m0 0v-4.4m50.4-19.8h3.8m0 0v7.1m0 0h-3.8m0 0v-7.1m-13.5 13.9h4.4v-2.3h-4.4m0 2.3v-2.3m8.8 17v4h-7.3v-4m0 0h7.3m-12.8-17.2h2.3m-2.3 0v4.4h2.3v-4.4m-18.7 19.9h-2.3m0 0v-4.4m0 0h2.3m0 0v4.4M32.3 95.6h-2.4m0 0v-4.4m0 0h2.4m0 0v4.4m51.4 26.5H86m0 0v4.4m0 0h-2.3m0 0v-4.4M64 127.9h-2.3m0 0v-4.4m0 0H64m0 0v4.4M35.6 97.7v2.3m0 0h-4.4m0 0v-2.3m0 0h4.4m18.9 18.9h2.3m0 0v4.4m0 0h-2.3m0 0v-4.4M32.3 88.5h-2.4m0 0v-4.4m0 0h2.4m0 0v4.4m16.8 31.3v2.3m0 0h-4.4m0 0v-2.3m0 0h4.4M19.5 77.4V75h4.4v2.4m0 0h-4.4m12.8 3.3h-2.4m0 0v-4.4h2.4v4.4m9.8 39.1v2.3m0 0h-4.4m0 0v-2.3m0 0h4.4m-8.4-39.1h2.4v-4.4h-2.4v4.4m11.6 42.8v4m0 0h-7.4m0 0v-4m0 0h7.4M33.9 67.7h2.4m-2.4 0v4.4h2.4v-4.4m70.1 46.8v2.3H102v-2.3h4.4M28.5 80.7h-2.3m0 0v-4.4h2.3v4.4m74.5 32.6v-2.4m0 0h4.4v2.4H103m-37.8 3.3h2.3m0 0v4.4m0 0h-2.3m0 0v-4.4M33.9 43.8h2.4m0 0v4.4m0 0h-2.4m0 0v-4.4m27.8 72.8H64m0 0v4.4m0 0h-2.3m0 0v-4.4M68.6 66H73v-2.3h-4.4m0 2.3v-2.3m-10.5 52.9h2.3m0 0v4.4m0 0h-2.3m0 0v-4.4M38.8 63.7V66m0 0h-4.4m0 0v-2.3m0 0h4.4M49.1 116v2.3m0 0h-4.4m0 0V116m0 0h4.4m49.7-7.6v2.3m0-2.3h-4.4v2.3h4.4m1.1 8.3h6v9.3h-6V119m-57.8-3v2.3m0 0h-4.4m0 0V116m0 0h4.4m-5.8-74.3h-2.4m0 0v-4.4m0 0h2.4m0 0v4.4m53.9 59.6h-2.3m0 0v-4.4m0 0h2.3m0 0v4.4m12.8 8.2v-2.3m0 2.3h4.4v-2.3H103M84.5 68.5h2.3v4.4h-2.3zm-50.8 38h2.4v-4.4h-2.4m0 4.4v-4.4m25.9 24.4v2.3m0 0h-4.5m0 0v-2.3m0 0h4.5m29.1-62.4v4.4h2.4v-4.4m-2.4 0h2.4m-61.2 38h2.4m0 0v4.4m0 0h-2.4m0 0v-4.4m25.2 23.1v-2.3m0 0h4.5m0 0v2.3m0 0h-4.5m32.4-71.8v2.3m0 0h-4.4m0 0v-2.3m0 0h4.4m-60.3 51.9v4m0 0h-7.3m0 0v-4m0 0h7.3m65.7-50.6l-.1.3m0 0v.2m0 0l-.2.3m0 0l-.1.2m0 0l-.2.3m0 0l-.3.1m0 0l-.3.2m0 0h-.2m0 0l-.3.1m0 0l-.3-.1m0 0h-.3m0 0l-.3-.2m0 0l-.2-.1m0 0l-.2-.3m0 0l-.2-.2m0 0l-.1-.3m0 0l-.1-.2m0 0v-.3m0 0v-.3m0 0l.1-.3m0 0l.1-.3m0 0l.2-.2m0 0l.2-.2m0 0l.2-.2m0 0l.3-.1m0 0l.3-.1m0 0h.3m0 0h.3m0 0l.2.1m0 0l.3.1m0 0l.3.2m0 0l.2.2m0 0l.1.2m0 0l.2.3m0 0v.3m0 0l.1.3M91.5 100h4v-7.3h-4m0 7.3v-7.3m-7.4 4.2h2.3m0 0v4.4m0 0h-2.3m0 0v-4.4m-64.4.2v-2.3m0 0h4.4m0 0v2.3m0 0h-4.4m65.1-1.9v-2.3m0 0h4.4m0 0v2.3m0 0h-4.4m0-7.4v-2.3m0 0h4.4m0 0v2.3m0 0h-4.4m0 3.4v-2.3m0 0h4.4m0 0v2.3m0 0h-4.4m-51.1 4.4h2.4v-4.4h-2.4m0 4.4v-4.4m-6.5-1.9v4m0 0h-7.3m0 0v-4m0 0h7.3m60.4 32.9h10.9v-8.8H87.6m0 8.8v-8.8M33.7 88.5h2.4v-4.4h-2.4m0 4.4v-4.4m-13.6 19.7v-5.3m0 0H27m0 0v5.3m0 0h-6.9m-.4-22.7v-2.3m0 0h4.4m0 0v2.3m0 0h-4.4m82.9 6.3l3.1 3.1m0 0l-2.5 2.6m0 0l-3.1-3.1m0 0l2.5-2.6m-10.5-8.8h-4m0 0v-7.3h4v7.3m-5.2 1.1h-2.4m0 0v-4.4h2.4v4.4m-66.8 8.1v-5.2m0 0H27m0 0v5.2m0 0h-6.9m66.5-24.1V66m0 0h-4.4m0 0v-2.3m0 0h4.4m18.4.3h-4.6m0 0V53.1m0 0h4.6m0 0V64m-14.6-6v4m0 0h-7.3m0 0v-4m0 0h7.3m14.7-18.9h4.4m-4.4 0v3.6h4.4v-3.6M80.7 61.4h-2.2m0 0V57m0 0h2.2m0 0v4.4m-1 2.3h-4.4V66h4.4m0-2.3V66m3.8-13.9v-4.4m0 0H87m0 0v4.4m0 0h-3.5M61.9 66v-2.3m0 0h4.4m0 0V66m0 0h-4.4m28.5-13.9v-4.4m0 0H94m0 0v4.4m0 0h-3.6M59.3 63.7V66m0 0h-4.4m0 0v-2.3m0 0h4.4M48 66v-2.3m0 0h4.4m0 0V66m0 0H48m-2.5-2.3V66m0 0h-4.4m0 0v-2.3m0 0h4.4m35.2-9.2h-2.2m0 0v-4.4m0 0h2.2m0 0v4.4m-46.8 2.9h2.4m-2.4 0v4.4h2.4v-4.4m33.9 59.7h10.9m0 0v8.8m0 0H70.2m0 0v-8.8m10.5-69.5h-2.2m0 0v-4.4h2.2v4.4M31 110.7v-2.3m0 0h4.4m0 0v2.3m0 0H31m21.5 12.8v2.4m0 0h-4.6m0 0v-2.4m0 0h4.6M39.1 70.7h42v42h-42zm77.6 39.6c0 1.1-.9 2-2 2s-2-.9-2-2 .9-2 2-2 2 .9 2 2zM38.3 25c0 1.2-.9 2.1-2.1 2.1-1.2 0-2.1-.9-2.1-2.1 0-1.2.9-2.1 2.1-2.1 1.2 0 2.1.9 2.1 2.1zm9.5 106.7c.5 0 .6-.3.6-.5.2-.9 1.1-1.7 2.1-1.7s1.9.7 2.1 1.7c0 .2.2.5.6.5M82.5 18.4c-.5 0-.6.3-.6.5-.2 1-1.1 1.7-2.1 1.7s-1.9-.7-2.1-1.7c0-.2-.2-.5-.6-.5"/><path fill="none" stroke="#010202" stroke-width=".709" stroke-miterlimit="10" d="M128 48.2h3l1.5-1.1 1 .9-1.8 1.5-.7.2v1.2h2.5v48.4H131v1.7l.7.3 1.8 1.5-1 .9-1.5-1.2h-3V125c0 3.7-3 6.7-6.7 6.7H21.4c-3.7 0-6.7-3-6.7-6.7V25.1c0-3.7 3-6.7 6.7-6.7h99.9c3.7 0 6.7 3 6.7 6.7v23.1z"/><path fill="none" stroke="#FFF" stroke-width="1.417" stroke-miterlimit="10" stroke-dasharray="5.6693,2.8347,1.4173,2.8347" d="M71.4 142.8V13.1M7.1 75.3h141.7"/><g fill="none" stroke="#010202" stroke-width=".283" stroke-miterlimit="10"><path d="M107.6 122.5h2.8"/><path stroke-dasharray="1.1012,2.2024" d="M112.6 122.5h2.2"/><path stroke-dasharray="4.4047,2.2024,1.1012,2.2024" d="M115.9 122.5h8.8"/><path d="M125.8 122.5h2.8"/></g><g fill="none" stroke="#010202" stroke-width=".283" stroke-miterlimit="10"><path d="M118.1 111.7v2.8"/><path stroke-dasharray="1.1427,2.2854" d="M118.1 116.8v2.3"/><path stroke-dasharray="4.5708,2.2854,1.1427,2.2854" d="M118.1 120.2v9.2"/><path d="M118.1 130.5v2.9"/></g><g fill="none" stroke="#010202" stroke-width=".283" stroke-miterlimit="10"><path d="M13.7 122.5h2.9"/><path stroke-dasharray="1.1009,2.2019" d="M18.8 122.5H21"/><path stroke-dasharray="4.4038,2.2019,1.1009,2.2019" d="M22.1 122.5h8.8"/><path d="M32 122.5h2.8"/></g><g fill="none" stroke="#010202" stroke-width=".283" stroke-miterlimit="10"><path d="M24.3 111.7v2.8"/><path stroke-dasharray="1.1427,2.2854" d="M24.3 116.8v2.3"/><path stroke-dasharray="4.5708,2.2854,1.1427,2.2854" d="M24.3 120.2v9.2"/><path d="M24.3 130.5v2.9"/></g><g fill="none" stroke="#010202" stroke-width=".283" stroke-miterlimit="10"><path d="M107.6 27.8h2.8"/><path stroke-dasharray="1.1012,2.2024" d="M112.6 27.8h2.2"/><path stroke-dasharray="4.4047,2.2024,1.1012,2.2024" d="M115.9 27.8h8.8"/><path d="M125.8 27.8h2.8"/></g><g fill="none" stroke="#010202" stroke-width=".283" stroke-miterlimit="10"><path d="M118.1 17v2.9"/><path stroke-dasharray="1.1424,2.2848" d="M118.1 22.1v2.3"/><path stroke-dasharray="4.5697,2.2848,1.1424,2.2848" d="M118.1 25.6v9.1"/><path d="M118.1 35.8v2.9"/></g><g fill="none" stroke="#010202" stroke-width=".283" stroke-miterlimit="10"><path d="M13.7 27.8h2.9"/><path stroke-dasharray="1.1009,2.2019" d="M18.8 27.8H21"/><path stroke-dasharray="4.4038,2.2019,1.1009,2.2019" d="M22.1 27.8h8.8"/><path d="M32 27.8h2.8"/></g><g fill="none" stroke="#010202" stroke-width=".283" stroke-miterlimit="10"><path d="M24.3 17v2.9"/><path stroke-dasharray="1.1424,2.2848" d="M24.3 22.1v2.3"/><path stroke-dasharray="4.5697,2.2848,1.1424,2.2848" d="M24.3 25.6v9.1"/><path d="M24.3 35.8v2.9"/></g><text transform="translate(185 98.67)" font-family="Helvetica,Arial,sans-serif" font-size="14">Temperature measurement point</text><path fill="none" stroke="#000" stroke-miterlimit="10" d="M178 94.4H58.1"/></svg>