<svg version="1.1" id="Layer_1" xmlns="http://www.w3.org/2000/svg" x="0" y="0" viewBox="0 0 550 400" xml:space="preserve"><style>.st0{fill:none;stroke:#000;stroke-width:.283;stroke-linecap:round;stroke-linejoin:round;stroke-miterlimit:10}.st1{fill-rule:evenodd;clip-rule:evenodd;fill:silver}.st2{fill:none;stroke:silver;stroke-width:.283;stroke-linecap:round;stroke-linejoin:round;stroke-miterlimit:10}.st4{fill:#010202}.st5{font-family:Helvetica,Arial,sans-serif}.st6{font-size:12px}.st7{fill-rule:evenodd;clip-rule:evenodd;fill:#fff}.st8{fill:none;stroke:#fff;stroke-width:3.000000e-03;stroke-miterlimit:3.864}.st9{fill-rule:evenodd;clip-rule:evenodd;fill:#1e1e1c}.st10,.st12{fill:none;stroke:#000;stroke-width:.227;stroke-miterlimit:3.864}.st12{stroke:#1e1e1c}</style><path class="st0" d="M191.1 106.5h26.5m-27.5 1l1-1m-1 28.8v-27.8m-26.5 27.8h26.5m-27.5 1l1-1m-1 7v-6m2.9 9l-2.9-3m48.1 3h-45.2m58.4 0h-13.2m6.9 161.6h-26.5m19.6-38.8h13.2m-58.4 0h45.2m-48.1 3l2.9-3m-2.9 9v-6m1 6.9l-1-.9m27.5.9h-26.5m26.5 27.9V278m1 28.9l-1-1m28.4-4v.5m0 0l-.1.5m0 0l-.1.4m0 0l-.1.5m0 0l-.1.5m0 0l-.1.4m0 0l-.1.3m0 0v.4m0 0l-.1.4m0 0v.2m0 0l-.1.3m0 0l-.1.2m0 0v.2m0 0v.1m0 0v.1m7.1-45.4l-.6 5.1m0 0l-.6 5m0 0l-.7 5.1m0 0l-.7 5.1m0 0l-.9 5m0 0l-.8 5m0 0l-.8 5.1m0 0l-1.1 5m6.7-45.2l-.2 2.4m0 0l-.3 2.4m.5-104.8l.1 1m0 98l-.1 1m-.5-104.8l.3 2.4m0 0l.2 2.4m-6.7-45.2l1.1 5m0 0l.8 5.1m0 0l.8 5m0 0l.9 5m0 0l.7 5.1m0 0l.7 5.1m0 0l.6 5m0 0l.6 5.1m-7.1-45.2v.2m0 0l.1.2m0 0l.1.2m0 0v.3m0 0l.1.3m0 0v.4m0 0l.1.4m0 0l.1.4m0 0l.1.5m0 0l.1.5m0 0l.1.4m0 0l.1.5m0 0v.5m-.9 195.4h7.1m0-200.4h-7.1m7.6 5v-.5m0 0v-.5m0 0v-.5m0 0v-.4m0 0v-.5m0 0v-.4m0 0v-.4m0 0v-.3m0 0v-.4m0-.1v-.3m0 49.5v-45.2m0 190.4v-45.2m0 49.7v-.1m0 0v-.1m0 0v-.3m0 0v-.2m0 0v-.3m0 0v-.3m0 0v-.4m0 0v-.4m0 0v-.5m0 0v-.4m0 0v-.5m0 0v-.5m0 0v-.5m-.5-190.4v40.4m0 109.6v40.4m0-195.4l.5.5m-.5-.3v.2m0 0v.3m0 0v.3m0 0v.3m0 0v.3m0 0v.4m0 0v.5m0 0v.4m0 0v.5m0 0v.6m0 0v.5m0 0v.5m0 190.4v.5m0 0v.5m0 0v.5m0 0v.6m0 0v.4m0 0v.5m0 0v.3m0 0v.4m0 0v.3m0 0v.3m0 0v.3m0 0v.2m0 0v.1m0 0v.1m0 0l.5-.5m-14.5-161.1v.1m0 0v.1m0 0v.2m0 0v.2m0 0v.3m0 0v.4m0 0v.4m0 0v.5m0 0v.6m0 0v.5m0 0v.7m0 0v.7m0 0v.8m0 0v.8m0 0v.9m0 0v.9m0 0v1m0 0v1m0 0v1.1m0 0v1.1m0 0v1.2m0 0v1.2m0 0v1.3m0 0v1.4m0 0v1.3m0 0v1.4m0 0v1.5m0 0v1.4m0 0v1.6m0 0v1.5m0 0v1.6m0 0v1.6m0 0v1.7m0 0v1.7m0 0v1.7m0 0v1.7m0 0v1.8m0 0v1.8m0 0v1.8m0 0v1.8m0 0v1.9m0 0v1.9m0 0v1.8m0 0v1.9m0 0v2m0 0v1.9m0 0v1.9m0 0v1.9m0 0v1.9m0 0v2m0 0v1.9m0 0v1.9m0 0v1.9m0 0v1.9m0 0v2m0 0v1.9m0 0v1.8m0 0v1.9m0 0v1.9m0 0v1.8m0 0v1.8m0 0v1.8m0 0v1.8m0 0v1.7m0 0v1.7m0 0v1.7m0 0v1.6m0 0v1.7m0 0v1.6m0 0v1.5m0 0v1.6m0 0v1.4m0 0v1.5m0 0v1.4m0 0v1.3m0 0v1.4m0 0v1.3m0 0v1.2m0 0v1.2m0 0v1.1m0 0v1.1m0 0v1m0 0v1m0 0v.9m0 0v.9m0 0v.8m0 0v.8m0 0v.7m0 0v.7m0 0v.5m0 0v.6m0 0v.5m0 0v.4m0 0v.3m0 0v.4m0 0v.2m0 0v.2m0 0v.1m0 0v.1m-45.2 0v-.1m0 0v-.2m0 0v-.3m0 0v-.3m0 0v-.3m0 0v-.4m0 0v-.5m0 0v-.6m0 0v-.6m0 0v-.6m0 0v-.7m0 0v-.8m0 0v-.8m0 0v-.9m0 0v-.9m0 0v-1m0 0v-1m0 0V257m0 0v-1.2m0 0v-1.2m0 0v-1.2m0 0v-1.3m0 0v-1.2m0 0v-1.4m0 0V248m0 0v-1.4m0 0v-1.5m0 0v-1.5m0 0V242m0 0v-1.6m0 0v-1.6m0 0v-1.6m0 0v-1.8m0 0v-1.6m0 0V232m0 0v-1.8m0 0v-1.8m0 0v-1.8m0 0v-1.8m0 0v-1.9m0 0V221m0 0v-1.8m0 0v-1.9m0 0v-2m0 0v-1.9m0 0v-1.9m0 0v-1.9m0 0v-1.9m0 0v-2m0 0v-1.9m0 0v-1.9m0 0V200m0 0v-2m0 0v-1.9m0 0v-1.9m0 0v-1.8m0 0v-1.9m0 0v-1.9m0 0v-1.8m0 0V185m0 0v-1.8m0 0v-1.8m0 0v-1.8m0 0V178m0 0v-1.8m0 0v-1.6m0 0V173m0 0v-1.6m0 0v-1.6m0 0v-1.5m0 0v-1.5m0 0v-1.4m0 0v-1.5m0 0v-1.4m0 0v-1.3m0 0V160m0 0v-1.2m0 0v-1.2m0 0v-1.2m0 0v-1.1m0 0v-1m0 0v-1m0 0v-.9m0 0v-.9m0 0v-.8m0 0v-.8m0 0v-.7m0 0v-.6m0 0v-.6m0 0v-.6m0 0v-.5m0 0v-.4m0 0v-.3m0 0v-.3m0 0v-.3m0 0v-.2m0 0v-.1m-2.9-3v.1m0 0v.1m0 0v.2m0 0v.2m0 0v.3m0 0v.4m0 0v.4m0 0v.5m0 0v.6m0 0v.5m0 0v.7m0 0v.7m0 0v.8m0 0v.8m0 0v.9m0 0v1m0 0v.9m0 0v1.1m0 0v1.1m0 0v1.1m0 0v1.2m0 0v1.2m0 0v1.4m0 0v1.3m0 0v1.4m0 0v1.4m0 0v1.5m0 0v1.4m0 0v1.6m0 0v1.6m0 0v1.6m0 0v1.7m0 0v1.6m0 0v1.8m0 0v1.7m0 0v1.8m0 0v1.8m0 0v1.8m0 0v1.9m0 0v1.8m0 0v1.9m0 0v1.9m0 0v1.9m0 0v2m0 0v1.9m0 0v2m0 0v2m0 0v1.9m0 0v2m0 0v2m0 0v2m0 0v1.9m0 0v2m0 0v2m0 0v2m0 0v2m0 0v1.9m0 0v1.9m0 0v2m0 0v1.9m0 0v1.9m0 0v1.8m0 0v1.9m0 0v1.8m0 0v1.8m0 0v1.8m0 0v1.7m0 0v1.8m0 0v1.6m0 0v1.7m0 0v1.6m0 0v1.5m0 0v1.6m0 0v1.5m0 0v1.5m0 0v1.4m0 0v1.4m0 0v1.3m0 0v1.4m0 0v1.2m0 0v1.2m0 0v1.1m0 0v1.1m0 0v1.1m0 0v.9m0 0v1m0 0v.9m0 0v.8m0 0v.7m0 0v.8m0 0v.7m0 0v.5m0 0v.6m0 0v.5m0 0v.4m0 0v.4m0 0v.3m0 0v.2m0 0v.2m0 0v.1m0 0v.1m62.7-156.9h-.1m0 185h.1m0-188.2h-.1m.1 191.4h-.1m190.9-.5V111.5m-.5 0v190.4m0 4.5l.5.5m0 0v-.1m0 0v-.1m0 0v-.2m0 0v-.3m0 0v-.3m0 0v-.3m0 0v-.4m0 0v-.3m0 0v-.5m0 0v-.4m0 0v-.6m0 0v-.5m0 0v-.5m0 0v-.5m-.5 0v.5m0 0v.5m0 0v.5m0 0v.4m0 0v.5m0 0v.4m0 0v.4m0 0v.3m0 0v.3m0 0v.2m0 0v.3m0 0v.1m0 0v.1m0-199.4l.5-.5m0 5v-.5m0 0v-.5m0 0v-.6m0 0v-.5m0 0v-.4m0 0v-.5m0 0v-.4m0 0v-.3m0 0v-.3m0 0v-.3m0 0v-.3m0 0v-.2m-.5.5v.3m0 .1v.4m0 0v.3m0 0v.4m0 0v.4m0 0v.5m0 0v.4m0 0v.5m0 0v.5m0 0v.5m24-5h-23.5m23.5.2v.2m0 0v.3m0 0v.3m0 0v.3m0 0v.3m0 0v.4m0 0v.5m0 0v.4m0 0v.5m0 0v.6m0 0v.5m0 0v.5m0 190.4v.5m0 0v.5m0 0v.5m0 0v.6m0 0v.4m0 0v.5m0 0v.3m0 0v.4m0 0v.3m0 0v.3m0 0v.3m0 0v.2m0 0v.1m0 0v.1m-23.5 0h23.5m0-195.4v190.4m1.1 4l-1.1 1m0-200.4l1.1 1m0 4v-.5m0 0v-.5m0 0v-.4m0 0v-.5m0 0v-.4m0 0v-.4m0 0v-.3m0 0v-.3m0 0v-.3m0-.1v-.2m0 194.3V111.5m0 194.4v-.1m0 0v-.2m0 0v-.1m0 0v-.3m0 0v-.3m0 0v-.3m0 0v-.4m0 0v-.4m0 0v-.5m0 0v-.4m0 0v-.5m0 0v-.5m3-24.6v-.1m0 0v-.1m0 0v-.3m0 0v-.2m0 0v-.4m0 0v-.3m0 0v-.5m0 0v-.5m0 0v-.6m0 0v-.6m0 0v-.6m0 0v-.8m0 0v-.7m0 0v-.9m0 0v-.8m0 0v-.9m0 0v-1m0 0v-1m0 0v-1m0 0v-1.1m0 0v-1.1m0 0v-1.2m0 0v-1.2m0 0v-1.2m0 0V259m0 0v-1.3m0 0v-1.3m0 0v-1.3m0 0v-1.4m0 0v-1.3m0 0v-1.3m0 0v-1.4m0 0v-1.4m0 0V247m0 0v-1.4m0 0v-1.4m0 0v-1.4m0 0v-1.3m0 0v-1.4m0 0v-1.3m0 0v-1.3m0 0v-1.3m0 0v-1.4m0 0v-1.2m0 0v-1.2m0 0v-1.3m0 0V230m0 0v-1.2m0 0v-1.1m0 0v-1.1m0 0v-1.1m0 0v-.9m0 0v-1m0 0v-.9m0 0v-.9m0 0v-.8m0 0v-.8m0 0v-.7m0 0v-.7m0 0v-.6m0 0v-.6m0 0v-.5m0 0v-.4m0 0v-.4m0 0v-.3m0 0v-.3m0 0v-.2m0 0v-.2m0 0v-.1m-3 0h3m-3 62.1h3m-2.6-136.8v.1m0 0v.2m0 0v.1m0 0v.3m0 0v.3m0 0v.4m0 0v.4m0 0v.5m0 0v.5m0 0v.6m0 0v.6m0 0v.6m0 0v.7m0 0v.7m0 0v.7m0 0v.8m0 0v.7m0 0v.8m0 0v.7m0 0v.8m0 0v.7m0 0v.8m0 0v.7m0 0v.8m0 0v.7m0 0v.6m0 0v.7m0 0v.6m0 0v.5m0 0v.6m0 0v.5m0 0v.4m0 0v.3m0 0v.3m0 0v.3m0 0v.2m0 0v.2m0 0v.1m0 80.7v.1m0 0v.2m0 0v.1m0 0v.3m0 0v.3m0 0v.4m0 0v.5m0 0v.4m0 0v.5m0 0v.6m0 0v.6m0 0v.6m0 0v.7m0 0v.7m0 0v.7m0 0v.8m0 0v.7m0 0v.8m0 0v.7m0 0v.8m0 0v.8m0 0v.7m0 0v.7m0 0v.8m0 0v.7m0 0v.6m0 0v.7m0 0v.6m0 0v.5m0 0v.6m0 0v.5m0 0v.4m0 0v.3m0 0v.4m0 0v.2m0 0v.2m0 0v.2m0 0v.1m0-100.2h-.4m.4-19.5h-.4m.4 119.7h-.4m.4-19.5h-.4M415.6 111h-.1m.1 3.2h-.1m.1 185h-.1m.1 3.2h-.1M225.3 157.7l.5 5.4m0 0l.5 5.4m0 0l.3 5.5m0 0l.3 5.4m0 0l.3 5.5m0 0l.3 5.4m0 0l.1 5.5m0 0l.1 5.4m0 0v5.5m0 0v5.5m0 0l-.1 5.4m0 0l-.1 5.5m0 0l-.3 5.4m0 0l-.3 5.4m0 0l-.3 5.5m0 0l-.3 5.5m0 0l-.5 5.4m0 0l-.5 5.4m0-143.2v45.2m0-50.1v.2m0 .1v.3m0 0v.3m0 0v.3m0 0v.3m0 0v.5m0 0v.4m0 0v.5m0 0v.4m0 0v.5m0 0v.6m0 0v.5m0 188.4v.5m0 0v.5m0 0v.6m0 0v.4m0 0v.5m0 0v.4m0 0v.5m0 0v.3m0 0v.3m0 0v.3m0 0v.3m0 0v.1m0 0v.2m0 0v.1m0-50.2v45.2m190.2-188.4v-.5m0 0v-.6m0 0v-.5m0 0v-.4m0 0v-.5m0 0v-.4m0 0v-.5m0 0v-.3m0 0v-.3m0 0v-.3m0 0v-.3m0-.1v-.2m0 193.3V112.5m0 193.4v-.1m0 0v-.2m0 0v-.1m0 0v-.3m0 0v-.3m0 0v-.3m0 0v-.3m0 0v-.5m0 0v-.4m0 0v-.5m0 0v-.4m0 0v-.6m0 0v-.5m0 0v-.5m0-193.4H225.3m0 198.4h190.2M226.9 202.7h.8m-.8 8h.8M213.2 146l10.9.2m-12.4 1.2v-.1m0 0v-.1m0 0v-.2m0 0l.1-.1m0 0l.1-.1m0 0v-.2m0 0l.1-.1m0 0l.1-.1m0 0l.1-.1m0 0l.2-.1m0 0l.1-.1m0 0h.1m0 0l.2-.1m0 0h.1m0 0h.2m0 0h.1m-1.5 2.6v-1.2m.3 1.6h-.1m0 0l-.1-.1m0 0l-.1-.2m0 0v-.1m2.5 1.2l-2.2-.8m2.7 1.5v-.1m0 0l-.1-.1m0 0v-.1m0 0l-.1-.1m0 0v-.1m0 0l-.1-.1m0 0h-.1m0 0l-.1-.1m.5 7.8v-7.1m.4 7.6l-.1-.1m0 0h-.1m0 0l-.1-.1m0 0l-.1-.2m0 0v-.1m1 .5h-.6m.9.1h-.2m0 0l-.1-.1m1.6 1.4l-1.3-1.3m1.6 1.5h-.1m0 0l-.1-.1m0 0l-.1-.1m.9.2h-.6m.9.1h-.1m0 0l-.1-.1m0 0h-.1m1.6 1.5l-1.3-1.4m1.7 1.5h-.2m0 0l-.1-.1m0 0h-.1m.9.1h-.5m.9.2l-.1-.1m0 0h-.1m0 0l-.2-.1m1.6 1.4l-1.2-1.2m2.1 1.6h-.2m0 0l-.3-.1m0 0l-.2-.1m0 0l-.2-.2m1.2.1l-.3.3m.3-2v1.7m-.5-2.4v.2m0 0v.1m0 0l.2.2m0 0l.1.1m0 0l.2.1m-.5-.9v.2m.2-.4h-.1m0 0h-.1m0 0v.1m0 0v.1m2.5-.2h-2.3m.9 107.2l-10.9.2m10-14h2.3m-2.5-.2v.1m0 0l.1.1m0 0h.1m-.2-.4v.2m.5-.9l-.2.1m0 0l-.1.1m0 0l-.2.2m0 0v.1m0 0v.2m.5-2.4v1.7m-.3-2l.3.3m-1.2.1l.2-.2m0 0l.2-.1m0 0l.3-.1m0 0h.2m-2.1 1.6l1.2-1.2m-1.6 1.4l.2-.1m0 0h.1m0 0l.1-.1m-.9.2h.5m-.9.1h.1m0 0l.1-.1m0 0h.2m-1.7 1.5l1.3-1.4m-1.6 1.5l.1-.1m0 0h.1m0 0h.1m-.9.1h.6m-.9.2l.1-.1m0 0l.1-.1m0 0h.1m-1.6 1.4l1.3-1.2m-1.6 1.3h.1m0 0h.2m0 0v-.1m-.9.2l.6-.1m-1 .6v-.1m0 0l.1-.2m0 0l.1-.1m0 0h.1m0 0l.1-.1m-.4 7.6v-7.1m-.5 7.8l.1-.1m0 0h.1m0 0l.1-.1m0 0v-.1m0 0l.1-.1m0 0v-.1m0 0l.1-.1m0 0v-.1m-2.7 1.5l2.2-.8m-2.5 1.2v-.1m0 0l.1-.2m0 0l.1-.1m0 0h.1m-.3 1.5v-1.1m1.5 2.6h-.1m0 0h-.2m0 0h-.1m0 0l-.2-.1m0 0h-.1m0 0l-.1-.1m0 0l-.2-.1m0 0l-.1-.1m0 0l-.1-.1m0 0l-.1-.1m0 0v-.2m0 0l-.1-.1m0 0l-.1-.1m0 0v-.2m0 0v-.1m0 0v-.2m0-55.7v1.9m0 0v1.9m0 0v1.8m0 0v1.8m0 0v1.8m0 0v1.8m0 0v1.8m0 0v1.8m0 0v1.6m0 0v1.8m0 0v1.7m0 0v1.7m0 0v1.6m0 0v1.6m0 0v1.7m0 0v1.5m0 0v1.6m0 0v1.5m0 0v1.5m0 0v1.4m0 0v1.3m0 0v1.4m0 0v1.3m0 0v1.3m0 0v1.3m0 0v1.2m0 0v1.1m0 0v1.1m0 0v1.1m0 0v1m0 0v.9m0 0v.9m0 0v.8m0 0v.9m0 0v.7m0 0v.6m0 0v.7m0 0v.6m0 0v.5m0 0v.5m0 0v.4m0 0v.3m0 0v.3m0 0v.2m0 0v.2m0 0v.2m0-116.2v.2m0 0v.1m0 0v.3m0 0v.3m0 0v.3m0 0v.4m0 0v.5m0 0v.5m0 0v.6m0 0v.6m0 0v.7m0 0v.7m0 0v.8m0 0v.9m0 0v.9m0 0v.9m0 0v1m0 0v1.1m0 0v1.1m0 0v1.1m0 0v1.2m0 0v1.3m0 0v1.3m0 0v1.3m0 0v1.3m0 0v1.4m0 0v1.4m0 0v1.5m0 0v1.5m0 0v1.5m0 0v1.6m0 0v1.7m0 0v1.6m0 0v1.6m0 0v1.7m0 0v1.7m0 0v1.8m0 0v1.6m0 0v1.8m0 0v1.8m0 0v1.8m0 0v1.8m0 0v1.8m0 0v1.8m0 0v1.9m0 0v1.9m0 6.4v.3m0 0v.3m0-6.4v.6m0 0v.6m0 0v.7m0 0v.7m0 0v.6m0 0v.7m0 0v.7m0 0v.6m0 0v.6m0-6.4v.3m0 0v.3m3 27.4v1.2m0 0v1.2m0 0v1.2m0 0v1.2m0 0v1.2m0 0v1.2m0 0v1.1m0 0v1.2m0 0v1m0 0v1.1m0 0v1.1m0 0v1m0 0v1m0 0v.9m0 0v.9m0 0v.9m0 0v.8m0 0v.8m0 0v.8m0 0v.6m0 0v.7m0 0v.6m0 0v.5m0 0v.5m0 0v.4m0 0v.5m0 0v.3m0 0v.3m0 0v.1m0 0v.2m0 0v.1m0-40.3v15.7m0-17.7v.2m0 0v.3m0 0v.2m0 0v.2m0 0v.3m0 0v.2m0 0v.3m0 0v.3m0-15.6v.6m0 0v.6m0 0v.7m0 0v.7m0 0v.7m0 0v.8m0 0v.8m0 0v.7m0 0v.8m0 0v.8m0 0v.8m0 0v.7m0 0v.8m0 0v.8m0 0v.7m0 0v.7m0 0v.7m0 0v.6m0 0v.6m0-15.6v.3m0 0v.2m0 0v.3m0 0v.3m0 0v.2m0 0v.2m0 0v.3m0 0v.2m0-17.7v15.7m0-40.3v.1m0 0v.2m0 0v.1m0 0v.3m0 0v.3m0 0v.5m0 0v.4m0 0v.5m0 0v.5m0 0v.6m0 0v.7m0 0v.6m0 0v.8m0 0v.7m0 0v.9m0 0v.9m0 0v.9m0 0v.9m0 0v1m0 0v1m0 0v1.1m0 0v1.1m0 0v1m0 0v1.2m0 0v1.1m0 0v1.2m0 0v1.2m0 0v1.2m0 0v1.2m0 0v1.1m0 0v1.3m8.5 68.1v-.2m0 0v-.1m0 0v-.2m0 0v-.3m0 0v-.3m0 0v-.3m0 0v-.5m0 0v-.5m0 0v-.5m0 0v-.6m0 0v-.7m0 0v-.6m0 0v-.8m0 0v-.8m0 0v-.8m0 0v-.8m0 0v-.9m0 0v-.9m0 0v-1m0 0v-1m0 0v-1m0 0v-1m0 0v-1m0 0v-1.1m0 0v-1m0 0v-1.1m0 0v-1.1m0-49v-1.1m0 0V180m0 0v-1.1m0 0v-1m0 0v-1m0 0v-1m0 0v-1m0 0v-1m0 0v-1m0 0v-.9m0 0v-.9m0 0v-.8m0 0v-.8m0 0v-.8m0 0v-.8m0 0v-.7m0 0v-.6m0 0v-.6m0 0v-.5m0 0v-.5m0 0v-.5m0 0v-.3m0 0v-.3m0 0v-.3m0 0v-.2m0 0v-.2m0 0v-.1m0 68.1v-49m4.3 11.5h-.6m.4-7h-.4m-1.3 66.1h-2.1m3.4-73.5v54.8m-3.4-73.5h2.1m-2.1 92.2v-92.2m240.2 107.5v.2m0 0v.1m-16-.3h16m-16 .3v-.1m0 0v-.2m0-43.6v-.2m0 0v-.1m0 0v-.1m16 .4h-16m16-.4v.1m0 0v.1m0 0v.2m-18.8 49.3v-.1m0 0v-.2m0 0v-.1m0 0v-.3m0 0v-.3m0 0v-.5m0 0v-.4m0 0v-.5m0 0v-.6m0 0v-.6m0 0v-.6m0 0v-.7m0 0v-.8m0 0v-.8m0 0v-.9m0 0v-.9m0 0v-.9m0 0v-1m0 0v-1m0 0v-1.1m0 0v-1.1m0 0v-1.1m0 0v-1.2m0 0V257m0 0v-1.2m0 0v-1.3m0 0v-1.2m0 0v-1.2m0 0v-1.4m0 0v-1.2m0 0v-1.3m0 0v-1.3m0 0v-1.3m0 0v-1.2m0 0v-1.3m0 0v-1.4m0 0v-1.2m0 0v-1.3m0 0V238m0 0v-1.2m0 0v-1.2m0 0v-1.2m0 0v-1.1m0 0v-1.2m0 0v-1m0 0V230m0 0v-1m0 0v-1m0 0v-1m0 0v-.9m0 0v-.8m0 0v-.8m0 0v-.8m0 0v-.7m0 0v-.7m0 0v-.6m0 0v-.5m0 0v-.6m0 0v-.4m0 0v-.4m0 0v-.3m0 0v-.3m0 0v-.2m0 0v-.2m0 0v-.1m27.3 49.7v-.1m0 0v-.1m0 0v-.2m0 0v-.3m0 0v-.3m0 0v-.5m0 0v-.4m0 0v-.5m0 0v-.5m0 0v-.6m0 0v-.7m0 0v-.7m0 0v-.8m0 0v-.7m0 0v-.9m0 0v-.9m0 0v-.9m0 0v-.9m0 0v-1.1m0 0v-1m0 0v-1m0 0v-1.1m0 0v-1.1m0 0V252m0 0v-1.1m0 0v-1.1m0 0v-1.2m0 0v-1.2m0 0v-1.2m0 0v-1.1m0 0V244m0 0v-1.2m0 0v-1.1m0 0v-1.2m0 0v-1.1m0 0v-1.1m0 0v-1.1m0 0v-1m0 0v-1m0 0v-1m0 0v-1m0 0v-.9m0 0v-.9m0 0v-.8m0 0v-.8m0 0v-.7m0 0v-.7m0 0v-.7m0 0v-.6m0 0v-.5m0 0v-.6m0 0v-.5m0 0v-.3m0 0v-.3m0 0v-.3m0 0v-.2m0 0v-.2m0 0v-.1m-28.5-5.4h1.2m-1.2 55.1h1.2m0-49.7h2.8m16 0h8.5m-27.3 44.3h2.8m16 0h8.5"/><path class="st1" d="M162.6 131.5H87.4l75.2 150.4"/><path class="st2" d="M162.6 131.5H87.4l75.2 150.4V131.5z"/><path class="st1" d="M162.6 281.9L87.4 131.5v150.4"/><path class="st2" d="M162.6 281.9L87.4 131.5v150.4h75.2z"/><path class="st1" d="M208.1 145.3h-45.5l45.5 122.8"/><path class="st2" d="M208.1 145.3h-45.5l45.5 122.8V145.3z"/><path class="st1" d="M208.1 268.1l-45.5-122.8v122.8"/><path class="st2" d="M208.1 268.1l-45.5-122.8v122.8h45.5z"/><path class="st0" d="M221.2 145.3l2.4-2.3m-6.9 2.3l6.4-6.3m-10.9 6.3l10.4-10.2m-14.7 10.2l14.1-14.1m-18.6 14.1l18-18m-22.5 18l21.8-21.9m-26.3 21.9l25.6-25.7m-30.1 25.7l29.5-29.6m-34 29.6l33.3-33.3m-37.8 33.3l37-37.1m-41.5 37.1l9.9-10m3.8-3.8l25-25m-43.2 38.8l9.9-10m8.3-8.3l20.5-20.5m-43.2 38.8l9.9-10m12.8-12.8l16-16m-41.9 37.4l8.6-8.6m17.3-17.3l11.5-11.5m-39 34.6l5.7-5.8m21.8-21.8l7-7m-34.5 30.1l1.2-1.3m26.3-26.3l2.5-2.5m24.6 200.4l.5-.5m-5 .5l6.1-6.1m-10.6 6.1l11.6-11.6m-16.1 11.6l17.1-17.1m-21.6 17.1l22.4-22.4m-26.9 22.4l27.7-27.7"/><path d="M190.6 306.4l32.6-32.4" fill="none" stroke="#000" stroke-width=".287" stroke-linecap="round" stroke-linejoin="round" stroke-miterlimit="10"/><path class="st0" d="M190.1 302.5l33.8-33.8M190.1 298l29.9-29.9m-29.9 25.4l25.4-25.4M190.1 289l20.9-20.9m-20.9 16.4l16.3-16.4M190.1 280l11.8-11.9m-14.4 9.9l9.9-9.9M183 278l9.9-9.9m-14.4 9.9l9.9-9.9M174 278l9.9-9.9m-14.4 9.9l9.9-9.9M165 278l9.9-9.9m-12.3 8l7.8-8m-7.8 3.5l3.3-3.5m54.4-106.8l-5.6-5.6m8.8 6.5l-8.8-8.7m8.7 6.5l-8.7-8.8m-1.9-1.9l-1.1-1m13.8 11.5l-13.4-13.4m13.2 10.9L213.9 146m11.1 8.8l-8.8-8.8m8.6 6.3l-6.3-6.3m6 3.8l-3.7-3.7m3.3 1.1l-1.1-1.1m-9.1 121.3l-2.2-2.2m4.4 2.2l-3.3-3.3m5.5 3.3l-3.9-3.9m6.1 3.8l-5.8-5.8m8 5.8l-8-8.1m9.4 7.2l-9.4-9.4m9.7 7.4l-9.2-9.1m9.4 7.1l-7.9-7.9m8.1 5.9l-6.7-6.7m6.9 4.6l-5.6-5.6m5.9 3.6l-4.4-4.4m4.5 2.3l-.7-.8m-1.2-1.2l-1.4-1.3m-59.5 31V131.5M87.4 281.9h75.2M87.4 131.5v150.4m75.2-150.4H87.4m75.2 136.6V145.3m45.5 122.8h-45.5m45.5-122.8v122.8m-45.5-122.8h45.5m17.3 107.5l.2-.2m-1.5.2l1.6-1.7m-2.2 1l2.4-2.4m-2.4 1l2.5-2.5m-2.5 1.2l2.6-2.7m-2.6 1.3l2.7-2.8m-2.7 1.5l2.8-2.9m-2.8 1.5l2.9-3m-2.9 1.7l3-3.2m-3 1.8l3.1-3.2m-3.1 1.9l3.2-3.3m-3.2 1.9l3.3-3.4m-3.3 2.1l3.4-3.5m-3.4 2.1l3.4-3.5m-3.4 2.2l3.4-3.6m-3.4 2.2l3.4-3.5m-3.4 2.2l3.4-3.6m-3.4 2.2l3.4-3.5m-3.4 2.2l3.4-3.6m-3.4 2.2l3.4-3.5m-3.4 2.2l3.4-3.6m-3.4 2.2l3.4-3.5m-3.4 2.2l3.4-3.6m-3.4 2.2l3.4-3.5m-3.4 2.2l3.4-3.6m-3.4 2.2l3.4-3.5m-3.4 2.2l3.4-3.6m-3.4 2.2l3.4-3.5m-3.4 2.2l3.4-3.6m-3.4 2.2l3.4-3.5m-3.4 2.2l3.4-3.6m-3.4 2.2l3.4-3.5m-3.4 2.2l3.4-3.6m-3.4 2.2l3.4-3.5m-3.4 2.2l3.4-3.6m-3.4 2.2l3.4-3.5m-3.4 2.2l3.4-3.6m-3.4 2.2l3.4-3.5m-3.4 2.2l3.4-3.6m-3.4 2.2l3.4-3.5m-3.4 2.2l3.4-3.6m-3.4 2.2l3.4-3.5m-3.4 2.2l3.4-3.6m-3.4 2.2l3.4-3.5m-3.4 2.2l3.4-3.6m-3.4 2.2l3.4-3.5m-3.4 2.2l3.4-3.6m-3.4 2.2l3.4-3.5m-3.4 2.2l3.4-3.6m-3.4 2.2l3.4-3.5m-3.4 2.2l3.4-3.6m-3.4 2.2l3.4-3.5m-3.4 2.2l3.4-3.6m-3.4 2.2l3.4-3.5m-3.4 2.2l3.4-3.5m-3.4 2.1l3.3-3.4m-3.3 2.1l3.3-3.3m-3.3 1.9l3.1-3.2m-3.1 1.9l3.1-3.2m-3.1 1.8l3-3m-3 1.7l2.9-3m-2.9 1.6l2.8-2.8m-2.8 1.5l2.7-2.8m-2.7 1.4l2.6-2.7m-2.6 1.4l2.5-2.6m-2.5 1.2l2.4-2.5m-2.4 1.2l2.3-2.4m-2.3 1l2.2-2.2m-2.2.9l2.1-2.2m-2.1.8l1-1m-61.9 46.1h3.8m1.5 0h1.5m1.5 0h3.8m1.5 0h1.5m1.5 0h3.9m1.5 0h1.5m1.5 0h3.8m1.5 0h1.5m1.6 0h3.8m1.5 0h1.5m1.5 0h3.8m-123 0h4.6m1.5 0h1.5m1.5 0h4.6m1.5 0h1.5m1.5 0h4.7m1.4 0h1.5m1.6 0h4.5m1.5 0h1.5m1.5 0h4.6m1.5 0h1.5m1.5 0h4.7m1.5 0h1.5m1.5 0h4.6m1.4 0h1.6m1.5 0h4.6m1.4 0h1.5m1.6 0h4.6m45.5 0h6.3m1.6 0h1.5m1.4 0h6.3m1.6 0h1.5m1.5 0h6.3"/><text transform="translate(374.777 52.243)" class="st4 st5 st6">Not to scale</text><text transform="translate(374.777 66.643)" class="st4 st5 st6">Dimensions in mm</text><path class="st7" d="M229.4 235.5l4.2-2.9-6.4-6-1.1.7 3.3 8.2z"/><path class="st8" d="M229.4 235.5l4.2-2.9-6.4-6-1.1.7 3.3 8.2z"/><path class="st9" d="M229.7 234.5l2.8-1.8-5.5-5.6 2.7 7.4z"/><path class="st7" d="M226.3 267.2l4.2-2.8-6.4-6.1-1.1.8 3.3 8.1z"/><path class="st8" d="M226.3 267.2l4.2-2.8-6.4-6.1-1.1.8 3.3 8.1z"/><path class="st9" d="M226.6 266.2l2.8-1.7-5.5-5.7 2.7 7.4z"/><path class="st7" d="M108.3 286.3l4.2-2.8-6.4-6.1-1.1.8 3.3 8.1z"/><path class="st8" d="M108.3 286.3l4.2-2.8-6.4-6.1-1.1.8 3.3 8.1z"/><path class="st9" d="M108.6 285.3l2.8-1.7-5.5-5.7 2.7 7.4z"/><path class="st10" d="M222.8 338.3h-78.1"/><path d="M160.2 268.1H47.6m112.8-122.8H46.2m165.6 4.1H73.6M211.5 264H73.6m137.1-120.8V73.6M162.6 130V53.1m52.1 95.2V52.4" fill="none" stroke="#000" stroke-width=".227" stroke-linecap="round" stroke-linejoin="round" stroke-miterlimit="10"/><path class="st10" d="M229.9 231.8L298.7 338"/><path class="st12" d="M226.8 263.5l65.6 101.4m-183.7-82.3l36 55.6"/><text transform="translate(299.943 334.624)" class="st4 st5 st6">IR cut filter (color cameras only)</text><text transform="translate(147.661 334.658)" class="st4 st5 st6">C-mount lens</text><text transform="translate(294.52 361.162)" class="st4 st5 st6">Filter holder (color and mono cameras)</text><path class="st10" d="M298.5 338.3h183"/><text transform="translate(225.445 94.847)" class="st5 st6">Unthreaded</text><path class="st9" d="M202.8 95.8v3.3l7.7-1.6-7.7-1.7z"/><path class="st12" d="M180.2 97.5h22.3"/><text transform="translate(165.737 73.364)" class="st5 st6">9.6 max.</text><path class="st9" d="M170 78.3V75l-7.4 1.7 7.4 1.6zm32.9-3.3v3.3l7.5-1.6-7.5-1.7z"/><path class="st12" d="M105.1 76.7h102.5"/><text transform="rotate(-90 147.658 101.331)" class="st4 st5 st6">C-mount thread</text><path class="st9" d="M52.2 260.4h-3.3l1.7 7.7 1.6-7.7zM48.9 153h3.3l-1.6-7.7-1.7 7.7z"/><path class="st12" d="M50.6 261.6V152.2"/><path class="st9" d="M78.4 256.3h-3.3l1.7 7.7 1.6-7.7zm-3.3-99.1h3.3l-1.6-7.7-1.7 7.7z"/><path class="st12" d="M76.8 256.8V156.5"/><text transform="rotate(-90 156.169 83.218)" class="st4 st5 st6">max. Ø 22.8</text><path class="st10" d="M292.5 365.3h216.4"/><path class="st9" d="M170.3 57.9v-3.3l-7.7 1.7 7.7 1.6zm36.7-3.3v3.3l7.7-1.6-7.7-1.7z"/><text transform="translate(162.512 51.94)" class="st5 st6">10.2 max.</text><path class="st12" d="M165.5 56.3h45.8"/><text transform="translate(106.728 73.4)" class="st5 st6">Threaded</text><path class="st9" d="M222.3 99.1v-3.3l-7.7 1.7 7.7 1.6z"/><path class="st12" d="M197.3 97.5h93.4"/></svg>