<svg version="1.1" id="Layer_1" xmlns="http://www.w3.org/2000/svg" x="0" y="0" viewBox="0 0 1000 909.1" xml:space="preserve"><style>.st0{fill:none;stroke:#000;stroke-width:.227;stroke-linecap:round;stroke-linejoin:round;stroke-miterlimit:10}.st1,.st2{fill:none;stroke:#1d1d1b;stroke-width:.283;stroke-miterlimit:3.864}.st2{stroke-width:.227}.st3{fill:#1d1d1b}.st3,.st4{fill-rule:evenodd;clip-rule:evenodd}.st5{fill:none;stroke:#000;stroke-width:.288;stroke-linecap:round;stroke-linejoin:round;stroke-miterlimit:10}.st6{font-family:Helvetica,Arial,sans-serif}.st7{font-size:20.965px}</style><path class="st0" d="M194.5 395.7v161m0-161l3.7-3.7m-3.7 164.8l3.7 3.7V392l38.3-.9m-38.3 169.4l38.2 1"/><path class="st1" d="M901.4 479.5l-.2-3.6-.2-3.4-.4-3.6-.7-3.6-.8-3.6-1.1-3.4-1.1-3.4-1.4-3.3-1.4-3.3-1.7-3.1-1.8-3.1-1.9-3-2.2-3-2.2-2.7-2.4-2.6-2.6-2.6-2.6-2.5-2.8-2.2-2.9-2.1-3-2-3.1-1.8-3.3-1.7-3.1-1.4-3.4-1.4-3.4-1.2-3.5-.9-3.3-.9-3.6-.6-3.6-.5-3.6-.2-3.5-.2-3.7.2-3.6.2-3.6.5-3.5.6-3.4.9-3.5.9-3.5 1.2-3.2 1.4-3.2 1.4-3.4 1.7-3 1.8-3.1 2-2.8 2.1-2.9 2.2-2.6 2.5-2.6 2.6-2.3 2.6-2.2 2.7-2.3 3-1.8 3-1.9 3.1-1.6 3.1-1.5 3.3-1.4 3.3-1.1 3.4-1.1 3.4-.7 3.6-.7 3.6-.3 3.6-.4 3.4-.1 3.6.1 3.6.4 3.6.3 3.6.7 3.5.7 3.5 1.1 3.5 1.1 3.3 1.4 3.4 1.5 3.3 1.6 3.1 1.9 3.2 1.8 3 2.3 2.9 2.2 2.6 2.3 2.8 2.6 2.4 2.6 2.4 2.9 2.5 2.8 2 3.1 1.9 3 2 3.4 1.6 3.2 1.5 3.2 1.4 3.5 1.1 3.5.9 3.4 1 3.5.5 3.6.5 3.6.2h7.2l3.6-.2 3.6-.5 3.6-.5 3.3-1 3.5-.9 3.4-1.1 3.4-1.4 3.1-1.5 3.3-1.6 3.1-2 3-1.9 2.9-2 2.8-2.5 2.6-2.4 2.6-2.4 2.4-2.8 2.2-2.6 2.2-2.9 1.9-3 1.8-3.2 1.7-3.1m0 0l1.4-3.3 1.4-3.4 1.1-3.3 1.1-3.5.8-3.5.7-3.5.4-3.6.2-3.6.2-3.6"/><path class="st1" d="M901 479.5l-.1-3.6-.3-3.4-.5-3.6-.6-3.6-.7-3.5-1-3.3-1.3-3.5-1.2-3.2-1.5-3.4-1.7-3.1-1.8-3.1-1.9-3-2-2.8-2.5-2.9-2.4-2.6-2.4-2.6-2.8-2.3-2.6-2.2-2.9-2.2-3-1.8-3-2-3.3-1.6-3.1-1.5-3.5-1.4-3.2-.9-3.6-1.2-3.4-.7-3.6-.8-3.4-.3-3.6-.4H827l-3.6.4-3.6.3-3.6.8-3.3.7-3.5 1.2-3.3.9-3.4 1.4-3.2 1.5-3.1 1.6-3.2 2-3 1.8-3 2.2-2.6 2.2-2.7 2.3-2.5 2.6-2.3 2.6-2.3 2.9-2.2 2.8-2 3-1.7 3.1-1.8 3.1-1.4 3.4-1.3 3.2-1.2 3.5-.9 3.3-.9 3.5-.6 3.6-.5 3.6-.2 3.4-.1 3.6.1 3.6.2 3.6.5 3.6.6 3.4.9 3.6.9 3.4 1.2 3.4 1.3 3.3 1.4 3.2 1.8 3.1 1.7 3.1 2 3 2.2 2.9 2.3 2.8 2.3 2.7 2.5 2.5 2.7 2.4 2.6 2.2 3 2.1 3 2 3.2 1.7 3.1 1.8 3.2 1.5 3.4 1.3 3.3 1.1 3.5 1 3.3.8 3.6.7 3.6.5 3.6.1 3.6.2 3.5-.2 3.6-.1 3.4-.5 3.6-.7 3.4-.8 3.6-1 3.2-1.1 3.5-1.3 3.1-1.5 3.3-1.8 3-1.7 3-2 2.9-2.1 2.6-2.2 2.8-2.4 2.4-2.5 2.4-2.7 2.5-2.8 2-2.9 1.9-3 1.8-3.1 1.7-3.1 1.5-3.2 1.2-3.3 1.3-3.4 1-3.4.7-3.6.6-3.4.5-3.6.3-3.6.1-3.6"/><path class="st1" d="M756.6 479.5l.1-3.7.3-3.6.4-3.5.7-3.7.7-3.6 1.2-3.4 1.1-3.6 1.2-3.4 1.5-3.3 1.7-3.2 1.9-3.1 1.8-3.1 2.2-3 2.2-2.9 2.5-2.8 2.6-2.5 2.6-2.6 2.7-2.4 3-2.2 2.9-2.1 3.1-1.9 3.1-1.8 3.4-1.6 3.3-1.5 3.5-1.3 3.5-1.1 3.4-.8 3.6-.8 3.6-.6 3.8-.5 3.6-.1 3.7-.1 3.6.1 3.7.2 3.5.7 3.5.6 3.6.8 3.6 1.2 3.4 1.1 3.4 1.3 3.3 1.5 3.3 1.8 3.1 1.8 3 2.1 3 2 2.8 2.5 2.9 2.3 2.4 2.5 2.5 2.7 2.3 2.9 2.2 3 2.1 2.9 2 3.1 1.6 3.3 1.6 3.3 1.4 3.4 1.3 3.4 1 3.4.9 3.6.7 3.6.5 3.7.5 3.6.1 3.7v3.6l-.1 3.7-.5 3.5-.5 3.6m0 0l-.7 3.7-.9 3.5-1 3.6-1.3 3.3-1.4 3.5-1.6 3.2-1.6 3.1-2 3.2-2.1 3.1-2.2 2.9-2.3 2.7-2.5 2.7-2.4 2.7-2.9 2.4-2.8 2.4-3 2.1-3 2.1-3.1 1.7-3.3 1.6-3.3 1.6-3.4 1.4-3.4 1.2-3.6 1-3.6.9-3.5.6-3.5.5-3.7.4h-7.3l-3.6-.2-3.8-.3-3.6-.6-3.6-.8-3.4-.9-3.5-1.2-3.5-1.4-3.3-1.3-3.4-1.6-3.1-1.8-3.1-1.9-2.9-2.2-3-2.2-2.7-2.3-2.6-2.5-2.6-2.6-2.5-2.8-2.2-2.8-2.2-3-1.8-3.1-1.9-3.2-1.7-3.2-1.5-3.5-1.2-3.3-1.1-3.5-1.2-3.4-.7-3.5-.7-3.8-.4-3.6-.3-3.7-.1-3.6"/><path class="st1" d="M906.9 479.5v-3.7l-.2-3.7-.5-3.7-.5-3.7-1-3.6-.9-3.5-1.1-3.6-1.3-3.6-1.5-3.5-1.6-3.2-2-3.2-2-3.2-2-3.1-2.5-3-2.3-2.9-2.5-2.6-2.7-2.6-2.9-2.4-2.9-2.3-3-2.2-3.1-2-3.2-1.8-3.4-1.7-3.3-1.7-3.5-1.2-3.6-1.3-3.5-1-3.7-1-3.6-.5-3.7-.6-3.7-.3-3.7-.2h-3.7l-3.8.4-3.7.4-3.7.6-3.6.7-3.7.9-3.6 1.2-3.4 1.2-3.4 1.4-3.5 1.8-3.2 1.7-3.1 2-3.1 2-3 2.2-2.8 2.5-2.9 2.5-2.5 2.7-2.6 2.7-2.3 2.9-2.3 3.1-2.1 3-1.7 3.3-1.9 3.2-1.6 3.5-1.3 3.3-1.3 3.6-1.1 3.6-.9 3.6-.7 3.7-.5 3.6-.4 3.8-.1 3.7v3.7l.1 3.8.4 3.6.5 3.7.7 3.8.9 3.4 1.1 3.6 1.3 3.6 1.3 3.5 1.6 3.3 1.9 3.4 1.7 3.1 2.1 3.1 2.3 3.1 2.3 2.8 2.6 2.9 2.5 2.6 2.9 2.5 2.8 2.4 3 2.3 3.1 2.1 3.1 1.8 3.2 1.9 3.5 1.6 3.4 1.4 3.4 1.3 3.6 1.1 3.7.9 3.6.8 3.7.6 3.7.5 3.8.1 3.7.1 3.7-.1 3.7-.2 3.7-.7 3.6-.6 3.7-.9 3.5-1.1 3.6-1.1 3.5-1.3 3.3-1.7 3.4-1.6 3.2-2 3.1-1.9 3-2.3 2.9-2.2 2.9-2.5 2.7-2.5 2.5-2.8 2.3-2.9 2.5-2.8 2-3.1 2-3.1 2-3.4 1.6-3.3 1.5-3.5 1.3-3.3 1.1-3.6.9-3.6 1-3.6.5-3.7.5-3.7.2-3.8v-3.7m-140.3-8.9h-.2"/><path class="st1" d="M766.3 471.5v-.8h.1v-.1m128.3 0v.9m0-.9h-.4m-127.9 17.7l-.1-.8m.1.8h.2m128.1-.8v.8m-.4 0h.4m-.1-.8l.3-3.1.1-3.3v-3.2l-.1-3.1-.2-3.1m-128.3 0l-.3 3.1-.2 3.1v3.2l.2 3.3.3 3.1"/><path class="st1" d="M894.6 487.5l.3-3.1.1-3.3v-3.2l-.1-3.1-.2-3.1m-128.3 0l-.3 3.1-.1 3.1v3.2l.1 3.3.3 3.1m128.3-16v.2m-128.4-.2v.2h.1m128.3 16.6l-.6 3.5-.8 3.3-.9 3.4-1.2 3.2-1.1 3.1-1.5 3.1-1.5 3.2-1.8 3-1.9 2.7-2.1 2.9-2.2 2.6-2.3 2.5-2.6 2.3-2.5 2.3-2.8 2.2-2.6 2-3 1.7-3 1.6-3.2 1.5-3.1 1.4-3.2 1.2-3.3 1-3.4.7-3.3.8-3.4.5-3.5.1-3.3.1-3.5-.1-3.6-.1-3.2-.5-3.5-.8-3.3-.7-3.4-1-3.1-1.2-3.2-1.4-3.2-1.5-3-1.6-2.7-1.7-2.8-2-2.8-2.2-2.6-2.3-2.5-2.3-2.3-2.5-2.2-2.6-2.1-2.9-1.9-2.7-1.6-3-1.8-3.2-1.4-3.1-1.2-3.1-1.2-3.2-.9-3.4-.7-3.3-.5-3.5m0-17.7l.5-3.2.7-3.5.9-3.2 1.2-3.4 1.2-3.2 1.4-3.1 1.8-3 1.6-2.9 1.9-2.9 2.1-2.8 2.2-2.5 2.3-2.6 2.5-2.4 2.6-2.3 2.8-2.1 2.8-1.9 2.7-1.8 3-1.7 3.2-1.6 3.2-1.2 3.1-1.1 3.4-1.1 3.3-.8 3.5-.7 3.2-.4 3.6-.4h6.8l3.5.4 3.4.4 3.3.7 3.4.8 3.3 1.1 3.2 1.1 3.1 1.2 3.2 1.6m0 0l3 1.7 3 1.8 2.6 1.9 2.8 2.1 2.5 2.3 2.6 2.4 2.3 2.6 2.2 2.5 2.1 2.8 1.9 2.9 1.8 2.9 1.5 3 1.5 3.1 1.1 3.2 1.2 3.4.9 3.2.8 3.5.6 3.2m16.7 96.3h.4m-162.6 0h.3m-.3 0l-1-.2-1.1-.3-.9-.5-.9-.5-.7-.7-.6-.8-.4-1.1-.4-1v-1.1m168.6 6.2l1-.2 1.1-.3.9-.5.8-.5.8-.7.6-.8.4-1.1.3-1v-1.1m-174.1 0h-.4m6.3 6.2h161.9m-63.6-172.5h63.6m0-1.9v1.9m0-1.9H749.5m0 1.9v-1.9m0 1.9h63.7m102.4 4.1v63.8m-4.2-67.9h.6l.4.1h.1l.3.1h.3l.3.2.1.1.4.2.1.1.3.2.1.1.2.4.3.1.1.2.1.2.3.3v.3l.1.1v.4l.1.2v.8m0 98.3v63.9m2 0h-2m2 0V398.5h-2M911.4 565h-65.1m69.3-4.3v1l-.2.7-.4.8-.6.5-.5.6-.8.5-.7.1-1 .1m-96.7 0h-65.2v1.9m161.9 0V565"/><path class="st1" d="M911.4 566.9l1.1-.2 1-.3.9-.5 1-.5.7-.7.5-.8.5-1.1.3-1 .2-1.1m-172.3 0h-1.7v1.1l.2 1 .5 1.1.5.8.8.7 1 .5.8.5 1 .3 1.1.2"/><path class="st1" d="M749.5 565l-.7-.1-1-.1-.7-.5-.5-.6-.5-.5-.5-.8-.3-.7v-1m0-98.4v-63.8h-1.7v162.2m1.7 0v-63.9m172.3-98.3l-.2-.3v-.7l-.2-.5-.1-.4-.1-.4-.1-.2-.3-.5-.1-.3-.3-.3-.1-.3-.4-.2-.2-.4-.4-.2-.2-.2-.5-.3-.3-.2-.2-.1-.5-.1-.3-.3h-.4l-.5-.1h-.8m-161.9 0h-.7l-.5.1h-.2l-.5.3-.3.1-.5.1-.2.2-.4.3-.4.2-.3.2-.3.4-.1.2-.4.3-.2.3-.2.3-.2.5-.1.2-.2.4-.1.4-.1.5v1m1.7 0v-.8l.2-.2v-.4l.1-.1.2-.3.1-.3.2-.2.1-.2.1-.1.3-.4.1-.1.2-.2.2-.1.3-.2.3-.1.1-.2h.4l.2-.1h.4l.1-.1h.6m166.1 102.4l-.5-.2h-.2l-.3-.1-1 3.9-.9 3.7-1.3 3.7-1.5 3.7-1.5 3.6-1.7 3.6-1.7 3.3-2.1 3.5-2.1 3.2-2.4 3.3-2.6 2.9-2.5 3-2.7 2.7-3 2.8-3 2.4"/><path class="st1" d="M884.6 545.8l-2.9 2.5-3.3 2.4-3.2 2.1-3.5 1.8-3.4 1.9-3.5 1.6-3.6 1.5-3.7 1.4-3.7 1.1-3.9.8-3.9 1 .2.3v.5l.1.3 3.9-.8 3.8-.9 3.7-1.2 3.8-1.4 3.7-1.5 3.6-1.7 3.6-1.7 3.3-2 3.5-2.3 3.1-2.2 3.3-2.5 3-2.6 2.7-2.6 2.9-2.8 2.7-3 2.4-3.1 2.3-3.3 2.2-3.3 2.2-3.4 1.9-3.4 1.7-3.6 1.6-3.7 1.3-3.7 1.1-3.7 1.3-3.9.7-3.9m0-34.5l-.5.1h-.5v.1l.2 1.4.2 1.4.4 1.5.1 1.3.1 1.5.1 1.4.2 1.5.2 1.5v1.2l.1 1.5v5.7l-.1 1.5v1.3l-.2 1.5-.2 1.4-.1 1.5-.1 1.2-.1 1.5-.4 1.4-.2 1.4-.2 1.4"/><path class="st1" d="M915.6 496.8l.3-1.5.2-1.3v-1.5l.1-1.3.2-1.5.1-1.5v-1.4l.1-1.4v-11.7l-.1-1.5V471l-.1-1.5-.2-1.5-.1-1.4v-1.5l-.2-1.3-.3-1.5M846 563.9l-1.1.2-1.4.2-1.4.1-1.1.3-1.4.1-1.3.1-1.4.1h-1.1l-1.4.2h-7.9l-1.1-.2H824l-1.3-.1-1.4-.1-1.1-.1-1.4-.3-1.3-.1-1.3-.2-1.2-.2v.3l-.3.5v.3l1.3.2h1.3l1.4.2 1.2.1 1.3.2h1.3l1.4.1h4l1.3.1h2.5l1.4-.1h3.9l1.4-.1h1.4l1.3-.2 1.2-.1 1.3-.2h1.4l1.3-.2m1.5-170.6l-.1.4-.2.4v.3l3.7.9 3.7 1.1 3.7 1.1 3.6 1.4 3.6 1.4 3.6 1.7 3.3 1.8 3.4 2.1 3.2 2 3.1 2.2 3 2.5 2.8 2.5 2.9 2.7 2.7 2.7 2.5 3 2.3 3 2.4 3.2 2.1 3.2 2 3.3 1.7 3.4 1.9 3.5 1.5 3.5 1.2 3.7 1.3 3.6.9 3.7 1 3.8"/><path class="st1" d="M915.6 462.3l-.7-3.8-1-3.8-1.2-3.7-1.5-3.7-1.5-3.6-1.6-3.6-2-3.3-1.9-3.5-2.2-3.2-2.2-3.2-2.6-3-2.5-3-2.8-2.7-2.8-2.9-3-2.6-3.1-2.3-3.1-2.4-3.2-2.1-3.3-2.1-3.6-1.7-3.4-1.8-3.7-1.5-3.6-1.3-3.7-1.3-3.9-1m0 0l-3.7-.8M746.6 496.5h-.3l-.2.1h-.3l-.5.2.9 3.9 1.1 3.9 1.1 3.7 1.4 3.7 1.6 3.7 1.9 3.6 1.7 3.4 2.1 3.4 2.2 3.3 2.4 3.3 2.5 3.1 2.6 3 2.8 2.8 2.7 2.6 3.3 2.6 3.1 2.5 3.2 2.2 3.3 2.3 3.4 2 3.6 1.7 3.6 1.7 3.7 1.5 3.7 1.4 3.7 1.2 3.9.9 3.9.8"/><path class="st1" d="M815 563.9l-4-1-3.7-.8-3.8-1.1-3.6-1.4-3.8-1.5-3.4-1.6-3.5-1.9-3.5-1.8-3.2-2.1-3.1-2.4-3.1-2.5-3-2.4-2.8-2.8-2.9-2.7-2.4-3-2.6-2.9-2.3-3.3-2.2-3.2-2.1-3.5-1.7-3.3-1.8-3.6-1.5-3.6-1.3-3.7-1.4-3.7-1-3.7-.7-3.9m66.6-102.1v.4l.3.4v.3l1.5-.3 1.2-.1 1.5-.3 1.4-.2 1.5-.2 1.3-.3 1.5-.1h1.4l1.5-.1h2.8l1.5-.1 1.2.1h2.9l1.5.1h1.3l1.5.1 1.5.3 1.4.2 1.5.2 1.3.3 1.5.1 1.3.3"/><path class="st1" d="M847.8 394.4l-1.5-.3-1.4-.1-1.4-.1-1.5-.1-1.4-.2h-1.4l-1.5-.2h-2.9l-1.5-.1h-5.7l-1.5.1h-2.8l-1.5.2h-1.4l-1.5.2-1.4.1-1.4.1-1.5.1-1.4.3m-66.6 102.1l-.4-1.4-.3-1.4-.1-1.4-.3-1.5-.2-1.2-.1-1.5-.1-1.4-.3-1.5v-1.3l-.1-1.5v-5.7l.1-1.5V474l.3-1.5.1-1.5.1-1.4.2-1.5.3-1.3.1-1.5.3-1.4.4-1.4-.3-.1h-.5l-.5-.1-.1 1.5-.1 1.3-.3 1.5-.1 1.4-.1 1.5-.1 1.5v2.7l-.2 1.5v8.7l.2 1.5v2.8l.1 1.5.1 1.5.1 1.3.3 1.5.1 1.3.1 1.5m67.9-102.4l-3.8.8-3.7 1-3.9 1.3-3.6 1.3-3.5 1.5-3.5 1.8-3.5 1.7-3.5 2.1-3.2 2.1-3.1 2.4-3.1 2.3-2.9 2.6-2.9 2.9-2.7 2.7-2.5 3-2.6 3-2.2 3.2-2.3 3.2-1.8 3.5-1.9 3.3-1.7 3.6-1.5 3.6-1.4 3.7-1.1 3.7-1.1 3.8-.9 3.8"/><path class="st1" d="M746.6 462.5l.7-3.8 1-3.7 1.2-3.6 1.3-3.7 1.5-3.5 1.8-3.5 1.8-3.4 1.9-3.3 2.3-3.2 2.2-3.2 2.4-3 2.4-3 2.8-2.7m0 0l2.8-2.7 2.9-2.5 3.1-2.5 3.1-2.2 3.1-2 3.4-2.1 3.4-1.8 3.4-1.7 3.6-1.4 3.6-1.4 3.8-1.1 3.7-1.1 3.7-.9"/><path class="st1" d="M914.4 479.5l-.1-3.8-.3-3.9-.5-4-.6-3.8-.9-3.8-.8-3.9-1.3-3.7-1.2-3.6-1.5-3.6-1.7-3.4-1.9-3.5-2-3.5-2.1-3.2-2.3-3.1-2.4-3.1-2.7-2.8-2.6-2.9-2.9-2.7-3-2.5-3.1-2.5-3.1-2.2-3.3-2.1-3.3-2-3.5-1.7-3.6-1.6-3.6-1.5-3.7-1.4-3.7-1.1-3.9-.9-3.7-.8-3.8-.7-4-.2-4-.4h-3.8l-3.9.3-3.8.2-3.8.5-4 .8-3.9.8-3.7 1-3.7 1.3-3.7 1.3-3.6 1.5-3.3 1.7-3.5 1.8-3.4 2.1-3.3 2.2-3.1 2.2-3 2.6-3 2.6-2.7 2.8-2.6 2.8-2.6 3.1-2.3 3-2.3 3.2-2.1 3.4-1.7 3.3-1.8 3.6-1.7 3.6-1.2 3.6-1.4 3.7-1.1 3.7-.9 3.9-.7 3.7-.6 3.8-.3 4-.1 4v3.8l.1 3.9.3 3.8.6 3.8.7 4 .9 3.8 1.1 3.8 1.4 3.7 1.2 3.6 1.7 3.4 1.8 3.6 1.7 3.5 2.1 3.2 2.3 3.1 2.3 3.3 2.6 2.9 2.6 3 2.7 2.6 3 2.7 3 2.4 3.1 2.3 3.3 2.3 3.4 2 3.5 1.8 3.3 1.9 3.6 1.5 3.7 1.3 3.7 1.1 3.7 1.2 3.9.8 4 .8 3.8.3 3.8.4 3.9.1h3.8l4-.2 4-.5 3.8-.6 3.7-.8 3.9-.8 3.7-1.3 3.7-1.1 3.6-1.5 3.6-1.6 3.5-1.9 3.3-1.8 3.3-2.1 3.1-2.4 3.1-2.4 3-2.5 2.9-2.8 2.6-2.7 2.7-2.8 2.4-3.1 2.3-3.3 2.1-3.2 2-3.4 1.9-3.4 1.7-3.6 1.5-3.6 1.2-3.7 1.3-3.7.8-3.7.9-3.9.6-3.8.5-3.9.3-3.9.1-3.9"/><path class="st1" d="M747.8 479.5v-3.8l.4-3.9.4-3.8.7-4 .7-3.7 1.2-3.7.9-3.7 1.4-3.7 1.6-3.5 1.6-3.5 1.9-3.4 2.1-3.4 2-3.1 2.2-3.2 2.6-3.1 2.5-2.9 2.7-2.7 2.9-2.6 2.9-2.5 3.1-2.3 3.1-2.3 3.3-2.1 3.4-1.9 3.5-1.8 3.5-1.5 3.6-1.5 3.7-1.2 3.7-1 3.7-1.1 3.9-.5 3.9-.6 3.9-.4 3.8-.2h3.9l3.8.2 4 .4 3.7.6 3.8.5 3.7 1.1 3.8 1 3.7 1.2 3.6 1.5 3.4 1.5 3.5 1.8 3.5 1.9 3.2 2.1 3.1 2.3 3.1 2.3 3 2.5 2.8 2.6 2.8 2.7 2.4 2.9 2.6 3.1 2.3 3.2 2.2 3.1 1.9 3.4 1.8 3.4 1.8 3.5 1.4 3.5 1.4 3.7 1.1 3.7 1 3.7.9 3.7.6 4 .4 3.8"/><path class="st1" d="M912.8 471.8l.3 3.9v7.7l-.3 3.9-.4 3.9-.6 3.8-.9 3.7-1 3.8-1.1 3.7-1.4 3.7-1.4 3.6-1.8 3.3-1.8 3.5-1.9 3.2-2.2 3.4-2.3 3.1-2.6 2.9-2.4 3-2.8 2.9-2.8 2.5-3 2.6-3.1 2.3-3.1 2.2-3.2 2.1-3.5 1.9-3.5 1.6-3.4 1.8-3.6 1.4-3.7 1.2-3.8 1.1-3.7.8-3.8.8-3.7.6-4 .3-3.8.2h-3.9l-3.8-.2-3.9-.3-3.9-.6-3.9-.8-3.7-.8-3.7-1.1-3.7-1.2-3.6-1.4-3.5-1.8-3.5-1.6-3.4-1.9-3.3-2.1-3.1-2.2-3.1-2.3-2.9-2.6-2.9-2.5-2.7-2.9-2.5-3-2.6-2.9-2.2-3.1-2-3.4-2.1-3.2-1.9-3.5-1.6-3.3-1.6-3.6-1.4-3.7-.9-3.7-1.2-3.8-.7-3.7-.7-3.8-.4-3.9-.4-3.9v-3.9"/><path class="st1" d="M897.5 479.5l-.2-3.3-.3-3.6-.5-3.5-.5-3.3-.7-3.5-1.1-3.2-1.1-3.4-1.4-3.2-1.5-3.1-1.6-3-1.9-2.9-1.8-3-2.1-2.7-2.3-2.8-2.3-2.4-2.6-2.4-2.6-2.4-2.7-2.1-2.9-2.1-3-1.7-2.9-1.7-3.1-1.7-3.3-1.3-3.3-1.1-3.2-1.1-3.5-.8-3.3-.7-3.5-.4-3.5-.4-3.5-.1h-3.4l-3.5.4-3.3.2-3.6.6-3.3.8-3.4 1-3.3 1.1-3.3 1.2-3.1 1.4-3.1 1.6-3 1.9-2.8 1.8-2.9 2.1-2.6 2.3-2.6 2.2-2.5 2.6-2.2 2.6-2.2 2.7-2.1 2.9-1.8 2.7-1.8 3.2-1.5 3.1-1.5 3.1-1.1 3.2-1.1 3.4-.9 3.3-.7 3.5-.7 3.5-.2 3.3-.1 3.5v3.6l.1 3.3.2 3.5.7 3.3.7 3.5.9 3.5 1.1 3.2 1.1 3.2 1.5 3.3 1.5 3.1 1.8 2.9 1.8 3 2.1 2.9 2.2 2.6 2.2 2.7 2.5 2.3 2.6 2.4 2.6 2.2 2.9 2.1 2.8 2 3 1.8 3.1 1.4 3.1 1.5 3.3 1.4 3.3 1 3.4.9 3.3.9 3.6.4 3.3.5 3.5.3h3.4l3.5-.2 3.5-.2 3.5-.5 3.3-.8 3.5-.8 3.2-.9 3.3-1.2 3.3-1.5 3.1-1.5 2.9-1.6 3-2 2.9-1.9 2.7-2.1 2.6-2.3 2.6-2.5 2.3-2.5 2.3-2.7 2.1-2.6 1.8-3 1.9-3 1.6-2.9 1.5-3.1 1.4-3.4 1.1-3.2 1.1-3.3.7-3.4.5-3.5.5-3.3.3-3.6.2-3.5"/><path class="st1" d="M765.4 479.5l.1-3.3.4-3.5.4-3.5.6-3.3.9-3.4.8-3.2 1.3-3.2 1.3-3.2 1.5-3.1 1.6-3 1.8-3 1.9-2.8 2.2-2.6 2.2-2.7 2.3-2.4 2.5-2.4 2.7-2.2 2.8-2.1 2.9-2 2.8-1.7 3.2-1.5 3.1-1.5 3.1-1.4 3.2-.9 3.4-1.2 3.3-.7 3.4-.5 3.3-.4 3.5-.2h3.4l3.4.1 3.5.3 3.3.4 3.5.8 3.2.7 3.3 1 3.3 1.3 3.1 1.5 3.2 1.4 3 1.7 2.7 1.9 2.8 1.9 2.8 2.1 2.4 2.4 2.6 2.4 2.3 2.5 2.2 2.7 2 2.6 1.9 3 1.7 3 1.6 3 1.4 3.1 1.2 3.3 1.1 3.2 1 3.4.5 3.3.6 3.4.4 3.3.2 3.5v3.3l-.2 3.6-.4 3.4-.6 3.3-.5 3.5-1 3.2-1.1 3.4-1.2 3.2-1.4 3.1-1.6 3-1.7 2.9-1.9 2.9-2 2.8-2.2 2.6-2.3 2.6-2.6 2.4-2.4 2.2-2.8 2.3-2.8 1.9-2.7 1.9"/><path class="st1" d="M864.1 535.3l-3 1.6-3.2 1.5-3.1 1.5-3.3 1.2-3.3.9-3.2.9-3.5.7-3.3.5-3.5.3-3.4.2h-3.4l-3.5-.4-3.3-.2-3.4-.6-3.3-.9-3.4-.9-3.2-1.1-3.1-1.4-3.1-1.4-3.2-1.7-2.8-1.6-2.9-1.9-2.8-2-2.7-2.3-2.5-2.4-2.3-2.5-2.2-2.5-2.2-2.7-1.9-2.9-1.8-3-1.6-2.9-1.5-3.1-1.3-3.1-1.3-3.4-.8-3.2-.9-3.2-.6-3.5-.4-3.5-.4-3.3-.1-3.5"/><path class="st1" d="M764.2 479.5v-3.3l.3-3.6.4-3.5.6-3.3.9-3.4 1.1-3.3 1-3.4 1.4-3.1 1.5-3.2 1.6-3 1.9-2.9 1.9-2.9 2.1-2.8 2.2-2.5 2.4-2.6 2.6-2.4 2.6-2.3 2.7-2.1 3-2 3-1.8 3-1.6 3.1-1.5 3.3-1.3 3.2-1.3 3.2-1 3.5-.7 3.5-.6 3.3-.6 3.5-.2 3.6-.1 3.3.1 3.5.2 3.4.6 3.4.6 3.5.7 3.2 1 3.2 1.3 3.4 1.3 3.1 1.5 3.1 1.6 2.8 1.8 3 2 2.7 2.1 2.6 2.3 2.6 2.4 2.4 2.6 2.2 2.5 2.1 2.8 2 2.9 1.9 2.9 1.6 3 1.5 3.2 1.3 3.1 1.2 3.4 1 3.3.8 3.4.6 3.3.4 3.5.4 3.6.1 3.3-.1 3.5-.4 3.6-.4 3.3-.6 3.5-.8 3.2-1 3.5-1.2 3.2-1.3 3.1-1.5 3.2-1.6 3.1-1.9 3-2 2.9-2.1 2.7-2.2 2.6-2.4 2.5-2.6 2.3-2.6 2.3-2.7 2.2-3 2-2.8 1.7-3.1 1.7-3.1 1.5-3.4 1.3-3.2 1.2-3.2 1-3.5.8-3.4.6-3.4.5-3.5.2-3.3.1-3.6-.1-3.5-.2-3.3-.5-3.5-.6-3.5-.8-3.2-1-3.2-1.2-3.3-1.3-3.1-1.5-3-1.7-3-1.7-3-2-2.7-2.2-2.6-2.3-2.6-2.3-2.4-2.5-2.2-2.6-2.1-2.7-1.9-2.9-1.9-3-1.6-3.1-1.5-3.2-1.4-3.1-1-3.2-1.1-3.5-.9-3.2-.6-3.5-.4-3.3-.3-3.6v-3.5"/><path class="st1" d="M895.8 479.5l-.1-3.3-.3-3.5-.5-3.5-.6-3.3-.9-3.5-.8-3.2-1.3-3.3-1.2-3.1-1.5-3.1-1.7-3-1.8-3-2.1-2.8-2.1-2.6-2.2-2.8-2.4-2.5-2.4-2.2-2.8-2.2-2.6-2.1-2.8-2-3-1.7-3.1-1.6-3.2-1.5-3.1-1.4-3.2-1.1-3.4-.9-3.3-.9-3.5-.6-3.4-.2-3.4-.4h-3.5l-3.3.3-3.5.2-3.4.5-3.4.7-3.5.9-3.2 1-3.1 1.2-3.4 1.4-2.9 1.5-3.1 1.7m0 0l-2.9 1.8-2.7 2.1-2.7 2.1-2.5 2.2-2.6 2.5-2.4 2.6-2.1 2.6-2.1 2.7-1.9 3-1.6 3-1.7 2.9-1.2 3.3-1.4 3.2-1.1 3.2-.9 3.5-.7 3.2-.6 3.5-.3 3.3-.1 3.5v3.6l.1 3.3.3 3.5.6 3.3.7 3.4.9 3.3 1.1 3.4 1.4 3.1 1.2 3.1 1.7 3.1 1.6 3 1.9 2.8 2.1 2.9 2.1 2.7 2.4 2.5 2.6 2.3 2.5 2.4 2.7 2.1 2.7 2.1 2.9 1.7 3.1 1.9 2.9 1.5 3.4 1.3 3.1 1.2 3.2 1.1 3.5.8 3.4.8 3.4.4 3.5.3 3.3.1h3.5l3.4-.2 3.4-.5 3.5-.6 3.3-.8 3.4-.8 3.2-1.3 3.1-1.1 3.2-1.5 3.1-1.6 3-1.8 2.8-1.9 2.6-2.1 2.8-2.2 2.4-2.4 2.4-2.5 2.2-2.6 2.1-2.7 2.1-2.9 1.8-2.9 1.7-3 1.5-3.1 1.2-3.1 1.3-3.2.8-3.4.9-3.3.6-3.5.5-3.5.3-3.3.1-3.5m-152.6 81.2v-24.2m174.5 0v24.2m-.1-162.2l.1-.2m-6.3-5.8h.3v-.1h.1v-.1m-168.2 6.2h-.3v-.2h-.1m6.3-5.8l-.3-.2"/><path class="st1" d="M911.8 392.3l1 .1 1.1.1.9.5.8.8.8.6.6.8.4 1 .3.9v139.4m-174.5 0V398.3m6-6h162.6m-168.6 6v-1.2l.4-.9.4-1 .6-.8.7-.6.9-.8.9-.5 1.1-.1 1-.1m94.5 162.5l3.6-.8 3.8-.9 3.4-.9 3.6-1.4 3.4-1.4 3.4-1.6 3.3-1.7 3.1-1.9 3.2-2.1 2.9-2.2 2.8-2.4 2.8-2.4 2.8-2.6 2.3-2.8 2.4-2.8 2.2-3 2.1-3.1 2-3.2 1.7-3.2 1.6-3.3 1.5-3.4 1.3-3.6 1.1-3.6 1-3.5.7-3.6.5-3.7.5-3.7.1-3.7.1-3.8-.1-3.6-.2-3.7-.6-3.7-.7-3.7-.8-3.6-1-3.6-1.3-3.5-1.3-3.4-1.5-3.5-1.7-3.2-1.9-3.1-2-3.1-2.1-3.3-2.4-2.7-2.4-2.8-2.6-2.8-2.8-2.4-2.8-2.6-2.7-2.3-3.3-2-3.1-1.9-3.2-2-3.3-1.6-3.4-1.5-3.4-1.4-3.6-1.1-3.5-1.1-3.6-.8-3.7-.5-3.7-.6-3.8-.1-3.7-.2H827l-3.6.3-3.7.4-3.7.6-3.6.9-3.6 1-3.5 1.1-3.5 1.4-3.4 1.3-3.4 1.8-3.3 1.8-3.1 1.9-3 2.1-3 2.2-2.8 2.4-2.7 2.6-2.6 2.6-2.5 2.8-2.3 2.9-2.2 3.1-2.1 2.9-1.7 3.3-1.9 3.3-1.5 3.4-1.5 3.4-1.1 3.5-1.1 3.5-.9 3.7-.6 3.6-.6 3.7-.2 3.7-.2 3.7v3.8l.2 3.7.4 3.7.4 3.6"/><path class="st1" d="M766.9 468l.6-3 .8-3.2.9-3 1.2-2.9 1.1-2.8 1.3-2.8 1.5-2.9 1.6-2.7 1.9-2.5 1.7-2.5m0 0h.2v-.2h.1v-.1h.2v-.2m95.2-6.5v.1h.1v.4h.2m-90 0l.1-.2h.1v-.3h.3m0 0l2.3-2.3 2.6-2.1 2.9-1.9 2.8-1.9 3-1.7 3-1.5 3.1-1.4 3.1-1.4 3.3-.9 3.3-.9 3.3-.6 3.3-.7 3.4-.2 3.3-.4h3.5l3.4.4 3.4.2 3.3.7 3.3.6 3.2.9 3.4.9 3.1 1.4 3.1 1.4 3.1 1.5 2.8 1.7 3 1.9 2.7 1.9 2.6 2.1 2.6 2.3m-95.2 87h-.2v-.1h-.1v-.2h-.2m0 0l-1.7-2.6-1.9-2.4-1.6-2.8-1.5-2.7-1.3-2.8-1.1-2.9-1.2-3-.9-2.9-.8-3.1-.6-3m127.2 0l-.7 3-.7 3.1-1 2.9-1.1 3-1.1 2.9-1.4 2.8-1.5 2.7-1.6 2.8-1.8 2.4-1.8 2.6m0 0l-.1.2h-.1v.1h-.3m-94.9 6.6h-.3v-.2h-.1v-.1l-.1-.2m90 0v.2h-.2v.1l-.1.2"/><path class="st1" d="M875.2 526.3l-2.6 2.3-2.6 2.1-2.7 2.1-3 1.8-2.8 1.8-3.1 1.5-3.1 1.2-3.1 1.4-3.4 1.1-3.2.9-3.3.6-3.3.5-3.4.4-3.4.2h-3.5l-3.3-.2-3.4-.4-3.3-.5-3.3-.6-3.3-.9-3.3-1.1-3.1-1.4-3.1-1.2-3-1.5-3-1.8-2.8-1.8-2.9-2.1-2.6-2.1-2.3-2.3m94.9-87.1v.2h.3l.1.1h.1v.2m0 0l1.8 2.5 1.8 2.5 1.6 2.7 1.5 2.9 1.4 2.8 1.1 2.8 1.1 2.9 1 3 .7 3.2.7 3m-127.2 0l.6-3.2.8-3 .9-3 1.2-2.9 1.1-2.8 1.3-2.8 1.5-2.9 1.6-2.7 1.9-2.6 1.9-2.4m6-6.9l2.6-2.4 2.6-2.1 2.8-1.9 2.9-1.9 2.9-1.7 3.1-1.5 3.1-1.4 3.1-1.4 3.3-.9 3.3-.9 3.3-.6 3.3-.7 3.4-.2 3.3-.4h3.5l3.4.4 3.4.2 3.3.7 3.3.6 3.3.9 3.3.9 3.2 1.4 3 1.4 3.1 1.5 2.9 1.7 2.9 1.9 2.7 1.9 2.6 2.1 2.6 2.4m-95.5 86.6l-1.9-2.6-1.9-2.4-1.6-2.8-1.5-2.7-1.3-2.8-1.1-2.9-1.2-3-.9-2.9-.8-3.1-.6-3m127.2 0l-.7 3-.7 3.1-1 2.9-1.1 3-1.1 2.9-1.4 2.8-1.5 2.7-1.6 2.8-1.8 2.4-1.8 2.6"/><path class="st1" d="M875.2 526.3l-2.6 2.3-2.6 2.1-2.7 2.1-2.9 1.8-2.9 1.8-3.1 1.5-3 1.2-3.2 1.4-3.3 1.1-3.3.9-3.3.6-3.3.5-3.4.4-3.4.2h-3.5l-3.3-.2-3.4-.4-3.3-.5-3.3-.6-3.3-.9-3.3-1.1-3.1-1.4-3.1-1.2-3.1-1.5-2.9-1.8-2.9-1.8-2.8-2.1-2.6-2.1-2.6-2.3m95.7-86.6l1.8 2.4 1.8 2.6 1.6 2.7 1.5 2.9 1.4 2.8 1.1 2.8 1.1 2.9 1 3 .7 3 .7 3.2m-127.2 0v.1m0 23v.1m18.8-58.4v.2m-5.9 86.4v.2m101.5-79.9v-.2h-.1m-100.3 81.3l-.1-.2-.3-.2v-.1h-.1v-.1h-.1v-.1h-.1v-.3l-.2-.1-.2-.1v-.2m5.9 6.7l-.2-.3-.1-.2-.2-.1-.2-.1-.1-.1-.2-.3-.1-.1m91.7 0l-.2.4-.1.1v.1h-.3l-.1.1-.1.2-.2.2-.1.1m6.1-6.7l-.1.2-.3.1v.1h-.1v.3h-.1v.1l-.2.1-.1.1v.2h-.2v.2h-.1m-4.9-87.8v-.2"/><path class="st1" d="M880.1 438.3v.1h.1v.1h.2v.1h.1v.2l.2.2.1.1v.1h.1v.2h.3v.1l.1.2m-6.1-6.9v.2h.1v.2h.2v.1h.1v.1l.1.1h.3v.3h.1v.1l.1.1h.1v.2m-91.7 0l.1-.2.2-.1v-.1h.1l.2-.3.2-.1v-.1h.1v-.1h.1v-.2h.1v-.2m-5.9 6.9v-.3h.2v-.2h.2v-.1h.1v-.1h.1v-.2l.1-.2.3-.1v-.1h.1v-.1m-1.1 1.2v.2m101.4 79.9v-.2h.1m-95.6-86.6h.3v-.1m-6.2 86.7h-.3m95.7 6.7v.2m-89.2 0h-.3v-.2m89.5-93.4v.1m-95.7 6.9h.3m114.3 51.5v-.1m0-23v-.1m-127.8 18.6l.1.2h.2v.2h.2m127.9-.4l-.1.1v.1h-.3v.2m-127.5-14.9h-.2v.1h-.2v.4h-.1m.5-.5v-.1h.1m127.4.1l-.1-.1m.1.1v.1h.3v.3h.1v.1m0 0v.6l.1.5v1.7l.1.5v7.2l-.1.6v1.7l-.1.6v.6"/><path class="st1" d="M766.3 486.6v-1.2l-.2-.7v-1.6l-.1-.6v-5.9l.1-.7v-1.7l.2-.5v-1.1m128 14.4l-.1.1m-127.4-.1l.1.1m127.4.6l.3-.1m-128.2 0h.2v.1m0-16.4v.2h-.2m128.2 0v-.2h-.3m-113.4 49.5l1.7 2.2 2 1.9m95.5-4.1l-1.8 2.2-2 1.9m17.9-34.8v.2h-.1v.8m.5-3.5v.2m-128.2 0v-.2m.5 3.5v-1h-.1m0-21.1l.1-.9m-.5 3.4v-.3m128.2 0v.3m-.5-3.4v.8h.1v.1m-127.4 3.1h-.2v-.1l-.2-.2v-.3m0 16.1v-.5h.2v-.1h.2m127.5 0v.1h.3v.5m0-16.1v.5h-.3v.1m-.1 18l.4-2.3m0-16.6l-.4-2.2"/><path class="st1" d="M894.3 487.7l-.4 3.4-.7 3.3-.9 3.3-1.1 3.1-1.1 3.1-1.4 3.1-1.5 3.1-1.6 2.9-2 2.8-1.9 2.9-2 2.5-2.5 2.6-2.4 2.5-2.3 2.2-2.7 2.1-2.6 2.1-3 1.7-2.9 1.6-2.9 1.7-3.1 1.3-3.1 1.3-3.4 1-3.2.8-3.3.8-3.4.5-3.3.5-3.4.1h-3.5l-3.2-.1-3.5-.5-3.3-.5-3.3-.8-3.3-.8-3.1-1-3.3-1.3-3-1.3-3.1-1.7-2.8-1.6-2.9-1.7-2.7-2.1-2.6-2.1-2.5-2.2-2.4-2.5-2.2-2.6-2.2-2.5-2-2.9-1.7-2.8-1.9-2.9-1.5-3.1-1.3-3.1-1.2-3.1-1.1-3.1-.8-3.3-.8-3.3-.4-3.4m0-16.4l.4-3.2.8-3.4.8-3.3m0 0l1.1-3.1 1.2-3.3 1.3-3 1.5-3.1 1.9-2.8 1.7-2.9 2-2.7 2.2-2.7 2.2-2.5 2.4-2.5 2.5-2.2 2.6-2 2.7-2.1 2.9-1.9 2.8-1.6 3.1-1.6 3-1.4 3.3-1.1 3.1-1.1 3.3-.9 3.3-.7 3.3-.6 3.5-.3 3.2-.1h3.5l3.4.1 3.3.3 3.4.6 3.3.7 3.2.9 3.4 1.1 3.1 1.1 3.1 1.4 2.9 1.6 2.9 1.6 3 1.9 2.6 2.1 2.7 2 2.3 2.2 2.4 2.5 2.5 2.5 2 2.7 1.9 2.7 2 2.9 1.6 2.8 1.5 3.1 1.4 3 1.1 3.3 1.1 3.1.9 3.3.7 3.4.4 3.2"/><path class="st1" d="M767.4 479.5v3.5l.2 3.3.5 3.4.5 3.3 1 3.4.9 3.2 1.1 3.1 1.4 3.2 1.5 3 1.6 3 1.9 3 2 2.6 2 2.7 2.2 2.5 2.5 2.3 2.5 2.5 2.7 2 2.6 2.1 2.9 1.8 3 1.8 2.9 1.5 3.1 1.3 3.4 1.1 3.1 1.2 3.2.8 3.5.8 3.2.5 3.5.2 3.3.1h3.5l3.2-.2 3.5-.5 3.4-.6 3.3-.8 3.2-.8 3.2-1.2 3.1-1.2 3.1-1.5 3-1.6 3-1.8 2.7-1.9 2.6-2.1 2.7-2.2 2.4-2.4 2.3-2.4 2.1-2.7 2.1-2.7 1.9-2.7 1.9-2.9 1.4-3.1 1.5-3 1.1-3.3 1.2-3.1.8-3.2.8-3.5.6-3.2.2-3.5.4-3.5v-3.2l-.4-3.5-.2-3.3-.6-3.3-.8-3.4-.8-3.3-1.2-3.1-1.1-3.3-1.5-2.9-1.4-3.1-1.9-2.9-1.9-2.8-2.1-2.8-2.1-2.6-2.3-2.6-2.4-2.2-2.7-2.2-2.6-2-2.7-2-3-1.7-3-1.8-3.1-1.5-3.1-1.2-3.2-1.1-3.2-.9-3.3-.8-3.4-.7-3.5-.2-3.2-.4h-3.5l-3.3.1-3.5.4-3.2.4-3.5.7-3.2 1-3.1 1-3.4 1.3-3.1 1.2-2.9 1.5-3 1.8-2.9 1.8-2.6 2.1-2.7 2.1-2.5 2.2-2.5 2.5-2.2 2.6-2 2.6-2 2.7-1.9 2.9-1.6 3-1.5 3.1-1.4 3-1.1 3.2-.9 3.3-1 3.2-.5 3.5-.5 3.2-.2 3.5v3.3m-.5-7.5l-.1-.2h-.2v-.5m127.7 0v.2m0 0v.3h-.1v.2m-127.3 15.1l-.1-.5v-.6l-.2-.8V484l-.2-.6v-3.3l-.1-.6.1-.6v-3.2l.2-.6V474l.2-.8v-.6l.1-.6m-.3 15.7v-.4h.2v-.2h.1m127.3 0v.2h.1v.4m-.1-15.7v.6l.1.6v1.2l.3.7v1.9l.1.7v3.8l-.1.6v1.9l-.3.6v1.4l-.1.6v.5m-127.8.7l.4 2.3m0-21.1l-.4 2.2m113.7-32.9l-1.8-2.2-2-1.9m-91.7 0l-2 1.9-1.7 2.2"/><path class="st2" d="M830.6 576.9v-12.1m0-4.6v-4.4m0-4.8v-12.1m0-4.5V530m0-4.6v-12.3m0-4.4v-4.5m0-4.6v-12.1m0-4.5v-4.6m0-4.4v-12.3m0-4.5v-4.6m0-4.4V436m0-4.4v-4.7m0-4.5v-12.2m0-4.5v-4.5m0-4.5v-12.2m95.6 95h-12.1m-4.4 0h-4.5m-4.6 0h-12m-4.5 0h-4.7m-4.4 0h-12.1m-4.4 0h-4.6m-4.5 0h-12m-4.4 0h-4.6m-4.5 0h-12.1m-4.6 0h-4.5m-4.5 0h-12m-4.6 0h-4.4m-4.5 0h-12m-4.7 0h-4.5m-4.6 0h-12"/><path class="st3" d="M956 549.7h-6.8l3.4 15.9 3.4-15.9zm-6.8-140.4h6.8l-3.4-15.9-3.4 15.9z"/><path class="st2" d="M952.6 549.7V409.3m-33.2-17h36.1m-37.7 174.6h39"/><path class="st3" d="M900.4 364.7v6.8l15.9-3.4-15.9-3.4zM760 371.5v-6.8l-16 3.4 16 3.4z"/><path class="st2" d="M900.4 368.1H760m-16.8 24.1v-27.1m174.5 26.2v-26.2"/><path class="st1" d="M909.6 282.7v-.4m2.2.4h-2.2m8.1-22.6v16.5m-119.5 6.1h-49m160.2-.2v-.2m-166.2-5.7v-16.5m55 22.6v-.4m.4.2v-.2m95.2.4h2.7m0 0h2.6l1.2-.1h3.3l.4-.1h.3l-.3-.2h-2.8l-1.1-.1h-12.9l-1.1.1h-2.6l-.3.2h-.2.4l.4.1h3.3l1.1.1h2.6m0 0h3m0 0v-.5m-79.6.5h3m-5.8 0h2.8m3 0h2.5l1.2-.1h3.3l.5-.1h.2-.1l-.4-.2h-2.6l-1.1-.1h-12.9l-1 .1H804l-.4.2h.4l.3.1h3.4l1.1.1h2.6m2.8 0v-.5"/><path class="st1" d="M904.2 282.5h-.2l-.2-.2h-3l-1.5-.1h-11.2l-1.5.1h-3.1l-.1.2h-.2m-58.4 0l-.4-.2h-3.1l-1.5-.1h-11.1l-1.5.1h-3.1l-.1.2h-.2m87 .2h-73.6m-5.8 0h-13.2m111.4 0h-13.1m12.9-.2l.2.2"/><path class="st1" d="M893.8 282h3.1l1.6.2h7.7l1 .1h1.2l.5.2h.5m-95.2-.5h79.6m-95.2.5h.4l.5-.2h1.4l.8-.1h7.7l1.6-.2h3.2m-16 .7l.4-.2m119.1-30v7.4m-174.5-7.4v6.9m0 0v.5m0-8.1v.7m6-144.3l-1 .1-1.1.1-.9.5-.9.5-.7.8-.6 1-.4 1-.4.8v139.5m174.5 0v-.7m0 .7V114.1m0 0v.2m-174.5-.2v.2m174.5-.2V113l-.3-.8-.4-1-.6-1-.8-.8-.8-.5-.9-.5-1.1-.1-1-.1m-9.6 47v-.9l-.2-.7-.5-.8-.5-.6-.7-.5-.8-.4-.9-.2h-.7l-.9.2-.7.4-.6.5-.7.6-.3.8-.1.7-.3.9.3.7.1.8.3.7.7.6.6.5.7.4.9.1h.7l.9-.1.8-.4.7-.5.5-.6.5-.7.2-.8v-.7"/><path class="st1" d="M893.6 155.2l.2-1.1.1-.8.4-.9.6-.7.8-.6.8-.4 1-.1.9-.3.9.3.8.1.8.4.7.6.6.7.5.9.3.8v1.9l-.3.9-.5.7-.6.8-.7.6-.8.5-.8.3h-1.8l-1-.3-.8-.5-.8-.6-.6-.8-.4-.7-.1-.9-.2-.8m-120.5 0l.2-1.1.3-.8.5-.9.5-.7.7-.6.8-.4 1-.1.8-.3.9.3.9.1.8.4.8.6.6.7.4.9.2.8.1 1.1-.1.8-.2.9-.4.7-.6.8-.8.6-.8.5-.9.3h-1.7l-1-.3-.8-.5-.7-.6-.5-.8-.5-.7-.3-.9-.2-.8"/><path class="st1" d="M905.3 155.2l-.1-1.3-.2-1-.5-1.1-.7-.8-.7-.9-.9-.8-.8-.6-1.1-.2-1.2-.4H898l-1.1.3-1.1.2-1 .5-.9.5-.7 1-.8.9-.5.8-.3 1-.3 1.3v.9l.3 1.3.3 1 .5 1.1.8.9.7.7.9.6 1 .4 1.1.5h2.2l1.2-.1 1.1-.5.8-.7.9-.7.7-.7.7-1 .5-1 .2-1.1.1-1m-120.4 0l-.2-1.3-.1-1-.5-1.1-.6-.8-.7-.9-.9-.8-1-.6-1.1-.2-1-.4h-1.2l-1 .3-1 .2-1.1.5-.9.5-.9 1-.6.9-.6.8-.3 1-.1 1.3v.9l.1 1.3.3 1 .6 1.1.6.9.9.7.9.6 1.1.4 1 .5h2.2l1-.1 1.1-.5 1-.7.9-.7.7-.7.6-1 .5-1 .1-1.1.2-1"/><path class="st1" d="M781.9 155.2l-.1-.9-.2-.7-.5-.8-.6-.6-.5-.5-1-.4-.7-.2h-.9l-.7.2-.8.4-.7.5-.4.6-.5.8-.2.7-.3.9.3.7.2.8.5.7.4.6m0 0l.7.5.8.4.7.1h.9l.7-.1 1-.4.5-.5.6-.6.5-.7.2-.8.1-.7m120.3 0v-.9l-.2-.7-.5-.8-.6-.6-.6-.5-.8-.2-.9-.4h-.7l-.7.4-.9.2-.6.5-.7.6-.2.8-.2.7-.3.9.3.7.2.8.2.7.7.6.6.5.9.4.7.1h.7l.9-.1.8-.4.6-.5.6-.6.5-.7.2-.8v-.7"/><path class="st1" d="M781.9 155.2l-.1-.9-.3-.7-.4-.8-.6-.6-.7-.5-.8-.2-.7-.4h-.9l-.7.4-.8.2-.6.5-.5.6-.5.8-.2.7v1.6l.2.8.5.7.5.6.6.5.8.4.7.1h.9l.7-.1.8-.4.7-.5.6-.6.4-.7.3-.8.1-.7m10.9-40.2v-.9h-.5l-.6.3-.4.2-.4.5-.1.5-.1.5h.9m91.9-1.1v-.9h-90.7m-2.1 72.7h.9m-.9-70.7v70.7m93.9-70.7h1l-.2-.5-.1-.5-.3-.5-.5-.2-.6-.3h-.4m-90.7 74.8v-.9m-2.1-1.2l.1.5.1.6.4.4.4.3.6.2.5.1m91.8-2.1h1v-70.7m-2.1 72.8v-.9"/><path class="st1" d="M792.8 188.9h90.7l.4-.1.6-.2.5-.3.3-.4.1-.6.2-.5M792.8 115h-.4l-.2.1-.3.3-.2.4-.1.3m1.2-1.1h90.7m-91.9 71.8v-70.7m93 0l-.1-.3-.1-.4-.3-.3-.3-.1h-.3m-91.9 71.8l.1.3.2.4.3.3.2.2h.4m91.8-71.9v70.7m-1.1 1.2h-90.7"/><path class="st1" d="M883.5 188h.3l.3-.2.3-.3.1-.4.1-.3m-118.5-31.6l.2-1.5.3-1.5.4-1.4.6-1.3.8-1.1.8-1.2 1.2-1 1.1-.8 1.2-.8 1.4-.6 1.2-.4 1.5-.2h1.5l1.4.1 1.4.4 1.4.4 1.4.6 1.1.9 1.1.8 1 1.1.7 1.1.8 1.4.5 1.4.4 1.3.2 1.5v1.4l-.2 1.5-.4 1.5-.5 1.2-.8 1.2-.7 1.3-1 1-1.1 1-1.1.7-1.4.6-1.4.5-1.4.4h-2.9l-1.5-.1-1.2-.4-1.4-.6-1.2-.8-1.1-.8-1.2-1-.8-1.1-.8-1.3-.6-1.3-.4-1.3-.3-1.5-.2-1.3m120.5 0v-1.5l.3-1.5.5-1.4.6-1.3.7-1.1.9-1.2 1-1 1.2-.8 1.4-.8 1.4-.6 1.2-.4 1.4-.2h1.4l1.5.1 1.4.4 1.4.4 1.3.6 1.1.9 1.3.8.8 1.1.9 1.1.6 1.4.7 1.4.2 1.3.1 1.5v1.4l-.1 1.5-.2 1.5-.7 1.2-.6 1.2-.9 1.3-.8 1-1.3 1-1.1.7-1.3.6-1.4.5-1.4.4h-2.9l-1.4-.1-1.2-.4-1.4-.6-1.4-.8-1.2-.8-1-1-.9-1.1-.7-1.3-.6-1.3-.5-1.3-.3-1.5v-1.3m31.1 121.4l-.6-.7m0-161l.6-.8M911 282l.8.7m0 0l1-.1 1.1-.3.9-.5.8-.6.8-.7.6-.8.4-1 .3-1v-1.1m-168.5 6.1l.7-.7m-5.9-6.1l-.8.7m0 0v1.1l.4 1 .4 1 .6.8.7.7.9.6.9.5 1.1.3 1 .1"/><path class="st1" d="M887.6 155.2l.3-1.5.1-1.4.4-1.3.7-1.2.7-1.2 1-1 1-1 1.3-.8 1.1-.7 1.3-.3 1.4-.4h2.9l1.2.4 1.4.3 1.3.7 1 .8 1.1 1 1 1 .8 1.2.6 1.2.5 1.3.2 1.4.2 1.5-.2 1.3-.2 1.3-.5 1.3-.6 1.4-.8 1-1 1.1-1.1 1-1 .7-1.3.7-1.4.5-1.2.2h-2.9l-1.4-.2-1.3-.5-1.1-.7-1.3-.7-1-1-1-1.1-.7-1-.7-1.4-.4-1.3-.1-1.3-.3-1.3m-120.5 0l.3-1.5.2-1.4.5-1.3.5-1.2.8-1.2 1-1 1-1 1.2-.8 1.2-.7 1.4-.3 1.4-.4h2.8l1.4.4 1.2.3 1.3.7 1.2.8 1 1 .8 1 .8 1.2.7 1.2.5 1.3.2 1.4.1 1.5-.1 1.3-.2 1.3-.5 1.3-.7 1.4-.8 1-.8 1.1-1 1-1.2.7-1.3.7-1.2.5-1.4.2h-2.8l-1.4-.2-1.4-.5-1.2-.7-1.2-.7-1-1-1-1.1-.8-1-.5-1.4-.5-1.3-.2-1.3-.3-1.3m144.7-47l-.8.7m-161.1 0l-.7-.7m-6 5.9l.8.8m4.6 117.2v-2.4l.3-2.5.4-2.6.6-2.4.9-2.3 1.1-2.3 1-2.2 1.4-2.2 1.4-2.1 1.7-2 1.6-1.7 1.9-1.7 2-1.4 2-1.5 2.2-1.3 2.3-1 2.5-.8 2.3-.8 2.5-.6 2.6-.4 2.3-.1h2.5l2.6.1 2.5.4 2.4.6 2.3.8 2.5.8 2.3 1 2.2 1.3 1.9 1.5 2.1 1.4 1.9 1.7 1.7 1.7 1.6 2 1.5 2.1 1.3 2.2 1.1 2.2 1.1 2.3.8 2.3.6 2.4.5 2.6.2 2.5.1 2.4-.1 2.6-.2 2.4-.5 2.5-.6 2.5-.8 2.3-1.1 2.4-1.1 2.2-1.3 2.1-1.5 2.1-1.6 1.9-1.7 1.8-1.9 1.6-2.1 1.6-1.9 1.4-2.2 1.1-2.3 1.1-2.5.9-2.3.8-2.4.6-2.5.2-2.6.4h-2.5l-2.3-.4-2.6-.2-2.5-.6-2.3-.8-2.5-.9-2.3-1.1-2.2-1.1-2-1.4-2-1.6-1.9-1.6-1.6-1.8-1.7-1.9-1.4-2.1-1.4-2.1-1-2.2-1.1-2.4-.9-2.3-.6-2.5-.4-2.5-.3-2.4v-2.6"/><path class="st1" d="M818.5 232.1l-.2-2.4-.1-2.5-.5-2.6-.7-2.5-.8-2.4-1-2.4-1-2.3-1.3-2.2-1.5-2-1.5-2-1.9-1.7-1.8-1.9-2-1.6-2.1-1.5-2.2-1.2"/><path class="st1" d="M799.9 200.9l-2.3-1.1-2.3-.9-2.4-1-2.3-.5-2.6-.5-2.5-.2-2.5-.3-2.6.3-2.5.2-2.6.5-2.5.5-2.3 1-2.4.9-2.2 1.1-2.2 1.2-2.1 1.5-2 1.6-1.8 1.9-1.8 1.7-1.6 2-1.4 2-1.2 2.2-1.3 2.3-.8 2.4-.9 2.4-.6 2.5-.5 2.6-.3 2.5v5l.3 2.5.5 2.6.6 2.4.9 2.3.8 2.4 1.3 2.2 1.2 2.3 1.4 2.1 1.6 1.9 1.8 1.9 1.8 1.9 2 1.4 2.1 1.5 2.2 1.3 2.2 1.1 2.4 1 2.3.7 2.5.8 2.6.5 2.5.1 2.6.1 2.5-.1 2.5-.1 2.6-.5 2.3-.8 2.4-.7 2.3-1 2.3-1.1 2.2-1.3 2.1-1.5 2-1.4 1.8-1.9 1.9-1.9 1.5-1.9 1.5-2.1 1.3-2.3 1-2.2 1-2.4.8-2.3.7-2.4.5-2.6.1-2.5.2-2.6"/><path class="st1" d="M746.8 232.1l.1-2.4.4-2.5.4-2.6.6-2.5.7-2.4 1-2.4 1.2-2.3 1.3-2.2 1.5-2 1.5-2.1 1.7-1.8 1.8-1.8 2.1-1.6 2-1.5 2.2-1.3 2.2-1 2.4-1.1 2.3-.9 2.6-.6 2.4-.7 2.5-.2 2.7-.1 2.5.1 2.6.1 2.4.5 2.4.6 2.6.8 2.4.8 2.2 1 2.2 1.4 2.1 1.4 2 1.6 2 1.6 1.7 1.8 1.8 1.9 1.5 2.1 1.2 2.1 1.2 2.3 1 2.3 1 2.4.8 2.3.3 2.6.5 2.5.1 2.6v2.5l-.1 2.5-.5 2.6-.3 2.4-.8 2.4-1 2.6-1 2.2-1.2 2.3-1.2 2.2-1.5 1.8-1.8 2-1.7 2-2 1.6-2 1.5-2.1 1.5-2.2 1.1-2.2 1.1-2.4 1-2.6.8-2.4.6-2.4.2-2.6.4h-2.5l-2.7-.1-2.5-.4-2.4-.4-2.6-.7-2.3-.7-2.4-1.2-2.2-1.1-2.2-1.3-2-1.5-2.1-1.6-1.8-1.8-1.7-1.8-1.5-2-1.5-2.2-1.3-2.2-1.2-2.3-1-2.2-.7-2.5-.6-2.4-.4-2.6-.4-2.5-.1-2.6"/><path class="st1" d="M820.2 232.1v-2.6l-.4-2.6-.4-2.4-.6-2.5-.8-2.6-1-2.4-1.1-2.3-1.4-2.3-1.4-2.2-1.6-2-1.7-1.8-2-1.9-2-1.7-2-1.5-2.2-1.4-2.2-1.2-2.5-1.1-2.5-.9-2.5-.6-2.6-.6-2.5-.3-2.6-.4h-2.6l-2.6.4-2.6.3-2.6.6-2.4.6-2.4.9-2.4 1.1-2.2 1.2-2.2 1.4-2.1 1.5-2.1 1.7-1.8 1.9-1.8 1.8-1.6 2-1.5 2.2-1.3 2.3"/><path class="st1" d="M750 214.7l-1.1 2.3-1.1 2.4-.7 2.6-.5 2.5-.5 2.4-.3 2.6-.2 2.6.2 2.6.3 2.6.5 2.6.5 2.5.7 2.4 1.1 2.6 1.1 2.2 1.3 2.2 1.5 2.3 1.6 2.1 1.8 1.8 1.8 1.9 2.1 1.6 2.1 1.5 2.2 1.5 2.2 1.1 2.4 1.1 2.4.9 2.4.7 2.6.5 2.6.4 2.6.1h2.6l2.6-.1 2.5-.4 2.6-.5 2.5-.7 2.5-.9 2.5-1.1 2.2-1.1 2.2-1.5 2-1.5 2-1.6 2-1.9 1.7-1.8 1.6-2.1 1.4-2.3 1.4-2.2 1.1-2.2 1-2.6.8-2.4.6-2.5.4-2.6.4-2.6v-2.6m-74.4-3.2v-114m0 161v-40.5m4.1 44.8l-.7-.1-.9-.4-.7-.2-.7-.6-.3-.7-.5-.7-.3-.7v-.9m165.2 4.3H749.9m165.2-4.3v.9l-.2.7-.3.7-.6.7-.6.6-.7.2-.8.4-.9.1m4.1-165.3v161M911 110.7h.9l.8.2.7.5.6.5.6.5.3.8.2.9v.8m-165.2-4.2H911m-165.2 4.2v-.8l.3-.9.5-.8.3-.5.7-.5.7-.5.9-.2h.7m0 171.3v-1.8"/><path class="st1" d="M745.8 275.9H744v1.1l.3 1 .4 1 .6.7.8.8.8.6.9.5 1.1.2 1 .2m161.1 0v-1.8M749.9 282H911m-165.2-53.1v.6l-.2.3v4.8l.2.3v.5m0-120.5H744v161m173.1 0h-2M911 282l1-.2 1.1-.2.9-.5.9-.6.7-.8.6-.7.4-1 .4-1 .1-1.1M749.9 110.7v-1.8h-1l-1.1.3-.9.5-.8.5-.8.7-.6 1-.4.9-.3 1v1.1m173.1 0h-2m2 161v-161m-6.1-4.2v-1.8H749.9m167.2 6l-.1-1.1-.4-1-.4-.9-.6-1-.7-.7-.9-.5-.9-.5-1.1-.3h-1m-165.2 120l.3-2.5.5-2.6.7-2.4.8-2.6.9-2.4 1.3-2.2 1.2-2.3 1.5-2.2 1.7-1.9 1.8-1.9 1.7-1.8 2.1-1.7 2.1-1.5 2.3-1.2 2.2-1.3 2.3-1 2.7-1 2.4-.5 2.5-.6 2.6-.3 2.5-.2h2.7l2.5.2 2.6.5 2.5.6 2.5.7 2.4.9 2.4 1 2.3 1.2 2.2 1.4 2.1 1.6 1.9 1.6 1.9 1.9 1.7 1.8 1.5 2.1 1.5 2.1 1.4 2.4 1 2.2 1.1 2.4.7 2.6.6 2.5.4 2.4.4 2.6.1 2.6-.1 2.6-.4 2.5-.4 2.7-.6 2.5-.7 2.4-1.1 2.5-1 2.3-1.4 2.2-1.5 2.3-1.5 1.8-1.7 2-1.9 1.8-1.9 1.8-2.1 1.5-2.2 1.4-2.3 1.2-2.4 1.1-2.4.9-2.5.7-2.5.7-2.6.2-2.5.1-2.7.3-2.5-.3-2.6-.3-2.5-.5-2.4-.8-2.7-.9-2.3-.9-2.2-1.3-2.3-1.4-2.1-1.4-2.1-1.7-1.7-1.7-1.8-1.8-1.7-2.2-1.5-1.9-1.2-2.3-1.3-2.4-.9-2.4-.8-2.4-.7-2.4-.5-2.6-.3-2.6"/><path class="st1" d="M817.3 232.1l-.1-2.4-.4-2.5-.3-2.5-.6-2.5-.9-2.3-1-2.3-1.1-2.2-1.4-2.2-1.5-2-1.5-1.9-1.7-1.8-2-1.8-2-1.4-1.9-1.4-2.3-1.3-2.2-1.1-2.5-.8-2.3-.7-2.4-.6-2.5-.5-2.6-.1h-2.5l-2.3.1-2.6.5-2.5.6-2.3.7-2.3.8-2.5 1.1-1.9 1.3-2.1 1.4-2.2 1.4-1.7 1.8-1.8 1.8-1.7 1.9-1.4 2-1.3 2.2-1.1 2.2-1.1 2.3-.8 2.3-.5 2.5-.5 2.5-.2 2.5-.2 2.4.2 2.6.2 2.4.5 2.5.5 2.5.8 2.3 1.1 2.4 1.1 2.2 1.3 2.1 1.4 2.1 1.7 1.9 1.8 1.8 1.7 1.6 2.2 1.5 2.1 1.5 1.9 1.1 2.5 1.1 2.3.9 2.3.8 2.5.6 2.6.2 2.3.1h2.5l2.6-.1 2.5-.2 2.4-.6 2.3-.8 2.5-.9 2.2-1.1 2.3-1.1 1.9-1.5 2-1.5 2-1.6 1.7-1.8 1.5-1.9 1.5-2.1 1.4-2.1 1.1-2.2 1-2.4.9-2.3.6-2.5.3-2.5.4-2.4.1-2.6m100.4 44.5v-16.7m-168.5 22.8h47.7m114.1 0h.8m-168.6-22.8v16.7m174.5-16.7V252m0 0V114.1m-174.5 0v137.3m6-143.2h-.8l-.3.1h-.4l-.4.1-.4.2-.3.1-.4.2-.3.3-.3.1-.3.4-.2.2-.4.3-.2.4-.2.2-.2.4-.3.2-.1.5-.1.3-.3.5v.2l-.1.5v.7m168.6-5.9H749.2m168.5 5.9v-.7l-.1-.5v-.2l-.2-.5-.2-.3-.1-.5-.1-.2-.4-.4-.1-.2-.3-.4-.3-.3-.3-.2-.2-.4-.4-.1-.2-.3-.4-.2-.4-.1-.4-.2-.3-.1h-.4l-.4-.1h-.7M743.2 251.4v8.5M783 282h-7.1l-1.1.2h-3.2l-.4.1h-.3.2l.3.2h1.9l1 .1h17.3l.8-.1h2.1l.4-.2h.1-.3l-.4-.1h-3.4l-1-.2H783"/><path class="st1" d="M794.5 282.3l-.2-.1h-2l-1.5-.2h-15.7l-1.5.2h-2l-.2.1h-.2m25.7.4l.2-.2h.2l.3-.2h2l.9-.1h5.3l1.5-.2h93.3l1.5.2h5.2l1 .1h2l.4.2.3.2m-11.6-121.6l1.1-.4.9-.3.8-.6.8-.8.6-.9.4-1.1.3-.8v-2.1l-.3-1-.4-1-.6-.8-.8-.7-.8-.6-.9-.5-1.1-.3-1-.1-1.1.1-1 .3-1 .5-.7.6-.8.7-.6.8-.5 1-.3 1-.1 1.1.1 1m-113.5 4.9l1.1-.4.9-.3.9-.6.7-.8.6-.9.4-1.1.4-.8.1-1-.1-1.1-.4-1-.4-1-.6-.8-.7-.7-.9-.6-.9-.5-1.1-.3-1-.1-1.1.1-1 .3-.9.5-.8.6-.8.7-.6.8-.5 1-.2 1v2.1m19.6-37.2h1.3m-1.3 1.8h1.3m91.7-4.8h-4.4m3.2 1.4h1.2m0 7.9h-1.2m1.2 1.7h-1.2m-96.7 96.5l.1-.7.2-.5.5-.3.5-.3h1.1l.4.4.3.4.1.6v.6l-.1.5-.3.4-.4.3-.6.2-.5-.2-.5-.2-.5-.2-.2-.7-.1-.3m-10.9 0l.1-.7.4-.5.3-.3.6-.3h1l.5.4.2.4.1.6v.6l-.1.5-.2.4-.5.3-.6.2-.4-.2-.6-.2-.3-.2-.4-.7-.1-.3m-5.3 9.3v-.7l.2-.3.5-.5.4-.2h.6l.5.2.6.3.3.3.1.6v.6l-.1.4-.3.5-.6.2-.5.2h-.6l-.4-.3-.5-.2-.2-.6v-.5m5.3 9.4l.1-.6.4-.5.3-.3.6-.2h.4l.6.1.5.2.2.5.1.4v.6l-.1.5-.2.4-.5.4-.6.1h-.4l-.6-.3-.3-.3-.4-.7-.1-.3m10.9 0l.1-.6.2-.5.5-.3.5-.2h.5l.6.1.4.2.3.5.1.4v.6l-.1.5-.3.4-.4.4-.6.1h-.5l-.5-.3-.5-.3-.2-.7-.1-.3m5.5-9.4v-.7l.2-.3.5-.5.5-.2h.5l.5.2.5.3.2.3.3.6v.6l-.3.4-.2.5-.5.2-.5.2h-.5l-.5-.3-.5-.2-.2-.6v-.5"/><path class="st1" d="M749.8 232.8l.1-2.5.4-2.4.4-2.5.6-2.3.7-2.4 1-2.2 1.1-2.1 1.4-2.1 1.5-2 1.5-1.9 1.7-1.7 1.7-1.6 2-1.5 2.1-1.3 2.3-1.2 2.2-1 2.2-.8 2.4-.6 2.3-.7 2.4-.2 2.6-.1 2.3.1 2.5.1 2.5.5 2.4.5 2.2.7 2.3 1 2.1 1 2.3 1.4 1.8 1.4 2 1.6 1.8 1.6 1.7 1.7 1.5 2 1.2 2.1 1.3 2.1.9 2.2 1 2.3.8 2.3.5 2.4.4 2.3.1 2.6v2.4l-.1 2.4-.4 2.4-.5 2.5-.8 2.2-1 2.4-.9 2.2-1.3 2.1-1.2 2-1.5 2-1.7 1.7-1.8 1.8-2 1.5-1.8 1.4-2.3 1.2-2.1 1.2-2.3.9-2.2.7-2.4.6-2.5.4-2.5.3h-2.3l-2.6-.3-2.4-.2-2.3-.5-2.4-.5-2.2-1-2.2-1-2.3-1.3-2.1-1.2-2-1.5-1.7-1.5-1.7-1.8-1.5-1.9-1.5-2-1.4-2.1-1.1-2.2-1-2.2-.7-2.3-.6-2.3-.4-2.4-.4-2.6-.1-2.3"/><path class="st1" d="M761.6 232.8l.1-1.9.2-2.1.5-2 .7-1.7.7-1.9 1-1.7 1.1-1.6 1.2-1.5 1.4-1.4 1.5-1.3 1.6-1 1.9-1.2 1.7-.7 2-.5 1.7-.5 2.1-.2 2-.3 1.9.3 1.9.2 1.9.5 2 .5 1.7.7 1.8 1.2 1.6 1 1.6 1.3 1.3 1.4 1.2 1.5 1.2 1.6.9 1.7.8 1.9.7 1.7.5 2 .2 2.1.1 1.9-.1 1.9-.2 1.9-.5 2-.7 2-.8 1.7-.9 1.6-1.2 1.6-1.2 1.8-1.3 1.2-1.6 1.2-1.6 1.3-1.8.8-1.7.9-2 .6-1.9.4-1.9.4H781l-2.1-.4-1.7-.4-2-.6-1.7-.9-1.9-.8-1.6-1.3-1.5-1.2-1.4-1.2-1.2-1.8-1.1-1.6-1-1.6-.7-1.7-.7-2-.5-2-.2-1.9-.1-1.9m30-111.7h1.3m56.8-4.5V115m-55.3 0v1.6m-2.8 7.2l.7-.2.6-.3m91.7 62.5h-1.2m-2 2.2v-2.2m-13.9 2.2v-2.2m-58.8 2.2v-2.2m-13.8 2.2v-2.2m-2 0h-1.3m1.3 0v-16.3m0-9v-16.2m0-9.1v-18.6m77.1 69.2h-63.8m-8.9 0h-4.4m90.5 0h-4.3m4.3-69.2v18.6m0 9.1v16.2m0 9v16.3m-3.2-69.2h3.2m-90.5 0h3.1m8.9 0h19.9m26.7 0h19.8m7.8 69.2v2.2m-9.1 0v-2.2m9.1 0H870m-72.7 0v2.2m8.9 0v-2.2h-8.9m87.3-25.3h-1.2m0 9h1.2m-1.2-9v9m1.2-25.2h-1.2m0-9.1h1.2m-1.2 0v9.1m-91.8 16.2h1.3m0 9h-1.3m1.3 0v-9m-1.3-16.2h1.3m0-9.1h-1.3m1.3 9.1v-9.1m87.3-20.2v1.6m-8.9 0V115m0 1.6h8.9m-55.4 0h26.7v4.2m-26.7 0v-4.2m26.7 4.2h-26.7M796 115v1.6m8.9 0V115m-8.9 1.6h8.9m46.6 4.2h7.1v9.3m0 0h4.8v3m-50.5 0v-3h4.7v-9.3h7.2"/><path class="st1" d="M863.4 133.1h12.1v43.3h-74.6v-43.3h12m-21.3-12h1.3m-1.3 2.7l.7-.2.6-.3m91.7 60.3h-1.2m.1-35h1.1m-1.1 11.9v-11.9m-91.9 26.9h1.3m90.6-45.5h1.1m-1.1 16.2v-1.9m0-9.1V130m1.1 16.2h-1.1m-91.4-14.9v3.9m0 9.1v3.1m-.5-16.1h.5m0 16.1h-.5m-13.8 48.1h4.5"/><path class="st2" d="M735.9 195.5h11.9m4.5 0h4.7m4.4 0h11.9m13.5 0h11.8m4.6 0h4.5m4.4 0H824m4.6 0h4.5m4.4 0h11.9m4.5 0h4.6m4.4 0h11.9m4.5 0h4.6m4.5 0h11.9m4.4 0h4.5m4.7 0h11.6m-94.9 94.6v-11.9m0-4.4v-4.6m0-4.5v-11.9m0-4.4v-4.6m0-4.5v-11.9m0-4.4v-4.6m0-4.5V202m0-4.4v-4.5m0-4.6v-11.9m0-4.4v-4.5m0-4.7v-11.9m0-4.5v-4.4m0-4.6v-11.9m0-4.5v-4.5m0-4.5v-11.8"/><path class="st1" d="M838.2 116v-3.8m-60.3 43H793"/><path class="st2" d="M777.9 155.2h18.5m4.6 0h4.4m4.5 0h29m-61 0h-15.2m15.2 0v-15.4m0 15.4v15.1m120.5-15.1h15.1"/><path class="st1" d="M898.4 155.2h-15.2"/><path class="st2" d="M898.4 155.2h-18.3m-4.5 0H871m-4.5 0H838m60.4 0v-15.4m0 15.4v15.1"/><path class="st4" d="M760.2 316.4v-7.1l-16.6 3.5 16.6 3.6zm6-7.1v7.1l16.6-3.6-16.6-3.5z"/><path class="st5" d="M760.2 312.8h6"/><path class="st1" d="M743.2 285.3v30.5"/><path class="st2" d="M783 232.8V223m0-4.5v-4.6m0-4.4v-19.1m0 42.4v9.7m0 4.5v4.5m0 4.7v18.9m0 0v40.7"/><path class="st4" d="M725.3 265.4h-7.1l3.6 16.6 3.5-16.6zm-7.1-15.7h7.1l-3.5-16.6-3.6 16.6z"/><path class="st5" d="M721.8 265.4v-15.7"/><path class="st2" d="M783 232.8h9.8m4.5 0h4.4m4.6 0h18.8m-42.1 0h-9.9m-4.5 0H764m-4.4 0h-19.5m0 0h-21.3"/><path class="st3" d="M765.3 138.8l-5.2 4.8 14.6 8.9-9.4-13.7z"/><path class="st2" d="M762.7 141.2l-15.4-14.4H603.4"/><path class="st3" d="M882.4 64.8v6.8l15.9-3.4-15.9-3.4zm-89.3 6.8v-6.8l-15.9 3.4 15.9 3.4z"/><path class="st2" d="M882.4 68.2h-89.3m-15.2 71.6V65.1m120.5 74.7V65.1"/><path class="st3" d="M759.3 71.6v-6.8l-15.9 3.4 15.9 3.4zm3.1-6.8v6.8l15.9-3.4-15.9-3.4z"/><path class="st2" d="M759.3 68.2h3.1m-19.2 41V65.1"/><path class="st3" d="M759.5 95.7v-6.8l-15.9 3.4 15.9 3.4zm63-6.8v6.8l15.9-3.4-15.9-3.4z"/><path class="st2" d="M759.5 92.3h63m15.7 84.1v-14.9m0-4.5v-4.6m0-4.4v-14.9m0 57.8v-14.5m0-43.3v-3.6m0-4.6v-4.4m0-8.1v-23m35.8 2.9h-35.8"/><path class="st4" d="M696 265.6h-7.1l3.5 16.6 3.6-16.6zm-7.1-93.5h7.1l-3.6-16.6-3.5 16.6z"/><path class="st5" d="M692.4 265.6v-93.5"/><path class="st2" d="M741.9 282.7h-52.5m73.3-127.5h-73.3"/><path class="st0" d="M194.7 120v161.8m0-161.8l3.7-3.8m-3.7 165.7l3.7 3.7V116.2l38.3-.9m-38.3 170.3l38.2 1"/><path class="st1" d="M254.9 267.8h1l1.2-.4.9-.4 1-.6.9-.7.5-.8.7-1.1.5-1 .2-1 .1-1.2-.1-1-.2-1.1-.5-1-.7-1.1-.5-.8-.9-.7-1-.5-.9-.5-1.2-.3h-2.3l-1 .3-1.1.5-.9.5-.8.7-.8.8-.6 1.1-.4 1-.2 1.1-.1 1 .1 1.2.2 1 .4 1 .6 1.1.8.8.8.7.9.6 1.1.4 1 .4h1.3"/><path class="st1" d="M254.9 253.3h1.1l1.1.3 1 .4 1.1.6.9.8.7.8.6 1.2.4 1 .4 1.2v2.2l-.4 1.1-.4 1.2-.6.9-.7.9-.9.8-1.1.6-1 .5-1.1.2h-2.4l-1.1-.2-1.1-.5-1-.6-.7-.8-.9-.9-.6-.9-.5-1.2-.2-1.1-.1-1.2.1-1 .2-1.2.5-1 .6-1.2.9-.8.7-.8 1-.6 1.1-.4 1.1-.3h1.3m0-120.5l1.1.1 1.1.4 1 .4 1.1.6.9.7.7.9.6 1 .4 1.1.4 1.1v2.4l-.4 1-.4 1.2-.6.9-.7.8-.9.8-1.1.6-1 .5-1.1.2-1.1.2-1.3-.2-1.1-.2-1.1-.5-1-.6-.7-.8-.9-.8-.6-.9-.5-1.2-.2-1-.1-1.3.1-1.1.2-1.1.5-1.1.6-1 .9-.9m0 0l.7-.7 1-.6 1.1-.4 1.1-.4 1.3-.1"/><path class="st1" d="M254.9 150.8l1.3-.2 1.3-.1 1.3-.5 1.3-.5 1.1-1 1.1-.8.9-1 .7-1.3.6-1.1.4-1.3.4-1.4.1-1.4-.1-1.3-.4-1.3-.4-1.3-.6-1.4-.7-1-.9-1.1-1.1-.9-1.1-.8-1.3-.7-1.3-.4-1.3-.3h-2.8l-1.4.3-1.2.4-1.3.7-1.2.8-1 .9-1 1.1-.7 1-.5 1.4-.5 1.3-.3 1.3v2.7l.3 1.4.5 1.3.5 1.1.7 1.3 1 1 1 .8 1.2 1 1.3.5 1.2.5 1.4.1 1.5.2m0 120.4l1.3-.1 1.3-.2 1.3-.5 1.3-.6 1.1-.8 1.1-.9.9-.9.7-1.3.6-1.1.4-1.4.4-1.3.1-1.5-.1-1.4-.4-1.3-.4-1.3-.6-1.2-.7-1.3-.9-1-1.1-.8-1.1-.8-1.3-.6-1.3-.5-1.3-.2-1.3-.1-1.5.1-1.4.2-1.2.5-1.3.6-1.2.8-1 .8-1 1-.7 1.3-.5 1.2-.5 1.3-.3 1.3v2.9l.3 1.3.5 1.4.5 1.1.7 1.3 1 .9 1 .9 1.2.8 1.3.6 1.2.5 1.4.2 1.5.1"/><path class="st1" d="M254.9 147.4l1-.1 1.2-.4.9-.2 1-.6.9-.8.5-.8.7-.9.5-1.1.2-1.1.1-1.2-.1-1.1-.2-1.1-.5-1-.7-.9-.5-.9-.9-.8-1-.5-.9-.5-1.2-.1-1-.1-1.3.1-1 .1-1.1.5-.9.5-.8.8-.8.9-.6.9-.4 1-.2 1.1-.1 1.1.1 1.2.2 1.1.4 1.1.6.9.8.8.8.8.9.6 1.1.2 1 .4 1.3.1"/><path class="st1" d="M254.9 147.3l1-.2 1.2-.2 1-.3.9-.7.9-.7.5-.9.7-1.1.5-1 .1-1.1.1-1.1-.1-1.1-.3-1.1-.6-1.2-.6-.8-.8-.8-.8-.7-1.1-.4-1-.5-1-.1h-1.3l-1.2.1-1 .5-.9.4-.8.7-1 .8-.5.8-.5 1.2-.3 1.1-.2 1.1v1.1l.4 1.1.2 1 .6 1.1.8.9.8.7.9.7 1.1.3 1 .2 1.3.2m0 120.2h1l1.2-.2 1-.5.9-.5.9-.8.5-.9.7-.9.5-1 .1-1.2.1-1-.1-1.3-.3-1-.6-1.1-.6-.9-.8-.8-.8-.6-1.1-.7-1-.2-1-.1h-1.3"/><path class="st1" d="M254.2 253.8l-1.2.1-1 .2-.9.7-.8.6-1 .8-.5.9-.5 1.1-.3 1-.2 1.3v1l.4 1.2.2 1 .6.9.8.9.8.8.9.5 1.1.5 1 .2h1.3m8.9-26.5l.9-.2.8-.2.8-.3.7-.7.5-.7.4-.7.3-.9v-1l-.1-.9-.3-.7-.4-.8-.6-.7-.8-.4-.9-.5-.9-.1h-.9l-.8.1-.8.5-.8.4-.6.7-.4.8-.3.7-.2.9v1l.3.9.4.7.6.7.7.7.8.3.8.2.8.2"/><path class="st1" d="M263.8 231.8h1l.8.4.8.4.7.6.7.7.4.8.3.8v2l-.3.9-.4.7-.7.8-.7.6-.8.5-.8.3h-1.9l-1-.3-.7-.5-.8-.6-.5-.8-.5-.7-.2-.9v-2l.2-.8.5-.8.5-.7.8-.6.7-.4 1-.4h.9m0-72.2l1 .1.8.4.8.2.7.6.7.8.4.8.3.9v1.9l-.3.8-.4.8-.7.7-.7.6-.8.4-.8.4-1 .1-.9-.1-1-.4-.7-.4-.8-.6-.5-.7-.5-.8-.2-.8v-1.9l.2-.9.5-.8.5-.8.8-.6.7-.2 1-.4.9-.1"/><path class="st1" d="M263.8 171.3l1.1-.1 1.1-.3 1-.4 1.1-.6.8-.8.7-.9.5-.8.4-1.1.2-1.1V164l-.1-1-.2-1.2-.5-.9-.7-1-.8-.7-.9-.7-.9-.5-1.1-.5-1.1-.2h-1.1l-1.1.2-1.1.5-1 .5-.9.7-.7.7-.7 1-.5.9-.2 1.2-.1 1v1.2l.2 1.1.3 1.1.6.8.7.9.8.8 1.1.6 1 .4 1 .3 1.1.1m0 72.2h1.1l1.1-.3 1-.5 1.1-.6.8-.7.7-.9.5-.9.4-1.1.2-1.1v-1.1l-.1-1.1-.2-1.1-.5-1-.7-.9-.8-.7-.9-.8-.9-.5-1.1-.4-1.1-.2h-1.1l-1.1.2-1.1.4-1 .5-.9.8-.7.7-.7.9-.5 1-.2 1.1-.1 1.1v1.1l.2 1.1.3 1.1.6.9.7.9.8.7 1.1.6 1 .5 1 .3h1.1"/><path class="st1" d="M263.8 168.6h.9l.8-.2.8-.5.7-.5.5-.8.4-.7.3-1v-.9"/><path class="st1" d="M268.2 164l-.1-.8-.3-.8-.4-.7-.6-.8-.8-.5-.9-.2-.9-.1h-.9l-.8.1-.8.2-.8.5-.6.8-.4.7-.3.8-.2.8v.9l.3 1 .4.7.6.8.7.5.8.5.8.2h.8l.9-.1.8-.3.8-.3.6-.5.6-.8.3-.7.3-1v-.9l-.2-.7-.3-.9-.5-.7-.5-.6-.7-.4-.8-.5-.9-.1h-.8l-.9.1-.8.5-.6.4-.7.6-.3.7-.4.9-.1.7v.9l.1 1 .5.7.6.8.6.5.8.3.8.3.8.1m0 72.2h.9l.8-.3.8-.5.6-.5.6-.6.3-.7.3-.9v-1l-.2-.9-.3-.7-.5-.8-.5-.6-.7-.5-.8-.4-.9-.1h-.8l-.9.1-.8.4-.6.5-.7.6-.3.8-.4.7-.1.9v1l.1.9.5.7.6.6.6.5.8.5.8.3h.8m195.7 40.9v-2m0-111.3v-49.2m-63.2 56.9h1.5l1.3-.3 1.5-.5 1.1-.5 1.4-.7 1.1-1 1-1.1.9-1.1.7-1.3.6-1.4.3-1.3.4-1.5v-1.5l-.2-1.4-.3-1.4-.4-1.4-.6-1.2-.9-1.3-1-1-1-1.1-1.2-.9-1.3-.6-1.3-.6-1.4-.2-1.5-.2h-1.5l-1.5.2-1.3.2-1.4.6-1.2.6-1.3.9-.9 1.1-1 1-.9 1.3-.6 1.2-.4 1.4-.4 1.4-.1 1.4v1.5l.1 1.5.5 1.3.6 1.4.8 1.3.9 1.1.8 1.1 1.3 1 1.1.7 1.3.5 1.5.5 1.4.3h1.5m0 72.3l1.5-.2 1.3-.1 1.5-.4 1.1-.7 1.4-.8 1.1-1 1-1 .9-1.2.7-1.1.6-1.4.3-1.4.4-1.4v-1.5l-.2-1.5-.3-1.4-.4-1.2-.6-1.4-.9-1.2-1-1.1-1-1-1.2-.9-1.3-.7-1.3-.4-1.4-.4-1.5-.2h-1.5l-1.5.2-1.3.4-1.4.4-1.2.7-1.3.9-.9 1-1 1.1-.9 1.2-.6 1.4-.4 1.2-.4 1.4-.1 1.5v1.5l.1 1.4.5 1.4.6 1.4.8 1.1.9 1.2.8 1 1.3 1 1.1.8 1.3.7 1.5.4 1.4.1 1.5.2"/><path class="st1" d="M411.9 236.7v-25.3l1-1.5.7-1.6.8-1.8.6-1.7.4-1.6.1-1.9v-1.7l-.1-1.7-.4-1.9-.6-1.6-.8-1.7-.7-1.5-1-1.5v-25.3l-.1-1.9-.2-1.6-.4-1.6-.8-1.5-.7-1.4-.9-1.5-1.2-1.3-1.2-1.1-1.3-1.1-1.5-.9-1.5-.7-1.6-.5-1.7-.4-1.7-.1h-1.7l-1.6.1-1.7.4-1.6.5-1.5.7-1.5.9-1.4 1.1-1.1 1.1-1.2 1.3-.9 1.5-.8 1.4-.7 1.5-.5 1.6-.2 1.6v31.4l-.7 1.7-.2 1.7-.4 1.6v3.2l.4 1.7.2 1.6.7 1.5v31.4l.2 1.6.5 1.6.7 1.7.8 1.5.9 1.3 1.2 1.3 1.1 1.3 1.4 1 1.5.7 1.5.7 1.6.7 1.7.2 1.6.4h1.7l1.7-.4 1.7-.2 1.6-.7 1.5-.7 1.5-.7 1.3-1 1.2-1.3 1.2-1.3.9-1.3.7-1.5.8-1.7.4-1.6.2-1.6.1-1.6"/><path class="st1" d="M397.5 214.6h1.6l1.5-.2 1.6-.5 1.4-.7 1.5-.7 1.3-1 1.2-1 1.1-1.2.8-1.3.8-1.5.6-1.4.4-1.5.3-1.6.2-1.5-.2-1.6-.3-1.6-.4-1.5-.6-1.5-.8-1.4-.8-1.4-1.1-1.1-1.2-1.1-1.3-.8-1.5-.8-1.4-.6-1.6-.4-1.5-.4-1.6-.1-1.7.1-1.5.4-1.6.4-1.4.6-1.5.8-1.2.8-1.2 1.1-1 1.1-1 1.4-.8 1.4-.5 1.5-.5 1.5-.2 1.6-.3 1.6.3 1.5.2 1.6.5 1.5.5 1.4.8 1.5 1 1.3 1 1.2 1.2 1 1.2 1 1.5.7 1.4.7 1.6.5 1.5.2h1.7m-16.8-7.7l-.7-1.5-.2-1.6-.4-1.7v-3.2l.4-1.6.2-1.7.7-1.7m31.2 17.5v25.3m0-47l1 1.5.7 1.5.8 1.7.6 1.6.4 1.9.1 1.7v1.7l-.1 1.9-.4 1.6-.6 1.7-.8 1.8-.7 1.6-1 1.5m0 25.3l-.1 1.6-.2 1.6-.4 1.6-.8 1.7-.7 1.5-.9 1.3-1.2 1.3-1.2 1.3-1.3 1-1.5.7-1.5.7-1.6.7-1.7.2-1.7.4h-1.7l-1.6-.4-1.7-.2-1.6-.7-1.5-.7-1.5-.7-1.4-1-1.1-1.3-1.2-1.3-.9-1.3-.8-1.5-.7-1.7-.5-1.6-.2-1.6v-1.6m31.2-72.3v25.3m-31.2 47v-29.8m0-42.5v-1.9l.2-1.6.5-1.6.7-1.5.8-1.4.9-1.5 1.2-1.3 1.1-1.1 1.4-1.1 1.5-.9 1.5-.7 1.6-.5 1.7-.4 1.6-.1h1.7l1.7.1 1.7.4 1.6.5 1.5.7 1.5.9 1.3 1.1 1.2 1.1 1.2 1.3.9 1.5.7 1.4.8 1.5.4 1.6.2 1.6.1 1.9m-31.2 29.5v-29.5"/><path class="st1" d="M396.3 153.3h1.3l1.5.2 1.4.5 1.1.5 1.2.7 1 1 1.2 1 .8 1.3.6 1.1.5 1.3.4 1.4.1 1.4v1.5l-.1 1.2-.4 1.4-.5 1.3-.6 1.3-.8 1.1-1.2 1.1-1 .9-1.2.7-1.1.6-1.4.4-1.5.4h-2.8l-1.4-.4-1.3-.4-1.1-.6-1.3-.7-1.1-.9-1-1.1-.9-1.1-.6-1.3-.5-1.3-.4-1.4-.1-1.2v-1.5l.1-1.4.4-1.4.5-1.3.6-1.1.9-1.3 1-1 1.1-1 1.3-.7 1.1-.5 1.3-.5 1.4-.2h1.5m0 72.1l1.3.1 1.5.3 1.4.5 1.1.6 1.2.7 1 .9 1.2 1 .8 1.1.6 1.2.5 1.3.4 1.3.1 1.5v1.4l-.1 1.5-.4 1.2-.5 1.4-.6 1.2-.8 1.1-1.2 1-1 1-1.2.8-1.1.6-1.4.3-1.5.3-1.3.1-1.5-.1-1.4-.3-1.3-.3-1.1-.6-1.3-.8-1.1-1-1-1-.9-1.1-.6-1.2-.5-1.4-.4-1.2-.1-1.5v-1.4l.1-1.5.4-1.3.5-1.3.6-1.2.9-1.1 1-1 1.1-.9 1.3-.7 1.1-.6 1.3-.5 1.4-.3 1.5-.1m1.2-38.6l1.5.2 1.6.2 1.5.5 1.4.6 1.2.8 1.4.8 1.2 1 .9 1.3.8 1.2.8 1.5.6 1.2.5 1.8.1 1.5v3.1l-.3 1.4-.5 1.5-.7 1.4-.7 1.2-1.1 1.4-1 1.1-1.3 1-1.2.7-1.4.8-1.4.6-1.5.3-1.6.1h-1.5l-1.8-.1-1.4-.3-1.5-.6-1.3-.8-1.3-.7-1.3-1-1-1.1-1.1-1.4-.7-1.2-.5-1.4-.5-1.5-.5-1.4v-3.1l.2-1.5.4-1.8.6-1.2.8-1.5.8-1.2.9-1.3 1.2-1 1.4-.8 1.4-.8 1.2-.6 1.5-.5 1.7-.2 1.5-.2m61.7 76.9v1.5l.2.1v1h.1v.2m0 0l.5 1.4.5 1.1 1 1.3.8.9 1 1 1.3.8 1.1.5 1.3.5 1.4.2h2.9l1.3-.2 1.3-.5 1.2-.5 1.2-1 1-.9.9-1 .7-1.2.7-1.1.5-1.4.2-1.4v-2.8l-.2-1.4-.5-1.2-.7-1.2-.7-1.3-.9-1-1-.8-1.2-.8-1.2-.6-1.3-.5-1.3-.3-1.5-.1-1.4.1-1.4.2-1.3.5-1.1.6-1.3.7-1 .9-.8 1-1 1.2-.5 1.1-.5 1.4m0 0v.5h-.1v.7l-.2.2v1.6"/><path class="st1" d="M459.2 263.7h.4l.1-1.6.4-1.5.6-1.4.8-1.3 1-1.2 1.2-1.1 1.1-.8 1.5-.7 1.5-.3 1.5-.2 1.5.2 1.6.2 1.3.5 1.4.8 1.4.8 1 1.3.8 1.1.6 1.3.5 1.5.3 1.6v1.5l-.3 1.5-.5 1.5-.6 1.4-.8 1.3-1 1-1.4.9-1.4.7-1.3.7-1.6.3h-1.5l-1.5-.2-1.5-.4-1.5-.6-1.1-.9-1.2-.9-1-1.2-.8-1.4-.6-1.4-.4-1.5-.1-1.5m-.4-79.6v1.6l.2.3v.7l.1.1v.3m0-5.8v.3l-.1.2v.7l-.2.1v1.5m-46.7 52.6v-25.2M380 236.7v1.6l.4 1.6.4 1.6.6 1.7.7 1.5 1 1.5 1.2 1.2 1.1 1.3 1.3 1 1.4 1 1.6.7 1.5.5 1.6.5 1.9.3 1.6.2 1.6-.2 1.8-.3 1.7-.5 1.4-.5 1.7-.7 1.3-1 1.4-1 1.1-1.3 1.1-1.2.9-1.5.9-1.5.6-1.7.3-1.6.4-1.6v-1.6M380 207v29.7m0-42.9l-.6 1.6-.2 1.7-.3 1.6v3.4l.3 1.7.2 1.6.6 1.6m0-42.6v29.4m32.5-29.4v-1.9l-.4-1.6-.3-1.6-.6-1.6-.9-1.5-.9-1.3-1.1-1.4-1.1-1.2-1.4-1-1.3-1-1.7-.8-1.4-.6-1.7-.5-1.8-.2h-3.2l-1.9.2-1.6.5-1.5.6-1.6.8-1.4 1-1.3 1-1.1 1.2-1.2 1.4-1 1.3-.7 1.5-.6 1.6-.4 1.6-.4 1.6v1.9m32.5 25v-25m0 47.1l1-1.5.9-1.6.6-1.6.6-1.9.3-1.7.2-1.9v-1.7l-.2-2-.3-1.6-.6-1.7-.6-1.6-.9-1.8-1-1.5m47-2.3l.5 1.4.5 1.2 1 1.1.8 1.1 1 .9 1.3.7 1.1.7 1.3.3 1.4.4h1.4l1.5-.3 1.3-.2 1.3-.5 1.2-.5 1.2-.7 1-1 .9-1 .7-1.3.7-1.1.5-1.3.2-1.4v-2.9l-.2-1.2-.5-1.4-.7-1.2-.7-1.1-.9-1.1-1-.9-1.2-.7-1.2-.8-1.3-.5-1.3-.2h-2.9l-1.4.2-1.3.5-1.1.6-1.3.8-1 .9-.8.9-1 1.3-.5 1.2-.5 1.3"/><path class="st1" d="M459.2 184.1h.4l.1-1.5.4-1.5.6-1.4.8-1.2 1-1.2 1.2-1 1.1-1 1.5-.5 1.5-.5 1.5-.1h1.5l1.6.2 1.3.7 1.4.7 1.4.9 1 1.1.8 1.2.6 1.4.5 1.5.3 1.5v1.6l-.3 1.5-.5 1.5-.6 1.3-.8 1.3-1 1.1-1.4 1-1.4.7-1.3.5-1.6.4h-1.5l-1.5-.1-1.5-.5-1.5-.7-1.1-.8-1.2-1-1-1.3-.8-1.3-.6-1.4-.4-1.5-.1-1.6m-79.6 9.7l.2.1h.5M380 207h.5v-.1h.2m31.2 29.8h.6m0-25.2h-.1v-.1h-.5m.6-22h-.5v.3h-.1m-31.2 47h-.7m32.5-72.3h-.6m-31.9 0h.7m-144.1-49.1v.4l-.2.4-.5.2-.4.1v68.5h.9l.2-.2"/><path class="st1" d="M236.1 114.7l-.2.1v.3h-.1v.4h-.1v.7l-.2.1v.1m0 68.5v1.3l.2 1.3v3.8l.1 1.4v2.6l.1 1.2v7.8l-.1 1.4v2.6l-.1 1.2v4l-.2 1.2v1.3h.4l.5.1h.2v.1-2.6l.3-1.4v-6.5l.1-1.4v-7.8l-.1-1.4v-6.5l-.3-1.4v-2.5m-1.1 99.8h.4l.5.4.2.3v.5"/><path class="st1" d="M235.5 216v68.6h.2v.8l.1.2v.1l.1.2v.1h.2v.1m0-171.4h.4l.4-.1.2-.4m0 172.5l-.2-.2-.4-.1-.4-.3m223.4-25.4v-73.6m0-5.8v-12.9m0 111.3v-13.2m9.4 12.8l-9.4.4m24.7-16l-.2 1.6-.1 1.5-.5 1.7-.6 1.5-.8 1.5-.8 1.2-.9 1.3-1.2 1.2-1.1 1-1.4.9-1.5.7-1.5.6-1.5.5-1.6.3-1.6.1m15.3-95.2v79.6m-15.3-95.2l1.6.1 1.6.4 1.5.4 1.5.6 1.5.7 1.4.9 1.1 1.1 1.2 1.1.9 1.3.8 1.5.8 1.3.6 1.5.5 1.6.1 1.6.2 1.5m-24.7-15.7l9.4.1m-219.4-49.3h210m-221 .2l11-.2m0 162.5l-11-.3m221 .3h-210m-.2 6.2h210.2m-210-6.2v2.9l-.2 1v2.3m210.2-174.7H249.3m.2 6v-3l-.2-.9v-2.1l-10.8.3m0 174l10.8.4m-10.8-6.5v-162m0-5.9h-.6l-.5.3-.3.4-.2.5-.3.6m0 4.1v65.3m0-69.4v4.1m0 96.8v65.2m0 0h1.9m0-162h-1.9m1.9 0v-5.9m-1.9 172.2l.3.4.2.6.3.4.5.3.6.1m0 0v-6.1m-1.9 0v4.3m233.2-12l1.3-.2 1.2-.3 1.3-.5 1.3-.5.9-.7 1-1 1-1 .5-1 .6-1.2.5-1.4.2-1.3v-2.5l-.3-1.4-.6-1.1-.6-1.2-.8-1-.8-1.2-1.1-.7-1.2-.7-1.2-.4-1.4-.5-1.2-.1H469l-1.3.1-1.3.5-1.1.4-1.2.7-1 .7-.9 1.2-1 1-.5 1.2-.5 1.1-.2 1.4-.3 1.2v1.3l.4 1.3.3 1.4.6 1.2.7 1 .9 1 .9 1 1.2.7 1.2.5 1.1.5 1.4.3 1.4.2m0-79.5h1.3l1.2-.4 1.3-.4 1.3-.6.9-.8 1-.8 1-1.1.5-1 .6-1.4.5-1.2.2-1.3v-2.7l-.3-1.2-.6-1.3-.6-1.2-.8-1-.8-1-1.1-.9-1.2-.6-1.2-.5-1.4-.4-1.2-.1H469l-1.3.1-1.3.4-1.1.5-1.2.6-1 .9-.9 1-1 1-.5 1.2-.5 1.3-.2 1.2-.3 1.4v1.3l.4 1.3.3 1.2.6 1.4.7 1 .9 1.1.9.8 1.2.8 1.2.6 1.1.4 1.4.4h1.4m-223.9 68l.3 1.2.5 1.2.6 1.1.7 1 .9.8 1 .8 1.2.6 1.2.5 1.2.2h2.5l1.2-.2 1.3-.5.9-.6 1-.5 1-1 .8-1 .7-1 .4-1.2.4-1.3.1-1.1V260l-.1-1.4-.4-1.1-.6-1.3-.5-.9-1-.9-.9-1-1-.5-1.2-.6-1.1-.4-1.3-.2h-1.2l-1.2.1m-7.4-110l.3 1.3.5 1 .6 1.2.7.9.9.9 1 .7 1.2.6 1.2.5 1.2.3 1.2.1 1.3-.1 1.2-.2 1.3-.5.9-.5 1-.7 1-1 .8-.9.7-.9.4-1.3.4-1.1.1-1.4v-1.2l-.1-1.1-.4-1.3-.6-1.2-.5-1-1-1-.9-.7-1-.8-1.2-.5-1.1-.5-1.3-.1-1.2-.1-1.2.1m4.7 106.4l.1.8.5 1.1.6.9.7.8.9.6 1 .3.9.3 1.1.1 1-.1 1.1-.3 1-.3.7-.6.8-.8.7-.9.3-1.1.3-.8.2-1-.2-1.2-.3-.9-.3-1-.7-.8-.8-.7-.7-.6-1-.5-1.1-.3-1-.1-1.1.1m-4.7-65.3l.1 1 .5 1 .6.8.7.8.9.6 1 .4.9.4h2.1l1.1-.4 1-.4.7-.6.8-.8.7-.8.3-1 .3-1 .2-1-.2-1.1-.3-1-.3-.9-.7-1-.8-.7-.7-.5-1-.5-1.1-.2-1-.3-1.1.3m133.6 1.1l.8.1.9.4 1 .2.5.6.6.8.5.8.3.9.1 1-.1.9-.3.8-.5.8-.6.7-.5.6-1 .4-.9.4-.8.1-.9-.1-.9-.4-.9-.4-.5-.6-.7-.7-.5-.8-.2-.8-.1-.9.1-1 .2-.9.5-.8.7-.8.5-.6.9-.2.9-.4.9-.1"/><path class="st1" d="M390.3 163.3l.3-1 .5-.9.6-1 .7-.7.9-.5.9-.5 1.1-.2 1-.3 1 .3 1.1.2.9.5.8.5.8.7.6 1 .5.9.2 1v2.1l-.2 1-.5 1-.6.8-.8.8-.8.6-.9.4-1.1.4h-2"/><path class="st1" d="M396.3 154l1.3.1 1.4.1 1.2.5 1.3.5 1 .8 1.1 1 .9 1 .7 1.2.6 1.1.4 1.4.4 1.3.1 1.4-.1 1.2-.4 1.4-.4 1.4-.6 1.2-.7 1-.9 1-1.1 1-1 .7-1.3.5-1.2.5-1.4.3-1.3.2-1.4-.2-1.3-.3-1.3-.5-1.2-.5-1.3-.7-.8-1-.9-1-.9-1-.6-1.2-.5-1.4-.1-1.4-.1-1.2.1-1.4.1-1.3.5-1.4.6-1.1.9-1.2.9-1 .8-1 1.3-.8 1.2-.5 1.3-.5 1.3-.1 1.4-.1"/><path class="st1" d="M396.3 153.6l1.3.1 1.5.3 1.1.4 1.4.7 1.2.8 1 .8.9 1.1.7 1.2.7 1.2.5 1.4.2 1.3.1 1.5-.1 1.2-.2 1.4-.5 1.4-.7 1.3-.7 1.2-.9 1.1-1 .8-1.2.8-1.4.6-1.1.4-1.5.3-1.3.2-1.4-.2-1.5-.3-1.3-.4-1.1-.6-1.3-.8-1-.8-.8-1.1-.8-1.2-.6-1.3-.5-1.4-.3-1.4-.1-1.2.1-1.5.3-1.3.5-1.4.6-1.2.8-1.2.8-1.1 1-.8 1.3-.8 1.1-.7 1.3-.4 1.5-.3 1.4-.1m0 78.2h.8l.9.4 1 .4.5.6.6.7.5.8.3.8.1 1.2-.1.8-.3.9-.5.7-.6.8-.5.6-1 .5-.9.3h-1.7l-.9-.3-.9-.5-.5-.6-.7-.8-.5-.7-.2-.9-.1-.8.1-1.2.2-.8.5-.8.7-.7.5-.6.9-.4.9-.4h.9"/><path class="st1" d="M390.3 235.5l.3-.9.5-1 .6-.8.7-.7.9-.6.9-.5 1.1-.3 1-.1 1 .1 1.1.3.9.5.8.6.8.7.6.8.5 1 .2.9v2.2l-.2.8-.5 1.1-.6.9-.8.8-.8.6-.9.3-1.1.3-1 .1-1-.1"/><path class="st1" d="M396.3 226.3h1.3l1.4.2 1.2.5 1.3.6 1 .8 1.1.8.9 1 .7 1.3.6 1.1.4 1.3.4 1.3.1 1.5-.1 1.3-.4 1.3-.4 1.2-.6 1.2-.7 1.2-.9 1.1-1.1.8-1 .8-1.3.6-1.2.4-1.4.4h-2.7l-1.3-.4-1.3-.4-1.2-.6-1.3-.8-.8-.8-.9-1.1-.9-1.2-.6-1.2-.5-1.2-.1-1.3-.1-1.3.1-1.5.1-1.3.5-1.3.6-1.1.9-1.3.9-1 .8-.8 1.3-.8 1.2-.6 1.3-.5 1.3-.2h1.4"/><path class="st1" d="M396.3 225.9h1.3l1.5.4 1.1.3 1.4.6 1.2.9 1 1 .9 1 .7 1.2.7 1.1.5 1.4.2 1.4.1 1.5-.1 1.3-.2 1.3-.5 1.3-.7 1.4-.7 1-.9 1.1-1 1-1.2.7-1.4.7-1.1.5-1.5.2h-2.7l-1.5-.2-1.3-.5-1.1-.7-1.3-.7-1-1-.8-1.1-.8-1-.6-1.4-.5-1.3-.3-1.3-.1-1.3.1-1.5.3-1.4.5-1.4.6-1.1.8-1.2.8-1 1-1 1.3-.9 1.1-.6 1.3-.3 1.5-.4h1.4m8.7-25.4l-.3 1.2-.2 1-.5 1.1-.5 1-.8.9-1 .7-.8.6-1.2.5-1.1.3h-2.3l-1-.3-1.3-.5-.8-.6-.9-.7-.7-.9-.6-1-.5-1.1-.3-1-.1-1.2.1-1.1.3-1.3.5-1 .6-1.1.7-.7.9-.9.8-.6 1.3-.4 1-.2 1.2-.2 1.1.2 1.1.2 1.2.4.8.6 1 .9.8.7.5 1.1.5 1 .2 1.3.3 1.1"/><path class="st1" d="M399.1 191.5l1.1.4 1.3.4 1 .6 1 .8.8.8.8 1.1.6 1.2.4 1.2.3 1.1.2 1.3-.2 1.2-.2 1.2-.4 1.3-.6 1-.7 1.1-.9.8-.9.8-1.1.7-1.1.5-1.2.3-1.4.1h-1.1l-1.3-.1-1.2-.3-1.1-.6-1.1-.6-.9-.9-.9-.8-.7-1.2-.5-1.1-.4-1.2-.1-1.3-.3-1.1.3-1.3"/><path class="st1" d="M410.3 200.5l-.1 1.5-.3 1.4-.4 1.5-.6 1.4-.8 1.4-.9 1.1-1.1 1.1-1.1 1-1.3.7-1.5.6-1.3.7-1.5.2-1.5.1-1.6-.1-1.5-.1-1.5-.5-1.4-.5-1.3-.7-1.1-.8-1.3-1.1-.8-1.1-.9-1.4-.8-1.3-.5-1.4-.3-1.5-.3-1.5v-1.5l.3-1.5.3-1.4.5-1.5.8-1.4.9-1.1.8-1.3 1.3-.9 1.1-.9 1.3-.8 1.4-.6 1.5-.3 1.5-.3h1.6l1.5.1 1.5.4 1.3.4 1.5.6 1.3.9 1.1.8 1.1 1.3.9 1.2.8 1.1.6 1.5.4 1.5.3 1.5.1 1.5"/><path class="st1" d="M410.5 200.5l-.1 1.5-.1 1.4-.5 1.5-.6 1.4-.8 1.4-1 1.1-1 1.2-1.1.9-1.3.9-1.3.7-1.5.5-1.5.2-1.4.4h-1.5l-1.5-.4-1.5-.2-1.5-.5-1.3-.7-1.4-.9-1-.9-1.1-1.2-1-1.1-.8-1.4-.6-1.4-.5-1.5-.1-1.4-.1-1.5.1-1.5.1-1.6.5-1.4.6-1.5.8-1.3 1-1.2 1.1-1.1 1-1 1.4-.8 1.3-.6 1.5-.7 1.5-.2 1.5-.1h1.5l1.4.1 1.5.2 1.5.7 1.3.6 1.3.8 1.1 1 1 1.1 1 1.2.8 1.3.6 1.5.5 1.4.1 1.6.1 1.5m79-80.6v-4.2m0 165.2v-161m0 165.2v-4.2m-1.8-161h1.8m0-4.2v-.6l-.3-.4-.5-.5-.3-.2h-.7"/><path class="st1" d="M487.7 114h.2v4.8l-.2 1.1m0 161h1.8m-1.8-161v161m0 6.2l.7-.2.3-.3.5-.2.3-.7v-.6"/><path class="st1" d="M487.7 280.9l.2 1.1v4.9l-.2.2m-18.7-6.6l-9.5.3m25.9-17.1l-.1 1.6-.3 1.9-.3 1.6-.8 1.6-.7 1.6-.9 1.4-1.1 1.4-1.1 1.3-1.4 1-1.5 1.1-1.5.7-1.6.8-1.7.3-1.8.4-1.6.1m16.4-96.4v79.6M469 167.4l1.6.1 1.8.3 1.7.4 1.6.8 1.5.7 1.5 1 1.4 1.1 1.1 1.3 1.1 1.3.9 1.5.7 1.5.8 1.6.3 1.8.3 1.7.1 1.6M459.5 167l9.5.4"/><path class="st1" d="M459.5 166.9l9.5.2 1.6.3 1.8.2 1.7.5 1.6.5 1.6 1 1.5 1 1.4 1 1.1 1.4 1.1 1.3 1 1.5.8 1.5.6 1.7.5 1.8.2 1.7v83l-.2 1.7-.5 1.7-.6 1.6-.8 1.5-1 1.5-1.1 1.5-1.1 1.2-1.4 1.2-1.5.9-1.6.9-1.6.6-1.7.6-1.8.3-1.6.1-9.5.1m9.5-113.5v-.3m16.4 17h.1m-.1 79.6h.1M469 280.5v.3m-9.5 7.1l28.2-.8m0-6.2l-28.2.8m0 0v6.2m0-168.7l28.2.7m0-5.9l-28.2-.8v6m30.6 159.9v-21.5m3.1-68.7v-72m-1.1-1.3v74.5m-2 89v.2l-.2.5-.4.2m0-23.4l.4.3.2.2v.5m2-142l.4.1.3.4.3.2.1.6m0 72l-.1.4-.3.5-.3.3h-.4m-5.6-37.2l-.1-1.5-.3-1.5-.5-1.4-.6-1.2-.7-1.4-.9-1.1-1.1-1-1.2-.8-1.3-.8-1.2-.6-1.5-.5-1.5-.1-1.5-.1-1.5.1-1.3.4-1.5.4-1.4.7-1.2.7-1 1.1-1 1-1 1.3-.7 1.2-.4 1.4-.5 1.4-.1 1.5v1.5l.1 1.5.5 1.4.4 1.5.7 1.2 1 1.2 1 1.2 1 .8 1.2.9 1.4.6 1.5.6 1.3.3 1.5.1 1.5-.1 1.5-.1 1.5-.5 1.2-.5 1.3-.8 1.2-1 1.1-1 .9-1 .7-1.3.6-1.4.5-1.3.3-1.5.1-1.5h-1.2v1.5l-.4 1.5-.6 1.4-.8 1.3-.8 1.3-1 1-1.3.9-1.1.7-1.5.7-1.5.5-1.4.1-1.5-.1-1.5-.4-1.4-.4-1.5-.6-1.2-.9-1.1-1.1-1-1-.8-1.3-.7-1.4-.2-1.5-.3-1.5v-1.5l.3-1.5.2-1.4.6-1.4.9-1.2 1-1.2 1.1-.9 1.2-.9 1.5-.6 1.4-.5 1.5-.3 1.5-.1 1.4.1 1.5.4 1.3.6 1.3.8 1.3.8 1 1.1.8 1.4.8 1.1.6 1.5.4 1.5v1.5m-25.8-33.7v47.7m0 114v.8"/><path class="st1" d="M474.5 142.3l-1.5.2-1.4.3-1.1.4-1.3.6-1 .8-1.2.8-.8 1.2-.9 1.1-.6 1.2-.5 1.4-.2 1.2v2.7l.2 1.4.5 1.4.6 1.1.9 1.2.8 1 1.2.9 1 .7 1.3.6 1.1.5 1.4.3 1.5.1 1.3-.1 1.4-.3 1.4-.5 1.1-.6 1.2-.7 1-.9.9-1 .7-1.2.7-1.1.5-1.4.2-1.4.1-1.3-.1-1.4-.2-1.2-.5-1.4-.7-1.2-.7-1.1-.9-1.2-1-.8-1.2-.8-1.1-.6-1.4-.4-1.4-.3-1.3-.2m17.6 47.8l-2.6.1m2.6-74.6h-2.6m-18.9 152.9h.2v1.6m-.2-1.6l-.6.1h-.7l-.6-.1m0 1.6v-1.6m0 1.6l1.1.2 1-.2m3.7-7.4h1.6m-1.6 0l.1.6v.8l-.1.5m1.6.2h-1.6v-.2m1.6.2l.2-1.1-.2-1m-7.4-3.8v-1.8m0 1.8h1.9m.2-1.8v1.8h-.2m.2-1.8h-2.1m-3.9 7.5v.2h-1.6m1.6-.2v-1.9m-1.6 0h1.6m-1.6 0v2.1m7.4 3.7v-1l-.1-.1v-.7h-.1v-.7m-1.2 0h1.2m-1.2 0h-.2v1l-.1.2v.7l-.2.1v.5m5.8-5.8h-.4l-.2.1h-.8l-.1.1h-.9v.2m0 1.2v-1.2m0 1.2h.7v.1h.7l.1.2h.9m-5.8-5.7v.4m0 0h.2v1h.1v.9h.2v.1"/><path class="st1" d="M470.4 261.3l-.6-.1-.6.1m1.2 0v-.6l.1-.1v-.8l.1-.1v-.8m-5.8 5.7h.9l.2-.2h.8l.1-.1h.6"/><path class="st1" d="M467.4 263.1l-.2.6.2.6m0-1.2v-.2h-1.1v-.1h-.9v-.1h-.6m7.3.4l-.1-.2h-.5l-.1-.1h-.1m0 0l-.2-.1-.2-.1-.1-.3-.2-.1v-.1h-.1v-.3l-.1-.2v-.3m-1.2 0l-.2.2v.3l-.1.1v.2l-.2.1v.1h-.2v.3h-.1v.1h-.1l-.1.1h-.3l-.1.1h-.3l-.1.2m0 1.2h.3l.1.1h.4v.2h.1l.1.2.1.1.2.1.2.2v.1l.1.2v.4l.2.1m1.2 0v-.3h.1v-.4l.1-.1v-.2h.2v-.1h.1v-.1h.2v-.2h.2l.1-.2h.2v-.1h.5"/><path class="st1" d="M469.8 272.6h-1.4l-1.2-.2-1.1-.5-1.2-.7-.9-.7-.9-.9-.9-.8-.6-1.3-.5-1.1-.2-1.2-.2-1.1v-1.4l.3-1.2.2-1.2.6-1.2.8-1 .9-1 .9-.7 1-.8 1.3-.3 1.1-.5 1.4-.2h1.2l1.1.2 1.4.5 1 .3 1.1.8 1 .7.8 1 .7 1 .6 1.2.5 1.2.1 1.2v2.5l-.5 1.2-.4 1.1-.6 1.3-.7.8-.9.9-1.1.7-1.1.7-1.3.5-1.2.2h-1.1"/><path class="st1" d="M469.8 271.2h-1.3l-1.1-.2-1.1-.5-1-.5-.9-.7-.7-1-.7-1-.5-1-.3-1.1-.2-1.1v-1.3l.3-1.2.4-1 .5-1 .8-1.1.8-.8.9-.7 1.1-.4 1.1-.5 1.3-.1h1.2l1.1.1 1.1.5 1 .4 1 .7.8.8.7 1.1.6 1 .5 1 .1 1.2v2.4l-.5 1.1-.3 1-.7 1-.7 1-.9.7-1.1.5-1.1.5-1.1.2h-1.1"/><path class="st1" d="M469.8 254.8h-1.4l-1.2.3-1.1.4-1.3.6-.8.8-.9 1-.9 1-.6 1.1-.5 1.2-.2 1.1v2.6l.2 1.4.5 1.1.6 1.1.9 1 .9.9.8.7 1.3.6 1.1.5 1.2.3 1.4.1 1.1-.1 1.4-.3 1.2-.5 1-.6 1.1-.7.9-.9.7-1 .6-1.1.4-1.1.4-1.4.1-1.2-.1-1.4-.4-1.1-.4-1.2-.6-1.1-.7-1-.9-1-1.1-.8-1-.6-1.2-.4-1.4-.3h-1.1m-1.3 11.5l.2 3.8"/><path class="st1" d="M467 264.8l.5.1.4.1.4.3.2.5v.5m-5.3-1.5h3.8m0-2.2l-3.8.1m5.3-1.6v.4l-.2.4-.4.3-.4.4h-.5m1.7-5.5l-.2 4m2.3 0v-4m1.5 5.5h-.4l-.5-.4-.3-.3-.2-.4-.1-.4m5.3 1.6l-3.8-.1m0 0v.3m-1.5-1.8h-.4m-1.9 0h.5m-2 1.5v.3m0 1.9v-.5m1.5 2h.5m3.3-1.5h3.8m-5.3 1.5l.1-.5.2-.5.3-.3.5-.1.4-.1m-1.5 5.3v-3.8m0 0h-.4m1.9-1.5v-.5m-1.7-75.2h.2v1.6m-.2-1.6h-1.9m0 1.6v-1.6m0 1.6h2.1m3.7-7.5h.1l.3-.1h1.2m-1.6.1l.1.7v.7l-.1.6m1.6.2h-1l-.1-.2h-.5m1.6.2l.2-1.3-.2-1m-7.4-3.7v-1.6m0 1.6l.6-.1h.7l.6.1m.2-1.6v1.6h-.2m.2-1.6l-1-.3-1.1.3m-3.9 7.4h-.4v.2h-1.2m1.6-.2v-2m-1.6-.1h1.5v.1h.1m-1.6-.1v2.3m7.4 3.7v-.9l-.1-.2v-.8l-.1-.1v-.6m-1.2 0l.6.2.6-.2m-1.2 0v.2h-.2v.9l-.1.1v.8l-.2.1v.5m5.8-5.9h-.8v.2h-.8v.1h-.8m0 1.4v-1.4m0 1.4h.8l.1.1h.7l.2.2h.6m-5.8-5.8v.4m0 0l.2.2v.8l.1.1v.9h.2v.1"/><path class="st1" d="M470.4 181.9l-.6-.1-.6.1m1.2 0v-.6l.1-.2v-.7l.1-.1v-.9m-5.8 5.8h.6l.2-.2h.8v-.1h1m0-1.4l-.2.6.2.8m0-1.4h-.7l-.3-.1h-.7l-.1-.2h-.8m7.3.3h-.5l-.1-.1h-.1l-.1-.2m0 0h-.2l-.2-.1-.1-.1v-.3h-.2v-.1l-.1-.1v-.2h-.1v-.4m-1.2 0h-.2v.5l-.1.1v.1l-.2.1-.2.3v.1h-.1v.1h-.2v.2h-.4v.1h-.4m0 1.4h.4l.1.1h.3l.1.2h.1v.2h.1v.1h.2v.1l.2.1v.3l.1.1v.4h.2m1.2 0v-.3l.1-.1v-.4h.1v-.1l.2-.1.1-.1.2-.2.2-.2h.1l.1-.1h.6"/><path class="st1" d="M469.8 193.2h-1.4l-1.2-.3-1.1-.5-1.2-.5-.9-.7-.9-1-.9-1-.6-1-.5-1.2-.2-1.3-.2-1.1v-1.4l.3-1.2.2-1.1.6-1.2.8-1 .9-.9.9-1 1-.5 1.3-.6 1.1-.4 1.4-.1h1.2l1.1.1 1.4.4 1 .6 1.1.5 1 1 .8.9.7 1 .6 1.2.5 1.1.1 1.2v2.5l-.5 1.3-.4 1.2-.6 1-.7 1-.9 1-1.1.7-1.1.5-1.3.5-1.2.3h-1.1"/><path class="st1" d="M469.8 191.9h-1.3l-1.1-.4-1.1-.3-1-.6-.9-.8-.7-.9-.7-1.1-.5-1-.3-1.2-.2-1.1v-1.3l.3-.9.4-1.3.5-1 .8-1 .8-.8.9-.7 1.1-.5 1.1-.3 1.3-.1h1.2l1.1.1 1.1.3 1 .5 1 .7.8.8.7 1 .6 1 .5 1.3.1.9v2.4l-.5 1.2-.3 1-.7 1.1-.7.9-.9.8-1.1.6-1.1.3-1.1.4h-1.1"/><path class="st1" d="M469.8 175.3h-1.4l-1.2.4-1.1.4-1.3.6-.8.7-.9.9-.9 1.1-.6 1.1-.5 1.3-.2 1.2v2.5l.2 1.2.5 1.1.6 1.3.9 1 .9.8.8.8 1.3.6 1.1.5 1.2.2h2.5l1.4-.2 1.2-.5 1-.6 1.1-.8.9-.8.7-1 .6-1.3.4-1.1.4-1.2.1-1.4-.1-1.1-.4-1.2-.4-1.3-.6-1.1-.7-1.1-.9-.9-1.1-.7-1-.6-1.2-.4-1.4-.4h-1.1m-1.3 11.5l.2 3.9"/><path class="st1" d="M467 185.4l.5.1.4.1.4.4.2.3v.5m-5.3-1.4h3.8m0-2.3h-3.8m5.3-1.5v.4l-.2.5-.4.2-.4.3-.5.1m1.7-5.3l-.2 3.8m2.3 0v-3.8m1.5 5.3l-.4-.1-.5-.3-.3-.2-.2-.5-.1-.4m5.3 1.5h-3.8m0 0v.4m-1.5-1.9h-.4m-1.9 0h.5m-2 1.5v.4m0 1.9v-.5m1.5 1.9h.5m3.3-1.4h3.8m-5.3 1.4l.1-.5.2-.3.3-.4.5-.1.4-.1m-1.5 5.3v-3.9m0 0h-.4m1.9-1.4v-.5m3.1-27.2l.2.1v1.5m-.2-1.6l-.5.1h-.8l-.6-.1m0 1.6v-1.6m0 1.6l1 .1 1.1-.1m3.7-7.4h1.6m-1.6 0l.1.7v.7l-.1.7m1.6 0h-1.6m1.6 0l.2-1.1-.2-1m-7.4-3.7v-1.6m0 1.6l.6-.2h.8l.5.2m.2-1.6v1.4l-.2.2m.2-1.6l-1.1-.3-1 .3m-3.8 7.4h-1.8m1.8 0v-2.1m-1.8 0h1.8m-1.8 0v2.1m7.5 3.7v-1h-.2v-.8h-.1v-.7m-1.4 0h1.4m-1.4 0v1.2h-.1v.7l-.1.1v.5m5.8-5.8h-.4v.1h-.8v.1h-.9v.2h-.4m0 1.2v-1.2m0 1.2h.4l.1.1h.8l.1.1h.7l.2.3h.2m-5.8-5.8v.3m0 0l.1.3v.7h.1v1m1.4 0h-1.4m1.4 0v-.6h.1v-.9h.2v-.8m-5.7 5.8h.1l.1-.3h.9v-.1h.8v-.1h.5m0-1.2l-.1.6.1.6m0-1.2h-.2l-.3-.2h-.7l-.1-.1h-.8l-.1-.1h-.2m7.1.4h-.2l-.1-.2h-.4v-.1h-.1m0 0h-.2v-.1h-.1v-.1l-.1-.3-.2-.1-.2-.1v-.2l-.1-.1v-.5"/><path class="st1" d="M473.7 150.5v.6h-.1v.3h-.1v.1h-.1v.3l-.3.1-.1.1h-.1l-.1.1h-.4l-.1.2h-.2m0 1.2h.2l.1.1h.4l.1.1h.1l.1.3.3.1.1.1v.2h.1v.3h.1v.5m1.4 0v-.3l.1-.2v-.2l.2-.1.2-.2v-.1h.1v-.1h.1v-.3h.3v-.1h.4l.1-.1h.2"/><path class="st1" d="M474.5 161.9l-1.4-.1-1.1-.2-1.2-.5-1-.7-1.1-.7-.9-.7-.9-1-.6-1-.4-1.3-.3-1.2-.2-1.2V152l.3-1.4.4-1.1.6-1.1.7-1 .9-1.1.9-.7.9-.8 1.3-.3 1.2-.4 1.1-.3h1.4l1.2.3 1.2.4 1.2.3 1 .8 1.1.7.9 1.1.6 1 .5 1.1.5 1.1.1 1.4v2.5l-.4 1.2-.5 1.3-.6 1-.7 1-.9.7-1 .7-1.2.7-1.3.5-1.1.2-1.2.1"/><path class="st1" d="M474.5 160.7l-1.1-.3-1.3-.2-1-.5-1.1-.5-.8-.7-.8-1-.7-.9-.5-1.1-.3-1.1-.1-1.1V152l.2-1.2.4-1 .5-1 .8-1 1-.9.8-.7 1-.4 1.3-.4 1.1-.2h1.2l1.2.2 1 .4 1 .4 1.1.7.8.9.7 1 .7 1 .3 1 .1 1.2v2.4l-.3 1.1-.5 1.1-.6.9-.8 1-1 .7-.8.5-1.3.5-1 .2-1.2.3"/><path class="st1" d="M474.5 144l-1.4.1-1.1.4-1.2.3-1.1.6-1 .8-1 .9-.8 1.1-.6 1-.4 1.2-.3 1.1v2.6l.3 1.4.4 1.1.6 1.1.8 1 1 .9 1 .7 1.1.6 1.2.5 1.1.3 1.4.1 1.2-.1 1.4-.3 1.1-.5 1.1-.6 1-.7.9-.9.7-1 .6-1.1.5-1.1.3-1.4.1-1.2-.1-1.4-.3-1.1-.5-1.2-.6-1-.7-1.1-.9-.9-1-.8-1.1-.6-1.1-.3-1.4-.4-1.2-.1m-1.1 11.6l.1 3.7"/><path class="st1" d="M471.9 154.1h.4l.5.3.2.3.4.3v.6m-5.5-1.6l4 .1m0-2.3l-4 .1m5.5-1.6v.3l-.4.5-.2.3-.5.4h-.4m1.6-5.2l-.1 3.7m2.2 0v-3.7m1.5 5.2h-.5l-.5-.4-.3-.3-.1-.5-.1-.3m5.3 1.6l-3.8-.1m0 0v.5m-1.5-2h-.5m-1.7 0h.3m-1.8 1.5v.5m0 1.8v-.6m1.5 2.1l.3-.1m3.4-1.4l3.8-.1m-5.3 1.6l.1-.6.1-.3.3-.3.5-.3h.5m-1.5 5.2v-3.7m0 0l-.5-.1m2-1.4v-.6m17.6 32.6v-66.3m32.7 59.7v-53.3m-34.2-6.4h1.5m-1.5 66.3h1.5m0-59.9h32.7m-32.7 53.3h32.7m-150.2 21h4.7m4.5 0h11.9m4.4 0h4.6"/><path class="st3" d="M140.8 220.2H134l3.4 15.9 3.4-15.9zm-6.8-39.3h6.8l-3.4-15.9-3.4 15.9z"/><path class="st2" d="M137.4 220.2v-39.3m239 55.8H275.3m-23 0H134.4m242-72.3H275.3m-23 0H134.4"/><path class="st3" d="M211.3 343.1v-6.8l-15.9 3.4 15.9 3.4zm36.2-6.8v6.8l15.9-3.4-15.9-3.4z"/><path class="st2" d="M211.3 339.7h36.2"/><path class="st1" d="M263.8 175.8v24.4m0 .6V225"/><path class="st2" d="M263.8 248.1v12.2m0 .8v81.5m0-105.9h11.5m-11.5 0h-11.5"/><path class="st1" d="M263.8 236.7V225"/><path class="st2" d="M263.8 236.7v11.4"/><path class="st1" d="M396.3 164.4h15.1"/><path class="st2" d="M396.3 164.4h19.8"/><path class="st1" d="M396.3 164.4h-15.1"/><path class="st2" d="M396.3 164.4h-19.9"/><path class="st1" d="M396.3 164.4v-15.2"/><path class="st2" d="M396.3 164.4v-19.8"/><path class="st1" d="M396.3 164.4v15.1"/><path class="st2" d="M397.5 200.5H415m-17.5 0h-17.6m-222.3 0h11.9m4.4 0h4.5m4.6 0h11.9m4.4 0h4.5m4.6 0h11.8m4.5 0h4.5m4.7 0h11.7m4.7 0h4.4m4.5 0h11.9m4.6 0h4.4m4.5 0h11.9m4.6 0h4.5m4.4 0h11.9m4.6 0h4.5m4.4 0h11.9m4.5 0h4.6m4.4 0h11.9m39.1 0h11.9m4.4 0h4.6m4.5 0h11.9m4.4 0h4.6m4.5 0h11.9m4.4 0h4.6m4.5 0h11.9m-102.4 0h22.8m-22.8 0h-22.3m22.3 0v-17.8m0 17.8v17.6"/><path class="st1" d="M396.3 236.7h15.1"/><path class="st2" d="M396.3 236.7h19.9m-19.9 0h-19.9m19.9 0v-15.4"/><path class="st1" d="M396.3 236.7v15.1"/><path class="st2" d="M396.3 236.7v19.5m-132.5-91.8h11.5"/><path class="st1" d="M263.8 164.4h-11.5"/><path class="st2" d="M263.8 164.4v-11.5m0 11.5v11.4m0 60.9V225m-8.9 35.6h15m-15 0h-15.3m15.3 0v-15m0 15v15.1m0-135.5h15m-15 0h-15.3m15.3 0v-15m0 15v15"/><path class="st3" d="M280.2 343.1v-6.8l-15.9 3.4 15.9 3.4zm99.8-6.8v6.8l15.9-3.4-15.9-3.4z"/><path class="st2" d="M280.2 339.7H380m103.4 0h-87.1m0-83.5v86.4M263.8 175.8v24.4m0 .6V225"/><path class="st3" d="M209.4 92.7v-6.8l-15.9 3.4 15.9 3.4zM239 86v6.8l15.9-3.4L239 86z"/><path class="st2" d="M209.4 89.3l29.6.1m-44.8 256.5V87.3m60.7 151v-1.4m0-.6v-35.5"/><path class="st1" d="M254.9 200.2v-35.5m0-.7v-8.8m0-30V86.4"/><path class="st3" d="M270.6 92.8V86l-15.9 3.4 15.9 3.4zM381.2 86v6.8l15.9-3.4-15.9-3.4z"/><path class="st2" d="M270.6 89.4h110.6m129.6 0H397.5m0 93.3v-18m0-.7V86.4M254.9 200.2v-35.5m0-.7v-8.8m0-30V86.4"/><path class="st3" d="M114.1 244.3h-6.8l3.4 15.9 3.4-15.9zm-6.8-87.6h6.8l-3.4-15.9-3.4 15.9z"/><path class="st2" d="M110.7 244.3v-87.6m128.9 103.9H107.7m131.9-120.4H107.7"/><path class="st3" d="M244.5 243.9l3.4 6 12.1-11-15.5 5z"/><path class="st2" d="M246.2 246.9L150.6 302H15.7"/><path class="st3" d="M233.2 271.1l3.8 5.7 11.3-11.7-15.1 6z"/><path class="st2" d="M235.1 273.9l-84.8 57.3H15.5"/><path class="st3" d="M406 256.8l5.6-3.9-11.9-11.1 6.3 15z"/><path class="st2" d="M408.8 254.8l41.8 60.1h134.8"/><path class="st3" d="M420.1 211.8l2.2-6.4-16.2-2 14 8.4z"/><path class="st2" d="M421.2 208.6l74.6 26.5h113.8"/><path class="st1" d="M250.9 395.8v-3.1l-.1-.8v-2.2m6.2 141.8l-6.1-135.7m6.1 135.7h-1l-.2.2h-1l-.4.2h-.7l-.5.1h-.4l-.5.1h-.7l-.3.1h-.5l-.2.3-.4.1h-.2l-.4.1-.1.2-.3.1-.1.2-.3.1m0-144.2v144.2"/><path class="st1" d="M248.8 395.1h.5l.2.2h.5v.1h.3l.3.2h.3v.2m-2.1-6.7l2 .6m-1.7 174H459m-220.9 0h11m209.9-6.2H248.8m.3 6.2v-1l-.3-.5v-4.7m0 0h-10.7m-1.9-63.9v-.2h-.3l-.4-.1h-.4v67.4h.4l.4.3.3.5v.4m0-102.8v.1h-.7l-.4.2.1 1.3v4.2l.1 1.5v1.4l.2 1.5v1.5l.2 1.2v8.7l-.2 1.3v1.5l-.2 1.4v1.5l-.1 1.2v4.3l-.1 1.4m1.1.3v-2.8l.2-1.5v-2.8l.2-1.5v-7.2l.1-1.5-.1-1.5V469l-.2-1.2v-4.4l-.2-1.4v-2.9m-1.1 101.6v.2l.1.1v.6l.1.1v.2l.2.1m.7-170.8v.4l-.3.5-.4.1-.4.1v67.1m.6-68.8v.1h-.2v.2h-.2v.4l-.1.1v.7l-.1.1v.1m1.5 170.4l-.4-.4-.3-.1-.4-.2m.2-171.4h.4l.3-.2.3-.3"/><path class="st1" d="M238.1 389.3l-.7.1-.5.3-.2.4-.3.5-.2.6m0 4.1v63.8m0-67.9v4.1m0 98.3v63.9m1.9 0h-1.9m1.9 0V395.3h-1.9m0 162.2v4.4m1.9 1.8l-.5-.2-.7-.2-.2-.3-.3-.7-.2-.4m1.9 1.8v-6.2m0-162.2v-6M459 557.5V541m-210.2-7.7l1.5.2h3.2l1.5.1h1.5l1.5.1h3.1l1.5.3h3l1.5.1h3.1l1.4.1h1.5l1.5.1h3l1.6.2h3l1.5.2h1.5l1.4.1h3.1l1.5.2h3l1.5.1h1.7l1.5.1h3l1.5.3h2.9l1.7.1h2.9l1.5.1h1.5l1.5.1h3.1l1.5.1h3l1.4.3h1.7l1.4.1h3l1.5.1h3.1l1.5.2h1.5l1.5.1h2.9l1.8.2h2.9l1.5.2h3l1.6.1h1.5l1.5.1h3l1.5.1h3.1l1.4.3h1.5l1.5.1h3l1.6.1h3l1.5.2h2.9l1.7.1h1.4l1.5.2h3l1.5.1h3.2l1.5.2h1.5l1.5.1h3.1l1.5.1h2.9l1.5.3h1.5l1.6.1h3l1.5.1h3l1.6.1h2.9l1.5.2h1.5l1.5.2h3.1l1.5.1h3l1.5.2h1.4l1.8.1h3l1.4.1h3l1.6.3h1.5l1.5.1h3l1.5.1h3.1l1.4.1m-210.2-7.7v24.2m8.2-28l202 8.9M238.1 395.3l10.7-.2m-10.7-5.8h2.2l.4-.1h5.5l.4-.1h2.2M489 509.8v-114m0 161v-40.4m0 44.7v-4.3m0-161v-4.2M487.3 563l.6-.3.4-.2.5-.3.2-.6v-.5m0-4.3h-1.7l.1 1.1v4.8l-.1.3m1.7-53.2v6.6m0-120.6h-1.7v161m1.7-165.2v-.7l-.2-.3-.5-.5-.4-.3h-.6"/><path class="st1" d="M487.3 389.8h.1v4.9l-.1 1.1M459 563.7l28.3-.7m0-6.2l-28.3.7m0 0v6.2m30.7-117v-21.3m-2.4-35.6l-26.5-.7m0 5.9l26.5.8m5.5 153.3V477m-1.2-1.3v74.6m-1.9-103.6v.4l-.3.4-.4.3m0-23.5l.4.3.3.3v.5m1.9 50.3l.4.3.4.2.2.3.2.5m0 72.1l-.2.5-.2.4-.4.3h-.4m-32.6-9.5v16.7m0-16.7V389.7m0 142.5h1.8m0-137.2v137.2M459 395h1.8m0-5.9v5.9m-1.8-5.3l1.8-.6m0 143.1v1.9l-.1.2v.8l-.2.4v.7l-.1.2v.5l-.1.3-.3.2v.5l-.1.3-.1.5-.1.2v.4l-.2.4-.2.3-.1.4-.2.4m32.6 9.5l-2.6.1m2.6-74.7H489m-237.3-66.4H263v-5.4h-11.6m11.6 31.9v5.2l2-.2 1.7-.3 1.8-.2 1.7-.8 1.6-.7 1.5-1 1.4-1 1.4-1.4 1.2-1.3 1.2-1.3.8-1.7.8-1.6.6-1.6.5-1.8.2-1.8.2-1.8-.2-1.8-.2-1.9-.5-1.6-.6-1.9-.8-1.6-.8-1.4-1.2-1.5-1.2-1.4-1.4-1.1-1.4-1.3-1.5-.8-1.6-.8-1.7-.6-1.8-.5-1.7-.2-2-.2"/><path class="st1" d="M263 409.3h1.7l1.5.2 1.5.5 1.2.6 1.4.8 1.3.9 1 1.2 1.2 1 .8 1.3.6 1.4.7 1.5.2 1.5.1 1.5v1.6l-.1 1.5-.2 1.5-.7 1.4-.6 1.4-.8 1.2-1.2 1.3-1 1-1.3 1-1.4.7-1.2.5-1.5.5-1.5.3-1.7.2m-9.9 5.2h9.9m0-5.2h-10.1"/><path class="st1" d="M252.8 435.3h11.9l1.2-.2 1.5-.5 1.4-.7 1.4-.7 1.2-.9 1.1-1 .9-1.1 1-1.3.5-1.3.6-1.3.4-1.5.1-1.5v-1.5l-.1-1.5-.4-1.5-.6-1.5-.5-1.3-1-1.3-.9-1.1-1.1-1.1-1.2-.9-1.4-.7-1.4-.6-1.5-.4-1.2-.4h-13M459 435.8h-10.9v5.2H459m-10.9-31.7v-5.4l-1.7.2-1.7.2-1.9.5-1.6.6-1.6.8-1.6.8-1.5 1.3-1.4 1.1-1.2 1.4-1 1.5-.9 1.4-1 1.6-.5 1.9-.5 1.6-.2 1.9v3.6l.2 1.8.5 1.8.5 1.6 1 1.6.9 1.7 1 1.3 1.2 1.3 1.4 1.4 1.5 1 1.6 1 1.6.7 1.6.8 1.9.2 1.7.3 1.7.2"/><path class="st1" d="M448.1 435.8l-1.4-.2-1.5-.3-1.5-.5-1.5-.5-1.2-.7-1.3-1-1.2-1-.9-1.3-.9-1.2-.7-1.4-.5-1.4-.4-1.5-.1-1.5v-1.6l.1-1.5.4-1.5.5-1.5.7-1.4.9-1.3.9-1 1.2-1.2 1.3-.9 1.2-.8 1.5-.6 1.5-.5 1.5-.2h1.4m10.9-5.4h-10.9m0 5.4H459m-10.9 23.5v2.5H459m0-2.5h-10.9"/><path class="st1" d="M448.1 412.1v-2.6h-1.4l-1.5.4-1.5.4-1.3.6-1.3.7-1.3.9-1 1.1-1.1 1.1-.7 1.3m0 0l-.8 1.3-.3 1.5-.4 1.5-.3 1.5v1.5l.3 1.5.4 1.5.3 1.3.8 1.3.7 1.3 1.1 1.1 1 1 1.3.9 1.3.7 1.3.7 1.5.5 1.5.2h1.4"/><path class="st1" d="M448.1 432.8l-1.2-.2-1.4-.1-1.2-.4-1.4-.6-1-.8-.9-.8-1-1.2-.8-1.1-.5-1.2-.5-1.3-.2-1.2v-2.7l.2-1.4.5-1.4.5-1.1.8-1.1 1-1 .9-.8 1-.8 1.4-.6 1.2-.5 1.4-.2 1.2-.2m10.9-2.6h-10.9m0 2.6H459m-196 23.2v-2.5h-10.2m10.2-23.3v2.6l1.5.2 1.2.2 1.4.5 1.1.6 1.2.8.9.8.8 1 .8 1.1.6 1.1.5 1.4.3 1.4.1 1.3-.1 1.4-.3 1.2-.5 1.3-.6 1.2-.8 1.1-.8 1.2-.9.8-1.2.8-1.1.6-1.4.4-1.2.1-1.5.2m-11.3-20.7H263m0 23.2v.5m0-26.3v-.2m185.1 26v.5m0-26.3v-.2m-195 31.7l3.7 82.2m-5.9-127.4l.5 8.1m5.4 119.3l202.2 9.7m0-.7V441m0-37.1v-8.1m-208.1 0H459m-208.2-6.1H459M257 529.1h1.5l1.5.2h3l1.5.2h1.4l1.8.1h1.5l1.5.2h1.4l1.5.1h1.5l1.5.1h3.1l1.5.2h1.5l1.5.2h1.4l1.5.1h1.6l1.5.1h1.5l1.5.1h3l1.5.3h1.5l1.6.1h1.5l1.4.1h1.5l1.5.2h1.5l1.5.1h1.6l1.5.2h3l1.5.2h1.4l1.5.1h1.8l1.5.1h1.4l1.5.1h1.5l1.5.3h3l1.6.1h1.5l1.5.1h1.5l1.4.2h1.5l1.5.1h1.6l1.5.2h3l1.5.1h1.5l1.4.2h1.7l1.4.1h1.5l1.5.1h1.5l1.5.3h3l1.6.1h1.5l1.5.1h1.4l1.5.1h1.5l1.5.2h1.7l1.5.2h3l1.5.1h1.5l1.5.2h1.6l1.5.1h1.5l1.4.1h1.5l1.5.3h3l1.6.1h1.5l1.5.1h1.5l1.4.1h1.5l1.5.1h1.6l1.5.3h3l1.5.1h1.5l1.5.1h1.6l1.5.2h1.4l1.5.1h1.5l1.5.2h3l1.7.2h1.5l1.5.1h1.5l1.5.1h1.5l1.4.1h1.6l1.5.3h3l1.5.1h1.5l1.5.1h1.6l1.5.2h1.5l1.4.1M262.1 417.6v-.1l-.1-.2V416m.1 1.6h2"/><path class="st1" d="M264.2 416v1.2l-.1.1v.3m.1-1.6H262m-3.7 7.4v.1h-1.7m1.7-.1l-.2-.6v-.8l.2-.6m-1.7 0h1.7m-1.7 0v2.1m7.5 3.7v.5h.1v1.2m-.1-1.7l-.6.2h-.8l-.6-.2m-.1 1.7v-1.3h.1v-.4m-.1 1.7l1 .2 1.2-.2m3.7-7.5h1.6m-1.6 0v2m1.6.1h-1.6v-.1m1.6.1v-2.1m-7.4-3.8v.7l.1.1v.8l.3.2v.8m1.2 0l-.7-.3-.5.3m1.2 0v-1h.3v-.9l.1-.1v-.6m-5.8 5.8h.7l.1-.1h.9l.2-.1h.5"/><path class="st1" d="M260.7 421.8l-.1.7.1.7m0-1.4h-1v-.1h-.8l-.1-.3h-.5m5.8 5.8v-.3m0 0v-.3l-.1-.1v-.7l-.3-.2v-.7m-1.2 0h1.2m-1.2 0v.7h-.3v.9h-.1v.7m5.8-5.8h-.5l-.1.3h-.9v.1h-1m0 1.4l.2-.7-.2-.7m0 1.4h.5l.3.1h.9v.1h.8m-7.2-.2h.4l.1.1h.2l.1.1m0 0h.2v.1h.2l.1.2.1.2v.1l.1.1v.2l.3.1v.5m1.2 0v-.6l.3-.2v-.1l.1-.1.1-.2.1-.2h.2v-.1h.2v-.1h.3l.1-.1h.3m0-1.4h-.4l-.2-.1h-.1l-.2-.3-.2-.1h-.1v-.1h-.1v-.1l-.1-.2v-.2l-.3-.1v-.4"/><path class="st1" d="M262.5 420.2v.4h-.3v.3h-.1v.3h-.1v.1h-.1l-.2.1-.2.3h-.1l-.2.1h-.5"/><path class="st1" d="M263 413.5l1.3.1 1.3.1 1.1.5 1.2.5.9.8 1.1 1 .8 1 .4.9.5 1.3.3 1.2.2 1.3v1.2l-.3 1.2-.3 1.2-.6 1.2-.7 1-.8.9-1 1-1.1.4-1.1.7-1.2.3-1.3.2h-1.2l-1.3-.2-1.2-.3-1.1-.7-1.1-.4-1-1-.8-.9-.7-1-.6-1.2-.3-1.2-.4-1.2v-1.2l.3-1.3.2-1.2.5-1.3.5-.9.8-1 1-1 1-.8 1.2-.5 1.1-.5 1.3-.1 1.1-.1"/><path class="st1" d="M263 414.7l1.2.3 1.2.1 1 .4 1 .6 1 .7.9.9.6 1.1.4 1 .4 1.3.1 1.1v1.2l-.4 1-.2 1.2-.7 1-.7 1-.9.9-.8.6-1.2.5-1.1.4-1.2.1h-1l-1.2-.1-1.2-.4-1.1-.5-.8-.6-.9-.9-.8-1-.6-1-.2-1.2-.4-1v-1.2l.1-1.1.4-1.3.4-1 .6-1.1.9-.9 1-.7.8-.6 1.1-.4 1.3-.1 1-.3"/><path class="st1" d="M263 431.5l1.3-.2 1.3-.3 1.1-.4 1.2-.6 1-.8 1-.8.8-1.2.4-.9.5-1.3.3-1.3v-2.5l-.3-1.3-.5-1.1-.4-1.2-.8-1-1-.9-1-.7-1.2-.6-1.1-.5-1.3-.3h-2.4l-1.3.3-1.1.5-1.2.6-1 .7-1 .9-.8 1-.5 1.2-.5 1.1-.2 1.3v2.5l.2 1.3.5 1.3.5.9.8 1.2 1 .8 1 .8 1.2.6 1.1.4 1.3.3 1.1.2m1.2-11.7V416"/><path class="st1" d="M265.7 421.3h-.5l-.4-.2-.3-.4-.2-.4-.1-.5m5.3 1.6l-3.8-.1m0 2.2h3.8m-5.3 1.5l.1-.4.2-.5.3-.2.4-.2.5-.2m-1.5 5.4V425m-2.2 0v3.9m-1.5-5.4l.5.2.4.2.3.2.2.5.1.4m-5.4-1.5h3.9m0 0v-.3m1.5 1.8h.5m1.7 0h-.5m2-1.5v-.3m0-1.9v.5m-1.5-2h-.5m-3.2 1.5l-3.9.1m5.4-1.6l-.1.5-.2.4-.3.4-.4.2h-.5m1.5-5.3v3.8m0 0h.5m-2 1.5v.5m186.6-4.2V416m0 1.6h2.2m0-1.6v1.6m0-1.6h-2.2m-3.7 7.4h-.1v.1h-1.5m1.6-.1l-.1-.6v-.8l.1-.6m-1.6 0h1.6m-1.6 0l-.1 1.1.1 1m7.5 3.7v1.7m0-1.7l-.8.2h-.6l-.8-.2m0 1.7v-1.7m0 1.7l1 .2 1.2-.2m3.7-7.5h1.6m-1.6 0l.1.6v.8l-.1.6"/><path class="st1" d="M454.6 423.5h-1.5v-.1h-.1m1.6.1l.1-1-.1-1.1m-7.5-3.8v.1l.2.3v.8h.1v.9h.2v.5m1.2 0l-.7-.3-.5.3m1.2 0v-.4h.1v-.9l.2-.1v-.7l.2-.1v-.4m-5.9 5.8h.8l.1-.1h.9v-.1h.6m0-1.4v1.4m0-1.4h-.9l-.1-.1h-.8l-.1-.3h-.5m5.9 5.8v-.2h-.2v-.1m0 0v-.8l-.2-.2v-.8l-.1-.1v-.1m-1.2 0h1.2m-1.2 0v.2l-.2.3v.7l-.1.2v.7l-.2.1v.1m5.9-5.8h-.5v.3h-.9l-.1.1h-.9m0 1.4v-1.4"/><path class="st1" d="M450.6 423.2h.5v.1h1l.1.1h.8m-7.2-.2h.5l.1.1h.1l.2.1"/><path class="st1" d="M446.7 423.4l.2.1h.1v.2h.1v.2h.2v.2h.1v.3l.2.2v.3m1.2 0v-.3l.1-.2v-.3h.2v-.1l.2-.1v-.2h.1l.1-.2.1-.1.3-.1h.1l.1-.1h.5m0-1.4h-.6v-.1h-.4v-.3h-.1v-.1h-.1l-.1-.1v-.1l-.2-.2-.2-.2v-.3l-.1-.1v-.1m-1.2 0v.1l-.2.1v.3l-.1.2v.2l-.2.1-.1.1-.1.1h-.2v.3h-.3v.1h-.6"/><path class="st1" d="M448.1 413.5l1.4.1 1.2.1 1.2.5 1.1.5 1 .8.8 1 .8 1 .7.9.5 1.3.3 1.2.2 1.3-.2 1.2-.2 1.2-.3 1.2-.5 1.2-.8 1-.8.9-.9 1-1.1.4-1.1.7-1.3.3-1.3.2h-1.2l-1.3-.2-1.3-.3-1-.7-1.2-.4-.9-1-.8-.9-.8-1-.5-1.2-.3-1.2-.3-1.2-.1-1.2.1-1.3.4-1.2.6-1.3.5-.9.7-1 1-1 1-.8 1-.5 1.3-.5 1.3-.1 1.1-.1"/><path class="st1" d="M448.1 414.7l1.3.3 1.2.1 1 .4 1 .6 1 .7.7.9.8 1.1.4 1 .3 1.3.1 1.1-.1 1.2-.2 1-.4 1.2-.5 1-.7 1-.9.9-.9.6-1.2.5-1 .4-1.2.1h-1.2l-1.2-.1-1-.4-1.1-.5-1-.6-.9-.9-.6-1-.6-1-.5-1.2-.1-1-.1-1.2.1-1.1.4-1.3.4-1 .7-1.1.7-.9.9-.7 1.1-.6 1-.4 1.2-.1 1.1-.3"/><path class="st1" d="M448.1 431.5l1.4-.2 1.2-.3 1.2-.4 1.1-.6 1-.8.8-.8.8-1.2.7-.9.5-1.3.1-1.3.2-1.2-.2-1.3-.1-1.3-.5-1.1-.7-1.2-.8-1-.8-.9-1-.7-1.1-.6-1.2-.5-1.2-.3H447l-1.3.3-1.3.5-1 .6-1 .7-1 .9-.7 1-.5 1.2-.5 1.1-.2 1.3-.3 1.3.3 1.2.2 1.3.5 1.3.5.9.7 1.2 1 .8 1 .8 1 .6 1.3.4 1.3.3 1.1.2m1.3-11.7l-.1-3.8"/><path class="st1" d="M450.9 421.3h-.5l-.4-.2-.4-.4-.2-.4v-.5m5.2 1.6l-3.7-.1m0 2.2h3.7m-5.2 1.5v-.4l.2-.5.4-.2.4-.2.5-.2m-1.6 5.4l.1-3.9m-2.4 0l.1 3.9m-1.4-5.4l.5.2.2.2.5.2.1.5v.4m-5.2-1.5h3.9m0 0v-.3m1.3 1.8h.6m1.8 0h-.6m2.1-1.5v-.3m0-1.9v.5m-1.5-2h-.6m-3.1 1.5l-3.9.1m5.2-1.6v.5l-.1.4-.5.4-.2.2h-.5m1.4-5.3l-.1 3.8m0 0h.6m-1.9 1.5v.5m48.5 125.1v-66.4m32.8 59.8v-53.2m-34.2-6.6h1.4m-1.4 66.4h1.4m0-59.8H527m-32.8 53.2H527"/><path class="st2" d="M155.6 476.3H168m4.5 0h4.5m4.5 0h12.2m4.4 0h4.5m4.6 0h12.3m4.4 0h4.6m4.5 0h12.1m4.7 0h4.5m4.5 0h12.1m4.6 0h4.4m4.5 0h12.4m4.5 0h4.4m4.6 0h12.2m4.4 0h4.7m4.5 0h12.1m4.5 0h4.6m4.4 0H374m4.6 0h4.5m4.4 0h12.2m4.6 0h4.4m4.7 0h12.2m4.4 0h4.5m4.6 0h12.3m4.4 0h4.6m4.5 0H477m4.5 0h4.6m4.4 0h12.3"/><path class="st3" d="M138.5 541.1h-6.8l3.4 15.9 3.4-15.9zm-6.8-129.6h6.8l-3.4-15.9-3.4 15.9z"/><path class="st2" d="M135.1 541.1V411.5"/><path class="st3" d="M209.4 596.4v-6.8l-15.9 3.4 15.9 3.4zm12.4-6.8v6.8l15.9-3.4-15.9-3.4z"/><path class="st2" d="M209.4 593h12.4"/><path class="st3" d="M253.2 596.4v-6.8l-15.9 3.4 15.9 3.4zm219.1-6.8v6.8l15.9-3.4-15.9-3.4z"/><path class="st2" d="M253.2 593h219.1m-236.1-30.1v37.9"/><path class="st1" d="M489 509.8v3.6"/><path class="st4" d="M505.8 596.5v-7.1l-16.6 3.6 16.6 3.5zm4.6-7.1v7.1L527 593l-16.6-3.6z"/><path class="st5" d="M505.8 593h4.6"/><path class="st2" d="M527 543v52.9"/><path class="st1" d="M489 509.8v3.6"/><path class="st3" d="M209 625.1v-6.8l-15.9 3.4 15.9 3.4zm264.4-6.8v6.8l15.9-3.4-15.9-3.4z"/><path class="st2" d="M209 621.7h264.4M194 557.9v72.5"/><path class="st1" d="M489 509.8v3.6"/><path class="st2" d="M489 564.6v60.2m5.2-111.2h9.6m4.6 0h4.4m4.7 0h9.8m-45.1 0h12m32.8 0h7.6M192.3 395.8H134M192.3 557H133"/><path class="st0" d="M194.1 705.4v161m0-161l3.7-3.7m-3.7 164.8l3.7 3.7V701.8l38.3-.9m-38.3 169.3l38.3 1"/><path class="st1" d="M250.4 706.6V702l.2-.6v-.7m-.2 167.3V706.6m.2 167.3v-.7l-.2-.6V868m6.2 5.9l-.2.1h-1.5l-.5.2h-1.6l-.4.2h-1.5l-.5.1h-2m0-5.9v5.9m0-174.5h1.5l.4.2h1.7l.5.2h1.6l.3.1h1.7l.3.2h.2"/><path class="st1" d="M248.4 700h.5v.2h.5l.2.2h.3v.1h.5l.2.2m-2.2 173.8h.5l.2-.1h.5v-.2h.3l.3-.2h.4v-.1m-2.2-5.3l2-.6m-2-162v162.6m0-162.6h.3l.1.1h.3l.1.3h.4l.1.1h.2l.3.1h.2m-2-6.6v6m-12.6 166.4v-.5l-.2-.2-.5-.3-.4-.2v.2l.1.2v.7l.1.1v.2l.2.1v.2h.2v.2m.5-68.5l-.2-.3h-.9v66.9m1.1-101.1l-.2.2h-.9l.1 1.5v4.1l.1 1.5v1.3l.2 1.5v1.4l.2 1.5v8.4l-.2 1.5v1.4l-.2 1.4v1.5l-.1 1.4v4.3l-.1 1.3m1.1.3v-2.9l.3-1.4v-2.8l.1-1.5v-7.3l.1-1.3-.1-1.5v-5.8l-.1-1.5v-4.3l-.3-1.4v-2.8m-.5-68.6l-.2.1v.4h-.2v.3h-.1v.7l-.1.1v.3l.4-.3.5-.2.2-.3v-.5m-1.1 1.3v66.9"/><path class="st1" d="M236.3 873.4l-.2-.1-.4-.2h-.4m0-171.6h.4l.4-.2.2-.2m-.5 103.5v63.6m1.9 0h-1.9m1.9 0V706.4m-1.9 0h1.9m-1.9 0v63.7m0 98.1v4.2"/><path class="st1" d="M237.7 874.4l-.7-.2-.5-.3-.2-.5-.2-.3-.3-.7m0-170.3l.3-.6.2-.4.2-.4.5-.3h.7m0 174v-6.2m0-161.8v-6m-1.9 1.7v4.3m12.6-6.4h210.2M248.4 874.5H306m0 0h152.6m-220.9-.1l10.7.1m-10.7-6.3h2.2l.4.3h5l.5.1h2.6m-10.7-168.2h.3l.5-.2h5.1l.4-.2h4.4m-10.7 6.4l10.7-.4m240.2.7v-4.1m0 165.3V706.7m0 165.2v-4m0 4v.7l-.2.5-.5.3-.4.4h-.6"/><path class="st1" d="M488.6 867.9h-1.7l.1.9v5h-.1m0-173h.6l.4.3.5.4.2.5v.6"/><path class="st1" d="M488.6 706.7h-1.7v161.2m0-167.1h.1v4.9l-.1 1m-28.3-6.7h1.8m-1.8 174.5V700m0 173.9l1.8.6m0-5.9v5.9m-1.8-5.9h1.8m0-162.6v162.6M458.6 706h1.8m0-6v6m-1.8-5.3l1.8-.7m0 174.5h-1.8m28.3-173.7l-26.5-.8m28.9 30.2v-21.4m0 141.8v-21.4M460.4 706l26.5.7m0 161.2l-26.5.7m0 5.9l26.5-.7m5.5-2.8v-72.2m-1.2-1.2v74.6m-1.9-21.6v.4l-.3.4-.4.2m0-23.5l.4.3.3.3v.5m0-99v.3l-.3.4-.4.2m0-23.3l.4.2.3.3v.5m1.9 88.8h.4l.4.3.2.4.2.5m0 72.2l-.2.4-.2.3-.4.2-.4.3h-2.6m2.6-74.6l-2.6-.1m-238-96.8h208m-208 173.2h208M250.4 868h208.2M250.4 706.6h208.2M250.4 868v4.6l.2.6v.7m-.2-167.3V868m.2-167.3v.7l-.2.6v4.6m166.1 18.7l.6.1.6.3.5.4.3.6.2.6v.6l-.2.5-.3.6-.5.5-.6.3h-1.3l-.5-.3-.5-.5-.3-.6-.2-.5v-.6l.2-.6.3-.6.5-.4.5-.3.7-.1"/><path class="st1" d="M416.5 734.2h1.1l1-.2 1.1-.5.9-.6.7-.8.8-.7.4-1 .5-.9.2-1.1v-1.1l-.1-1.1-.3-1-.5-1-.6-1-.7-.7-.9-.5-1-.6-1.1-.4-1-.1h-1l-1.1.1-1 .4-1.1.6-.8.5-.7.7-.7 1-.4 1-.4 1-.1 1.1.1 1.1.3 1.1.3.9.5 1 .8.7.7.8 1 .6.9.5 1.1.2h1.1m0 119.5h1.1l1-.3 1.1-.4.9-.6.7-.8.8-.7.4-1 .5-1 .2-1v-1.2l-.1-1-.3-1-.5-1.1-.6-.9-.7-.8-.9-.6-1-.6-1.1-.2-1-.2h-1l-1.1.2-1 .2-1.1.6-.8.6-.7.8-.7.9-.4 1.1-.4 1-.1 1 .1 1.2.3 1 .3 1 .5 1 .8.7.7.8 1 .6.9.4 1.1.3h1.1"/><path class="st1" d="M416.5 849.3h.6l.6-.4.5-.4.3-.6.2-.6v-.6l-.2-.5-.3-.7-.5-.5-.6-.1-.6-.1-.7.1-.5.1-.5.5-.3.7-.2.5v.6l.2.6.3.6.5.4.5.4h.7m77.3 18.7v-66.2m32.8 59.6v-53.2m-34.2-6.4h1.4m-1.4 66.2h1.4m0-59.8h32.8m-32.8 53.2h32.8m-256.8-59.5v-29.2"/><path class="st2" d="M153.6 787.4h12.5m4.5 0h4.5m4.6 0h12.2m4.5 0h4.7m4.5 0H218m4.4 0h4.5m4.7 0h12.3m4.4 0h4.6m4.5 0h12.5m4.4 0h4.5m4.6 0h12.4m4.5 0h4.5m4.5 0h12.5m4.5 0h4.4m4.6 0h12.4m4.5 0h4.6m4.4 0h12.6m4.4 0h4.5m4.6 0h12.4m4.4 0h4.6m4.5 0h12.5m4.4 0h4.5m4.6 0h12.3m4.4 0h4.7m4.5 0h12.4m4.5 0h4.4m4.7 0h12.3"/><path class="st1" d="M493.8 834.8h9.6"/><path class="st2" d="M508 834.8h4.4"/><path class="st1" d="M517.2 834.8h9.7"/><path class="st2" d="M479.7 834.8h14.1m32.8 0h7.7"/><path class="st3" d="M209.3 677.9v-6.8l-15.9 3.4 15.9 3.4zm44.1-6.8v6.8l15.9-3.4-15.9-3.4z"/><path class="st2" d="M209.3 674.5h44.1m-59.7 30.1V665m76.1 104.4v-97.9"/><path class="st3" d="M289.8 783.1v-6.8l-19.8 3.4 19.8 3.4z"/><path class="st2" d="M289.8 779.7h7.5L323 673.9h331.7"/><text transform="translate(765.183 860.481)" class="st6 st7">Not to scale</text><text transform="translate(765.183 885.681)" class="st6 st7">Dimensions in mm</text><text transform="rotate(-90 159.17 53.285)" class="st6 st7">20</text><text transform="rotate(-90 313.007 187.758)" class="st6 st7">28.15</text><text transform="rotate(-90 730.794 -242.42)" class="st6 st7">29</text><text transform="rotate(-90 463.042 -223.297)" class="st6 st7">21.2</text><text transform="rotate(-90 493.073 -220.46)" class="st6 st7">8.3</text><text transform="rotate(-90 174.109 41.577)" class="st6 st7">12</text><text transform="translate(207.626 331.233)" class="st6 st7">11.5</text><text transform="translate(212.842 585.962)" class="st6 st7">7</text><text transform="translate(328.677 616.946)" class="st6 st7">49</text><text transform="translate(198.585 667.041)" class="st6 st7">12.526</text><text transform="translate(357.29 585.962)" class="st6 st7">42</text><text transform="translate(494.689 585.962)" class="st6 st7">6.3</text><text transform="translate(209.436 79.835)" class="st6 st7">10</text><text transform="translate(743.306 57.11)" class="st6 st7">5.77</text><text transform="translate(826.056 61.243)" class="st6 st7">20</text><text transform="translate(820.19 361.802)" class="st6 st7">29</text><text transform="translate(748.757 304.603)" class="st6 st7">6.6</text><text transform="translate(841.218 88.924)" class="st6 st7">15.77</text><text transform="translate(409.21 82.484)" class="st6 st7">23.7 (M3)</text><text transform="translate(502.953 229.495)" class="st6 st7">M3; 3 deep</text><text transform="translate(455.029 308.787)" class="st6 st7">2 x M2; 3 deep</text><text transform="translate(13 295.275)" class="st6 st7">2 x M2; 3 deep</text><text transform="translate(600.39 120.797)" class="st6 st7">2 x M2; 4 deep</text><text transform="translate(13 325.26)" class="st6 st7">2 x M3; 3 deep</text><text transform="translate(402.23 335.364)" class="st6 st7">22 (M2)</text><text transform="translate(327.29 669.106)" class="st6 st7">Photosensitive surface of the sensor</text><text transform="translate(325.974 775.766)" class="st6 st7">Top</text><text transform="translate(291.494 193.263)" class="st6 st7">Bottom</text></svg>