<svg version="1.0" xmlns="http://www.w3.org/2000/svg" viewBox="0 0 500 350"><path clip-rule="evenodd" fill="none" stroke="#000" stroke-width=".709" stroke-miterlimit="3.864" d="M54.2 132.3l2.4-3.8 1.7-3.4 1.2-1.2 2.9-3.1 2.9-3.7 2.9-4.6 4.1-9 5.4-12.2 6.8-16.2 4.1-9.3 3.7-7.7 5-10.4 4.6-8.3 4.9-7.6 4.9-7.2 4.6-6.4 4.1-3.8 3.7-2.5 3.2-.7 3.8-.2 2.9 1.4 2.7 3.2 6.6 6.3 8.4 7.2 3.7 2.7 2.4 2.7 5.1 5.8 5.6 6.4 7 7.9 7.1 8.8 3.1 3.6 5.2 4.9L201 82.1l3.5 3.9 6 8.2 11.4 15.1 8.6 12 7.9 11 7.8 9.8 4.9 6.1 2.7 3.1 4.1-.2 2.2-1.2 9 10.7 2.4 1.7 2.2-.8 1.9-.7 1.9 2.2 3.7 6.5 4.1 5.9 4.8 4.8 11.5 11.9 9.9 10.5 3.7 3.8 25.4 16.1 22.9 13.1 52.7 23.3 17 7 16 5.9 11 4.1 9.7 2.2 8 1.7 5.8 1.2 4.9.2"/><path fill="none" d="M37.5 26.6H53v260.2H37.5zm22.4 276.5H470v12.5H59.9z"/><path fill="none" stroke="#000" stroke-width=".781" stroke-miterlimit="3.864" d="M54.1 10.2H489V292H54.1V10.2z"/><path clip-rule="evenodd" fill="none" stroke="#000" stroke-width=".227" stroke-miterlimit="3.864" d="M54.2 37.9h435.1M54.1 66.5h435.1m-435 28h435.1M54.1 122.7h435.1m-435 28h435m-435 28.8h435.1M54 207.5h435m-434.8 28h435.1m-435.2 28h435.1M126.5 10.1v282.1m72.7-282v282.1M272 10.1v282M343.9 10v282.1m72.7-281.8v282.1"/><text transform="rotate(-90 116.736 98.146)" fill="#131718" font-family="Helvetica,Arial,sans-serif" font-size="12">Relati</text><text transform="rotate(-90 101.728 83.138)" fill="#131718" font-family="Helvetica,Arial,sans-serif" font-size="12">v</text><text transform="rotate(-90 98.86 80.27)" fill="#131718" font-family="Helvetica,Arial,sans-serif" font-size="12">e Response</text><text transform="translate(226.69 333.83)" font-family="Helvetica,Arial,sans-serif" font-size="12">W</text><text transform="translate(237.571 333.83)" font-family="Helvetica,Arial,sans-serif" font-size="12">a</text><text transform="translate(244.01 333.83)" font-family="Helvetica,Arial,sans-serif" font-size="12">v</text><text transform="translate(249.747 333.83)" font-family="Helvetica,Arial,sans-serif" font-size="12">elength (nm)</text><text transform="translate(37 15.06)" font-family="Helvetica,Arial,sans-serif" font-size="8">1.0</text><text transform="translate(37 40.828)" font-family="Helvetica,Arial,sans-serif" font-size="8">0.9</text><text transform="translate(37 68.598)" font-family="Helvetica,Arial,sans-serif" font-size="8">0.8</text><text transform="translate(37 96.366)" font-family="Helvetica,Arial,sans-serif" font-size="8">0.7</text><text transform="translate(37 126.135)" font-family="Helvetica,Arial,sans-serif" font-size="8">0.6</text><text transform="translate(37 153.903)" font-family="Helvetica,Arial,sans-serif" font-size="8">0.5</text><text transform="translate(37 181.672)" font-family="Helvetica,Arial,sans-serif" font-size="8">0.4</text><text transform="translate(37 209.44)" font-family="Helvetica,Arial,sans-serif" font-size="8">0.3</text><text transform="translate(37 236.209)" font-family="Helvetica,Arial,sans-serif" font-size="8">0.2</text><text transform="translate(37 265.978)" font-family="Helvetica,Arial,sans-serif" font-size="8">0.1</text><text transform="translate(37 291.746)" font-family="Helvetica,Arial,sans-serif" font-size="8">0.0</text><text transform="translate(50.038 308.344)" font-family="Helvetica,Arial,sans-serif" font-size="8">400</text><text transform="translate(119.038 308.344)" font-family="Helvetica,Arial,sans-serif" font-size="8">500</text><text transform="translate(194.038 308.344)" font-family="Helvetica,Arial,sans-serif" font-size="8">600</text><text transform="translate(266.038 308.344)" font-family="Helvetica,Arial,sans-serif" font-size="8">700</text><text transform="translate(340.038 308.344)" font-family="Helvetica,Arial,sans-serif" font-size="8">800</text><text transform="translate(411.038 308.344)" font-family="Helvetica,Arial,sans-serif" font-size="8">900</text><text transform="translate(480.038 308.344)" font-family="Helvetica,Arial,sans-serif" font-size="8">1000</text></svg>