<svg version="1.0" xmlns="http://www.w3.org/2000/svg" viewBox="0 0 480 260"><path clip-rule="evenodd" fill="none" stroke="#1D1D1B" stroke-width=".283" stroke-miterlimit="3.864" d="M226.1 74.8l-6.5-.1m0 114.6l6.5-.2m2.9-7.2l-.3.7m0 0l-.3.8m0 0l-.3.8m0 0l-.3.8m0 0l-.3.7m0 0l-.3.7m0 0l-.2.8m0 0l-.4.7m0 0l-.3.7m0 0l-.3.6m0 0l-.2.6m0 0l-.3.8m0 0l-.3.6m0 0l-.3.6m0 0l-.3.6m0 0l-.2.5m0 0l-.3.6m0 0l-.3.6m0 0l-.2.5m0 0l-.3.5m0 0l-.3.5m0 0l-.2.4m0 0l-.3.5m0 0l-.2.5m0 0l-.2.4m0 0l-.2.4m0 0l-.2.3m8.2-19v.1m0 0h-.1m0 0v.1m0 0v.2m0 0l-.1.1m0 0l-.1.1m0 0v.1m0 0v.1m0 0v.3m0 0l-.1.1m0 0v.1m0 0l-.1.2m0 0l-.1.1m0 0v.1m0 0v.2m0 0l-.1.1m0 0v.2m0 0l-.1.1m0 0l-.1.2m0 0v.1m0 0v.2m2.4-7.3l-.1.2m0 0l-.1.2m0 0v.2m0 0l-.1.2m0 0v.2m0 0l-.1.2m0 0l-.1.2m0 0v.2m0 0l-.1.2m0 0v.2m0 0l-.1.3m0 0l-.1.2m0 0l-.1.3m0 0v.1m0 0l-.1.2m0 0l-.1.2m0 0v.2m0 0l-.1.2m0 0v.1m0 0v.2m0 0l-.2.2m0 0l-.1.2m0 0v.1m1.5-89.7l.9 3.4m0 0l.8 3.4m0 0l.8 3.4m0 0l.7 3.5m0 0l.6 3.5m0 0l.5 3.5m0 0l.4 3.7m0 0l.4 3.6m0 0l.3 3.6m0 0l.3 3.6m0 0l.1 3.7m0 0v3.7m0 0v3.6m0 0l-.1 3.7m0 0l-.3 3.8m0 0l-.3 3.5m0 0l-.4 3.7m0 0l-.4 3.6m0 0l-.5 3.5m0 0l-.6 3.6m0 0l-.7 3.4m0 0l-.8 3.5m0 0l-.8 3.3m0 0l-.9 3.4m-1.5-89.8v.1m0 0v.1m0 0l.1.1m0 0l.2.2m0 0v.3m0 0v.1m0 0l.1.2m0 0v.2m0 0l.1.2m0 0l.1.2m0 0v.2m0 0l.1.2m0 0l.1.2m0 0l.1.2m0 0v.2m0 0l.1.2m0 0v.2m0 0l.1.2m0 0l.1.2m0 0v.3m0 0l.1.1m0 0v.4m0 0l.1.2m0 0l.1.1m-2.4-7.2v.1m0 0v.1m0 0l.1.1m0 0v.1m0 0l.1.1m0 0v.1m0 0v.1m0 0l.1.2m0 0v.1m0 0v.1m0 0l.1.1m0 0v.1m0 0l.1.1m0 0v.1m0 0v.1m0 0l.1.1m0 0v.2m0 0l.1.1m0 0v.2m0 0l.1.1m0 0v.1m0 0v.1m0 0l.1.1m-8.2-18.9l.2.4m0 0l.2.4m0 0l.2.4m0 0l.2.3m0 0l.3.5m0 0l.2.4m0 0l.3.6m0 0l.3.5m0 0l.2.5m0 0l.3.5m0 0l.3.6m0 0l.2.6m0 0l.3.7m0 0l.3.6m0 0l.3.6m0 0l.3.6m0 0l.2.6m0 0l.3.8m0 0l.3.6m0 0l.4.7m0 0l.2.7m0 0l.3.7m0 0l.3.9m0 0l.3.7m0 0l.3.8m0 0l.3.7m0 0l.3.9m0 99.7v2.1m0 0v2m0 0v1.9m0 0v1.8m0 0v1.7m0 0v1.5m0 0v1.5m0 0v1.2m0 0v1.2m0 0v1.1m0 0v.9m0 0v.7m0 0v.6m0 0l.3.1m0 0l.3.2m0 0l.2.4m0 0l.1.4M229 64v.7m0 0v.8m0 0v.9m0 0v1m0 0v1.3m0 0v1.2m0 0v1.4m0 0v1.6m0 0v1.6m0 0v1.8m0 0v1.8m0 0v2m0 0v2.1m.4-19.5h-.1m0 0v.1m0 0v.1m0 0h-.1m0 0v.1m0 0v.1m0 0l-.1.1m0 0v.1m0 0l-.1.1m0 0v.1m0 0v.1m0 0v.1m0 0v.1m0 0v.1m0 0v.1m0 136.1v.1m0 0v.2m0 0h0m0 0v.2m0 0v.1m0 0v.1m0 0v.1m0 0l.1.1m0 0l.1.1m0 0v.1m0 0v.1m.7-138.2l-.1.3m0 0l-.2.3m0 0l-.3.3m0 0h-.3m1.2 137.8l-.4-.2m0 0l-.2-.2m0 0l-.3-.1m.1-138.6l.3-.1m0 0l.2-.1m0 0l.3-.2m1.2 27.1V66.5m0 0h-.5m0 0h-.4m0 0h-.3m0 0h-.3m0 0v18.3m1.5-23.2l-.5.1m0 0l-.4.1m0 0l-.3.5m0 0l-.3.4m0 0v.4m0 0v.1m0 0v.1m0 0v.1m0 0v.2m0 0v.1m0 0v.1m0 0v.1m0 0v.1m0 0v.2m0 0v.2m0 0v.2m0 0v.2m0 0v.1m0 0v.2m0 0v.4m0 0v.1m0 0v.3m0 0v.2m0 0v.2m0 0v.2m0 112.6v18.7m1.5 0h-.5m0 0h-.4m0 0h-.3m0 0h-.3m1.5 0v-23.2m-1.5 23.2v.6m0 0v.6m0 0v.6m0 0v.5m0 0v.5m0 0v.3m0 0v.2m0 0v.1m1.5 1.3h-.5m0 0l-.3-.2m0 0l-.4-.3m0 0l-.3-.4m0 0v-.4m1.5 1.3v-.2m0 0v-.4m0 0v-.4m0 0v-.6m0 0v-.8m0 0v-.7m0 0v-.9m0 0v-.7m0-131.3v-.3m0 0v-.3m0 0v-.3m0 0v-.4m0 0v-.3m0 0v-.3m0 0v-.3m0 0V64m0 0v-.2m0 0v-.2m0 0v-.3m0 0v-.2m0 0v-.3m0 0v-.1m0 0v-.2m0 0v-.2m0 0v-.1m0 0v-.1m0 0v-.3m0 0v-.1m0 0v-.1M228 79.4v.5m0 104.3v.4m13.8-117.8v-.9m0 0v-.8m0 0l-.1-.8m0 0v-.7m0 0V63m0 0v-.5m0 0v-.3m0 0l-.1-.2m0 0v-.2m5.1 114.7l-4.9-109.7m4.9 109.7l-.3.1m0 0h-.3m0 0l-.3.2m0 0h-.3m0 0h-.3m0 0h-.3m0 0l-.3.1m0 0h-.3m0 0h-.4m0 0l-.4.1m0 0l-.3.1m0 0h-.3m0 0h-.3m0 0l-.3.1m0 0h-.3m0 0l-.3.1m0 0l-.3.1m0 0h-.2m0 0l-.2.1m0 0l-.2.1m0 0l-.2.1m0 0l-.2.1m0 0l-.3.2m0 0v.1m0-116.7v.3m0 0v.4m0 0v.4m0 0v.6m0 0v.7m0 0v.8m0 0v.9m0 0v.8m0 0v111.8m0-111.8h.2m0 0l.1.1m0 0h.1m0 0h.1m0 0h.1m0 0l.1.1m0 0h.1m0 0h.1m0 0h.1m0 0l.1.1m0 0h.1m0 0h.1m0 0v.1m0 0h.1m0 0h.1m0 0h.1m0 0h.1m0 0v.1m-1.7-5.4l1.5.4m-1.5 140.7H410m-178.6 0h8.7m169.9-4.7H240.1m0 4.7v-.2m0 0v-.4m0 0v-.4m0 0v-.6m0 0v-.8m0 0v-.7m0 0v-.9m0 0v-.7m0 0h-8.7m178.6 0v-13.5m-169.9-6.2h1.3m0 0l1.2.1m0 0l1.3.1m0 0h1.1m0 0h1.2m0 0l1.3.1m0 0h1.2m0 0h1.1m0 0l1.3.1m0 0l1.2.1m0 0h1.2m0 0h1.3m0 0l1.2.1m0 0h1.3m0 0h1.2m0 0l1.2.1m0 0l1.2.1m0 0h1.2m0 0h1.2m0 0l1.3.1m0 0h1.2m0 0h1.2m0 0l1.3.1m0 0l1.2.1m0 0h1.3m0 0h1.1m0 0l1.2.1m0 0h1.3m0 0h1.2m0 0l1.1.1m0 0l1.3.1m0 0h1.2m0 0h1.2m0 0l1.3.1m0 0h1.2m0 0h1.2m0 0l1.3.1m0 0l1.2.1m0 0h1.2m0 0h1.2m0 0l1.2.1m0 0h1.3m0 0h1.1m0 0l1.2.1m0 0l1.3.2m0 0h1.2m0 0h1.2m0 0l1.3.1m0 0h1.2m0 0l1.3.1m0 0h1.2m0 0l1.1.1m0 0h1.3m0 0h1.2m0 0l1.2.1m0 0h1.3m0 0l1.2.1m0 0h1.3m0 0l1.2.1m0 0h1.1m0 0h1.3m0 0l1.2.1m0 0h1.2m0 0l1.3.1m0 0h1.1m0 0l1.2.1m0 0h1.3m0 0h1.2m0 0l1.2.1m0 0h1.3m0 0l1.2.1m0 0h1.3m0 0l1.1.1m0 0h1.2m0 0h1.3m0 0l1.2.1m0 0h1.2m0 0l1.3.1m0 0h1.2m0 0l1.1.1m0 0h1.3m0 0l1.2.1m0 0h1.3m0 0h1.2m0 0l1.2.1m0 0h1.2m0 0l1.2.1m0 0h1.2m0 0l1.3.1m0 0h1.2m0 0h1.2m0 0l1.3.1m0 0h1.2m0 0l1.3.1m0 0h1.1m0 0l1.2.1m0 0h1.3m0 0h1.2m0 0l1.1.1m0 0h1.3m0 0l1.2.1m0 0h1.2m0 0l1.3.1m0 0h1.2m0 0h1.2m0 0l1.3.1m0 0l1.2.1m0 0h1.1m0 0h1.3m0 0l1.2.1m0 0h1.3m0 0h1.2m0 0l1.2.1m0 0l1.3.1m0 0h1.2m0 0h1.2m0 0l1.2.1m0 0h1.2m0 0h1.3m0 0l1.2.1m0 0l1.1.2m0 0h1.3m0 0h1.2m0 0h1.2m0 0h1.3m0 0h1.2m0 0l1.2.2m0 0l1.3.1m0 0h1.2m0 0h1.2m0 0l1.2.1m0 0h1.2m0 0h1.3m0 0l1.1.1m0 0l1.2.1m0 0h1.3m0 0h1.2m0 0l1.2.1m0 0h1.3m-169.9-6.2v19.7m6.5-22.8l163.4 7.1M231.4 66.5l8.7-.2m-8.7-4.7h.3m0 0l.4-.1m0 0h.3m0 0h.4m0 0h.4m0 0h.4m0 0h.3m0 0h.4m0 0h.3m0 0h.4m0 0h.4m0 0h.3m0 0h.4m0 0h.3m0 0l.4-.1m0 0h.4m0 0h.4m0 0h.4m0 0h.3m0 0h.4m0 0h.3m0 0h.3m0 0h.4m0 0h.4m-20.2 1.5l9.5-.2m-9.5 138.4l9.4.2m205-42.2V66.8m0 130.3v-32.8m0 36.3v-.2m0 0v-.2m0 0v-.3m0 0v-.4m0 0v-.5m0 0v-.6m0 0v-.6m0 0v-.7m0-130.3v-.6m0 0v-.6m0 0v-.7m0 0v-.5m0 0V64m0 0v-.3m0 0v-.2m0 0v-.1M432.9 202l.5-.1m0 0l.4-.2m0 0l.3-.3m0 0l.2-.4m0 0v-.4m0-3.5h-.2m0 0h-.3m0 0h-.4m0 0h-.5m0 0v.9m0 0v.8m0 0v.7m0 0v.7m0 0v.7m0 0v.4m0 0v.4m0 0v.2m0 0v.1m1.4-42.9v.1m0 0v.3m0 0v.2m0 0v.3m0 0v.2m0 0v.2m0 0v.3m0 0v.1m0 0v.3m0 0v.2m0 0v.2m0 0v.2m0 0v.2m0 0v.2m0 0v.2m0 0v.2m0 0v.2m0 0v.2m0 0v.2m0 0v.4m0 0v.1m0 0v.3m0 0v.2m0 0v.2m0-97.5h-.2m0 0h-.3m0 0h-.4m0 0h-.5m0 0v130.3m1.4-133.7V63m0 0l-.2-.4m0 0l-.3-.3m0 0l-.4-.2m0 0l-.5-.1m0 0v.1m0 0v.2m0 0v.4m0 0v.4m0 0v.6m0 0v.6m0 0v.8m0 0v.9m0 0v.8M410 202.5l22.9-.5m0-4.9l-22.9.7m0 0v.7m0 0v.9m0 0v.7m0 0v.8m0 0v.6m0 0v.4m0 0v.4m0 0v.2m24.8-94.5v-.1m0 0v-.2m0 0v-.4m0 0v-.4m0 0v-.6m0 0v-.9m0 0v-.8m0 0v-.9m0 0v-1m0 0v-1.1m0 0v-1.1m0 0v-1.1m0 0v-1.2m0 0v-1.1m0 0v-1m0 0V95m0 0v-.9m0 0v-.8m0 0v-.8m0 0v-.7m0 0v-.4m0 0V91m0 0v-.2m0 0v-.1M432.9 62l-21.5-.6m0 4.9l21.5.5m4.3 124.1v-.1m0 0v-.2m0 0v-.5m0 0v-.4m0 0v-.6m0 0v-.8m0 0v-.9m0 0v-1m0 0v-1.1m0 0V184m0 0v-1.4m0 0v-1.4m0 0v-1.6m0 0V178m0 0v-1.8m0 0v-1.7m0 0v-1.9m0 0v-1.9m0 0v-2m0 0v-1.9m0 0v-2.1m0 0v-2.1m0 0v-1.9m0 0v-2.1m0 0v-1.9m0 0v-2.1m0 0v-2m0 0v-1.8m0 0v-1.9m0 0v-1.8m0 0v-1.8m0 0v-1.5m0 0v-1.7m0 0v-1.4m0 0v-1.4m0 0v-1.2m0 0V137m0 0v-1.1m0 0v-.9m0 0v-.7m0 0v-.6m0 0v-.5m0 0v-.4m0 0v-.2m0 0v-.1m-1-.9v.2m0 0v.4m0 0v.5m0 0v.7m0 0v.8m0 0v.9m0 0v1m0 0v1.2m0 0v1.3m0 0v1.4m0 0v1.5m0 0v1.7m0 0v1.7m0 0v1.7m0 0v1.8m0 0v2m0 0v1.9m0 0v2.1m0 0v2m0 0v2.1m0 0v2.2m0 0v2m0 0v2.1m0 0v2.2m0 0v2m0 0v2m0 0v2m0 0v1.9m0 0v1.9m0 0v1.8m0 0v1.7m0 0v1.5m0 0v1.5m0 0v1.5m0 0v1.2m0 0v1.3m0 0v1m0 0v.9m0 0v.8m0 0v.7m0 0v.5m0 0v.4m0 0v.1m0 0v.1m-1.4-83.8l-.1.3m0 0l-.1.3m0 0l-.3.2m0-18.9l.3.2m0 0l.1.3m0 0l.1.3m1.4 40.9h.5m0 0l.3.2m0 0l.2.4m0 0v.3m0 58.4v.4m0 0l-.2.3m0 0l-.3.1m0 0l-.5.1m-26.2-7.7v13.7m0-13.7v-2.3m0 0v-2.3m0 0v-2.3m0 0v-111m0 0v-.7m0 0v-.8m0 0V64m0 0v-.6m0 0v-.5m0 0v-.4m0 0v-.3m0 0v-.4m0 115.4h1.4m0-110.9v110.9m0-111v.1m-1.4-.1h1.4m0-4.8v.1m0 0v.1m0 0v.1m0 0v.1m0 0v.3m0 0v.2m0 0v.1m0 0v.3m0 0v.1m0 0v.3m0 0v.2m0 0v.3m0 0v.2m0 0v.3m0 0v.2m0 0v.3m0 0v.3m0 0v.3m0 0v.4m0 0v.3m0 0v.3m-1.4-4.4l1.4-.4m0 115.8v.3m0 0v.3m0 0v.3m0 0v.2m0 0v.3m0 0l-.1.3m0 0v.3m0 0l-.1.3m0 0v.2m0 0v.3m0 0l-.1.4m0 0v.2m0 0l-.1.3m0 0l-.1.3m0 0v.3m0 0l-.1.3m0 0l-.1.3m0 0l-.1.2m0 0l-.1.3m0 0v.3m0 0l-.2.3m0 0l-.1.4m0 0l-.1.3m0 0l-.1.2m26.2 7.7l-1.9.1m1.9-60.3l-1.9-.1m-192-53.8h9.3m0-4.2h-9.5m9.5 29.9l1.4-.1m0 0l1.5-.2m0 0l1.4-.4m0 0l1.4-.5m0 0l1.3-.6m0 0l1.3-.8m0 0l1.2-.8m0 0l1-1.1m0 0l1-1m0 0l.9-1.2m0 0l.7-1.3m0 0l.7-1.3m0 0l.5-1.3m0 0l.3-1.5m0 0l.2-1.4m0 0l.1-1.5m0 0l-.1-1.5m0 0l-.2-1.3m0 0l-.3-1.5m0 0l-.5-1.3m0 0l-.7-1.5m0 0l-.7-1.2m0 0l-.9-1.1m0 0l-1-1.2m0 0l-1-.9m0 0l-1.2-.9m0 0l-1.3-.8m0 0l-1.3-.6m0 0l-1.4-.5m0 0l-1.4-.3m0 0l-1.5-.2m0 0l-1.4-.1m0 4.2l1.2.1m0 0l1.3.1m0 0l1.2.4m0 0l1 .6m0 0l1.2.6m0 0l1 .7m0 0l.9.8m0 0l.7.9m0 0l.8 1.2m0 0l.6 1m0 0l.4 1.2m0 0l.2 1.3m0 0l.1 1.2m0 0v1.3m0 0l-.1 1.2m0 0l-.2 1.2m0 0l-.4 1.2m0 0l-.6 1.1m0 0l-.8 1m0 0l-.7 1m0 0l-.9.9m0 0l-1 .7m0 0l-1.2.6m0 0l-1 .5m0 0l-1.2.3m0 0l-1.3.3m0 0l-1.2.1m-8.2 4.2h8.2m0-4.2h-8.4m0-.4h8.4m0 0h1.2m0 0l1.2-.3m0 0l1.1-.3m0 0l1.1-.5m0 0l1.1-.6m0 0l1-.7m0 0l.8-.9m0 0l.8-.9m0 0l.8-1m0 0l.5-1m0 0l.4-1.2m0 0l.3-1.2m0 0l.1-1.1m0 0v-1.3m0 0l-.1-1.2m0 0l-.3-1.2m0 0l-.4-1.1m0 0l-.5-1.1m0 0l-.8-1m0 0l-.8-1m0 0l-.8-.8m0 0l-1-.7m0 0l-1.1-.6m0 0l-1.1-.6m0 0l-1.1-.3m0 0l-1.2-.2m0 0l-1.2-.1m0 0h-9.3M410 99.2h-8.8m0 4.2h8.8m-8.8-29.9l-1.4.1m0 0l-1.6.2m0 0l-1.3.3m0 0l-1.5.5m0 0l-1.2.6m0 0l-1.3.8m0 0l-1.2.9m0 0l-1 .9m0 0l-1 1.2m0 0l-.8 1.1m0 0l-.9 1.2m0 0l-.6 1.5"/><path clip-rule="evenodd" fill="none" stroke="#000" stroke-width=".718" stroke-linecap="round" stroke-linejoin="round" stroke-miterlimit="10" d="M387.4 82.8l-.5 1.3m0 0l-.3 1.5m0 0l-.2 1.3m0 0l-.1 1.5m0 0l.1 1.5m0 0l.2 1.4m0 0l.3 1.5m0 0l.5 1.3"/><path clip-rule="evenodd" fill="none" stroke="#1D1D1B" stroke-width=".283" stroke-miterlimit="3.864" d="M387.4 94.1l.6 1.3m0 0l.9 1.3m0 0l.8 1.2m0 0l1 1m0 0l1 1.1m0 0l1.2.8m0 0l1.3.8m0 0l1.2.6m0 0l1.5.5m0 0l1.3.4m0 0l1.6.2m0 0l1.4.1m0-4.2l-1.2-.1m0 0l-1.3-.3m0 0l-1.2-.3m0 0l-1.1-.5m0 0l-1.1-.6m0 0l-1-.7m0 0l-.9-.9m0 0l-.8-1m0 0l-.7-1m0 0l-.6-1.1m0 0l-.4-1.2m0 0l-.2-1.2m0 0l-.2-1.2m0 0v-1.3m0 0l.2-1.2m0 0l.2-1.3m0 0l.4-1.2m0 0l.6-1m0 0l.7-1.2m0 0l.8-.9m0 0l.9-.8m0 0l1-.7m0 0l1.1-.6m0 0l1.1-.6m0 0l1.2-.4m0 0l1.3-.1m0 0l1.2-.1m8.8-4.2h-8.8m0 4.2h8.8m-8.8 21.1h8.8m0-2h-8.8m0-18.9l-1.2.1m0 0l-1.2.2m0 0l-1.2.3m0 0l-1 .6m0 0l-1.2.6m0 0l-.9.7m0 0l-.9.8m0 0l-.7 1m0 0l-.7 1m0 0l-.6 1.1m0 0l-.4 1.1m0 0l-.3 1.2m0 0l-.1 1.2m0 0v1.3m0 0l.1 1.1m0 0l.3 1.2m0 0l.4 1.2m0 0l.6 1m0 0l.7 1m0 0l.7.9m0 0l.9.9m0 0l.9.7m0 0l1.2.6m0 0l1 .5m0 0l1.2.3m0 0l1.2.3m0 0h1.2m0-2l-1.1-.1m0 0l-1.1-.2m0 0l-1-.3m0 0l-1-.5m0 0l-.8-.7m0 0l-.9-.7m0 0l-.7-.8m0 0l-.6-.9m0 0l-.5-1m0 0l-.3-1m0 0l-.2-1m0 0l-.1-1.2m0 0l.1-1.1m0 0l.2-1m0 0l.3-1.1m0 0l.5-.9m0 0l.6-.9m0 0l.7-.8m0 0l.9-.8m0 0l.8-.6m0 0l1-.5m0 0l1-.3m0 0l1.1-.3m0 0h1.1m8.8-2.2h-8.8m0 2.2h8.8M251.6 96.8h-8.4m8.4-16.7h1m0 0l1.2.3m0 0l1 .3m0 0l.9.5m0 0l.9.6m0 0l.9.8m0 0l.7.8m0 0l.6.9m0 0l.5.9m0 0l.3 1.1m0 0l.2 1m0 0l.1 1.1m0 0l-.1 1.2m0 0l-.2 1m0 0l-.3 1m0 0l-.5 1m0 0l-.6.9m0 0l-.7.8m0 0l-.9.7m0 0l-.9.7m0 0l-.9.5m0 0l-1 .3m0 0l-1.2.2m0 0l-1 .1m-9.2-16.7h9.2m149.6 18.7v.4m0-21.3v-.2m-157.8 25.7l3 66.4m-4.6-103l.3 6.7m4.3 96.3l163.6 8m0-.6v-73.8m0-29.9v-6.7m-168.2 0H410m-168.4-5H410M246.6 174.7h1.3m0 0l1.2.1m0 0h1.3m0 0l1.2.1m0 0h1.2m0 0l1.2.1m0 0h1.2m0 0l1.2.1m0 0l1.3.1m0 0h1.1m0 0l1.2.1m0 0h1.3m0 0h1.2m0 0l1.2.1m0 0l1.3.1m0 0h1.2m0 0l1.2.1m0 0h1.2m0 0l1.2.1m0 0h1.3m0 0l1.2.1m0 0h1.2m0 0l1.3.1m0 0h1.1m0 0l1.2.1m0 0l1.3.1m0 0h1.1m0 0l1.3.1m0 0h1.2m0 0h1.2m0 0l1.3.1m0 0l1.2.1m0 0h1.2m0 0l1.2.1m0 0h1.2m0 0l1.2.1m0 0l1.3.2m0 0h1.1m0 0h1.2m0 0l1.3.1m0 0h1.2m0 0l1.3.1m0 0l1.2.1m0 0h1.2m0 0l1.2.1m0 0h1.2m0 0h1.2m0 0l1.3.1m0 0l1.2.1m0 0h1.2m0 0l1.3.1m0 0h1.1m0 0l1.3.1m0 0l1.2.1m0 0h1.2m0 0h1.2m0 0l1.2.1m0 0h1.2m0 0l1.3.1m0 0l1.2.1m0 0h1.2m0 0l1.3.1m0 0h1.1m0 0h1.2m0 0l1.3.1m0 0l1.2.1m0 0h1.3m0 0l1.2.1m0 0h1.2m0 0l1.2.1m0 0l1.2.1m0 0h1.2m0 0h1.2m0 0l1.2.1m0 0h1.2m0 0l1.3.1m0 0l1.2.1m0 0h1.3m0 0l1.2.1m0 0h1.1m0 0h1.3m0 0l1.2.1m0 0l1.2.1m0 0h1.2m0 0l1.2.1m0 0h1.2m0 0l1.3.1m0 0l1.2.1m0 0h1.2m0 0h1.3m0 0l1.1.1m0 0h1.3m0 0l1.2.1m0 0l1.2.1m0 0h1.3m0 0l1.2.1m0 0h1.2m0 0l1.2.1m0 0h1.2m0 0l1.2.2m0 0h1.3m0 0l1.1.1m0 0h1.3m0 0l1.2.1m0 0l1.2.1m0 0h1.3m0 0h1.2m0 0l1.2.1m0 0h1.2m0 0l1.2.1m0 0l1.2.1m0 0h1.3m0 0l1.2.1m0 0h1.3m0 0l1.2.1m0 0h1.1m0 0l1.3.1m0 0h1.2m0 0l1.1.1m0 0h1.3m0 0l1.2.1m0 0l1.2.1m0 0h1.3m0 0l1.2.1m0 0h1.2m0 0h1.3m0 0l1.1.1m0 0l1.3.1m0 0h1.2m0 0l1.1.1m0 0h1.3m0 0l1.2.1m0 0l1.2.1m0 0h1.3m-181.9 2.2l-2.1-.1m4.9-8.8v.8m.5-1.7l-.3.2m0 0l-.1.3m0 0l-.1.4m2.1-10.1l.1-.2m0 0l.2-.3m0 0l.3-.2m0 0h.3m-.9 2.4v-1.7m-1.8 1.7h1.8m-1.8 1.6v-1.6m-.7 2.3l.2-.1m0 0l.2-.1m0 0l.2-.2m0 0l.1-.3m-2.8.7h2.1m-2.1-3.6v3.6m.1-4l-.1.4m1.4-5.5l-1.3 5.1m-.4-6l.2-.2m0 0l.3-.2m0 0h.3m0 0h.4m0 0l.3.2m0 0l.2.2m0 0l.1.4m0 0l-.1.5m-4.5 4.4l2.8-5.3m-3.1 6.4l.1-.6m0 0l.2-.5m-.3 18.6v-17.5m1 18.5l-1-1m1-103.2l2.1-.1m-3.1 1.1l1-1m-1 18.4V80.9m.3 18.7l-.2-.7m0 0l-.1-.6m3.1 6.4l-2.8-5.1m4.5 4.4l.1.4m0 0l-.1.3m0 0l-.2.3m0 0l-.3.1m0 0l-.4.1m0 0l-.3-.1m0 0l-.3-.1m0 0l-.2-.3m.4-6l1.3 5.3m-1.4-5.7l.1.4m-.1-4v3.6m2.1-3.6h-2.1m2.8.7l-.1-.2m0 0l-.2-.3m0 0l-.2-.1m0 0l-.2-.1m.7 2.5v-1.8m1.8 1.8h-1.8m1.8 1.5v-1.5m.9 2.3h-.3m0 0l-.3-.2m0 0l-.2-.2m0 0l-.1-.4m-2.1-10l.1.4m0 0l.1.3m0 0l.3.2m-.5-1.7v.8m-1.1 6.5v-.5m-4.8 56.8v1.3m0 0v1.4m0 0v1.3m0 0v1.4m0 0v1.2m0 0v1.2m0 0v1.2m0 0v.9m0 0v.9m0 0v1m0 0v.6m0 0v.6m0 0v.5m0 0v.3m0 0v.2m0 0v.1m0-53v38.9m0-53.2v.2m0 0v.1m0 0v.3m0 0v.6m0 0v.6m0 0v.7m0 0v.8m0 0v1m0 0v1m0 0v1.1m0 0v1.2m0 0v1.2m0 0v1.3m0 0v1.4m0 0v1.3m0 0v1.5m4.8 56.6v-.5m1.3-73.5h-.1m0 0h-.1m0 0h-.1m0 0h-.1m0 0h-.1m0 0h-.1m0 0h-.1m0 0h-.1m0 0h-.1m0 0h-.2m0 0h-.1m0 0h-.1m3.2 61.9h.2m0 0h.1m0 0h.1m0 0h.2m0 0h.1m0 0h.2m0 0h.1m0 0h.1m0 0h.1m0 0h.1m0 0h.2m0 0h.1m0 0h.1m0 0h.1m0 0h.1m0 0h.1m0 0h.1m0 0h.1m-5.4 10.9h-.1m0 0h-.1m0 0v-.1m0 0h-.1m0 0h-.1m1.8.1h-.1m0 0h-.1m0 0h-.1m0 0h-.1m0 0h-.1m0 0h-.1m0 0h-.1m0 0h-.1m0 0h-.1m0 0h-.1m0 0h-.2m0 0h-.1m0 0h-.1m5.4-61.1h-.1m0 0h-.1m0 0h-.1m0 0h-.1m0 0h-.1m0 0h-.1m0 0h-.1m0 0h-.2m0 0h-.1m0 0h-.1m0 0h-.1m0 0h-.1m0 0h-.2m0 0h-.1m0 0h-.2m0 0h-.1m0 0h-.1m0 0h-.2m2.5 48.3h-.1m0 0h-.2m0 0h-.1m0 0h-.2m0 0h-.1m0 0h-.2m0 0h-.1m0 0l-.2-.1m0 0h-.1m0 0h-.2m0 0h-.1m0 0h-.2m0 0h-.1m0 0h-.3m0 0h-.1m0 0h-.2m0-46.3h.2m0 0h.1m0 0h.3m0 0h.1m0 0h.2m0 0h.1m0 0h.2m0 0h.1m0 0h.2m0 0h.1m0 0h.2m0 0h.1m0 0h.2m0 0h.1m0 0h.2m0 0h.1m-5.7-13.6v.3m0 0v.4m0 0v.1m0 0v.1m0 0h.1m0 0h.1m0 0h.2m0 0h.1m0 0h.1m0 0h.1m0 0h.1m0 0h.1m0 0h.1m0 0V96m0 0h.1m0 0h.1m0 0h.1m0 0h.1m-1.4-.8h-.1m0 0l-.1.3m0 0v.4m0 0l-.1.1m0 0l-.1.1m0 0h.1m0 0h.1m0 0h.1m0 0h.1m-.1-.9h-.1m0 0h-.1m0 0h-.1m0 0h-.1m0 0l-.1.1m0 0l-.2.1m0 0l-.1.1m0 0v.2m0 0l-.1.1m0 0h-.1m0 0v.1m0 0v.1m0 0l-.1.1m0 0v.1m0 0v.1m0 0l-.1.1m0 0v.1m0 0v.2m0 0l-.1.1m0 0v.1m0 0v.1m8.4 25.3h0m0 0h-.3m0 0h-.1m0 0h-.2m0 0h-.1m0 0h-.2m0 0h-.1m0 0h-.2m0 0h-.1m0 0h-.2m0 0h-.1m0 0h-.2m0 0h-.1m0 0h-.2m0 0h-.2m0 0h-.1m0 0l-.2.1m0 0h-.1m0 0h-.2m0 0h-.1m0 0h-.2m0 0h-.3m0 0h-.1m0 0h-.2m-3.2 46.3h.1m0 0h.1m0 0h.2m0 0h.1m0 0h.1m0 0h.1m0 0v.1m0 0h.1m0 0h.1m0 0h.1m0 0h.1m0 0h.1m0 0h.1m-1.3-.8v.2m0 0v.2m0 0v.3m-.4-.8l.1.1m0 0l.1.2m0 0v.2m0 0l.1.3m0 0h.1m-1.4-1.7v.2m0 0v.1m0 0h.1m0 0v.2m0 0v.1m0 0l.1.1m0 0v.1m0 0v.1m0 0l.1.1m0 0v.1m0 0v.1m0 0l.1.1m0 0l.1.1m0 0l.1.1m0 0l.2.1m0 0v.1m0 0h.1m0 0h.1m0 0h.1m0 0h.1m0 0h.1m7.3-45.2l-4 .1m-1.8-34.1l.2-.1m1.9 71.9h.1m0 0h.2m0 0h.1m0 0h.1m0 0h.1m0 0h.1m0 0h.1m-.8 0h-.1m0 0h-.1m0 0h-.1m-3.4 0h-.1m3.8-58.6h.1m0 0h.2m0 0h.1m0 0h.1m0 0h.1m0 0h.1m0 0h.1m-4.6.1h.1m3.4-.1h.1m0 0h.1m0 0h.1m-3.9-6h.1m0 0h.1m0 0h.1m0 0h.1m0 0h.1m0 0h.1m0 0h.2m0 0h.1m0 0h.1m0 0h.1m0 0h.1m0 0h.2m0 0h.1m0 0h.1m0 0h.1m0 0h.1m2.1 4.4h-.1m0 0v.1m0 0h-.1m0 0h-.1m-3.4 0h-.1m0 0h-.1m6.7 49.7h-.2m0 0h-.1m0 0h-.1m0 0h-.1m0 0h-.1m0 0h-.1m0 0h-.2m0 0h-.1m0 0h-.1m0 0h-.1m0 0h-.1m0 0h-.2m0 0h-.1m0 0h-.1m0 0h-.1m0 0h-.2m0 0h-.1m0 0h-.1m0 0h-.2m0 0h-.1m0 0h-.2m0 0h-.1m0 0h-.1m0 0h-.2m-3.6 11.8h.1m0 0h.1m3.4.1h.1m0 0h.1m0 0h.1m-2.1 4.5h-.1m0 0h-.1m0 0h-.1m0 0h-.1m0 0h-.2m0 0h-.1m0 0h-.1m0 0h-.1m0 0h-.1m0 0h-.2m0 0h-.1m0 0h-.1m0 0h-.1m0 0h-.1m0 0h-.1m0 0h-.1m2 7.3h-.2"/><path clip-rule="evenodd" fill="none" stroke="#000" stroke-width=".718" stroke-linecap="round" stroke-linejoin="round" stroke-miterlimit="10" d="M233 152.1h.2m0 0h.1m0 0h.1m0 0h.2m0 0h.1m0 0h.2m0 0h.1m0 0h.1m0 0h.1m0 0h.1m0 0h.1m0 0h.1m0 0h.1m0 0h.2m0 0h.1m0 0h.1m0 0h.1m0 0h.1m0 0h.2m0 0h.1m0 0h.1m0 0h.1m0 0h.1m0 0h.1"/><path clip-rule="evenodd" fill="none" stroke="#1D1D1B" stroke-width=".283" stroke-miterlimit="3.864" d="M234.1 163.7h-.3m0 0h-.2m0 0h-.3m0-.9v.1m0 0v.1m.8.7v-2.4m0 0l-.1.1m0 0v.1m0 0l-.1.1m0 0v.1m0 0h-.1m0 0v.1m0 0l-.1.1m0 0v.1m0 0v.1m0 0l-.1.1m0 0v.1m0 0l-.2.1m0 0v.1m0 0l-.1.1m0 0v.1m0 0v.1m0-61.7v.1m0 0v.1m0 0v.1m0 0h.1m0 0v.1m0 0v.1m0 0h.2m0 0v.1m0 0v.1m0 0l.1.1m0 0v.1m0 0l.1.1m0 0v.1m0 0h.1m0 0v.1m0 0l.1.2m0 0v.1m0 0v.1m0 0h.1m0 0v-2.4m0 0h-.3m0 0h-.2m0 0h-.3m0 .7v.1m0-1.8v1.7m-3.9.2h-.2m.2.9v-.1m0 0v-.1m0 0v-.1m0 0v-.1m0 0v-.1m0 0v-.1m0 0v-.1m0 0v-.1m0 0v-.1m0-4.5l-.4.1m0 0l-.3.2m0 0l-.2.1m0 0l-.1.3m1 3.8v-1.5m0 0v-1.5m0 0v-1.5m0 0v-.1m0 0v-.1m0 0v-.1m0 0v-.1m0 0v-.1m0 0v-.1m0 71.2l-.4-.1m0 0l-.3-.1m0 0l-.2-.2m0 0l-.1-.4m1 1.4v-.1m0 0v-.1m0 0v-.1m0 0v-.1m0 0v-.1m0 0v-.1m0-4.6h-.2m.2 4.6v-1.5m0 0v-1.4m0 0v-1.7m0 0v-.1m0 0v-.1m0 0v-.1m0 0v-.1m0 0v-.1m0 0v-.1m0 0v-.1m0 0v-.1m0 0v-.1M234 126h-.3m0 0h-.4m0 0h-.2m0 0h-.1m0 11.9h.1m0 0h.2m0 0h.4m0 0h.3m0 0V126m3.1.2l-3.1-.2m3.1 11.8l-3.1.1m-1 2.7l4 .1m.1-.7l-4.1-.1m.3 24.8V163m-8-11.5v1.3m0 0v1.4m0 0v1.3m0 0v1.3m0 0v1.2m0 0v1.1m0 0v1.1m0 0v.9m0 0v.8m0 0v.7m0 0v.7m0 0v.5m0 0v.4m0 0v.2m0 0v.1m-.3-13h.1m0 0h.2m2.8 0v.9m0 0v1.1m0 0v1m0 0v.9m0 0v.8m0 0v.8m0 0v.7m0 0v.5m0 0v.5m0 0v.3m0 0v.2m-2.8-7.7h2.8m0 0h.2m0 0h.3m0 0h.4m0 0h.3m0 0h.3m-4.3-38.9v38.9m-.3-38.9h.1m0 0h.2m2.8 0v38.9m-2.8-38.9h2.8m0 0h.2m0 0h.3m0 0h.4m0 0h.3m0 0h.3m-4.3-13v.3m0 0v.3m0 0v.5m0 0v.6m0 0v.7m0 0v.9m0 0v.9m0 0v1m0 0v1.3m0 0v1.1m0 0v1.3m0 0v1.3m0 0v1.4m0 0v1.4m2.8-7.9v.3m0 0v.3m0 0v.5m0 0v.5m0 0v.7m0 0v.8m0 0v.8m0 0v.9m0 0v1m0 0v1m0 0v1.1m1.5-14.7h3.4m-3.4 68.1V97.9M233 166h-3.4m3.4-68.1V166m17.8-81.5v-.1m0 0v-.1m0 0v-.1m0 0v-.1m0 0V84m0 0v-.1m0 0v-.1m0 0h-.1m0 0v-.1m0 0v-.1m0 0v-.1m0 0v-.1m0 0v-.1m0 0v-.1m.1 1.3l.5-.1m0 0h.6m0 0l.5.1m0-1.3v.1m0 0v.1m0 0v.1m0 0v.1m0 0v.1m0 0v.1m0 0v.1m0 0v.1m0 0v.1m0 0v.1m0 0v.1m0 0v.1m0 0v.1m0-1.3h-.8m0 0h-.9m-3 6.1h-.1m0 0h-.1m0 0h-.1m0 0h-.1m0 0h-.1m0 0h-.2m0 0h-.1m0 0h-.1m0 0h-.1m0 0h-.1m0 0h-.1m0 0h-.1m0 0h-.1m1.4 0l-.1-.7m0 0v-.5m0 0l.1-.5m-1.4-.1h.1m0 0h.1m0 0h.1m0 0h.1m0 0h.1m0 0h.1m0 0h.1m0 0h.2m0 0h.1m0 0h.1m0 0h.1m0 0v.1m0 0h.1m0 0h.1m-1.4-.1v.9m0 0v.9m6.1 3.1v.1m0 0v.1m0 0v.1m0 0v.1m0 0v.1m0 0v.1m0 0v.1m0 0v.1m0 0v.1m0 0v.1m0 0v.1m0 0v.1m0-1.2h-.5m0 0h-.6m0 0h-.5m-.1 1.2v-.1m0 0v-.1m0 0v-.1m0 0v-.1m0 0v-.1m0 0l.1-.1m0 0v-.1m0 0v-.1m0 0v-.1m0 0v-.1m0 0v-.1m0 0v-.1m-.1 1.2l.9.1m0 0l.8-.1m3-6h.1m0 0h.1m0 0l.1-.1m0 0h.1m0 0h.1m0 0h.1m0 0h.1m0 0h.1m0 0h.1m0 0h.1m0 0h.1m0 0h.1m0 0h.1m0 0h.1m-1.4.1l.2.5m0 0v.5m0 0l-.2.7m1.4 0h-.1m0 0h-.1m0 0h-.1m0 0h-.1m0 0h-.1m0 0h-.1m0 0h-.1m0 0h-.1m0 0h-.1m0 0h-.1m0 0h-.1m0 0h-.1m0 0h-.1m0 0h-.1m1.4 0v-.9m0 0v-.9m-6-3v.1m0 0v.1m0 0v.1m0 0v.1m0 0v.1m0 0h.1m0 0v.1m0 0v.1m0 0v.1m0 0h.1m0 0v.3m0 0v.1m0 0v.1m0 0v.1m0 0v.1m0 0v.1m0 0v.1m0 0h.1m0 0v.1m0 0v.1m0 0v.1m1 0h-.5m0 0h-.5m1 0v-.1m0 0v-.1m0 0v-.1m0 0l.1-.1m0 0V86m0 0v-.1m0 0v-.1m0 0v-.1m0 0v-.1m0 0v-.3m0 0l.1-.1m0 0v-.1m0 0V85m0 0v-.1m0 0v-.1m0 0v-.1m0 0v-.1m0 0l.1-.1m-4.7 4.8h.1m0 0h.1m0 0l.1-.1m0 0h.1m0 0h.1m0 0h.1m0 0l.1-.1m0 0h.1m0 0h.1m0 0h.1m0 0h.1m0 0h.1m0 0h.1m0 0h.1m0 0V89m0 0h.1m0 0h.1m0 0h.1m0 0h.1m0 0h.1m0 0h.1m0-1.1l-.1.5m0 0l.1.6m0-1.1h-.1m0 0h-.1m0 0h-.1m0 0v-.1m0 0h-.1m0 0h-.1m0 0h-.1m0 0h-.1m0 0h-.1m0 0h-.1m0 0h-.1m0 0l-.1-.1m0 0h-.1m0 0h-.1m0 0h-.1m0 0h-.1m0 0h-.1m0 0h-.1m0 0l-.1-.1m0 0h-.1m0 0h-.1m4.7 4.8l-.1-.3m0 0V92m0 0v-.1m0 0v-.1m0 0v-.1m0 0v-.2m0 0h-.1m0 0v-.1m0 0v-.2m0 0v-.1m0 0V91m0 0v-.1m0 0v-.1m0 0l-.1-.1m0 0v-.1m0 0v-.1m0 0v-.1m0 0v-.1m-1 0l.5.1m0 0l.5-.1m-1 0v.1m0 0v.1m0 0v.1m0 0l-.1.1m0 0v.1m0 0v.1m0 0v.1m0 0v.1m0 0v.1m0 0v.2m0 0l-.1.1m0 0v.2m0 0l-.1.1m0 0v.1m0 0v.1m0 0v.1m0 0v.3m4.6-4.8h-.1m0 0l-.1.1m0 0h-.1m0 0h-.1m0 0h-.1m0 0h-.1m0 0h-.1m0 0h-.1m0 0h-.1m0 0v.1m0 0h-.1m0 0h-.1m0 0h-.1m0 0h-.1m0 0h-.1m0 0h-.1m0 0h-.1m0 0l-.2.1m0 0h-.1m0 0h-.1m0 1.1l.1-.6m0 0l-.1-.5m0 1.1h.1m0 0h.1m0 0h.2m0 0h.1m0 0h.1m0 0h.1m0 0v.1m0 0h.1m0 0h.1m0 0h.1m0 0h.1m0 0h.1m0 0h.1m0 0h.1m0 0v.1m0 0h.1m0 0h.1m0 0h.1m0 0h.1m0 0l.1.1m0 0h.1m-5.7-.3h.1m0 0h.1m0 0h.1m0 0v.1m0 0h.1m0 0h.1m0 0l.2.1m0 0l.1.1m0 0h.1m0 0l.1.1m0 0l.1.2m0 0l.1.1m0 0l.1.2m0 0v.1m0 0v.1m0 0l.1.1m0 0v.1m1 0v-.1m0 0v-.1m0 0l.1-.1m0 0v-.1m0 0v-.2m0 0h.1m0 0v-.1m0 0h.1m0 0l.1-.2m0 0l.1-.1m0 0h.1m0 0l.1-.1m0 0l.1-.1m0 0h.2m0 0V89m0 0h.1m0 0h.2m0-1.1l-.2-.1m0 0h-.1m0 0h-.2m0 0v-.1m0 0h-.1m0 0h-.1m0 0l-.1-.1m0 0v-.1m0 0h-.1m0 0v-.1m0 0l-.1-.1m0 0l-.1-.1m0 0l-.1-.1m0 0V87m0 0v-.1m0 0l-.1-.1m0 0v-.1m0 0v-.1m0 0v-.1m-1 0v.1m0 0v.1m0 0l-.1.1m0 0v.1m0 0v.1m0 0l-.1.1m0 0v.1m0 0h-.1m0 0v.1m0 0l-.1.1m0 0v.1m0 0h-.1m0 0l-.1.1m0 0v.1m0 0h-.1m0 0h-.2m0 0l-.1.1m0 0h-.1m0 0h-.1m0 0h-.1m0 0l-.1.1m1.9-6.8l1 .1m0 0l.9.1m0 0l1 .4m0 0l.9.6m0 0l.8.6m0 0l.7.6m0 0l.7.8m0 0l.6.9m0 0l.3 1m0 0l.3 1m0 0v.9m0 0v1.1m0 0l-.1 1m0 0l-.3.9m0 0l-.5.9m0 0l-.6 1m0 0l-.7.7m0 0l-.7.6m0 0l-.9.5m0 0l-.9.4m0 0l-1 .3m0 0l-1 .3m0 0h-1m0 0l-1.1-.3m0 0l-.9-.3m0 0l-.9-.4m0 0l-.9-.5m0 0l-.9-.6m0 0l-.6-.7m0 0l-.6-1m0 0l-.4-.9m0 0l-.3-.9m0 0l-.2-1m0 0v-1.1m0 0l.1-.9m0 0l.2-1m0 0l.4-1m0 0l.5-.9m0 0l.6-.8m0 0l.7-.6m0 0l.9-.6m0 0l.9-.6m0 0l.9-.4m0 0l1.1-.1m0 0l1-.1m0 1.1l.9.1m0 0l.9.2m0 0l1 .4m0 0l.7.5m0 0l.8.5m0 0l.6.7m0 0l.5.8m0 0l.5.9m0 0l.2.9m0 0l.1.9m0 0v1.1m0 0l-.2.9m0 0l-.3.8m0 0l-.5.9m0 0l-.6.8m0 0l-.7.7m0 0l-.7.5m0 0l-.9.4m0 0l-1 .3m0 0l-.9.1m0 0h-.9m0 0l-1-.1m0 0l-.9-.3m0 0l-.8-.4m0 0l-.8-.5m0 0l-.7-.7m0 0l-.6-.8m0 0l-.4-.9m0 0l-.4-.8m0 0l-.1-.9m0 0v-1.1m0 0l.1-.9m0 0l.2-.9m0 0l.4-.9m0 0l.5-.8m0 0l.7-.7m0 0l.7-.5m0 0l.8-.5m0 0l.9-.4m0 0l1-.2m0 0l.9-.1m0 13.3h1m0 0l.9-.2m0 0l1.1-.4m0 0l.8-.4m0 0l.9-.6m0 0l.6-.8m0 0l.7-.7m0 0l.5-1m0 0l.4-.9m0 0l.2-1m0 0l.1-1.1m0 0l-.1-1m0 0l-.2-1m0 0l-.4-1m0 0l-.5-.9m0 0l-.7-.8m0 0l-.6-.7m0 0l-.9-.6m0 0l-.8-.6m0 0l-1.1-.3m0 0l-.9-.2m0 0l-1-.1m0 0l-1 .1m0 0l-1.1.2m0 0l-.9.3m0 0l-.9.6m0 0l-.9.6m0 0l-.7.7m0 0l-.6.8m0 0l-.5.9m0 0l-.3 1m0 0l-.2 1m0 0l-.1 1m0 0l.1 1.1m0 0l.2 1m0 0l.3.9m0 0l.5 1m0 0l.6.7m0 0l.7.8m0 0l.9.6m0 0l.9.4m0 0l.9.4m0 0l1.1.2m0 0h1m.9-9.2l-.1-3.1m1.4 4.3l-.5-.1m0 0l-.4-.2m0 0l-.2-.2m0 0l-.2-.3m0 0v-.4m4.3 1.2h-3m0 1.9l3-.1m-4.3 1.2v-.3m0 0l.2-.3m0 0l.2-.3m0 0l.4-.2m0 0h.5m-1.4 4.2l.1-3.1m-1.8 0v3.1m-1.3-4.2h.4m0 0l.3.2m0 0l.4.3m0 0l.2.3m0 0v.3m-4.4-1.2l3.1.1m0 0V89m1.3 1.5h.4m1.4 0h-.4m1.7-1.1l-.2-.4m.2-1.5l-.2.4m-1.1-1.6h-.4m-2.7 1.2h-3.1m4.4-1.2v.4m0 0l-.2.3m0 0l-.4.2m0 0l-.3.2m0 0l-.4.1m1.3-4.3v3.1m0 0h.4m-1.7 1.2v.4m151-3.4v-.1m0 0v-.1m0 0v-.1m0 0v-.1m0 0V84m0 0v-.1m0 0v-.1m0 0v-.1m0 0v-.1m0 0v-.1m0 0v-.1m0 0v-.1m0 0v-.1m0 1.3l.5-.1m0 0h.6m0 0l.5.1m0-1.3v.1m0 0v.1m0 0v.1m0 0v.1m0 0v.1m0 0v.1m0 0v.1m0 0v.1m0 0v.1m0 0v.1m0 0v.1m0 0v.1m0 0v.1m0-1.3h-.8m0 0h-.8m-3.1 6.1h-.1m0 0h-.1m0 0h-.1m0 0h-.1m0 0h-.1m0 0h-.1m0 0h-.1m0 0h-.1m0 0h-.1m0 0h-.1m0 0h-.1m0 0h-.1m0 0h-.1m1.3 0l-.1-.7m0 0v-.5m0 0l.1-.5m-1.3-.1h.1m0 0h.1m0 0h.1m0 0h.1m0 0h.1m0 0h.1m0 0h.1m0 0h.1m0 0h.1m0 0h.1m0 0h.1m0 0v.1m0 0h.1m0 0h.1m-1.3-.1v.9m0 0v.9m6 3.1v.1m0 0v.1m0 0v.1m0 0v.1m0 0v.1m0 0v.1m0 0v.1m0 0v.1m0 0v.1m0 0v.1m0 0v.1m0 0v.1m0-1.2h-.5m0 0h-.6m0 0h-.5m0 1.2v-.1m0 0v-.1m0 0v-.1m0 0v-.1m0 0v-.1m0 0V93m0 0v-.1m0 0v-.1m0 0v-.1m0 0v-.1m0 0v-.1m0 0v-.1m0 1.2l.8.1m0 0l.8-.1m3.1-6h.1m0 0h.1m0 0v-.1m0 0h.1m0 0h.1m0 0h.1m0 0h.1m0 0h.2m0 0h.1m0 0h.1m0 0h.1m0 0h.1m0 0h.1m0 0h.1m-1.4.1l.1.5m0 0v.5m0 0l-.1.7m1.4 0h-.1m0 0h-.1m0 0h-.1m0 0h-.1m0 0h-.1m0 0h-.1m0 0h-.2m0 0h-.1m0 0h-.1m0 0h-.1m0 0h-.1m0 0h-.1m0 0h-.1m1.4 0v-.9m0 0v-.9m-6.1-3v.1m0 0v.1m0 0v.1m0 0v.1m0 0l.1.1m0 0v.1m0 0v.1m0 0v.1m0 0h.1m0 0v.3m0 0v.1m0 0v.1m0 0v.1m0 0v.1m0 0v.1m0 0l.1.1m0 0v.1m0 0v.1m0 0v.1m1 0h-.5m0 0h-.5m1 0v-.1m0 0v-.1m0 0v-.1m0 0l.1-.1m0 0V86m0 0v-.1m0 0v-.1m0 0v-.1m0 0v-.1m0 0v-.3m0 0h.1m0 0v-.1m0 0v-.1m0 0V85m0 0v-.1m0 0v-.1m0 0v-.1m0 0v-.1m0 0l.1-.1m-4.7 4.8h.1m0 0h.1m0 0l.1-.1m0 0h.1m0 0h.1m0 0h.1m0 0l.1-.1m0 0h.1m0 0h.1m0 0h.1m0 0h.1m0 0h.1m0 0h.1m0 0h.1m0 0V89m0 0h.1m0 0h.2m0 0h0m0 0h.2m0 0h.1m0 0h.1m0-1.1l-.1.5m0 0l.1.6m0-1.1h-.1m0 0h-.1m0 0l-.2-.1m0 0h0m0 0h-.2m0 0h-.1m0 0h-.1m0 0h-.1m0 0h-.1m0 0h-.1m0 0l-.1-.1m0 0h-.1m0 0h-.1m0 0h-.1m0 0h-.1m0 0h-.1m0 0h-.1m0 0l-.1-.1m0 0h-.1m0 0h-.1m4.7 4.8l-.1-.3m0 0V92m0 0v-.1m0 0v-.1m0 0v-.1m0 0v-.2m0 0l-.1-.1m0 0v-.2m0 0v-.1m0 0V91m0 0v-.1m0 0v-.1m0 0l-.1-.1m0 0v-.1m0 0v-.1m0 0v-.1m0 0v-.1m-1 0l.5.1m0 0l.5-.1m-1 0v.1m0 0v.1m0 0v.1m0 0v.1m0 0l-.1.1m0 0v.1m0 0v.1m0 0v.1m0 0v.1m0 0v.2m0 0l-.1.1m0 0v.2m0 0v.1m0 0l-.1.1m0 0v.1m0 0v.1m0 0v.3m4.7-4.8h-.1m0 0h-.1m0 0l-.1.1m0 0h-.1m0 0h-.1m0 0h-.1m0 0h-.1m0 0h-.1m0 0h-.1m0 0h-.1m0 0v.1m0 0h-.1m0 0h-.2m0 0h-.1m0 0h-.1m0 0h-.1m0 0h-.1m0 0v.1m0 0h-.1m0 0h-.1m0 0h-.1m0 1.1l.1-.6m0 0l-.1-.5m0 1.1h.1m0 0h.1m0 0h.1m0 0h.1m0 0h.1m0 0h.1m0 0v.1m0 0h.1m0 0h.2m0 0h.1m0 0h.1m0 0h.1m0 0h.1m0 0v.1m0 0h.1m0 0h.1m0 0h.1m0 0h.1m0 0l.1.1m0 0h.1m0 0h.1m-5.7-.3h.1m0 0h.1m0 0h.1m0 0v.1m0 0h.1m0 0h.1m0 0l.1.1m0 0l.1.1m0 0h.1m0 0l.1.1m0 0l.1.2m0 0l.1.1m0 0h.1m0 0v.2m0 0v.1m0 0l.1.1m0 0v.1m0 0v.1m1 0v-.1m0 0v-.1m0 0l.1-.1m0 0v-.1m0 0v-.2m0 0h.1m0 0v-.1m0 0h.1m0 0l.1-.2m0 0l.2-.1m0 0h0m0 0l.2-.1m0 0l.1-.1m0 0h.2m0 0V89m0 0h.1m0 0h.1m0 0h.1m0-1.1l-.1-.1m0 0h-.1m0 0h-.1m0 0h-.2m0 0v-.1m0 0h-.1m0 0h-.2m0 0v-.1m0 0v-.1m0 0h-.2m0 0v-.1m0 0l-.1-.1m0 0l-.1-.1m0 0l-.1-.1m0 0V87m0 0v-.1m0 0l-.1-.1m0 0v-.1m0 0v-.1m0 0v-.1m-1 0v.1m0 0v.1m0 0v.1m0 0l-.1.1m0 0v.1m0 0v.1m0 0l-.1.1m0 0h-.1m0 0v.1m0 0l-.1.1m0 0v.1m0 0h-.1m0 0l-.1.1m0 0v.1m0 0h-.1m0 0h-.1m0 0l-.1.1m0 0h-.1m0 0h-.1m0 0h-.1m0 0l-.1.1m1.8-6.8l1.1.1m0 0l.9.1m0 0l1 .4m0 0l.8.6m0 0l.9.6m0 0l.7.6m0 0l.6.8m0 0l.6.9m0 0l.3 1m0 0l.3 1m0 0l.1.9m0 0l-.1 1.1m0 0l-.1 1m0 0l-.3.9m0 0l-.5.9m0 0l-.5 1m0 0l-.7.7m0 0l-.8.6m0 0l-.9.5m0 0l-.9.4m0 0l-.9.3m0 0l-1.1.3m0 0h-1m0 0l-1-.3m0 0l-1-.3m0 0l-.9-.4m0 0l-.9-.5m0 0l-.8-.6m0 0l-.7-.7m0 0l-.6-1m0 0l-.4-.9m0 0l-.3-.9m0 0l-.2-1m0 0v-1.1m0 0l.1-.9m0 0l.2-1m0 0l.4-1m0 0l.5-.9m0 0l.7-.8m0 0l.8-.6m0 0l.7-.6m0 0l.9-.6m0 0l1-.4m0 0l1-.1m0 0l1-.1m0 1.1l.9.1m0 0l1 .2m0 0l.9.4m0 0l.7.5m0 0l.8.5m0 0l.7.7m0 0l.5.8m0 0l.4.9m0 0l.2.9m0 0l.1.9m0 0v1.1m0 0l-.2.9m0 0l-.3.8m0 0l-.4.9m0 0l-.6.8m0 0l-.7.7m0 0l-.8.5m0 0l-.9.4m0 0l-.9.3m0 0l-1 .1m0 0h-.9m0 0l-.9-.1m0 0l-1-.3m0 0l-.8-.4m0 0l-.8-.5m0 0l-.6-.7m0 0l-.6-.8m0 0l-.5-.9m0 0l-.4-.8m0 0l-.1-.9m0 0v-1.1m0 0l.1-.9m0 0l.2-.9m0 0l.5-.9m0 0l.5-.8m0 0l.6-.7m0 0l.7-.5m0 0l.8-.5m0 0l1-.4m0 0l.9-.2m0 0l.9-.1m0 13.3h1.1m0 0l.9-.2m0 0l1-.4m0 0l.8-.4m0 0l1-.6m0 0l.7-.8m0 0l.5-.7m0 0l.5-1m0 0l.4-.9m0 0l.2-1m0 0l.1-1.1m0 0l-.1-1m0 0l-.2-1m0 0l-.4-1m0 0l-.5-.9m0 0l-.5-.8m0 0l-.7-.7m0 0l-1-.6m0 0l-.8-.6m0 0l-1-.3m0 0l-.9-.2m0 0l-1.1-.1m0 0l-1 .1m0 0l-1 .2m0 0l-1 .3m0 0l-.9.6m0 0l-.8.6m0 0l-.7.7m0 0l-.7.8m0 0l-.4.9m0 0l-.4 1m0 0l-.2 1m0 0l-.1 1m0 0l.1 1.1m0 0l.2 1m0 0l.4.9m0 0l.4 1m0 0l.7.7m0 0l.7.8m0 0l.8.6m0 0l.9.4m0 0l1 .4m0 0l1 .2m0 0h1m.9-9.2l-.1-3.1m1.4 4.3l-.4-.1m0 0l-.4-.2m0 0l-.3-.2m0 0l-.2-.3m0 0v-.4m4.4 1.2h-3.1m0 1.9l3.1-.1m-4.4 1.2v-.3m0 0l.2-.3m0 0l.3-.3m0 0l.4-.2m0 0h.4m-1.4 4.2l.1-3.1m-1.8 0l.1 3.1m-1.4-4.2h.5m0 0l.3.2m0 0l.3.3m0 0l.2.3m0 0v.3m-4.3-1.2l3 .1m0 0l.2-.4m1.1 1.5h.4m1.4 0h-.4m1.7-1.1V89m0-1.5v.4m-1.3-1.6h-.4m-2.7 1.2h-3m4.3-1.2v.4m0 0l-.2.3m0 0l-.3.2m0 0l-.3.2m0 0l-.5.1m1.4-4.3l-.1 3.1m0 0h.4m-1.7 1.2l.2.4m39.2 101v-.3m0 0v-.3m0 0v-.4m0 0v-.7m0 0v-.8m0 0v-.9m0 0v-1m0 0v-1.2m0 0v-1.2m0 0v-1.3m0 0v-1.5m0 0v-1.5m0 0v-1.7m0 0v-1.7m0 0v-1.8m0 0v-1.7m0 0v-2m0 0v-1.8m0 0v-2m0 0v-2m0 0v-1.9m0 0v-2m0 0v-1.9m0 0v-1.9m0 0v-1.8m0 0v-1.9m0 0V150m0 0v-1.8m0 0v-1.6m0 0V145m0 0v-1.4m0 0v-1.4m0 0V141m0 0v-1.1m0 0v-1.1m0 0v-.9m0 0v-.7m0 0v-.6m0 0v-.6m0 0v-.4m0 0v-.2m26.6 48.2v-.2m0 0v-.4m0 0v-.5m0 0v-.6m0 0v-.8m0 0v-.8m0 0v-1.1m0 0V178m0 0v-1.2m0 0v-1.4m0 0V174m0 0v-1.6m0 0v-1.5m0 0v-1.8m0 0v-1.6m0 0v-1.8m0 0V164m0 0v-1.8m0 0v-1.8m0 0v-1.8m0 0v-1.7m0 0v-1.7m0 0v-1.6m0 0v-1.7m0 0v-1.5m0 0v-1.5m0 0v-1.3m0 0v-1.3m0 0v-1.1m0 0v-1.1m0 0v-.9m0 0v-.8m0 0v-.6m0 0v-.5m0 0v-.4m0 0v-.2m0 0v-.1m-27.8-5.2h1.2m-1.2 53.5h1.2m0-48.3H465m-26.6 43H465M224.6 74.8l1-1m-4.2.9l3.2-3.2m-5.5 2.3l4.5-4.4m-6.3 2.9l5.1-5.1M216.5 201l7.7-7.8m-10.9 7.7l11.8-11.8m1.8-4.9l2-2.2m-3.3 1.6l4.2-4.1m-4.8 3.1l5.6-5.5M225 181l6.1-6.1m-6.1 4.4l7-6.9m-7 5.3l7.5-7.5M225 176l8-8m-8 6.4l5.3-5.2m.9-.9l1.4-1.4m.4-.6l.6-.4m-8.6 6.8l3.6-3.5m-3.6 1.9l3.4-3.4m-3.4 1.7l3.4-3.4m-3.4 1.8l3.8-3.7m-3.8 2.1l4.3-4.3m-3.8 2.2l4.3-4.4m-2.4.9l1.7-1.7m-.4-53.8l1.1-1.1m-1.9.3l1.6-1.6m3.7-3.8l.5-.4m-6.3 4.8l1.8-1.9m3.8-3.9l.3-.3m-6.5 5l2.1-2.1m2.9-2.9l1.2-1.3m-6.9 5.2l2.4-2.3m2.7-2.6l1.5-1.7m-7.1 5.6l2.8-2.9m2.4-2.3l1.6-1.6m-7.2 5.5l3.2-3.3m.9-.8l2.8-2.8m-7.1 5.4l6.7-6.6m-6.7 5.1l6.3-6.4M225 94l5.9-5.8m-5.9 4.3l5.6-5.6m-5.6 3.9l5.2-5.1m-5.2 3.5l4.8-4.8m-4.8 3.1l4.3-4.3m-4.3 2.7l3.9-4m-3.9 2.3l3.5-3.5m-3.5 1.9l2.8-2.7m-2.8 1l1.1-1m5 86.1l-1.5-1.3m3.1 1.3l-3.1-3m3.4 1.8l-3.4-3.4m3.4 1.7l-3.4-3.4m3.4 1.9l-3.4-3.4m3.4 1.6l-3.4-3.4m3.4 1.9l-3.4-3.4m3.4 1.8l-3.4-3.4m3.4 1.7l-3.4-3.4m3.4 1.8l-3.4-3.4m3.4 1.7l-3.4-3.4m3.4 1.8l-3.4-3.4m3.4 1.7l-3.4-3.4m3.4 1.8l-3.4-3.4m3.4 1.8l-3.4-3.4m3.4 1.7l-3.4-3.4m3.4 1.8l-3.4-3.4m3.4 1.8l-3.4-3.4m3.4 1.7l-3.4-3.5m3.4 1.9l-3.4-3.4m3.4 1.7l-3.4-3.4m3.4 1.8l-3.4-3.4m3.4 1.7l-3.4-3.4m3.4 1.8l-3.4-3.4m3.4 1.7l-3.4-3.4m3.4 1.8l-3.4-3.4m3.4 1.7l-3.4-3.4m3.4 1.9l-3.4-3.4m3.4 1.6l-3.4-3.4m3.4 1.9l-3.4-3.4m3.4 1.7l-3.4-3.4m3.4 1.8l-3.4-3.4m3.4 1.7l-3.4-3.4m3.4 1.8l-3.4-3.4m3.4 1.7l-3.4-3.4m3.4 1.8l-3.4-3.4m3.4 1.7l-3.4-3.4m3.4 1.9l-3.4-3.4m3.4 1.7l-3.4-3.5m3.4 1.9l-3.4-3.4m3.4 1.8l-3.4-3.4m3.4 1.7l-2.8-3m2.8 1.4l-1.3-1.4m-8.6 89.5h-6.9m6.9-110.8v110.8m-6.9-110.8h6.9"/><path fill="#D9D9D9" d="M216.3 76.5h6.8v110.9h-6.8V76.5z"/><path fill="none" stroke="#1D1D1B" stroke-width=".283" stroke-miterlimit="3.864" d="M216.3 76.5h6.8v110.9h-6.8V76.5z"/><path fill="#CCC" d="M196.8 70.2h19.8v123.6h-19.8V70.2z"/><path fill="none" stroke="#1D1D1B" stroke-width=".283" stroke-miterlimit="3.864" d="M196.8 70.2h19.8v123.6h-19.8V70.2z"/><path clip-rule="evenodd" fill="none" stroke="#1D1D1B" stroke-width=".283" stroke-miterlimit="3.864" d="M171.8 70v-5m0 128.7l2.1-2.1m-2.1 7.1v-5m31.5 7.3l-6.5-7.1M171.8 70v.3m0 0v.3m0 0v.5m0 0v.6m0 0v.8m0 0v1m0 0v1m0 0v1.2m0 0v1.4m0 0v1.4m0 0v1.6m0 0v1.7m0 0v1.8m0 0v1.9m0 0v2.1m0 0v2.2m0 0v2.1m0 0v2.4m0 0v2.4m0 0v2.4m0 0v2.7m0 0v2.6m0 0v2.8m0 0v2.8m0 0v2.7m0 0v2.9m0 0v2.9m0 0v2.9m0 0v3m0 0v3m0 0v3m0 0v2.9m0 0v3m0 0v3m0 0v3m0 0v2.9m0 0v3m0 0v2.8m0 0v2.9m0 0v2.7m0 0v2.7m0 0v2.6m0 0v2.7m0 0v2.4m0 0v2.5m0 0v2.3m0 0v2.3m0 0v2m0 0v2.1m0 0v1.9m0 0v1.9m0 0v1.6m0 0v1.7m0 0v1.3m0 0v1.5m0 0v1.1m0 0v1m0 0v1m0 0v.8m0 0v.6m0 0v.5m0 0v.3m0 0v.3M198 72.1l9-8.9m-6.7 134.6l6-6.2m-7.7 4.4l4.2-4.2m-5.7 2.5l2.8-2.7M171.8 70.1v123.6m32-130.9h16.4m-1.7 9.3h-22m23.4 2.5l-1.4-2.5m7.9 2.6l-6.5-.1m.3 126.4l-17-.1m16.7-11.7l6.5-.2m-7.9 2.6l1.4-2.4m-46 2.4h44.6m5.6 2.3l-.2.6m0 0l-.3.5m0 0l-.3.5m0 0l-.2.4m0 0l-.3.5m0 0l-.2.4m0 0l-.2.4m0 0l-.2.5m0 0l-.2.3m0 0l-.2.3m0 0l-.2.3m0 0l-.1.3m0 0l-.2.3m0 0l-.1.3m0 0l-.2.2m0 0l-.1.2m0 0l-.1.2m0 0l-.1.2m0 0l-.1.1m0 0v.1m0 0l-.2.2m0 0v.1m0 0h-.2m0 0v.2m0-138.2v.1m0 0h.2m0 0v.1m0 0l.2.2m0 0v.1m0 0l.1.2m0 0l.1.1m0 0l.1.2m0 0l.1.2m0 0l.2.2m0 0l.1.3m0 0l.2.3m0 0l.1.3m0 0l.2.3m0 0l.2.3m0 0l.2.5m0 0l.2.4m0 0l.2.4m0 0l.2.3m0 0l.3.5m0 0l.2.4m0 0l.3.5m0 0l.3.5m0 0l.2.6m-5.6 121.8v-.3m0 0v-.4m0 0v-.5m0 0v-.6m0 0v-.8m0 0v-.9m0 0V187m0 0v-1.1m0 0v-1.3m0 0v-1.5m0 0v-1.5m0 0v-1.8m0 0V178m0 0v-1.9m0 0v-2m0 0V172m0 0v-2.2m0 0v-2.3m0 0V165m0 0v-2.5m0 0V160m0 0v-2.5m0 0v-2.8m0 0V152m0 0v-2.8m0 0v-2.9m0 0v-2.8m0 0v-2.9m0 0v-2.9m0 0v-2.9m0 0v-2.9m0 0v-3m0 0V126m0 0v-2.9m0 0v-2.9m0 0v-2.8m0 0v-2.9m0 0v-2.8m0 0V109m0 0v-2.7m0 0v-2.6m0 0v-2.5m0 0v-2.5m0 0v-2.4m0 0V94m0 0v-2.3m0 0v-2m0 0v-2.1m0 0v-1.9m0 0v-1.8m0 0v-1.7m0 0v-1.6m0 0v-1.4m0 0v-1.3m0 0v-1.2m0 0v-1.1m0 0v-.9m0 0V74m0 0v-.7m0 0v-.5m0 0v-.4m0 0v-.2m0 0v-.1m0-2h-46.6m46.6 0v123.6m-46.6 0h46.6m1.4-119.1v.3m0 0v.3m0 0v.5m0 0v.7m0 0v.8m0 0v.9m0 0v1.1m0 0v1.3m0 0v1.2m0 0v1.6m0 0v1.5m0 0v1.8m0 0v1.7m0 0v2.1m0 0v1.9m0 0v2.2m0 0v2.3m0 0v2.3m0 0v2.4m0 0v2.6m0 0v2.6m0 0v2.5m0 0v2.8m0 0v2.7m0 0v2.8m0 0v2.9m0 0v2.7m0 0v2.9m0 0v3m0 0v2.9m0 0v2.9m0 0v2.9m0 0v2.9m0 0v2.7m0 0v2.9m0 0v2.8m0 0v2.8m0 0v2.7m0 0v2.6m0 0v2.6m0 0v2.5m0 0v2.4m0 0v2.3m0 0v2.3m0 0v2.2m0 0v2m0 0v2m0 0v1.8m0 0v1.7m0 0v1.5m0 0v1.6m0 0v1.3m0 0v1.3m0 0v1m0 0v.9m0 0v.8m0 0v.8m0 0v.4m0 0v.4m0 0v.2m0 0v.1m.3-126.4l9.5-.2M220.2 201l9.4.1m-7.9-126.5l3.2-3.2m-5.5 2.3l4.5-4.5m-6.3 2.9l5.1-5m-8.3 5l7.2-7.2m-10.5 7.2l9.3-9.2m-12.6 9.2l9.3-9.2m-12.6 9.2l9.3-9.1m-12.6 9.1l9.2-9m9.5 137.9l.8-.8m-3.9.6l7.7-7.7m-11 7.6l11.9-11.7M210 201.1l12-12m-15 11.8l8.9-9m-12.4 9.1l9.1-9.1m-10.8 7.5l7.8-7.8m-37.8 0h44.5M196.5 72.1h19.8m.2 115.1V76.5m6.9 110.7h-6.9m6.9-110.7v110.7m-6.9-110.7h6.9m-6.9 117.2h-44.7m44.7-123.6v123.6M172 70.1h44.7"/><path fill="#D9D9D9" d="M216.6 76.4h6.8v110.9h-6.8V76.4z"/><path fill="none" stroke="#1D1D1B" stroke-width=".283" stroke-miterlimit="3.864" d="M216.6 76.4h6.8v110.9h-6.8V76.4z"/><path clip-rule="evenodd" fill="none" stroke="#1D1D1B" stroke-width=".283" stroke-miterlimit="3.864" d="M196.6 70l7.3-7.3"/><path fill="#BFBFBF" d="M99 59.9h97.4V206H99V59.9z"/><path fill="none" stroke="#1D1D1B" stroke-width=".283" stroke-miterlimit="3.864" d="M99 59.9h97.4V206H99V59.9z"/><g clip-rule="evenodd"><path fill="none" stroke="#1D1D1B" stroke-width=".283" stroke-miterlimit="3.864" d="M225.7 81.3V24.4"/><path fill-rule="evenodd" fill="#1D1D1B" d="M209.7 44.7v3.9l9.1-1.9zm-3.5 3.9v-3.9l-9.2 2z"/><path fill="none" stroke="#1D1D1B" stroke-width=".227" stroke-miterlimit="3.864" d="M209.7 46.7h-3.5m-9.2 12V24.3m22.2 45.6V44.2"/><path fill-rule="evenodd" fill="#1D1D1B" d="M205.8 27.4v-3.9l-8.8 2zm11.3-3.9v3.9l8.8-1.9z"/><path fill="none" stroke="#1D1D1B" stroke-width=".227" stroke-miterlimit="3.864" d="M205.8 25.5h11.3"/><path fill-rule="evenodd" fill="#1D1D1B" d="M220.6 85l-2.2 3.4 9.1 3.5z"/><path fill="none" stroke="#1D1D1B" stroke-width=".283" stroke-miterlimit="3.864" d="M219.5 86.7l-100.1-64"/><path fill="none" stroke="#1D1D1B" stroke-width=".227" stroke-miterlimit="3.864" d="M119.6 22.5H16.1"/><path fill-rule="evenodd" fill="#1D1D1B" d="M107.5 51.5l-2.7 2.9 8.1 4.8z"/><path fill="none" stroke="#1D1D1B" stroke-width=".227" stroke-miterlimit="3.864" d="M106.2 52.9l-5.4-5m0 0H16.1m101.1 200.4H20.8"/><path fill="none" stroke="#1D1D1B" stroke-width=".283" stroke-miterlimit="3.864" d="M217.3 187.4H50.4m149.7 6.4H22.5M196.4 70.9H23.3"/><path fill-rule="evenodd" fill="#1D1D1B" d="M51.6 88.3h3.9l-2-9.2zm3.9 87.4h-3.9l1.9 9.1z"/><path fill="none" stroke="#1D1D1B" stroke-width=".227" stroke-miterlimit="3.864" d="M53.5 88.3v87.4"/><path fill-rule="evenodd" fill="#1D1D1B" d="M24.9 82.1h4l-2-9.1zm4 99.9h-4l2 9.2z"/><path fill="none" stroke="#1D1D1B" stroke-width=".227" stroke-miterlimit="3.864" d="M26.9 82.1V182"/><path fill="none" stroke="#1D1D1B" stroke-width=".283" stroke-miterlimit="3.864" d="M211.5 77.2h-156m156 0H51.3"/><path fill-rule="evenodd" fill="#1D1D1B" d="M222.1 143.6l2.9 2.9 5.4-8z"/><path fill="none" stroke="#1D1D1B" stroke-width=".283" stroke-miterlimit="3.864" d="M223.5 145.1L117.1 248.3M217.3 77.2h-143"/></g><text transform="translate(16.135 19)" font-family="Helvetica,Arial,sans-serif" font-size="12">Filter holder</text><text transform="translate(16.135 45.226)" font-family="Helvetica,Arial,sans-serif" font-size="12">CS-mount lens</text><text transform="translate(22.944 233.726)" font-family="Helvetica,Arial,sans-serif" font-size="12">IR cut filter</text><text transform="translate(22.9 244.726)" font-family="Helvetica,Arial,sans-serif" font-size="8">(color cameras only)</text><text transform="translate(203.575 19.75)" font-family="Helvetica,Arial,sans-serif" font-size="12">5.8</text><text transform="translate(199.296 40.526)" font-family="Helvetica,Arial,sans-serif" font-size="12">4.6</text><text transform="translate(374.015 233.726)"><tspan x="0" y="0" font-family="Helvetica,Arial,sans-serif" font-size="12">Not to scale</tspan><tspan x="0" y="13.8" font-family="Helvetica,Arial,sans-serif" font-size="11.5">Dimensions in mm</tspan></text><text transform="rotate(-90 98.721 77.886)" font-family="Helvetica,Arial,sans-serif" font-size="12">CS-mount thread</text><text transform="rotate(-90 106.23 56.895)" font-family="Helvetica,Arial,sans-serif" font-size="12">max. Ø 23.1</text></svg>