<svg version="1.0" xmlns="http://www.w3.org/2000/svg" viewBox="0 0 550 325"><g clip-rule="evenodd"><path fill-rule="evenodd" d="M528.7 255.2v-5.4l13.7 5.4-13.7 5.5z"/><path fill="none" stroke="#000" stroke-width="2.437" stroke-miterlimit="3.864" d="M80.1 255.2h449.6"/></g><path fill="#E6E7E8" d="M179.9 132.2h107.5v16H179.9v-16z"/><path fill="none" stroke="#000" stroke-width=".487" stroke-miterlimit="3.864" d="M179.9 132.2h107.5v16H179.9v-16z"/><path fill="#FFF" d="M103 132.2h77.1v16H103v-16z"/><path fill="none" stroke="#000" stroke-width=".487" stroke-miterlimit="3.864" d="M103 132.2h77.1v16H103v-16z"/><path fill="none" stroke="#000" stroke-width=".487" stroke-miterlimit="3.864" d="M103.1 121h184.3v27.2H103.1V121z"/><path clip-rule="evenodd" fill="none" stroke="#000" stroke-width=".975" stroke-miterlimit="3.864" d="M103.3 35h113.5m.4 0V13.8m0 0h10.5m0 0V35m.2 0h114m-.5 0V13.8m10.5 0V35m.1 0h114m0 0V13.8m0 0h76.2m-200.8 0h10.5"/><path fill="#E6E7E8" d="M304.2 172.3h107.5v15.9H304.2v-15.9z"/><path fill="none" stroke="#000" stroke-width=".487" stroke-miterlimit="3.864" d="M304.2 172.3h107.5v15.9H304.2v-15.9z"/><path fill="#FFF" d="M227.3 172.3h77v15.9h-77v-15.9z"/><path fill="none" stroke="#000" stroke-width=".487" stroke-miterlimit="3.864" d="M227.3 172.3h77v15.9h-77v-15.9z"/><path fill="none" stroke="#000" stroke-width=".487" stroke-miterlimit="3.864" d="M227.4 161h184.3v27.3H227.4V161z"/><path fill="#E6E7E8" d="M428.5 212.3H536v15.9H428.5v-15.9z"/><path fill="none" stroke="#000" stroke-width=".487" stroke-miterlimit="3.864" d="M428.5 212.3H536v15.9H428.5v-15.9z"/><path fill="#FFF" d="M351.6 212.3h77v15.9h-77v-15.9z"/><path fill="none" stroke="#000" stroke-width=".487" stroke-miterlimit="3.864" d="M351.6 212.3h77v15.9h-77v-15.9z"/><path fill="none" stroke="#000" stroke-width=".487" stroke-miterlimit="3.864" d="M351.7 201H536v27.3H351.7V201z"/><path clip-rule="evenodd" fill="none" stroke="#000" stroke-width=".975" stroke-miterlimit="3.864" d="M80.3 80.1h22.6m.3 0V58.9m0 0h76.9m-.1 0v21.2m.2 0H228m-.5 0V58.9m76.9.1v21.2m124.6-.1h113.2M227.5 58.9h76.9m.2 21.2h47.9m-.4 0V58.9m76.7 0v21.2m-76.7-21.2h76.8"/><path fill="none" stroke="#6582C1" stroke-width=".78" stroke-miterlimit="3.864" d="M80.3 95.5h20.2v14.1H80.3V95.5z"/><path clip-rule="evenodd" fill="none" stroke="#6582C1" stroke-width="1.169" stroke-miterlimit="3.864" d="M80.3 109.6l13.5-14.1m-6.7 14.1l13.4-14.1m-20.2 7.1l6.8-7.1m6.7 14.1l6.7-7"/><path fill="none" stroke="#6582C1" stroke-width=".78" stroke-miterlimit="3.864" d="M217.4 95.5h10.5v14.1h-10.5V95.5z"/><path clip-rule="evenodd" fill="none" stroke="#6582C1" stroke-width="1.169" stroke-miterlimit="3.864" d="M217.4 106.7l10.4-11m-6.5 13.9l6.6-6.9m-10.5-3.2l3.9-4"/><path fill="none" stroke="#6582C1" stroke-width=".78" stroke-miterlimit="3.864" d="M342 95.5h10.6v14.1H342V95.5z"/><path clip-rule="evenodd" fill="none" stroke="#6582C1" stroke-width="1.169" stroke-miterlimit="3.864" d="M342 106.7l10.6-11.1m-6.7 14l6.7-7M342 99.5l3.9-4"/><path fill="none" stroke="#6582C1" stroke-width=".78" stroke-miterlimit="3.864" d="M369.8 290.9h20.1v14.2h-20.1v-14.2z"/><path clip-rule="evenodd" fill="none" stroke="#6582C1" stroke-width="1.169" stroke-miterlimit="3.864" d="M369.8 305.1l13.4-14.2m-6.7 14.2l13.4-14.2m-20.1 7.1l6.7-7.1m6.7 14.2l6.7-7.1m146.5-188.2l5.9-6.2M466 99.3l3.8-3.9m-3.7 10.9l10.3-10.8m-7 14.3L483 95.5m-6.9 14.4l13.8-14.5m-7.2 14.5l13.8-14.4m-7 14.3l13.7-14.4m-7.1 14.4l13.7-14.3m-6.9 14.3l13.6-14.3m-7 14.3l13.7-14.4m-7 14.4l13.7-14.4m-7 14.4l13.7-14.4m-7 14.5l12.6-13.3"/><path clip-rule="evenodd" fill="none" stroke="#000" stroke-width=".975" stroke-miterlimit="3.864" d="M80.5 14h22.6m0 0v21.2"/><path fill="none" stroke="#6582C1" stroke-width=".78" stroke-miterlimit="3.864" d="M466 95.5h76.3v14.4H466V95.5z"/><text transform="translate(304.86 274.243)" font-family="Helvetica,Arial,sans-serif" font-size="11.693">Time</text><text transform="translate(409.15 301.526)"><tspan x="0" y="0" font-family="Helvetica,Arial,sans-serif" font-size="11.693">Camera is waiting for </tspan><tspan x="0" y="14" font-family="Helvetica,Arial,sans-serif" font-size="11.693">Frame Start trigger signals</tspan></text><text transform="translate(4 16.662)"><tspan x="0" y="0" font-family="Helvetica,Arial,sans-serif" font-size="12">Frame Trigger</tspan><tspan x="0" y="14.4" font-family="Helvetica,Arial,sans-serif" font-size="12">Wait signal</tspan></text><text transform="translate(4 72.662)"><tspan x="0" y="0" font-family="Helvetica,Arial,sans-serif" font-size="12">Frame Start </tspan><tspan x="0" y="14.4" font-family="Helvetica,Arial,sans-serif" font-size="12">trigger signal</tspan></text><text transform="translate(147 129.982)" font-family="Helvetica,Arial,sans-serif" font-size="9">Frame acquisition N</text><text transform="translate(123.5 143.482)" font-family="Helvetica,Arial,sans-serif" font-size="9">Exposure</text><text transform="translate(204.065 143.482)" font-family="Helvetica,Arial,sans-serif" font-size="9">Sensor readout</text><text transform="translate(245 183.482)" font-family="Helvetica,Arial,sans-serif" font-size="9">Exposure</text><text transform="translate(325.565 183.482)" font-family="Helvetica,Arial,sans-serif" font-size="9">Sensor readout</text><text transform="translate(373.867 223.482)" font-family="Helvetica,Arial,sans-serif" font-size="9">Exposure</text><text transform="translate(454.432 223.482)" font-family="Helvetica,Arial,sans-serif" font-size="9">Sensor readout</text><text transform="translate(275 170.257)" font-family="Helvetica,Arial,sans-serif" font-size="9">Frame acquisition N+1</text><text transform="translate(403.5 209.757)" font-family="Helvetica,Arial,sans-serif" font-size="9">Frame acquisition N+2</text><text transform="translate(395.752 300.795)" font-family="Helvetica,Arial,sans-serif" font-size="11.693">=</text></svg>