<svg width="461pt" height="346pt" viewBox="0 0 461 346" xmlns="http://www.w3.org/2000/svg" xmlns:xlink="http://www.w3.org/1999/xlink"><defs><style>*{stroke-linecap:butt;stroke-linejoin:round}</style></defs><path d="M0 346h461V0H0z" fill="#fff"/><path d="M58 308h357V42H58z" fill="#fff"/><defs><path id="m5e0f683bf1" d="M0 0v3.5" stroke="#000" stroke-width=".8"/></defs><use x="73.833" y="307.584" stroke="#000" stroke-width=".8" xlink:href="#m5e0f683bf1"/><defs><path id="DejaVuSans-52" d="M38 64L13 25h25zm-2.6 8.6h12v-48h10v-8.2h-10v-17h-9.8v17h-33v9.5z"/><path id="DejaVuSans-48" d="M32 66q-7.6 0-11-7.5-3.8-7.5-3.8-23 0-15 3.8-22Q24.8 6 32 6q7.7 0 12 7.5 3.8 7.5 3.8 22 0 15-3.8 23Q40.2 66 32 66zm0 7.8q12 0 19-9.7 6.5-9.7 6.5-28 0-18-6.5-28-6.5-9.7-19-9.7-12 0-19 9.7-6.5 9.7-6.5 28 0 18 6.5 28 6.5 9.7 19 9.7z"/></defs><g transform="matrix(.1 0 0 -.1 64 322)"><use xlink:href="#DejaVuSans-52"/><use x="63.623" xlink:href="#DejaVuSans-48"/><use x="127.246" xlink:href="#DejaVuSans-48"/></g><use x="128.214" y="307.584" stroke="#000" stroke-width=".8" xlink:href="#m5e0f683bf1"/><defs><path id="DejaVuSans-53" d="M11 73h39v-8.3H20v-18q2.1.73 4.3 1.1 2.2.36 4.3.36 12 0 19-6.7 7.1-6.7 7.1-18 0-12-7.3-18-7.3-6.5-21-6.5-4.6 0-9.4.78-4.8.78-9.8 2.3v9.9q4.4-2.4 9.1-3.6t9.9-1.2q8.5 0 13 4.4 4.9 4.4 4.9 12t-4.9 12q-4.9 4.5-13 4.5-4 0-7.9-.88-3.9-.88-8-2.7z"/></defs><g transform="matrix(.1 0 0 -.1 119 322)"><use xlink:href="#DejaVuSans-53"/><use x="63.623" xlink:href="#DejaVuSans-48"/><use x="127.246" xlink:href="#DejaVuSans-48"/></g><use x="182.595" y="307.584" stroke="#000" stroke-width=".8" xlink:href="#m5e0f683bf1"/><defs><path id="DejaVuSans-54" d="M33 40q-6.6 0-11-4.5-3.9-4.5-3.9-12 0-7.9 3.9-12 3.9-4.6 11-4.6t11 4.6q3.9 4.6 3.9 12 0 7.9-3.9 12Q40.1 40 33 40zm20 31v-9q-3.7 1.8-7.5 2.7-3.8.94-7.5.94-9.8 0-15-6.6-5.1-6.6-5.9-20 2.9 4.2 7.2 6.5 4.4 2.3 9.6 2.3 11 0 17-6.7 6.4-6.7 6.4-18 0-11-6.6-18-6.6-6.8-18-6.8-13 0-19 9.7-6.7 9.7-6.7 28 0 17 8.2 28t22 10q3.7 0 7.5-.73t7.9-2.2z"/></defs><g transform="matrix(.1 0 0 -.1 173 322)"><use xlink:href="#DejaVuSans-54"/><use x="63.623" xlink:href="#DejaVuSans-48"/><use x="127.246" xlink:href="#DejaVuSans-48"/></g><use x="236.976" y="307.584" stroke="#000" stroke-width=".8" xlink:href="#m5e0f683bf1"/><defs><path id="DejaVuSans-55" d="M8.2 73h47v-4.2l-26-69h-10l25 65h-35z"/></defs><g transform="matrix(.1 0 0 -.1 227 322)"><use xlink:href="#DejaVuSans-55"/><use x="63.623" xlink:href="#DejaVuSans-48"/><use x="127.246" xlink:href="#DejaVuSans-48"/></g><use x="291.357" y="307.584" stroke="#000" stroke-width=".8" xlink:href="#m5e0f683bf1"/><defs><path id="DejaVuSans-56" d="M32 35q-7 0-11-3.8t-4-10q0-6.6 4-10 4-3.8 11-3.8t11 3.8q4.1 3.8 4.1 10 0 6.6-4 10-4 3.8-11 3.8zm-9.9 4.2q-6.3 1.6-9.9 5.9-3.5 4.4-3.5 11 0 8.7 6.2 14 6.2 5.1 17 5.1 11 0 17-5.1t6.2-14q0-6.2-3.5-11-3.5-4.3-9.8-5.9 7.1-1.7 11-6.5 4-4.8 4-12 0-11-6.5-16Q43.8-1 31.3-1q-12 0-19 5.7-6.5 5.7-6.5 16 0 7 4 12 4 4.8 11 6.5zm-3.6 16q0-5.7 3.5-8.8 3.5-3.2 9.9-3.2t9.9 3.2q3.6 3.2 3.6 8.8 0 5.7-3.6 8.8-3.6 3.2-9.9 3.2-6.4 0-9.9-3.2t-3.5-8.8z"/></defs><g transform="matrix(.1 0 0 -.1 282 322)"><use xlink:href="#DejaVuSans-56"/><use x="63.623" xlink:href="#DejaVuSans-48"/><use x="127.246" xlink:href="#DejaVuSans-48"/></g><use x="345.738" y="307.584" stroke="#000" stroke-width=".8" xlink:href="#m5e0f683bf1"/><defs><path id="DejaVuSans-57" d="M11 1.5v9q3.7-1.8 7.5-2.7 3.8-.92 7.5-.92 9.8 0 15 6.6 5.2 6.6 5.9 20-2.8-4.2-7.2-6.5-4.3-2.2-9.6-2.2-11 0-17 6.6-6.4 6.6-6.4 18 0 11 6.6 18 6.6 6.8 18 6.8 13 0 19-9.7 6.7-9.7 6.7-28 0-17-8.2-28-8.2-10-22-10-3.7 0-7.5.73t-7.9 2.2zm20 31q6.6 0 11 4.5 3.9 4.5 3.9 12 0 7.9-3.9 12-3.9 4.6-11 4.6T20 61t-3.9-12q0-7.9 3.9-12 3.9-4.5 11-4.5z"/></defs><g transform="matrix(.1 0 0 -.1 336 322)"><use xlink:href="#DejaVuSans-57"/><use x="63.623" xlink:href="#DejaVuSans-48"/><use x="127.246" xlink:href="#DejaVuSans-48"/></g><use x="400.119" y="307.584" stroke="#000" stroke-width=".8" xlink:href="#m5e0f683bf1"/><defs><path id="DejaVuSans-49" d="M12 8.3h16v56l-18-3.5v9l17 3.5h9.9v-65h16V0h-42z"/></defs><g transform="matrix(.1 0 0 -.1 387 322)"><use xlink:href="#DejaVuSans-49"/><use x="63.623" xlink:href="#DejaVuSans-48"/><use x="127.246" xlink:href="#DejaVuSans-48"/><use x="190.869" xlink:href="#DejaVuSans-48"/></g><defs><path id="DejaVuSans-87" d="M3.3 73h10l15-62 15 62h11l15-62 15 62h10l-18-73h-12l-15 63-16-63h-12z"/><path id="DejaVuSans-97" d="M34 27q-11 0-15-2.5T14.8 16q0-4.8 3.2-7.6t8.6-2.8q7.5 0 12 5.3t4.5 14v2zm18 3.7v-31h-9V8Q39.9 3 35.3.7t-11-2.4q-8.4 0-13 4.7-5 4.7-5 13 0 9.2 6.2 14 6.2 4.7 18 4.7h13v.89q0 6.2-4.1 9.6t-11 3.4q-4.7 0-9.1-1.1-4.4-1.1-8.5-3.4v8.3q4.9 1.9 9.6 2.8 4.6.95 9 .95 12 0 18-6.2 5.9-6.1 5.9-19z"/><path id="DejaVuSans-118" d="M3 55h9.5l17-46 17 46H56L35 0H23z"/><path id="DejaVuSans-101" d="M56 30v-4.4H15q.59-9.3 5.6-14t14-4.9q5.2 0 10 1.3t9.7 3.8V3.3q-4.8-2-9.9-3.1t-10-1.1q-13 0-21 7.6-7.6 7.6-7.6 21 0 13 7.2 21 7.2 7.9 20 7.9 11 0 17-7.1 6.4-7.1 6.4-19zm-9 2.6q-.094 7.4-4.1 12-4 4.4-11 4.4-7.5 0-12-4.2t-5.2-12z"/><path id="DejaVuSans-108" d="M9.4 76h9V0h-9z"/><path id="DejaVuSans-110" d="M55 33V0h-9v33q0 7.8-3 12-3 3.9-9.1 3.9-7.3 0-11-4.6-4.2-4.6-4.2-13V.3h-9v55h9v-8.5q3.2 4.9 7.6 7.4 4.4 2.4 10 2.4 9.4 0 14-5.8 4.8-5.8 4.8-17z"/><path id="DejaVuSans-103" d="M45 28q0 9.8-4 15-4 5.4-11 5.4-7.2 0-11-5.4-4-5.4-4-15 0-9.7 4-15t11-5.4q7.3 0 11 5.4 4 5.4 4 15zm9-21q0-14-6.2-21-6.2-6.8-19-6.8-4.7 0-8.9.7t-8.2 2.2v8.7q4-2.1 7.8-3.2 3.9-1 7.9-1 8.8 0 13 4.6t4.4 14v4.5Q42 4.9 37.7 2.5T27.7.1q-10 0-16 7.7-6.2 7.7-6.2 20 0 13 6.2 20 6.2 7.7 16 7.7 6.1 0 10-2.4t7.1-7.2v8.3h9z"/><path id="DejaVuSans-116" d="M18 70V54h18v-7H18V17q0-6.7 1.8-8.6t7.5-1.9h9.2V-1h-9.2q-10 0-14 3.9t-4 14v30H2.7v7h6.6v16z"/><path id="DejaVuSans-104" d="M55 33V0h-9v33q0 7.8-3 12-3 3.9-9.1 3.9-7.3 0-11-4.6-4.2-4.6-4.2-13V.3h-9v76h9v-30q3.2 4.9 7.6 7.4 4.4 2.4 10 2.4 9.4 0 14-5.8 4.8-5.8 4.8-17z"/><path id="DejaVuSans-Oblique-955" d="M37 67L49 0h-9.5L32 40 5 0h-9.5l34 52-1.7 9.7q-1.1 6.2-6.3 6.2h-4.7l1.5 7.7 5.7-.11q11-.14 12-8.4z"/><path id="DejaVuSans-91" d="M8.6 76h21v-7h-12V-6h12v-7h-21z"/><path id="DejaVuSans-109" d="M52 44q3.4 6.1 8.1 8.9t11 2.9q8.5 0 13-6 4.6-6 4.6-17v-33h-9v33q0 7.9-2.8 12-2.8 3.8-8.5 3.8-7 0-11-4.6t-4-13V0h-9v33q0 7.9-2.8 12T33 48.8q-6.9 0-11-4.7-4-4.7-4-13V.1H9v55h9v-8.5q3.1 5 7.4 7.4t10 2.4q6 0 10-3 4.2-3 6.2-8.8z"/><path id="DejaVuSans-93" d="M30 76v-89H9v7h12v75H9v7z"/></defs><g transform="matrix(.1 0 0 -.1 188 336)"><use transform="translate(0 .016)" xlink:href="#DejaVuSans-87"/><use transform="translate(99 .016)" xlink:href="#DejaVuSans-97"/><use transform="translate(160 .016)" xlink:href="#DejaVuSans-118"/><use transform="translate(219 .016)" xlink:href="#DejaVuSans-101"/><use transform="translate(281 .016)" xlink:href="#DejaVuSans-108"/><use transform="translate(309 .016)" xlink:href="#DejaVuSans-101"/><use transform="translate(370 .016)" xlink:href="#DejaVuSans-110"/><use transform="translate(434 .016)" xlink:href="#DejaVuSans-103"/><use transform="translate(497 .016)" xlink:href="#DejaVuSans-116"/><use transform="translate(536 .016)" xlink:href="#DejaVuSans-104"/><use transform="translate(600 .016)" xlink:href="#DejaVuSans-32"/><use transform="translate(631 .016)" xlink:href="#DejaVuSans-Oblique-955"/><use transform="translate(691 .016)" xlink:href="#DejaVuSans-32"/><use transform="translate(722 .016)" xlink:href="#DejaVuSans-91"/><use transform="translate(761 .016)" xlink:href="#DejaVuSans-110"/><use transform="translate(825 .016)" xlink:href="#DejaVuSans-109"/><use transform="translate(922 .016)" xlink:href="#DejaVuSans-93"/></g><defs><path id="ma2cf06e9e1" d="M0 0h-3.5" stroke="#000" stroke-width=".8"/></defs><use x="57.6" y="263.494" stroke="#000" stroke-width=".8" xlink:href="#ma2cf06e9e1"/><defs><path id="DejaVuSans-46" d="M11 12h10V0H11z"/><path id="DejaVuSans-50" d="M19 8.3h34V0H7v8.3q5.6 5.8 15 16 9.7 9.8 12 13 4.7 5.3 6.6 9 1.9 3.7 1.9 7.2 0 5.8-4.1 9.5t-11 3.7q-4.6 0-9.8-1.6-5.1-1.6-11-4.9v10q6 2.4 11 3.6 5.2 1.2 9.5 1.2 11 0 18-5.7 6.7-5.7 6.7-15 0-4.5-1.7-8.5T44 36.3q-1.2-1.4-7.8-8.2-6.5-6.8-18-19z"/></defs><g transform="matrix(.1 0 0 -.1 35 267)"><use xlink:href="#DejaVuSans-48"/><use x="63.623" xlink:href="#DejaVuSans-46"/><use x="95.41" xlink:href="#DejaVuSans-50"/></g><use x="57.6" y="211.013" stroke="#000" stroke-width=".8" xlink:href="#ma2cf06e9e1"/><g transform="matrix(.1 0 0 -.1 35 215)"><use xlink:href="#DejaVuSans-48"/><use x="63.623" xlink:href="#DejaVuSans-46"/><use x="95.41" xlink:href="#DejaVuSans-52"/></g><use x="57.6" y="158.531" stroke="#000" stroke-width=".8" xlink:href="#ma2cf06e9e1"/><g transform="matrix(.1 0 0 -.1 35 162)"><use xlink:href="#DejaVuSans-48"/><use x="63.623" xlink:href="#DejaVuSans-46"/><use x="95.41" xlink:href="#DejaVuSans-54"/></g><use x="57.6" y="106.05" stroke="#000" stroke-width=".8" xlink:href="#ma2cf06e9e1"/><g transform="matrix(.1 0 0 -.1 35 110)"><use xlink:href="#DejaVuSans-48"/><use x="63.623" xlink:href="#DejaVuSans-46"/><use x="95.41" xlink:href="#DejaVuSans-56"/></g><use x="57.6" y="53.568" stroke="#000" stroke-width=".8" xlink:href="#ma2cf06e9e1"/><g transform="matrix(.1 0 0 -.1 35 57)"><use xlink:href="#DejaVuSans-49"/><use x="63.623" xlink:href="#DejaVuSans-46"/><use x="95.41" xlink:href="#DejaVuSans-48"/></g><defs><path id="DejaVuSans-82" d="M44 34q3.2-1.1 6.2-4.6t6-9.7l10-20h-11l-9.3 19q-3.6 7.3-7 9.7t-9.2 2.4h-11v-31H8.8v73h22q12 0 19-5.2 6.2-5.2 6.2-16 0-6.9-3.2-11-3.2-4.5-9.3-6.3zM19 65V39h12q7.1 0 11 3.3t3.6 9.7-3.6 9.6-11 3.2z"/><path id="DejaVuSans-105" d="M9.4 55h9V0h-9zm0 21h9V65h-9z"/><path id="DejaVuSans-83" d="M54 71v-9.6q-5.6 2.7-11 4-5 1.3-9.6 1.3-8 0-12-3.1T17 54.7q0-4.8 2.9-7.3t11-4l6-1.2q11-2.1 16-7.4t5.2-14q0-11-7.1-16Q43.9-.7 30-.7q-5.2 0-11 1.2T7 4v10q6-3.4 12-5.1 5.8-1.7 11-1.7 8.4 0 13 3.3t4.6 9.5q0 5.4-3.3 8.4t-11 4.5l-6 1.2q-11 2.2-16 6.9-4.9 4.7-4.9 13 0 9.7 6.8 15t19 5.6q5.1 0 10-.94 5.3-.92 11-2.8z"/><path id="DejaVuSans-112" d="M18 8.2v-29H9v75h9v-8.3q2.8 4.9 7.2 7.2 4.3 2.4 10 2.4 10 0 16-7.9 6.2-7.9 6.2-21t-6.2-21q-6.2-7.9-16-7.9-6 0-10 2.4-4.3 2.4-7.2 7.2zm31 19q0 9.9-4.1 16t-11 5.6q-7.1 0-11-5.6t-4.1-16 4.1-16 11-5.6q7.1 0 11 5.6t4.1 16z"/><path id="DejaVuSans-99" d="M49 53v-8.4q-3.8 2.1-7.6 3.2t-7.7 1q-8.8 0-14-5.5-4.8-5.5-4.8-16t4.8-16q4.8-5.5 14-5.5 3.9 0 7.7 1T49 10V1.7Q45.2-.1 41.2-.9q-4-.89-8.6-.89-12 0-20 7.8-7.3 7.8-7.3 21 0 13 7.3 21 7.4 7.7 20 7.7 4.1 0 8.1-.86 4-.84 7.7-2.5z"/><path id="DejaVuSans-114" d="M41 46q-1.5.88-3.3 1.3-1.8.42-3.9.42-7.6 0-12-5t-4.1-14v-29h-9v55h9v-8.5q2.8 5 7.4 7.4 4.5 2.4 11 2.4.92 0 2-.12 1.1-.11 2.5-.36z"/><path id="DejaVuSans-115" d="M44 53v-8.5q-3.8 2-7.9 2.9-4.1.98-8.5.98-6.7 0-10-2t-3.3-6.2q0-3.1 2.4-4.9t9.6-3.4l3.1-.69q9.6-2 14-5.8t4-10q0-7.6-6-12t-17-4.4q-4.4 0-9.2.86t-10 2.6v9.3q5-2.6 9.8-3.9 4.8-1.3 9.6-1.3 6.3 0 9.8 2.2 3.4 2.2 3.4 6.1 0 3.7-2.5 5.6-2.5 2-11 3.8l-3.1.73q-8.3 1.8-12 5.4-3.7 3.6-3.7 10 0 7.7 5.5 12 5.5 4.2 16 4.2 5 0 9.4-.73 4.4-.72 8.1-2.2z"/><path id="DejaVuSans-121" d="M32-5.1q-3.8-9.8-7.4-13-3.6-3-9.7-3H7.7v7.5H13q3.7 0 5.8 1.8 2.1 1.8 4.5 8.3L24.9.6l-22 54h9.5l17-43 17 43h9.5z"/></defs><g transform="matrix(0 -.1 -.1 0 29 245)"><use xlink:href="#DejaVuSans-82"/><use x="69.42" xlink:href="#DejaVuSans-101"/><use x="130.943" xlink:href="#DejaVuSans-108"/><use x="158.727" xlink:href="#DejaVuSans-97"/><use x="220.006" xlink:href="#DejaVuSans-116"/><use x="259.215" xlink:href="#DejaVuSans-105"/><use x="286.998" xlink:href="#DejaVuSans-118"/><use x="346.178" xlink:href="#DejaVuSans-101"/><use x="407.701" xlink:href="#DejaVuSans-32"/><use x="439.488" xlink:href="#DejaVuSans-83"/><use x="502.965" xlink:href="#DejaVuSans-112"/><use x="566.441" xlink:href="#DejaVuSans-101"/><use x="627.965" xlink:href="#DejaVuSans-99"/><use x="682.945" xlink:href="#DejaVuSans-116"/><use x="722.154" xlink:href="#DejaVuSans-114"/><use x="763.268" xlink:href="#DejaVuSans-97"/><use x="824.547" xlink:href="#DejaVuSans-108"/><use x="852.33" xlink:href="#DejaVuSans-32"/><use x="884.117" xlink:href="#DejaVuSans-83"/><use x="947.594" xlink:href="#DejaVuSans-101"/><use x="1009.117" xlink:href="#DejaVuSans-110"/><use x="1072.496" xlink:href="#DejaVuSans-115"/><use x="1124.596" xlink:href="#DejaVuSans-105"/><use x="1152.379" xlink:href="#DejaVuSans-116"/><use x="1191.588" xlink:href="#DejaVuSans-105"/><use x="1219.371" xlink:href="#DejaVuSans-118"/><use x="1278.551" xlink:href="#DejaVuSans-105"/><use x="1306.334" xlink:href="#DejaVuSans-116"/><use x="1345.543" xlink:href="#DejaVuSans-121"/></g><path d="M74 216l3.3 16 1.6 9.9 1.6-58 1.6 5.7 1.6 6.8 1.6-18 1.6-2.4 1.6-2.6 1.6-13 1.6-1.4 1.6-1.2 1.6.23 1.6-9.6 1.6 1.2 1.6-2.4 1.6-10 1.6-2.1 1.6-2.9 1.6-7.4 1.6-.008 1.6-1.3 1.6 2.7 1.6-7.5 1.6 1.3 1.6-.78 1.6-7.1 3.3-2 1.6-6.4 1.6 1.9 1.6 1.4 1.6.37 1.6-7.5 1.6.89 1.6-1.6 1.6-3.8 1.6-2.9 1.6.91 1.6-8.2 1.6.005 1.6-3.4 1.6.95 1.6-1.8 1.6-.79 1.6 1.2 1.6-4.4 1.6-1.9 1.6-.45 1.6-4.6 1.6 1.5 1.6 2.1 1.6.64 1.6-7.8 1.6.3 1.6-.22 1.6-3.7 3.3-2.9 1.6 4 1.6-2.5 1.6-3.7 1.6-3.2 1.6 3.7 1.6.58 1.6 1 1.6 2.1 1.6-.68 3.3 2.3 1.6 1.4 1.6.9 1.6-.6 1.6-.77 1.6-.56 1.6-2.3 1.6 4.6 1.6.85 1.6-1.6 1.6 2.5 1.6-.24 1.6-1.2 1.6-.77 1.6 4.5 1.6 3 1.6 2.2 1.6.87 1.6 1.9 1.6 3.3 1.6-2.6 1.6 2.7 1.6 4.3 1.6 2.5 1.6-1.9 1.6 1.5 1.6 3.8 1.6-3.2 1.6 4.7 1.6 2.6 1.6.25 1.6.81 1.6 1.4 1.6.36 1.6 1.2 1.6 2.4 1.6 5.7 1.6 3.2 1.6 3.7 1.6 2.9 3.3 4.6 1.6 4.1 1.6 3.5 1.6 2.1 1.6 4.7 1.6 3.5 1.6 1.5 1.6 3 1.6 1.2 1.6.72 1.6 1.9 1.6 1.1 1.6 1.2 1.6.13 1.6.95 1.6.74 1.6 2 1.6 4.6 1.6 1.6 1.6 1.9 1.6 3.7 1.6 3.1 1.6 3.7 3.3 5.4 1.6 3.8 1.6 2.5 1.6 3 1.6.75 1.6 2.2 4.9 4.3 1.6 4.4 1.6 2.1 1.6 3.7 3.3 8.3 1.6 2.7 1.6 3.1 1.6-.036 3.3 2.2 1.6 1.6 1.6 1.3 1.6 1.5 1.6 2.6 1.6 1.2 1.6 3.7 1.6 2.6 1.6 1.3 1.6 1.5 1.6 1.7 1.6 4.2 1.6 1 1.6 1.7 1.6 3.3 1.6 2.2 3.3 2.1 1.6 2.6 3.3 3.4 1.6 1.3 1.6.92 1.6 1.5 1.6 1.3 1.6 3.6 1.6 1.5 4.9 5.7 3.3 3.6 4.9 4 1.6.84 3.3 2.1 3.3 1.2 1.6.77 1.6 1.2 3.3 1.9 1.6 1.6 3.3 2v0" clip-path="url(#p7f3233e6bf)" fill="none" stroke="#1f77b4" stroke-linecap="square" stroke-width="1.5"/><path d="M58 308V42m357 266V42M58 308h357M58 41h357" fill="none" stroke="#000" stroke-linecap="square" stroke-width=".8"/><path d="M349 64h59q2 0 2-2V48q0-2-2-2h-59q-2 0-2 2v14q0 2 2 2z" fill="#fff" opacity=".8" stroke="#ccc"/><path d="M351 55h20" fill="none" stroke="#1f77b4" stroke-linecap="square" stroke-width="1.5"/><defs><path id="DejaVuSans-77" d="M9.8 73h15l19-50 19 50h15V0h-9.6v64l-19-50h-9.9l-19 50V0h-9.6z"/><path id="DejaVuSans-111" d="M31 48q-7.2 0-11-5.6t-4.2-15 4.2-15q4.2-5.6 11-5.6 7.2 0 11 5.7 4.2 5.7 4.2 15 0 9.7-4.2 15-4.2 5.7-11 5.7zm0 7.6q12 0 18-7.6 6.7-7.6 6.7-21 0-13-6.7-21-6.7-7.6-18-7.6-12 0-18 7.6-6.7 7.7-6.7 21 0 13 6.7 21 6.7 7.6 18 7.6z"/></defs><g transform="matrix(.1 0 0 -.1 379 58)"><use xlink:href="#DejaVuSans-77"/><use x="86.279" xlink:href="#DejaVuSans-111"/><use x="147.461" xlink:href="#DejaVuSans-110"/><use x="210.84" xlink:href="#DejaVuSans-111"/></g><defs><clipPath id="p7f3233e6bf"><path d="M58 41h357v266H58z"/></clipPath></defs></svg>