<svg version="1.0" xmlns="http://www.w3.org/2000/svg" viewBox="0 0 550 170"><g clip-rule="evenodd"><path fill-rule="evenodd" d="M530.4 142.4v-6.3l15.6 6.3-15.6 6.2z"/><path fill="none" stroke="#000" stroke-width="2.5" stroke-miterlimit="3.864" d="M10.3 142.4h521.1"/></g><path fill="#3C3C3C" d="M85.6 96.2h88.9V114H85.6V96.2z"/><path fill="none" stroke="#000" stroke-width=".5" stroke-miterlimit="3.864" d="M85.6 96.2h88.9V114H85.6V96.2z"/><path fill="#BDE4F7" d="M21.8 96.2h63.9V114H21.8V96.2z"/><path fill="#BDE4F7" stroke="#000" stroke-width=".5" stroke-miterlimit="3.864" d="M21.8 96.2h63.9V114H21.8V96.2z"/><path fill="none" stroke="#000" stroke-width=".5" stroke-miterlimit="3.864" d="M21.9 83.7h152.6v30.4H21.9V83.7z"/><path fill="#3C3C3C" d="M253.6 96.2h89V114h-89V96.2z"/><path fill="#3C3C3C" stroke="#000" stroke-width=".5" stroke-miterlimit="3.864" d="M253.6 96.2h89V114h-89V96.2z"/><path fill="#BDE4F7" d="M189.9 96.2h63.8V114h-63.8V96.2z"/><path fill="#BDE4F7" stroke="#000" stroke-width=".5" stroke-miterlimit="3.864" d="M189.9 96.2h63.8V114h-63.8V96.2z"/><path fill="none" stroke="#000" stroke-width=".5" stroke-miterlimit="3.864" d="M190 83.7h152.6v30.4H190V83.7z"/><path fill="#3C3C3C" d="M421.7 96.2h89V114h-89V96.2z"/><path fill="#3C3C3C" stroke="#000" stroke-width=".5" stroke-miterlimit="3.864" d="M421.7 96.2h89V114h-89V96.2z"/><path fill="#BDE4F7" d="M358 96.2h63.8V114H358V96.2z"/><path fill="#BDE4F7" stroke="#000" stroke-width=".5" stroke-miterlimit="3.864" d="M358 96.2h63.8V114H358V96.2z"/><path fill="none" stroke="#000" stroke-width=".5" stroke-miterlimit="3.864" d="M358.1 83.7h152.6v30.4H358.1V83.7z"/><path clip-rule="evenodd" fill="none" stroke="#000" stroke-miterlimit="3.864" d="M22.5 70.8V45.1m63.1 25.2V44.6m-63.2-.2h63.5m-.4 26.2h105.1M7 71h15.5m167.7-.5V44.8M253.6 70V44.3m-64-.2H254m-.8 26.2h105.3m-.3-.1V44.4m63.2 25.3V44m-63.8-.2H422M421 70h110.4"/><text transform="translate(7.608 15.164)"><tspan x="0" y="0" font-family="Helvetica,Arial,sans-serif" font-size="13.506">Frame Start </tspan><tspan x="0" y="16.2" font-family="Helvetica,Arial,sans-serif" font-size="13.506">trigger signal</tspan></text><text transform="translate(259.988 162.969)" font-family="Helvetica,Arial,sans-serif" font-size="16.507">Time</text><text transform="translate(25.984 110.067)" font-family="Helvetica,Arial,sans-serif" font-size="13.506">Exposure</text><text transform="translate(107.526 110.067)" fill="#F5F5F5" font-family="Helvetica,Arial,sans-serif" font-size="13.506">Readout</text><text transform="translate(43.28 94.224)" font-family="Helvetica,Arial,sans-serif" font-size="12.278">Frame acquisition n</text><text transform="translate(193.798 110.067)" font-family="Helvetica,Arial,sans-serif" font-size="13.506">Exposure</text><text transform="translate(277.183 110.067)" fill="#F5F5F5" font-family="Helvetica,Arial,sans-serif" font-size="13.506">Readout</text><text transform="translate(209.56 94.224)" font-family="Helvetica,Arial,sans-serif" font-size="12.278">Frame acquisition n+1</text><text transform="translate(362.19 110.067)" font-family="Helvetica,Arial,sans-serif" font-size="13.506">Exposure</text><text transform="translate(440.354 110.067)" fill="#F5F5F5" font-family="Helvetica,Arial,sans-serif" font-size="13.506">Readout</text><text transform="translate(373.96 94.224)" font-family="Helvetica,Arial,sans-serif" font-size="12.278">Frame acquisition n+2</text></svg>