<svg version="1.1" id="Layer_1" xmlns="http://www.w3.org/2000/svg" x="0" y="0" viewBox="0 0 527 671" xml:space="preserve"><style>.st1{fill:none;stroke:#000;stroke-width:.5;stroke-miterlimit:3.864}.st3{font-family:Helvetica,Arial,sans-serif}.st4{font-size:8px}.st12{fill:none;stroke-miterlimit:3.864}.st5{stroke:#009749}.st5,.st7{fill:none;stroke-miterlimit:3.864}.st12,.st7{stroke:#000}.st12{stroke-width:.227}.st13{fill:#009749}.st14{fill:none;stroke:#009749;stroke-width:.4;stroke-miterlimit:3.864}.st15{fill:#f89945}.st16{fill:none;stroke:#f89945;stroke-width:.4;stroke-miterlimit:3.864}.st17{fill:#2950a3}.st18{fill:none;stroke:#2950a3;stroke-width:.4;stroke-miterlimit:3.864}.st19{fill:#fff}.st20{font-size:14px}.st21{font-size:9px}</style><path d="M243.1 262.2H435v119.6H243.1V262.2z" fill="#feddbf"/><path class="st1" d="M124.6 612h8v8h-8v-8zm12 0h8v8h-8v-8zm12 0h8v8h-8v-8zm12 0h8v8h-8v-8zm12 0h8v8h-8v-8zm12 0h8v8h-8v-8zm12 0h8v8h-8v-8zm12 0h8v8h-8v-8zm12 0h8v8h-8v-8zm12 0h8v8h-8v-8zm12 0h8v8h-8v-8zm12 0h8v8h-8v-8zm12 0h8v8h-8v-8zm12 0h8v8h-8v-8zm12 0h8v8h-8v-8zm12 0h8v8h-8v-8zm12 0h8v8h-8v-8zm12 0h8v8h-8v-8zm12 0h8v8h-8v-8zm12 0h8v8h-8v-8zm12 0h8v8h-8v-8zm12 0h8v8h-8v-8zm12 0h8v8h-8v-8zm12 0h8v8h-8v-8zm12 0h8v8h-8v-8zm12 0h8v8h-8v-8zm12 0h8v8h-8v-8zm12 0h8v8h-8v-8zm12 0h8v8h-8v-8zm12 0h8v8h-8v-8zm12 0h8v8h-8v-8zm12-204h8v8h-8v-8zm0 12h8v8h-8v-8zm0 12h8v8h-8v-8zm0 12h8v8h-8v-8zm0 12h8v8h-8v-8zm0 12h8v8h-8v-8zm0 12h8v8h-8v-8zm0 12h8v8h-8v-8zm0 12h8v8h-8v-8zm0 12h8v8h-8v-8zm0 12h8v8h-8v-8zm0 12h8v8h-8v-8zm0 12h8v8h-8v-8zm0 12h8v8h-8v-8zm0 12h8v8h-8v-8zm0 12h8v8h-8v-8zm0 12h8v8h-8v-8zm0 12h8v8h-8v-8z"/><path d="M242.9 93.7h191.9v71.8H242.9V93.7z" fill="#bdd5ba"/><text transform="translate(126.437 18.116)" class="st3 st4">0</text><text transform="translate(138.437 18.116)" class="st3 st4">1</text><text transform="translate(117.779 30.715)" class="st3 st4">0</text><path class="st1" d="M124.6 23.8h8v8h-8v-8zm12 0h8v8h-8v-8z"/><text transform="translate(150.437 18.116)" class="st3 st4">2</text><text transform="translate(162.437 18.116)" class="st3 st4">3</text><path class="st1" d="M148.6 23.8h8v8h-8v-8zm12 0h8v8h-8v-8z"/><text transform="translate(174.437 18.116)" class="st3 st4">4</text><text transform="translate(186.437 18.116)" class="st3 st4">5</text><path class="st1" d="M172.6 23.8h8v8h-8v-8zm12 0h8v8h-8v-8z"/><text transform="translate(198.437 18.116)" class="st3 st4">6</text><text transform="translate(210.437 18.116)" class="st3 st4">7</text><path class="st1" d="M196.6 23.8h8v8h-8v-8zm12 0h8v8h-8v-8z"/><text transform="translate(222.437 18.116)" class="st3 st4">8</text><text transform="translate(233.837 18.116)" class="st3 st4">9</text><path class="st1" d="M220.6 23.8h8v8h-8v-8zm12 0h8v8h-8v-8z"/><text transform="translate(244.437 18.116)" class="st3 st4">10</text><text transform="translate(256.437 18.116)" class="st3 st4">1</text><text transform="translate(259.659 18.116)" class="st3 st4">1</text><path class="st1" d="M244.6 23.8h8v8h-8v-8zm12 0h8v8h-8v-8z"/><text transform="translate(268.437 18.116)" class="st3 st4">12</text><text transform="translate(280.437 18.116)" class="st3 st4">13</text><path class="st1" d="M268.6 23.8h8v8h-8v-8zm12 0h8v8h-8v-8z"/><text transform="translate(292.437 18.116)" class="st3 st4">14</text><text transform="translate(304.437 18.116)" class="st3 st4">15</text><path class="st1" d="M292.6 23.8h8v8h-8v-8zm12 0h8v8h-8v-8z"/><text transform="translate(316.437 18.116)" class="st3 st4">16</text><text transform="translate(328.437 18.116)" class="st3 st4">17</text><path class="st1" d="M316.6 23.8h8v8h-8v-8zm12 0h8v8h-8v-8z"/><text transform="translate(340.437 18.116)" class="st3 st4">18</text><text transform="translate(352.437 18.116)" class="st3 st4">19</text><path class="st1" d="M340.6 23.8h8v8h-8v-8zm12 0h8v8h-8v-8z"/><text transform="translate(364.437 18.116)" class="st3 st4">20</text><text transform="translate(376.437 18.116)" class="st3 st4">21</text><path class="st1" d="M364.6 23.8h8v8h-8v-8zm12 0h8v8h-8v-8z"/><text transform="translate(388.437 18.116)" class="st3 st4">22</text><text transform="translate(400.437 18.116)" class="st3 st4">23</text><path class="st1" d="M388.6 23.8h8v8h-8v-8zm12 0h8v8h-8v-8z"/><text transform="translate(412.436 18.116)" class="st3 st4">24</text><text transform="translate(424.436 18.116)" class="st3 st4">25</text><path class="st1" d="M412.6 23.8h8v8h-8v-8zm12 0h8v8h-8v-8z"/><text transform="translate(436.436 18.116)" class="st3 st4">26</text><text transform="translate(448.436 18.116)" class="st3 st4">27</text><path class="st1" d="M436.6 23.8h8v8h-8v-8zm12 0h8v8h-8v-8z"/><text transform="translate(460.436 18.116)" class="st3 st4">28</text><text transform="translate(472.436 18.116)" class="st3 st4">29</text><path class="st1" d="M460.6 23.8h8v8h-8v-8zm12 0h8v8h-8v-8z"/><text transform="translate(484.437 18.116)" class="st3 st4">30</text><path class="st1" d="M484.6 23.8h8v8h-8v-8zm12 0h8v8h-8v-8zm-372 12h8v8h-8v-8zm12 0h8v8h-8v-8zm12 0h8v8h-8v-8zm12 0h8v8h-8v-8zm12 0h8v8h-8v-8zm12 0h8v8h-8v-8zm12 0h8v8h-8v-8zm12 0h8v8h-8v-8zm12 0h8v8h-8v-8zm12 0h8v8h-8v-8zm12 0h8v8h-8v-8zm12 0h8v8h-8v-8zm12 0h8v8h-8v-8zm12 0h8v8h-8v-8zm12 0h8v8h-8v-8zm12 0h8v8h-8v-8zm12 0h8v8h-8v-8zm12 0h8v8h-8v-8zm12 0h8v8h-8v-8zm12 0h8v8h-8v-8zm12 0h8v8h-8v-8zm12 0h8v8h-8v-8zm12 0h8v8h-8v-8zm12 0h8v8h-8v-8zm12 0h8v8h-8v-8zm12 0h8v8h-8v-8zm12 0h8v8h-8v-8zm12 0h8v8h-8v-8zm12 0h8v8h-8v-8zm12 0h8v8h-8v-8zm12 0h8v8h-8v-8zm12 0h8v8h-8v-8zm-372 12h8v8h-8v-8zm12 0h8v8h-8v-8zm12 0h8v8h-8v-8zm12 0h8v8h-8v-8zm12 0h8v8h-8v-8zm12 0h8v8h-8v-8zm12 0h8v8h-8v-8zm12 0h8v8h-8v-8zm12 0h8v8h-8v-8zm12 0h8v8h-8v-8zm12 0h8v8h-8v-8zm12 0h8v8h-8v-8zm12 0h8v8h-8v-8zm12 0h8v8h-8v-8zm12 0h8v8h-8v-8zm12 0h8v8h-8v-8zm12 0h8v8h-8v-8zm12 0h8v8h-8v-8zm12 0h8v8h-8v-8zm12 0h8v8h-8v-8zm12 0h8v8h-8v-8zm12 0h8v8h-8v-8zm12 0h8v8h-8v-8zm12 0h8v8h-8v-8zm12 0h8v8h-8v-8zm12 0h8v8h-8v-8zm12 0h8v8h-8v-8zm12 0h8v8h-8v-8zm12 0h8v8h-8v-8zm12 0h8v8h-8v-8zm12 0h8v8h-8v-8zm12 0h8v8h-8v-8zm-372 12h8v8h-8v-8zm12 0h8v8h-8v-8zm12 0h8v8h-8v-8zm12 0h8v8h-8v-8zm12 0h8v8h-8v-8zm12 0h8v8h-8v-8zm12 0h8v8h-8v-8zm12 0h8v8h-8v-8zm12 0h8v8h-8v-8zm12 0h8v8h-8v-8zm12 0h8v8h-8v-8zm12 0h8v8h-8v-8zm12 0h8v8h-8v-8zm12 0h8v8h-8v-8zm12 0h8v8h-8v-8zm12 0h8v8h-8v-8zm12 0h8v8h-8v-8zm12 0h8v8h-8v-8zm12 0h8v8h-8v-8zm12 0h8v8h-8v-8zm12 0h8v8h-8v-8zm12 0h8v8h-8v-8zm12 0h8v8h-8v-8zm12 0h8v8h-8v-8zm12 0h8v8h-8v-8zm12 0h8v8h-8v-8zm12 0h8v8h-8v-8zm12 0h8v8h-8v-8zm12 0h8v8h-8v-8zm12 0h8v8h-8v-8zm12 0h8v8h-8v-8zm12 0h8v8h-8v-8zm-372 12h8v8h-8v-8zm12 0h8v8h-8v-8zm12 0h8v8h-8v-8zm12 0h8v8h-8v-8zm12 0h8v8h-8v-8zm12 0h8v8h-8v-8zm12 0h8v8h-8v-8zm12 0h8v8h-8v-8zm12 0h8v8h-8v-8zm12 0h8v8h-8v-8zm12 0h8v8h-8v-8zm12 0h8v8h-8v-8zm12 0h8v8h-8v-8zm12 0h8v8h-8v-8zm12 0h8v8h-8v-8zm12 0h8v8h-8v-8zm12 0h8v8h-8v-8zm12 0h8v8h-8v-8zm12 0h8v8h-8v-8zm12 0h8v8h-8v-8zm12 0h8v8h-8v-8zm12 0h8v8h-8v-8zm12 0h8v8h-8v-8zm12 0h8v8h-8v-8zm12 0h8v8h-8v-8zm12 0h8v8h-8v-8zm12 0h8v8h-8v-8zm12 0h8v8h-8v-8zm12 0h8v8h-8v-8zm12 0h8v8h-8v-8zm12 0h8v8h-8v-8zm12 0h8v8h-8v-8zm-372 12h8v8h-8v-8zm12 0h8v8h-8v-8zm12 0h8v8h-8v-8zm12 0h8v8h-8v-8zm12 0h8v8h-8v-8zm12 0h8v8h-8v-8zm12 0h8v8h-8v-8zm12 0h8v8h-8v-8zm12 0h8v8h-8v-8zm12 0h8v8h-8v-8zm12 0h8v8h-8v-8zm12 0h8v8h-8v-8zm12 0h8v8h-8v-8zm12 0h8v8h-8v-8zm12 0h8v8h-8v-8zm12 0h8v8h-8v-8zm12 0h8v8h-8v-8zm12 0h8v8h-8v-8zm12 0h8v8h-8v-8zm12 0h8v8h-8v-8zm12 0h8v8h-8v-8zm12 0h8v8h-8v-8zm12 0h8v8h-8v-8zm12 0h8v8h-8v-8zm12 0h8v8h-8v-8zm12 0h8v8h-8v-8zm12 0h8v8h-8v-8zm12 0h8v8h-8v-8zm12 0h8v8h-8v-8zm12 0h8v8h-8v-8zm12 0h8v8h-8v-8zm12 0h8v8h-8v-8zm-372 12h8v8h-8v-8zm12 0h8v8h-8v-8zm12 0h8v8h-8v-8zm12 0h8v8h-8v-8zm12 0h8v8h-8v-8zm12 0h8v8h-8v-8zm12 0h8v8h-8v-8zm12 0h8v8h-8v-8zm12 0h8v8h-8v-8zm12 0h8v8h-8v-8zm12 0h8v8h-8v-8zm12 0h8v8h-8v-8zm12 0h8v8h-8v-8zm12 0h8v8h-8v-8zm12 0h8v8h-8v-8zm12 0h8v8h-8v-8zm12 0h8v8h-8v-8zm12 0h8v8h-8v-8zm12 0h8v8h-8v-8zm12 0h8v8h-8v-8zm12 0h8v8h-8v-8zm12 0h8v8h-8v-8zm12 0h8v8h-8v-8zm12 0h8v8h-8v-8zm12 0h8v8h-8v-8zm12 0h8v8h-8v-8zm12 0h8v8h-8v-8zm12 0h8v8h-8v-8zm12 0h8v8h-8v-8zm12 0h8v8h-8v-8zm12 0h8v8h-8v-8zm12 0h8v8h-8v-8zm-372 12h8v8h-8v-8zm12 0h8v8h-8v-8zm12 0h8v8h-8v-8zm12 0h8v8h-8v-8zm12 0h8v8h-8v-8zm12 0h8v8h-8v-8zm12 0h8v8h-8v-8zm12 0h8v8h-8v-8zm12 0h8v8h-8v-8zm12 0h8v8h-8v-8zm12 0h8v8h-8v-8zm12 0h8v8h-8v-8zm12 0h8v8h-8v-8zm12 0h8v8h-8v-8zm12 0h8v8h-8v-8zm12 0h8v8h-8v-8zm12 0h8v8h-8v-8zm12 0h8v8h-8v-8zm12 0h8v8h-8v-8zm12 0h8v8h-8v-8zm12 0h8v8h-8v-8zm12 0h8v8h-8v-8zm12 0h8v8h-8v-8zm12 0h8v8h-8v-8zm12 0h8v8h-8v-8zm12 0h8v8h-8v-8zm12 0h8v8h-8v-8zm12 0h8v8h-8v-8zm12 0h8v8h-8v-8zm12 0h8v8h-8v-8zm12 0h8v8h-8v-8zm12 0h8v8h-8v-8zm-372 12h8v8h-8v-8zm12 0h8v8h-8v-8zm12 0h8v8h-8v-8zm12 0h8v8h-8v-8zm12 0h8v8h-8v-8zm12 0h8v8h-8v-8zm12 0h8v8h-8v-8zm12 0h8v8h-8v-8zm12 0h8v8h-8v-8zm12 0h8v8h-8v-8zm12 0h8v8h-8v-8zm12 0h8v8h-8v-8zm12 0h8v8h-8v-8zm12 0h8v8h-8v-8zm12 0h8v8h-8v-8zm12 0h8v8h-8v-8zm12 0h8v8h-8v-8zm12 0h8v8h-8v-8zm12 0h8v8h-8v-8zm12 0h8v8h-8v-8zm12 0h8v8h-8v-8zm12 0h8v8h-8v-8zm12 0h8v8h-8v-8zm12 0h8v8h-8v-8zm12 0h8v8h-8v-8zm12 0h8v8h-8v-8zm12 0h8v8h-8v-8zm12 0h8v8h-8v-8zm12 0h8v8h-8v-8zm12 0h8v8h-8v-8zm12 0h8v8h-8v-8zm12 0h8v8h-8v-8zm-372 12h8v8h-8v-8zm12 0h8v8h-8v-8zm12 0h8v8h-8v-8zm12 0h8v8h-8v-8zm12 0h8v8h-8v-8zm12 0h8v8h-8v-8zm12 0h8v8h-8v-8zm12 0h8v8h-8v-8zm12 0h8v8h-8v-8zm12 0h8v8h-8v-8zm12 0h8v8h-8v-8zm12 0h8v8h-8v-8zm12 0h8v8h-8v-8zm12 0h8v8h-8v-8zm12 0h8v8h-8v-8zm12 0h8v8h-8v-8zm12 0h8v8h-8v-8zm12 0h8v8h-8v-8zm12 0h8v8h-8v-8zm12 0h8v8h-8v-8zm12 0h8v8h-8v-8zm12 0h8v8h-8v-8zm12 0h8v8h-8v-8zm12 0h8v8h-8v-8zm12 0h8v8h-8v-8zm12 0h8v8h-8v-8zm12 0h8v8h-8v-8zm12 0h8v8h-8v-8zm12 0h8v8h-8v-8zm12 0h8v8h-8v-8zm12 0h8v8h-8v-8zm12 0h8v8h-8v-8zm-372 12h8v8h-8v-8zm12 0h8v8h-8v-8zm12 0h8v8h-8v-8zm12 0h8v8h-8v-8zm12 0h8v8h-8v-8zm12 0h8v8h-8v-8zm12 0h8v8h-8v-8zm12 0h8v8h-8v-8zm12 0h8v8h-8v-8zm12 0h8v8h-8v-8zm12 0h8v8h-8v-8zm12 0h8v8h-8v-8zm12 0h8v8h-8v-8zm12 0h8v8h-8v-8zm12 0h8v8h-8v-8zm12 0h8v8h-8v-8zm12 0h8v8h-8v-8zm12 0h8v8h-8v-8zm12 0h8v8h-8v-8zm12 0h8v8h-8v-8zm12 0h8v8h-8v-8zm12 0h8v8h-8v-8zm12 0h8v8h-8v-8zm12 0h8v8h-8v-8zm12 0h8v8h-8v-8zm12 0h8v8h-8v-8zm12 0h8v8h-8v-8zm12 0h8v8h-8v-8zm12 0h8v8h-8v-8zm12 0h8v8h-8v-8zm12 0h8v8h-8v-8zm12 0h8v8h-8v-8zm-372 12h8v8h-8v-8zm12 0h8v8h-8v-8zm12 0h8v8h-8v-8zm12 0h8v8h-8v-8zm12 0h8v8h-8v-8zm12 0h8v8h-8v-8zm12 0h8v8h-8v-8zm12 0h8v8h-8v-8zm12 0h8v8h-8v-8zm12 0h8v8h-8v-8zm12 0h8v8h-8v-8zm12 0h8v8h-8v-8zm12 0h8v8h-8v-8zm12 0h8v8h-8v-8zm12 0h8v8h-8v-8zm12 0h8v8h-8v-8zm12 0h8v8h-8v-8zm12 0h8v8h-8v-8zm12 0h8v8h-8v-8zm12 0h8v8h-8v-8zm12 0h8v8h-8v-8zm12 0h8v8h-8v-8zm12 0h8v8h-8v-8zm12 0h8v8h-8v-8zm12 0h8v8h-8v-8zm12 0h8v8h-8v-8zm12 0h8v8h-8v-8zm12 0h8v8h-8v-8zm12 0h8v8h-8v-8zm12 0h8v8h-8v-8zm12 0h8v8h-8v-8zm12 0h8v8h-8v-8zm-372 12h8v8h-8v-8zm12 0h8v8h-8v-8zm12 0h8v8h-8v-8zm12 0h8v8h-8v-8zm12 0h8v8h-8v-8zm12 0h8v8h-8v-8zm12 0h8v8h-8v-8zm12 0h8v8h-8v-8zm12 0h8v8h-8v-8zm12 0h8v8h-8v-8zm12 0h8v8h-8v-8zm12 0h8v8h-8v-8zm12 0h8v8h-8v-8zm12 0h8v8h-8v-8zm12 0h8v8h-8v-8zm12 0h8v8h-8v-8zm12 0h8v8h-8v-8zm12 0h8v8h-8v-8zm12 0h8v8h-8v-8zm12 0h8v8h-8v-8zm12 0h8v8h-8v-8zm12 0h8v8h-8v-8zm12 0h8v8h-8v-8zm12 0h8v8h-8v-8zm12 0h8v8h-8v-8zm12 0h8v8h-8v-8zm12 0h8v8h-8v-8zm12 0h8v8h-8v-8zm12 0h8v8h-8v-8zm12 0h8v8h-8v-8zm12 0h8v8h-8v-8zm12 0h8v8h-8v-8zm-372 12h8v8h-8v-8zm12 0h8v8h-8v-8zm12 0h8v8h-8v-8zm12 0h8v8h-8v-8zm12 0h8v8h-8v-8zm12 0h8v8h-8v-8zm12 0h8v8h-8v-8zm12 0h8v8h-8v-8zm12 0h8v8h-8v-8zm12 0h8v8h-8v-8zm12 0h8v8h-8v-8zm12 0h8v8h-8v-8zm12 0h8v8h-8v-8zm12 0h8v8h-8v-8zm12 0h8v8h-8v-8zm12 0h8v8h-8v-8zm12 0h8v8h-8v-8zm12 0h8v8h-8v-8zm12 0h8v8h-8v-8zm12 0h8v8h-8v-8zm12 0h8v8h-8v-8zm12 0h8v8h-8v-8zm12 0h8v8h-8v-8zm12 0h8v8h-8v-8zm12 0h8v8h-8v-8zm12 0h8v8h-8v-8zm12 0h8v8h-8v-8zm12 0h8v8h-8v-8zm12 0h8v8h-8v-8zm12 0h8v8h-8v-8zm12 0h8v8h-8v-8zm12 0h8v8h-8v-8zm-372 12h8v8h-8v-8zm12 0h8v8h-8v-8zm12 0h8v8h-8v-8zm12 0h8v8h-8v-8zm12 0h8v8h-8v-8zm12 0h8v8h-8v-8zm12 0h8v8h-8v-8zm12 0h8v8h-8v-8zm12 0h8v8h-8v-8zm12 0h8v8h-8v-8zm12 0h8v8h-8v-8zm12 0h8v8h-8v-8zm12 0h8v8h-8v-8zm12 0h8v8h-8v-8zm12 0h8v8h-8v-8zm12 0h8v8h-8v-8zm12 0h8v8h-8v-8zm12 0h8v8h-8v-8zm12 0h8v8h-8v-8zm12 0h8v8h-8v-8zm12 0h8v8h-8v-8zm12 0h8v8h-8v-8zm12 0h8v8h-8v-8zm12 0h8v8h-8v-8zm12 0h8v8h-8v-8zm12 0h8v8h-8v-8zm12 0h8v8h-8v-8zm12 0h8v8h-8v-8zm12 0h8v8h-8v-8zm12 0h8v8h-8v-8zm12 0h8v8h-8v-8zm12 0h8v8h-8v-8zm-372 12h8v8h-8v-8zm12 0h8v8h-8v-8zm12 0h8v8h-8v-8zm12 0h8v8h-8v-8zm12 0h8v8h-8v-8zm12 0h8v8h-8v-8zm12 0h8v8h-8v-8zm12 0h8v8h-8v-8zm12 0h8v8h-8v-8zm12 0h8v8h-8v-8zm12 0h8v8h-8v-8zm12 0h8v8h-8v-8zm12 0h8v8h-8v-8zm12 0h8v8h-8v-8zm12 0h8v8h-8v-8zm12 0h8v8h-8v-8zm12 0h8v8h-8v-8zm12 0h8v8h-8v-8zm12 0h8v8h-8v-8zm12 0h8v8h-8v-8zm12 0h8v8h-8v-8zm12 0h8v8h-8v-8zm12 0h8v8h-8v-8zm12 0h8v8h-8v-8zm12 0h8v8h-8v-8zm12 0h8v8h-8v-8zm12 0h8v8h-8v-8zm12 0h8v8h-8v-8zm12 0h8v8h-8v-8zm12 0h8v8h-8v-8zm12 0h8v8h-8v-8zm12 0h8v8h-8v-8zm-372 12h8v8h-8v-8zm12 0h8v8h-8v-8zm12 0h8v8h-8v-8zm12 0h8v8h-8v-8zm12 0h8v8h-8v-8zm12 0h8v8h-8v-8zm12 0h8v8h-8v-8zm12 0h8v8h-8v-8zm12 0h8v8h-8v-8zm12 0h8v8h-8v-8zm12 0h8v8h-8v-8zm12 0h8v8h-8v-8zm12 0h8v8h-8v-8zm12 0h8v8h-8v-8zm12 0h8v8h-8v-8zm12 0h8v8h-8v-8zm12 0h8v8h-8v-8zm12 0h8v8h-8v-8zm12 0h8v8h-8v-8zm12 0h8v8h-8v-8zm12 0h8v8h-8v-8zm12 0h8v8h-8v-8zm12 0h8v8h-8v-8zm12 0h8v8h-8v-8zm12 0h8v8h-8v-8zm12 0h8v8h-8v-8zm12 0h8v8h-8v-8zm12 0h8v8h-8v-8zm12 0h8v8h-8v-8zm12 0h8v8h-8v-8zm12 0h8v8h-8v-8zm12 0h8v8h-8v-8zm-372 12h8v8h-8v-8zm12 0h8v8h-8v-8zm12 0h8v8h-8v-8zm12 0h8v8h-8v-8zm12 0h8v8h-8v-8zm12 0h8v8h-8v-8zm12 0h8v8h-8v-8zm12 0h8v8h-8v-8zm12 0h8v8h-8v-8zm12 0h8v8h-8v-8zm12 0h8v8h-8v-8zm12 0h8v8h-8v-8zm12 0h8v8h-8v-8zm12 0h8v8h-8v-8zm12 0h8v8h-8v-8zm12 0h8v8h-8v-8zm12 0h8v8h-8v-8zm12 0h8v8h-8v-8zm12 0h8v8h-8v-8zm12 0h8v8h-8v-8zm12 0h8v8h-8v-8zm12 0h8v8h-8v-8zm12 0h8v8h-8v-8zm12 0h8v8h-8v-8zm12 0h8v8h-8v-8zm12 0h8v8h-8v-8zm12 0h8v8h-8v-8zm12 0h8v8h-8v-8zm12 0h8v8h-8v-8zm12 0h8v8h-8v-8zm12 0h8v8h-8v-8zm12 0h8v8h-8v-8zm-372 12h8v8h-8v-8zm12 0h8v8h-8v-8zm12 0h8v8h-8v-8zm12 0h8v8h-8v-8zm12 0h8v8h-8v-8zm12 0h8v8h-8v-8zm12 0h8v8h-8v-8zm12 0h8v8h-8v-8zm12 0h8v8h-8v-8zm12 0h8v8h-8v-8zm12 0h8v8h-8v-8zm12 0h8v8h-8v-8zm12 0h8v8h-8v-8zm12 0h8v8h-8v-8zm12 0h8v8h-8v-8zm12 0h8v8h-8v-8zm12 0h8v8h-8v-8zm12 0h8v8h-8v-8zm12 0h8v8h-8v-8zm12 0h8v8h-8v-8zm12 0h8v8h-8v-8zm12 0h8v8h-8v-8zm12 0h8v8h-8v-8zm12 0h8v8h-8v-8zm12 0h8v8h-8v-8zm12 0h8v8h-8v-8zm12 0h8v8h-8v-8zm12 0h8v8h-8v-8zm12 0h8v8h-8v-8zm12 0h8v8h-8v-8zm12 0h8v8h-8v-8zm12 0h8v8h-8v-8zm-372 12h8v8h-8v-8zm12 0h8v8h-8v-8zm12 0h8v8h-8v-8zm12 0h8v8h-8v-8zm12 0h8v8h-8v-8zm12 0h8v8h-8v-8zm12 0h8v8h-8v-8zm12 0h8v8h-8v-8zm12 0h8v8h-8v-8zm12 0h8v8h-8v-8zm12 0h8v8h-8v-8zm12 0h8v8h-8v-8zm12 0h8v8h-8v-8zm12 0h8v8h-8v-8zm12 0h8v8h-8v-8zm12 0h8v8h-8v-8zm12 0h8v8h-8v-8zm12 0h8v8h-8v-8zm12 0h8v8h-8v-8zm12 0h8v8h-8v-8zm12 0h8v8h-8v-8zm12 0h8v8h-8v-8zm12 0h8v8h-8v-8zm12 0h8v8h-8v-8zm12 0h8v8h-8v-8zm12 0h8v8h-8v-8zm12 0h8v8h-8v-8zm12 0h8v8h-8v-8zm12 0h8v8h-8v-8zm12 0h8v8h-8v-8zm12 0h8v8h-8v-8zm12 0h8v8h-8v-8z"/><text transform="translate(117.679 42.715)" class="st3 st4">1</text><text transform="translate(117.779 54.715)" class="st3 st4">2</text><text transform="translate(117.779 66.715)" class="st3 st4">3</text><text transform="translate(117.779 78.715)" class="st3 st4">4</text><text transform="translate(117.779 90.715)" class="st3 st4">5</text><text transform="translate(117.779 102.715)" class="st3 st4">6</text><text transform="translate(117.779 114.715)" class="st3 st4">7</text><text transform="translate(117.779 126.715)" class="st3 st4">8</text><text transform="translate(117.779 138.715)" class="st3 st4">9</text><text transform="translate(114.133 150.715)" class="st3 st4">10</text><text transform="translate(114.557 162.715)" class="st3 st4">1</text><text transform="translate(117.779 162.715)" class="st3 st4">1</text><text transform="translate(114.133 174.715)" class="st3 st4">12</text><text transform="translate(114.133 186.715)" class="st3 st4">13</text><text transform="translate(114.133 198.715)" class="st3 st4">14</text><text transform="translate(114.133 210.715)" class="st3 st4">15</text><text transform="translate(114.133 222.715)" class="st3 st4">16</text><text transform="translate(114.133 234.715)" class="st3 st4">17</text><text transform="translate(114.133 246.715)" class="st3 st4">18</text><text transform="translate(114.133 258.715)" class="st3 st4">19</text><path class="st1" d="M124.6 263.8h8v8h-8v-8zm12 0h8v8h-8v-8zm12 0h8v8h-8v-8zm12 0h8v8h-8v-8zm12 0h8v8h-8v-8zm12 0h8v8h-8v-8zm12 0h8v8h-8v-8zm12 0h8v8h-8v-8zm12 0h8v8h-8v-8zm12 0h8v8h-8v-8zm12 0h8v8h-8v-8zm12 0h8v8h-8v-8zm12 0h8v8h-8v-8zm12 0h8v8h-8v-8zm12 0h8v8h-8v-8zm12 0h8v8h-8v-8zm12 0h8v8h-8v-8zm12 0h8v8h-8v-8zm12 0h8v8h-8v-8zm12 0h8v8h-8v-8zm12 0h8v8h-8v-8zm12 0h8v8h-8v-8zm12 0h8v8h-8v-8zm12 0h8v8h-8v-8zm12 0h8v8h-8v-8zm12 0h8v8h-8v-8zm12 0h8v8h-8v-8zm12 0h8v8h-8v-8zm12 0h8v8h-8v-8zm12 0h8v8h-8v-8zm12 0h8v8h-8v-8zm12 0h8v8h-8v-8z"/><path class="st5" d="M504.8 93.8h-477m477 72H27.9"/><path d="M8.4 8h505.2v655.1H8.4V8z" fill="none"/><path class="st5" d="M41.5 21.2H27.8"/><path class="st7" d="M122.6 632.3v28.9"/><path class="st1" d="M124.6 275.8h8v8h-8v-8zm12 0h8v8h-8v-8zm12 0h8v8h-8v-8zm12 0h8v8h-8v-8zm12 0h8v8h-8v-8zm12 0h8v8h-8v-8zm12 0h8v8h-8v-8zm12 0h8v8h-8v-8zm12 0h8v8h-8v-8zm12 0h8v8h-8v-8zm12 0h8v8h-8v-8zm12 0h8v8h-8v-8zm12 0h8v8h-8v-8zm12 0h8v8h-8v-8zm12 0h8v8h-8v-8zm12 0h8v8h-8v-8zm12 0h8v8h-8v-8zm12 0h8v8h-8v-8zm12 0h8v8h-8v-8zm12 0h8v8h-8v-8zm12 0h8v8h-8v-8zm12 0h8v8h-8v-8zm12 0h8v8h-8v-8zm12 0h8v8h-8v-8zm12 0h8v8h-8v-8zm12 0h8v8h-8v-8zm12 0h8v8h-8v-8zm12 0h8v8h-8v-8zm12 0h8v8h-8v-8zm12 0h8v8h-8v-8zm12 0h8v8h-8v-8zm12 0h8v8h-8v-8zm-372 12h8v8h-8v-8zm12 0h8v8h-8v-8zm12 0h8v8h-8v-8zm12 0h8v8h-8v-8zm12 0h8v8h-8v-8zm12 0h8v8h-8v-8zm12 0h8v8h-8v-8zm12 0h8v8h-8v-8zm12 0h8v8h-8v-8zm12 0h8v8h-8v-8zm12 0h8v8h-8v-8zm12 0h8v8h-8v-8zm12 0h8v8h-8v-8zm12 0h8v8h-8v-8zm12 0h8v8h-8v-8zm12 0h8v8h-8v-8zm12 0h8v8h-8v-8zm12 0h8v8h-8v-8zm12 0h8v8h-8v-8zm12 0h8v8h-8v-8zm12 0h8v8h-8v-8zm12 0h8v8h-8v-8zm12 0h8v8h-8v-8zm12 0h8v8h-8v-8zm12 0h8v8h-8v-8zm12 0h8v8h-8v-8zm12 0h8v8h-8v-8zm12 0h8v8h-8v-8zm12 0h8v8h-8v-8zm12 0h8v8h-8v-8zm12 0h8v8h-8v-8zm12 0h8v8h-8v-8zm-372 12h8v8h-8v-8zm12 0h8v8h-8v-8zm12 0h8v8h-8v-8zm12 0h8v8h-8v-8zm12 0h8v8h-8v-8zm12 0h8v8h-8v-8zm12 0h8v8h-8v-8zm12 0h8v8h-8v-8zm12 0h8v8h-8v-8zm12 0h8v8h-8v-8zm12 0h8v8h-8v-8zm12 0h8v8h-8v-8zm12 0h8v8h-8v-8zm12 0h8v8h-8v-8zm12 0h8v8h-8v-8zm12 0h8v8h-8v-8zm12 0h8v8h-8v-8zm12 0h8v8h-8v-8zm12 0h8v8h-8v-8zm12 0h8v8h-8v-8zm12 0h8v8h-8v-8zm12 0h8v8h-8v-8zm12 0h8v8h-8v-8zm12 0h8v8h-8v-8zm12 0h8v8h-8v-8zm12 0h8v8h-8v-8zm12 0h8v8h-8v-8zm12 0h8v8h-8v-8zm12 0h8v8h-8v-8zm12 0h8v8h-8v-8zm12 0h8v8h-8v-8zm12 0h8v8h-8v-8zm-372 12h8v8h-8v-8zm12 0h8v8h-8v-8zm12 0h8v8h-8v-8zm12 0h8v8h-8v-8zm12 0h8v8h-8v-8zm12 0h8v8h-8v-8zm12 0h8v8h-8v-8zm12 0h8v8h-8v-8zm12 0h8v8h-8v-8zm12 0h8v8h-8v-8zm12 0h8v8h-8v-8zm12 0h8v8h-8v-8zm12 0h8v8h-8v-8zm12 0h8v8h-8v-8zm12 0h8v8h-8v-8zm12 0h8v8h-8v-8zm12 0h8v8h-8v-8zm12 0h8v8h-8v-8zm12 0h8v8h-8v-8zm12 0h8v8h-8v-8zm12 0h8v8h-8v-8zm12 0h8v8h-8v-8zm12 0h8v8h-8v-8zm12 0h8v8h-8v-8zm12 0h8v8h-8v-8zm12 0h8v8h-8v-8zm12 0h8v8h-8v-8zm12 0h8v8h-8v-8zm12 0h8v8h-8v-8zm12 0h8v8h-8v-8zm12 0h8v8h-8v-8zm12 0h8v8h-8v-8zm-372 12h8v8h-8v-8zm12 0h8v8h-8v-8zm12 0h8v8h-8v-8zm12 0h8v8h-8v-8zm12 0h8v8h-8v-8zm12 0h8v8h-8v-8zm12 0h8v8h-8v-8zm12 0h8v8h-8v-8zm12 0h8v8h-8v-8zm12 0h8v8h-8v-8zm12 0h8v8h-8v-8zm12 0h8v8h-8v-8zm12 0h8v8h-8v-8zm12 0h8v8h-8v-8zm12 0h8v8h-8v-8zm12 0h8v8h-8v-8zm12 0h8v8h-8v-8zm12 0h8v8h-8v-8zm12 0h8v8h-8v-8zm12 0h8v8h-8v-8zm12 0h8v8h-8v-8zm12 0h8v8h-8v-8zm12 0h8v8h-8v-8zm12 0h8v8h-8v-8zm12 0h8v8h-8v-8zm12 0h8v8h-8v-8zm12 0h8v8h-8v-8zm12 0h8v8h-8v-8zm12 0h8v8h-8v-8zm12 0h8v8h-8v-8zm12 0h8v8h-8v-8zm12 0h8v8h-8v-8zm-372 12h8v8h-8v-8zm12 0h8v8h-8v-8zm12 0h8v8h-8v-8zm12 0h8v8h-8v-8zm12 0h8v8h-8v-8zm12 0h8v8h-8v-8zm12 0h8v8h-8v-8zm12 0h8v8h-8v-8zm12 0h8v8h-8v-8zm12 0h8v8h-8v-8zm12 0h8v8h-8v-8zm12 0h8v8h-8v-8zm12 0h8v8h-8v-8zm12 0h8v8h-8v-8zm12 0h8v8h-8v-8zm12 0h8v8h-8v-8zm12 0h8v8h-8v-8zm12 0h8v8h-8v-8zm12 0h8v8h-8v-8zm12 0h8v8h-8v-8zm12 0h8v8h-8v-8zm12 0h8v8h-8v-8zm12 0h8v8h-8v-8zm12 0h8v8h-8v-8zm12 0h8v8h-8v-8zm12 0h8v8h-8v-8zm12 0h8v8h-8v-8zm12 0h8v8h-8v-8zm12 0h8v8h-8v-8zm12 0h8v8h-8v-8zm12 0h8v8h-8v-8zm12 0h8v8h-8v-8zm-372 12h8v8h-8v-8zm12 0h8v8h-8v-8zm12 0h8v8h-8v-8zm12 0h8v8h-8v-8zm12 0h8v8h-8v-8zm12 0h8v8h-8v-8zm12 0h8v8h-8v-8zm12 0h8v8h-8v-8zm12 0h8v8h-8v-8zm12 0h8v8h-8v-8zm12 0h8v8h-8v-8zm12 0h8v8h-8v-8zm12 0h8v8h-8v-8zm12 0h8v8h-8v-8zm12 0h8v8h-8v-8zm12 0h8v8h-8v-8zm12 0h8v8h-8v-8zm12 0h8v8h-8v-8zm12 0h8v8h-8v-8zm12 0h8v8h-8v-8zm12 0h8v8h-8v-8zm12 0h8v8h-8v-8zm12 0h8v8h-8v-8zm12 0h8v8h-8v-8zm12 0h8v8h-8v-8zm12 0h8v8h-8v-8zm12 0h8v8h-8v-8zm12 0h8v8h-8v-8zm12 0h8v8h-8v-8zm12 0h8v8h-8v-8zm12 0h8v8h-8v-8zm12 0h8v8h-8v-8zm-372 12h8v8h-8v-8zm12 0h8v8h-8v-8zm12 0h8v8h-8v-8zm12 0h8v8h-8v-8zm12 0h8v8h-8v-8zm12 0h8v8h-8v-8zm12 0h8v8h-8v-8zm12 0h8v8h-8v-8zm12 0h8v8h-8v-8zm12 0h8v8h-8v-8zm12 0h8v8h-8v-8zm12 0h8v8h-8v-8zm12 0h8v8h-8v-8zm12 0h8v8h-8v-8zm12 0h8v8h-8v-8zm12 0h8v8h-8v-8zm12 0h8v8h-8v-8zm12 0h8v8h-8v-8zm12 0h8v8h-8v-8zm12 0h8v8h-8v-8zm12 0h8v8h-8v-8zm12 0h8v8h-8v-8zm12 0h8v8h-8v-8zm12 0h8v8h-8v-8zm12 0h8v8h-8v-8zm12 0h8v8h-8v-8zm12 0h8v8h-8v-8zm12 0h8v8h-8v-8zm12 0h8v8h-8v-8zm12 0h8v8h-8v-8zm12 0h8v8h-8v-8zm12 0h8v8h-8v-8zm-372 12h8v8h-8v-8zm12 0h8v8h-8v-8zm12 0h8v8h-8v-8zm12 0h8v8h-8v-8zm12 0h8v8h-8v-8zm12 0h8v8h-8v-8zm12 0h8v8h-8v-8zm12 0h8v8h-8v-8zm12 0h8v8h-8v-8zm12 0h8v8h-8v-8zm12 0h8v8h-8v-8zm12 0h8v8h-8v-8zm12 0h8v8h-8v-8zm12 0h8v8h-8v-8zm12 0h8v8h-8v-8zm12 0h8v8h-8v-8zm12 0h8v8h-8v-8zm12 0h8v8h-8v-8zm12 0h8v8h-8v-8zm12 0h8v8h-8v-8zm12 0h8v8h-8v-8zm12 0h8v8h-8v-8zm12 0h8v8h-8v-8zm12 0h8v8h-8v-8zm12 0h8v8h-8v-8zm12 0h8v8h-8v-8zm12 0h8v8h-8v-8zm12 0h8v8h-8v-8zm12 0h8v8h-8v-8zm12 0h8v8h-8v-8zm12 0h8v8h-8v-8zm12 0h8v8h-8v-8zm-372 12h8v8h-8v-8zm12 0h8v8h-8v-8zm12 0h8v8h-8v-8zm12 0h8v8h-8v-8zm12 0h8v8h-8v-8zm12 0h8v8h-8v-8zm12 0h8v8h-8v-8zm12 0h8v8h-8v-8zm12 0h8v8h-8v-8zm12 0h8v8h-8v-8zm12 0h8v8h-8v-8zm12 0h8v8h-8v-8zm12 0h8v8h-8v-8zm12 0h8v8h-8v-8zm12 0h8v8h-8v-8zm12 0h8v8h-8v-8zm12 0h8v8h-8v-8zm12 0h8v8h-8v-8zm12 0h8v8h-8v-8zm12 0h8v8h-8v-8zm12 0h8v8h-8v-8zm12 0h8v8h-8v-8zm12 0h8v8h-8v-8zm12 0h8v8h-8v-8zm12 0h8v8h-8v-8zm12 0h8v8h-8v-8zm12 0h8v8h-8v-8zm12 0h8v8h-8v-8zm12 0h8v8h-8v-8zm12 0h8v8h-8v-8zm12 0h8v8h-8v-8zm12 0h8v8h-8v-8zm-372 12h8v8h-8v-8zm12 0h8v8h-8v-8zm12 0h8v8h-8v-8zm12 0h8v8h-8v-8zm12 0h8v8h-8v-8zm12 0h8v8h-8v-8zm12 0h8v8h-8v-8zm12 0h8v8h-8v-8zm12 0h8v8h-8v-8zm12 0h8v8h-8v-8zm12 0h8v8h-8v-8zm12 0h8v8h-8v-8zm12 0h8v8h-8v-8zm12 0h8v8h-8v-8zm12 0h8v8h-8v-8zm12 0h8v8h-8v-8zm12 0h8v8h-8v-8zm12 0h8v8h-8v-8zm12 0h8v8h-8v-8zm12 0h8v8h-8v-8zm12 0h8v8h-8v-8zm12 0h8v8h-8v-8zm12 0h8v8h-8v-8zm12 0h8v8h-8v-8zm12 0h8v8h-8v-8zm12 0h8v8h-8v-8zm12 0h8v8h-8v-8zm12 0h8v8h-8v-8zm12 0h8v8h-8v-8zm12 0h8v8h-8v-8zm12 0h8v8h-8v-8zm12 0h8v8h-8v-8z"/><text transform="translate(114.428 270.204)" class="st3 st4">20</text><text transform="translate(114.428 282.204)" class="st3 st4">21</text><text transform="translate(114.428 294.204)" class="st3 st4">22</text><text transform="translate(114.428 306.204)" class="st3 st4">23</text><text transform="translate(114.428 318.204)" class="st3 st4">24</text><text transform="translate(114.428 330.204)" class="st3 st4">25</text><text transform="translate(114.428 342.204)" class="st3 st4">26</text><text transform="translate(114.428 390.204)" class="st3 st4">30</text><text transform="translate(114.428 354.204)" class="st3 st4">27</text><text transform="translate(114.428 366.204)" class="st3 st4">28</text><text transform="translate(114.428 378.204)" class="st3 st4">29</text><path d="M109.6 623.9h398l.3-605.4h-6.5l-1.9 332.7 4.1 108.7-4 96 2 60-50-2-80 4-88-4-142 2-30.4-.6-1.6 8.6z" fill-rule="evenodd" clip-rule="evenodd" fill="#fff"/><path class="st1" d="M124.5 615.5l17.1.4 140-2 90 4 80-4 50 2-2-60 4-96-4.2-108 1.9-328.3"/><path class="st7" d="M242.8 29.2v632m192-632v632"/><path d="M508.4 261.9H57.9m450.5 119.9H57.9M71.6 21.2H57.9" fill="none" stroke="#f89945" stroke-miterlimit="3.864"/><path d="M508.4 477.9H87.6m421.2 96.2H87.6m13.7-552.9H87.6" fill="none" stroke="#2950a3" stroke-miterlimit="3.864"/><path d="M242.8 477.9h191.9v95.9H242.8v-95.9z" fill="#b4b8dd"/><path class="st1" d="M124.6 408h8v8h-8v-8zm12 0h8v8h-8v-8zm12 0h8v8h-8v-8zm12 0h8v8h-8v-8zm12 0h8v8h-8v-8zm12 0h8v8h-8v-8zm12 0h8v8h-8v-8zm12 0h8v8h-8v-8zm12 0h8v8h-8v-8zm12 0h8v8h-8v-8zm12 0h8v8h-8v-8zm12 0h8v8h-8v-8zm12 0h8v8h-8v-8zm12 0h8v8h-8v-8zm12 0h8v8h-8v-8zm12 0h8v8h-8v-8zm12 0h8v8h-8v-8zm12 0h8v8h-8v-8zm12 0h8v8h-8v-8zm12 0h8v8h-8v-8zm12 0h8v8h-8v-8zm12 0h8v8h-8v-8zm12 0h8v8h-8v-8zm12 0h8v8h-8v-8zm12 0h8v8h-8v-8zm12 0h8v8h-8v-8zm12 0h8v8h-8v-8zm12 0h8v8h-8v-8zm12 0h8v8h-8v-8zm12 0h8v8h-8v-8zm12 0h8v8h-8v-8zm-360 12h8v8h-8v-8zm12 0h8v8h-8v-8zm12 0h8v8h-8v-8zm12 0h8v8h-8v-8zm12 0h8v8h-8v-8zm12 0h8v8h-8v-8zm12 0h8v8h-8v-8zm12 0h8v8h-8v-8zm12 0h8v8h-8v-8zm12 0h8v8h-8v-8zm12 0h8v8h-8v-8zm12 0h8v8h-8v-8zm12 0h8v8h-8v-8zm12 0h8v8h-8v-8zm12 0h8v8h-8v-8zm12 0h8v8h-8v-8zm12 0h8v8h-8v-8zm12 0h8v8h-8v-8zm12 0h8v8h-8v-8zm12 0h8v8h-8v-8zm12 0h8v8h-8v-8zm12 0h8v8h-8v-8zm12 0h8v8h-8v-8zm12 0h8v8h-8v-8zm12 0h8v8h-8v-8zm12 0h8v8h-8v-8zm12 0h8v8h-8v-8zm12 0h8v8h-8v-8zm12 0h8v8h-8v-8zm12 0h8v8h-8v-8zm12 0h8v8h-8v-8zm-360 12h8v8h-8v-8zm12 0h8v8h-8v-8zm12 0h8v8h-8v-8zm12 0h8v8h-8v-8zm12 0h8v8h-8v-8zm12 0h8v8h-8v-8zm12 0h8v8h-8v-8zm12 0h8v8h-8v-8zm12 0h8v8h-8v-8zm12 0h8v8h-8v-8zm12 0h8v8h-8v-8zm12 0h8v8h-8v-8zm12 0h8v8h-8v-8zm12 0h8v8h-8v-8zm12 0h8v8h-8v-8zm12 0h8v8h-8v-8zm12 0h8v8h-8v-8zm12 0h8v8h-8v-8zm12 0h8v8h-8v-8zm12 0h8v8h-8v-8zm12 0h8v8h-8v-8zm12 0h8v8h-8v-8zm12 0h8v8h-8v-8zm12 0h8v8h-8v-8zm12 0h8v8h-8v-8zm12 0h8v8h-8v-8zm12 0h8v8h-8v-8zm12 0h8v8h-8v-8zm12 0h8v8h-8v-8zm12 0h8v8h-8v-8zm12 0h8v8h-8v-8zm-360 12h8v8h-8v-8zm12 0h8v8h-8v-8zm12 0h8v8h-8v-8zm12 0h8v8h-8v-8zm12 0h8v8h-8v-8zm12 0h8v8h-8v-8zm12 0h8v8h-8v-8zm12 0h8v8h-8v-8zm12 0h8v8h-8v-8zm12 0h8v8h-8v-8zm12 0h8v8h-8v-8zm12 0h8v8h-8v-8zm12 0h8v8h-8v-8zm12 0h8v8h-8v-8zm12 0h8v8h-8v-8zm12 0h8v8h-8v-8zm12 0h8v8h-8v-8zm12 0h8v8h-8v-8zm12 0h8v8h-8v-8zm12 0h8v8h-8v-8zm12 0h8v8h-8v-8zm12 0h8v8h-8v-8zm12 0h8v8h-8v-8zm12 0h8v8h-8v-8zm12 0h8v8h-8v-8zm12 0h8v8h-8v-8zm12 0h8v8h-8v-8zm12 0h8v8h-8v-8zm12 0h8v8h-8v-8zm12 0h8v8h-8v-8zm12 0h8v8h-8v-8zm-360 12h8v8h-8v-8zm12 0h8v8h-8v-8zm12 0h8v8h-8v-8zm12 0h8v8h-8v-8zm12 0h8v8h-8v-8zm12 0h8v8h-8v-8zm12 0h8v8h-8v-8zm12 0h8v8h-8v-8zm12 0h8v8h-8v-8zm12 0h8v8h-8v-8zm12 0h8v8h-8v-8zm12 0h8v8h-8v-8zm12 0h8v8h-8v-8zm12 0h8v8h-8v-8zm12 0h8v8h-8v-8zm12 0h8v8h-8v-8zm12 0h8v8h-8v-8zm12 0h8v8h-8v-8zm12 0h8v8h-8v-8zm12 0h8v8h-8v-8zm12 0h8v8h-8v-8zm12 0h8v8h-8v-8zm12 0h8v8h-8v-8zm12 0h8v8h-8v-8zm12 0h8v8h-8v-8zm12 0h8v8h-8v-8zm12 0h8v8h-8v-8zm12 0h8v8h-8v-8zm12 0h8v8h-8v-8zm12 0h8v8h-8v-8zm12 0h8v8h-8v-8zm-360 12h8v8h-8v-8zm12 0h8v8h-8v-8zm12 0h8v8h-8v-8zm12 0h8v8h-8v-8zm12 0h8v8h-8v-8zm12 0h8v8h-8v-8zm12 0h8v8h-8v-8zm12 0h8v8h-8v-8zm12 0h8v8h-8v-8zm12 0h8v8h-8v-8zm12 0h8v8h-8v-8zm12 0h8v8h-8v-8zm12 0h8v8h-8v-8zm12 0h8v8h-8v-8zm12 0h8v8h-8v-8zm12 0h8v8h-8v-8zm12 0h8v8h-8v-8zm12 0h8v8h-8v-8zm12 0h8v8h-8v-8zm12 0h8v8h-8v-8zm12 0h8v8h-8v-8zm12 0h8v8h-8v-8zm12 0h8v8h-8v-8zm12 0h8v8h-8v-8zm12 0h8v8h-8v-8zm12 0h8v8h-8v-8zm12 0h8v8h-8v-8zm12 0h8v8h-8v-8zm12 0h8v8h-8v-8zm12 0h8v8h-8v-8zm12 0h8v8h-8v-8zm-360 12h8v8h-8v-8zm12 0h8v8h-8v-8zm12 0h8v8h-8v-8zm12 0h8v8h-8v-8zm12 0h8v8h-8v-8zm12 0h8v8h-8v-8zm12 0h8v8h-8v-8zm12 0h8v8h-8v-8zm12 0h8v8h-8v-8zm12 0h8v8h-8v-8zm12 0h8v8h-8v-8zm12 0h8v8h-8v-8zm12 0h8v8h-8v-8zm12 0h8v8h-8v-8zm12 0h8v8h-8v-8zm12 0h8v8h-8v-8zm12 0h8v8h-8v-8zm12 0h8v8h-8v-8zm12 0h8v8h-8v-8zm12 0h8v8h-8v-8zm12 0h8v8h-8v-8zm12 0h8v8h-8v-8zm12 0h8v8h-8v-8zm12 0h8v8h-8v-8zm12 0h8v8h-8v-8zm12 0h8v8h-8v-8zm12 0h8v8h-8v-8zm12 0h8v8h-8v-8zm12 0h8v8h-8v-8zm12 0h8v8h-8v-8zm12 0h8v8h-8v-8zm-360 12h8v8h-8v-8zm12 0h8v8h-8v-8zm12 0h8v8h-8v-8zm12 0h8v8h-8v-8zm12 0h8v8h-8v-8zm12 0h8v8h-8v-8zm12 0h8v8h-8v-8zm12 0h8v8h-8v-8zm12 0h8v8h-8v-8zm12 0h8v8h-8v-8zm12 0h8v8h-8v-8zm12 0h8v8h-8v-8zm12 0h8v8h-8v-8zm12 0h8v8h-8v-8zm12 0h8v8h-8v-8zm12 0h8v8h-8v-8zm12 0h8v8h-8v-8zm12 0h8v8h-8v-8zm12 0h8v8h-8v-8zm12 0h8v8h-8v-8zm12 0h8v8h-8v-8zm12 0h8v8h-8v-8zm12 0h8v8h-8v-8zm12 0h8v8h-8v-8zm12 0h8v8h-8v-8zm12 0h8v8h-8v-8zm12 0h8v8h-8v-8zm12 0h8v8h-8v-8zm12 0h8v8h-8v-8zm12 0h8v8h-8v-8zm12 0h8v8h-8v-8zm-360 12h8v8h-8v-8zm12 0h8v8h-8v-8zm12 0h8v8h-8v-8zm12 0h8v8h-8v-8zm12 0h8v8h-8v-8zm12 0h8v8h-8v-8zm12 0h8v8h-8v-8zm12 0h8v8h-8v-8zm12 0h8v8h-8v-8zm12 0h8v8h-8v-8zm12 0h8v8h-8v-8zm12 0h8v8h-8v-8zm12 0h8v8h-8v-8zm12 0h8v8h-8v-8zm12 0h8v8h-8v-8zm12 0h8v8h-8v-8zm12 0h8v8h-8v-8zm12 0h8v8h-8v-8zm12 0h8v8h-8v-8zm12 0h8v8h-8v-8zm12 0h8v8h-8v-8zm12 0h8v8h-8v-8zm12 0h8v8h-8v-8zm12 0h8v8h-8v-8zm12 0h8v8h-8v-8zm12 0h8v8h-8v-8zm12 0h8v8h-8v-8zm12 0h8v8h-8v-8zm12 0h8v8h-8v-8zm12 0h8v8h-8v-8zm12 0h8v8h-8v-8zm-360 12h8v8h-8v-8zm12 0h8v8h-8v-8zm12 0h8v8h-8v-8zm12 0h8v8h-8v-8zm12 0h8v8h-8v-8zm12 0h8v8h-8v-8zm12 0h8v8h-8v-8zm12 0h8v8h-8v-8zm12 0h8v8h-8v-8zm12 0h8v8h-8v-8zm12 0h8v8h-8v-8zm12 0h8v8h-8v-8zm12 0h8v8h-8v-8zm12 0h8v8h-8v-8zm12 0h8v8h-8v-8zm12 0h8v8h-8v-8zm12 0h8v8h-8v-8zm12 0h8v8h-8v-8zm12 0h8v8h-8v-8zm12 0h8v8h-8v-8zm12 0h8v8h-8v-8zm12 0h8v8h-8v-8zm12 0h8v8h-8v-8zm12 0h8v8h-8v-8zm12 0h8v8h-8v-8zm12 0h8v8h-8v-8zm12 0h8v8h-8v-8zm12 0h8v8h-8v-8zm12 0h8v8h-8v-8zm12 0h8v8h-8v-8zm12 0h8v8h-8v-8zm-360 12h8v8h-8v-8zm12 0h8v8h-8v-8zm12 0h8v8h-8v-8zm12 0h8v8h-8v-8zm12 0h8v8h-8v-8zm12 0h8v8h-8v-8zm12 0h8v8h-8v-8zm12 0h8v8h-8v-8zm12 0h8v8h-8v-8zm12 0h8v8h-8v-8zm12 0h8v8h-8v-8zm12 0h8v8h-8v-8zm12 0h8v8h-8v-8zm12 0h8v8h-8v-8zm12 0h8v8h-8v-8zm12 0h8v8h-8v-8zm12 0h8v8h-8v-8zm12 0h8v8h-8v-8zm12 0h8v8h-8v-8zm12 0h8v8h-8v-8zm12 0h8v8h-8v-8zm12 0h8v8h-8v-8zm12 0h8v8h-8v-8zm12 0h8v8h-8v-8zm12 0h8v8h-8v-8zm12 0h8v8h-8v-8zm12 0h8v8h-8v-8zm12 0h8v8h-8v-8zm12 0h8v8h-8v-8zm12 0h8v8h-8v-8zm12 0h8v8h-8v-8zm-360 12h8v8h-8v-8zm12 0h8v8h-8v-8zm12 0h8v8h-8v-8zm12 0h8v8h-8v-8zm12 0h8v8h-8v-8zm12 0h8v8h-8v-8zm12 0h8v8h-8v-8zm12 0h8v8h-8v-8zm12 0h8v8h-8v-8zm12 0h8v8h-8v-8zm12 0h8v8h-8v-8zm12 0h8v8h-8v-8zm12 0h8v8h-8v-8zm12 0h8v8h-8v-8zm12 0h8v8h-8v-8zm12 0h8v8h-8v-8zm12 0h8v8h-8v-8zm12 0h8v8h-8v-8zm12 0h8v8h-8v-8zm12 0h8v8h-8v-8zm12 0h8v8h-8v-8zm12 0h8v8h-8v-8zm12 0h8v8h-8v-8zm12 0h8v8h-8v-8zm12 0h8v8h-8v-8zm12 0h8v8h-8v-8zm12 0h8v8h-8v-8zm12 0h8v8h-8v-8zm12 0h8v8h-8v-8zm12 0h8v8h-8v-8zm12 0h8v8h-8v-8zm-360 12h8v8h-8v-8zm12 0h8v8h-8v-8zm12 0h8v8h-8v-8zm12 0h8v8h-8v-8zm12 0h8v8h-8v-8zm12 0h8v8h-8v-8zm12 0h8v8h-8v-8zm12 0h8v8h-8v-8zm12 0h8v8h-8v-8zm12 0h8v8h-8v-8zm12 0h8v8h-8v-8zm12 0h8v8h-8v-8zm12 0h8v8h-8v-8zm12 0h8v8h-8v-8zm12 0h8v8h-8v-8zm12 0h8v8h-8v-8zm12 0h8v8h-8v-8zm12 0h8v8h-8v-8zm12 0h8v8h-8v-8zm12 0h8v8h-8v-8zm12 0h8v8h-8v-8zm12 0h8v8h-8v-8zm12 0h8v8h-8v-8zm12 0h8v8h-8v-8zm12 0h8v8h-8v-8zm12 0h8v8h-8v-8zm12 0h8v8h-8v-8zm12 0h8v8h-8v-8zm12 0h8v8h-8v-8zm12 0h8v8h-8v-8zm12 0h8v8h-8v-8zm-360 12h8v8h-8v-8zm12 0h8v8h-8v-8zm12 0h8v8h-8v-8zm12 0h8v8h-8v-8zm12 0h8v8h-8v-8zm12 0h8v8h-8v-8zm12 0h8v8h-8v-8zm12 0h8v8h-8v-8zm12 0h8v8h-8v-8zm12 0h8v8h-8v-8zm12 0h8v8h-8v-8zm12 0h8v8h-8v-8zm12 0h8v8h-8v-8zm12 0h8v8h-8v-8zm12 0h8v8h-8v-8zm12 0h8v8h-8v-8zm12 0h8v8h-8v-8zm12 0h8v8h-8v-8zm12 0h8v8h-8v-8zm12 0h8v8h-8v-8zm12 0h8v8h-8v-8zm12 0h8v8h-8v-8zm12 0h8v8h-8v-8zm12 0h8v8h-8v-8zm12 0h8v8h-8v-8zm12 0h8v8h-8v-8zm12 0h8v8h-8v-8zm12 0h8v8h-8v-8zm12 0h8v8h-8v-8zm12 0h8v8h-8v-8zm12 0h8v8h-8v-8zm-360 12h8v8h-8v-8zm12 0h8v8h-8v-8zm12 0h8v8h-8v-8zm12 0h8v8h-8v-8zm12 0h8v8h-8v-8zm12 0h8v8h-8v-8zm12 0h8v8h-8v-8zm12 0h8v8h-8v-8zm12 0h8v8h-8v-8zm12 0h8v8h-8v-8zm12 0h8v8h-8v-8zm12 0h8v8h-8v-8zm12 0h8v8h-8v-8zm12 0h8v8h-8v-8zm12 0h8v8h-8v-8zm12 0h8v8h-8v-8zm12 0h8v8h-8v-8zm12 0h8v8h-8v-8zm12 0h8v8h-8v-8zm12 0h8v8h-8v-8zm12 0h8v8h-8v-8zm12 0h8v8h-8v-8zm12 0h8v8h-8v-8zm12 0h8v8h-8v-8zm12 0h8v8h-8v-8zm12 0h8v8h-8v-8zm12 0h8v8h-8v-8zm12 0h8v8h-8v-8zm12 0h8v8h-8v-8zm12 0h8v8h-8v-8zm12 0h8v8h-8v-8zm-360 12h8v8h-8v-8zm12 0h8v8h-8v-8zm12 0h8v8h-8v-8zm12 0h8v8h-8v-8zm12 0h8v8h-8v-8zm12 0h8v8h-8v-8zm12 0h8v8h-8v-8zm12 0h8v8h-8v-8zm12 0h8v8h-8v-8zm12 0h8v8h-8v-8zm12 0h8v8h-8v-8zm12 0h8v8h-8v-8zm12 0h8v8h-8v-8zm12 0h8v8h-8v-8zm12 0h8v8h-8v-8zm12 0h8v8h-8v-8zm12 0h8v8h-8v-8zm12 0h8v8h-8v-8zm12 0h8v8h-8v-8zm12 0h8v8h-8v-8zm12 0h8v8h-8v-8zm12 0h8v8h-8v-8zm12 0h8v8h-8v-8zm12 0h8v8h-8v-8zm12 0h8v8h-8v-8zm12 0h8v8h-8v-8zm12 0h8v8h-8v-8zm12 0h8v8h-8v-8zm12 0h8v8h-8v-8zm12 0h8v8h-8v-8zm12 0h8v8h-8v-8zm-360 12h8v8h-8v-8zm12 0h8v8h-8v-8zm12 0h8v8h-8v-8zm12 0h8v8h-8v-8zm12 0h8v8h-8v-8zm12 0h8v8h-8v-8zm12 0h8v8h-8v-8zm12 0h8v8h-8v-8zm12 0h8v8h-8v-8zm12 0h8v8h-8v-8zm12 0h8v8h-8v-8zm12 0h8v8h-8v-8zm12 0h8v8h-8v-8zm12 0h8v8h-8v-8zm12 0h8v8h-8v-8zm12 0h8v8h-8v-8zm12 0h8v8h-8v-8zm12 0h8v8h-8v-8zm12 0h8v8h-8v-8zm12 0h8v8h-8v-8zm12 0h8v8h-8v-8zm12 0h8v8h-8v-8zm12 0h8v8h-8v-8zm12 0h8v8h-8v-8zm12 0h8v8h-8v-8zm12 0h8v8h-8v-8zm12 0h8v8h-8v-8zm12 0h8v8h-8v-8zm12 0h8v8h-8v-8zm12 0h8v8h-8v-8zm12 0h8v8h-8v-8z"/><text transform="translate(114.428 402.805)" class="st3 st4">31</text><text transform="translate(114.428 414.305)" class="st3 st4">32</text><text transform="translate(114.428 426.504)" class="st3 st4">33</text><text transform="translate(114.428 438.404)" class="st3 st4">34</text><text transform="translate(114.428 450.606)" class="st3 st4">35</text><text transform="translate(114.428 462.505)" class="st3 st4">36</text><text transform="translate(114.428 474.505)" class="st3 st4">37</text><text transform="translate(114.428 486.705)" class="st3 st4">38</text><text transform="translate(114.428 498.606)" class="st3 st4">39</text><text transform="translate(114.428 510.705)" class="st3 st4">40</text><text transform="translate(114.428 522.905)" class="st3 st4">41</text><text transform="translate(114.428 535.006)" class="st3 st4">42</text><text transform="translate(114.428 546.905)" class="st3 st4">43</text><text transform="translate(114.428 558.905)" class="st3 st4">44</text><text transform="translate(114.428 571.106)" class="st3 st4">45</text><text transform="translate(114.428 582.905)" class="st3 st4">46</text><text transform="translate(114.428 594.606)" class="st3 st4">47</text><text transform="translate(114.428 607.006)" class="st3 st4">48</text><path class="st12" d="M247.7 646.6h181.4"/><path d="M250.3 644.8v3.7l-6.7-1.8 6.7-1.9zm177.2 0v3.7l6.6-1.8-6.6-1.9z"/><path class="st13" d="M36.1 101.1h-3.7l1.8-6.7 1.9 6.7zm.1 57.7h-3.7l1.8 6.6 1.9-6.6z"/><path class="st14" d="M34.2 26.5v63"/><path class="st13" d="M36 28.6h-3.7l1.8-6.7 1.9 6.7zm0 58.2h-3.7l1.8 6.6 1.9-6.6z"/><path class="st12" d="M127.1 646.6h111.4"/><path d="M129.7 644.8v3.7l-6.7-1.8 6.7-1.9zm105.9 0v3.7l6.6-1.8-6.6-1.9z"/><path class="st14" d="M34.3 101v59.6"/><path class="st15" d="M66.1 270h-3.7l1.8-6.6 1.9 6.6zm0-15.3h-3.7l1.8 6.5 1.9-6.5z"/><path class="st16" d="M64.3 25.1v232.6"/><path class="st15" d="M66.1 28h-3.7l1.8-6.6 1.9 6.6zm.1 346.5h-3.7l1.8 6.5 1.9-6.5z"/><path class="st16" d="M64.3 173v203.1"/><path class="st17" d="M95.8 485.1h-3.7l1.8-6.7 1.9 6.7zm0 82h-3.7l1.8 6.6 1.9-6.6z"/><path class="st18" d="M94 25.6V472"/><path class="st17" d="M95.8 28.4h-3.7l1.8-6.7 1.9 6.7z"/><path class="st18" d="M94 481.6v87.3"/><path class="st17" d="M95.8 470.8h-3.6l1.8 6.6 1.8-6.6z"/><path class="st19" d="M17.6 114h33.8v22.2H17.6V114zm0-65.3h33.8v22.2H17.6V48.7zm290.5 261.7h58v21.3h-58v-21.3z"/><text transform="translate(315.734 325.143)" class="st3 st20">Zone 2</text><path class="st19" d="M308.1 515.2h58v21.3h-58v-21.3z"/><text transform="translate(315.734 529.935)" class="st3 st20">Zone 3</text><path class="st19" d="M308.1 115.1h58v21.3h-58v-21.3z"/><text transform="translate(315.687 129.837)" class="st3 st20">Zone 1</text><text transform="translate(20.754 57.67)" class="st3 st21">Zone 1</text><text transform="translate(18.354 68.47)" class="st3 st21">Offset Y</text><text transform="translate(20.754 122.976)" class="st3 st21">Zone 1</text><text transform="translate(21.354 133.776)" class="st3 st21">Height</text><path class="st19" d="M77 415.5h33.8v22.2H77v-22.2z"/><text transform="translate(80.187 424.475)" class="st3 st21">Zone 3</text><text transform="translate(77.787 435.275)" class="st3 st21">Offset Y</text><path class="st19" d="M76.7 514.8h33.8V537H76.7v-22.2z"/><text transform="translate(79.9 522.45)" class="st3 st21">Zone 3</text><text transform="translate(80.5 533.25)" class="st3 st21">Height</text><path class="st19" d="M47.5 197.7h33.8v22.2H47.5v-22.2z"/><text transform="translate(50.66 206.67)" class="st3 st21">Zone 2</text><text transform="translate(48.26 217.47)" class="st3 st21">Offset Y</text><path class="st19" d="M47.5 310h33.8v22.2H47.5V310z"/><text transform="translate(50.66 318.29)" class="st3 st21">Zone 2</text><text transform="translate(51.26 329.09)" class="st3 st21">Height</text><text transform="translate(167 643.67)" class="st3 st21">Offset X</text><text transform="translate(324.257 643.67)" class="st3 st21">Width</text></svg>