<svg version="1.0" xmlns="http://www.w3.org/2000/svg" viewBox="0 0 480 290"><path d="M58 28.1h393.5v.9H58z"/><path d="M451.1 28.5h.9v212.8h-.9z"/><path d="M451.5 28.1h.5v.4h-.9l.4.5v-.9zM58 240.9h393.5v.9H58z"/><path d="M452 241.3v.5h-.5v-.9l-.4.4h.9zM57.6 28.5h.9v212.8h-.9z"/><path d="M58 241.8h-.4v-.5h.9l-.5-.4v.9zm-.4-213.3v-.4h.4v.9l.5-.5h-.9z"/><path fill="none" stroke="#000" stroke-width=".252" stroke-linecap="square" stroke-miterlimit="10" d="M107 28.7v212.9m49.2-213.1v213.1m48.9-213v213m49.7-213.1v213.1m49.4-213v213m49.1-212.7v212.7m48.9-213v213M58.1 89.9h393.6M58 119.7h393.6M57.9 150h393.6M58 180.1h393.6M58 211.1h393.6M58.1 58.9h393.6"/><path fill="none" stroke="#1D1D1B" stroke-miterlimit="10" d="M77.3 91l4.9-13.5 9.5-14.6 5.7-8.9 12.2-11.9 8.2-8 14-5.1h16.7l8.2 4.8 5.5 3.3 7.4 3 7.7 5.3 9.2 6.4 8.6 11.6 7.1 9.4 7.7 4.7 9.2 8 5.7 9.7 7.6 10.7 7.9 6.6 6.3 9.1 8.2 13.4 8.5 11.1 8.8 10 11.1 9.4 8.1 7.6 8.3 8.5 9.6 11.8 9.9 8.1 8.2 5.9 8.3 7.5 10.1 6.1 10.6 5.6 8.8 3.5 10.4 3.6 12.8 3.3 12.2 2.1 9.7 1 16.7 1.2"/><g font-family="Helvetica,Arial,sans-serif"><g font-size="8.068"><text transform="matrix(.9963 0 0 1 50.337 255.946)">3</text><text transform="matrix(.9963 0 0 1 55.61 255.946)">5</text><text transform="matrix(.9963 0 0 1 60.892 255.946)">0</text><text transform="matrix(.9963 0 0 1 99.196 255.946)">4</text><text transform="matrix(.9963 0 0 1 104.47 255.946)">5</text><text transform="matrix(.9963 0 0 1 109.743 255.946)">0</text><text transform="matrix(.9963 0 0 1 148.548 255.946)">5</text><text transform="matrix(.9963 0 0 1 153.821 255.946)">5</text><text transform="matrix(.9963 0 0 1 159.102 255.946)">0</text><text transform="matrix(.9963 0 0 1 196.65 255.946)">6</text><text transform="matrix(.9963 0 0 1 201.798 255.946)">5</text><text transform="matrix(.9963 0 0 1 207.071 255.946)">0</text><text transform="matrix(.9963 0 0 1 247.142 255.946)">7</text><text transform="matrix(.9963 0 0 1 252.415 255.946)">5</text><text transform="matrix(.9963 0 0 1 257.688 255.946)">0</text><text transform="matrix(.9963 0 0 1 296.626 255.946)">8</text><text transform="matrix(.9963 0 0 1 301.774 255.946)">5</text><text transform="matrix(.9963 0 0 1 307.048 255.946)">0</text><text transform="matrix(.9963 0 0 1 345.735 255.946)">9</text><text transform="matrix(.9963 0 0 1 351.009 255.946)">5</text><text transform="matrix(.9963 0 0 1 356.282 255.946)">0</text><text transform="matrix(.9963 0 0 1 391.696 255.946)">1</text><text transform="matrix(.9963 0 0 1 396.97 255.946)">0</text><text transform="matrix(.9963 0 0 1 402.243 255.946)">5</text><text transform="matrix(.9963 0 0 1 407.524 255.946)">0</text><text transform="matrix(.9963 0 0 1 441.93 255.946)">1</text><text transform="matrix(.9963 0 0 1 446.712 255.946)">1</text><text transform="matrix(.9963 0 0 1 451.985 255.946)">5</text><text transform="matrix(.9963 0 0 1 457.259 255.946)">0</text></g><g font-size="8.068"><text transform="matrix(.9963 0 0 1 47.696 243.477)">0</text><text transform="matrix(.9963 0 0 1 42.423 212.97)">1</text><text transform="matrix(.9963 0 0 1 47.696 212.97)">0</text><text transform="matrix(.9963 0 0 1 42.423 182.337)">2</text><text transform="matrix(.9963 0 0 1 47.696 182.337)">0</text><text transform="matrix(.9963 0 0 1 42.423 152.962)">3</text><text transform="matrix(.9963 0 0 1 47.696 152.962)">0</text><text transform="matrix(.9963 0 0 1 42.423 122.212)">4</text><text transform="matrix(.9963 0 0 1 47.696 122.212)">0</text><text transform="matrix(.9963 0 0 1 42.423 91.954)">5</text><text transform="matrix(.9963 0 0 1 47.696 91.954)">0</text><text transform="matrix(.9963 0 0 1 42.423 60.813)">6</text><text transform="matrix(.9963 0 0 1 47.696 60.813)">0</text><text transform="matrix(.9963 0 0 1 42.423 31.696)">7</text><text transform="matrix(.9963 0 0 1 47.696 31.696)">0</text></g><text transform="translate(227.69 276.618)" font-size="12">Wavelength (nm)</text><text transform="rotate(-90 111.63 83.707)" fill="#1D1D1B" font-size="12">Quantum Efficiency (%)</text></g></svg>