<svg version="1.0" xmlns="http://www.w3.org/2000/svg" xmlns:xlink="http://www.w3.org/1999/xlink" viewBox="0 0 400 351.5"><g clip-rule="evenodd"><path fill-rule="evenodd" fill="#F6F6F6" d="M258.1 43.8l32.6 56.7 32.6 56.7-32.8 56.6-32.8 56.6-65.4-.2-65.4-.1-32.6-56.7-32.6-56.7 32.8-56.6 32.8-56.6 65.4.2z"/><path fill="none" stroke="#1D1D1B" stroke-miterlimit="3.864" d="M258.1 43.8l32.6 56.7 32.6 56.7-32.8 56.6-32.8 56.6-65.4-.2-65.4-.1-32.6-56.7-32.6-56.7 32.8-56.6 32.8-56.6 65.4.2z"/></g><path clip-rule="evenodd" fill="none" stroke="#9D9D9C" stroke-width=".425" stroke-miterlimit="3.864" stroke-dasharray="12,2,2,2" d="M61.9 156.5l261.6.6M129 43.6l129 227.3m.3-227.2L127 270"/><path fill="#DADADA" d="M183.3 154.1c1.4-5.1 6.7-8.2 11.8-6.8 5.1 1.4 8.2 6.7 6.8 11.8-1.4 5.1-6.7 8.2-11.8 6.8-5.1-1.3-8.2-6.6-6.8-11.8z"/><path fill="none" stroke="#C6C6C6" stroke-width="1.5" stroke-miterlimit="3.864" d="M183.3 154.1c1.4-5.1 6.7-8.2 11.8-6.8 5.1 1.4 8.2 6.7 6.8 11.8-1.4 5.1-6.7 8.2-11.8 6.8-5.1-1.3-8.2-6.6-6.8-11.8z"/><path fill="#80CACC" d="M118.9 41.1c1.4-5.1 6.7-8.2 11.8-6.8 5.1 1.4 8.2 6.7 6.8 11.8-1.4 5.1-6.7 8.2-11.8 6.8-5.2-1.3-8.2-6.6-6.8-11.8z"/><path fill="none" stroke="#C6C6C6" stroke-width="1.5" stroke-miterlimit="3.864" d="M118.9 41.1c1.4-5.1 6.7-8.2 11.8-6.8 5.1 1.4 8.2 6.7 6.8 11.8-1.4 5.1-6.7 8.2-11.8 6.8-5.2-1.3-8.2-6.6-6.8-11.8z"/><path fill="#DC80B3" d="M314 154.9c1.4-5.1 6.7-8.2 11.8-6.8 5.1 1.4 8.2 6.7 6.8 11.8-1.4 5.1-6.7 8.2-11.8 6.8-5.2-1.4-8.2-6.7-6.8-11.8z"/><path fill="none" stroke="#C6C6C6" stroke-width="1.5" stroke-miterlimit="3.864" d="M314 154.9c1.4-5.1 6.7-8.2 11.8-6.8 5.1 1.4 8.2 6.7 6.8 11.8-1.4 5.1-6.7 8.2-11.8 6.8-5.2-1.4-8.2-6.7-6.8-11.8z"/><path fill="#FEEB56" d="M118.2 267.5c1.4-5.1 6.7-8.2 11.8-6.8 5.1 1.4 8.2 6.7 6.8 11.8-1.4 5.1-6.7 8.2-11.8 6.8-5.2-1.3-8.2-6.6-6.8-11.8z"/><path fill="none" stroke="#C6C6C6" stroke-width="1.5" stroke-miterlimit="3.864" d="M118.2 267.5c1.4-5.1 6.7-8.2 11.8-6.8 5.1 1.4 8.2 6.7 6.8 11.8-1.4 5.1-6.7 8.2-11.8 6.8-5.2-1.3-8.2-6.6-6.8-11.8z"/><path fill="#304596" d="M248.8 41.4c1.4-5.1 6.7-8.2 11.8-6.8 5.1 1.4 8.2 6.7 6.8 11.8-1.4 5.1-6.7 8.2-11.8 6.8-5.1-1.4-8.2-6.7-6.8-11.8z"/><path fill="none" stroke="#1D1D1B" stroke-width="2.3" stroke-miterlimit="3.864" d="M248.8 41.4c1.4-5.1 6.7-8.2 11.8-6.8 5.1 1.4 8.2 6.7 6.8 11.8-1.4 5.1-6.7 8.2-11.8 6.8-5.1-1.4-8.2-6.7-6.8-11.8z"/><path fill="#57B146" d="M52.9 154.2c1.4-5.1 6.7-8.2 11.8-6.8 5.1 1.4 8.2 6.7 6.8 11.8-1.4 5.1-6.7 8.2-11.8 6.8-5.1-1.3-8.2-6.7-6.8-11.8z"/><path fill="none" stroke="#1D1D1B" stroke-width="2.3" stroke-miterlimit="3.864" d="M52.9 154.2c1.4-5.1 6.7-8.2 11.8-6.8 5.1 1.4 8.2 6.7 6.8 11.8-1.4 5.1-6.7 8.2-11.8 6.8-5.1-1.3-8.2-6.7-6.8-11.8z"/><defs><path id="a" d="M256.5 268.5c-28.6 16.2-63.5 21.6-97.7 12.1-3.3-.9-6.5-2-9.6-3.1l1.5-3.1h-14.5l9.3 10.6 1.8-3.4c3.3 1.2 6.7 2.3 10.1 3.2 35.5 9.8 71.6 4.3 101.2-12.5l-2.1-3.8z"/></defs><clipPath id="b"><use xlink:href="#a" overflow="visible"/></clipPath><g clip-path="url(#b)"><defs><path id="c" d="M165.2 291.7l-28.2 1.5-1-19 28.2-1.4 1 18.9z"/></defs><clipPath id="d"><use xlink:href="#c" overflow="visible"/></clipPath><g clip-path="url(#d)" fill="#FFE548"><path d="M165.2 291.7l-14.1.8-1-19 14.1-.7 1 18.9z"/><path d="M151.1 292.5l-14.1.7-1-19 14.1-.7 1 19z"/></g><defs><path id="e" d="M259.8 286.7l-95.1 5-1-18.9 95.1-5 1 18.9z"/></defs><clipPath id="f"><use xlink:href="#e" overflow="visible"/></clipPath><g clip-path="url(#f)"><path fill="#E73C2F" d="M259.8 286.8l-3.3.1-1-18.9 3.3-.2 1 19z"/><path fill="#E84530" d="M256.5 286.9l-3.2.2-1-18.9 3.2-.2 1 18.9z"/><path fill="#E94D31" d="M253.3 287.1l-3.3.2-1-19 3.3-.1 1 18.9z"/><path fill="#EA5432" d="M250 287.3l-3.3.1-1-18.9 3.3-.2 1 19z"/><path fill="#EA5C33" d="M246.7 287.4l-3.3.2-1-18.9 3.3-.2 1 18.9z"/><path fill="#EB6335" d="M243.4 287.6l-3.3.2-.9-19 3.2-.1 1 18.9z"/><path fill="#EC6936" d="M240.1 287.8l-3.2.2-1-19 3.3-.2.9 19z"/><path fill="#ED7037" d="M236.9 288l-3.3.1-1-18.9 3.3-.2 1 19z"/><path fill="#ED7738" d="M233.6 288.1l-3.3.2-1-18.9 3.3-.2 1 18.9z"/><path fill="#EE7D39" d="M230.3 288.3l-3.3.2-1-19 3.3-.1 1 18.9z"/><path fill="#EF833A" d="M227 288.5l-3.3.1-.9-18.9 3.2-.2 1 19z"/><path fill="#F0893B" d="M223.7 288.6l-3.2.2-1-18.9 3.3-.2.9 18.9z"/><path fill="#F1903C" d="M220.5 288.8l-3.3.2-1-19 3.3-.1 1 18.9z"/><path fill="#F2963D" d="M217.2 289l-3.3.2-1-19 3.3-.2 1 19z"/><path fill="#F39C3E" d="M213.9 289.2l-3.3.1-1-18.9 3.3-.2 1 19z"/><path fill="#F4A23F" d="M210.6 289.3l-3.2.2-1-18.9 3.2-.2 1 18.9z"/><path fill="#F5A840" d="M207.4 289.5l-3.3.2-1-19 3.3-.1 1 18.9z"/><path fill="#F6AD41" d="M204.1 289.7l-3.3.1-1-18.9 3.3-.2 1 19z"/><path fill="#F7B342" d="M200.8 289.8l-3.3.2-1-18.9 3.3-.2 1 18.9z"/><path fill="#F7B842" d="M197.5 290l-3.3.2-1-19 3.3-.1 1 18.9z"/><path fill="#F8BE43" d="M194.2 290.2l-3.2.2-1-19 3.2-.2 1 19z"/><path fill="#F9C344" d="M191 290.4l-3.3.1-1-18.9 3.3-.2 1 19z"/><path fill="#FAC845" d="M187.7 290.5l-3.3.2-1-18.9 3.3-.2 1 18.9z"/><path fill="#FBCD45" d="M184.4 290.7l-3.3.2-1-19 3.3-.1 1 18.9z"/><path fill="#FCD246" d="M181.1 290.9l-3.3.2-.9-19 3.2-.2 1 19z"/><path fill="#FDD746" d="M177.8 291.1l-3.2.1-1-18.9 3.3-.2.9 19z"/><path fill="#FDDB47" d="M174.6 291.2l-3.3.2-1-19 3.3-.1 1 18.9z"/><path fill="#FEE047" d="M171.3 291.4l-3.3.2-1-19 3.3-.2 1 19z"/><path fill="#FFE548" d="M168 291.6l-3.3.1-1-18.9 3.3-.2 1 19z"/></g></g><use xlink:href="#a" overflow="visible" fill="none" stroke="#1D1D1B" stroke-width=".425" stroke-miterlimit="3.864"/><defs><path id="g" d="M258.7 272.4c29.5-16.8 52.7-45 62.4-80.3 1-3.7 1.9-7.4 2.6-11.1l3.8.3-4.3-13.5-7.4 12.4 3.5.4c-.7 3.4-1.4 6.9-2.4 10.3-9.4 34.2-31.8 61.3-60.3 77.6l2.1 3.9z"/></defs><clipPath id="h"><use xlink:href="#g" overflow="visible"/></clipPath><g clip-path="url(#h)"><defs><path id="i" d="M272.9 267.9l-8.5 9.8-21.2-18.4 8.5-9.8 21.2 18.4z"/></defs><clipPath id="j"><use xlink:href="#i" overflow="visible"/></clipPath><g clip-path="url(#j)" fill="#E73C2F"><path d="M272.9 267.9l-4.3 4.9-21.1-18.4 4.2-4.9 21.2 18.4z"/><path d="M268.6 272.8l-4.2 4.9-21.2-18.4 4.3-4.9 21.1 18.4z"/></g><defs><path id="k" d="M344.2 185.9l-71.6 82.3-21.2-18.4 71.6-82.3 21.2 18.4z"/></defs><clipPath id="l"><use xlink:href="#k" overflow="visible"/></clipPath><g clip-path="url(#l)"><path fill="#E6336F" d="M344.2 185.9l-3.6 4.1-21.1-18.4 3.5-4.1 21.2 18.4z"/><path fill="#E6336C" d="M340.6 190l-3.6 4.1-21.1-18.4 3.6-4.1 21.1 18.4z"/><path fill="#E6346A" d="M337 194.1l-3.5 4.1-21.2-18.4 3.6-4.1 21.1 18.4z"/><path fill="#E73567" d="M333.5 198.2l-3.6 4.1-21.2-18.4 3.6-4.1 21.2 18.4z"/><path fill="#E73664" d="M329.9 202.3l-3.6 4.2-21.2-18.4 3.6-4.2 21.2 18.4z"/><path fill="#E73661" d="M326.3 206.5l-3.6 4.1-21.2-18.4 3.6-4.1 21.2 18.4z"/><path fill="#E7375E" d="M322.7 210.6l-3.6 4.1-21.1-18.4 3.5-4.1 21.2 18.4z"/><path fill="#E7375B" d="M319.1 214.7l-3.6 4.1-21.1-18.4 3.6-4.1 21.1 18.4z"/><path fill="#E73858" d="M315.5 218.8l-3.5 4.1-21.2-18.4 3.6-4.1 21.1 18.4z"/><path fill="#E73854" d="M312 222.9l-3.6 4.2-21.2-18.4 3.6-4.2 21.2 18.4z"/><path fill="#E73951" d="M308.4 227.1l-3.6 4.1-21.2-18.4 3.6-4.1 21.2 18.4z"/><path fill="#E7394E" d="M304.8 231.2l-3.6 4.1-21.1-18.4 3.5-4.1 21.2 18.4z"/><path fill="#E73A4A" d="M301.2 235.3l-3.6 4.1-21.1-18.4 3.6-4.1 21.1 18.4z"/><path fill="#E73A46" d="M297.6 239.4l-3.5 4.1-21.2-18.4 3.6-4.1 21.1 18.4z"/><path fill="#E73B43" d="M294.1 243.5l-3.6 4.1-21.2-18.3 3.6-4.2 21.2 18.4z"/><path fill="#E73B3F" d="M290.5 247.6l-3.6 4.2-21.2-18.4 3.6-4.1 21.2 18.3z"/><path fill="#E73B3B" d="M286.9 251.8l-3.6 4.1-21.1-18.4 3.5-4.1 21.2 18.4z"/><path fill="#E73C37" d="M283.3 255.9l-3.6 4.1-21.1-18.4 3.6-4.1 21.1 18.4z"/><path fill="#E73C33" d="M279.7 260l-3.5 4.1-21.2-18.4 3.6-4.1 21.1 18.4z"/><path fill="#E73C2F" d="M276.2 264.1l-3.6 4.1-21.2-18.3 3.6-4.2 21.2 18.4z"/></g></g><use xlink:href="#g" overflow="visible" fill="none" stroke="#1D1D1B" stroke-width=".425" stroke-miterlimit="3.864"/><path fill="#E73C2F" d="M248.6 267.8c1.4-5.2 6.7-8.2 11.8-6.8 5.1 1.4 8.2 6.7 6.8 11.8-1.4 5.1-6.7 8.2-11.8 6.8-5.2-1.3-8.2-6.6-6.8-11.8z"/><path fill="none" stroke="#1D1D1B" stroke-width="2.3" stroke-miterlimit="3.864" d="M248.6 267.8c1.4-5.2 6.7-8.2 11.8-6.8 5.1 1.4 8.2 6.7 6.8 11.8-1.4 5.1-6.7 8.2-11.8 6.8-5.2-1.3-8.2-6.6-6.8-11.8z"/><defs><path id="m" d="M205.3 184.9l-4.3 2.6-2.2-21.7 17.4 13.2-4.5 2.5 32.9 58 4.3-2.6 3.1 22.8-18.2-14.1 4.4-2.6z"/></defs><clipPath id="n"><use xlink:href="#m" overflow="visible"/></clipPath><g clip-path="url(#n)"><defs><path id="o" d="M207.1 160.9l52.5 94.9-16.1 8.9-52.6-94.8 16.2-9z"/></defs><clipPath id="p"><use xlink:href="#o" overflow="visible"/></clipPath><g clip-path="url(#p)"><path fill="#C6C6C6" d="M207.1 160.9l1.7 3.2-16.1 8.9-1.8-3.1 16.2-9z"/><path fill="#C8C4C3" d="M208.8 164.1l1.8 3.2-16.2 8.9-1.7-3.2 16.1-8.9z"/><path fill="#C9C2BF" d="M210.6 167.3l1.7 3.1-16.1 9-1.8-3.2 16.2-8.9z"/><path fill="#CAC0BB" d="M212.3 170.4l1.8 3.2-16.2 8.9-1.7-3.1 16.1-9z"/><path fill="#CCBDB7" d="M214.1 173.6l1.7 3.1-16.1 9-1.8-3.2 16.2-8.9z"/><path fill="#CDBBB3" d="M215.8 176.7l1.8 3.2-16.2 8.9-1.7-3.1 16.1-9z"/><path fill="#CFB8AF" d="M217.6 179.9l1.7 3.2-16.1 8.9-1.8-3.2 16.2-8.9z"/><path fill="#D0B5AA" d="M219.3 183.1l1.8 3.1-16.2 9-1.7-3.2 16.1-8.9z"/><path fill="#D2B2A5" d="M221.1 186.2l1.7 3.2-16.1 8.9-1.8-3.1 16.2-9z"/><path fill="#D3AEA0" d="M222.8 189.4l1.8 3.1-16.2 9-1.7-3.2 16.1-8.9z"/><path fill="#D4AA9B" d="M224.6 192.5l1.7 3.2-16.1 9-1.8-3.2 16.2-9z"/><path fill="#D6A695" d="M226.3 195.7l1.8 3.2-16.2 8.9-1.7-3.1 16.1-9z"/><path fill="#D7A290" d="M228.1 198.9l1.7 3.1-16.1 9-1.8-3.2 16.2-8.9z"/><path fill="#D89E8A" d="M229.8 202l1.8 3.2-16.1 8.9-1.8-3.1 16.1-9z"/><path fill="#D99A85" d="M231.6 205.2l1.7 3.2-16.1 8.9-1.7-3.2 16.1-8.9z"/><path fill="#DA957F" d="M233.3 208.4l1.8 3.1-16.1 9-1.8-3.2 16.1-8.9z"/><path fill="#DB9079" d="M235.1 211.5l1.7 3.2-16.1 8.9-1.7-3.1 16.1-9z"/><path fill="#DC8B73" d="M236.8 214.7l1.8 3.1-16.1 9-1.8-3.2 16.1-8.9z"/><path fill="#DD866E" d="M238.6 217.8l1.8 3.2-16.2 8.9-1.7-3.1 16.1-9z"/><path fill="#DE8168" d="M240.4 221l1.7 3.2-16.1 8.9-1.8-3.2 16.2-8.9z"/><path fill="#DF7B62" d="M242.1 224.2l1.8 3.1-16.2 9-1.7-3.2 16.1-8.9z"/><path fill="#E0765C" d="M243.9 227.3l1.7 3.2-16.1 8.9-1.8-3.1 16.2-9z"/><path fill="#E17057" d="M245.6 230.5l1.8 3.2-16.2 8.9-1.7-3.2 16.1-8.9z"/><path fill="#E26951" d="M247.4 233.7l1.7 3.1-16.1 9-1.8-3.2 16.2-8.9z"/><path fill="#E3634B" d="M249.1 236.8l1.8 3.2-16.2 8.9-1.7-3.1 16.1-9z"/><path fill="#E45D46" d="M250.9 240l1.7 3.1-16.1 9-1.8-3.2 16.2-8.9z"/><path fill="#E55640" d="M252.6 243.1l1.8 3.2-16.2 8.9-1.7-3.1 16.1-9z"/><path fill="#E64E3B" d="M254.4 246.3l1.7 3.2-16.1 8.9-1.8-3.2 16.2-8.9z"/><path fill="#E74636" d="M256.1 249.5l1.8 3.1-16.2 9-1.7-3.2 16.1-8.9z"/><path fill="#E83E31" d="M257.9 252.6l1.7 3.2-16.1 8.9-1.8-3.1 16.2-9z"/></g></g><use xlink:href="#m" overflow="visible" fill-rule="evenodd" clip-rule="evenodd" fill="none" stroke="#1D1D1B" stroke-width=".425" stroke-miterlimit="3.864"/><text transform="translate(218.473 246.26)" font-family="Helvetica,Arial,sans-serif" font-size="12">+</text><path clip-rule="evenodd" fill="none" stroke="#000" stroke-miterlimit="10" d="M228.8 242.1c0 3.9-3.1 7-7 7s-7-3.1-7-7 3.1-7 7-7 7 3.2 7 7z"/><text transform="translate(320.133 224.223)" font-family="Helvetica,Arial,sans-serif" font-size="12">+</text><circle clip-rule="evenodd" fill="none" stroke="#000" stroke-miterlimit="10" cx="323.5" cy="220.1" r="7"/><text transform="translate(194.772 203.287)" font-family="Helvetica,Arial,sans-serif" font-weight="bold" font-size="10">–</text><circle clip-rule="evenodd" fill="none" stroke="#000" stroke-miterlimit="10" cx="198.1" cy="199.9" r="7"/><text transform="translate(347.18 223.534)" font-family="Helvetica,Arial,sans-serif" font-weight="bold" font-size="10">–</text><circle clip-rule="evenodd" fill="none" stroke="#000" stroke-miterlimit="10" cx="350.5" cy="220.1" r="7"/><path fill="none" stroke="#1D1D1B" stroke-miterlimit="10" d="M334.3 227.1l5.2-14"/><text transform="translate(357.461 220.111)" font-family="Helvetica,Arial,sans-serif" font-size="17">*</text><text transform="translate(166.153 308.902)" font-family="Helvetica,Arial,sans-serif" font-size="12">+</text><circle clip-rule="evenodd" fill="none" stroke="#000" stroke-miterlimit="10" cx="169.5" cy="304.8" r="7"/><text transform="translate(193.2 308.213)" font-family="Helvetica,Arial,sans-serif" font-weight="bold" font-size="10">–</text><circle clip-rule="evenodd" fill="none" stroke="#000" stroke-miterlimit="10" cx="196.5" cy="304.8" r="7"/><path fill="none" stroke="#1D1D1B" stroke-miterlimit="10" d="M180.4 311.8l5.1-14"/><text transform="translate(203.481 304.791)" font-family="Helvetica,Arial,sans-serif" font-size="17">*</text><text transform="translate(205.887 339.469)" font-family="Helvetica,Arial,sans-serif" font-size="13">* depending on parameter range</text><g font-size="12" font-family="Helvetica,Arial,sans-serif"><text transform="translate(267.666 294)">Red</text><text transform="translate(302 252.743)" font-weight="bold">Hue</text><text transform="translate(341.166 160.5)">Magenta</text><text transform="translate(256.378 26.5)">Blue</text><text transform="translate(103.166 26.5)">Cyan</text><text transform="translate(154.983 145)">Gray</text><text transform="translate(13.166 160.5)">Green</text><text transform="translate(85.166 294)">Yellow</text><text transform="translate(161.667 228.611)" font-weight="bold">Saturation</text></g></svg>