<svg version="1.0" xmlns="http://www.w3.org/2000/svg" viewBox="0 0 470 260"><path fill="#CCC" d="M164.6 71.2h43.7v121.9h-43.7V71.2z"/><path fill="none" stroke="#1D1D1B" stroke-width=".283" stroke-miterlimit="3.864" d="M164.6 71.2h43.7v121.9h-43.7V71.2z"/><path fill="#BFBFBF" d="M68.2 60h96.1v144H68.2V60z"/><path fill="none" stroke="#1D1D1B" stroke-width=".283" stroke-miterlimit="3.864" d="M68.2 60h96.1v144H68.2V60z"/><path clip-rule="evenodd" fill="none" stroke="#1D1D1B" stroke-width=".283" stroke-miterlimit="3.864" d="M165.3 65.1l46.7-1.2m-47.8 2.2l1.1-1m-1.1 5.9v-4.9m46.1 7h-44m45.4 2.5l-1.4-2.5m7.8 2.6l-6.4-.1m.3 124.5l-46.7-1.2m46.4-10.3l6.4-.2m-7.8 2.5l1.4-2.3m-45.4 2.3h44m-46.1 2.1l2.1-2.1m-2.1 7V193m1.1 5.9l-1.1-1m56.7-16.6l-.3.7m0 0l-.3.8m0 0l-.3.7m0 0l-.3.8m0 0l-.3.7m0 0l-.3.7m0 0l-.2.7m0 0l-.3.7m0 0l-.3.8m0 0l-.3.6m0 0l-.2.6m0 0l-.3.7m0 0l-.3.6m0 0l-.3.6m0 0l-.3.6m0 0l-.2.5m0 0l-.3.6m0 0l-.3.5m0 0l-.2.5m0 0l-.2.5m0 0l-.3.6m0 0l-.3.4m0 0l-.3.5m0 0l-.2.4m0 0l-.2.4m0 0l-.2.4m0 0l-.2.3m0 0l-.2.3m0 0l-.2.3m0 0l-.1.3m0 0l-.2.3m0 0l-.1.3m0 0l-.2.2m0 0l-.1.2m0 0l-.1.2m0 0l-.1.2m0 0l-.1.1m0 0v.1m0 0l-.2.2m0 0v.1m0 0h-.1m0 0v.1m9.9-21.6v.1m0 0h-.1m0 0v.1m0 0v.2m0 0l-.1.1m0 0l-.1.1m0 0v.1m0 0v.1m0 0v.2m0 0l-.1.1m0 0v.1m0 0l-.2.2m0 0v.1m0 0v.1m0 0v.2m0 0l-.2.1m0 0v.2m0 0l-.1.1m0 0l-.1.2m0 0v.1m0 0v.3m2.4-7.3l-.1.2m0 0l-.1.2m0 0v.2m0 0l-.1.2m0 0v.3m0 0l-.1.1m0 0l-.1.2m0 0v.3m0 0l-.1.2m0 0v.2m0 0l-.1.2m0 0l-.1.2m0 0l-.1.3m0 0v.1m0 0l-.1.2m0 0l-.1.2m0 0v.2m0 0l-.1.2m0 0v.1m0 0v.2m0 0l-.1.2m0 0l-.1.2m0 0v.1m1.4-88.5l.9 3.4m0 0l.8 3.3m0 0l.7 3.4m0 0l.7 3.4m0 0l.6 3.5m0 0l.5 3.4m0 0l.5 3.7m0 0l.4 3.5m0 0l.3 3.6m0 0l.2 3.5m0 0l.1 3.7m0 0v3.7m0 0v3.5m0 0l-.1 3.7m0 0l-.2 3.6m0 0l-.3 3.5m0 0l-.4 3.7m0 0l-.5 3.5m0 0l-.5 3.5m0 0l-.6 3.5m0 0l-.7 3.4m0 0l-.7 3.4m0 0l-.8 3.3m0 0l-.9 3.3m-1.4-88.5v.1m0 0v.1m0 0l.1.1m0 0l.1.2m0 0v.2m0 0v.1m0 0l.1.2m0 0v.2m0 0l.1.2m0 0l.1.3m0 0v.1m0 0l.1.3m0 0l.1.2m0 0l.1.2m0 0v.2m0 0l.1.2m0 0v.2m0 0l.1.2m0 0l.1.2m0 0v.3m0 0l.1.1m0 0v.3m0 0l.1.2m0 0l.1.1m-2.4-7.1v.1m0 0v.1m0 0l.1.1m0 0v.1m0 0l.1.1m0 0v.1m0 0v.1m0 0l.2.2m0 0v.1m0 0v.1m0 0v.1m0 0v.1m0 0l.2.1m0 0v.1m0 0v.1m0 0l.1.1m0 0v.2m0 0l.1.1m0 0v.2m0 0l.1.1m0 0v.1m0 0v.1m0 0l.1.1M212 63.9v.1m0 0h.1m0 0v.1m0 0l.2.2m0 0v.1m0 0l.1.2m0 0l.1.1m0 0l.1.2m0 0l.1.2m0 0l.2.2m0 0l.1.3m0 0l.2.3m0 0l.1.3m0 0l.2.3m0 0l.2.3m0 0l.2.4m0 0l.2.4m0 0l.2.4m0 0l.2.3m0 0l.3.6m0 0l.3.4m0 0l.3.5m0 0l.2.5m0 0l.2.5m0 0l.3.5m0 0l.3.6m0 0l.2.6m0 0l.3.6m0 0l.3.6m0 0l.3.7m0 0l.3.6m0 0l.2.6m0 0l.3.7m0 0l.3.6m0 0l.3.7m0 0l.2.7m0 0l.3.7m0 0l.3.8m0 0l.3.7m0 0l.3.9m0 0l.3.7m0 0l.3.8m0 98.4v2m0 0v2m0 0v1.8m0 0v1.9m0 0v1.6m0 0v1.5m0 0v1.4m0 0v1.3m0 0v1.2m0 0v1m0 0v.9m0 0v.7m0 0v.6m0 0l.4.1m0 0l.3.2m0 0l.2.3m0 0l.1.5m-1-135.3v.7m0 0v.7m0 0v.9m0 0v1m0 0v1.3m0 0v1.2m0 0v1.4m0 0v1.5m0 0v1.7m0 0v1.7m0 0v1.8m0 0v2m0 0v2m.4-19.2h0m0 0v.1m0 0v.1m0 0h-.2m0 0v.1m0 0v.1m0 0l-.1.1m0 0v.1m0 0l-.1.1m0 0v.1m0 0v.1m0 0v.1m0 0v.1m0 0v.1m0 0v.1m0 134.2v.1m0 0v.1m0 0v.1m0 0v.1m0 0v.1m0 0v.1m0 0v.1m0 0l.1.1m0 0l.1.1m0 0v.2m0 0v.1m.8-136.3l-.1.3m0 0l-.2.3m0 0l-.3.3m0 0h-.4m1.2 135.9l-.3-.2m0 0l-.2-.3m0 0h-.3m0-136.7l.4-.1m0 0l.2-.1m0 0l.2-.2m1.2 26.7V67.4m0 0h-.5m0 0h-.4m0 0h-.3m0 0h-.2m0 0v18.1m1.4-22.8l-.5.1m0 0l-.4.1m0 0l-.3.4m0 0l-.2.4m0 0v.4m0 0v.1m0 0v.1m0 0v.1m0 0v.2m0 0v.1m0 0v.1m0 0v.1m0 0v.1m0 0v.2m0 0v.2m0 0v.2m0 0v.2m0 0v.1m0 0v.2m0 0v.3m0 0v.1m0 0v.3m0 0v.2m0 0v.2m0 0v.2m0 111.1v18.4m1.4 0h-.5m0 0h-.4m0 0h-.3m0 0h-.2m1.4 0V174m-1.4 22.9v.6m0 0v.6m0 0v.6m0 0v.5m0 0v.4m0 0v.3m0 0v.2m0 0v.2m1.4 1.3h-.5m0 0l-.3-.2m0 0l-.4-.3m0 0l-.2-.4m0 0v-.4m1.4 1.3v-.2m0 0v-.4m0 0v-.4m0 0v-.7m0 0v-.7m0 0v-.7m0 0v-.9m0 0v-.7m0-129.5v-.3m0 0v-.3m0 0v-.3m0 0v-.3m0 0v-.3m0 0v-.3m0 0v-.3m0 0V65m0 0v-.2m0 0v-.2m0 0v-.3m0 0v-.2m0 0v-.3m0 0v-.1m0 0v-.2m0 0v-.2m0 0v-.1m0 0v-.1m0 0v-.2m0 0v-.1m0 0v-.1M164.2 71v.3m0 0v.3m0 0v.5m0 0v.6m0 0v.8m0 0v.9m0 0v1.1m0 0v1.2m0 0V78m0 0v1.4m0 0V81m0 0v1.7m0 0v1.7m0 0v1.9m0 0v2.1m0 0v2.1m0 0v2.1m0 0V95m0 0v2.3m0 0v2.5m0 0v2.6m0 0v2.5m0 0v2.8m0 0v2.7m0 0v2.8m0 0v2.8m0 0v2.9m0 0v2.8m0 0v2.9m0 0v3m0 0v2.9m0 0v3m0 0v2.9m0 0v3m0 0v2.9m0 0v2.9m0 0v2.9m0 0v2.8m0 0v2.8m0 0v2.8m0 0v2.6m0 0v2.5m0 0v2.7m0 0v2.4m0 0v2.5m0 0v2.2m0 0v2.2m0 0v2.1m0 0v2m0 0v1.9m0 0v1.8m0 0v1.7m0 0v1.6m0 0v1.3m0 0v1.4m0 0v1.2m0 0v1m0 0v.9m0 0v.8m0 0v.6m0 0v.5m0 0v.3m0 0v.3m46.1-2.1v-.3m0 0v-.3m0 0v-.5m0 0v-.6m0 0v-.8m0 0v-1m0 0v-1m0 0v-1.1m0 0V184m0 0v-1.4m0 0V181m0 0v-1.7m0 0v-1.8m0 0v-1.8m0 0v-2m0 0v-2.1m0 0v-2.1m0 0v-2.4m0 0v-2.4m0 0v-2.5m0 0v-2.4m0 0v-2.5m0 0v-2.8m0 0v-2.6m0 0v-2.8m0 0v-2.8m0 0v-2.7m0 0v-3m0 0v-2.9m0 0v-2.8m0 0v-2.8m0 0v-3m0 0v-2.8m0 0v-2.9m0 0v-2.9m0 0v-2.8m0 0v-2.8m0 0v-2.8m0 0v-2.6m0 0v-2.6m0 0v-2.7m0 0v-2.4m0 0v-2.5m0 0v-2.4m0 0v-2.2m0 0v-2.3m0 0v-2m0 0v-2m0 0v-1.9m0 0v-1.8m0 0v-1.6m0 0v-1.6m0 0v-1.4m0 0v-1.3m0 0v-1.2m0 0v-1m0 0v-.9m0 0V75m0 0v-.8m0 0v-.5m0 0v-.3m0 0v-.2m0 0v-.1m0-2h-46m46 0V193m-46 0h46m1.4-117.4v.3m0 0v.3m0 0v.5m0 0v.6m0 0v.8m0 0v.9m0 0v1.1m0 0v1.3m0 0v1.2m0 0v1.5m0 0v1.5m0 0v1.7m0 0v1.8m0 0v2m0 0V93m0 0v2.2m0 0v2.2m0 0v2.4m0 0v2.3m0 0v2.5m0 0v2.6m0 0v2.5m0 0v2.8m0 0v2.6m0 0v2.7m0 0v2.9m0 0v2.7m0 0v2.9m0 0v2.9m0 0v2.9m0 0v2.8m0 0v2.8m0 0v2.9m0 0v2.7m0 0v2.9m0 0v2.7m0 0v2.8m0 0v2.6m0 0v2.7m0 0v2.5m0 0v2.4m0 0v2.4m0 0v2.3m0 0v2.3m0 0v2.1m0 0v2m0 0v1.9m0 0v1.9m0 0v1.6m0 0v1.5m0 0v1.5m0 0v1.4m0 0v1.2m0 0v1m0 0v.9m0 0v.8m0 0v.7m0 0v.5m0 0v.4m0 0v.2m0 0v.1m8.2-108.5v.6m0 102.8v.4m13.6-116.2v-.9m0 0v-.7m0 0l-.1-.8m0 0v-.7m0 0V64m0 0v-.5m0 0v-.3m0 0l-.1-.2m0 0v-.1m5.1 113.1l-4.9-108.3m4.9 108.3l-.3.1m0 0h-.3m0 0l-.3.1m0 0h-.3m0 0h-.3m0 0h-.3m0 0l-.3.1m0 0h-.3m0 0h-.4m0 0l-.3.1m0 0l-.3.1m0 0h-.3m0 0h-.3m0 0l-.3.1m0 0h-.4m0 0l-.3.1m0 0l-.3.1m0 0h-.2m0 0l-.2.1m0 0l-.2.1m0 0l-.2.1m0 0l-.2.1m0 0l-.2.2m0 0v.1m0-115v.3m0 0v.3m0 0v.4m0 0v.6m0 0v.7m0 0v.8m0 0v.8m0 0v.8m0 0v110.3m0-110.3h.1m0 0l.1.1m0 0h.1m0 0h.1m0 0h.1m0 0l.1.1m0 0h.1m0 0h.1m0 0h.1m0 0l.1.1m0 0h.1m0 0h.1m0 0v.1m0 0h.1m0 0h.1m0 0h.1m0 0h.1m0 0v.1m-1.6-5.2l1.4.4m-1.4 138.7h167.5m-176.1 0h8.6m167.5-4.7H231.9m0 4.7v-.2m0 0v-.4m0 0v-.4m0 0v-.7m0 0v-.7m0 0v-.7m0 0v-.9m0 0v-.7m0 0h-8.6m176.1 0v-13.3m-167.5-6.1h1.2m0 0l1.3.1m0 0l1.2.1m0 0h1.1m0 0h1.2m0 0l1.2.1m0 0h1.3m0 0h1.1m0 0l1.2.1m0 0l1.2.1m0 0h1.2m0 0h1.2m0 0l1.3.1m0 0h1.2m0 0h1.2m0 0l1.2.1m0 0l1.1.1m0 0h1.3m0 0h1.2m0 0l1.2.1m0 0h1.2m0 0h1.2m0 0l1.3.1m0 0l1.2.1m0 0h1.2m0 0h1.1m0 0l1.2.1m0 0h1.2m0 0h1.3m0 0l1.1.1m0 0l1.2.1m0 0h1.2m0 0h1.3m0 0l1.2.1m0 0h1.2m0 0h1.2m0 0l1.2.1m0 0l1.2.1m0 0h1.2m0 0h1.2m0 0l1.2.1m0 0h1.2m0 0h1.1m0 0l1.3.1m0 0l1.2.1m0 0h1.2m0 0h1.2m0 0l1.2.1m0 0h1.3m0 0l1.2.1m0 0h1.2m0 0l1.1.1m0 0h1.2m0 0h1.3m0 0l1.2.1m0 0h1.2m0 0l1.2.1m0 0h1.2m0 0l1.2.1m0 0h1.2m0 0h1.2m0 0l1.2.1m0 0h1.2m0 0l1.2.1m0 0h1.2m0 0l1.2.1m0 0h1.2m0 0h1.2m0 0l1.2.1m0 0h1.3m0 0l1.2.1m0 0h1.2m0 0l1.1.1m0 0h1.2m0 0h1.3m0 0l1.2.1m0 0h1.2m0 0l1.2.1m0 0h1.2m0 0l1.1.1m0 0h1.3m0 0l1.2.1m0 0h1.2m0 0h1.2m0 0l1.2.2m0 0h1.2m0 0h1.2m0 0h1.2m0 0l1.2.1m0 0h1.2m0 0h1.3m0 0l1.2.2m0 0h1.2m0 0h1.2m0 0h1.1m0 0l1.3.1m0 0h1.2m0 0h1.2m0 0l1.1.2m0 0h1.2m0 0l1.2.1m0 0h1.3m0 0l1.2.1m0 0h1.2m0 0h1.2m0 0l1.2.1m0 0l1.3.1m0 0h1.1m0 0h1.2m0 0l1.2.1m0 0h1.2m0 0h1.3m0 0l1.2.1m0 0l1.2.1m0 0h1.2m0 0h1.2m0 0l1.1.1m0 0h1.3m0 0h1.2m0 0l1.2.1m0 0l1.1.1m0 0h1.3m0 0h1.2m0 0l1.2.1m0 0h1.2m0 0h1.2m0 0l1.2.1m0 0l1.3.1m0 0h1.2m0 0h1.1m0 0l1.2.1m0 0h1.2m0 0h1.3m0 0l1.1.1m0 0l1.2.1m0 0h1.2m0 0h1.2m0 0l1.3.1m0 0h1.2m-167.5-6.1v19.4m6.4-22.5l161.1 7m-176.1-114l8.6-.2m-8.6-4.5h.3m0 0l.4-.1m0 0h.3m0 0h.4m0 0h.4m0 0h.3m0 0h.3m0 0h.4m0 0h.3m0 0h.4m0 0h.4m0 0h.3m0 0h.5m0 0h.3m0 0l.4-.1m0 0h.3m0 0h.4m0 0h.4m0 0h.3m0 0h.4m0 0h.3m0 0h.3m0 0h.4m0 0h.4M212 63.9l9.3-.2M212 200.1l9.3.3m202.1-41.6V67.7m0 128.6v-32.4m0 35.7v-.1m0 0v-.2m0 0v-.3m0 0v-.4m0 0v-.5m0 0v-.6m0 0v-.6m0 0v-.6m0-128.6v-.6m0 0v-.6m0 0v-.6m0 0v-.5m0 0V65m0 0v-.3m0 0v-.2m0 0v-.1m-1.5 136.7l.5-.1m0 0l.5-.3m0 0l.3-.3m0 0l.2-.4m0 0v-.4m0-3.3h-.2m0 0h-.3m0 0h-.5m0 0h-.5m0 0v.8m0 0v.8m0 0v.7m0 0v.7m0 0v.6m0 0v.5m0 0v.3m0 0v.3m0 0v.1m1.5-42.3v.1m0 0v.3m0 0v.2m0 0v.2m0 0v.2m0 0v.2m0 0v.3m0 0v.1m0 0v.3m0 0v.2m0 0v.2m0 0v.2m0 0v.2m0 0v.2m0 0v.2m0 0v.2m0 0v.2m0 0v.3m0 0v.1m0 0v.4m0 0v.1m0 0v.3m0 0v.2m0 0v.2m0-96.2h-.2m0 0h-.3m0 0h-.5m0 0h-.5m0 0v128.6m1.5-131.9V64m0 0l-.2-.4m0 0l-.3-.3m0 0l-.5-.2m0 0l-.5-.1m0 0v.1m0 0v.2m0 0v.4m0 0v.4m0 0v.6m0 0v.6m0 0v.8m0 0v.8m0 0v.8m-22.5 133.9l22.5-.5m0-4.8l-22.5.6m0 0v.7m0 0v.9m0 0v.7m0 0v.7m0 0v.7m0 0v.4m0 0v.4m0 0v.2m24.5-93.2v-.1m0 0v-.2m0 0v-.4m0 0v-.4m0 0v-.6m0 0v-.8m0 0v-.9m0 0v-.9m0 0v-1m0 0v-1m0 0V101m0 0v-1.2m0 0v-1.1m0 0v-1.1m0 0v-1m0 0v-1m0 0v-.9m0 0v-.8m0 0V93m0 0v-.6m0 0V92m0 0v-.4m0 0v-.2m0 0v-.1m-2-28.3l-21.1-.5m0 4.7l21.1.5m4.3 122.4v-.1m0 0v-.2m0 0v-.4m0 0v-.4m0 0v-.6m0 0v-.9m0 0v-.9m0 0v-.9m0 0v-1.1m0 0v-1.3m0 0V182m0 0v-1.5m0 0V179m0 0v-1.6m0 0v-1.7m0 0v-1.8m0 0v-1.8m0 0v-1.9m0 0v-2m0 0v-1.9m0 0v-2m0 0v-2.1m0 0v-1.9m0 0v-2m0 0v-1.9m0 0v-2.1m0 0v-1.9m0 0v-1.8m0 0v-1.9m0 0v-1.8m0 0v-1.7m0 0v-1.6m0 0V142m0 0v-1.4m0 0v-1.3m0 0v-1.2m0 0v-1.2m0 0v-1m0 0v-.9m0 0v-.7m0 0v-.6m0 0v-.5m0 0v-.3m0 0v-.2m0 0v-.1m-.9-.9v.2m0 0v.4m0 0v.5m0 0v.6m0 0v.8m0 0v.9m0 0v1m0 0v1.1m0 0v1.4m0 0v1.3m0 0v1.5m0 0v1.6m0 0v1.8m0 0v1.6m0 0v1.8m0 0v2m0 0v1.9m0 0v2m0 0v2m0 0v2.1m0 0v2.1m0 0v2m0 0v2.1m0 0v2.1m0 0v2m0 0v2m0 0v2m0 0v1.8m0 0v1.9m0 0v1.8m0 0v1.6m0 0v1.5m0 0v1.6m0 0v1.4m0 0v1.2m0 0v1.2m0 0v1m0 0v1m0 0v.8m0 0v.6m0 0v.5m0 0v.4m0 0v.1m0 0v.1m-1.4-82.6l-.1.3m0 0l-.1.3m0 0l-.3.2m0-18.7l.3.2m0 0l.1.3m0 0l.1.3m1.4 40.4h.4m0 0l.3.2m0 0l.2.4m0 0v.3m0 57.5v.4m0 0l-.2.3m0 0l-.3.1m0 0l-.4.1m-25.9-7.6v13.5m0-13.5v-2.3m0 0v-2.2m0 0v-2.3m0 0V67.1m0 0v-.7m0 0v-.7m0 0V65m0 0v-.6m0 0v-.5m0 0v-.4m0 0v-.3m0 0v-.3m0 113.7h1.4m0-109.4v109.4m0-109.5v.1m-1.4-.1h1.4m0-4.6v.1m0 0v.1m0 0v.1m0 0v.1m0 0v.2m0 0v.2m0 0v.1m0 0v.3m0 0v.1m0 0v.3m0 0v.2m0 0v.3m0 0v.2m0 0v.3m0 0v.2m0 0v.3m0 0v.3m0 0v.3m0 0v.3m0 0v.3m0 0v.3m-1.4-4.2l1.4-.4m0 114.1v.3m0 0v.3m0 0v.3m0 0v.2m0 0v.3m0 0l-.1.3m0 0v.3m0 0l-.1.3m0 0v.2m0 0v.3m0 0l-.1.3m0 0v.2m0 0l-.1.3m0 0l-.1.3m0 0v.3m0 0l-.1.3m0 0l-.1.3m0 0l-.1.2m0 0l-.1.4m0 0v.3m0 0l-.2.3m0 0l-.1.3m0 0l-.1.3m0 0l-.1.2m25.9 7.6l-1.9.1m1.9-59.4l-1.9-.1M234.1 78.5h9.1m0-4.1h-9.4m9.4 29.4l1.4-.1m0 0l1.4-.2m0 0l1.5-.4m0 0l1.3-.4m0 0l1.3-.6m0 0l1.3-.8m0 0l1.1-.8m0 0l1.1-1.1m0 0l1-1m0 0l.8-1.2m0 0l.7-1.2m0 0l.7-1.3m0 0l.5-1.3m0 0l.3-1.5m0 0l.2-1.4m0 0l.1-1.4m0 0l-.1-1.5m0 0l-.2-1.4m0 0l-.3-1.4m0 0l-.5-1.3m0 0l-.7-1.4m0 0l-.7-1.2m0 0l-.8-1.2m0 0l-1-1.1m0 0l-1.1-.9m0 0l-1.1-.9m0 0l-1.3-.7m0 0l-1.3-.6m0 0l-1.3-.5m0 0l-1.5-.3m0 0l-1.4-.3m0 0h-1.4m0 4.1l1.2.1m0 0l1.2.1m0 0l1.3.4m0 0l1 .5m0 0l1.1.6m0 0l1 .8m0 0l.9.8m0 0l.7.9m0 0l.7 1.1m0 0l.7 1m0 0l.4 1.2m0 0l.2 1.3m0 0l.1 1.2m0 0v1.2m0 0l-.1 1.2m0 0l-.2 1.2m0 0l-.4 1.1m0 0l-.7 1.2m0 0l-.7 1m0 0l-.7.9m0 0l-.9.9m0 0l-1 .7m0 0l-1.1.6m0 0l-1 .5m0 0l-1.3.3m0 0l-1.2.2m0 0l-1.2.2m-8 4.1h8m0-4.1H235m0-.4h8.2m0 0h1.2m0 0l1.1-.3m0 0l1.2-.3m0 0l1.1-.5m0 0l1-.6m0 0l1-.7m0 0l.8-.8m0 0l.8-.9m0 0l.7-1m0 0l.6-1.1m0 0l.4-1.1m0 0l.3-1.2m0 0l.1-1.1m0 0v-1.2m0 0l-.1-1.2m0 0l-.3-1.2m0 0l-.4-1.1m0 0l-.6-1.1m0 0l-.7-1m0 0l-.8-.9m0 0l-.8-.8m0 0l-1-.8m0 0l-1-.6m0 0l-1.1-.5m0 0l-1.2-.3m0 0l-1.1-.2m0 0l-1.2-.1m0 0h-9.1m165.3 21h-8.7m0 4.1h8.7m-8.7-29.4h-1.4m0 0l-1.5.3m0 0l-1.3.3m0 0l-1.5.5m0 0l-1.2.6m0 0l-1.3.7m0 0l-1.1.9m0 0l-1 .9m0 0l-1 1.1m0 0l-.9 1.2m0 0l-.8 1.2m0 0l-.6 1.4"/><path clip-rule="evenodd" fill="none" stroke="#000" stroke-width=".718" stroke-linecap="round" stroke-linejoin="round" stroke-miterlimit="10" d="M377.1 83.5l-.5 1.3m0 0l-.3 1.4m0 0l-.2 1.4m0 0l-.1 1.5m0 0l.1 1.4m0 0l.2 1.4m0 0l.3 1.5m0 0l.5 1.3"/><path clip-rule="evenodd" fill="none" stroke="#1D1D1B" stroke-width=".283" stroke-miterlimit="3.864" d="M377.1 94.7l.6 1.3m0 0l.8 1.2m0 0l.9 1.2m0 0l1 1m0 0l1 1.1m0 0l1.1.8m0 0l1.3.8m0 0l1.2.6m0 0l1.5.4m0 0l1.3.4m0 0l1.5.2m0 0l1.4.1m0-4.1l-1.2-.2m0 0l-1.2-.2m0 0l-1.2-.3m0 0l-1.1-.5m0 0l-1.1-.6m0 0l-1-.7m0 0l-.9-.9m0 0l-.8-.9m0 0l-.6-1m0 0l-.6-1.2m0 0l-.4-1.1m0 0l-.2-1.2m0 0l-.2-1.2m0 0v-1.2m0 0l.2-1.2m0 0l.2-1.3m0 0l.4-1.2m0 0l.6-1m0 0l.6-1.1m0 0l.8-.9m0 0l.9-.8m0 0l1-.8m0 0l1.1-.6m0 0l1.1-.5m0 0l1.2-.4m0 0l1.2-.1m0 0l1.2-.1m8.7-4.1h-8.7m0 4.1h8.7m-8.7 20.8h8.7m0-2h-8.7m0-18.6l-1.2.1m0 0l-1.1.2m0 0l-1.2.3m0 0l-1 .5m0 0l-1.2.6m0 0l-.9.8m0 0l-.9.8m0 0l-.7.9m0 0l-.7 1m0 0l-.5 1.1m0 0l-.4 1.1m0 0l-.3 1.2m0 0l-.1 1.2m0 0v1.2m0 0l.1 1.1m0 0l.3 1.2m0 0l.4 1.1m0 0l.5 1.1m0 0l.7 1m0 0l.7.9m0 0l.9.8m0 0l.9.7m0 0l1.2.6m0 0l1 .5m0 0l1.2.3m0 0l1.1.3m0 0h1.2m0-2l-1.1-.1m0 0l-1-.2m0 0l-1-.3m0 0l-1-.5m0 0l-.8-.6m0 0l-.9-.7m0 0l-.7-.8m0 0l-.6-1m0 0l-.5-.9m0 0l-.3-1m0 0l-.2-1m0 0l-.1-1.1m0 0l.1-1.1m0 0l.2-1.1m0 0l.3-1m0 0l.5-.9m0 0l.6-.9m0 0l.7-.8m0 0l.9-.7m0 0l.8-.6m0 0l1-.5m0 0l1-.3m0 0l1-.3m0 0h1.1m8.7-2.2h-8.7m0 2.2h8.7M243.2 97.3H235m8.2-16.4h1m0 0l1.1.3m0 0l1 .3m0 0l1 .5m0 0l.9.6m0 0l.8.7m0 0l.7.8m0 0l.6.9m0 0l.5.9m0 0l.3 1m0 0l.2 1.1m0 0l.1 1.1m0 0l-.1 1.1m0 0l-.2 1m0 0l-.3 1m0 0l-.5.9m0 0l-.6 1m0 0l-.7.8m0 0l-.8.7m0 0l-.9.6m0 0l-1 .5m0 0l-1 .3m0 0l-1.1.2m0 0l-1 .1m-9-16.4h9m147.5 18.4v.4m0-21v-.2m-155.5 25.3l2.9 65.6m-4.6-101.7l.3 6.7m4.3 95l161.3 7.8m0-.6v-72.8m0-29.4v-6.7m-165.9 0h165.9m-166.1-4.8h166.1M238.3 174.1h1.2m0 0l1.3.1m0 0h1.2m0 0l1.2.1m0 0h1.2m0 0l1.1.1m0 0h1.3m0 0l1.2.1m0 0l1.2.1m0 0h1.1m0 0l1.2.1m0 0h1.3m0 0h1.2m0 0l1.2.1m0 0l1.2.1m0 0h1.2m0 0l1.1.2m0 0h1.3m0 0h1.2m0 0h1.2m0 0l1.2.1m0 0h1.2m0 0l1.3.2m0 0h1.1m0 0h1.2m0 0l1.2.1m0 0h1.1m0 0l1.3.2m0 0h1.2m0 0h1.2m0 0l1.2.1m0 0l1.2.1m0 0h1.3m0 0l1.1.1m0 0h1.2m0 0l1.2.1m0 0l1.2.1m0 0h1.1m0 0h1.3m0 0l1.2.1m0 0h1.2m0 0l1.2.1m0 0l1.2.1m0 0h1.3m0 0l1.1.1m0 0h1.2m0 0h1.2m0 0l1.2.1m0 0l1.3.1m0 0h1.2m0 0l1.2.1m0 0h1.1m0 0l1.2.1m0 0l1.3.1m0 0h1.2m0 0h1.1m0 0l1.2.1m0 0h1.2m0 0l1.2.1m0 0l1.3.1m0 0h1.2m0 0l1.2.1m0 0h1.1m0 0h1.2m0 0l1.3.1m0 0l1.2.1m0 0h1.2m0 0l1.2.1m0 0h1.2m0 0l1.2.1m0 0l1.2.1m0 0h1.2m0 0h1.1m0 0l1.2.1m0 0h1.3m0 0l1.2.1m0 0l1.2.1m0 0h1.2m0 0l1.2.1m0 0h1.1m0 0h1.3m0 0l1.2.1m0 0l1.2.1m0 0h1.1m0 0l1.2.1m0 0h1.3m0 0l1.2.1m0 0l1.2.1m0 0h1.2m0 0h1.2m0 0l1.2.1m0 0h1.2m0 0l1.2.1m0 0l1.2.1m0 0h1.2m0 0l1.3.1m0 0h1.2m0 0l1.1.1m0 0h1.2m0 0l1.2.1m0 0h1.2m0 0l1.2.1m0 0h1.2m0 0l1.2.1m0 0l1.2.1m0 0h1.2m0 0h1.3m0 0l1.2.1m0 0h1.1m0 0l1.2.1m0 0l1.2.1m0 0h1.3m0 0l1.2.1m0 0h1.2m0 0l1.2.1m0 0h1.1m0 0l1.3.1m0 0h1.2m0 0l1.1.1m0 0h1.2m0 0l1.2.1m0 0l1.2.1m0 0h1.3m0 0l1.2.1m0 0h1.2m0 0h1.2m0 0l1.1.1m0 0l1.3.1m0 0h1.2m0 0l1.1.1m0 0h1.2m0 0l1.2.2m0 0h1.3m0 0h1.2M220 183.5l-2-.1m4.8-8.7v.8m.5-1.7l-.3.2m0 0l-.1.3m0 0l-.1.4m2.1-9.9l.1-.2m0 0l.2-.3m0 0l.2-.2m0 0h.3m-.8 2.3v-1.6m-1.8 1.6h1.8m-1.8 1.6v-1.6m-.7 2.3l.2-.1m0 0l.2-.1m0 0l.2-.2m0 0l.1-.3m-2.8.7h2.1m-2.1-3.5v3.5m.1-3.9l-.1.4m1.5-5.5l-1.4 5.1m-.4-5.9l.2-.2m0 0l.3-.2m0 0h.3m0 0h.5m0 0l.3.2m0 0l.2.2m0 0l.1.4m0 0l-.1.4m-4.5 4.4l2.7-5.2m-3 6.3l.1-.6m0 0l.2-.5m-.3 18.4v-17.3m1 18.2l-1-.9m1-101.8l2-.2m-3 1.2l1-1m-1 18.1V81.7m.3 18.4l-.2-.7m0 0l-.1-.6m3 6.3l-2.7-5m4.5 4.3l.1.4m0 0l-.1.3m0 0l-.2.3m0 0l-.3.1m0 0l-.5.1m0 0l-.3-.1m0 0l-.3-.1m0 0l-.2-.3m.4-5.9l1.4 5.2m-1.5-5.6l.1.4m-.1-3.9v3.5m2.1-3.5h-2.1m2.8.7l-.1-.2m0 0l-.2-.3m0 0l-.2-.1m0 0l-.2-.1m.7 2.4V96m1.8 1.7h-1.8m1.8 1.5v-1.5m.8 2.3h-.3m0 0l-.2-.2m0 0l-.2-.3m0 0l-.1-.3m-2.1-9.8l.1.3m0 0l.1.3m0 0l.3.2m-.5-1.6v.8m-1 6.4v-.5m-4.8 56v1.3m0 0v1.3m0 0v1.3m0 0v1.3m0 0v1.3m0 0v1.2m0 0v1.1m0 0v.9m0 0v.9m0 0v1m0 0v.6m0 0v.6m0 0v.5m0 0v.3m0 0v.2m0 0v.1m0-52.3v38.4m0-52.5v.2m0 0v.1m0 0v.3m0 0v.6m0 0v.6m0 0v.7m0 0v.8m0 0v.9m0 0v1m0 0v1.1m0 0v1.2m0 0v1.2m0 0v1.3m0 0v1.3m0 0v1.3m0 0v1.5m4.8 55.8v-.5m1.2-72.4h-.1m0 0h-.1m0 0h-.1m0 0h-.1m0 0h-.1m0 0h-.1m0 0h-.1m0 0h-.1m0 0h-.1m0 0h-.1m0 0h-.1m0 0h-.1m3.1 61h.2m0 0h.1m0 0h.1m0 0h.1m0 0h.1m0 0h.2m0 0h.1m0 0h.1m0 0h.1m0 0h.1m0 0h.2m0 0h.1m0 0h.1m0 0h.1m0 0h.1m0 0h.1m0 0h.1m0 0h.1m-5.2 10.7h-.1m0 0h-.1m0 0v-.1m0 0h-.1m0 0h-.2m1.8.1h-.1m0 0h-.1m0 0h-.1m0 0h-.1m0 0h-.1m0 0h-.1m0 0h-.1m0 0h-.1m0 0h-.1m0 0h-.1m0 0h-.1m0 0h-.1m0 0h-.1m5.2-60.2h-.1m0 0h-.1m0 0h-.1m0 0h-.1m0 0h-.1m0 0h-.1m0 0h-.1m0 0h-.2m0 0h-.1m0 0h-.1m0 0h-.1m0 0h-.1m0 0h-.2m0 0h-.1m0 0h-.1m0 0h-.1m0 0h-.1m0 0h-.2m2.4 47.6h-.1m0 0h-.2m0 0h-.1m0 0h-.2m0 0h-.1m0 0h-.2m0 0h-.1m0 0l-.2-.1m0 0h-.1m0 0h-.2m0 0h-.1m0 0h-.2m0 0h-.1m0 0h-.2m0 0h-.1m0 0h-.2m0-45.6h.2m0 0h.1m0 0h.2m0 0h.1m0 0h.2m0 0h.1m0 0h.2m0 0h.1m0 0h.2m0 0h.1m0 0h.2m0 0h.1m0 0h.2m0 0h.1m0 0h.2m0 0h.1m-5.5-13.4v.3m0 0v.3m0 0v.1m0 0v.1m0 0h.1m0 0h.1m0 0h.1m0 0h.1m0 0h.1m0 0h.1m0 0h.1m0 0h.1m0 0h.1m0 0v-.1m0 0h.1m0 0h.1m0 0h.1m0 0h.1m-1.3-.7h-.1m0 0l-.1.3m0 0v.3m0 0l-.1.1m0 0l-.2.1m0 0h.2m0 0h.1m0 0h.1m0 0h.1m-.1-.8h-.1m0 0h-.1m0 0h-.2m0 0h0m0 0l-.2.1m0 0l-.2.1m0 0l-.1.1m0 0v.1m0 0l-.1.1m0 0h-.1m0 0v.1m0 0v.1m0 0l-.1.1m0 0v.1m0 0v.1m0 0l-.1.1m0 0v.1m0 0v.2m0 0l-.1.1m0 0v.1m0 0v.1m8.4 25h-.1m0 0h-.2m0 0h-.1m0 0h-.2m0 0h-.1m0 0h-.2m0 0h-.2m0 0h-.2m0 0h-.1m0 0h-.2m0 0h-.1m0 0h-.2m0 0h-.1m0 0h-.2m0 0h-.2m0 0h-.1m0 0l-.2.1m0 0h-.1m0 0h-.2m0 0h-.1m0 0h-.2m0 0h-.2m0 0h-.1m0 0h-.2m-3.1 45.6h.1m0 0h.1m0 0h.1m0 0h.1m0 0h.1m0 0h.1m0 0v.1m0 0h.1m0 0h.1m0 0h.1m0 0h.1m0 0h.1m0 0h.1m-1.2-.8v.2m0 0v.2m0 0v.3m-.5-.8l.2.1m0 0l.1.2m0 0v.2m0 0l.1.3m0 0h.1m-1.5-1.7v.2m0 0v.1m0 0h.1m0 0v.2m0 0v.1m0 0l.1.1m0 0v.1m0 0v.1m0 0l.1.1m0 0v.1m0 0v.1m0 0l.1.1m0 0l.1.1m0 0l.1.1m0 0l.2.1m0 0v.1m0 0h.2m0 0h0m0 0h.2m0 0h.1m0 0h.1m7.1-44.6l-3.9.1m-1.8-33.6l.2-.1m1.9 70.9h.1m0 0h.1m0 0h.1m0 0h.1m0 0h.1m0 0h.1m0 0h.1m-.7 0h-.1m0 0h-.1m0 0h-.1m-3.3 0h-.1m3.7-57.8h.1m0 0h.1m0 0h.1m0 0h.1m0 0h.1m0 0h.1m0 0h.1m-4.4.1h.1m3.3-.1h.1m0 0h.1m0 0h.1m-3.9-5.9h.2m0 0h.1m0 0h.1m0 0h.1m0 0h.1m0 0h.1m0 0h.1m0 0h.1m0 0h.1m0 0h.1m0 0h.1m0 0h.2m0 0h.1m0 0h.1m0 0h.1m0 0h.1m2.1 4.4h-.1m0 0v.1m0 0h-.1m0 0h-.1m-3.3 0h-.1m0 0h-.2m6.7 49h-.2m0 0h-.2m0 0h-.1m0 0h-.1m0 0h-.1m0 0h-.1m0 0h-.2m0 0h-.1m0 0h-.1m0 0h-.1m0 0h-.1m0 0h-.2m0 0h-.1m0 0h-.1m0 0h-.1m0 0h-.2m0 0h-.1m0 0h-.1m0 0h-.2m0 0h-.1m0 0h-.1m0 0h-.1m0 0h-.1m0 0h-.2m-3.6 11.6h.2m0 0h.1m3.3.1h.1m0 0h.1m0 0h.1m-2.1 4.4h-.1m0 0h-.1m0 0h-.1m0 0h-.1m0 0h-.2m0 0h-.1m0 0h-.1m0 0h-.1m0 0h-.1m0 0h-.1m0 0h-.1m0 0h-.1m0 0h-.1m0 0h-.1m0 0h-.1m0 0h-.2m2 7.2h-.2"/><path clip-rule="evenodd" fill="none" stroke="#000" stroke-width=".718" stroke-linecap="round" stroke-linejoin="round" stroke-miterlimit="10" d="M224.9 151.9h.2m0 0h.1m0 0h.1m0 0h.1m0 0h.1m0 0h.2m0 0h.1m0 0h.1m0 0h.1m0 0h.1m0 0h.1m0 0h.1m0 0h.1m0 0h.2m0 0h.1m0 0h.1m0 0h.1m0 0h.1m0 0h.2m0 0h.1m0 0h.1m0 0h.1m0 0h.1m0 0h.2"/><path clip-rule="evenodd" fill="none" stroke="#1D1D1B" stroke-width=".283" stroke-miterlimit="3.864" d="M225.9 163.3h-.3m0 0h-.2m0 0h-.2m0-.9v.2m0 0v.1m.7.6v-2.4m0 0l-.1.1m0 0v.1m0 0l-.1.1m0 0v.1m0 0h-.1m0 0v.1m0 0l-.1.1m0 0v.1m0 0v.1m0 0l-.1.1m0 0v.1m0 0l-.1.1m0 0v.1m0 0l-.1.1m0 0v.1m0 0v.1m0-60.8v.1m0 0v.1m0 0v.1m0 0h.1m0 0v.1m0 0v.1m0 0h.1m0 0v.1m0 0v.1m0 0l.1.1m0 0v.1m0 0l.1.1m0 0v.1m0 0h.1m0 0v.1m0 0l.1.1m0 0v.1m0 0v.1m0 0h.1m0 0v-2.3m0 0h-.3m0 0h-.2m0 0h-.2m0 .7v.1m0-1.8v1.7m-3.9.2h-.2m.2.9v-.1m0 0v-.1m0 0v-.1m0 0v-.1m0 0v-.1m0 0v-.1m0 0v-.1m0 0v-.1m0 0v-.1m0-4.5l-.4.1m0 0l-.3.2m0 0l-.2.1m0 0l-.1.3m1 3.8v-1.5m0 0v-1.5m0 0v-1.5m0 0v-.1m0 0V97m0 0v-.1m0 0v-.1m0 0v-.1m0 0v-.1m0 70.2l-.4-.1m0 0l-.3-.1m0 0l-.2-.2m0 0l-.1-.3m1 1.3v-.1m0 0v-.1m0 0v-.1m0 0v-.1m0 0v-.1m0 0v-.1m0-4.5h-.2m.2 4.5v-1.4m0 0V164m0 0v-1.7m0 0v-.1m0 0v-.1m0 0v-.1m0 0v-.1m0 0v-.1m0 0v-.1m0 0v-.1m0 0v-.1m0 0v-.1m4.5-35.2h-.3m0 0h-.3m0 0h-.2m0 0h-.1m0 11.7h.1m0 0h.2m0 0h.3m0 0h.3m0 0v-11.7m3.1.1l-3.1-.1m3.1 11.5l-3.1.2m-.9 2.6l3.9.1m.1-.7l-4-.1m.3 24.5v-1.6m-7.9-11.4v1.3m0 0v1.3m0 0v1.3m0 0v1.3m0 0v1.2m0 0v1.1m0 0v1m0 0v.9m0 0v.8m0 0v.7m0 0v.7m0 0v.5m0 0v.4m0 0v.2m0 0v.1m-.3-12.8h.1m0 0h.2m2.7 0v.9m0 0v1m0 0v1m0 0v.9m0 0v.8m0 0v.8m0 0v.7m0 0v.5m0 0v.5m0 0v.3m0 0v.2m-2.7-7.6h2.7m0 0h.2m0 0h.3m0 0h.4m0 0h.4m0 0h.3m-4.3-38.4v38.4m-.3-38.4h.1m0 0h.2m2.7 0v38.4m-2.7-38.4h2.7m0 0h.2m0 0h.3m0 0h.4m0 0h.4m0 0h.3m-4.3-12.8v.3m0 0v.3m0 0v.5m0 0v.6m0 0v.7m0 0v.8m0 0v.9m0 0v1m0 0v1.3m0 0v1.1m0 0v1.3m0 0v1.2m0 0v1.4m0 0v1.4m2.7-7.8v.3m0 0v.3m0 0v.5m0 0v.5m0 0v.7m0 0v.8m0 0v.8m0 0v.8m0 0v1m0 0v1m0 0v1.1m1.6-14.5h3.3m-3.3 67.2V98.4m3.3 67.2h-3.3m3.3-67.2v67.2m17.5-80.4v-.1m0 0V85m0 0v-.1m0 0v-.1m0 0v-.1m0 0v-.1m0 0v-.1m0 0h-.1m0 0v-.1m0 0v-.1m0 0v-.1m0 0v-.1m0 0V84m0 0v-.1m.1 1.3l.5-.1m0 0h.6m0 0l.5.1m0-1.3v.1m0 0v.1m0 0v.1m0 0v.1m0 0v.1m0 0v.1m0 0v.1m0 0v.1m0 0v.1m0 0v.1m0 0v.1m0 0v.1m0 0v.1m0-1.3h-.8m0 0h-.9m-3 6h-.1m0 0h-.1m0 0h-.1m0 0h-.1m0 0h-.1m0 0h-.1m0 0h-.1m0 0h-.1m0 0h-.1m0 0h-.1m0 0h-.1m0 0h-.1m0 0h-.1m1.3 0l-.1-.6m0 0v-.5m0 0l.1-.5m-1.3-.1h.1m0 0h.1m0 0h.1m0 0h.1m0 0h.1m0 0h.1m0 0h.1m0 0h.1m0 0h.1m0 0h.1m0 0h.1m0 0v.1m0 0h.1m0 0h.1m-1.3-.1v.9m0 0v.8m6 3v.1m0 0v.1m0 0v.1m0 0v.2m0 0v.1m0 0v.1m0 0v.1m0 0v.1m0 0v.1m0 0v.1m0 0v.1m0 0v.1m0-1.3h-.5m0 0h-.6m0 0h-.5m-.1 1.3v-.1m0 0V94m0 0v-.1m0 0v-.1m0 0v-.1m0 0l.1-.1m0 0v-.1m0 0v-.1m0 0v-.2m0 0v-.1m0 0V93m0 0v-.1m-.1 1.3l.9.1m0 0l.8-.1m3-5.9h.1m0 0h.1m0 0l.1-.1m0 0h.1m0 0h.1m0 0h.1m0 0h.1m0 0h.1m0 0h.1m0 0h.1m0 0h.1m0 0h.1m0 0h.1m0 0h.1m-1.4.1l.2.5m0 0v.5m0 0l-.2.6m1.4 0h-.1m0 0h-.1m0 0h-.1m0 0h-.1m0 0h-.1m0 0h-.1m0 0h-.1m0 0h-.1m0 0h-.1m0 0h-.1m0 0h-.1m0 0h-.1m0 0h-.1m0 0h-.1m1.4 0v-.8m0 0v-.9m-6-3v.1m0 0v.1m0 0v.1m0 0v.1m0 0v.1m0 0h.1m0 0v.1m0 0v.1m0 0v.1m0 0h.1m0 0v.2m0 0v.1m0 0v.1m0 0v.1m0 0v.1m0 0v.1m0 0v.2m0 0h.1m0 0h0m0 0v.1m0 0v.2m1 0h-.5m0 0h-.5m1 0V87m0 0v-.1m0 0h0m0 0l.1-.2m0 0v-.1m0 0v-.1m0 0v-.1m0 0v-.1m0 0v-.1m0 0V86m0 0l.1-.1m0 0v-.1m0 0v-.1m0 0v-.1m0 0v-.1m0 0v-.1m0 0v-.1m0 0l.1-.1m-4.7 4.7h.1m0 0h.1m0 0l.1-.1m0 0h.1m0 0h.1m0 0h.1m0 0l.1-.1m0 0h.1m0 0h.2m0 0h.1m0 0h.1m0 0h.1m0 0h.1m0 0h.1m0 0v-.1m0 0h.1m0 0h.1m0 0h.1m0 0h.1m0 0h.1m0 0h.1m0-1l-.1.5m0 0l.1.5m0-1h-.1m0 0h-.1m0 0h-.1m0 0v-.1m0 0h-.1m0 0h-.1m0 0h-.1m0 0h-.1m0 0h-.1m0 0h-.1m0 0h-.1m0 0l-.1-.1m0 0h-.2m0 0h-.1m0 0h-.1m0 0h-.1m0 0h-.1m0 0h-.1m0 0l-.1-.1m0 0h-.1m0 0h-.1m4.7 4.6l-.1-.2m0 0v-.1m0 0v-.1m0 0v-.1m0 0v-.1m0 0v-.2m0 0h-.1m0 0V92m0 0v-.2m0 0v-.1m0 0v-.1m0 0v-.1m0 0v-.1m0 0l-.1-.1m0 0v-.1m0 0v-.1m0 0V91m0 0v-.1m-1 0l.5.1m0 0l.5-.1m-1 0v.1m0 0v.1m0 0v.1m0 0l-.1.1m0 0v.1m0 0v.1m0 0v.1m0 0v.1m0 0v.1m0 0v.2m0 0l-.1.1m0 0v.2m0 0l-.1.1m0 0v.1m0 0v.1m0 0v.1m0 0v.2m4.6-4.6h-.1m0 0l-.1.1m0 0h-.1m0 0h-.1m0 0h-.2m0 0h-.1m0 0h-.1m0 0h-.1m0 0h-.1m0 0v.1m0 0h-.1m0 0h-.1m0 0h-.1m0 0h-.1m0 0h-.1m0 0h-.1m0 0h-.1m0 0l-.1.1m0 0h-.1m0 0h-.1m0 1l.1-.5m0 0l-.1-.5m0 1h.1m0 0h.1m0 0h.1m0 0h.1m0 0h.1m0 0h.1m0 0v.1m0 0h.1m0 0h.1m0 0h.1m0 0h.1m0 0h.1m0 0h.1m0 0h.1m0 0v.1m0 0h.1m0 0h.2m0 0h.1m0 0h.1m0 0l.1.1m0 0h.1m-5.6-.3h.1m0 0h.1m0 0h.1m0 0v.1m0 0h.1m0 0h.1m0 0l.1.1m0 0l.1.1m0 0h.1m0 0l.1.1m0 0l.1.2m0 0l.1.1m0 0l.1.2m0 0v.1m0 0v.1m0 0l.1.1m0 0v.1m1 0v-.1m0 0v-.1m0 0l.1-.1m0 0v-.1m0 0v-.2m0 0h.1m0 0v-.1m0 0h.1m0 0l.1-.2m0 0l.1-.1m0 0h.1m0 0l.1-.1m0 0l.1-.1m0 0h.2m0 0v-.1m0 0h.1m0 0h.2m0-1l-.2-.1m0 0h-.1m0 0h-.2m0 0v-.1m0 0h-.1m0 0h-.1m0 0l-.1-.1m0 0v-.1m0 0h-.1m0 0v-.1m0 0l-.1-.1m0 0l-.1-.1m0 0l-.1-.1m0 0v-.1m0 0v-.1m0 0l-.1-.1m0 0v-.2m0 0h0m0 0v-.1m-1 0v.1m0 0h0m0 0l-.1.2m0 0v.1m0 0v.1m0 0l-.1.1m0 0v.1m0 0h-.1m0 0v.1m0 0l-.1.1m0 0v.1m0 0h-.1m0 0l-.1.1m0 0v.1m0 0h-.1m0 0h-.1m0 0l-.1.1m0 0h-.1m0 0h-.1m0 0h-.1m0 0l-.1.1m1.8-6.7l1 .1m0 0l.9.1m0 0l.9.4m0 0l1 .5m0 0l.8.6m0 0l.7.6m0 0l.6.8m0 0l.6.9m0 0l.3 1m0 0l.3 1m0 0v.9m0 0v1m0 0l-.1 1m0 0l-.3.9m0 0l-.5.9m0 0l-.6 1m0 0l-.6.7m0 0l-.7.6m0 0l-.9.5m0 0l-1 .4m0 0l-.9.3m0 0l-1 .2m0 0h-1m0 0l-1-.2m0 0l-.9-.3m0 0l-1-.4m0 0l-.9-.5m0 0l-.8-.6m0 0l-.6-.7m0 0l-.6-1m0 0l-.4-.9m0 0l-.3-.9m0 0l-.2-1m0 0v-1m0 0l.1-.9m0 0l.2-1m0 0l.4-1m0 0l.5-.9m0 0l.6-.8m0 0l.7-.6m0 0l.8-.6m0 0l1-.5m0 0l.9-.4m0 0l1-.1m0 0l1-.1m0 1l.9.1m0 0l.9.2m0 0l.9.4m0 0l.8.5m0 0l.8.5m0 0l.6.7m0 0l.5.8m0 0l.4.8m0 0l.2 1m0 0l.1.9m0 0v1m0 0l-.2.9m0 0l-.3.8m0 0l-.4.9m0 0l-.6.7m0 0l-.7.8m0 0l-.8.5m0 0l-.9.4m0 0l-.9.3m0 0l-.9.1m0 0h-.9m0 0l-.9-.1m0 0l-.9-.3m0 0l-.9-.4m0 0l-.8-.5m0 0l-.6-.8m0 0l-.6-.7m0 0l-.4-.9m0 0l-.4-.8m0 0l-.1-.9m0 0v-1m0 0l.1-.9m0 0l.2-1m0 0l.4-.8m0 0l.5-.8m0 0l.6-.7m0 0l.7-.5m0 0l.9-.5m0 0l.9-.4m0 0l.9-.2m0 0l.9-.1m0 13.2h1m0 0l.9-.2m0 0l1-.4m0 0l.9-.4m0 0l.9-.6m0 0l.6-.8m0 0l.6-.8m0 0l.5-.9m0 0l.4-.9m0 0l.2-1m0 0l.1-1m0 0l-.1-1m0 0L250 87m0 0l-.4-.9m0 0l-.5-.9m0 0l-.6-.8m0 0l-.6-.7m0 0l-.9-.6m0 0l-.9-.5m0 0l-1-.3m0 0l-.9-.2m0 0l-1-.1m0 0l-1 .1m0 0l-1 .2m0 0l-.9.3m0 0l-1 .5m0 0l-.8.6m0 0l-.7.7m0 0l-.6.8m0 0l-.5.9m0 0l-.3.9m0 0l-.2 1.1m0 0l-.1 1m0 0l.1 1m0 0l.2 1m0 0l.3.9m0 0l.5.9m0 0l.6.8m0 0l.7.8m0 0l.8.6m0 0l1 .4m0 0l.9.4m0 0l1 .2m0 0h1m.9-9.2l-.1-3m1.3 4.3l-.4-.1m0 0l-.4-.2m0 0l-.2-.2m0 0l-.2-.4m0 0v-.4m4.3 1.3h-3.1m0 1.8l3.1-.1m-4.3 1.2v-.3m0 0l.2-.3m0 0l.2-.3m0 0l.4-.2m0 0h.4m-1.3 4.2l.1-3.1m-1.8 0v3.1m-1.2-4.2h.4m0 0l.3.2m0 0l.3.3m0 0l.2.3m0 0v.3m-4.3-1.2l3.1.1m0 0v-.4m1.2 1.5h.4m1.4 0h-.4m1.6-1.1l-.1-.4m.1-1.4l-.1.4m-1.1-1.7h-.4m-2.6 1.3H238m4.3-1.3v.4m0 0l-.2.4m0 0l-.3.2m0 0l-.3.2m0 0l-.4.1m1.2-4.3v3m0 0h.4m-1.6 1.3v.4m148.8-3.4v-.1m0 0V85m0 0v-.1m0 0v-.1m0 0v-.1m0 0v-.1m0 0v-.1m0 0v-.1m0 0v-.1m0 0v-.1m0 0v-.1m0 0V84m0 0v-.1m0 1.3l.5-.1m0 0h.6m0 0l.5.1m0-1.3v.1m0 0v.1m0 0v.1m0 0v.1m0 0v.1m0 0v.1m0 0v.1m0 0v.1m0 0v.1m0 0v.1m0 0v.1m0 0v.1m0 0v.1m0-1.3h-.8m0 0h-.8m-3 6h-.1m0 0h-.1m0 0h-.1m0 0h-.1m0 0h-.1m0 0h-.1m0 0h-.1m0 0h-.1m0 0h-.1m0 0h-.1m0 0h-.1m0 0h-.1m0 0h-.1m1.3 0l-.1-.6m0 0v-.5m0 0l.1-.5m-1.3-.1h.1m0 0h.1m0 0h.1m0 0h.1m0 0h.1m0 0h.1m0 0h.1m0 0h.1m0 0h.1m0 0h.1m0 0h.1m0 0v.1m0 0h.1m0 0h.1m-1.3-.1v.9m0 0v.8m5.9 3v.1m0 0v.1m0 0v.1m0 0v.2m0 0v.1m0 0v.1m0 0v.1m0 0v.1m0 0v.1m0 0v.1m0 0v.1m0 0v.1m0-1.3h-.5m0 0h-.6m0 0h-.5m0 1.3v-.1m0 0V94m0 0v-.1m0 0v-.1m0 0v-.1m0 0v-.1m0 0v-.1m0 0v-.1m0 0v-.2m0 0v-.1m0 0V93m0 0v-.1m0 1.3l.8.1m0 0l.8-.1m3.1-5.9h.1m0 0h.1m0 0v-.1m0 0h.1m0 0h.1m0 0h.1m0 0h.1m0 0h.1m0 0h.1m0 0h.1m0 0h.1m0 0h.1m0 0h.1m0 0h.1m-1.3.1l.1.5m0 0v.5m0 0l-.1.6m1.3 0h-.1m0 0h-.1m0 0h-.1m0 0h-.1m0 0h-.1m0 0h-.1m0 0h-.1m0 0h-.1m0 0h-.1m0 0h-.1m0 0h-.1m0 0h-.1m0 0h-.1m1.3 0v-.8m0 0v-.9m-6-3v.1m0 0v.1m0 0v.1m0 0v.1m0 0l.1.1m0 0v.1m0 0v.1m0 0v.1m0 0h.1m0 0v.2m0 0v.1m0 0v.1m0 0v.1m0 0v.1m0 0v.1m0 0l.1.2m0 0h0m0 0v.1m0 0v.2m1 0h-.5m0 0h-.5m1 0V87m0 0v-.1m0 0h0m0 0l.2-.2m0 0v-.1m0 0v-.1m0 0v-.1m0 0v-.1m0 0v-.1m0 0V86m0 0h.1m0 0v-.1m0 0v-.1m0 0v-.1m0 0v-.1m0 0v-.1m0 0v-.1m0 0v-.1m0 0v-.1m-4.6 4.7h.1m0 0h.1m0 0l.1-.1m0 0h.1m0 0h.1m0 0h.1m0 0l.1-.1m0 0h.1m0 0h.1m0 0h.1m0 0h.1m0 0h.1m0 0h.1m0 0h.1m0 0v-.1m0 0h.1m0 0h.1m0 0h.1m0 0h.1m0 0h.1m0 0h.1m0-1l-.1.5m0 0l.1.5m0-1h-.1m0 0h-.1m0 0l-.1-.1m0 0h-.1m0 0h-.1m0 0h-.1m0 0h-.1m0 0h-.1m0 0h-.1m0 0h-.1m0 0l-.1-.1m0 0h-.1m0 0h-.1m0 0h-.1m0 0h-.1m0 0h-.1m0 0h-.1m0 0l-.1-.1m0 0h-.1m0 0h-.1m4.6 4.6v-.2m0 0v-.1m0 0v-.1m0 0v-.1m0 0v-.1m0 0v-.2m0 0l-.1-.1m0 0v-.2m0 0v-.1m0 0v-.1m0 0v-.1m0 0v-.1m0 0l-.2-.1m0 0v-.1m0 0v-.1m0 0V91m0 0v-.1m-1 0l.5.1m0 0l.5-.1m-1 0v.1m0 0v.1m0 0v.1m0 0v.1m0 0l-.1.1m0 0v.1m0 0v.1m0 0v.1m0 0v.1m0 0v.2m0 0l-.1.1m0 0v.2m0 0v.1m0 0l-.1.1m0 0v.1m0 0v.1m0 0v.2m4.7-4.6h-.1m0 0h-.1m0 0l-.1.1m0 0h-.1m0 0h-.1m0 0h-.1m0 0h-.1m0 0h-.1m0 0h-.1m0 0h-.1m0 0v.1m0 0h-.1m0 0h-.2m0 0h-.1m0 0h-.1m0 0h-.1m0 0h-.1m0 0v.1m0 0h-.1m0 0h-.1m0 0h-.1m0 1l.1-.5m0 0l-.1-.5m0 1h.1m0 0h.1m0 0h.1m0 0h.1m0 0h.1m0 0h.1m0 0v.1m0 0h.1m0 0h.2m0 0h.1m0 0h.1m0 0h.1m0 0h.1m0 0v.1m0 0h.1m0 0h.1m0 0h.1m0 0h.1m0 0l.1.1m0 0h.1m0 0h.1m-5.7-.3h.1m0 0h.1m0 0h.1m0 0v.1m0 0h.1m0 0h.1m0 0l.1.1m0 0l.1.1m0 0h.1m0 0l.1.1m0 0l.1.2m0 0l.1.1m0 0h.1m0 0v.2m0 0v.1m0 0l.1.1m0 0v.1m0 0v.1m1 0v-.1m0 0v-.1m0 0l.2-.1m0 0v-.1m0 0v-.2m0 0h.1m0 0v-.1m0 0h0m0 0l.2-.2m0 0l.1-.1m0 0h0m0 0l.2-.1m0 0l.1-.1m0 0h.2m0 0v-.1m0 0h.1m0 0h.1m0 0h.1m0-1l-.1-.1m0 0h-.1m0 0h-.1m0 0h-.2m0 0v-.1m0 0h-.1m0 0h-.2m0 0v-.1m0 0v-.1m0 0h-.1m0 0v-.1m0 0l-.2-.1m0 0v-.1m0 0l-.1-.1m0 0v-.1m0 0v-.1m0 0l-.2-.1m0 0v-.2m0 0h0m0 0v-.1m-1 0v.1m0 0h0m0 0v.2m0 0l-.1.1m0 0v.1m0 0v.1m0 0l-.1.1m0 0h-.1m0 0v.1m0 0l-.1.1m0 0v.1m0 0h-.1m0 0l-.1.1m0 0v.1m0 0h-.1m0 0h-.1m0 0l-.1.1m0 0h-.1m0 0h-.1m0 0h-.1m0 0l-.1.1m1.8-6.7l1.1.1m0 0l.9.1m0 0l1 .4m0 0l.8.5m0 0l.8.6m0 0l.7.6m0 0l.6.8m0 0l.6.9m0 0l.3 1m0 0l.4 1m0 0l.1.9m0 0l-.1 1m0 0l-.2 1m0 0l-.3.9m0 0l-.5.9m0 0l-.5 1m0 0l-.7.7m0 0l-.7.6m0 0l-.9.5m0 0l-.9.4m0 0l-.9.3m0 0l-1.1.2m0 0h-1m0 0l-1-.2m0 0l-.9-.3m0 0l-.9-.4m0 0l-.9-.5m0 0l-.8-.6m0 0l-.7-.7m0 0l-.6-1m0 0l-.4-.9m0 0l-.3-.9m0 0l-.2-1m0 0v-1m0 0l.1-.9m0 0l.2-1m0 0l.4-1m0 0l.5-.9m0 0l.6-.8m0 0l.9-.6m0 0l.7-.6m0 0l.9-.5m0 0l.9-.4m0 0l1-.1m0 0l1-.1m0 1l1 .1m0 0l.9.2m0 0l.9.4m0 0l.7.5m0 0l.8.5m0 0l.6.7m0 0l.5.8m0 0l.4.8m0 0l.2 1m0 0l.1.9m0 0v1m0 0l-.2.9m0 0l-.3.8m0 0l-.4.9m0 0l-.6.7m0 0l-.6.8m0 0l-.8.5m0 0l-.9.4m0 0l-.9.3m0 0l-1 .1m0 0h-.9m0 0l-.9-.1m0 0l-.9-.3m0 0l-.8-.4m0 0l-.8-.5m0 0l-.6-.8m0 0l-.6-.7m0 0l-.4-.9m0 0l-.5-.8m0 0l-.1-.9m0 0v-1m0 0l.1-.9m0 0l.2-1m0 0l.4-.8m0 0l.6-.8m0 0l.6-.7m0 0l.7-.5m0 0l.8-.5m0 0l.9-.4m0 0l.9-.2m0 0l.9-.1m0 13.2h1.1m0 0l.9-.2m0 0l1-.4m0 0l.8-.4m0 0l.9-.6m0 0l.7-.8m0 0l.5-.8m0 0l.5-.9m0 0l.4-.9m0 0l.2-1m0 0l.2-1m0 0l-.2-1m0 0l-.2-1.1m0 0l-.4-.9m0 0l-.5-.9m0 0l-.5-.8m0 0l-.7-.7m0 0l-.9-.6m0 0l-.8-.5m0 0l-1-.3m0 0l-.9-.2m0 0l-1.1-.1m0 0l-1 .1m0 0l-1 .2m0 0l-.9.3m0 0l-.9.5m0 0l-.8.6m0 0l-.8.7m0 0l-.6.8m0 0l-.4.9m0 0l-.4.9m0 0l-.2 1.1m0 0l-.1 1m0 0l.1 1m0 0l.2 1m0 0l.4.9m0 0l.4.9m0 0l.6.8m0 0l.8.8m0 0l.8.6m0 0l.9.4m0 0l.9.4m0 0l1 .2m0 0h1m1-9.2l-.2-3m1.4 4.3l-.4-.1m0 0l-.4-.2m0 0l-.3-.2m0 0l-.1-.4m0 0v-.4m4.2 1.3h-3m0 1.8l3-.1m-4.2 1.2v-.3m0 0l.1-.3m0 0l.3-.3m0 0l.4-.2m0 0h.4m-1.4 4.2l.2-3.1m-1.9 0l.1 3.1m-1.3-4.2h.4m0 0l.3.2m0 0l.3.3m0 0l.2.3m0 0v.3m-4.2-1.2l3 .1m0 0l.1-.4m1.1 1.5h.4m1.5 0h-.5m1.7-1.1v-.4m0-1.4v.4m-1.2-1.7h-.5m-2.6 1.3h-3m4.2-1.3v.4m0 0l-.2.4m0 0l-.3.2m0 0l-.3.2m0 0l-.4.1m1.3-4.3l-.1 3m0 0h.4m-1.6 1.3l.1.4m38.7 99.6v-.3m0 0v-.4m0 0v-.4m0 0v-.7m0 0v-.7m0 0v-.9m0 0v-1m0 0v-1.1m0 0v-1.3m0 0v-1.3m0 0v-1.4m0 0v-1.5m0 0v-1.7m0 0v-1.7m0 0v-1.7m0 0v-1.7m0 0v-2m0 0v-1.8m0 0v-1.9m0 0v-2m0 0v-1.9m0 0v-1.9m0 0V157m0 0v-1.9m0 0v-1.8m0 0v-1.8m0 0v-1.8m0 0V148m0 0v-1.6m0 0v-1.5m0 0v-1.5m0 0v-1.3m0 0v-1.2m0 0v-1.1m0 0v-1m0 0v-.9m0 0v-.8m0 0v-.6m0 0v-.5m0 0v-.4m0 0v-.2m26.2 47.6v-.2m0 0v-.4m0 0v-.5m0 0v-.6m0 0v-.9m0 0v-.8m0 0v-1m0 0v-1.2m0 0v-1.2m0 0v-1.4m0 0v-1.4m0 0v-1.5m0 0v-1.5m0 0v-1.8m0 0V167m0 0v-1.7m0 0v-1.7m0 0v-1.8m0 0V160m0 0v-1.7m0 0v-1.8m0 0v-1.6m0 0v-1.6m0 0v-1.6m0 0v-1.5m0 0v-1.5m0 0v-1.3m0 0v-1.2m0 0v-1.1m0 0V144m0 0v-1m0 0v-.7m0 0v-.6m0 0v-.5m0 0v-.4m0 0v-.2m0 0v-.1m-27.4-5.1h1.2m-1.2 52.8h1.2m0-47.7h26.2M427.4 183h26.2m-237-107.3l1-1m-4.2.9l3.2-3.2m-5.4 2.3l4.4-4.4m-6.2 2.8l5-4.9m-8.2 4.9l7.1-7.1M203 73.1l9.1-9.1m-12.4 9.1l9.2-9.1m-12.4 9.1l9.1-9m-12.4 9l9.1-8.9m-12.2 8.9l8.8-8.8m-12.1 8.8l8.7-8.8m-11.9 8.8l8.7-8.7m-12 8.7l8.6-8.6m-11.8 8.6l8.5-8.5m-11.7 8.5l8.4-8.4m-11.7 8.4l8.4-8.3m-11.6 8.3l8.3-8.2M165.3 72l7.1-7.1m-8.2 5L169 65m-4.8 1.5l1.5-1.4m46 135l.7-.7m-3.8.6l7.6-7.6m-10.8 7.5l11.7-11.5m-14.8 11.5l11.4-11.4m-14.5 11.3l8.8-8.9m-12 8.8l8.8-8.8m-12 8.7l8.7-8.7m-11.7 8.7l8.5-8.7m-11.8 8.5l8.5-8.5m-11.7 8.5l8.6-8.5m-11.6 8.4l8.3-8.4m-11.5 8.3l8.3-8.3m-11.5 8.2l8.2-8.2m-11.3 8.1l8.1-8.1m-11.2 8.1l8-8.1m-10.8 7.6l7.6-7.6m-8.3 5.1l5-5.1m49.6-7.4l2-2.2m-3.2 1.7l4.2-4.1M217 182l5.5-5.5m-5.5 3.8l6-6m-6 4.4l6.9-6.8m-6.9 5.2l7.4-7.4m-7.4 5.7l7.9-7.9m-7.9 6.3l5.2-5.1m.9-.9l1.4-1.4m.4-.5l.5-.4m-8.4 6.7l3.5-3.5m-3.5 1.9l3.3-3.4m-3.3 1.7l3.3-3.3m-3.3 1.7l3.7-3.6m-3.7 2.1l4.3-4.3m-3.8 2.2l4.3-4.3m-2.5.8l1.7-1.6m-.4-53.1l1.2-1.1m-2 .3l1.7-1.6m3.6-3.7l.4-.4m-6.2 4.7l1.8-1.8m3.8-3.9l.3-.3m-6.5 5l2.1-2.1m2.9-2.9l1.2-1.3m-6.8 5.2l2.3-2.3m2.7-2.6l1.5-1.6m-7 5.5l2.7-2.9m2.4-2.2l1.6-1.6m-7.1 5.4l3.1-3.2m1-.8l2.7-2.8m-7 5.3l6.6-6.5m-6.6 5l6.2-6.3m-6.2 4.6l5.8-5.7M217 93l5.5-5.4m-5.5 3.8l5.1-5.1m-5.1 3.5l4.8-4.7m-4.8 3.1l4.3-4.3m-4.3 2.6l3.8-3.8m-3.8 2.2l3.4-3.4m-3.4 1.8l2.7-2.6m-2.7 1l1.1-1m4.9 84.9l-1.4-1.3m3 1.3l-3-2.9m3.3 1.7l-3.3-3.4m3.3 1.7l-3.3-3.3m3.3 1.8l-3.3-3.3m3.3 1.6l-3.3-3.4m3.3 1.9l-3.3-3.4m3.3 1.8l-3.3-3.4m3.3 1.7l-3.3-3.3m3.3 1.7l-3.3-3.4m3.3 1.8l-3.3-3.4m3.3 1.7l-3.3-3.3m3.3 1.7l-3.3-3.3m3.3 1.7l-3.3-3.3m3.3 1.8l-3.3-3.4m3.3 1.6l-3.3-3.3m3.3 1.8l-3.3-3.3m3.3 1.7l-3.3-3.4m3.3 1.8l-3.3-3.5m3.3 1.8l-3.3-3.3m3.3 1.7l-3.3-3.3m3.3 1.7l-3.3-3.4m3.3 1.8l-3.3-3.4m3.3 1.7l-3.3-3.3m3.3 1.7l-3.3-3.3m3.3 1.7l-3.3-3.4m3.3 1.8l-3.3-3.4m3.3 1.8l-3.3-3.3m3.3 1.6l-3.3-3.3m3.3 1.8l-3.3-3.4m3.3 1.8l-3.3-3.4m3.3 1.7l-3.3-3.3m3.3 1.7l-3.3-3.3m3.3 1.7l-3.3-3.4m3.3 1.8l-3.3-3.4m3.3 1.7l-3.3-3.3m3.3 1.7l-3.3-3.4m3.3 1.9l-3.3-3.4m3.3 1.7l-3.3-3.4m3.3 1.8l-3.3-3.3m3.3 1.7l-3.3-3.3m3.3 1.7l-2.8-3m2.8 1.4l-1.3-1.4m-59.4 92.5h43.9M164.2 73.1h43.9m-43.9-2V193m44.1-6.4V77.4m6.9 109.2h-6.9m6.9-109.2v109.2m-6.9-109.2h6.9M208.3 193h-44.1m44.1-121.9V193M164.4 71.1h44.1M68.2 204V60m96 144h-96m96-144v144m-96-144h96"/><path fill="#D9D9D9" d="M208.4 77.3h6.7v109.4h-6.7V77.3z"/><path fill="none" stroke="#1D1D1B" stroke-width=".283" stroke-miterlimit="3.864" d="M208.4 77.3h6.7v109.4h-6.7V77.3z"/><g clip-rule="evenodd"><path fill="none" stroke="#1D1D1B" stroke-width=".227" stroke-miterlimit="3.864" d="M109 246.2H21.9"/><path fill-rule="evenodd" fill="#1D1D1B" d="M213.7 141.9l2.8 2.9 5.4-8z"/><path fill="none" stroke="#1D1D1B" stroke-width=".283" stroke-miterlimit="3.864" d="M215.1 143.3L109 246.2"/><path fill-rule="evenodd" fill="#1D1D1B" d="M30.6 80h3.9l-2-9zm3.9 103.7h-3.9l1.9 9z"/><path fill="none" stroke="#1D1D1B" stroke-width=".227" stroke-miterlimit="3.864" d="M32.5 80v103.7"/><path fill="none" stroke="#1D1D1B" stroke-width=".283" stroke-miterlimit="3.864" d="M164.1 71.1H30.2m133.9 121.4H30.2"/><path fill="none" stroke="#1D1D1B" stroke-width=".227" stroke-miterlimit="3.864" d="M103.6 47H17.5"/><path fill-rule="evenodd" fill="#1D1D1B" d="M51 86.2h3.9l-2-9zm3.9 91.1H51l1.9 9z"/><path fill="none" stroke="#1D1D1B" stroke-width=".227" stroke-miterlimit="3.864" d="M52.9 86.2v91.1"/><path fill="none" stroke="#1D1D1B" stroke-width=".283" stroke-miterlimit="3.864" d="M207.8 186.1H50.6M207.8 77.4H50.6"/><path fill="none" stroke="#1D1D1B" stroke-width=".227" stroke-miterlimit="3.864" d="M111.2 30.5H17.5"/><path fill-rule="evenodd" fill="#1D1D1B" d="M201 45.4v3.8l9-1.9zm-28.1 3.8v-3.8l-9 1.9z"/><path fill="none" stroke="#1D1D1B" stroke-width=".227" stroke-miterlimit="3.864" d="M201 47.3h-28.1m36.9 22.9V44.9"/><path fill-rule="evenodd" fill="#1D1D1B" d="M172.9 28.3v-3.9l-9 2zm34.7-3.9v3.9l9-1.9z"/><path fill="none" stroke="#1D1D1B" stroke-width=".227" stroke-miterlimit="3.864" d="M172.9 26.4h34.7M164 58V24"/><path fill="none" stroke="#1D1D1B" stroke-width=".283" stroke-miterlimit="3.864" d="M216.4 80.1V24"/><path fill-rule="evenodd" fill="#1D1D1B" d="M211.2 86.3l-2 3.5 9.1 2.9z"/><path fill="none" stroke="#1D1D1B" stroke-width=".283" stroke-miterlimit="3.864" d="M210.2 88l-99-57.5"/><path fill-rule="evenodd" fill="#1D1D1B" d="M110.3 50.6l-2.7 2.8 7.9 4.7z"/><path fill="none" stroke="#1D1D1B" stroke-width=".227" stroke-miterlimit="3.864" d="M108.9 52l-5.3-5"/></g><text transform="translate(17.863 26.274)" font-family="Helvetica,Arial,sans-serif" font-size="12">Filter holder</text><text transform="translate(16.863 43.5)" font-family="Helvetica,Arial,sans-serif" font-size="12">C-mount lens</text><text transform="rotate(-90 101.041 73.84)" font-family="Helvetica,Arial,sans-serif" font-size="12">C-mount thread</text><text transform="rotate(-90 108.55 58.848)" font-family="Helvetica,Arial,sans-serif" font-size="12">max. Ø 23.1</text><text transform="translate(25.672 232)" font-family="Helvetica,Arial,sans-serif" font-size="12">IR cut filter</text><text transform="translate(368.688 236.225)"><tspan x="0" y="0" font-family="Helvetica,Arial,sans-serif" font-size="12">Not to scale</tspan><tspan x="0" y="13.8" font-family="Helvetica,Arial,sans-serif" font-size="11.5">Dimensions in mm</tspan></text><text transform="translate(25.629 243)" font-family="Helvetica,Arial,sans-serif" font-size="8">(color cameras only)</text><text transform="translate(179.997 22.024)" font-family="Helvetica,Arial,sans-serif" font-size="12">10.8</text><text transform="translate(179.384 42.5)" font-family="Helvetica,Arial,sans-serif" font-size="12">9.6</text></svg>