<svg version="1.0" xmlns="http://www.w3.org/2000/svg" viewBox="0 0 500 350"><path fill="none" stroke="#1D1D1B" stroke-width=".709" stroke-miterlimit="3.864" d="M68.2 30.4h399.5v258.9H68.2V30.4z"/><path clip-rule="evenodd" fill="none" stroke="#1D1D1B" stroke-width=".227" stroke-miterlimit="3.864" d="M68.3 55.8H468M68.2 82.1h399.7M68.3 107.9H468M68.2 133.7h399.7M68.3 159.4h399.6M68.3 185.9H468M68.1 211.6h399.7M68.3 237.4H468M68.2 263.1h399.7M134.7 30.3v259.2m66.8-259v259.1m66.9-259.3v259.1m66.1-259.1v259.1m66.7-258.9v259.2"/><g clip-rule="evenodd"><path fill-rule="evenodd" fill="#1D1D1B" d="M352.9 131.1h114.7v67.3H352.9z"/><path fill="none" stroke="#1D1D1B" stroke-width="1.117" stroke-miterlimit="3.864" d="M352.9 131.1h114.7v67.3H352.9z"/></g><g clip-rule="evenodd"><path fill-rule="evenodd" fill="#FFF" d="M349.5 127.9h114.7v67.3H349.5z"/><path fill="none" stroke="#1D1D1B" stroke-width="1.117" stroke-miterlimit="3.864" d="M349.5 127.9h114.7v67.3H349.5z"/></g><path clip-rule="evenodd" fill="none" stroke="#00F" stroke-miterlimit="3.864" stroke-dasharray="12,2,2,2" d="M359.8 142.2h41.4"/><path clip-rule="evenodd" fill="none" stroke="#66B32E" stroke-miterlimit="3.864" stroke-dasharray="2,2" d="M359.8 163.5h41.4"/><path clip-rule="evenodd" fill="none" stroke="red" stroke-miterlimit="3.864" stroke-dasharray="72" d="M359.8 184.9h41.4"/><path fill="none" d="M58.6 294.5h419.8v13.1H58.6z"/><text transform="translate(58.647 306.776)" fill="#1D1D1B" font-family="Helvetica,Arial,sans-serif" font-size="11.6" letter-spacing="1">400 450 500 550 600 650 700</text><path fill="none" d="M46.8 25.2H63v271.2H46.8z"/><text transform="translate(46.757 37.413)"><tspan x="0" y="0" fill="#1D1D1B" font-family="Helvetica,Arial,sans-serif" font-size="11.6">1.0</tspan><tspan x="0" y="25.8" fill="#1D1D1B" font-family="Helvetica,Arial,sans-serif" font-size="11.6">0.9</tspan><tspan x="0" y="51.6" fill="#1D1D1B" font-family="Helvetica,Arial,sans-serif" font-size="11.6">0.8</tspan><tspan x="0" y="77.4" fill="#1D1D1B" font-family="Helvetica,Arial,sans-serif" font-size="11.6">0.7</tspan><tspan x="0" y="103.2" fill="#1D1D1B" font-family="Helvetica,Arial,sans-serif" font-size="11.6">0.6</tspan><tspan x="0" y="129.1" fill="#1D1D1B" font-family="Helvetica,Arial,sans-serif" font-size="11.6">0.5</tspan><tspan x="0" y="154.9" fill="#1D1D1B" font-family="Helvetica,Arial,sans-serif" font-size="11.6">0.4</tspan><tspan x="0" y="180.7" fill="#1D1D1B" font-family="Helvetica,Arial,sans-serif" font-size="11.6">0.3</tspan><tspan x="0" y="206.5" fill="#1D1D1B" font-family="Helvetica,Arial,sans-serif" font-size="11.6">0.2</tspan><tspan x="0" y="232.3" fill="#1D1D1B" font-family="Helvetica,Arial,sans-serif" font-size="11.6">0.1</tspan><tspan x="0" y="258.1" fill="#1D1D1B" font-family="Helvetica,Arial,sans-serif" font-size="11.6">0.0</tspan></text><text transform="translate(228.19 324.83)" font-family="Helvetica,Arial,sans-serif" font-size="12">Wavelength (nm)</text><text transform="translate(411.543 145.712)" fill="#1D1D1B" font-family="Helvetica,Arial,sans-serif" font-size="12">Blue</text><text transform="translate(411.543 166.009)" fill="#1D1D1B" font-family="Helvetica,Arial,sans-serif" font-size="12">Green</text><text transform="rotate(-90 122.486 94.397)" fill="#1D1D1B" font-family="Helvetica,Arial,sans-serif" font-size="12">Relative Response</text><text transform="translate(411.543 187.76)" fill="#1D1D1B" font-family="Helvetica,Arial,sans-serif" font-size="12">Red</text><g fill="none" stroke-miterlimit="3.864"><path stroke="red" d="M468 121.9l-.5.7-2.9 1.3-3.8 1.3-4.4.1-5.4-.6-3.9-1.5-3.4-1.9-3.1-2.5-3.5-3-3-2.6-3.5-2.6-3.4-2.9-3.8-3-3.4-3.1-3.5-4.1-3.3-3.1-3-2.6-3.6-2.9-3.2-2.1-3.7-2.9-3.3-2-3.4-2.5-4.2-2.6-3.6-1.9-3.5-2.1-3.8-1.1-3.1-1.5-4.3-2.8-4-2.1-3-2.3-3.8-2.4-3.8-2.1-4.4-3.1-4.1-2.3-3.6-2.4-3.9-1.9h-3l-4.5 1.5-3.6 5-3.3 7-2.3 7.8-2.3 8.1-1.5 6.6-1.6 7.4-1.4 8-1.4 7.8-1.5 9.6-1.5 9.8-1.5 10.6-1.8 10.9-1.9 11.3-1.5 12.3-2 11.9-1.4 9.8-1 6.1-1.1 8.4-1.8 8.5s-1.4 8.3-1.4 8.7-1.5 7.6-1.5 7.6l-1.1 6.6-1.7 6.6-1.4 5.3-1.8 5.8-1.5 5.1-1.6 4.1-1.8 3.6-3.5 3.1-5 1.4h-4.5l-9.5-1.4-6-1.7-10.4-3.3-5.8-1.1-5.9.3-5.6.5-5.8 2.3-5.5 2.3-7 2.7-7.2 2.2-8.5 1.2-8.3.8-8.7.5-8.7.7-7 1-8.8 1H131l-7-.8-6.7-1-5.5-.8-5.8-1.2-5.8-1.3-4.3-1.3-6-1.8-5.5-2.3-5.2-2.5-5.3-2.5-4.7-2.8-.8-.5"/><path stroke="#00F" stroke-dasharray="12,2,2,2" d="M468.3 268.4H466l-3.7.3-4.8.5-5.8.6-7.7.5-5.7.6-5.7.8-6.5.8-6.3 1.3-6.9 1.1-7.2 1.3-7.3 1.6-7.6 1.4-9.2 1.6-7.6.9-7.9.5-7.5.4h-9.2l-8.1-.8-6.8-.5-7.1-.6-7.3-.9-7.1-.6-6.7-.5-6-.8-6.6-1-4.9-1.3-5.2-1.7-5.8-2.5-3.1-1.8-5.1-2.8-6-3.8-4.2-2.8-4.6-2.9-5-4.4-4.9-3.8-4.3-4.4-3.6-4.1-4.1-5.4-2.4-3.6-3.3-5.3-3.1-6.3-2.9-5.8-2.6-5.8-3.8-7.2-2.4-5.9-1.5-5-2-5.3-1.6-4.8-2.2-5.6-2.3-5.7-2.1-4.9-1.8-4.4-2-4.9-2.2-5.5-2.1-4.8-2.1-5.1-2.8-6.1-2.3-4.9-1.8-4.2-2.2-4.7-2.3-4.2-2.3-3.8-2.3-3.8-2.4-4.2-2.5-3.2-3.4-4.3-2.9-2.7-2.6-2.3-3.3-2.3s-3.9-2.6-4.2-2.6-2.9-1.2-2.9-1.2l-4.5-1.3h-4.4l-4.6 1.1-4.6 2.1-4.3 2.8-4.7 3.8-4.8 5.5-4 5-4.5 6.3-4.1 5.8-4.3 6-4.3 5.5-4.1 4.7-4.8 7-4 5.6-3.4 5.4-3.3 5.6-3.1 6-2.9 6.1-3.3 6.6"/><path stroke="#66B32E" stroke-dasharray="2,2" d="M69.2 270.7l6.8 2.5 6.4 1.6 7.1 2 6.8 1.2 6.6 1.3h8.7l8.7-1.6 5.2-1 6.6-1.7 5.4-2.5 5.1-4.2 4.4-6.4 3.5-7.2 3-9 2.4-9.3 2.1-8.4 2.1-10.5 2-9.1 2.7-13.1 2.8-14.3 2-11.8 2.4-13 2.6-11.8 1.8-9.6 1.9-9.1 2.5-12.9 2.6-10.9 2.5-10.5 2.6-8.1 3.1-8.8 3-8 3.8-7.5 4.9-8.2 5.6-6.9 7-6.1 6.5-3.6 5.8-2.3 8.6-.6h8.5l7.5 1 6.5 2.6 5.1 3.6 6.5 5.7 4.5 4.5 4.4 4.6 3.6 4.4 3.7 4.5 3.9 5 3 4 3.6 5 3.2 4.3 3.3 5.9 3.7 6 2.3 5 3 6.1 4.2 9.7 3.2 8.7 2.9 6.9 3.4 9.7 2.5 7.7 2.2 6.7 2.8 8.1 2.8 7.2 2.7 8.6 4.6 12.1 3.4 8.4 2.7 6.6 3.5 6.8 3.5 6.2 3.5 5.6 4.3 5.8 4.8 5.6 3.5 2.8 4.9 3.5 4.9 2.8 5.9 3 5.7 2.3 5.1 1.6 5.7 1 6.1.5 5.9-.6 6.3-1.4 4.9-2.4 4.9-3 5.6-3.7 5.5-3.9 5.5-4.4 4.8-4.1 4.3-3.7 3.9-3.3 3.5-2.9"/></g></svg>