<svg version="1.1" id="Layer_1" xmlns="http://www.w3.org/2000/svg" x="0" y="0" viewBox="0 0 440 180" xml:space="preserve"><style>.st0,.st2{fill:none;stroke:#000;stroke-width:.283;stroke-linecap:round;stroke-linejoin:round;stroke-miterlimit:10}.st2{stroke-width:.238}.st5{font-family:Helvetica,Arial,sans-serif}.st6{font-size:14px}</style><path class="st0" d="M201.5 158.2V24.9M15.7 163h181m0-142.9h-181m0 1h181m-181 0c-2.1 0-3.8 1.7-3.8 3.8"/><path d="M11.9 158.2V24.9m-1 0v133.3" fill="none" stroke="#000" stroke-width=".283" stroke-miterlimit="3.864"/><path class="st2" d="M11.9 158.2c0 2.1 1.7 3.8 3.8 3.8"/><path class="st0" d="M196.7 162.1h-181m181 0c2.1 0 3.8-1.7 3.8-3.8m0-133.4v133.3m0-133.3c0-2.1-1.7-3.8-3.8-3.8M165 53.2c0-16.5-13.3-29.8-29.8-29.8s-29.8 13.3-29.8 29.8S118.7 83 135.2 83 165 69.7 165 53.2z"/><path class="st0" d="M166 53.2c0-17-13.8-30.8-30.8-30.8s-30.8 13.8-30.8 30.8S118.2 84 135.2 84 166 70.2 166 53.2zM63.3 143h85.8m0-1H63.3m-9.5-8.5c0 5.3 4.3 9.5 9.5 9.5m-8.6-9.5c0 4.7 3.8 8.6 8.6 8.6M53.8 112v21.5m.9 0V112m8.6-9.5c-5.3 0-9.5 4.3-9.5 9.5m9.5-8.5c-4.7 0-8.6 3.8-8.6 8.6m94.4-9.6H63.3m0 1h85.8m9.5 8.5c0-5.3-4.3-9.5-9.5-9.5m8.5 9.5c0-4.7-3.8-8.6-8.6-8.6m9.6 30.1V112m-1 0v21.5m-8.5 9.5c5.3 0 9.5-4.3 9.5-9.5m-9.5 8.5c4.7 0 8.6-3.8 8.6-8.6m-23.9-18.3H78.6m60 4.8c0-2.6-2.1-4.8-4.8-4.8m4.8 10.5v-5.7m-4.8 10.5c2.6 0 4.8-2.1 4.8-4.8m-57.9 4.8h53.1M77.4 129c.9.9 2.1 1.4 3.4 1.4m-5.6-3.6l2.2 2.2m-3.6-5.5c0 1.3.5 2.5 1.4 3.4m-1.4-7v3.6m4.8-8.4c-2.6 0-4.8 2.1-4.8 4.8m4.8-3.8h55.2m3.8 3.8c0-2.1-1.7-3.8-3.8-3.8m3.8 3.8v5.7m-3.8 3.8c2.1 0 3.8-1.7 3.8-3.8m-3.8 3.8H80.7m-2.7-1.1c.7.7 1.7 1.1 2.7 1.1m-2.7-1.1l-2.1-2.1m-1.1-2.7c0 1 .4 2 1.1 2.7m-1.1-2.7v-3.6m3.8-3.8c-2.1 0-3.8 1.7-3.8 3.8"/><path class="st0" d="M162.3 53.2c0-15-12.2-27.2-27.2-27.2s-27.2 12.2-27.2 27.2 12.2 27.1 27.2 27.1c15.1 0 27.2-12.1 27.2-27.1zm-7.5 69.5c0-3.2-2.6-5.7-5.7-5.7s-5.7 2.6-5.7 5.7 2.6 5.7 5.7 5.7 5.7-2.5 5.7-5.7zm-85.8 0c0-3.2-2.6-5.7-5.7-5.7-3.2 0-5.7 2.6-5.7 5.7s2.6 5.7 5.7 5.7c3.2.1 5.7-2.5 5.7-5.7z"/><path class="st0" d="M152.8 122.7c0-2.1-1.7-3.7-3.7-3.7-2.1 0-3.7 1.7-3.7 3.7 0 2.1 1.7 3.7 3.7 3.7 2 .1 3.7-1.6 3.7-3.7zm-85.8 0c0-2.1-1.7-3.7-3.7-3.7-2.1 0-3.7 1.7-3.7 3.7 0 2.1 1.7 3.7 3.7 3.7 2.1.1 3.7-1.6 3.7-3.7zM15.7 20.1c-2.6 0-4.8 2.1-4.8 4.8"/><path class="st2" d="M10.9 158.2c0 2.6 2.1 4.8 4.8 4.8"/><path class="st0" d="M196.7 163c2.6 0 4.8-2.1 4.8-4.8m0-133.3c0-2.6-2.1-4.8-4.8-4.8m-38.3 70.8c0-2.6-2.1-4.8-4.8-4.8-2.6 0-4.8 2.1-4.8 4.8 0 2.6 2.1 4.8 4.8 4.8 2.6-.1 4.8-2.2 4.8-4.8z"/><path class="st0" d="M156.5 90.9c0-1.6-1.3-2.9-2.9-2.9-1.6 0-2.9 1.3-2.9 2.9s1.3 2.9 2.9 2.9c1.6-.1 2.9-1.4 2.9-2.9zM108 53.4c0 1.3.7 2.4 1.7 3.1m.1-6.6c-1.1.7-1.7 1.9-1.7 3.1m-32.8 72h-.2m62.5 1h-.5m-1.7 0h-.3m16-36.5l2.6-1.5m2.3 4.5l-2.2 1.2m-18.7 35.5H132m-6.7 0h-.3m-6.6 0h-13.5m-22.8 0h-2.7m27.7-.2h4.8m-4.8.2v-.2m4.8.2v-.2m-31.9.1v.1m52.4 0v-.4m2.9-4.9c-.1 0-.1 0 0 0m0 0h-.1m2.4 1.3c-.2-.3-.4-.5-.6-.7m-1.6-.6h-.1m-60 .6l-.3.3m60.1 4.4H132m-6.7 0h-.3m-6.6 0h-13.5m-22.8 0h-2.7m45.8-6.9h-10.5m10.5 0v-.7m-11.2 0h11.2m-38.1 0h24.5m-24.5 0v.7m23.7 0H87.1m22.2 1.6l-2.6 2.8m2.6-2.8l1.8-2m1.6-.7c-.6 0-1.2.2-1.6.7m25.6.7c.4 0 .6-.4.6-1m.3 1h-.9m.6-1.9v1m-4.9 7.1c-.3 0-.5.1-.5.3m-6.6-1c0 .3.4.5.9.5m-.9-.5v1.3m-6.9-.3c0-.2-.2-.3-.5-.3m.5-.7c0 .3.4.5 1 .5m-1-.5v1.3m-35.4-.9h21m.9-.4v1.3m-.9-.9c.5 0 1-.2 1-.5m-29.3-5.4h-.9m.3-.9c0 .5.3 1 .6 1m57.7-6.3c0 .1.2.3.5.3m-55.4 0c.3 0 .5-.1.5-.3m54.4 1c0-.3-.4-.5-1-.5m1-.8v1.3m-53.5-.5h52.6m.9 1.2v-.7m0 .9v-.2m-54.4.2v-.2m0 .2s-.1 0 0 0c-.1 0-.1 0 0 0-.1 0-.1 0 0 0-.1 0-.1 0 0 0-.1 0-.1 0 0 0m54.9 0H78.5m55.4 0s-.1 0 0 0h-.3m-21.3 0s-.1 0 0 0h-.4m23.5 1.5c0-.8-.6-1.4-1.4-1.4m-55.6-.1c-.8 0-1.4.6-1.4 1.4m34.6-1.2v1.3m0 0v.2m-1.3 2.9h-3.5m0-.6v.6m0-3.1v.2m0-1.5v1.3m30.3 0c0-1.7-1.4-3.1-3.1-3.1m-27.2 1.8c0-.1 0-.1 0 0l-.2-.1h-.2m-27.4-.3v-.7m0-1.3v1.3m2.3 11.6c.2 0 .4 0 .6-.1m54.8-9.1h.9m-.3.9c0-.5-.3-1-.6-1m-56.8-2.8c-.5 0-.9.2-.9.5m56.4 2.4h.5m.8 0h-.8m.8 2.8h-.8m-.5 0h.5M77 126c0 .8.6 1.4 1.4 1.4m-3.1-4.4v2.5m2.5-6.9c-.4.3-.6.7-.6 1.2m1.4-1.5h-.7m-.7 1.5v3.9m56.7 3.5c.8 0 1.4-.6 1.4-1.4m-20.3-2.4c0-1.2-1-2.1-2.1-2.1m-32.3 7.8h.7m.1-.1l.2-.1m0 0c.1-.1.1-.1 0 0 .1-.1.1-.1 0 0 .1-.1.1-.1 0 0m33.4-5.5v2.3m0 0c0 .8.6 1.4 1.4 1.4m-3.1-1.4c0 1.7 1.4 3.1 3.1 3.1m-3.1-5.4c0-.3-.2-.5-.5-.5m21.1 5.9h-1.5m-7.4 0h.3m-7.4 0h-1.5m1.5-1.6h-1.5m1.5 0h7.1m0 0h.3m0 0h7.1m1.5 0h-1.5m.6 1.6c.1 0 .1 0 0 0 .1 0 .1 0 0 0h.1m0 .1l.2.1m.2.1c-.1 0-.1 0 0 0-.1-.1-.1-.1 0 0h-.1m.1 0h.4m0 0h.2m.5.1c-.1-.1-.3-.1-.4-.1m2.1-.6l-.4-.4m-.5-8.3v2.8m-10.4 5.5v1.3m0-2v-.2m0 .2v.7m.3-.7v.7m0-.7v-.2m6.7.2v-.2m0 .2v.7m0 0v1.3m0-2.2l.1-.1m-5.9 1.4h4.8m0 0c.5 0 1-.2 1-.5m1.9.8c1.7 0 3.1-1.4 3.1-3.1m-12.9 2.8h-4.8m-.9-1.1v.7m0-.7v-.2m-.5 0s.1 0 0 0h.2m6 1.3c.5 0 1-.2 1-.5m-12.4-5.1c-.1 0-.3.1-.3.2m-6.7 4.1c.4 0 .8-.2 1.1-.5m-.2-3.6h3.5m-3.7.2l.2-.2m3.2.2h-3.4m.2-.2v-.8m0-2.3v-1.6m-.2 1.6v-1.4m-22.4 2l2-2m-3.5 2H84m-3.5-2l2 2m23.9 2.7v-1m29 .3v3.1m1.7-3.1v3.1m-61.8-3.1v.4m1.7-.4v-2.8m-.5 0h.5m-.5 2.8h.5m-1.3-2.8c-.3 0-.6.4-.6 1m-.3-1h.9m0 2.8h.8m.5 0v.4m1.4-6.3c-1.7 0-3.1 1.4-3.1 3.1m61.8 5.9v1.9m-56.9-.9l-2.8-2.7m-2.3-3.3v1m.6-1.9h.8m34 5.2l1.9-1.9m-37.1-.1c0 .8.3 1.6.9 2.2m2.8 2.7l-2.7-2.7m3.9 1.5c.3.3.6.4 1 .4m24.5 1.7h-.3m-23.8 0h-.4M77 123c0 .4.2.7.4 1m1.6 3.9c.6.6 1.4.9 2.2.9m-2.8-1.4c-.4 0-.8.1-1.1.2m28.1 1.2c-.3 0-.5.1-.5.3m0-1.9s.1 0 0 0c.1 0 .1 0 0 0 .1 0 .1 0 0 0l.2-.1m-23 2c0-.2-.2-.3-.5-.3m.5-1.4v.7m0 0c0 .3.4.5 1 .5m21.8-1.2v.7m-22.8 0v1.3m0-2v-.2m-.5 0h.2m-.2 0h23.8m-.5.2v-.2m8.4-3.8v2.3m-31.7 1.5h-.4m-.6 1.9h-1.5m26.6-1.9h-.3m.3 1.6c.9 0 1.7-.4 2.3-1m1-3.5l.2.1m-.2-.1c0-.1 0-.1 0 0 0-.1 0-.1 0 0 0-.1 0-.1 0 0m-2.3 2.4s.1-.1 0 0m.4-.3l.2.1m.5.6l1 .9m-1-.9l-.5-.6m3.2-1.5c-.2.2-.2.5-.1.6m.1 1.4c.4-.4.5-.9.2-1.1m-.8 1.8l.6-.7m-1.7 1c.2.2.7.1 1-.3m-1.3 0c-.1-.1-.4-.1-.6.1m1.9-2.8l-.6-.6m.6.6l1 .9m-1.9.8l.6-.7m0 0c.4-.4.5-.9.2-1.1m-1.9 2.2c.2.2.7.1 1-.3m25.2.3c.7-.3 1.2-1 1.2-1.8m0-5.5v5.6m0-5.6c0-.5-.2-.9-.6-1.2m-22.5 1.4v-1.4m-34.6 7.8c.2.3.4.5.6.6m7.9-8.4l.2-.3m-5.9 0l.2.3m26-.3c-.1 0-.2.1-.2.2m5.8.1c0-.1-.1-.2-.2-.2"/><path class="st0" d="M134.6 118.6s-.1 0 0 0c-.1-.1-.1-.1 0 0l-.1-.1h-.6m-22.1-.2v1.7m0-.2h-.2m-4.8 0h-.2m7.1 7.5h-3.5m22 1.9v-.3m-45.1-7.3h24.5m2.4 0h11.2M87.1 120v1.6m38.1-1.6H87.1m38.1 1.6V120m13.4-83.8V39m-5.7 0v-2.8m5.7 2.8h-5.7m0 31.2v-2.8m5.7 0v2.8m-5.7-2.8h5.7M153 53.2c0-9.5-7.7-17.3-17.3-17.3s-17.3 7.7-17.3 17.3c0 9.5 7.7 17.3 17.3 17.3S153 62.7 153 53.2z"/><path d="M144.5 57.5c0-.7-.6-1.3-1.3-1.3s-1.3.6-1.3 1.3.6 1.3 1.3 1.3 1.3-.6 1.3-1.3h0zm0-8.6c0-.7-.6-1.3-1.3-1.3s-1.3.6-1.3 1.3.6 1.3 1.3 1.3 1.3-.6 1.3-1.3h0zm-7.4-4.3c0-.7-.6-1.3-1.3-1.3s-1.3.6-1.3 1.3.6 1.3 1.3 1.3 1.3-.6 1.3-1.3h0zm-7.5 4.3c0-.7-.6-1.3-1.3-1.3s-1.3.6-1.3 1.3.6 1.3 1.3 1.3c.7 0 1.3-.6 1.3-1.3h0zm0 8.6c0-.7-.6-1.3-1.3-1.3s-1.3.6-1.3 1.3.6 1.3 1.3 1.3c.7 0 1.3-.6 1.3-1.3h0zm7.5 4.3c0-.7-.6-1.3-1.3-1.3s-1.3.6-1.3 1.3.6 1.3 1.3 1.3 1.3-.6 1.3-1.3h0z" fill="#1d1d1b" stroke="#000" stroke-width=".283" stroke-linecap="round" stroke-linejoin="round" stroke-miterlimit="10"/><path class="st0" d="M162 53.2c0-14.5-11.7-26.2-26.2-26.2s-26.2 11.7-26.2 26.2 11.7 26.2 26.2 26.2c14.4 0 26.2-11.7 26.2-26.2z"/><path class="st0" d="M156.8 53.2c0-11.6-9.4-21.1-21.1-21.1-11.7 0-21.1 9.4-21.1 21.1 0 11.6 9.4 21.1 21.1 21.1s21.1-9.5 21.1-21.1zm39.9-32.1v-1m-181 0v1m-4.8 3.8h1m-1 133.3h1m3.8 4.8v-.9m181 .9v-.9m4.8-3.9h-1m1-133.3h-1M63.3 142v1m85.8 0v-1m-94.4-8.5h-.9m.9-21.5h-.9m9.5-8.5v-1m85.8 1v-1m8.5 9.5h1m-1 21.5h1m-24.8-17.4v-1m-55.2 0v1m59 3.8h1m-1 5.7h1m-4.8 3.8v1m-53.1-1v1m-2.7-2.1l-.6.7m-1.5-2.8l-.7.6m-.4-3.3h-1m1-3.6h-1m63.8 1.8h-.3m0-1h.3m-11.4 7.8v.9m-6.9-.9v.9m-15.3-.9v.9m-21-.9v.9m-7.9-7.7h-.3m57.7-5.6v.8m-52.6-.8v.8m-.9 1.2h54.4m-21.8 1.7h-4.8m27.1-3.1v1.6m-55.4-1.6v1.6m57.4 1.5v2.8m-55.3 6.2v.3m53.6-.3v.3m-1.8-.3v-1.6m-7.1.2h6.7m-1 1.1v.9m-6.9-.9v.9m-6.2-2.2v1.6m7.1-1.4h-6.6m-12-8.8H86m-5.5 0h-2.7m59.3 9h-.7m-59.9-7.8v2.8m-1.7-1.9h.3m30.3 6.5v1.6m-.5-1.4H82.1m-.5-.2v1.6m25.1-2.1l1.2 1.1m1.4-3.9l1.2 1.1m-3.2 1.5l1.9-2.1m.3 1.6l1 1m-1.6-.3l1 1m24.7-9.1h-22.5"/><path d="M15.7 163h0m0 0h0m-4.8-4.8h0m0 0h0" fill="none" stroke="#000" stroke-width=".227" stroke-linecap="round" stroke-linejoin="round" stroke-miterlimit="10"/><text transform="translate(246.934 48.651)" class="st5 st6">I/O connector</text><text transform="translate(246.934 65.451)" class="st5 st6">(6-pin connector)</text><text transform="translate(246.934 94)" class="st5 st6">Status LED</text><text transform="translate(246.934 129.393)" class="st5 st6">USB 3.0 Micro-B connector</text><path d="M154.7 90.4h83M136.5 53.8h101.2m-108.9 70.4h108.9" fill="none" stroke="#000" stroke-miterlimit="10"/></svg>