<svg version="1.0" xmlns="http://www.w3.org/2000/svg" viewBox="0 0 450 260"><path clip-rule="evenodd" fill="none" stroke="#000" stroke-width=".283" stroke-linecap="round" stroke-linejoin="round" stroke-miterlimit="10" d="M242.2 64.3l.1 4.9 4.9 109.2-3.8.3-1.6.4-1 .7V63.7m0 4.9l1.5.6m-1.5-5.5l1.4.6m105.9 139.8h20.3m-4.8 0v-.5m4.8.5v-.5m-127.6.5h107.3v-20.8m0 15.9H240.8m0 0v4.9m0-4.9h-.1m.1-19.4l107.3 3.8m-107.3-3.8v19.4m6.4-22.6l100.9 4.6m0 2.1v-.5l1.2-3.4.3-3.3m-1.5 22.8h1.5"/><path clip-rule="evenodd" fill="none" stroke="#000" stroke-width=".283" stroke-linecap="round" stroke-linejoin="round" stroke-miterlimit="10" d="M349.6 176.1v22.8c.1 1.8-.1 2.8-.2 4.4v.3H348m1.6-27.5h-1.5m0 6.7v-6.7m22.7 22.8h-21.2m2.7-130.3l18.5.6m-21.3 134.4h21.3m0-139.2l-18.5-.5m18.5.5l.2.4v.4c.1 1.7-.1 2.5-.2 4v134.4m1.6-137.8v136.4"/><path clip-rule="evenodd" fill="none" stroke="#000" stroke-width=".283" stroke-linecap="round" stroke-linejoin="bevel" stroke-miterlimit="10" d="M372.2 65.8l-.3-1-1.1-.4"/><path clip-rule="evenodd" fill="none" stroke="#000" stroke-width=".283" stroke-linecap="round" stroke-linejoin="round" stroke-miterlimit="10" d="M372.4 69.2h-1.6m1.6 129.7h-1.6"/><path clip-rule="evenodd" fill="none" stroke="#000" stroke-width=".283" stroke-linecap="round" stroke-linejoin="bevel" stroke-miterlimit="10" d="M370.8 203.6l1.1-.3.3-1.1"/><path clip-rule="evenodd" fill="none" stroke="#000" stroke-width=".283" stroke-linecap="round" stroke-linejoin="round" stroke-miterlimit="10" d="M352.3 68.6v15.8c-.2 3.8-2.7 3.8-2.6 6.1v85.6m1.3-91.7V68.6m-2.9 107.5V90.5m0 0h1.5m1.4-6.1h1.3m-2.5 2.8l1.1.9m-1.6-.4l.9 1.1m.8-20.2v-4.3m1.3 4.3v-4.7l-1.3.4m0 4.3h1.3"/><path clip-rule="evenodd" fill="none" stroke="#000" stroke-width=".283" stroke-linecap="round" stroke-linejoin="bevel" stroke-miterlimit="10" d="M350 87.2l.7-1.4.3-1.4"/><path clip-rule="evenodd" fill="none" stroke="#000" stroke-width=".283" stroke-linecap="round" stroke-linejoin="round" stroke-miterlimit="10" d="M349.3 87.7l.5-.5"/><path clip-rule="evenodd" fill="none" stroke="#000" stroke-width=".283" stroke-linecap="round" stroke-linejoin="bevel" stroke-miterlimit="10" d="M349.1 87.7l-.7 1.4-.3 1.4"/><path clip-rule="evenodd" fill="none" stroke="#000" stroke-width=".283" stroke-linecap="round" stroke-linejoin="round" stroke-miterlimit="10" d="M372.4 65.8v.6l.7.7.3.1h.4V128m0-60.8l-.5-1.4-.4-.5"/><path clip-rule="evenodd" fill="none" stroke="#000" stroke-width=".283" stroke-linecap="round" stroke-linejoin="bevel" stroke-miterlimit="10" d="M373.8 128l-1.1.3-.3 1.1m-.4-64.6l1.1.5"/><path clip-rule="evenodd" fill="none" stroke="#000" stroke-width=".283" stroke-linecap="round" stroke-linejoin="round" stroke-miterlimit="10" d="M377.1 127.8V65.5m1.1.9v60.5"/><path clip-rule="evenodd" fill="none" stroke="#000" stroke-width=".283" stroke-linecap="round" stroke-linejoin="bevel" stroke-miterlimit="10" d="M378 66.4l-.2-.6-.7-.3m0 62.3l.7-.3.2-.6"/><path clip-rule="evenodd" fill="none" stroke="#000" stroke-width=".283" stroke-linecap="round" stroke-linejoin="round" stroke-miterlimit="10" d="M375.2 147.8V187"/><path clip-rule="evenodd" fill="none" stroke="#000" stroke-width=".283" stroke-linecap="round" stroke-linejoin="bevel" stroke-miterlimit="10" d="M374.3 187.8l.7-.3.2-.5"/><path clip-rule="evenodd" fill="none" stroke="#000" stroke-width=".283" stroke-linecap="round" stroke-linejoin="round" stroke-miterlimit="10" d="M374.3 187.8v-9.6h.9m-.9 0v-21.7h.9"/><path clip-rule="evenodd" fill="none" stroke="#000" stroke-width=".283" stroke-linecap="round" stroke-linejoin="bevel" stroke-miterlimit="10" d="M375.2 147.8l-.2-.6-.7-.3"/><path clip-rule="evenodd" fill="none" stroke="#000" stroke-width=".283" stroke-linecap="round" stroke-linejoin="round" stroke-miterlimit="10" d="M374.3 156.5v-9.8"/><path clip-rule="evenodd" fill="none" stroke="#000" stroke-width=".283" stroke-linecap="round" stroke-linejoin="bevel" stroke-miterlimit="10" d="M373.3 188l-.7.4-.2.5"/><path clip-rule="evenodd" fill="none" stroke="#000" stroke-width=".283" stroke-linecap="round" stroke-linejoin="round" stroke-miterlimit="10" d="M373.3 188v-9.8h-.9m.9 0v-21.7h-.9"/><path clip-rule="evenodd" fill="none" stroke="#000" stroke-width=".283" stroke-linecap="round" stroke-linejoin="bevel" stroke-miterlimit="10" d="M372.4 145.8l.2.6.7.3"/><path clip-rule="evenodd" fill="none" stroke="#000" stroke-width=".283" stroke-linecap="round" stroke-linejoin="round" stroke-miterlimit="10" d="M373.3 146.7v9.8m1-9.8h-1m1 9.8h-1m1 21.7h-1m1 9.6l-1 .2m3.8-60.2l-3.3.2m3.3-62.5l-4.2-.2M351 83.9V69.2m-1.7 18l.5-.5"/><path clip-rule="evenodd" fill="none" stroke="#000" stroke-width=".283" stroke-linecap="round" stroke-linejoin="bevel" stroke-miterlimit="10" d="M349.1 87.2l-.7 1.4-.3 1.4m1.9-3.3l.7-1.4.3-1.4"/><path clip-rule="evenodd" fill="none" stroke="#000" stroke-width=".283" stroke-linecap="round" stroke-linejoin="round" stroke-miterlimit="10" d="M348.1 138V90m0 86.1v-8.4M242.3 69.2H351M247.1 171.6l101 4.7m-100.9 0l100.9 4.5M242.2 64.3H351M242.9 80h9.2v-4.2h-9.4m9.4 29.8v-4.2"/><path clip-rule="evenodd" fill="none" stroke="#000" stroke-width=".283" stroke-linecap="round" stroke-linejoin="bevel" stroke-miterlimit="10" d="M252.1 105.4l2.6-.2c16.1-3.7 16.1-25.3 0-29.1l-2.6-.2"/><path clip-rule="evenodd" fill="none" stroke="#000" stroke-width=".283" stroke-linecap="round" stroke-linejoin="bevel" stroke-miterlimit="10" d="M252.1 101.2l2.1-.2c11.2-2.7 11.2-18 0-20.7l-2.1-.2"/><path clip-rule="evenodd" fill="none" stroke="#000" stroke-width=".283" stroke-linecap="round" stroke-linejoin="round" stroke-miterlimit="10" d="M244.1 105.6h8m0-4.2h-8.2m-.2-.4h8.4"/><path clip-rule="evenodd" fill="none" stroke="#000" stroke-width=".283" stroke-linecap="round" stroke-linejoin="bevel" stroke-miterlimit="10" d="M252.1 101l2.1-.2c11-2.7 11-17.6 0-20.3l-2.1-.2"/><path clip-rule="evenodd" fill="none" stroke="#000" stroke-width=".283" stroke-linecap="round" stroke-linejoin="round" stroke-miterlimit="10" d="M252.1 80.4h-9.2m105.2 83.1h-8.6v4.2h8.6m-8.6-29.7v4.2"/><path clip-rule="evenodd" fill="none" stroke="#000" stroke-width=".283" stroke-linecap="round" stroke-linejoin="bevel" stroke-miterlimit="10" d="M339.5 138.1l-2.6.2c-16.1 3.7-16.1 25.3 0 29.1l2.6.2"/><path clip-rule="evenodd" fill="none" stroke="#000" stroke-width=".283" stroke-linecap="round" stroke-linejoin="bevel" stroke-miterlimit="10" d="M339.5 142.3l-2.1.2c-11.2 2.7-11.2 18 0 20.7l2.1.2"/><path clip-rule="evenodd" fill="none" stroke="#000" stroke-width=".283" stroke-linecap="round" stroke-linejoin="round" stroke-miterlimit="10" d="M348.1 138h-8.6m0 4.2h8.6m0 18.9h-8.6v2.1h8.6m-8.6-18.6v-2.1"/><path clip-rule="evenodd" fill="none" stroke="#000" stroke-width=".283" stroke-linecap="round" stroke-linejoin="bevel" stroke-miterlimit="10" d="M339.5 142.5l-2.1.2c-11 2.7-11 17.6 0 20.3l2.1.2"/><path clip-rule="evenodd" fill="none" stroke="#000" stroke-width=".283" stroke-linecap="round" stroke-linejoin="bevel" stroke-miterlimit="10" d="M339.5 144.6l-1.9.2c-8.5 2.4-8.5 13.7 0 16.1l1.9.2"/><path clip-rule="evenodd" fill="none" stroke="#000" stroke-width=".283" stroke-linecap="round" stroke-linejoin="round" stroke-miterlimit="10" d="M348.1 142.5h-8.6m0 2.1h8.6m-96-43.6v-2.1h-8.4m8.4-18.5v2.1"/><path clip-rule="evenodd" fill="none" stroke="#000" stroke-width=".283" stroke-linecap="round" stroke-linejoin="bevel" stroke-miterlimit="10" d="M252.1 98.9l1.9-.2c8.5-2.4 8.5-13.7 0-16.1l-1.9-.2"/><path clip-rule="evenodd" fill="none" stroke="#000" stroke-width=".283" stroke-linecap="round" stroke-linejoin="round" stroke-miterlimit="10" d="M243 82.5h9.1m0 18.5v.4m0-21V80m87.4 83.2v.3m0-21v-.3m-95.4-36.6l3 66m-4.8-102.4l.4 6.6m154.7-.5v.3H382v-.3m0 42.7v-.3h15.4v.3m-18-48v53.3m26.2-48V118m-27.4-48h1.2m-1.2 53.3h1.2m0-48h2.6m15.4 0h8.2M379.4 118h2.6m15.4 0h8.2M256.2 89.8h.7"/><path clip-rule="evenodd" fill="none" stroke="#000" stroke-width=".283" stroke-linecap="round" stroke-linejoin="bevel" stroke-miterlimit="10" d="M256.2 91.6v-1.8"/><path clip-rule="evenodd" fill="none" stroke="#000" stroke-width=".283" stroke-linecap="round" stroke-linejoin="round" stroke-miterlimit="10" d="M256.9 91.6h-.7"/><path clip-rule="evenodd" fill="none" stroke="#000" stroke-width=".283" stroke-linecap="round" stroke-linejoin="bevel" stroke-miterlimit="10" d="M256.9 91.6v-1.8"/><path clip-rule="evenodd" fill="none" stroke="#000" stroke-width=".283" stroke-linecap="round" stroke-linejoin="round" stroke-miterlimit="10" d="M251.3 86.7V86"/><path clip-rule="evenodd" fill="none" stroke="#000" stroke-width=".283" stroke-linecap="round" stroke-linejoin="bevel" stroke-miterlimit="10" d="M253 86.7h-1.7"/><path clip-rule="evenodd" fill="none" stroke="#000" stroke-width=".283" stroke-linecap="round" stroke-linejoin="round" stroke-miterlimit="10" d="M253 86l-.2.7"/><path clip-rule="evenodd" fill="none" stroke="#000" stroke-width=".283" stroke-linecap="round" stroke-linejoin="bevel" stroke-miterlimit="10" d="M253 86h-1.7"/><path clip-rule="evenodd" fill="none" stroke="#000" stroke-width=".283" stroke-linecap="round" stroke-linejoin="round" stroke-miterlimit="10" d="M247.9 91.6h-.5"/><path clip-rule="evenodd" fill="none" stroke="#000" stroke-width=".283" stroke-linecap="round" stroke-linejoin="bevel" stroke-miterlimit="10" d="M248.1 89.8v1.8"/><path clip-rule="evenodd" fill="none" stroke="#000" stroke-width=".283" stroke-linecap="round" stroke-linejoin="round" stroke-miterlimit="10" d="M247.4 89.8h.5"/><path clip-rule="evenodd" fill="none" stroke="#000" stroke-width=".283" stroke-linecap="round" stroke-linejoin="bevel" stroke-miterlimit="10" d="M247.4 89.8v1.8"/><path clip-rule="evenodd" fill="none" stroke="#000" stroke-width=".283" stroke-linecap="round" stroke-linejoin="round" stroke-miterlimit="10" d="M252.8 94.7l.2.7"/><path clip-rule="evenodd" fill="none" stroke="#000" stroke-width=".283" stroke-linecap="round" stroke-linejoin="bevel" stroke-miterlimit="10" d="M251.3 94.7h1.7"/><path clip-rule="evenodd" fill="none" stroke="#000" stroke-width=".283" stroke-linecap="round" stroke-linejoin="round" stroke-miterlimit="10" d="M251.3 95.4v-.7"/><path clip-rule="evenodd" fill="none" stroke="#000" stroke-width=".283" stroke-linecap="round" stroke-linejoin="bevel" stroke-miterlimit="10" d="M251.3 95.4h1.7"/><path clip-rule="evenodd" fill="none" stroke="#000" stroke-width=".283" stroke-linecap="round" stroke-linejoin="round" stroke-miterlimit="10" d="M256.2 89.8l-2 .4h-.3"/><path clip-rule="evenodd" fill="none" stroke="#000" stroke-width=".283" stroke-linecap="round" stroke-linejoin="bevel" stroke-miterlimit="10" d="M254.1 91.2v-1"/><path clip-rule="evenodd" fill="none" stroke="#000" stroke-width=".283" stroke-linecap="round" stroke-linejoin="round" stroke-miterlimit="10" d="M253.9 91.2h.3l2 .4m-4.9-4.9l.3 1.9v.2"/><path clip-rule="evenodd" fill="none" stroke="#000" stroke-width=".283" stroke-linecap="round" stroke-linejoin="bevel" stroke-miterlimit="10" d="M252.7 88.8h-1.1"/><path clip-rule="evenodd" fill="none" stroke="#000" stroke-width=".283" stroke-linecap="round" stroke-linejoin="round" stroke-miterlimit="10" d="M252.7 88.8v-.2l.1-1.9m-4.9 4.9l2.1-.4h.2"/><path clip-rule="evenodd" fill="none" stroke="#000" stroke-width=".283" stroke-linecap="round" stroke-linejoin="bevel" stroke-miterlimit="10" d="M250.2 90.2v1"/><path clip-rule="evenodd" fill="none" stroke="#000" stroke-width=".283" stroke-linecap="round" stroke-linejoin="round" stroke-miterlimit="10" d="M250.2 90.2h-.2l-2.1-.4m4.9 4.9l-.1-1.9v-.2"/><path clip-rule="evenodd" fill="none" stroke="#000" stroke-width=".283" stroke-linecap="round" stroke-linejoin="bevel" stroke-miterlimit="10" d="M251.6 92.6h1.1"/><path clip-rule="evenodd" fill="none" stroke="#000" stroke-width=".283" stroke-linecap="round" stroke-linejoin="round" stroke-miterlimit="10" d="M251.6 92.6v.2l-.3 1.9m.3-5.9l-.5.9-.9.5"/><path clip-rule="evenodd" fill="none" stroke="#000" stroke-width=".283" stroke-linecap="round" stroke-linejoin="round" stroke-miterlimit="10" d="M250.2 91.2l.9.4.5 1m1.1 0l.3-1 .9-.4m0-1l-.9-.5-.3-.9"/><path clip-rule="evenodd" fill="none" stroke="#000" stroke-width=".283" stroke-linecap="round" stroke-linejoin="bevel" stroke-miterlimit="10" d="M258.3 90.7l-.2-1.6-.7-1.6c-2.4-4.2-9-3.9-10.9.7l-.5 1.6v1.8c1 5.7 8.4 7.2 11.4 2.3l.7-1.6.2-1.6z"/><path clip-rule="evenodd" fill="none" stroke="#000" stroke-width=".283" stroke-linecap="round" stroke-linejoin="bevel" stroke-miterlimit="10" d="M259.3 90.7l-.2-1.8-.7-1.8c-2.9-5.3-10.8-4.7-13 .9l-.5 1.8v1.8c1.1 6.8 10 8.7 13.5 2.6l.7-1.8.2-1.7z"/><path clip-rule="evenodd" fill="none" stroke="#000" stroke-width=".283" stroke-linecap="round" stroke-linejoin="bevel" stroke-miterlimit="10" d="M254.2 91.8l-.7.3-.3.7m-2.1 0l-.4-.7-.7-.3m0-2.1l.7-.4.4-.7"/><path clip-rule="evenodd" fill="none" stroke="#000" stroke-width=".283" stroke-linecap="round" stroke-linejoin="round" stroke-miterlimit="10" d="M251.1 88.6h.5m-1.6 1.2v.4m0 1.4v-.4m1.1 1.6h.5m1.4 0h-.3m1.5-1.2v-.4"/><path clip-rule="evenodd" fill="none" stroke="#000" stroke-width=".283" stroke-linecap="round" stroke-linejoin="bevel" stroke-miterlimit="10" d="M253.2 88.6l.3.7.7.4"/><path clip-rule="evenodd" fill="none" stroke="#000" stroke-width=".283" stroke-linecap="round" stroke-linejoin="round" stroke-miterlimit="10" d="M254.2 91.6h2.7m-3.9 3.8v-2.6m-1.9 0l.2 2.6m-3.9-3.8h2.6m0-1.8h-2.6m3.9-3.8l-.2 2.6m1.9 0V86m3.9 3.8h-2.7m0 0v.4m-1.2-1.6h-.3m85.4 68.3l-.4.5"/><path clip-rule="evenodd" fill="none" stroke="#000" stroke-width=".283" stroke-linecap="round" stroke-linejoin="bevel" stroke-miterlimit="10" d="M336.9 155.8l1.4.9"/><path clip-rule="evenodd" fill="none" stroke="#000" stroke-width=".283" stroke-linecap="round" stroke-linejoin="round" stroke-miterlimit="10" d="M336.3 156.5l.4-.5"/><path clip-rule="evenodd" fill="none" stroke="#000" stroke-width=".283" stroke-linecap="round" stroke-linejoin="bevel" stroke-miterlimit="10" d="M336.5 156.5l1.4.7"/><path clip-rule="evenodd" fill="none" stroke="#000" stroke-width=".283" stroke-linecap="round" stroke-linejoin="round" stroke-miterlimit="10" d="M343.3 154.1l.6.3"/><path clip-rule="evenodd" fill="none" stroke="#000" stroke-width=".283" stroke-linecap="round" stroke-linejoin="bevel" stroke-miterlimit="10" d="M342.5 155.5l.8-1.4"/><path clip-rule="evenodd" fill="none" stroke="#000" stroke-width=".283" stroke-linecap="round" stroke-linejoin="round" stroke-miterlimit="10" d="M343.2 156l-.7-.4"/><path clip-rule="evenodd" fill="none" stroke="#000" stroke-width=".283" stroke-linecap="round" stroke-linejoin="bevel" stroke-miterlimit="10" d="M343.2 155.8l.7-1.4"/><path clip-rule="evenodd" fill="none" stroke="#000" stroke-width=".283" stroke-linecap="round" stroke-linejoin="round" stroke-miterlimit="10" d="M340.7 148.8l.4-.5"/><path clip-rule="evenodd" fill="none" stroke="#000" stroke-width=".283" stroke-linecap="round" stroke-linejoin="bevel" stroke-miterlimit="10" d="M342.1 149.9l-1.4-.9"/><path clip-rule="evenodd" fill="none" stroke="#000" stroke-width=".283" stroke-linecap="round" stroke-linejoin="round" stroke-miterlimit="10" d="M342.5 149.2l-.4.5"/><path clip-rule="evenodd" fill="none" stroke="#000" stroke-width=".283" stroke-linecap="round" stroke-linejoin="bevel" stroke-miterlimit="10" d="M342.5 149.2l-1.4-.7"/><path clip-rule="evenodd" fill="none" stroke="#000" stroke-width=".283" stroke-linecap="round" stroke-linejoin="round" stroke-miterlimit="10" d="M335.5 151.6l-.6-.3"/><path clip-rule="evenodd" fill="none" stroke="#000" stroke-width=".283" stroke-linecap="round" stroke-linejoin="bevel" stroke-miterlimit="10" d="M336.5 150.2l-.9 1.4"/><path clip-rule="evenodd" fill="none" stroke="#000" stroke-width=".283" stroke-linecap="round" stroke-linejoin="round" stroke-miterlimit="10" d="M335.8 149.7l.5.3"/><path clip-rule="evenodd" fill="none" stroke="#000" stroke-width=".283" stroke-linecap="round" stroke-linejoin="bevel" stroke-miterlimit="10" d="M335.8 149.9l-.7 1.4"/><path clip-rule="evenodd" fill="none" stroke="#000" stroke-width=".283" stroke-linecap="round" stroke-linejoin="round" stroke-miterlimit="10" d="M338.1 156.9l.7-2 .2-.1"/><path clip-rule="evenodd" fill="none" stroke="#000" stroke-width=".283" stroke-linecap="round" stroke-linejoin="bevel" stroke-miterlimit="10" d="M338.1 154.2l.9.6"/><path clip-rule="evenodd" fill="none" stroke="#000" stroke-width=".283" stroke-linecap="round" stroke-linejoin="round" stroke-miterlimit="10" d="M338.1 154.2l-.2.2-1.2 1.6m6.6-1.9l-1.9-.7h-.2"/><path clip-rule="evenodd" fill="none" stroke="#000" stroke-width=".283" stroke-linecap="round" stroke-linejoin="bevel" stroke-miterlimit="10" d="M340.9 154.2l.5-.8"/><path clip-rule="evenodd" fill="none" stroke="#000" stroke-width=".283" stroke-linecap="round" stroke-linejoin="round" stroke-miterlimit="10" d="M340.9 154.2v.2l1.6 1.2m-1.8-6.8l-.7 1.9-.2.2"/><path clip-rule="evenodd" fill="none" stroke="#000" stroke-width=".283" stroke-linecap="round" stroke-linejoin="bevel" stroke-miterlimit="10" d="M340.9 151.4l-.9-.5"/><path clip-rule="evenodd" fill="none" stroke="#000" stroke-width=".283" stroke-linecap="round" stroke-linejoin="round" stroke-miterlimit="10" d="M340.7 151.4l.2-.1 1.2-1.6m-6.6 1.9l1.9.7h.2"/><path clip-rule="evenodd" fill="none" stroke="#000" stroke-width=".283" stroke-linecap="round" stroke-linejoin="bevel" stroke-miterlimit="10" d="M338.1 151.4l-.5.9"/><path clip-rule="evenodd" fill="none" stroke="#000" stroke-width=".283" stroke-linecap="round" stroke-linejoin="round" stroke-miterlimit="10" d="M338.1 151.4h-.2l-1.6-1.4m4.9 3.4l-.5-.9v-1.1m-.9-.5l-.7.7-1-.2m-.5.9l.5.9v1m.9.6l.8-.7 1.1.1"/><path clip-rule="evenodd" fill="none" stroke="#000" stroke-width=".283" stroke-linecap="round" stroke-linejoin="bevel" stroke-miterlimit="10" d="M345.6 152.8l-.2-1.6-.7-1.6c-2.4-4.2-9-3.9-10.9.7l-.5 1.6v1.8c1 5.7 8.4 7.2 11.4 2.3l.7-1.6.2-1.6z"/><path clip-rule="evenodd" fill="none" stroke="#000" stroke-width=".283" stroke-linecap="round" stroke-linejoin="bevel" stroke-miterlimit="10" d="M346.7 152.8l-.2-1.8-.7-1.8c-2.9-5.3-10.8-4.7-13 .9l-.5 1.8v1.8c1.1 6.8 10 8.7 13.5 2.6l.7-1.8.2-1.7z"/><path clip-rule="evenodd" fill="none" stroke="#000" stroke-width=".283" stroke-linecap="round" stroke-linejoin="bevel" stroke-miterlimit="10" d="M337.4 154.2l.2-.8-.6-.6m1.1-1.9l.9.2.5-.5m1.9 1l-.2.9.6.5"/><path clip-rule="evenodd" fill="none" stroke="#000" stroke-width=".283" stroke-linecap="round" stroke-linejoin="round" stroke-miterlimit="10" d="M341.8 153l-.4.4m-.2-2l-.3-.1m-1.2-.7l.3.1m-1.9.4l-.2.3m-.7 1.3l.2-.4m.2 1.9l.3.2"/><path clip-rule="evenodd" fill="none" stroke="#000" stroke-width=".283" stroke-linecap="round" stroke-linejoin="bevel" stroke-miterlimit="10" d="M340.7 154.9l-.9-.1-.5.5"/><path clip-rule="evenodd" fill="none" stroke="#000" stroke-width=".283" stroke-linecap="round" stroke-linejoin="round" stroke-miterlimit="10" d="M337.6 154.2l-1.3 2.3m-1.4-5.2l2.3 1.4m.9-1.6l-2.3-1.4m5.3-1.4l-1.4 2.3m1.5.8l1.3-2.2m1.4 5.2l-2.1-1.4m-1.1 1.6l2.5 1.4m-5.5 1.4l1.4-2.3m0 0l-.3-.2m1.9-.3l.2-.2"/><path clip-rule="evenodd" fill="none" stroke="#1D1D1B" stroke-width=".283" stroke-miterlimit="3.864" d="M220.7 65.2v.1m0 0h.1m20 114.4v.1m0-116v.3m0 0v.3m0 0v.4m0 0v.6m0 0v.7m0 0v.9m0 0v.8m0 0v.8m0 0v111.2M232 204h8.8m0 0v-.2m0 0v-.4m0 0v-.4m0 0v-.6m0 0v-.7m0 0v-.7m0 0v-.9m0 0v-.8m0 0H232m8.8-19.5v19.5M232 68.8l8.8-.2m-8.4-4.6l.4-.1m0 0h.3m0 0h.4m0 0h.4m0 0h.3m0 0h.3m0 0h.4m0 0h.3m0 0h.4m0 0h.4m0 0h.4m0 0h.4m0 0h.3m0 0l.4-.1m0 0h.3m0 0h.4m0 0h.4m0 0h.3m0 0h.4m0 0h.3m0 0h.3m0 0h.4m0 0h.5m-14 13.3l-6.4-.1m0 113.9l6.4-.2m2.9-7.1l-.3.7m0 0l-.3.8m0 0l-.3.7m0 0l-.3.8m0 0l-.3.7m0 0l-.4.8m0 0l-.2.7m0 0l-.3.7m0 0l-.3.7m0 0l-.3.6m0 0l-.2.6m0 0l-.3.8m0 0l-.3.6m0 0l-.3.6m0 0l-.3.6m0 0l-.2.5m0 0l-.3.6m0 0l-.3.5m0 0l-.2.6m0 0l-.2.5m0 0l-.4.5m0 0l-.2.4m0 0l-.3.5m0 0l-.2.4m0 0l-.2.4m0 0l-.2.4m0 0l-.2.3m8.2-18.8v.1m0 0h-.1m0 0v.1m0 0v.2m0 0l-.1.1m0 0l-.1.1m0 0v.1m0 0v.1m0 0v.2m0 0l-.1.1m0 0v.1m0 0l-.1.2m0 0l-.1.1m0 0v.1m0 0v.2m0 0l-.1.1m0 0v.2m0 0l-.1.1m0 0l-.1.2m0 0v.2m0 0v.2m2.3-7.3l-.1.2m0 0l-.1.2m0 0v.2m0 0l-.1.2m0 0v.2m0 0l-.1.2m0 0l-.1.2m0 0v.2m0 0l-.1.2m0 0v.2m0 0l-.1.2m0 0l-.1.2m0 0l-.1.3m0 0v.2m0 0l-.1.2m0 0l-.1.2m0 0v.2m0 0l-.1.2m0 0v.1m0 0v.2m0 0l-.1.2m0 0l-.1.2m0 0v.1m1.4-89.3l1 3.4m0 0l.8 3.4m0 0l.7 3.4m0 0l.7 3.5m0 0l.6 3.5m0 0l.5 3.4m0 0l.5 3.7m0 0l.4 3.6m0 0l.3 3.6m0 0l.2 3.6m0 0l.1 3.7m0 0v3.7m0 0v3.6m0 0l-.1 3.6m0 0l-.2 3.7m0 0l-.3 3.5m0 0l-.4 3.7m0 0l-.5 3.6m0 0l-.5 3.5m0 0l-.6 3.6m0 0l-.7 3.3m0 0l-.7 3.5m0 0l-.8 3.3m0 0l-1 3.4M230.6 87v.1m0 0v.1m0 0l.1.1m0 0l.1.3m0 0v.2m0 0v.1m0 0l.1.2m0 0v.2m0 0l.1.2m0 0l.1.2m0 0v.2m0 0l.1.2m0 0l.1.2m0 0l.1.2m0 0v.2m0 0l.1.2m0 0v.2m0 0l.1.2m0 0l.1.2m0 0v.3m0 0l.1.1m0 0v.3m0 0l.1.2m0 0l.1.1m-2.3-7.1v.1m0 0v.1m0 0l.1.1m0 0v.1m0 0l.1.1m0 0v.1m0 0v.1m0 0l.1.2m0 0v.1m0 0v.1m0 0l.1.1m0 0v.1m0 0l.1.1m0 0v.1m0 0v.1m0 0l.1.1m0 0v.2m0 0l.1.1m0 0v.2m0 0l.1.1m0 0v.1m0 0v.1m0 0l.1.1m-8.2-18.8l.2.4m0 0l.2.4m0 0l.2.4m0 0l.2.3m0 0l.3.5m0 0l.2.4m0 0l.4.6m0 0l.2.5m0 0l.2.5m0 0l.3.5m0 0l.3.6m0 0l.2.6m0 0l.3.6m0 0l.3.7m0 0l.3.6m0 0l.3.6m0 0l.2.6m0 0l.3.7m0 0l.3.6m0 0l.3.7m0 0l.2.8m0 0l.4.7m0 0l.3.8m0 0l.3.7m0 0l.3.8m0 0l.3.8m0 0l.3.8m0 99.2v2m0 0v2.1m0 0v1.8m0 0v1.8m0 0v1.7m0 0v1.5m0 0v1.5m0 0v1.2m0 0v1.2m0 0v1m0 0v1m0 0v.7m0 0v.6m0 0l.3.1m0 0l.3.2m0 0l.2.3m0 0l.1.4m-.9-136.4v.8m0 0v.7m0 0v.9m0 0v1m0 0V71m0 0v1.2m0 0v1.4m0 0v1.6m0 0v1.6m0 0v1.7m0 0v1.9m0 0v1.9m0 0v2.1m.4-19.4h-.1m0 0v.1m0 0v.1m0 0h-.1m0 0v.1m0 0v.1m0 0l-.1.1m0 0v.1m0 0l-.1.1m0 0v.1m0 0v.1m0 0v.1m0 0v.1m0 0v.1m0 0v.1m0 135.4v.1m0 0v.1m0 0v.1m0 0v.1m0 0v.1m0 0v.1m0 0v.1m0 0l.1.1m0 0l.1.1m0 0v.1m0 0v.1m.7-137.4l-.1.3m0 0l-.2.3m0 0l-.3.3m0 0h-.3m1.1 137l-.3-.2m0 0l-.2-.2m0 0l-.3-.1m.1-137.8l.3-.1m0 0l.2-.1m0 0l.2-.2m1.2 26.9V68.8m0 0h-.5m0 0h-.4m0 0h-.3m0 0h-.2m0 0V87m1.4-23l-.5.1m0 0l-.4.1m0 0l-.3.4m0 0l-.2.4m0 0v.4m0 0v.1m0 0v.1m0 0v.1m0 0v.2m0 0v.1m0 0v.1m0 0v.1m0 0v.1m0 0v.2m0 0v.3m0 0v.2m0 0v.2m0 0v.1m0 0v.2m0 0v.3m0 0v.1m0 0v.3m0 0v.2m0 0v.2m0 0v.2m0 112v18.5m1.4 0h-.5m0 0h-.4m0 0h-.3m0 0h-.2m1.4 0v-23m-1.4 23v.6m0 0v.7m0 0v.6m0 0v.5m0 0v.4m0 0v.3m0 0v.2m0 0v.1m1.4 1.3h-.5m0 0l-.3-.2m0 0l-.4-.3m0 0l-.2-.4m0 0v-.4m1.4 1.3v-.2m0 0v-.4m0 0v-.4m0 0v-.6m0 0v-.7m0 0v-.7m0 0v-.9m0 0v-.8m0-130.5v-.3m0 0v-.3m0 0v-.3m0 0v-.3m0 0v-.3m0 0V67m0 0v-.4m0 0v-.3m0 0v-.2m0 0v-.2m0 0v-.3m0 0v-.2m0 0v-.3m0 0V65m0 0v-.2m0 0v-.2m0 0v-.1m0 0v-.1m0 0v-.2m0 0v-.1m0 0V64m-3.3 17.6v.5m0 103.7v.4m12.1-6.5v.1M232 64h.4m-11.7 1.2l9.4-.2m-9.4 137.6l9.3.2m-1.2-17l-2.1-.1m4.8-8.7v.8m.5-1.7l-.3.2m0 0l-.1.3m0 0l-.1.4m2.2-10l.1-.2m0 0l.2-.4m0 0l.2-.2m0 0h.3m-.8 2.4V167m-1.9 1.6h1.9m-1.9 1.6v-1.6m-.7 2.4l.2-.1m0 0l.2-.2m0 0l.2-.2m0 0l.1-.3m-2.7.8h2m-2-3.6v3.6m.1-4l-.1.4m1.4-5.6l-1.3 5.2m-.4-6l.2-.2m0 0l.3-.2m0 0h.3m0 0h.4m0 0l.3.2m0 0l.2.2m0 0l.1.4m0 0l-.1.4m-4.5 4.4l2.8-5.2m-3.1 6.4l.1-.6m0 0l.2-.6m-.3 18.6v-17.4m1 18.3l-1-.9m1-102.7l2.1-.1m-3.1 1.1l1-1m-1 18.4V83.1m.3 18.6l-.2-.6m0 0l-.1-.6m3.1 6.3l-2.8-5.1m4.5 4.4l.1.4m0 0l-.1.3m0 0l-.2.3m0 0l-.3.1m0 0l-.4.1m0 0l-.3-.1m0 0l-.3-.1m0 0l-.2-.3m.4-5.9l1.3 5.2m-1.4-5.6l.1.4m-.1-4v3.6m2-3.6h-2m2.7.7l-.1-.2m0 0l-.2-.3m0 0l-.2-.1m0 0l-.2-.1m.7 2.4v-1.7m1.9 1.7h-1.9m1.9 1.6v-1.6m.8 2.3h-.3m0 0l-.2-.2m0 0l-.2-.2m0 0l-.1-.3m-2.2-10l.1.3m0 0l.1.3m0 0l.3.3m-.5-1.7v.8m-1 6.5v-.5m-4.8 56.4v1.4m0 0v1.3m0 0v1.3m0 0v1.4m0 0v1.2m0 0v1.2m0 0v1.1m0 0v1m0 0v.9m0 0v.9m0 0v.6m0 0v.6m0 0v.6m0 0v.3m0 0v.2m0 0v.1m0-52.8v38.7m0-52.8v.2m0 0v.1m0 0v.3m0 0v.5m0 0v.6m0 0v.7m0 0v.8m0 0v1m0 0v1m0 0v1.1m0 0v1.1m0 0v1.3m0 0v1.3m0 0v1.3m0 0v1.4m0 0v1.4m4.8 56.4v-.6m1.2-73h-.1m0 0h-.1m0 0h-.1m0 0h-.1m0 0h-.1m0 0h-.1m0 0h-.1m0 0h-.1m0 0h-.1m0 0h-.1m0 0h-.1m0 0h-.1m3.2 61.5h.2m0 0h.1m0 0h.1m0 0h.1m0 0h.1m0 0h.2m0 0h.1m0 0h.1m0 0h.1m0 0h.1m0 0h.2m0 0h.1m0 0h.1m0 0h.1m0 0h.1m0 0h.1m0 0h.1m0 0h.1m-5.3 10.8h-.1m0 0h-.1m0 0v-.1m0 0h-.1m0 0h-.1m1.7.1h-.1m0 0h-.1m0 0h-.1m0 0h-.1m0 0h-.1m0 0h-.1m0 0h-.1m0 0h-.1m0 0h-.1m0 0h-.1m0 0h-.1m0 0h-.1m0 0h-.1m5.3-60.7h-.1m0 0h-.1m0 0h-.1m0 0h-.1m0 0h-.1m0 0h-.1m0 0h-.1m0 0h-.2m0 0h-.1m0 0h-.1m0 0h-.1m0 0h-.1m0 0h-.2m0 0h-.1m0 0h-.1m0 0h-.1m0 0h-.1m0 0h-.2m2.4 48h-.1m0 0h-.2m0 0h-.1m0 0h-.2m0 0h-.1m0 0h-.2m0 0h-.1m0 0l-.2-.1m0 0h-.1m0 0h-.2m0 0h-.1m0 0h-.2m0 0h-.1m0 0h-.2m0 0h-.1m0 0h-.2m0-46h.2m0 0h.1m0 0h.2m0 0h.1m0 0h.2m0 0h.1m0 0h.2m0 0h.1m0 0h.2m0 0h.1m0 0h.2m0 0h.1m0 0h.2m0 0h.1m0 0h.2m0 0h.1m-5.6-13.5v.3m0 0v.3m0 0v.1m0 0v.1m0 0h.1m0 0h.1m0 0h.1m0 0h.1m0 0h.1m0 0h.1m0 0h.1m0 0h.1m0 0h.1m0 0v-.1m0 0h.1m0 0h.1m0 0h.1m0 0h.1m-1.3-.7h-.1m0 0l-.1.3m0 0v.3m0 0l-.1.1m0 0l-.1.1m0 0h.1m0 0h.1m0 0h.1m0 0h.1m-.1-.8h-.1m0 0h-.1m0 0h-.1m0 0h-.1m0 0l-.1.1m0 0l-.2.1m0 0l-.1.1m0 0v.1m0 0l-.1.1m0 0h-.1m0 0v.1m0 0v.1m0 0l-.1.1m0 0v.1m0 0v.1m0 0l-.1.1m0 0v.1m0 0v.2m0 0l-.1.1m0 0v.1m0 0v.1m8.4 25.2h-.1m0 0h-.2m0 0h-.1m0 0h-.2m0 0h-.1m0 0h-.2m0 0h-.1m0 0h-.3m0 0h-.1m0 0h-.2m0 0h-.1m0 0h-.2m0 0h-.1m0 0h-.2m0 0h-.2m0 0h-.1m0 0l-.2.1m0 0h-.1m0 0h-.2m0 0h-.1m0 0h-.2m0 0h-.2m0 0h-.1m0 0h-.2m-3.2 46h.1m0 0h.1m0 0h.1m0 0h.1m0 0h.1m0 0h.1m0 0v.1m0 0h.1m0 0h.1m0 0h.1m0 0h.1m0 0h.1m0 0h.1m-1.2-.8v.2m0 0v.2m0 0v.3m-.4-.8l.1.1m0 0l.1.2m0 0v.2m0 0l.1.3m0 0h.1m-1.4-1.7v.2m0 0v.1m0 0h.1m0 0v.2m0 0v.1m0 0l.1.1m0 0v.1m0 0v.1m0 0l.1.1m0 0v.1m0 0v.1m0 0l.1.1m0 0l.1.1m0 0l.1.1m0 0l.2.1m0 0v.1m0 0h.1m0 0h.1m0 0h.1m0 0h.1m0 0h.1m7.2-44.9l-3.9.1m-1.9-34l.2-.1m2 71.6h.1m0 0h.1m0 0h.1m0 0h.1m0 0h.1m0 0h.1m0 0h.1m-.7 0h-.1m0 0h-.1m0 0h-.1m-3.4 0h-.1m3.8-58.3h.1m0 0h.1m0 0h.1m0 0h.1m0 0h.1m0 0h.1m0 0h.1m-4.5.1h.1m3.4-.1h.1m0 0h.1m0 0h.1m-3.9-6h.1m0 0h.1m0 0h.1m0 0h.1m0 0h.1m0 0h.1m0 0h.1m0 0h.1m0 0h.1m0 0h.1m0 0h.1m0 0h.2m0 0h.1m0 0h.1m0 0h.1m0 0h.1m2.2 4.4h-.1m0 0v.1m0 0h-.1m0 0h-.1m-3.4 0h-.1m0 0h-.1m6.7 49.4h-.2m0 0h-.1m0 0h-.2m0 0h-.1m0 0h-.1m0 0h-.1m0 0h-.2m0 0h-.1m0 0h-.1m0 0h-.1m0 0h-.1m0 0h-.2m0 0h-.1m0 0h-.1m0 0h-.1m0 0h-.2m0 0h-.1m0 0h-.1m0 0h-.2m0 0h-.1m0 0h-.1m0 0h-.1m0 0h-.1m0 0h-.2m-3.6 11.8h.1m0 0h.1m3.4.1h.1m0 0h.1m0 0h.1m-2.2 4.4h-.1m0 0h-.1m0 0h-.1m0 0h-.1m0 0h-.2m0 0h-.1m0 0h-.1m0 0h-.1m0 0h-.1m0 0h-.1m0 0h-.1m0 0h-.1m0 0h-.1m0 0h-.1m0 0h-.1m0 0h-.1m1.9 7.3h-.2"/><path clip-rule="evenodd" fill="none" stroke="#000" stroke-width=".718" stroke-linecap="round" stroke-linejoin="round" stroke-miterlimit="10" d="M233.7 153.9h.2m0 0h.1m0 0h.1m0 0h.1m0 0h.1m0 0h.2m0 0h.1m0 0h.1m0 0h.1m0 0h.1m0 0h.1m0 0h.1m0 0h.1m0 0h.2m0 0h.1m0 0h.1m0 0h.1m0 0h.1m0 0h.2m0 0h.1m0 0h.1m0 0h.1m0 0h.2m0 0h.1"/><path clip-rule="evenodd" fill="none" stroke="#1D1D1B" stroke-width=".283" stroke-miterlimit="3.864" d="M234.7 165.4h-.3m0 0h-.2m0 0h-.2m0-.8v.1m0 0v.1m.7.6v-2.3m0 0l-.1.1m0 0v.1m0 0l-.1.1m0 0v.1m0 0h-.1m0 0v.1m0 0l-.1.1m0 0v.1m0 0v.1m0 0l-.1.1m0 0v.1m0 0l-.1.1m0 0v.1m0 0l-.1.1m0 0v.1m0 0v.1m0-61.4v.1m0 0v.1m0 0v.1m0 0h.1m0 0v.1m0 0v.1m0 0h.1m0 0v.1m0 0v.1m0 0l.1.1m0 0v.1m0 0l.1.2m0 0v.1m0 0h.1m0 0v.1m0 0l.1.1m0 0v.1m0 0v.1m0 0h.1m0 0v-2.4m0 0h-.3m0 0h-.2m0 0h-.2m0 .7v.1m0-1.8v1.7m-3.9.2h-.2m.2 1v-.2m0 0v-.1m0 0v-.1m0 0v-.1m0 0v-.1m0 0v-.1m0 0v-.1m0 0v-.1m0 0v-.1m0-4.5l-.4.1m0 0l-.3.2m0 0l-.2.1m0 0l-.1.3m1 3.8v-1.5m0 0v-1.4m0 0v-1.6m0 0v-.1m0 0v-.1m0 0v-.1m0 0v-.1m0 0v-.1m0 0v-.1m0 70.8l-.4-.1m0 0l-.3-.1m0 0l-.2-.2m0 0l-.1-.3m1 1.3v-.1m0 0v-.1m0 0v-.1m0 0v-.1m0 0v-.1m0 0v-.1m0-4.5h-.2m.2 4.5v-1.4m0 0v-1.5m0 0v-1.6m0 0v-.1m0 0v-.1m0 0v-.1m0 0v-.1m0 0v-.1m0 0v-.1m0 0v-.1m0 0v-.1m0 0v-.1m4.5-35.6h-.3m0 0h-.3m0 0h-.2m0 0h-.1m0 11.8h.1m0 0h.2m0 0h.3m0 0h.3m0 0V128m3.1.1l-3.1-.1m3.1 11.7l-3.1.1m-.9 2.7l3.9.1m.1-.7l-4-.1m.3 24.6v-1.6m-8-11.5v1.4m0 0v1.3m0 0v1.3m0 0v1.3m0 0v1.2m0 0v1.1m0 0v1m0 0v1m0 0v.8m0 0v.7m0 0v.6m0 0v.5m0 0v.4m0 0v.2m0 0v.1m-.3-12.9h.1m0 0h.2m2.8 0v1m0 0v1m0 0v1m0 0v.9m0 0v.8m0 0v.8m0 0v.7m0 0v.5m0 0v.5m0 0v.3m0 0v.2m-2.8-7.7h2.8m0 0h.2m0 0h.3m0 0h.4m0 0h.3m0 0h.3m-4.3-38.7v38.7m-.3-38.7h.1m0 0h.2m2.8 0v38.7m-2.8-38.7h2.8m0 0h.2m0 0h.3m0 0h.4m0 0h.3m0 0h.3m-4.3-12.9v.3m0 0v.3m0 0v.5m0 0v.6m0 0v.7m0 0v.9m0 0v.9m0 0v1m0 0v1.2m0 0v1.2m0 0v1.3m0 0v1.2m0 0v1.5m0 0v1.3m2.8-7.8v.3m0 0v.3m0 0v.4m0 0v.6m0 0v.7m0 0v.8m0 0v.8m0 0v.8m0 0v1.1m0 0v1m0 0v1m1.5-14.5h3.4m-3.4 67.7v-67.7m3.4 67.7h-3.4m3.4-67.7v67.7m-8.4-90.7l1-1m-4.2.9l3.2-3.2m-5.4 2.3l4.4-4.4m-6.3 2.8l5.1-5m-5.8 133l7.6-7.7m-10.9 7.6l11.8-11.7m1.7-4.9l2.1-2.1m-3.3 1.6l4.2-4.1m-4.8 3.1l5.5-5.6m-5.5 3.9l6-6m-6 4.4l7-6.9m-7 5.3l7.5-7.5m-7.5 5.8l8-8m-8 6.4l5.2-5.1m.9-1l1.5-1.4m.4-.5l.5-.4m-8.5 6.7l3.6-3.4m-3.6 1.8l3.4-3.4m-3.4 1.8l3.4-3.4m-3.4 1.7l3.8-3.7m-3.8 2.2l4.3-4.3m-3.8 2.1l4.3-4.3m-2.5.8l1.8-1.6m-.4-53.5l1.1-1.1m-1.9.3l1.6-1.6m3.7-3.7l.4-.4m-6.3 4.7l1.9-1.9m3.8-3.9l.3-.3m-6.6 5.1l2.2-2.2m2.9-2.9l1.2-1.3m-6.9 5.2l2.4-2.2m2.6-2.7l1.6-1.6m-7.1 5.5l2.8-2.9m2.3-2.2l1.7-1.7m-7.2 5.6l3.2-3.3m.9-.8l2.8-2.8m-7.1 5.3l6.7-6.5m-6.7 5l6.2-6.4m-6.2 4.7l5.8-5.8m-5.8 4.2l5.5-5.5m-5.5 3.9l5.1-5.1m-5.1 3.4l4.8-4.7m-4.8 3.1l4.3-4.3m-4.3 2.7l3.9-3.9m-3.9 2.2l3.5-3.5m-3.5 1.9l2.8-2.7m-2.8 1l1.1-1m4.9 85.7l-1.4-1.4m3.1 1.4l-3.1-3m3.4 1.7l-3.4-3.3m3.4 1.7l-3.4-3.4m3.4 1.9l-3.4-3.4m3.4 1.6l-3.4-3.4m3.4 1.9l-3.4-3.4m3.4 1.8l-3.4-3.4m3.4 1.7l-3.4-3.4m3.4 1.8l-3.4-3.4m3.4 1.7l-3.4-3.3m3.4 1.7l-3.4-3.4m3.4 1.8l-3.4-3.4m3.4 1.7l-3.4-3.4m3.4 1.9l-3.4-3.4m3.4 1.6l-3.4-3.3m3.4 1.8l-3.4-3.4m3.4 1.8l-3.4-3.4m3.4 1.7l-3.4-3.5m3.4 1.9l-3.4-3.4m3.4 1.7l-3.4-3.3m3.4 1.7l-3.4-3.4m3.4 1.8l-3.4-3.4m3.4 1.7l-3.4-3.4m3.4 1.8l-3.4-3.4m3.4 1.7l-3.4-3.3m3.4 1.7l-3.4-3.4m3.4 1.9l-3.4-3.4m3.4 1.6l-3.4-3.4m3.4 1.9l-3.4-3.4m3.4 1.8l-3.4-3.4m3.4 1.7l-3.4-3.4m3.4 1.8l-3.4-3.4m3.4 1.7l-3.4-3.3m3.4 1.7l-3.4-3.4m3.4 1.8l-3.4-3.4m3.4 1.7l-3.4-3.4m3.4 1.9l-3.4-3.4m3.4 1.6l-3.4-3.3m3.4 1.8l-3.4-3.4m3.4 1.8l-3.4-3.4m3.4 1.7l-2.9-2.9m2.9 1.3l-1.3-1.3m-8.6 88.9H217m6.8-110.2V189M217 78.8h6.8"/><path fill="#D9D9D9" d="M217.1 78.8h6.7V189h-6.7V78.8z"/><path fill="none" stroke="#1D1D1B" stroke-width=".283" stroke-miterlimit="3.864" d="M217.1 78.8h6.7V189h-6.7V78.8z"/><path fill="#CCC" d="M197.7 72.5h19.6v122.8h-19.6V72.5z"/><path fill="none" stroke="#1D1D1B" stroke-width=".283" stroke-miterlimit="3.864" d="M197.7 72.5h19.6v122.8h-19.6V72.5z"/><path clip-rule="evenodd" fill="none" stroke="#1D1D1B" stroke-width=".283" stroke-miterlimit="3.864" d="M172.8 72.3v-5m0 128l2.1-2.1m-2.1 7v-4.9m31.3 7.2l-6.5-7M172.8 72.3v.3m0 0v.3m0 0v.5m0 0v.6m0 0v.8m0 0v.9m0 0v1.1m0 0V78m0 0v1.3m0 0v1.5m0 0v1.5m0 0V84m0 0v1.8m0 0v1.9m0 0v2.1m0 0v2.1m0 0v2.2m0 0v2.3m0 0v2.4m0 0v2.5m0 0v2.6m0 0v2.6m0 0v2.8m0 0v2.7m0 0v2.8m0 0v2.9m0 0v2.8m0 0v2.9m0 0v3m0 0v2.9m0 0v3m0 0v3m0 0v2.9m0 0v3m0 0v3m0 0v2.9m0 0v2.9m0 0v2.8m0 0v2.9m0 0v2.7m0 0v2.7m0 0v2.6m0 0v2.6m0 0v2.5m0 0v2.4m0 0v2.3m0 0v2.2m0 0v2.1m0 0v2m0 0v2m0 0v1.8m0 0v1.7m0 0v1.6m0 0v1.3m0 0v1.5m0 0v1.1m0 0v1m0 0v1m0 0v.8m0 0v.6m0 0v.5m0 0v.3m0 0v.3m26-120.9l9-8.9m-6.7 133.9l6-6.2m-7.7 4.4l4.2-4.2m-5.7 2.5l2.8-2.7M172.8 72.4v122.9m31.8-130.2H221m-1.8 9.3h-21.8m23.3 2.5l-1.5-2.5m7.9 2.6l-6.4-.1m.3 125.6h-17m16.7-11.7l6.4-.2m-7.9 2.6l1.5-2.4m-45.8 2.4h44.3m5.6 2.3l-.2.5m0 0l-.2.5m0 0l-.4.6m0 0l-.2.4m0 0l-.3.5m0 0l-.2.4m0 0l-.2.4m0 0l-.2.4m0 0l-.2.3m0 0l-.2.3m0 0l-.2.3m0 0l-.1.3m0 0l-.2.3m0 0l-.1.4m0 0l-.2.2m0 0l-.1.2m0 0l-.1.2m0 0l-.1.2m0 0l-.1.1m0 0v.1m0 0l-.2.2m0 0v.1m0 0h-.1m0 0v.1m0-137.4v.1m0 0h.1m0 0v.1m0 0l.2.2m0 0v.1m0 0l.1.2m0 0l.1.1m0 0l.1.2m0 0l.1.2m0 0l.2.2m0 0l.1.3m0 0l.2.3m0 0l.1.3m0 0l.2.4m0 0l.2.3m0 0l.2.4m0 0l.2.4m0 0l.2.4m0 0l.2.3m0 0l.3.5m0 0l.2.4m0 0l.4.5m0 0l.2.5m0 0l.2.6m-5.6 121.1v-.3m0 0v-.3m0 0v-.6m0 0v-.6m0 0v-.8m0 0v-.9m0 0v-1m0 0v-1.2m0 0v-1.3m0 0v-1.4m0 0v-1.6m0 0v-1.7m0 0v-1.9m0 0v-1.8m0 0v-1.9m0 0v-2.2m0 0v-2.2m0 0v-2.3m0 0v-2.5m0 0v-2.4m0 0v-2.5m0 0v-2.5m0 0v-2.8m0 0v-2.7m0 0v-2.7m0 0v-2.9m0 0v-2.8m0 0v-3m0 0v-2.8m0 0v-2.9m0 0v-2.9m0 0v-2.9m0 0V128m0 0v-2.9m0 0v-2.9m0 0v-2.8m0 0v-2.9m0 0v-2.7m0 0v-2.7m0 0v-2.7m0 0v-2.6m0 0v-2.5m0 0v-2.5m0 0v-2.4m0 0v-2.3m0 0v-2.2m0 0v-2.1m0 0v-2m0 0v-1.9m0 0v-1.8m0 0v-1.6m0 0v-1.7m0 0v-1.3m0 0v-1.3m0 0v-1.3m0 0v-1m0 0V77m0 0v-.7m0 0v-.8m0 0V75m0 0v-.3m0 0v-.2m0 0v-.1m0-2h-46.3m46.3 0v122.9m-46.3 0h46.3m1.5-118.4v.3m0 0v.3m0 0v.5m0 0v.6m0 0v.8m0 0v1m0 0v1.1m0 0v1.2m0 0v1.2m0 0v1.6m0 0V87m0 0v1.8m0 0v1.7m0 0v2m0 0v2m0 0v2.1m0 0v2.3m0 0v2.4m0 0v2.3m0 0v2.6m0 0v2.5m0 0v2.6m0 0v2.8m0 0v2.6m0 0v2.8m0 0v2.9m0 0v2.7m0 0v2.9m0 0v3m0 0v2.8m0 0v2.9m0 0v2.9m0 0v2.8m0 0v2.8m0 0v2.9m0 0v2.7m0 0v2.8m0 0v2.7m0 0v2.6m0 0v2.6m0 0v2.5m0 0v2.3m0 0v2.4m0 0v2.2m0 0v2.2m0 0v2m0 0v2m0 0v1.8m0 0v1.7m0 0v1.5m0 0v1.5m0 0v1.4m0 0v1.2m0 0v1m0 0v.9m0 0v.9m0 0v.7m0 0v.4m0 0v.4m0 0v.2m0 0v.1m.3-125.7l9.4-.2M221 202.5l9.3.2m-7.9-125.8l3.2-3.2m-5.4 2.3l4.4-4.5m-6.3 2.9l5.1-5m-8.3 5l7.2-7.2m-10.4 7.2l9.2-9.2m-12.5 9.2l9.2-9.2m-12.5 9.2l9.2-9.1M202 74.4l9.1-9m9.6 137.1l.7-.7m-3.8.6l7.6-7.7m-10.9 7.6l11.8-11.7m-15.3 12l11.9-11.9m-14.9 11.8l8.9-9.1m-12.3 9.1l9-9m-10.7 7.4l7.7-7.7m-37.6 0h44.3M197.4 74.4h19.7m.2 114.5V78.7m6.8 110.2h-6.8m6.8-110.2v110.2m-6.8-110.2h6.8m-6.8 116.6h-44.5m44.5-122.9v122.9M173 72.4h44.4"/><path fill="#D9D9D9" d="M217.4 78.6h6.7v110.3h-6.7V78.6z"/><path fill="none" stroke="#1D1D1B" stroke-width=".283" stroke-miterlimit="3.864" d="M217.4 78.6h6.7v110.3h-6.7V78.6z"/><path clip-rule="evenodd" fill="none" stroke="#1D1D1B" stroke-width=".283" stroke-miterlimit="3.864" d="M197.5 72.3l7.2-7.3"/><path fill="#BFBFBF" d="M100.4 62.3h96.8v145.2h-96.8V62.3z"/><path fill="none" stroke="#1D1D1B" stroke-width=".283" stroke-miterlimit="3.864" d="M100.4 62.3h96.8v145.2h-96.8V62.3z"/><path clip-rule="evenodd" fill="none" stroke="#1D1D1B" stroke-width=".283" stroke-miterlimit="3.864" d="M240.8 63.8v140.3"/><g clip-rule="evenodd"><path fill="none" stroke="#1D1D1B" stroke-width=".283" stroke-miterlimit="3.864" d="M225.7 82.8V25.9"/><path fill-rule="evenodd" fill="#1D1D1B" d="M209.7 46.2v3.9l9.1-1.9zm-3.5 3.9v-3.9l-9.2 2z"/><path fill="none" stroke="#1D1D1B" stroke-width=".227" stroke-miterlimit="3.864" d="M209.7 48.2h-3.5m-9.2 12V25.8m22.2 45.6V45.7"/><path fill-rule="evenodd" fill="#1D1D1B" d="M205.8 28.9V25l-8.8 2zm11.3-3.9v3.9l8.8-1.9z"/><path fill="none" stroke="#1D1D1B" stroke-width=".227" stroke-miterlimit="3.864" d="M205.8 27h11.3"/><path fill-rule="evenodd" fill="#1D1D1B" d="M220.6 86.5l-2.2 3.4 9.1 3.5z"/><path fill="none" stroke="#1D1D1B" stroke-width=".283" stroke-miterlimit="3.864" d="M219.5 88.2l-100.1-64"/><path fill="none" stroke="#1D1D1B" stroke-width=".227" stroke-miterlimit="3.864" d="M119.6 24H16.1"/><path fill-rule="evenodd" fill="#1D1D1B" d="M107.5 53l-2.7 2.9 8.1 4.8z"/><path fill="none" stroke="#1D1D1B" stroke-width=".227" stroke-miterlimit="3.864" d="M106.2 54.4l-5.4-5m0 0H16.1m101.1 200.4H20.8"/><path fill="none" stroke="#1D1D1B" stroke-width=".283" stroke-miterlimit="3.864" d="M217.3 188.9H50.4m149.7 6.4H22.5M196.4 72.4H23.3"/><path fill-rule="evenodd" fill="#1D1D1B" d="M51.6 89.8h3.9l-2-9.2zm3.9 87.4h-3.9l1.9 9.1z"/><path fill="none" stroke="#1D1D1B" stroke-width=".227" stroke-miterlimit="3.864" d="M53.5 89.8v87.4"/><path fill-rule="evenodd" fill="#1D1D1B" d="M24.9 83.6h4l-2-9.1zm4 99.9h-4l2 9.2z"/><path fill="none" stroke="#1D1D1B" stroke-width=".227" stroke-miterlimit="3.864" d="M26.9 83.6v99.9"/><path fill="none" stroke="#1D1D1B" stroke-width=".283" stroke-miterlimit="3.864" d="M211.5 78.7h-156m156 0H51.3m166 0h-143"/><path fill-rule="evenodd" fill="#1D1D1B" d="M222.1 145.1l2.9 2.9 5.4-8z"/><path fill="none" stroke="#1D1D1B" stroke-width=".283" stroke-miterlimit="3.864" d="M223.5 146.6L117.1 249.8"/></g><text transform="translate(16.135 20.5)" font-family="Helvetica,Arial,sans-serif" font-size="12">Filter holder</text><text transform="translate(16.135 46.726)" font-family="Helvetica,Arial,sans-serif" font-size="12">CS-mount lens</text><text transform="translate(22.944 235.226)" font-family="Helvetica,Arial,sans-serif" font-size="12">IR cut filter</text><text transform="translate(22.9 246.226)" font-family="Helvetica,Arial,sans-serif" font-size="8">(color cameras only)</text><text transform="translate(202.575 21.25)" font-family="Helvetica,Arial,sans-serif" font-size="12">5.8</text><text transform="translate(200.296 42.026)" font-family="Helvetica,Arial,sans-serif" font-size="12">4.6</text><text transform="translate(336.98 236.283)"><tspan x="0" y="0" font-family="Helvetica,Arial,sans-serif" font-size="12">Not to scale</tspan><tspan x="0" y="13.8" font-family="Helvetica,Arial,sans-serif" font-size="11.5">Dimensions in mm</tspan></text><text transform="rotate(-90 99.471 78.636)" font-family="Helvetica,Arial,sans-serif" font-size="12">CS-mount thread</text><text transform="rotate(-90 106.98 57.645)" font-family="Helvetica,Arial,sans-serif" font-size="12">max. Ø 23.1</text></svg>