<svg version="1.1" id="Ebene_1" xmlns="http://www.w3.org/2000/svg" x="0" y="0" viewBox="0 0 311.8 328.8" xml:space="preserve"><style>.st0{fill:none;stroke:#000;stroke-width:.2835;stroke-linecap:round;stroke-linejoin:round;stroke-miterlimit:10}.st1{fill:#f5f5f5}.st2{fill:none;stroke:#000;stroke-width:.2835;stroke-miterlimit:10}.st5{fill-rule:evenodd;clip-rule:evenodd}.st6,.st7{fill:none;stroke:#000;stroke-width:.2268;stroke-miterlimit:3.8637}.st7{stroke-width:.2835}.st8{font-family:Helvetica,Arial,sans-serif}.st9{font-size:11px}</style><g id="boost"><circle class="st0" cx="198.6" cy="98.7" r="5.9"/><circle class="st0" cx="198.6" cy="98.7" r="4.2"/><circle class="st0" cx="198.6" cy="231.8" r="5.9"/><circle class="st0" cx="198.6" cy="231.8" r="4.2"/><path class="st0" d="M239.1 65.8v198.6m1.5-198.6v198.6m-4.7.6V65.3m50.3 181.6h-38V265m38-14.6v-26.5m-38-158.6v18.2h38.1"/><path class="st0" d="M248.2 66.7h7.9c.5 0 .9.4.9.9v12.9c0 .5-.4.9-.9.9h-7.9m0 167.5h7.9c.5 0 .9.4.9.9v13c0 .5-.4.9-.9.9h-7.9"/></g><path class="st0" d="M166.6 80l.7.5 3.8 2.2 3.5 2.3 3.1 2.3 2.8 2.3 2.6 2.4 2.3 2.4 2 2.4 1.9 2.4 1.7 2.5.9 1.2h-2.6v-.4h-6l-.7-.8v-7.2h-15.3l-.7-.8V80"/><path class="st1" d="M87.9 87.9v-1.4h8.7v1.4l2 1.1 2-1.1-.1-1.4h8.6l7.2 4.4.4.4 4.4 7.4.5.4 8.8 2.3h2.9l18-4.8h23.2v.3h7.6l.5.4v5.2h4.4l.4.4v2.8l-.8.9h-59v-.8H96.2v-3.3h-4l-1-5.6v-6.3h-2.8l-.5-.5v-3.6"/><path class="st1" d="M82.6 89.2h2.6v-1.3h2.7v2.2l.5.5h2.8V98l-.7 1.4-.4.9-.6 1.5h-3.7v.7h-3.2V89.2"/><path class="st0" d="M87.9 87.9v-1.4h8.7v1.4l2 1.1 2-1.1-.1-1.4h8.6l7.2 4.4.4.4 4.4 7.4.5.4 8.8 2.3h2.9l18-4.8h23.2v.3h7.6l.5.4v5.2h4.4l.4.4v2.8l-.8.9h-59v-.8H96.2v-3.3h-4l-1-5.6v-6.3h-2.8l-.5-.5v-3.6"/><path class="st0" d="M82.6 89.2h2.6v-1.3h2.7v2.2l.5.5h2.8V98l-.7 1.4-.4.9-.6 1.5h-3.7v.7h-3.2V89.2"/><path class="st1" d="M87.9 242.6v1.4h8.7v-1.4l2-1.2 2 1.2-.1 1.4h8.6l7.2-4.5.4-.3 4.4-7.5.5-.3 8.8-2.4h2.9l18 4.9h20.9l11-10h-55.6v.7H96.2v3.4h-4l-1 5.5v6.4h-2.8l-.5.4v3.7"/><path class="st1" d="M82.6 241.2h2.6v1.4h2.7v-2.3l.5-.4h2.8v-7.5l-.7-1.3-.4-.9-.6-1.6h-3.7v-.6h-3.2v13.2"/><path class="st0" d="M87.9 242.6v1.4h8.7v-1.4l2-1.2 2 1.2-.1 1.4h8.6l7.2-4.5.4-.3 4.4-7.5.5-.3 8.8-2.4h2.9l18 4.9h20.8l11-10h-55.5v.7H96.2v3.4h-4l-1 5.5v6.4h-2.8l-.5.4v3.7"/><path class="st0" d="M82.6 241.2h2.6v1.4h2.7v-2.3l.5-.4h2.8v-7.5l-.7-1.3-.4-.9-.6-1.6h-3.7v-.6h-3.2v13.2m90.5-146.7l-6.5-6.6m20.5 14.6l-4.5-4.5m-3.5-3.5L166.6 82m37.7 100.2l.5-.9m-.5 3.5l1.8-3.2m-1.8 5.7l1.8-3.2m-1.8 5.8l1.9-3.3m-1.4 4.7l2.8-4.7m-1.5 5.1l1.5-2.5m-3.3-47.6l1.4-2.5m-1.4 5l3.2-5.5m-3.2 8.1l3.6-6.3m-3.5 8.6l1.7-3m1.3-2.1l.5-1m-2 6.1l.2-.5m1.1 5.8l.7-1.3m-.7 6.4l.7-1.3m-.7 6.4l.7-1.3m-.7 6.3l.7-1.2m-.7 6.3l.7-1.2m-.3 5.7l.3-.7m-25.2-71.8l4-4.1m-10 4.1l5.9-5.9m-11.9 5.9l9.7-9.7m-15.6 9.7l9.7-9.9m-15.7 9.9l10-10m-16 10l10-10m-16 10l10-10m-16 10l10-9.9m-16 9.9l7.7-7.7m-13.7 7.7l5.5-5.5m-10.7 4.7l5-5m-10.9 5l6.1-6.3m-12.2 6.3l8.7-8.6m-14.7 8.6L118 93.4m-18.4 12.4l15.6-15.6m-19 13.1L111.5 88M92 101.5l15-15m-15.8 9.8l7.3-7.3m2.1-2.1l.4-.4m-10 4.1l4-4.1m-7.1 1.1l1-1.1m80.2 147.4l10-10.1m-15.9 10.1l10-10.1m-16 10.1l10-10.1m-16 10l10-10m-14.8 8.8l8.8-8.8m-13.5 7.5l7.5-7.5m-12.2 6.3l6.2-6.3m-11.2 5.3l5.2-5.3m-22.7 16.8l3.2-3.3m6.7-6.6l6.9-6.9m-26 20.1l19.2-19.3m-25.2 19.3l19.3-19.3m-25.3 19.3l19.3-19.3m-24.7 18.7l18.7-18.7M91.2 234l9.4-9.4m-14-122.8l-4-6.9m7.7 4.9l-6.1-10.6m7 3.5l-1.3-2.1M84 241.2l-1.4-2.4m5.5 1l-5.5-9.5m8.6 6.3l-5.4-9.2m5.4.7l-.6-.9m96.8-7.3V105.7m-.8 115V106.6m-59 117.2v-74.3m0-27.7V107m0 117.6h54.7m5-118.8h-59.7m-31-17.9h4m-4.4 136.7V105.8m-4 122.1v-7.3m0-9.2v-92.5m0-9.1v-7.3m-4.3-14.6v2.7h3.3v7.6"/><path class="st0" d="M82.6 227.9h3.2v-.7h5.4v12.6h-3.3m3.3-12.6h-5.4m5.4-3.6v3.6m0-3.6h-5.4v3.3m0-3.3v-29.5m0-57v-30.4m0 87.4v-2.8m0-51.3v-2.9m3.7 57h-3.7m5.4-5.7v-51.3M89.5 191h-3.7v.3m5.4-51h-5.4V191m0-50.7v-.3m0-2.9h5.4m-5.4-34.3v-.3m3.7 4.2h-3.7v-3.9m3.7.5h-3.7m5.4 120.3v-2.8m0-11.7v-12.6m0-87V107m0 30.1v-15.8m0 99.5h-1.4v-11.7h1.4v.9m0-.1h-1.4m-.3-15.8l1.7 2.4m0 0v-8.1m-1.7 2.6l1.7-2.6m-1.7 5.7V191m.3-70.6h1.4v.9h-1.4m1.4-.9"/><path class="st0" d="M89.8 121.3v-11.8h1.4m0-2.5v-8.8m-1.7 8.5l1.7.3m-.1-3.6l-1.5-.1m-.1-1.5v4.9m2.2 2.3l-.5-1.2m.5 1.2l1.1 2 .5 2.2v2.2l-.5 2.2-1.1 2.1m-.6.7l.3-.3.3-.4m0 91l-.3-.4-.3-.4m-.3.8h.9m-1.6-.8l.3.4.3.4m1 0l1.1 2.1.5 2.2v2.1l-.5 2.2-1.1 2"/><path class="st0" d="M90.7 210.7l1.1 2 .5 2 .1 2.1-.4 2-.8 2m0 1.7l.5-1.2m-.5 13.4v.1m113.1-53.5V149m1.8 0v32.3m-1.8-12.4h1.8m-1.8-5.6h1.8m-1.8-3.4h1.8m-1.8-5.9h1.8m-1.8-3.7h1.8m1.2 41.5h-1.2v-.5h-1.8v-10h1.8v5.3h1.6zm.6-47.9h-1.8v5.1h-1.8v-9.9h1.8v-.5h1.8zm-.7 7.4h.7v27.8h-.7zm-2.9 28.8h1.8m-39.5 58.6v-2l.7-.9h2.6z"/><path class="st0" d="M166.6 96.5V59.6l.8-1h67.8l.7.7v6h2.7l.5.5h1.5l.6-.5h44.3l.8.9v157.7h4.8l.6.4v25.6l-.6.5h-4.8v13.8l-.8.8h-44.3l-.6-.6h-1.5l-.5.6h-2.7v5.9l-.7 1h-67.8l-.8-1v-37 2.8m.7-140.1v-2.1m0 141.3v-1.9"/><path class="st0" d="M166.6 80l.7.5 3.8 2.2 3.5 2.3 3.1 2.3 2.8 2.3 2.6 2.4 2.3 2.4 2 2.4 1.9 2.4 1.7 2.5 1.6 2.3 2.8 4.9 1.4 2.4.7 1.3.5 1 .6 1.2.7 1.4.9 1.5 1.8 3.5 1.7 3.5.8 1.7.8 1.5.6 1.3.5 1.2.6 2.1.6 2.1.1 2.1.1 1.3.1 1.5v41.6l-.1 1.8v1.8l-.1 1.6-.1 2.9-.3 2.5-.3 2.3-.6 2.2-.6 2-.8 2-.9 1.8-1.2 1.8-1.4 1.9-1.5 1.9-1.8 1.8-1.9 2-2.3 2.2-2.4 2.4-.7.6-.8.8-1 .8-1.1 1.1-1.3 1.2-1.4 1.4-1.6 1.4-1.6 1.5-3.6 3.3-3.8 3.4-3.7 3.4-3.7 3.1-.7.7"/><g id="Middle_line"><path class="st2" d="M72.3 165.2h3.5"/><path fill="none" stroke="#000" stroke-width=".283" stroke-miterlimit="10" stroke-dasharray=".5728,2.8638" d="M78.7 165.2h2"/><path fill="none" stroke="#000" stroke-width=".283" stroke-miterlimit="10" stroke-dasharray="7.1595,2.8638,.5728,2.8638" d="M82.2 165.2h213.9"/><path class="st2" d="M297.5 165.2h3.5"/></g><g id="Guides"><path class="st5" d="M197.7 163.5l-2.3 3.1 8.5 3.7z"/><path class="st6" d="M196.6 165L168 143.8h-63.4"/><path class="st5" d="M60.2 114.8H64l-1.9-9zm3.8 101h-3.8l1.9 9z"/><path class="st6" d="M62.1 114.8v101"/><path class="st7" d="M96.7 105.9H59.6m37.1 118.8H59.6m23.1-135V20m121.5 144.4V19.5"/><path class="st5" d="M194.6 20.2V24l9-1.9zM92.2 24v-3.8l-9.1 1.9z"/><path class="st6" d="M196 22.1H91.2"/><path class="st5" d="M100.5 251.2l-2.2-3.2 8.4-3.7z"/><path class="st6" d="M99.5 249.5l-18.6 13.6H19.5"/><path class="st5" d="M177.9 42.6v3.9l9-1.9zm-86 3.9v-3.9l-9 2z"/><path class="st7" d="M187.2 102.9V42"/><path class="st2" d="M90.3 44.6h87.6"/></g><g id="Text"><text transform="translate(104.086 139.703)" class="st8 st9">Sensor glass</text><text transform="rotate(-90 128.736 73.829)" class="st8 st9">F-mount thread</text><text transform="translate(209.58 295.662)" class="st8 st9">Not to scale</text><text transform="translate(209.58 308.862)" class="st8 st9">Dimensions in mm</text><text transform="translate(97.056 17.126)" class="st8 st9">Max. lens intrusion</text><text transform="translate(19.716 258.362)" class="st8 st9">F-mount</text><text transform="translate(101.246 40.97)" class="st8 st9">Lens mount</text><text transform="translate(101.246 54.17)" class="st8 st9">thread length</text></g></svg>