<svg version="1.0" xmlns="http://www.w3.org/2000/svg" viewBox="0 0 350 200"><g fill="none" stroke="#1A1A18" stroke-width=".624" stroke-linecap="round" stroke-linejoin="round" stroke-miterlimit="10"><path d="M316.5 50.8L242.5 8l-12.4 7.3-6.6-3.6-6.9 4m-5.4-2.9l-30.5 17.5 90.5 52.5 31.1-17.7z"/><path d="M273.8 192.4v-105l30.9-18.1v105.3l-30.9 17.8s-.6 0-1.3.3c-1.2.4-1.5.6-1.5.6l-90.4-52.2-2.4-3.9V32.1s.7-.4 1.5-.9 1.1-1 1.1-1"/><path d="M304.8 168.2l6.7-3.8.2-7.4 12.6-7.3V64.3l-12.7 7.4v-7.2l-7.2 4.1"/><path d="M302.7 65.7l7.3-4.1s.4.8.7 1.5c.4.7.9 1.5.9 1.5m-9.3.6l.4.5s.4.8.8 1.5.9 1.5.9 1.5l.3.6v.5m-33.5 13l.5.7s.4.8.8 1.5.9 1.5.9 1.5l.3.6v.5M303.8 58l12.7-7.2m.1.1v4.8s.1 2.4 1.5 4.2c1.3 1.6 2.1 2 2.1 2l4.1 2.4m-10.5 91.6c1.4 2.2 1.1 4.9-.6 6l-1.5.9"/><path d="M307 59.8l2.2-1.2c1.6-.3 3.5.6 4.7 2.4 1.4 2.2 1.1 4.9-.6 6l-1.5.9m-86.9-55.5L227 11c1.6-.3 3.7.7 4.8 2.5.1.2.2.4.3.5m71.5 44l6.4 3.6M214 31c0 1.2-1.7 2.1-3.8 2.1s-3.8-1-3.8-2.1c0-1.2 1.7-2.1 3.8-2.1s3.8.9 3.8 2.1z"/><path d="M213 31.6c0 .8-1.2 1.5-2.7 1.5-1.5 0-2.7-.7-2.7-1.5s1.2-1.5 2.7-1.5c1.5 0 2.7.7 2.7 1.5zm61 34.1c0 1.2-1.7 2.1-3.8 2.1-2.1 0-3.8-1-3.8-2.1 0-1.2 1.7-2.1 3.8-2.1 2.1-.1 3.8.9 3.8 2.1z"/><path d="M272.9 66.3c0 .8-1.2 1.5-2.7 1.5-1.5 0-2.7-.7-2.7-1.5s1.2-1.5 2.7-1.5c1.5 0 2.7.7 2.7 1.5zm-19 25.4c1-.6 2.7.3 3.8 2.1 1.1 1.8 1.2 3.7.2 4.3-1 .6-2.7-.3-3.8-2.1-1.2-1.8-1.2-3.7-.2-4.3z"/><path d="M255 92.2c.7-.4 1.9.2 2.7 1.5.8 1.3.9 2.7.2 3.1-.7.4-1.9-.2-2.7-1.5-.9-1.3-.9-2.6-.2-3.1zM193.7 57c1-.6 2.7.3 3.8 2.1 1.1 1.8 1.2 3.7.2 4.3-1 .6-2.7-.3-3.8-2.1-1.1-1.8-1.2-3.7-.2-4.3z"/><path d="M194.8 57.5c.7-.4 1.9.2 2.7 1.5.8 1.3.9 2.7.2 3.1-.7.4-1.9-.2-2.7-1.5-.8-1.3-.9-2.7-.2-3.1zM253.9 161c1-.6 2.7.3 3.8 2.1 1.1 1.8 1.2 3.7.2 4.3-1 .6-2.7-.3-3.8-2.1-1.2-1.8-1.2-3.7-.2-4.3z"/><path d="M255 161.5c.7-.4 1.9.2 2.7 1.5.8 1.3.9 2.7.2 3.1-.7.4-1.9-.2-2.7-1.5-.9-1.2-.9-2.6-.2-3.1zm31.3 7.9c-1-.6-.9-2.5.2-4.3 1.1-1.8 2.8-2.7 3.8-2.1 1 .6.9 2.6-.2 4.3-1.1 1.8-2.8 2.7-3.8 2.1z"/><path d="M286.3 168.2c-.7-.4-.6-1.8.1-3.1.8-1.3 2-2 2.7-1.5.7.4.6 1.8-.1 3.1-.7 1.2-2 1.9-2.7 1.5zm0-68.1c-1-.6-.9-2.5.2-4.3 1.1-1.8 2.8-2.7 3.8-2.1 1 .6.9 2.6-.2 4.3-1.1 1.8-2.8 2.7-3.8 2.1z"/><path d="M286.3 98.9c-.7-.4-.6-1.8.1-3.1.8-1.3 2-2 2.7-1.5.7.4.6 1.8-.1 3.1-.7 1.2-2 1.9-2.7 1.5zm-92.6 27.4c1-.6 2.7.3 3.8 2.1 1.1 1.8 1.2 3.7.2 4.3-1 .6-2.7-.3-3.8-2.1-1.1-1.8-1.2-3.7-.2-4.3z"/><path d="M194.8 126.8c.7-.4 1.9.2 2.7 1.5.8 1.3.9 2.7.2 3.1-.7.4-1.9-.2-2.7-1.5-.8-1.2-.9-2.6-.2-3.1zm9.7-17.9c.5-.3 1.3.2 1.8 1s.6 1.7.1 2c-.5.3-1.3-.2-1.8-1s-.6-1.7-.1-2zm43.5 38.6c.5-.3 1.3.2 1.8 1s.6 1.7.1 2c-.5.3-1.3-.2-1.8-1s-.5-1.7-.1-2z"/><path d="M256.9 113.6c.7-1.3.5-3.5-.7-5.6-.5-.9-1.1-1.7-1.8-2.2-1.4-1.1-3.4-2.4-4.2-4-.5-1-1.1-2-1.7-3-8.5-14.5-20.5-24.5-31.3-27.3-1.2-.3-3.8-1.2-5.4-3.2-1.5-1.9-3.5-2.9-4.8-2.1-.8.4-1.1 1.4-1.1 2.6 0 1.5-.4 2.8-1.6 3.5-.5.2-.9.4-1.3.7-8.8 5.2-11.3 18.3-7.6 33.2.6 2.4 0 2.8-.9 4.6-.6 1.3-.3 3.4.8 5.3.7 1.2 1.6 2.1 2.5 2.7 1.1.8 3 2.4 4.1 4 .5.8.9 1.7 1.4 2.5 8.8 15 21.6 24.5 32.4 27.5 1.5.4 2.8 1.4 4 3 1.4 2 3.5 2.8 4.7 2.1.7-.4 1.1-1.4 1.1-2.5-.1-2.1.8-3.1 1.7-3.5.6-.2 1.1-.5 1.6-.8 8.9-5.2 11.3-18.6 7.4-33.7-.2-1 0-2.7.7-3.8z"/><path d="M211.8 68.4c-.4.2-.9.5-1.2.7-8.8 5.2-11.3 18.3-7.6 33.2.6 2.4 0 2.8-.9 4.6-.6 1.3-.3 3.4.8 5.3.7 1.2 1.6 2.1 2.5 2.7 1.1.8 3 2.4 4.1 4 .5.8.9 1.7 1.4 2.5 8.8 15 21.6 24.5 32.4 27.5 1.5.4 2.7 1.3 3.9 3"/><path d="M218.1 71.8c-1.6.3-3.3.8-4.7 1.7-11 6.3-11.1 26.8-.3 45.8 10.9 19 28.6 29.4 39.6 23.1 1.9-1.1 3.5-2.6 4.7-4.4"/><path d="M219 72.2c-5.6 9-4 25.4 4.8 40.8 9 15.8 22.8 25.7 33.5 24.9M197.2 107l4.5-2.5m4.1-32.8l1.3-.7m-5.3 49.1l4.8-2.6m32.5 35.7l4.8-2.7"/></g><text transform="translate(13 20.861)"><tspan x="0" y="0" fill="#1D1D1B" font-family="Helvetica,Arial,sans-serif" font-size="12">Housing temperature </tspan><tspan x="0" y="14.4" fill="#1D1D1B" font-family="Helvetica,Arial,sans-serif" font-size="12">measurement point</tspan></text><path fill="none" stroke="#000" stroke-miterlimit="10" d="M13 40.5h113.7m0 0l61.2 30.3"/><path fill="#666" stroke="#666" stroke-width=".624" stroke-linecap="round" stroke-linejoin="round" stroke-miterlimit="10" d="M188.9 69.6c.8.7 1 1.7.5 2.4s-1.6.7-2.4 0c-.8-.7-1-1.7-.5-2.4s1.5-.7 2.4 0z"/></svg>