<svg version="1.0" xmlns="http://www.w3.org/2000/svg" viewBox="0 0 1000 720"><path fill="none" stroke="#010202" stroke-width=".283" stroke-linecap="round" stroke-linejoin="round" stroke-miterlimit="10" d="M638.4 692.8V529.4m-.5 0v163.4m0 3.9l.5.4m0-4.3v4.3m-.5-.4v-3.9m0-167.3l.5-.4m0 0v4.3m-.5 0v-3.9m20.7-.4h-20.2m20.2 4.3v-4.3m0 172v-4.3m-20.2 4.3h20.2m0-167.7v163.4m.8 3.4l-.8.9m0-172l.8.8m0 0v3.5m0 163.4V529.4m0 163.4v3.4m2.6-77.8v53.3m-2.6-53.3h2.6m-2.6 53.3h2.6M659.9 571v-16.8m0 102.8v-16.7m0-69.3h-.5m.5-16.8h-.5m.5 102.8h-.5m.5-16.7h-.5m-184.8 55.9v-4.3m0-161.7v161.7m0-161.7v-4.3m163.3 0v4.3m0 161.7V530.2m0 161.7v4.3m0-170.3H474.6m0 170.3h163.3m41.3-32.1v-.3m-13.7 0h13.7m-13.7 0v.3m0-38.1v.3m13.7 0h-13.7m13.7 0v-.3m-16.1-4.6v47.3m23.4-42.7v38.1M662 621.4h1.1m-1.1 47.3h1.1m0-42.7h2.4m13.7 0h7.3m-23.4 38.1h2.4m13.7 0h7.3m-118.3-51.2h-.9m-.8-7.4h-.8m.8-.8v.8m-.8 0v1.7m3.3 1.6v.8m0 0h-1.7m0-.8h1.7m-1.7.8v-.8m1.7-2.5h-.8m.8-.8v.8m-.8-.8h.8m-.8.8v-.8m0 1.7h-.9m.9-.9v.9m-.9-.9h.9m-.9.9v-.9m0 2.5h-.8m.8-1.6v1.6m-.8 0v1.6m-.8-3.2h1.6m-1.6.8v-.8m-2.4.8h2.4m3.3 3.2h-.8m.8-.8v.8m-.8-.8h.8m-.8.8v-.8m.8 1.6v.9m-.8-.9h.8m-1.7-.8h.9m0 0v.8m-.9.9v-.9m-.8-1.6h.8m-1.6-.8h-.8m0 0v1.6m-.8-1.6v-.8m.8 2.4h-.8m0 0v-.8m0 0h-.8m0-.8h.8m-.8.8v-.8m.8-2.4h-.8m.8-.9v.9m-.8 0v.8m-.9-1.7h1.7m.8-.8h-2.5m0-.8h4.1m-4.1.8v-.8m-.8.8h.8m-.8 1.7v-.9m0 0h-.8m.8-1.6v.8m-.8.8v-.8m0 0h-1.6m0-.8h2.4m-2.4.8v-.8m-.8.8h.8m0 1.7h-.8m.8-1.7v1.7m-.8 0v-1.7m5.7 3.3h-2.5m.8-3.3v.8m-.8 2.5v-.8m0 0h-.8m0-.8h.8m-.8.8v-.8m0 0h-.8m.8-.9v.9m-.8-.9h.8m-.8.9v-.9m5.7.9h-.8m0 0v-1.7m2.4 4.9v.8m0 .8h-1.6m0 0v-2.4m0 3.3h-.8m.8-.9v.9m-.8-.9h.8m-.8.9v-.9m-2.5-12.2v2.5m-2.4-2.5h2.4m0 2.5H560m0 0v-2.5m3.3-.8h-4.1m0 0v4.1m-.8-4.9h5.7m-.8 4.9V599m.8-.8v5.7m-4.9-.8h4.1m.8.8h-5.7m0 0v-5.7m15.5.8h-.9m0 0v-.8m0 0h.9m0 0v.8m6.5 10.6h-.8m0 0v-.8m0 0h.8m0 0v.8m-4.1 4.1h-.8m0 0V612m0 0h.8m0 0v-1.6m0 0h1.6m0 0v1.6m0 0h-1.6m0 0v1.7m4.9-3.3v-.8m0 0h.8m0 0v.8m0 0h-.8m-7.3-5.7v-1.6m0 0h-.9m0 0v-.8m0-1.7v-.8m0 0h2.5m0 0v-.8m0 0h-.8m0 0v-.8m0 0h.8m0 0v.8m0 0h.8m0 0v.8m0 0h.8m0 0v-1.6m0 0h1.7m0 0v.8m0 0h.8m0 0v-.8m0 0h1.6m0 0v.8m0 0h-.8m0 0v.8m0 0h.8m0 0v.8m0 0h-.8m0 0v.8m0 0h1.6m0 0v1.7m0 0h-.8m0 0v-.8m0 0h-1.6m0 0v.8m0 0h-.8m0 0v.8m0 0h2.4m0 0v.8m0 0h.8m0 0v.8m0 0h-1.6m0 0v.8m0 0h.8m0 0v1.7m0 0h-.8m0 0v-.8m0 0h-1.6m0 0v.8m0 0h-.9m0 0v.8m0 0h.9m0 0v.8m0 0h-1.7m0 0v-.8m0 0h-.8m-2.4-1.6v-.9m0 0h2.4m0 0v-.8m0 0h-1.6m0 0v-.8m0 0h-.8m2.4 4.1v-.8m0 0h-.8m0 0v-.8m0 0h-1.6m-.9-4.9h1.7m0 0v-1.7m0 0H573m4.1 3.3h-.8m.8-.8v.8m-.8-.8h.8m-.8.8v-.8m-.8-.8v2.4m1.6 1.6v.9m-.8-6.6v.8m0 0h.8m0 0v-.8m0 0h-.8m.8-.8v.8m0 6.6h1.7m-3.3-2.5h2.4m0 0v-2.4m.9 4h-1.7m1.7-1.6v.8m-.9-3.2h-2.4m2.4-1.7v.8m-.8-.8h.8m.9.8v.9m-.9-.9h.9m-.9-1.6h-.8m.8-.8v.8m.9-.8h-.9m.9 3.3h.8m0-.9h-.8m0 0V599m.8 3.3v-.9m-.8 5.8v-.9m0-.8h1.6m0-.8h-1.6m1.6.8v-.8m-4.9 14.7h-.8m0 0v-3.3m0 0h.8m0 0v3.3m.8 2.4v-5.7m0 0h5.7m0 0v5.7m0 0h-5.7m4.9-11.4v2.5m0 0h.8m0 0v1.6m0 0h-.8m0 0v-.8m0 0h-2.4m0 0v.8m0 0h.8m0 0v.8m0 0h-1.7m0 0v-1.6m0 0h-.8m0 0v-.8m0 0h2.5m0 0v-.9m0 0h-.8m0 0v-1.6m0 0h.8m0 0v1.6m0 0h.8m0 0v-1.6m0 0h.8m-5.7 4.9v-.8m0 0h1.6m0 0v.8m0 0h-1.6m-2.5-2.4h.9m0 0v.8m0 0h.8m0 0v1.6m0 0h-.8m0 0v1.6m0 0h-.9m0 0v-4m-2.4 4h.8m0 0v-.8m0 0h.8m0 0v.8m0 0h-.8m0 0v.9m0 0h.8m0 0v.8m0 0h.8m0 0v.8m0 0h.9m0 0v.8m0 0h1.6m0 0v1.6m0 0h-3.3m0 0v-.8m0 0h.8m0 0v-1.6m0 0h-.8m0 0v.8m0 0h-1.6m0 0v-1.6m-4.1 1.6h-.8m0 0v-.8m-.8-1.6h.8m-.8-2.5h1.6m0 0v-.8m0 0h.8m0 2.4h.9m-1.7-.8h-.8m11.4.8v4.1m0 0h4.1m0 0v-4.1m0 0h-4.1m.8 3.3v-2.4m2.5 2.4h-2.5m2.5-2.4v2.4m-2.5-2.4h2.5m-9.8.8h.8m0 0v-.8m0 0h-.8m-4.1 1.6v.8m-.8-.8h.8M496 656.2v-90.3m0 90.3c0 4.8 3.9 8.6 8.6 8.6m90.3.1h-90.3m90.3 0c4.7 0 8.6-3.9 8.6-8.6m0-90.4v90.3m0-90.3c0-4.8-3.9-8.6-8.6-8.6m-90.3 0h90.3m-90.3 0c-4.8 0-8.6 3.8-8.6 8.6m55.3 27.6v6.6m0 0h-.4m0 0v-6.6m0 0h.4m-3.3-1.3v.7m0 0h-.8m0 0v-.7m0 0h.8m-.8 8.5h.8m0 0v.7m0 0h-.8m0 0v-.7m3.2-8.5v.7m0 0h-.8m0 0v-.7m0 0h.8m-.8 8.5h.8m0 0v.7m0 0h-.8m0 0v-.7m1.3 7.9v-6.5m0 0h.4m0 0v6.5m0 0h-.4m.4 2v6.6m0 0h-.4m0 0v-6.6m0 0h.4m-3.3-1.3v.6m0 0h-.8m0 0v-.6m0 0h.8m-.8 8.5h.8m0 0v.7m0 0h-.8m0 0v-.7m3.2-8.5v.6m0 0h-.8m0 0v-.6m0 0h.8m-.8 8.5h.8m0 0v.7m0 0h-.8m0 0v-.7m1.3 7.9v-6.5m0 0h.4m0 0v6.5m0 0h-.4m.4 2v6.5m0 0h-.4m0 0v-6.5m0 0h.4m-3.3-1.3v.6m0 0h-.8m0 0v-.6m0 0h.8m-.8 10.4h.8m0 0v.6m0 0h-.8m0 0v-.6m3.2-10.4v.6m0 0h-.8m0 0v-.6m0 0h.8m-.8 10.4h.8m0 0v.6m0 0h-.8m0 0v-.6m-.4 7.5l1.2.4m0 0v.6m0 0l-4.3-1.5m0 0v-.7m0 0l4.3-1.4m0 0v.6m0 0l-1.2.4m0 0v1.6m-2.2-3.8c.1.1.3.2.6.3.2.1.5.1.7.1m0 0c.3 0 .5 0 .8-.1.2-.1.4-.2.5-.3m0 0c.1-.1.2-.3.3-.4.1-.2.1-.3.1-.5m0 0c0-.2 0-.3-.1-.5 0-.1-.1-.3-.2-.4m.1 0c-.1-.1-.1-.2-.2-.3l-.2-.2m0 .1v-.1m0 0h.7m0 0c0 .1.1.2.1.3 0 .1.1.2.1.3m.1 0c0 .1.1.2.1.3v.4m0 .1c0 .3 0 .5-.1.8-.1.2-.2.4-.4.6m-.1 0c-.2.2-.4.3-.7.4-.3.1-.6.1-1 .1"/><path fill="none" stroke="#010202" stroke-width=".283" stroke-linecap="round" stroke-linejoin="round" stroke-miterlimit="10" d="M548.3 641.5c-.4 0-.7 0-.9-.1-.3-.1-.5-.2-.7-.4m-.1 0c-.2-.2-.3-.4-.4-.6-.1-.2-.2-.5-.2-.8m0 0v-.4c0-.1 0-.2.1-.4m.1 0c0-.1.1-.2.1-.3 0-.1.1-.2.1-.3m0 0h.7m0 0v.1m0 0l-.2.2c-.1.1-.1.2-.2.3m0 0c-.1.1-.1.2-.1.4 0 .1-.1.3-.1.4m0 0c0 .2 0 .4.1.5.1.2.2.3.3.4m-.8 8.9v-.8m0 0l2.4-1.1m0 0l-2.4-1m0 0v-.8m0 0h4.3m0 0v.5m0 0h-3.7m0 0l2.5 1.2m0 0v.3m0 0l-2.5 1.1m0 0h3.7m0 0v.6m0 0h-4.3m-1.9-38.9v25.9m0 0h-.4m0 0v-25.9m0 0h.4m-7.4 29.2v-32.4m0 0h.3m0 0v32.4m0 0h-.3m3.3-.8h.8m0 0v.7m0 0h-.8m0 0v-.7m-6.2 3.3v.7m0 0h-.9m0 0v-.7m0 0h.9m8.6-3.3h.8m0 0v.7m0 0h-.8m0 0v-.7m-6.2 3.3v.7m0 0h-.9m0 0v-.7m0 0h.9m2.7.8l3.4-1.7m0 0H539m0 0v-.6m0 0h4.3m0 0v.7m0 0l-3.7 1.9m0 0h3.7m0 0v.5m0 0H539m0 0v-.8m-17.4-24.8c0-.1-.1-.2-.1-.2 0-.1-.1-.1-.1-.2m-.1-.1h0m0 0h.6m0 0c0 .1.1.1.1.2s.1.2.1.3m0 0c0 .1.1.2.1.3v.3m0 0c0 .5-.1.9-.4 1.2-.3.3-.7.4-1.2.4m-.1 0c-.5 0-.9-.1-1.3-.4-.3-.3-.5-.6-.5-1.1m.1 0c0-.2 0-.4.1-.5.1-.2.1-.3.3-.4m-.1 0c.1-.1.3-.2.5-.3.2-.1.4-.1.7-.1m-.1 0h.3m0 0v2.3"/><path fill="none" stroke="#010202" stroke-width=".283" stroke-linecap="round" stroke-linejoin="round" stroke-miterlimit="10" d="M520.5 619.9c.4 0 .7-.1.9-.3.2-.2.3-.5.3-.8m0 0v-.4c0-.1-.1-.2-.1-.3m17.2 26.8v-.5m0 0l5.5 1.7m0 0v.5m0 0l-5.5-1.7m-19.3-11.6h-.6m0 0c0-.1-.1-.2-.1-.4s-.1-.4-.1-.6m.1 0c0-.2 0-.4.1-.6 0-.2.1-.3.2-.4"/><path fill="none" stroke="#010202" stroke-width=".283" stroke-linecap="round" stroke-linejoin="round" stroke-miterlimit="10" d="M519 631.4l.3-.3c.1-.1.3-.1.5-.1m.1 0h2.2m0 0v.6m0 0h-.3m0 0s.1.1.1.2c.1.1.1.1.1.2m0 0c.1.1.1.2.1.3v.4m.1-.1c0 .1 0 .3-.1.4 0 .1-.1.2-.2.3m0 0c-.1.1-.2.2-.3.2-.1.1-.3.1-.4.1m0 0c-.2 0-.4 0-.6-.1-.2-.1-.3-.2-.4-.5m0 0c-.1-.2-.1-.4-.2-.6 0-.2-.1-.5-.1-.8m.1 0h-.1m0 0c-.1 0-.2 0-.3.1-.1 0-.1.1-.2.2m0-.1c0 .1-.1.2-.1.3v.3"/><path fill="none" stroke="#010202" stroke-width=".283" stroke-linecap="round" stroke-linejoin="round" stroke-miterlimit="10" d="M519.3 632.3c0 .1 0 .3.1.4 0 .2.1.3.2.5m-.1.1h0m19.7 13.5h.7m0 0v.1m0 0c-.1.1-.2.3-.3.5-.1.2-.1.4-.1.7m0 0c0 .3.1.5.2.6.1.2.3.2.5.2m-.1.1c.2 0 .3 0 .4-.1.1-.1.2-.2.2-.4m.1-.1c0-.1.1-.3.1-.4 0-.2.1-.3.1-.4m0-.1c.1-.3.2-.5.4-.6.2-.1.4-.2.7-.2m0 0c.2 0 .3 0 .5.1s.3.2.4.3m0-.1c.1.1.2.3.3.5.1.2.1.4.1.7m0 0c0 .3 0 .6-.1.8-.1.2-.1.4-.2.6m0 0h-.7m0 0v-.1m0 0c.2-.2.3-.4.4-.6.1-.2.1-.5.1-.7m0 0c0-.3-.1-.6-.2-.7-.1-.2-.3-.2-.5-.2m0-.1c-.2 0-.3 0-.4.1-.1.1-.2.2-.2.4m-.1.1c0 .1-.1.3-.1.4 0 .1-.1.2-.1.4m.1 0c0 .1-.1.3-.1.4-.1.1-.1.2-.2.3m-.1 0c-.1.1-.2.2-.3.2-.1 0-.3.1-.4.1m-.1-.1c-.3 0-.6-.1-.9-.4-.2-.3-.4-.6-.4-1m.1 0c0-.2 0-.5.1-.7 0-.2.1-.4.2-.6m-20.4-11.9h.4m0 0c-.2-.2-.3-.4-.4-.5-.1-.2-.1-.3-.1-.4m.1 0v-.2m0 0h.5m0 0h0m0 0v.3m0 0c0 .1 0 .3.1.4.1.1.2.3.3.4m0 0h2.3m0 0v.6m0 0h-3.2m0 0v-.6m18.2-43.1v9.8m0 0h-.3m0 0v-9.8m0 0h.3m-17.6 54.8h-.6m0 0c0-.1-.1-.2-.1-.4s-.1-.4-.1-.6m.1.1c0-.2 0-.4.1-.6 0-.2.1-.3.2-.4m-.1 0l.3-.3c.1-.1.3-.1.5-.1m.1 0h2.2m0 0v.6m0 0h-.3m0 0s.1.1.1.2c.1.1.1.1.1.2m0 0c.1.1.1.2.1.3v.4m.1-.1c0 .1 0 .3-.1.4 0 .1-.1.2-.2.3m0 0c-.1.1-.2.2-.3.2-.1.1-.3.1-.4.1m0 0c-.2 0-.4 0-.6-.1-.2-.1-.3-.2-.4-.4m0-.1c-.1-.2-.1-.4-.2-.6 0-.2-.1-.5-.1-.8m.1 0h-.1m0 0c-.1 0-.2 0-.3.1-.1 0-.1.1-.2.2m0-.1c0 .1-.1.2-.1.3v.3m0 0c0 .1 0 .3.1.4 0 .2.1.3.2.5m-.1 0h0m14.6-43h.5m0 0v1.7m0 0h-.5m0 0v-1.7m-13.6 45.5c.4 0 .7-.1.9-.2.2-.2.3-.4.3-.7m0-.1c0-.2 0-.3-.1-.5s-.2-.3-.3-.4m0 0h0m0 0h.6m0 0s.1.1.1.2.1.2.1.2m0 0c0 .1 0 .2.1.3v.3"/><path fill="none" stroke="#010202" stroke-width=".283" stroke-linecap="round" stroke-linejoin="round" stroke-miterlimit="10" d="M522.2 648.1c0 .2 0 .4-.1.6-.1.2-.2.3-.3.5m0 0c-.1.1-.3.2-.5.3-.2.1-.5.1-.7.1m-.1 0c-.3 0-.5 0-.7-.1-.2-.1-.4-.2-.5-.3m-.1 0c-.1-.1-.3-.3-.3-.5-.1-.2-.1-.4-.1-.6m0 0c0-.2 0-.3.1-.5 0-.2.1-.3.2-.4m-.1 0h.7m0 0h0m0 0s-.1.1-.1.2-.1.1-.1.2m-.1 0c0 .1-.1.2-.1.3v.3"/><path fill="none" stroke="#010202" stroke-width=".283" stroke-linecap="round" stroke-linejoin="round" stroke-miterlimit="10" d="M519.3 648.1c0 .3.1.5.3.7.2.2.5.3.9.3m11.5-1.9v-1m0 0c0-.4 0-.7.1-1 .1-.2.1-.4.3-.6m-.1 0c.2-.3.4-.5.7-.6.3-.2.7-.2 1.1-.2m0 0c.4 0 .7.1 1.1.2.3.2.6.4.7.6m0 0c.1.2.2.4.3.7 0 .2.1.5.1.9m0 0v1m0 0H532m-21-6.3l2.4.8m0 0v1.2m0 0l-8.6-2.9m0 0v-1.4m0 0l8.6-2.9m0 0v1.2m0 0l-2.4.8m0 0v3.2m21 7h.4m0 0v.5m0 0h3.4m0 0v-.5m0 0h.5m0 0v1.6m0 0h-.5m0 0v-.5m0 0h-3.4m0 0v.5m0 0h-.4m0 0v-1.6m-25.3-4.4c.4 0 .8.1 1.1.3.3.2.6.5.8.9m-.1 0h.1m0 0c.1-.5.4-.9.8-1.2.4-.3.8-.4 1.4-.4"/><path fill="none" stroke="#010202" stroke-width=".283" stroke-linecap="round" stroke-linejoin="round" stroke-miterlimit="10" d="M510.7 643.1c.4 0 .8.1 1.1.2.3.2.6.4.8.7m.1 0c.3.3.4.7.5 1 .1.4.2.8.2 1.4m0 .1v2.4m0 0h-8.6m0 0v-2.3m0 0c0-.6 0-1.1.1-1.4 0-.3.1-.6.3-.9"/><path fill="none" stroke="#010202" stroke-width=".283" stroke-linecap="round" stroke-linejoin="round" stroke-miterlimit="10" d="M505.1 644.4c.2-.3.4-.5.6-.7.3-.1.6-.2.9-.2m12.3-20v-.6m0 0h.3m0 0c-.1-.1-.2-.3-.3-.5-.1-.2-.1-.3-.1-.5"/><path fill="none" stroke="#010202" stroke-width=".283" stroke-linecap="round" stroke-linejoin="round" stroke-miterlimit="10" d="M518.8 622c0-.4.1-.7.4-.9.3-.2.7-.3 1.2-.3m0 0c.5 0 1 .1 1.3.4.3.3.5.6.5 1"/><path fill="none" stroke="#010202" stroke-width=".283" stroke-linecap="round" stroke-linejoin="round" stroke-miterlimit="10" d="M522.2 622.1c0 .2 0 .3-.1.4 0 .1-.1.3-.2.4m0 0h1.4m0 0v.6m0 0h-4.4m-12.4 6.3v.1m0 0c-.3.3-.5.6-.7 1.1-.2.4-.3.9-.3 1.3m.1 0c0 .5.1 1 .4 1.3.3.3.6.5 1 .5"/><path fill="none" stroke="#010202" stroke-width=".283" stroke-linecap="round" stroke-linejoin="round" stroke-miterlimit="10" d="M506.9 634c.4 0 .7-.1.9-.3.2-.2.4-.5.5-.8m0 0c.1-.2.1-.5.2-.9s.2-.6.2-.9m0 0c.2-.6.5-1 .8-1.3.4-.3.8-.4 1.4-.4m0 0c.3 0 .7.1 1 .2.3.1.6.3.8.6m0 0c.3.3.4.6.6.9.1.3.2.8.2 1.3m0 .1c0 .6-.1 1.2-.2 1.6-.1.4-.3.9-.5 1.2m0 0h-1.4m0 0v-.1m0 0c.4-.4.6-.8.8-1.3.2-.5.3-.9.3-1.4m0 0c0-.6-.1-1.1-.4-1.4-.3-.3-.6-.5-1-.5m0 0c-.3 0-.6.1-.8.3-.2.2-.4.4-.5.8m0 0c-.1.3-.1.5-.2.7 0 .2-.1.5-.2.8m0 0c-.1.3-.2.6-.3.8-.1.2-.3.4-.5.6m0 .1c-.2.2-.4.3-.7.4-.3.1-.6.1-.9.1"/><path fill="none" stroke="#010202" stroke-width=".283" stroke-linecap="round" stroke-linejoin="round" stroke-miterlimit="10" d="M507.1 635.2c-.7 0-1.3-.3-1.8-.8s-.7-1.2-.7-2.1m0 0c0-.5 0-.9.1-1.4.1-.4.2-.8.4-1.2m.1.1h1.3m12.4-3.6l2.4-.9m0 0l-2.4-.8m0 0v-.6m0 0l4.4 1.7m0 0v.6m0 0l-1.4-.6m0 0l-3 1.2m0 0v-.6m-6.6-2.9h1.1m0 0v5m0 0h-8.6m0 0v-1.2m0 0h7.5m0 0v-3.8m7 3.5v1m0 0h1.6m0 0h.4c.1 0 .2 0 .3-.1m-.1 0c.1 0 .1-.1.2-.2v-.3"/><path fill="none" stroke="#010202" stroke-width=".283" stroke-linecap="round" stroke-linejoin="round" stroke-miterlimit="10" d="M521.7 627.3v-.3c0-.1 0-.1-.1-.2m0 .1v-.1m0 0h.5m0 0c0 .1 0 .2.1.3v.3m0 0c0 .3-.1.5-.3.7-.2.2-.4.2-.8.2m0 .1h-1.8m0 0v.3m0 0h-.4m0 0v-.3m0 0h-1m0 0v-.6m0 0h1m0 0v-1m0 0h.4m-10.2-5.6h3.2m0 0V617m0 0h1.1m0 0v5.4m0 0h-8.6m0 0V617m0 0h1m0 0v4.2m0 0h2.3m0 0v-3.9m0 0h1m0 0v3.9m12.6 16v-.4c0-.1-.1-.2-.1-.3m0 0c0-.1-.1-.2-.1-.2 0-.1-.1-.1-.1-.2m-.1 0h0m0 0h.6m0 0c0 .1.1.1.1.2s.1.2.1.3m0 0c0 .1.1.2.1.3v.3m0 0c0 .5-.1.9-.4 1.2-.3.3-.7.4-1.2.4m-.1 0c-.5 0-.9-.1-1.3-.4-.3-.3-.5-.6-.5-1.1m.1 0c0-.2 0-.4.1-.5.1-.2.1-.3.3-.4m-.1 0c.1-.1.3-.2.5-.3.2-.1.4-.1.7-.1m-.1 0h.3m0 0v2.3m0 0c.4 0 .7-.1.9-.3.2-.2.3-.5.3-.8m-16.9-23.7c0-.5 0-.9.1-1.2.1-.3.2-.6.4-.9m-.1-.1c.2-.3.4-.5.7-.7.3-.2.7-.3 1.1-.3m.1.1c.6 0 1.2.2 1.6.5.4.3.7.8.9 1.3m0 0l3.8-3.1m0 0v1.5m0 0l-3.5 2.7m0 0v1.3m0 0h3.5m0 0v1.2m0 0h-8.6m0 0v-2.3m17.3 29.5v.6m0 0h-3.2m0 0v-.6m0 0h.3m0 0c-.1-.1-.3-.3-.3-.4-.1-.1-.1-.3-.1-.5m0 0c0-.2 0-.4.1-.5.1-.1.2-.3.4-.3m0 0c-.2-.2-.3-.3-.4-.5-.1-.2-.1-.3-.1-.5m0 0c0-.1 0-.3.1-.4 0-.1.1-.2.2-.3m0 0c.1-.1.2-.2.4-.2.1 0 .3-.1.5-.1m0 .1h2.1m0 0v.5m0 0h-1.9m0 0h-.4c-.1 0-.2 0-.3.1m0 0c-.1 0-.1.1-.2.2 0 .1-.1.2-.1.3m.1 0c0 .1 0 .2.1.4.1.1.2.3.3.4m0-.1h.3m0 0h2.1m0 0v.5m0 0h-1.9m0 0h-.4c-.1 0-.2 0-.3.1m0 0c-.1 0-.1.1-.2.2 0 .1-.1.2-.1.3m.1 0c0 .1 0 .2.1.4.1.1.2.3.3.4m0-.1h2.4m28.8-51.5V585m0 0h.4m0 0v6.5m0 0h-.4m-45.2 23.1h3.3m0 0v-1m0 0c0-.3 0-.6-.1-.9-.1-.3-.2-.5-.4-.7m0 0c-.2-.2-.3-.3-.6-.4-.2-.1-.5-.1-.8-.1m-1.4 2v1.1m.3-2.5c-.1.2-.2.4-.2.6 0 .2-.1.5-.1.8m1.5-1.9c-.3 0-.5 0-.7.1-.2.1-.4.2-.5.4m14.1 24.5c-.1 0-.3 0-.4.1-.1 0-.2.1-.3.1m.1 0l-.2.2c0 .1-.1.2-.1.4m.9.9v-1.7"/><path fill="none" stroke="#010202" stroke-width=".283" stroke-linecap="round" stroke-linejoin="round" stroke-miterlimit="10" d="M519.5 638c.1.1.2.1.3.2.1 0 .2.1.4.1m-1-.9c0 .1 0 .3.1.4 0 .1.1.2.2.3m1-16.8c-.4 0-.7.1-.9.2-.2.1-.3.3-.3.6m0 0c0 .2 0 .3.1.4.1.1.2.3.3.4m2-.7c0-.3-.1-.5-.3-.7-.2-.2-.5-.2-.9-.2m1 1.6c.1-.1.1-.3.1-.4v-.3m-1.9.7h1.8m-15.8 24.9h2.5m0 0v-1.3m0 0c0-.4 0-.6-.1-.8 0-.2-.1-.3-.2-.5m.1 0c-.1-.2-.3-.3-.4-.4-.2-.1-.4-.1-.7-.1m2.3 3.1h3.2m0 0v-.9m0 0c0-.5 0-.9-.1-1.2 0-.3-.1-.5-.3-.8m0 0c-.2-.2-.3-.4-.5-.5-.2-.1-.4-.2-.7-.2m-5.1 2.5v1.1m.3-2.7c-.1.2-.2.4-.2.6v.9m1-1.9c-.2 0-.4 0-.5.1-.2.1-.3.2-.4.3m3.3 1.4v1.3m.2-2.8c-.1.2-.2.4-.2.6v.9m1.6-2.2c-.3 0-.6 0-.8.1-.2.1-.4.3-.5.6m-3.6-5.7l4.1 1.3m0 0V638m0 0l-4.1 1.3m28.2 5.1c-.3 0-.6.1-.8.2-.2.1-.4.3-.5.5m-.1-.1c-.1.2-.2.3-.2.5s-.1.4-.1.6m.1 0v.5m3-1.6c-.1-.2-.3-.4-.5-.5-.2-.1-.5-.1-.8-.1m1.6 1.7c0-.2 0-.5-.1-.7 0-.2-.1-.4-.2-.5m.3 1.7v-.5m-3.3.5h3.3m-15.3-.8c0 .1.1.3.2.4.1.1.2.1.4.1m0 0c.2 0 .3-.1.4-.2.1-.1.1-.3.1-.5m.1.1c0-.2 0-.3-.1-.5-.1-.1-.2-.3-.3-.4m-.9.1v.5c0 .2 0 .4.1.5m.8-1h-.9m.1-12.4c0 .1.1.3.2.4.1.1.2.1.4.1m0 0c.2 0 .3-.1.4-.2.1-.1.1-.3.1-.5m.1.1c0-.2 0-.3-.1-.5-.1-.1-.2-.3-.3-.4m-.9.1v.5c0 .2 0 .4.1.5m.8-1h-.9m-1.2-12.6c0 .1 0 .3.1.4 0 .1.1.2.2.3m0-.1c.1.1.2.1.3.2.1 0 .2.1.4.1m-.1 0v-1.7m-.6.2l-.2.2c0 .1-.1.2-.1.4m.9-.8c-.1 0-.3 0-.4.1-.1 0-.2.1-.3.1m27.3 25.1l2 .6m0 0v-1.3m0 0l-2 .7m17.4-21.7h-5.7m0 0v-5.7m0 0h5.7m0 0v5.7m7.3-7.3H569m0 0v3.3m0 0h-.8m0 0v.8m0 0h1.6m0 0v-3.3m0 0h.8m0 0v1.6m0 1.7h-.8m0 0v2.4m0 0h-.8m0 0v.8m0 0h-.8m0 0v-.8m0 0h-.9m0 0v.8m0 0h-.8m0 0v-1.6m-.8-.8h-.8m0 0v-1.6m.8 0v-.9m0 0h-.8m0 0v-1.6m1.6-.8h-2.4m0 0v.8m0 0h-.8m0 0v-.8m0 0h-.9m0 0v-.8m0 0h.9m0 0v-.8m0 0h-.9m0 0v-.9m0 0h-.8m0 0v3.3m0 0H560m0 0v-.8m0 0h-1.6m0 0v-.8m0 0h1.6m0 0v-.8m0 0h-1.6m0 0v-.9m0 0h.8m0 0v-1.6m0 0h-.8m0 0v-.8m0 0h.8m0 0V608m0 0h1.6m6.5 4.9v.8m0 0h-.8m0 0v.8m.8 0v2.4m.9 0v-4m-4.9-2.5v.8m0 0h.8m-2.5-2.4v.8m0 0h.8m0 0v.8m0 0h.9m-2.5-2.4v.8m0 0h.8m2.5 2.4v.8m0 0h-.8m0 0v.9m0 0h.8m0 0v.8m0 0h1.6m0 0v-.8m0 0h1.6m3.3 4.9v.8m-4.9-2.5v.8m0 0h.8m0 0v-.8m-.8 1.7v1.6m.8.8h.8m0 0v-.8m0 0h.9m0 0v-.8m0 0h-.9m0 0v-.8m0 0h-1.6m-5.7 2.4v-2.4m2.4 2.4H560m2.4-2.4v2.4m-2.4-2.4h2.4m-3.2 3.2h4.1m0 0v-4.1m-4.1 0v4.1m4.1-4.1h-4.1m1.6-8.1h-.8m0 0v.8m-.8.8h.8m-.8-.8v.8m.8-.8h-.8m1.6.8h-.8m.8-.8v.8m-.8-.8h.8m-.8.8v-.8m0 .8v2.5m0 .8v.8m.8-.8h-.8m0-.8h.8m0 1.6v-.8m0-.8v-2.5m-.8 4.1h.8m.8-4.9h-.8m0 0v-.8m2.5 4.9v.8m-1.7-3.3h.8m0 0v-.8m-.8 0v.8m-.8-.8h.8m.8 0h-.8m0 0v-.8m1.7 4.9h.8m0-.8h-.8m.8.8v-.8m4.9-7.4h.8m0 0v-1.6m0 0h.8m0 0v-.8m0 0h.8m0 0v.8m0 0h2.5m-.9-2.4h-.8m0 0v.8m0 0h-.8m0 0v-.8m0 0h.8m0 0v-.9m0 0h-2.4m0 0v.9m0 0h-.8m0 0v.8m0 0h.8m0 0v.8m0 0h-.8m0 0v.8m0 0h-1.7m0 0v-.8m0 0h-.8m0 0v-.8m0 0h-.8m0 0v-1.7m0 0h-.8m0 0v-1.6m0 0h.8m0 0v-.8m0 0h.8m0 0v1.6m0 0h2.5m0 0v-.8m0 0h-.8m0 0v-.8m0 0h-.9m0 0v-.8m0 0h.9m0 0v.8m0 0h.8m0 0v-.8m0 0h1.6m0 0v.8m0 0h-.8m0 0v1.6m0 0h.8m0 0v-.8m0 0h.8m0 0v-.8m0 0h.8m0 0v.8m0 0h-.8m0 0v.8m0 0h1.6m3.3 8.2v.8m0 0h-.8m0 0v.8m0 0h-.8m0 0v.8m0 0h-.8m0 0v.8m0 0h-.9m0 0v.9m0 0h-.8m0 0v2.4m0 0h-.8m0 0v-.8m-2.4-1.6h.8m0 0v-.9m0 0h-.8m0 0v-.8m0 0h.8m0 0v.8m0 0h.8m0 0v-.8m0 0h.8m0 0v1.7m0 0h.8m0 0v-.9m0 0h.8m0 0v-.8m0 0h-.8m0 0v-.8m0 0h2.5m0 0v-.8m0 0h-.8m0 0V608m0 0h-1.7m0 0v.8m0 0h.8m0 0v.8m0 0h-3.2m0 0v.8m0 0h-.8m0 0v-.8m0 0h.8m0 0V608m0 0h-.8m0 0v-1.7m-2.5-4.9v1.7m.8 0v.8m-.8-.8h.8m0-1.7h-.8m.8 2.5h.9m0 0v-.8m0 0h-.9m.9-1.7v.9m-.9.8v-1.7m.9.9h.8m0-.9h-.8m.8-.8v.8m0 0h.8m-.8.9v-.9m.8-.8h-.8m.8.8v-.8m3.2 0v1.7m-3.2 10.6v.8m.8-5.7v.8m0-3.3v1.7m3.3-1.7h-3.3m3.3-.8v.8m-4.1 8.2h1.6m0 0v-.8m0 0h-1.6m.8-4.1h.8m0 0v-.8m0 0h-.8m3.3-.8v.8m-3.3-.8h3.3m.8.8v.8m-.8-.8h.8m0 .8h1.6m-101.8 85.3h.1m163.3 0h0m0-166h0m-163.3 0h-.1M662 671.7v-53.3m-2.6 0h2.6m-2.6 53.3h2.6M474.1 525.1l.4.4m-.4 3.9v-4.3m.4.4v3.9m0 163.4V529.4m-.4 0v163.4m0 4.3v-4.3m0 4.3l.4-.4m0-3.9v3.9m-29.3.4h28.9m-28.9-4.3v4.3m28.9-172h-28.9m0 0v4.3m0 163.4V529.4m-.8-3.5l.8-.8m-.8 4.3v-3.5m0 3.5v163.4m0 3.4l.8.9m-.8-.9v-3.4m-23.7-21.3V550.7m.9-.9v122.6m-.9-121.7l.9-.9m-.9 121.7l.9.9m22.8 0h-22.8m22.8-122.6h-22.8m216.3 143h.5m0-163.4h-.5m.5 0h20.2m0 163.4h-20.2m20.2-163.4h.8m-.8 163.4h.8m-21.5-.9H474.6m0-161.7h163.3m0 161.7h0m-163.3 0h-.1m0-161.7h.1m163.3 0h0m-163.8-.8h.4m-.4 163.4h.4m-.4 0h-28.9m0-163.4h28.9m-29.7 0h.8m-.8 163.4h.8"/><text transform="translate(536.157 547.632)" fill="#010202" font-family="Helvetica,Arial,sans-serif" font-size="17.28">Top</text><path fill="none" stroke="#010202" stroke-width=".227" stroke-linecap="round" stroke-linejoin="round" stroke-miterlimit="10" stroke-dasharray="12,2,2,2" d="M686.8 611.1H410.6"/><path d="M742.5 524.9l-.1 17.5m15.2-8.8l-15.2 8.8m.1-17.5l15.1 8.7" clip-rule="evenodd" fill="none" stroke="#1E1E1C" stroke-width=".283" stroke-miterlimit="3.864"/><text transform="translate(766.498 538.453)" fill="#010202" font-family="Helvetica,Arial,sans-serif" font-size="17.28">Reference plane</text><text transform="translate(768.45 576.738)"><tspan x="0" y="0" fill="#010202" font-family="Helvetica,Arial,sans-serif" font-size="17.28">Not to scale </tspan><tspan x="0" y="20.7" fill="#010202" font-family="Helvetica,Arial,sans-serif" font-size="17.28">Dimensions in mm</tspan></text><path fill="none" stroke="#010202" stroke-width=".227" stroke-linecap="round" stroke-linejoin="round" stroke-miterlimit="10" d="M739.7 156.6h0m-76.9-87.1h42.1m-32.4 86h32.4"/><g clip-rule="evenodd"><path fill-rule="evenodd" fill="#1E1E1C" d="M697.1 80.8h4.7l-2.4-11.1zm4.7 63.3h-4.7l2.3 11.1z"/><path fill="none" stroke="#1E1E1C" stroke-width=".227" stroke-miterlimit="3.864" d="M699.4 80.8v64.3"/></g><text transform="rotate(-90 423.377 -292.794)" fill="#010202" font-family="Helvetica,Arial,sans-serif" font-size="17.28">20</text><path fill="none" stroke="#010202" stroke-width=".283" stroke-linecap="round" stroke-linejoin="round" stroke-miterlimit="10" d="M913.8 441c2.4 0 4.3-1.9 4.3-4.3m0-120.4c0-2.4-1.9-4.3-4.3-4.3m-163.4 0c-2.4 0-4.3 1.9-4.3 4.3m0 120.4c0 2.4 1.9 4.3 4.3 4.3m167.7-4.3V316.3m-4.3-4.3H750.4m-4.3 4.3v120.4m.8 0V316.3m3.5-3.5c-1.9 0-3.4 1.5-3.4 3.4m3.4-3.4h163.4m3.5 3.5c0-1.9-1.5-3.4-3.4-3.4m3.4 3.4v120.4m-3.5 3.4c1.9 0 3.4-1.5 3.4-3.4M750.4 441h163.4m0-.9H750.4m-3.5-3.4c0 1.9 1.5 3.4 3.4 3.4m134.6-63.6c0-29.1-23.6-52.8-52.8-52.8-29.1 0-52.8 23.6-52.8 52.8 0 29.1 23.6 52.8 52.8 52.8 29.1-.1 52.8-23.7 52.8-52.8h0z"/><path fill="none" stroke="#010202" stroke-width=".283" stroke-linecap="round" stroke-linejoin="round" stroke-miterlimit="10" d="M884.8 376.5c0-29.1-23.6-52.7-52.7-52.7s-52.7 23.6-52.7 52.7 23.6 52.7 52.7 52.7 52.7-23.6 52.7-52.7h0z"/><path fill="none" stroke="#010202" stroke-width=".283" stroke-linecap="round" stroke-linejoin="round" stroke-miterlimit="10" d="M887.4 376.5c0-30.5-24.7-55.3-55.3-55.3-30.5 0-55.3 24.7-55.3 55.3 0 30.5 24.7 55.3 55.3 55.3 30.5-.1 55.3-24.8 55.3-55.3h0z"/><path fill="none" stroke="#010202" stroke-width=".283" stroke-linecap="round" stroke-linejoin="round" stroke-miterlimit="10" d="M892.5 376.5c0-33.4-27-60.4-60.4-60.4s-60.4 27-60.4 60.4 27 60.4 60.4 60.4 60.4-27.1 60.4-60.4h0z"/><path fill="none" stroke="#010202" stroke-width=".283" stroke-linecap="round" stroke-linejoin="round" stroke-miterlimit="10" d="M893.4 376.5c0-33.8-27.4-61.3-61.3-61.3-33.8 0-61.3 27.4-61.3 61.3 0 33.8 27.4 61.3 61.3 61.3 33.8-.1 61.3-27.5 61.3-61.3h0zm-64.9 43.7h-.6m0-1.5h.6m4.3 4.4v.6m-1.5 0v-.6m4.4-4.4h.6m0 1.6h-.6m-4.3-4.4v-.6m1.5 0v.6m-4.4 4.3c.8-.1 1.4-.2 1.8-.3m-.1 0h.2m0-.9c-.1.3-.1.6 0 .9m0-.9h-.2m0 0c-.4-.1-1-.2-1.8-.3m4.4 4.4c-.1-.8-.2-1.4-.3-1.8m.1 0v-.2m-.9.1c.3.1.6.1.9 0m-.9 0v.2m-.1-.1c-.1.4-.2 1-.3 1.8m4.4-4.4c-.8.1-1.4.2-1.8.3m.1 0h-.2m0 .9c.1-.3.1-.6 0-.9m0 .9h.2m0 0c.4.1 1 .2 1.8.3m-4.4-4.3c.1.8.2 1.4.3 1.8m-.1-.1v.2m.9 0c-.3-.1-.6-.1-.9 0m.9 0v-.2m.1 0c.1-.4.2-1 .3-1.8"/><path fill="none" stroke="#010202" stroke-width=".283" stroke-linecap="round" stroke-linejoin="round" stroke-miterlimit="10" d="M832.5 421.2c0-.1 0-.2.1-.3 0-.1.1-.2.1-.3.1-.1.1-.2.2-.3.1-.1.2-.1.3-.2.1-.1.2-.1.3-.1.1 0 .2 0 .3-.1m0-.9c-.1 0-.2 0-.3-.1-.1 0-.2-.1-.3-.1-.1-.1-.2-.1-.3-.2-.1-.1-.1-.2-.2-.3-.1-.1-.1-.2-.1-.3 0-.1 0-.2-.1-.3m-.8.1c0 .1 0 .2-.1.3 0 .1-.1.2-.1.3-.1.1-.1.2-.2.3-.1.1-.2.2-.3.2-.1.1-.2.1-.3.1-.1 0-.2 0-.3.1m0 .8c.1 0 .2 0 .3.1.1 0 .2.1.3.1.1.1.2.1.3.2.1.1.1.2.2.3.1.1.1.2.1.3 0 .1 0 .2.1.3"/><path fill="none" stroke="#010202" stroke-width=".283" stroke-linecap="round" stroke-linejoin="round" stroke-miterlimit="10" d="M838.6 419.5c0-3.6-2.9-6.5-6.5-6.5s-6.5 2.9-6.5 6.5 2.9 6.5 6.5 6.5c3.6-.1 6.5-3 6.5-6.5h0zm-8.4-.8h-2.3m2.3 0c.6 0 1-.5 1.1-1.1m0-2.3v2.3m1.6 0v-2.3m0 2.3c0 .6.5 1 1.1 1.1m2.3 0H834m0 1.6h2.3m-2.3 0c-.6 0-1 .5-1.1 1.1m0 2.3v-2.3m-1.6 0v2.3m0-2.3c0-.6-.5-1-1.1-1.1m-2.3 0h2.3m-1.7-86.1h-.6m0-1.5h.6m4.3 4.4v.6m-1.5 0v-.6m4.4-4.4h.6m0 1.5h-.6m-4.3-4.4v-.6m1.5.1v.6m-4.4 4.3c.8-.1 1.4-.2 1.8-.3m-.1 0h.2m0-.9c-.1.3-.1.6 0 .9m0-.9h-.2m0 0c-.4-.1-1-.2-1.8-.3m4.4 4.4c-.1-.8-.2-1.4-.3-1.8m.1 0v-.2m-.9 0c.3.1.6.1.9 0m-.9 0v.2m-.1 0c-.1.4-.2 1-.3 1.8m4.4-4.4c-.8.1-1.4.2-1.8.3m.1 0h-.2m0 .9c.1-.3.1-.6 0-.9m0 .9h.2m0 0c.4.1 1 .2 1.8.3m-4.4-4.4c.1.8.2 1.4.3 1.8m-.1 0v.2m.9 0c-.3-.1-.6-.1-.9 0m.9 0v-.2m.1 0c.1-.4.2-1 .3-1.8m-.4 5.3c0-.1 0-.2.1-.3 0-.1.1-.2.1-.3.1-.1.1-.2.2-.3.1-.1.2-.1.3-.2.1-.1.2-.1.3-.1.1 0 .2 0 .3-.1m0-.8c-.1 0-.2 0-.3-.1-.1 0-.2-.1-.3-.1-.1-.1-.2-.1-.3-.2-.1-.1-.1-.2-.2-.3-.1-.1-.1-.2-.1-.3 0-.1 0-.2-.1-.3m-.8.1c0 .1 0 .2-.1.3 0 .1-.1.2-.1.3-.1.1-.1.2-.2.3-.1.1-.2.1-.3.2-.1.1-.2.1-.3.1-.1 0-.2 0-.3.1m0 .8c.1 0 .2 0 .3.1.1 0 .2.1.3.1.1.1.2.1.3.2.1.1.1.2.2.3.1.1.1.2.1.3 0 .1 0 .2.1.3"/><path fill="none" stroke="#010202" stroke-width=".283" stroke-linecap="round" stroke-linejoin="round" stroke-miterlimit="10" d="M838.6 333.5c0-3.6-2.9-6.5-6.5-6.5s-6.5 2.9-6.5 6.5 2.9 6.5 6.5 6.5c3.6-.1 6.5-3 6.5-6.5h0zm-8.4-.8h-2.3m2.3 0c.6 0 1-.5 1.1-1.1m0-2.3v2.3m1.6 0v-2.3m0 2.3c0 .6.5 1 1.1 1.1m2.3 0H834m0 1.6l2.3-.1m-2.3.1c-.6 0-1 .5-1.1 1.1m0 2.3v-2.4m-1.6 0v2.4m0-2.4c0-.6-.5-1-1.1-1.1m-2.3 0l2.3.1"/><path fill="none" stroke="#010202" stroke-width=".283" stroke-linecap="round" stroke-linejoin="round" stroke-miterlimit="10" d="M884.3 376.5c0-28.8-23.3-52.2-52.2-52.2-28.8 0-52.2 23.3-52.2 52.2 0 28.8 23.4 52.2 52.2 52.2 28.8-.1 52.2-23.4 52.2-52.2h0zm-31.1 32.2c9 0 16.3-7.3 16.3-16.3m0-31.8v31.8m0-31.8c0-9-7.3-16.3-16.3-16.3m-42.2-.1h42.2m-42.2 0c-9 0-16.3 7.3-16.3 16.3m0 31.9v-31.8m0 31.8c0 9 7.3 16.3 16.3 16.3m42.2 0H811m-64.9 28h.8m0-120.4h-.8m4.3-3.5v-.8m163.4.8v-.8m3.5 4.3h.8m-.8 120.4h.8m-4.3 3.4v.9m-163.4-.9v.9m78.1-22.3c-.1.5-.1 1 0 1.5m-.6-1.5c-.1.5-.1 1 0 1.5m3.5 2.9c.5.1 1 .1 1.5 0m-1.6.6c.5.1 1 .1 1.5 0m2.9-3.5c.1-.5.1-1 0-1.5m.6 1.6c.1-.5.1-1 0-1.5m-3.5-2.9c-.5-.1-1-.1-1.5 0m1.6-.6c-.5-.1-1-.1-1.5 0"/><path fill="none" stroke="#010202" stroke-width=".283" stroke-linecap="round" stroke-linejoin="round" stroke-miterlimit="10" d="M837.7 419.5c0-3.1-2.5-5.6-5.6-5.6-3.1 0-5.6 2.5-5.6 5.6 0 3.1 2.5 5.6 5.6 5.6 3.1 0 5.6-2.5 5.6-5.6h0zm-4.8 1.9l-.3-.1m1.4-1v-.4m0-1.2v.3m-1.1-1.4h-.3m-1.3 0h.3m-1.4 1.1v.3m0 1.3v-.4m1.1 1.5l.3-.1m-3.1-88.6c-.1.5-.1 1 0 1.5m-.6-1.5c-.1.5-.1 1 0 1.5m3.5 2.9c.5.1 1 .1 1.5 0m-1.6.6c.5.1 1 .1 1.5 0m2.9-3.5c.1-.5.1-1 0-1.5m.6 1.5c.1-.5.1-1 0-1.5m-3.5-2.9c-.5-.1-1-.1-1.5 0m1.6-.5c-.5-.1-1-.1-1.5 0"/><path fill="none" stroke="#010202" stroke-width=".283" stroke-linecap="round" stroke-linejoin="round" stroke-miterlimit="10" d="M837.7 333.5c0-3.1-2.5-5.6-5.6-5.6-3.1 0-5.6 2.5-5.6 5.6 0 3.1 2.5 5.6 5.6 5.6 3.1 0 5.6-2.6 5.6-5.6h0zm-4.8 1.8h-.3m1.4-1v-.4m0-1.2v.3m-1.1-1.4h-.3m-1.3 0h.3m-1.4 1.1v.3m0 1.3v-.4m1.1 1.4h.3m19.2-2.9l.3-.3m-3.8-1c-1.8.4-3 2.2-2.6 4.1.4 1.8 2.2 3 4 2.6 1.8-.4 3-2.2 2.6-4.1-.1-.5-.3-.9-.6-1.3m-3.5-1.7l.1.4"/><path fill="none" stroke="#010202" stroke-width=".283" stroke-linecap="round" stroke-linejoin="round" stroke-miterlimit="10" d="M847.2 330.7c-2.1.4-3.4 2.5-3 4.6.4 2.1 2.5 3.4 4.6 3 2.1-.4 3.4-2.5 3-4.6-.1-.5-.3-1.1-.7-1.5"/><path fill="none" stroke="#010202" stroke-width=".283" stroke-linecap="round" stroke-linejoin="round" stroke-miterlimit="10" d="M847.3 331.1c.4-.1.9-.1 1.3 0s.8.2 1.1.4c.3.1.5.3.7.5l.4.4"/><path fill="none" stroke="#010202" stroke-width=".283" stroke-linecap="round" stroke-linejoin="round" stroke-miterlimit="10" d="M851.1 332.1c-.1-.1-.3-.3-.5-.4-.3-.2-.5-.4-.8-.5-.4-.2-.8-.3-1.2-.4-.5-.1-.9-.2-1.4-.2m3.9 90.2c1.3-1.7.9-4.1-.8-5.4-1.7-1.3-4.1-.9-5.4.8-1.3 1.7-.9 4.1.8 5.4.4.3 1 .6 1.5.7m.1-.4l-.1.4"/><path fill="none" stroke="#010202" stroke-width=".283" stroke-linecap="round" stroke-linejoin="round" stroke-miterlimit="10" d="M850.8 420.5c1.1-1.5.8-3.7-.7-4.8-1.5-1.1-3.7-.8-4.8.7-1.1 1.5-.8 3.7.7 4.8.4.3.9.5 1.3.6m3.8-1l-.3-.3"/><path fill="none" stroke="#010202" stroke-width=".283" stroke-linecap="round" stroke-linejoin="round" stroke-miterlimit="10" d="M850.8 420.5l-.9.9c-.3.2-.7.4-1.1.4-.3.1-.6.1-.9.1-.2 0-.4 0-.6-.1"/><path fill="none" stroke="#010202" stroke-width=".283" stroke-linecap="round" stroke-linejoin="round" stroke-miterlimit="10" d="M847.2 422.3h.6c.3 0 .6-.1 1-.2s.8-.3 1.2-.5c.4-.2.8-.5 1.1-.8m-26.6-7.3c.2 0 .4 0 .6-.1.2-.1.5-.2.7-.3.1-.1.3-.2.4-.3m-15.2.7h13.5m-34.6-21.1c0 11.6 9.4 21.1 21.1 21.1m-21.1-52.9v31.8m21.1-52.9c-11.6 0-21.1 9.4-21.1 21.1m34.6-21.1H811m15.2.6c-.2-.1-.3-.3-.5-.4-.2-.1-.5-.2-.7-.2h-.5m1.7.6c3.4 2.9 8.4 2.9 11.7 0m1.8-.6c-.2 0-.4 0-.6.1-.2.1-.5.2-.7.3-.1.1-.3.2-.4.3m15.2-.7h-13.5m34.6 21.1c0-11.6-9.4-21.1-21.1-21.1m21.1 52.9v-31.8m-21.1 52.9c11.6 0 21.1-9.4 21.1-21.1m-34.6 21.1h13.5m-15.2-.7c.2.1.3.3.5.4.2.1.5.2.7.2h.5m-1.7-.6c-3.3-2.9-8.4-2.9-11.7 0m12.2-72.3c.1 0 .1-.1.2-.1.1-.1.2-.1.4-.2.1 0 .2-.1.3-.1h.2m.1-.2v.2m0-.2h-.3c-.1 0-.3.1-.4.1-.2.1-.3.2-.5.2-.1.1-.2.1-.2.2m.2.1c-.1-.1-.2-.1-.3 0m.1 72c.1.1.2 0 .3 0"/><path fill="none" stroke="#010202" stroke-width=".283" stroke-linecap="round" stroke-linejoin="round" stroke-miterlimit="10" d="M838.3 412.5c.2.2.4.3.6.4.2.1.5.2.8.2m0-.2v.1m0-.1c-.2 0-.4 0-.6-.1-.2-.1-.4-.2-.5-.3m-.6-71.2c-.4 0-.8.1-1.1.3m1.1-.3c-.1 0-.1 0 0 0-.1 0-.1 0 0 0-.1 0-.1-.1-.1-.1v-.1m-.1.1c-.1-.1-.2-.1-.2 0m.6-.8c.1-.1.2-.2.3-.2.2-.1.4-.2.6-.2.2 0 .4-.1.5-.1m.1 0v-.4m-1.7.6l.2.3m-.7 71.4h.2m.1 0s0 0 0 0c0-.1.1-.1 0 0l.1-.1s0 0 0 0m-1-.3c.3.2.7.3 1.1.3m.5.7c-.2-.2-.5-.4-.8-.6m15.5-70.6v.1m0-.1h-15.4m.2.1h15.2m19.3 19.3c0-10.6-8.6-19.3-19.3-19.3m19.4 19.3h-.1m.1 0c0-10.7-8.7-19.4-19.4-19.4m19.3 19.4v31.8m.1 0h-.1m.1 0v-31.8m-19.4 51.1c10.6 0 19.3-8.6 19.3-19.3m-19.3 19.4v-.1m0 .1c10.7 0 19.4-8.7 19.4-19.4m-19.4 19.3H838m-.2.1h15.4"/><path fill="none" stroke="#010202" stroke-width=".283" stroke-linecap="round" stroke-linejoin="round" stroke-miterlimit="10" d="M839.7 413h-.4c-.2 0-.4-.1-.6-.2-.2-.1-.3-.2-.5-.3m0 0l-.2.3m1.7.7v-.5m-2.6-71.3c.1-.1.2-.1.3-.1.1 0 .2-.1.3-.1h.2m.1-.2v.1m0-.1h-.3c-.1 0-.3.1-.4.1-.1 0-.3.1-.4.2m.2.1c-.1-.1-.2-.1-.2-.1m-12.4-1.7h.4c.2 0 .4.1.6.2.2.1.3.2.4.3m.1 0l.2-.3m-1.7-.6v.4m12.4 71.4c.1 0 .1 0 .2-.1m-.2.1c.2.1.3.2.5.2.2.1.4.1.6.1m0-.1v.1m0-.1c-.2 0-.3 0-.5-.1-.2 0-.3-.1-.4-.2m.9.5s0 0 0 0 0-.1 0 0m15.2-70.3v-.1m0 0H838m0 .1h15.2m19.1 19.2c0-10.6-8.6-19.1-19.1-19.1m19.1 19.1h.1m0 0c0-10.6-8.6-19.3-19.3-19.3m19.2 19.3v31.8m0 0h.1m0 0v-31.8m-19.2 50.9c10.6 0 19.1-8.6 19.1-19.1m-19.1 19.1v.1m0 0c10.6 0 19.3-8.6 19.3-19.3m-19.3 19.2H838m0 .1h15.2m-27.2.9c-.1.1-.2.2-.3.2-.2.1-.4.2-.6.2-.2 0-.4.1-.5.1m-.1 0v.5m1.7-.7l-.2-.3m-15 1v-.5m13.5 0H811m-21.1-20.6h.5m0 0c0 11.4 9.2 20.7 20.7 20.7m-21.2-52.5h.5m0 31.8v-31.8m20.6-21.1v.4m0 0c-11.4 0-20.7 9.2-20.7 20.7m20.7-20.7h13.5m10.3 2.8c-.2 0-.3 0-.5.1m.5-.1h.3s.1 0 .1-.1m.1 0l-.1-.1m-9.3-2c-.1-.1-.2 0-.3 0"/><path fill="none" stroke="#010202" stroke-width=".283" stroke-linecap="round" stroke-linejoin="round" stroke-miterlimit="10" d="M825.9 340.5c-.2-.2-.4-.3-.6-.4-.2-.1-.5-.2-.8-.2m0 .2v-.2m0 .2c.2 0 .4 0 .6.1.2.1.4.2.5.3m-1.1-.6s0 0 0 0m10.7 70.6s.1 0 .1-.1m0 0s-.1 0-.1-.1h-.3m-.6-.1c.2 0 .3.1.5.1m2.3 1c-.6-.4-1.2-.7-1.8-.9m17.9-67.8v.1m0-.1h-17.9m-.5.1h18.4m17.9 17.9c0-9.9-8-17.9-17.9-17.9m18 17.9h-.1m.1 0c0-9.9-8.1-18-18-18m17.9 18v31.8m.1 0h-.1m.1 0v-31.8m-18 49.7c9.9 0 17.9-8 17.9-17.9m-17.9 18v-.1m0 .1c9.9 0 18-8.1 18-18m-18 17.9h-18.4m.5.1h17.9m-27.5 2c-.1.1-.1.1-.2.1-.1.1-.2.1-.4.2-.1 0-.2.1-.3.1h-.2m-.1.2v-.1m0 .1h.3c.1 0 .3-.1.4-.1.2-.1.3-.2.5-.2.1-.1.2-.1.2-.2m-.2-.1c.1.1.2.1.3 0m-15 .5v.1m0 0h13.5m0-.1H811m-20.5-20.5c0 11.3 9.2 20.5 20.5 20.5m-20.5-20.5h-.1m0 0c0 11.4 9.2 20.6 20.6 20.6m-20.5-20.6v-31.8m0 0h-.1m0 0v31.8m20.6-52.3c-11.3 0-20.5 9.2-20.5 20.5m20.5-20.5v-.2m0 0c-11.4 0-20.6 9.2-20.6 20.6m20.6-20.4h13.5m0-.2H811m13.5 73.1h0m9.9-70.1h.4m0-.2v.1m0-.1h-.4m0 .2c0-.1-.1-.1-.1-.1m-7.6-1.7h-.2m-.1.1s0 0 0 0-.1 0 0 0l-.1.1s0 0 0 0m1 .3c-.3-.2-.7-.3-1.1-.3m-.5-.8c.2.2.5.4.8.6m8.3 69h-.4m-.1.1s.1 0 .1-.1m-.1.1h.4m.1-.1v.1m-8.6 1.5c.4 0 .8-.1 1.1-.3m-1.1.3c.1 0 .1 0 0 0 .1 0 .1 0 0 0 .1 0 .1.1.1.1s0 0 0 0m.1 0c.1.1.2.1.2 0m-15.6 0v-.1m0 .1h15.4m-.2-.1H811m-19.3-19.3c0 10.7 8.6 19.3 19.3 19.3m-19.4-19.3h.1m-.1 0c0 10.7 8.7 19.4 19.4 19.4m-19.3-19.4v-31.8m-.1 0h.1m-.1 0v31.8m19.4-51.1c-10.6 0-19.3 8.6-19.3 19.3m19.3-19.4v.1m0-.1c-10.7 0-19.4 8.7-19.4 19.4m19.4-19.3h15.2m.2-.1H811m15.4 70.6c-.3.2-.5.4-.8.6m4.3-69.6s-.1 0-.1.1m.1-.1h-.4m-.1 0v-.1m0 .1h.4m-2.5-1.2c-.1 0-.1 0-.2.1"/><path fill="none" stroke="#010202" stroke-width=".283" stroke-linecap="round" stroke-linejoin="round" stroke-miterlimit="10" d="M827.3 341.6c-.2-.1-.3-.2-.5-.2-.2-.1-.4-.1-.6-.1m0 .1v-.1m0 .1c.2 0 .3 0 .5.1.1 0 .3.1.4.2m-.9-.4h0m3.6 68.8h-.4m0 .1v-.1m0 .1h.4m0-.1c0 .1.1.1.1.1m-18.9-.1v.1m0 0h18.4m0-.1H811m-17.7-17.7c0 9.8 7.9 17.7 17.7 17.7m-17.7-17.7h-.1m0 0c0 9.9 8 17.9 17.9 17.9m-17.8-17.9v-31.8m0 0h-.1m0 0v31.8m17.8-49.6c-9.8 0-17.7 7.9-17.7 17.7m17.7-17.7v-.1m0 0c-9.9 0-17.9 8-17.9 17.9m17.9-17.8h18.4m0-.1H811m16.1 68.6c-.1.1-.2.1-.3.1-.1 0-.2.1-.3.1h-.2m-.1.1v-.1"/><path fill="none" stroke="#010202" stroke-width=".283" stroke-linecap="round" stroke-linejoin="round" stroke-miterlimit="10" d="M826.2 411.6h.3c.2 0 .3-.1.4-.1.1 0 .3-.1.4-.2m-.2 0c.1.1.2.1.2.1m-16.3.1v.1m0 0h15.2m0-.1H811m-19.1-19.1c0 10.6 8.6 19.1 19.1 19.1m-19.1-19.1h-.1m0 0c0 10.6 8.6 19.3 19.3 19.3m-19.2-19.3v-31.8m0 0h-.1m0 0v31.8m19.2-51c-10.6 0-19.1 8.6-19.1 19.1m19.1-19.1v-.1m0 0c-10.6 0-19.3 8.6-19.3 19.3m19.3-19.2h15.2m0-.1H811m15.2 70.3s0 .1 0 0c0 .1 0 .1 0 0m2.8-69.2s-.1 0-.1.1m0 .1s.1 0 .1.1h.3m.6 0c-.2 0-.3-.1-.5-.1m-2.3-.9c.6.4 1.2.6 1.8.9m.5 67.7c.2 0 .3 0 .5-.1m-.5.1h-.3s-.1 0-.1.1m-.1 0l.1.1m-18-.1v-.1m0 .1h17.9m.5-.1H811m-17.9-17.9c0 9.9 8 17.9 17.9 17.9m-18-17.9h.1m-.1 0c0 9.9 8.1 18 18 18m-17.9-18v-31.8m-.1 0h.1m-.1 0v31.8m18-49.7c-9.9 0-17.9 8-17.9 17.9m17.9-18v.1m0-.1c-9.9 0-18 8.1-18 18m18-17.9h18.4m-.5-.1H811m17.9 67.8c-.6.2-1.2.5-1.8.9m2.3-1.1c0 .1 0 .1 0 0 0 .1 0 .1 0 0m0-67.5h0m5 67.4c-1.5-.4-3.1-.4-4.5 0m-.1-67.2c1.5.4 3.1.4 4.5 0m.5 67.4s0 0 0 0 0 0 0 0m18.4-67.5v-.1m0 0h-18.4m0 .1h18.4m17.7 17.8c0-9.8-7.9-17.7-17.7-17.7m17.7 17.7h.1m0 0c0-9.9-8-17.9-17.9-17.9m17.8 17.9v31.8m0 0h.1m0 0v-31.8m-17.8 49.5c9.8 0 17.7-7.9 17.7-17.7m-17.7 17.7v.1m0 0c9.9 0 17.9-8 17.9-17.9m-17.9 17.8h-18.4m0 .1h18.4m-18.4-67.5h0m.5-.1c.6-.2 1.2-.5 1.8-.9m.9-.4h0m15.2-1.8v.4m-13.5 0h13.5m21.1 20.7h-.5m0 0c0-11.4-9.2-20.7-20.7-20.7m21.2 52.5h-.5m0-31.8v31.8m-20.6 21.1v-.5m0 0c11.4 0 20.7-9.2 20.7-20.7M853.2 413h-13.5m0 0s0 0 0 0m0-73.1s0 0 0 0m-1.9 1.3c.3-.2.5-.4.8-.6m14.6-.5v-.2m0 0h-13.5m0 .2h13.5m20.5 20.5c0-11.3-9.2-20.5-20.5-20.5m20.5 20.5h.1m0 0c0-11.4-9.2-20.6-20.6-20.6m20.5 20.6v31.8m0 0h.1m0 0v-31.8m-20.6 52.3c11.3 0 20.5-9.2 20.5-20.5m-20.5 20.5v.1m0 0c11.4 0 20.6-9.2 20.6-20.6m-20.6 20.5h-13.5m0 .1h13.5m-6-82.3c-3.1-1-6.4-1.7-9.7-2.1m-10.8 0c-2.7 3-2.5 7.6.5 10.4 3 2.7 7.7 2.5 10.4-.5 2.5-2.8 2.5-7 0-9.8"/><path fill="none" stroke="#010202" stroke-width=".283" stroke-linecap="round" stroke-linejoin="round" stroke-miterlimit="10" d="M826.7 328.6c-26.5 3-45.5 26.9-42.5 53.4 2.5 22.3 20.2 39.9 42.5 42.5"/><path fill="none" stroke="#010202" stroke-width=".283" stroke-linecap="round" stroke-linejoin="round" stroke-miterlimit="10" d="M837.5 424.4c2.7-3 2.5-7.7-.5-10.4s-7.6-2.5-10.4.5c-2.5 2.8-2.5 7 0 9.8m10.9.1c3.3-.4 6.5-1.1 9.7-2.1m3.9-1.5c24.5-10.5 35.8-38.8 25.3-63.3-4.9-11.4-13.9-20.4-25.3-25.3m-23.8 92.5c.1.1.1.3.2.3m.6.1s-.1 0 0 0c-.2-.1-.3-.2-.5-.3-.1 0-.2-.1-.3-.1m-.6-.3l-.1.6m.7-.3s-.1 0-.2-.1c-.1 0-.2-.1-.3-.1-.1 0-.2-.1-.3-.1m.2-95.8l-.1-.7m.1.7c.1-.1.2-.1.4-.2.1-.1.2-.1.3-.1m.2-.4c-.1.1-.2.2-.2.3"/><path fill="none" stroke="#010202" stroke-width=".283" stroke-linecap="round" stroke-linejoin="round" stroke-miterlimit="10" d="M827.3 328.2c.1 0 .2-.1.3-.1.1-.1.3-.1.4-.2 0 0 .1 0 .1-.1m8.8.4c.1 0 .2.1.3.1.1.1.2.1.4.2m-1.5-.7c0 .1.1.1 0 0 .2.1.3.2.5.3.1 0 .2.1.3.1"/><path fill="none" stroke="#010202" stroke-width=".283" stroke-linecap="round" stroke-linejoin="round" stroke-miterlimit="10" d="M828.1 327.8c-3.1 2.2-3.8 6.5-1.6 9.6 2.2 3.1 6.5 3.8 9.6 1.6 3.1-2.2 3.8-6.5 1.6-9.6-.4-.6-1-1.2-1.6-1.6m0 97.3c3.1-2.2 3.8-6.5 1.6-9.6-2.2-3.1-6.5-3.8-9.6-1.6-3.1 2.2-3.8 6.5-1.6 9.6.4.6 1 1.2 1.6 1.6"/><path fill="none" stroke="#010202" stroke-width=".283" stroke-linecap="round" stroke-linejoin="round" stroke-miterlimit="10" d="M836.9 424.7c-.1 0-.2.1-.3.1-.1.1-.3.1-.4.2 0 0-.1 0-.1.1m1.4-.7c-.1 0-.2.1-.3.1-.1 0-.2.1-.3.1 0 0-.1 0-.1.1m-.2.3c.1-.1.2-.2.2-.3m.8.3l-.1-.6m.1-96.5l-.1.7m-.6-.4c-.1-.1-.1-.3-.2-.3"/><path fill="none" stroke="#010202" stroke-width=".283" stroke-linecap="round" stroke-linejoin="round" stroke-miterlimit="10" d="M839 333.5c0-3.8-3.1-6.9-6.9-6.9-3.8 0-6.9 3.1-6.9 6.9 0 3.8 3.1 6.9 6.9 6.9 3.8-.1 6.9-3.1 6.9-6.9h0zm0 86c0-3.8-3.1-6.9-6.9-6.9-3.8 0-6.9 3.1-6.9 6.9 0 3.8 3.1 6.9 6.9 6.9 3.8 0 6.9-3.1 6.9-6.9h0z"/><path fill="none" stroke="#010202" stroke-width=".283" stroke-linecap="round" stroke-linejoin="round" stroke-miterlimit="10" d="M827.6 425h.2c.1 0 .2 0 .3.1 0 0 0 0 0 0m0-97.3c0 .1-.1.1 0 0-.1.1-.2.1-.3.1h-.2m8.5 97.2s.1 0 0 0c.1-.1.2-.1.3-.1h.2m0-97.1h-.2c-.1 0-.2 0-.3-.1 0 0 0 0 0 0m.5.1c-.2-.1-.4-.3-.6-.4-.3-.2-.5-.3-.9-.4m-.6-.1c.4.1.7.3 1 .5.2.1.3.2.4.3m0-.1c.1 0 .1.1.2.1m-1 98.1c.3-.1.6-.3.9-.4.2-.1.4-.3.6-.4m-.5 0c-.1 0-.1.1-.2.1m0 0c-.1.1-.3.2-.4.3-.3.2-.6.3-1 .5m-6.4-98.2c.1 0 .1-.1.2-.1m0 0c.1-.1.3-.2.4-.3.3-.2.6-.3 1-.5m-1.4 98.3c-.1-.1-.1-.1-.2-.1m1.6.9c-.4-.1-.7-.3-1-.5-.2-.1-.3-.2-.4-.3m.8-98.1c-.3.1-.6.3-.9.4-.2.1-.4.3-.6.4m0 97.1c.2.1.4.3.6.4.3.2.6.3.9.4m-2.5-.8h1m-1-97.1c-26.8 3-46.1 27.2-43 54 2.6 22.6 20.4 40.4 43 43m1-97h-1m10 97.1h1m0 0c26.8-3 46.1-27.2 43-54-2.6-22.6-20.4-40.4-43-43m0-.1h-1"/><path fill="none" stroke="#010202" stroke-width=".283" stroke-linecap="round" stroke-linejoin="round" stroke-miterlimit="10" d="M835.1 425.9c27.3-1.7 48-25.1 46.4-52.4-1.5-24.9-21.4-44.8-46.4-46.4m-6.1-.4c-27.5 1.7-48.4 25.4-46.7 52.9 1.5 25.1 21.6 45.2 46.7 46.7"/><path fill="none" stroke="#010202" stroke-width=".283" stroke-linecap="round" stroke-linejoin="round" stroke-miterlimit="10" d="M835.2 426.3c27.5-1.7 48.4-25.4 46.7-52.9-1.5-25.1-21.6-45.2-46.7-46.7"/><path fill="none" stroke="#010202" stroke-width=".283" stroke-linecap="round" stroke-linejoin="round" stroke-miterlimit="10" d="M883 376.5c0-28.1-22.8-50.9-50.9-50.9s-50.9 22.8-50.9 50.9c0 28.1 22.8 50.9 50.9 50.9s50.9-22.8 50.9-50.9h0z"/><path fill="none" stroke="#010202" stroke-width=".283" stroke-linecap="round" stroke-linejoin="round" stroke-miterlimit="10" d="M829.1 327.1c-27.3 1.7-48 25.2-46.4 52.4 1.5 24.9 21.4 44.8 46.4 46.4m5.4-98.9c.1 0 .2.1.3.1h.3m0 98.8h-.3c-.1 0-.2 0-.3.1m0-99c-1.5-.6-3.2-.6-4.8 0m0 99c1.5.6 3.2.6 4.8 0m0 0l.1.4m-5 0l.1-.4m-.1.4c1.6.6 3.4.6 5.1 0m-5-.4c-.1 0-.2-.1-.3-.1h-.3m-.1.4l.1-.4m-.1.4h.3c.1 0 .2 0 .3.1m5.5-.5l.1.4m-.6.1c.1 0 .2-.1.3-.1h.3m-5.6-99.7c-.1 0-.2.1-.3.1h-.3m5.6-.1c-1.6-.6-3.4-.6-5.1 0m5.7.1h-.3c-.1 0-.2 0-.3-.1m-5.5.5l-.1-.4m.7.3l-.1-.4m5 0l-.1.4m.7-.3l-.1.4m-6 0h.3c.1 0 .2-.1.3-.1m7.8 14.1c-.1.1-.6.4-.7.5m.1 69.8s.2.1.4.3c.1.1.2.1.2.2m0-.1c.2.1.3.3.5.4l.2.2m-12.2-72c3.5 3.1 8.8 3.1 12.3 0m-1.4 70.9s0 .1 0 0c0 .1 0 .1 0 0m1.3 1.2c-3.5-3.1-8.8-3.1-12.3 0"/><path fill="none" stroke="#010202" stroke-width=".283" stroke-linecap="round" stroke-linejoin="round" stroke-miterlimit="10" d="M835.2 342.4c-.2.1-.8.2-.9.3 0 0 0 0 0 0m-8.4-2.2s.1 0 0 0m8.4 69.7s.2.1.6.2c.1 0 .2.1.3.1m0 0c.3.1.5.2.8.3.3.2.7.3 1 .5m-11 1.2s-.1 0 0 0m1.3-70.9s-.2-.1-.4-.3c-.1-.1-.2-.1-.2-.2m0 0c-.2-.1-.3-.3-.5-.4-.1-.1-.2-.2-.3-.2m.8 71.3c.1-.1.6-.4.7-.5m-1.5 1.2c.1-.1.2-.2.3-.2.2-.1.3-.3.5-.4m.6-70.3s0 0 0 0 0 0 0 0m0 69.8s0 0 0 0 0-.1 0 0m2.6-68.7s-.2-.1-.6-.2c-.1 0-.2-.1-.3-.1m0 0c-.3-.1-.5-.2-.8-.3-.3-.2-.7-.3-1-.5m1.8 68.9c.2-.1.8-.2.9-.3 0 0 0 0 0 0m-2.6 1.1c.3-.2.6-.4 1-.5.2-.1.5-.2.8-.3m.8-.3s0 0 0 0 0 0 0 0m0-67.4s0-.1 0 0c0-.1 0-.1 0 0m0 67.4c.1 0 .2 0 .3-.1.6-.1 1.2-.2 1.9-.2.6 0 1.3.1 1.9.2.1 0 .2 0 .3.1m0-67.4c-.1 0-.2 0-.3.1-.6.1-1.2.2-1.9.2-.6 0-1.3-.1-1.9-.2-.1 0-.2 0-.3-.1m4.4 67.4s0 0 0 0 0 0 0 0m0-67.5s0 0 0 0 0 .1 0 0m2.6-1.1c-.3.2-.6.4-1 .5-.2.1-.5.2-.8.3m1.8-.8s0 0 0 0 0 0 0 0m1.4 70.9s-.1 0 0 0m-.1-72.1c0 .1.1.1 0 0m.1.1l-.2.2c-.2.1-.3.3-.5.4m15.6.1v-1.1m19.4 52.3h1.1m-20.5 19.4v1.1m19.4-52.3h1.1m-1.3 31.8h.1m-19.3 19.2v.1m0-70.4h0m19.2 19.3h.1m-19.3-18v-1.2m18 51h1.1m-19.1 18v1.1m18-50.9h1.1m-81.9 0h0m20.6-20.7h0m0 73.1h0m-20.6-20.6h0m20.6 19.4v1.1m-19.4-52.3h-1.1m20.5-19.4v-1.1m-19.4 52.3h-1.1m20.5-48.5v-1.1m0 1.1h42.2m0 0v-1.1m-58.8 17.8h-1.1m17.7-16.7c-9.2 0-16.7 7.5-16.7 16.7m.1 31.8h-1.1m1.1 0v-31.8M811 409v1.1m-16.6-17.7c0 9.2 7.5 16.7 16.7 16.7m-19.3-48.5h-.1m19.3-19.3h0m0 70.3v.1m-19.2-19.3h-.1m19.3-49.7h0m0 67.7v1.1m-18-50.9h-1.1m19.1-18v-1.2m-18 51h-1.1m79.1 0h.1m-17.9 17.8v.1m0-67.6h0m17.8 17.9h.1M853.2 413h0m-42.2-2.8v.1m62.8-17.9h0m-4 0h1.1M853.2 409c9.2 0 16.7-7.5 16.7-16.7M853.2 409v1.1m16.6-17.7h-.3M853.2 409v-.3m20.6-48.1h0m-4 0h1.1m-1.1 0v31.8m0-31.8h-.3m-16.3-20.7h0m16.6 20.7c0-9.2-7.5-16.7-16.7-16.7m.1 0v.3m-42.2-.3v.3m-17.8 16.4h-.1m1.3 0h.3m-1.5 31.8h-.1m1.3 0h.3M811 409v-.3m42.2.3H811"/><path fill="none" stroke="#010202" stroke-width=".227" stroke-linecap="round" stroke-linejoin="round" stroke-miterlimit="10" d="M913.8 311.9h0m0 129.1h0m-126.6 14.1l8.1-14.1m0 0l8.2 14.1m-16.3 0h16.3m128.8-30.4l-14.2-8.2m0 0l14.2-8.2m0 16.4v-16.4m-186.2-96.6v-23.8m172 21.9v-21.9"/><text transform="translate(822.762 292.87)" fill="#010202" font-family="Helvetica,Arial,sans-serif" font-size="17.28">40</text><path fill="none" stroke="#010202" stroke-width=".227" stroke-linecap="round" stroke-linejoin="round" stroke-miterlimit="10" d="M746.1 316.2h0m172 0h0m0-21.5h0m1.7 17.2h35.3M920.3 441h34.8"/><text transform="rotate(-90 665.581 -280.779)" fill="#010202" font-family="Helvetica,Arial,sans-serif" font-size="17.28">30</text><path fill="none" stroke="#010202" stroke-width=".227" stroke-linecap="round" stroke-linejoin="round" stroke-miterlimit="10" d="M948.2 441h0M832.1 310.9v131.2"/><path fill="none" stroke="#010202" stroke-width=".227" stroke-linecap="round" stroke-linejoin="round" stroke-miterlimit="10" stroke-dasharray="12,2,2,2" d="M919.2 376.5H745"/><g clip-rule="evenodd"><path fill-rule="evenodd" fill="#1E1E1C" d="M757.2 297.1v-4.7l-11.1 2.3zm149.8-4.7v4.7l11.1-2.4z"/><path fill="none" stroke="#1E1E1C" stroke-width=".227" stroke-miterlimit="3.864" d="M752.3 294.7H908"/></g><g clip-rule="evenodd"><path fill-rule="evenodd" fill="#1E1E1C" d="M950.6 429.9h-4.8l2.4 11.1zM945.8 323h4.8l-2.4-11z"/><path fill="none" stroke="#1E1E1C" stroke-width=".227" stroke-miterlimit="3.864" d="M948.2 432.8V317.6"/></g><path fill="none" stroke="#010202" stroke-width=".283" stroke-linecap="round" stroke-linejoin="round" stroke-miterlimit="10" d="M474.5 241.1l-.4.4m0-172l.4.4m-.4 3.9v-4.3m.4.4v2.3m0 20.9v-.6m-.4-18.7v19.4m0 0c0 3.5 1.4 6.9 3.9 9.4m0 0l11.2 11.3m3.8 9.1c0-3.4-1.4-6.7-3.8-9.1m3.8 9.1v65m.4 0v-65m-4.2 74.1c2.4-2.4 3.8-5.7 3.8-9.1m-3.8 9.1L478 208.3m0 0c-2.5 2.5-3.9 5.9-3.9 9.4m.4.7v-.5m-.4-.1v19.4m0 4.3v-4.3m.4 1.6v2.3m-.4-171.6h-28.9m0 0v4.3m0 167.7h28.9m-28.9-4.3v4.3m0 0l-.8-.9m0-170.3l.8-.8m-.8 4.3v-3.5m.8 166.9V73.8m-.8 0v163.4m0 3.4v-3.4m31.2-36.6c0-4.2-3.4-7.5-7.5-7.5s-7.5 3.4-7.5 7.5c0 4.2 3.4 7.5 7.5 7.5s7.5-3.3 7.5-7.5h0zm0-90.3c0-4.2-3.4-7.5-7.5-7.5s-7.5 3.4-7.5 7.5c0 4.2 3.4 7.5 7.5 7.5s7.5-3.3 7.5-7.5h0z"/><path fill="none" stroke="#010202" stroke-width=".283" stroke-linecap="round" stroke-linejoin="round" stroke-miterlimit="10" d="M473.3 110.3c0-2.9-2.4-5.3-5.3-5.3s-5.3 2.4-5.3 5.3 2.4 5.3 5.3 5.3c3 0 5.3-2.4 5.3-5.3h0zm0 90.3c0-2.9-2.4-5.3-5.3-5.3s-5.3 2.4-5.3 5.3 2.4 5.3 5.3 5.3c3 0 5.3-2.3 5.3-5.3h0zm-52.6 15.3V95.1m.9-.9v122.6m-.9-121.7l.9-.9m-.9 121.7l.9.9m22.8 0h-22.8m22.8-122.6h-22.8m216.3-24.3l.5-.4m0 0v4.3m-.5-1.6v-2.3m.5 6v-2.1m0 2.1c0 3 2.4 5.4 5.4 5.4m-5.9-5.4c0 3.2 2.6 5.8 5.8 5.8m6.4-.4h-6.4m0 .4h6.4m6.9 6.5c0-3.8-3.1-6.9-6.9-6.9m6.5 6.9c0-3.6-2.9-6.5-6.5-6.5m6.9 24.1V88.2m-.4 0v17.6m-6.5 6.9c3.8 0 6.9-3.1 6.9-6.9m-6.9 6.5c3.6 0 6.5-2.9 6.5-6.5m-7.9 6.9h1.4m0-.4h-1.4m0 .4c-5.7 0-10.3 4.6-10.3 10.3m10.3-10.7c-5.9 0-10.8 4.8-10.8 10.8m.5 64.9v-65m-.5 0v65m.5 0c0 5.7 4.6 10.3 10.3 10.3M637.9 188c0 5.9 4.8 10.8 10.8 10.8m1.4-.5h-1.4m0 .4h1.4m6.9 6.5c0-3.8-3.1-6.9-6.9-6.9m6.5 6.9c0-3.6-2.9-6.5-6.5-6.5m6.9 24.1v-17.6m-.4 0v17.6m-6.5 6.9c3.8 0 6.9-3.1 6.9-6.9m-6.9 6.5c3.6 0 6.5-2.9 6.5-6.5m-12.9 6.9h6.4m0-.4h-6.4m0 .4c-3 0-5.4 2.4-5.4 5.4m5.4-5.8c-3.2 0-5.8 2.6-5.8 5.8m.5 2.1v-2.1m-.5 6l.5.4m0-4.3v4.3m-.5-.4v-2.3m.5 2.7h20.2m0 0v-4.3m0-163.4v-4.3m0 0h-20.2m20.2 0l.8.8m0 0v3.5m0 163.4V73.8m-.8 0v163.4m0 4.3l.8-.9m0-3.4v3.4"/><path fill="none" stroke="#010202" stroke-width=".283" stroke-linecap="round" stroke-linejoin="round" stroke-miterlimit="10" d="M656.2 121.5c0-4.2-3.4-7.5-7.5-7.5-4.2 0-7.5 3.4-7.5 7.5 0 4.2 3.4 7.5 7.5 7.5s7.5-3.3 7.5-7.5h0zm-.4 34c0-4.2-3.4-7.5-7.5-7.5-4.2 0-7.5 3.4-7.5 7.5 0 4.2 3.4 7.5 7.5 7.5s7.5-3.4 7.5-7.5h0z"/><path fill="none" stroke="#010202" stroke-width=".283" stroke-linecap="round" stroke-linejoin="round" stroke-miterlimit="10" d="M653.5 155.5c0-2.9-2.4-5.3-5.3-5.3s-5.3 2.4-5.3 5.3 2.4 5.3 5.3 5.3c3 0 5.3-2.4 5.3-5.3h0zm8.5-60.7v53.4m-2.6-53.4h2.6m-2.6 53.4h2.6m-2.1 64.1v-16.7m0 16.7h-.5m.5-16.7h-.5m-21.5 40.7v-2.5m0-156.6v-2.6M474.5 92.5V74.6m0 161.7v-17.9m163.4 17.9v2.5m0-166.6v2.4m0-4.3H474.5m0 4.3v-2.4m0 166.6v-2.5m0 4.3h163.4m15.7-26c0-3.9-3.2-7.1-7.1-7.1s-7.1 3.2-7.1 7.1c0 3.9 3.2 7.1 7.1 7.1s7.1-3.2 7.1-7.1h0zm-160.2 4.3c0-3.9-3.2-7.1-7.1-7.1-3.9 0-7.1 3.2-7.1 7.1 0 3.9 3.2 7.1 7.1 7.1 3.9 0 7.1-3.2 7.1-7.1h0zM653.6 96.3c0-3.9-3.2-7.1-7.1-7.1s-7.1 3.2-7.1 7.1c0 3.9 3.2 7.1 7.1 7.1s7.1-3.1 7.1-7.1h0zM493.4 92c0-3.9-3.2-7.1-7.1-7.1-3.9 0-7.1 3.2-7.1 7.1 0 3.9 3.2 7.1 7.1 7.1 3.9 0 7.1-3.1 7.1-7.1h0zm-18.9.5c0 3.2 1.3 6.3 3.5 8.5m0 .1l12.4 12.3m3.9 9.4c0-3.5-1.4-6.9-3.9-9.4m3.9 9.4v65.3m-3.9 9.5c2.5-2.5 3.9-5.9 3.9-9.4m-3.9 9.4L478 209.9m0 0c-2.3 2.3-3.5 5.3-3.5 8.5m168.8 10c-3 0-5.4 2.4-5.4 5.4m5.4-5.4h6.8m0 0c3.1 0 5.6-2.5 5.6-5.6m0 0v-17.6m0 0c0-3.1-2.5-5.6-5.6-5.6m0 0h-1.8m-11.2-11.2c0 6.2 5 11.2 11.2 11.2m0-88.2c-6.2 0-11.2 5-11.2 11.2m11.2-11.2h1.8m0 0c3.1 0 5.6-2.5 5.6-5.6m0 0V88.2m0 0c0-3.1-2.5-5.6-5.6-5.6m0 0h-6.8m-5.4-5.4c0 3 2.4 5.4 5.4 5.4m-6.2 105.8v-65.8m42.1-19.8h-13.7m13.7 0v-.3m-13.7 0v.3m0 37.4h13.7m-13.7 0v.3m13.7 0v-.3m-16.1-42.3v47.3m23.4-42.7v38M662 97.9h1.1m-1.1 47.3h1.1m0-42.7h2.4m13.7 0h7.3m-23.4 38h2.4m13.7 0h7.3m-37.1-15.4v.6m-1.5 0v-.6m4.4-4.3h.6m-.1 1.5h-.6m-4.3-4.4v-.6m1.5 0v.6m-4.4 4.4h-.6m0-1.6h.6m4.4 4.4c-.1-.8-.2-1.4-.3-1.8m0 .1v-.2m-.9 0c.3.1.6.1.9 0m-.9 0v.2m0 0c-.1.4-.2 1-.3 1.8m4.4-4.4c-.8.1-1.4.2-1.8.3m0-.1h-.2m0 1c.1-.3.1-.6 0-.9m0 .9h.2m0 0c.4.1 1 .2 1.8.3m-4.4-4.4c.1.8.2 1.4.3 1.8m0-.1v.2m.9 0c-.3-.1-.6-.1-.9 0m.9 0v-.2m0 0c.1-.4.2-1 .3-1.8m-4.4 4.5c.8-.1 1.4-.2 1.8-.3m0 0h.2m0-.9c-.1.3-.1.6 0 .9m0-.9h-.2m0-.1c-.4-.1-1-.2-1.8-.3m5.3.4c-.1 0-.2 0-.3-.1-.1 0-.2-.1-.3-.1-.1-.1-.2-.1-.3-.2-.1-.1-.1-.2-.2-.3-.1-.1-.1-.2-.1-.3 0-.1 0-.2-.1-.3m-.8 0c0 .1 0 .2-.1.3 0 .1-.1.2-.1.3-.1.1-.1.2-.2.3-.1.1-.2.1-.3.2-.1.1-.2.1-.3.1-.1 0-.2 0-.3.1"/><path fill="none" stroke="#010202" stroke-width=".283" stroke-linecap="round" stroke-linejoin="round" stroke-miterlimit="10" d="M647 122c.1 0 .2 0 .3.1.1 0 .2.1.3.1.1.1.2.1.3.2.1.1.2.2.2.3.1.1.1.2.1.3 0 .1 0 .2.1.3m.8-.1c0-.1 0-.2.1-.3 0-.1.1-.2.1-.3.1-.1.1-.2.2-.3.1-.1.2-.1.3-.2.1-.1.2-.1.3-.1.1 0 .2 0 .3-.1"/><path fill="none" stroke="#010202" stroke-width=".283" stroke-linecap="round" stroke-linejoin="round" stroke-miterlimit="10" d="M655.1 121.5c0-3.6-2.9-6.5-6.5-6.5s-6.5 2.9-6.5 6.5 2.9 6.5 6.5 6.5 6.5-2.9 6.5-6.5h0zm-7.3 1.9l.1 2.3m-.1-2.3c0-.6-.5-1-1.1-1.1m-2.3 0h2.4m0-1.6h-2.4m2.4 0c.6 0 1-.5 1.1-1.1m0-2.3l-.1 2.3m1.7 0l-.1-2.3m.1 2.3c0 .6.5 1 1.1 1.1m2.2 0h-2.3m0 1.6h2.3m-2.3 0c-.6 0-1 .5-1.1 1.1m0 2.3l.1-2.3M487.1 95.7v.6m-1.5-.1v-.6m4.3-4.3h.6m0 1.5h-.6m-4.3-4.4v-.6m1.5 0v.6m-4.4 4.4h-.6m0-1.5h.6m4.4 4.4c-.1-.8-.2-1.4-.3-1.8m0 0v-.2m-.9 0c.3.1.6.1.9 0m-.9 0v.2m0 0c-.1.4-.2 1-.3 1.8m4.3-4.4c-.8.1-1.4.2-1.8.3m.1 0h-.2m0 .9c.1-.3.1-.6 0-.9m0 .9h.2m0 0c.4.1 1 .2 1.8.3m-4.4-4.4c.1.8.2 1.4.3 1.8m0 0v.2m.9 0c-.3-.1-.6-.1-.9 0m.9 0v-.2m0 0c.1-.4.2-1 .3-1.8m-4.4 4.4c.8-.1 1.4-.2 1.8-.3m0 0h.2m-.1-.9c-.1.3-.1.6 0 .9m0-.9h-.2m.1 0c-.4-.1-1-.2-1.8-.3"/><path fill="none" stroke="#010202" stroke-width=".283" stroke-linecap="round" stroke-linejoin="round" stroke-miterlimit="10" d="M488 91.6c-.1 0-.2 0-.3-.1-.1 0-.2-.1-.3-.1-.1-.1-.2-.1-.3-.2-.1-.1-.1-.2-.2-.3-.1-.1-.1-.2-.1-.3 0-.1 0-.2-.1-.3m-.8.1c0 .1 0 .2-.1.3 0 .1-.1.2-.1.3-.1.1-.1.2-.2.3-.1.1-.2.1-.3.2-.1.1-.2.1-.3.1-.1 0-.2 0-.3.1m0 .8c.1 0 .2 0 .3.1.1 0 .2.1.3.1.1.1.2.1.3.2.1.1.1.2.2.3.1.1.1.2.1.3 0 .1 0 .2.1.3m.9-.1c0-.1 0-.2.1-.3 0-.1.1-.2.1-.3.1-.1.1-.2.2-.3.1-.1.2-.1.3-.2.1-.1.2-.1.3-.1.1 0 .2 0 .3-.1"/><path fill="none" stroke="#010202" stroke-width=".283" stroke-linecap="round" stroke-linejoin="round" stroke-miterlimit="10" d="M492.8 92c0-3.6-2.9-6.5-6.5-6.5s-6.5 2.9-6.5 6.5 2.9 6.5 6.5 6.5 6.5-2.9 6.5-6.5h0zm-7.3 1.9l.1 2.3m-.1-2.3c0-.6-.5-1-1.1-1.1m-2.3 0l2.4.1m0-1.7l-2.4.1m2.4-.1c.6 0 1-.5 1.1-1.1m0-2.3l-.1 2.4m1.6 0v-2.4m0 2.4c0 .6.5 1 1.1 1.1m2.3 0l-2.3-.1m0 1.7l2.3-.1m-2.3.1c-.6 0-1 .5-1.1 1.1m0 2.2v-2.3m160.2 6.1v.6m-1.5-.1v-.6m4.4-4.3h.6m-.1 1.5h-.6m-4.3-4.4v-.6m1.5 0v.6m-4.4 4.4h-.6m0-1.5h.6m4.4 4.4c-.1-.8-.2-1.4-.3-1.8m0 0V98m-.9 0c.3.1.6.1.9 0m-.9 0v.2m0 0c-.1.4-.2 1-.3 1.8m4.4-4.4c-.8.1-1.4.2-1.8.3m0 0h-.2m0 .9c.1-.3.1-.6 0-.9m0 .9h.2m0 0c.4.1 1 .2 1.8.3m-4.4-4.4c.1.8.2 1.4.3 1.8m0 0v.2m.9 0c-.3-.1-.6-.1-.9 0m.9 0v-.2m0 0c.1-.4.2-1 .3-1.8m-4.4 4.4c.8-.1 1.4-.2 1.8-.3m0 0h.2m0-.9c-.1.3-.1.6 0 .9m0-.9h-.2m0 0c-.4-.1-1-.2-1.8-.3"/><path fill="none" stroke="#010202" stroke-width=".283" stroke-linecap="round" stroke-linejoin="round" stroke-miterlimit="10" d="M648.2 95.9c-.1 0-.2 0-.3-.1-.1 0-.2-.1-.3-.1-.1-.1-.2-.1-.3-.2-.1-.1-.1-.2-.2-.3-.1-.1-.1-.2-.1-.3 0-.1 0-.2-.1-.3m-.8.1c0 .1 0 .2-.1.3 0 .1-.1.2-.1.3-.1.1-.1.2-.2.3-.1.1-.2.1-.3.2-.1.1-.2.1-.3.1-.1 0-.2 0-.3.1m.1.8c.1 0 .2 0 .3.1.1 0 .2.1.3.1.1.1.2.1.3.2.1.1.2.2.2.3.1.1.1.2.1.3 0 .1 0 .2.1.3m.8-.1c0-.1 0-.2.1-.3 0-.1.1-.2.1-.3.1-.1.1-.2.2-.3.1-.1.2-.1.3-.2.1-.1.2-.1.3-.1.1 0 .2 0 .3-.1"/><path fill="none" stroke="#010202" stroke-width=".283" stroke-linecap="round" stroke-linejoin="round" stroke-miterlimit="10" d="M653 96.3c0-3.6-2.9-6.5-6.5-6.5s-6.5 2.9-6.5 6.5 2.9 6.5 6.5 6.5 6.5-2.9 6.5-6.5h0zm-7.3 1.9l.1 2.3m-.1-2.3c0-.6-.5-1-1.1-1.1m-2.3 0l2.4.1m0-1.7l-2.4.1m2.4-.1c.6 0 1-.5 1.1-1.1m0-2.3l-.1 2.4m1.6 0v-2.4m0 2.4c0 .6.5 1 1.1 1.1m2.3 0l-2.3-.1m0 1.7l2.3-.1m-2.3.1c-.6 0-1 .5-1.1 1.1m0 2.2v-2.3M487.1 222.5v.6m-1.5 0v-.6m4.3-4.3h.6m0 1.5h-.6m-4.3-4.4v-.6m1.5 0v.6m-4.4 4.4h-.6m0-1.5h.6m4.4 4.3c-.1-.8-.2-1.4-.3-1.8m0 .1v-.2m-.9 0c.3.1.6.1.9 0m-.9 0v.2m0 0c-.1.4-.2 1-.3 1.8m4.3-4.4c-.8.1-1.4.2-1.8.3m.1 0h-.2m0 .9c.1-.3.1-.6 0-.9m0 .9h.2m0 0c.4.1 1 .2 1.8.3m-4.4-4.4c.1.8.2 1.4.3 1.8m0 0v.2m.9-.1c-.3-.1-.6-.1-.9 0m.9 0v-.2m0 .1c.1-.4.2-1 .3-1.8m-4.4 4.4c.8-.1 1.4-.2 1.8-.3m0 0h.2m-.1-.9c-.1.3-.1.6 0 .9m0-.9h-.2m.1 0c-.4-.1-1-.2-1.8-.3m5.3.3c-.1 0-.2 0-.3-.1-.1 0-.2-.1-.3-.1-.1-.1-.2-.1-.3-.2-.1-.1-.1-.2-.2-.3-.1-.1-.1-.2-.1-.3 0-.1 0-.2-.1-.3m-.8 0c0 .1 0 .2-.1.3 0 .1-.1.2-.1.3-.1.1-.1.2-.2.3-.1.1-.2.1-.3.2-.1.1-.2.1-.3.1-.1 0-.2 0-.3.1m0 .9c.1 0 .2 0 .3.1.1 0 .2.1.3.1.1.1.2.1.3.2.1.1.1.2.2.3.1.1.1.2.1.3 0 .1 0 .2.1.3"/><path fill="none" stroke="#010202" stroke-width=".283" stroke-linecap="round" stroke-linejoin="round" stroke-miterlimit="10" d="M486.8 220.6c0-.1 0-.2.1-.3 0-.1.1-.2.1-.3.1-.1.1-.2.2-.3.1-.1.2-.1.3-.2.1-.1.2-.1.3-.1.1 0 .2 0 .3-.1"/><path fill="none" stroke="#010202" stroke-width=".283" stroke-linecap="round" stroke-linejoin="round" stroke-miterlimit="10" d="M492.8 218.9c0-3.6-2.9-6.5-6.5-6.5s-6.5 2.9-6.5 6.5 2.9 6.5 6.5 6.5 6.5-2.9 6.5-6.5h0zm-7.3 1.9l.1 2.3m-.1-2.3c0-.6-.5-1-1.1-1.1m-2.3 0h2.4m0-1.6l-2.4.1m2.4-.1c.6 0 1-.5 1.1-1.1m0-2.3l-.1 2.4m1.6 0v-2.4m0 2.4c0 .6.5 1 1.1 1.1m2.3 0l-2.3-.1m0 1.6h2.3m-2.3 0c-.6 0-1 .5-1.1 1.1m0 2.3v-2.3m160.2-2.6v.6m-1.5 0v-.6m4.4-4.3h.6m-.1 1.5h-.6m-4.3-4.4v-.6m1.5 0v.6m-4.4 4.4h-.6m0-1.5h.6m4.4 4.3c-.1-.8-.2-1.4-.3-1.8m0 .1v-.2m-.9 0c.3.1.6.1.9 0m-.9 0v.2m0 0c-.1.4-.2 1-.3 1.8m4.4-4.4c-.8.1-1.4.2-1.8.3m0 0h-.2m0 .9c.1-.3.1-.6 0-.9m0 .9h.2m0 0c.4.1 1 .2 1.8.3m-4.4-4.4c.1.8.2 1.4.3 1.8m0 0v.2m.9-.1c-.3-.1-.6-.1-.9 0m.9 0v-.2m0 .1c.1-.4.2-1 .3-1.8m-4.4 4.4c.8-.1 1.4-.2 1.8-.3m0 0h.2m0-.9c-.1.3-.1.6 0 .9m0-.9h-.2m0 0c-.4-.1-1-.2-1.8-.3"/><path fill="none" stroke="#010202" stroke-width=".283" stroke-linecap="round" stroke-linejoin="round" stroke-miterlimit="10" d="M648.2 214.2c-.1 0-.2 0-.3-.1-.1 0-.2-.1-.3-.1-.1-.1-.2-.1-.3-.2-.1-.1-.1-.2-.2-.3-.1-.1-.1-.2-.1-.3 0-.1 0-.2-.1-.3m-.8 0c0 .1 0 .2-.1.3 0 .1-.1.2-.1.3-.1.1-.1.2-.2.3-.1.1-.2.1-.3.2-.1.1-.2.1-.3.1-.1 0-.2 0-.3.1m.1.9c.1 0 .2 0 .3.1.1 0 .2.1.3.1.1.1.2.1.3.2.1.1.2.2.2.3.1.1.1.2.1.3 0 .1 0 .2.1.3m.8-.1c0-.1 0-.2.1-.3 0-.1.1-.2.1-.3.1-.1.1-.2.2-.3.1-.1.2-.1.3-.2.1-.1.2-.1.3-.1.1 0 .2 0 .3-.1"/><path fill="none" stroke="#010202" stroke-width=".283" stroke-linecap="round" stroke-linejoin="round" stroke-miterlimit="10" d="M653 214.6c0-3.6-2.9-6.5-6.5-6.5s-6.5 2.9-6.5 6.5 2.9 6.5 6.5 6.5 6.5-2.9 6.5-6.5h0zm-7.3 1.9l.1 2.3m-.1-2.3c0-.6-.5-1-1.1-1.1m-2.3 0h2.4m0-1.6l-2.4.1m2.4-.1c.6 0 1-.5 1.1-1.1m0-2.3l-.1 2.4m1.6 0v-2.4m0 2.4c0 .6.5 1 1.1 1.1m2.3 0l-2.3-.1m0 1.6h2.3m-2.3 0c-.6 0-1 .5-1.1 1.1m0 2.3v-2.3m14.7-68.3V94.8m-2.6 0h2.6m-2.6 53.4h2.6M488.2 92.5c.1-.3.1-.6 0-.9m0 127.8c.1-.3.1-.6 0-.9m-13.7 22.6l-.4.4m0-172l.4.4m-.4 3.9v-4.3m.4.4v2.3m0 20.9v-.6m-.4-18.7v19.3m0 0c0 3.5 1.4 6.9 3.9 9.4m-3.5-9.4c0 3.4 1.4 6.7 3.8 9.1m-.3.3l11.2 11.3m.3-.3l-11.2-11.3m14.7 20.7c0-3.4-1.4-6.7-3.8-9.1m4.2 9.1c0-3.5-1.4-6.9-3.9-9.4m3.5 9.4v65.2m.4 0v-65.2m-4.2 74.3c2.4-2.4 3.8-5.7 3.8-9.1m-3.5 9.4c2.5-2.5 3.9-5.9 3.9-9.4m-4.2 9.1L478 208.4m.3.3l11.2-11.2M478 208.4c-2.5 2.5-3.9 5.9-3.9 9.4m4.2-9.1c-2.4 2.4-3.8 5.7-3.8 9.1m0 .6v-.5m-.4 0v19.3m0 4.3v-4.3m.4 1.6v2.3m-.4-171.6h-28.9m0 0v4.3m0 167.7h28.9m-28.9-4.3v4.3m0 0l-.8-.9m0-170.3l.8-.8m-.8 4.3v-3.5m.8 166.9V73.8m-.8 0v163.4m0 3.4v-3.4m31.2-126.9c0-4.2-3.4-7.5-7.5-7.5s-7.5 3.4-7.5 7.5c0 4.2 3.4 7.5 7.5 7.5s7.5-3.3 7.5-7.5h0zm0 90.3c0-4.2-3.4-7.5-7.5-7.5s-7.5 3.4-7.5 7.5c0 4.2 3.4 7.5 7.5 7.5s7.5-3.3 7.5-7.5h0z"/><path fill="none" stroke="#010202" stroke-width=".283" stroke-linecap="round" stroke-linejoin="round" stroke-miterlimit="10" d="M473.3 110.3c0-2.9-2.4-5.3-5.3-5.3s-5.3 2.4-5.3 5.3 2.4 5.3 5.3 5.3c3 0 5.3-2.4 5.3-5.3h0zm0 90.3c0-2.9-2.4-5.3-5.3-5.3s-5.3 2.4-5.3 5.3 2.4 5.3 5.3 5.3c3 0 5.3-2.3 5.3-5.3h0zm-52.6 15.3V95.1m.9-.9v122.6m-.9-121.7l.9-.9m-.9 121.7l.9.9m22.8 0h-22.8m22.8-122.6h-22.8m52.5-20.4h.4M493 123h.4m-.4 65h.4m-19.3 49.2h.4M445.2 73.8h28.9m0 163.4h-28.9m-.8-163.4h.8m-.8 163.4h.8M637.9 73.8h.5m-.5 2.1h.5m5.3 5.8v-.4m6.4.4v-.4m6.5 6.9h.4m-.4 17.6h.4m-6.9 6.5v.4m-1.4-.4v.4M637.9 123h.5m-.5 65h.5m10.3 10.7v-.4m1.4.4v-.4m6.5 6.9h.4m-.4 17.6h.4m-6.9 6.5v.4m-6.4-.4v.4m-5.8 5.4h.5m-.5 2.1h.5m20.2 0h-20.2m0-163.4h20.2m0 0h.8m-.8 163.4h.8M474.5 74.6h163.4m0 161.7H474.5m173.4-111.2c.5.1 1 .1 1.5 0m-1.5.6c.5.1 1 .1 1.5 0m2.9-3.4c.1-.5.1-1 0-1.5m.5 1.5c.1-.5.1-1 0-1.5m-3.4-2.9c-.5-.1-1-.1-1.5 0m1.5-.6c-.5-.1-1-.1-1.5 0m-2.9 3.5c-.1.5-.1 1 0 1.5m-.6-1.6c-.1.5-.1 1 0 1.5"/><path fill="none" stroke="#010202" stroke-width=".283" stroke-linecap="round" stroke-linejoin="round" stroke-miterlimit="10" d="M654.2 121.5c0-3.1-2.5-5.6-5.6-5.6-3.1 0-5.6 2.5-5.6 5.6 0 3.1 2.5 5.6 5.6 5.6 3.1 0 5.6-2.5 5.6-5.6h0zm-3.7-.8v.3m-1-1.4h-.4m-1.3 0h.4m-1.4 1.1v.3m0 1.3v-.3m1 1.4h.4m1.3 0h-.4m1.4-1.1v-.3M485.6 95.7c.5.1 1 .1 1.5 0m-1.5.5c.5.1 1 .1 1.5 0m2.8-3.4c.1-.5.1-1 0-1.5m.6 1.5c.1-.5.1-1 0-1.5m-3.4-2.9c-.5-.1-1-.1-1.5 0m1.5-.6c-.5-.1-1-.1-1.5 0m-2.9 3.5c-.1.5-.1 1 0 1.5m-.6-1.5c-.1.5-.1 1 0 1.5"/><path fill="none" stroke="#010202" stroke-width=".283" stroke-linecap="round" stroke-linejoin="round" stroke-miterlimit="10" d="M491.9 92c0-3.1-2.5-5.6-5.6-5.6-3.1 0-5.6 2.5-5.6 5.6 0 3.1 2.5 5.6 5.6 5.6 3.1 0 5.6-2.5 5.6-5.6h0zm-3.7-.8v.4m-1.1-1.4h-.3m-1.3 0h.4m-1.4 1v.4m0 1.3v-.4m1 1.4h.4m1.2 0h-.3m1.4-1v-.4m157.6 7.5c.5.1 1 .1 1.5 0m-1.5.5c.5.1 1 .1 1.5 0m2.9-3.4c.1-.5.1-1 0-1.5m.5 1.5c.1-.5.1-1 0-1.5m-3.4-2.9c-.5-.1-1-.1-1.5 0m1.5-.6c-.5-.1-1-.1-1.5 0m-2.9 3.5c-.1.5-.1 1 0 1.5m-.6-1.5c-.1.5-.1 1 0 1.5"/><path fill="none" stroke="#010202" stroke-width=".283" stroke-linecap="round" stroke-linejoin="round" stroke-miterlimit="10" d="M652.1 96.3c0-3.1-2.5-5.6-5.6-5.6s-5.6 2.5-5.6 5.6c0 3.1 2.5 5.6 5.6 5.6s5.6-2.5 5.6-5.6h0zm-3.7-.8v.4m-1.1-1.4h-.3m-1.3 0h.4m-1.4 1v.4m0 1.3v-.4m1 1.4h.4m1.2 0h-.3m1.4-1v-.4M485.6 222.5c.5.1 1 .1 1.5 0m-1.5.6c.5.1 1 .1 1.5 0m2.8-3.4c.1-.5.1-1 0-1.5m.6 1.5c.1-.5.1-1 0-1.5m-3.4-2.9c-.5-.1-1-.1-1.5 0m1.5-.6c-.5-.1-1-.1-1.5 0m-2.9 3.5c-.1.5-.1 1 0 1.5m-.6-1.5c-.1.5-.1 1 0 1.5"/><path fill="none" stroke="#010202" stroke-width=".283" stroke-linecap="round" stroke-linejoin="round" stroke-miterlimit="10" d="M491.9 218.9c0-3.1-2.5-5.6-5.6-5.6-3.1 0-5.6 2.5-5.6 5.6 0 3.1 2.5 5.6 5.6 5.6 3.1 0 5.6-2.5 5.6-5.6h0zm-3.7-.8v.4m-1.1-1.4h-.3m-1.3 0h.4m-1.4 1v.4m0 1.2v-.3m1 1.4h.4m1.2 0h-.3m1.4-1.1v-.3m157.6-1.2c.5.1 1 .1 1.5 0m-1.5.6c.5.1 1 .1 1.5 0m2.9-3.4c.1-.5.1-1 0-1.5m.5 1.5c.1-.5.1-1 0-1.5m-3.4-2.9c-.5-.1-1-.1-1.5 0m1.5-.6c-.5-.1-1-.1-1.5 0m-2.9 3.5c-.1.5-.1 1 0 1.5m-.6-1.5c-.1.5-.1 1 0 1.5"/><path fill="none" stroke="#010202" stroke-width=".283" stroke-linecap="round" stroke-linejoin="round" stroke-miterlimit="10" d="M652.1 214.6c0-3.1-2.5-5.6-5.6-5.6s-5.6 2.5-5.6 5.6c0 3.1 2.5 5.6 5.6 5.6s5.6-2.5 5.6-5.6h0zm-3.7-.8v.4m-1.1-1.4h-.3m-1.3 0h.4m-1.4 1v.4m0 1.2v-.3m1 1.4h.4m1.2 0h-.3m1.4-1.1v-.3M474.1 73.8h.4m-.4 19.3h.4m3.5 9.4l.3-.3m10.9 11.6l.3-.3m3.5 9.4h.4m-.4 65.2h.4m-4.2 9.1l.3.3M478 208.4l.3.3m-4.2 9.2h.4m-.4 19.3h.4M445.2 73.8h28.9m0 163.4h-28.9m-.8-163.4h.8m-.8 163.4h.8"/><path fill="none" stroke="#010202" stroke-width=".227" stroke-linecap="round" stroke-linejoin="round" stroke-miterlimit="10" d="M468 99.7h0m180.3 42.9h0m-169.6-32.3h-21.3M468 99.7V121m10.7 79.6h-21.3M468 190v21.3"/><text transform="translate(536.674 125.007)" fill="#010202" font-family="Helvetica,Arial,sans-serif" font-size="17.28">Bottom</text><path fill="none" stroke="#010202" stroke-width=".227" stroke-linecap="round" stroke-linejoin="round" stroke-miterlimit="10" d="M454.8 110.3h-75.1m61-40.8h-61"/><text transform="rotate(-90 241.779 -140.807)" fill="#010202" font-family="Helvetica,Arial,sans-serif" font-size="17.28">9.5</text><path fill="none" stroke="#010202" stroke-width=".227" stroke-linecap="round" stroke-linejoin="round" stroke-miterlimit="10" d="M454.8 200.6h-75.1"/><text transform="rotate(-90 272.542 -110.469)" fill="#010202" font-family="Helvetica,Arial,sans-serif" font-size="17.28">21</text><path fill="none" stroke="#010202" stroke-width=".227" stroke-linecap="round" stroke-linejoin="round" stroke-miterlimit="10" d="M420.7 91.5V40.1"/><text transform="translate(436.413 44.532)" fill="#010202" font-family="Helvetica,Arial,sans-serif" font-size="17.28">11</text><path fill="none" stroke="#010202" stroke-width=".227" stroke-linecap="round" stroke-linejoin="round" stroke-miterlimit="10" d="M468 97.4V40.1m180.3 99.6V40.1"/><text transform="translate(543.173 43.322)" fill="#010202" font-family="Helvetica,Arial,sans-serif" font-size="17.28">41.9</text><path fill="none" stroke="#010202" stroke-width=".227" stroke-linecap="round" stroke-linejoin="round" stroke-miterlimit="10" d="M648.3 46.9h0"/><path fill="none" stroke="#010202" stroke-width=".283" stroke-linecap="round" stroke-linejoin="round" stroke-miterlimit="10" d="M648.3 142.6v25.8"/><path fill="none" stroke="#010202" stroke-width=".227" stroke-linecap="round" stroke-linejoin="round" stroke-miterlimit="10" stroke-dasharray="12,2,2,2" d="M670.4 155.5H404.5"/><text transform="translate(289.315 248.251)" fill="#010202" font-family="Helvetica,Arial,sans-serif" font-size="17.28">2 x M3; 4 deep</text><text transform="translate(707.613 213.728)" fill="#010202" font-family="Helvetica,Arial,sans-serif" font-size="17.28">1 x M3; 4 deep</text><g clip-rule="evenodd"><path fill-rule="evenodd" fill="#1E1E1C" d="M479.1 49.3v-4.8L468 46.9zm158.5-4.8v4.8l11.1-2.4z"/><path fill="none" stroke="#1E1E1C" stroke-width=".227" stroke-miterlimit="3.864" d="M479.1 46.9h161.7"/></g><g clip-rule="evenodd"><path fill-rule="evenodd" fill="#1E1E1C" d="M431 49.3v-4.8l-11 2.4zm25.9-4.8v4.8l11.1-2.4z"/><path fill="none" stroke="#1E1E1C" stroke-width=".227" stroke-miterlimit="3.864" d="M425.9 46.9h31"/></g><g clip-rule="evenodd"><path fill-rule="evenodd" fill="#1E1E1C" d="M384.2 121.4h4.7l-2.4-11.1zm4.7 68h-4.7l2.3 11.1z"/><path fill="none" stroke="#1E1E1C" stroke-width=".227" stroke-miterlimit="3.864" d="M386.5 117.5v73"/></g><g clip-rule="evenodd"><path fill-rule="evenodd" fill="#1E1E1C" d="M384.1 80.5h4.8l-2.4-11.1zm4.8 18.9h-4.8l2.4 11.1z"/><path fill="none" stroke="#1E1E1C" stroke-width=".227" stroke-miterlimit="3.864" d="M386.5 78.6v22.1"/></g><g clip-rule="evenodd"><path fill-rule="evenodd" fill="#FFF" d="M450.3 210.8l4.4 5.9 8.3-9.7-1.2-1.5z"/><path fill="none" stroke="#FFF" stroke-width=".003" stroke-miterlimit="3.864" d="M450.3 210.8l4.4 5.9 8.3-9.7-1.2-1.5z"/><path fill="none" stroke="#1E1E1C" stroke-width=".227" stroke-miterlimit="3.864" d="M455.7 211.2l-59.7 43"/><path fill-rule="evenodd" fill="#1E1E1C" d="M451.8 211.2l2.7 3.9 7.7-8.3z"/></g><g clip-rule="evenodd"><path fill-rule="evenodd" fill="#FFF" d="M659.8 174.2l4.9-5.5-11.1-6.2-1.3 1.5z"/><path fill="none" stroke="#FFF" stroke-width=".003" stroke-miterlimit="3.864" d="M659.8 174.2l4.9-5.5-11.1-6.2-1.3 1.5z"/><path fill="none" stroke="#1E1E1C" stroke-width=".227" stroke-miterlimit="3.864" d="M659.2 168.9L713 219"/><path fill-rule="evenodd" fill="#1E1E1C" d="M659.9 172.7l3.3-3.4-9.7-6z"/></g><path fill="none" stroke="#010202" stroke-width=".283" stroke-linecap="round" stroke-linejoin="round" stroke-miterlimit="10" d="M325.7 440.9c2.4 0 4.3-1.9 4.3-4.3m0-120.5c0-2.4-1.9-4.3-4.3-4.3M158 436.5c0 2.4 1.9 4.3 4.3 4.3m0-129c-2.4 0-4.3 1.9-4.3 4.3m172 120.4V316.1m-4.3-4.3H162.3m-3.5 124.7V316.1m-.8 0v120.4m.8 0c0 1.9 1.5 3.4 3.4 3.4m163.5.1H162.3m0 .9h163.4m0-.9c1.9 0 3.4-1.5 3.4-3.4m.1-120.5v120.4m0-120.4c0-1.9-1.5-3.4-3.4-3.4m-163.5 0h163.4m-163.4 0c-1.9 0-3.4 1.5-3.4 3.4m57.2 52.9v-48.1m66.7 0V369m-2.2 2.1c1.2 0 2.2-1 2.2-2.1m-66.7 0c0 1.2 1 2.1 2.2 2.1m0-52.4c-1.2 0-2.2 1-2.2 2.2m66.7 0c0-1.2-1-2.2-2.2-2.2m0 52.4h-62.3m0-52.4h62.3m17 28.8c0-2.9-2.3-5.2-5.2-5.2-2.8 0-5.2 2.3-5.2 5.2 0 2.8 2.3 5.2 5.2 5.2 2.9 0 5.2-2.3 5.2-5.2h0z"/><path fill="none" stroke="#010202" stroke-width=".283" stroke-linecap="round" stroke-linejoin="round" stroke-miterlimit="10" d="M295.8 347.5c0-1.9-1.5-3.4-3.4-3.4s-3.4 1.5-3.4 3.4 1.5 3.4 3.4 3.4 3.4-1.5 3.4-3.4h0zm-84.2 0c0-2.9-2.3-5.2-5.2-5.2-2.8 0-5.2 2.3-5.2 5.2 0 2.8 2.3 5.2 5.2 5.2 2.9 0 5.2-2.3 5.2-5.2h0z"/><path fill="none" stroke="#010202" stroke-width=".283" stroke-linecap="round" stroke-linejoin="round" stroke-miterlimit="10" d="M209.8 347.5c0-1.9-1.5-3.4-3.4-3.4s-3.4 1.5-3.4 3.4 1.5 3.4 3.4 3.4 3.4-1.5 3.4-3.4h0zm24.7 57.2c0-13.5-11-24.5-24.5-24.5s-24.5 11-24.5 24.5 11 24.5 24.5 24.5c13.6 0 24.5-10.9 24.5-24.5h0z"/><path fill="none" stroke="#010202" stroke-width=".283" stroke-linecap="round" stroke-linejoin="round" stroke-miterlimit="10" d="M236.7 404.7c0-14.7-11.9-26.7-26.7-26.7-14.7 0-26.7 11.9-26.7 26.7 0 14.7 11.9 26.7 26.7 26.7 14.7 0 26.7-11.9 26.7-26.7h0zm-33.8-8.8v.2m0 0h.2m0 0v1.2m0 0h.3m0 0l1-1.1m0 0v-.3m0 0h-1m0 0v-.8m0 0h-.3m0 0v.8m0 0h-.2m1.2.2l-.7.8m0 0v-.8m0 0h.7m11.6 19.9v-.2"/><path fill="none" stroke="#010202" stroke-width=".283" stroke-linecap="round" stroke-linejoin="round" stroke-miterlimit="10" d="M215.2 416.3s0-.1 0 0v-.2l.1-.1h.4m-.7.3h.2m-.2-1.9v1.9m-.4-1.9h.4m-.4-.3v.3m1.1-.3h-1.1m1.1.3v-.3m-.4.3h.4m-.4 1.4v-1.4m.4 1.4h-.4m4.7-11.4v.3m0 0h1.1m0 0c-.1.1-.2.2-.3.2l-.3.3m0 0l-.2.2c0 .1-.1.1-.1.2m0 0c0 .1-.1.2-.1.2v.2m0 0v.2c0 .1.1.1.1.2 0 0 .1.1.2.1s.2.1.3.1m.1 0h.3c.1 0 .2-.1.2-.1m0 0v-.3m0 0h0m0 0s-.1 0 0 0c-.1.1-.2.1-.2.1m0 0h-.4m.1 0h-.2s-.1 0-.1-.1m0 .1c0-.1 0-.1 0 0l-.1-.1v-.2m0 0v-.2c0-.1 0-.1.1-.2s.2-.3.3-.4m0 0c.1-.1.2-.2.2-.3l.3-.3m.1.1v-.3m0 0H220m-14.8 11.9h.2m-.2-.3v.3m0-.3h0m.2 0h-.3m1-.7c0 .1 0 .3-.1.4 0 .1-.1.2-.1.2s-.1.1-.2.1h-.2m.1-.5h.2c.1 0 .1-.1.2-.1m-.8-.1c.1.1.2.1.2.1h.2m-.2-.2c0-.1 0-.1 0 0-.1-.1-.1-.1-.1-.2v-.2m0 0v-.3s0-.1.1-.1l.1-.1h.2m0 0s0 0 0 0h.2s.1 0 .1.1m-1 .4v.2c0 .1.1.1.1.2s.1.1.1.2m0-1.1l-.1.1-.1.1c0 .1-.1.2-.1.3m.8-.7h-.2c-.1 0-.2.1-.2.2m.8 0c0-.1 0-.1 0 0-.1-.1-.2-.1-.2-.1h-.3m.8.8v-.3c0-.1-.1-.2-.1-.3 0-.1-.1-.1-.1-.2m-.1 1.7c.1-.1.2-.3.2-.4 0-.2.1-.3.1-.5m-1 1.3h.3c.1 0 .2-.1.2-.1.1-.1.2-.1.2-.2m-.4-.8h-.2s-.1 0-.1-.1m.7 0c-.1 0-.1.1-.2.1h-.2m.4-.2s0 0 0 0v.1m-.2-.7s.1.1 0 0c.1.1.1.2.1.2v.4m-7.3-10.1v.2s0 .1.1.2c0 .1.1.1.1.2m0-.1s.1 0 .1.1h.4m0 0s.1 0 0 0h.2m0 0v.6m0 0h-.9m0 0v.3m0 0h1.2m0 0v-1.1m0 0h-.4m-.1 0h-.2s-.1 0-.1-.1m0 0s-.1 0 0 0l-.1-.1v-.2m0 0v-.2c0-.1 0-.1.1-.1m0-.1s0 0 0 0l.1-.1h.2m0 0h.4m-.1.1c.1 0 .1 0 .1.1 0 0 .1 0 .1.1m0-.1h0m0 0v-.3m0 0c-.1 0-.2-.1-.3-.1h-.3"/><path fill="none" stroke="#010202" stroke-width=".283" stroke-linecap="round" stroke-linejoin="round" stroke-miterlimit="10" d="M199.4 404.2h-.2s-.1 0-.2.1c-.1 0-.1.1-.2.1m.1 0c-.1.1-.1.2-.1.2 0 .1-.1.2-.1.3m18-9.9c-.1 0-.2-.1-.3-.1h-.3m.6.4v-.3m-.1.3h.1m-.6-.2c.1 0 .3 0 .3.1.1 0 .2.1.2.1m-.8-.1s0 0 0 0l.1-.1h.2m-.5.5v-.2c0-.1 0-.1.1-.1m.1.6c-.1 0-.1-.1 0 0l-.1-.1v-.2m.4.3h-.2s-.1 0-.1-.1m.4.1h-.1m.1.3v-.3m-.1.3h.1m-.5.3s0 0 0 0v-.2s0-.1.1-.1l.1-.1h.2m-.3.7s0-.1 0 0l-.1-.1v-.1m.4.2h-.1s-.1 0-.1-.1m.5.1h-.4m.6-.1c-.1 0-.1 0 0 0-.1.1-.2.1-.2.1m.2-.1h0m0 .3v-.3m-.6.4h.3c.1 0 .2-.1.3-.1"/><path fill="none" stroke="#010202" stroke-width=".283" stroke-linecap="round" stroke-linejoin="round" stroke-miterlimit="10" d="M215.6 397c.1 0 .1.1.2.1h.3m-.7-.5v.2c0 .1.1.1.1.1m.3-.8s-.1 0-.1.1l-.1.1-.1.1v.2m.3-.5h0m-.3-.2l.1.1h.1m-.4-.5v.3l.1.1m.1-.9c-.1.1-.1.2-.1.2v.3m.7-.6h-.4c-.1 0-.1.1-.2.1m-20.9 7.1h2.6m0 5.2h-2.6m2.6-5.2v5.2m28.2 0h-2.6m0-5.2h2.6m-2.6 5.2v-5.2"/><path fill="none" stroke="#010202" stroke-width=".283" stroke-linecap="round" stroke-linejoin="round" stroke-miterlimit="10" d="M225.6 404.7c0-8.6-7-15.6-15.6-15.6s-15.6 7-15.6 15.6 7 15.6 15.6 15.6 15.6-7 15.6-15.6h0z"/><path fill="none" stroke="#010202" stroke-width=".283" stroke-linecap="round" stroke-linejoin="round" stroke-miterlimit="10" d="M215.1 398c0-.7-.5-1.2-1.2-1.2s-1.2.5-1.2 1.2.5 1.2 1.2 1.2c.6 0 1.2-.5 1.2-1.2h0zm-7.8 0c0-.7-.5-1.2-1.2-1.2s-1.2.5-1.2 1.2.5 1.2 1.2 1.2 1.2-.5 1.2-1.2h0zm-3.8 6.7c0-.7-.5-1.2-1.2-1.2s-1.2.5-1.2 1.2.5 1.2 1.2 1.2c.6 0 1.2-.5 1.2-1.2h0zm3.8 6.7c0-.7-.5-1.2-1.2-1.2s-1.2.5-1.2 1.2.5 1.2 1.2 1.2 1.2-.5 1.2-1.2h0zm7.8 0c0-.7-.5-1.2-1.2-1.2s-1.2.5-1.2 1.2.5 1.2 1.2 1.2c.6 0 1.2-.5 1.2-1.2h0zm3.8-6.7c0-.7-.5-1.2-1.2-1.2s-1.2.5-1.2 1.2.5 1.2 1.2 1.2 1.2-.5 1.2-1.2h0z"/><path fill="none" stroke="#010202" stroke-width=".283" stroke-linecap="round" stroke-linejoin="round" stroke-miterlimit="10" d="M233.7 404.7c0-13.1-10.6-23.7-23.7-23.7s-23.7 10.6-23.7 23.7 10.6 23.7 23.7 23.7 23.7-10.6 23.7-23.7h0z"/><path fill="none" stroke="#010202" stroke-width=".283" stroke-linecap="round" stroke-linejoin="round" stroke-miterlimit="10" d="M229 404.7c0-10.5-8.5-19-19-19s-19 8.5-19 19 8.5 19 19 19c10.5.1 19-8.5 19-19h0zm-11.8-35.2v-11.7m0-6.4v-11.6m0-6.5V320m55 49.5h-45.5m-6.5 0h-3m64.5 0h-3m3-49.5v13.3m0 6.5v11.6m0 6.4v11.7m-2.1-49.5h2.1m-64.5 0h2.1m6.5 0h14.1m19.1 0h14.1m5.6 49.5v.2m-6.5 0v-.2m6.5 0h-6.5m-52 0v.2m6.5 0v-.2m0 0h-6.5m61.9-18.1h-.4m0 6.4h.4m-.4-6.4v6.4m.4-18h-.4m0-6.5h.4m-.4 0v6.5m-64.9 11.6h.4m0 6.4h-.4m.4 0v-6.4m-.4-11.6h.4m0-6.5h-.4m.4 6.5v-6.5m62.4-13.7v.4m-6.5 0v-.4m0 .4h6.5m-60.3-.4v.4m6.5 0v-.4m-6.5.4h6.5m33.2 0v3m-19.1 0v-3m19.1 3h-19.1m19.1 0h5.1m0 0v6.8m0 0h3.4m0 0v2m-36.1 0v-2m0 0h3.4m0 0V323m0 0h5.1m27.6 8.8h8.6m0 0v31m0 0h-53.3m0 0v-31m0 0h8.6"/><path fill="none" stroke="#010202" stroke-width=".283" stroke-linecap="round" stroke-linejoin="round" stroke-miterlimit="10" d="M194.7 407.7c1.9 8.4 10.4 13.7 18.8 11.8 5.9-1.3 10.4-5.9 11.8-11.8m14.6-87.3H259M158 436.5h.8m0-120.4h-.8m4.3 124.8v-.9m163.4.9v-.9m4.3-3.5h-.8m.8-120.4h-.8m-3.5-4.3v.9m-163.4-.9v.9"/><path fill="none" stroke="#010202" stroke-width=".227" stroke-linecap="round" stroke-linejoin="round" stroke-miterlimit="10" d="M215.2 347.5h-17.5m8.7-8.7v17.5m94.8-8.8h-17.5m8.8-8.7v17.5m-50.4 48.4H178m32-32v64.1m39.5-62.4v-58.9"/><path fill="none" stroke="#010202" stroke-width=".227" stroke-linecap="round" stroke-linejoin="round" stroke-miterlimit="10" stroke-dasharray="12,2,2,2" d="M244 310.7v131.2m87.1-65.6H153.2"/><path fill="none" stroke="#010202" stroke-width=".227" stroke-linecap="round" stroke-linejoin="round" stroke-miterlimit="10" d="M178 404.7h-45.9m30.2 36.1h-30.2"/><text transform="rotate(-90 283.84 149.379)" fill="#010202" font-family="Helvetica,Arial,sans-serif" font-size="17.28">8.4</text><path fill="none" stroke="#010202" stroke-width=".227" stroke-linecap="round" stroke-linejoin="round" stroke-miterlimit="10" d="M178 404.7h0m-15.7 36.1h0m-23.4 0h0m4.9-66.2l14.2 8.1m0 0l-14.2 8.2m0-16.3v16.3M270.7 455l8.2-14.2m0 0l8.2 14.2m-16.4 0h16.4M158 436.5v30.8m52-30.5v30.5"/><text transform="translate(167.68 456.906)" fill="#010202" font-family="Helvetica,Arial,sans-serif" font-size="17.28">12.1</text><path fill="none" stroke="#010202" stroke-width=".227" stroke-linecap="round" stroke-linejoin="round" stroke-miterlimit="10" d="M292.5 338.8V287"/><text transform="translate(240.41 290.433)" fill="#010202" font-family="Helvetica,Arial,sans-serif" font-size="17.28">20</text><path fill="none" stroke="#010202" stroke-width=".227" stroke-linecap="round" stroke-linejoin="round" stroke-miterlimit="10" d="M206.4 338.8v-51.9"/><text transform="translate(163.068 289.636)" fill="#010202" font-family="Helvetica,Arial,sans-serif" font-size="17.28">11.27</text><path fill="none" stroke="#010202" stroke-width=".227" stroke-linecap="round" stroke-linejoin="round" stroke-miterlimit="10" d="M158 316.1v-55.8m91.5 55.2v-20.1"/><text transform="translate(183.649 263.318)" fill="#010202" font-family="Helvetica,Arial,sans-serif" font-size="17.28">21.27</text><path fill="none" stroke="#010202" stroke-width=".227" stroke-linecap="round" stroke-linejoin="round" stroke-miterlimit="10" d="M283.7 347.5H108.1m54.2 93.3h-54.2"/><text transform="rotate(-90 259.916 148.54)" fill="#010202" font-family="Helvetica,Arial,sans-serif" font-size="17.28">21.7</text><text transform="translate(24.765 299.01)" fill="#010202" font-family="Helvetica,Arial,sans-serif" font-size="17.28">2 x M2; 4.5 deep</text><path fill="none" stroke="#010202" stroke-width=".227" stroke-linecap="round" stroke-linejoin="round" stroke-miterlimit="10" stroke-dasharray="12,2,2,2" d="M249.7 260.1v15.7"/><path fill="none" stroke="#010202" stroke-width=".283" stroke-miterlimit="3.864" d="M214.8 347.5c0 4.6-3.8 8.4-8.4 8.4-4.6 0-8.4-3.8-8.4-8.4 0-4.6 3.8-8.4 8.4-8.4 4.7 0 8.4 3.8 8.4 8.4zm21.9 57.2c0 14.7-12 26.7-26.7 26.7s-26.7-12-26.7-26.7 12-26.7 26.7-26.7 26.7 12 26.7 26.7z"/><path fill-rule="evenodd" clip-rule="evenodd" fill="#1E1E1C" d="M169 462.8v-4.7l-11.1 2.4zm29.9-4.7v4.7l11-2.3z"/><path clip-rule="evenodd" fill="none" stroke="#1E1E1C" stroke-width=".227" stroke-miterlimit="3.864" d="M169 460.5h29.6"/><g clip-rule="evenodd"><path fill-rule="evenodd" fill="#1E1E1C" d="M217.5 296.2v-4.7l-11.1 2.3zm63.9-4.7v4.7l11.1-2.4z"/><path fill="none" stroke="#1E1E1C" stroke-width=".227" stroke-miterlimit="3.864" d="M217.5 293.8h65"/></g><g clip-rule="evenodd"><path fill-rule="evenodd" fill="#1E1E1C" d="M168.7 296.2v-4.7l-11.1 2.4zm26.7-4.7v4.7l11.1-2.3z"/><path fill="none" stroke="#1E1E1C" stroke-width=".227" stroke-miterlimit="3.864" d="M166.1 293.9h29.3"/></g><g clip-rule="evenodd"><path fill-rule="evenodd" fill="#1E1E1C" d="M169 269.5v-4.8l-11.1 2.4zm69.3-4.8v4.8l11-2.4z"/><path fill="none" stroke="#1E1E1C" stroke-width=".227" stroke-miterlimit="3.864" d="M169 267.1h71"/></g><g clip-rule="evenodd"><path fill-rule="evenodd" fill="#1E1E1C" d="M112.6 358.6h4.7l-2.3-11.1zm4.7 71.1h-4.7l2.4 11.1z"/><path fill="none" stroke="#1E1E1C" stroke-width=".227" stroke-miterlimit="3.864" d="M115 357.9v71.8"/></g><path fill-rule="evenodd" clip-rule="evenodd" fill="#1E1E1C" d="M136.5 415.8h4.8l-2.4-11.1zm4.8 13.9h-4.8l2.4 11.1z"/><path clip-rule="evenodd" fill="none" stroke="#1E1E1C" stroke-width=".227" stroke-miterlimit="3.864" d="M138.9 414.3v15.4-15.4z"/><path fill="none" stroke="#010202" stroke-width=".283" stroke-miterlimit="3.864" d="M300.8 347.5c0 4.6-3.8 8.4-8.4 8.4-4.6 0-8.4-3.8-8.4-8.4 0-4.6 3.8-8.4 8.4-8.4 4.7 0 8.4 3.8 8.4 8.4z"/><g clip-rule="evenodd"><path fill-rule="evenodd" fill="#FFF" d="M190.7 333.3l-3.5 6 11.5 3.7.9-1.6z"/><path fill="none" stroke="#FFF" stroke-width=".003" stroke-miterlimit="3.864" d="M190.7 333.3l-3.5 6 11.5 3.7.9-1.6z"/><path fill="none" stroke="#1E1E1C" stroke-width=".227" stroke-miterlimit="3.864" d="M192.3 338.1l-59.6-36.6"/><path fill-rule="evenodd" fill="#1E1E1C" d="M191 334.7l-2.5 3.8 10.2 3.8z"/></g><path fill="none" stroke="#010202" stroke-width=".283" stroke-linecap="round" stroke-linejoin="round" stroke-miterlimit="10" d="M637.9 312.4l.5-.4m0 0v4.3m-.5 0v-3.9m.5 124.3V316.3m-.5 0v120.4m0 3.9l.5.4m0-4.3v4.3m-.5-.8v-3.5M658.6 312h-20.2m20.2 129v-4.3m0-120.4V312m-20.2 129h20.2m.8-4.3V316.3m-.8 0v120.4m0 4.3l.8-.9m0-3.4v3.4m-.8-128.1l.8.8m0 0v3.5m2.6 61.9v53.3m-2.6-53.3h2.6m-2.6 53.3h2.6m-2.1-75.5v-16.7m0 16.7h-.5m.5-16.7h-.5m-21.5 100.9v.8m-163.4 0v-.8m0 .8h163.4m.5 0h-.5m-163.4-27.3h163.4m-163.3-1v-6m0-56v56m0-56V347m0-.2v.2m0-2.1v1.9m0-16.6v14.7m0-16.6v1.9m0-2.1v.2m0-.2v-3.8m0-7.2v7.2m0-7.2v-4.3m163.3 0v4.3m0 7.2v-7.2m0 7.2v3.8m0 .2v-.2m0 2.1v-1.9m0 16.6v-14.7m0 16.6v-1.9m0 2.1v-.2m0 .2v3.7m0 56v-56m0 56v6m0-99.9H474.6m198.7 89.5h-7.8m7.8 0h4.6m-12.4 5.1h7.8m0 0v-5.1m4.6 5.1h-4.6m4.6-5.1v5.1m1.3.9h-13.7m13.7 0v-6.9m-13.7 0h13.7m-13.7 0v6.9m-2.4-27.1v47.3m23.4-42.7v38.1M662 381.2h1.1m-1.1 47.3h1.1m0-42.7h23.4m-23.4 38.1h23.4m-57.1-90v-.6m1.6 0v.6m-4.4 4.4h-.6m0-1.5h.6m4.3 4.4v.6m-1.5-.1v-.6m4.4-4.3h.6m0 1.5h-.6m-4.4-4.4c.1.8.2 1.4.3 1.8m0 0v.2m.9 0c-.3-.1-.6-.1-.9 0m.9 0v-.2m.1 0c.1-.4.2-1 .3-1.8m-4.4 4.4c.8-.1 1.4-.2 1.8-.3m-.1 0h.2m0-.9c-.1.3-.1.6 0 .9m0-.9h-.2m0 0c-.4-.1-1-.2-1.8-.3m4.4 4.4c-.1-.8-.2-1.4-.3-1.8m.1 0v-.2m-1 0c.3.1.6.1.9 0m-.9 0v.2m0 0c-.1.4-.2 1-.3 1.8m4.4-4.4c-.8.1-1.4.2-1.8.3m.1 0h-.2m0 .9c.1-.3.1-.6 0-.9m0 .9h.2m0 0c.4.1 1 .2 1.8.3"/><path fill="none" stroke="#010202" stroke-width=".283" stroke-linecap="round" stroke-linejoin="round" stroke-miterlimit="10" d="M628.5 338c.1 0 .2 0 .3.1.1 0 .2.1.3.1.1.1.2.1.3.2.1.1.1.2.2.3.1.1.1.2.1.3 0 .1 0 .2.1.3m.8-.1c0-.1 0-.2.1-.3 0-.1.1-.2.1-.3.1-.1.1-.2.2-.3.1-.1.2-.1.3-.2.1-.1.2-.1.3-.1.1 0 .2 0 .3-.1m0-.8c-.1 0-.2 0-.3-.1-.1 0-.2-.1-.3-.1-.1-.1-.2-.1-.3-.2-.1-.1-.1-.2-.2-.3-.1-.1-.1-.2-.1-.3 0-.1 0-.2-.1-.3m-.9.1c0 .1 0 .2-.1.3 0 .1-.1.2-.1.3-.1.1-.1.2-.2.3-.1.1-.2.1-.3.2-.1.1-.2.1-.3.1-.1 0-.2 0-.3.1"/><path fill="none" stroke="#010202" stroke-width=".283" stroke-linecap="round" stroke-linejoin="round" stroke-miterlimit="10" d="M636.6 337.5c0-3.6-2.9-6.5-6.5-6.5s-6.5 2.9-6.5 6.5 2.9 6.5 6.5 6.5c3.7 0 6.5-2.9 6.5-6.5h0zm-5.6-1.8v-2.4m0 2.4c0 .6.5 1 1.1 1.1m2.3 0l-2.3-.1m0 1.7l2.3-.1m-2.3.1c-.6 0-1 .5-1.1 1.1m0 2.2v-2.3m-1.6 0v2.3m0-2.3c0-.6-.5-1-1.1-1.1m-2.3 0l2.3.1m0-1.7l-2.3.1m2.3-.1c.6 0 1-.5 1.1-1.1m0-2.3v2.4m-147.9-1.8v-.6m1.5 0v.6m-4.4 4.4h-.6m0-1.5h.6m4.4 4.4v.6m-1.5-.1v-.6m4.3-4.3h.6m0 1.5h-.6m-4.3-4.4c.1.8.2 1.4.3 1.8m0 0v.2m.9 0c-.3-.1-.6-.1-.9 0m.9 0v-.2m0 0c.1-.4.2-1 .3-1.8m-4.4 4.4c.8-.1 1.4-.2 1.8-.3m0 0h.2m-.1-.9c-.1.3-.1.6 0 .9m0-.9h-.2m.1 0c-.4-.1-1-.2-1.8-.3m4.4 4.4c-.1-.8-.2-1.4-.3-1.8m0 0v-.2m-.9 0c.3.1.6.1.9 0m-.9 0v.2m0 0c-.1.4-.2 1-.3 1.8m4.3-4.4c-.8.1-1.4.2-1.8.3m.1 0h-.2m0 .9c.1-.3.1-.6 0-.9m0 .9h.2m0 0c.4.1 1 .2 1.8.3m-5.4-.3c.1 0 .2 0 .3.1.1 0 .2.1.3.1.1.1.2.1.3.2.1.1.1.2.2.3.1.1.1.2.1.3 0 .1 0 .2.1.3"/><path fill="none" stroke="#010202" stroke-width=".283" stroke-linecap="round" stroke-linejoin="round" stroke-miterlimit="10" d="M482.7 339.2c0-.1 0-.2.1-.3 0-.1.1-.2.1-.3.1-.1.1-.2.2-.3.1-.1.2-.1.3-.2.1-.1.2-.1.3-.1.1 0 .2 0 .3-.1m-.1-.8c-.1 0-.2 0-.3-.1-.1 0-.2-.1-.3-.1-.1-.1-.2-.1-.3-.2-.1-.1-.1-.2-.2-.3-.1-.1-.1-.2-.1-.3 0-.1 0-.2-.1-.3m-.8.1c0 .1 0 .2-.1.3 0 .1-.1.2-.1.3-.1.1-.1.2-.2.3-.1.1-.2.1-.3.2-.1.1-.2.1-.3.1-.1 0-.2 0-.3.1"/><path fill="none" stroke="#010202" stroke-width=".283" stroke-linecap="round" stroke-linejoin="round" stroke-miterlimit="10" d="M488.7 337.5c0-3.6-2.9-6.5-6.5-6.5s-6.5 2.9-6.5 6.5 2.9 6.5 6.5 6.5 6.5-2.9 6.5-6.5h0zm-5.7-1.8v-2.4m0 2.4c0 .6.5 1 1.1 1.1m2.3 0l-2.3-.1m0 1.7l2.3-.1m-2.3.1c-.6 0-1 .5-1.1 1.1m0 2.2v-2.3m-1.6 0l.1 2.3m-.1-2.3c0-.6-.5-1-1.1-1.1m-2.3 0l2.4.1m0-1.7l-2.4.1m2.4-.1c.6 0 1-.5 1.1-1.1m0-2.3l-.1 2.4M637.9 315h0m-163.3 0h-.1m0 93.7h.1m163.3 0h0m-163.4 1.8h.1m163.3 0h0m0-63.3h0m0-19.3h0m-163.3 19.3h-.1m0-19.3h.1M662 431.5v-53.3m-2.6 0h2.6m-2.6 53.3h2.6M474.1 312l.4.4m-.4 3.9V312m.4.4v3.9m0 120.4V316.3m-.4 0v120.4m0 4.3v-4.3m0 4.3l.4-.4m0-3.9v3.5m-.4.8h.4m-29.3-4.3v4.3m0 0h28.9m0-129h-28.9m0 0v4.3m0 120.4V316.3m-.8-3.5l.8-.8m-.8 4.3v-3.5m0 3.5v120.4m0 3.4l.8.9m-.8-.9v-3.4m-23.7.2V316.1m.9-.9v122.5m-.9-121.6l.9-.9m-.9 121.7l.9.8m22.8 0h-22.8m22.8-122.5h-22.8m216.3 1.1h.5m-.5 120.4h.5m20.2 0h-20.2m0-120.4h20.2m0 120.4h.8m0-120.4h-.8m-20.7 120.4H474.5m0-19.2h163.4m0-70.5h-7.7m0 3.7V347m0 3.7h7.7m-7.7-22.6h7.7m0-3.8h-7.7m0 0v3.8m0 0c-5.2 0-9.5 4.2-9.5 9.5 0 5.2 4.2 9.5 9.5 9.5m-155.6-19h7.6m0-3.8v3.8m0-3.8h-7.6m7.6 26.4V347"/><path fill="none" stroke="#010202" stroke-width=".283" stroke-linecap="round" stroke-linejoin="round" stroke-miterlimit="10" d="M482.2 350.7c7.3 0 13.2-5.9 13.2-13.2 0-7.3-5.9-13.2-13.2-13.2"/><path fill="none" stroke="#010202" stroke-width=".283" stroke-linecap="round" stroke-linejoin="round" stroke-miterlimit="10" d="M482.2 347c5.2 0 9.5-4.2 9.5-9.5 0-5.2-4.2-9.5-9.5-9.5m-7.6 22.7h7.6m0-3.7h-7.6m155.6-22.7c-7.3 0-13.2 5.9-13.2 13.2 0 7.3 5.9 13.2 13.2 13.2m0-3.9h7.7m0-1.9h-7.7m0 1.9v-1.9m0-14.7h7.7"/><path fill="none" stroke="#010202" stroke-width=".283" stroke-linecap="round" stroke-linejoin="round" stroke-miterlimit="10" d="M630.2 330.2c-4.1 0-7.4 3.3-7.4 7.4 0 4.1 3.3 7.4 7.4 7.4m7.7-16.7h-7.7m0 0v1.9m-155.6 0h7.6m0 0v-1.9m0 0h-7.6m7.6 16.6v1.9m0 0c5.1 0 9.2-4.1 9.2-9.2s-4.1-9.2-9.2-9.2"/><path fill="none" stroke="#010202" stroke-width=".283" stroke-linecap="round" stroke-linejoin="round" stroke-miterlimit="10" d="M482.2 344.9c4.1 0 7.4-3.3 7.4-7.4 0-4.1-3.3-7.4-7.4-7.4m-7.6 16.7h7.6m0-1.9h-7.6m155.6-16.6c-5.1 0-9.2 4.1-9.2 9.2s4.1 9.2 9.2 9.2m0 .1v.2m0-18.7v-.2m-148 18.7v.2m0-18.7v-.2m155.7 78.6H474.6m0-89.6h163.3m-7 16.8c-.5-.1-1-.1-1.5 0m1.6-.6c-.5-.1-1-.1-1.5 0m-2.9 3.5c-.1.5-.1 1 0 1.5m-.6-1.5c-.1.5-.1 1 0 1.5m3.4 2.9c.5.1 1 .1 1.5 0m-1.5.5c.5.1 1 .1 1.5 0m2.9-3.4c.1-.5.1-1 0-1.5m.6 1.5c.1-.5.1-1 0-1.5"/><path fill="none" stroke="#010202" stroke-width=".283" stroke-linecap="round" stroke-linejoin="round" stroke-miterlimit="10" d="M635.8 337.5c0-3.1-2.5-5.6-5.6-5.6-3.1 0-5.6 2.5-5.6 5.6 0 3.1 2.5 5.6 5.6 5.6 3.1 0 5.6-2.5 5.6-5.6h0zm-7.5.9v-.4m1.1 1.4h.3m1.3 0h-.3m1.4-1v-.4m0-1.3v.4m-1.1-1.4h-.3m-1.3 0h.3m-1.4 1v.4M483 333.9c-.5-.1-1-.1-1.5 0m1.5-.6c-.5-.1-1-.1-1.5 0m-2.9 3.5c-.1.5-.1 1 0 1.5m-.6-1.5c-.1.5-.1 1 0 1.5m3.5 2.9c.5.1 1 .1 1.5 0m-1.5.5c.5.1 1 .1 1.5 0m2.8-3.4c.1-.5.1-1 0-1.5m.6 1.5c.1-.5.1-1 0-1.5"/><path fill="none" stroke="#010202" stroke-width=".283" stroke-linecap="round" stroke-linejoin="round" stroke-miterlimit="10" d="M487.8 337.5c0-3.1-2.5-5.6-5.6-5.6-3.1 0-5.6 2.5-5.6 5.6 0 3.1 2.5 5.6 5.6 5.6 3.1 0 5.6-2.5 5.6-5.6h0zm-7.4.9v-.4m1 1.4h.4m1.2 0h-.3m1.4-1v-.4m0-1.3v.4m-1.1-1.4h-.3m-1.3 0h.4m-1.4 1v.4m-5.9-20h.1m163.3 0h0m-163.8-.8h.4m-.4 120.4h.4m-.4 0h-28.9m0-120.4h28.9m-29.7 0h.8m-.8 120.4h.8"/><path fill="none" stroke="#010202" stroke-width="1.2" stroke-linecap="round" stroke-linejoin="round" stroke-miterlimit="10" d="M496.1 348.7v44.5"/><text transform="translate(384.475 461.039)" fill="#010202" font-family="Helvetica,Arial,sans-serif" font-size="17.28">5.5</text><text transform="translate(543.28 461.29)" fill="#010202" font-family="Helvetica,Arial,sans-serif" font-size="17.28">50</text><path fill="none" stroke="#010202" stroke-width=".227" stroke-linecap="round" stroke-linejoin="round" stroke-miterlimit="10" d="M686.5 426v44.9"/><text transform="translate(701.684 460.89)" fill="#010202" font-family="Helvetica,Arial,sans-serif" font-size="17.28">6.3</text><path fill="none" stroke="#010202" stroke-width=".227" stroke-linecap="round" stroke-linejoin="round" stroke-miterlimit="10" d="M417.5 315.2h-24.2M419 437.7h-25.7m27.4 2.7V491m238.7-48.2V491"/><text transform="translate(525.677 482.095)" fill="#010202" font-family="Helvetica,Arial,sans-serif" font-size="17.28">55.5</text><path fill="none" stroke="#010202" stroke-width=".227" stroke-linecap="round" stroke-linejoin="round" stroke-miterlimit="10" d="M420.7 311.5v-22.4m75.4 57.2v-57.2"/><text transform="translate(431.793 291.466)" fill="#010202" font-family="Helvetica,Arial,sans-serif" font-size="17.28">17.526</text><path fill="none" stroke="#010202" stroke-width=".227" stroke-linecap="round" stroke-linejoin="round" stroke-miterlimit="10" d="M444.4 442.8v28.4"/><text transform="rotate(-90 401.53 6.717)" fill="#010202" font-family="Helvetica,Arial,sans-serif" font-size="17.28"> 28.5</text><text transform="translate(530.082 280.009)"><tspan x="0" y="0" font-family="Helvetica,Arial,sans-serif" font-size="11.52">Photosensitive surface </tspan><tspan x="0" y="13.8" font-family="Helvetica,Arial,sans-serif" font-size="11.52">of the sensor</tspan></text><g clip-rule="evenodd"><path fill-rule="evenodd" fill="#1E1E1C" d="M697.6 466.4v-4.7l-11.1 2.3z"/><path fill="none" stroke="#1E1E1C" stroke-width=".227" stroke-miterlimit="3.864" d="M659.4 464h69.4"/></g><g clip-rule="evenodd"><path fill-rule="evenodd" fill="#1E1E1C" d="M409.6 461.8v4.8l11.1-2.4z"/><path fill="none" stroke="#1E1E1C" stroke-width=".227" stroke-miterlimit="3.864" d="M377.9 464.2h66.4"/></g><g clip-rule="evenodd"><path fill-rule="evenodd" fill="#1E1E1C" d="M455.4 466.5v-4.7l-11.1 2.3zm192.9-4.7v4.7l11.1-2.4z"/><path fill="none" stroke="#1E1E1C" stroke-width=".227" stroke-miterlimit="3.864" d="M455.4 464.1h200.7"/></g><g clip-rule="evenodd"><path fill-rule="evenodd" fill="#1E1E1C" d="M431.8 298.2v-4.7l-11.1 2.4zm53.3-4.7v4.7l11.1-2.3z"/><path fill="none" stroke="#1E1E1C" stroke-width=".227" stroke-miterlimit="3.864" d="M426.8 295.9h63.8"/></g><g clip-rule="evenodd"><path fill-rule="evenodd" fill="#1E1E1C" d="M431.8 486.6v-4.8l-11.1 2.4zm216.5-4.8v4.8l11.1-2.4z"/><path fill="none" stroke="#1E1E1C" stroke-width=".227" stroke-miterlimit="3.864" d="M431.8 484.2h221.8"/></g><g clip-rule="evenodd"><path fill-rule="evenodd" fill="#1E1E1C" d="M397.7 326.2h4.7l-2.3-11.1zm4.7 100.4h-4.7l2.4 11z"/><path fill="none" stroke="#1E1E1C" stroke-width=".227" stroke-miterlimit="3.864" d="M400.1 325.1v102.5"/></g><g clip-rule="evenodd"><path fill-rule="evenodd" fill="#FFF" d="M505 355.7l-6.9-2.5-1.6 12.6 1.8.7z"/><path fill="none" stroke="#FFF" stroke-width=".003" stroke-miterlimit="3.864" d="M505 355.7l-6.9-2.5-1.6 12.6 1.8.7z"/><path fill="none" stroke="#1E1E1C" stroke-width=".227" stroke-miterlimit="3.864" d="M500.3 358.3l26.5-68.6"/><path fill-rule="evenodd" fill="#1E1E1C" d="M503.6 356.3l-4.4-1.8-2 11.2z"/></g><path fill="none" stroke="#010202" stroke-width=".227" stroke-linecap="round" stroke-linejoin="round" stroke-miterlimit="10" stroke-dasharray="12,2,2,2" d="M674.9 376.5H406.4"/></svg>