<svg version="1.1" id="Layer_1" xmlns="http://www.w3.org/2000/svg" x="0" y="0" viewBox="0 0 490 470" xml:space="preserve"><style>.st0{fill:#a3a2a1}.st1{fill:none;stroke:#000;stroke-width:2.835;stroke-miterlimit:10}.st3{fill:#77ba58}.st5{font-family:Helvetica,Arial,sans-serif}.st6{font-size:11px}.st7{fill:#3c3c3c}.st8{font-size:10px}.st9{fill:none;stroke:#1c1c1b;stroke-width:.7;stroke-miterlimit:10}.st10{fill:#1c1c1b}.st11{fill:#f99d33}.st12{fill:none;stroke:#000;stroke-width:.992;stroke-miterlimit:10}.st14{fill:#f5f5f5}.st15{font-size:10.006px}.st19{font-size:16px}.st21,.st24{fill:none;stroke:#fff133;stroke-width:18.425;stroke-miterlimit:10}.st24{stroke:#9d9d9c;stroke-width:1.5}</style><path class="st0" d="M214.7 51.1l-46 30.4-.5 107.3h92.1l.5-107.1-46.1-30.6z"/><path class="st1" d="M214.7 51.1l-46.1 30.3v342.9l16.5-6 16.2 1.9 5.7 4.3 4.1-4.6 5.4 4.2 7.3-3.5 4-.8 4.9 2.7 3-.3 4.7-3.5.7 5 4.1-4.2 2.7-.4 3.8 3.1 1.1 2.3 2.5-3.9 5.4 3.8v-343l-46-30.3z"/><path d="M196.1 298.7v115.7m188-115.8v130.1" fill="none" stroke="#78ba58" stroke-width="18.425" stroke-miterlimit="10"/><path class="st3" d="M186.9 408.2h18.4v13.2l-3.5-2.5-14.9-1.8v-8.9z"/><path d="M186.9 189.6V71.2L205.3 59v130.6h-18.4z" fill="#e2001a"/><text transform="translate(33.022 187.755)" class="st5 st6">Over temperature</text><text transform="translate(53.922 200.955)" class="st5 st6">threshold</text><text transform="translate(24.791 217.4)" class="st7 st5 st8">Over Temperature event</text><text transform="translate(19.436 325.9)" class="st7 st5 st8">Critical Temperature event</text><path class="st9" d="M20.1 174.8h113.6V205H20.1v-30.2z"/><text transform="translate(28.492 296.577)" class="st10 st5 st6">Critical temperature</text><text transform="translate(53.892 309.777)" class="st10 st5 st6">threshold</text><path class="st9" d="M20.1 283.6h113.6v30.2H20.1v-30.2z"/><path class="st11" d="M214.7 52.8l6.6 4.5v133h-13.8l.1-132.8"/><path class="st12" d="M306.7 22.7v435.7"/><path d="M302 25.9l4.7-17.4 4.6 17.4H302z"/><text transform="rotate(-90 299.746 1.316)" class="st5" font-size="14">Device temperature</text><text transform="rotate(-90 168.627 -30.565)" class="st14 st5 st15">Error</text><text transform="rotate(-90 281.705 82.513)" class="st14 st5 st15">Ok</text><path class="st0" d="M448.9 189.2l-.1-101.9-16.4 4-16.2-1.2-5.7-2.9-4.1 3.1-5.4-2.8-7.2 2.3-4.1.5-5-1.8-2.9.3-4.7 2.3-.8-3.3-3.4 1.5-.3.1-3 1.4-3.8-2-1.1-1.6-2.6 2.6-5.4-2.5.1 101.9h92.1z"/><path class="st1" d="M403.9 459.9l46.1-30.5V85.8l-16.5 6-16.2-1.9-5.7-4.3-4.1 4.7-5.4-4.3-7.3 3.5-4 .8-4.9-2.7-3 .3-4.7 3.5-.7-5-4.1 4.3-2.7.3-3.8-3.1-1.1-2.3-2.5 3.9-5.4-3.7v343.6l46 30.5z"/><path class="st3" d="M374.9 428.7h18.3v22l-18.3-12.1v-9.9z"/><path d="M376.6 89.6l.7 4.5 6.3-4.7 2.1-.2 5 2.7 2.5-.4v9.7h-18.4v-9.8l1.8-1.8z" fill="#e1081a"/><text transform="rotate(-90 375.81 -11.592)" class="st14 st5 st15">Ok</text><text transform="rotate(-90 198.999 -18.565)" class="st5" font-size="9.5">Test image or acq. stopped*</text><path d="M397.1 89.9h.1l4.7-2.2" fill="#e3e3e3" stroke="#e3e3e3" stroke-width=".1" stroke-miterlimit="10"/><path class="st12" d="M340.4 244.5h16.5m-16.8-54.9h16.5"/><text transform="translate(167.761 25.733)" class="st5 st19">Heating path</text><text transform="translate(356.055 27.733)" class="st5 st19">Cooling path</text><path class="st1" d="M150.3 189h13.5"/><path d="M153.1 193.1l-15.3-4.1 15.3-4.1v8.2z"/><path class="st1" d="M150.3 298.7h13.5"/><path d="M153.1 302.9l-15.3-4.2 15.3-4.1v8.3z"/><text transform="translate(322.505 221.4)" class="st5 st6">4 °C</text><path d="M348.4 233v-31.3" fill="none" stroke="#1c1c1b" stroke-width="1.3" stroke-miterlimit="10"/><path class="st10" d="M352.2 230.4l-3.8 14.1-3.8-14.1h7.6zm0-26.1l-3.8-14.1-3.8 14.1h7.6z"/><path class="st21" d="M196.2 189.6v109.1"/><path d="M384.1 101.2v88" fill="none" stroke="#e1081a" stroke-width="18.425" stroke-miterlimit="10"/><text transform="rotate(-90 229.64 30.448)" class="st5 st15">Critical</text><path class="st21" d="M384.1 189.2v109.4"/><text transform="rotate(-90 324.33 -63.907)" class="st5 st15">Critical</text><text transform="rotate(-90 268.982 -118.42)" class="st14 st5 st15">Error</text><path d="M358.2 189h90.7m-90.5 109.6H450m-281.8.3h92.1m-92.1-109.3h92.1" stroke="#000" stroke-width="1.5" stroke-miterlimit="10" stroke-dasharray="4.5,4.5"/><path class="st11" d="M401.9 87.7l5.9 4.8 2-2.6.5 154.2h-13.8L396 90.4"/><text transform="rotate(-90 317.258 -90.169)" class="st5 st15">Test image or acq. stopped*</text><path class="st24" d="M357.9 244.1h2.2"/><path d="M364.7 244.1h80.8" fill="none" stroke="#9d9d9c" stroke-width="1.5" stroke-miterlimit="10" stroke-dasharray="4.6157,4.6157"/><path class="st24" d="M447.8 244.1h2.3"/><text transform="translate(19.707 392.4)" class="st7 st5 st8">* depending on</text><text transform="translate(23.165 404.459)" class="st7 st5 st8">camera model</text></svg>