<svg version="1.0" xmlns="http://www.w3.org/2000/svg" viewBox="0 0 520 350"><path fill="none" stroke="#000" stroke-width=".781" stroke-miterlimit="3.864" d="M63.1 15.8H497V297H63.1V15.8z"/><path clip-rule="evenodd" fill="none" stroke="#000" stroke-width=".227" stroke-miterlimit="3.864" d="M63.2 43.5h434.1M63.1 72h434.1m-434 28h434M63.1 128.1h434.1M63.2 156h434m-434 28.7h434.1M63 212.7h434M63.2 240.6h434.1M63.1 268.5h434.1M135.3 15.8v281.4m72.5-281.3v281.4m72.7-281.6v281.4m71.8-281.4v281.4M424.8 16v281.4"/><path clip-rule="evenodd" fill="none" stroke="#000" stroke-width=".709" stroke-miterlimit="3.864" d="M63.2 140.3l7-12.6 7.6-9.9 2.5-4.8 1.5-1.8 3.9-3.4 5.3-7.2 3.3-4.6 1.3-1.6 5.1-4.8L109 80l7.1-7.7 9-10.8 10.6-10.9 6.4-7.2 6.7-5.4 3.9-2.8 4-1.6 1.9-1.3 3.2-2.8 2.8-1.5 3.3-.9 2.4-2 3.9-2.3 5.4-.5 5.7-2.6 6-1.8 5.6-1.1 4.7.8 5.8-.5 6.2-1 4.7 1.1 4.2.7 10.3 3 4.4.3 10.4 3.8 3.9 3 2.6.6 4.7 3.7 5.9 1.9 5.3 3.1 4.3 3.1 3.4 3.8 3.7 5.6 3.8 3.2 2.6 1.6 4.2 3.3 1.6 1.1 2.8 2.9 3.9 3.8 1.5 1.6 2.9.5 3.5 4.4 6.1 6.5 5.1 5.4 6.4 8.7 6 7.1 6.3 7.8 5.1 5.6 5.6 6.1 8.7 11.1 7.8 10.4 5.4 9.7 7.8 11.2 9.6 12 8.7 10.6 2.8 3.9 4.8 4.6 7.3 8.3 2.9 3.5 2.2 3.6 4.5 5 6.1 7.8 5.4 5.4 9.9 9.7 8 7.9 8 7.4 9.6 6.8 10.2 6.7 4.2 3.3 8.1 4.8 6.2 3.5"/><g font-family="Helvetica,Arial,sans-serif"><text transform="rotate(-90 127.736 101.147)" fill="#131718" font-size="12">Relative Response</text><text transform="translate(220.69 335.83)" font-size="12">Wavelength (nm)</text><text transform="translate(47.5 17.535)" font-size="8">1.0</text><text transform="translate(47.5 47.303)" font-size="8">0.9</text><text transform="translate(47.5 73.073)" font-size="8">0.8</text><text transform="translate(47.5 102.84)" font-size="8">0.7</text><text transform="translate(47.5 129.61)" font-size="8">0.6</text><text transform="translate(47.5 158.378)" font-size="8">0.5</text><text transform="translate(47.5 187.147)" font-size="8">0.4</text><text transform="translate(47.5 214.916)" font-size="8">0.3</text><text transform="translate(47.5 242.684)" font-size="8">0.2</text><text transform="translate(47.5 268.453)" font-size="8">0.1</text><text transform="translate(47.5 299.222)" font-size="8">0.0</text><text transform="translate(59.5 309.222)" font-size="8">400</text><text transform="translate(126.5 309.222)" font-size="8">500</text><text transform="translate(198.5 309.222)" font-size="8">600</text><text transform="translate(276.5 309.222)" font-size="8">700</text><text transform="translate(348.5 309.222)" font-size="8">800</text><text transform="translate(420.5 309.222)" font-size="8">900</text><text transform="translate(483.5 309.222)" font-size="8">1000</text></g></svg>