<svg version="1.0" xmlns="http://www.w3.org/2000/svg" viewBox="0 0 520 288.8"><g clip-rule="evenodd" fill="none" stroke="#000" stroke-miterlimit="3.864"><path stroke-width=".712" d="M59.6 10.2h424.8v229.1H59.6z"/><path stroke-width=".227" d="M59.6 43h425M59.7 76.5h425m-425 32.8h425m-425.2 32h425M59.7 174.8h425M59.6 208.3h425m-354.3-198v229.2m71-229.2v229.3m71.2-229.3v229.1m70.2-229.1v229.1m71-229.1v229.4"/></g><path clip-rule="evenodd" fill="none" stroke="#000" stroke-miterlimit="3.864" d="M61.2 121.6l2.5-13.1 1.5-.2 3.3 6.6h1l1.9-15.4 1.5.4 1.9 6 1-4.4 5-12.9 3.5-7.7 4.6-8.7h1.2l4 11.2 1.7 1 1.4-1.7 1.2-3.7 1.2-5 1-2.3 1.7-1.5 1.2-2.3 1.3-3.5-.4-8.1 2.1-5.4 2.3-.8 1.2 8.7v1.5l.8 1.2 1.7-1s.2-.6 1-2.1 1.2-1.9 1.2-1.9l.4-3.1.6-2.7.8-3.3.4-1.3.4-4 1.2-.2 1.5 4.6 1 2.5 1 2.5 1.3 2.1.4 1.5.8 1 1-.4.2-1.2.4-1.9.2-1.2 1-2.7.6-2.7.6-3.5.4-2.1.2-1.9 1.2-1.9-.2-2.3.6-1.9.6-1.3 1.3.2 1 1.9.2 1.2.2 1.7.4 1.5.4 1.2v1.3l.4 1.2v.8l1.5.8.3-1.9 1-1.7 1.7-1 1.2-1.3v-1l.2-.8h.8l1 1.3v1.7l.8 2.9.8 5 1.9 4.2.8 1.9 1.7 1.2 1-.4.4-1.5.6-1.9 1.3-3.1 1-1.5 1-.8 1 .4.8-.6.8-1.2.6-2.1 1.3-1.7v-1.3l.8-2.5 1.3.4.8 2.3 1.3 3.3 1.3 3.9 1.5 2.1.6 1 1.3-1 .6-1 1.2-1.3v-1.7l.8-1.5.4-1.9.2-1.7.6-1 .8-1.7.8-1.7.8-1.2 1 .2.8 1.7.8 2.3.6 2.7.2 1 .4 1 .8 1.2.4 1 1.7 2.3 1.2.8 1.5-1.2 1.5-1.7 1.3-2.5 2.3-1.5.8-2.1.8-1.3.8-2.9v-1.4l.8-1.2 1-1.3 1.5.8 1.3.8v1.7l.2 3.1 1.2 4.2.2 3.1.4 2.7.2 2.7.4 2.5.8 1.5v1.5l1.7 2.3 1.2 1 .8-2.5 1.7-1.3-.4-1.3.2-2.5.6-1.9.2-3.1.8-2.7v-1.9l1-2.7v-3.3l1-2.3 1-2.7.8-1.5 1.2 1.3.2 2.3 1 2.3.8 3.1v1.9l.6 2.1 1.2 2.3.2 3.1.8 3.3 1 2.7 1.3 1.5 1.2.2.8-1.9.8-.8 1.9-1.3.4-1.5.8-1.5 1.3-1.3 1-1.2 1.5-2.5 1.5-4.2.8-3.7 1.3-4.2 1-2.7 1-.4 1.2.4.6 1.3 1.2 2.1 1 2.9.8 1.9.8 4-.2 3.3 1 4.2.6 2.1 1 4 .6 2.5.4 1.9 1.5 1.2 1.2.6 1.2-1 .4-1.9.6-2.7.2-2.5.6-1.5.8-1.9 1.2-2.7.6-4.2.8-1.7.6-1.3 1-.2.8 1.2 1.3 2.3v2.1l.8 2.3 1.3 6.9 2.3 9.1 2.1 9.3 1 3.9 1.2 1.5 1-1.3 1.3-.6 1-.4h.8l.6 1.7 1 1 1 .8 1.2-.6 1-1 3.9-5.4 1.3-4 1-2.5 1-2.9.4-2.3 1.5-2.1.6-1.9.4-2.1 1.2-1 .2-.8 1.5 1.5 1.2 2.5-.2 1.9.4 1.7.4 3.3 1 1.9 2.3 5.6 2.1 8.3 2.1 4.6 1.2 1.7 1.3.2 1-.6.4-1.3.2-1.7 1.2-2.1v-2.1l.8-2.1v-2.1l.8-2.5.4-2.3 1.2-1.5.6-1.3 1-1.2 1.7-1 1 .2-.4.7.4 1.5 1.7 2.5 1 1.7 1.7 5.6 2.3 7.7 2.1 6.7.6 1.3.4.8 1.3.4.2-.8h1l.4-.8 3.3-.6 1.2.4.6 1.7 1.5.6.8 1.2 1.5 1.5.8.8 1 .2h2.7l1.5-.6.2-1.2 1.9-1 .8-1 .8-.6 1.2-.8.8-1.2 2.1.8.8 1.3.2 1.2 1.5 3.5 1 6 .8 3.9 1.2 5.8 1.7 6.6 2.9 4.8 1.2 2.9 1.9 2.9 1.9 1.2 4.4-.8 1.2-.8 2.1-1.2 1.5-1.9 2.3-2.3 1.3-1.2 1.5-.4 2.3.2.4 1.2 1.2 2.5 2.1 4.6 2.5 7.9 2.7 6.4 2.5 6.4 2.5 3.1 2.3 2.9h1l.8-.2 1-.6 1.7-.2h1.7l1.9.8.4 1.2.2 1.2 1.2 1 1.7.8h1.3l1.9.4.2 1.2v.8l.8 1.7 1.3 2.1 1.5 1.5 1.7.2 1.3-.2.8-1 1-1.2 2.3-1 2.3.2 1.9-.2 1.5.8 3.5 7.5 3.5 6.7 3.3 8.3 3.5 3.9 1.2 1.2.2 1 .8 1.3.4 1.5v1.2l.6.8.6 1.2 1 .4 1.3.2h1.3l2.5.2 1.2 2.3h3.3l1.5.4 1.5.8.8 1.7 2.3 2.3 1.2.4 1.2.4h2.1l1.2-.8 1.3-1.3.8-.2 1.2.4 1 1.9 7.7 8.7 1.5 1.3 1.5.4 1.5.8 1.3 1.9 1.7 2.1.6 1.3"/><text transform="translate(47.671 14.385)" font-family="Helvetica,Arial,sans-serif" font-size="8">70</text><text transform="translate(47.671 45.214)" font-family="Helvetica,Arial,sans-serif" font-size="8">60</text><text transform="translate(47.671 78.656)" font-family="Helvetica,Arial,sans-serif" font-size="8">50</text><text transform="translate(47.671 111.521)" font-family="Helvetica,Arial,sans-serif" font-size="8">40</text><text transform="translate(47.671 206.657)" font-family="Helvetica,Arial,sans-serif" font-size="8">10</text><text transform="translate(47.671 142.657)" font-family="Helvetica,Arial,sans-serif" font-size="8">30</text><text transform="translate(47.671 176.098)" font-family="Helvetica,Arial,sans-serif" font-size="8">20</text><text transform="translate(52.403 239.713)" font-family="Helvetica,Arial,sans-serif" font-size="8">0</text><text transform="rotate(-90 107.99 80.7)" fill="#131718" font-family="Helvetica,Arial,sans-serif" font-size="12">Quantum Efficiency (%)</text><text transform="translate(217.058 275)" font-family="Helvetica,Arial,sans-serif" font-size="12">Wavelength (nm)</text><text transform="translate(55.005 252.758)" font-family="Helvetica,Arial,sans-serif" font-size="8">400</text><text transform="translate(125.005 252.758)" font-family="Helvetica,Arial,sans-serif" font-size="8">500</text><text transform="translate(193.005 252.758)" font-family="Helvetica,Arial,sans-serif" font-size="8">600</text><text transform="translate(267.005 252.758)" font-family="Helvetica,Arial,sans-serif" font-size="8">700</text><text transform="translate(335.005 252.758)" font-family="Helvetica,Arial,sans-serif" font-size="8">800</text><text transform="translate(405.005 252.758)" font-family="Helvetica,Arial,sans-serif" font-size="8">900</text><text transform="translate(478.005 252.758)" font-family="Helvetica,Arial,sans-serif" font-size="8">1000</text></svg>