<svg version="1.0" xmlns="http://www.w3.org/2000/svg" viewBox="0 0 510 364.5"><path fill="#5EC5ED" d="M51.8 71.3h311.8v8.3H51.8v-8.3z"/><path fill="#5EC5ED" stroke="#000" stroke-width=".2" stroke-miterlimit="3.864" d="M51.8 71.3h311.8v8.3H51.8v-8.3z"/><path fill="#020405" d="M363.6 71.3h5.5v8.3h-5.5v-8.3z"/><path fill="none" stroke="#020405" stroke-width=".2" stroke-miterlimit="3.864" d="M363.6 71.3h5.5v8.3h-5.5v-8.3z"/><path fill="#5EC5ED" d="M57.3 85.1h311.8v8.3H57.3v-8.3z"/><path fill="#5EC5ED" stroke="#000" stroke-width=".2" stroke-miterlimit="3.864" d="M57.3 85.1h311.8v8.3H57.3v-8.3z"/><path fill="#020405" d="M369.1 85.1h5.6v8.3h-5.6v-8.3z"/><path fill="none" stroke="#020405" stroke-width=".2" stroke-miterlimit="3.864" d="M369.1 85.1h5.6v8.3h-5.6v-8.3z"/><path fill="#5EC5ED" d="M62.8 98.9h311.9v8.3H62.8v-8.3z"/><path fill="#5EC5ED" stroke="#000" stroke-width=".2" stroke-miterlimit="3.864" d="M62.8 98.9h311.9v8.3H62.8v-8.3z"/><path fill="#020405" d="M374.7 98.9h5.5v8.3h-5.5v-8.3z"/><path fill="none" stroke="#020405" stroke-width=".2" stroke-miterlimit="3.864" d="M374.7 98.9h5.5v8.3h-5.5v-8.3z"/><path fill="#5EC5ED" d="M68.3 112.7h311.9v8.3H68.3v-8.3z"/><path fill="#5EC5ED" stroke="#000" stroke-width=".2" stroke-miterlimit="3.864" d="M68.3 112.7h311.9v8.3H68.3v-8.3z"/><path fill="#020405" d="M380.2 112.7h5.5v8.3h-5.5v-8.3z"/><path fill="none" stroke="#020405" stroke-width=".2" stroke-miterlimit="3.864" d="M380.2 112.7h5.5v8.3h-5.5v-8.3z"/><path fill="#5EC5ED" d="M73.8 126.5h311.9v8.3H73.8v-8.3z"/><path fill="#5EC5ED" stroke="#000" stroke-width=".2" stroke-miterlimit="3.864" d="M73.8 126.5h311.9v8.3H73.8v-8.3z"/><path fill="#020405" d="M385.7 126.5h5.5v8.3h-5.5v-8.3z"/><path fill="none" stroke="#020405" stroke-width=".2" stroke-miterlimit="3.864" d="M385.7 126.5h5.5v8.3h-5.5v-8.3z"/><path fill="#5EC5ED" d="M79.4 140.3h311.8v8.3H79.4v-8.3z"/><path fill="#5EC5ED" stroke="#000" stroke-width=".2" stroke-miterlimit="3.864" d="M79.4 140.3h311.8v8.3H79.4v-8.3z"/><path fill="#020405" d="M391.2 140.3h5.5v8.3h-5.5v-8.3z"/><path fill="none" stroke="#020405" stroke-width=".2" stroke-miterlimit="3.864" d="M391.2 140.3h5.5v8.3h-5.5v-8.3z"/><path fill="#5EC5ED" d="M84.9 154.1h311.8v8.3H84.9v-8.3z"/><path fill="#5EC5ED" stroke="#000" stroke-width=".2" stroke-miterlimit="3.864" d="M84.9 154.1h311.8v8.3H84.9v-8.3z"/><path fill="#020405" d="M396.7 154.1h5.6v8.3h-5.6v-8.3z"/><path fill="none" stroke="#020405" stroke-width=".2" stroke-miterlimit="3.864" d="M396.7 154.1h5.6v8.3h-5.6v-8.3z"/><path fill="#5EC5ED" d="M90.4 167.9h311.9v8.3H90.4v-8.3z"/><path fill="#5EC5ED" stroke="#000" stroke-width=".2" stroke-miterlimit="3.864" d="M90.4 167.9h311.9v8.3H90.4v-8.3z"/><path fill="#020405" d="M402.3 167.9h5.5v8.3h-5.5v-8.3z"/><path fill="none" stroke="#020405" stroke-width=".2" stroke-miterlimit="3.864" d="M402.3 167.9h5.5v8.3h-5.5v-8.3z"/><path fill="#5EC5ED" d="M95.9 181.7h311.9v8.3H95.9v-8.3z"/><path fill="#5EC5ED" stroke="#000" stroke-width=".2" stroke-miterlimit="3.864" d="M95.9 181.7h311.9v8.3H95.9v-8.3z"/><path fill="#020405" d="M407.8 181.7h5.5v8.3h-5.5v-8.3z"/><path fill="none" stroke="#020405" stroke-width=".2" stroke-miterlimit="3.864" d="M407.8 181.7h5.5v8.3h-5.5v-8.3z"/><path fill="#5EC5ED" d="M101.4 195.5h311.9v8.3H101.4v-8.3z"/><path fill="#5EC5ED" stroke="#000" stroke-width=".2" stroke-miterlimit="3.864" d="M101.4 195.5h311.9v8.3H101.4v-8.3z"/><path fill="#020405" d="M413.3 195.5h5.5v8.3h-5.5v-8.3z"/><path fill="none" stroke="#020405" stroke-width=".2" stroke-miterlimit="3.864" d="M413.3 195.5h5.5v8.3h-5.5v-8.3z"/><path fill="#5EC5ED" d="M107 209.3h311.8v8.3H107v-8.3z"/><path fill="#5EC5ED" stroke="#000" stroke-width=".2" stroke-miterlimit="3.864" d="M107 209.3h311.8v8.3H107v-8.3z"/><path fill="#020405" d="M418.8 209.3h5.5v8.3h-5.5v-8.3z"/><path fill="none" stroke="#020405" stroke-width=".2" stroke-miterlimit="3.864" d="M418.8 209.3h5.5v8.3h-5.5v-8.3z"/><path fill="#5EC5ED" d="M167.7 264.5h311.8v8.3H167.7v-8.3z"/><path fill="#5EC5ED" stroke="#000" stroke-width=".2" stroke-miterlimit="3.864" d="M167.7 264.5h311.8v8.3H167.7v-8.3z"/><path fill="#020405" d="M479.5 264.5h5.6v8.3h-5.6v-8.3z"/><path fill="none" stroke="#020405" stroke-width=".2" stroke-miterlimit="3.864" d="M479.5 264.5h5.6v8.3h-5.6v-8.3z"/><path fill="#5EC5ED" d="M173.2 278.3h311.9v8.3H173.2v-8.3z"/><path fill="#5EC5ED" stroke="#000" stroke-width=".2" stroke-miterlimit="3.864" d="M173.2 278.3h311.9v8.3H173.2v-8.3z"/><path fill="#020405" d="M485.1 278.3h5.5v8.3h-5.5v-8.3z"/><path fill="none" stroke="#020405" stroke-width=".2" stroke-miterlimit="3.864" d="M485.1 278.3h5.5v8.3h-5.5v-8.3z"/><path fill="#5EC5ED" d="M178.7 292.1h311.9v8.3H178.7v-8.3z"/><path fill="#5EC5ED" stroke="#000" stroke-width=".2" stroke-miterlimit="3.864" d="M178.7 292.1h311.9v8.3H178.7v-8.3z"/><path fill="#020405" d="M490.6 292.1h5.5v8.3h-5.5v-8.3z"/><path fill="none" stroke="#020405" stroke-width=".2" stroke-miterlimit="3.864" d="M490.6 292.1h5.5v8.3h-5.5v-8.3z"/><path clip-rule="evenodd" fill="none" stroke="#000" stroke-width=".5" stroke-miterlimit="3.864" d="M101.4 203.8v46.9m5.6-33.1v33.1"/><g clip-rule="evenodd"><path fill-rule="evenodd" d="M112 239.7v1.9l-4.8-1.9 4.8-1.9z"/><path fill="none" stroke="#000" stroke-width=".5" stroke-miterlimit="3.864" d="M111.7 239.7h11.8"/></g><g clip-rule="evenodd"><path fill-rule="evenodd" d="M96.4 239.7v-1.9l4.7 1.9-4.7 1.9z"/><path fill="none" stroke="#000" stroke-width=".5" stroke-miterlimit="3.864" d="M96.7 239.7h-6.3"/></g><path clip-rule="evenodd" fill="none" stroke="#000" stroke-width=".5" stroke-miterlimit="3.864" d="M418.8 148.6v46.9m5.5-46.9v60.7"/><g clip-rule="evenodd"><path fill-rule="evenodd" d="M429.4 154.1v1.9l-4.8-1.9 4.8-1.9z"/><path fill="none" stroke="#000" stroke-width=".5" stroke-miterlimit="3.864" d="M429.1 154.1h11.8"/></g><g clip-rule="evenodd"><path fill-rule="evenodd" d="M413.8 154.1v-1.9l4.7 1.9-4.7 1.9z"/><path fill="none" stroke="#000" stroke-width=".5" stroke-miterlimit="3.864" d="M414.1 154.1h-6.3"/></g><path clip-rule="evenodd" fill="none" stroke="#000" stroke-width=".25" stroke-miterlimit="3.864" d="M178.7 303.2v11"/><g clip-rule="evenodd"><path fill-rule="evenodd" d="M56.8 309.9v1.8l-4.8-1.8 4.8-1.9zm116.8 0V308l4.8 1.9-4.8 1.8z"/><path fill="none" stroke="#000" stroke-width=".5" stroke-miterlimit="3.864" d="M56.5 309.9h117.4"/></g><path d="M203.5 224.5c0-.8.6-1.4 1.4-1.4.8 0 1.4.6 1.4 1.4 0 .8-.6 1.4-1.4 1.4-.7 0-1.4-.6-1.4-1.4z"/><path fill="none" stroke="#000" stroke-width=".25" stroke-miterlimit="3.864" d="M203.5 224.5c0-.8.6-1.4 1.4-1.4.8 0 1.4.6 1.4 1.4 0 .8-.6 1.4-1.4 1.4-.7 0-1.4-.6-1.4-1.4z"/><path d="M209.1 232.8c0-.8.6-1.4 1.4-1.4.8 0 1.4.6 1.4 1.4 0 .8-.6 1.4-1.4 1.4-.8 0-1.4-.7-1.4-1.4z"/><path fill="none" stroke="#000" stroke-width=".25" stroke-miterlimit="3.864" d="M209.1 232.8c0-.8.6-1.4 1.4-1.4.8 0 1.4.6 1.4 1.4 0 .8-.6 1.4-1.4 1.4-.8 0-1.4-.7-1.4-1.4z"/><path d="M214.6 241.1c0-.8.6-1.4 1.4-1.4.8 0 1.4.6 1.4 1.4 0 .8-.6 1.4-1.4 1.4-.8-.1-1.4-.7-1.4-1.4z"/><path fill="none" stroke="#000" stroke-width=".25" stroke-miterlimit="3.864" d="M214.6 241.1c0-.8.6-1.4 1.4-1.4.8 0 1.4.6 1.4 1.4 0 .8-.6 1.4-1.4 1.4-.8-.1-1.4-.7-1.4-1.4z"/><path d="M220.1 249.3c0-.8.6-1.4 1.4-1.4.8 0 1.4.6 1.4 1.4 0 .8-.6 1.4-1.4 1.4-.8 0-1.4-.6-1.4-1.4z"/><path fill="none" stroke="#000" stroke-width=".25" stroke-miterlimit="3.864" d="M220.1 249.3c0-.8.6-1.4 1.4-1.4.8 0 1.4.6 1.4 1.4 0 .8-.6 1.4-1.4 1.4-.8 0-1.4-.6-1.4-1.4z"/><circle cx="227" cy="257.6" r="1.4"/><circle fill="none" stroke="#000" stroke-width=".25" stroke-miterlimit="3.864" cx="227" cy="257.6" r="1.4"/><path d="M358.1 224.5c0-.8.6-1.4 1.4-1.4.8 0 1.4.6 1.4 1.4 0 .8-.6 1.4-1.4 1.4-.8 0-1.4-.6-1.4-1.4z"/><path fill="none" stroke="#000" stroke-width=".25" stroke-miterlimit="3.864" d="M358.1 224.5c0-.8.6-1.4 1.4-1.4.8 0 1.4.6 1.4 1.4 0 .8-.6 1.4-1.4 1.4-.8 0-1.4-.6-1.4-1.4z"/><path d="M363.6 232.8c0-.8.6-1.4 1.4-1.4.8 0 1.4.6 1.4 1.4 0 .8-.6 1.4-1.4 1.4-.8 0-1.4-.7-1.4-1.4z"/><path fill="none" stroke="#000" stroke-width=".25" stroke-miterlimit="3.864" d="M363.6 232.8c0-.8.6-1.4 1.4-1.4.8 0 1.4.6 1.4 1.4 0 .8-.6 1.4-1.4 1.4-.8 0-1.4-.7-1.4-1.4z"/><path d="M369.1 241.1c0-.8.6-1.4 1.4-1.4.8 0 1.4.6 1.4 1.4 0 .8-.6 1.4-1.4 1.4-.7-.1-1.4-.7-1.4-1.4z"/><path fill="none" stroke="#000" stroke-width=".25" stroke-miterlimit="3.864" d="M369.1 241.1c0-.8.6-1.4 1.4-1.4.8 0 1.4.6 1.4 1.4 0 .8-.6 1.4-1.4 1.4-.7-.1-1.4-.7-1.4-1.4z"/><path d="M374.7 249.3c0-.8.6-1.4 1.4-1.4.8 0 1.4.6 1.4 1.4 0 .8-.6 1.4-1.4 1.4-.8 0-1.4-.6-1.4-1.4z"/><path fill="none" stroke="#000" stroke-width=".25" stroke-miterlimit="3.864" d="M374.7 249.3c0-.8.6-1.4 1.4-1.4.8 0 1.4.6 1.4 1.4 0 .8-.6 1.4-1.4 1.4-.8 0-1.4-.6-1.4-1.4z"/><circle cx="381.6" cy="257.6" r="1.4"/><circle fill="none" stroke="#000" stroke-width=".25" stroke-miterlimit="3.864" cx="381.6" cy="257.6" r="1.4"/><g clip-rule="evenodd"><path fill-rule="evenodd" d="M51.8 54h4.4l-4.4 11.2L47.3 54z"/><path fill="none" stroke="#000" stroke-width="1.5" stroke-miterlimit="3.864" d="M51.8 43.7v11.1"/></g><path clip-rule="evenodd" fill="none" stroke="#000" stroke-width=".5" stroke-miterlimit="3.864" d="M51.8 71.3v249.5M496.1 54v266.8m-132.5-266v16.5"/><g clip-rule="evenodd"><path fill-rule="evenodd" d="M368.7 65.4v1.9l-4.8-1.9 4.8-1.9zm122.3 0v-1.9l4.8 1.9-4.8 1.9z"/><path fill="none" stroke="#000" stroke-width=".5" stroke-miterlimit="3.864" d="M368.4 65.4h123"/></g><text transform="translate(24.844 22.36)"><tspan x="0" y="0" font-family="Helvetica,Arial,sans-serif" font-size="11">Frame start</tspan><tspan x="6.3" y="13.2" font-family="Helvetica,Arial,sans-serif" font-size="11">triggered</tspan></text><text transform="translate(382.962 60.877)" font-family="Helvetica,Arial,sans-serif" font-size="11">Sensor readout time</text><text transform="translate(89.855 303.158)" font-family="Helvetica,Arial,sans-serif" font-size="11">Reset time</text><text transform="translate(445.638 156.193)" font-family="Helvetica,Arial,sans-serif" font-size="11">t</text><text transform="matrix(.583 0 0 .583 449.231 159.856)" font-family="Helvetica,Arial,sans-serif" font-size="11">Row</text><path fill="#5EC5ED" d="M410.6 328.9h24.8v8.3h-24.8v-8.3z"/><path fill="#5EC5ED" stroke="#000" stroke-width=".2" stroke-miterlimit="3.864" d="M410.6 328.9h24.8v8.3h-24.8v-8.3z"/><path fill="#020405" d="M429.9 345.8h5.5v8.2h-5.5v-8.2z"/><path fill="none" stroke="#020405" stroke-width=".2" stroke-miterlimit="3.864" d="M429.9 345.8h5.5v8.2h-5.5v-8.2z"/><text transform="translate(441.074 336.61)" font-family="Helvetica,Arial,sans-serif" font-size="11">= Exposure</text><text transform="translate(441.074 353.697)" font-family="Helvetica,Arial,sans-serif" font-size="11">= Readout</text><path d="M28.8 122.3c0-.8.7-1.5 1.5-1.5s1.5.7 1.5 1.5-.7 1.5-1.5 1.5-1.5-.7-1.5-1.5z"/><path fill="none" stroke="#000" stroke-width=".25" stroke-miterlimit="3.864" d="M28.8 122.3c0-.8.7-1.5 1.5-1.5s1.5.7 1.5 1.5-.7 1.5-1.5 1.5-1.5-.7-1.5-1.5z"/><path d="M28.8 131.3c0-.8.7-1.5 1.5-1.5s1.5.7 1.5 1.5-.7 1.5-1.5 1.5-1.5-.7-1.5-1.5z"/><path fill="none" stroke="#000" stroke-width=".25" stroke-miterlimit="3.864" d="M28.8 131.3c0-.8.7-1.5 1.5-1.5s1.5.7 1.5 1.5-.7 1.5-1.5 1.5-1.5-.7-1.5-1.5z"/><path d="M28.8 140.4c0-.8.7-1.5 1.5-1.5s1.5.7 1.5 1.5-.7 1.5-1.5 1.5-1.5-.7-1.5-1.5z"/><path fill="none" stroke="#000" stroke-width=".25" stroke-miterlimit="3.864" d="M28.8 140.4c0-.8.7-1.5 1.5-1.5s1.5.7 1.5 1.5-.7 1.5-1.5 1.5-1.5-.7-1.5-1.5z"/><path d="M28.8 149.4c0-.8.7-1.5 1.5-1.5s1.5.7 1.5 1.5-.7 1.5-1.5 1.5-1.5-.7-1.5-1.5z"/><path fill="none" stroke="#000" stroke-width=".25" stroke-miterlimit="3.864" d="M28.8 149.4c0-.8.7-1.5 1.5-1.5s1.5.7 1.5 1.5-.7 1.5-1.5 1.5-1.5-.7-1.5-1.5z"/><path d="M28.8 158.5c0-.8.7-1.5 1.5-1.5s1.5.7 1.5 1.5-.7 1.5-1.5 1.5-1.5-.7-1.5-1.5z"/><path fill="none" stroke="#000" stroke-width=".25" stroke-miterlimit="3.864" d="M28.8 158.5c0-.8.7-1.5 1.5-1.5s1.5.7 1.5 1.5-.7 1.5-1.5 1.5-1.5-.7-1.5-1.5z"/><path d="M28.8 167.8c0-.8.7-1.5 1.5-1.5s1.5.7 1.5 1.5-.7 1.5-1.5 1.5-1.5-.7-1.5-1.5z"/><path fill="none" stroke="#000" stroke-width=".25" stroke-miterlimit="3.864" d="M28.8 167.8c0-.8.7-1.5 1.5-1.5s1.5.7 1.5 1.5-.7 1.5-1.5 1.5-1.5-.7-1.5-1.5z"/><path d="M28.8 176.8c0-.8.7-1.5 1.5-1.5s1.5.7 1.5 1.5-.7 1.5-1.5 1.5-1.5-.7-1.5-1.5z"/><path fill="none" stroke="#000" stroke-width=".25" stroke-miterlimit="3.864" d="M28.8 176.8c0-.8.7-1.5 1.5-1.5s1.5.7 1.5 1.5-.7 1.5-1.5 1.5-1.5-.7-1.5-1.5z"/><path d="M28.8 185.9c0-.8.7-1.5 1.5-1.5s1.5.7 1.5 1.5-.7 1.5-1.5 1.5-1.5-.7-1.5-1.5z"/><path fill="none" stroke="#000" stroke-width=".25" stroke-miterlimit="3.864" d="M28.8 185.9c0-.8.7-1.5 1.5-1.5s1.5.7 1.5 1.5-.7 1.5-1.5 1.5-1.5-.7-1.5-1.5z"/><path d="M28.8 194.9c0-.8.7-1.5 1.5-1.5s1.5.7 1.5 1.5-.7 1.5-1.5 1.5-1.5-.7-1.5-1.5z"/><path fill="none" stroke="#000" stroke-width=".25" stroke-miterlimit="3.864" d="M28.8 194.9c0-.8.7-1.5 1.5-1.5s1.5.7 1.5 1.5-.7 1.5-1.5 1.5-1.5-.7-1.5-1.5z"/><path d="M28.8 203.9c0-.8.7-1.5 1.5-1.5s1.5.7 1.5 1.5-.7 1.5-1.5 1.5c-.8.1-1.5-.6-1.5-1.5z"/><path fill="none" stroke="#000" stroke-width=".25" stroke-miterlimit="3.864" d="M28.8 203.9c0-.8.7-1.5 1.5-1.5s1.5.7 1.5 1.5-.7 1.5-1.5 1.5c-.8.1-1.5-.6-1.5-1.5z"/><path d="M28.8 213.3c0-.8.7-1.5 1.5-1.5s1.5.7 1.5 1.5-.7 1.5-1.5 1.5-1.5-.7-1.5-1.5z"/><path fill="none" stroke="#000" stroke-width=".25" stroke-miterlimit="3.864" d="M28.8 213.3c0-.8.7-1.5 1.5-1.5s1.5.7 1.5 1.5-.7 1.5-1.5 1.5-1.5-.7-1.5-1.5z"/><path d="M28.8 222.3c0-.8.7-1.5 1.5-1.5s1.5.7 1.5 1.5-.7 1.5-1.5 1.5-1.5-.6-1.5-1.5z"/><path fill="none" stroke="#000" stroke-width=".25" stroke-miterlimit="3.864" d="M28.8 222.3c0-.8.7-1.5 1.5-1.5s1.5.7 1.5 1.5-.7 1.5-1.5 1.5-1.5-.6-1.5-1.5z"/><path d="M28.8 231.4c0-.8.7-1.5 1.5-1.5s1.5.7 1.5 1.5-.7 1.5-1.5 1.5-1.5-.7-1.5-1.5z"/><path fill="none" stroke="#000" stroke-width=".25" stroke-miterlimit="3.864" d="M28.8 231.4c0-.8.7-1.5 1.5-1.5s1.5.7 1.5 1.5-.7 1.5-1.5 1.5-1.5-.7-1.5-1.5z"/><path d="M28.8 240.4c0-.8.7-1.5 1.5-1.5s1.5.7 1.5 1.5-.7 1.5-1.5 1.5-1.5-.7-1.5-1.5z"/><path fill="none" stroke="#000" stroke-width=".25" stroke-miterlimit="3.864" d="M28.8 240.4c0-.8.7-1.5 1.5-1.5s1.5.7 1.5 1.5-.7 1.5-1.5 1.5-1.5-.7-1.5-1.5z"/><path d="M28.8 249.5c0-.8.7-1.5 1.5-1.5s1.5.7 1.5 1.5-.7 1.5-1.5 1.5-1.5-.7-1.5-1.5z"/><path fill="none" stroke="#000" stroke-width=".25" stroke-miterlimit="3.864" d="M28.8 249.5c0-.8.7-1.5 1.5-1.5s1.5.7 1.5 1.5-.7 1.5-1.5 1.5-1.5-.7-1.5-1.5z"/><text transform="translate(129.486 241.577)" font-family="Helvetica,Arial,sans-serif" font-size="11">t</text><text transform="matrix(.583 0 0 .583 133.08 245.24)" font-family="Helvetica,Arial,sans-serif" font-size="11">Row</text><text transform="translate(16.187 79.137)" font-family="Helvetica,Arial,sans-serif" font-size="11">Row 1</text><text transform="translate(16.187 94.46)" font-family="Helvetica,Arial,sans-serif" font-size="11">Row 2</text><text transform="translate(16.187 110.645)" font-family="Helvetica,Arial,sans-serif" font-size="11">Row 3</text><text transform="translate(7.083 271.29)" font-family="Helvetica,Arial,sans-serif" font-size="11">Row n-2</text><text transform="translate(7.083 286.613)" font-family="Helvetica,Arial,sans-serif" font-size="11">Row n-1</text><text transform="translate(16.294 301.938)" font-family="Helvetica,Arial,sans-serif" font-size="11">Row n</text></svg>