<svg version="1.1" id="Layer_1" xmlns="http://www.w3.org/2000/svg" x="0" y="0" viewBox="0 0 1000 580" xml:space="preserve"><style>.st0{fill:#5ec5ed}.st1{fill:#e6e6e6}.st2{fill:#bde4f7}.st3,.st4{stroke:#000;stroke-linecap:round;stroke-linejoin:round;stroke-miterlimit:3}.st3{fill:none;stroke-width:.24}.st4{stroke-width:.75;stroke-dasharray:0,3.75}.st4,.st5{fill:none}.st6{font-family:Helvetica,Arial,sans-serif}.st7{font-size:11.704px}.st8{font-size:14.63px}.st10,.st9{fill:none;stroke:#000;stroke-linecap:round;stroke-linejoin:round;stroke-miterlimit:3}.st9{stroke-width:.24;stroke-dasharray:0,1.2}.st10{stroke-width:.5;stroke-dasharray:0,2.5}.st11{font-size:20.482px}.st12{font-size:8.778px}.st13{font-size:17.556px}.st14{font-size:13.167px}.st16{font-size:16.093px}.st17{fill:none;stroke:#000;stroke-width:.24;stroke-linecap:round;stroke-linejoin:round;stroke-miterlimit:10}</style><path class="st0" d="M954 232.6l-20.7 20.7H881l-20.7-20.7 20.7-20.7h52.3l20.7 20.7zm0 49.8l-20.7 20.7H881l-20.7-20.7 20.7-20.8h52.3l20.7 20.8zm-20.7 29l20.7 20.7-20.7 20.8H881l-20.7-20.8 20.7-20.7h52.3z"/><path class="st1" d="M953.8 182.8l-20.7 20.8h-52.2l-20.8-20.8 20.8-20.7h52.2l20.7 20.7z"/><path class="st0" d="M860.3 232.6l-20.8 20.7h-52.2l-20.8-20.7 20.8-20.7h52.2l20.8 20.7zm0 99.5l-20.8 20.8h-52.2l-20.8-20.8 20.8-20.7h52.2l20.8 20.7zm0-49.7l-20.8 20.7h-52.2l-20.8-20.7 20.8-20.8h52.2l20.8 20.8z"/><path class="st1" d="M860.1 182.8l-20.7 20.8h-52.3l-20.7-20.8 20.7-20.7h52.3l20.7 20.7z"/><path class="st0" d="M766.5 232.6l-20.7 20.7h-52.2l-20.8-20.7 20.8-20.7h52.2l20.7 20.7zm0 49.8l-20.7 20.7h-52.2l-20.8-20.7 20.8-20.8h52.2l20.7 20.8zm-20.7 29l20.7 20.7-20.7 20.8h-52.2l-20.8-20.8 20.8-20.7h52.2z"/><path class="st2" d="M766.4 182.8l-20.8 20.8h-52.2l-20.7-20.8 20.7-20.7h52.3l20.7 20.7z"/><path class="st0" d="M672.8 232.6l-20.7 20.7h-52.3l-20.7-20.7 20.7-20.7h52.3l20.7 20.7zm0 49.8l-20.7 20.7h-52.3l-20.7-20.7 20.7-20.8h52.3l20.7 20.8zm-20.7 29l20.7 20.7-20.7 20.8h-52.3l-20.7-20.8 20.7-20.7h52.3z"/><path class="st2" d="M672.7 182.8l-20.8 20.8h-52.2l-20.8-20.8 20.8-20.7h52.2l20.8 20.7z"/><path class="st0" d="M579.1 232.6l-20.8 20.7h-52.2l-20.7-20.7 20.7-20.7h52.3l20.7 20.7zm0 99.5l-20.8 20.8h-52.2l-20.7-20.8 20.7-20.7h52.3l20.7 20.7zm-20.7-70.5l20.7 20.8-20.8 20.7h-52.2l-20.7-20.7 20.7-20.8h52.3zm20.5-78.8l-20.7 20.8h-52.3l-20.7-20.8 20.7-20.7h52.3l20.7 20.7zm-93.5 49.8l-20.8 20.7h-52.2l-20.7-20.7 20.7-20.7h52.2l20.8 20.7zm0 49.8l-20.8 20.7h-52.2l-20.8-20.7 20.8-20.8h52.2l20.8 20.8zm-20.8 29l20.8 20.7-20.8 20.8h-52.2l-20.8-20.8 20.8-20.7h52.2zm20.6-128.6l-20.7 20.8h-52.3l-20.7-20.8 20.7-20.7h52.3l20.7 20.7zm-93.5 49.8l-20.8 20.7h-52.2l-20.8-20.7 20.8-20.7h52.2l20.8 20.7z"/><path class="st0" d="M391.6 282.4l-20.7 20.7h-52.2l-20.8-20.7 20.8-20.8h52.2l20.7 20.8zm-20.7 29l20.7 20.7-20.7 20.8h-52.2l-20.8-20.8 20.8-20.7h52.2zm20.6-128.6l-20.8 20.8h-52.2l-20.7-20.8 20.7-20.7h52.2l20.8 20.7zm-93.6 49.8l-20.7 20.7h-52.3l-20-20v-1.4l20-20h52.3l20.7 20.7zm-20.7 78.8l20.7 20.7-20.7 20.8h-52.3l-20-20.1v-1.3l20-20.1h52.3zm20.7-29l-20.7 20.7h-52.3l-20-20v-1.4l20-20.1h52.3l20.7 20.8z"/><path class="st1" d="M297.8 182.8L277 203.6h-52.2l-19.9-19.9V182l19.9-19.9H277l20.8 20.7z"/><path class="st0" d="M204.2 232.6l-20.7 20.7h-52.3l-20.7-20.7 20.7-20.7h52.3l20.7 20.7zm0 49.8l-20.7 20.7h-52.3l-20.7-20.7 20.7-20.8h52.3l20.7 20.8zm-20.7 29l20.7 20.7-20.7 20.8h-52.3l-20.7-20.8 20.7-20.7h52.3z"/><path class="st1" d="M204 182.8l-20.7 20.8H131l-20.7-20.8 20.7-20.7h52.3l20.7 20.7z"/><path class="st3" d="M464.5 162.1l20.7 20.7 20.7 20.8"/><path class="st3" d="M505.9 162.1l-20.7 20.7-20.7 20.8m-93.8-41.5l20.8 20.7 20.7 20.8m0-41.5l-20.7 20.7-20.8 20.8m93.6-41.5h-52.1m52.1 41.5h-52.1m52.4 8.3l20.8 20.7 20.7 20.7"/><path class="st3" d="M506.1 211.9l-20.7 20.7-20.8 20.7m-93.7-41.4l20.8 20.7 20.7 20.7"/><path class="st3" d="M412.4 211.9l-20.7 20.7-20.8 20.7m93.6-41.4h-52.1m52.1 41.4h-52.1m52.2 8.3l20.8 20.8 20.7 20.7m0-41.5l-20.7 20.8-20.8 20.7m-93.7-41.5l20.7 20.8 20.8 20.7m0-41.5l-20.8 20.8-20.7 20.7m93.6-41.5h-52.1m52.1 41.5h-52.1m52.2 8.3l20.8 20.7 20.7 20.8m0-41.5l-20.7 20.7-20.8 20.8m-93.7-41.5l20.7 20.7 20.8 20.8m0-41.5l-20.8 20.7-20.7 20.8m93.6-41.5h-52.1m52.1 41.5h-52.1m239.5-190.8l20.8 20.7 20.7 20.8"/><path class="st3" d="M693.4 162.1l-20.7 20.7-20.8 20.8m93.6-41.5h-52.1m52.1 41.5h-52.1m52.3-41.5l20.7 20.7 20.7 20.8"/><path class="st3" d="M787.1 162.1l-20.7 20.7-20.8 20.8m-187.5-41.5H506m52.1 41.5H506m52.2-41.5l20.7 20.7 20.8 20.8"/><path class="st3" d="M599.7 162.1l-20.8 20.7-20.7 20.8m93.6-41.5h-52.1m52.1 41.5h-52.1m52.4 8.3l20.7 20.7 20.8 20.7"/><path class="st3" d="M693.6 211.9l-20.8 20.7-20.7 20.7m93.6-41.4h-52.1m52.1 41.4h-52.1m52.2-41.4l20.7 20.7 20.8 20.7"/><path class="st3" d="M787.3 211.9l-20.8 20.7-20.7 20.7m-187.6-41.4h-52.1m52.1 41.4h-52.1m52.3-41.4l20.7 20.7 20.7 20.7m0-41.4l-20.7 20.7-20.8 20.7m93.6-41.4h-52.1m52.1 41.4h-52.1m52.3 8.3l20.7 20.8 20.8 20.7"/><path class="st3" d="M693.6 261.6l-20.8 20.8-20.7 20.7m93.6-41.5h-52.1m52.1 41.5h-52.1m52.2-41.5l20.7 20.8 20.8 20.7"/><path class="st3" d="M787.3 261.6l-20.8 20.8-20.7 20.7m-187.6-41.5h-52.1m52.1 41.5h-52.1m52.3-41.5l20.7 20.8 20.7 20.7"/><path class="st3" d="M599.8 261.6l-20.7 20.8-20.8 20.7m93.6-41.5h-52.1m52.1 41.5h-52.1m52.3 8.3l20.7 20.7 20.8 20.8"/><path class="st3" d="M693.6 311.4l-20.8 20.7-20.7 20.8m93.6-41.5h-52.1m52.1 41.5h-52.1m52.2-41.5l20.7 20.7 20.8 20.8"/><path class="st3" d="M787.3 311.4l-20.8 20.7-20.7 20.8m-187.6-41.5h-52.1m52.1 41.5h-52.1m52.3-41.5l20.7 20.7 20.7 20.8m0-41.5l-20.7 20.7-20.8 20.8m93.6-41.5h-52.1m52.1 41.5h-52.1m239.6-141h-52.1m52.1 41.4h-52.1m52.2-41.4l20.8 20.7 20.7 20.7"/><path class="st3" d="M881 211.9l-20.7 20.7-20.8 20.7m93.6-41.4H881m52.1 41.4H881m52.3-41.4l20.7 20.7 20.7 20.7m0-41.4L954 232.6l-20.7 20.7m-93.9 8.3h-52.1m52.1 41.5h-52.1m52.2-41.5l20.8 20.8 20.7 20.7"/><path class="st3" d="M881 261.6l-20.7 20.8-20.8 20.7m93.6-41.5H881m52.1 41.5H881m52.3-41.5l20.7 20.8 20.7 20.7"/><path class="st3" d="M974.7 261.6L954 282.4l-20.7 20.7m-93.9 8.3h-52.1m52.1 41.5h-52.1m52.2-41.5l20.8 20.7 20.7 20.8"/><path class="st3" d="M881 311.4l-20.7 20.7-20.8 20.8m93.6-41.5H881m52.1 41.5H881m52.3-41.5l20.7 20.7 20.7 20.8"/><path class="st3" d="M974.7 311.4L954 332.1l-20.7 20.8M277 162.1l20.8 20.7 20.7 20.8m0-41.5l-20.7 20.7-20.8 20.8m93.6-41.5h-52.1m52.1 41.5h-52.1m-41.3 8.3l20.7 20.7 20.8 20.7"/><path class="st3" d="M318.7 211.9l-20.8 20.7-20.7 20.7m93.6-41.4h-52.1m52.1 41.4h-52.1m-41.5 8.3l20.7 20.8 20.8 20.7m0-41.5l-20.8 20.8-20.7 20.7m93.6-41.5h-52.1m52.1 41.5h-52.1m-41.5 8.3l20.7 20.7 20.8 20.8m0-41.5l-20.8 20.7-20.7 20.8m93.6-41.5h-52.1m52.1 41.5h-52.1m520.5-190.8h-52.1m52.1 41.5h-52.1m52.3-41.5l20.7 20.7 20.8 20.8"/><path class="st3" d="M880.9 162.1l-20.8 20.7-20.7 20.8m93.5-41.5h-52m52 41.5h-52m52.2-41.5l20.7 20.7 20.8 20.8"/><path class="st3" d="M974.6 162.1l-20.8 20.7-20.7 20.8"/><path class="st4" d="M204.9 66.7V357"/><path class="st3" d="M89.6 162.1l20.7 20.7 20.7 20.8"/><path class="st3" d="M131 162.1l-20.7 20.7-20.7 20.8m93.5-41.5H131m52.1 41.5H131m52.3-41.5l20.7 20.7.9.9 19.9 19.9m0-41.5L204.9 182l-.9.8-20.7 20.8m93.6-41.5h-52.1m52.1 41.5h-52.1m-135.1 8.3l20.8 20.7 20.7 20.7"/><path class="st3" d="M131.2 211.9l-20.7 20.7-20.8 20.7m93.6-41.4h-52.1m52.1 41.4h-52.1m52.3-41.4l20.7 20.7.7.7 20 20m0-41.4l-20 20-.7.7-20.7 20.7m93.5-41.4h-52.1m52.1 41.4h-52.1m-135.2 8.3l20.8 20.8 20.7 20.7"/><path class="st3" d="M131.2 261.6l-20.7 20.8-20.8 20.7m93.6-41.5h-52.1m52.1 41.5h-52.1m52.3-41.5l20.7 20.8.7.7 20 20"/><path class="st3" d="M224.9 261.6l-20 20.1-.7.7-20.7 20.7m93.5-41.5h-52.1m52.1 41.5h-52.1m-135.2 8.3l20.8 20.7 20.7 20.8"/><path class="st3" d="M131.2 311.4l-20.7 20.7-20.8 20.8m93.6-41.5h-52.1m52.1 41.5h-52.1m52.3-41.5l20.7 20.7.7.7 20 20.1"/><path class="st3" d="M224.9 311.4l-20 20.1-.7.6-20.7 20.8m93.5-41.5h-52.1m52.1 41.5h-52.1"/><path class="st5" d="M313.5 170.4h58.1v24.9h-58.1v-24.9z"/><text transform="translate(330.85 186.35)" class="st6 st7">Bit 2</text><path class="st5" d="M406.9 170.4H465v24.9h-58.1v-24.9z"/><text transform="translate(424.159 186.35)" class="st6 st7">Bit 1</text><path class="st5" d="M500.2 170.4h58.1v24.9h-58.1v-24.9z"/><text transform="translate(517.468 186.35)" class="st6 st7">Bit 0</text><path class="st5" d="M595.6 170.4h58.1v24.9h-58.1v-24.9z"/><text transform="translate(612.53 186.35)" class="st6 st7">FVal</text><path class="st5" d="M782.1 170.4h58.1v24.9h-58.1v-24.9z"/><text transform="translate(788.732 179.329)" class="st6 st7">Output 1</text><text transform="translate(791.335 193.373)" class="st6 st7">(</text><text transform="translate(795.233 193.373)" class="st6 st7">Line 2)</text><path class="st5" d="M691 170.4h58.1v24.9H691v-24.9z"/><text transform="translate(708.235 186.35)" class="st6 st7">LVal</text><path class="st5" d="M875.5 170.4h58.1v24.9h-58.1v-24.9z"/><text transform="translate(882.041 179.329)" class="st6 st7">Output 0</text><text transform="translate(884.646 193.373)" class="st6 st7">(</text><text transform="translate(888.543 193.373)" class="st6 st7">Line 1)</text><path class="st5" d="M12.4 172.4h58.1v24.9H12.4v-24.9z"/><text transform="translate(32.536 189.302)" class="st6 st8">X0</text><path class="st5" d="M313.7 220.1h58.1V245h-58.1v-24.9z"/><text transform="translate(331.004 236.116)" class="st6 st7">Bit 9</text><path class="st5" d="M407 220.1h58.1V245H407v-24.9z"/><text transform="translate(424.314 236.116)" class="st6 st7">Bit 8</text><path class="st5" d="M500.3 220.1h58.1V245h-58.1v-24.9z"/><text transform="translate(517.624 236.116)" class="st6 st7">Bit 7</text><path class="st5" d="M595.7 220.1h58.1V245h-58.1v-24.9z"/><text transform="translate(613.006 236.116)" class="st6 st7">Bit 6</text><path class="st5" d="M782.3 220.1h58.1V245h-58.1v-24.9z"/><text transform="translate(799.625 236.116)" class="st6 st7">Bit 4</text><path class="st5" d="M689 220.1h58.1V245H689v-24.9z"/><text transform="translate(706.316 236.116)" class="st6 st7">Bit 5</text><path class="st5" d="M875.6 220.1h58.1V245h-58.1v-24.9z"/><text transform="translate(892.936 236.116)" class="st6 st7">Bit 3</text><path class="st5" d="M12.4 222.3h58.1v24.9H12.4v-24.9z"/><text transform="translate(32.536 239.067)" class="st6 st8">X1</text><path class="st5" d="M313.7 270h58.1v24.9h-58.1V270z"/><text transform="translate(327.742 285.881)" class="st6 st7">Bit 16</text><path class="st5" d="M407 270h58.1v24.9H407V270z"/><text transform="translate(421.052 285.881)" class="st6 st7">Bit 15</text><path class="st5" d="M500.3 270h58.1v24.9h-58.1V270z"/><text transform="translate(514.363 285.881)" class="st6 st7">Bit 14</text><path class="st5" d="M595.7 270h58.1v24.9h-58.1V270z"/><text transform="translate(609.743 285.881)" class="st6 st7">Bit 13</text><path class="st5" d="M782.3 270h58.1v24.9h-58.1V270z"/><text transform="translate(796.362 285.881)" class="st6 st7">Bit 11</text><path class="st5" d="M689 270h58.1v24.9H689V270z"/><text transform="translate(703.054 285.881)" class="st6 st7">Bit 12</text><path class="st5" d="M875.6 270h58.1v24.9h-58.1V270z"/><text transform="translate(889.673 285.881)" class="st6 st7">Bit 10</text><path class="st5" d="M12.4 272h58.1v24.9H12.4V272z"/><text transform="translate(32.536 288.832)" class="st6 st8">X2</text><path class="st5" d="M313.7 319.7h58.1v24.9h-58.1v-24.9z"/><text transform="translate(327.742 335.646)" class="st6 st7">Bit 23</text><path class="st5" d="M407 319.7h58.1v24.9H407v-24.9z"/><text transform="translate(421.052 335.646)" class="st6 st7">Bit 22</text><path class="st5" d="M500.3 319.7h58.1v24.9h-58.1v-24.9z"/><text transform="translate(514.363 335.646)" class="st6 st7">Bit 21</text><path class="st5" d="M595.7 319.7h58.1v24.9h-58.1v-24.9z"/><text transform="translate(609.743 335.646)" class="st6 st7">Bit 20</text><path class="st5" d="M782.3 319.7h58.1v24.9h-58.1v-24.9z"/><text transform="translate(796.362 335.646)" class="st6 st7">Bit 18</text><path class="st5" d="M689 319.7h58.1v24.9H689v-24.9z"/><text transform="translate(703.054 335.646)" class="st6 st7">Bit 19</text><path class="st5" d="M875.6 319.7h58.1v24.9h-58.1v-24.9z"/><text transform="translate(889.673 335.646)" class="st6 st7">Bit 17</text><path class="st5" d="M12.4 321.8h58.1v24.9H12.4v-24.9z"/><text transform="translate(32.536 338.6)" class="st6 st8">X3</text><path class="st3" d="M766.3 149.7H485.1"/><path d="M-4653.6-394.2l46-139.1 46 139.1h-92"/><path class="st3" d="M766.3 108.2h208.6m-16.5-74.7h16.5m-489.7 74.7v41.5m.1-41.6H277.1"/><text transform="translate(17.258 133.316)" class="st6 st8">WordClk</text><path class="st3" d="M659.1 447.5h-98.2m195.2-62h-97"/><path d="M-5118 805l46-139.2 46 139.2h-92"/><path class="st9" d="M605.1 383v182.8"/><path class="st10" d="M659 383v182.8"/><path class="st5" d="M618.9 454h76.2v21.7h-76.2V454z"/><text transform="translate(640.525 470.998)" class="st6 st11">t</text><text transform="translate(646.216 470.998)" class="st6 st12">WDV</text><path class="st4" d="M110.3 66.7V357M766.4 66.7V357"/><path d="M5900.1 624.6l37.4 37.4-37.4 37.4v-74.8M-230-702.3l37.4 37.4-37.4 37.4v-74.8"/><text transform="translate(402.893 71.998)" class="st6 st13">T</text><text transform="translate(413.617 71.998)" class="st6 st12">WordClk</text><path d="M1127.4 1195.8l37.4 37.4-37.4 37.4v-74.8M-229.2-1272.6l37.4 37.4-37.4 37.4v-74.8"/><path class="st5" d="M127.1 128.9h60.1v14.5h-60.1v-14.5z"/><text transform="translate(140.357 141.461)" class="st6 st13">T</text><text transform="translate(151.08 141.461)" class="st6 st12">BitClk</text><text transform="translate(87.143 413.923)" class="st6 st13">Name</text><text transform="translate(273.756 413.923)" class="st6 st13">Min</text><text transform="translate(335.963 413.923)" class="st6 st13">Max</text><text transform="translate(24.937 434.99)" class="st6 st13">t</text><text transform="translate(29.814 434.99)" class="st6 st12">WDV</text><text transform="translate(50.293 434.99)" class="st6 st8">*</text><text transform="translate(87.138 434.99)" class="st6 st14">Time WordClk to DataValid</text><text transform="translate(272.052 434.99)" class="st6 st14">-</text><text transform="translate(276.437 434.99)" class="st6 st14">300</text><text transform="translate(302.064 434.99)" class="st6 st14">ps</text><text transform="translate(334.258 434.99)" class="st6 st14">300</text><text transform="translate(359.886 434.99)" class="st6 st14">ps</text><text transform="translate(24.937 456.058)" class="st6 st13">t</text><text transform="translate(29.814 456.058)" class="st6 st12">DV</text><text transform="translate(42.008 456.058)" class="st6 st8">*</text><text transform="translate(87.136 456.058)" class="st6 st14">Time DataValid</text><text transform="translate(272.286 456.058)" class="st6 st14">1100</text><text transform="translate(304.259 456.058)" class="st6 st14">ps</text><text transform="translate(333.518 456.058)" class="st6 st14">6542</text><text transform="translate(366.468 456.058)" class="st6 st14">ps</text><text transform="translate(24.937 477.125)" class="st6 st13">T</text><text transform="translate(35.66 477.125)" class="st6 st12">BitClk</text><text transform="translate(87.142 477.125)" class="st6 st14">Period of BitClock</text><text transform="translate(335.97 477.125)" class="st6 st14">1</text><text transform="translate(343.292 477.125)" class="st6 st14">/</text><text transform="translate(346.95 477.125)" class="st6 st14">7</text><text transform="translate(357.93 477.125)" class="st6 st14">T</text><text transform="translate(365.974 477.125)" class="st6 st12">WordClk</text><path class="st5" d="M483.4 505.5h86.8v37.2h-86.8v-37.2z"/><text transform="translate(514.478 515.273)" class="st6 st8">X0</text><text transform="translate(517.397 530.634)" class="st6 st8">...</text><text transform="translate(514.478 551.116)" class="st6 st8">X3</text><text transform="translate(498.247 423.073)" class="st6 st8">WordClk</text><path class="st5" d="M594 477.6h76.2v21.7H594v-21.7z"/><text transform="translate(614.174 491.916)" class="st6 st7">-300ps</text><path class="st5" d="M643.9 477.6h76.2v21.7h-76.2v-21.7z"/><text transform="translate(666.027 491.916)" class="st6 st7">300ps</text><path class="st0" d="M862.5 525.6l-54.1 31v-.1h-95.1v.1l-54.1-31 54.1-31h95.1l54.1 31z"/><path class="st3" d="M605.1 494.6h-47.4m47.4 61.9h-47.4m47.4-61.9l54.1 31 54.1 31m0-62l-54.1 31-54.1 31m155.6-62h-47.4m47.4 61.9h-47.4m95.1-61.9H761m47.4 61.9H761m47.4-61.9l54.1 31 54 31"/><path class="st3" d="M916.5 494.6l-54 31-54.1 31m155.6-62h-47.4m47.4 61.9h-47.4"/><path class="st9" d="M808.1 382.7v182.8m109.1-182.8v182.8"/><path class="st10" d="M862.6 382.7v182.8"/><text transform="translate(843.973 470.685)" class="st6 st11">t</text><text transform="translate(849.663 470.685)" class="st6 st12">WDV</text><path class="st3" d="M966.8 385.5H756"/><text transform="translate(558.243 530.66)" class="st6 st7">Bit x+1</text><path class="st5" d="M716.4 509.2h86.8v37.2h-86.8v-37.2z"/><text transform="translate(748.375 531.28)" class="st6 st7">Bit x</text><path d="M6715.3 3561.4l37.4 37.4-37.4 37.4v-74.8M-4892.3-3637.3l37.4 37.4-37.4 37.4v-74.8"/><path class="st5" d="M715.7 400h89.9v21.7h-89.9V400z"/><text transform="translate(743.863 416.197)" class="st6 st13">T</text><text transform="translate(754.587 416.197)" class="st6 st12">BitClk</text><path d="M5438.6 4032.3l37.4 37.4-37.4 37.4v-74.8M-4435-4107.4l37.4 37.4-37.4 37.4v-74.8M7170.9 4032.3l37.4 37.4-37.4 37.4v-74.8M-6160.5-4108.2l37.4 37.4-37.4 37.4v-74.8"/><path class="st5" d="M898.6 507.9h86.8v37.2h-86.8v-37.2z"/><text transform="translate(925.386 530.041)" class="st6 st7">Bit x-1</text><path class="st5" d="M126.1 170.4h63v24.9h-63v-24.9z"/><text transform="translate(135.15 179.329)" class="st6 st7">Output 1</text><text transform="translate(137.754 193.373)" class="st6 st7">(</text><text transform="translate(141.651 193.373)" class="st6 st7">Line 2)</text><path class="st5" d="M219.4 170.4h58.1v24.9h-58.1v-24.9z"/><text transform="translate(225.973 179.329)" class="st6 st7">Output 0</text><text transform="translate(228.576 193.373)" class="st6 st7">(</text><text transform="translate(232.474 193.373)" class="st6 st7">Line 1)</text><path class="st5" d="M126.3 220.1h58.1V245h-58.1v-24.9z"/><text transform="translate(143.556 236.116)" class="st6 st7">Bit 4</text><path class="st5" d="M219.6 220.1h58.1V245h-58.1v-24.9z"/><text transform="translate(236.865 236.116)" class="st6 st7">Bit 3</text><path class="st5" d="M126.3 270h58.1v24.9h-58.1V270z"/><text transform="translate(140.294 285.881)" class="st6 st7">Bit 11</text><path class="st5" d="M219.6 270h58.1v24.9h-58.1V270z"/><text transform="translate(233.603 285.881)" class="st6 st7">Bit 10</text><path class="st5" d="M126.3 319.7h58.1v24.9h-58.1v-24.9z"/><text transform="translate(140.294 335.646)" class="st6 st7">Bit 18</text><path class="st5" d="M219.6 319.7h58.1v24.9h-58.1v-24.9z"/><text transform="translate(233.603 335.646)" class="st6 st7">Bit 17</text><path d="M-7489.4-394.2l46-139.1 46 139.1h-92"/><path class="st3" d="M110.3 108.2H277m-166.7 41.5H89.6"/><path d="M297.8 25.3v327.6M954.2 25.3v327.2" fill="none" stroke="#000" stroke-width=".75" stroke-linecap="round" stroke-linejoin="round" stroke-miterlimit="3" stroke-dasharray="5.25,3.75"/><path d="M2000.1-5092l25.5 25.5-25.5 25.5v-51M5147.7 6468l25.5 25.5-25.5 25.5v-51M-212.9-5092l25.5 25.5-25.5 25.5v-51m-65.5 11560l25.5 25.5-25.5 25.5v-51"/><text transform="translate(137.031 26.685)" class="st6 st16">Clock cycle n+1</text><text transform="translate(579.343 26.685)" class="st6 st16">Clock cycle n</text><path d="M6241.9 4031.4l37.4 37.4-37.4 37.4v-74.8m-11600-8139.6l37.4 37.4-37.4 37.4v-74.8"/><text transform="translate(751.713 469.87)" class="st6 st11">t</text><text transform="translate(757.403 469.87)" class="st6 st12">DV</text><text transform="translate(310.123 142.658)" class="st6 st8">MSB</text><text transform="translate(912.433 142.658)" class="st6 st8">LSB</text><path class="st9" d="M713.5 383v182.8"/><path class="st17" d="M860.7 422.1H660.6m51.3 55.8l-103.7-.2m306.7.2l-103.7-.2m-4.8.1l-89.5.1M659 396.3v50.9m107.4-327.9v30.4m-2.5-72.6H112.6m90.5 67.2h-89.8m-3-26.2v30.4"/><text transform="translate(24.936 513.81)" class="st6 st8">* Actual t</text><text transform="translate(84.836 513.81)" class="st6 st12">WDV</text><text transform="translate(103.936 513.81)" class="st6 st8">and t</text><text transform="translate(140.236 513.81)" class="st6 st12">DV</text><text transform="translate(151.636 513.81)" class="st6 st8">depend on T</text><text transform="translate(235.836 513.81)" class="st6 st12">BitClk</text><text transform="translate(258.636 513.81)" class="st6 st8">. The values stated are only</text><text transform="translate(24.936 531.41)" class="st6 st8">valid on the camera side. Delays due to cable length, cable skew,</text><text transform="translate(24.936 548.91)" class="st6 st8">and grabber layout are not taken into account.</text><path class="st17" d="M294.8 33.5H89.6m861.3 0H301.7"/><path d="M12.4 372.8h973" fill="none" stroke="#000" stroke-width=".7" stroke-miterlimit="10"/></svg>