<svg version="1.1" id="Layer_1" xmlns="http://www.w3.org/2000/svg" x="0" y="0" viewBox="0 0 500 350" xml:space="preserve"><style>.st3{fill:none;stroke:#1d1d1b;stroke-width:1.117}.st3,.st5,.st6{stroke-miterlimit:3.864}.st5{fill:none;stroke:#00f;stroke-dasharray:12,2,2,2}.st6{stroke:#0f0;stroke-dasharray:2,2}.st6,.st9{fill:none}.st10{fill:#1d1d1b}.st11{font-family:Helvetica,Arial,sans-serif}.st12{font-size:11.6px}.st13{font-size:12px}</style><path d="M68.2 30.4h399.5v258.9H68.2V30.4z" fill="none" stroke="#1d1d1b" stroke-width=".709" stroke-miterlimit="3.864"/><path d="M68.3 55.8H468M68.2 82.1h399.7M68.3 107.9H468M68.2 133.7h399.7M68.3 159.4h399.6M68.3 185.9H468M68.1 211.6h399.7M68.3 237.4H468M68.2 263.1h399.7M134.7 30.3v259.2m66.8-259v259.1m66.9-259.3v259.1m66.1-259.1v259.1m66.7-258.9v259.2" fill="none" stroke="#1d1d1b" stroke-width=".227" stroke-miterlimit="3.864"/><path d="M344.9 125.1h114.7v67.3H344.9v-67.3z" fill-rule="evenodd" clip-rule="evenodd" fill="#1d1d1b"/><path class="st3" d="M344.9 125.1h114.7v67.3H344.9v-67.3z"/><path d="M341.5 121.9h114.7v67.3H341.5v-67.3z" fill-rule="evenodd" clip-rule="evenodd" fill="#fff"/><path class="st3" d="M341.5 121.9h114.7v67.3H341.5v-67.3z"/><path class="st5" d="M351.8 136.2h41.4"/><path class="st6" d="M351.8 157.5h41.4"/><path d="M351.8 178.9h41.4" fill="none" stroke="red" stroke-miterlimit="3.864" stroke-dasharray="72"/><path class="st5" d="M67.8 228.2l2.4-5.7 2.5-5.4 8.9-17.5 4.6-9.4 7-18.4 7.3-20.2 6.2-16.5 4.8-13.2 3.5-9.4 3.8-9.2 3.5-8.4 3.5-7.2 4.3-7.9 4.4-5.6 5.1-4.3 3.8-1.9h5.9l4.8 1.9 5.4 3.5 6 5.6 4.3 6 7.3 13.2 8.3 17 6 12.9 8.9 23.2 3.2 10 4.9 14.8 3.2 12.2 5.1 15.1 3.8 11 5.1 12.7 3.3 8.4 4 9.2 4.9 9.7 3.7 5.4 5.7 7 5.4 4.8 6.2 4.6 6.5 4.1 6.7 2.9 4.9 1.4 5.9.8 6.2.8 5.7 1.9"/><path class="st6" d="M68.1 284.4l7.5-.3 10.3-1.3 10-2 8.6-3.2 9-3.7 8.9-4.5 6.1-4.7 5.9-5.5 6.8-7 5.2-6.5 3.8-6.6 4.2-8 1.9-3.2 3.5-5.3 10-13.3 5.2-8.3 5.3-8.6 4.3-8.9 3.6-8.5 3.5-9.6 2.9-7.9 4.1-14.3 2.7-9.1 2.2-6.7 3.1-8.7 2.3-7.6 1.8-6.2 2.7-7.8 4-10.5 3.5-9.7 3.5-8.7 3.6-8.3 3-5.4 3.8-4.9 4.5-3.8 3.6-2.1 2.4-1.4 4-.2 4 .8 3.9 1.1 3.9 1.6 3.1 2.4 4.3 5.2 4.5 6.9 5.9 10.6 6 12.4 5.1 11.3 5.6 13.4 5.2 13.3 3.8 10.6 7.9 23.7 6.4 18.4 5.9 17.2 6.3 20.2 4.2 12.7 4.7 12.1 3.4 6.5 3.9 7.5 5 8.4 4.6 5.9 4.8 4.6 4.7 3.3 5.7 2.9 5.8 2.2 7.3 1.9 7 1 12.2.3h11.4l5.6-1 6-1.4 6.1-2.1 7-2.7 6.8-3 6.2-3.2 4-2.2 4.4-2.4 3.4-2.1 2-1.2"/><path d="M68.1 286l6.4.5 20.7.6 17.3.8h10l11.8-.6 6.9-1 3.1-.5 3.2 1.1 3.7 1 4.9.8 23-.6 14.8-.8 5.9-.8 3.5-.9 7.7-2 7.1-2.4 5.9-1.6 6.5-1.2 6.6-.5 6.2.2 7 1.1 6.9 1.4 5.1.8h6.3l3.1-1.2 4-3.5 4.1-4.7 3.9-6.7 3.8-9.9 3.9-15.8 3.3-16.2 3.4-17.5 2-14.3 3.3-23.8 2.5-16.8 2.4-14.3 2.6-14.5 3.7-17.9 3.3-16.1 3.4-13 3.2-11.2 4.2-11.4 4.4-7.5 5.5-7.1 4.7-3.7 4.9-1.8 5.9-.8 8.7-.4 3.3 1.2 4.4 3.1 4.6 5 12.2 12.6 5 3.9 7.6 3.7 3.4 1.2 4.1 2.6 6.2 6.2 2.1 2.1h2.5l3 2.5 6.1 6.6 6.6 6.2 7.3 5.8 13.6 7.1 6.1 3.2 4.9 3.1 1.9 1" fill="none" stroke="red" stroke-miterlimit="3.864"/><path class="st9" d="M58.6 294.5h419.8v13.1H58.6v-13.1z"/><text transform="translate(58.647 306.776)" class="st10 st11 st12">400 450 500 550 600 650 700</text><path class="st9" d="M46.8 25.2H63v271.2H46.8V25.2z"/><text transform="translate(46.757 37.413)" class="st10 st11 st12">1.0</text><text transform="translate(46.757 63.213)" class="st10 st11 st12">0.9</text><text transform="translate(46.757 89.013)" class="st10 st11 st12">0.8</text><text transform="translate(46.757 114.813)" class="st10 st11 st12">0.7</text><text transform="translate(46.757 140.613)" class="st10 st11 st12">0.6</text><text transform="translate(46.757 166.513)" class="st10 st11 st12">0.5</text><text transform="translate(46.757 192.313)" class="st10 st11 st12">0.4</text><text transform="translate(46.757 218.113)" class="st10 st11 st12">0.3</text><text transform="translate(46.757 243.913)" class="st10 st11 st12">0.2</text><text transform="translate(46.757 269.713)" class="st10 st11 st12">0.1</text><text transform="translate(46.757 295.513)" class="st10 st11 st12">0.0</text><text transform="translate(228.19 324.83)" class="st11 st13">Wavelength (nm)</text><text transform="translate(403.543 139.712)" class="st10 st11 st13">Blue</text><text transform="translate(403.543 160.009)" class="st10 st11 st13">Green</text><text transform="rotate(-90 122.486 94.397)" class="st10 st11 st13">Relative Response</text><text transform="translate(403.543 181.76)" class="st10 st11 st13">Red</text></svg>