<svg version="1.0" xmlns="http://www.w3.org/2000/svg" viewBox="0 0 490 120"><g fill="none" stroke="#000" stroke-width=".6" stroke-linecap="round" stroke-linejoin="round" stroke-miterlimit="10"><path d="M117.3 98.5l.1.1.1.1V41l-.1-.1-.1-.1m.5-.7l-.1-.1h-.1v-.1"/><path d="M117.5 41v-.2l.1-.2v-.3l.2-.2m2.1-3.7h-.2 0m-1.9 3.7l2.1-3.7m.6-.7h-.2m-.4.7l.1-.2.2-.2.2-.1.1-.2m50-28.8h-.2m-49.8 28.8l50-28.8.3-.2h.3l.3-.1.2.1h.2M118 100l-.2-.2-.1-.2-.1-.3-.1-.3v-.3m-.2-.2V40.8m.3-.9l-.1.3-.1.2v.2l-.1.2m.3-.9l2.1-3.5m.6-.7l-.2.1-.2.2-.1.2-.1.2"/><path d="M120.3 35.7l50-28.8.1-.2h.2l.2-.1h.6l.2.1h.2M118 100l-.2-.2-.1-.1-.1-.2-.1-.2-.1-.2v-.4l-.1-.2M135.4 44l-14.9-8.3m-.6.7l14.8 8.4m0 0l.1-.3.2-.2.2-.2.2-.1m-3 4.8l-14.6-8.7m-.3.9l14.6 8.7m.3-.9l-.1.2-.1.3-.1.2v.2m3.3 56.5h.3l.3-.1m50.2-86.9l-.1-.3-.1-.3m-53.9 31.1l1.4.8m36.6-23v.1m-11.5 67.3l-.1-.1m-21.7-50l-1.4-.8m-.7.8l1.4.8m-2.4 3.9l-1.3-.7m3-4.8l50.1-28.9m-53.1 33.7l2.3-4m-2.6 62.8V49.7m0 57.9l1.4.8m-.7.7l-.2-.1-.2-.2-.1-.3-.1-.2-.1-.4v-.3m53.4-92.5l1.3.8m-1.3-.8l.3-.2.3-.1h.8l.3.2m-53 94.8l-1.4-.7m55.7-93.4l-1.3-.7m-1.7.1l-15-8.2m-38.4 100.7l-14.6-8.9m54.3-92l15.3 8.2M118 100l14.8 9m.7-17.3l.1.1.1.1v.1h.3l.1-.1h.1m-.1-.1h.1v.1"/><path d="M134.1 91.8v.1h-.2 0l-.1-.1-.1-.2m-.2.1h.1l.1-.1m.5-25.8v.1h-.1m.1-.1h0-.2l-.1.1h-.2 0l-.1.1-.1.1m.2 0h-.2"/><path d="M133.7 66.1h.1l.1-.1v-.1h.2m.1-15.4h-.1l-.2.1h-.2l-.2-.1v15.6m.7-.3V50.5m.2-.6l-.1-.1h-.2l-.2-.2-.2-.1v.3l-.2.2v.5"/><path d="M134.2 50.5l.1-.2v-.2l.1-.2m2.3-3.9l-.1-.2h-.2l-.2-.1-.1-.1-2.4 3.9m.7.4l2.3-3.9m.4-.5v-.2l-.1-.2-.1-.1-.1-.2-.2.2-.2.2-.2.1-.1.3m.6.4l.1-.2.2-.2.1-.1m50.1-28.9v-.2l-.1-.2-.1-.2-.2-.1-50 28.9m.3.7l50.1-28.9m1.9 1h.1l.1-.1v-.1m-.8-1.7h-.2l-.3-.1h-.3l-.2.1h-.3l-.4.2m.4.7l.3-.2.4-.1h.3l.2.1.3.1.2.2.1.3.1.3v.3m0 59.1l.1-.1.1-.1v-.1m-.2-58.8v59.1m-1.9 3.2v.2l-.1.1m2-3.5v.4l-.1.4-.1.4-.2.4-.3.4-.2.4-.3.3-.4.3-.3.2m-51.1 29.5v.2l-.1.1m51.2-29.8l-51.1 29.5m-1.9-1h-.7v.3l.1.3.1.3.1.2.2.2.2.1m1.9-.4l-.3.2-.3.1h-.3l-.3-.1-.2-.1-.2-.2-.2-.3v-.3l-.1-.3m-.7-16.7v16.7m.7 0V91.9m-.6-1.1h-.2v.6l.1.3m.2-.1v-.4l-.1-.4m0-24h-.2v24m.2 0v-24m-.1-.7l-.1.2v.5m.2 0l.1-.3v-.4m.7.6h.2l-.1-.3v-.2l-.1-.2-.2-.2"/><path d="M134.1 65.9l.2.2.1.2v.4m0 24h.2v-24m-.2 0v24m-.2 1.2l.2-.4.1-.3v-.3l.1-.2m-.2 0v.5l-.1.3-.2.3m54.4-76.1l.2.2.2.2.1.2.1.2.1.2v.2l.1.3v59.5l-.1.3v.2l-.1.3-.1.3-.1.3-.1.2-.1.3-.2.2-.2.3-.1.2-.2.2-.3.2-.2.2-.2.1-.2.2-51.1 29.5-.2.1-.2.1-.2.1h-1l-.2-.2m-.6-43l.8-.1m-.8 24.1l.8-.1m4 16.5l18.4-10.6"/><path d="M135 105.2l.1.6v.4l.2.4.2.3.2.3.3.3.3.1.4.1h.4l.4-.1.5-.2.4-.2M135 51.5v53.7m3.4-59.5l-.4.3-.5.3-.4.4-.4.5-.4.5-.3.5-.3.5-.2.6-.2.6-.2.5v.6l-.1.5m35.2-24.2l-31.8 18.4m32.3-18.1v-.2l-.1-.1-.1-.1h-.1l-.2.1m.5.4v-.1m1.1-.5v.4l-.2.2-.1.2-.2.2h-.4l-.1-.1-.1-.1v-.2m1.1-.8v.2m.5-1l-.1.1-.2.2v.2l-.1.1-.1.2m13.2-8.1l-12.7 7.3m16-5.4v-.5l-.1-.4-.1-.4-.2-.3-.3-.3-.3-.2-.3-.2-.4-.1h-.4l-.4.1-.4.2-.4.2m3.3 55.7V20.7M185 80.3l.4-.3.4-.3.4-.4.4-.5.4-.5.3-.5.3-.5.3-.6.2-.6.1-.5.1-.6v-.5m-29.4 20.9L185 80.3m-26.6 14.8v.1l.1.2h.1l.1.1.2-.1m-.5-.4v.1m-.6-.4l.2-.1.1-.1.1.1.1.1.1.1v.2m-1.6 1.6l.1-.1.2-.2.1-.1.1-.2v-.2m-.5.8v-.2l-.1-.1"/><path d="M138.2 106.8l.1.1.1.2v.1m-3.2-2.1l-.1.1h-.1m2.8 1.7l-.3.1-.4.1h-.9l-.3-.2m-.7-55.6l-.1.1-.1.1m3.3-5.6l.1-.1v-.1m31.7-18.2l.1-.1v-.1m-.1.3h.6m-.6-.1v.1m0 .1l.2.1h.3l.1-.1m-.6-.1v.1m1.9-.8v.1l-.2.1m-1.7.6v.2l.1.2.1.1m1.7-1.4h0l-.2.1m.5-.6v-.2m12.6-7.1v-.1l.1-.1m2.9 2h.3l.1-.1m-1.5-2l.2.2.3.2.2.3.1.3.1.3v.4m.6 54.1h0m-3.3 5.8h0m-26.4 14.6l.1.1.1.1.1.1v.2m.2-.8l-.5.3m-.1.1h0l-.1.1m.2-.2h-.1m0-.1v.1l-.1.1m-23.2 10.1v.6l.1.3.1.3.1.2.1.1.1.2.2.1m-.7-1.8V51.3m3.1-5.4l-.3.1-.3.3-.3.2-.3.4-.3.3-.2.3-.3.4-.2.3-.2.4-.2.4-.2.4-.1.4-.1.4-.1.4v.7m3.1-5.4l31.8-18.4m.1 0h-.1"/><path d="M172 26.9v.3l-.2.2v.3l-.2.2-.2.2-.3.2h-.1l-.2.1h-.1l-.1-.1m1.4-1.5v.1m.3-.6h-.1v.1h-.1l-.1.1v.1h0v.2m.3-.5l12.6-7.3m1.9-.3l-.2-.1h-.9l-.3.1-.2.1-.3.2m-26.4 76h0m0-.2v.2m-.1-.8v.1l.1.2v.3m11.4-67.2l.2.1M166.9 69v-.5m.3-.7l-.6-.4m.6.4l.2.1.1.1v.1l.1.2v.7m.1.1l-.1-.1h0m-.2.3l-.5-.3m.5.3v-.2m0-.5v.5m-.4-1.2l.1.1.1.1.1.2.1.1v.2m-.4-.7l-.7-.3h0m0 .3v-.3m0 .5v-.2m.5.4l-.5-.2m.5.2l.1.1v.1m.5.6l.2-.1m0-.6l-.2.2m-.4-.7l.2-.1m-.6-.4l-.3.2m1.1 1.7l.3-.2m-16.6 12.7l29.6-17.1-3.6-2.1-.9.6m-.7.3l-.3.2m-.6.4l-.3.2m-.6.3l-.4.2m-.6.4l-.3.2m-.7.3l-.3.2m-.7.4l-.3.2m-.6.4l-.3.1m-.7.4l-.3.2m-.6.4l-.4.1m-.6.4l-.3.2m-.7.4l-.3.1m-.6.4l-.3.2m-.7.4l-.3.2m-.7.3l-.3.2m-.6.4l-.3.2m-.7.3l-.3.2m-.6.4l-.3.2m-.7.4l-.3.1m-.7.4l-.2.2m-.7.4l-.3.2m-.7.3l-.3.2m-.6.4l-.4.1m-.6.4l-.3.2m-.6.4l-.4.1m-.6.4l-.3.2m-.7.4l-.3.2m-.6.3l-.4.2m-.6.4l-2.1 1.2m3.6 2.1l-3.6-2.1m25.7-13.8l.2-.1m-.2.1l-.5-.3m2.4-.8l-.5-.3m.8.2l-.3.1m-.9.6l-.5-.3m.7.1l-.2.2m-24.1 13.9l.3-.2m-.3.2l-.5-.4m1.5-.2l.2-.1m-.2.1l-.5-.3m1.5-.3l.2-.1m-.2.1l-.6-.3m1.5-.2l.2-.2m-.2.2l-.5-.3m1.5-.3l.2-.1m-.2.1l-.5-.3m1.4-.2l.3-.1m-.3.1l-.5-.3m1.5-.3l.2-.1m-.2.1l-.5-.3m1.5-.2l.2-.2m-.2.2l-.6-.3m1.5-.3l.3-.1m-.3.1l-.5-.3m1.5-.2l.2-.2m-.2.2l-.6-.3m1.6-.3l.2-.1m-.2.1l-.6-.3m1.5-.3l.2-.1m-.2.1l-.5-.3m1.5-.2l.2-.2m-.2.2l-.6-.3m1.5-.3l.3-.1m-.3.1l-.5-.3m1.5-.2l.2-.2m-.2.2l-.6-.3m1.6-.3l.2-.1m-.2.1l-.6-.3m1.5-.2l.2-.2m-.2.2l-.5-.3m1.5-.3l.2-.1m-.2.1l-.6-.3m2.5-.8l.2-.1m-.2.1l-.5-.3m1.5-.2l.2-.2m-.2.2l-.6-.3m2.5-.8l.2-.2m-.2.2l-.6-.4"/><path d="M176.3 64.1l-.2.2-.6-.3m-3.3 2.5l.3-.1m-.3.1l-.5-.3m-1.4 1.4l.2-.1m-.2.1l-.5-.3m1.3-1.8l-.7-.3-.2.1m.6.4l-.6-.4m.6.4l.3-.2m0 0l.1.2h.1l.1.2v.2l.1.1m-.7-.5l.1.1.2.1.1.2v.2m.3-.1l-.3.1m6.9 3.6v.2m-28.4 16.1l32.5-18.7m-31.5 18.1l.3.2 1.2-.7-.1-.1m.5-.1l.6-.4h-.1m.5-.2l.6-.3-.1-.1m.4-.1l.6-.4h-.1m.5-.2l.6-.3-.1-.1m.5-.2l.5-.3h-.1m.5-.2l.6-.3-.1-.1m.5-.2l.5-.3h0m.4-.2l.6-.3v-.1m.4-.2l.6-.3-.1-.1m.5-.1l.5-.4h-.1m.5-.2l.6-.3-.1-.1m.5-.1l.5-.4h0m.5-.2l.5-.3-.1-.1m.5-.2l.6-.3h-.1m.5-.2l.5-.3v-.1m.4-.1l.6-.4h-.1m.5-.2l.6-.3-.1-.1m.4-.1l.6-.4h-.1m.5-.2l.6-.4h-.1m.4-.2l.6-.3v-.1m.4-.1l.6-.4h-.1m.5-.2l.6-.3-.1-.1m.4-.2l.6-.2-.1-.1m.5-.2l.6-.3-.1-.1m.5-.2l.5-.3h0m1-.5l-.6.3m.6-.3l-.1-.1m1.1-.5l-.6.4m.6-.4h-.1m1.5-.8l-1.1.6m.9-.8l.2.2M151 85.8v.4m-.6-.4l.6.4-1.3.8m2.4-2.2v.2m.1.1v.7m.2-.2l-.1.1-.1.1m.2-.2v-.9m-.2 1.1l.3-.2m.1-.2l-.1.2h0m.1-.2l-.2.2m.2-.2v-.9m25.8-13.8l-.2.1m0-.7v.7m-.8.4l-.2.1m0-.6v.6m-.7.5l-.3.1m0-.7v.7m-.9.5l.2-.1m-.2-.5v.6m-1 .6l.2-.1m-.2-.5v.6m-.9.6l.2-.2m-.2-.5v.7m-1 .5l.2-.1m-.2-.6v.7m-1 .6l.3-.2m-.3-.5v.7m-.9.5l.2-.1m-.2-.6v.7m-1 .6l.2-.1m-.2-.6v.7m-.9.6l.2-.2m-.2-.5v.7m-1 .5l.2-.1m-.2-.6v.7m-1 .5l.3-.1m-.3-.5v.6m-.9.6l.2-.1m-.2-.6v.7m-1 .6l.2-.2m-.2-.5v.7m-1 .5l.3-.1m-.3-.6v.7m-.9.6l.2-.2m-.2-.5v.7m-1 .5l.2-.1m-.2-.6v.7m-.9.6l.2-.2m-.2-.5v.7m-1 .5l.2-.1m-.2-.5v.6m-1 .6l.3-.2m-.3-.5v.7m-.9.5l.2-.1m-.2-.5v.6m-1 .6l.3-.1m-.3-.6v.7m-.9.6l.2-.2m-.2-.5v.7m-1 .5l.3-.1m-.3-.6v.7m-.9.6l.2-.2m-.2-.5v.7m-1 .5l.2-.1m-.2-.6v.7m-3.3 5.8l-.2.2m.2-2.6V91m0-2.4l30.8-17.8m.7-2.2v3.1m-1.8-2l1.8-1.1m-1.8.7v.4m-1.3.9v.1l-.1.1m.1-1.1v.9l.2-.1v-.9"/><path d="M178.5 70.5v.1l-.1.1m-.8.3v-.9m0 .9l-.1.1-.1.1m0-.1l.2-.1m-.2.1l-.1.2h-.1m-.1-.9v.2m.3.5v-.8m-.8 1.3v-.9m0 .9v.1l-.1.1m-.1-.1l.2-.1m-.2.1l-.1.1-.1.1m0-.9v.2m.2.5v-.9m-1.7 1.9v-.9m0 .9l-.1.1-.1.1m.2-.2l-.2.1-.1.1-.1.1m-.1-.9v.2m.3.5v-.9m-.8.5v.9l-.1.1m-.3-.8v.2m.2.6l-.1.1v.1m.1-1.1v.9m.2-.2l-.2.2m-.7.4v-.9m0 .9l-.1.1-.1.1m.2-.2l-.3.1v.1l-.1.1m-.1-.9v.2m.2.5V73m-.7 1.3v-.9m0 .9v.2h-.1m.1-.2l-.2.2-.1.1-.1.1m0-1v.2m.2.6v-.9m-.8.4v1l-.1.1m-.3-.8v.2m.2.5v.1l-.1.1m.1-1.1v.9m.2-.1l-.2.1m-.7.5v-.9m0 .9h0l-.2.2m.2-.2l-.2.1-.1.1-.1.1m-.1-1v.3m.3.5v-.9m-.8 1.3v-.9m0 .9v.1l-.1.1m.1-.2l-.2.1-.1.1v.2m-.1-1v.2m.2.5v-.9m-.7 1.4v-.9m0 .9l-.1.1-.1.1m.2-.2l-.3.1v.1l-.1.1m-.1-1v.3m.2.5v-.9m-.7 1.3v-.9m0 .9v.1l-.1.1m.1-.2l-.2.1v.2h-.2m0-.9v.2m.2.5v-.8m-.7 1.2v-.8m0 .8l-.1.2-.1.1m.2-.3l-.3.2v.1l-.1.1m-.1-.9v.2m.2.5v-.9m-.7 1.3v-.8m0 .8v.1l-.2.1"/><path d="M165.1 78.2l-.2.1-.1.2-.1.1m-.1-1v.2m.3.5v-.8m-.7.4v.9l-.1.1-.1.1m-.3-.8v.2m.2.5l-.1.1-.1.1m.2-1.1v.9m.3-.1l-.3.1m-.7.4v-.9m0 .9l-.1.2h-.1m.2-.2l-.2.2-.1.1-.1.1m-.1-1v.2m.3.6v-.9m-.8 1.3V79m0 .9l-.1.1-.1.1m.2-.2l-.2.1-.1.1-.1.1m-.1-.9v.2m.3.5v-.9m-.7.4v1h-.1l-.1.1m-.3-.8v.2m.2.6v.1l-.1.1m.1-1.1v.9m.3-.1l-.3.1m-.7.4v-.9m0 .9l-.1.1-.1.1m.2-.2l-.2.2h-.1l-.1.1m-.1-.9v.2m.3.6v-1m-.8 1.4v-.9m0 .9v.1h-.1m.1-.1l-.2.1-.1.1-.1.1m0-1v.3m.2.5v-.9m-.7.4v.9l-.1.1-.1.1m-.3-.8v.2m.3.5l-.1.2h-.1m.2-1v.8m.2-.1l-.2.1m-.8.4v-.8m0 .8l-.1.2v.1m.1-.3l-.2.2-.1.1-.1.1m-.1-1v.3m.3.5v-.9m-.7 1.3v-.8m0 .8l-.1.1-.1.1m.2-.2l-.3.1-.1.2v.1m-.1-1v.2m.2.5v-.9m-.7 1.4v-.9m0 .9l-.1.1v.1m.1-.2l-.3.1v.1l-.1.1m-.1-1v.3m.2.5V83m-.7 1.3v-.8m0 .8l-.1.2h0m.1-.2l-.2.2h-.1v.2m-.1-1v.2m.2.6v-.9m-.7 1.3V84m0 .9l-.1.1-.1.1m.2-.2l-.2.1-.1.1-.1.1m-.1-.9v.2m.3.5v-.9m28.7-7.3h.1v-.2m0 0l-30.7 17.7m-.4.2l.2.1h0l.1-.1.1-.1v-.1m30.7-21.8v4.1m-30.7 13.6l30.7-17.7m-30.7 17.7v4.1m-1.7-.5l1.3.7m-1.2-5.9l1.6 1.6m29.2-19.4l1.5 1.7m-7-1v.2m.2.5v.2h-.1m.1-.2v-.8m.3.7v-.9m0 .9l-.1.1-.1.1m.2-.2l-.3.1m-26.8 22.2l1.8-1m-1.8 1l-2.6-1.5m-.6-2.5v-3.6m.4-4.2l2.1-1.2m28-18.6l-.7-.4m.7.4l.1.1.1.1.1.1v.2l.1.1m0 .6v-.6m0 .7h0V64m5.1 4.6l-.6-.3m-.9-5.4l3.3 1.9m0 9.7v-9.7m-1 7.6v-4.9m-34.7 14.1v-1.9m3.6 3.6l-3.2-1.9m3.2.4v1.5m-5.1 0l2.6 1.5 2.5-1.5m-.7 8.7l-.7-.4m.7.4v1.4m-.7-.9l.7-.5m-.7.5v-6.3m-1.1 8.2v-9.6m21.6-19.5l-.1.1m1.4 1.5v-.2m-.3.2l.3-.2m-.2.4l-.1-.2h0m5.1-2.9l-.3.1m.1.2v-.1l-.1-.1m-1.1-1.2v-.3m.1.5l-.1-.2m.6.5l-.5-.3m.5.3h0v.1m0 .5v-.5m.5.1v.5m-.4-1.2l.2.1.1.1.1.2v.3m-.4-.7l-.6-.4-.1.1m1.1 1l.3-.2m-.4-.6l-.3.1m-.6-.4l.2-.1m-3.5 3.8v-.5m.5.8v-.2m0-.5v.5m-.4-1.2l.1.1.1.1.1.2.1.2v.1m-.4-.7l-.6-.3h-.1m0 .4v-.4m.1.5l-.1-.1m.5.4l-.4-.3m.4.3l.1.1h0m.5.6l.2-.1m0-.5v.5m0-.5l-.2.1m-.2-.8l-.6-.4m.6.4l.2.1.1.1v.2l.1.1v.2m.1.7l-.1-.1v-.1m-1-1.6l-.2.2m.6.3l.2-.1m-2.2 2.3v-.4m.5.7v-.2m0-.5v.5m-.4-1.2l.1.1.1.1.1.2.1.1v.2m-.4-.7l-.6-.3h-.1m0 .4v-.4m.1.5l-.1-.1m.5.4l-.4-.3m.4.3h0l.1.2m.5.5l.2-.1m0-.5v.5m0-.5l-.2.1m-.2-.8l-.6-.4m.6.4l.1.1.1.1.1.2.1.1v.2m0 .7v-.2m-1-1.6l-.2.2m.6.3l.2-.1m2.6-.5v-.4m.5.7h0v-.2m0-.5v.5m-.4-1.1l.1.1.1.1.1.1v.2l.1.1m-.4-.6l-.7-.4-.1.1m0 .3v-.3m.1.5l-.1-.2m.6.4l-.5-.2m.5.2v.1l.1.1m.5.5l.2-.1m0-.5v.5m0-.5l-.2.1m-.2-.8l-.6-.3m.6.3l.1.1.1.1.1.2.1.2v.1m0 .7v-.2m-1-1.5l-.3.1m.7.4l.2-.2m1.9-1.1l-.6-.3m.6.3l.1.1.1.2.1.1.1.1v.7m.1.2l-.1-.1v-.1m-.2-.4l.2-.1m-.2.1v.5m.2-.1l-.2.1m-.2-1.3l-.2.2m0 0l.1.1.1.1.1.1.1.2v.1m-1-1l.2-.1m.4.5l-.6-.4-.2.1m0 .3v-.3m.2.4l-.2-.1m.6.4l-.4-.3m.4.3l.1.1v.1m0 .4v-.4m.5.7v-.2m-1.2-.7l-.6-.4m.6.4l.2.1.1.1.1.1v.9m.1.1h0l-.1-.1m-.2-.4l.2-.2m-.2.2v.5m.2-.1l-.2.1m-.2-1.3l-.2.1m0 0l.2.1v.1l.1.2.1.1v.2m-1-1.1l.2-.1m.4.5l-.6-.4-.1.1m0 .3v-.3m.1.5l-.1-.2m.5.5l-.4-.3m.4.3h.1l.1.1m0 .5v-.5m.5.8l-.1-.1v-.1m-24.5 13.7v-.4m.5.8v-.2h0m0-.5v.5m-.4-1.2l.1.1.1.1.1.1.1.2v.2m-.4-.7l-.6-.4-.1.1m0 .3v-.3m.1.5l-.1-.2m.5.4l-.4-.2m.4.2l.1.1v.1m.5.6l.2-.2m0-.5v.5m0-.5l-.2.2m-.2-.8l-.6-.4m.6.4h.2l.1.2v.1l.1.2v.1m.1.7V79l-.1-.1m-1-1.5l-.2.1m.6.4l.2-.1m.7.6v-.5m.5.8v-.1l-.1-.1m0-.5v.5m-.4-1.1h.2l.1.2.1.1v.3m-.4-.6l-.6-.4h-.1m0 .4V77m.1.5l-.1-.1m.6.4l-.5-.3m.5.3h.1v.1m.4.6l.3-.1m0-.5v.5m0-.5l-.3.1m-.1-.8l-.6-.4m.6.4l.1.1.1.1.1.2.1.1v.2m0 .7v-.2h0m-1-1.6l-.3.2m.6.4l.3-.2m.6.6v-.4m.6.7l-.1-.1h0m0-.6v.6m-.4-1.2l.2.1.1.1v.1l.1.2v.1m-.4-.6l-.6-.4h-.1m0 .4v-.4m.1.6l-.1-.2m.6.4l-.5-.2m.5.2v.2m.5.6l.3-.2m0-.5v.5m0-.5l-.3.1m-.1-.7l-.7-.4m.7.4h.1l.1.2.1.1v.2l.1.1m0 .7v-.2m-1.1-1.5l-.2.1m.6.4l.3-.1m.6.6v-.5m.5.8v-.2m0-.5v.5m-.4-1.2l.1.1.1.1.1.2.1.1v.2m-.4-.7l-.6-.3h-.1m0 .3v-.3m.1.5l-.1-.2m.5.5l-.4-.3m.4.3h.1v.1m.5.6l.2-.1m0-.5v.5m0-.5l-.2.1m-.2-.8l-.6-.4m.6.4l.1.1.1.1.1.1.1.2v.2m0 .6h0v-.1m-1-1.6l-.2.2m.6.3l.2-.1m.7.6v-.4m.5.7l-.1-.1v-.1m0-.4v.4m-.3-1.1h.1l.1.2.1.1v.4m-.3-.7l-.7-.4h-.1m0 .4v-.4m.1.6l-.1-.2m.6.4l-.5-.2m.5.2v.1l.1.1m.4.5l.3-.1m0-.5v.5m0-.5l-.3.2m-.1-.9l-.7-.3m.7.3l.1.1.1.1.1.2.1.1v.2m0 .7v-.2m-1.1-1.5l-.2.1m.7.4l.2-.2m.9-.5l-.6-.4m.6.4l.2.1.1.1v.1l.1.2v.6m.1.3l-.1-.2v-.1m-.2.2l.2-.2m0-.4l-.2.1m0 0v.5m-.4-1.2l.2-.1m-.2.1l.1.1.1.1.1.2.1.1v.2m-.8-1.2l-.2.2m.6.3l-.6-.3h-.1m.6 1.4v-.5m-.1-.2l.1.1v.1m-.1-.2l-.4-.2-.1-.2v-.3m1.1 1.7v-.2m.5-.7v-.4m.5.7v-.2m0-.5v.5m-.4-1.2l.1.2.1.1.1.1v.2l.1.1m-.4-.7l-.7-.3-.1.1m0 .3v-.3m.1.5l-.1-.2m.6.4l-.5-.2m.5.2l.1.1v.1m.5.5l.2-.1m0-.5v.5m0-.5l-.2.1m-.2-.8l-.6-.3m.6.3l.1.1.1.2.1.1.1.1v.2m0 .7v-.2m-1-1.5l-.3.1m.7.3l.2-.1m.6.7v-.5m.6.8l-.1-.1v-.1m0-.5v.5m-.4-1.2l.2.1.1.1v.2l.1.1v.2m-.4-.7l-.6-.4-.1.1m0 .3v-.3m.1.5l-.1-.2m.6.5l-.5-.3m.5.3h0v.1m.5.6l.2-.2m0-.5v.5m0-.5l-.2.2m-.1-.9l-.6-.3m.6.3l.1.2.1.1.1.2v.2m.1.7v-.1l-.1-.1m-.9-1.5l-.3.1m.6.4l.3-.2m.6.7v-.4m.5.7v-.2m0-.5v.5m-.4-1.2l.1.2h.1l.1.2.1.2v.1m-.4-.7l-.6-.3h-.1m0 .4v-.4m.1.5l-.1-.1m.5.4l-.4-.3m.4.3l.1.1v.1m.5.5l.2-.1m0-.5v.5m0-.5l-.2.1m-.2-.8l-.6-.3m.6.3l.1.1.1.1.2.2v.3m.1.7l-.1-.1v-.1m-1-1.5l-.2.1m.6.3l.2-.1m.6.7v-.5m.6.8v-.1l-.1-.1m0-.5v.5m-.3-1.2l.1.1.1.1.1.1v.4m-.3-.7l-.7-.4-.1.1m0 .3v-.3m.1.5l-.1-.2m.6.4l-.5-.2m.5.2v.2m.5.6l.3-.2m0-.5v.5m0-.5l-.3.2m-.1-.8l-.6-.4m.6.4l.1.1.1.1.1.1v.2l.1.1m0 .7v-.2m-1-1.5l-.3.1m.7.4l.2-.1m.6.6V73m.6.7l-.1-.1v-.1m0-.5v.5m-.4-1.1h.1l.1.2.1.1.1.2v.1m-.4-.6l-.6-.4h-.1m0 .4V72m.1.5l-.1-.1m.5.4l-.4-.3m.4.3l.1.1v.1m.5.5l.2-.1m0-.5v.5m0-.5l-.2.1m-.2-.8l-.6-.4m.6.4l.2.1.1.1.1.2v.3m.1.7l-.1-.1v-.1m-1-1.6l-.2.2m.6.4l.2-.2m.7.6v-.4m.5.7h0V73m0-.6v.6m-.4-1.2l.1.1.1.1.1.1v.2l.1.1m-.4-.6l-.7-.4-.1.1m0 .3v-.3m.1.5l-.1-.2m.6.4l-.5-.2m.5.2v.1l.1.1m.5.6l.2-.2m0-.5v.5m0-.5l-.2.1m-.2-.7l-.6-.4m.6.4l.1.1.1.1.1.1.1.2v.1m0 .7v-.2m-1-1.5l-.3.1m.7.4l.2-.1m1-.6l-.7-.4m.7.4l.1.1.1.1.1.1v.9m.1.1h0l-.1-.1m-.2.1l.2-.1m0-.5l-.2.1m0 0v.5m-.4-1.2l.3-.1m-.3.1l.1.1.2.1v.2l.1.2v.1m-.8-1.2l-.2.2m.6.3l-.6-.3h-.1m.6 1.4v-.5m0-.1v.1h0m0-.1l-.5-.3-.1-.2v-.3m1.2 1.7l-.1-.1v-.1m.5-.7v-.4m.5.7v-.1h0m0-.6v.6m-.4-1.2h.1l.1.2.1.1.1.2v.1m-.4-.6l-.6-.4-.1.1m0 .3v-.3m.1.5l-.1-.2m.5.4l-.4-.2m.4.2l.1.1v.1m.5.6l.2-.2m0-.5v.5m0-.5l-.2.1m-.2-.8l-.6-.3m.6.3l.1.1.2.1v.2l.1.2v.1m.1.7l-.1-.1v-.1m-1-1.5l-.2.1m.6.4l.2-.2m.6.7v-.5m.6.8v-.1l-.1-.1m0-.5v.5m-.3-1.2l.1.1.1.1.1.2v.3m-.3-.7l-.7-.3h-.1m0 .3v-.3m.1.5l-.1-.2m.6.4l-.5-.2m.5.2v.2h0m.5.6l.3-.1m0-.5v.5m0-.5l-.3.1m-.1-.8l-.7-.4m.7.4l.1.1.1.1.1.1v.2l.1.2m0 .6v-.1h0m-1.1-1.6l-.2.2m.7.3l.2-.1m.6.6v-.4m.6.7l-.1-.1v-.1m0-.5v.5m-.4-1.1l.1.1.2.1v.1l.1.2v.1m-.4-.6l-.6-.4-.1.1m0 .3v-.3m.1.5l-.1-.2m.5.4l-.4-.2m.4.2l.1.1v.1m.5.5l.2-.1m0-.5v.5m0-.5l-.2.1m-.1-.7l-.7-.4m.7.4h.1l.1.2.1.1v.3m.1.7l-.1-.1v-.1m-1-1.5l-.2.1m.6.4l.3-.1m.6.6v-.5m.5.8v-.2m0-.5v.5m-.4-1.2l.1.1.1.1.1.2v.1l.1.2m-.4-.7l-.7-.4v.1m0 .3v-.3m0 .5V69m.5.5l-.5-.3m.5.3h0l.1.1m.5.6l.2-.1m0-.6v.6m0-.6l-.2.2m-.2-.8l-.6-.4m.6.4l.1.1.1.1.1.1.1.2v.1m0 .7v-.1h0m-1-1.6l-.3.1m.7.4l.2-.1m1-.6l-.7-.3m.7.3l.1.1.1.2.1.1v.1l.1.2v.5m0 .2v-.2m-.3.1l.3-.1m0-.5l-.3.1m0 0v.5m-.3-1.2l.2-.1m-.2.1v.2l.2.1v.1l.1.2v.1m-.8-1.1l-.2.1m.7.3l-.7-.3h-.1m.6 1.4v-.4m-.1-.2l.1.1v.1m-.1-.2l-.4-.3-.1-.1v-.4m1.2 1.7l-.1-.1v-.1m1.5-1.2V68m.5.7v-.1l-.1-.1m0-.5v.5m-.3-1.1h.1l.1.2v.1l.1.2v.1m-.3-.6l-.7-.4h-.1m0 .4V67m.1.6l-.1-.2m.6.4l-.5-.2m.5.2v.1l.1.1m.4.5l.3-.1m0-.5v.5m0-.5l-.3.1m-.1-.8l-.6-.3m.6.3l.1.1.1.1.1.2.1.1v.2m0 .7v-.2m-1-1.5l-.3.1m.7.4l.2-.2m.6.7v-.5m.6.8l-.1-.1V68m0-.6v.6m-.4-1.2l.2.1.1.1v.2l.1.1v.1m-.4-.6l-.6-.4-.1.1m0 .3v-.3m.1.5l-.1-.2m.5.4l-.4-.2m.4.2l.1.1v.1m.5.6l.2-.2m0-.4v.4m0-.4h-.2m-.1-.7l-.7-.4m.7.4h.1l.1.2.1.1v.4m.1.6l-.1-.1v-.1m-1-1.5l-.2.1m.6.4l.3-.1m1.5 0v-.4m.5 0v.6m-1.1-1.2v-.3m.1.5l-.1-.2m.5.4l-.4-.2m.4.2l.1.1v.1m.8-.1v.5m9.2-2v1.6m2.5 8.2l-1 .5m1-10.2l-2.5 1.5m-.8-3.4l-1.2.7m3.4 13.2l-30.7 17.8m-13.9-33.1v5.2m1.3-6l-1.3.8m38-30.8v.1m.1-.1h-.1M164 34.2v1.7m3-3.4l-3 1.7m-19.1 35.5l-.7.4m27.5-23.9v.1m-22.5 14.2v3.3m1.5-4.1l-1.5.8m-10.9-1.7v1.7m2.9-3.4l-2.9 1.7m37.2-31.5v3.4m1.4-4.2l-1.4.8m-6 32.2v.4m5.4-3.5l-5.4 3.1m-17.2-18.1v1.7m2.9-3.4l-2.9 1.7M138 88.3v3.4m.3-3.6l-.3.2m14.2-18.8v.9m5.3-4.1l-5.3 3.2m-14.5 3.1v5.9m4.4-8.5l-.5.3m-3.7 2.1l-.2.2m2.7-12.4v.4m3.3-2.3l-3.3 1.9m23-20.5v6.9m11.1-16.3L168 34m-3.5 2.1l-.9.5m-14.7 14.8v5.1m.5-5.4l-.5.3m13.7-15.8l-1.3.8m13.4-8.2h-.3l-.2.1-.3.1-.1.2-.2.3-.1.2-.1.3v.4l.1.2.1.1m.9 51.1v1.7m8-24.1l-1.6 1v3.4m-43 29v3.7m.4-4l-.4.3m0-10.1v1.7m.1-1.8l-.1.1m6.5-5.7v1.2m1.5-4.3l-.2.1m-1.3-15.6v.9m2.3-2.5l-1.3.7m-7.5 23.4V82m3-3.4l-3 1.7m0 3.9v3.7m5.3-6.7l-1.3.7m-3.6 2.1l-.4.2m6.9-32.5v3.5m3.8-6.4l-3.6 2.1m6.8-6.6v.5m3.2-2.4l-3.2 1.9m-14.3 22.8v5.1m.4-5.3l-.4.2m8.7 6.1v.2m5.3-3.4l-4.1 2.3m10.6-6.2v.4m5.3-3.5l-5.3 3.1m5.7-3.3v.4m5.4-3.5l-5.4 3.1m-21.9-6v.7m2.9-2.4l-2.9 1.7m21.3-10.3l-1.5.8v3.3m.7.4v3.3m7.9-7.2v3.3m-25 19.1v.4m1.5-1.2l-1.5.8m15.9-33.2l-1.7.9v3.6m-10.5 4.8v5.2m2.2-6.4l-2.2 1.2m6.9-3.7v1m2.2-2.5l-2 1.1m3.6-.5v.3m.1-.3h-.1m-2.4 54.9l-.1.1-.1.1m.3-.3l-.1.1m2-1.2l-.1-.2-.1-.2-.2-.1-.1-.1-.2.1-.3.1-.2.2-.2.2-.2.2-.2.3-.1.3v.3m1.9-1.1h0m.2 0h-.2M183.1 81l-23.7 13.7M188 21.6v1.2m0 3.5v46.2M185.1 20l.4-.2.3-.1.4-.1h.3l.3.1.4.1.2.2.2.2.2.3.1.3.1.4v.4M172.9 27l12.2-7m-12.4 7.2l.1-.1.1-.1m-.3.4l.1-.2m-2 1.2l.1.3.1.1.2.1.1.1.2-.1.3-.1.2-.1.2-.3.2-.2.1-.3.2-.3v-.2m-2 1h.1m-.3 0h.2M139 46.6l31.4-18.2m-34.3 23.2v-.5l.1-.4.1-.5.2-.5.2-.5.3-.5.3-.4.3-.4.3-.4.4-.4.3-.2.4-.3m-2.9 58.2V51.6m2.9 54.9l-.4.2-.3.1-.4.1h-.3l-.3-.1-.3-.1-.3-.2-.2-.2-.2-.3-.1-.4-.1-.4v-.4m20.9-8.7l-13.9 8.1m-3.1 1.7l-1 .6m33.6-79.1l-.6-.4m.7.2l-.7-.4m-1.3 1.6l-1.1-.6m1 .6l-1-.6m.8.6l-.9-.5M139 46.6l-1-.6m-1.9 5.6l-.9-.6m.9 53.8l-.9-.5m24-9.6l-.8-.5M185.1 20l-1-.6M172.9 27l-.9-.5m-35 80.2l-1.8-1m52-85.9l-1.8-1M160.7 45l1.4-.8m-2.3.3l.9.5m0-3.4V45m-1.1-4l1.1.6m1.4-.9l-1.4.9m1.3-.9h.1m0 3.5v-3.5m-4.6 7.2l2.3-1.3m-3.5.5l1.2.8m0-5.2v5.2m-1.5-6.1l1.5.9m2.3-1.3l-2.3 1.3m.5-2.3l1.8 1m0 5.2v-5.2m-9.2 10.5l2.3-1.3m-4 .2l1.7 1.1m0-5.2v5.2m-1.7-6.3l1.7 1.1m2.3-1.3l-2.3 1.3m.5-2.3l1.8 1m0 5.2v-5.2m6.5-8.2l1.3.8m1.6-1l-1.6 1m.4-1.7l1.2.7m0 3.6V37m-1.6 4.5l1.6-.9m-2.9.2l1.3.7m0-3.5v3.5M146 73.3l1.4-.9m-1.7.7l.3.2m0-3.3v3.3m-.8-3.8l.8.5m1.4-.9l-1.4.9m.7-1.3l.7.4m0 3.3v-3.3m23.5-18.2l1.5-.9m-2.2.4l.7.5m0-3.3v3.3m-.7-3.8l.7.5m1.5-.9l-1.5.9m.7-1.3l.8.4m0 3.3v-3.3m-24.9 19l.7-.3v-2.8M162.4 51l.7.4m1.4-.8l-1.4.8m.7-1.2l.7.4m0 3.4v-3.4m-1.4 4.2l1.4-.8m-2.2.3l.8.5m0-3.4v3.4m-1.5-7.5l.8.4m1.4-.8l-1.4.8m.7-1.2l.7.4m0 3.3v-3.3m-1.4 4.1l1.4-.8m-2.2.4l.8.4m0-3.3V51M142 58.6l.5.3m0-1.7v1.7m-.7-2.1l.7.4m2.9-1.6l-2.9 1.6m2.2-2.1l.7.5m0 1.6v-1.6m-2.9 3.3l2.9-1.7m18-14.1v-3.4m-1.3 4.1l1.3-.7m12.4-8.6l.4.2m.1 0h-.1m1.5 2.5v-3.1m-1.5 4l1.5-.9m-1.9.6l.4.3m0-3.4v3.4m-11.8 29l.3.2m0-3.9v3.9m-1-4.5l1 .6m5.4-3.1l-5.4 3.1m4.4-3.7l1 .6m0 3.9v-3.9m-5.4 7l5.4-3.1m-11.5 6.2l.4.2m0-3.9v3.9m-1-4.5l1 .6m5.4-3.1l-5.4 3.1m4.3-3.7l1.1.6m0 3.9v-3.9m-5.4 7l5.4-3.1M151.5 70l2 1.1m0 3.7v-3.7m-5.3 6.7l5.3-3m-6.6 2.3l1.3.7m0-3.6v3.6m-1.9-4.7l1.9 1.1m5.3-3.1l-5.3 3.1m-6.6-4.6l.8.5m0-3.4v3.4m-.8-3.9l.8.5m5.1-3l-5.1 3m4.6-3.4l.5.4m0 3.4v-3.4m-5.1 6.4l5.1-3m-8.2 6.1l2.3-1.2m-4.1.2l1.8 1m0-5.1v5.1m-1.8-6.1l1.8 1m2.3-1.2l-2.3 1.2m1.9-1.4l.4.2m0 5.1v-5.1m11.3-13.1l.8.4m0-3.4v3.4m-.8-3.9l.8.5m5.2-3l-5.2 3m4.6-3.3l.6.3m0 3.4v-3.4m-5.2 6.4l5.2-3m-6-1.4l.1.1m0-4.9v4.9m-1.2-5.6l1.2.7m3.3-1.9L153 45m2-2.6l1.3.7m0 4.9v-4.9m-3.3 6.8l3.3-1.9m-7.7.8l.1.1m0 4.4v-4.4m-3.6 6.5l3.6-2.1m-3.8-1.8v3.7m3.8-6.3L145 51m-1.8 30.2l2.8 1.6m0 3.6v-3.6m-5.3 6.7l5.3-3.1m-8.1 1.5l2.8 1.6m0-3.7v3.7m-2.8-5.3l2.8 1.6m5.3-3l-5.3 3m.2-7.2l1 .7m0 1.6v-1.6m-2.9 3.3l2.9-1.7m-4 1.1l1.1.6m0-1.7v1.7m-1.1-2.3l1.1.6m2.9-1.6l-2.9 1.6m7.2-17.1l2.3-1.3m-3.6.5l1.3.8m0-5.2v5.2m-1.5-6.2l1.5 1m2.3-1.3l-2.3 1.3m.5-2.4l1.8 1.1m0 5.2v-5.2m-3 20.9l1.4-.8m-2.5.2l1.1.6m0-3.5v3.5m-.9-4l.9.5m1.4-.8l-1.4.8m.4-1.4l1 .6m0 3.5v-3.5m-5.1 7l.1.1m0 1.6V81m-2.9 3.4l2.9-1.8m-4 1.2l1.1.6m0-1.7v1.7m-1.1-2.3l1.1.6m2.9-1.7l-2.9 1.7m5.7 7.3l1.3.8m0 3.6v-3.6m-5.3 6.7l5.3-3.1m-8.1 1.5l2.8 1.6m0-3.7v3.7m-2.8-5.3l2.8 1.6m5.3-3l-5.3 3m40.2-34l1.1.6m1.6-.9l-1.6.9m.5-1.6l1.1.7m0 3.5v-3.5m-1.6 4.3l1.6-.8m-2.7.2l1.1.6m0-3.4v3.4m-3.6 17V79m-3.9 4l3.9-2.2m-3.9 2.1v.1m0-1.8V83"/><path d="M175 28.8v-.2l-.1-.2-.1-.1-.2-.1-.2.1-.2.1-.2.2-.2.2-.1.2-.1.3-.1.2v.3l.1.2.1.1.1.1h.2l.2-.1.2-.1"/><path d="M174.4 30l.2-.2.2-.2.1-.3.1-.3v-.2m-.3-.6l.1.1m-1.2 1.8l.1.1m-11.4 10.2l1.3-.8m0-3.4l-1.3.8m.3-1.4l1 .6m0 3.4v-3.4m-12.9 21.4l2.2-1.3m-4 .2l1.8 1.1m0-5.1v5.1m-1.8-6.2l1.8 1.1m2.2-1.3l-2.2 1.3m1.6-1.6l.6.3m0 5.1v-5.1m21.6-20.9l1.3.7m0 12.9V31m-11.1 19.3l11.1-6.4m-12 5.9l.9.5m0-12.9v12.9m-1.1-13.4l1.1.5m11.1-6.4l-11.1 6.4m-23.1 28.3h.1m0-4.8v4.8m-1.3-5.5l1.3.7m3.2-1.9l-3.2 1.9m2-2.6l1.2.7m0 4.9V59m-3.2 6.7l3.2-1.8m-5.7 15.5l5.4-3.1m-6.9 2.2l1.5.9m0-6v6m-1.5-6.8l1.5.8m5.4-3.1l-5.4 3.1m4.1-3.8l1.3.7m0 6v-6m8.6-.2v.9m-1-1.5l1 .6m5.4-3.2l-5.4 3.2m4.3-3.8l1.1.6m0 3.9v-3.9m-5.1 6.9l5.1-3m-13.5 19V87m-5.2 5.8l5.2-3m-7.1 1.9l1.9 1.1m0-3.4v3.4m-1.9-4.5l1.9 1.1m.3-.2l-.3.2m12.4-46.3l.8.4m0-1.7v1.7m-.8-2.1l.8.4m2.9-1.6l-2.9 1.6m2.1-2.1l.8.5m0 1.6v-1.6m-2.9 3.3l2.9-1.7m14.1 21.9l.4.3m0-4v4m-1-4.5l1 .5m5.4-3.1l-5.4 3.1m4.4-3.6l1 .5m0 4v-4m-5.4 7.1l5.4-3.1m.3-29.8l1.5-.9m-2.2.5l.7.4m0-3.3v3.3m-.7-3.8l.7.5m1.5-.9l-1.5.9m.7-1.3l.8.4m0 3.3v-3.3m-36.5 30.2l.8.5m0 1.6v-1.6m-2.9 3.3l2.9-1.7m-3.7 1.3l.8.4m0-1.7v1.7m-.8-2.1l.8.4m2.9-1.6l-2.9 1.6m10.9 5.1l1.5-.8m-2.3.3l.8.5m0-3.3v3.3m-.8-3.8l.8.5m1.5-.8l-1.5.8m.7-1.3l.8.5m0 3.3v-3.3m21-10.2l1.4-.8m-1.5.8h.1m0-3.3V50m-.8-3.8l.8.5m1.4-.9l-1.4.9m.7-1.3l.7.4m0 3.4v-3.4m-29.3 28.3l1.1-.7m0-3.3l-1.1.6m.3-1l.8.4m0 3.3v-3.3M167 32.5l1 .6m0 1.6v-1.6m-2.9 3.3l2.9-1.7m-4 1.2l1.1.5m0-1.6v1.6m-1.1-2.2l1.1.6m2.9-1.7l-2.9 1.7m11.4 0l1.5-.8m-2.2.4l.7.4m0-3.4v3.4m-1-4.1l1 .7m1.5-.9l-1.5.9m1.1-1.1l.4.2m0 3.5v-3.5m-38.7 37.2l2.3-1.2m-4.1.2l1.8 1m0-5.2v5.2m-1.8-6.2l1.8 1m2.3-1.3l-2.3 1.3m.7-2.1l1.6.8m0 5.3v-5.3m3.2-13.8l-.2-.4-.2-.3-.4-.2-.3-.2-.4-.1h-.4l-.4.1-.5.1-.5.2-.4.3-.5.3-.5.4-.4.5-.4.5-.4.5-.4.5-.3.6-.2.6-.2.6-.2.7-.1.5-.1.6v.6l.1.5.1.4.2.4.2.4.2.3.3.2.4.2h.8"/><path d="M142.5 48.1l-.4.2-.5.2-.3.3-.4.4-.4.4-.3.4-.3.5-.3.5-.2.6-.1.5-.1.5-.1.5v.5l.1.4.1.3.2.4.2.2.3.2.3.1.3.1.4-.1.4-.1.4-.1.4-.3.4-.3.4-.4.3-.4.4-.5.3-.4.2-.5.2-.5.2-.6.1-.5.1-.5v-.4l-.1-.4-.1-.4-.2-.3-.2-.3-.3-.2-.3-.1-.4-.1-.3.1-.4.1"/><path d="M142.3 48.8l-.3.2-.4.2-.3.3-.3.3-.4.5-.2.4-.3.4-.2.5-.1.5-.1.4v.8l.1.4.2.3.2.2.2.2.3.1h.3l.3-.1.4-.1.4-.2.3-.3.4-.2.3-.5.3-.3.2-.5.2-.4.2-.5.1-.4.1-.5v-.4l-.1-.4-.1-.3-.2-.3-.2-.2-.3-.1-.3-.1h-.3l-.4.1"/><path d="M139.7 52.8l.1.3.1.3.1.3.2.2.3.1.3.1.3-.1.3-.1.3-.1.4-.3.3-.3.3-.3.3-.4.2-.4.2-.4.1-.5.2-.4V50l-.1-.4-.1-.2-.2-.2-.3-.2-.2-.1h-.7l-.3.2"/><path d="M144.8 47.4l-.1-.3-.1-.2-.2-.2-.2-.1-.2-.2-.1-.1-.3-.1-.2-.1-.2-.1h-1.3l-.5.2-.5.2-.5.3-.4.3-.5.4-.4.4-.4.5-.4.5-.3.5-.3.6-.2.6-.2.5-.2.7-.1.5-.1.6v.6l.1.5.1.5.1.2.1.2.1.3.1.2.2.2.2.1.2.2.2.1.2.1.2.1.3.1h.2l.2.1.3-.1h.4l.3-.1.4-.1.3-.1.3-.2.3-.1.3-.2.3-.2.3-.3.3-.2.2-.3.2-.3.3-.3.2-.2.2-.4.2-.3.2-.3.2-.3.1-.4.1-.3.1-.4.1-.4.1-.3.1-.3v-1.8l-.1-.4-.1-.3-.2-.3m0 49.7l-.2-.4-.2-.3-.3-.2-.4-.2-.4-.1m-3.1 1.3l-.4.5-.4.4-.4.6-.4.5-.3.6-.3.6-.2.6-.2.6-.1.7-.1.5v.6l.1.5.1.5.1.4.3.4.2.2.3.3.4.2h.8"/><path d="M140.7 99.1l-.3.4-.4.5-.2.5-.3.5-.2.5-.1.6-.1.4v1l.1.3.2.4.2.3.2.2.3.1.4.2h.3l.4-.1.4-.2.4-.2.4-.2.4-.4.4-.4.3-.4.3-.5.4-.5.2-.5.2-.5.1-.5.1-.6v-.4l-.1-.4-.1-.5-.1-.3-.2-.3-.3-.2-.3-.2h-.3l-.4-.1-.3.1-.4.2-.4.2-.5.2-.3.4-.4.4"/><path d="M141 99.5l-.4.5-.2.4-.3.4-.2.5-.1.4-.1.5v.8l.1.4.2.3.2.2.2.1.3.2h.3l.3-.1.4-.1.3-.2.4-.2.4-.4.3-.3.3-.4.2-.5.2-.4.2-.5.1-.5.1-.4v-.4l-.1-.4-.1-.3-.2-.3-.2-.2-.3-.1-.3-.1h-.3l-.4.1-.3.2-.4.2-.3.3-.3.3"/><path d="M139.7 102.5l.1.3.1.3.1.3.2.2.3.1.3.1.3-.1.3-.1.3-.2.4-.2.3-.3.3-.3.3-.4.2-.4.2-.5.1-.4.2-.4v-.8l-.1-.4-.1-.3-.2-.2-.3-.1-.2-.1h-.7l-.3.2m3-1.7l-.2-.4-.3-.4-.1-.1-.3-.2-.2-.1-.2-.1"/><path d="M139.7 96.9l-.3.3-.2.3-.3.2-.2.4-.3.3-.2.3-.2.3-.2.4-.2.4-.1.4-.2.3-.1.4-.1.4-.1.3v.4l-.1.4v.7l.1.3v.4l.1.3.1.3.1.3.2.2.2.3.3.2.2.2.3.1.2.1.4.1h1l.3-.1.4-.1.3-.1.3-.2.3-.2.3-.2.3-.2.3-.2.3-.2.2-.3.2-.3.3-.3.2-.3.2-.3.2-.3.2-.3.2-.4.1-.3.1-.3.1-.4.1-.3.1-.4.1-.4v-1.7l-.1-.4-.1-.3-.2-.3m43.1-74.6l-.2-.4-.3-.2-.4-.3-.3-.1-.4-.1h-.8l-.5.2-.5.2-.4.2-.5.4-.4.4-.5.4-.4.5-.4.6-.3.5-.3.6-.3.6-.2.6-.2.6-.1.6-.1.5v.6l.1.5.1.5.2.4.2.3.3.3.3.3.3.1.4.1h.4"/><path d="M184.3 24l-.4.3-.4.5-.3.4-.3.5-.2.5-.3.5-.1.5-.1.5-.1.5.1.5v.4l.1.4.2.3.2.3.3.1.3.2h.7l.4-.1.4-.2.4-.2.4-.4.4-.3.4-.4.3-.5.3-.5.3-.4.2-.6.2-.5v-.5l.1-.5v-.5l-.1-.4-.1-.4-.2-.3-.2-.3-.3-.1-.3-.2h-.7l-.4.1-.4.2-.4.2-.4.4"/><path d="M184.4 24.5l-.3.4-.3.3-.3.5-.3.4-.2.5-.1.4-.1.5-.1.4v.4l.1.4.2.3.1.3.2.2.3.1.3.1.3-.1.4-.1.4-.2.3-.2.4-.3.3-.4.3-.3.3-.5.2-.4.2-.5.1-.5.1-.4V25l-.2-.3-.1-.4-.2-.2-.2-.1-.3-.1-.4-.1-.3.1-.3.2-.4.2-.4.2"/><path d="M182.7 27.9l.1.4.1.3.2.2.2.2.2.1.3.1h.3l.3-.1.3-.2.4-.2.3-.3.4-.4.2-.4.3-.4.1-.4.2-.4.1-.5v-.8l-.1-.3-.1-.3-.2-.2-.2-.2h-.3l-.3-.1-.3.1-.3.2"/><path d="M187.9 22.5l-.2-.2-.1-.2-.1-.2-.2-.2-.2-.2-.2-.1-.3-.1-.2-.1h-.2l-.2-.1h-.8l-.2.1-.5.1-.6.2-.4.3-.5.3-.4.5-.4.4-.4.4-.4.6-.4.5-.2.6-.3.5-.2.6-.2.6-.1.6-.1.6v.5l.1.5.1.5.1.3.1.2.1.2.2.2.2.2.1.2.2.1.2.2.2.1.3.1.2.1h1.1l.3-.1.4-.1.3-.2.3-.1.3-.2.4-.2.2-.2.3-.2.3-.3.2-.3.3-.2.2-.3.2-.3.2-.3.2-.3.2-.4.2-.3.1-.3.2-.4.1-.3.1-.4.1-.3v-.4l.1-.3v-1.1l-.1-.4-.1-.3-.1-.4-.1-.3m0 49.7l-.2-.3-.3-.4-.4-.2-.3-.1-.4-.1h-.8l-.5.2-.4.1-.5.3-.4.4-.5.3m-2.7 5.4l-.1.5.1.5.1.5.1.4.1.4.3.3.2.3.3.2.4.1.3.1h.4m2.5-1.5l.4-.3.4-.3.3-.4.3-.5.4-.5.2-.5.3-.5.1-.5.1-.5.1-.5v-.5l-.1-.4-.1-.4-.1-.4-.3-.2-.2-.2-.3-.1-.4-.1h-.3l-.4.1-.4.2-.4.2-.4.3-.4.3-.4.4-.3.5-.3.5-.3.5-.2.5-.2.5-.1.6-.1.4v.5l.1.4.1.4.2.4.2.2.3.2.3.1.3.1h.3l.4-.1.4-.2.5-.2"/><path d="M185.1 78.9l.4-.2.3-.4.3-.3.3-.4.3-.5.2-.4.1-.5.2-.5v-.8l-.1-.4-.1-.3-.2-.3-.2-.1-.3-.2h-.6l-.3.1-.4.1-.4.3-.3.3-.4.3-.2.4-.3.4-.3.5-.1.5-.2.4-.1.5v.4l.1.4.1.4.1.2.2.3.3.2h.9l.3-.2.4-.2"/><path d="M182.7 77.6l.1.4.1.3.2.2.2.2.2.1.3.1h.3l.3-.1.3-.2.4-.3.3-.2.4-.4.2-.3.3-.5.1-.4.2-.5.1-.4v-.8l-.1-.3-.1-.3-.2-.2-.2-.2h-.3l-.3-.1-.3.1-.3.1m3-1.7l-.2-.3-.2-.2-.2-.3-.3-.2-.2-.1-.4-.2h-.3l-.3-.1h-.7l-.3.1-.3.1-.3.1-.4.2-.3.2-.3.2"/><path d="M179.9 78.1v.3l.1.3.1.3v.3l.1.2.2.3.2.2.1.3.2.2.2.2.3.1.2.1.3.1.3.1h.5l.4-.1h.3l.4-.1.3-.2.3-.1.3-.2.4-.2.2-.2.3-.2.3-.3.2-.2.3-.3.2-.3.2-.3.2-.3.2-.3.2-.4.2-.3.1-.3.2-.4.1-.3.1-.4.1-.4V75l.1-.3v-1.1l-.1-.4-.1-.3-.1-.3-.1-.4"/></g><g fill="none" stroke="#000" stroke-width=".6" stroke-linecap="round" stroke-linejoin="round" stroke-miterlimit="10"><path d="M13.9 22.8h70.8M9.6 26.5l3.3-3.3M9.2 98.3V27.4m75.5 74.2H12l-.5-.2-.5-.2-.4-.3-.4-.3-.4-.4-.2-.4-.2-.5-.2-.5v-.5m75.5-75.5h.6l.4.1.5.2.5.3.3.3.4.4.2.5.2.4.2.5v73.3l-.2.5-.2.5-.2.4-.4.4-.3.3-.5.3-.5.2-.4.2h-.6M12.9 23.2l.2-.2.2-.1.3-.1h.3m-4.3 3.7l-.2.2-.1.2-.1.2v.3m54.5-2.5l-.1.1-.1.1-.1.1m-2.4 0l-.1-.1-.1-.1-.1-.1m-45 0l-.5.1-.6.1-.5.2-.6.2-.4.3-.4.4-.4.5-.3.4-.3.5-.2.6-.1.5v.6"/><path d="M11.4 95.1v.5l.1.5.2.6.3.5.3.5.4.4.4.4.4.3.6.2m0 0l.5.3.6.1h.5m25.9 0h.2l.1-.1v-.2m2.5 0l.1.2.1.1h.1m36.8 0h.5l.6-.1.5-.3.5-.2.5-.3.5-.4.3-.4.4-.5.2-.5.2-.6.1-.5v-.5m0-65.8v-.6l-.1-.5-.2-.6-.2-.5-.4-.4-.3-.5-.5-.4-.5-.3-.5-.2-.5-.2-.6-.1-.5-.1m-18.1.3v.5l-.1.2-.2.3-.2.2-.2.1-.4.1H62l-.3-.1-.2-.1-.2-.2-.2-.3-.1-.2v-.5"/><path d="M41.9 99.1V99l.1-.3v-.3l.2-.2.3-.2.2-.2h.9l.3.2.2.2.2.2.1.3v.4M15.7 24.9h45M11.4 95.1V29.3m30.2 70.1H15.7m65.8 0H44.7m41.1-70.1v65.8M63.7 24.9h17.8M54.9 70.4h0v1.1m0 .2v-.2m-.4.2v-.2m0-.6v.6m0-1.1h0v.5m0-.5h.4m-27.2 1.3h41.8M60 70.4h.3v.5m-.3-.5h0v.5m-34.4 5.3h46m-43.2 1.2h1.7m.3 0h1.1m.3 0h1m.4 0h1m.3 0h1m.4 0h1m.3 0h1m.4 0h1m.3 0H41m.3 0h1m.4 0h1m.3 0h1.1m.2 0h1.1m.3 0h1.1m.3 0h1m.3 0h1.1m.3 0h1m.4 0h1m.3 0h1m.4 0h1m.3 0h1.1m.3 0h1m.3 0H60m.3 0h1m.4 0h1m.3 0h1.1m1.3 0h-1m2.4 0h-1m3.1 0h-1.8m-38.7 0v.5h-2.6m4.3 0v.3m0-.3v-1.7m0 2h.3m0-.3v.3m0-.3h-.3m.3 0v-1.7m36.7 2h-.3m-1 0h-.4m-1 0h-.3m-1.4 0h.3m-1.7 0h.4m-1.7 0h.3m-1.7 0h.3m-1.6 0h.3m-1.7 0h.3m-1.7 0h.4m-1.7 0h.3m-1.7 0h.4m-1.7 0h.3m-1.7 0h.3m-1.6 0h.3m-1.7 0h.3m-1.6 0h.2m-1.6 0h.3m-1.7 0h.4m-1.7 0h.3m-1.7 0h.3m-1.7 0h.4m-1.7 0h.3m-1.7 0h.4m-1.7 0h.3m-1.7 0h.4m-1.7 0h.3m-6-.3V83m1.1 0h-1.1m1.1-3h43.4m0 3h1.1m0-5.1V83m-2.5-5.1h2.5m-2.5-.5v.5m-2.1 0v.3m0-2v1.7h.3v-1.7m0 1.7v.3m-1.3-.3v-1.7m0 1.7v.3m-.4-.3h.4m-.4 0v.3m0-.3v-1.7m-1 1.7v-1.7m0 1.7v.3m-.3-.3h.3m-.3 0v.3m0-.3v-1.7m-2.4 1.7v-1.7m0 1.7v.3m0-.3h-.4v.3m0-.3v-1.7m-1 0v2m-.3-.3v.3m0-2v1.7m.3 0H60m-1.1 0v-1.7m0 1.7v.3m0-.3h-.3v.3m0-.3v-1.7m-1 1.7v-1.7m0 1.7v.3m0-.3h-.3v.3m0-.3v-1.7m-1.1 0v2m-.3-.3v.3m0-2v1.7m.3 0h-.3m-1 0v-1.7m0 1.7v.3m0-.3h-.4v.3m0-.3v-1.7m-1 1.7v-1.7m0 1.7v.3m0-.3h-.3v.3m0-.3v-1.7m-1 1.7v-1.7m0 1.7v.3m0-.3h-.4v.3m0-.3v-1.7m-1 1.7v-1.7m0 1.7v.3m0-.3h-.3v.3m0-.3v-1.7m-1.1 1.7v-1.7m0 1.7v.3m0-.3h-.3v.3m0-.3v-1.7m-1 1.7v-1.7m0 1.7v.3m0-.3h-.3v.3m0-.3v-1.7m-1.1 0v2m-.3-.3v.3m0-2v1.7m.3 0h-.3m-1.1 0v-1.7m0 1.7v.3m0-.3h-.2v.3m0-.3v-1.7M44 77.9v-1.7m0 1.7v.3m0-.3h-.3v.3m0-.3v-1.7m-1 0v2m-.4-.3v.3m0-2v1.7m.4 0h-.4m-1 0v-1.7m0 1.7v.3m0-.3H41v.3m0-.3v-1.7m-1.1 1.7v-1.7m0 1.7v.3m0-.3h-.3v.3m0-.3v-1.7m-1 0v2m-.4-.3v.3m0-2v1.7m.4 0h-.4m-1 0v-1.7m0 1.7v.3m0-.3h-.3v.3m0-.3v-1.7m-1 1.7v-1.7m0 1.7v.3m0-.3h-.4v.3m0-.3v-1.7m-1 1.7v-1.7m0 1.7v.3m0-.3h-.3v.3m0-.3v-1.7m-1 1.7v-1.7m0 1.7v.3m0-.3h-.4v.3m0-.3v-1.7m-1 1.7v-1.7m0 1.7v.3m0-.3h-.3v.3m0-.3v-1.7m38.8 10.3H26.9m43.4 0h0V86m-43.4.5h0V86m43.4-5v5m-43.4-5h43.4m-43.4 0v5m0-6v1m43.4-1v1m-7.6-3.1v.3m0-.3v-1.7m.3 1.7v-1.7m0 1.7v.3m0-.3h-.3m-33.9-.6v-1.1m-.5 1.6h-1.1m1.6-.5l-.1.1m-.3.3l-.1.1m-4.2 7.6h2.6m.2 0h-.2m.5-7.5v-1.7m41.2 1.1v-1.1m2.1 7.6v1.6m-3.4-15h0v.5m0 .6v-.6m0 .8v-.2m6 13.9V73.6m-4.2 4.2H70m1.6 6v-7.6m-3.2 1.1l.1.1m.4.3v.1m-41.2-6.1v1.9M70 77.9v-1.7m-45.9-2.6h3.6m-1 10.2v1.6m-1.1-1.6h1.1m-1.1 0v-7.6m7.2 11.1h0v-.1m0-.1v.1m0-.7v.6m.4-.6v.7m0 .1h0v-.1m0 .1h-.4m6.8 0h0v-.1m0-.1v.1m0-.7v.6m.3-.6v.7m0 .1h0v-.1m0 .1h-.3m6.8 0h0v-.1m0-.1v.1m0-.7v.6m.3-.6v.7m0 .1h0v-.1m0 .1h-.3m6.8 0h0v-.1m0-.1v.1m0-.7v.6m.3-.6v.7m0 .1h0v-.1m0 .1h-.3m6.8 0h0v-.1m0-.1v.1m0-.7v.6m.3-.6v.7m0 .1h0v-.1m0 .1H60m-33.3-.8v-1.1m.2 1.1h-.2m-2.6-1.1V73.6m36.2-1.9v-.2m-.3.2v-.2m6.8.2v-.2m0-.6v.6m0-1.1h0v.5m.3-.5h-.3m-5.5 1.3v-.2m0-.6v.6m0-1.1h0v.5m.4 0v.6m0-1.1h0v.5m0 .8v-.2m-.4-1.1h.4m-3.1 1.3v-.2m0-.6v.6m0-1.1h0v.5m.3 0v.6m0-1.1h0v.5m0 .8v-.2m-.3-1.1h.3m3.8 1.3v-.2m0-.6v.6m0-1.1h0v.5m.3 0v.6m0-1.1h0v.5m0 .8v-.2m-.3-1.1h.3m2.8 0h0v1.1m0 .2v-.2m-.4-.6v.6m.4-1.1h-.4 0v.5m0 .8v-.2m-1-1.1h0v1.1m0 .2v-.2m-.3-.6v.6m.3-1.1h-.3 0v.5m0 .8v-.2m-34 .2v-.2m0-.6v.6m0-1.1h0v.5m.3 0v.6m0-1.1h0v.5m0 .8v-.2m-.3-1.1h.3m1.1 1.3v-.2m0-.6v.6m0-1.1h0v.5m.3 0v.6m0-1.1h0v.5m0 .8v-.2m-.3-1.1h.3m1 1.3v-.2m0-.6v.6m0-1.1h0m0 0v.5m.4 0v.6m0-1.1h0v.5m0 .8v-.2m-.4-1.1h.4m1 1.3v-.2m0-.6v.6m0-1.1h0v.5m.3 0v.6m0-1.1h0v.5m0 .8v-.2m-.3-1.1h.3m1 1.3v-.2m0-.6v.6m0-1.1h0v.5m.4 0v.6m0-1.1h0v.5m0 .8v-.2m-.4-1.1h.4m1.3 0h0v1.1m0 .2v-.2m-.3-.6v.6m0-1.1h.3m-.3 0h0v.5m0 .8v-.2m1.3.2v-.2m0-.6v.6m0-1.1h0v.5m.4 0v.6m0-1.1h0v.5m0 .8v-.2m-.4-1.1h.4m1 1.3v-.2m0-.6v.6m0-1.1h0v.5m.3 0v.6m0-1.1h0v.5m0 .8v-.2m-.3-1.1h.3m1.1 1.3v-.2m0-.6v.6m0-1.1h0v.5m.3 0v.6m0-1.1h0v.5m0 .8v-.2m-.3-1.1h.3m1 1.3v-.2m0-.6v.6m0-1.1h0v.5m.4 0v.6m0-1.1h0v.5m0 .8v-.2m-.4-1.1h.4m1 1.3v-.2m0-.6v.6m0-1.1h0v.5m.3 0v.6m0-1.1h0v.5m0 .8v-.2m-.3-1.1h.3m1.1 1.3v-.2m0-.6v.6m0-1.1h0v.5m.2 0v.6m0-1.1h0v.5m0 .8v-.2m-.2-1.1h.2m1.4 0h0v1.1m0 .2v-.2m-.3-.6v.6m0-1.1h.3m-.3 0h0v.5m0 .8v-.2m1.4.2v-.2m0-.6v.6m0-1.1h0v.5m.3 0v.6m0-1.1h0v.5m0 .8v-.2m-.3-1.1h.3m1 1.3v-.1m0 0v-.1m0-.6v.6m0-1.1h0v.5m.3 0v.6m0-1.1h0v.5m0 .8v-.2m-.3-1.1h.3m1.1 1.3v-.2m0-.6v.6m0-1.1h0v.5m.3 0v.6m0-1.1h0v.5m0 .8v-.2m-.3-1.1h.3m1 1.3v-.2m0-.6v.6m0-1.1h0v.5m.4 0v.6m0-1.1h0v.5m0 .8v-.2m-.4-1.1h.4m1.3 0h0v1.1m0 .2v-.2m-.3-.6v.6m0-1.1h.3m-.3 0h0v.5m0 .8v-.2m2.7.2v-.2m0-.6v.6m0-1.1h0v.5m.3 0v.6m0-1.1h0v.5m0 .8v-.2m-.3-1.1h.3m1.1 1.3v-.2m0-.6v.6m0-1.1h0v.5m.3 0v.6m0-1.1h0v.5m0 .8v-.2m-.3-1.1h.3m2.4.5v.6m.3-.6v.6m10 13.9h.2m1.1-1.6h-1.1m-1-12.1v1.9m3.6 11.8h-2.6m2.6-11.8h-3.6m1 12.9v-1.1m-.2 1.1h.2M41.7 98.7l-.1.1h-.1m.3-.2l-.1.1"/><path d="M44.5 98.6l-.1-.3-.1-.3-.2-.2-.3-.2-.3-.1h-.7l-.2.1-.3.2-.2.2-.2.3-.1.3m2.8.1l-.1-.1m.4.2h-.2l-.1-.1m36.6.1H44.9m40.4-4v.5l-.2.6-.1.4-.3.5-.2.5-.4.3-.4.4-.5.3-.4.2-.6.2-.5.1h-.5m4.1-69.2v65.2m-4.1-69.3h.5l.5.1.6.2.4.2.5.3.4.4.4.4.2.4.3.5.1.5.2.5v.6m-21.4-4.1h17.3m-17.6.1l.2-.1h.1m-.4.2l.1-.1m-2.8.1l.1.3.2.3.2.2.3.2.3.1h.6l.3-.1.3-.2.2-.2.1-.3.1-.3m-2.7-.1v.1m-.3-.2h.1l.2.1M16 25.5h44.5m-48.6 4.1l.1-.6.1-.5.1-.5.3-.5.2-.4.4-.4.4-.4.5-.3.4-.2.6-.2.5-.1h.5m-4.1 69.3V29.6M16 98.8h-.5l-.5-.1-.6-.2-.4-.2-.5-.3-.4-.4-.4-.3-.2-.5-.3-.5-.1-.4-.1-.6-.1-.5m29.6 4H16m29.1-61.4h2.1m-2.1-4.2v4.2m2.1-4.2h-2.1m2.1 4.2v-4.2m-7.5 4.4h3.1m-3.1-6.3v6.3m3.1-6.3h-3.1m3.1 6.3v-6.3m-12.9 6.3H33m-3.1-6.3v6.3m3.1-6.3h-3.1m3.1 6.3v-6.3m14.2-2.8h-2.3m2.3 4.3v-4.3m-2.3 4.3h2.3m-2.3-4.3v4.3M24.8 62h2m-2-4v4m2-4h-2m2 4v-4m33.3-5.7h2m-2-4.1v4.1m2-4.1h-2m2 4.1v-4.1m-36.2 5.7h2m-2-4.1v4.1m2-4.1h-2m2 4.1v-4.1M51 47.4h-2.1m2.1 4v-4m-2.1 4H51m-2.1-4v4m1.1-9.1h-2m2 4.1v-4.1m-2 4.1h2m-2-4.1v4.1m-28.1-6.5V42m4.1-2.1h-4.1M24 42v-2.1M19.9 42H24m25.4-8.8h-2.1m2.1 4.1v-4.1m-2.1 4.1h2.1m-2.1-4.1v4.1m22.3-1.1h-2.1m2.1 4.1v-4.1m-2.1 4.1h2.1m-2.1-4.1v4.1M50.9 62.8v4.8m7.6-4.8h-7.6m7.6 4.8v-4.8m-7.6 4.8h7.6m-15.7-4.8v4.8m7.6-4.8h-7.6m7.6 4.8v-4.8m-7.6 4.8h7.6m-16.8-.2v-4.5m-7.5 4.5h7.5m-7.5-4.5v4.5m7.5-4.5h-7.5M18 49.7V54m7.4-4.3H18m7.4 4.3v-4.3M18 54h7.4m-11.5 1.8H17m-3.1-6.3v6.3m3.1-6.3h-3.1m3.1 6.3v-6.3m17.1-11.2v4.3m7.3-4.3h-7.3m7.3 4.3v-4.3m-7.3 4.3h7.3m-7.3-10.9v6m4.6-6h-4.6m4.6 6v-6m-4.6 6h4.6m-9.1 2.7V35m-5.5 5.4h5.5M24.1 35v5.4m5.5-5.4h-5.5m-2.2 40.3v-4.5m-7.5 4.5h7.5m-7.5-4.5v4.5m7.5-4.5h-7.5m4.3-2.7V66m-4.3 2.1h4.3M14.4 66v2.1m4.3-2.1h-4.3m9.3-17h3.1m-3.1-6.3V49m3.1-6.3h-3.1m3.1 6.3v-6.3m-3.1 24.6h2m-2-4.2v4.2m2-4.2h-2m2 4.2v-4.2m-7 7.1v-2m-4.3 2h4.3m-4.3-2v2m4.3-2h-4.3M21.9 85v-4.4M14.4 85h7.5m-7.5-4.4V85m7.5-4.4h-7.5m63-9.4h-2.1m2.1 4.2v-4.2m-2.1 4.2h2.1m-2.1-4.2v4.2m-3.8 19.7v-5.5m-5.4 5.5h5.4m-5.4-5.5v5.5m5.4-5.5h-5.4m.7-60.6l-.1-.3v-.2l-.2-.3-.3-.2H66l-.4-.1-.2.1-.3.1-.2.2-.2.3-.1.3v.3l.1.3.2.2.2.2.3.1.2.1h.4l.2-.1.3-.2.2-.2v-.3l.1-.3m-19.5 3.8h2.1m-2.1-4v4m2.1-4h-2.1m2.1 4v-4M29.9 44.6H33m-3.1-6.2v6.2m3.1-6.2h-3.1m3.1 6.2v-6.2m33.3 8V30.7M50.5 46.4h15.8M50.5 30.7v15.7m15.8-15.7H50.5M18 43.2v5.9m4.7-5.9H18m4.7 5.9v-5.9M18 49.1h4.7m-8.6 14.6h7.6m-7.6-7.3v7.3m7.6-7.3h-7.6m7.6 7.3v-7.3m12.9 6.4v4.8m7.6-4.8h-7.6m7.6 4.8v-4.8m-7.6 4.8h7.6M21.8 80v-4.2M14.5 80h7.3m-7.3-4.2V80m7.3-4.2h-7.3m20.4-47.3v2.1m4.1-2.1h-4.1m4.1 2.1v-2.1m-4.1 2.1H39m20.1 32.2v4.8m7.6-4.8h-7.6m7.6 4.8v-4.8m-7.6 4.8h7.6m.8-35.9h2.1m-2.1-4v4m2.1-4h-2.1m2.1 4v-4M19.1 42v-2.1m-4 2.1h4m-4-2.1V42m4-2.1h-4m15.4 14h2m-2-4.1v4.1m2-4.1h-2m2 4.1v-4.1m29.8 2.5h2m-2-4.1v4.1m2-4.1h-2m2 4.1v-4.1M22.3 62h2.1m-2.1-4v4m2.1-4h-2.1m2.1 4v-4m31.2-28v-2m-4.2 2h4.2m-4.2-2v2m4.2-2h-4.2m16.1 8.1h2.1m-2.1-4.2v4.2m2.1-4.2h-2.1m2.1 4.2v-4.2M13.9 49H17m-3.1-6.3V49m3.1-6.3h-3.1M17 49v-6.3m1.8-14.1l-.5-.1-.6.1-.4.1-.5.2-.5.3-.3.3-.4.4-.3.4-.1.5-.2.5v.5l.1.5.1.5.2.5.2.4.4.3.4.4.5.2.4.2.5.1h.6l.5-.1.5-.1.4-.2.4-.3.4-.4.3-.4.2-.5.2-.4v-1.6l-.2-.5-.3-.4-.3-.4-.4-.4-.4-.2-.4-.2-.5-.2"/><path d="M18.7 29l-.5-.1-.5.1h-.4l-.4.2-.4.3-.4.3-.3.4-.2.4-.2.5-.1.5.1.5v.4l.2.5.2.4.4.3.3.3.5.3.4.2.5.1h.5l.4-.1.5-.2.4-.2.4-.3.3-.3.3-.5.2-.4.1-.5v-.9l-.2-.5-.2-.4-.3-.4-.3-.3-.4-.3-.4-.2-.5-.1"/><path d="M17.1 37.2l-.6-.1-.7-.3-.6-.3-.5-.4-.5-.5-.4-.4-.4-.6-.3-.6-.2-.6-.2-.7-.1-.6v-.7l.1-.7.2-.7.2-.6.3-.6.4-.5.5-.5.5-.5.5-.4.6-.3.6-.2.7-.2h1.4l.6.1.7.1.6.3.6.3.6.4.4.4.5.5.4.6.3.6.2.6.2.7v2l-.2.7-.3.6-.3.6-.4.5-.4.5-.5.4-.6.4-.6.3-.6.3-.7.1-.6.1h-.7l-.7-.1m-.3 52.5l-.5.3-.3.3-.4.4-.3.4-.1.5-.2.5v.5l.1.6.1.4.2.5.2.4.4.4.4.3.5.3.4.1.5.1.6.1.4-.1.6-.2.4-.2.4-.3.4-.3.3-.5.2-.4.2-.5v-1.5l-.2-.5-.3-.4-.3-.4-.4-.4-.4-.3-.4-.2-.5-.1-.5-.1-.6.1-.4.1-.5.1"/><path d="M16.9 90l-.4.3-.3.3-.4.4-.2.4-.2.4v.5l-.1.5.1.5.2.4.2.5.3.3.4.4.4.2.4.2.5.1h.9l.5-.2.4-.2.4-.3.3-.3.3-.4.2-.4.2-.5v-1l-.1-.4-.2-.4-.3-.4-.3-.4"/><path d="M20.1 90.5l-.4-.3-.4-.2-.5-.2h-.9l-.5.1-.5.1"/><path d="M20.6 97.6l-.6.3-.6.1-.7.2H18l-.7-.1-.6-.1-.7-.2-.6-.3-.5-.4-.5-.4-.5-.6-.4-.5-.3-.5-.3-.7-.2-.6-.1-.7v-.7l.1-.6.1-.7.2-.6.3-.6.4-.6.4-.5.5-.5.5-.4.6-.3.6-.3.7-.2h2l.6.1.7.3.6.3.6.3.5.4.5.5.4.6.3.6.2.6.2.6.1.7.1.7-.1.6-.1.7-.3.6-.3.6-.3.6-.5.5-.4.5-.6.4-.6.3m57.7-68.9l-.5.1-.4.2-.5.4-.3.3-.3.5-.2.4-.2.5v1l.1.5.2.5.2.4.3.4.4.3.5.3.4.2.5.2h1l.5-.2.5-.1.4-.3.4-.3.3-.4.3-.5.2-.5.1-.5v-1l-.2-.5-.2-.4-.3-.5-.4-.3-.4-.3-.4-.3-.5-.1-.5-.1h-.5l-.5.1"/><path d="M78.4 29l-.5.2-.4.2-.4.3-.3.3-.3.4-.2.5-.1.4v.5l.1.5.1.4.2.5.3.4.3.3.4.3.4.2.5.1.5.1.4-.1.5-.1.5-.2.4-.2.3-.4.3-.3.2-.5.2-.4.1-.5-.1-.5-.1-.4-.1-.5-.3-.4-.3-.4-.3-.3-.4-.2-.5-.2h-.5l-.5-.1-.4.1"/><path d="M80.3 37.1l-.6.2h-1.3l-.7-.2-.7-.2-.6-.2-.5-.4-.6-.4-.5-.5-.4-.5-.3-.6-.3-.6-.2-.7-.1-.6V31l.1-.6.2-.7.3-.6.4-.6.4-.5.5-.4.5-.5.6-.3.6-.3.6-.2.7-.1h1.3l.7.2.6.2.7.2.5.4.6.4.4.5.4.5.4.6.3.6.2.6.1.7v1.3l-.2.7-.1.6-.4.7-.3.5-.4.5-.5.5-.5.4-.6.4-.6.2-.7.2m-1.1 58.7l.6-.1.5-.2.4-.2.4-.3.4-.3.2-.5.3-.4.2-.5v-1l-.1-.5-.2-.5-.2-.4"/><path d="M81.7 90.9l-.4-.5-.3-.3-.5-.3-.4-.2-.5-.1-.5-.1-.5.1-.5.1-.5.2-.4.2-.4.4-.3.4-.3.4-.2.5-.1.5v1l.2.5.2.5.2.4.4.3.4.4.5.2.4.2h.5l.5.1"/><path d="M79.2 95.4h.5l.4-.2.4-.2.4-.3.4-.4.2-.4.2-.4.1-.5.1-.5-.1-.4-.1-.5-.2-.5-.3-.3-.3-.4-.4-.2-.5-.3-.4-.1h-1l-.5.1-.4.2-.4.3-.3.3-.3.4-.2.4-.2.4-.1.5v.5l.1.5.2.4.2.4.3.4.4.3.4.3.5.1.4.1h.5"/><path d="M78.6 87.1H80l.7.2.6.2.6.3.5.4.5.4.5.6.4.5.3.6.2.6.2.7.1.6v.7l-.1.7-.2.6-.2.7-.3.6-.4.5-.4.5-.5.5-.6.4-.6.3-.6.2-.6.2-.7.1h-.7l-.6-.1-.7-.2-.7-.2-.5-.3-.6-.4-.5-.4-.5-.5-.3-.6-.3-.6-.3-.6-.1-.7-.1-.6v-.7l.1-.7.1-.6.2-.7.3-.6.4-.5.5-.5.5-.5.5-.4.6-.3.7-.2.6-.2h.6"/></g><text transform="translate(263.127 33.721)" font-family="Helvetica,Arial,sans-serif" font-size="14">Temperature measurement point</text><path fill="none" stroke="#000" stroke-miterlimit="10" d="M254.5 25.5L46.6 58m209.5-20.9L161.4 59"/></svg>