<svg version="1.0" xmlns="http://www.w3.org/2000/svg" viewBox="0 0 440 180"><path clip-rule="evenodd" fill="none" stroke="#FFF" stroke-width=".283" stroke-miterlimit="3.864" d="M8 17h150v149.5H8z"/><path clip-rule="evenodd" fill="none" stroke="#000" stroke-width=".283" stroke-miterlimit="3.864" d="M149.2 164.7v-.3m1.8.3h-1.8m6.8-18.9v13.8m-99.7 5.1h-41m133.8-.2v-.1m-138.8-4.8v-13.8m46 18.9v-.3m.3.1v-.1m79.4.3h2.3m0 0h2.2l.9-.1h2.8l.3-.1h.3l-.3-.1h-2.3l-.9-.1h-10.7l-1 .1h-2.1l-.4.1h-.1.3l.4.1h2.8l.9.1h2.2m0 0h2.4m0 0v-.4m-66.4.4h2.5m-4.9 0h2.4m2.5 0h2.1l1-.1h2.7l.4-.1h.2-.1l-.3-.1h-2.2l-.9-.1H64.2l-.8.1H61l-.3.1h.3l.3.1h2.8l1 .1h2.1m2.4 0v-.4"/><path clip-rule="evenodd" fill="none" stroke="#000" stroke-width=".283" stroke-miterlimit="3.864" d="M144.7 164.5h-.2l-.1-.1h-2.6l-1.2-.1h-9.3l-1.3.1h-2.5l-.2.1h-.2m-48.7 0h-.1l-.2-.1h-2.6l-1.2-.1H65l-1.3.1h-2.6l-.1.1h-.1m72.7.2H72.1m-4.9 0H56.3m92.9 0h-10.9m10.8-.2l.1.2"/><path clip-rule="evenodd" fill="none" stroke="#000" stroke-width=".283" stroke-miterlimit="3.864" d="M136 164.1h2.6l1.4.2h6.4l.8.1h1l.5.1h.4m-79.5-.4H136m-79.4.4h.3l.4-.1h1.2l.7-.1h6.4l1.3-.2h2.7m-13.3.6l.3-.2m99.4-25.1v6.2m-145.7-6.2v5.8m0 0v.4m0-6.7v.5m5-120.4l-.8.1-.9.1-.8.4-.7.5-.6.6-.5.8-.3.8-.4.8v116.3m145.7 0v-.5m0 .5V24m0 0v.1M10.3 24v.1M156 24v-.9l-.3-.8-.3-.8-.5-.8-.7-.6-.7-.5-.7-.4-.9-.1-.9-.1m-7.9 39.2v-.7l-.2-.6-.4-.6-.5-.6-.6-.4-.6-.3-.7-.2h-.6l-.8.2-.6.3-.5.4-.5.6-.3.6-.1.6-.3.7.3.7.1.6.3.6.5.5.5.4.6.3.8.1h.6l.7-.1.6-.3.6-.4.5-.5.4-.6.2-.6v-.7"/><path clip-rule="evenodd" fill="none" stroke="#000" stroke-width=".283" stroke-miterlimit="3.864" d="M135.8 58.2l.2-.9.1-.6.3-.7.6-.7.6-.5.7-.3.8-.1.8-.2.7.2.7.1.6.3.7.5.5.7.4.7.2.6V59l-.2.7-.4.6-.5.6-.7.5-.6.5-.7.2h-1.5l-.8-.2-.7-.5-.6-.5-.6-.6-.3-.6-.1-.7-.2-.8m-100.5 0l.2-.9.2-.6.4-.7.4-.7.6-.5.7-.3.8-.1.7-.2.7.2.8.1.7.3.6.5.5.7.3.7.2.6.1.9-.1.8-.2.7-.3.6-.5.6-.6.5-.7.5-.8.2h-1.4l-.8-.2-.7-.5-.6-.5-.4-.6-.4-.6-.2-.7-.2-.8"/><path clip-rule="evenodd" fill="none" stroke="#000" stroke-width=".283" stroke-miterlimit="3.864" d="M145.7 58.2l-.1-1-.3-.8-.4-1-.5-.7-.6-.7-.7-.6-.8-.6-.9-.2-.9-.3h-.9l-1 .2-.9.2-.8.5-.8.4-.6.8-.6.7-.4.7-.3.9-.2 1v.8l.2 1.1.3.8.4.9.6.8.6.6.8.5.8.3.9.4h1.9l.9-.1.9-.4.8-.5.7-.6.6-.7.5-.8.4-.8.3-.9.1-.9m-100.6 0l-.1-1-.1-.8-.4-1-.5-.7-.7-.7-.7-.6-.8-.6-.9-.2-.9-.3h-1l-.8.2-.9.2-.9.5-.7.4-.7.8-.5.7-.6.7-.2.9-.1 1v.8l.1 1.1.2.8.6.9.5.8.7.6.7.5.9.3.9.4H40l.9-.1.9-.4.8-.5.7-.6.7-.7.5-.8.4-.8.1-.9.1-.9"/><path clip-rule="evenodd" fill="none" stroke="#000" stroke-width=".283" stroke-miterlimit="3.864" d="M42.6 58.2l-.1-.7-.1-.6-.4-.6-.5-.6-.4-.4-.9-.3-.6-.2h-.7l-.6.2-.6.3-.7.4-.3.6-.4.6-.2.6-.2.7.2.7.2.6.4.6.3.5"/><path clip-rule="evenodd" fill="none" stroke="#000" stroke-width=".283" stroke-miterlimit="3.864" d="M37 60.6l.7.4.6.3.6.1h.7l.6-.1.9-.3.4-.4.5-.5.4-.6.1-.6.1-.7m100.5 0v-.7l-.2-.6-.4-.6-.6-.6-.5-.4-.6-.2-.7-.3h-.6l-.7.3-.7.2-.5.4-.5.6-.2.6-.2.6-.3.7.3.7.2.6.2.6.5.5.5.4.7.3.7.1h.6l.7-.1.6-.3.5-.4.6-.5.4-.6.2-.6v-.7"/><path clip-rule="evenodd" fill="none" stroke="#000" stroke-width=".283" stroke-miterlimit="3.864" d="M42.6 58.2l-.1-.7-.2-.6-.3-.6-.5-.6-.6-.4-.7-.2-.6-.3h-.7l-.6.3-.6.2-.6.4-.4.6-.4.6-.2.6v1.4l.2.6.4.6.4.5.6.4.6.3.6.1h.7l.6-.1.7-.3.6-.4.5-.5.3-.6.2-.6.1-.7m9.1-33.5V24h-.4l-.5.2-.3.2-.3.4-.1.4-.1.4h.7m76.8-.9V24H51.7M50 84.6h.7m-.7-59v59m78.4-59h.8l-.2-.4-.1-.4-.2-.4-.4-.2-.5-.2h-.3M51.7 86.4v-.8m-1.7-1l.1.4.1.5.3.4.3.3.5.1.4.1"/><path clip-rule="evenodd" fill="none" stroke="#000" stroke-width=".283" stroke-miterlimit="3.864" d="M128.4 84.6h.8v-59m-1.7 60.8v-.8m-75.8.8h75.8l.3-.1.5-.1.4-.3.2-.4.1-.5.2-.4M51.7 24.7h-.3l-.2.1-.2.2-.2.3-.1.3m1-.9h75.8M50.7 84.6v-59m77.7 0l-.1-.3-.1-.3-.2-.2-.3-.1h-.2M50.7 84.6l.1.3.2.3.2.2.2.2h.3m76.7-60v59m-.9 1H51.7"/><path clip-rule="evenodd" fill="none" stroke="#000" stroke-width=".283" stroke-miterlimit="3.864" d="M127.5 85.6h.2l.3-.2.2-.2.1-.3.1-.3M29.5 58.2l.1-1.2.3-1.3.3-1.1.5-1.1.6-1 .8-.9.9-.8.9-.7 1.1-.7 1.1-.5 1-.3 1.3-.2h1.2l1.2.1 1.2.3 1.1.3 1.2.5.9.8.9.7.9.9.6 1 .6 1.1.4 1.1.3 1.2.2 1.2v1.1l-.2 1.3-.3 1.2-.4 1.1-.6 1-.6 1-.9.9-.9.8-.9.6-1.2.5-1.1.4-1.2.3h-2.4l-1.3-.1-1-.3-1.1-.5-1.1-.6-.9-.7-.9-.9-.8-.9-.6-1-.5-1.2-.3-1-.3-1.2-.1-1.2m100.5 0V57l.2-1.3.5-1.1.5-1.1.6-1 .7-.9.8-.8 1.1-.7 1.1-.7 1.2-.5 1-.3 1.1-.2h1.3l1.2.1 1.2.3 1.1.3 1.1.5 1 .8 1 .7.7.9.7 1 .6 1.1.5 1.1.2 1.2.1 1.2v1.1l-.1 1.3-.2 1.2-.5 1.1-.6 1-.7 1-.7.9-1 .8-1 .6-1.1.5-1.1.4-1.2.3h-2.5l-1.1-.1-1-.3-1.2-.5-1.1-.6-1.1-.7-.8-.9-.7-.9-.6-1-.5-1.2-.5-1-.2-1.2v-1.2m26 101.4l-.5-.6m0-134.4l.5-.6m-5.6 140.1l.6.6m0 0l.9-.1.9-.2.7-.4.7-.6.7-.6.5-.6.3-.8.3-.9v-.9m-140.7 5.1l.6-.6M11 159l-.7.6m0 0v.9l.4.9.3.8.5.6.6.6.7.6.8.4.9.2.8.1"/><path clip-rule="evenodd" fill="none" stroke="#000" stroke-width=".283" stroke-miterlimit="3.864" d="M130.9 58.2l.2-1.2.1-1.2.3-1.1.6-.9.6-1.1.9-.8.8-.8 1-.7.9-.6 1.2-.3 1.1-.3h2.4l1 .3 1.2.3 1.1.6.8.7 1 .8.8.8.6 1.1.5.9.5 1.1.2 1.2.1 1.2-.1 1.2-.2 1-.5 1.1-.5 1.2-.6.8-.8.9-1 .9-.8.6-1.1.5-1.2.4-1 .2h-2.4l-1.1-.2-1.2-.4-.9-.5-1-.6-.8-.9-.9-.9-.6-.8-.6-1.2-.3-1.1-.1-1-.2-1.2m-100.6 0l.2-1.2.2-1.2.4-1.1.5-.9.6-1.1.8-.8.8-.8 1.1-.7 1-.6 1.1-.3 1.2-.3h2.4l1.1.3 1 .3 1.1.6 1 .7.8.8.7.8.7 1.1.6.9.4 1.1.1 1.2.1 1.2-.1 1.2-.1 1-.4 1.1-.6 1.2-.7.8-.7.9-.8.9-1 .6-1.1.5-1 .4-1.1.2h-2.4l-1.2-.2-1.1-.4-1-.5-1.1-.6-.8-.9-.8-.9-.6-.8-.5-1.2-.4-1.1-.2-1-.2-1.2M151 19l-.6.6m-134.5 0l-.6-.6m-5 5l.7.6m1.5 95.2V24.6m0 134.4v-33.8m3.4 37.4l-.6-.1-.7-.3-.6-.2-.5-.5-.4-.5-.4-.7-.2-.6v-.7m137.9 3.6H15.9m137.9-3.6v.7l-.2.6-.2.7-.5.5-.5.5-.6.2-.7.3-.7.1m3.4-138V159m-3.4-137.9h.7l.7.2.6.4.5.4.5.4.2.7.2.8v.6M15.9 21.1h134.5M12.5 24.6V24l.2-.8.4-.7.4-.4.5-.4.6-.4.7-.2h.6m0 143v-1.5"/><path clip-rule="evenodd" fill="none" stroke="#000" stroke-width=".283" stroke-miterlimit="3.864" d="M12.5 159H11v.9l.3.8.3.9.5.6.6.6.8.5.7.4.9.3.8.1m134.5 0v-1.5m-134.5 1.5h134.5M12.5 24.6H11V159m144.5 0h-1.7m-3.4 5.1l.8-.1 1-.3.7-.4.7-.5.6-.6.6-.6.3-.9.3-.8.1-.9M15.9 21.1v-1.5h-.8l-.9.3-.7.4-.8.4-.6.6-.5.8-.3.7-.3.9v.9m144.5 0h-1.7m1.7 134.4V24.6m-5.1-3.5v-1.5H15.9m139.6 5l-.1-.9-.3-.9-.3-.7-.6-.8-.6-.6-.7-.4-.7-.4-1-.3h-.8m5.6 140v-14M15.3 164.7h39.8m95.3 0h.6M10.3 145.6v14m145.7-14V139m0 0V24M10.3 24v114.5"/><path clip-rule="evenodd" fill="none" stroke="#000" stroke-width=".283" stroke-miterlimit="3.864" d="M15.3 19h-.6l-.3.1h-.3l-.3.1-.3.1-.4.1-.3.2-.2.3-.3.1-.2.3-.2.2-.3.2-.2.3-.1.2-.2.3-.2.2-.1.4-.1.2-.2.4v.3l-.2.4v.6M151 19H15.3M156 24v-.6l-.1-.4v-.3l-.2-.4-.1-.2-.1-.4-.1-.2-.3-.3-.1-.2-.2-.3-.4-.2-.2-.2-.2-.3-.3-.1-.2-.3-.3-.2-.3-.1-.3-.1-.3-.1h-.3l-.3-.1h-.7M10.3 138.5v7.1m33.3 18.5h-5.9l-1 .2H34l-.3.1h-.3.2l.2.1h1.7l.8.1h14.4l.7-.1h1.8l.3-.1h.1-.3l-.3-.1h-2.8l-.9-.2h-5.7"/><path clip-rule="evenodd" fill="none" stroke="#000" stroke-width=".283" stroke-miterlimit="3.864" d="M53.2 164.4l-.2-.1h-1.7l-1.2-.2H36.9l-1.2.2H34l-.2.1h-.1m21.4.3l.2-.2h.2l.3-.1h1.6l.7-.1h4.5l1.2-.2h77.9l1.3.2h4.3l.8.1h1.7l.3.1.3.2m-9.7-101.5l.9-.3.7-.3.8-.5.6-.7.5-.7.3-.9.3-.7v-1.8l-.3-.8-.3-.9-.5-.6-.6-.6-.8-.5-.7-.4-.9-.2-.8-.1-1 .1-.8.2-.8.4-.6.5-.7.6-.5.6-.4.9-.2.8-.1.9.1.9m-94.8 4.1l1-.3.7-.3.7-.5.6-.7.6-.7.3-.9.3-.7.1-.9-.1-.9-.3-.8-.3-.9-.6-.6-.6-.6-.7-.5-.7-.4-1-.2-.8-.1-.9.1-.8.2-.8.4-.7.5-.6.6-.5.6-.4.9-.3.8v1.8M50.7 28h1.1m-1.1 1.6h1.1m76.6-4.1h-3.7m2.6 1.2h1.1m0 6.6h-1.1m1.1 1.4h-1.1m-76.6-4.9h1.1m47.4-3.7v-1.4m-46.1 0v1.4m-2.4 6l.6-.3.5-.2m76.6 52.2h-1.1m-1.6 1.8v-1.8m-11.6 1.8v-1.8M65 85.6v-1.8m-11.5 1.8v-1.8m-1.7 0h-1.1m1.1 0V70.2m0-7.5V49.1m0-7.5V26.1m64.4 57.7H62.9m-7.4 0h-3.7m75.5 0h-3.6m3.6-57.7v15.5m0 7.5v13.6m0 7.5v13.6m-2.6-57.7h2.6m-75.5 0h2.6m7.5 0h16.5m22.4 0h16.4m6.5 57.7v1.8m-7.5 0v-1.8m7.5 0h-7.5m-60.7 0v1.8m7.4 0v-1.8h-7.4m72.9-21.1h-1.1m0 7.5h1.1m-1.1-7.5v7.5m1.1-21.1h-1.1m0-7.5h1.1m-1.1 0v7.5M50.7 62.7h1.1m0 7.5h-1.1m1.1 0v-7.5m-1.1-13.6h1.1m0-7.5h-1.1m1.1 7.5v-7.5m72.9-16.9v1.4m-7.5 0v-1.4m0 1.4h7.5m-46.3 0h22.4v3.5m-22.4 0v-3.5m22.4 3.5H78.4m-24-4.9v1.4m7.5 0v-1.4m-7.5 1.4h7.5m38.9 3.5h5.9v7.7m0 0h4v2.5m-42.2 0v-2.5h3.9v-7.7h6m32.3 10.2h10v36.1H58.5V39.8h10m-17.8-10h1.1"/><path clip-rule="evenodd" fill="none" stroke="#000" stroke-width=".283" stroke-miterlimit="3.864" d="M50.7 32.1l.6-.3.5-.2m76.6 50.3h-1.1m.2-29.2h.9m-.9 10v-10M50.7 75.2h1.1m75.7-38h.9m-.9 13.6v-1.7m0-7.5v-4.4m.9 13.6h-.9M51.1 38.3v3.3m0 7.5v2.6m-.4-13.4h.4m0 13.4h-.4m23.8 73.5v-.5l.2-.2v-4.1l-.2-.2v-.4"/><path clip-rule="evenodd" fill="none" stroke="#000" stroke-width=".283" stroke-linecap="round" stroke-linejoin="round" stroke-miterlimit="10" d="M74.6 122.5c0 17.2-14 31.2-31.2 31.2s-31.2-14-31.2-31.2 14-31.2 31.2-31.2c17.3 0 31.2 14 31.2 31.2z"/><path fill="none" stroke="#000" stroke-width=".283" stroke-linecap="round" stroke-linejoin="round" stroke-miterlimit="10" d="M25.7 122.5c0-9.8 8-17.8 17.8-17.8s17.8 8 17.8 17.8-8 17.8-17.8 17.8-17.8-8-17.8-17.8z"/><path fill="none" stroke="#000" stroke-width=".283" stroke-linecap="round" stroke-linejoin="round" stroke-miterlimit="10" d="M62.8 111.7c1.7 3.2 2.7 6.8 2.7 10.7 0 9.1-5.5 17-13.3 20.4m0-40.8c1.6.7 3 1.5 4.4 2.6m-27.8.8c3.9-3.3 8.9-5.3 14.5-5.3h.1m-18.7 34.7c-2.4-3.6-3.7-7.8-3.7-12.4 0-4.5 1.3-8.6 3.6-12.1m13.5 33.8c-3-.7-5.8-2-8.2-3.8m22.6 4.6c-2.9 1.4-7.1 1.7-9.1 1.7-1.8 0-3.6 0-5.3-.5M57.7 103c1.4.9 5.4 5.1 6.7 7.7M43.6 98c2.4 0 6.6.7 9.3 2.1m-29.7 9c.8-1.3 3.2-4.1 4.3-5m.8 37.4c-2-1.6-3.9-4-5-5.6"/><path clip-rule="evenodd" fill="none" stroke="#000" stroke-width=".283" stroke-linecap="round" stroke-linejoin="round" stroke-miterlimit="10" d="M28.4 141.6l1.5-1.3m-6.7-4.4l1.5-1.1M38.1 146l-.1-2m14.6.8l-.3-2m11.9-32l-1.2.9m-5.2-8.6l-1.1 1.4m-4.4-2.7l.6-1.8m-9.4-.3l.2-1.7m-19.3 12.3l-1.3-1.1m5.7-3.8l-1.4-1.3m41.4 18.4c0 14-11.3 25.3-25.3 25.3s-25.3-11.3-25.3-25.3 11.3-25.3 25.3-25.3c13.9 0 25.3 11.3 25.3 25.3z"/><path fill="#1D1D1B" d="M36.9 131.8c0-.8.6-1.4 1.4-1.4.8 0 1.4.6 1.4 1.4 0 .8-.6 1.4-1.4 1.4-.8 0-1.4-.6-1.4-1.4z"/><path fill="none" stroke="#1D1D1B" stroke-width=".283" stroke-miterlimit="3.864" d="M36.9 131.8c0-.8.6-1.4 1.4-1.4.8 0 1.4.6 1.4 1.4 0 .8-.6 1.4-1.4 1.4-.8 0-1.4-.6-1.4-1.4z"/><path fill="#1D1D1B" d="M31.4 122.7c0-.8.6-1.4 1.4-1.4.8 0 1.4.6 1.4 1.4 0 .8-.6 1.4-1.4 1.4-.8-.1-1.4-.7-1.4-1.4z"/><path fill="none" stroke="#1D1D1B" stroke-width=".283" stroke-miterlimit="3.864" d="M31.4 122.7c0-.8.6-1.4 1.4-1.4.8 0 1.4.6 1.4 1.4 0 .8-.6 1.4-1.4 1.4-.8-.1-1.4-.7-1.4-1.4z"/><path fill="#1D1D1B" d="M36.6 113.5c0-.8.6-1.4 1.4-1.4.8 0 1.4.6 1.4 1.4 0 .8-.6 1.4-1.4 1.4-.8 0-1.4-.6-1.4-1.4z"/><path fill="none" stroke="#1D1D1B" stroke-width=".283" stroke-miterlimit="3.864" d="M36.6 113.5c0-.8.6-1.4 1.4-1.4.8 0 1.4.6 1.4 1.4 0 .8-.6 1.4-1.4 1.4-.8 0-1.4-.6-1.4-1.4z"/><path fill="#1D1D1B" d="M47.3 131.8c0-.8.6-1.4 1.4-1.4.8 0 1.4.6 1.4 1.4 0 .8-.6 1.4-1.4 1.4-.8 0-1.4-.6-1.4-1.4z"/><path fill="none" stroke="#1D1D1B" stroke-width=".283" stroke-miterlimit="3.864" d="M47.3 131.8c0-.8.6-1.4 1.4-1.4.8 0 1.4.6 1.4 1.4 0 .8-.6 1.4-1.4 1.4-.8 0-1.4-.6-1.4-1.4z"/><path fill="#1D1D1B" d="M47.3 113.5c0-.8.6-1.4 1.4-1.4.8 0 1.4.6 1.4 1.4 0 .8-.6 1.4-1.4 1.4-.8 0-1.4-.6-1.4-1.4z"/><path fill="none" stroke="#1D1D1B" stroke-width=".283" stroke-miterlimit="3.864" d="M47.3 113.5c0-.8.6-1.4 1.4-1.4.8 0 1.4.6 1.4 1.4 0 .8-.6 1.4-1.4 1.4-.8 0-1.4-.6-1.4-1.4z"/><path fill="#1D1D1B" d="M52.6 122.7c0-.8.6-1.4 1.4-1.4.8 0 1.4.6 1.4 1.4 0 .8-.6 1.4-1.4 1.4-.7-.1-1.4-.7-1.4-1.4z"/><path fill="none" stroke="#1D1D1B" stroke-width=".283" stroke-miterlimit="3.864" d="M52.6 122.7c0-.8.6-1.4 1.4-1.4.8 0 1.4.6 1.4 1.4 0 .8-.6 1.4-1.4 1.4-.7-.1-1.4-.7-1.4-1.4z"/><g font-family="Helvetica,Arial,sans-serif" font-size="14"><text transform="translate(201.59 61.877)">Ethernet connector (8-pin RJ-45 jack)</text><text transform="translate(201.59 129.876)">I/O connector (6-pin connector)</text></g><path d="M109.7 56.6h82.1m-148 68.5h148" fill="none" stroke="#000" stroke-miterlimit="10"/></svg>