<svg version="1.0" xmlns="http://www.w3.org/2000/svg" viewBox="0 0 520 316.7"><text transform="translate(32.382 271.783)" font-family="Helvetica,Arial,sans-serif" font-size="8">0.0</text><text transform="translate(32.585 221.413)" font-family="Helvetica,Arial,sans-serif" font-size="8">0.2</text><text transform="translate(32.549 172.356)" font-family="Helvetica,Arial,sans-serif" font-size="8">0.4</text><text transform="translate(32.563 123.833)" font-family="Helvetica,Arial,sans-serif" font-size="8">0.6</text><text transform="translate(32.44 73.123)" font-family="Helvetica,Arial,sans-serif" font-size="8">0.8</text><text transform="translate(32.572 23.37)" font-family="Helvetica,Arial,sans-serif" font-size="8">1.0</text><text transform="translate(45.175 285.46)" font-family="Helvetica,Arial,sans-serif" font-size="8">400</text><text transform="translate(118.766 285.5)" font-family="Helvetica,Arial,sans-serif" font-size="8">500</text><text transform="translate(192.182 285.437)" font-family="Helvetica,Arial,sans-serif" font-size="8">600</text><text transform="translate(266.532 285.554)" font-family="Helvetica,Arial,sans-serif" font-size="8">700</text><text transform="translate(342.904 285.517)" font-family="Helvetica,Arial,sans-serif" font-size="8">800</text><text transform="translate(418.1 285.476)" font-family="Helvetica,Arial,sans-serif" font-size="8">900</text><text transform="translate(491.019 285.578)" font-family="Helvetica,Arial,sans-serif" font-size="8">1000</text><text transform="rotate(-90 103.806 84.384)" fill="#1E1E1C" font-family="Helvetica,Arial,sans-serif" font-size="12">Relative Response</text><text transform="translate(225.182 306.471)" fill="#010202" font-family="Helvetica,Arial,sans-serif" font-size="12">Wavelength (nm)</text><g fill="none" stroke="#1E1F1D" stroke-miterlimit="10"><path stroke-width=".227" d="M49.4 70.1h451.3M49.4 95.3h451.3M49.4 120.4h451.7M49.5 145.7h451.3M49.5 170.9h451.4M49.5 196h451.3M49.5 221.2h451.3M49.5 246.3h450.8M49.5 44.9h451.3M86.5 19.6v251.7m37.8-251.7v251.7m37.6-251.5v251.6m37.6-251.2v251.2M237.3 19v252.4m75.3-252.3v252.3m37.6-251.8v251.7m37.7-251.7v251.7m37.7-251v251m37.7-251.7v251.7M274.9 19.7v251.8"/><path stroke-width=".709" d="M49.5 19.6H501v251.8H49.5z"/></g><path d="M496.8 248h4.3m-.3 0h-6.5l-3.3-.8-2.9-1.5-2.5-1.6-2.3-1.6-2.5-2.1-1.8-1.9-2-2.1-2.8-2-2.2-1.4-2.6-.9h-6.1l-3.8-.6-3-.9-1.8-1.1-2.8-2.1-1.8-1.9-2.8-2.6-2.4-2.1-2.1-1.9s-1.9-1-2.4-1-2.9-.9-2.9-.9h-2.4l-3-.9-1.9-1.4s-2.4-2.3-2.9-2.6-1.6-2.3-1.6-2.3l-2.1-3-2.1-2.9-1.6-2.6-2.1-3-2.9-2.5-2.6-1.8-2.5-1.5-2.9-1.3-2.8-1.8-2.6-2.4-2.5-2.8-1.8-2.6-2.5-2.5-1.9-1.5-2.4-1.8-2.9-1.3h-3.2l-3.4-.6-2.9-1.1-2.5-1.5-3-1.4-3.4-1.5-3.4-1.6-3.1-1.4-3.5-1.4-3.1-1.6-2.9-2.1-2.1-2.3-2.3-2.6-2.3-2.6-2.4-2.4-2.6-2.4-3-3.2-2.5-3.1-2.4-2.9-2.8-2.8-2.3-2.4-3-2.5-2.6-2.1-3.1-2-2.6-2-3-1.7-2.5-.7-3.8-1.4-2.5-1.1-2.6-1.8-2.4-2-2.4-1.8-2.1-1.9-2.3-1.6-2.4-2.4-2.3-2.3-1.6-1.9-1.6-2.4-2-2.1-1.5-2.8-2.9-3-2.3-2.5-2.8-2.6-2.1-2.4-2.1-1.9-2.3-2.1-1.9-1.4-2.8-.9-2.6-.9-3.1-2-3.1-1.3-2.8-1.1-2.9-.6-3.5-1.5-2.5-1.8-2.5-1.5-2.4-1.3-2.8-1.8-2.9-2.5-2.9-2.9-3-3-3.4-2.8-2.5-2.9-3.6-3.1L213 47l-3.8-2.1-2.9-1.8-2.8-1.5-2.6-2.3-2.8-1.9-2.4-2L194 34l-3-2.6-2.3-1.9-1.8-2.3-2.6-2-1.8-1.1-1.8-.8-2-1.4-2.1-.8h-1.9l-2 .3-1.8.3-2 .9s-2.4-.1-2.9 0-2.5-.3-2.5-.3l-2.3.1-2.4-.4-1.9-.8-3.5-1H147s-2.4.8-2.8.8-2 .9-2 .9H141l-2.3.8-2.6 1.1s-2.3.8-2.6.8-2.4.8-2.4.8l-3.1.9-3.7.9h-2.8s-2.5.9-2.7 1c-.2.1-2.3 1.3-2.3 1.3l-1.6 2-1.5 1.9-2.9 2.1-3.4 2-3.5 2.3-2 1.5-2.3 1.5-2.3.5-2.1.6-2.1 1.6-3.1 3.8-3.3 4.4-2.5 2.9-2.5 2.3-4.1 2s-4.9 1.9-5.1 2.3-3.8 3.5-3.8 3.5l-3.8 4.1-3.4 4.6-2.8 4.3-2.8 4.3-2.5 4.3-2.8 4.1-1 1.5" fill="none" stroke="#000" stroke-width=".709" stroke-miterlimit="10"/></svg>