<svg version="1.0" xmlns="http://www.w3.org/2000/svg" viewBox="0 0 420 380"><g fill="none" stroke="#3C3C3B" stroke-width=".283" stroke-miterlimit="10"><path clip-rule="evenodd" d="M191.8 126.3c1.1 0 1.9-.9 1.9-1.9v-22.2l6.4-3.7h81l1.9 1.9V121h-6.4v19.3h-29v11.3c0 .7-.6 1.3-1.3 1.3h-16.7c-1.8 0-3.2-1.4-3.2-3.2v-5.3c0-1.8-1.4-3.2-3.2-3.2-.6 0-1.2.2-1.7.5-.2.1-.4.3-.6.5l-2.3 2.3h-24.4l-.1-.1-2.7-2.7-1.1-1.1v-14.1h1.5v-.2z"/><path stroke-linecap="round" stroke-linejoin="round" d="M193.8 104.7l6.2-6.2m-6.2 20.7l20.8-20.8m-24.1 38.5L229 98.4m-31.4 45.9l45.9-45.9M212 144.3l45.9-45.9m-31.3 45.8l45.8-45.8m-40 54.4l50.7-50.7M247 152.7l.7-.7m11.7-11.8l17.3-17.3m2-2l4.4-4.4m-9.2 23.7l2.8-2.8"/></g><g fill="none" stroke="#3C3C3B" stroke-width=".283" stroke-miterlimit="10"><path clip-rule="evenodd" d="M294.1 223.3h46c0-42.5 11.1-84.2 32.2-121.1l-6.5-3.7h-80.1l-1.9 1.9V136l.6.6h9.7v86.7h0z"/><path stroke-linecap="round" stroke-linejoin="round" d="M299.8 223.3l-5.7-5.7m20.2 5.7l-20.2-20.2m34.6 20.2l-34.6-34.6m46.1 31.5l-46.1-46.1m46.6 32.2l-46.6-46.6m47.9 33.5l-47.9-47.9m-8.6-8.6l-1.7-1.7m60.1 45.6l-60.1-60.1m62.5 48.1l-62.5-62.5m65.5 51l-58.7-58.7m62.1 47.6L305 98.4m51.5 37l-37-37m41.2 26.8l-26.8-26.8m31.4 16.9l-16.9-16.9m21.9 7.4l-7.4-7.4"/></g><g fill="none" stroke="#3C3C3B" stroke-width=".283" stroke-miterlimit="10"><path clip-rule="evenodd" d="M271.5 209.5v13.8h4.7v-32.2h-3.9v0h-2.6c-.1 3.2-.6 6.3-1.6 9.3v2.4h.1v.5h-.1v1h.1v.9h-.1v1.9h2.6V202h.8v6.8h.3v.6h-.3v.1zm-.8-9.1h.8v.1l-.8-.1h0z"/><path stroke-linecap="round" stroke-linejoin="round" d="M268.8 207.1l1.9-3.3m.8-1.4l4.7-8.1m-4.7 28.6l4.7-8.1"/></g><g fill="none" stroke="#3C3C3B" stroke-width=".283" stroke-miterlimit="10"><path clip-rule="evenodd" d="M291.5 223.3v-7.1h-7.7v-7.3h2.6v-3.5h-2.6v-7.9h7.7V146h-7.7v-9.6h-7.1v8.5h-2.6v3.5h2.6v11.9h-3.5v3.6h3.5v59.4h14.8z"/><path stroke-linecap="round" stroke-linejoin="round" d="M280.3 223.3l-3.6-6.3m14.8 5.2l-3.5-6m-4.1-7.3l-7.2-12.4m12.4 1l-12.3-21.4m14.7 5.2l-14.8-25.6m14.8 5.2l-14.2-24.5"/></g><g fill="none" stroke="#3C3C3B" stroke-width=".283" stroke-miterlimit="10"><path clip-rule="evenodd" d="M240 185.3v38h2v-38h-2z"/><path stroke-linecap="round" stroke-linejoin="round" d="M240 191.3l1.9-1.1m-1.9 12.9l1.9-1.1m-1.9 12.9l1.9-1.1"/></g><g fill="none" stroke="#3C3C3B" stroke-width=".283" stroke-miterlimit="10"><path clip-rule="evenodd" d="M237.5 184.6c0 .3.1.6.2.8l.9 1.5c.1.1.1.2.2.3.3.4.8.6 1.3.6v-6.5h2.6c.2 0 .3-.1.3-.3v-.4c0-.3.3-.6.6-.6l6.3-.3c1.7-.1 3-1.5 3-3.2V151c0-.3.3-.6.6-.6h1c.2 0 .3-.1.3-.3v-3.8c0-.2-.1-.3-.3-.3h-1c-.4 0-.6-.3-.6-.6v-1.7c0-.3-.3-.6-.6-.6l-4.1-.1c-.2 0-.4.2-.4.4v32.1c0 .3-.3.6-.6.6l-6.6.3c-1.7.1-3.1 1.5-3.1 3.2v5h0z"/><path stroke-linecap="round" stroke-linejoin="round" d="M240.2 181.4l-2.8-1.6m15.4-2.9l-5.1-2.9m5.2-8.9l-5.1-3m5.1-8.7l-5.1-3"/></g><path clip-rule="evenodd" fill="none" stroke="#3C3C3B" stroke-width=".283" stroke-miterlimit="10" d="M241.6 181.7v-.2s0-.1-.1-.1H240v3.9h1.4l.2-3.6z"/><path fill="#F5F5F5" d="M372.3 223.3v115.8H193.7v-17.9 1c0-1.1-.9-1.9-1.9-1.9h-1.3v-.8.4-96.5h181.8z"/><path fill="#D9D9D9" stroke="#000" stroke-width=".992" stroke-miterlimit="10" d="M190.5 319.8v-96.5h25.8v-81.8H197l-6.5 6.5v-21.3H87.6v193.1h100.8z"/><path fill="none" stroke="#000" stroke-width=".992" stroke-miterlimit="10" d="M190.5 128.7v-2.5h1.3c1.1 0 1.9-.9 1.9-1.9v-22.2l6.4-3.7h81l1.9 1.9h.6l1.9-1.9h80.1l6.5 3.7V339H193.7v-17.9 1c0-1.1-.9-1.9-1.9-1.9h-1.3v-.8.4-96.5H216"/><path fill="none" stroke="#000" stroke-width=".425" stroke-linecap="round" stroke-linejoin="round" stroke-miterlimit="10" d="M191.8 223.3h2m-3.3 0h1.3m-.5-97v14.1m-.8 0l3.9 3.9m0 0h24.4m0 0l2.3-2.3m5.5 2.3c0-1.8-1.4-3.2-3.2-3.2-.9 0-1.7.3-2.3.9m5.5 2.3v5.3m0 0c0 1.8 1.4 3.2 3.2 3.2m0 0h16.7m0 0c.7 0 1.3-.6 1.3-1.3m0 0v-11.3m0 0h28.9m0 0v-19.3m0 0h6.5m-2 102.4V339m0 0s0 .1 0 0c.1.1.1.1 0 0m2-203v.4m-83 202.6V223.3m-.2 115.8c.1 0 .1 0 0 0h.1v-.1m63.7-118.2v2.5m0-2.5v-12.4m-37.2-58.8v73.7m-7.8 0v-79m52.8 18.5h-16.8m39.3-26.1v86.6m78.2-121.2c-21.1 36.9-32.2 78.6-32.2 121.1M283.8 136l.6.7m0 0h9.7m-10.3-.7v.4m.6 9.5v-9.2m81.4 86.6v115.8m-82 0V223.3m1.9 0v115.8m5.8-161.9h2.6m-22.6 32.3v13.8m4.7 0v-32.2m0 0h-3.9m0 0v5.1m0 0h0m0 0v-5.1m0 0h-2.5m-1.6 9.3c1-3 1.5-6.2 1.6-9.3m-1.6 9.3v2.4m0 0s0 0 0 0 0 0 0 0m0 0v.5m0 0h0m0 0v1m0 0s0 0 0 0 0 0 0 0m0 0v.8m0 0s0 0 0 0 0 0 0 0m0 0v2m0 0h2.5m0 0V202m0 0h.8m0 0v6.8m0 0h.4m0 0v.7m0 0h-.4m-.8-9.1h.8m0 0v.1m0 0h-.8m0 0v-.1m-2.5 7.4v-.7m0 .7h2.5m0-.7v.7m0 0V222m0 0v1.3m-2.5 0V222m0 0v-14.2m0 14.2h2.5m.8-12.5v-.7m-3.3-5.5v-.3m0 2.1s0 0 0 0m0 0v-.3m0 0v-.4m0 0s0-.1 0 0c0-.1 0-.1 0 0m0-1.4v-.2s0 0 0 0m0 .2h0m0 2.1h0m24.3 12.9l.4-.3m.7-37.9c-.3.2-.4.4-.4.6m-3.2 29.1h4.1m-4.1 0h0m0-6.4h4.1m-4.1 0v6.4m0-6.4h0m0 0v6.4m4.1 6.5h-1.2m0 5.1v1.3m0-5.1v3.8m0-5.1v1.3m1.2 5.1h-1.2m.3-40.9v.1m0-1.2v1.1m-.7 41.2v-7.1m1.6 7.1h-2.6m2.6-38.9h-2.6m2.6-2.2h-2.6m2.6 2.5h-2.6m2.6 31.5h-6.8m6.8-28.6h-2.6m2.6 24.1h-6.8m6.3 11.3v.3m.5-42.9h-.5m-2.1 43.5v-7.1m0 0h-7.7m0 0v-7.3m0 0h2.6m0 0v-3.5m0 0h-2.6m0 0v-7.9m0 0h7.7m0 0V146m0 0h-7.7m0 0v-9.6m0 0h-7.1m0 0v8.5m0 0h-2.6m0 0v3.5m0 0h2.6m0 0v11.9m0 0h-3.5m0 0v3.6m0 0h3.5m0 0v59.4m6.5 0h.6m0-20.5h6m0 0v-5.3m-13.1-39.7h-2.6m2.6-6.8h-2.6m0 0v6.8m13.2 51.1v-3.5m-.9 0h.9m-.9 3.5h.9M276.4 197v-.5m0 6.3v-2.2m.3-4.1h-.3m.3 24h-.5m.5-53.1h-5.8m0 0v11.3m5.8 0h-5.8m5.8 21.9h-.5m.5-3.6h-.5m11.1 15.8v-3.9m-14.1-26.7v3.6m3.5 0h-3.5m3.5-3.6h-3.5m3.5 12.6h-.5m.5-3.6h-.5m.5-11.9h-3.5m0-.6v.6m10.6 22.9h3.5m0 0v-4.7m0-51.5v-.1m-3.5 0h3.5m0 59.5v-2.6m-15.7-58.1v22.7m5.1-22.7h-5.1m19.9 5.2h2.6m-2.6 19.9h2.6m-17.4 36.6h-.5m.5-3.6h-.5m.5-21.5h-2.6m0 0v.9m0 3.6v2.2m2.6 0h-2.6m-.9-2.2v.3m.9 0h-.9m10.6 26.7h3.5m0 3.4v-3.4m-10.6 3.5h-.5m.5-6.7h-.5M240 185.3v38m2 0v-38m0 0h-2m-2.5-.7c0 .3.1.6.2.8m0 0l.8 1.5m0 0c.1.1.1.2.2.3m0 0c.3.4.8.6 1.3.6m0 .1v-6.5m0 0h2.6m0 0c.2 0 .3-.1.3-.3m0-.1v-.4m.6-.7c-.3 0-.6.3-.6.6m.6-.6l6.4-.3m0 0c1.7-.1 3.1-1.5 3.1-3.2m-.1 0V151m.6-.6c-.3 0-.6.3-.6.6m.6-.6l1-.1m0 0c.2 0 .3-.1.3-.3m0 0v-3.8m0 0c0-.2-.1-.3-.3-.3m0 0h-1m-.6-.7c0 .4.3.6.6.6m-.6-.6v-1.7m0 0c0-.3-.3-.6-.6-.6m0 0l-4.1-.1m0 0c-.2 0-.4.2-.4.4m0 0v32.1m-.7.6c.3 0 .6-.3.6-.6m-.6.6l-6.6.3m0 0c-1.7.1-3.1 1.5-3.1 3.2m.1.1v5.1m5.4-1.2V181m0 30.4v-13.8m0-6.4v-4.5m0 34v-4.5m0 7.1v-2.6m-5.4-23.2v25.8m0-38.7v12.9m15.4-6.4v-14.7m0 46.9v-32.2m-10 23.3s0 0 0 0 0 0 0 0 0 0 0 0c0-.1 0-.1 0 0m0-.1c0 .1 0 .1 0 0 0 .1 0 .1-.1.2h-.1s0 0 0 0 0 0 0 0m0-.4s.1 0 0 0c.1 0 .1 0 .1.1v.2m.1-.1s0 0 0 0 0 0 0 0 0 0 0 0 0 0 0 0m-.2.3h-.7m.8-.2h.1m-.9-.3h.7m.2.2h-.1m.1-.9s0 0 0 0 0 0 0 0 0 0 0 0c0-.1 0-.1 0 0m0-.1c0 .1 0 .1 0 0 0 .1 0 .1-.1.2h-.1s0 0 0 0 0 0 0 0m0-.4s.1 0 0 0c.1 0 .1 0 .1.1v.2m.1-.1s0 0 0 0 0 0 0 0 0 0 0 0 0 0 0 0m-.2.3h-.7m.8-.2h.1m-.9-.3h.7m.2.2h-.1m.1-1v-.9m0 1c-.1 0-.1 0 0 0m0 0s0 0 0 0 0 0 0 0 0 0 0 0 0-.1 0 0m0-.1h0m0 3s0 0 0 0 0 0 0 0 0 0 0 0c0-.1 0-.1 0 0m-.1 0s0 0 0 0m.1.2v-.2m0 .9v-.7m0-3.2c0 .1 0 .1 0 0 0 .1 0 .1-.1.2h-.1s0 0 0 0 0 0 0 0m0 .1h-.7m.7 2.5s.1 0 0 0c.1 0 .1 0 .1.1v.2m-.8-.3h.7m.1.2l-.8-.1m0-.8h.8m-.8-1h.8m-.8-1h.8m0 1.9l-.8-.1m.8.2v-.1m0-1h-.8m.8.1v-.1m.1-1v1m0 0v1m0 0v1m11.9-57v5.5m0-17.6v-.7m-.3.3c.2 0 .3-.1.3-.3m0-2.2c0-.2-.1-.3-.3-.3m.3.3v2.2m0 12.7V150m0 8.2v.1m0 59.5v5.5m0-5.5v-1.7m0 0v-51.5m0-.8v.8m-.3-6c.2 0 .3-.1.3-.3m0 5.5c0-.2-.1-.3-.3-.3m-.9-17.6l.9-.1m-2.2-2.9l2.2.1m0 15.6h-1m1 4.9l-1.6-.1m.6-4.8c-.3 0-.6.3-.6.6m-9.6 37.5v-3.5m0 0v-.7m-.5-7.4l.2-.2c.1-.1.1-.2.2-.3 0-.1.1-.2.1-.3v-.3m-1.3 1.6c.1 0 .2 0 .2-.1.1 0 .2-.1.3-.2.1-.1.2-.1.3-.2m.5-1.1v-.1m-1.4-1.1l-.1-.1c-.1-.2-.1-.3-.1-.5m-.3 3.1s0 0 0 0c.1 0 .1-.1.1-.1l.1-.1v-.2m-1.6-3.5v3.9m0 0h1.4m.2-.4v-3.2m0 0v-.2s0-.1-.1-.1m0 0H240m1.6 3.5v.4m0-3.9v.3m1.3 1.7s0 0 0 0h-.2m0 0s0 0 0 0c-.1 0-.1 0 0 0-.1 0-.1 0 0 0m-.7-.5l-.1-.1m.7.6c-.1 0-.2-.1-.3-.2 0 0-.1 0-.1-.1l-.3-.3m.9 14.9h.1c.1 0 .1 0 .2-.1l.1-.1.1-.1v-.6M242 190c0 .1.1.1.1.2.1.1.1.2.2.2.1.1.1.2.2.2l.2.2.2.2m-.1.1c.1.1.1.2.2.3 0 .1.1.2.1.3 0 .1.1.2.1.3v.6m-.4 5.1h-.8m1.3-13.8v-.1s0-.1-.1-.1c0 0 0-.1-.1-.1l-.1-.1s-.1 0-.1-.1"/><path fill="none" stroke="#000" stroke-width=".425" stroke-miterlimit="10" d="M283.2 136v-35.4m.6 0V136M194 321.2v-97.9m87.3 115.8h1.8V223.3"/><path fill="none" stroke="#000" stroke-width=".51" stroke-linecap="round" stroke-linejoin="round" stroke-miterlimit="10" d="M61 153.2h188.3M61 292.6h188.3m-222-151.4h188.3M27.3 304.5h188.3"/><path fill="none" stroke="#000" stroke-width=".51" stroke-linecap="round" stroke-linejoin="round" d="M31 145.4v155.5"/><path d="M28.4 146.2l2.6-4.4 2.5 4.4zm0 153.9l2.6 4.4 2.5-4.4z"/><path fill="none" stroke="#000" stroke-width=".51" stroke-linecap="round" stroke-linejoin="round" d="M64.4 156.9v132"/><path d="M61.9 157.6l2.5-4.4 2.6 4.4zm0 130.6l2.5 4.4 2.6-4.4zm171.4-117.5l3.5-2.7 1.8 6z"/><path fill="none" stroke="#000" stroke-width=".51" stroke-linecap="round" stroke-linejoin="round" stroke-miterlimit="10" d="M235.5 170l-69.4-86.9h-8"/><path d="M159.4 121.6l3.6-2.7 1.7 6z"/><path fill="none" stroke="#000" stroke-width=".51" stroke-linecap="round" stroke-linejoin="round" stroke-miterlimit="10" d="M161.2 120.4l-12.5-15.7h-8m49.6 36.7V29.7m36.5 110.6V67.6m10.9 112v-125m26.4 86.8V29.7m-69 3.5h63.3"/><path d="M196.2 30.9v4.5l-5.8-2.3zm61.6 4.5v-4.5l5.8 2.2z"/><path fill="none" stroke="#000" stroke-width=".51" stroke-linecap="round" stroke-linejoin="round" stroke-miterlimit="10" d="M195.1 58.1h37.6"/><path d="M196.2 55.8v4.5l-5.8-2.2zm35.7 4.5v-4.5l5.8 2.3z"/><path fill="none" stroke="#000" stroke-width=".51" stroke-linecap="round" stroke-linejoin="round" stroke-miterlimit="10" d="M195.1 72.5h160.6"/><path d="M196.2 70.2v4.5l-5.8-2.2zm24.7 4.5v-4.5l5.8 2.3z"/><g fill="none" stroke="#1D1D1B" stroke-width=".425" stroke-miterlimit="10"><path d="M379.6 223h-11.3"/><path stroke-dasharray="2.885,5.77" d="M362.5 223h-5.8"/><path stroke-dasharray="23.0801,5.77,2.885,5.77" d="M353.9 223H94.2"/><path d="M91.3 223H80"/></g><path fill="none" stroke="#000" stroke-width=".51" stroke-linecap="round" stroke-linejoin="round" stroke-miterlimit="10" d="M70.8 83.1h87.3m-87.5 21.6h71.1"/><text transform="translate(72.025 66.255)"><tspan x="0" y="0" font-family="Helvetica,Arial,sans-serif" font-size="12.627">Filter holder</tspan><tspan x="0" y="12.4" font-family="Helvetica,Arial,sans-serif" font-size="10.331">(color cameras only)</tspan></text><text transform="translate(72.025 100.605)" font-family="Helvetica,Arial,sans-serif" font-size="12.627">CS-mount lens</text><text transform="rotate(-90 147.515 121.618)" font-family="Helvetica,Arial,sans-serif" font-size="12.627">CS-mount thread</text><text transform="rotate(-90 162.529 102.604)"><tspan x="0" y="0" font-family="Helvetica,Arial,sans-serif" font-size="13.775">max. Ø </tspan><tspan x="46.3" y="0" font-family="Helvetica,Arial,sans-serif" font-size="12.627">21.85</tspan></text><text transform="translate(218.292 12.71)"><tspan x="0" y="0" font-family="Helvetica,Arial,sans-serif" font-size="12.63">10</tspan><tspan x="14.2" y="0" font-family="Helvetica,Arial,sans-serif" font-size="10.711"> (puA1600-60um)</tspan><tspan x="0" y="15.2" font-family="Helvetica,Arial,sans-serif" font-size="12.63">11</tspan><tspan x="14.2" y="15.2" font-family="Helvetica,Arial,sans-serif" font-size="10.711"> (other mono cameras)</tspan></text><text transform="translate(211 50.21)"><tspan x="0" y="0" font-family="Helvetica,Arial,sans-serif" font-size="12.63">7</tspan><tspan x="7.1" y="0" font-family="Helvetica,Arial,sans-serif" font-size="10.711"> (color cameras only)</tspan></text><text transform="translate(288.727 68.363)" font-family="Helvetica,Arial,sans-serif" font-size="12.627">Thread: 5.6</text><text transform="translate(305.508 355.298)"><tspan x="0" y="0" font-family="Helvetica,Arial,sans-serif" font-size="12.308">Not to scale</tspan><tspan x="0" y="14.2" font-family="Helvetica,Arial,sans-serif" font-size="11.795">Dimensions in mm</tspan></text></svg>