<svg version="1.1" id="Layer_1" xmlns="http://www.w3.org/2000/svg" x="0" y="0" viewBox="0 0 1000 750" xml:space="preserve"><style>.st1,.st2{fill:none;stroke-linecap:round;stroke-linejoin:round}.st1{stroke-miterlimit:10;stroke:#000;stroke-width:.283}.st2{stroke:#030304;stroke-width:.567}.st2,.st5{stroke-miterlimit:10}.st5,.st6{fill:none;stroke:#1a1a18;stroke-width:.425;stroke-linecap:round;stroke-linejoin:round}.st7,.st8{fill:none;stroke-width:.283}.st7{stroke-linecap:round;stroke-linejoin:round;stroke:#000}.st8{stroke:#1a1a18;stroke-miterlimit:10}.st9{fill:#1a1a18}.st10{fill:none;stroke:#000;stroke-width:.283;stroke-miterlimit:10}.st11{font-family:Helvetica,Arial,sans-serif}.st12{font-size:17.335px}</style><path d="M623.1 451.3c3.7 0 6.6-3 6.6-6.6V296.9c0-3.7-3-6.6-6.6-6.6H475.2c-3.7 0-6.6 3-6.6 6.6v147.7c0 3.7 3 6.6 6.6 6.6l147.9.1zm148.4 1c-3.1 0-5.6-2.5-5.6-5.6v-150c0-3.1 2.5-5.6 5.6-5.6h150c3.1 0 5.6 2.5 5.6 5.6v150c0 3.1-2.5 5.6-5.6 5.6h-150zm-455.9-63.7v-80.9c0-.7-.5-.9-1.1-1.1l-3-.1c-.7 0-.9-.6-.9-.9v-14.1c0-.6-.5-1.1-1.1-1.1h.1l-12.2-.4-1.8.5H134.2l-1.8-.5h-56l-2.7 2.8v156.5l2.7 2.8h56l1.8-.5h161.3l1.8.5 12.2-.4h-.1c.6 0 1.1-.5 1.1-1.1v-4.9c0-.6.5-1.1 1.1-1.1l27.1-1.1c.7 0 1.3-.6 1.3-1.3v-51.6c0-.7-.6-1.3-1.3-1.3l-23.1-.7zm-5.2-243.2c0 .6.1 1.1.7 1.1l27.4.9c.7 0 1.3.6 1.3 1.3v52.8c0 .7-.6 1.3-1.3 1.3l-28.4 1.1-.1 17.7c0 .6-.5 1.1-1.1 1.1h.1l-11.7.4-1.8-.5H134.2l-1.8.5h-56l-2.7-2.8V63.8l2.7-2.8h56l1.8.5 161.3 1.1 1.8-.5 12.2.1c.6 0 1 .5 1 1.1v8.3c0 .4.8.8 1.1.9.3 0 2.6.2 3 .2s1.1.4 1.1 1.1v45.5c0 .5-.4.9-1.1 1-.7 0-2.5.1-2.9.2-.5.1-1.1.6-1.1 1.1l-.3 82.4m.1 524.5c0 .6-.5 1.1-1.1 1.1l-12 .4-1.8-.5H134.2l-1.8.5h-56l-2.7-2.8V569.9l2.7-2.8h56l1.8.5h161.3l1.8-.5 11.7.4h-.1c.6 0 1.1.5 1.1 1.1v19.5l28.8 1.2c.7 0 1.3.6 1.3 1.3v52.8c0 .7-.6 1.3-1.3 1.3l-27.2.9c-.6 0-1.1.5-1.1 1.1v23.7s.3 1.1 1.1 1.1h2.9s1.1.2 1.1 1.1v45.5c0 .4-.4 1.1-1.1 1.1h-3s-1 .4-1 1l-.1 8.3z" fill="#f5f5f6"/><path class="st1" d="M611.7 370.8c0-32.1-24.3-58.9-56.2-62.2l-2-.3-1.7-.8c-1.7-.8-3.7-.8-5.4 0l-1.8.8-1.8.3c-31.9 3.2-56.2 30.1-56.2 62.2"/><path class="st1" d="M544.5 308.4c-2.2 2.5-1.9 6.3.5 8.6s6.2 2.3 8.6 0c2.4-2.3 2.6-6.1.5-8.6"/><path class="st1" d="M620.4 370.8c0-39.3-31.8-71.1-71.1-71.2s-71.1 31.8-71.2 71.1m46.1-77.8h49.9m37.6 77.9c0 32.1-24.3 58.9-56.2 62.2l-2 .3-1.7.8c-1.7.8-3.7.8-5.4 0l-1.8-.8-1.8-.3c-31.9-3.2-56.2-30.1-56.2-62.2"/><path class="st1" d="M544.5 433.1c-2.2-2.5-1.9-6.3.5-8.6s6.2-2.3 8.6 0c2.4 2.3 2.6 6.1.5 8.6m47-44.1c0 14.9-12.1 27-27 27h-50c-14.9 0-27-12.1-27-27v-36.4c0-14.9 12.1-27 27-26.9h50c14.9 0 27 12.1 26.9 27l.1 36.3z"/><path class="st1" d="M595.3 389c0 11.7-9.5 21.1-21.1 21.1h-50c-11.7 0-21.1-9.5-21.1-21.1v-36.4c0-11.7 9.5-21.1 21.1-21.1h50c11.7 0 21.1 9.5 21.1 21.1V389z"/><path class="st1" d="M620.4 370.8c0 39.3-31.9 71.1-71.1 71.1-39.3 0-71.1-31.9-71.1-71.1m46 77.8h49.9"/><path class="st1" d="M524.3 448.6c-3.7 0-7.3-.7-10.6-2.3-17.6-8.3-31.7-22.5-40-40.1-1.6-3.3-2.4-7.1-2.4-10.8v-49.5c0-3.7.9-7.4 2.4-10.8 8.3-17.6 22.5-31.8 40-40.1 3.3-1.6 7-2.3 10.6-2.3M574 448.6c3.7 0 7.5-.7 10.8-2.3 17.6-8.3 31.7-22.4 40-40 1.6-3.3 2.3-7.1 2.3-10.8V346c0-3.7-.7-7.5-2.3-10.8-8.3-17.6-22.4-31.7-40-40-3.3-1.6-7.1-2.3-10.8-2.3"/><path class="st1" d="M524.3 451.4c-4.1 0-8.1-.8-11.8-2.6-18.2-8.6-32.8-23.3-41.4-41.5m0 .1c-1.3-2.8-2.2-5.8-2.5-8.9"/><path class="st2" d="M623.1 451.3c3.7 0 6.6-3 6.6-6.6V296.9c0-3.7-3-6.6-6.6-6.6H475.2c-3.7 0-6.6 3-6.6 6.6v147.7c0 3.7 3 6.6 6.6 6.6l147.9.1z"/><path class="st1" d="M524.3 290.1c-4.1 0-8.1.8-11.8 2.6-18.2 8.6-32.9 23.3-41.4 41.5-1.3 2.8-2.2 5.9-2.5 8.9m161.2-.5c-.3-3-1.1-5.9-2.4-8.6-8.6-18.2-23.3-32.7-41.5-41.3-3.7-1.7-7.8-2.7-11.9-2.7m55.8 108.9c-.3 3-1.1 5.9-2.4 8.6-8.6 18.2-23.3 32.7-41.5 41.3-3.7 1.7-7.8 2.7-11.9 2.7"/><path d="M315.6 388.6v-80.9c0-.7-.5-.9-1.1-1.1l-3-.1c-.7 0-.9-.6-.9-.9v-14.1c0-.6-.5-1.1-1.1-1.1h.1l-12.2-.4-1.8.5H134.2l-1.8-.5h-56l-2.7 2.8v156.5l2.7 2.8h56l1.8-.5h161.3l1.8.5 12.2-.4h-.1c.6 0 1.1-.5 1.1-1.1v-4.9c0-.6.5-1.1 1.1-1.1l27.1-1.1c.7 0 1.3-.6 1.3-1.3v-51.6c0-.7-.6-1.3-1.3-1.3l-23.1-.7h0z" fill="none" stroke="#030304" stroke-width=".709" stroke-miterlimit="10"/><path d="M310.6 445.9V305.7" fill="#f5f5f6" stroke="#1a1a18" stroke-width=".425" stroke-miterlimit="10"/><path class="st1" d="M295.5 290.6v161.1m-10.4-31.4l-.4 3.1c-.1.7-.7 1.2-1.4 1.2l-3-.2-.2 1.9 2.9.4c.7.1 1.2.7 1.2 1.4l-.2 3 1.9.4.4-3.1c.1-.7.7-1.2 1.4-1.2l3.2.2.2-1.9-3.1-.4c-.7-.1-1.2-.7-1.2-1.4l.2-3.2-1.9-.2zm.5 14.5h9.9"/><path class="st1" d="M285.5 410.6c-8.4 0-15.3 6.8-15.3 15.3 0 8.4 6.8 15.3 15.3 15.3h10m0-24.2h-9.9m0-6.4h9.9"/><path class="st1" d="M294.4 425.9c0 4.9-4 8.9-8.9 8.9s-8.9-4-8.9-8.9 4-8.9 8.9-8.9 8.9 4 8.9 8.9zM134 401.6h.2m-24.7-67.5l.5-.2.2-.2m-.7.4H73.9m0 11.8h36.3m0 0v-55.8m0 7.2h200.4m-176.4 98.8v6.2m0-111.7v161m161.3-47.1c0-.4-.4-.8-.8-.8h-12.5c-2.2 0-4.5.4-6.6 1.2l-23.6 8.6c-2.5.9-5.2 1.4-7.9 1.4h-64.2c-7.1 0-12.4-3.2-16.9-8.7l-3.7-4.2c-3.5-4.1-8.6-6.5-14-6.5h.1H135c-.4 0-.8.4-.8.8m150.9-77.8l-.4 3.1c-.1.7-.7 1.2-1.4 1.2l-3-.2-.2 1.9 2.9.4c.7.1 1.2.7 1.2 1.4l-.2 3 1.9.4.4-3.1c.1-.7.7-1.2 1.4-1.2l3.2.2.2-1.9-3.1-.4c-.7-.1-1.2-.7-1.2-1.4l.2-3.2-1.9-.2zm.5 14.5h9.9"/><path class="st1" d="M285.5 308.8c-8.4 0-15.3 6.8-15.3 15.3 0 8.4 6.8 15.3 15.3 15.3h10m0-24.2h-9.9m0-6.4h9.9"/><path class="st1" d="M294.4 324.1c0 4.9-4 8.9-8.9 8.9s-8.9-4-8.9-8.9 4-8.9 8.9-8.9 8.9 4 8.9 8.9zm-149.2-5.6l.4 3.1c.1.7.7 1.2 1.4 1.2l3-.2.2 1.9-2.9.4c-.7.1-1.2.7-1.2 1.4l.2 3-1.9.4-.4-3.1c-.1-.7-.7-1.2-1.4-1.2l-3.2.2-.2-1.9 3.1-.4c.7-.1 1.2-.7 1.2-1.4l-.2-3.2 1.9-.2zm-.5 14.5h-10.4"/><path class="st1" d="M144.8 308.8c8.4 0 15.3 6.8 15.3 15.3 0 8.4-6.8 15.3-15.3 15.3h-10.5m0-24.2h10.4m0-6.4h-10.4"/><path class="st1" d="M135.9 324.1c0 4.9 4 8.9 8.9 8.9s8.9-4 8.9-8.9-4-8.9-8.9-8.9-8.9 4-8.9 8.9zm11.6 87.9l.4 3.1c.1.7.7 1.2 1.4 1.2l3-.2.2 1.9-2.9.4c-.7.1-1.2.7-1.2 1.4l.2 3-1.9.4-.4-3.1c-.1-.7-.7-1.2-1.4-1.2l-3.2.2-.2-1.9 3.1-.4c.7-.1 1.2-.7 1.2-1.4l-.2-3.2 1.9-.2zm-.6 14.5h-12.4"/><path class="st1" d="M147 402.3c8.4 0 15.3 6.8 15.3 15.3 0 8.4-6.8 15.3-15.3 15.3h-12.5m0-24.3h12.4m0-6.3h-12.4"/><path class="st1" d="M135.6 417.6c0 4.9 6.5 8.9 11.4 8.9s8.9-4 8.9-8.9-4-8.9-8.9-8.9-11.4 4-11.4 8.9zM73.8 292.9h36.4m-.7 115.3l.5.2.2.2m-.7-.4H73.9m0-11.8h36.3m0 0v55.8m-36.4-2.8h36.4m0-4.4H311M109.5 105l.5-.2.2-.2m-.7.4H73.9m0 11.8h36.3m0 0V61m0 7.2H310"/><path class="st2" d="M310.4 145.4c0 .6.1 1.1.7 1.1l27.4.9c.7 0 1.3.6 1.3 1.3v52.8c0 .7-.6 1.3-1.3 1.3l-28.4 1.1-.1 17.7c0 .6-.5 1.1-1.1 1.1h.1l-11.7.4-1.8-.5H134.2l-1.8.5h-56l-2.7-2.8V63.8l2.7-2.8h56l1.8.5 161.3 1.1 1.8-.5 12.2.1c.6 0 1 .5 1 1.1v8.3c0 .4.8.8 1.1.9.3 0 2.6.2 3 .2s1.1.4 1.1 1.1v45.5c0 .5-.4.9-1.1 1-.7 0-2.5.1-2.9.2-.5.1-1.1.6-1.1 1.1l-.3 82.4"/><path class="st1" d="M73.8 63.8h36.4m-.7 115.4l.5.1.2.2m-.7-.3H73.9m0-11.9h36.3m0 0v55.9m-36.4-2.9h36.4m0-4.4H310m-4.8-73.6c0 5-4 9-9 9s-9-4-9-9 4-9 9-9 9 4 9 9z"/><path class="st1" d="M300.5 142.3c0 2.3-1.9 4.2-4.2 4.2-2.3 0-4.2-1.9-4.2-4.2s1.9-4.2 4.2-4.2c2.3-.1 4.2 1.8 4.2 4.2zM131.8 83.8c0 5-4 9-9 9s-9-4-9-9 4-9 9-9 9 4.1 9 9z"/><path class="st1" d="M127.1 83.8c0 2.3-1.9 4.2-4.2 4.2-2.3 0-4.2-1.9-4.2-4.2 0-2.3 1.9-4.2 4.2-4.2 2.3 0 4.2 1.9 4.2 4.2zm4.7 116.9c0 5-4 9-9 9s-9-4-9-9 4-9 9-9 9 4.1 9 9z"/><path class="st1" d="M127.1 200.7c0 2.3-1.9 4.2-4.2 4.2-2.3 0-4.2-1.9-4.2-4.2s1.9-4.2 4.2-4.2c2.3 0 4.2 1.9 4.2 4.2zm168.4 21.9v-13.4c0-2.7-1.6-5.1-4.1-6.1l-10.6-4.5c-2.5-1-4.3-3.4-4.3-6V92.3c0-2.7 1.8-5 4.3-6l10.6-4.5c2.5-1 4.1-3.4 4.1-6.1V62.5M132.6 223.1v-10c0-2.7 1.6-5.1 4.1-6.1l12.8-5.4c2.5-1 4.3-3.4 4.3-6V89.5c0-2.7-1.8-5-4.3-6l-12.8-5.4c-2.5-1-4.1-3.4-4.1-6.1V62m162.9 667.5V567.6M134 617.7h.2m-24.7 67.5l.5.2.2.2m-.7-.4H73.9m0-11.8h36.3m0 0V730m0-8H310m-175.8 7.5V567.7M73.8 727.2h36.4m-.7-116.2l.5-.1.2-.2m-.7.3H73.9m0 11.9h36.3m0 0V567m-36.4 2.9h36.4m0 4.4H310"/><path class="st2" d="M310.4 728.5c0 .6-.5 1.1-1.1 1.1l-12 .4-1.8-.5H134.2l-1.8.5h-56l-2.7-2.8V569.9l2.7-2.8h56l1.8.5h161.3l1.8-.5 11.7.4h-.1c.6 0 1.1.5 1.1 1.1v19.5l28.8 1.2c.7 0 1.3.6 1.3 1.3v52.8c0 .7-.6 1.3-1.3 1.3l-27.2.9c-.6 0-1.1.5-1.1 1.1v23.7s.3 1.1 1.1 1.1h2.9s1.1.2 1.1 1.1v45.5c0 .4-.4 1.1-1.1 1.1h-3s-1 .4-1 1l-.1 8.3z"/><path class="st1" d="M273.1 717c6.1 0 11-4.9 11-11V589c0-6.1-4.9-11-11-11H156.3c-6.1 0-11 4.9-11 11v117c0 6.1 4.9 11 11 11h116.8zm37.3-645.4v49.6m.2 311.6s.3-1.1 1.2-1.1h2.6c.2 0 1.1-.3 1.1-1.1v-41.9M310 588.1v58.7m.4 23.7v49.8"/><path class="st2" d="M771.5 452.3c-3.1 0-5.6-2.5-5.6-5.6v-150c0-3.1 2.5-5.6 5.6-5.6h150c3.1 0 5.6 2.5 5.6 5.6v150c0 3.1-2.5 5.6-5.6 5.6h-150z"/><path class="st5" d="M800.5 423.1c2.1 0 3.8-1.7 3.8-3.8 0-2.1-1.7-3.8-3.8-3.8s-3.8 1.7-3.8 3.8c0 2.1 1.7 3.8 3.8 3.8z"/><path class="st5" d="M800.5 425.7c3.5 0 6.4-2.9 6.4-6.4s-2.9-6.4-6.4-6.4-6.4 2.9-6.4 6.4c0 3.6 2.9 6.4 6.4 6.4zm0-103.3c2.1 0 3.8-1.7 3.8-3.8 0-2.1-1.7-3.8-3.8-3.8s-3.8 1.7-3.8 3.8c0 2.1 1.7 3.8 3.8 3.8z"/><path class="st5" d="M800.5 325c3.5 0 6.4-2.9 6.4-6.4s-2.9-6.4-6.4-6.4-6.4 2.9-6.4 6.4 2.9 6.4 6.4 6.4z"/><path class="st5" d="M782.4 432c-3.7 0-6.6-3-6.6-6.6V311.8c0-3.7 3-6.6 6.6-6.6h36.3c3.7 0 6.6 3 6.6 6.6v113.6c0 3.7-3 6.6-6.6 6.6h-36.3z"/><path class="st5" d="M803.7 332.3h-3.4l-1.9.8-5 4.8-.7 1.7v61.6c0 2.5 2 4.5 4.5 4.5h6.5c2.5 0 4.5-2 4.5-4.5v-64.4c0-2.5-2-4.5-4.5-4.5z"/><path class="st6" d="M839.8 419.3c0 2.1-1.7 3.8-3.8 3.8s-3.8-1.7-3.8-3.8c0-2.1 1.7-3.8 3.8-3.8 2.1.1 3.8 1.8 3.8 3.8z"/><path class="st6" d="M842.9 419.3c0 3.8-3.1 6.8-6.8 6.8-3.8 0-6.8-3.1-6.8-6.8 0-3.8 3.1-6.8 6.8-6.8s6.8 3.1 6.8 6.8zm32.2-2.4c0-2.1 1.7-3.8 3.8-3.8s3.8 1.7 3.8 3.8c0 2.1-1.7 3.8-3.8 3.8s-3.8-1.7-3.8-3.8z"/><path class="st6" d="M855.6 416.9c0-12.9 10.4-23.3 23.3-23.3s23.3 10.4 23.3 23.3-10.4 23.3-23.3 23.3-23.3-10.5-23.3-23.3z"/><path class="st6" d="M859.4 416.9c0-10.7 8.7-19.5 19.5-19.5 10.7 0 19.5 8.7 19.5 19.5 0 10.7-8.7 19.5-19.5 19.5-10.8-.1-19.5-8.8-19.5-19.5z"/><path class="st6" d="M850.9 416.9c0-15.4 12.5-28 28-28 15.4 0 28 12.5 28 28 0 15.4-12.5 28-28 28-15.5-.1-28-12.6-28-28z"/><path class="st6" d="M864.2 416.9c0-2.1 1.7-3.8 3.8-3.8s3.8 1.7 3.8 3.8c0 2.1-1.7 3.8-3.8 3.8-2.1-.1-3.8-1.7-3.8-3.8zm18.3-8c0-2.1 1.7-3.8 3.8-3.8s3.7 1.7 3.7 3.8-1.7 3.8-3.7 3.8-3.8-1.8-3.8-3.8zm-11.4-1.8c0-2.1 1.7-3.8 3.7-3.8s3.8 1.7 3.8 3.8-1.7 3.7-3.8 3.7-3.7-1.6-3.7-3.7zm11.4 17.8c0 2.1 1.7 3.8 3.8 3.8s3.7-1.7 3.7-3.8c0-2.1-1.7-3.8-3.7-3.8s-3.8 1.7-3.8 3.8zm-2.4 4c0 .9.7 1.6 1.6 1.6.9 0 1.6-.7 1.6-1.6s-.7-1.6-1.6-1.6c-.9 0-1.6.8-1.6 1.6zm-13.1-5.3c0 .9.7 1.6 1.6 1.6.9 0 1.6-.7 1.6-1.6s-.7-1.6-1.6-1.6c-.9 0-1.6.7-1.6 1.6zm13.1-18.8c0-.9.7-1.6 1.6-1.6.9 0 1.6.7 1.6 1.6s-.7 1.6-1.6 1.6c-.9 0-1.6-.7-1.6-1.6zm-13.1 5.4c0-.9.7-1.6 1.6-1.6.9 0 1.6.7 1.6 1.6s-.7 1.6-1.6 1.6c-.9 0-1.6-.7-1.6-1.6zm4.1 16.4c0 2.1 1.7 3.8 3.7 3.8s3.8-1.7 3.8-3.8c0-2.1-1.7-3.8-3.8-3.8s-3.7 1.8-3.7 3.8zm21.8-13.2v-.8h-1.3l-3.9 2.8h-2c-.6 0-.9-.1-.9.4v2c0 .6.4.4.9.4h2l3.9 2.8h1.3v-.8l-.1-.1c-1.1-.7-1.9-2-1.9-3.4 0-1.3.8-2.6 2-3.3z"/><path class="st6" d="M894.6 420.2c-1.5 7.3-8 12.8-15.7 12.8-8.9 0-16.1-7.2-16.1-16.1s7.2-16.1 16.1-16.1c7.7 0 14.2 5.5 15.7 12.8-1.7.2-2.9 1.6-2.9 3.3-.1 1.7 1.2 3.1 2.9 3.3z"/><path class="st1" d="M244.5 640.5h-1m-1.1-10.6v1.1h-1v2.1m2.1 2.1h2.1v1.1h-2.1v-1.1m1-4.2h1.1v1h-1.1v-1m-1 1h1v1.1h-1V632m-5.3 2.1h3.2v-1h2.1v2.1h-1.1v2.1m2.1 0h1.1v1.1h-1.1v-1.1m0 2.2h1.1v1m-2.1-2.1h1v1.1m-1 1v-1m-1.1-2.2h1.1"/><path class="st1" d="M241.4 636.3h-1.1v2.1m-1.1-2.1v-1.1m1.1 3.2h-1.1v-1.1h-1m0 0v-1h1m-2.1-4.3h2.1v1.1h-1v1m2.1-3.1h-3.2m-1 0h1v-1.1h5.3m-6.3 3.2V632H235m1.1-2.1v1.1m-1.1 1v-1h-2.1m-1.1 0h1.1v-1.1h3.2m-3.2 1.1v2.1h-1.1V631m7.4 4.2h-3.1m1-4.2v1m-1 3.2v-1.1H235m0 0v-1h1.1m-2.2-1.1h1.1v1.1h-1.1V632m7.5 1.1h-1.1V631m3.2 6.3v1.1m0 1.1h-2.1v-3.2m-1.1 3.2h1.1v1h-1.1v-1m-6.4-16h3.2v3.2h-3.2v-3.2"/><path class="st1" d="M238.2 622.5h-5.3v5.3m-1.1-6.4h7.4m-1 6.4v-5.3m1-1.1v7.4m-6.3-1h5.3"/><path class="st1" d="M239.2 628.8h-7.4v-7.4m20.2 1.1h-1.1v-1.1h1.1v1.1m8.3 13.8h-1.1v-1.1h1.1v1.1m-5.2 5.3h-1v-2.1h1v-2.2h2v2.2h-2v2.1m6.2-4.3v-1h1.1v1h-1.1m-9.3-7.4v-2.1h-1.1v-1.1"/><path class="st1" d="M250.9 624.6v-1.1h3.2v-1H253v-1.1h1.1v1.1h1v1h1.1v-2.1h1.9v1.1h1.1v-1.1h2.1v1.1h-1v1h1v1.1h-1v1.1h2.1v2.1h-1.1v-1.1h-2.1v1.1h-1.1v1h3.2v1.1h1.1v1.1h-2.1v1h1v2.1h-1v-1h-2.2v1h-1v1.1h1v1.1h-1.9v-1.1h-1.1"/><path class="st1" d="M252 633.1V632h3.1v-1H253v-1.1h-1m3.1 5.3v-1.1h-1v-1H252m-1.1-6.4h2.1v-2.1h-2.1m4.2 3.2h1.1v1h-1.1v-1m-1-1.1v3.2m2.1 2.1v1.1m-1.1-8.5v1.1h1.1v-1.1h-1.1m1.1-1.1v1.1m0 8.5h1.9"/><path class="st1" d="M254.1 629.9h3v-3.2m1 5.3h-1.9m1.9-2.1v1.1m-1-4.3h-3m2.1-2.1h.9v1.1m0 0h1v1m0-4.2h-1v1h-.9m1.9 3.2h1.1"/><path class="st1" d="M259.2 626.7v-1h-1.1v-3.2m0 10.6V632m0-1h2.2m0 0v-1.1h-2.2m-4 18.9H253v-4h1.1v4m1 3.2v-7.2h7.3v7.2h-7.3m6.2-14.7v3.2h1.1v2.1h-1.1v-1h-3.2v1h1.1v1.1h-2.1v-2.1h-.9v-1.1h3v-1h-1.1v-2.2h1.1v2.2h1.1v-2.2h1m-7.2 6.4v-1.1h2.1v1.1h-2.1m-3.2-3.2h1.1v1.1h1v2.1h-1v1.9h-1.1v-5.1"/><path class="st1" d="M247.7 645.6h1.1v-.8h1v.8h-1v1.1h1v1.1h1.1v1h1.1v1.1h2.1v2.1h-4.3v-1.1h1.1v-2.1h-1.1v1.1h-2.1v-2.1m-5.3 2.1h-1v-1.1m-1.1-2.1h1.1m-1.1-3h2.1v-1.1h1.1m0 3h1m-2.1-.8h-1m14.8.8v5.3h5.1v-5.3h-5.1"/><path class="st1" d="M260.3 646.7v3.2h-3.2v-3.2h3.2m-12.6 1.1h1.1v-1.1h-1.1m-6.3 2.1h1v1.1m-19.8-34.5v8.5h-.3v-8.5h.3m-4.2-1.8v.9h-1.1v-.9h1.1m-1.1 11.2h1.1v.9h-1.1v-.9m4.3-11.2v.9h-1.1v-.9h1.1m-1.1 11.2h1.1v.9h-1.1v-.9m1.8 10.1v-8.5h.3v8.5h-.3m.3 2.6v8.5h-.3v-8.5h.3m-4.2-1.8v.9h-1.1v-.9h1.1m-1.1 11.2h1.1v.9h-1.1v-.9m4.3-11.2v.9h-1.1v-.9h1.1m-1.1 11.2h1.1v.9h-1.1v-.9m1.8 10.2v-8.5h.3v8.5h-.3m.3 2.5v8.5h-.3v-8.5h.3m-4.2-1.8v.9h-1.1v-.9h1.1m-1.1 13.5h1.1v1h-1.1v-1m4.3-13.5v.9h-1.1v-.9h1.1m-1.1 13.5h1.1v1h-1.1v-1m-.5 9.9l1.6.5v.7l-5.7-1.9v-.9l5.7-2v.9l-1.6.5v2.2m-2.9-5l.7.4.9.1 1.1-.1.7-.4.4-.5.1-.7-.3-1.1-.4-.5m0 0v-.2h.9"/><path class="st1" d="M221.2 673.2l.4.9.1.9-.1 1-.7.7-.9.6-1.3.2-1.2-.2-.9-.6-.5-.7-.2-1 .2-.9.3-.9"/><path class="st1" d="M216.4 673.2h.9v.2"/><path class="st1" d="M217.3 673.4l-.5.5-.4 1.1.2.7.5.5m-1.2 11.5v-1.1l3.2-1.4-3.2-1.2v-1.1h5.7v.7h-4.8l3.2 1.5v.5l-3.2 1.4h4.8v.7h-5.7m-2.5-50.4v33.6h-.3v-33.6h.3m-9.5 37.9v-41.9h.5v41.9h-.5m4.2-1.1h1.3v.9h-1.3v-.9m-7.9 4.2v.9h-1.1v-.9h1.1m11.1-4.2h1.1v.9h-1.1v-.9m-8.1 4.2v.9h-1.1v-.9h1.1m3.7 1.1l4.4-2.1h-4.4v-.7h5.5v.7l-4.8 2.5h4.8v.7h-5.5v-1.1m-22.6-32.2l-.4-.5m.7 0h-.7m.7 0l.2.7.2.7-.2.9-.4.7-.7.4-.8.1-.9-.1-.7-.4-.6-.5-.1-.9.1-.7.4-.5.5-.4h.9"/><path class="st1" d="M182.5 646.7h.4v2.8m0 0l1-.3.5-1.1-.1-.9m22.2 34.7v-.6l7.1 2.2v.5l-7.1-2.1m-25.1-15.1h-.7m0 0l-.1-1.2.3-1.2.5-.4h.6m0 0h3v.5h-.6m0 0l.4.6.2.9-.4.8-.9.4-.7-.2-.5-.5-.4-2m0 0h-.1"/><path class="st1" d="M182 664.5l-.6.4-.1.7.1 1.2m25.7 17.5h.8v.2m0 0l-.3.6-.2.8.2.9.7.4.5-.2.4-.5.2-1.3.5-.7.9-.3 1.2.5.4.5.1.9-.1 1.1-.4.7"/><path class="st1" d="M208.3 687.9l-.5-.2-.6-.3-.5-1.3.4-1.8m4 3.6l.6-.9.1-.9-.1-.9-.7-.3-.6.2-.3.5-.2 1-.5.9-1.1.4M180.7 669h.6m0 0l-.4-.6-.2-.7v-.1m0 0h.7m0 0v.3l.6 1.1m0 0h3v.7h-4.3v-.7m23.7-55.9v12.7h-.5v-12.7h.5m-23 71.1h-.7m0 0l-.1-1.3.3-1.2.5-.4.6-.1m0 0h3v.7h-.6"/><path class="st1" d="M184.4 681.9l.4.5.2.9-.4.9-.9.3-.7-.2-.5-.5-.4-1.9m0 0h-.1m0 0l-.6.3-.1.7.1 1.3m19.1-55.7h.6v2.1h-.6v-2.1m-17.6 58.9l1-.4.5-.9-.5-1.2m.7 0h-.7m-2.1 3l-.5-.4-.6-.7-.1-.7.3-1.2"/><path class="st1" d="M184.6 684.9l.2.5.2.7-.2.7-.4.7-.7.4m-2.8-3h.9m0 0l-.4.5-.1.7.3.9 1.3.4m14.8-2.5v-1.3m0 0v-1.2l.4-.9 1-.7 1.4-.3 1.3.3 1 .7.4.9v1.1"/><path class="st1" d="M203.2 683.5v1.4h-5.5m-27.2-8.2l3.2 1.1v1.4l-11.2-3.7v-1.8l11.2-3.7v1.4l-3.2 1.1v4.2m27.2 11.2v-2.1m4.9 2.1v-.7h-4.4v.7"/><path class="st1" d="M197.7 685.8h.5v.7h4.4v-.7h.6v2.1m-38.2-7.8l1.4.4.9 1.2m0 0h.2m0 0l.3-.9.6-.7.8-.3.9-.2 1.4.3 1.1.7.7 1.4.4 2m0 0v3.2h-11.2v-3m0 0v-1.8l.4-1.2.9-.9 1.2-.2m15.7-26v-.7h.4m0 0l-.5-1.2.1-.6.4-.5.7-.3h1.8l.8.3.4.7.2.6-.4 1m0 0h1.8v.7h-5.7m-15.9 8.3l-.9 1.4-.3 1.8v.9l.3.7.7.5.8.2 1-.5.5-1.1.7-2.3.4-.9.7-.7.7-.3 1.1-.2 1.2.2 1.1.9.7 1.2.3 1.6-.3 2.1-.5 1.6"/><path class="st1" d="M173 669.5h-2v-.2m0 0l1.1-1.6.3-1.7v-1.1l-.3-.9-.7-.3-.7-.2-1.1.3-.7.9-.5 2.1-.4 1.1-.5.7-.9.5-1.2.2-1.3-.2-.9-.8-.7-1.1-.3-1.6.1-1.8.8-1.5m0 0h1.7m15.9-4.6l3-1.1-3-1.2v-.7l5.7 2.2v.8l-1.8-.8-3.9 1.6v-.8m-8.5-3.8h1.5v6.4h-11.2v-1.4h9.7v-5m9.1 4.6v1.3h1.9m0 0h.9l.3-.7-.1-.6m.5 0h-.5"/><path class="st1" d="M184.8 658.5l.2.7-.4.9-1 .4m0 0h-2.3v.5h-.6v-.5h-1.2v-.7h1.2v-1.3h.6m-13.1-7.2h4v-5.5h1.5v6.9h-11.2v-6.9h1.3v5.5h3v-5.1h1.4v5.1m16.2 20.7l-.1-.9-.4-.5m.7 0h-.7"/><path class="st1" d="M184.6 670.6l.2.5.2.9-.2.9-.4.7-.7.3-.8.2-.9-.2-.7-.3-.6-.7-.1-.8.1-.7.4-.5.5-.3.9-.2"/><path class="st1" d="M182.5 670.4h.4v3m0 0l1-.4.5-1m-21.9-30.6v-1.8l.6-1.2.8-.9 1.6-.3 1.1.1.9.6.7.7.5.9"/><path class="st1" d="M168.7 639.5l5-3.9v1.9l-4.6 3.5v1.6h4.6v1.6h-11.2v-2.8m22.5 38v.7h-4.3v-.7h.6m0 0l-.6-.5-.1-.6.1-.7.6-.3-.6-.7-.1-.6.3-.8.5-.4h.7"/><path class="st1" d="M182.1 674.8h2.9v.7h-2.5m0 0h-.9l-.3.7.5.9h.3m0 0h2.9v.7h-2.5"/><path class="st1" d="M182.5 677.8l-.9.2-.3.5.5.9m0 0h3.2m37.3-66.6v-8.5h.3v8.5h-.3m-58.5 29.8h4v-1.2m0 0v-1.1l-.5-.8-.7-.6-1.1-.2m-1.7 2.5v1.4m1.7-3.9l-.9.2-.5.6-.3.7v1m18.5 29.9l-.9.3-.1.7m1 1.3v-2.3m-1 1l.1.9.9.4m1.8-20l.2-.9-.4-.9-1-.1-1.3.1-.3.8.5 1m0 0h2.3m-20.3 32.2h3.1V684m0 0v-1.1l-.3-.7-.5-.5h-.9m3 3.9h4v-1.1m0 0v-1.6l-.3-1-.7-.6-.9-.1m-6.5 3v1.4m1.4-3.9h-.7l-.6.5-.1.7v1.3m4.4-.2v1.6m2.1-4.4l-1.1.1-.7.7-.3.8v1.2m-4.3-9.4l5.3 1.8v-3.5l-5.3 1.7m36.4 6.6l-1 .1-.7.7-.4 1.5m0 0v.7m4.4-.7l-.1-.9-.2-.6-.7-.7-1.3-.1m-2.1 3h4.4v-.7m-19.9-1.6l.2 1.2.3.5.4.2.7-.2.1-.7-.5-1m0 0h-1.2m0-17.4l.2 1.5.3.3.4.2.7-.2.1-.5-.5-1.3m0 0h-1.2m-1.4-16.2l.1.9.9.3m0 0v-2.1"/><path class="st1" d="M182.3 647.4l-.9.2-.1.7m35.5 31.8l2.6.9v-1.8l-2.6.9m22.4-28.1h-7.4v-7.2h7.4v7.2m9.6-9.4h-3.2v4.1h-1.1v1.1h2.2v-4.1h1v1.9"/><path class="st1" d="M247.7 647.8h-1v3.1h-1.1v1.1h-1.1v-1.1h-1v1.1h-1.1v-2.1m-1-1.1h-1.1v-2.1m1.1 0v-1.1h-1.1v-1.9m2.1-1.1h-3.2v1.1h-1v-1.1h-1.1v-1h1.1v-1.1h-1.1v-1h-1v4.2h-2.2v-1.1h-2.1v-1h2.1v-1.1h-2.1v-1h1.1v-2.2h-1.1v-1h1.1v-2.2h2.1m8.5 6.4v1.1h-1.1v1m1.1 0v3m1 0v-5.1"/><path class="st1" d="M238.2 637.3v1.1h1m-3.1-3.2v1.1h1v1h1.1m-3.2-3.2v1.1h1.1m3.1 3.2v1.1h-1v1h1v1.1h2.2v-1.1h2.1m4.2 6.2v1.1m-6.3-3v.8h1v-.8m-1 1.9v2.1m1 1.1h1.1v-1.1h1v-1h-1v-1.1h-2.1m-4.3 0v3.2h-3.2v-3.2h3.2"/><path class="st1" d="M232.9 645.6v5.3h5.3v-5.3h-5.3m2.1-10.4h-1.1v1.1"/><path class="st1" d="M235 636.3h-2.1v1h2.1v-1m-1.1 4.2v-4.2m1.1 5.3h-1.1v1m0-2.1h1.1m0 2.1v-1m0-1.1v-3.2m-1.1 5.3h1.1m1.1-6.3H235v-1.1m3.2 6.4v1m-3.2-5.3h1.1v1.1h1v-1.1h-1v-1m2.1 6.3h1m0 0v-1h-1m7.4-9.6h1.1v-2.1h1v-1.1h1.1v1.1h3.2"/><path class="st1" d="M250.9 626.7h-1.1v1.1h-1v-1.1h1v-1h-3.1v1h-1.1v1.1h1.1v1h-1.1v1.1h-2.1v-1.1h-1.1v-1h-1v-2.1h-1.1v-2.2h1.1v-1h1v2.1h3.2v-1.1h-1.1v-1h-1v-1.1h1v1.1h1.1v-1.1h2.1v1.1h-1v2.1h1v-1.1h1.1v-1h1v1h-1v1.1h2.1m4.2 10.6v1.1h-1v1H253v1.1h-1v1.1h-1.1v1h-1.1v3.2h-1v-1.1"/><path class="st1" d="M245.6 640.5h1.1v-1h-1.1v-1.1h1.1v1.1h1v-1.1h1.1v2.1h1v-1h1.1v-1.1h-1.1v-1.1h3.2v-1h-1v-2.2h-2.2v1.1h1.1v1.1h-4.2v1h-1.1v-1h1.1v-2.2h-1.1V632m-3.2-6.3v2.1m0 0h1.1v1m0-3.1h-1.1m1.1 3.1h1v-1h-1m1-2.1v1m-1 1.1v-2.1m1 1h1.1m0-2.1v1.1h-1.1m1.1 1v-1h1.1m0 0v-1.1h-1.1m5.3 0v2.1m-4.2 13.8v1.1m1-7.5v1.1"/><path class="st1" d="M252 629.9v1.1h-4.3v2.1m-1 8.5h2.1v-1.1h-2.1m1-5.3h1.1v-1.1h-1.1m0-1h4.3v1m0 0h1v1.1h2.1"/><path class="st7" d="M304.6 488.1H116.8"/><path d="M303.2 486.1l7.7 2-7.7 2.1v-4.1zm-185 0l-7.7 2 7.7 2.1v-4.1z"/><path class="st1" d="M110.5 488.1H73.9"/><path class="st7" d="M67.9 488.1H37.6"/><path d="M66.5 486.1l7.7 2-7.7 2.1v-4.1z"/><path class="st1" d="M110.4 445.4v48.4"/><path class="st7" d="M304.6 516.4H80.2"/><path d="M303.2 514.4l7.7 2-7.7 2.1v-4.1zm-221.6 0l-7.7 2 7.7 2.1v-4.1z"/><path class="st1" d="M310.8 445.2v76.7M74 397.1v124.8"/><path class="st7" d="M475 265.6h148.8"/><path d="M476.4 267.7l-7.7-2.1 7.7-2v4.1zm146 0l7.7-2.1-7.7-2v4.1z"/><path class="st1" d="M468.6 297.3v-37.2m161.6 37.2v-37.2"/><path class="st7" d="M447.6 445.7V296.9"/><path d="M449.7 444.3l-2.1 7.7-2.1-7.7h4.2zm0-146l-2.1-7.7-2.1 7.7h4.2z"/><path class="st1" d="M475.4 290.5h-33.5m132.4 161.6H441.9"/><path class="st7" d="M116.8 35.1H80.2"/><path d="M115.4 33.1l7.6 2-7.6 2.1v-4.1zm-33.8 0l-7.7 2 7.7 2.1v-4.1z"/><path class="st1" d="M74 66.8V29.7"/><path class="st7" d="M49.4 194.8V90.4"/><path d="M51.5 193.4l-2.1 7.6-2-7.6h4.1zm0-101.6l-2.1-7.7-2 7.7h4.1z"/><path class="st1" d="M114.8 201h-71"/><path class="st7" d="M112.1 210.4L72 257.9h140.8"/><path d="M109.6 210.1l6.5-4.5-3.3 7.2-3.2-2.7z"/><path class="st7" d="M49.4 53.8v-37"/><path d="M51.5 52.4l-2.1 7.7-2-7.7h4.1z"/><path class="st1" d="M114.8 84.1h-71m88.9-23.3H43.8"/><path class="st7" d="M773.4 244.9h99.5"/><path d="M774.8 247l-7.7-2.1 7.7-2v4.1zm96.7 0l7.6-2.1-7.6-2v4.1z"/><path class="st1" d="M800.7 318.6v-49m78.4 147.3V239.5m-112.8 57.8v-55.4"/><path class="st7" d="M129.4 35.1H304"/><path d="M130.8 37.2l-7.7-2.1 7.7-2v4.1zm171.8 0l7.7-2.1-7.7-2v4.1z"/><path class="st1" d="M310.4 133.1V29.7M123 74.7v-45"/><path class="st7" d="M377 135.3V68.2"/><path d="M379.1 133.9l-2.1 7.7-2-7.7h4.1zm0-64.3l-2.1-7.7-2 7.7h4.1z"/><path class="st1" d="M311.4 62h71.3m-86.5 80.3h86.5m-71.8 345.8h29.3m.1-45.2v50.9"/><path class="st7" d="M839.5 274.3h-32.6"/><path d="M808.3 272.2l-7.7 2.1 7.7 2v-4.1z"/><path class="st7" d="M733.9 458.1v48.7"/><path d="M731.8 459.5l2.1-7.7 2 7.7h-4.1z"/><path class="st1" d="M800.6 419.1h-72.4"/><path class="st7" d="M733.9 324.8v88.3"/><path d="M731.8 326.2l2.1-7.6 2 7.6h-4.1zm0 85.5l2.1 7.6 2-7.6h-4.1z"/><path class="st1" d="M769.1 452h-40.9"/><path class="st7" d="M960.7 458.1v20.8"/><path d="M958.7 459.5l2-7.7 2.1 7.7h-4.1z"/><path class="st1" d="M965.3 416.3h-72.5"/><path class="st7" d="M960.7 376.9v33.4"/><path d="M958.7 408.9l2 7.7 2.1-7.7h-4.1z"/><path class="st1" d="M965.3 452h-41M800.5 318.7h-72.3M49.4 84.1v-24"/><path class="st8" d="M346.5 488.1h36.1"/><path class="st9" d="M347.9 490.2l-7.7-2 7.7-2.1v4.1z"/><path class="st10" d="M800.6 274.3h-34.3m-6 0h-35.5"/><path d="M758.9 272.2l7.7 2.1-7.7 2v-4.1z"/><path class="st8" d="M549.4 588.1h251.9m-145.4 77.1v-99.6m-72.4 99.6v-99.6m142 99.6v-99.6"/><path class="st7" d="M806 428.2l34.6 78.6h130.7"/><path d="M804.7 430.3l-1.2-7.8 5 6.2-3.8 1.6z"/><path class="st10" d="M733.9 419.3V452m226.8-35.4v35.2"/><text transform="translate(189.24 28.682)" class="st9 st11 st12">31.5</text><text transform="translate(93.11 29.378)" class="st9 st11 st12">b</text><text transform="rotate(-90 96.708 53.718)" class="st9 st11 st12">21</text><text transform="rotate(-90 59.804 16.815)" class="st9 st11 st12">4</text><text transform="translate(100.525 248.73)" class="st9 st11 st12">3 x M3; 4 deep</text><text transform="rotate(-90 244.364 -126.492)" class="st9 st11 st12">14.5</text><text transform="rotate(-90 410.61 -30.814)" class="st9 st11 st12">29</text><text transform="translate(534.882 257.892)" class="st9 st11 st12">29</text><text transform="translate(799.67 238.436)" class="st9 st11 st12">20.3</text><text transform="translate(726.502 267.689)" class="st9 st11 st12">6.2</text><text transform="translate(178.106 481.697)" class="st9 st11 st12">36.3</text><text transform="translate(184.731 509.945)" class="st9 st11 st12">c</text><text transform="translate(358.323 481.697)" class="st9 st11 st12">5.3</text><text transform="translate(88.062 481.697)" class="st9 st11 st12">a</text><text transform="rotate(-90 552.83 -174.545)" class="st9 st11 st12">18</text><text transform="rotate(-90 609.93 -118.632)" class="st9 st11 st12">6</text><text transform="translate(594.768 579.925)" class="st9 st11 st12">Front I</text><text transform="translate(665.468 579.925)" class="st9 st11 st12">Front II</text><text transform="translate(736.168 579.925)" class="st9 st11 st12">Front III</text><text transform="translate(559.368 605.425)" class="st9 st11 st12">a</text><text transform="translate(594.768 605.425)" class="st9 st11 st12">6.1</text><text transform="translate(665.468 605.425)" class="st9 st11 st12">6.6</text><text transform="translate(736.168 605.425)" class="st9 st11 st12">7.1</text><text transform="translate(559.368 631.025)" class="st9 st11 st12">b</text><text transform="translate(594.768 631.025)" class="st9 st11 st12">8.3</text><text transform="translate(665.468 631.025)" class="st9 st11 st12">8.8</text><text transform="translate(736.168 631.025)" class="st9 st11 st12">9.3</text><text transform="translate(559.368 656.525)" class="st9 st11 st12">c</text><text transform="translate(594.768 656.525)" class="st9 st11 st12">42.3</text><text transform="translate(665.468 656.525)" class="st9 st11 st12">42.8</text><text transform="translate(736.168 656.525)" class="st9 st11 st12">43.3</text><text transform="rotate(-90 701.045 -254.37)" class="st9 st11 st12">6.4</text><text transform="translate(855.828 500.69)" class="st9 st11 st12">2 x M2; 4 deep</text><text transform="translate(841.438 711.863)" class="st9 st11 st12">Not to scale</text><text transform="translate(841.438 732.663)" class="st9 st11 st12">Dimensions in mm</text></svg>