<svg version="1.1" id="Ebene_1" xmlns="http://www.w3.org/2000/svg" x="0" y="0" viewBox="0 0 270.1 318.5" xml:space="preserve"><style>.st0{stroke-linecap:round;stroke-linejoin:round}.st0,.st1{fill:none;stroke:#000;stroke-width:.2835;stroke-miterlimit:10}.st6{fill-rule:evenodd;clip-rule:evenodd}.st7,.st8{fill:none;stroke:#000;stroke-miterlimit:3.8637}.st7{fill-rule:evenodd;clip-rule:evenodd;stroke-width:.2268}.st8{stroke-width:.2835}.st9{font-family:Helvetica,Arial,sans-serif}.st10{font-size:11px}</style><circle class="st0" cx="162.5" cy="100.4" r="5.8"/><circle class="st0" cx="162.5" cy="100.4" r="4.2"/><circle class="st0" cx="162.5" cy="233.5" r="5.8"/><circle class="st0" cx="162.5" cy="233.5" r="4.2"/><path class="st0" d="M203 67.5v198.6m1.6-198.6v198.6m-4.7.6V67m50.2 181.6h-38v18.1m38-14.6v-26.5M212.1 67v18.2h38.2"/><path class="st0" d="M212.1 68.4h7.9c.5 0 .9.4.9.9v12.9c0 .5-.4.9-.9.9h-7.9m0 167.5h7.9c.5 0 .9.4.9.9v13c0 .5-.4.9-.9.9h-7.9"/><path class="st1" d="M130.5 240.4c15.9-1 24-11.3 24-11.3h-1.3v.4h-5.9l-.8.8v5.5l-3.4 1.7h-11.8l-.8.8v2.1z"/><path class="st0" d="M130.5 81.7l.8.5 3.8 2.2 3.5 2.3 3 2.3 2.9 2.3 2.5 2.4 2.3 2.4 2.1 2.4 1.8 2.4 1.8 2.4.8 1.3h-2.6v-.4h-5.9l-.8-.8v-7.2h-15.2l-.8-.8V81.7"/><path d="M171.3 193.5h-1.2v-.5h-1.9v-10h1.9v5.3h1.6zm.5-47.9h-1.7v5.1h-1.9v-9.9h1.9v-.5h1.7zm-.6 7.4h.7v27.8h-.7z" fill="#f5f5f5"/><path class="st0" d="M137 96.2l-6.5-6.6m20.6 14.6l-4.6-4.5m-3.4-3.5l-12.6-12.5m4.6 156.1l-2.3-2.3m18.2-5.2l-2.9-2.9m-8.2 9.2l-1.2-1.2m29.5-53.5l.5-.9m-.5 3.5l1.9-3.2m-1.9 5.7l1.9-3.2m-1.9 5.8l1.9-3.3m-1.3 4.7l2.8-4.7m-1.5 5.1l1.4-2.5m-3.3-47.6l1.4-2.5m-1.4 5l3.2-5.5m-3.2 8.1l3.6-6.3m-3.4 8.6l1.7-3m1.2-2.1l.5-1m-2 6.1l.3-.5m1.1 5.8l.6-1.3m-.6 6.4l.6-1.3m-.6 6.4l.6-1.3m-.6 6.3l.6-1.2m-.6 6.3l.6-1.3m-.3 5.8l.3-.7m-3.6 2.9v-32.3m1.9 0V183m-1.9-12.4h1.9m-1.9-5.6h1.9m-1.9-3.4h1.9m-1.9-5.9h1.9m-1.9-3.7h1.9m1.2 41.5h-1.2v-.5h-1.9v-10h1.9v5.3h1.6zm.5-47.9h-1.7v5.1h-1.9v-9.9h1.9v-.5h1.7zm-.6 7.4h.7v27.8h-.7zm-3 28.8h1.9"/><path class="st0" d="M130.5 98.2V61.3l.9-1h67.8l.7.7v6h2.6l.5.5h1.6l.6-.5h44.2l.9.9v157.7h4.8l.6.4v25.6l-.6.5h-4.8v13.8l-.9.8h-44.2l-.6-.6H203l-.5.6h-2.6v5.9l-.7 1h-67.8l-.9-1v-37.3 3.1m.8-140.1v-2.1m0 141.3v-2.2"/><path class="st0" d="M155.8 104.6c8.4 11.4 15.9 28.7 16 35.6.1 6.9-.2 45.9-.6 53.2-.3 7.3-7.2 25.7-17.5 36.4"/><path d="M146.6 103.3v-3.9l-1.4-.9H89.1v-.3H49.7l-.6.5v12.5l1.1 1h45.9l2-3.4h51.7l1.6-2.7v-1.4l-.6-.6h-4.2v-4.7m0 131v4l-1.4.9H89.1v.3H49.7l-.6-.5v-12.5l1.1-1.1h45.9l2 3.4h51.7l1.6 2.7v1.5l-.6.6h-4.2v4.7" stroke="#000" stroke-width=".283" stroke-linecap="round" stroke-linejoin="round" stroke-miterlimit="10" fill="#f5f5f5"/><path class="st0" d="M146 108.8l4.8-4.7m-10.8 4.7l6.6-6.5m-12.5 6.5l10.3-10.3m-16.3 10.3l10.3-10.3m-16.3 10.3l10.3-10.3m-16.3 10.3l10.4-10.3m-16.4 10.3l10.3-10.3m-16.3 10.3l10.3-10.3m-19.7 13.7l3.2-3.2m.3-.2l10.2-10.3m-19.6 13.7l13.7-13.7m-19.7 13.7l13.7-13.7m-19.7 13.7l13.7-13.7m-19.7 13.7l14.1-14m-20.1 14l14.2-14m-20.2 14l14.2-14m-20.1 14l14-14M49.1 110l11.8-11.8M49.1 104l5.9-5.8m84.6 137l10.2-10.5M133.6 235l10.2-10.1M127.6 235l10.2-10.1M121.6 235l10.2-10.1M115.6 235l10.2-10.1M109.6 235l10.2-10.1M103.6 235l10.2-10.1M97.7 235l10.2-10.1M91.7 235l10.2-10.1m-16.6 10.6l12-12m-18 12l14.1-14.2m-20.1 14.2l14.1-14.2m-20.1 14.2l14.1-14.2m-20 14.2l14-14.2m-20 14.2l14.1-14.2m-20 14l14-14m-14.4 8.4l8.4-8.4m-8.4 2.4l2.4-2.4m-2.4 1.1V111.2m1.1 110.1V112.2m45.9 13.4v-13.4m0 109.1v-69.4m53.7 72.8V108.8m.4-.6H98.1m0 117.2h52.1m-52.1-96.1v-21.1m0 117.2v-73.3m53.3 75.3V106.1M49.1 222.8h47.8m0-112H49.1"/><path class="st1" d="M30.3 166.9h3.6"/><path fill="none" stroke="#000" stroke-width=".283" stroke-miterlimit="10" stroke-dasharray=".5544,2.772" d="M36.6 166.9h2"/><path fill="none" stroke="#000" stroke-width=".283" stroke-miterlimit="10" stroke-dasharray="6.93,2.772,.5544,2.772" d="M40 166.9h220.1"/><path class="st1" d="M261.5 166.9h3.5"/><path class="st6" d="M161.7 165.2l-2.3 3.1 8.4 3.7z"/><path class="st7" d="M160.5 166.7L132 145.5H57.2"/><path class="st6" d="M21.3 119.9h3.8l-1.9-9zm3.8 93.9h-3.8l1.9 9z"/><path class="st7" d="M23.2 119.9v93.9"/><path class="st8" d="M49.1 111H20.7m28.4 111.7H20.7m28.1-124V17.3m119.3 148.8V16.8"/><path class="st6" d="M158.5 17.5v3.8l9.1-1.9zM57.6 21.3v-3.8l-9 1.9z"/><path class="st7" d="M160 19.4H56.8"/><path class="st6" d="M141.9 39.3v3.9l9-2zm-84.3 3.9v-3.9l-9 1.9z"/><path class="st8" d="M151.6 110.5V38.6"/><path class="st1" d="M55.6 41.2h88.1"/><path class="st6" d="M101.6 241.8l-2.7-3.7 10-4.4z"/><path class="st7" d="M100.3 239.8l-22 16.2H5.4"/><text transform="translate(56.697 141.393)" class="st9 st10">Sensor glass</text><text transform="rotate(-90 119.466 103.443)" class="st9 st10">M42 lens mount thread</text><text transform="translate(128.176 297.353)"><tspan x="0" y="0" class="st9 st10">Not to scale</tspan><tspan x="0" y="13.2" class="st9 st10">Dimensions in mm</tspan></text><text transform="translate(65.53 14.423)" class="st9 st10">Max. lens intrusion</text><text transform="translate(72.315 37.583)"><tspan x="0" y="0" class="st9 st10">Lens mount </tspan><tspan x="-3.4" y="14" class="st9 st10">thread length</tspan></text><text transform="translate(5.427 248.597)" class="st9 st10">M42 lens mount</text></svg>