<svg version="1.1" id="Layer_1" xmlns="http://www.w3.org/2000/svg" x="0" y="0" viewBox="0 0 1000 440" xml:space="preserve"><style>.st2,.st4{stroke:#000}.st2{fill:none;stroke-linecap:round;stroke-linejoin:round;stroke-miterlimit:10;stroke-width:.425}.st4{stroke-width:.283}.st15,.st4,.st5,.st6{fill:none;stroke-miterlimit:10}.st5{stroke-linecap:round;stroke-linejoin:round;stroke:#000;stroke-width:.283}.st15,.st6{stroke-dasharray:5.6693,2.8347,1.4173,2.8347}.st6{stroke:#fff;stroke-width:1.417}.st15{stroke:#000;stroke-width:.283}.st16{fill-rule:evenodd;clip-rule:evenodd;fill:#1a171b}.st17{enable-background:new}.st19{font-size:20.729px}.st20{font-family:Helvetica,Arial,sans-serif}.st22{fill:#1a1a18}.st23{font-size:13.27px}</style><path d="M335 185.2h6.2l3.2-2.4 2.1 1.9-3.8 3.2-1.5.5v2.5h5.1v100.7h-5.1v3.5l1.5.6 3.8 3.2-2.1 1.9-3.2-2.5H335v46.6c0 7.7-6.2 14-14 14H113.4c-7.7 0-14-6.3-14-14V137.2c0-7.7 6.2-14 14-14H321c7.7 0 14 6.2 14 14v48z" fill="#fff"/><path d="M132.9 143.3c0 7.2-5.9 13.1-13.1 13.1s-13.1-5.9-13.1-13.1c0-7.2 5.9-13.1 13.1-13.1s13.1 5.9 13.1 13.1zm169.1 0c0 7.2 5.9 13.1 13.1 13.1s13.1-5.9 13.1-13.1c0-7.2-5.9-13.1-13.1-13.1s-13.1 5.9-13.1 13.1zM132.9 339.6c0-7.2-5.9-13.1-13.1-13.1s-13.1 5.9-13.1 13.1 5.9 13.1 13.1 13.1 13.1-5.9 13.1-13.1zm169.1 0c0-7.2 5.9-13.1 13.1-13.1s13.1 5.9 13.1 13.1-5.9 13.1-13.1 13.1-13.1-5.9-13.1-13.1z" fill="#fff" stroke="#000" stroke-width=".425" stroke-miterlimit="10"/><path class="st2" d="M152.9 136.9h69.7v69.8h-69.7v-69.8zm91.3 5.3h36.2v27h-36.2v-27zm53.4 43h43.6v113h-43.6v-113zm.1 67.3h9.5m0 0V223m0 0h-9.5m43.5 69.4h-43.6m43.6-101.6h-43.5"/><path class="st2" d="M333.4 247v.9l-.2.3-.2.2-.2.1h-3.1l-.3-.1-.2-.2-.1-.2-.1-.2v-.3l-.2-.2-.1-.1-.3-.2h-7.9l-.3-.2-.1-.1-.2-.3v-4.5l.2-.2.1-.2.3-.1.3-.1h7.6l.3-.1.1-.1.2-.3v-.2l.1-.3.1-.2.2-.1.3-.1.2-.1h2.7l.2.1.2.1.2.2.2.2v.9h-.1 4.1v5.7h-4m0 41.4v.8l-.2.3-.2.2-.2.1h-3.1l-.3-.1-.2-.2-.1-.2-.1-.2v-.3l-.2-.1-.1-.2-.3-.1h-7.6l-.3-.1-.3-.2-.1-.1-.2-.3v-4.4l.2-.3.1-.2h.3l.3-.1h7.3l.3-.1.3-.1.1-.1.2-.2v-.3l.1-.3.1-.2.2-.1.3-.1.2-.1h2.7l.2.1.2.1.2.2.2.2v1h-.1 4.1v5.7h-4.1m-26.1-59.2h3.9c1.6 0 1.3 1.5 1.3 1.5v10.8c0 1.1-.5 1.6-1.7 1.6h-3.5m-162.8-44h-4.9m0 0V190m0 0h4.9m0 0v9.1m88.1-47.6h4.7m0 0v9.3m0 0h-4.7m0 0v-9.3m4.7-5.6h-4.7m0 0v-9.1m0 0h4.7m0 0v9.1m-62.3 181.5h4.8m0 0v9.1m0 0h-4.8m0 0v-9.1m104.8-41.2h8m0 0V301m0 0h-8m0 0v-14.8m-28.1 28.9h9.2v-4.8h-9.2m0 4.8v-4.8m18.3 35.3v8.4h-15.2v-8.4m0 0h15.2m-26.5-35.7h4.8m-4.8 0v9.1h4.8v-9.1m-38.9 41.4h-4.7m0 0v-9.1m0 0h4.7m0 0v9.1m-73.2-67.6h-4.9m0 0v-9.1m0 0h4.9m0 0v9.1m106.8 55h4.8m0 0v9.1m0 0h-4.8m0 0v-9.1m-41 12.2h-4.8m0 0v-9.2m0 0h4.8m0 0v9.2m-58.8-62.8v4.8m0 0h-9.2m0 0v-4.8m0 0h9.2m39.2 39.3h4.8m0 0v9.1m0 0h-4.8m0 0v-9.1m-46.2-58.5h-4.9m0 0v-9.2m0 0h4.9m0 0v9.2m34.9 65v4.8m0 0h-9.2m0 0v-4.8m0 0h9.2m-61.5-88.1V241h9.1v4.8m0 0h-9.1m26.6 7h-4.9m0 0v-9.2h4.9v9.2m20.5 81.1v4.8m0 0h-9.2m0 0v-4.8m0 0h9.2m-17.5-81.1h4.9v-9.2h-4.9v9.2m24.1 88.9v8.3m0 0h-15.3m0 0v-8.3m0 0h15.3m-23.7-116h4.9m-4.9 0v9.2h4.9v-9.2M290 323v4.8h-9.1V323h9.1m-161.8-70.2h-4.8m0 0v-9.2h4.8v9.2M283 320.4v-4.8m0 0h9.2v4.8H283m-78.4 7h4.7m0 0v9.1m0 0h-4.7m0 0v-9.1M139.5 176h4.9m0 0v9.2m0 0h-4.9m0 0V176m57.6 151.4h4.8m0 0v9.1m0 0h-4.8m0 0v-9.1m14.4-105.2h9.2v-4.8h-9.2m0 4.8v-4.8m-21.8 110h4.8m0 0v9.1m0 0h-4.8m0 0v-9.1m-40.1-110v4.8m0 0h-9.2m0 0v-4.8m0 0h9.2M171 326.1v4.7m0 0h-9.2m0 0v-4.7m0 0h9.2m103.4-15.8v4.8m0-4.8h-9.3v4.8h9.3m2.1 17.2h12.6v19.2h-12.6v-19.2m-119.9-6.2v4.7m0 0h-9.2m0 0v-4.7m0 0h9.2m-12.2-154.5h-4.9m0 0v-9.1m0 0h4.9m0 0v9.1m112 123.9h-4.8m0 0v-9.2m0 0h4.8m0 0v9.2m26.6 17.1v-4.8m0 4.8h9.2v-4.8H283m-38.3-80.3h4.8v9.2h-4.8v-9.2zm-105.6 78.9h4.9v-9.1h-4.9m0 9.1v-9.1m53.7 50.5v4.9m0 0h-9.2m0 0v-4.9m0 0h9.2m60.6-129.5v9.2h4.8v-9.2m-4.8 0h4.8m-127 79h4.9m0 0v9.1m0 0h-4.9m0 0v-9.1m52.4 47.9v-4.7m0 0h9.2m0 0v4.7m0 0h-9.2m67.1-149.1v4.8m0 0h-9.1m0 0v-4.8m0 0h9.1M125.6 303.8v8.3m0 0h-15.3m0 0v-8.3m0 0h15.3M262 198.7l-.1.6m0 0l-.2.6m0 0l-.2.5m0 0l-.3.5m0 0l-.5.4m0 0l-.5.4m0 0l-.6.3m0 0l-.5.1m0 0l-.6.1m0 0l-.7-.1m0 0l-.5-.1m0 0l-.6-.3m0 0l-.5-.4m0 0l-.4-.4m0 0l-.4-.5m0 0l-.2-.5m0 0l-.2-.6m0 0v-.6m0 0v-.6m0 0l.2-.6m0 0l.2-.6m0 0l.4-.4m0 0l.4-.5m0 0l.5-.4m0 0l.6-.2m0 0l.5-.2m0 0h.7m0 0h.6m0 0l.5.2m0 0l.6.2m0 0l.5.4m0 0l.5.5m0 0l.3.4m0 0l.2.6m0 0l.2.6m0 0l.1.6m-2.9 94.2h8.3v-15.3h-8.3m0 15.3v-15.3m-15.3 8.7h4.8m0 0v9.2m0 0h-4.8m0 0v-9.2m-133.9.5V282m0 0h9.2m0 0v4.8m0 0h-9.2m135.2-3.9v-4.8m0 0h9.2m0 0v4.8m0 0h-9.2m0-15.3v-4.8m0 0h9.2m0 0v4.8m0 0h-9.2m0 7v-4.8m0 0h9.2m0 0v4.8m0 0h-9.2m-106 9.1h4.9v-9.1h-4.9m0 9.1v-9.1m-13.5-3.9v8.2m0 0h-15.3m0 0v-8.2m0 0h15.3M251 338.9h22.7v-18.3H251m0 18.3v-18.3m-111.9-51.7h4.9v-9.2h-4.9m0 9.2v-9.2m-28.3 41v-10.9m0 0h14.4m0 0v10.9m0 0h-14.4m-.9-47.1v-4.8m0 0h9.2m0 0v4.8m0 0h-9.2m172.3 13.2l6.5 6.4m0 0l-5.2 5.2m0 0L277 272m0 0l5.2-5.2m-21.8-18.4h-8.3m0 0v-15.2h8.3v15.2m-10.9 2.2h-4.8m0 0v-9.2h4.8v9.2m-138.7 17v-10.9m0 0h14.4m0 0v10.9m0 0h-14.4M249 217.4v4.8m0 0h-9.1m0 0v-4.8m0 0h9.1m38.2.7h-9.6m0 0v-22.7m0 0h9.6m0 0v22.7m-30.3-12.4v8.3m0 0h-15.3m0 0v-8.3m0 0h15.3m30.5-39.3h9.2m-9.2 0v7.5h9.2v-7.5m-59.8 46.2h-4.7m0 0v-9.1m0 0h4.7m0 0v9.1m-2.2 4.8h-9.1v4.8h9.1m0-4.8v4.8m7.9-28.8v-9.1m0 0h7.4m0 0v9.1m0 0h-7.4m-44.9 28.8v-4.8m0 0h9.1m0 0v4.8m0 0h-9.1m59.3-28.8v-9.1m0 0h7.4m0 0v9.1m0 0h-7.4m-64.6 24v4.8m0 0h-9.1m0 0v-4.8m0 0h9.1m-23.5 4.8v-4.8m0 0h9.1m0 0v4.8m0 0h-9.1m-5.2-4.8v4.8m0 0h-9.2m0 0v-4.8m0 0h9.2m73.2-19.2h-4.7m0 0v-9.1m0 0h4.7m0 0v9.1m-97.3 6.2h4.9m-4.9 0v9.1h4.9v-9.1m70.4 124h22.7m0 0v18.3m0 0h-22.7m0 0v-18.3m22-144.5h-4.7m0 0v-9.2h4.7v9.2M133.5 315.1v-4.8m0 0h9.1m0 0v4.8m0 0h-9.1m44.6 26.5v5.1m0 0h-9.6m0 0v-5.1m0 0h9.6m-27.9-109.5h87.2v87.2h-87.2v-87.2zm161.3 82.1c0 2.3-1.9 4.1-4.1 4.1-2.3 0-4.1-1.9-4.1-4.1 0-2.3 1.9-4.1 4.1-4.1 2.3-.1 4.1 1.8 4.1 4.1zM148.7 136.9c0 2.4-2 4.4-4.4 4.4s-4.4-2-4.4-4.4 2-4.4 4.4-4.4c2.4.1 4.4 2 4.4 4.4zm19.6 221.8c1 0 1.1-.7 1.2-1 .4-2 2.2-3.4 4.3-3.4s3.9 1.5 4.3 3.4c.1.3.3 1 1.2 1m61.1-235.5c-1 0-1.1.7-1.2 1-.4 2-2.2 3.4-4.3 3.4s-3.9-1.5-4.3-3.4c-.1-.3-.3-1-1.2-1"/><path d="M335 185.2h6.2l3.2-2.4 2.1 1.9-3.8 3.2-1.5.5v2.5h5.1v100.7h-5.1v3.5l1.5.6 3.8 3.2-2.1 1.9-3.2-2.5H335v46.6c0 7.7-6.2 14-14 14H113.4c-7.7 0-14-6.3-14-14V137.2c0-7.7 6.2-14 14-14H321c7.7 0 14 6.2 14 14v48z" fill="none" stroke="#000" stroke-width=".709" stroke-miterlimit="10"/><path class="st4" d="M137.2 143.9H69.1m50.6 17.5V96.8m195.5 64.6V96.8M137.2 339H69.1"/><path class="st5" d="M124.1 98.6h186.6M104 71.3h226.8m4.4 65.6V69.5M104 42.1h238.1M99.6 136.9V40.4m246.9 153.2V40.4m-233.8 83.5H37.8m74.9 235.5H37.8m33-211.1V335M432.2 43.9h131.3M417.2 93.5h146.3m4.4 48.7V42.1M526 123.9V88.1m-9.1 35.8V88.1m-12 122.6V42.1M362.4 307.9l-44.7 29.4m44.7-29.4h69.8"/><path class="st4" d="M137.2 143.9H69.1m50.6 17.5V96.8m195.5 64.6V96.8M137.2 339H69.1"/><path class="st6" d="M476.1 241.6h105.8m-498.2 0h294.5"/><path class="st4" d="M297.8 143.9h2.8"/><path d="M303.9 143.9h3.3" fill="none" stroke="#000" stroke-width=".283" stroke-miterlimit="10" stroke-dasharray="1.6584,3.3168"/><path d="M308.9 143.9h28.2" fill="none" stroke="#000" stroke-width=".283" stroke-miterlimit="10" stroke-dasharray="6.6337,3.3168,1.6584,3.3168"/><path class="st4" d="M338.8 143.9h2.8M119.7 321.5v2.8"/><path d="M119.7 326.8v2.4" fill="none" stroke="#000" stroke-width=".283" stroke-miterlimit="10" stroke-dasharray="1.2297,2.4594"/><path d="M119.7 330.4v32" fill="none" stroke="#000" stroke-width=".283" stroke-miterlimit="10" stroke-dasharray="4.9188,2.4594,1.2297,2.4594"/><path class="st4" d="M119.7 363.6v2.9m172.8-26.8h2.8"/><path d="M298.7 339.7h3.3" fill="none" stroke="#000" stroke-width=".283" stroke-miterlimit="10" stroke-dasharray="1.6585,3.317"/><path d="M303.6 339.7h28.2" fill="none" stroke="#000" stroke-width=".283" stroke-miterlimit="10" stroke-dasharray="6.6339,3.317,1.6585,3.317"/><path class="st4" d="M333.5 339.7h2.8m-21.9-22.6v2.9"/><path d="M314.4 322.4v2.5" fill="none" stroke="#000" stroke-width=".283" stroke-miterlimit="10" stroke-dasharray="1.2296,2.4593"/><path d="M314.4 326.1v32" fill="none" stroke="#000" stroke-width=".283" stroke-miterlimit="10" stroke-dasharray="4.9185,2.4593,1.2296,2.4593"/><path class="st4" d="M314.4 359.3v2.9"/><path class="st6" d="M217.4 381.8V112.3"/><path class="st15" d="M217.4 381.8V112.3M83.7 241.6h294.5m97.9 0h105.8"/><path class="st2" d="M709.6 246v40.5m0-40.5c-.3.3-.4.7-.4 1.1m-.1 38.3V247m0 38.4c0 .4.1.8.4 1.1m-.4-67.6v-8.7m0 8.7c0 .4.1.8.4 1.1m.1-10.9V220m0-10.9c-.3.3-.4.7-.4 1.1m.3-26.1h.6m-1 22.2v-8.8m0 8.8c0 .4.1.7.4 1.1m.1-10.9v10.8m0-10.8c-.3.3-.4.7-.4 1.1m.9 104.3h-.6m0-117.8l-1.8 2m0 0l1.3 1.1m2.1-2.3l-2.1 2.3m1.1-3.1l1 .8m-1.5 22.4c.3.4.7.7 1.2.7m2.2 0h-2.2m2.2 0v-13.1m-.9.9c.5 0 .9-.4.9-.9m-.9.9h-1.3m0 0c-.5 0-.9.3-1.2.7m-1.9 9.8h1.4m-1.4 0c0 1 .7 1.7 1.5 1.7m0 0h1.6m-1.2 12c.3.4.7.7 1.2.7m1.3 0h-1.3m2.2.8c0-.5-.4-.9-.9-.9m.9.9v-13.1m0 0h-2.2m0 0c-.5 0-.9.3-1.2.7m-1.9 9.8h1.4m-1.4 0c0 1 .7 1.7 1.5 1.7m0 .1h1.6m-3.1 26.3h1.4m-1.4 38.4V247m0 38.4h1.4m1.7-40.1c-.5 0-.9.3-1.2.7m-.4-.7h1.6m-1.6 0c-.8 0-1.5.8-1.5 1.8m2.4 54.8l1-.9m-2.1-2.2l2.1 2.2m-3.4-1.1l1.3-1.1m-1.3 1.1l1.8 2m1.6-.9l1.6-1.4m-3.5-106.5c-.8 0-1.5.8-1.5 1.7m0 96.3v-5.7m0-38.4v-9m0-1.1v-18m0-8.7v-3.9m0-8.8v-2.6m3.7-1.8h-2.2m2.9 0h-.7m.7 99.8h-.7m.7 0h.6l.1.1v.4m.2-85.4v.4m0-16.2v.2c0 .1 0 .1-.1.2 0 0 0 .1-.1.1h-.4m-1 100.2v-5.7m0-41.9v-4.2m0-6.3v-14.1m0-12.3v-.4m0-12.2v-2.7m0 99.8h-2.2m3.5-106.5c.1.1.2.1.3.1m-5.3 104.6c0 1 .7 1.7 1.5 1.7m1.9-107.9l1.6 1.5m-3.7.8l1.6 1.5m0 0c.6.6 1.5.9 2.3.9m6.2 40.3H713m6.1-5.6H713m0 0v5.6m0 .9h6.1m-6.1 0v-.9m6.1-37.7H713m0 0v2.7m6.1 13.1H713m0 .4h6.1m-6.1 13.1v2.8m-3.8-15.9h1.6m-1.6-12.6h1.6m-3.1 10.5v-8.8m1.5-1.7c-.8 0-1.5.8-1.5 1.7m0 0h1.4m10-11H713m0 0v5.7m-5.3 18h1.4m-1.4 0v8.7m1.5-10.5c-.8 0-1.5.8-1.5 1.7m5.3 21.6h6.1m-6.1-.7h6.1m-6.1.7v-.7m0 68.5h6.1m-6.1-3.1c-.9 0-1.7.3-2.3.9m2.3 2.2c-.1 0-.2 0-.3.1m-3.7-.8l1.6-1.5M713 235v-3.3m0 8.1V235m0 4.8h6.1m-6.1 58h6.1m-6.1 1.7v-1.7m0-5h6.1m-6.1 0v5m0-53.9h6.1m-6.1 0v.5m0 43.7v-43.7m0 43.7v.7m0 0h6.1m-6.1 0v4m-.9-47.5c.5 0 .9-.4.9-.9m-3.4 42.1c.3.4.7.7 1.2.7m1.3 0h-1.3m2.2.9c0-.5-.4-.9-.9-.9m0-41.9h-1.3m-3.1 40.1c0 1 .7 1.7 1.5 1.7m0 .1h1.6m2.2-56.4v.2m0 8.8v4.1m0-1.9v-.1s0-.1-.1-.1c0 0 0-.1-.1-.1h-.4m-1.2-.7l.9.3m0-2.6v2.6m-1.2-3.2l1.2.6m-2.9 1.3l1.7-1.9m-1.7 1.9l2 1m.9-5.8c.5.2.9.2.9-.2m-2.1-.4l1.2.6m-1.2-.6c-.8-.4-1.4-.2-1.4.5m0 1.1V235m0 1.2c0 .7.6 1.5 1.4 1.9m2.1 1.7c0-.3-.4-.8-.9-1m-4.4-.8v-1.1m.2-.5c-.1.1-.2.3-.2.5m0 1.1c0 .7.6 1.5 1.4 1.9m-1.4-3l1.8-1.9m-1.8 3l1.8-1.8m-1.6.2l1.7-1.9m105.5-108.7c.4 2.4 2.6 4 5 3.7 1.9-.3 3.4-1.8 3.7-3.7m61 234.3c-.4-2.4-2.6-4-5-3.7-1.9.3-3.4 1.8-3.7 3.7M752.2 145.3c0-7.2-5.9-13.1-13.1-13.1-7.2 0-13.1 5.9-13.1 13.1 0 7.2 5.9 13.1 13.1 13.1 7.3-.1 13.1-5.9 13.1-13.1zm0 195.4c0-7.2-5.9-13.1-13.1-13.1-7.2 0-13.1 5.9-13.1 13.1s5.9 13.1 13.1 13.1c7.3 0 13.1-5.9 13.1-13.1zm195.5 0c0-7.2-5.9-13.1-13.1-13.1-7.2 0-13.1 5.9-13.1 13.1s5.9 13.1 13.1 13.1c7.2 0 13.1-5.9 13.1-13.1zm0-195.4c0-7.2-5.9-13.1-13.1-13.1-7.2 0-13.1 5.9-13.1 13.1 0 7.2 5.9 13.1 13.1 13.1 7.2-.1 13.1-5.9 13.1-13.1zM719.1 347.7V138.3m0 209.4c0 7.2 5.9 13.1 13.1 13.1m142.7 0H732.1m142.8 0c.3 0 .7-.1.9-.4m.4-.3l-.3.3m9.2 0l-.3-.3m.3.3c.2.2.6.4.9.4m55.6 0H886m55.6 0c7.2 0 13.1-5.9 13.1-13.1m0-209.4v209.4m0-209.4c0-7.2-5.9-13.1-13.1-13.1m-116.7 0h116.7m-116.7 0c-.3 0-.6.1-.9.3m-.3.3l.3-.3m-9.2 0l.3.3m-.3-.3c-.2-.2-.6-.3-.9-.3m-81.8 0h81.8m-81.8 0c-7.2 0-13.1 5.9-13.1 13.1m207.5 70.4v4.8m0 0h-9.1m0 0v-4.8m0 0h9.1M825.1 347.5h-8.3m0 0v-15.3m0 0h8.3m0 0v15.3m37.2-13.4v13.2m0 0h-9m0 0v-13.2m0 0h9m44.6-9.3v4.8m0 0h-9.2m0 0v-4.8m0 0h9.2m26.6-55V265m0 0h9.2m0 0v4.8m0 0h-9.2m-86 33.6h5.7m0 0v10m0 0h-5.7m0 0v-10m-97.7-109.5v-4.8m0 0h9.2m0 0v4.8m0 0h-9.2m-6.3 98h26.2m0 0v12.2m0 0h-26.2m0 0v-12.2m109.7 35.5v-8.3m0 0h15.3m0 0v8.3m0 0h-15.3m50.2-48.4h4.8m0 0v9.1m0 0h-4.8m0 0V279m-56.3 65.4v4.8m0 0h-9.2m0 0v-4.8m0 0h9.2m-74.6 1.8h-4.8m0 0V337m0 0h4.8m0 0v9.2m141.4-116.1v4.8m0 0h-9.2m0 0v-4.8m0 0h9.2M813.7 347.5h-8.3m0 0v-15.3m0 0h8.3m0 0v15.3m111-162.4h18.1m0 0v18.1m0 0h-18.1m0 0v-18.1m5.3 127.5v-5.7m0 0h10m0 0v5.7m0 0h-10m-30.5 8.7h-5.7m0 0v-10m0 0h5.7m0 0v10m20.9-149.2v8.3m0 0h-15.3m0 0v-8.3m0 0h15.3m-11.8 94.2h-4.8m0 0v-9.1m0 0h4.8m0 0v9.1m3.1-60.2v-4.8m0 0h9.1m0 0v4.8m0 0h-9.1M805.4 312.6h-4.8m0 0v-9.2m0 0h4.8m0 0v9.2m-26.3.4h-4.8m0 0v-9.2m0 0h4.8m0 0v9.2m139.1-33.6h4.8m0 0v9.2m0 0h-4.8m0 0v-9.2m-91.8-110.6h-17.5m0 0v-8.7m0 0h17.5m0 0v8.7m88.8 135.5h5.6m0 0v10m0 0h-5.6m0 0v-10m-100.4 23.5V323m0 0h9.2m0 0v4.8m0 0h-9.2m117-114.3v-4.8m0 0h9.1m0 0v4.8m0 0h-9.1M762.5 169h8.3m0 0v15.3m0 0h-8.3m0 0V169m5 87.5h-35.8m0 0v-35.8m0 0h35.8m0 0v35.8m-22-53v4.8m0 0h-9.2m0 0v-4.8m0 0h9.2m124.3-48.9H865m0 0v-9.1m0 0h4.8m0 0v9.1m15.7 148.8h5.7m0 0v10m0 0h-5.7m0 0v-10m-113.9-92.9h-4.8m0 0v-9.2m0 0h4.8m0 0v9.2m21 92v4.8m0 0h-9.2m0 0v-4.8m0 0h9.2M920.4 183v8.3m0 0h-15.3m0 0V183m0 0h15.3m3.9 82.5h4.8m0 0v9.1m0 0h-4.8m0 0v-9.1m-22.7-121.3v4.8m0 0h-9.1m0 0v-4.8m0 0h9.1M740.7 274.6v4.8m0 0h-9.2m0 0v-4.8m0 0h9.2m38.6-130.7c0-2.4-2-4.4-4.4-4.4s-4.4 2-4.4 4.4 2 4.4 4.4 4.4 4.4-1.9 4.4-4.4zM887.7 327h-4.8m0 0v-9.2m0 0h4.8m0 0v9.2m-.9-168.4v4.8m0 0h-9.2m0 0v-4.8m0 0h9.2m-46.7 144.8h4.8m0 0v9.2m0 0h-4.8m0 0v-9.2m28 9.2h-4.8m0 0v-9.2m0 0h4.8m0 0v9.2m35.7-142.7v-4.8m0 0h9.2m0 0v4.8m0 0h-9.2m-158.3 41v4.8m0 0h-9.2m0 0v-4.8m0 0h9.2m87.6 137.4h-4.8m0 0v-9.1m0 0h4.8m0 0v9.1m68.5-42.7h11m0 0V320m0 0h-11m0 0v-14.4m9.2-26.6h4.8m0 0v9.1m0 0h-4.8m0 0V279m-6.1-36.7v-4.8m0 0h9.2m0 0v4.8m0 0h-9.2M833.1 334h-4.8m0 0v-9.2m0 0h4.8m0 0v9.2m66.4-165h-8.3m0 0v-15.2m0 0h8.3m0 0V169m21.3 123.5v8.3m0 0h-15.2m0 0v-8.3m0 0h15.2m-108.2 20.1h-4.8m0 0v-9.2m0 0h4.8m0 0v9.2m48.5-151.9h4.8m0 0v9.2m0 0h-4.8m0 0v-9.2m-68.5 2.2v-4.8m0 0h9.1m0 0v4.8m0 0h-9.1m69.8-8.3h-4.8m0 0v-9.1m0 0h4.8m0 0v9.1M738 262.4h4.8m0 0v9.2m0 0H738m0 0v-9.2m193.8-82.9v-4.8m0 0h9.1m0 0v4.8m0 0h-9.1m.8 98.6v-5.7m0 0h10.1m0 0v5.7m0 0h-10.1m-31-141.3v4.7m0 0h-9.1m0 0v-4.7m0 0h9.1m-68.9 166.6h4.8m0 0v9.2m0 0h-4.8m0 0v-9.2m21-142.7h4.8m0 0v9.2m0 0h-4.8m0 0v-9.2m-17.9 8.8H831m0 0v-9.2m0 0h4.8m0 0v9.2m34.9 134.3h4.8m0 0v9.2m0 0h-4.8m0 0v-9.2m-125.2-41.4h4.8m0 0v9.2m0 0h-4.8m0 0v-9.2m174.9-17.5v8.3m0 0h-15.3m0 0v-8.3m0 0h15.3m-133.5 94.9h-11.8m0 0v-18.3m0 0h11.8m0 0v18.3m129.6-113.2h-4.8m0 0v-9.1m0 0h4.8m0 0v9.1M776.9 349.2v-4.8m0 0h9.1m0 0v4.8m0 0h-9.1m96.4-179.7h-4.8m0 0v-9.2m0 0h4.8m0 0v9.2m14.8-16.2h-8.3m0 0v-15.2m0 0h8.3m0 0v15.2m-95.5 17.5V166m0 0h9.1m0 0v4.8m0 0h-9.1M924.7 230h18.1m0 0v18.1m0 0h-18.1m0 0V230m-21.3-26.9h4.8m0 0v9.1m0 0h-4.8m0 0v-9.1m-94.7-51.5v-4.8m0 0h9.2m0 0v4.8m0 0h-9.2M784.3 166v4.8m0 0h-9.2m0 0V166m0 0h9.2m-53.7 96h4.8m0 0v9.1m0 0h-4.8m0 0V262m147.5 41.8h4.8m0 0v9.2m0 0h-4.8m0 0v-9.2m48.4-78.9v-8.3m0 0h15.3m0 0v8.3m0 0h-15.3m0 36.6v-8.3m0 0h15.3m0 0v8.3m0 0h-15.3m-10 4.8h-4.8m0 0v-9.1m0 0h4.8m0 0v9.1m-87.7-113H824m0 0v-9.1m0 0h4.8m0 0v9.1m27 150.5h4.8m0 0v9.2m0 0h-4.8m0 0v-9.2m-95.3-106v17.5m0 0h-8.7m0 0v-17.5m0 0h8.7M875 347.5h-8.3m0 0v-15.3m0 0h8.3m0 0v15.3m-24-177.6h-4.8m0 0v-9.2m0 0h4.8m0 0v9.2m-2.6 169.9h-11.8m0 0v-18.3m0 0h11.8m0 0v18.3M764 263.3v17.4m0 0h-8.7m0 0v-17.4m0 0h8.7m144.6-36.7h-4.8m0 0v-9.1m0 0h4.8m0 0v9.1m13.6 14h-4.8m0 0v-9.2m0 0h4.8m0 0v9.2m-82.1-86.4h-8.3m0 0v-15.3m0 0h8.3m0 0v15.3m3.5 15.3h-4.8m0 0v-9.2m0 0h4.8m0 0v9.2m43.2-3.5v4.8m0 0h-9.2m0 0V166m0 0h9.2m-61.5 137.4h4.8m0 0v9.2m0 0h-4.8m0 0v-9.2m79.4-104.7v-4.8m0 0h9.2m0 0v4.8m0 0h-9.2M855 153.3h-4.8m0 0v-9.1m0 0h4.8m0 0v9.1M880.3 327h-4.8m0 0v-9.2m0 0h4.8m0 0v9.2m-88.4.4v-8.3m0 0h15.3m0 0v8.3m0 0h-15.3m115-165.8h-4.8m0 0v-9.1m0 0h4.8m0 0v9.1m-4.6 179.5c0-2.4-1.9-4.4-4.4-4.4-2.4 0-4.4 2-4.4 4.4s2 4.4 4.4 4.4 4.4-1.9 4.4-4.4zm-25.1-187.8h-4.8m0 0v-9.1m0 0h4.8m0 0v9.1m-76.4 180.8v13.2m0 0h-9m0 0v-13.2m0 0h9m46.7-180.8h-4.8m0 0v-9.1m0 0h4.8m0 0v9.1m78 130.8h18.1m0 0v18.1m0 0h-18.1m0 0v-18.1m-39.1 63.4h-8.3m0 0v-15.3m0 0h8.3m0 0v15.3M784.7 183.1h106.5M784.7 289.5V183.1m106.5 106.4H784.7m106.5-106.4v106.4m-88.6-91.1h70.7m2.6 2.6v70.6m-2.6 2.7h-20.5m.9 0h-51.6m-2.1-2.7V201m75.9 0c0-1.4-1.2-2.6-2.6-2.6m0 75.9c1.4 0 2.6-1.2 2.6-2.6m-75.9-.1c0 1.2.9 2.3 2.1 2.6m.5-75.8c-1.4 0-2.6 1.2-2.6 2.6m3.1.5h69.8m-69.8 69.7v-69.7m69.8 69.7h-69.8m69.8-69.7v69.7m17.8-90.3c0 1.5 1.2 2.6 2.6 2.6m.1 105.6c-1.4 0-2.6 1.2-2.6 2.6M782.6 183.5c1.5 0 2.6-1.2 2.6-2.6m0 110.8c0-1.5-1.2-2.6-2.6-2.6m110.8-105.6v105.6M785.2 180.9h105.5M782.6 289.1V183.5m108.1 108.2H785.2m-28.6-146.4h-34.9m17.4-17.5v34.9M952 145.3h-34.9m17.5-17.5v34.9m-178 178h-34.9m17.4-17.4v34.9M952 340.7h-34.9m17.5-17.4v34.9m-110.8-233H815m4.4-4.4v13.1m65.4 226.9h-8.7m4.4-8.7v13"/><path class="st6" d="M684.1 243h300.4"/><path class="st15" d="M684.1 243h300.4"/><path class="st6" d="M836.9 385.6V110.7"/><path class="st15" d="M836.9 385.6V110.7"/><path class="st16" d="M345.9 42.1l-15.2-2.5v5l15.2-2.5zM335 71.5L319.9 69v5l15.1-2.5zm-20 27L299.9 96v5.1l15.1-2.6zm252.3-54.7l-15.1-2.5v5l15.1-2.5zM314.4 339.1l14-6.2-2.7-4.2-11.3 10.4zM505 43.8l15.1-2.5v5L505 43.8zm12.2 49.7l-15.1-2.6V96l15.1-2.5zm7.1 0l15.1-2.6V96l-15.1-2.5zM99.6 42.1l15.1-2.5v5l-15.1-2.5zm.6 29.4l15.1-2.5v5l-15.1-2.5zm20 27l15.1-2.5v5.1l-15.1-2.6zM70.8 144l2.6 15.1h-5.1l2.5-15.1zm0 195.5l-2.5-15.2h5.1l-2.6 15.2z"/><path class="st5" d="M40.6 128.3v226.1"/><path class="st16" d="M40.6 124l2.5 15.1h-5l2.5-15.1zm0 234.8l-2.5-15.1h5l-2.5 15.1z"/><text transform="translate(189.47 37.655)" class="st17"><tspan x="10.4" y="0" class="st20 st19">≈ 28.3</tspan></text><text transform="translate(448.389 36.327)" class="st17"><tspan x="10.4" y="0" class="st20 st19">≈ 8.2</tspan></text><text transform="translate(418.412 85.997)" class="st20 st19">max. 1.1</text><text transform="translate(206.423 66.493)" class="st20 st19">27</text><text transform="translate(371.16 300.089)" class="st17"><tspan x="0" y="0" class="st20 st19">4 x </tspan><tspan x="43.8" y="0" class="st20 st19">Ø 3</tspan></text><text transform="rotate(-90 162.6 97.684)" class="st20 st19">22.4</text><text transform="rotate(-90 142.211 109.525)" class="st20 st19">27</text><text transform="translate(197.875 93.513)" class="st20 st19">22.4</text><path d="M537.9 234.6l.4-.4m1-51.4c-.4.2-.6.5-.6.8m.1 116.1c0 .3.2.6.6.8m4 0c.4-.2.6-.5.6-.8m0 0v-1.5m0 0h-5.2m0 1.5v-1.5m12.8-105.7c-.2-.4-.4-.7-.7-.7m-.7 0h.7m-1.2-.9c0 .5.2.9.5.9m0 99.7c-.3 0-.5.4-.5.9m.5-.9h.7m0 0c.3 0 .5-.2.7-.7m-1.9-61.6v1.3m0 0v.2h0v.6h0v.2h0v.1h0M545 223h4.7m-15.2 0H545m-10.5 0h0m0-8.7H545m-10.5 0v8.7m10.5-8.7v8.7m3.2-23.4l-2.6 3.1m-.6.6l.6-.6m1-11.8c0-1.4-1.2-2.6-2.6-2.6m-9.5 26h0m-.1 0v8.7m9.6 72.1c1.4 0 2.6-1.2 2.6-2.6m3.1-78.2v-18.4m-4.7 18.4h4.7m-8.3 17.5h-3.1m11.2 0h-2.9m-8.3 7v1.7m0-7v5.3m0-7v1.7m11.2 7h-2.9m2.9 0h0s.1 0 0 0c.1 0 .1 0 0 0 .1 0 .1 0 0 0 .1 0 .1 0 0 0 .1.1.1.1 0 0 .1.1.1.1 0 0 .1.1.1.1 0 0l.1.1h0v.1h0v.1h0v.1h0v.1h0v.2m.1.6v-11.3m-9.6 3v5.3m0-5.3h-1.8m1.8 5.3h-1.8m3.1 1.7h-3.1m8.3-11.3h3.1m1 59.2v-5.6m0 5.6h.4m0 0v-5.6m-.4 0h.4m-9.7-51c-.8.2-1.3.9-1.3 1.7m0 5.3c0 .8.5 1.5 1.3 1.7m-2.6-55.4v.1m5.2-.1v.1m0-.1h-5.2m7.8 102.4c0-.6-.2-1.2-.6-1.7m0-88.2c.4-.5.7-1.1.7-1.7m3 56.8v-9.6m0 0h-3.1m3.1-13.9V223m-5.7-39.4c0-.3-.2-.6-.6-.8m.6.8v1.5m-5.2-1.5v1.5m3.9 16.2l2.3 2m1-5.7l-2.7 3.1m-.6.6l.6-.6m4.9-1.1c.9-1 1.4-2.4 1.4-3.8m-3.6 90l-2.7-3.2m-.6-.6l.6.6m.7 12.2c1.4 0 2.6-1.2 2.6-2.6m-2.6 2.6h-7.5m10.1-34.5h0m0 9.2h0m-8.7-28.6v-9.6m3.5 9.6h-4.9m10.1 10h-3.5m3.5 36.6v1.7m-.6-29.5h.2v.1h0v.1h0v.1m3.5 22.8h1m-1 5.6h1m-4.1-18.9v.3h0-.1 0-.3m3.3.3H545m-1.1 0h1.1m-1 28h-7.5m2.3 0v.1m5.2-3.1h-7.5m5.6-33.7v7m2.9-8.7v-7m4.5 7H545m4.5 0h0s.1 0 0 0c.1 0 .1 0 0 0 .1 0 .1 0 0 0 .1 0 .1.1.1.1h0v.2h0v.1m.1.1v-7.5m0 0H545m4.7-61.8c0-3.1-2.5-5.7-5.7-5.7m2.6 83.2h3.1m0 1.2h0v.3h0v.2h0v.1h0m0-.6v-1.2m0 8.7H545m-6.2 0h6.2m-6.2 0h0m-2.3-4.1l2.3 4.1m0 0l-2.3-4.2m7.5 25.2c3.1 0 5.7-2.5 5.7-5.7M544 188.2h-7.5m7.5-3h-7.5m13.2 56.6v1.3m-6.4-42.4l2.3 2m4.1-11.8v5m-3.1-5v.3m0 0v1.3m0 0v3.4m4.1 45.4v5.7m0 0h.4m0 0v-5.7m-.4 0h.4m-1.4 0h1m-1 5.7h1m-4.1 14.4h3.1m0 0v-1.2m-7.6 8.2c0 1 .8 1.7 1.7 1.7m.2 28v.1m1-18.2l-2.3 2m5.6 1.8l-2.7-3.1m-.6-.7l.6.7m4.1 6.8c0-1.4-.5-2.7-1.4-3.7m-2.7-3.1l-2.3 1.9m.6-22.9c-1 0-1.7.8-1.7 1.7m7.5 15.7v10.4m-10.9-34.8h0m0 0h6.2m-8.5 4.2l2.3-4.2m6.2 24.4v-7m0-10.4h-1.1m-5.1-7l-2.3 4.1m13.2 20.3v-7.5m0-8.2v7m-12.8 26.4c.4.2.8.3 1.2.3m8.5-25.6v-9.2m-3.5-9.4v1.8m0 7.1V270m0 7.1v1.7m1.8 0h-1.8m3.5 0v-1.7m0-24.4v-1.8m0-25.7V223m0 24.7v-22.5m0 25.7v-3.2m-3.5 31.1h-1.7m0 0v3.3m4.6 5.4l-4.6-5.4m4.3 3.4v1.7m.9-8.4v3.1m-.9-3.1h.9m-.9 0v2.1m0-2.1h-.8m1.7 10.4c0-.6-.2-1.2-.6-1.7m-9.5-5.4h4.9m5.2 7.1v2.9m-6.4-60.3v-.5m3.8-42.8h-7.5m10.1 2.7c0-1.4-1.2-2.6-2.6-2.6m-2.6 42.7h-10.6m10.6 0v9.6m5.2 51.2v.4m3.1-5v5m-3.1-100h-10.1m6.6 20.7v1.1m0 8.7v2.2m0-12h5.3m0-8.7v8.7m0-8.7h-7m0-3.3v3.3m4.6-8.7l-4.6 5.4m4.6-5.4c.4-.5.6-1.1.6-1.7m-.9 8.4v2m0-8.4v1.8m.9 3.6v3m0 9.8v-1.1m0 12h-15.8m5.7 22.5h10.1m3.1-33.4v8.7m-9.5 17.9v-.4m-.8 0v.4m4-58.1h-4.1m0 117.7h4.1m8.2-9.7v-98.3m-46.8 79.4v-61.2m2.2 74.6c0-1 0-1.8-.1-2.5-.1-.8-.1-1.6-.2-2.3-.2-1.5-.4-2.8-.7-4.2-.3-1.4-.7-2.8-1.2-4.2m2.2-74v87.2m-2.2-74.6c.5-1.4.9-2.9 1.2-4.3.3-1.4.5-2.8.7-4.2.1-.7.2-1.5.2-2.3 0-.6.1-1.2.1-1.8m3.5 87.2H507m3.5-87.2H507m3.5 0v17.2m0 15.7v21.8m0 8.3v3m0 8.3v12.9m0-7h0m0-73.3h0m.4-6.9h-.4m0 0v17.2m0 15.7v21.8m0 8.3v3m0 8.3v12.9m.4 0h-.4m5.2-78.7v.8m0 7v.9m0 31.9v.8m0 13.1v2.6m0 12.6v1.7m15.1-24.4v-4.8m-4.8 0h4.8m-4.8 4.8h4.8m-1.3-21.5h7M526 319.3h10.5m0 0v-87.2m-28.3-80.5v8.3m8.2 0h-8.2m8.2-8.3h-8.2m4.8 194.5v1.7m3.4 0H513m-1.4-167v2.2m4.8 0h-4.8m0-34.4v3M526 268.9h3.5m0 0v-1.3m-13.5 77v-8.8m.4 8.8h-.4m.4-8.8h-.4m14.8-32v-3.1m0-18.7v-3.1m-1.3-56.7h1.3m0 0v-4.7m-1.3 0h1.3m0 116.4v-3.1m-14.4-159.1h-4.8m0 0v1.7m0 4.8v2.6m4.8 0h-4.8m19.7 119.9v-10.9m-5.3 0h5.3m-5.3 10.9h5.3m-5.3-96.3h4.8m-4.8 9.1h4.8m0 0v-9.1m-1.3 137.1v-1.1m-3.5 0h3.5M526 214h8.2m0 0v-7.2M516.4 248H513m0 0v4.8m3.4 24h-.7m.7 44.4h-4.8m0 0v4.8m4.8 0h-4.8m4.8-152.6h-4.8m0 0v4.8m4.8 0h-4.8m4.8 37.1h-8.2m0 0v8.3m8.2 0h-8.2M526 176h3.5m-3.5 9.2h3.5m0 0V176m-17.9-16.1v1.3m4.8 0h-4.8m17.9 87.6v-3m1.3 0V241m-4.8 0h4.8m-4.8 4.8h4.8m-22.2-65.4v.9m3 0h-3m22.7 160.2v-4.6m-14.9-35.3h-8.2m0 0v8.3m8.2 0h-8.2m17.8 42.7h3.5m0 0V350m-3.5-71.1h8.2m0 0v-8.2m-8.2 0h8.2m-17.8 7.3h-5.5m0 0v18m5.5 0h-5.5m20.4 45.7v-.2m-5.3 0h5.3m-14.9 4.6h-8.2m8.2-15.3h-8.2m0 0v15.3m4.8-144.2v4.7m3.4 0H513m-1.4-26.2h-3.4m8.2-15.3h-8.2m0 0v15.3m21.3 88.5h1.3m0 0v-1.3m-4.8 85.5h7.9m0 0V350m-3.1-122.5v-5.3m0 64.6V282m-4.8 0h4.8m-4.8 4.8h4.8m-1.3 64.1h1.3m0 0v-.9m0-143.2h5.7m0 0V137m-10 0h10M513 212.2v2.2m3.4 0H513m3.4 14.7h-5.5m0 0v18.1m5.5 0h-5.5m5.5 16.9h-8.2m0 0v8.3m8.2 0h-8.2m17.8-50.2h3.5m0 0v-4.7m-3.5 0h3.5m-21.3 89.1h-3.5m6.2-12.2h-6.2m0 0v12.2M533 328h2.2m-1 19.2h1m0 0V328M513 297.2v1.4m13 13.5h8.2m0 0v-8.3m-8.2 0h8.2m-17.8-157h-4.8m4.8-9.1h-4.8m0 0v9.1m-3.4 38.4v8.3m2.7 0h-2.7m2.7-8.3h-2.7m21.3 104.6v-1.7m-3.5 0h3.5m-3-155.5v8.8m-.5-8.8h.5m-.5 8.8h.5m-10.1 22.9h-4.8m0 0v.8m19.7 102.5v-10.9m-5.3 0h5.3m-5.3 10.9h5.3m-5.3-41.9h3.5m-3.5 9.2h3.5m0 0v-9.2m-13.1 38H513m0 0v.4M530.8 137v-.2m-4.3 0h4.3m-14.4 70.6h-4.8m0 0v4.8m4.8 0h-4.8m4.8-28.4h-5.5m0 0v18.1m5.5 0h-5.5m15.1-30.2h3.5m0 0v-9.2m-3.5 0h3.5m-13.1 0h-4.8m0 0v1.8M526 338.7h4.8m0 0v-4.8m-4.8 0h4.8m-19.2-187.1v1.8m4.8 0h-4.8m19.2 68.9V214M526 330.8h4.8m0 0V326m-4.8 0h4.8m-22.6 12.5h-.5m.5-18.4h-.5m0 0v18.4m8.7-76.6h-.7m-6.2-126.6v16.3m0 8.3v5.2m6.9-29.8h-6.9m6.9 182.4h-8.2m0 0v8.3m3.4 0h-3.4m8.2-8.7h-7.8m7.8-18.7h-7.8m0 0v3m0 8.3v7.4m59.3-148v-27.1m-31.4 0h31.4m-31.4 27.1h31.4m-56.3-33.4v1.8m4.8-1.8h-4.8m-.7 95.1h-2.3m0-7.4v7.4m22.2 95.9h.9m-.9 10h.9m0 0v-10M526 199.1h4.8m0 0V190m-4.8 0h4.8m.5 148.9h1.7m0 0v-18.3m-7 0h7m-16.6-95.3h-4.8m0-1.7v1.7m4.8 27.5h-8.2m0 0v8.3m8.2 0h-8.2m21.3-33.6h1.3m0 4.6v-4.6m-19.2 69.7v1.4M526 350h8.2m0 0v-8.3m-8.2 0h8.2m-8.2-26.6h3.5m0 0v-3M513 135.5v.4m3.4-.4H513m0 136.9v3.9m3.4 0H513m16.5 5.7v-3.1M511.6 296v1.2m4.8 0h-4.8M526 123.9h-9.6m0 13.1v-13.1M526 137h-9.6m9.6-13.1V137m-9.6 0v209.3m9.6 0h-9.6m9.6 0V137m-9.6 222.4v-13.1m9.6 13.1h-9.6m9.6-13.1v13.1" fill="none" stroke="#000" stroke-width=".3" stroke-linecap="round" stroke-linejoin="round" stroke-miterlimit="10"/><text transform="translate(884.95 413.25)" class="st22 st20 st23">Not to scale</text><text transform="translate(884.95 429.15)" class="st22 st20 st23">Dimensions in mm</text></svg>