<svg version="1.1" id="Layer_1" xmlns="http://www.w3.org/2000/svg" x="0" y="0" viewBox="0 0 988 421" xml:space="preserve"><style>.st1{stroke:#000;stroke-width:.283}.st1,.st12,.st2,.st3{fill:none;stroke-miterlimit:10}.st2{stroke-linecap:round;stroke-linejoin:round;stroke:#000;stroke-width:.283}.st12,.st3{stroke-dasharray:5.6693,2.8347,1.4173,2.8347}.st3{stroke:#fff;stroke-width:1.417}.st12{stroke:#000;stroke-width:.283}.st13{fill-rule:evenodd;clip-rule:evenodd;fill:#1a171b}.st14{font-family:&quot;Helvetica,Arial,sans-serif&quot;}.st15{font-size:20.35px}.st16{font-family:Helvetica,Arial,sans-serif}.st17{fill:#1a1a18}.st18{font-size:13.27px}</style><path d="M545.6 258h-16.2m18.8 47.3c1 0 1.7-.8 1.7-1.7m.1-15.9v15.8m-10.8 1.8h0m0-3.5v3.5m0 0h9m-2.6-19.5l4.4 1.9m-4.4 14.1h-14.7m0 0v-11.7m0-4.8v-5.4m8.2 25.4v-3.5m-8.2 3.5h4.7m3.5 0h0m6.5-47.3v6.1m-9.2 0h9.2m-14.4 41.4c.2 0 .3-.1.4-.3m-1.5.3h1.1m-1.5-.2c.1.2.2.3.4.3m-.2 1.8h-.5m.9.5c0-.2-.2-.4-.4-.4m2.1.4h-1.7m2.2-.5c-.2 0-.4.2-.4.4m.4-.4c.2 0 .3-.2.3-.3m0-1.8v1.8m-1.9-10.5l-.9-1.3m-.1 0h0m1 10h-1.5m1.9-.5c-.2 0-.4.2-.4.4m.4-.4h3.9m.4.5c0-.2-.2-.4-.4-.4m.4.4h3.5m0 0v-3.5m6.5 0v-37.7m-14.4-6.1v-1.7m2.1 1.1c0 .2.1.4.2.6m-.2-2.6v2m-2.6-1.5h-1.3m1.8.4c0-.2-.2-.4-.4-.4m-1.4-143.3v13m0 208.1V125.6m0 208.1v13m0-234.1h-9.5m0 13v-13m0 13v208.1m0 13v-13m9.5 13h-9.5m13-174h1.3m-1.3 9.1h1.3m0 0v-9.1m-19.5-15.2h-.4m0 0v5.6m2.1 0h-2.1m-2.5-18.6v8.2m2.9 0h-2.9m2.9-8.2h-2.9m21.1 53.3V193m-3.5 0h3.5m-3.5 4.8h3.5m-13 77.6h-.7m-4.9-112.3v.5m2.1 0h-2.1m2.1 133.9v.8m3.1 0h-3.1m13-36.6h7m-7 18.2h7m0 0v-18.2m-16.5-72h-5.5m0 0v8.9m5.5 0h-5.5m15-30.7h5.7m0 0v-10m-5.7 0h5.7m2.1-5.6v-23m-3 0h3m-3 23h3m0 103.1v-8.2m-7.8 0h7.8m-7.8 8.2h7.8m-7.8 34.7h3.5m0 0v-4.8m-3.5 0h3.5m-16.5 20.8v2.6m-4.6-60.6v8.2m8.1 0h-8.1m8.1-8.2h-8.1m2.6 86.2h0m-.1-3v3m-2.5-158.2v8.3m8.1 0h-8.1m8.1-8.3h-8.1m0 115.2v6.2m7.7 0h-7.7m8.1 24.2h-3.5m0 0v9.2m3.5 0h-3.5m3.5-22.2h-8.1m0 0v8.3m8.1 0h-8.1m0-144.3v3.4m17.6-40.3h4.8m-4.8 9.1h4.8m0 0v-9.1m-4.8 107.9h9.1m0 0v-12.5m-9.1 0h9.1m-5.6-26v-4.8m-3.5 0h3.5m-3.5 4.8h3.5m-21.7 70.6v11.7m8.7 0h-8.7m8.7-11.7h-8.7m3.2 45.5h0m-.1 0v10m.1 0h0m.7-60.7v1.7m4.8 0h-4.8m24.7-62.6v-.4m0-44.2v-26.5m-2.6 0h2.6m-6.9 71.1h6.9m-10.4 18.4H542m0 0v-12.5m-12.6 0H542m-22.1 5.6h-3.5m0 0v9.1m3.5 0h-3.5m0 91.4h-1.3m0 0v9.2m1.3 0h-1.3m-.4-206.6v35.6m1.7 0h-1.7m5.2-35.6h-5.2m0 10.7h-2.9m0 0v9.5m20.3 86.7v-3.1m.8-15.6v-4.7m-3.5 0h3.5m-3.5 4.7h3.5m-21.7-8.6v11.7m8.7 0h-8.7m8.7-11.7h-8.7m23 11.7v-2.2m-4.8 0h4.8m-17.8 74.1v3m3.5 0h-3.5m13.5 38.4v8.7m-.5-8.7h.5m-.5 8.7h.5m4.7-213.3v-5.2m-5.2 0h5.2m-.4 5.2h.4m-14.7 112.1h-8.2m0 0v8.2m8.2 0h-8.2m21.2-31.2v-.4m-3.5 0h3.5m0-22.6v-4.7m-3.5 0h3.5m-3.5 4.7h3.5m-13 8.3h-8.1m0-14.3v14.3m4.6-26v3.4m3.5-29h-3.5m3.5-9.1h-3.5m0 0v9.1m0 83.2v4.8m3.5 0h-3.5m13-81.5h4.8m0 0v-4.8m-4.8 0h4.8m-4.8-17.7h4.8m0 0V122m-4.8 0h4.8m-17.8 195v.7m-1.3-16.3v4.7m4.8 0h-4.8m4.4-4.7h-4.4m14.3-75.4h4.8m0 0v-9.1m-4.8 0h4.8M514.7 125h-3m0 0v15.2m.1 0h-.1m4.7 75.4v3.9m3.5 0h-3.5m13.5 74.8v6.9m-.5-6.9h.5m-.5 6.9h.5m-10-30.6h-8.1m0-14.3v14.3m8.1-117.9h-3.5m0 0v9.1m3.5 0h-3.5m3.5 2.6h-8.2m0 0v8.3m8.2 0h-8.2m7.8 131.9V296m.4 8.6h-.4m.4-8.6h-.4m-5.1 21.7v18m5.5 0h-5.5m5.5-18h-5.5M532.9 122v-2.6m-3.5 0h3.5m-16.5 42.4v2.6m22.1 79.3h3.5m0 0v-12.5m-3.5 0h3.5m-22.1 14.7h-3.5m0 0v2.2m24.7 9.9v-11.4m-11.7 0h11.7m-6.9-88.7v-1.3m-4.8 0h4.8m-4.8 16.1h3.5m-3.5 9.1h3.5m0 0v-9.1m0 36.6h7.2m0 0v-44.2m-5 0h5m-20.2 96.5h-5.5m0 0v8.9m5.5 0h-5.5m-15.3-87.1v105.8m4.9 0h-4.9m4.9-105.8h-4.9m20.1 107.9h0m0-.8v.8m0-19v.9m0-38.1v1.3m0-37.1v3.5m0-4.1h0m0 4.7v.5m0 17.2v.1m0 52.7v1.9m0-31.2v1.3m0 27.3h0m0-74.5v.6m0 3.5v.6m0 68.9v.9m0-38.1v1.3m0 36.8v.7m-8.7-35.2v-4.8m0 13.6v-4.8m0 22.4v-4.8m0-4v-4.8m0 31.2v-4.8m0-4v-4.8m8.7-69.8v3.5m0 17.6v.7m0-.7h0m0-.9v.9m0-21.1h0m0 3.5h0m-8.7 27.1v-4.8m0-12.8v-4.8m0 13.6v-4.8m0-21.7v-4.7m0 13.5v-4.7m0 79.2h.7m0 4.8h-.7m0-40h1.2m4.7 4.8h-5.9m1.3 17.6h-1.3m0-4.8h1.3m-.1-21.6h-1.2m0 12.8h1.3m0 4.8h-1.3m0 12.8h1.3m7.4 4.1v.7m0 0h-8.7m8.7-.7h0m-7.4-78.6h-1.3m8.7 25.8v.7m0-22.4v.6m0 3.5v.6m-8.7-4.7h8.7m-8.7 35.2h5.9m0-4h-5.9m8.7-27.1h0m0-3.5h0m-8.7 25.8h5.9m-5.2-12.8h-.7m0-4.8h.7m8 13.6h-8.7m0-4.8h5.9m-5.9-26.4h1.3m7.4 13.5h-8.7m-6.5 87.9v-2.6m0-104.8v-2.7m0 107.5h6.5m0 2.6H504m0-110.1h6.5m0 2.7H504m0 0v104.8m6.5 2.6v-2.6m0 0h5.9m-5.9 0h0m8.7 2.6h-8.7m8.7-.8v.8m-8.7-107.4v-2.7m1.3 2.7h-1.3m0 0h0m0-2.7h1.3m343.5 166.3c-.4-2.4-2.6-4-4.9-3.6-1.9.3-3.4 1.8-3.6 3.6m-60.7-232.7c.4 2.4 2.6 4 4.9 3.6 1.9-.3 3.3-1.8 3.6-3.6m-32.2 83.6h4.8m0 0v9.1m0 0h-4.8m0 0v-9.1m43.3-33.8V159m0 0h10m0 0v5.6m0 0h-10m16.5-18.6v8.2m0 0H807m0 0V146m0 0h15.2m19.5-2.6v-4.8m0 0h9.1m0 0v4.8m0 0h-9.1m82.4 79.3h4.7m0 0v9.1m0 0h-4.7m0 0v-9.1M749 276.8h4.7m0 0v9.1m0 0H749m0 0v-9.1m5.6-78.4h4.8m0 0v9.1m0 0h-4.8m0 0v-9.1m32.5-39v5.6m0 0h-10m0 0v-5.6m0 0h10M830 303.7h4.8m0 0v9.1m0 0H830m0 0v-9.1m-102.3-13h4.8m0 0v9.1m0 0h-4.8m0 0v-9.1M849.1 172v-4.8m0 0h9.1m0 0v4.8m0 0h-9.1m71.2 19.1h13.1m0 0v9m0 0h-13.1m0 0v-9m-42.6 119.6v4.7m0 0h-9.1m0 0v-4.7m0 0h9.1m-117.9-72v4.8m0 0h-9.1m0 0v-4.8m0 0h9.1m-15.2 13.9v8.2m0 0h-15.1m0 0v-8.2m0 0h15.1m56.4-92.8v4.8m0 0h-9.1m0 0v-4.8m0 0h9.1m55.4 143.9h4.8m0 0v9.1m0 0h-4.8m0 0v-9.1M806.2 172v-4.8m0 0h9.1m0 0v4.8m0 0h-9.1m129.1 77.5v8.3m0 0h-15.1m0 0v-8.3m0 0h15.1m-118.7 86.3h-5.7m0 0v-10m0 0h5.7m0 0v10m118.7-158.2v8.2m0 0h-15.1m0 0v-8.2m0 0h15.1M752 290.7v8.3m0 0h-15.2m0 0v-8.3m0 0H752m146.9-46.4v-4.7m0 0h9.1m0 0v4.7m0 0h-9.1M742 201.9v-4.8m0 0h9.1m0 0v4.8m0 0H742m156.9 26.8V224m0 0h9.1m0 0v4.7m0 0h-9.1m-1.7 94.5h4.8m0 0v9.1m0 0h-4.8m0 0v-9.1m-12.6-4.7v-8.3m0 0h15.2m0 0v8.3m0 0h-15.2M742 194.1v-4.8m0 0h9.1m0 0v4.8m0 0H742m156.5 90.1v-4.7m0 0h9.1m0 0v4.7m0 0h-9.1m-148.2-64.6v-8.2m0 0h15.1m0 0v8.2m0 0h-15.1M898 154.2h4.8m0 0v9.1m0 0H898m0 0v-9.1m-146 30.3h-8.2m0 0v-15.1m0 0h8.2m0 0v15.1m34.7-17.3v4.8m0 0h-9.1m0 0v-4.8m0 0h9.1M830 334.5h-10.8m0 0v-14.3m0 0H830m0 0v14.3m85.8-111.8h4.8m0 0v9.1m0 0h-4.8m0 0v-9.1m-156 8.6v4.8m0 0h-9.1m0 0v-4.8m0 0h9.1m139.1-18.2v-4.7m0 0h9.1m0 0v4.7m0 0h-9.1m34.9 64.2V289m0 0h-18.2m0 0v-11.7m0 0h18.2m-116.4 35.5h-4.7m0 0v-9.1m0 0h4.7m0 0v9.1m15.6 10h5.7m0 0v10m0 0H833m0 0v-10m42.1.4h4.7m0 0v9.1m0 0h-4.7m0 0v-9.1m22.9-58.5h4.8m0 0v9.1m0 0H898m0 0v-9.1m-50.2 39h4.7m0 0v9.1m0 0h-4.7m0 0v-9.1m84.5-81h4.8m0 0v9.1m0 0h-4.8m0 0v-9.1M862.9 172v-4.8m0 0h9.1m0 0v4.8m0 0h-9.1m19.5 151.2h4.8m0 0v9.1m0 0h-4.8m0 0v-9.1m-127.8-75.8h4.8m0 0v9.1m0 0h-4.8m0 0v-9.1m138.5-121.6v35.6m0 0h-35.6m0 0v-35.6m0 0h35.6M794 136.4h8.3m0 0v15.2m0 0H794m0 0v-15.2m-26.4 134.8h-4.8m0 0v-9.1m0 0h4.8m0 0v9.1m166.2-65.9V217m0 0h-18.2m0 0v-11.7m0 0h18.2M877.7 172v-4.8m0 0h9.1m0 0v4.8m0 0h-9.1m20.8 120v-4.7m0 0h9.1m0 0v4.7m0 0h-9.1m-131.3-99.2h-4.8m0 0v-9.1m0 0h4.8m0 0v9.1m41.1 120h-4.7m0 0v-9.1m0 0h4.7m0 0v9.1m36.4-156.4H840m0 0v-9.1m0 0h4.7m0 0v9.1m-3-20.4v-4.8m0 0h9.1m0 0v4.8m0 0h-9.1m-96.1 97.2h-18m0 0v-18m0 0h18m0 0v18m-17.9 6.4h4.8m0 0v9.1m0 0h-4.8m0 0v-9.1m192.5 6.5v-8.3m0 0h15.1m0 0v8.3m0 0h-15.1m-5.2-46h-8.3m0 0V185m0 0h8.3m0 0v15.1m-75.9 103.6h4.8m0 0v9.1m0 0h-4.8m0 0v-9.1m71.1-135.2h4.8m0 0v9.1m0 0h-4.8m0 0v-9.1m-7.4-19.9H898m0 0v-9.1m0 0h4.8m0 0v9.1m-3.9 87.9v-4.7m0 0h9.1m0 0v4.7m0 0h-9.1m-83.6 80.7v4.7m0 0h-9.1m0 0v-4.7m0 0h9.1m78.8-14.3v4.7m0 0H885m0 0v-4.7m0 0h9.1m-96.2 0v4.7m0 0h-9.1m0 0v-4.7m0 0h9.1m3.1-135.7v4.8m0 0h-9.1m0 0v-4.8m0 0h9.1m-38.2 114.4h4.8m0 0v9.1m0 0h-4.8m0 0v-9.1m58.5 22.1h4.8m0 0v9.1m0 0h-4.8m0 0v-9.1m-58.9-56.3h4.8m0 0v9.1m0 0h-4.8m0 0v-9.1m-16.5-9.1v5.6m0 0H736m0 0v-5.6m0 0h9.9m24.7-111.8h8.3m0 0v15.1m0 0h-8.3m0 0v-15.1m128.3 94.4v-4.7m0 0h9.1m0 0v4.7m0 0h-9.1m16.1 51.2h-8.3m0 0v-15.2m0 0h8.3m0 0v15.2m-9.6-117.9h4.8m0 0v9.1m0 0h-4.8m0 0v-9.1m14.8 19.9v-8.2m0 0h15.1m0 0v8.2m0 0h-15.1m-78.5 149.1h4.8m0 0v9.1m0 0h-4.8m0 0v-9.1m-5.2-152.1h-4.8m0 0V162m0 0h4.8m0 0v9.1m75.2 130.7c0-2.4-1.9-4.3-4.3-4.3s-4.3 1.9-4.3 4.3 1.9 4.3 4.3 4.3 4.3-1.9 4.3-4.3h0zM870 319.2v18m0 0h-18m0 0v-18m0 0h18m7.7-16.3v4.7m0 0h-9.1m0 0v-4.7m0 0h9.1m-132.1-18.6h-18m0 0v-18m0 0h18m0 0v18m106.9-127.9h-4.7m0 0v-9.1m0 0h4.7m0 0v9.1m-8.6 14.7h-4.8m0 0V162m0 0h4.8m0 0v9.1m-36 164.3h-4.8m0 0v-9.1m0 0h4.8m0 0v9.1m91-83.3v-4.7m0 0h9.1m0 0v4.7m0 0h-9.1m-69.8-81h-4.7m0 0V162m0 0h4.7m0 0v9.1m-84.5 33.4v5.6m0 0h-9.9m0 0v-5.6m0 0h9.9m150 127.8h-4.8m0 0v-9.1m0 0h4.8m0 0v9.1M765.2 159.6c0-2.4-1.9-4.3-4.3-4.3s-4.3 1.9-4.3 4.3 1.9 4.3 4.3 4.3c2.4.1 4.3-1.9 4.3-4.3h0zm7.6-5.4V146m0 0H788m0 0v8.2m0 0h-15.2m147.5 108.9h13.1m0 0v8.9m0 0h-13.1m0 0v-8.9m-160.5-70.3H755m0 0v-9.1m0 0h4.8m0 0v9.1m32.1-61.1v-4.8m0 0h9.1m0 0v4.8m0 0h-9.1m-42.3 2.3c0-7.2-5.8-13-13-13s-13 5.8-13 13 5.8 13 13 13 13-5.8 13-13h0zm0 194.2c0-7.2-5.8-13-13-13s-13 5.8-13 13 5.8 13 13 13 13-5.8 13-13h0zM943.8 134c0-7.2-5.8-13-13-13s-13 5.8-13 13 5.8 13 13 13 13-5.8 13-13h0zm0 194.2c0-7.2-5.8-13-13-13s-13 5.8-13 13 5.8 13 13 13 13-5.8 13-13h0zM794.6 114.8l.3-.3m1-.4c-.3 0-.6.1-.9.3m.9-.3h141.8m13 13c0-7.2-5.8-13-13-13m13 13v208m-13 13c7.2 0 13-5.8 13-13m-13 13h-81.2m-.9-.3c.2.2.6.4.9.4m-.9-.4l-.3-.3m-8.6 0l-.3.3m-.9.3c.3 0 .6-.1.9-.4m-.9.4H729.7m-13-13c0 7.2 5.8 13 13 13m-13-13v-208m13-13c-7.2 0-13 5.8-13 13m13-13h55.2m.8.4c-.2-.2-.6-.3-.9-.3m.9.3l.3.3m99.5 175.8H779.7m105.8-105.7v105.7M779.7 184.9h105.8M779.7 290.6V184.9m.5 107.9c0-1.4-1.2-2.6-2.6-2.6m0-104.9c1.4 0 2.6-1.2 2.6-2.6m107.4 107.5c-1.4 0-2.6 1.2-2.6 2.6m0-110.1c0 1.4 1.2 2.6 2.6 2.6m-110 104.9V185.3M885 292.8H780.2m107.4-107.5v104.9M780.2 182.7H885m48.8 94.6h18.6m-705.9-22.1v-1.7m0 1.7v2m0 .5v-.5m-1 .5v-.5m0-2v2m0-2v-1.7m0 0h1m-85.7 4.2h131.9m-30-4.2h1m0 1.7v-1.7m-1 1.7v-1.7m-108.6 18.3h145.2m-136.5 3.9h5.5m1 0h3.3m1 0h3.3m1 0h3.3m1 0h3.3m1 0h3.3m1 0h3.2m1.1 0h3.2m1.1 0h3.2m1 0h3.3m1 0h3.3m1 0h3.3m1 0h3.3m1 0h3.3m1 0h3.3m1 0h3.2m1.1 0h3.2m1.1 0h3.2m1.1 0h3.2m1 0h3.3m1 0h3.3m1 0h3.3m1 0h3.3m1 0h3.3m1 0h3.3m1 0h3.2m4.3 0h-3.2m7.5 0h-3.2m9.7 0h-5.4m-122.4 0v1.5m0 0h-8.1m13.6 1.1v-1.1m0 0v-5.4m0 6.5h1m0 0v-1.1m0 0h-1m1 0v-5.4m115.9 6.5h-1.1m-3.2 0h-1.1m-3.2 0h-1.1m-4.2 0h1m-5.3 0h1m-5.3 0h1m-5.3 0h1m-5.3 0h1m-5.3 0h1m-5.3 0h1m-5.3 0h1.1m-5.4 0h1.1m-5.4 0h1.1m-5.3 0h1m-5.3 0h1m-5.3 0h1m-5.3 0h1m-5.3 0h1m-5.3 0h1m-5.3 0h1m-5.3 0h1.1m-5.4 0h1.1m-5.3 0h1m-5.3 0h1m-5.3 0h1m-5.3 0h1m-5.3 0h1m-18.9-1.1v16.2m3.4 0h-3.4m3.4-9.4h137.3m0 9.4h3.4m0-16.2v16.2m-8.2-16.2h8.2m-8.2-1.5v1.5m-6.5 1.1v-1.1m0-5.4v5.4m0 0h1.1m0 0v-5.4m0 6.5v-1.1m-4.3 0v-5.4m0 6.5v-1.1m-1.1 0h1.1m-1.1 1.1v-1.1m0 0v-5.4m-3.2 5.4v-5.4m0 6.5v-1.1m-1.1 0h1.1m-1.1 1.1v-1.1m0 0v-5.4m-7.5 5.4v-5.4m0 6.5v-1.1m0 0h-1m0 1.1v-1.1m0 0v-5.4m-3.3 0v5.4m0 1.1v-1.1m-1 1.1v-1.1m0-5.4v5.4m1 0h-1m-3.3 0v-5.4m0 6.5v-1.1m0 0h-1m0 1.1v-1.1m0 0v-5.4m-3.3 5.4v-5.4m0 6.5v-1.1m0 0h-1m0 1.1v-1.1m0 0v-5.4m-3.3 0v5.4m0 1.1v-1.1m-1 1.1v-1.1m0-5.4v5.4m1 0h-1m-3.3 0v-5.4m0 6.5v-1.1m0 0h-1m0 1.1v-1.1m0 0v-5.4m-3.2 5.4v-5.4m0 6.5v-1.1m0 0h-1.1m0 1.1v-1.1m0 0v-5.4m-3.2 5.4v-5.4m0 6.5v-1.1m0 0h-1.1m0 1.1v-1.1m0 0v-5.4m-3.2 5.4v-5.4m0 6.5v-1.1m0 0h-1.1m0 1.1v-1.1m0 0v-5.4m-3.2 5.4v-5.4m0 6.5v-1.1m0 0h-1m0 1.1v-1.1m0 0v-5.4m-3.3 5.4v-5.4m0 6.5v-1.1m0 0h-1m0 1.1v-1.1m0 0v-5.4m-3.3 0v5.4m0 1.1v-1.1m-1 1.1v-1.1m0-5.4v5.4m1 0h-1m-3.3 0v-5.4m0 6.5v-1.1m0 0h-1m0 1.1v-1.1m0 0v-5.4m-3.3 5.4v-5.4m0 6.5v-1.1m0 0h-1m0 1.1v-1.1m0 0v-5.4m-3.3 0v5.4m0 1.1v-1.1m-1 1.1v-1.1m0-5.4v5.4m1 0h-1m-3.3 0v-5.4m0 6.5v-1.1m0 0h-1m0 1.1v-1.1m0 0v-5.4m-3.2 5.4v-5.4m0 6.5v-1.1m0 0h-1.1m0 1.1v-1.1m0 0v-5.4m-3.2 0v5.4m0 1.1v-1.1m-1.1 1.1v-1.1m0-5.4v5.4m1.1 0H194m-3.2 0v-5.4m0 6.5v-1.1m0 0h-1m0 1.1v-1.1m0 0v-5.4m-3.3 5.4v-5.4m0 6.5v-1.1m0 0h-1m0 1.1v-1.1m0 0v-5.4m-3.3 5.4v-5.4m0 6.5v-1.1m0 0h-1m0 1.1v-1.1m0 0v-5.4m-3.3 5.4v-5.4m0 6.5v-1.1m0 0h-1m0 1.1v-1.1m0 0v-5.4m-3.3 5.4v-5.4m0 6.5v-1.1m0 0h-1m0 1.1v-1.1m0 0v-5.4m122.8 32.7H158.1m137.3-1.7v1.7m-137.3-1.7v1.7m137.3-17.4v15.7m-137.3-15.7h137.3m-137.3 0v15.7m0-18.8v3.1m137.3-3.1v3.1m-24.1-8.8v-1.1m0 0v-5.4m1 5.4v-5.4m0 6.5v-1.1m0 0h-1m-107.1-1.9v-3.5m-1.7 5.3h-3.4m5.1-1.8l-.3.4m-1.1 1.1l-.3.3m-13 24h8.1m.5 0h-.5m1.5-23.9v-5.4m130.1 3.5v-3.5m6.7 24.1v5.2m-10.7-45.9v-1.7m0 3.7v-2m0 2.5v-.5m18.7 43.9v-37.3m-13 13.3h3.5m4.9 18.8v-24.1m-10.1 3.5l.4.4m1 1.1l.3.3m-130.1-19.4v6.1m133.6 13.4v-5.4m-144.9-8h11.3m-3.2 32.1v5.2m-3.5-5.2h3.5m-3.5 0v-24.1m22.8 35.3v-.4m0 0v-.4m0-1.8v1.8m1-1.8v1.8m0 .4v-.4m0 .8v-.4m0 .4h-1m21.4 0v-.4m0 0v-.4m0-1.8v1.8m1.1-1.8v1.8m0 .4v-.4m0 .8v-.4m0 .4h-1.1m21.5 0v-.4m0 0v-.4m0-1.8v1.8m1-1.8v1.8m0 .4v-.4m0 .8v-.4m0 .4h-1m21.4 0v-.4m0 0v-.4m0-1.8v1.8m1.1-1.8v1.8m0 .4v-.4m0 .8v-.4m0 .4h-1.1m21.5 0v-.4m0 0v-.4m0-1.8v1.8m1-1.8v1.8m0 .4v-.4m0 .8v-.4m0 .4h-1m-105-2.6v-3.4m.4 3.4h-.4m-8.2-3.4v-37.3m114.2-6.1v-.5m-1 .5v-.5m21.4.5v-.5m0-2v2m0-2v-1.7m1.1 0h-1.1m-17.1 4.2v-.5m0-2v2m0-2v-1.7m1 1.7v2m0-2v-1.7m0 4.2v-.5m-1-3.7h1m-9.6 4.2v-.5m0-2v2m0-2v-1.7m1 1.7v2m0-2v-1.7m0 4.2v-.5m-1-3.7h1m11.9 4.2v-.5m0-2v2m0-2v-1.7m1 1.7v2m0-2v-1.7m0 4.2v-.5m-1-3.7h1m8.6 1.7v-1.7m0 1.7v2m0 .5v-.5m-1.1-2v2m1.1-3.7h-1.1m0 1.7v-1.7m0 4.2v-.5m-3.2-2v-1.7m0 1.7v2m0 .5v-.5m-1.1-2v2m1.1-3.7h-1.1m0 1.7v-1.7m0 4.2v-.5m-107.2.5v-.5m0-2v2m0-2v-1.7m1 1.7v2m0-2v-1.7m0 4.2v-.5m-1-3.7h1m3.3 4.2v-.5m0-2v2m0-2v-1.7m1 1.7v2m0-2v-1.7m0 4.2v-.5m-1-3.7h1m3.3 4.2v-.5m0-2v2m0-2v-1.7m1 1.7v2m0-2v-1.7m0 4.2v-.5m-1-3.7h1m3.3 4.2v-.5m0-2v2m0-2v-1.7m1 1.7v2m0-2v-1.7m0 4.2v-.5m-1-3.7h1m3.3 4.2v-.5m0-2v2m0-2v-1.7m1 1.7v2m0-2v-1.7m0 4.2v-.5m-1-3.7h1m4.3 1.7v-1.7m0 1.7v2m0 .5v-.5m-1-2v2m0-3.7h1m-1 1.7v-1.7m0 4.2v-.5m4.2.5v-.5m0-2v2m0-2v-1.7m1.1 1.7v2m0-2v-1.7m0 4.2v-.5m-1.1-3.7h1.1m3.2 4.2v-.5m0-2v2m0-2v-1.7m1.1 1.7v2m0-2v-1.7m0 4.2v-.5m-1.1-3.7h1.1m3.2 4.2v-.5m0-2v2m0-2v-1.7m1 1.7v2m0-2v-1.7m0 4.2v-.5m-1-3.7h1m3.3 4.2v-.5m0-2v2m0-2v-1.7m1 1.7v2m0-2v-1.7m0 4.2v-.5m-1-3.7h1m3.3 4.2v-.5m0-2v2m0-2v-1.7m1 1.7v2m0-2v-1.7m0 4.2v-.5m-1-3.7h1m3.3 4.2v-.5m0-2v2m0-2v-1.7m1 1.7v2m0-2v-1.7m0 4.2v-.5m-1-3.7h1m4.3 1.7v-1.7m0 1.7v2m0 .5v-.5m-1-2v2m0-3.7h1m-1 1.7v-1.7m0 4.2v-.5m4.3.5v-.5m0-2v2m0-2v-1.7m1 1.7v2m0-2v-1.7m0 4.2v-.5m-1-3.7h1m3.3 4.2v-.5m0-2v2m0-2v-1.7m1 1.7v2m0-2v-1.7m0 4.2v-.5m-1-3.7h1m3.2 4.2v-.5m0-2v2m0-2v-1.7m1.1 1.7v2m0-2v-1.7m0 4.2v-.5m-1.1-3.7h1.1m3.2 4.2v-.5m0-2v2m0-2v-1.7m1.1 1.7v2m0-2v-1.7m0 4.2v-.5m-1.1-3.7h1.1m4.3 1.7v-1.7m0 1.7v2m0 .5v-.5m-1.1-2v2m0-3.7h1.1m-1.1 1.7v-1.7m0 4.2v-.5m8.6.5v-.5m0-2v2m0-2v-1.7m1 1.7v2m0-2v-1.7m0 4.2v-.5m-1-3.7h1m3.3 4.2v-.5m0-2v2m0-2v-1.7m1 1.7v2m0-2v-1.7m0 4.2v-.5m-1-3.7h1m7.6 1.7v2m1-2v2m31.7 43.9h.5m3.4-5.2h-3.4m-3.2-38.2v6.1m11.2 37.3h-8m8-37.3h-11.2m3.1 40.7v-3.4m-.4 3.4h.4m-82 40.3c-.4-2.3-2.5-4-4.9-3.6-1.9.3-3.3 1.7-3.6 3.6m60.1-230.3c.4 2.3 2.5 4 4.9 3.6 1.9-.3 3.3-1.7 3.6-3.6M143.5 325.7c0-7.1-5.8-12.9-12.9-12.9-7.1 0-12.9 5.8-12.9 12.9s5.8 12.9 12.9 12.9c7.1 0 12.9-5.7 12.9-12.9h0zm0-192.1c0-7.1-5.8-12.9-12.9-12.9-7.1 0-12.9 5.8-12.9 12.9 0 7.1 5.8 12.9 12.9 12.9 7.1-.1 12.9-5.8 12.9-12.9h0zm192.2 192.1c0-7.1-5.8-12.9-12.9-12.9s-12.9 5.8-12.9 12.9 5.8 12.9 12.9 12.9 12.9-5.7 12.9-12.9h0zm0-192.1c0-7.1-5.8-12.9-12.9-12.9s-12.9 5.8-12.9 12.9c0 7.1 5.8 12.9 12.9 12.9 7.1-.1 12.9-5.8 12.9-12.9h0zM214.1 345.1l-.3-.3m.3.3c.2.2.5.3.9.3m114.7.1H215m114.7 0c7.1 0 12.9-5.8 12.9-12.9m0-205.9v205.9m0-205.9c0-7.1-5.8-12.9-12.9-12.9m-54.6 0h54.6m-54.6 0c-.3 0-.6.1-.9.3m-.3.4l.3-.3m-9.1 0l.3.3m-.3-.3c-.2-.2-.6-.3-.9-.3m-140.4-.1h140.4m-140.4 0c-7.1 0-12.9 5.8-12.9 12.9m0 205.9V126.7m0 205.9c0 7.1 5.8 12.9 12.9 12.9m80.3 0h-80.3m80.3 0c.3 0 .6-.1.9-.3m.3-.4l-.3.3m44.3-209.2v-4.7m0 0h9m0 0v4.7m0 0h-9m-120.6 37.3h4.7m0 0v9.1m0 0h-4.7m0 0v-9.1m124.8 52.4v-4.7m0 0h9m0 0v4.7m0 0h-9m-130.4-27.5v-4.7m0 0h9m0 0v4.7m0 0h-9m69.1 18.9h4.7m0 0v9m0 0h-4.7m0 0v-9m89.7-16.7h4.7m0 0v9m0 0h-4.7m0 0v-9m-89.7-42.1h4.7m0 0v9m0 0h-4.7m0 0v-9m80.6-29.6v-4.7m0 0h9.1m0 0v4.7m0 0h-9.1m9.1 11.6h4.7m0 0v9m0 0h-4.7m0 0v-9m-43.4 85.4v-4.7m0 0h9m0 0v4.7m0 0h-9m-118.6 35.8h22.3m0 0v18m0 0h-22.3m0 0v-18m6.2-92.9h-5.5m0 0v-9.8m0 0h5.5m0 0v9.8m58.8 48.5h4.7m0 0v9m0 0h-4.7m0 0v-9M163 153.1v-22.8m0 0h18.5m0 0v22.8m0 0H163m32.2 42.5v4.7m0 0h-9m0 0v-4.7m0 0h9m-71.6 59.6V247m0 0h15m0 0v8.2m0 0h-15m129.9-36.9v-4.7m0 0h9m0 0v4.7m0 0h-9m38.6-7.7v-4.8m0 0h9.1m0 0v4.8m0 0h-9.1m5-83.5c0-2.4-1.9-4.3-4.3-4.3s-4.3 1.9-4.3 4.3 1.9 4.3 4.3 4.3 4.3-1.9 4.3-4.3h0zM127.8 284.8v4.7m0 0h-9m0 0v-4.7m0 0h9m166.1-105.6h-4.8m0 0v-9m0 0h4.8m0 0v9m40.7 95.7v4.7m0 0h-9m0 0v-4.7m0 0h9M234.2 128.6v-4.7m0 0h9m0 0v4.7m0 0h-9m57.9 74.7v-4.7m0 0h9.1m0 0v4.7m0 0h-9.1M157 162.1v-4.7m0 0h9m0 0v4.7m0 0h-9m126.4 70.1v9.5m0 0H261m0 0v-9.5m0 0h22.4m17.8-11.8v4.7m0 0h-9.1m0 0v-4.7m0 0h9.1m-51.9-91.8v-4.7m0 0h9m0 0v4.7m0 0h-9m-21.1 2.6v4.7m0 0h-9m0 0v-4.7m0 0h9m-73.8 5.6h4.8m0 0v9m0 0h-4.8m0 0v-9m123.2 76.8v4.7m0 0h-9m0 0v-4.7m0 0h9m-135.8 17.6v12.4m0 0h-18.9m0 0v-12.4m0 0h18.9m140.1-46.4h4.7m0 0v9m0 0h-4.7m0 0v-9m-158.8 20.6v-4.7m0 0h9m0 0v4.7m0 0h-9m76.4 11.6h4.7m0 0v9m0 0h-4.7m0 0v-9m-64.4 9h-4.7m0 0v-9m0 0h4.7m0 0v9m57.1-42.9h4.7m0 0v9m0 0h-4.7m0 0v-9m13.9 49.1v9.5m0 0h-22.3m0 0v-9.5m0 0h22.3m-1.9-82.6h-4.7m0 0v-9m0 0h4.7m0 0v9m3.7 60.3v-70.3m0 0h70.3m0 0v70.3m0 0h-70.3m-40.8 5.8v12.4m0 0h-18.9m0 0v-12.4m0 0h18.9m90.5 16.5v9.5m0 0h-22.3m0 0v-9.5m0 0h22.3m29-53h-4.7m0 0v-9m0 0h4.7m0 0v9m-13.8-43.3v-4.7m0 0h9.1m0 0v4.7m0 0h-9.1m-92.8 104h-7.8m0 0v-14.5m0 0h7.8m0 0v14.5m4.9-81.7h4.7m0 0v9m0 0h-4.7m0 0v-9m-61.8 54.5V208m0 0h9m0 0v4.7m0 0h-9m85.4 5.6v-4.7m0 0h9m0 0v4.7m0 0h-9m-75.1-50.2h-4.7m0 0v-9m0 0h4.7m0 0v9m187.1 106.8v4.7m0 0h-9m0 0v-4.7m0 0h9m-154.7 57.3c0-2.4-1.9-4.3-4.3-4.3s-4.3 1.9-4.3 4.3 1.9 4.3 4.3 4.3 4.3-2 4.3-4.3h0zm116.1-177h4.7m0 0v9m0 0h-4.7m0 0v-9m7.2 0h4.8m0 0v9m0 0h-4.8m0 0v-9m-96.9 48.5h4.7m0 0v9m0 0h-4.7m0 0v-9m18.9-72.5v4.7m0 0h-9m0 0v-4.7m0 0h9m-18.9 9.4h4.7m0 0v9m0 0h-4.7m0 0v-9M143.3 226h-4.7m0 0v-9m0 0h4.7m0 0v9m41.6-22.3h4.7m0 0v9m0 0h-4.7m0 0v-9m-4.9-78.3v-5.1m0 0h9.4m0 0v5.1m0 0H180m.2 32v4.7m0 0h-9m0 0v-4.7m0 0h9m121 55.7v4.8m0 0h-9.1m0 0v-4.8m0 0h9.1m19.7 25.8v4.7m0 0h-9m0 0v-4.7m0 0h9m-121.4-53.2h4.7m0 0v9m0 0h-4.7m0 0v-9m-76.4 5.1v-4.7m0 0h9m0 0v4.7m0 0h-9m35.2-41.2v4.8m0 0h-9m0 0v-4.8m0 0h9m.9-17.5h-4.8m0 0V123m0 0h4.8m0 0v9.1m40.3 26.1h4.7m0 0v9m0 0h-4.7m0 0v-9m32.4 74v9.5m0 0h-22.3m0 0v-9.5m0 0h22.3M127 226h-4.7m0 0v-9m0 0h4.7m0 0v9m6 63.5v-4.7m0 0h9m0 0v4.7m0 0h-9m56.6-97.4h-4.7m0 0v-9m0 0h4.7m0 0v9M326 243.6v-4.7m0 0h9m0 0v4.7m0 0h-9m-201 53.5c0-1.9-1.5-3.4-3.4-3.4s-3.4 1.5-3.4 3.4 1.5 3.4 3.4 3.4 3.4-1.5 3.4-3.4h0zm98.5-78.8v-4.7m0 0h9m0 0v4.7m0 0h-9M166 125.2v-4.7m0 0h9m0 0v4.7m0 0h-9m1.1 106v12.4m0 0h-18.9m0 0v-12.4m0 0h18.9m17.8-90.6h4.7m0 0v9m0 0h-4.7m0 0v-9m19.3 68.2h-4.7m0 0v-9m0 0h4.7m0 0v9m113 63.3v-25.7m0 0h12.1m0 0v25.7m0 0h-12.1m-83-136.2v-4.7m0 0h9m0 0v4.7m0 0h-9m-82.3 21.5v4.7m0 0h-9m0 0v-4.7m0 0h9M121 173.2h4.7m0 0v9.1m0 0H121m0 0v-9.1m117.5 45.1v-4.7m0 0h9m0 0v4.7m0 0h-9m-57.2-52.6v43.8m0 0h-43.8m0 0v-43.8m0 0h43.8M948.1 134h-34.7m17.4-17.3v34.7M754 134h-34.7m17.3-17.3v34.7M754 328.2h-34.7m17.3-17.3v34.6m211.5-17.3h-34.7m17.4-17.3v34.6" fill="none" stroke="#000" stroke-width=".5" stroke-linecap="round" stroke-linejoin="round" stroke-miterlimit="10"/><path class="st1" d="M148.2 133.9H81.5m49.6 17.2V87.6M323 151.1V87.6M148.2 325.4H81.5"/><path class="st2" d="M135.4 89.4h183.2M115.7 62.5h222.6m4.3 64.5V60.8M111.4 127V60.3m12.8 53.9H50.6m73.6 231.2H50.6m32.5-207.2v183.3M509 35.6h29.7M413.5 84.4h153.3m-16.1 212.2V33.9M530 114.2V79.1m-8.9 35.1V79.1m-22 120.3V33.9m-129.8 261l-43.8 28.8m43.8-28.8h68.6"/><path class="st1" d="M148.2 133.9H81.5m49.6 17.2V87.6M323 151.1V87.6M148.2 325.4H81.5"/><path class="st3" d="M481 229.8h103.8M227 367.4V102.9M95.8 229.8h289.1"/><path class="st1" d="M305.9 133.9h2.9"/><path d="M312 133.9h3.2" fill="none" stroke="#000" stroke-width=".283" stroke-miterlimit="10" stroke-dasharray="1.6236,3.2472"/><path d="M316.9 133.9h27.6" fill="none" stroke="#000" stroke-width=".283" stroke-miterlimit="10" stroke-dasharray="6.4943,3.2472,1.6236,3.2472"/><path class="st1" d="M346.1 133.9h2.8M131.1 308.2v2.8"/><path d="M131.1 313.4v2.4" fill="none" stroke="#000" stroke-width=".283" stroke-miterlimit="10" stroke-dasharray="1.2039,2.4079"/><path d="M131.1 317v31.3" fill="none" stroke="#000" stroke-width=".283" stroke-miterlimit="10" stroke-dasharray="4.8158,2.4079,1.2039,2.4079"/><path class="st1" d="M131.1 349.5v2.9M300.7 326h2.9"/><path d="M306.8 326h3.3" fill="none" stroke="#000" stroke-width=".283" stroke-miterlimit="10" stroke-dasharray="1.6236,3.2473"/><path d="M311.7 326h27.6" fill="none" stroke="#000" stroke-width=".283" stroke-miterlimit="10" stroke-dasharray="6.4945,3.2473,1.6236,3.2473"/><path class="st1" d="M340.9 326h2.9m-21.5-22.1v2.9"/><path d="M322.3 309.2v2.4" fill="none" stroke="#000" stroke-width=".283" stroke-miterlimit="10" stroke-dasharray="1.204,2.408"/><path d="M322.3 312.8v31.3" fill="none" stroke="#000" stroke-width=".283" stroke-miterlimit="10" stroke-dasharray="4.816,2.408,1.204,2.408"/><path class="st1" d="M322.3 345.3v2.8"/><path class="st12" d="M227 367.4V102.9M95.8 229.8h289.1m91 0h103.9"/><path class="st3" d="M685.1 231.1h295"/><path class="st12" d="M685.1 231.1h295"/><path class="st3" d="M835.1 371.2V101.3"/><path class="st12" d="M835.1 371.2V101.3"/><path class="st13" d="M342.4 62.8l-14.8-2.5v5l14.8-2.5zm-19.6 26.5L308 86.9v4.9l14.8-2.5zm227.4-53.7l-14.8-2.5v5l14.8-2.5zM322.3 325.5l13.7-6.1-2.7-4.1-11 10.2zM499.2 35.6l14.8-2.5v5l-14.8-2.5zm22.2 48.7l-14.9-2.4v4.9l14.9-2.5zm6.9 0l14.9-2.4v4.9l-14.9-2.5zM112 62.8l14.8-2.5v5L112 62.8zm19.6 26.5l14.8-2.4v4.9l-14.8-2.5zm-48.5 44.6l2.5 14.9h-4.9l2.4-14.9zm0 192L80.7 311h4.9l-2.5 14.9z"/><path class="st2" d="M53.4 118.6v221.9"/><path class="st13" d="M53.4 114.3l2.5 14.9H51l2.4-14.9zm0 230.6L51 330h4.9l-2.5 14.9z"/><text transform="translate(502.104 25.705)" class="st14 st15">≈</text><text transform="translate(512.304 25.705)" class="st16 st15">5.9</text><text transform="translate(416.713 77.012)" class="st16 st15">max. 1.1</text><text transform="translate(216.232 57.868)" class="st16 st15">27</text><text transform="translate(377.955 287.187)" class="st16 st15">4 x</text><text transform="translate(410.755 287.187)" class="st14 st15">Ø</text><text transform="translate(420.955 287.187)" class="st16 st15">3</text><text transform="rotate(-90 162.714 85.4)" class="st16 st15">22.4</text><text transform="rotate(-90 142.698 97.023)" class="st16 st15">27</text><text transform="translate(207.84 84.39)" class="st16 st15">22.4</text><text transform="translate(872.8 395.198)" class="st17 st16 st18">Not to scale</text><text transform="translate(872.8 411.098)" class="st17 st16 st18">Dimensions in mm</text></svg>