<svg version="1.1" id="Layer_1" xmlns="http://www.w3.org/2000/svg" x="0" y="0" viewBox="0 0 550 368" xml:space="preserve"><style>.st0{stroke-width:.5;stroke-dasharray:4,4}.st0,.st1{fill:none;stroke:#000;stroke-miterlimit:3.864}.st3,.st4{fill:#e2001a;stroke:#e2001a;stroke-width:1.000000e-02;stroke-miterlimit:10}.st4{stroke-miterlimit:3.864}.st5{fill-rule:evenodd;clip-rule:evenodd}.st6{fill:none;stroke:#000;stroke-width:.3;stroke-miterlimit:3.864}.st8{font-family:Helvetica,Arial,sans-serif}.st10{font-size:10.709px}.st11,.st12{fill:#39b54a;stroke:#39b54a;stroke-width:1.000000e-02;stroke-miterlimit:10}.st12{stroke-miterlimit:3.864}.st13{fill:#fff}.st18{font-size:7px}.st19{fill:none;stroke:#fff;stroke-width:1.000000e-02;stroke-miterlimit:3.864}</style><path class="st0" d="M296.7 154.1v155.3M310 134v176"/><path class="st1" d="M471.9 309.7h53.3m-348.9 0h134"/><path d="M176.3 167.9h348.9" fill="none" stroke="#000" stroke-width=".5" stroke-miterlimit="3.864"/><path class="st3" d="M272 161.4h13.4v6.5H272v-6.5z"/><path class="st4" d="M272 161.4h13.4v6.5H272v-6.5z"/><path class="st0" d="M272 76.7v90m0 1.2v13.5m13.4-13.5v13.5"/><path class="st5" d="M276.5 175.5v1.7l-4.3-1.7 4.3-1.8v1.8zm4.5 0v-1.8l4.3 1.8-4.3 1.7v-1.7z"/><path class="st6" d="M276.4 175.5h6.6"/><path d="M176.3 342.3h338.6" fill="none" stroke="#000" stroke-width="1.3" stroke-miterlimit="3.864"/><path d="M512.3 346.1l14.1-3.8-14.1-3.8v7.6z"/><text transform="translate(474.643 359.896)" class="st8" font-size="14.278">Time</text><text transform="translate(31.822 287.574)" class="st8 st10">Resulting input signal</text><text transform="translate(31.822 300.474)" class="st8 st10">(filtered and delayed)</text><text transform="translate(31.921 104.153)" class="st8 st10">Incoming input signal</text><text transform="translate(31.921 117.053)" class="st8 st10">(unfiltered)</text><path class="st0" d="M284.7 60.4v90m-8.3-84.7v94.2"/><path class="st3" d="M276.4 153.3h13.4v6.5h-13.4v-6.5z"/><path class="st4" d="M276.4 153.3h13.4v6.5h-13.4v-6.5z"/><path class="st0" d="M291.5 53.8v90"/><path class="st3" d="M291.5 137h13.4v6.5h-13.4V137z"/><path class="st4" d="M291.5 137h13.4v6.5h-13.4V137z"/><path class="st3" d="M284.7 145.1h13.4v6.5h-13.4v-6.5z"/><path class="st4" d="M284.7 145.1h13.4v6.5h-13.4v-6.5z"/><path class="st3" d="M432.8 161.1h13.3v6.5h-13.3v-6.5z"/><path class="st4" d="M432.8 161.1h13.3v6.5h-13.3v-6.5z"/><path class="st0" d="M432.8 43.1v123.3M438 65.3v94.3"/><path class="st3" d="M438 152.9h13.4v6.6H438v-6.6z"/><path class="st4" d="M438 152.9h13.4v6.6H438v-6.6z"/><path class="st0" d="M447.7 74.1v69.4"/><path class="st3" d="M447.7 136.6h13.4v6.6h-13.4v-6.6z"/><path class="st4" d="M447.7 136.6h13.4v6.6h-13.4v-6.6z"/><path class="st0" d="M443.8 60.1v90"/><path class="st3" d="M443.8 144.8h13.3v6.5h-13.3v-6.5z"/><path class="st4" d="M443.8 144.8h13.3v6.5h-13.3v-6.5z"/><path class="st0" d="M458.6 63.9v58.2"/><path class="st11" d="M458.6 120.4H472v6.5h-13.4v-6.5z"/><path class="st12" d="M458.6 120.4H472v6.5h-13.4v-6.5z"/><path class="st0" d="M451.8 66v69.3"/><path class="st3" d="M451.8 128.5h13.4v6.6h-13.4v-6.6z"/><path class="st4" d="M451.8 128.5h13.4v6.6h-13.4v-6.6z"/><text transform="translate(290.58 334.112)" class="st8 st10">Delay</text><path class="st0" d="M296.7 310.5V324m13.3-13.5V324"/><path class="st5" d="M301.2 318v1.8l-4.3-1.8 4.3-1.7v1.7zm4.4 0v-1.7l4.3 1.7-4.3 1.8V318z"/><path class="st6" d="M301.1 318h6.5"/><path class="st0" d="M458.6 145.1v177.4M472 126v176"/><text transform="translate(452.511 333.315)" class="st8 st10">Delay</text><path class="st0" d="M472 309.7v13.5"/><path class="st5" d="M463.1 317.2v1.8l-4.3-1.8 4.3-1.7v1.7zm4.5 0v-1.7l4.3 1.7-4.3 1.8v-1.8z"/><path class="st6" d="M463 317.2h6.6"/><path class="st13" d="M260.9 222.9v-42.3h31.7v13.6h30.1v15.2h-30.1v13.5h-31.7z"/><text transform="translate(266.741 192.599)" class="st8 st10">Line</text><text transform="translate(266.741 205.499)" class="st8 st10">debouncer</text><text transform="translate(266.741 218.299)" class="st8 st10">time</text><path class="st0" d="M316.5 43.4v64"/><path class="st3" d="M316.5 100.8h13.4v6.5h-13.4v-6.5z"/><path class="st4" d="M316.5 100.8h13.4v6.5h-13.4v-6.5z"/><path class="st0" d="M320.4 41.2v58"/><path class="st11" d="M320.4 92.5h13.4V99h-13.4v-6.5z"/><path class="st12" d="M320.4 92.5h13.4V99h-13.4v-6.5z"/><path class="st0" d="M296.7 41.2v94.3"/><g fill="#3bb54a" stroke="#39b54a" stroke-width=".01"><path d="M296.7 128.8h13.4v6.5h-13.4v-6.5z" stroke-miterlimit="10"/><path d="M296.7 128.8h13.4v6.5h-13.4v-6.5z" stroke-miterlimit="3.864"/></g><path class="st0" d="M340.6 29v62.4"/><path class="st3" d="M340.6 84.8H354v6.5h-13.4v-6.5z"/><path class="st4" d="M340.6 84.8H354v6.5h-13.4v-6.5z"/><path class="st0" d="M343.6 27.7v55.6"/><path class="st11" d="M343.6 76.6H357v6.6h-13.4v-6.6z"/><path d="M343.6 76.6H357v6.6h-13.4v-6.6z" fill="none"/><path class="st1" d="M310 309.7V222h162v87.7"/><path d="M531.3 111.8s-6.6-.1-7.5-.1c-1 0-10.2-.4-20.3-1-10.2-.5-22.4-4.3-24.8-4.9 0 0-8-2.9-13.4-8.9-5.5-6-6.6-10.3-6.6-10.3V56.7H452V100h-4.1V38h-4v39.2H438V27.4h-5.2V44s-1-1.5-2.7-4.4c0 0-5.1-7.3-9.2-10.3s-10.6-6.9-15.5-7.7c-4.9-.8-27.4-1.9-27.4-1.9h-34.3v38.6h-3V19.7h-10.2c-.8 0-4.7.2-10 1.2v40.5h-3.9V21.7c-1 .2-2 .5-3.1.7-1.7.4-3.5 1-5.4 1.6-11 3.6-11.4 6.4-11.4 6.4v49.5h-5.2V26h-6.7v64.9h-8.4V30H272v51.6l-.5 1.2c-1 2.1-7.4 9.7-7.4 9.7-2.3 2.9-11.2 10.3-17.6 13-6.3 2.7-21.7 4.3-29.2 4.9l-42.7 1.5" fill="none" stroke="#2b2e31" stroke-miterlimit="3.864"/><text transform="translate(122.527 28)" class="st13 st8 st18">OK</text><text transform="translate(460.444 125.75)" class="st13 st8 st18">OK</text><text transform="translate(460.444 125.75)" class="st19 st8 st18">OK</text><text transform="translate(299.194 134.167)" class="st13 st8 st18">OK</text><text transform="translate(299.194 134.167)" class="st19 st8 st18">OK</text><text transform="translate(322.527 98)" class="st13 st8 st18">OK</text><text transform="translate(322.527 98)" class="st19 st8 st18">OK</text><text transform="translate(345.86 82.084)" class="st13 st8 st18">OK</text><text transform="translate(345.86 82.084)" class="st19 st8 st18">OK</text></svg>