<svg version="1.0" xmlns="http://www.w3.org/2000/svg" viewBox="0 0 520 209.5"><g fill="none" stroke="#1D1D1B" stroke-miterlimit="10"><path stroke-width=".709" d="M63.3 17.5h444.4v136.9H63.3z"/><path stroke-width=".227" d="M63.3 55.9h444.3M63.2 68.1h444.5M63.3 80.4H508M63.3 92.7h444.4M63.3 105.3h444.4M63.3 117.6h444.4M63.3 129.8h444.4M63.3 142.1h443.8M126.6 17.5v136.8m31.9-136.8v136.8m31.7-136.7v136.7m31.7-136.5v136.5m31.8-137.1v137.1M94.9 17.5v136.8M317.1 17.2v137.1m31.8-136.8v136.8m31.7-136.8v136.8m31.8-136.4v136.4m31.7-136.8v136.8m31.8-135.9v135.9M285.4 17.6v136.8M63.3 42.2h444.4M63.3 29.9h444.3"/></g><path fill="none" stroke="#1D1D1B" stroke-miterlimit="10" d="M88.7 59.4s3-2.8 5.5-5.4c1.2-1.3 2.7-3 3.7-3.9 1.4-1.3 6.1-7.7 6.5-8.4.5-.7 2.4-4.1 2.8-4.5.3-.3 1-1.1 1.9-1.4.4-.1 1.1-.4 2-.7 1.1-.3 2.5-.7 3.4-.9 1.6-.5 4-1.1 4.8-1.4.8-.3 2.3-1.5 2.7-1.9.3-.4 2.6-3.2 3.3-4 .7-.8 2.2-2.1 2.9-2.5.7-.4 2-1.4 2.8-1.6.8-.1 1.4-.3 2.5-.3 1 0 2.2.5 2.6.7.3.2 3.7 2.4 4.7 3.5.9 1.2 5 6.5 5.4 6.8.4.3 3.2 3.3 3.6 3.6.5.3 2 1.6 2.6 2 .6.4 1.7.8 2.6.9.9.2 3.1.5 3.3.7.2.1 4.2 2.5 4.8 2.9.6.4 4.8 4.5 5.5 5.6.7 1.1 4.1 5 4.9 5.6.8.6 5.9 4.3 6.5 4.7.6.3 2.7 1.9 5.4 2.6 2.7.7 9.3 2 10 2.4.7.4 3.1 1.9 4 2.6.8.8 6.2 7.4 6.5 7.9.3.5 4.7 4.9 5.2 5.4.6.5 3.5 2.6 4.1 2.9.6.3 1.9.8 3 .9s5.9.9 6.4 1c.5.1 2.1.5 2.9.7.8.3 3.5 1.8 4.9 2.7 1.4.9 5.9 4.9 6.8 5.7.8.8 6.1 4.9 6.8 5.3 0 0 4.5 2.6 6 2.9.2.1 3.2.8 6.6 1.6 0 0 0 0 0 0 4.3 1.1 9.4 2.3 10.3 2.6 2.5.8 17.3 6.9 19 7.7 1.8.8 6.1 2.9 7.3 3.8 1.3.8 13.5 7.4 16 8.4 3.5 1.4 19.9 5.7 23.6 6.5 3.6.8 9.7 2.7 10.8 3.1 1.2.4 12.4 3.1 13.9 3.4 1.5.3 37.7 6.4 56.2 8.4s43.9 3.5 46.4 3.6c2.6.1 30.7 1.2 33.2 1.3"/><g fill="#1D1D1B" font-family="Helvetica,Arial,sans-serif"><text transform="translate(87.525 169.664)" font-size="8">400</text><text transform="translate(152.192 169.704)" font-size="8">500</text><text transform="translate(216.194 169.664)" font-size="8">600</text><text transform="translate(279.249 169.704)" font-size="8">700</text><text transform="translate(45.742 130.898)" font-size="8">0.1</text><text transform="translate(45.677 107.165)" font-size="8">0.2</text><text transform="translate(45.71 82.898)" font-size="8">0.3</text><text transform="translate(45.679 58.8)" font-size="8">0.4</text><text transform="translate(45.743 155.176)" font-size="8">0.0</text><text transform="translate(342.086 169.7)" font-size="8">800</text><text transform="translate(405.008 169.673)" font-size="8">900</text><text transform="translate(469 169.693)" font-size="8">1000</text><text transform="translate(45.743 32.47)" font-size="8">0.5</text><text transform="rotate(-90 89.417 66.25)" font-size="12">Quantum Efficiency (%)</text><text transform="translate(234 197.5)" font-size="12">Wavelength (nm)</text></g></svg>