<svg version="1.1" id="Layer_1" xmlns="http://www.w3.org/2000/svg" x="0" y="0" viewBox="0 0 350 140" xml:space="preserve"><style>.st0{fill:#f0f0f0}.st1{fill:none;stroke-width:.425;stroke-miterlimit:3.864}.st1,.st3{stroke:#1a171b}.st3,.st8{fill:none;stroke-miterlimit:3.864}.st3{stroke-width:.992}.st8{stroke:#5a788f;stroke-width:.3}.st10{font-family:Helvetica,Arial,sans-serif}.st11{font-size:12px}</style><path class="st0" d="M236.9 44.8s.5-.3 1-.5c.5-.3 1.5-.7 2.6-.1s2.2 1.3 2.6 1.6c.4.3.7 1.1.7 1.7v.7s1.9-1.1 2.6-1.5c.7-.4 1.2-.3 1.4-.1.3.2 9.6 5.4 15.4 6.9 5 1.7 12.5 4.8 15.8 6.5.6.3 40.6 23.4 40.8 23.6.2.3.5 1.1.5 1.6V95s14.9 8.3 15.2 8.8c.3.5 1 3.2-1.2 4.5s-15.4 8.9-15.4 8.9-.8.6-1.2-.9c-.4-1.6-1.3-2.1-2.9-1.7s-3.3 4.2-3.3 4.2-.4 3-2.1 4-5.8 3.4-5.8 3.4-.4.3-.6.1c-.2-.1-14.2-8.1-14.2-8.1l-4.7 2.8s-1.3 1.2-3.1 0c-1.9-1.1-36.8-21.2-42.3-24.5-5.4-3.3-7.7-6.7-8.6-7.6-.9-.9-4.8-4.6-10.2-7.6-.8-.4-.7-1.1-.7-1.1v-3.6s-2 1.5-3.5.6-2.6-1.6-2.6-1.6-.8-.3-.8-2.6c-.8.4-2.1 1.4-3.5.6-1.3-.8-2.6-1.5-2.6-1.5s-.8-.7-.8-1.7v-.9s-1.9 1.4-3.3.5c-1.5-.9-2.6-1.6-2.6-1.6s-.7-.6-.7-1.8v-.8s-2 1.5-3.5.6l-2.5-1.5s-.9-.5-.9-1.9v-7.8l-20-11.9s8.6-4.4 7.7-12.7c-.9-8.3 5.8-9.4 5.8-9.4l26.9 15.3 5.2-3s1.6-.7 2.5 0l2.2 1.3s1.1.3 1.1 2.2v.6l1.1-.6s1.4-.7 2.3-.1c.9.6 2.8 1.7 2.8 1.7s.7.5.7 1.8v.8s.3-.2.8-.5 1.6-.7 2.5-.1c.9.5 2.3 1.4 2.7 1.6.3.2.7 1 .7 1.8"/><path class="st1" d="M280.4 119.2c0 2 1.6 2.7 3.7 1.6m0-18.5c-2 1.2-3.7 3.8-3.7 5.8m39.9-23c0-2-1.6-2.7-3.7-1.6m-97.4-3.4c0 .4.2.8.4.9m1.5-19.7c-1 .6-1.8 1.9-1.8 2.9m28.5-17.7c-.3-.2-.8-.1-1.4.2M219.2 80V64.2"/><path d="M309.1 122.8c-3.2 1.8-5.4 3.1-5.6 3.2-.7.4-.8-.2-.8-.2v-4c0-.9.8-1.3.8-1.3l29.2-16.9c.8-.5 1.4-.3 1.4-.3l1.1.3s.7.1.7.9v.8s.2 1.9-2 3.1c-39.2 22.6 24.8-14.3-14.7 8.5-1.2.7-1.4-.8-1.4-.8-.4-1.7-1.7-2.4-3.3-1.5-1.6.9-2.9 3.2-3.3 5.4 0 0-.3 1.7-2.1 2.8h0zm8.3-7.6l18.5-10.7m-24.4 14.1l-8.7 5.1" fill="none" stroke="#1a171b" stroke-width=".425" stroke-miterlimit="10"/><path class="st1" d="M289.9 92.1c-1.5.8-4 .7-5.7-.2l-35-20.2c-1.7-1-1.9-2.5-.4-3.3l8.9-5.2c1.5-.8 4-.7 5.7.2l35 20.2c1.7 1 1.9 2.5.4 3.3l-8.9 5.2zm-5.8 10.2l32.5-18.8M212.4 36.6l-26.9-15.3M222 64.2c11.7 6.1 5.9 10.1 19.4 17.9l37.2 20.9m5.5 17.7l4.6-2.7m-69.1-37l.9.5c13.4 7.7 7.4 8.8 21 16.6l38.9 22.4M172 43.4l19.9 11.9M315 91.9l20.6 11.8m-52.6 11l19.9 11.4M283 110.3l19.8 11.3m11-12l-13.2-7.7 2.4-1.3 13.2 7.6-2.4 1.4zm-30.8 5.1v-4.4m32-18.4l-32 18.4m-2.6 8.9v-11.1m39.9-23v9.8m-83.4-50.3V44c0-2-1.7-2.7-3.7-1.6l-21.5 12.4c-2 1.2-3.7 3.8-3.7 5.8v11.1c0 2 1.6 2.7 3.7 1.6l.6-.3"/><path class="st1" d="M208.9 73.5l-2.6-1.6c-.5-.3-.7-1-.7-1.8V59c0-2 1.6-4.6 3.7-5.8l21.5-12.4c1.2-.7 2.2-.7 2.9-.3l2.6 1.6"/><path class="st1" d="M243.8 48.1v-.6c0-2-1.6-2.7-3.7-1.6l-21.5 12.4c-2 1.2-3.7 3.8-3.7 5.8v11.1c0 2 1.6 2.7 3.7 1.6l.6-.3"/><path class="st1" d="M215.8 77l-2.6-1.6c-.5-.3-.7-1-.7-1.8V62.5c0-2 1.6-4.6 3.7-5.8l21.5-12.4c1.2-.7 2.2-.7 2.9-.3l2.6 1.6m-19.8-8V37c0-2-1.6-2.7-3.7-1.6l-21.5 12.4c-2 1.2-3.7 3.8-3.7 5.8v11.1c0 2 1.6 2.7 3.7 1.6l.6-.3"/><path class="st1" d="M195.3 66.5l-2.6-1.6c-.5-.3-.7-1-.7-1.8V52c0-2 1.6-4.6 3.7-5.8l21.5-12.4c1.2-.7 2.2-.7 2.9-.3l2.6 1.6"/><path class="st1" d="M230.3 41.1v-.6c0-2-1.6-2.7-3.7-1.6L205 51.3c-2 1.2-3.7 3.8-3.7 5.8v11.1c0 2 1.6 2.7 3.7 1.6l.6-.3"/><path class="st1" d="M202.2 70l-2.6-1.6c-.5-.3-.7-1-.7-1.8V55.5c0-2 1.6-4.6 3.7-5.8L224 37.4c1.2-.7 2.2-.7 2.9-.3l2.6 1.6m16.9 7.9l-25.3 14.7m98.1 21.8l-37.7-21.8c-13.5-7.8-20.5-7.1-33.7-14.8m.8 55.6V86.3m6.1 19.5V89.9m6.2 19V93m6.1 19.6V96.7"/><path class="st3" d="M236.9 44.8s.5-.3 1-.5c.5-.3 1.5-.7 2.6-.1s2.2 1.3 2.6 1.6c.4.3.7 1.1.7 1.7v.7s1.9-1.1 2.6-1.5c.7-.4 1.2-.3 1.4-.1.3.2 9.6 5.4 15.4 6.9 5 1.7 12.5 4.8 15.8 6.5.6.3 40.6 23.4 40.8 23.6.2.3.5 1.1.5 1.6V95s14.9 8.3 15.2 8.8c.3.5 1 3.2-1.2 4.5s-15.4 8.9-15.4 8.9-.8.6-1.2-.9c-.4-1.6-1.3-2.1-2.9-1.7s-3.3 4.2-3.3 4.2-.4 3-2.1 4-5.8 3.4-5.8 3.4-.4.3-.6.1c-.2-.1-14.2-8.1-14.2-8.1l-4.7 2.8s-1.3 1.2-3.1 0c-1.9-1.1-36.8-21.2-42.3-24.5-5.4-3.3-7.7-6.7-8.6-7.6-.9-.9-4.8-4.6-10.2-7.6-.8-.4-.7-1.1-.7-1.1v-3.6s-2 1.5-3.5.6-2.6-1.6-2.6-1.6-.8-.3-.8-2.6c-.8.4-2.1 1.4-3.5.6-1.3-.8-2.6-1.5-2.6-1.5s-.8-.7-.8-1.7v-.9s-1.9 1.4-3.3.5c-1.5-.9-2.6-1.6-2.6-1.6s-.7-.6-.7-1.8v-.8s-2 1.5-3.5.6l-2.5-1.5s-.9-.5-.9-1.9v-7.8l-20-11.9s8.6-4.4 7.7-12.7c-.9-8.3 5.8-9.4 5.8-9.4l26.9 15.3 5.2-3s1.6-.7 2.5 0l2.2 1.3s1.1.3 1.1 2.2v.6l1.1-.6s1.4-.7 2.3-.1c.9.6 2.8 1.7 2.8 1.7s.7.5.7 1.8v.8s.3-.2.8-.5 1.6-.7 2.5-.1c.9.5 2.3 1.4 2.7 1.6.3.2.7 1 .7 1.8"/><path class="st0" d="M17.1 29.5l26.5 15s2.3-1.3 2.7-1.4c0 0 1-.3 1.4-.1.5.2 2.3 1.4 2.3 1.4s.7.6.7 1.4v.8l1.4-.7c.3-.1 1-.1 1.2 0 .3.1 2.4 1.4 2.4 1.4s.6.7.6 1.2v.9s.9-.5 1.1-.5c.2-.1.9-.3 1.3-.1.4.2 2.5 1.5 2.5 1.5s.6.5.6 1.3v.8l1.1-.6s1.1-.3 1.5-.1c.4.2 2.1 1.4 2.1 1.4s.3.3.3.5v2s1.6-1 1.9-1.1.6-.1.8 0c.2.1 5.8 3.3 11 4.9 5.2 1.5 12.2 5.3 12.2 5.3l25.9 15s.4.4.5 1v9.8l9.5 5.5v2.5L127 101l-14.5 8.5-1.9-.8-7.4-4s-9.2 5.7-9.3 5.7c-.2.1-.6.5-1.7-.2-1.2-.6-27.6-15.9-28.1-16.2-.5-.3-3.9-2.2-6.7-5.8-1.7-2.4-6.9-5.1-6.9-5.1s-.5-.1-.5-.8v-1.9s-1.9 1.3-3 .6c-1.2-.7-2.1-1.2-2.1-1.2s-.6-.8-.6-1.2v-.9s-1.5 1.3-2.8.5-2.2-1.3-2.2-1.3-.5-.5-.5-1.1v-.9s-1.8 1-2.8.4-2.1-1.3-2.1-1.3-.6-.8-.6-1.2v-.9s-1.6 1.2-2.8.5c-1.2-.7-2.1-1.3-2.1-1.3s-.6-.6-.6-1.3V66L7.9 54.4S12.7 52 12 43c-.6-9.1 4.7-13.3 5.1-13.5"/><path class="st1" d="M50 82.5V66.7m-6.5-22.2l-26.4-15M7.9 54.4l19.5 11.7m34.4-13.8v-.7c0-1.7-1.3-2.2-3-1.3l-15.1 8.2c-1.7 1-3 3.1-3 4.7v13.4c0 1.7 1.3 2.2 3 1.3l.5-.3"/><path class="st1" d="M41.4 78.2l-2.1-1.3c-.4-.3-.6-.8-.6-1.5V62c0-1.7 1.3-3.8 3-4.7l15.1-8.2c1-.6 1.8-.6 2.4-.2l2.1 1.3"/><path class="st1" d="M50.2 80.3l-.8.5c-1.7 1-3 .4-3-1.3V66.1c0-1.7 1.9-3.8 3.5-4.7l14.5-8.2c.6-.3 1.1-.5 1.6-.5 0 0 1 .2.8.9v1.9"/><path class="st1" d="M47 81.1l-2.1-1.3c-.4-.3-.6-.8-.6-1.5V64.9c0-1.7 1.9-3.8 3.5-4.7L62.4 52c1-.6 1.8-.6 2.4-.2l1.4 1m-15.4-6.4v-.5c0-1.7-1.3-2.2-3-1.3l-15.1 8.2c-1.7 1-3 3.1-3 4.7v13.4c0 1.7 1.3 2.2 3 1.3l.5-.3"/><path class="st1" d="M30.4 72.5l-2.1-1.3c-.4-.3-.6-.8-.6-1.5V56.3c0-1.7 1.3-3.8 3-4.7l15.1-8.2c1-.6 1.8-.6 2.4-.2l2.1 1.3"/><path class="st1" d="M56.4 49.3v-.5c0-1.7-1.3-2.2-3-1.3l-15.1 8.2c-1.7 1-3 3.1-3 4.7v13.4c0 1.7 1.3 2.2 3 1.3l.5-.3"/><path class="st1" d="M36 75.3L33.8 74c-.4-.3-.6-.8-.6-1.5V59.1c0-1.7 1.3-3.8 3-4.7l15.1-8.2c1-.6 1.8-.6 2.4-.2l2.1 1.3M50.3 83l.6.3c9.1 5.2 5.1 6 14.3 11.3L91.8 110m0-.8c0 1.4 1.1 1.9 2.5 1.1m0-17.7c-1.4.8-2.5 2.6-2.5 4M119 80.8c0-1.4-1.1-1.9-2.5-1.1M50 82.4c0 .3.1.5.3.6m1-18.4c-.7.4-1.3 1.3-1.3 2m19.5-12.1c-.2-.1-.6-.1-.9.1m26.9 32.3c-1 .6-2.8.5-3.9-.2L67.7 73c-1.2-.7-1.3-1.7-.3-2.3l11-6c1-.6 2.8-.5 3.9.2l23.9 13.8c1.2.7 1.3 1.7.3 2.3l-11 5.9zm-1.2 5.7l22.2-12.8M51.9 66.5c8 4.2 4 6.9 13.3 12.2L90.6 93m3.7 17.2l7.4-4.4m-9.9 3.4V96.6"/><path class="st1" d="M68.6 54.6l-17.3 10m67 14.9L92.5 64.6c-9.2-5.3-14-4.9-23-10.1m.6 40.5V84.1m4.1 13.4V86.7m4.2 12.9V88.8m4.2 13.3V91.3m32.3-2.9l13.6 7.8m-31.5 5l13.6 7.7M97 98.7l13.6 7.9m6.4-6.6l-10.1-6 1.3-.7 10.1 6-1.3.7zm-20 1.2v-2.5m17.9-10.3L97 98.7"/><path d="M126.7 101.5l-14.2 8.2-1.9-.8v-2.3l17.9-10.4v2.5l-1.8 2.8z" fill="#f0f0f0" stroke="#1a171b" stroke-width=".425" stroke-linejoin="round" stroke-miterlimit="10"/><path d="M124.4 100.6l-9.6 5.5v-2l9.6-5.5v2z" fill="#f0f0f0" stroke="#1a171b" stroke-width=".425" stroke-miterlimit="10"/><path d="M116.3 106.2l-.5.3v-1.9l.5-.3v1.9zm1.8-1l-.5.3v-1.9l.5-.4v2zm1.8-1.1l-.5.3v-1.9l.5-.3v1.9zm1.7-.9l-.6.3v-1.9l.6-.3v1.9zm1.8-1.1l-.6.4v-2l.6-.3v1.9z" fill="#1a171b"/><path class="st3" d="M17.1 29.5l26.5 15s2.3-1.3 2.7-1.4c0 0 1-.3 1.4-.1.5.2 2.3 1.4 2.3 1.4s.7.6.7 1.4v.8l1.4-.7c.3-.1 1-.1 1.2 0 .3.1 2.4 1.4 2.4 1.4s.6.7.6 1.2v.9s.9-.5 1.1-.5c.2-.1.9-.3 1.3-.1.4.2 2.5 1.5 2.5 1.5s.6.5.6 1.3v.8l1.1-.6s1.1-.3 1.5-.1c.4.2 2.1 1.4 2.1 1.4s.3.3.3.5v2s1.6-1 1.9-1.1.6-.1.8 0c.2.1 5.8 3.3 11 4.9 5.2 1.5 12.2 5.3 12.2 5.3l25.9 15s.4.4.5 1v9.8l9.5 5.5v2.5L127 101l-14.5 8.5-1.9-.5-7.4-4.2s-9.2 5.7-9.3 5.7c-.2.1-.6.5-1.7-.2-1.2-.7-27.6-16-28.1-16.3s-3.9-2.2-6.7-5.8c-1.7-2.4-6.9-5.1-6.9-5.1s-.5-.1-.5-.8v-1.9s-1.9 1.3-3 .6c-1.2-.7-2.1-1.2-2.1-1.2s-.6-.8-.6-1.2v-.9s-1.5 1.3-2.8.5-2.2-1.3-2.2-1.3-.5-.5-.5-1.1v-.9s-1.8 1-2.8.4-2.1-1.3-2.1-1.3-.6-.8-.6-1.2v-.9s-1.6 1.2-2.8.5c-1.2-.7-2.1-1.3-2.1-1.3s-.6-.6-.6-1.3V66L7.9 54.4S12.7 52 12 43c-.6-9.1 4.7-13.3 5.1-13.5"/><path d="M62.9 91.1c9.1 9.8 17.2 18.7 17.7 19.1 1.8 1.8 1.8 4.7 0 6.5s-4.7 1.8-6.5 0c-.4-.4-9.2-8.4-18.9-17.3-9 9.6-16.9 17.9-17.4 17.8-2.5 1.7-6 1.4-8.3-.8-2.4-2.4-2.7-5.9-.6-8.5 0-.5 7.9-8.2 17.3-16.8-9.6-8.8-17.7-16.6-17.7-17.2-1.7-2.5-1.4-6 .8-8.2 2.4-2.4 5.9-2.7 8.6-.6.6 0 8.4 8.2 17.3 17.7 9.7-8.9 18.6-17 19-17.4 1.8-1.8 4.7-1.8 6.5 0 1.8 1.8 1.8 4.7 0 6.5-.4.3-8.7 9.3-17.8 19.2z" fill="#e53327"/><path class="st8" d="M62.9 91.1c9.1 9.8 17.2 18.7 17.7 19.1 1.8 1.8 1.8 4.7 0 6.5s-4.7 1.8-6.5 0c-.4-.4-9.2-8.4-18.9-17.3-9 9.6-16.9 17.9-17.4 17.8-2.5 1.7-6 1.4-8.3-.8-2.4-2.4-2.7-5.9-.6-8.5 0-.5 7.9-8.2 17.3-16.8-9.6-8.8-17.7-16.6-17.7-17.2-1.7-2.5-1.4-6 .8-8.2 2.4-2.4 5.9-2.7 8.6-.6.6 0 8.4 8.2 17.3 17.7 9.7-8.9 18.6-17 19-17.4 1.8-1.8 4.7-1.8 6.5 0 1.8 1.8 1.8 4.7 0 6.5-.4.3-8.7 9.3-17.8 19.2z"/><path d="M218.4 94.4c-.2-.6-.3-1.2-.3-1.9 0-2.9 2.3-5.3 5.1-5.3.8 0 1.6.2 2.2.5 1.9.5 14.3 13.3 16.7 15.6.2.2.5.4.9.4.5 0 .9-.3 1.1-.6 2.2-4.9 18-34.4 21.6-37.9.9-1.2 2.4-2 4-2 2.8 0 5.1 2.4 5.1 5.3 0 .6-.1 1.2-.3 1.8 0 1.1-26.2 44.6-26.7 45.4-.9 1.6-2.5 2.6-4.4 2.6-1 0-1.9-.3-2.6-.8-1.6-.9-22.4-21.1-22.4-23.1z" fill="#6bb54d"/><path class="st8" d="M218.4 94.4c-.2-.6-.3-1.2-.3-1.9 0-2.9 2.3-5.3 5.1-5.3.8 0 1.6.2 2.2.5 1.9.5 14.3 13.3 16.7 15.6.2.2.5.4.9.4.5 0 .9-.3 1.1-.6 2.2-4.9 18-34.4 21.6-37.9.9-1.2 2.4-2 4-2 2.8 0 5.1 2.4 5.1 5.3 0 .6-.1 1.2-.3 1.8 0 1.1-26.2 44.6-26.7 45.4-.9 1.6-2.5 2.6-4.4 2.6-1 0-1.9-.3-2.6-.8-1.6-.9-22.4-21.1-22.4-23.1z"/><text transform="translate(75.199 21.043)" class="st10 st11">USB 1.x/2.0</text><text transform="translate(75.199 35.443)" class="st10 st11">Micro-B cable</text><text transform="translate(269.887 21.043)" class="st10 st11">USB 3.0</text><text transform="translate(269.887 35.443)" class="st10 st11">Micro-B cable</text></svg>