<svg version="1.1" id="Layer_1" xmlns="http://www.w3.org/2000/svg" x="0" y="0" viewBox="0 0 1000 660" xml:space="preserve"><style>.st0{fill:#f5f5f5}.st1,.st2,.st3,.st4{fill:none;stroke-linecap:round;stroke-linejoin:round}.st1{stroke-width:.283;stroke-miterlimit:10;stroke:#000}.st2,.st3,.st4{stroke:#1a1a18}.st2{stroke-miterlimit:10;stroke-width:.567}.st3,.st4{stroke-width:.283}.st4{stroke-miterlimit:10}.st5{font-family:Helvetica,Arial,sans-serif}.st6{font-size:16.837px}.st7{fill:#1a1a18}.st8{font-size:16.84px}.st10,.st11,.st12,.st13,.st16,.st21,.st22,.st9{fill:none;stroke:#030304;stroke-width:.283;stroke-miterlimit:10}.st10{stroke-dasharray:.6705,1.3409}.st11{stroke-dasharray:5.0284,1.3409,.6705,1.3409}.st12{stroke-dasharray:.6705,1.341}.st13{stroke-dasharray:5.0287,1.341,.6705,1.341}.st16{stroke-dasharray:5.0288,1.341,.6705,1.341}.st21{stroke-dasharray:.6193,1.2386}.st22{stroke-dasharray:4.6448,1.2386,.6193,1.2386}.st23{stroke:#1a1a18;stroke-linecap:round;stroke-linejoin:round;stroke-dasharray:.5802,2.9008}.st23,.st24,.st25,.st26{fill:none;stroke-width:.283}.st24{stroke-linecap:round;stroke-linejoin:round;stroke-dasharray:7.2519,2.9008,.5802,2.9008;stroke:#1a1a18}.st25,.st26{stroke:#000}.st25{stroke-linecap:round;stroke-linejoin:round}.st26{stroke-miterlimit:10}</style><path class="st0" d="M588 388c3 0 5.5-2.4 5.5-5.5V260.9c0-3-2.4-5.5-5.5-5.5H466.3c-3 0-5.5 2.4-5.5 5.5v121.6c0 3 2.4 5.5 5.5 5.5H588z"/><path class="st1" d="M578.6 321.7c0-26.4-20-48.5-46.2-51.2l-1.6-.3-1.4-.7c-1.4-.7-3-.7-4.4 0l-1.5.7-1.5.3c-26.3 2.7-46.2 24.8-46.2 51.1"/><path class="st1" d="M523.3 270.4c-1.8 2.1-1.6 5.2.4 7.1s5.1 1.9 7.1 0 2.2-5 .4-7.1"/><path class="st1" d="M585.8 321.7c0-32.3-26.2-58.5-58.5-58.5s-58.5 26.2-58.5 58.5m37.9-64.1h41"/><path class="st1" d="M578.6 321.7c0 26.4-20 48.5-46.2 51.1l-1.6.3-1.4.7c-1.4.7-3 .7-4.4 0l-1.5-.7-1.5-.3c-26.3-2.7-46.2-24.8-46.2-51.2"/><path class="st1" d="M523.3 373c-1.8-2.1-1.6-5.2.4-7.1s5.1-1.9 7.1 0 2.2 5 .4 7.1m38.7-36.3c0 12.2-9.9 22.2-22.2 22.2h-41.2c-12.2 0-22.2-9.9-22.2-22.2v-30c0-12.2 9.9-22.2 22.2-22.2h41.2c12.2 0 22.2 9.9 22.2 22.2v30z"/><path class="st1" d="M565.1 336.7c0 9.6-7.8 17.4-17.4 17.4h-41.2c-9.6 0-17.4-7.8-17.4-17.4v-30c0-9.6 7.8-17.4 17.4-17.4h41.2c9.6 0 17.4 7.8 17.4 17.4v30z"/><path class="st1" d="M585.8 321.7c0 32.3-26.2 58.5-58.5 58.5s-58.5-26.2-58.5-58.5m37.8 64.1h41.1"/><path class="st1" d="M506.7 385.8c-3 0-6-.6-8.8-1.9-14.5-6.8-26.1-18.5-32.9-33-1.3-2.7-2-5.8-2-8.9v-40.7c0-3 .7-6.1 2-8.9 6.8-14.5 18.5-26.2 32.9-33 2.7-1.3 5.7-1.9 8.8-1.9m40.9 128.3c3 0 6.2-.6 8.9-1.9 14.5-6.8 26.1-18.4 32.9-32.9 1.3-2.7 1.9-5.9 1.9-8.9v-40.7c0-3-.6-6.2-1.9-8.9-6.8-14.5-18.4-26.1-32.9-32.9-2.7-1.3-5.9-1.9-8.9-1.9"/><path class="st1" d="M506.7 388.1c-3.4 0-6.7-.7-9.7-2.1-14.9-7-27-19.2-34.1-34.1m0-.1c-1.1-2.3-1.8-4.8-2.1-7.4"/><path class="st2" d="M588 388c3 0 5.5-2.4 5.5-5.5V260.9c0-3-2.4-5.5-5.5-5.5H466.3c-3 0-5.5 2.4-5.5 5.5v121.6c0 3 2.4 5.5 5.5 5.5H588z"/><path class="st1" d="M506.7 255.3c-3.4 0-6.7.7-9.7 2.1-14.9 7-27 19.2-34.1 34.1-1.1 2.3-1.8 4.8-2.1 7.4m132.7-.3c-.3-2.4-.9-4.9-1.9-7.1-7-14.9-19.2-26.9-34.1-34-3.1-1.4-6.4-2.2-9.8-2.2m45.8 89.6c-.3 2.4-.9 4.9-1.9 7.1-7 14.9-19.2 26.9-34.1 34-3.1 1.4-6.4 2.2-9.8 2.2"/><path class="st0" d="M849.4 383.4c0 2.5-2 4.6-4.6 4.6H721.4c-2.5 0-4.6-2.1-4.6-4.6V260c0-2.5 2.1-4.6 4.6-4.6h123.4c2.5 0 4.6 2.1 4.6 4.6v123.4z"/><path class="st2" d="M849.4 383.4c0 2.5-2 4.6-4.6 4.6H721.4c-2.5 0-4.6-2.1-4.6-4.6V260c0-2.5 2.1-4.6 4.6-4.6h123.4c2.5 0 4.6 2.1 4.6 4.6v123.4z"/><path class="st3" d="M813.6 358.5c0 1.7-1.4 3.1-3.1 3.1-1.7 0-3.1-1.4-3.1-3.1s1.4-3.1 3.1-3.1c1.7 0 3.1 1.4 3.1 3.1zm-44.8.4c0-1.7 1.4-3.1 3.1-3.1 1.7 0 3.1 1.4 3.1 3.1s-1.4 3.1-3.1 3.1c-1.7 0-3.1-1.4-3.1-3.1z"/><path class="st3" d="M766.3 358.9c0-3.1 2.5-5.6 5.6-5.6s5.6 2.5 5.6 5.6-2.5 5.6-5.6 5.6-5.6-2.5-5.6-5.6zm63.3-.4c0 10.6-8.6 19.2-19.2 19.2s-19.2-8.6-19.2-19.2 8.6-19.2 19.2-19.2c10.7 0 19.2 8.6 19.2 19.2z"/><path class="st3" d="M826.5 358.5c0 8.8-7.2 16-16 16s-16-7.2-16-16 7.2-16 16-16 16 7.2 16 16z"/><path class="st3" d="M833.5 358.5c0 12.7-10.3 23-23 23s-23-10.3-23-23 10.3-23 23-23 23 10.3 23 23z"/><path class="st3" d="M822.5 358.5c0 1.7-1.4 3.1-3.1 3.1s-3.1-1.4-3.1-3.1 1.4-3.1 3.1-3.1 3.1 1.4 3.1 3.1zm-15.1 6.6c0 1.7-1.4 3.1-3.1 3.1-1.7 0-3.1-1.4-3.1-3.1s1.4-3.1 3.1-3.1c1.8 0 3.1 1.4 3.1 3.1zm9.5 1.4c0 1.7-1.4 3.1-3.1 3.1-1.7 0-3.1-1.4-3.1-3.1s1.4-3.1 3.1-3.1c1.7 0 3.1 1.4 3.1 3.1zm-9.5-14.6c0-1.7-1.4-3.1-3.1-3.1-1.7 0-3.1 1.4-3.1 3.1s1.4 3.1 3.1 3.1c1.8 0 3.1-1.4 3.1-3.1zm2.1-3.3c0-.7-.6-1.3-1.3-1.3s-1.3.6-1.3 1.3c0 .7.6 1.3 1.3 1.3s1.3-.6 1.3-1.3zm10.8 4.4c0-.7-.6-1.3-1.3-1.3s-1.3.6-1.3 1.3c0 .7.6 1.3 1.3 1.3s1.3-.6 1.3-1.3zm-10.8 15.4c0 .7-.6 1.3-1.3 1.3s-1.3-.6-1.3-1.3c0-.7.6-1.3 1.3-1.3s1.3.6 1.3 1.3zm10.8-4.4c0 .7-.6 1.3-1.3 1.3s-1.3-.6-1.3-1.3c0-.7.6-1.3 1.3-1.3s1.3.6 1.3 1.3zm-3.4-13.5c0-1.7-1.4-3.1-3.1-3.1-1.7 0-3.1 1.4-3.1 3.1s1.4 3.1 3.1 3.1c1.7 0 3.1-1.4 3.1-3.1zm-18 10.9v.6h1.1l3.2-2.3h1.6c.5 0 .7.1.7-.4v-1.7c0-.5-.3-.4-.7-.4h-1.6L800 355h-1.1v.6s.1 0 .1.1c.9.6 1.5 1.6 1.5 2.8.1 1.2-.6 2.3-1.6 2.9z"/><path class="st3" d="M797.6 355.8c1.3-6 6.6-10.5 12.9-10.5 7.3 0 13.2 5.9 13.2 13.2 0 7.3-5.9 13.2-13.2 13.2-6.4 0-11.7-4.5-12.9-10.5 1.4-.2 2.4-1.3 2.4-2.7 0-1.4-1.1-2.6-2.4-2.7z"/><path class="st4" d="M746.1 295.1c0 4.8-3.9 8.6-8.6 8.6-4.8 0-8.6-3.9-8.6-8.6 0-4.8 3.9-8.6 8.6-8.6 4.7 0 8.6 3.8 8.6 8.6z"/><path class="st4" d="M742.1 295.1c0 2.6-2.1 4.7-4.7 4.7s-4.7-2.1-4.7-4.7 2.1-4.7 4.7-4.7 4.7 2.1 4.7 4.7zm95.6 0c0 4.8-3.9 8.6-8.6 8.6-4.8 0-8.6-3.9-8.6-8.6 0-4.8 3.9-8.6 8.6-8.6 4.7 0 8.6 3.8 8.6 8.6z"/><path class="st4" d="M833.8 295.1c0 2.6-2.1 4.7-4.7 4.7s-4.7-2.1-4.7-4.7 2.1-4.7 4.7-4.7 4.7 2.1 4.7 4.7zm-87-32.4h72.7v64.9h-72.7v-64.9z"/><path class="st4" d="M816.5 275.3h-7.3V266h7.3v9.3zm-58.3 0h-7.3V266h7.3v9.3zm35.1-5.9h6.5v5.5h2.7v3.5h10v35.2h-58.7l.1-34.9h9.9v-3.8h2.7v-5.5h6.5v-4.1h20.3v4.1"/><path class="st1" d="M765.8 300.3v13.3m2 0v-13.3h-2m23.2 0v13.3m2.1 0v-13.3H789m4.7 0v13.3m2 0v-13.3h-2m-9.3 0v13.3m2 0v-13.3h-2m-4.7 0v13.3m2.1 0v-13.3h-2.1m-4.6 0v13.3m2 0v-13.3h-2m23.2 0v13.3m2.1 0v-13.3h-2.1m-27.9 0v13.3m2.1 0v-13.3h-2.1"/><path class="st0" d="M319.7 335.3c-.5 0-.9-.4-.9-.9v-30.1c0-.3.2-.5.5-.5h.5c.3 0 .5-.2.5-.5V288c0-.3-.2-.5-.5-.5h-.5c-.3 0-.5-.2-.5-.5v-30.4c0-.5-.4-.9-.9-.9l-9.6-.3-1.5.4H114.6l-1.5-.4H67l-2.2 2.3v128.8l2.2 2.3h46.1l1.5-.4h192.3l1.5.4 9.6-.3c.5 0 .9-.4.9-.9v-4c0-.5.4-.9.9-.9l28.7-.9c.6 0 1.1-.5 1.1-1.1v-43.5c0-.6-.5-1.1-1.1-1.1l-28.8-.8z"/><path class="st1" d="M306.8 255.8v132.5m-8.5-25.8l-.3 2.5c-.1.6-.6 1-1.2 1l-2.5-.1-.1 1.6 2.4.3c.6.1 1 .6 1 1.2l-.1 2.5 1.6.3.3-2.5c.1-.6.6-1 1.2-1l2.6.1.1-1.6-2.5-.3c-.6-.1-1-.6-1-1.2l.1-2.6-1.6-.2zm.4 11.9h8.1"/><path class="st1" d="M298.6 354.5c-6.9 0-12.6 5.6-12.6 12.6 0 6.9 5.6 12.6 12.6 12.6h8.2m0-20h-8.1m0-5.2h8.1"/><path class="st1" d="M305.9 367.1c0 4-3.3 7.3-7.3 7.3s-7.3-3.3-7.3-7.3 3.3-7.3 7.3-7.3 7.3 3.2 7.3 7.3zm-191.5-20h.2m-20.4-55.6l.5-.1.1-.2m-.6.3H65m0 9.8h29.8m0 0v-46m0 6h224m-204.2 81.3v5.1m0-91.9v132.4m192.2-38.7c0-.4-.3-.7-.7-.7h-10.3c-1.8 0-3.7.3-5.4 1l-19.4 7.1c-2.1.8-4.3 1.1-6.5 1.1H153.3c-5.8 0-11.3-2.7-15-7.1l-3.1-3.5c-2.9-3.4-7.1-5.4-11.5-5.4h.1-8.5c-.4 0-.7.3-.7.7m205 39.9v-47.3m-21.3-56.6l-.3 2.5c-.1.6-.6 1-1.2 1l-2.5-.1-.1 1.6 2.4.3c.6.1 1 .6 1 1.2l-.1 2.5 1.6.3.3-2.5c.1-.6.6-1 1.2-1l2.6.1.1-1.6-2.5-.3c-.6-.1-1-.6-1-1.2l.1-2.6-1.6-.2zm.4 12h8.1"/><path class="st1" d="M298.6 270.7c-6.9 0-12.6 5.6-12.6 12.6 0 6.9 5.6 12.6 12.6 12.6h8.2m0-19.9h-8.1m0-5.3h8.1"/><path class="st1" d="M305.9 283.3c0 4-3.3 7.3-7.3 7.3s-7.3-3.3-7.3-7.3 3.3-7.3 7.3-7.3 7.3 3.3 7.3 7.3zm-182.3-4.6l.3 2.5c.1.6.6 1 1.2 1l2.5-.1.1 1.6-2.4.3c-.6.1-1 .6-1 1.2l.1 2.5-1.6.3-.3-2.5c-.1-.6-.6-1-1.2-1l-2.6.1-.1-1.6 2.5-.3c.6-.1 1-.6 1-1.2l-.1-2.6 1.6-.2zm-.4 12h-8.6"/><path class="st1" d="M123.3 270.7c6.9 0 12.6 5.6 12.6 12.6 0 6.9-5.6 12.6-12.6 12.6h-8.6m-.1-19.9h8.6m0-5.3h-8.6"/><path class="st1" d="M116 283.3c0 4 3.3 7.3 7.3 7.3s7.3-3.3 7.3-7.3-3.3-7.3-7.3-7.3c-4.1 0-7.3 3.3-7.3 7.3zm9.5 72.3l.3 2.5c.1.6.6 1 1.2 1l2.5-.1.1 1.6-2.4.3c-.6.1-1 .6-1 1.2l.1 2.5-1.6.3-.3-2.5c-.1-.6-.6-1-1.2-1l-2.6.1-.1-1.6 2.5-.3c.6-.1 1-.6 1-1.2l-.1-2.6 1.6-.2zm-.5 11.9h-10.2"/><path class="st1" d="M125.1 347.6c6.9 0 12.6 5.6 12.6 12.6 0 6.9-5.6 12.6-12.6 12.6h-10.3m0-19.9H125m0-5.3h-10.2"/><path class="st1" d="M115.7 360.2c0 4 5.3 7.3 9.4 7.3 4 0 7.3-3.3 7.3-7.3s-3.3-7.3-7.3-7.3-9.4 3.3-9.4 7.3zM64.8 257.6h30m-.6 94.9l.5.2.1.1m-.6-.3H65m0-9.7h29.8m0 0v45.9m-30-2.3h30"/><path class="st2" d="M319.7 335.3c-.5 0-.9-.4-.9-.9v-30.1c0-.3.2-.5.5-.5h.5c.3 0 .5-.2.5-.5V288c0-.3-.2-.5-.5-.5h-.5c-.3 0-.5-.2-.5-.5v-30.4c0-.5-.4-.9-.9-.9l-9.6-.3-1.5.4H114.6l-1.5-.4H67l-2.2 2.3v128.8l2.2 2.3h46.1l1.5-.4h192.3l1.5.4 9.6-.3c.5 0 .9-.4.9-.9v-4c0-.5.4-.9.9-.9l28.7-.9c.6 0 1.1-.5 1.1-1.1v-43.5c0-.6-.5-1.1-1.1-1.1l-28.8-.8z"/><path class="st1" d="M318.8 304.3v-17.4m-224 95.9h224.3"/><path class="st0" d="M319.7 128c-.5 0-.9-.4-.9-.9v-40c0-.3.2-.5.5-.5h.5c.3 0 .5-.2.5-.5V70.9c0-.3-.2-.5-.5-.5h-.5c-.3 0-.5-.2-.5-.5v-11c0-.5-.4-.9-.9-.9l-9.6-.3-1.5.4H114.6l-1.5-.4H67L64.8 60v128.8l2.2 2.3h46.1l1.5-.4h192.3l1.5.4 9.6-.3c.5 0 .9-.4.9-.9v-10.5c0-.3.2-.5.5-.5h.5c.2 0 .4-.2.4-.5v-3l28.2-.9c.6 0 1.1-.5 1.1-1.1v-43.5c0-.6-.5-1.1-1.1-1.1l-28.8-.8z"/><path class="st1" d="M94.2 93.9l.5-.2.1-.1m-.6.3H65m0 9.7h29.8m0 0V57.7m0 5.9h224m0 115.8v-52.1M64.8 60h30m-.6 94.9l.5.1.1.2m-.6-.3H65m0-9.8h29.8m0 0v46m-30-2.3h30"/><path class="st2" d="M319.7 128c-.5 0-.9-.4-.9-.9v-40c0-.3.2-.5.5-.5h.5c.3 0 .5-.2.5-.5V70.9c0-.3-.2-.5-.5-.5h-.5c-.3 0-.5-.2-.5-.5v-11c0-.5-.4-.9-.9-.9l-9.6-.3-1.5.4H114.6l-1.5-.4H67L64.8 60v128.8l2.2 2.3h46.1l1.5-.4h192.3l1.5.4 9.6-.3c.5 0 .9-.4.9-.9v-10.5c0-.3.2-.5.5-.5h.5c.2 0 .4-.2.4-.5v-3l28.2-.9c.6 0 1.1-.5 1.1-1.1v-43.5c0-.6-.5-1.1-1.1-1.1l-28.8-.8z"/><path class="st1" d="M318.8 87.1V69.8m-224 115.3h224m1.4-9.8h-1.4m-4-50.7c0 4.1-3.3 7.4-7.4 7.4s-7.4-3.3-7.4-7.4 3.3-7.4 7.4-7.4c4.1-.1 7.4 3.3 7.4 7.4z"/><path class="st1" d="M310.9 124.6c0 1.9-1.6 3.5-3.5 3.5s-3.5-1.6-3.5-3.5 1.6-3.5 3.5-3.5 3.5 1.5 3.5 3.5zM112.6 76.5c0 4.1-3.3 7.4-7.4 7.4s-7.4-3.3-7.4-7.4 3.3-7.4 7.4-7.4c4.1-.1 7.4 3.3 7.4 7.4z"/><path class="st1" d="M108.7 76.5c0 1.9-1.6 3.5-3.5 3.5s-3.5-1.6-3.5-3.5 1.6-3.5 3.5-3.5 3.5 1.5 3.5 3.5zm3.9 96.2c0 4.1-3.3 7.4-7.4 7.4s-7.4-3.3-7.4-7.4c0-4.1 3.3-7.4 7.4-7.4 4.1-.1 7.4 3.3 7.4 7.4z"/><path class="st1" d="M108.7 172.7c0 1.9-1.6 3.5-3.5 3.5s-3.5-1.6-3.5-3.5 1.6-3.5 3.5-3.5 3.5 1.5 3.5 3.5zM308.3 191l-1.5-.4v-11c0-2.2-1.3-4.2-3.4-5l-8.7-3.7c-2-.8-3.5-2.8-3.5-5V83.4c0-2.2 1.5-4.1 3.5-5l8.7-3.7c2-.8 3.4-2.8 3.4-5v-11"/><path class="st1" d="M308.3 191l-1.5-.4v-11c0-2.2-1.3-4.2-3.4-5l-8.7-3.7c-2-.8-3.5-2.8-3.5-5V83.4c0-2.2 1.5-4.1 3.5-5l8.7-3.7c2-.8 3.4-2.8 3.4-5v-11M113.3 191v-8.2c0-2.2 1.3-4.2 3.4-5l10.5-4.4c2-.8 3.5-2.8 3.5-5V81.1c0-2.2-1.5-4.1-3.5-5l-10.5-4.4c-2-.8-3.4-2.8-3.4-5v-8.2"/><path class="st0" d="M320.2 505.1v3l28.2.9c.6 0 1.1.5 1.1 1.1v43.5c0 .6-.5 1.1-1.1 1.1l-28.7.7c-.5 0-.9.4-.9.9v20.5c0 .3.2.5.5.5h.5c.3 0 .5.2.5.5v15.3c0 .3-.2.5-.5.5h-.5c-.3 0-.5.2-.5.5v30.4c0 .5-.4.9-.9.9l-9.6.3-1.5-.4H114.6l-1.5.4H67l-2.2-2.3V494.7l2.2-2.3h46.1l1.5.4h192.3l1.5-.4 9.6.3c.5 0 .9.4.9.9V504c0 .3.2.5.5.5h.5c.1 0 .3.3.3.6"/><path class="st1" d="M306.8 625.4V492.8M114.4 534h.2m-20.4 55.6l.5.1.1.2m-.6-.3H65m0-9.8h29.8m0 0v46m0-6h224m-204.2 5.6V492.9M64.8 623.5h30m-.6-94.9l.5-.2.1-.1m-.6.3H65m0 9.7h29.8m0 0v-45.9m-30 2.3h30m224 82.1v17.4m-224-95.9h224m1.4 9.9v12.2c0 .3-.2.5-.5.5h-.5c-.3 0-.5.2-.5.5v35"/><path class="st2" d="M320.2 505.1v3l28.2.9c.6 0 1.1.5 1.1 1.1v43.5c0 .6-.5 1.1-1.1 1.1l-28.7.7c-.5 0-.9.4-.9.9v20.5c0 .3.2.5.5.5h.5c.3 0 .5.2.5.5v15.3c0 .3-.2.5-.5.5h-.5c-.3 0-.5.2-.5.5v30.4c0 .5-.4.9-.9.9l-9.6.3-1.5-.4H114.6l-1.5.4H67l-2.2-2.3V494.7l2.2-2.3h46.1l1.5.4h192.3l1.5-.4 9.6.3c.5 0 .9.4.9.9V504c0 .3.2.5.5.5h.5c.1 0 .3.3.3.6"/><path class="st1" d="M258.8 615.7c5 0 9.1-4.1 9.1-9.1v-96.3c0-5-4.1-9.1-9.1-9.1h-96.1c-5 0-9.1 4.1-9.1 9.1v96.3c0 5 4.1 9.1 9.1 9.1h96.1zm60-111.7v17.3"/><text transform="translate(188.255 32.237)" class="st5 st6">44.1</text><text transform="translate(81.174 32.237)" class="st5 st6">b</text><text transform="rotate(-90 86.604 47.167)" class="st5 st6">21</text><text transform="rotate(-90 55.594 16.156)" class="st5 st6">4</text><text transform="translate(87.996 215.575)" class="st5 st6">3 x M3; 4 deep</text><text transform="rotate(-90 232.67 -124.622)" class="st5 st6">14.5</text><text transform="rotate(-90 385.042 -53.397)" class="st5 st6">29</text><text transform="translate(512.82 229.985)" class="st5 st6">29</text><text transform="translate(774.92 212.832)" class="st5 st6">20</text><text transform="translate(750.866 236.9)" class="st5 st6">10</text><text transform="translate(681.316 236.9)" class="st5 st6">4.5</text><text transform="translate(188.255 412.982)" class="st5 st6">48.9</text><text transform="translate(184.086 436.223)" class="st5 st6">c</text><text transform="translate(359.014 412.982)" class="st5 st6">6.7</text><text transform="translate(73.608 412.982)" class="st5 st6">a</text><text transform="translate(870.343 239.42)" class="st5 st6">2 x M2; 4 deep</text><text transform="rotate(-90 515.207 -156.393)" class="st5 st6">20.2</text><text transform="rotate(-90 562.852 -135.535)" class="st5 st6">6.4</text><text transform="translate(746.877 410.773)" class="st5 st6">20.3</text><text transform="translate(592.54 493.66)" class="st5 st6">Front I</text><text transform="translate(651.74 493.66)" class="st5 st6">Front II</text><text transform="translate(717.84 493.66)" class="st5 st6">Front III</text><text transform="translate(565.44 514.66)" class="st5 st6">a</text><text transform="translate(605.54 514.66)" class="st5 st6">6.1</text><text transform="translate(661.74 514.66)" class="st5 st6">6.6</text><text transform="translate(733.84 514.66)" class="st5 st6">7.1</text><text transform="translate(565.44 535.66)" class="st5 st6">b</text><text transform="translate(605.54 535.66)" class="st5 st6">8.3</text><text transform="translate(661.74 535.66)" class="st5 st6">8.8</text><text transform="translate(733.84 535.66)" class="st5 st6">9.3</text><text transform="translate(565.44 556.66)" class="st5 st6">c</text><text transform="translate(605.54 556.66)" class="st5 st6">55</text><text transform="translate(661.74 556.66)" class="st5 st6">55.5</text><text transform="translate(733.84 556.66)" class="st5 st6">56</text><text transform="translate(840.983 623.462)" class="st7 st5 st8">Not to scale</text><text transform="translate(840.983 643.662)" class="st7 st5 st8">Dimensions in mm</text><path class="st9" d="M93 76.5h2.1"/><path class="st10" d="M96.5 76.5h1.3"/><path class="st11" d="M98.5 76.5h16.1"/><path class="st9" d="M115.2 76.5h2.2m-12.2-12.2v2.1"/><path class="st12" d="M105.2 67.7v1.4"/><path class="st13" d="M105.2 69.8v16.1"/><path class="st9" d="M105.2 86.5v2.1M93 172.7h2.1"/><path class="st10" d="M96.5 172.7h1.3"/><path class="st11" d="M98.5 172.7h16.1"/><path class="st9" d="M115.2 172.7h2.2m-12.2-12.2v2.1"/><path d="M105.2 163.9v1.4" fill="none" stroke="#030304" stroke-width=".283" stroke-miterlimit="10" stroke-dasharray=".6705,1.3411"/><path d="M105.2 165.9V182" fill="none" stroke="#030304" stroke-width=".283" stroke-miterlimit="10" stroke-dasharray="5.0289,1.3411,.6705,1.3411"/><path class="st9" d="M105.2 182.7v2.1m190-60.5h2.2"/><path class="st10" d="M298.7 124.3h1.3"/><path class="st11" d="M300.7 124.3h16.1"/><path class="st9" d="M317.5 124.3h2.1m-12.2-12.2v2.2"/><path class="st10" d="M307.4 115.6v1.4"/><path class="st11" d="M307.4 117.6v16.1"/><path class="st9" d="M307.4 134.4v2.1m418 159.1h2.1"/><path class="st12" d="M728.9 295.6h1.3"/><path class="st16" d="M730.9 295.6H747"/><path class="st9" d="M747.7 295.6h2.1m-12.2-12.1v2.1"/><path class="st12" d="M737.6 286.9v1.4"/><path class="st13" d="M737.6 288.9V305"/><path class="st9" d="M737.6 305.7v2.1m79.2-12.2h2.1"/><path d="M820.3 295.6h1.3" fill="none" stroke="#030304" stroke-width=".283" stroke-miterlimit="10" stroke-dasharray=".6704,1.3409"/><path d="M822.3 295.6h16.1" fill="none" stroke="#030304" stroke-width=".283" stroke-miterlimit="10" stroke-dasharray="5.0283,1.3409,.6704,1.3409"/><path class="st9" d="M839 295.6h2.2M829 283.5v2.1"/><path class="st12" d="M829 286.9v1.4"/><path class="st13" d="M829 288.9V305"/><path class="st9" d="M829 305.7v2.1m-30.5 51.1h2.1"/><path d="M801.8 358.9h1.2" fill="none" stroke="#030304" stroke-width=".283" stroke-miterlimit="10" stroke-dasharray=".5986,1.1972"/><path d="M803.6 358.9h29.3" fill="none" stroke="#030304" stroke-width=".283" stroke-miterlimit="10" stroke-dasharray="4.4895,1.1972,.5986,1.1972"/><path class="st9" d="M833.5 358.9h2.1m-24.9-12.2v2.1"/><path class="st12" d="M810.7 350.1v1.4"/><path class="st16" d="M810.7 352.1v16.1"/><path class="st9" d="M810.7 368.9v2.1m0-38.3v2.1"/><path class="st21" d="M810.7 336.1v1.2"/><path class="st22" d="M810.7 337.9v30.4"/><path class="st9" d="M810.7 368.9v2.1m0-23.1v2.2"/><path class="st21" d="M810.7 351.3v1.2"/><path class="st22" d="M810.7 353.2v30.3"/><path class="st9" d="M810.7 384.1v2.2"/><path class="st3" d="M450.9 321.7h3.6"/><path class="st23" d="M457.4 321.7h2"/><path class="st24" d="M460.8 321.7h134.9"/><path class="st3" d="M597.2 321.7h3.5m-74.9-74.9v3.5"/><path class="st23" d="M525.8 253.2v2"/><path class="st24" d="M525.8 256.7v134.9"/><path class="st3" d="M525.8 393v3.6"/><path class="st1" d="M230.3 560.4h-.8m-.9-8.7v.9h-.9v1.7m1.8 1.8h1.7v.8h-1.7v-.8m.8-3.5h.9v.9h-.9v-.9m-.8.9h.8v.8h-.8v-.8m-4.4 1.7h2.6v-.9h1.8v1.8h-.9v1.7m1.7 0h.9v.9h-.9v-.9m0 1.8h.9v.8m-1.7-1.7h.8v.9m-.8.8v-.8m-.9-1.8h.9"/><path class="st1" d="M227.7 556.9h-.9v1.8m-.8-1.8v-.8m.8 2.6h-.8v-.9h-.9m0 0v-.9h.9m-1.8-3.4h1.8v.8h-.9v.9m1.7-2.6h-2.6m-.8 0h.8v-.9h4.4m-5.2 2.6v-.8h-.9m.9-1.8v.9m-.9.9v-.9h-1.8m-.8 0h.8v-.9h2.7m-2.7.9v1.7h-.8v-1.7m6.1 3.5h-2.6m.8-3.5v.9m-.8 2.6v-.9h-.9m0 0v-.9h.9m-1.8-.8h.9v.8h-.9v-.8m6.1.8h-.9v-1.7m2.7 5.2v.9m0 .9h-1.8v-2.7m-.9 2.7h.9v.8h-.9v-.8m-5.2-13.1h2.6v2.6h-2.6v-2.6"/><path class="st1" d="M225.1 545.6h-4.4v4.4m-.8-5.3h6.1m-.9 5.3v-4.4m.9-.9v6.1m-5.3-.8h4.4"/><path class="st1" d="M226 550.8h-6.1v-6.1m16.5.9h-.8v-.9h.8v.9m6.9 11.3h-.9v-.8h.9v.8m-4.2 4.4h-.9v-1.7h.9v-1.8h1.6v1.8h-1.6v1.7m5.1-3.5v-.9h.8v.9h-.8m-7.8-6.1V550h-.8v-.9"/><path class="st1" d="M235.6 547.4v-.9h2.6v-.9h-.9v-.9h.9v.9h.9v.9h.8v-1.8h1.6v.9h.9v-.9h1.8v.9h-.9v.9h.9v.9h-.9v.8h1.7v1.8h-.8v-.9h-1.8v.9h-.9v.8h2.7v.9h.8v.9h-1.7v.9h.9v1.7h-.9v-.9h-1.8v.9h-.8v.9h.8v.8h-1.6v-.8h-.8"/><path class="st1" d="M236.4 554.3v-.8h2.7v-.9h-1.8v-.9h-.9m2.7 4.4v-.9h-.9v-.9h-1.8m-.8-5.2h1.7v-1.7h-1.7m3.5 2.6h.8v.8h-.8v-.8m-.9-.9v2.6m1.7 1.8v.8m-.8-6.9v.8h.8v-.8h-.8m.8-.9v.9m0 6.9h1.6"/><path class="st1" d="M238.2 551.7h2.5v-2.6m.8 4.4h-1.6m1.6-1.8v.9m-.8-3.5h-2.5m1.7-1.7h.8v.8m0 0h.8v.9m0-3.5h-.8v.9h-.8m1.6 2.6h.9m0 0v-.9h-.9v-2.6m0 8.7v-.8m0-.9h1.8m0 0v-.9h-1.8m-3.3 15.6h-.9v-3.4h.9v3.4m.9 2.6v-6h5.9v6h-5.9m5.1-12.1v2.6h.8v1.8h-.8v-.9h-2.7v.9h.9v.9h-1.7v-1.8h-.8v-.9h2.5v-.8h-.9v-1.8h.9v1.8h.9v-1.8h.9m-6 5.3v-.9h1.7v.9h-1.7m-2.6-2.7h.8v.9h.9v1.8h-.9v1.6h-.8v-4.3"/><path class="st1" d="M233 564.7h.8v-.8h.9v.8h-.9v.8h.9v.9h.9v.9h.8v.8h1.8v1.8h-3.5v-.9h.9v-1.7h-.9v.8H233v-1.7m-4.4 1.7h-.9v-.8m-.9-1.8h.9m-.9-2.4h1.8v-.9h.9m0 2.5h.8m-1.7-.8h-.9m12.2.8v4.3h4.3v-4.3h-4.3"/><path class="st1" d="M243.3 565.5v2.6h-2.6v-2.6h2.6m-10.3.9h.8v-.9h-.8m-5.3 1.8h.9v.8m-16.3-28.3v7h-.3v-7h.3m-3.5-1.5v.8h-.9v-.8h.9m-.9 9.2h.9v.7h-.9v-.7m3.5-9.2v.8h-.8v-.8h.8m-.8 9.2h.8v.7h-.8v-.7m1.4 8.3v-7h.3v7h-.3m.3 2.2v6.9h-.3V558h.3m-3.5-1.5v.7h-.9v-.7h.9m-.9 9.2h.9v.7h-.9v-.7m3.5-9.2v.7h-.8v-.7h.8m-.8 9.2h.8v.7h-.8v-.7m1.4 8.4v-7h.3v7h-.3m.3 2v7h-.3v-7h.3m-3.5-1.4v.7h-.9v-.7h.9m-.9 11h.9v.9h-.9v-.9m3.5-11v.7h-.8v-.7h.8m-.8 11h.8v.9h-.8v-.9m-.5 8.2l1.3.4v.6l-4.6-1.6v-.7l4.6-1.6v.7l-1.3.5v1.7m-2.3-4.1l.6.3.7.2.9-.2.6-.3.3-.4.1-.6-.3-.9-.3-.4m0 0v-.2h.7"/><path class="st1" d="M211.1 587.3l.3.8.2.7-.2.9-.5.6-.8.4-1 .1-1-.1-.7-.4-.5-.6-.1-.9.1-.7.3-.8"/><path class="st1" d="M207.2 587.3h.7v.2m0 0l-.4.4-.3.9.2.6.4.4m-1 9.5v-.9l2.6-1.2-2.6-1v-.8h4.6v.5h-3.9l2.6 1.2v.4l-2.6 1.2h3.9v.6h-4.6m-2.1-41.5v27.7h-.2v-27.7h.2m-7.8 31.2v-34.5h.4V589h-.4m3.5-.9h1v.7h-1v-.7m-6.6 3.5v.7h-.8v-.7h.8m9.2-3.5h.9v.7h-.9v-.7m-6.7 3.5v.7h-.9v-.7h.9m3.1.8l3.6-1.7h-3.6v-.6h4.5v.6l-4 2h4v.6h-4.5v-.9M180.7 566l-.2-.5m.5 0h-.5m.5 0l.2.6.1.6-.1.7-.3.6-.6.3-.7.1-.7-.1-.6-.3-.5-.4-.1-.8.1-.5.3-.5.5-.3h.7"/><path class="st1" d="M179.3 565.5h.3v2.4"/><path class="st1" d="M179.6 567.9l.9-.3.4-.9-.2-.7m18.4 28.5v-.5l5.8 1.8v.4l-5.8-1.7m-20.7-12.4h-.6m0 0l-.1-1 .3-1 .4-.3h.5m0 0h2.4v.4h-.4m0 0l.3.5.1.7-.3.7-.7.3-.6-.1-.4-.5-.3-1.6m0 0h-.1"/><path class="st1" d="M178.9 580.2l-.5.3-.1.6.1 1m21.1 14.4h.7v.2m0 0l-.3.4-.1.7.1.8.6.2.5-.1.3-.4.1-1.1.4-.5.8-.3 1 .4.3.4.1.8-.1.8-.3.6"/><path class="st1" d="M200.5 599.4l-.4-.1-.4-.3-.5-1 .3-1.5m3.4 2.9l.4-.7.1-.7-.1-.8-.6-.2-.4.1-.3.4-.2.9-.4.7-.9.3m-22.7-15.5h.5m0 0l-.3-.5-.2-.6v-.1m0 0h.6m0 0v.3l.5.9m0 0h2.4v.5h-3.5v-.5m19.5-46v10.5h-.4v-10.5h.4m-18.9 58.5h-.6m0 0l-.1-1 .3-1.1.4-.3.5-.1"/><path class="st1" d="M178.9 593.9h2.4v.6h-.4m0 0l.3.4.1.7-.3.8-.7.3-.6-.2-.4-.4-.3-1.6m0 0h-.1m0 0l-.5.3-.1.6.1 1m15.7-45.8h.5v1.7h-.5v-1.7M179.6 599l.9-.3.4-.7-.4-1m.5 0h-.5m-1.8 2.4l-.4-.3-.5-.5-.1-.6.3-1"/><path class="st1" d="M181 597l.2.4.1.6-.1.6-.3.5-.6.3M178 597h.7m0 0l-.3.4-.1.6.3.7 1 .3m12.2-2v-1.1m0 0v-1l.3-.7.9-.6 1.1-.3 1 .3.9.6.3.7v.9m0 0v1.2h-4.5m-22.4-6.7l2.6.8v1.2l-9.1-3.1v-1.4l9.1-3.1v1.2l-2.6.9v3.5m22.4 9.1v-1.7m4.1 1.7v-.6h-3.7v.6"/><path class="st1" d="M191.8 597.7h.4v.6h3.7v-.6h.4v1.7m-31.4-6.4l1.2.3.7 1m0 0h.1m0 0l.3-.7.5-.6.7-.3.7-.1 1.2.3.8.6.6 1.1.3 1.6m0 0v2.6h-9.1v-2.4m0 0v-1.5l.2-1 .8-.7 1-.2m12.9-21.4v-.5h.3m0 0l-.4-1.1.1-.4.3-.4.6-.3h1.5l.7.3.3.5.1.5-.3.9m0 0h1.5v.5h-4.7m-13.1 6.7v.2m0 0l-.7 1.1-.3 1.5v.7l.3.6.6.4.6.2.9-.5.4-.8.6-1.9.3-.7.6-.6.5-.3.9-.2 1 .2.9.7.6 1 .3 1.3-.3 1.8-.5 1.3"/><path class="st1" d="M171.4 584.3h-1.6v-.2"/><path class="st1" d="M169.8 584.1l.9-1.3.3-1.4v-.9l-.3-.7-.6-.3-.6-.2-.8.3-.6.8-.4 1.7-.3.9-.5.6-.7.4-1 .1-1-.1-.8-.7-.5-.9-.3-1.3.1-1.5.6-1.3m0 0h1.4m13.1-3.8l2.5-.8-2.5-1v-.6l4.7 1.9v.5l-1.5-.5-3.2 1.3v-.8m-6.9-3h1.1v5.2h-9.1v-1.1h8v-4.1m7.4 3.8v1h1.6m0 0h.7l.3-.6-.2-.4m.5 0h-.5"/><path class="st1" d="M181.2 575.3l.1.6-.3.7-.8.3"/><path class="st1" d="M180.2 576.9h-1.9v.4h-.5v-.4h-1v-.6h1v-1h.5m-10.8-6h3.4v-4.5h1.1v5.7h-9.1v-5.7h1v4.5h2.4v-4.2h1.2v4.2m13.4 17l-.2-.7-.2-.4m.5 0h-.5"/><path class="st1" d="M181 585.2l.2.4.1.7-.1.8-.3.5-.6.3-.7.2-.7-.2-.6-.3-.5-.5-.1-.6.1-.6.3-.4.5-.3.7-.2"/><path class="st1" d="M179.3 585h.3v2.5"/><path class="st1" d="M179.6 587.5l.9-.3.4-.9m-18-25.1v-1.5l.4-1 .7-.7 1.3-.3.9.1.7.5.6.5.5.8"/><path class="st1" d="M168 559.6l4-3.2v1.6l-3.8 2.9v1.3h3.8v1.3h-9.1v-2.3m18.4 31.2v.6h-3.5v-.6h.5m0 0l-.5-.4-.1-.4.1-.6.5-.3-.5-.6-.1-.4.3-.7.4-.3h.6"/><path class="st1" d="M179 588.7h2.3v.5h-2m0 0h-.7l-.3.6.4.8h.3m0 0h2.3v.5h-2m0 0l-.7.2-.3.4.4.7m0 0h2.6m30.7-54.8v-7h.3v7h-.3m-48.1 24.6h3.3v-1m0 0v-.9l-.4-.7-.6-.5-.9-.1m-1.4 2v1.2m1.4-3.2l-.7.1-.4.5-.3.5v.9m15.2 24.6l-.7.3-.1.6m.8 1v-1.9m-.8.9l.1.7.7.3m1.5-16.4l.1-.8-.2-.7-.9-.1-1 .1-.3.6.4.9m0 0h1.9m-16.7 26.4h2.6v-1.3m0 0v-.8l-.3-.6-.4-.5h-.8m2.5 3.2h3.4v-.8m0 0v-1.3l-.3-.9-.6-.5-.7-.1m-5.4 2.5v1.1m1.1-3.2h-.5l-.5.5-.1.6v1m3.6-.2v1.3m1.8-3.6l-.9.1-.6.6-.3.6v1m-3.5-7.7l4.4 1.5v-2.9l-4.4 1.4m30 5.4l-.9.1-.6.6-.3 1.2m0 0v.6m3.7-.6l-.2-.7-.1-.5-.6-.6-1-.1m-1.8 2.5h3.7v-.6m-16.5-1.3l.2 1 .3.4.3.2.5-.2.2-.5-.4-.9m0 0h-1.1m0-14.3l.2 1.2.3.3.3.1.5-.1.2-.5-.4-1m0 0h-1.1m-1.1-13.4l.1.8.7.3m0 0v-1.8m0 0l-.7.2-.1.5m29.2 26.2l2.2.8v-1.5l-2.2.7m18.5-23.1h-6.1v-6h6.1v6m7.8-7.7h-2.6v3.3h-.9v.9h1.8v-3.3h.9v1.6m0 1.7h-.9v2.6h-.9v.9h-.9v-.9h-.8v.9h-.9v-1.8m-.9-.8h-.9v-1.8m.9 0v-.8h-.9v-1.6m1.8-.9H226v.9h-.9v-.9h-.9v-.9h.9v-.9h-.9v-.8h-.8v3.5h-1.8v-.9h-1.7v-.9h1.7v-.9h-1.7v-.8h.8v-1.8h-.8v-.9h.8v-1.7h1.8m7 5.2v.9h-.9v.9m.9 0v2.5m.8 0v-4.3"/><path class="st1" d="M225.1 557.8v.9h.9m-2.6-2.6v.8h.8v.9h.9m-2.6-2.6v.9h.9m2.6 2.6v.9h-.9v.8h.9v.9h1.7v-.9h1.8m3.5 5.1v.9m-5.3-2.5v.8h.9v-.8m-.9 1.6v1.8m.9.8h.9v-.8h.8v-.9h-.8v-.9h-1.8m-3.5 0v2.6h-2.6v-2.6h2.6"/><path class="st1" d="M220.7 564.7v4.3h4.4v-4.3h-4.4m1.8-8.6h-.9v.8m.9 0h-1.8v.9h1.8v-.9m-.9 3.5v-3.5m.9 4.4h-.9v.9m0-1.8h.9m0 1.8v-.9m0-.9v-2.6m-.9 4.4h.9m.9-5.3h-.9v-.8m2.6 5.2v.9m-2.6-4.4h.9v.9h.8v-.9h-.8v-.9m1.7 5.3h.9m0 0v-.9h-.9m6.1-7.8h.9v-1.8h.9v-.9h.8v.9h2.6"/><path class="st1" d="M235.6 549.1h-.9v.9h-.9v-.9h.9v-.9h-2.6v.9h-.9v.9h.9v.8h-.9v.9h-1.7v-.9h-.9v-.8h-.9v-1.8h-.9v-1.7h.9v-.9h.9v1.8h2.6v-.9h-.9v-.9h-.8v-.9h.8v.9h.9v-.9h1.8v.9h-.9v1.8h.9v-.9h.8v-.9h.9v.9h-.9v.9h1.8m3.5 8.7v.8h-.9v.9h-.9v.9h-.9v.9h-.8v.8h-.9v2.7h-.9v-.9"/><path class="st1" d="M231.2 560.4h.9v-.8h-.9v-.9h.9v.9h.9v-.9h.8v1.7h.9v-.8h.9v-.9h-.9v-.9h2.6v-.9h-.9v-1.7h-1.7v.9h.9v.8h-3.5v.9h-.9v-.9h.9v-1.7h-.9v-1.7m-2.6-5.3v1.8m0 0h.9v.8m0-2.6h-.9m.9 2.6h.8v-.8h-.8m.8-1.8v.9m-.8.9v-1.8m.8.9h.9m0-1.7v.8h-.9m.9.9v-.9h.9m0 0v-.8h-.9m4.4 0v1.7m-3.5 11.3v.9m.9-6.1v.9"/><path class="st1" d="M236.4 551.7v.9H233v1.7m-.9 7h1.7v-.9h-1.7m.9-4.3h.8v-.9h-.8"/><path class="st1" d="M233 554.3h3.4v.9m0 0h.9v.9h1.8"/><path class="st25" d="M312.5 417.9H101.2"/><path d="M311.1 415.8l7.7 2.1-7.7 2.1v-4.2zm-208.5 0l-7.7 2.1 7.7 2.1v-4.2z"/><path class="st1" d="M94.9 417.9H64.8"/><path class="st25" d="M58.7 417.9H34.9"/><path d="M57.3 415.8l7.7 2.1-7.7 2.1v-4.2z"/><path class="st1" d="M94.8 382.7v39.9"/><path class="st25" d="M312.5 441.2H71.1"/><path d="M311.1 439.1l7.7 2.1-7.7 2v-4.1zm-238.6 0l-7.7 2.1 7.7 2v-4.1z"/><path class="st1" d="M318.8 382.6v63.1M64.8 343v102.7"/><path class="st25" d="M467.1 234.8h120.2"/><path d="M468.5 236.9l-7.7-2.1 7.7-2v4.1zm117.4 0l7.6-2.1-7.6-2v4.1z"/><path class="st1" d="M460.7 260.8v-30.5m132.9 30.5v-30.5"/><path class="st25" d="M443.4 381.9V261.7"/><path d="M445.5 380.5l-2.1 7.6-2.1-7.6h4.2zm0-117.4l-2.1-7.7-2.1 7.7h4.2z"/><path class="st1" d="M466.2 255.3h-27.5m109 132.9h-109"/><path class="st25" d="M98.9 37.2H71.1"/><path d="M97.5 35.1l7.7 2.1-7.7 2v-4.1zm-25 0l-7.7 2.1 7.7 2v-4.1z"/><path class="st1" d="M64.8 63.2V32.6"/><path class="st25" d="M44.6 166.5V82.8"/><path d="M46.7 165.1l-2.1 7.6-2-7.6h4.1zm0-80.9l-2.1-7.7-2 7.7h4.1z"/><path class="st1" d="M98.4 172.7H40"/><path class="st25" d="M95.5 182.2l-32.3 38.2h122.7"/><path d="M93 182l6.5-4.6-3.4 7.2L93 182z"/><path class="st25" d="M44.6 51.4V22.1"/><path d="M46.7 50l-2.1 7.7-2-7.7h4.1z"/><path class="st1" d="M98.4 76.6H40m73.1-18.4H40"/><path class="st25" d="M743.7 217.8h79"/><path d="M745.1 219.9l-7.7-2.1 7.7-2.1v4.2zm76.2 0l7.7-2.1-7.7-2.1v4.2z"/><path class="st1" d="M737.5 287.2v-73.9m91.6 73.9v-73.9m-112.3 47.5v-23.5"/><path class="st25" d="M111.5 37.2H301"/><path d="M112.9 39.2l-7.7-2 7.7-2.1v4.1zm186.7 0l7.7-2-7.7-2.1v4.1z"/><path class="st1" d="M307.4 117.7V32.6M105.1 69.7V32.6"/><path class="st25" d="M362.2 118.3V64.5"/><path d="M364.3 116.9l-2.1 7.7-2-7.7h4.1zm0-51l-2.1-7.7-2 7.7h4.1z"/><path class="st1" d="M308.3 58.2h58.6m-52.6 66.4h52.6m-48 293.3h30.6m.1-37.2v41.9"/><path class="st25" d="M776.9 241.9h-33.2"/><path d="M775.5 239.9l7.7 2-7.7 2.1v-4.1zm-30.4 0l-7.6 2 7.6 2.1v-4.1z"/><path class="st1" d="M783.3 294.2v-56.9"/><path class="st25" d="M804.2 415.7H723"/><path d="M802.8 413.7l7.7 2-7.7 2.1v-4.1zm-78.4 0l-7.6 2 7.6 2.1v-4.1z"/><path class="st1" d="M716.8 382.7v37.5m93.9-33.3v33.3m-107.3-61.4V388"/><path class="st25" d="M703.4 394.9v38.9"/><path d="M701.4 396.3l2-7.7 2.1 7.7h-4.1z"/><path class="st25" d="M703.4 329v22.9"/><path d="M701.4 350.5l2 7.7 2.1-7.7h-4.1z"/><path class="st1" d="M810.9 358.9h-112"/><path class="st25" d="M676.8 301.8v79.9"/><path d="M674.8 303.2l2-7.7 2.1 7.7h-4.1zm0 77.1l2 7.7 2.1-7.7h-4.1z"/><path class="st1" d="M839.4 387.9H672.2m56.7-92.3h-56.7"/><path class="st25" d="M838.2 283l29.1-38.7h95"/><path d="M840.7 283.1l-6.2 4.9 2.9-7.3 3.3 2.4z"/><path class="st1" d="M44.6 76.5V57.7"/><path class="st26" d="M355.8 417.9h28.6"/><path d="M357.2 420l-7.7-2.1 7.7-2.1v4.2z"/><path class="st26" d="M737.5 241.9h-20.7m-6.1 0h-28"/><path d="M709.3 239.9l7.7 2-7.7 2.1v-4.1z"/><path class="st26" d="M558.2 498.8H775m-129.2 63.5v-82m-59.6 82v-82m125.9 82v-82"/></svg>