<svg version="1.0" xmlns="http://www.w3.org/2000/svg" viewBox="0 0 200 170"><path fill="#F2F2F2" d="M161.5 112.2h7.1l3.6-2.7 2.4 2.2-4.3 3.6-1.8.5v2.8h5.8v114.1h-5.8v4l1.7.6 4.3 3.6-2.4 2.2-3.6-2.9h-7.1v52.9c0 8.7-7.1 15.8-15.8 15.8H-89.6c-8.7 0-15.8-7.1-15.8-15.8V57.8c0-8.7 7.1-15.8 15.8-15.8h235.3c8.7 0 15.8 7.1 15.8 15.8v54.4z"/><path fill="#FFF" stroke="#010202" stroke-width=".425" stroke-miterlimit="10" d="M124.2 64.8c0 8.2 6.6 14.8 14.8 14.8 8.2 0 14.8-6.6 14.8-14.8 0-8.2-6.6-14.8-14.8-14.8-8.1-.1-14.8 6.6-14.8 14.8z"/><path fill="none" stroke="#000" stroke-width=".425" stroke-linecap="round" stroke-linejoin="round" stroke-miterlimit="10" d="M-44.8 57.5h79v79.1h-79z"/><path fill="none" stroke="#000" stroke-width=".75" stroke-linecap="round" stroke-linejoin="round" stroke-miterlimit="10" d="M58.7 63.4h41V94h-41z"/><path fill="none" stroke="#000" stroke-width=".425" stroke-linecap="round" stroke-linejoin="round" stroke-miterlimit="10" d="M119.2 112.2h49.4v128.1h-49.4zm10.9 76.3v-33.4m0 0h-10.8m49.3-36.5h-49.3"/><path fill="none" stroke="#000" stroke-width=".425" stroke-linecap="round" stroke-linejoin="round" stroke-miterlimit="10" d="M130.1 162.1h4.4c1.8 0 1.4 1.8 1.4 1.8v12.2c0 1.3-.6 1.8-1.9 1.8h-3.9M45.4 74.1h5.4m0 0v10.5m0 0h-5.4m0 0V74.1m5.4-6.4h-5.4m0 0V57.4m0 0h5.4m0 0v10.3m-29.2 86.5H32v-5.4H21.6m0 5.4v-5.4m37.6 11.3h5.4v10.4h-5.4zm9.9-10.3v10.3h5.4v-10.3m-5.4 0h5.4m-8.4-25.2v5.4m0 0H55.7m0 0v-5.4m0 0h10.4m12.7 2.9l-.1.8m0 0l-.2.5m0 0l-.2.7m0 0l-.4.5m0 0l-.5.5m0 0l-.6.4m0 0l-.7.4m0 0l-.6.1m0 0l-.6.1m0 0l-.8-.1m0 0l-.6-.1m0 0l-.6-.4m0 0l-.6-.4m0 0l-.5-.5m0 0l-.4-.5m0 0l-.3-.7m0 0l-.2-.5m0 0l-.1-.8m0 0l.1-.7m0 0l.2-.6m0 0l.3-.7m0 0l.4-.5m0 0l.5-.5m0 0l.6-.4m0 0l.6-.3m0 0l.6-.2m0 0h.8m0 0h.6m0 0l.6.2m0 0l.7.3m0 0l.6.4m0 0l.5.5m0 0l.4.5m0 0l.2.7m0 0l.2.6m0 0l.1.7m-11.2 56.3v-17.2H77v17.2m-12.8-35v5.4m0 0H53.8m0 0v-5.4m0 0h10.4m43.2.7H96.5m0 0v-25.7m0 0h10.9m0 0v25.7m-34.4-14v9.3m0 0H55.7m0 0v-9.3m0 0H73m34.7-44.6h10.4m-10.4 0v8.5h10.4v-8.5m-67.8 52.4h-5.4m0 0v-10.4m0 0h5.4m0 0v10.4m-2.5 5.5H37.5v5.4h10.3m0-5.4v5.4m8.9-32.6v-10.4m0 0h8.4m0 0v10.4m0 0h-8.4M5.8 154.2v-5.4m0 0h10.4m0 0v5.4m0 0H5.8M73 121.6v-10.4m0 0h8.4m0 0v10.4m0 0H73M-.1 148.8v5.4m0 0h-10.4m0-5.4H-.1M50.3 127h-5.4m0 0v-10.3m0 0h5.4m0 0V127m0-16.2h-5.4m0 0v-10.4h5.4v10.4"/><path fill="none" stroke="#000" stroke-width=".75" stroke-linecap="round" stroke-linejoin="round" stroke-miterlimit="10" d="M70.4 90.1h-7.5m0 0v-9h7.5v9m25.1 0h-7.4m0 0v-9h7.4v9m-12.6 0h-7.4m0 0v-9h7.4v9M70.4 76.4h-7.5m0 0v-9h7.5v9m25.1 0h-7.4m0 0v-9h7.4v9m-12.6 0h-7.4m0 0v-9h7.4v9"/><path fill="none" stroke="#000" stroke-width=".425" stroke-linecap="round" stroke-linejoin="round" stroke-miterlimit="10" d="M-47.8 165.3H51v98.8h-98.8zM54.4 42c-1.2 0-1.3.8-1.4 1.1-.5 2.2-2.5 3.9-4.9 3.9-2.4 0-4.4-1.7-4.9-3.9-.1-.4-.4-1.1-1.3-1.1"/><path fill="none" stroke="#010202" stroke-width=".709" stroke-miterlimit="10" d="M161.5 112.2h7.1l3.6-2.7 2.4 2.2-4.3 3.6-1.8.5v2.8h5.8v114.1h-5.8v4l1.7.6 4.3 3.6-2.4 2.2-3.6-2.9h-7.1v52.9c0 8.7-7.1 15.8-15.8 15.8H-89.6c-8.7 0-15.8-7.1-15.8-15.8V57.8c0-8.7 7.1-15.8 15.8-15.8h235.3c8.7 0 15.8 7.1 15.8 15.8v54.4z"/><path fill="none" stroke="#010202" stroke-miterlimit="10" d="M91.8 71.9l35.3-36.8M91.8 85.5l41.3 10.2M79.2 85.5l10.3 30.9M66.7 71.8L33.6 38.6m33.6 46.9L27 95.4"/><text transform="translate(16.582 100.1)" fill="#010202" font-family="Helvetica,Arial,sans-serif" font-size="14">5</text><text transform="translate(86.053 131.018)" fill="#010202" font-family="Helvetica,Arial,sans-serif" font-size="14">3</text><text transform="translate(136.335 103.744)" fill="#010202" font-family="Helvetica,Arial,sans-serif" font-size="14">1</text><text transform="translate(129.168 33.244)" fill="#010202" font-family="Helvetica,Arial,sans-serif" font-size="14">2</text><text transform="translate(78.01 26.077)" fill="#010202" font-family="Helvetica,Arial,sans-serif" font-size="14">4</text><text transform="translate(23.06 37.244)" fill="#010202" font-family="Helvetica,Arial,sans-serif" font-size="14">6</text><path fill="none" stroke="#010202" stroke-miterlimit="10" d="M79.1 71.8l3-41.7"/></svg>