<svg version="1.0" xmlns="http://www.w3.org/2000/svg" viewBox="48.1 39.1 550 240"><path fill="none" stroke="#000" stroke-linecap="round" stroke-linejoin="round" stroke-miterlimit="3" d="M256.936 131.395l-29.769 29.769m67.185-29.747h-37.4m37.468.002l29.77 29.77m266.935-.021h-266.9m-97.206 0h-133.2"/><text transform="translate(63.561 159.391)" font-family="Helvetica,Arial,sans-serif" font-size="11">X0</text><path fill="none" stroke="#000" stroke-linecap="round" stroke-linejoin="round" stroke-miterlimit="3" d="M361.857 167.124l29.77 29.77m200.299.095h-200.3m-97.145 0h-200.6m230.422-29.819l-29.77 29.77m67.281-29.802h-37.4"/><text transform="translate(63.561 195.14)" font-family="Helvetica,Arial,sans-serif" font-size="11">X1</text><path fill="none" stroke="#000" stroke-linecap="round" stroke-linejoin="round" stroke-miterlimit="3" d="M391.683 202.947l-29.77 29.77m67.134-29.858h-37.4m37.59.041l29.77 29.77m136.02.04h-136m-97.213 0h-267.9"/><text transform="translate(63.561 230.886)" font-family="Helvetica,Arial,sans-serif" font-size="11">X2</text><path fill="none" stroke="#000" stroke-linecap="round" stroke-linejoin="round" stroke-miterlimit="3" d="M429.047 268.431h-336m365.945-29.778l-29.77 29.769m67.157-29.742h-37.4m37.567-.074l29.77 29.77m67.21.055h-67.2"/><text transform="translate(63.561 266.634)" font-family="Helvetica,Arial,sans-serif" font-size="11">X3</text><path fill="none" stroke="#000" stroke-linecap="round" stroke-linejoin="round" stroke-miterlimit="3" d="M444.022 122.512h-202"/><path d="M-2844.895 324.578l27.6-82.8 27.6 82.8h-55.2"/><path fill="none" stroke="#000" stroke-linecap="round" stroke-linejoin="round" stroke-miterlimit="3" d="M444.022 92.695h149.8m-351.815-.017v29.8m.017-29.817h-149.5"/><text transform="translate(53.221 112.175)" font-family="Helvetica,Arial,sans-serif" font-size="11">WordClk</text><path fill="none" stroke="#000" stroke-width=".75" stroke-linecap="round" stroke-linejoin="round" stroke-miterlimit="3" stroke-dasharray="0,3.75" d="M444.005 66.778v208.5"/><path fill="none" stroke="#000" stroke-width=".75" stroke-linecap="round" stroke-linejoin="round" stroke-miterlimit="3" stroke-dasharray="5.25,3.75" d="M107.341 51.868v220.5m471.573-220.5v220.3"/><path d="M4897.7 501.5l22.1 22.1-22.1 22.1v-44.2M-935-549.1l22.1 22.1-22.1 22.1v-44.2"/><text transform="translate(317.529 54.448)" font-family="Helvetica,Arial,sans-serif" font-size="11">Clock cycle</text><text transform="translate(118.229 116.874)" font-family="Helvetica,Arial,sans-serif" font-size="10">MSB</text><text transform="translate(550.63 116.874)" font-family="Helvetica,Arial,sans-serif" font-size="10">LSB</text><path fill="none" stroke="#000" stroke-width=".75" stroke-linecap="round" stroke-linejoin="round" stroke-miterlimit="3" stroke-dasharray="0,3.75" d="M308.968 66.778v208.5m-66.771-208.5v208.5m134.243-208.5v208.5m135.043-208.5v208.5m-336.057-208.5v208.5"/><path fill="none" stroke="#000" stroke-linecap="round" stroke-linejoin="round" stroke-miterlimit="10" d="M577.7 61.8H109.3M444 98.6v23.2"/></svg>