<svg version="1.1" id="Layer_1" xmlns="http://www.w3.org/2000/svg" x="0" y="0" viewBox="0 0 430 180" xml:space="preserve"><style>.st1{stroke:#000;stroke-linecap:round;stroke-linejoin:round;stroke-miterlimit:10}.st1,.st2,.st3{fill:none;stroke-width:.283}.st2{stroke-linecap:round;stroke-linejoin:bevel;stroke:#000;stroke-miterlimit:10}.st3{stroke:#1d1d1b;stroke-miterlimit:3.864}.st6{font-family:Helvetica,Arial,sans-serif}.st7{font-size:14px}</style><path d="M13.1 16.7h148v147h-148v-147z" fill="none" stroke="#fff" stroke-width=".003" stroke-miterlimit="3.864"/><path class="st1" d="M153.2 161.8h-1.6v-.6"/><path class="st2" d="M153.2 161.6l1.4-.2 1.5-.7 1-1.1.7-1.4.2-1.4"/><path class="st1" d="M158 140.6v16.2m-6.4 5H20m2 0v-.6m5 .6v-.6m-5.3.6v-.6m-6.5-4.4v-16.2"/><path class="st2" d="M15.2 156.8l.2 1.4.7 1.4 1.1 1.1 1.4.7 1.5.2"/><path class="st1" d="M151.2 161.8v-.6m-4.9.6v-.6m-103.1.6v-.6m4.8.6v-.6m.2.6v-.6m8.9.6v-.6m23 .6v-.6m13 .6v-.6m23 .6v-.6m8.9.6v-.6m.2.6v-.6m5 .6v-.6M158 137v-.5m-142.8 0v.5"/><path class="st2" d="M20.1 19l-1.5.2-1.4.7-1.1 1-.7 1.5-.2 1.4"/><path class="st1" d="M15.2 23.8V137m142.8 0V23.8m-137.9-5l.1.2m133-.2H20.1m133.1 0l-.2.2"/><path class="st2" d="M158 23.8l-.2-1.4-.7-1.5-1-1-1.5-.7-1.4-.2"/><path class="st1" d="M157.5 52.3h.5m-.2 9.8v-.2c.3-6.3.3-13 0-19.3v-.2l-.2.2c-.2 6.6-.2 12.7 0 19.3l.2.2z"/><path class="st1" d="M157.7 61.9v-.4c-.3-5.9-.3-12.6 0-18.5v-.4m.3 113.8v-23.2m-142.8 0v23.2"/><path class="st2" d="M15.4 156.4l.2 1.4.7 1.5 1.1 1 1.4.8 1.4.1m133 0l1.4-.1 1.5-.8 1-1 .7-1.5.2-1.4"/><path class="st1" d="M158 133.2V23.8l-.3-1.8-1.1-1.6-1.6-1.1-2-.3m4.5 5.3l.5-.5m0 132.6h-.5m-141.7 0h-.6m0-132.6l.6.5m4.4 136.9h.6m0-141.7l-.6-.5M153 19l-.5.5m0 141.7h.7m4.3-4.8V24.3m-141.7 0v132.1c.2 2.1 1.8 4.6 4.1 4.8h.9M152.5 19.5H20.8c-2.3-.3-4.5 1.7-4.8 3.9l-.2.9"/><path class="st1" d="M127.9 20.9h25.3l.7.2c1.2.7 1.9 1.9 2.1 3.2v132.1l-.2.5v.5l-.7 1.1-.4.4-1.1.7-.5.2h-133l-.5-.2-1.1-.7-.4-.4-.4-.5-.5-1.6V24.3l.2-.5.2-.7.7-1.1.5-.5.5-.4.7-.2h85.4m47.1-1.4v1.4m-131.7 0v-1.4m-3.6 4.8h-1.4m1.4 132.1h-1.4m5 3.4v1.4m131.7-1.4v1.4m-131.7 0h131.7"/><path class="st1" d="M156.1 156.4h1.4v.7c-.6 1.8-2 4-4.1 4.1h-.9m3.6-136.9h1.4l-.2-.9c-.3-1.9-1.9-3.5-3.7-3.9h-1.1M15.2 23.8v109.4m0-109.4l.4-1.8 1.1-1.6 1.6-1.1 1.9-.3H153m-47 3.4l-.6-1.5m.6 1.5l5.1-1.5 5.6-.5 5.3.5 5.4 1.5"/><path class="st2" d="M130.9 146.3l2.5-.4c4.3-1 7-3.7 8-8l.4-2.5"/><path class="st1" d="M42.3 146.3h88.6"/><path class="st2" d="M31.5 135.4l.4 2.5c1 4.3 3.7 7 8 8l2.5.4"/><path class="st1" d="M31.5 113.3v22.1"/><path class="st2" d="M42.3 102.4l-2.5.4c-4.3 1-7 3.7-8 8l-.4 2.5"/><path class="st1" d="M130.9 102.4H42.3"/><path class="st2" d="M141.8 113.3l-.4-2.5c-1-4.3-3.7-7-8-8l-2.5-.4"/><path class="st1" d="M141.8 135.4v-22.1"/><path class="st2" d="M130.9 144.2l2-.2c3.8-1.3 5.3-2.8 6.6-6.6l.2-2"/><path class="st1" d="M139.8 113.3v22.1"/><path class="st2" d="M139.7 113.3l-.4-2.3-.9-2.2-1.2-1.8-2-1.2-2-.9-2.3-.4"/><path class="st1" d="M42.3 104.4h88.6"/><path class="st2" d="M42.3 104.5l-2 .2c-3.8 1.3-5.3 2.8-6.6 6.6l-.2 2"/><path class="st1" d="M33.4 135.4v-22.1"/><path class="st2" d="M33.6 135.4l.4 2.3.8 2.1 1.3 1.8 1.8 1.3 2.1.9 2.3.3"/><path class="st1" d="M130.9 144.3H42.3m97.5-8.9h1.1m-10 9.8v-.9"/><path class="st2" d="M130.9 145.2l2.2-.2 2.1-.7 1.8-1.3 1.6-1.6 1.2-1.7.7-2.2.2-2.1"/><path class="st1" d="M130.9 145.5H42.3v-.9m-9.9-9.2h1"/><path class="st2" d="M32.5 135.4l.2 2.1.7 2.2 1.3 1.7 1.6 1.6 1.8 1.3 2.1.7 2.1.2"/><path class="st1" d="M32.4 135.4v-22.1h1m8.9-10v1.1"/><path class="st2" d="M42.3 103.5l-2.1.2-2.1.7-1.8 1.2-1.6 1.6-1.3 1.8-.7 2.1-.2 2.2"/><path class="st1" d="M42.3 103.3h88.6v1.1m10 8.9h-1.1"/><path class="st2" d="M140.7 113.3l-.2-2.2-.7-2.1-1.2-1.8-1.6-1.6-1.8-1.2-2.1-.7-2.2-.2"/><path class="st1" d="M140.9 135.4v-22.1m-98.6-10h88.6"/><path class="st2" d="M140.7 113.3l-.2-2.2-.7-2.1-1.2-1.8-1.6-1.6-1.8-1.2-2.1-.7-2.2-.2"/><path class="st1" d="M140.9 113.3v22.1"/><path class="st2" d="M130.9 145.2l2.2-.2 2.1-.7 1.8-1.3 1.6-1.6 1.2-1.7.7-2.2.2-2.1"/><path class="st1" d="M141.8 135.4h-.9m-10 10v.9m0-.8H42.3v.9m-9.9-11h-.9"/><path class="st2" d="M32.5 135.4l.2 2.1.7 2.2 1.3 1.7 1.6 1.6 1.8 1.3 2.1.7 2.1.2"/><path class="st1" d="M32.4 135.4v-22.1h-.9m10.8-10v-.9"/><path class="st2" d="M42.3 103.5l-2.1.2-2.1.7-1.8 1.2-1.6 1.6-1.3 1.8-.7 2.1-.2 2.2"/><path class="st1" d="M130.9 103.3v-.9m10 10.9h.9m-81.1 17.8h54.7v1.4H60.7v-1.4zm-3.6 0l1.1-1.1"/><path class="st2" d="M57.1 131.1l1.6 1.1 2 .3m-2.3-2.6l1 .8 1.3.2"/><path class="st1" d="M57.1 131.1l-2.8-3 1-.9 2.9 2.8m-5.4-5.3h1.5"/><path class="st2" d="M52.8 124.7l.4 1.9 1.1 1.7m.2-3.6l.1 1.2.9 1.1"/><path class="st1" d="M52.8 124.7v-3.6h1.5v3.6m3.5-8.6v1.5"/><path class="st2" d="M57.8 116.1l-1.6.2-1.2.7-1.3 1.3-.7 1.2-.2 1.6m5-3.4l-1.2.2-1.1.9-.9 1.1-.1 1.2"/><path class="st1" d="M57.8 116.1h57.6v1.5H57.8m62.6 3.5H119"/><path class="st2" d="M120.4 121.1l-.2-1.6-.7-1.2-1.2-1.3-1.3-.7-1.6-.2m3.4 5l-.2-1.2-.9-1.1-1-.9-1.3-.2"/><path class="st1" d="M120.4 121.1v6.4H119v-6.4"/><path class="st2" d="M115.4 132.5l1.6-.1 1.3-.8 1.2-1.2.7-1.3.2-1.6m-5 3.4l1.3-.2 1-.8.9-1.1.2-1.3"/><path class="st1" d="M54.5 124.7h-.2m.2-3.6h-.2m1 5.9v.2m2.9 2.7v.1m57.2.9v.2m-60.9-10v3.6m.8 2.3l2.9 2.9m57.2-12.3H57.8"/><path class="st2" d="M115.4 130.9l1.3-.2 1-.8.9-1.1.2-1.3"/><path class="st1" d="M119 127.5v-6.4"/><path class="st2" d="M118.8 121.1l-.2-1.2-.9-1.1-1-.9-1.3-.2"/><path class="st1" d="M130.9 145.2v.2m-88.6-.2v.2m52.4-22.3h11.6v.7H95.5m-4.1 0H66.9v-.7h25.3"/><path class="st1" d="M91.7 123.4l-1.8 2-2.6 3m6.2-5.7h-.2"/><path class="st2" d="M93.3 122.9l-1.6.7"/><path class="st1" d="M119 123.3h-.2m.2.9h-.9.3v-.2h.2v-.2l.2-.2v-.3m0-1.1h.2m-.2 0v1.1m-11.4 6.9v.7m-1.1 0v-1l.2.1h.2v.2h.7m-8.2.7v-.2l-.2-.1h-.2m1.5-.4v.7m-1.1 0v-1l.2.1h.2v.2h.7m-15.9 0v.7m-21.7-.7h21.7m-21.7 0v.7m21.7-.7h.7v-.2h.2v-.1 1m-30.8-7.6l.1.3v.2l.4.4h.2-.7m60.4-6.5v.2h.2l.1.2m-57.2 0l.2-.2h.2l.2-.2m55.2-.1v.7m1.1-.7v1.2l-.2-.2v-.1h-.4l-.1-.2h-.4m-54.4-.7v.7m0 0h54.4m1.1 1.4v-.9m0 .9h.3H58h.6v-.2m0 0h56.3m-21.9.2h-.6l-.2.2"/><path class="st2" d="M116.8 121.3l-.3-1.1-1.1-.3m-57.4 0l-1.1.3-.3 1.1"/><path class="st1" d="M92.2 119.9v1.6m-1.4 3h-3.5m4.9-3.2h-4.9m0 2.5v.7m0-4.6v1.6"/><path class="st2" d="M118.4 121.3l-.1-1.2-.7-.9-.9-.7-1.3-.2"/><path class="st1" d="M115.4 118.1h-.2m0 0v1.6m.2 0h-.2m-27.9.2l-.2-.2h-.6m-27.9-.2v-1.9"/><path class="st2" d="M60.9 130.6l.7-.2"/><path class="st1" d="M118.8 122.2v-.4l-.2-.1v-.2l-.2-.2h-.3.9m-61-3.2v1.6m1.4-1.4h-.3l-.2.2h-.2l-.1.1v.2m58.2 2.5h1.3m-.7 0v2.9m.7 0h-1.3"/><path class="st2" d="M57.3 128.8l.7.2m-1.4-1.5l.2.8"/><path class="st1" d="M54.8 124.5v1.6"/><path class="st2" d="M57.5 120.1l-.7 1.2"/><path class="st1" d="M58.2 119.7l-.9.4m-.7 1.2v3.9"/><path class="st2" d="M115.4 128.8l1.1-.4.3-1M95.6 125l-.3-1-.7-.7-1.1-.4"/><path class="st1" d="M60.2 130.6v.1m0 0h.8l.2-.1h.2m34.4-5.6v2.4"/><path class="st2" d="M95.8 127.4l.4 1 1 .4m-3-1.4l.2 1.2.7.9.9.7 1.2.2m-3.4-5.4l-.3-.3"/><path class="st1" d="M106.1 130.6h.2m-7.5 0h-1.6m18.2-1.8H97.2m17.1 1.8h.2m1.1 0v.3"/><path class="st2" d="M116 131.1l-.4-.2m2-.7l-.2-.2"/><path class="st1" d="M116.8 121.3v2.9m-10.7 5.7v1m0-1v-1.1m.2 0v1.1m0-.8h7m-.9 1.1v.7"/><path class="st2" d="M115.4 130.4l1.3-.2.9-.7.7-.9.1-1.2"/><path class="st1" d="M105.1 130.2v.7m0-.7h-4.8m-1.5-1.4l.4.2v.9m-.4-1.1v1.8m7.3-1.5h-6.9m5.9 1.1h.7l.2-.2h.1v-.1"/><path class="st2" d="M93.3 124.7l-.2.2m-6.9 3.9l1.1-.5"/><path class="st1" d="M90.5 124.9h-3.6l.2-.2h3.5m-3.5 0v-.9m0-2.3v-1.8m-.2 1.8v-1.4m0 0H65.7m-5.5 0l1.9 1.9h1.6l2-1.9m-5.5 0h-2.9m29.6 4.8v-1.1m31.5 5.5h-.5m-1.1-5.1v3.2m1.8-3.2v3.2m-63.8-3.2v.3m1.6-.3v-2.9h-.5m0 0v2.9m0 0h.5m-1.9-2.9h.7-.4v.2l-.3.3v.4m.7 2h.7m.5 0v.3"/><path class="st2" d="M58 118.3l-1.2.2-.9.7-.7.9-.2 1.2"/><path class="st1" d="M118.6 127.4v1.6m-58.8-.6l-2.9-2.8m-2.4-3.4v1.1m.7-2h.7m35.3 5.3l1.8-1.9"/><path class="st2" d="M55 124.5l.2 1.3.7.8"/><path class="st1" d="M58.6 129.7l-2.9-2.9"/><path class="st2" d="M59.6 128.4l1.1.4"/><path class="st1" d="M86.2 130.6h-.4m-24.6 0h-.5"/><path class="st2" d="M56.6 124.5l.3 1.1m1.7 3.9l.8.7 1.3.2m-2.7-1.1h-.5"/><path class="st1" d="M85.8 130.6h-.3v.1h-.2v.2m.5-2.1v1.8m-.5-1.6l.5-.2m-24 2.1v-.2h-.2v-.1h-.4m24.1-1.5H61.8m0 0v.9h.1l.2.2h.6m22.6-1.1v.8m-23.5 0v1m0-1.8v-.1l-.6-.2m0 0v1.8m0-1.8h24.6m-.5.3v-.1m8.2-4.5h-.2m.7.5v2.4m-32.8 1.4h-.5m-.5 1.9h-.4m26.4-1.9h-.4"/><path class="st2" d="M86.2 130.4l1.2-.2.9-.7"/><path class="st1" d="M87.3 128.4l1.2 1.1m1.4-4.1l1.3 1.2m-3.4 1.7l1.9-2.2m.2-.7l-.3.5.1.2m-2.4 2.3l.3-.3.2.2.5.5 1.1.9m1.8-3.1l-.2.2v.4m-1.6 2.5v.2h.5l.2-.2h.2v-.2l.9-.9h.2v-.2l.1-.1v-.6l-.1-.2"/><path class="st1" d="M89 129.5v-.2h-.3v.2h-.2m2.9-2l-1.1-.9-.6-.5"/><path class="st1" d="M88.3 128.8h.7l.2-.2h.2v-.2l.9-.9v-.1h.2v-.8h-.2m-.2 1.1l1.1.9m-1.8-.2l1.1.9"/><path class="st2" d="M115.4 128.8l.9-.7.4-1.1"/><path class="st1" d="M116.7 121.3v5.7"/><path class="st2" d="M116.7 121.3l-.7-1.2"/><path class="st1" d="M116 120.1H92.8m0 1.4v-1.4m-27.1 0l.3-.4m-6.2 0l.4.4"/><path class="st2" d="M87.1 119.9l-.2.2"/><path class="st1" d="M116 120.1l-.8-.4m-22.8 0v1.8m0-.2h-.2m-4.9 0h-.2m7.3 7.7h-3.6m-23.9-5.9h25.3m2.5 0h11.6v-1.6H66.9v1.6m-6.2 7.8h54.7m-1.6-.3h-.3v.1h-.2v.2m2.1-.3h-1.6m.7 0l.2.1h.7l.2.2m-2.3 0V129m.5 1.6v-1.8m-.5.2l.5-.2m-6.4 1.4h5.5l.2-.2h.2v-.1m.2 1v-.3m.3.3v-.3"/><path class="st2" d="M118.8 126.5l-.4-.2m-1.6-.7"/><path class="st1" d="M133.1 89.9l2.5-1.4m2.6 4.5l-2.5 1.4"/><path class="st3" d="M36.4 124.3c0-3.3 2.6-5.9 5.9-5.9 3.3 0 5.9 2.6 5.9 5.9s-2.6 5.9-5.9 5.9c-3.3.1-5.9-2.6-5.9-5.9z"/><path class="st3" d="M37.5 124.3c0-2.7 2.2-4.9 4.9-4.9s4.8 2.2 4.8 4.9-2.2 4.9-4.8 4.9c-2.7 0-4.9-2.2-4.9-4.9z"/><path class="st3" d="M38.6 124.3c0-2.1 1.7-3.7 3.7-3.7 2.1 0 3.7 1.7 3.7 3.7 0 2.1-1.7 3.7-3.7 3.7-2 .1-3.7-1.6-3.7-3.7zm86.4.1c0-3.3 2.7-5.9 5.9-5.9 3.3 0 5.9 2.6 5.9 5.9s-2.7 5.9-5.9 5.9c-3.3 0-5.9-2.7-5.9-5.9z"/><path class="st3" d="M126 124.4c0-2.7 2.2-4.9 4.9-4.9s4.9 2.2 4.9 4.9-2.2 4.9-4.9 4.9c-2.7-.1-4.9-2.3-4.9-4.9z"/><path class="st3" d="M127.2 124.4c0-2.1 1.7-3.7 3.7-3.7 2.1 0 3.7 1.7 3.7 3.7 0 2.1-1.7 3.7-3.7 3.7-2.1 0-3.7-1.7-3.7-3.7zm2.5-33c0-3.3 2.7-6.1 6.1-6.1 3.3 0 6.1 2.7 6.1 6.1 0 3.3-2.7 6.1-6.1 6.1-3.4-.1-6.1-2.8-6.1-6.1z"/><path class="st3" d="M130.6 91.4c0-2.9 2.3-5.2 5.2-5.2s5.2 2.3 5.2 5.2c0 2.9-2.3 5.2-5.2 5.2s-5.2-2.4-5.2-5.2z"/><path class="st3" d="M132.5 91.4c0-1.8 1.4-3.2 3.2-3.2s3.2 1.4 3.2 3.2c0 1.8-1.4 3.2-3.2 3.2-1.7 0-3.2-1.5-3.2-3.2z"/><path class="st3" d="M132.9 91.3c0-1.6 1.3-2.9 2.9-2.9s2.9 1.3 2.9 2.9-1.3 2.9-2.9 2.9-2.9-1.3-2.9-2.9z"/><path class="st1" d="M127.9 20.9l-.5 1.5"/><path class="st2" d="M106 22.4l-3.4 1.6-3.4 1.8C75.6 42 82.7 77.9 111 83.5l3.7.5h3.9c30.7-2.8 40.6-40.8 15.5-58.3l-3.4-1.8-3.4-1.6"/><path class="st2" d="M105.4 20.9l-3.6 1.4-3.4 2c-26 17.9-16.8 56.6 14.3 61.1l3.9.2 3.9-.2c31-4.5 40.2-43.2 14.3-61.1l-3.4-2-3.6-1.4"/><path class="st1" d="M127.9 20.9l-5.5-.7-5.7-.3-5.7.3-5.6.7"/><path class="st2" d="M148.4 52.3l-.2-3.7-.7-3.7c-9-33.3-55.2-31.9-62 2l-.5 3.6v3.9c3.7 36.4 52.7 40.7 62.6 5.5l.7-3.7.1-3.9z"/><path d="M144.6 52.3l-.2-3.6-.7-3.4c-8.5-29.8-50-27.2-54.9 3.4l-.2 3.6.2 3.6c4.9 30.5 46.4 33.2 54.9 3.4l.7-3.4.2-3.6z" fill="none" stroke="#000" stroke-width=".72" stroke-linecap="round" stroke-linejoin="bevel" stroke-miterlimit="10"/><path class="st2" d="M145.7 52.3l-.2-3.6-.7-3.6c-8.3-30.1-50.3-28.8-56.7 1.8l-.5 3.6v3.6c3.2 33.1 48.1 37.3 57.2 5.3l.7-3.6.2-3.5z"/><path class="st2" d="M147.3 52.3l-.2-3.7-.7-3.6c-8.9-32.8-55-30.4-60.2 3.6l-.2 3.7.2 3.7c5.3 34 51.3 36.4 60.2 3.6l.7-3.6.2-3.7z"/><path class="st2" d="M144.6 52.3l-.2-3.6-.7-3.4c-8.5-29.8-50-27.2-54.9 3.4l-.2 3.6.2 3.6c4.9 30.5 46.4 33.2 54.9 3.4l.7-3.4.2-3.6z"/><path class="st1" d="M120.6 34.8v2.9h-5.9v-2.9m0 35.2v-3.1h5.9V70"/><path class="st2" d="M144.6 52.3l-.2-3.4-.7-3.6c-8-27.7-46.7-26.5-52.8 1.8l-.5 3.4v3.6c3.2 30.9 44.6 34.5 53.3 5.2l.7-3.6.2-3.4z"/><path class="st3" d="M116.3 43.4c0-.7.6-1.3 1.3-1.3.7 0 1.3.6 1.3 1.3s-.6 1.3-1.3 1.3c-.7 0-1.3-.6-1.3-1.3zm-7.7 4.5c0-.7.6-1.3 1.3-1.3.7 0 1.3.6 1.3 1.3s-.6 1.3-1.3 1.3c-.7-.1-1.3-.6-1.3-1.3zm15.4 0c0-.7.6-1.3 1.3-1.3.7 0 1.3.6 1.3 1.3s-.6 1.3-1.3 1.3c-.8-.1-1.3-.6-1.3-1.3zm0 8.9c0-.7.6-1.3 1.3-1.3.7 0 1.3.6 1.3 1.3s-.6 1.3-1.3 1.3c-.8 0-1.3-.6-1.3-1.3zm-7.7 4.4c0-.7.6-1.3 1.3-1.3.7 0 1.3.6 1.3 1.3s-.6 1.3-1.3 1.3c-.7 0-1.3-.6-1.3-1.3zm-7.7-4.4c0-.7.6-1.3 1.3-1.3.7 0 1.3.6 1.3 1.3s-.6 1.3-1.3 1.3c-.7-.1-1.3-.6-1.3-1.3z"/><path class="st3" d="M95.8 52.3c0-12 9.7-21.7 21.7-21.7s21.7 9.7 21.7 21.7S129.5 74 117.5 74s-21.7-9.6-21.7-21.7z"/><path class="st3" d="M124.7 36.1s-2.7-1.5-7-1.5c-4.4 0-7 1.5-7 1.5l-1.7-2.6s-1.5.6-2.9 1.6-2.8 2.3-2.8 2.3l1.8 2.6s-1.3 1.4-2.3 2.9-1.7 3.4-1.7 3.4h-3.3s-1 2.8-.9 6.4c0 3.6 1 6 1 6h3.2s2.5 7.9 11 10.7 15.2-1.8 15.2-1.8l2 2.2s1.4-.9 2.7-2.2c1.3-1.2 2.3-2.6 2.3-2.6l-2.1-2.2.8-1.2c.4-.6.7-1.3.7-1.3l2.9.9s.7-1.8 1.2-3.3c.4-1.5.6-3.5.6-3.5l-2.9-.6s.4-3.9-1.1-7.4c-2-4.9-4-6.3-4-6.3l1.7-2.6s-1.6-1.4-2.8-2.2-3-1.7-3-1.7l-1.6 2.5z"/><path d="M135.7 91.4h83M117.6 51.8h101.1m-108.8 73.4h108.8" fill="none" stroke="#000" stroke-miterlimit="10"/><text transform="translate(231.086 50.044)" class="st6 st7">I/O connector</text><text transform="translate(231.086 66.844)" class="st6 st7">(6-pin connector)</text><text transform="translate(231.087 95.424)" class="st6 st7">Status LED</text><text transform="translate(231.087 130.043)" class="st6 st7">USB 3.0 Micro-B connector</text></svg>