<svg version="1.0" xmlns="http://www.w3.org/2000/svg" viewBox="0 0 980 660"><path fill="#EDEDEE" d="M231.1 133.3h232.7V396H231.1V133.3z"/><path clip-rule="evenodd" fill="none" stroke="#000" stroke-linejoin="round" stroke-miterlimit="3.864" d="M298.8 188.6h109.7"/><path d="M401.9 188.6c0-2.9 2.4-5.3 5.3-5.3s5.3 2.4 5.3 5.3-2.4 5.3-5.3 5.3c-3-.1-5.3-2.4-5.3-5.3z"/><path fill="none" stroke="#000" stroke-width=".5" stroke-miterlimit="3.864" d="M401.9 188.6c0-2.9 2.4-5.3 5.3-5.3s5.3 2.4 5.3 5.3-2.4 5.3-5.3 5.3c-3-.1-5.3-2.4-5.3-5.3z"/><path clip-rule="evenodd" fill="none" stroke="#000" stroke-linejoin="round" stroke-miterlimit="3.864" d="M317.4 253.8h89.7"/><path clip-rule="evenodd" fill="none" stroke="#000" stroke-miterlimit="3.864" d="M407.1 453.5V92.9"/><path fill="#FFF" d="M396.6 269.7h21.1v28.4h-21.1v-28.4z"/><path fill="none" stroke="#000" stroke-width=".669" stroke-miterlimit="3.864" d="M396.6 269.7h21.1v28.4h-21.1v-28.4z"/><path clip-rule="evenodd" fill="none" stroke="#000" stroke-miterlimit="3.864" d="M192.6 260.9H72.5L54.4 279l18.5 18.6h119.7z"/><path clip-rule="evenodd" fill="none" stroke="#000" stroke-linejoin="round" stroke-miterlimit="3.864" d="M317.3 269.9v-32.3m0 9.5l-19-19"/><g clip-rule="evenodd"><path fill-rule="evenodd" d="M310.2 228.8L299 240h11.2z"/><path fill="none" stroke="#000" stroke-width=".028" stroke-linejoin="round" stroke-miterlimit="3.864" d="M310.2 228.8L299 240h11.2z"/></g><path clip-rule="evenodd" fill="none" stroke="#000" stroke-linejoin="round" stroke-miterlimit="3.864" d="M298.8 228.5v-39.7m18.5 72.1l-18.8 18.9m.2-.3H193.1"/><path d="M293.5 279.5c0-2.9 2.4-5.3 5.3-5.3s5.3 2.4 5.3 5.3-2.4 5.3-5.3 5.3c-2.9-.1-5.3-2.4-5.3-5.3z"/><path fill="none" stroke="#000" stroke-width=".5" stroke-miterlimit="3.864" d="M293.5 279.5c0-2.9 2.4-5.3 5.3-5.3s5.3 2.4 5.3 5.3-2.4 5.3-5.3 5.3c-2.9-.1-5.3-2.4-5.3-5.3z"/><path d="M293.4 188.6c0-2.9 2.4-5.3 5.3-5.3s5.3 2.4 5.3 5.3-2.4 5.3-5.3 5.3c-2.9-.1-5.3-2.4-5.3-5.3z"/><path fill="none" stroke="#000" stroke-width=".5" stroke-miterlimit="3.864" d="M293.4 188.6c0-2.9 2.4-5.3 5.3-5.3s5.3 2.4 5.3 5.3-2.4 5.3-5.3 5.3c-2.9-.1-5.3-2.4-5.3-5.3z"/><path clip-rule="evenodd" fill="none" stroke="#000" stroke-linejoin="round" stroke-miterlimit="3.864" d="M298.8 279.5v104.4"/><path fill="#FFF" d="M288.4 316.6h21.1V345h-21.1v-28.4z"/><path fill="none" stroke="#000" stroke-width=".669" stroke-miterlimit="3.864" d="M288.4 316.6h21.1V345h-21.1v-28.4z"/><path fill="#FFF" d="M396.7 209.8h21.1v28.3h-21.1v-28.3z"/><path fill="none" stroke="#000" stroke-width=".669" stroke-miterlimit="3.864" d="M396.7 209.8h21.1v28.3h-21.1v-28.3z"/><path d="M401.8 253.8c0-2.9 2.4-5.3 5.3-5.3s5.3 2.4 5.3 5.3-2.4 5.3-5.3 5.3-5.3-2.4-5.3-5.3z"/><path fill="none" stroke="#000" stroke-width=".5" stroke-miterlimit="3.864" d="M401.8 253.8c0-2.9 2.4-5.3 5.3-5.3s5.3 2.4 5.3 5.3-2.4 5.3-5.3 5.3-5.3-2.4-5.3-5.3z"/><path fill="none" stroke="#000" stroke-width=".672" stroke-linejoin="round" stroke-miterlimit="3.864" stroke-dasharray="8,4" d="M21.5 32.1h694.3v596.1H21.5V32.1z"/><g clip-rule="evenodd"><path fill-rule="evenodd" d="M391.8 331.6h30.8l-15.4 18.2z"/><path fill="none" stroke="#000" stroke-width=".003" stroke-linejoin="round" stroke-miterlimit="3.864" d="M391.8 331.6h30.8l-15.4 18.2z"/></g><path clip-rule="evenodd" fill="none" stroke="#000" stroke-width=".85" stroke-miterlimit="3.864" d="M413.8 345.8h3.6v4.5h-19.9v4.5h3.8"/><text transform="translate(369.701 57.65)"><tspan x="0" y="0" font-family="Helvetica,Arial,sans-serif" font-size="19.58">3.3 VDC </tspan><tspan x="-.3" y="20.8" font-family="Helvetica,Arial,sans-serif" font-size="19.58">(typical)</tspan></text><text transform="translate(751.808 306.553)"><tspan x="0" y="0" font-family="Helvetica,Arial,sans-serif" font-size="19.58">6-pin </tspan><tspan x="-24" y="20.8" font-family="Helvetica,Arial,sans-serif" font-size="19.58">receptacle</tspan></text><path fill="none" stroke="#000" stroke-linejoin="round" stroke-miterlimit="3.864" d="M715.8 341.2h32.5v197.5h-32.5V341.2z"/><text transform="translate(726.403 371.744)" font-family="Helvetica,Arial,sans-serif" font-size="19.58">1</text><text transform="translate(726.403 403.033)" font-family="Helvetica,Arial,sans-serif" font-size="19.58">2</text><text transform="translate(726.403 434.327)" font-family="Helvetica,Arial,sans-serif" font-size="19.58">3</text><text transform="translate(726.403 465.615)" font-family="Helvetica,Arial,sans-serif" font-size="19.58">4</text><text transform="translate(726.403 496.904)" font-family="Helvetica,Arial,sans-serif" font-size="19.58">5</text><text transform="translate(726.403 528.193)" font-family="Helvetica,Arial,sans-serif" font-size="19.58">6</text><text transform="translate(55.443 73.903)" font-family="Helvetica,Arial,sans-serif" font-weight="bold" font-size="23.495">Camera</text><text transform="translate(854.377 392.007)" font-family="Helvetica,Arial,sans-serif" font-size="19.58">Logic gate</text><text transform="translate(241.687 157.425)" font-family="Helvetica,Arial,sans-serif" font-size="19.58">Input buffer</text><text transform="translate(77.742 286.515)" font-family="Helvetica,Arial,sans-serif" font-size="19.58">FPGA input</text><path clip-rule="evenodd" fill="none" stroke="#000" stroke-linejoin="round" stroke-miterlimit="3.864" d="M308 384h-18.6m127 175h-18.6m234.4-39h82.7m-307.8 0h225m-243.5-61v32.2m0-9.4l18.7 18.7m-.9-71h310.2"/><g clip-rule="evenodd"><path fill-rule="evenodd" d="M391.9 496.4l11.2-11.2v11.2z"/><path fill="none" d="M391.9 496.4l11.2-11.2v11.2z"/></g><path clip-rule="evenodd" fill="none" stroke="#000" stroke-linejoin="round" stroke-miterlimit="3.864" d="M407.1 500.3V520m-18.5-52.1l18.8-18.8"/><path clip-rule="evenodd" fill="none" stroke="#000" stroke-miterlimit="3.864" d="M407.1 429.6v20.2"/><path d="M401.9 520c0-2.9 2.4-5.3 5.3-5.3s5.3 2.4 5.3 5.3-2.4 5.3-5.3 5.3-5.3-2.4-5.3-5.3z"/><path fill="none" stroke="#000" stroke-width=".5" stroke-miterlimit="3.864" d="M401.9 520c0-2.9 2.4-5.3 5.3-5.3s5.3 2.4 5.3 5.3-2.4 5.3-5.3 5.3-5.3-2.4-5.3-5.3z"/><path d="M401.9 429.6c0-2.9 2.4-5.3 5.3-5.3s5.3 2.4 5.3 5.3-2.4 5.3-5.3 5.3c-3-.1-5.3-2.4-5.3-5.3z"/><path fill="none" stroke="#000" stroke-width=".5" stroke-miterlimit="3.864" d="M401.9 429.6c0-2.9 2.4-5.3 5.3-5.3s5.3 2.4 5.3 5.3-2.4 5.3-5.3 5.3c-3-.1-5.3-2.4-5.3-5.3z"/><path d="M532.7 519.9c0-2.9 2.4-5.3 5.3-5.3s5.3 2.4 5.3 5.3-2.4 5.3-5.3 5.3c-3 0-5.3-2.4-5.3-5.3z"/><path fill="none" stroke="#000" stroke-width=".5" stroke-miterlimit="3.864" d="M532.7 519.9c0-2.9 2.4-5.3 5.3-5.3s5.3 2.4 5.3 5.3-2.4 5.3-5.3 5.3c-3 0-5.3-2.4-5.3-5.3z"/><path d="M532.6 429.5c0-3 2.4-5.3 5.3-5.3 3 0 5.4 2.4 5.4 5.3 0 3-2.4 5.4-5.4 5.4-2.9 0-5.3-2.4-5.3-5.4z"/><path fill="none" stroke="#000" stroke-width=".5" stroke-miterlimit="3.864" d="M532.6 429.5c0-3 2.4-5.3 5.3-5.3 3 0 5.4 2.4 5.4 5.3 0 3-2.4 5.4-5.4 5.4-2.9 0-5.3-2.4-5.3-5.4z"/><path clip-rule="evenodd" fill="none" stroke="#000" stroke-miterlimit="3.864" d="M538 430.2v92.5"/><path clip-rule="evenodd" fill="none" stroke="#000" stroke-linejoin="round" stroke-miterlimit="3.864" d="M407.1 499.9V559"/><g clip-rule="evenodd"><path fill-rule="evenodd" d="M553.6 485.7h-31.2l15.6-18.5z"/><path fill="none" stroke="#000" stroke-width=".003" stroke-linejoin="round" stroke-miterlimit="3.864" d="M553.6 485.7h-31.2l15.6-18.5z"/><path fill="none" stroke="#000" stroke-width=".85" stroke-miterlimit="3.864" d="M528.8 468H547m-.5-.3l5.5 5.4m-28.2-10.3l5.5 5.5"/></g><path clip-rule="evenodd" fill="none" stroke="#000" stroke-linejoin="round" stroke-miterlimit="3.864" d="M867.2 520h-119"/><path clip-rule="evenodd" fill="none" stroke="#000" stroke-miterlimit="3.864" d="M867.2 613.7V520"/><path clip-rule="evenodd" fill="none" stroke="#000" stroke-linejoin="round" stroke-miterlimit="3.864" d="M863.4 429.5H748.2"/><path fill="#FFF" d="M863 429.8c0-2.9 2.4-5.3 5.3-5.3s5.3 2.4 5.3 5.3-2.4 5.3-5.3 5.3c-3 0-5.3-2.4-5.3-5.3z"/><path fill="none" stroke="#000" stroke-width="1.001" stroke-miterlimit="3.864" d="M863 429.8c0-2.9 2.4-5.3 5.3-5.3s5.3 2.4 5.3 5.3-2.4 5.3-5.3 5.3c-3 0-5.3-2.4-5.3-5.3z"/><g clip-rule="evenodd"><path fill-rule="evenodd" fill="#FFF" d="M897.8 453.2v-47.3l-23.6 23.7z"/><path fill="none" stroke="#000" stroke-width="1.001" stroke-linejoin="round" stroke-miterlimit="3.864" d="M897.8 453.2v-47.3l-23.6 23.7z"/></g><g fill="none" stroke="#000" stroke-linejoin="round" stroke-miterlimit="3.864"><path clip-rule="evenodd" d="M876.4 613.7h-18.5"/><path d="M861.3 617.7H873m-9.1 4h6.5"/></g></svg>