<svg version="1.1" id="Layer_1" xmlns="http://www.w3.org/2000/svg" x="0" y="0" viewBox="0 0 500 370" xml:space="preserve"><style>.st4,.st7{stroke:#1d1d1b;stroke-width:.425}.st4{stroke-miterlimit:10;fill:#fff}.st7{fill:none}.st10,.st7{stroke-miterlimit:10}.st10,.st11{fill:none;stroke:#000;stroke-width:.51;stroke-linecap:round;stroke-linejoin:round}.st12{font-family:Helvetica,Arial,sans-serif}.st13{font-size:13.32px}.st16{font-size:11px}.st17{font-size:13.319px}.st18{font-size:11.589px}</style><path d="M216.5 122.2h47.3v215.3h-47.3V122.2z" fill="#d9d9d9"/><path d="M81.5 103.3h135.1v253.2H81.5V103.3z" fill="#d9d9d9" stroke="#1d1d1b" stroke-width=".992" stroke-miterlimit="10"/><path d="M217 228.9v118.2-.3c0 .8.6 1.8 1.3 1.8l44.3 1.2s.3 1.3 1.6 1.3l66.8 1.7 4.3.4c.8 0 2.5-.4 2.5-1.4V345l2.7-.7-.9-3.6.9-.6s.8 3.9 4.7.9l1.5-3-.2-27.2-2.2-3v-1.3h5.7V229" fill="#f5f5f5"/><path d="M318.7 222.4l2.9 4.9m-2.9-11.3l3.4 5.8m-3.4-12.2l3.4 5.8m4.1 13.6l-3-5.3m6.8 5l-6.8-11.4m6.8 5l-6.8-11.4m-1.8-3.1l-2.7-4.7m11.3 12.7l-6.8-11.4m-1.1-1.9l-3-5m10.9 11.9l-9.8-16.6M330 203l-5.8-9.6m0-.1l-3.4-5.9m9.2 9.1l-5.8-9.5m5.8 3.1l-2.2-3.3m2.2-64.1l4.5-7.7m-5.5 15.8l9.1-15.8m-8.1 20.6l9.2-16.1M330 142l9.2-16.1m-10.8 25.2l13.6-23.4m-12 27.2l15.7-27.2M330 161.3l19.3-33.6m-19.3 40l19.3-33.5m-19.3 40l19.3-33.6m-19.3 40l19.3-33.6M330 187l19.3-33.5m-19.3 40l19.3-33.6m-19.3 40l19.3-33.6m-19.3 40l19.3-33.6M330 212.8l9.2-16.1m.9-1.5l9.2-16m-19.3 40l9.2-16.1m4.6-7.9l5.5-9.6m-19.3 40l11.5-20.1m6-10.3l1.8-3.2m-17.6 37.1l7.5-13.1m-3.8 13l5.4-9.4m-1.7 9.4l5.4-9.4m-1.7 9.4l5.4-9.4m-1.7 9.5l2.8-4.9m-67.5 5l2.6-1.5m-2.6-2.2l2.6-1.4m-2.6-2.3l2.6-1.5m-2.6-2.2l2.6-1.5m-2.6-2.3l2.6-1.4m-2.6-2.3l2.6-1.5m-2.6-2.2l2.6-1.4m-2.6-2.3l2.6-1.4m-2.6-2.3l2.6-1.5m-2.6-2.2l2.6-1.5m-2.6-2.3l2.6-1.4m-2.6-2.3l2.6-1.4m-2.6-2.3l2.6-1.4m-2.6-2.2l2.6-1.5m-2.6.9l-3-1.7m5.5-.6l-5.8-3.4m5.9-.2l-5.9-3.4m5.9-.4l-5.7-3.2m9.9 2l-7.5-4.3m13.5 4l-8.1-4.6m11.4 2.9l-6.1-3.6m6.9.3l-6.7-4m6.7.3l-6.7-3.9m6.7.1l-6.7-3.8m6.7.1l-6.7-3.8m6.7.1l-6.7-3.9m6.7.2l-6.7-3.9m6.7.2L292 138m6.7.2l-6.7-3.9m6.7.1l-6.7-3.8m9.2 1.6l-9.2-5.3m9.2 1.6l-8.6-5m35-3.4l2.4-2.4m4.5-4.5l3-3.1m-14.6 10.2l13.4-13.4m-18.1 13.5l13.8-13.8m-18.5 13.9l14-13.9m-18.6 14l13.8-13.8m-34.1 29.6l3.4-3.4m12.2-12.3l13.9-13.8m-34.2 29.6l8.1-8.1m7.6-7.5l13.8-13.9m-34.2 29.7l12.8-12.8m2.9-2.9l13.8-13.9m-34.1 29.6l29.5-29.5m-33.8 29.3l29.1-29.1m-33.1 28.4l28.4-28.3m-30.3 25.7l25.7-25.6m-25.9 21.3l21.2-21.2m-22.3 17.7l17.6-17.5m-22.1 17.5l17.5-17.5m-22 17.5l17.3-17.3m-21.8 17.3l17.1-17.2M245 125.4l17.1-17m-21.7 17l16.9-16.9m-21.4 16.9l16.8-16.8m-21.4 16.8l16.8-16.7m-21.3 16.7l16.5-16.6m-21 16.6l16.4-16.5m-19.2 14.7l14.5-14.5m-16.8 12.3l12.1-12.2m-12.3 7.9l7.7-7.7m-7.7 3.1l3-3.1" fill="none" stroke="#3c3c3b" stroke-width=".283" stroke-linecap="round" stroke-linejoin="round" stroke-miterlimit="10"/><path class="st4" d="M344.2 233.3v-4.7m-3.8 0h3.8m-3.8 4.7h3.8m-3.8 66h7.2m0 0V291m-7.2 0h7.2m-3.4-16.9v-4.8m-3.8 4.8h3.8m0-4.8v-3m-3.8 0h7.2m0 0v-8.2m-7.2 0h7.2m-3 29.9v-10.9m-4.2 0h4.2m-4.2 10.9h4.2m-.4-46.9v-4.7m-3.8 0h3.8m-3.8 4.7h3.8m-3.8 65.3h3.9m5.5-21v-56.5m-5.2 29.2v-13.9m-4.2 0h4.2M337 352.6V229.2m-6 123.6V229.2m9.3 113.4h-77.6m81.1-1.1v-34.1m-3.4-78.8v111.5m-77.7 9.2V229.2m-.4 94.9h-45.5m45.9-20.4h-45.9m45.5 16.9h-45.5m45.5-13.4h-45.2m45.7-78l2.1 18.8m0 0v103.9"/><path d="M349.8 286.7l-.5-159h-4.1s.1-4.9 0-7.1-2.1-2.9-3.1-3.4c-1.1-.6-3 1.3-3 1.3V115h-1.5v-6.6c0-.8-.6-1.3-1.3-1.6-.6-.3-13.5 0-13.5 0l-103.7 2.6c-2.3-.1-2.1 3.1-2.1 3.1v234.6-.3c0 .8.6 1.8 1.3 1.8l44.3 1.2s.3 1.3 1.6 1.3l66.8 1.7 4.3.4c.8 0 2.5-.4 2.5-1.4v-7.5h2.7v-4.2s4.5 4.3 6.2-2.1h0s-.1-24.9-.2-27.2c0-2.4-2.2-3-2.2-3v-1.3h5.7v-21" fill="none" stroke="#1d1d1b" stroke-width=".992" stroke-miterlimit="10"/><path class="st4" d="M337.5 108.4v-.3m0 0l-.1-.4m0 0l-.2-.3m0 0l-.3-.3m0 0l-.3-.2m0 0l-.4-.1m0 0l-.3-.1m0 0l-5.9-.1m0 0l-67.6 1.8M217 121.1l4.2 4.3m0 0h43m0 6.8l.1.6m0 0l.1.6m0 0l.2.6m0 0l.4.6m0 0l.3.5m0 0l.5.4m0 0l.5.4m0 0l.7.3m0 0l.6.1m0 0l.6.1m0 0l6.9.4m0 0l15.2-.4m0 0l.4-.1m0 0l.3-.1m0 0l.4-.3m0 0l.2-.2m0 0l.2-.3m0 0l.1-.3m0 0l.1-.4m0 0v-12.4m0 0v-.3m0 0l.1-.4m0 0l.2-.2m0 0l.3-.2m0 0l.3-.1m0 0l.2-.1m0 0l36.9-.9m0 0v-6.8m0 0l6.3-.2m0 0h.3m0 0l.3-.1m0 0l.3-.2m0 0l.2-.3m0 0l.1-.3m0 0v-.3m0 0v-3.5m-73.3 120.4v-96.6m0 .2v-.2m0 0v-10.4m4 107.2v-92.6m6.9 92.4v-92M221.2 229V125.6m0 0v-.2m-4.2-4.2v.2m0 0v.2m0 0V229m109.5-43.5h-.2m0 0l-.2-.2m0 0l-.2-.2m0 0l-.2-.2m0 0v-.2m0 0v.1m0 0v.2m0 0l-.2.3m0 0v.2m0 0l-.2.3m0 0l-.1.3m0 0l-.3.6m0 0l.3-.2m0 0l.3-.2m0 0l.2-.1m0 0l.3-.2m0 0l.2-.2m0 0l.2-.1m0 0l.1-.2m0 0h-.2m0 0l-.2-.2m0 0l-.2-.2m0 0l-.2-.2m0 0v-.3m.8-.3h-.2m0 0h-.2m0 0h-.2m0 0h-.2m.8 1.2v-.2m0 0v-.2m0 0v-.2m0 0v-.3m0 0v-.3m0 0v-4.1m0-5v-3.9m-1.6-.8v16.2m.8-2v-4.5m0-5v-3.9m-11.4 54.8v-.5m0 0l-.1-.4m0 0l-.3-.4m0 0l-.2-.3m0 0l-.3-.3m0 0l-.4-.3m0 0l-.3-.1m0 0l-.5-.2m2.1 2.5h-.4m0 0h-.2m0 0h-.3m0 0h-.2m0 0h-.1m-.1-.3l.1.3m0 0l-.1-.3m0 0l-.1-.2m0 0l-.2-.2m0 0l-.2-.1m0 0h-.3m0 0v.1m0 0v3.6m.9 0v-2.9m-.9-2.5v.3m0 0v.4m0 0v.3m0 0v.3m0 0v.2m0 0v.1m0 0v.1m17.8-41h-3.5m3.5 1.2h-3.5m3.5 1.3h-.7m-2.6 0l-1.8-.1m-23.7-25.6l2.7-.4m0 0l2.5-.5m0 0l5.2-.8m0 0l5.2-.9m0 0l2.6-.5m0 0l2.6-.4M301.2 128l3.7-.4m0 0l3.5-.4m0 0l7.2-.9m0 0l3.5-.5m0 0l3.6-.4m0 0l1.8-.2m0 0l1.8-.1m0 0l1.8-.1m0 0l1.9-.1m-17.8 98.7l-11-.3m0 1.7l11 .3m-11-88.4l22 .2M322 156l-20.8.5m0-4.7l22-.3m-11-3.1l11-.3m0-16.4l-22 .2M322 156l-20.8.6m11-8.2l-11 .3m-8.1-25.3v-.5m0 0v-.5m0 0v-.4m0 0v-.4m0 0v-.2m0 0v-.2m-2.8 15.2v.2m0 0v.2m0 0v.4m0 0v.5m0 0v.5m0 0v.7m0 0v.7m0 0v.9m0 0v.9m0 0v1.1m0 0v1.2m0 0v1.2m0 0v1.3m0 0v1.5m0 0v1.5m0 0v1.6m0 0v1.7m0 0v1.7m0 0v2m0 0v1.9m0 0v2m0 0v2.1m0 0v2.2m32.9-15.2l-22 .3m22-15.3h-22m36.3-20.2v-.4m0 0v-.4m0 0v-.4m0 0v-.3m0 0v-.3m0 0v-.2m0 2.6v-.6m0 1v-.4m-1.2-.6h.3m0 0h.3m0 0h.3m0 0h.2m0 0h.1m-1.2-.7v.2m0 0v.2m0 0v.3m0 .6h.3m0 0h.3m0 0h.3m0 0h.2m0 0h.1m-1.2-.6v.6m0 0v.4m-6.3-.9l6.3-.1m-6.3.6h6.3m-72.1 7.2h-46.7M339.2 229V115m0 0H330m0 0v114m-.5-57.7v.3m0 0v.4m0 0v.4m0 0v.4m0 0v.4m.5 0h-.5m0 0v.7m0 8.9v.3m.5 0h-.5m19.8 36.5h-10.1m0 0v-9.4m0 0h3.4m0 0v-4.7m0 0h-3.4m0 0v-10.3m0 0h10.1m0-67.5h-10.1m0 0V115m0 0H330m0 0v11.2m0 0h-3.4m0 0v4.6m0 0h3.4m0 0v15.6m0 0h-4.7m0 0v4.7m0 0h4.7m0 20.2h-4.7m0-.8v.8m4.7 2.6h-3.4m0 0v1.3m0 4.6v3m3.4 0h-3.4m3.4-39.7h-3.4m3.4-8.9h-3.4m0 0v8.9m12.6 72.2h4.7m0 4.3v-4.3m0 0v-5.1m-18.6-30.4v.4m1.3 0h-1.3m18.6 25.3v-3.3m-4.7 0h8m0 0v-7m-21.9-20v4.6m4.7 0h-4.7m4.7-4.6h-4.7m13.9 25.7h4.7m0 0v-5.7M330 155.7h-8m0 0v14.8m8 0h-8m21.9 39.7v-4.7m-1.3 0h1.3m-1.3 4.7h1.3m-20.7-84.3v29.8m6.8-29.8h-6.8M330 187h-.7m18.1 15.5h-.1m-18-15.7h-5.1m0 0v6.7m0 0v-6.7m0 0h-3.4m0 0l-.1 2m0 0l-.2 2.1m0 0l-.3 2.1m0 0l-.4 2m0 0l-.5 2m0 0l-.6 2m0 0v8.8m0 0h3.4m0 0v-6.7m0 0h1.1m0 0V229m-4.5-20.3v-.9m0 .9h3.4m0-.9v.9m0 0v18.6m-3.4 0v-18.6m0 18.6h3.4m-43.6-50.2v.5m0 0l.1.6m0 0l.2.5m0 0l.2.5m0 0l.4.5m0 0l.2.4m1.3 1.2l.3.2m0 0l.3.1m0 0l.3.1m0 47.5v-50.9m0 0h2.1m0 0l.2-.1m0 0l.2-.1m0 0l.1-.1m0 0v-.2m0 51.4v-58.7m0 0v-.2m0 0l.1-.2m0 0l.2-.2m0 0l.2-.1m0 0l.2-.1m0 0l9.6-.5m0 0h.7m0 0l.5-.2m0 0l.7-.3m0 0l.5-.4m0 0l.5-.4m0 0l.3-.4m0 0l.4-.6m0 0l.2-.7m0 0l.1-.6m0 0l.1-.6m0 0v-30.8m0 0v-.3m0 0l.2-.2m0 0l.2-.1m0 0l.2-.2m0 0h.2m0 0h1.4m0 0l.1-.1m0 0l.1-.1m0 0l.1-.1m0 0v-.2m0 0v-5m0 0v-.2m0 0l-.1-.1m0 0l-.1-.1m0 0l-.1-.1m0 0h-1.4m0 0h-.2m0 0l-.2-.2m0 0l-.2-.1m0 0l-.2-.2m0 0v-.3m0 0v-2.2m0 0l-.1-.2m0 0l-.1-.3m0 0l-.1-.2m0 0l-.3-.1m0 0h-.2m0 0l-5-.2m0 0l-.3.1m0 0l-.3.1m0 0l-.2.2m0 0l-.1.2m0 0v.3m0 0v39.2m0 0l-.1.2m0 0l-.1.3m0 0l-.2.2m0 0l-.2.1m0 0h-.3m0 0l-8.7.5m0 0l-.6.1m0 0l-.6.2m0 0l-.6.2m0 0l-.5.4m0 0l-.5.4m0 0l-.4.5m0 0l-.3.6m0 0l-.3.5m0 0l-.1.7m0 0v.6m0 0v8.1m22.4-43.7v.1m0 0v.3m0 0v.3m0 0v.4m0 0v.6m0 0v.6m0 0v.7m0 0v.8m0 0v.9m0 0v.9m0 0v1.1m0 0v1.2m0 0v1.2m0 0v1.4m.3-.4v.2m0 0h-.1m0 0l-.1.2m0 0h-.1m.3-.4v-1.3m0 0v-1.3m0 0v-1.2m0 0v-1m0 0v-1m0 0v-.9m0 0v-.9m0 0v-.6m0 0v-.6m0 0v-.6m0 0v-.4m0 0v-.3m0 0v-.2m0 0v-.3m0 19.4v.2m0 0h-.1m0 0l-.1.1m0 0h-.1m.3 76.5v-76.8m-.3-1.6v.1m0 0v.2m0 0v.2m0 0v.3m0 0v.3m0 0v.3m0 0v.3m0 0v.2m.3-.3v-.2m0 0v-.2m0 0v-.2m0 0v-.2m0 0v-.2m0 0v-.1m-.3-27.6l.1.1m0 0l.1.1m0 0l.1.1m0 0v.2m-.3 19.8v1.5m0 0v1.4m0 0v1.4m0 0v1.2m0 0v1.3m.3.5v-1.5m0 0v-1.5m0 0v-1.5m0 0v-1.5m0 0v-1.7m0-15.6v-.2m0 0v-.2m0-.1v.2m-.3-3.8v.3m0 0v.3m0 0v.3m0 0v.4m0 0v.5m0 0v.4m0 0v.4m0 0v.4m0 0v.4m0 0v.2m.3 0v-.2m0 0v-.2m0 0v-.3m0 0v-.4m0 0v-.4m0 0v-.4m0 0v-.3m0 0v-.4m0 0v-.3m0 0v-.3m-.3 26.5l.1.1m0 0l.1.1m0 0l.1.1m0 0v.2m0-7.7v.2m0 0l-.1.2m0 0h-.1m0 0h-.1m-1.4 0v-1.3m0 0v-1.3m0 0v-1.1m0 0v-1.1m0 0v-1m0 0v-.9m0 0v-.8m0 0v-.7m0 0v-.6m0 0v-.6m0 0v-.4m0 0v-.3m0 0v-.2m0 0v-.2m0 10.5h-.2m0 0l-.2.2m0 0l-.2.1m0 0l-.2.2m0 0v.3m.8 6.9v-.1m0 0v-.2m0 0l-.1-.1m0 0l-.1-.1m0 0l-.3-.1m0 0l-.3-.2m.8 1.9v-.2m0 0v-.3m0 0v-.3m0 0v-.3m0-26.9v-.2m0 0l-.1-.3m0 0l-.2-.2m0 0l-.3-.1m0 0l-.2-.2m0 0l-.3-.1m0 0h-.3m0 0h-.2m1.6 3.8v-.2m0 0v-.4m0 0v-.4m0 0v-.4m0 0v-.4m0 0v-.4m0 0v-.4m-.8 20l.2-.2m0 0l.2-.2m0 0l.2-.2m0 0l.1-.2m.1 6.4v-.1m0 0v-.2m0 0l-.1-.2m0 0l-.1-.2m0 0l-.2-.3m0 0l-.4-.2m.8 1.5v-.3m0 0l-.2.1m0 0l-.3.1m0 0l-.1.1m.6-25.9h-.2m0 0l-.2-.1m0 0h-.2m0 0l-.2-.1m0 0v-.2m.8 28.3h-.2m0 0h-.2m0 0l-.2.3m0 0l-.2.1m0 0v.2m.8-1.7h-.2m0 0l-.2-.1m0 0h-.2m0 0h-.2m0 0v-.1m.8-7.4v-.1m-.8 1v-.3m0 0l.2-.2m0 0l.2-.2m0 0l.2-.1m0 0l.2-.1m0-.1h1.4m-1.4 8.8l1.4-.1m-3-29h3m0 27.1h-2.2m2.2-6.8l-1.4.1m-.8 46.2v-1.7m0 0V187m0 0v-1.5m0 0v-1.6m0 0v-1.5m0 0v-1.5m0 0v-1.4m0 0V178m0 0v-1.3m0 0v-1.3m0 0v-1.3m0 0v-1.2m0 0v-1.1m0 0v-1.1m0 0v-.9m0 0v-.8m0 0v-.9m0 0v-.7m0 0v-.6m0 0v-.6m0 0v-.4m0 0v-.3m0 0v-.3m0 0v-.1m0 0v-.1m-17.8 16.3l-1.3-1.2m-1.1-3v.2m0 0v.2m0 0v.3m0 0v.5m0 0v.5m0 0v.7m0 0v.6m0 0v.8m0 0v.9m0 0v.9m0 0v.9m0 0v1m0 0v1.1m0 0v1.1m0 0v1m0 0v1.2m0 0v1.1m6.6.1v-1.4m0 0v-1.4m0 0V186m0 0v-1.4m0 0v-1.3m0 0V182m0 0v-1.2m0 0v-1.3m0 0v-1.1m0 0v-1.2m0 0v-1m0 0v-1m0 0v-.9m0 0v-.8m0 0v-.8m0 0v-.7m0 0v-.6m0 0v-.5m0 0v-.4m0 0v-.4m0 0v-.2m0 0v-.1m0 0v-.1m9.6-.5v.2m0 0v.3m0 0v.3m0 0v.5m0 0v.5m0 0v.5m0 0v.7m0 0v.8m0 0v.9m0 0v.9m0 0v1.1m0 0v1.1m0 0v1m0 0v1.3m0 0v1.2m0 0v1.3m0 0v1.3m0 0v1.4m0 0v1.4m0 0v1.4m0 0v1.5m0 0v1.4m-10.3-12.3v-.1m58.1-60.4v.2m0 0v.2m0 0v.3m0 0v.5m0 0v.5m0 0v.6m0 0v.8m0 0v.7m0 0v.9m0 0v1m0 0v1m0 0v1.1m0 0v1.1m0 0v1.1m2.8-5.4v.2m0 0v.2m0 0v.4m0 0v.4m0 0v.6m0 0v.6m0 0v.7m0 0v.8m0 0v.8m0 0v1m-6.1-8.3v-.5m0 0l.2-.5m0 0l.2-.3m0 0l.3-.4m0 0l.4-.3m0 0l.4-.1m0 0l.5-.2m0 0h.4m0 0h.4m0 0l.5.3m0 0l.6.3m0 0l.6.4m0 0l.5.5m0 0l.4.7m0 0l.3.6m0 0l.3.7m0 0v.6m0 0l.1.8m-23.9 85.8l.7 1.2m7.8-88.9l.1-.1m-38.9 16.2l.7-.7m47.4-20.3l-.2-.2m-9 1.3l.7-1.3m-4.1 13.6l1.4-2.4m-2.7 20.7l.2-.5m-.2 3.7l2.1-3.7m15.2 63.8v-.1m-18.4-23.2l-.1-.1m-5.4 21h3.4m-43.6-17.7h20.2m50.6 29.5v9.4"/><path d="M364.5 229.5L72.4 229" fill="#fff"/><path class="st7" d="M364.5 229.5l-11.3-.1"/><path d="M347.5 229.4h-5.6" fill="none" stroke="#1d1d1b" stroke-width=".425" stroke-miterlimit="10" stroke-dasharray="2.807,5.6139"/><path d="M339.1 229.4L86.5 229" fill="none" stroke="#1d1d1b" stroke-width=".425" stroke-miterlimit="10" stroke-dasharray="22.4558,5.6139,2.807,5.6139"/><path class="st7" d="M83.7 229H72.4"/><path class="st10" d="M216.5 116.6V40.7m62 138.4V57.2m-14.6 73.1V70.6m-44.4-7.4h56.1m-55.9 14.7h194.4"/><path class="st11" d="M166.2 57.2l113.7 109.3"/><path d="M277.6 167.8l4.9 1.2-1.4-4.8-3.5 3.6z"/><path class="st10" d="M51.2 57.2h115M51.2 77h79.9"/><path class="st11" d="M131.1 77l23.6 21.3"/><path d="M152.4 99.7l5 1.1-1.5-4.8-3.5 3.7z"/><path class="st10" d="M49 136.3h221.3M49 323h221.3"/><path class="st11" d="M56.8 139.6v179.7"/><path d="M54.3 140.3l2.5-4.4 2.6 4.4h-5.1zm0 178.3l2.5 4.4 2.6-4.4h-5.1z"/><path class="st10" d="M27 121.6h221.3M27 336h234.6"/><path class="st11" d="M34.9 125.3v207"/><path d="M32.3 126.1l2.6-4.5 2.5 4.5h-5.1zm0 205.5l2.6 4.4 2.5-4.4h-5.1z"/><path class="st10" d="M314.8 229V40.8m-93.6 5.5h88.3"/><path d="M223.4 43.7v5.1l-6.7-2.6 6.7-2.5zm84.8 5.1v-5.1l6.7 2.5-6.7 2.6zm-36.8 17v-5.2l6.7 2.6-6.7 2.6zm-14.1 14.7v-5.2l6.7 2.6-6.7 2.6zm-33.9-19.9v5.2l-6.7-2.6 6.7-2.6zm0 14.7v5.2l-6.7-2.6 6.7-2.6z"/><text transform="translate(51.196 36.645)" class="st12 st13">Filter holder</text><text transform="translate(51.196 49.745)" class="st12" font-size="10.899">(color cameras only)</text><text transform="translate(51.196 72.882)" class="st12 st13">CS-mount lens</text><text transform="rotate(-90 153.559 126.568)" class="st12 st13">CS-mount thread</text><text transform="rotate(-90 162.267 110.886)" class="st12" font-size="14.531">max. Ø</text><text transform="rotate(-90 137.817 86.436)" class="st12 st13">21.85</text><text transform="translate(344.922 74.974)" class="st12 st13">Thread: 5.6</text><text transform="translate(379.507 338.965)" class="st12 st16">Not to scale</text><text transform="translate(379.507 352.165)" class="st12 st16">Dimensions in mm</text><text transform="translate(254.056 23.325)" class="st12 st17">10</text><text transform="translate(269.056 23.325)" class="st12 st18">(daA1600-60lm/um)</text><text transform="translate(254.056 39.325)" class="st12 st17">11</text><text transform="translate(269.056 39.325)" class="st12 st18">(other mono cameras)</text><text transform="translate(241.397 59.546)" class="st12 st17">7</text><text transform="translate(248.897 59.546)" class="st12 st18">(color cameras only)</text><text transform="translate(379.507 306.668)" class="st12 st16">Parts on board are</text><text transform="translate(379.507 319.868)" class="st12 st16">symbolic only</text></svg>