<svg version="1.0" xmlns="http://www.w3.org/2000/svg" viewBox="0 0 550 140"><g stroke="#1D1D1B" stroke-miterlimit="10"><path fill="#BDE4F7" d="M4.5 23.8h474.7v34.8H4.5z"/><path fill="none" d="M4.5 23.8h474.7v104.3H4.5zm0 34.7h474.7M4.5 93.3h474.7M61.9 23.8v104.3M96.7 23.8v104.3m34.7-104.3v104.3m34.8-104.3v104.3M201 23.8v104.3m34.8-104.3v104.3m34.8-104.3v104.3m34.7-104.3v104.3m34.8-104.3v104.3m34.8-104.3v104.3m34.8-104.3v104.3m34.8-104.3v104.3"/></g><text transform="translate(65.377 44.45)" font-family="Helvetica,Arial,sans-serif" font-size="11">Bit 11</text><text transform="translate(99.823 44.45)" font-family="Helvetica,Arial,sans-serif" font-size="11">Bit 10</text><text transform="translate(138.462 44.45)" font-family="Helvetica,Arial,sans-serif" font-size="11">Bit 9</text><text transform="translate(173.219 44.45)" font-family="Helvetica,Arial,sans-serif" font-size="11">Bit 8</text><text transform="translate(206.975 44.45)" font-family="Helvetica,Arial,sans-serif" font-size="11">Bit 7</text><text transform="translate(242.06 44.45)" font-family="Helvetica,Arial,sans-serif" font-size="11">Bit 6</text><text transform="translate(276.802 44.45)" font-family="Helvetica,Arial,sans-serif" font-size="11">Bit 5</text><text transform="translate(311.652 44.45)" font-family="Helvetica,Arial,sans-serif" font-size="11">Bit 4</text><text transform="translate(346.898 44.45)" font-family="Helvetica,Arial,sans-serif" font-size="11">Bit 3</text><text transform="translate(381.154 44.45)" font-family="Helvetica,Arial,sans-serif" font-size="11">Bit 2</text><text transform="translate(416.121 44.45)" font-family="Helvetica,Arial,sans-serif" font-size="11">Bit 1</text><text transform="translate(450.878 44.45)" font-family="Helvetica,Arial,sans-serif" font-size="11">Bit 0</text><text transform="translate(17.83 78.922)" font-family="Helvetica,Arial,sans-serif" font-size="11">Binary</text><text transform="translate(14.153 114.314)" font-family="Helvetica,Arial,sans-serif" font-size="11">Decimal</text><text transform="translate(74.523 81.22)" font-family="Helvetica,Arial,sans-serif" font-weight="bold" font-size="14">1</text><text transform="translate(109.288 81.22)" font-family="Helvetica,Arial,sans-serif" font-weight="bold" font-size="14">0</text><text transform="translate(144.053 81.22)" font-family="Helvetica,Arial,sans-serif" font-weight="bold" font-size="14">1</text><text transform="translate(178.818 81.22)" font-family="Helvetica,Arial,sans-serif" font-weight="bold" font-size="14">1</text><text transform="translate(213.583 81.22)" font-family="Helvetica,Arial,sans-serif" font-weight="bold" font-size="14">0</text><text transform="translate(248.347 81.22)" font-family="Helvetica,Arial,sans-serif" font-weight="bold" font-size="14">0</text><text transform="translate(283.112 81.22)" font-family="Helvetica,Arial,sans-serif" font-weight="bold" font-size="14">0</text><text transform="translate(317.877 81.22)" font-family="Helvetica,Arial,sans-serif" font-weight="bold" font-size="14">1</text><text transform="translate(352.642 81.22)" font-family="Helvetica,Arial,sans-serif" font-weight="bold" font-size="14">0</text><text transform="translate(387.406 81.22)" font-family="Helvetica,Arial,sans-serif" font-weight="bold" font-size="14">1</text><text transform="translate(422.172 81.22)" font-family="Helvetica,Arial,sans-serif" font-weight="bold" font-size="14">1</text><text transform="translate(456.937 81.22)" font-family="Helvetica,Arial,sans-serif" font-weight="bold" font-size="14">1</text><text transform="translate(64.041 115.314)" fill="#1A171B" font-family="Helvetica,Arial,sans-serif" font-size="13.8">2048</text><text transform="translate(109.374 115.314)" font-family="Helvetica,Arial,sans-serif" font-size="14">0</text><text transform="translate(136.277 115.314)" font-family="Helvetica,Arial,sans-serif" font-size="14">512</text><text transform="translate(171.042 115.314)" font-family="Helvetica,Arial,sans-serif" font-size="14">256</text><text transform="translate(213.668 115.314)" font-family="Helvetica,Arial,sans-serif" font-size="14">0</text><text transform="translate(248.433 115.314)" font-family="Helvetica,Arial,sans-serif" font-size="14">0</text><text transform="translate(283.197 115.314)" font-family="Helvetica,Arial,sans-serif" font-size="14">0</text><text transform="translate(314.032 115.314)" font-family="Helvetica,Arial,sans-serif" font-size="14">16</text><text transform="translate(352.727 115.314)" font-family="Helvetica,Arial,sans-serif" font-size="14">0</text><text transform="translate(387.492 115.314)" font-family="Helvetica,Arial,sans-serif" font-size="14">4</text><text transform="translate(422.257 115.314)" font-family="Helvetica,Arial,sans-serif" font-size="14">2</text><text transform="translate(457.022 115.314)" font-family="Helvetica,Arial,sans-serif" font-size="14">1</text><text transform="translate(67.47 16.274)" font-family="Helvetica,Arial,sans-serif" font-weight="bold" font-size="11">MSB</text><text transform="translate(451.924 16.274)" font-family="Helvetica,Arial,sans-serif" font-weight="bold" font-size="11">LSB</text><text transform="translate(484.778 109.175)"><tspan x="0" y="0" font-family="Helvetica,Arial,sans-serif" font-size="11">Original pixel </tspan><tspan x="0" y="13.2" font-family="Helvetica,Arial,sans-serif" font-size="11">value: </tspan><tspan x="31.3" y="13.2" font-family="Helvetica,Arial,sans-serif" font-weight="bold" font-size="11">2839</tspan></text></svg>