<svg version="1.0" xmlns="http://www.w3.org/2000/svg" viewBox="0 0 310 190"><path fill="#0090D4" stroke="#000" stroke-width="1.199" stroke-miterlimit="3.864" d="M6.9 8.5h138v66H6.9v-66zm158.9 0h138v66h-138v-66z"/><path fill="#E4E4E4" stroke="#000" stroke-miterlimit="3.864" d="M177.8 45.8h114v28.4h-114V45.8z"/><path fill="#BDE4F7" stroke="#000" stroke-width="1.199" stroke-miterlimit="3.864" d="M177.8 164.5v-42h30v42h-30zm6 0h18v12h-18v-12zm36 0v-42h30v42h-30zm6 0h18v12h-18v-12zm36 0v-42h30v42h-30zm6 0h18v12h-18v-12z"/><path clip-rule="evenodd" fill="none" stroke="#000" stroke-width="2" stroke-miterlimit="3.864" d="M192.8 74.6v48m84.1-48.1v48m-42.4-48v48"/><text transform="translate(184.45 63.833)" font-family="Helvetica,Arial,sans-serif" font-size="10">Multiport GigE adapter</text><path fill="#E4E4E4" stroke="#000" stroke-miterlimit="3.864" d="M18.9 45.8h30v28.4h-30V45.8zm42 0h30v28.4h-30V45.8zm42 0h30v28.4h-30V45.8z"/><path fill="#BDE4F7" stroke="#000" stroke-width="1.199" stroke-miterlimit="3.864" d="M18.9 164.5v-42h30v42h-30zm6 0h18v12h-18v-12zm36 0v-42h30v42h-30zm6 0h18v12h-18v-12zm36 0v-42h30v42h-30zm6 0h18v12h-18v-12z"/><path clip-rule="evenodd" fill="none" stroke="#000" stroke-width="2" stroke-miterlimit="3.864" d="M34 74.6v48m84-48.1v48m-42.3-48v48"/><text transform="translate(170.25 23.5)" fill="#F5F5F5" font-family="Helvetica,Arial,sans-serif" font-size="12">Computer</text><text transform="translate(11.45 23.5)" fill="#F5F5F5" font-family="Helvetica,Arial,sans-serif" font-size="12">Computer</text><text transform="translate(25.537 58.433)"><tspan x="0" y="0" font-family="Helvetica,Arial,sans-serif" font-size="8">GigE</tspan><tspan x="-5.4" y="9.6" font-family="Helvetica,Arial,sans-serif" font-size="8">adapter</tspan></text><text transform="translate(67.337 58.433)"><tspan x="0" y="0" font-family="Helvetica,Arial,sans-serif" font-size="8">GigE</tspan><tspan x="-5.4" y="9.6" font-family="Helvetica,Arial,sans-serif" font-size="8">adapter</tspan></text><text transform="translate(109.537 58.433)"><tspan x="0" y="0" font-family="Helvetica,Arial,sans-serif" font-size="8">GigE</tspan><tspan x="-5.4" y="9.6" font-family="Helvetica,Arial,sans-serif" font-size="8">adapter</tspan></text><text transform="translate(184.537 141.766)"><tspan x="0" y="0" font-family="Helvetica,Arial,sans-serif" font-size="8">GigE</tspan><tspan x="-5.2" y="9.6" font-family="Helvetica,Arial,sans-serif" font-size="8">camera</tspan></text><text transform="translate(226.337 141.766)"><tspan x="0" y="0" font-family="Helvetica,Arial,sans-serif" font-size="8">GigE</tspan><tspan x="-5.2" y="9.6" font-family="Helvetica,Arial,sans-serif" font-size="8">camera</tspan></text><text transform="translate(268.537 141.766)"><tspan x="0" y="0" font-family="Helvetica,Arial,sans-serif" font-size="8">GigE</tspan><tspan x="-5.2" y="9.6" font-family="Helvetica,Arial,sans-serif" font-size="8">camera</tspan></text><text transform="translate(25.537 141.766)"><tspan x="0" y="0" font-family="Helvetica,Arial,sans-serif" font-size="8">GigE</tspan><tspan x="-5.2" y="9.6" font-family="Helvetica,Arial,sans-serif" font-size="8">camera</tspan></text><text transform="translate(67.337 141.766)"><tspan x="0" y="0" font-family="Helvetica,Arial,sans-serif" font-size="8">GigE</tspan><tspan x="-5.2" y="9.6" font-family="Helvetica,Arial,sans-serif" font-size="8">camera</tspan></text><text transform="translate(109.537 141.766)"><tspan x="0" y="0" font-family="Helvetica,Arial,sans-serif" font-size="8">GigE</tspan><tspan x="-5.2" y="9.6" font-family="Helvetica,Arial,sans-serif" font-size="8">camera</tspan></text></svg>