<svg version="1.1" id="Ebene_1" xmlns="http://www.w3.org/2000/svg" x="0" y="0" viewBox="0 0 256.9 322.3" xml:space="preserve"><style>.st0{fill:none;stroke:#000;stroke-width:.2835;stroke-linecap:round;stroke-linejoin:round;stroke-miterlimit:10}.st1{fill:#f5f5f5}.st3{fill:none;stroke:#000;stroke-width:.2835;stroke-miterlimit:10}.st7{fill-rule:evenodd;clip-rule:evenodd}.st8,.st9{fill:none;stroke:#000;stroke-miterlimit:3.8637}.st8{fill-rule:evenodd;clip-rule:evenodd;stroke-width:.2268}.st9{stroke-width:.2835}.st10{font-family:Helvetica,Arial,sans-serif}.st11{font-size:11px}</style><circle class="st0" cx="143.5" cy="103.4" r="5.8"/><circle class="st0" cx="143.5" cy="103.4" r="4.2"/><circle class="st0" cx="143.5" cy="236.5" r="5.8"/><circle class="st0" cx="143.5" cy="236.5" r="4.2"/><path class="st0" d="M184 70.5v198.6m1.5-198.6v198.6m-4.6.6V70m50.2 181.6h-38v18.1m38-14.6v-26.5M193.1 70v18.2h38.2"/><path class="st0" d="M193.1 71.4h7.9c.5 0 .9.4.9.9v12.9c0 .5-.4.9-.9.9h-7.9m0 167.5h7.9c.5 0 .9.4.9.9v13c0 .5-.4.9-.9.9h-7.9"/><path class="st1" d="M143.2 221h-12.7v4.7h-21.8v10.7H52.2V103.2h56.5v10.7h21.8v5.1h13.3l4.1 8.5v84.4z"/><path d="M147.9 127.5v84.4m-4.7 9.1h-12.7v4.7h-21.8v10.7H52.2V103.2h56.5v10.7h21.8v5.1h13.3" fill="none" stroke="#000" stroke-width=".567" stroke-miterlimit="3.864"/><path class="st3" d="M135.5 232.1h-1.3v.4h-5.9l-.8.8v5.4l-3.4 1.8h-11.8l-.8.8v2.1"/><path class="st0" d="M136.8 107.6h-2.6v-.4h-5.9l-.8-.8v-7.2h-15.2l-.8-.8V84.7"/><path class="st1" d="M152.2 196.5H151v-.5h-1.8v-10h1.8v5.3h1.6zm.6-47.9H151v5.1h-1.8v-9.9h1.8v-.5h1.8zm-.7 7.4h.7v27.8h-.7z"/><path class="st0" d="M118 99.2l-6.5-6.6m20.6 14.6l-4.6-4.5m-3.5-3.5l-12.5-12.5m4.6 156.1l-2.3-2.3m18.2-5.2l-2.9-2.9m-8.2 9.2l-1.3-1.2m29.6-53.5l.5-.9m-.5 3.5l1.8-3.2m-1.8 5.7l1.8-3.2m-1.8 5.8l1.9-3.3m-1.3 4.7l2.8-4.7m-1.6 5.1l1.5-2.5m-3.3-47.6l1.4-2.5m-1.4 5l3.2-5.5m-3.2 8.1l3.6-6.3m-3.5 8.6l1.7-3m1.3-2.1l.5-1m-2 6.1l.2-.5m1.1 5.8l.7-1.3m-.7 6.4l.7-1.3m-.7 6.4l.7-1.3m-.7 6.3l.7-1.2m-.7 6.3l.7-1.3m-.3 5.8l.3-.7m-20.5 41.5V110.4m16.9 75.6v-32.3m1.8 0V186m-1.8-12.4h1.8m-1.8-5.6h1.8m-1.8-3.4h1.8m-1.8-5.9h1.8m-1.8-3.7h1.8m1.2 41.5H151v-.5h-1.8v-10h1.8v5.3h1.6zm.6-47.9H151v5.1h-1.8v-9.9h1.8v-.5h1.8zm-.7 7.4h.7v27.8h-.7zm-2.9 28.8h1.8"/><path class="st0" d="M111.5 101.2V64.3l.8-1h67.8l.8.7v6h2.6l.5.5h1.5l.6-.5h44.3l.9.9v157.7h4.8l.6.4v25.6l-.6.5h-4.8v13.8l-.9.8h-44.3l-.6-.6H184l-.5.6h-2.6v5.9l-.8 1h-67.8l-.8-1v-37 2.8m.8-140.1v-2.1m0 141.3v-1.9m22.2-68.7h-4m-1.1 0h-.1"/><path d="M127 101.6l.5.6v5h4.3l.6.5v1.5l-2.8 4.7-2.4 1.4h-17.3l-1.1-1v-12.6l.6-.5h10.1v.4h7.5m-7.5 136.5v.4h-10.1l-.6-.6v-12.4l1.1-1.1h17.3l2.4 1.3 2.8 4.8v1.4l-.6.6h-4.3v5.1l-.5.5h-7.5" fill="#f5f5f5" stroke-linecap="round" stroke-linejoin="round" stroke-width=".283" stroke-miterlimit="10" stroke="#000"/><path class="st0" d="M123.5 115.3l8.2-8.1m-14.2 8.1l10-9.9m-15.9 9.9l13.7-13.7m-16.5 10.5l10.7-10.7m-10.7 4.7l4.9-4.9m12.7 136.9l1.1-1.1m-7 1.1l10.2-10.3m-16.6 10.7l13.8-13.8m-19.1 13.1l13.4-13.4m-13.4 7.4l7.5-7.4m-7.5 1.3l1.5-1.3m22.1 6.1V109.2m-5.2 115.2V115.3m-17.3 109.1V115.3m-1.1 110.2V114.3m20-.5h-20m20 0v112m-20 0h20M111.6 85.9c7.2 3 16.8 10.3 25.3 21.7s15.9 28.7 16 35.6-.2 45.9-.6 53.2c-.3 7.3-7.2 25.7-17.5 36.4s-23.3 10.5-23.3 10.5"/><path class="st3" d="M48.2 169.9h3.6"/><path fill="none" stroke="#000" stroke-width=".283" stroke-miterlimit="10" stroke-dasharray=".579,2.895" d="M54.7 169.9h2"/><path fill="none" stroke="#000" stroke-width=".283" stroke-miterlimit="10" stroke-dasharray="7.2375,2.895,.579,2.895" d="M58.1 169.9h175.5"/><path class="st3" d="M235 169.9h3.6"/><path class="st7" d="M142.6 151.2l-2.2 3.1 8.4 3.7z"/><path class="st8" d="M141.5 152.7l-28.6-21.2H66"/><path class="st7" d="M27.7 122.9h3.9l-1.9-9zm3.9 93.9h-3.9l2 9z"/><path class="st8" d="M29.7 122.9v93.9"/><path class="st9" d="M108.8 114H27.2m81.6 111.7H27.2"/><path class="st7" d="M105.1 244.6l-2.6-3.7 10-4.5z"/><path class="st8" d="M103.9 242.6l-22 16.2H9"/><path class="st7" d="M140.1 18.4v3.8l9-1.9zm-22.5 3.8v-3.8l-9.1 1.9z"/><path class="st9" d="M108.5 102.6V17.7m40.7 126.6V17.7"/><path class="st3" d="M109 20.3h143"/><path class="st7" d="M99.4 41.3v3.9l9-1.9zm41.4 3.9v-3.9l-9 2z"/><path class="st9" d="M131.9 107.2V40.7"/><path class="st3" d="M16.7 43.3H146"/><text transform="translate(64.886 127.387)"><tspan x="0" y="0" class="st10 st11">Sensor </tspan><tspan x="0" y="13.2" class="st10 st11">glass</tspan></text><text transform="rotate(-90 124.21 101.7)" class="st10 st11">M42 lens mount thread</text><text transform="translate(154.506 300.354)"><tspan x="0" y="0" class="st10 st11">Not to scale</tspan><tspan x="0" y="13.2" class="st10 st11">Dimensions in mm</tspan></text><text transform="translate(8.144 252.209)" class="st10 st11">M42 lens mount</text><text transform="translate(157.412 15.243)" class="st10 st11">Max. lens intrusion</text><text transform="translate(16.113 38.486)"><tspan x="0" y="0" class="st10 st11">Lens mount </tspan><tspan x="0" y="16" class="st10 st11">thread length</tspan></text></svg>