<svg version="1.0" xmlns="http://www.w3.org/2000/svg" viewBox="0 0 520 308.7"><g clip-rule="evenodd" fill="none" stroke="#000" stroke-miterlimit="3.864"><path stroke-width=".227" d="M98.8 12.5v249.2"/><path stroke-width=".866" d="M62.4 13.6H507v247.2H62.4z"/><path stroke-width=".227" d="M135.8 12.2v249.2m37.5-248.9v249.3m36.3-248.9v249.2m37.6-249.6v249.3m36.9-248.2v249.2m37.3-249.9v249.2m37.3-249v249.2m36.9-249.6v249.2m37.2-249.8v249.2m36.6-247.9v249.2M60.3 39.8l445.6.4M60.2 67.4l445.5.3M61.5 95.4l445.6.3M62.2 122.2l445.6.4M60.2 150.4l445.5.4M61.5 177.3l445.6.3M60.9 206.1l445.5.4M63 233l445.5.3"/></g><path clip-rule="evenodd" fill="none" stroke="#000" stroke-width=".95" stroke-miterlimit="3.864" d="M63 110.9l6.4-5.1 4.3-5.4 3.7-6.6 7.7-7.4 7.4 3 14.4-4.7 7-6.4 8.7-.6 21.1 10.7 6-7.7 7.4-2.4 15.7 5.7 7.1 2.7 7.3-2 15.4 6 7.4-6.3 7.4 3.7 6.7-8.1 7-1.7 15.8 8.8 7.3 10.3 8.1-3 7-13.4 22.8 3.4 8.7 8 6 11.7 14.4-11.4 14.7 12.1 7.4-1.3 8.1 4 6.3 9.4 7 12 8.8 8.4 7.3-.7 8.1 4.4 6.3 9.4 6.7 5 15.4-1.7 8.4 7.7 13.1 19.4 15 16.4 9.4 6.1 20.4 20.4 22.8 12.7"/><text transform="translate(224.729 300.666)" font-family="Helvetica,Arial,sans-serif" font-size="12">Wavelength (nm)</text><text transform="rotate(-90 116.735 92.648)" fill="#131718" font-family="Helvetica,Arial,sans-serif" font-size="12">Quantum Efficiency (%)</text><text transform="translate(49.686 260.566)" font-family="Helvetica,Arial,sans-serif" font-size="8">0</text><text transform="translate(45.231 234.9)" font-family="Helvetica,Arial,sans-serif" font-size="8">10</text><text transform="translate(45.231 207.4)" font-family="Helvetica,Arial,sans-serif" font-size="8">20</text><text transform="translate(45.231 180.4)" font-family="Helvetica,Arial,sans-serif" font-size="8">30</text><text transform="translate(45.231 152.4)" font-family="Helvetica,Arial,sans-serif" font-size="8">40</text><text transform="translate(45.231 124.9)" font-family="Helvetica,Arial,sans-serif" font-size="8">50</text><text transform="translate(45.231 97.9)" font-family="Helvetica,Arial,sans-serif" font-size="8">60</text><text transform="translate(45.231 69.9)" font-family="Helvetica,Arial,sans-serif" font-size="8">70</text><text transform="translate(45.231 41.65)" font-family="Helvetica,Arial,sans-serif" font-size="8">80</text><text transform="translate(45.231 18.085)" font-family="Helvetica,Arial,sans-serif" font-size="8">90</text><text transform="translate(55.116 275.65)" font-family="Helvetica,Arial,sans-serif" font-size="8">400</text><text transform="translate(130.218 275.65)" font-family="Helvetica,Arial,sans-serif" font-size="8">500</text><text transform="translate(205.718 275.65)" font-family="Helvetica,Arial,sans-serif" font-size="8">600</text><text transform="translate(277.72 275.65)" font-family="Helvetica,Arial,sans-serif" font-size="8">700</text><text transform="translate(348.72 275.65)" font-family="Helvetica,Arial,sans-serif" font-size="8">800</text><text transform="translate(424.72 275.65)" font-family="Helvetica,Arial,sans-serif" font-size="8">900</text><text transform="translate(493.72 275.65)" font-family="Helvetica,Arial,sans-serif" font-size="8">1000</text><text transform="translate(90.218 275.65)" font-family="Helvetica,Arial,sans-serif" font-size="8">450</text><text transform="translate(166.718 275.65)" font-family="Helvetica,Arial,sans-serif" font-size="8">550</text><text transform="translate(241.218 275.65)" font-family="Helvetica,Arial,sans-serif" font-size="8">650</text><text transform="translate(314.22 275.65)" font-family="Helvetica,Arial,sans-serif" font-size="8">750</text><text transform="translate(387.22 275.65)" font-family="Helvetica,Arial,sans-serif" font-size="8">850</text><text transform="translate(462.72 275.65)" font-family="Helvetica,Arial,sans-serif" font-size="8">950</text></svg>