<svg version="1.0" xmlns="http://www.w3.org/2000/svg" viewBox="0 0 520 366.5"><path fill="none" stroke="#000" stroke-width=".893" stroke-miterlimit="3.864" d="M54.7 41.5h452.6v278.7H54.7V41.5z"/><path clip-rule="evenodd" fill="none" stroke="#000" stroke-width=".303" stroke-miterlimit="3.864" d="M119.2 41.7v278.8m64.7-279.1v279.1m64.2-278.8v278.8m65.4-279.1v279.1m64.8-278.9v278.9m64.6-278.6v278.6m64.3-278.9v278.9"/><path clip-rule="evenodd" fill="none" stroke="#000" stroke-width=".276" stroke-miterlimit="3.864" d="M55 121.9h452.2M54.8 161h452.5M54.7 200.6h452.6M54.8 240h452.5M54.8 280.6H505M55 41.5h452.2M55 81.2h452.2"/><g clip-rule="evenodd"><path fill-rule="evenodd" fill="#131718" d="M353.1 84.1h118.1v79.3H353.1z"/><path fill="none" stroke="#131718" stroke-width="1.117" stroke-miterlimit="3.864" d="M353.1 84.1h118.1v79.3H353.1z"/></g><g clip-rule="evenodd"><path fill-rule="evenodd" fill="#FFF" d="M349.5 80.3h118.1v79.3H349.5z"/><path fill="none" stroke="#131718" stroke-width="1.117" stroke-miterlimit="3.864" d="M349.5 80.3h118.1v79.3H349.5z"/></g><path clip-rule="evenodd" fill="none" stroke="#2356A7" stroke-miterlimit="3.864" stroke-dasharray="12,2,2,2" d="M360.2 97.2h42.6"/><path clip-rule="evenodd" fill="none" stroke="#64BC46" stroke-miterlimit="3.864" stroke-dasharray="2,2" d="M360.2 122.3h42.6"/><path clip-rule="evenodd" fill="none" stroke="#EE342E" stroke-miterlimit="3.864" stroke-dasharray="72" d="M360.2 147.6h42.6"/><g clip-rule="evenodd" fill="none" stroke-miterlimit="3.864"><path stroke="#2950A3" stroke-dasharray="12,2,2,2" d="M56.4 212l3.8-15.3 2-11.4 5.9-9.9 3.2-6.9 4.4-7.3 2.7-5.5 7.6-12.9 2.3-2.6 4.5 1.2 3.3 2 2.5 1.4 3.2 1.2 4.7 8.3 2.7 7.1 2.6 7.1 2.2 7.7 3.5 10.5 3 9.4 2.5 10.3 3.6 17.4 3.8 17.6 3.5 17.8 6.2 17.9 8.1 9.9 6.9 9.9 5.4 5.7 5.1 2.8 7.7.4 5.7.8 5.2 2.9 5.1.6 7.6.8 8.2.6 6.5-3.2 5.7-2.7 5.7-1.6 4.8-2 1.9-1 4.1-.4 9 .2 6.8-3.5 5.7-1 7.6 2.2 5.5 2.9 7.3-1.5 5.9-2.4 4.9-1 5.2-.8 2.7.2 6-5.5 2.7-5.4 10.9-36.7 6-12.4 4.9 9.8 1.9 4.6 2.4.8 4.1-1 4.1-1.4 2.7-1 4.8 1.2 3.3 2.4 4.7 3.5 3.5 3.2 5.6 2.7 4.9 2.8 11.7 2.8 7.1 6.3 6.3 7.7 4.8 3.2 6.5 5.1 5.4 3.9 8.8 5.8 4.9 1.2 6 2.7 6.5 3.8 11.4 5.7 4.8 1.8 2.7-.6 7.6 1.6 12.5 3.1 9.3.6 6.8 1.4 11.7.2 5.5 1"/><path stroke="#F04A3A" d="M56.2 288.5l19 22.5 7.6 3.3 8 .8 9.8 1.2 7-2.5 6.9-.4h6.7l5.4-1.2 2.8-2.9 2.9-2.8 7.9-1.6 7.3 1.6 4.1 1.6 6.1-.8 5.3-4.9 3.5-2.9 7.9-82.9 4.5-54.8 2.5-4.5 3.5-4 6.3-5.4 13.7 20.5 5.7-9.8 6.6 2.4 6.4 10.2 6.3 4.5 6.7 9 5.7 13.1.9 3.3 6.4-4.1 6-8.2 6.3 2.9 6.4 9 1.6 2 4.4-.8 4.1-2.1 3.2-4 2.2 1.6 4.8 5.3 6.9 11 6.7 4.9 12.7 1.7 5.7 11.4 7.3 6.6 8.8-.9 7.3 2.1 5.1 5.3 4.3 4.7 4.9 6.3 4 3.7 4.1 2.9 13 2.8 2.7 2.7 7.7 8.1 7.8 6.6 3.5 3.9 7.3 5.1 7.6 4.5 5.2 1.6 9.7 4.5 9.3 4.1 4.5 2.4 14.7 4.9 11.1 2.3 10.5 2 11 1.7h8.8l7.6.6"/><path stroke="#55B956" stroke-width="1.09" stroke-dasharray="2,2" d="M56.6 302.5l3.8-.3 6.1-2.1 9.2.4 5.7-3.1 6.6-9.9 5.4-1.6 3.2-3.6 4.1-7.9 19.7-86.7 7-24.6 5.7-19.8 7.9-2.4 5.4-3.1 8.3 15.8 4.8 8.7 14.6 47.9 7.3 31.3 4.1 20.6 4.1 13.1 5.4 12.3 6 6.3 5.7 2.4 17.8-.4 31.4-30.9 11.2 4 2.5 1.9 7.6-6.7 5.1-9.1 6-3.6 6 2 6.7 1.2 13.3-13.1 12.7 7.9 13.7-4.3 5.1 2.4 10.8 9.5 9.5 7.9 13.6 3.2 4.8 3.1 8.2 8.3 13.4 11.5 11.4 6.8 6.3 1.2 11.2 5.5 15.5 6.3 19.1 5.2 15.2 2 8.9 1.1 14.3.8"/></g><text transform="translate(224.73 359.308)" font-family="Helvetica,Arial,sans-serif" font-size="12">Wavelength (nm)</text><path fill="none" d="M46.2 327h17.6v10.1H46.2z"/><text transform="translate(46.208 336.52)" font-family="Helvetica,Arial,sans-serif" font-size="8.966">400</text><path fill="none" d="M114.7 327h17.6v10.1h-17.6z"/><text transform="translate(114.704 336.52)" font-family="Helvetica,Arial,sans-serif" font-size="8.966">500</text><path fill="none" d="M174.8 327h17.6v10.1h-17.6z"/><text transform="translate(174.834 336.52)" font-family="Helvetica,Arial,sans-serif" font-size="8.966">600</text><path fill="none" d="M242.4 327H260v10.1h-17.6z"/><text transform="translate(242.375 336.52)" font-family="Helvetica,Arial,sans-serif" font-size="8.966">700</text><path fill="none" d="M307.8 327h17.6v10.1h-17.6z"/><text transform="translate(307.777 336.52)" font-family="Helvetica,Arial,sans-serif" font-size="8.966">800</text><path fill="none" d="M370.9 327h17.6v10.1h-17.6z"/><text transform="translate(370.907 336.52)" font-family="Helvetica,Arial,sans-serif" font-size="8.966">900</text><path fill="none" d="M435.7 327h17.6v10.1h-17.6z"/><text transform="translate(435.72 336.52)" font-family="Helvetica,Arial,sans-serif" font-size="8.966">100</text><path fill="none" d="M492 327h23.5v10.1H492z"/><text transform="translate(492.037 336.52)" font-family="Helvetica,Arial,sans-serif" font-size="8.966">1100</text><path fill="none" d="M481.1 327H504v10.1h-22.9zM43.3 312.9h5.9V323h-5.9z"/><text transform="translate(43.269 322.324)" font-family="Helvetica,Arial,sans-serif" font-size="8.966">0</text><path fill="none" d="M37.4 274h11.7v10.1H37.4z"/><text transform="translate(37.406 283.478)" font-family="Helvetica,Arial,sans-serif" font-size="8.966">10</text><path fill="none" d="M37.4 233.8h11.7v10.1H37.4z"/><text transform="translate(37.406 243.315)" font-family="Helvetica,Arial,sans-serif" font-size="8.966">20</text><path fill="none" d="M37.4 195.3h11.7v10.1H37.4z"/><text transform="translate(37.406 204.74)" font-family="Helvetica,Arial,sans-serif" font-size="8.966">30</text><path fill="none" d="M37.4 156h11.7v10.1H37.4z"/><text transform="translate(37.406 165.501)" font-family="Helvetica,Arial,sans-serif" font-size="8.966">40</text><path fill="none" d="M37.4 115.4h11.7v10.1H37.4z"/><text transform="translate(37.406 124.899)" font-family="Helvetica,Arial,sans-serif" font-size="8.966">50</text><path fill="none" d="M37.4 74.9h11.7V85H37.4z"/><text transform="translate(37.406 84.344)" font-family="Helvetica,Arial,sans-serif" font-size="8.966">60</text><path fill="none" d="M37.4 35.5h11.7v10.1H37.4z"/><text transform="translate(37.406 45.011)" font-family="Helvetica,Arial,sans-serif" font-size="8.966">70</text><text transform="rotate(-90 129.236 111.147)" fill="#131718" font-family="Helvetica,Arial,sans-serif" font-size="12">Quantum Efficiency (%)</text><text transform="translate(421.697 100.492)" fill="#131718" font-family="Helvetica,Arial,sans-serif" font-size="12">Blue</text><text transform="translate(421.697 125.789)" fill="#131718" font-family="Helvetica,Arial,sans-serif" font-size="12">Green</text><text transform="translate(421.697 152.54)" fill="#131718" font-family="Helvetica,Arial,sans-serif" font-size="12">Red</text></svg>