<svg version="1.0" xmlns="http://www.w3.org/2000/svg" viewBox="0 0 520 417.2"><path clip-rule="evenodd" fill="none" stroke="#1D1D1B" stroke-miterlimit="3.864" stroke-dasharray="4,4" d="M90.1 332.4h51.8m0-17.2v17.2m5.7-17.2v17.2m-5.7-17.2h5.7m0 17.2h40.2"/><path fill="#80FF80" d="M141.9 338.2h34.5v11.5h-34.5v-11.5z"/><path fill="none" stroke="#80FF80" stroke-miterlimit="3.864" d="M141.9 338.2h34.5v11.5h-34.5v-11.5z"/><path clip-rule="evenodd" fill="none" stroke="#1D1D1B" stroke-miterlimit="3.864" d="M90.1 263.4h40.3m0-17.2v17.2m5.7-17.2v17.2m-5.7-17.2h5.7"/><path clip-rule="evenodd" fill="none" stroke="#C60" stroke-width=".5" stroke-miterlimit="3.864" d="M107.4 240.5l11.5-11.5m-17.3 11.5l11.5-11.5m-11.5 5.7l5.8-5.7m5.7 11.5l11.5-11.5m-5.7 11.5l11.5-11.5m-28.8 5.7l5.8 5.8m-5.8-11.5l11.5 11.5m-5.7-11.5l11.5 11.5m-5.8-11.5l11.5 11.5m-5.7-11.5l11.5 11.5"/><path clip-rule="evenodd" fill="none" stroke="#00F" stroke-width="1.5" stroke-miterlimit="3.864" d="M130.4 303.7l5.7-5.8m-5.7 11.5l11.5-11.5m-5.8 11.5l5.8-5.7"/><path fill="none" stroke="#00F" stroke-miterlimit="3.864" d="M130.4 297.9h11.5v11.5h-11.5v-11.5z"/><path clip-rule="evenodd" fill="none" stroke="#00F" stroke-width="1.5" stroke-miterlimit="3.864" d="M170.6 303.7l5.8-5.8m-5.8 11.5l11.5-11.5m-5.7 11.5l11.4-11.5m-5.7 11.5l5.7-5.7"/><path fill="none" stroke="#00F" stroke-miterlimit="3.864" d="M170.6 297.9h17.2v11.5h-17.2v-11.5z"/><path clip-rule="evenodd" fill="none" stroke="#1D1D1B" stroke-miterlimit="3.864" stroke-dasharray="4,4" d="M187.8 315.2v17.2m5.8-17.2v17.2m-5.8-17.2h5.8m0 17.2h40.2"/><path fill="#80FF80" d="M187.8 338.2h34.5v11.5h-34.5v-11.5z"/><path fill="none" stroke="#80FF80" stroke-miterlimit="3.864" d="M187.8 338.2h34.5v11.5h-34.5v-11.5z"/><path clip-rule="evenodd" fill="none" stroke="#1D1D1B" stroke-miterlimit="3.864" stroke-dasharray="4,4" d="M233.8 315.2v17.2m5.8-17.2v17.2m-5.8-17.2h5.8m0 17.2h86.2"/><path fill="#80FF80" d="M233.8 338.2h34.5v11.5h-34.5v-11.5z"/><path fill="none" stroke="#80FF80" stroke-miterlimit="3.864" d="M233.8 338.2h34.5v11.5h-34.5v-11.5z"/><path clip-rule="evenodd" fill="none" stroke="#1D1D1B" stroke-miterlimit="3.864" stroke-dasharray="4,4" d="M325.8 315.2v17.2m5.7-17.2v17.2m-5.7-17.2h5.7m0 17.2h40.3"/><path fill="#80FF80" d="M325.8 338.2h34.5v11.5h-34.5v-11.5z"/><path fill="none" stroke="#80FF80" stroke-miterlimit="3.864" d="M325.8 338.2h34.5v11.5h-34.5v-11.5z"/><path clip-rule="evenodd" fill="none" stroke="#1D1D1B" stroke-miterlimit="3.864" stroke-dasharray="4,4" d="M371.8 315.2v17.2m5.7-17.2v17.2m-5.7-17.2h5.7m0 17.2h40.3"/><path fill="#80FF80" d="M371.8 338.2h34.5v11.5h-34.5v-11.5z"/><path fill="none" stroke="#80FF80" stroke-miterlimit="3.864" d="M371.8 338.2h34.5v11.5h-34.5v-11.5z"/><path clip-rule="evenodd" fill="none" stroke="#1D1D1B" stroke-miterlimit="3.864" stroke-dasharray="4,4" d="M417.8 315.2v17.2m5.7-17.2v17.2m-5.7-17.2h5.7m0 17.2H504"/><path fill="#80FF80" d="M417.8 338.2h34.4v11.5h-34.4v-11.5z"/><path fill="none" stroke="#80FF80" stroke-miterlimit="3.864" d="M417.8 338.2h34.4v11.5h-34.4v-11.5z"/><path clip-rule="evenodd" fill="none" stroke="#00F" stroke-width="1.5" stroke-miterlimit="3.864" d="M216.6 303.7l5.7-5.8m-5.7 11.5l11.5-11.5m-5.8 11.5l11.5-11.5m-5.7 11.5l5.7-5.7"/><path fill="none" stroke="#00F" stroke-miterlimit="3.864" d="M216.6 297.9h17.2v11.5h-17.2v-11.5z"/><path clip-rule="evenodd" fill="none" stroke="#00F" stroke-width="1.5" stroke-miterlimit="3.864" d="M297.1 303.7l5.7-5.8m5.8 11.5l11.4-11.5m-5.7 11.5l11.5-11.5m-5.8 11.5l5.8-5.7m28.7 0l5.8-5.8m-5.8 11.5l11.5-11.5m-5.7 11.5l11.5-11.5m-5.8 11.5l5.8-5.7"/><path fill="none" stroke="#00F" stroke-miterlimit="3.864" d="M354.5 297.9h17.3v11.5h-17.3v-11.5z"/><path clip-rule="evenodd" fill="none" stroke="#00F" stroke-width="1.5" stroke-miterlimit="3.864" d="M400.5 303.7l5.8-5.8m-5.8 11.5l11.5-11.5m-5.7 11.5l11.5-11.5m-5.8 11.5l5.8-5.7"/><path fill="none" stroke="#00F" stroke-miterlimit="3.864" d="M400.5 297.9h17.3v11.5h-17.3v-11.5z"/><path clip-rule="evenodd" fill="none" stroke="#C60" stroke-width=".5" stroke-miterlimit="3.864" d="M124.6 229l5.8 5.7m-5.8 5.8l5.8-5.8"/><path fill="none" stroke="#C60" stroke-miterlimit="3.864" d="M233.8 228.4h63.3v11.5h-63.3v-11.5z"/><path clip-rule="evenodd" fill="none" stroke="#C60" stroke-width=".5" stroke-miterlimit="3.864" d="M233.8 239.9l11.5-11.5m0 11.5l11.5-11.5m-5.7 11.5l11.5-11.5m-23 11.5l11.5-11.5m-17.3 5.7l5.8-5.7m17.2 11.5l11.5-11.5m-5.7 11.5l11.5-11.5m-40.3 0l11.5 11.5m-11.5-5.8l5.8 5.8m0-11.5l11.5 11.5m-5.8-11.5l11.5 11.5m-5.7-11.5l11.5 11.5m-5.8-11.5l11.5 11.5m-5.7-11.5l11.5 11.5m17.2-11.5l5.8 5.7m-5.8 5.8l5.8-5.8m-23-5.7l11.5 11.5m-17.3-11.5l11.5 11.5m0-11.5l11.5 11.5m-5.7-11.5l11.5 11.5m-28.8 0l11.5-11.5m-5.7 11.5l11.5-11.5m-5.8 11.5l11.5-11.5m-5.7 11.5l11.5-11.5"/><path clip-rule="evenodd" fill="none" stroke="#00F" stroke-width="1.5" stroke-miterlimit="3.864" d="M302.8 309.4l11.5-11.5m-17.2 11.5l11.5-11.5"/><path fill="none" stroke="#00F" stroke-miterlimit="3.864" d="M297.1 297.9h28.7v11.5h-28.7v-11.5z"/><path clip-rule="evenodd" fill="none" stroke="#1D1D1B" stroke-miterlimit="3.864" d="M136.1 263.4h161m0-17.2v17.2m5.7-17.2v17.2m-5.7-17.2h5.7m0 17.2H504"/><path clip-rule="evenodd" fill="none" stroke="#C60" stroke-width=".5" stroke-miterlimit="3.864" d="M417.8 240.5l11.5-11.5m0 11.5l11.5-11.5m-5.8 11.5l11.5-11.5m-23 11.5L435 229m-17.2 5.7l5.7-5.7m17.3 11.5l11.4-11.5m-5.7 11.5L458 229m-40.2 0l11.5 11.5m-11.5-5.8l5.7 5.8m0-11.5l11.5 11.5m-5.7-11.5l11.5 11.5M435 229l11.5 11.5m-5.7-11.5l11.4 11.5m-5.7-11.5l11.5 11.5m11.5-11.5l5.7 5.7m-5.7 5.8l5.7-5.8M458 229l11.5 11.5M452.2 229l11.5 11.5m0-11.5l11.5 11.5m-23 0l11.5-11.5m-5.7 11.5l11.5-11.5m-5.8 11.5l11.5-11.5"/><path clip-rule="evenodd" fill="none" stroke="#C60" stroke-miterlimit="3.864" d="M101.6 229h28.8v11.5h-28.8M475.2 229h-57.4v11.5h57.4"/><g clip-rule="evenodd"><path fill-rule="evenodd" fill="#1D1D1B" d="M491.7 388v-4.6l11.4 4.6-11.4 4.5z"/><path fill="none" stroke="#1D1D1B" stroke-width="2.5" stroke-miterlimit="3.864" d="M90.1 388h402.4"/></g><g clip-rule="evenodd"><path fill-rule="evenodd" fill="#B3B3B3" d="M178.4 365.2h5.2l-5.2 13.2-5.3-13.2z"/><path fill="none" stroke="#B3B3B3" stroke-width="3" stroke-miterlimit="3.864" stroke-dasharray="2,2" d="M178.4 353.6v12.5"/></g><path clip-rule="evenodd" fill="none" stroke="#999" stroke-width="1.8" stroke-miterlimit="3.864" d="M101.5 202.3v158.3m373.6-157.9V361"/><g clip-rule="evenodd"><path fill-rule="evenodd" fill="#B3B3B3" d="M224.5 365.2h5.3l-5.3 13.2-5.2-13.2z"/><path fill="none" stroke="#B3B3B3" stroke-width="3" stroke-miterlimit="3.864" stroke-dasharray="2,2" d="M224.5 353.6v12.5"/></g><g clip-rule="evenodd"><path fill-rule="evenodd" fill="#B3B3B3" d="M270.7 365.2h5.3l-5.3 13.1-5.3-13.1z"/><path fill="none" stroke="#B3B3B3" stroke-width="3" stroke-miterlimit="3.864" stroke-dasharray="2,2" d="M270.7 353.6V366"/></g><g clip-rule="evenodd"><path fill-rule="evenodd" fill="#B3B3B3" d="M362.1 365.1h5.3l-5.3 13.2-5.2-13.2z"/><path fill="none" stroke="#B3B3B3" stroke-width="3" stroke-miterlimit="3.864" stroke-dasharray="2,2" d="M362.1 353.6V366"/></g><g clip-rule="evenodd"><path fill-rule="evenodd" fill="#B3B3B3" d="M408.3 365.2h5.3l-5.3 13.2-5.3-13.2z"/><path fill="none" stroke="#B3B3B3" stroke-width="3" stroke-miterlimit="3.864" stroke-dasharray="2,2" d="M408.3 353.6v12.5"/></g><g clip-rule="evenodd"><path fill-rule="evenodd" fill="#B3B3B3" d="M454.5 365.1h5.3l-5.3 13.2-5.3-13.2z"/><path fill="none" stroke="#B3B3B3" stroke-width="3" stroke-miterlimit="3.864" stroke-dasharray="2,2" d="M454.5 353.6V366"/></g><path clip-rule="evenodd" fill="none" stroke="#000" stroke-miterlimit="10" d="M21.3 19.2h312v132.7h-312z"/><path fill="#80FF80" d="M31.8 102.9h26.4v10.5H31.8v-10.5z"/><path fill="none" stroke="#80FF80" stroke-miterlimit="3.864" d="M31.8 102.9h26.4v10.5H31.8v-10.5z"/><path clip-rule="evenodd" fill="none" stroke="#00F" stroke-width="1.5" stroke-miterlimit="3.864" d="M31.8 89.5l5.3-5.3m5.3 10.6l10.5-10.6m-5.3 10.6l10.6-10.6m-5.3 10.6l5.3-5.3"/><path fill="none" stroke="#C60" stroke-miterlimit="3.864" d="M31.8 65.9h26.4v10.6H31.8V65.9z"/><path clip-rule="evenodd" fill="none" stroke="#C60" stroke-width=".5" stroke-miterlimit="3.864" d="M31.8 76.5l10.6-10.6m0 10.6l10.5-10.6m-5.3 10.6l10.6-10.6M37.1 76.5l10.5-10.6m-15.8 5.3l5.3-5.3m-5.3 0l10.6 10.6m-10.6-5.3l5.3 5.3m0-10.6l10.5 10.6m-5.2-10.6l10.5 10.6m-5.3-10.6l10.6 10.6m-5.3-10.6l5.3 5.3m-5.3 5.3l5.3-5.3"/><path clip-rule="evenodd" fill="none" stroke="#00F" stroke-width="1.5" stroke-miterlimit="3.864" d="M37.1 94.8l10.5-10.6M31.8 94.8l10.6-10.6"/><path fill="none" stroke="#00F" stroke-miterlimit="3.864" d="M31.8 84.2h26.4v10.6H31.8V84.2z"/><g clip-rule="evenodd"><path fill-rule="evenodd" fill="#B3B3B3" d="M44.9 131h4.8l-4.8 12.1L40 131z"/><path fill="none" stroke="#B3B3B3" stroke-width="3" stroke-miterlimit="3.864" stroke-dasharray="2,2" d="M44.9 120.4v11.4"/></g><path clip-rule="evenodd" fill="none" stroke="#1D1D1B" stroke-miterlimit="3.864" d="M32 52.9h26.3"/><path clip-rule="evenodd" fill="none" stroke="#1D1D1B" stroke-miterlimit="3.864" stroke-dasharray="4,4" d="M32 37.1h26.3"/><text transform="translate(65.884 184.455)"><tspan x="0" y="0" fill="#1D1D1B" font-family="Helvetica,Arial,sans-serif" font-size="10">AcquisitionStart</tspan><tspan x="13.1" y="12" fill="#1D1D1B" font-family="Helvetica,Arial,sans-serif" font-size="10">command</tspan></text><text transform="translate(274.54 404.425)" fill="#1D1D1B" font-family="Helvetica,Arial,sans-serif" font-size="11.185">Time</text><text transform="translate(439.94 185.386)"><tspan x="0" y="0" fill="#1D1D1B" font-family="Helvetica,Arial,sans-serif" font-size="10">AcquisitionStop</tspan><tspan x="12.7" y="12" fill="#1D1D1B" font-family="Helvetica,Arial,sans-serif" font-size="10">command</tspan></text><text transform="translate(8 260.866)"><tspan x="0" y="0" fill="#1D1D1B" font-family="Helvetica,Arial,sans-serif" font-size="10">Frame Burst Start </tspan><tspan x="0" y="12" fill="#1D1D1B" font-family="Helvetica,Arial,sans-serif" font-size="10">trigger signal</tspan></text><text transform="translate(8 329.217)"><tspan x="0" y="0" fill="#1D1D1B" font-family="Helvetica,Arial,sans-serif" font-size="10">Frame Start </tspan><tspan x="0" y="12" fill="#1D1D1B" font-family="Helvetica,Arial,sans-serif" font-size="10">trigger signal</tspan></text><text transform="translate(71.066 39.206)" fill="#1D1D1B" font-family="Helvetica,Arial,sans-serif" font-size="10">= Trigger signal generated internally by the camera</text><text transform="translate(71.066 55.74)" fill="#1D1D1B" font-family="Helvetica,Arial,sans-serif" font-size="10">= Trigger signal applied by the user</text><text transform="translate(71.066 74.14)" fill="#1D1D1B" font-family="Helvetica,Arial,sans-serif" font-size="10">= Camera is waiting for a Frame Burst Start trigger signal</text><text transform="translate(71.066 92.54)" fill="#1D1D1B" font-family="Helvetica,Arial,sans-serif" font-size="10">= Camera is waiting for a Frame Start trigger signal</text><text transform="translate(71.066 111.872)" fill="#1D1D1B" font-family="Helvetica,Arial,sans-serif" font-size="10">= Frame exposure and readout</text><text transform="translate(71.066 134.932)" fill="#1D1D1B" font-family="Helvetica,Arial,sans-serif" font-size="10">= Frame transmission</text></svg>