<svg version="1.0" xmlns="http://www.w3.org/2000/svg" viewBox="0 0 520 316.7"><text transform="translate(32.382 271.783)" font-family="Helvetica,Arial,sans-serif" font-size="8">0.0</text><text transform="translate(32.585 221.413)" font-family="Helvetica,Arial,sans-serif" font-size="8">0.2</text><text transform="translate(32.549 172.356)" font-family="Helvetica,Arial,sans-serif" font-size="8">0.4</text><text transform="translate(32.563 123.833)" font-family="Helvetica,Arial,sans-serif" font-size="8">0.6</text><text transform="translate(32.44 73.123)" font-family="Helvetica,Arial,sans-serif" font-size="8">0.8</text><text transform="translate(32.572 23.37)" font-family="Helvetica,Arial,sans-serif" font-size="8">1.0</text><text transform="translate(45.175 285.46)" font-family="Helvetica,Arial,sans-serif" font-size="8">400</text><text transform="translate(118.766 285.5)" font-family="Helvetica,Arial,sans-serif" font-size="8">500</text><text transform="translate(192.182 285.437)" font-family="Helvetica,Arial,sans-serif" font-size="8">600</text><text transform="translate(266.532 285.554)" font-family="Helvetica,Arial,sans-serif" font-size="8">700</text><text transform="translate(342.904 285.517)" font-family="Helvetica,Arial,sans-serif" font-size="8">800</text><text transform="translate(418.1 285.476)" font-family="Helvetica,Arial,sans-serif" font-size="8">900</text><text transform="translate(491.019 285.578)" font-family="Helvetica,Arial,sans-serif" font-size="8">1000</text><text transform="rotate(-90 103.806 84.384)" fill="#1E1E1C" font-family="Helvetica,Arial,sans-serif" font-size="12">Relative Response</text><text transform="translate(225.182 306.471)" fill="#010202" font-family="Helvetica,Arial,sans-serif" font-size="12">Wavelength (nm)</text><g fill="none" stroke="#1E1F1D" stroke-miterlimit="10"><path stroke-width=".227" d="M49.4 70.1h451.3M49.4 95.3h451.3M49.4 120.4h451.7M49.5 145.7h451.3M49.5 170.9h451.4M49.5 196h451.3M49.5 221.2h451.3M49.5 246.3h450.8M49.5 44.9h451.3M86.5 19.6v251.7m37.8-251.7v251.7m37.6-251.5v251.6m37.6-251.2v251.2M237.3 19v252.4m75.3-252.3v252.3m37.6-251.8v251.7m37.7-251.7v251.7m37.7-251v251m37.7-251.7v251.7M274.9 19.7v251.8"/><path stroke-width=".709" d="M49.5 19.6H501v251.8H49.5z"/></g><path fill="none" stroke="#000" stroke-width=".709" stroke-miterlimit="10" d="M49.5 125.8s5.6-12.9 7.4-16.5c1.8-3.6 6.6-12.3 8.1-14.8 1.5-2.4 13.5-19.5 14.8-21.2 1.3-1.7 3.4-4 4.6-5.3 1.2-1.3 2.3-3.2 3.3-4.2s3.6-4.6 4.8-5.1c1.2-.6 3.2-2 4-3.2.8-1.2 3.7-5.4 5.7-7.9 1.9-2.5 4.9-4.2 6-5.4 1.1-1.2 4.1-4.4 4.4-4.9.3-.5 5.4-4.7 7.7-6.7 2.3-2.1 7-6.2 7.8-6.6.8-.5 2.1-1.2 2.9-1.4.8-.2 4.2-1.9 4.8-2 .6-.1 3.4-.7 4.4-.7 1 0 6.5.7 6.8.7.4.1 2.6 1.7 3.4 1.8.8.1 3.6.1 4.6.4 1 .3 7.4 3.3 8.8 3.8 1.5.6 8.3 3.2 8.8 3.3.5.1 2.6.6 3.6.6 1.1 0 4.4.4 6.4.8 2 .5 5.9 2 6.7 2.6.8.7 6.6 4.6 8.1 5.6s8.3 3.9 10.3 5 6.7 3.2 7.8 4c1.1.8 8.7 4.6 9.6 5 .8.5 8.3 7.7 9.5 8.8 1.2 1.1 9.2 8.5 9.3 8.8.1.3 1 1.1 1.7 1.8s10 8.7 11.7 10.2c1.6 1.5 8.7 7.8 10.2 9.3 1.5 1.5 7.5 7.2 8.5 8 1 .8 9.1 8.6 10.6 9.9 1.5 1.3 8 7.9 8.5 8 .5.2 1.6 1 1.8 1 .2 0 2.6 1.5 3.2 2.1.5.6 10.2 10.2 10.2 10.2l7.9 7.9s4.8 4.9 5.4 5.2c.5.4 4.4 3 5.5 4.1 1.1 1.1 9.4 9.3 10.3 10.3.9 1 9.9 10.1 9.9 10.1s8.2 8.1 9.3 9c1.1.8 11.8 7.3 13.3 8.4 1.5 1.1 8.7 7.1 10 8.2 1.3 1.1 9.4 7.4 10.3 8 .9.7 11.2 7.8 11.2 7.8s13.4 7.9 14.6 8.8c1.2.8 12.8 9.9 14.2 10.8 1.4.8 9 5.2 10.3 5.7 1.3.5 25.8 11.2 25.8 11.2s13.5 6.2 15.4 7c1.9.8 13.7 5 13.7 5l3.5.4"/></svg>