<svg version="1.0" xmlns="http://www.w3.org/2000/svg" viewBox="0 0 550 410"><path fill="#020405" d="M393.5 69.7h6v9h-6v-9z"/><path fill="none" stroke="#020405" stroke-width=".2" stroke-miterlimit="3.864" d="M393.5 69.7h6v9h-6v-9z"/><path fill="#020405" d="M399.5 84.7h6v9.1h-6v-9.1z"/><path fill="none" stroke="#020405" stroke-width=".2" stroke-miterlimit="3.864" d="M399.5 84.7h6v9.1h-6v-9.1z"/><path fill="#020405" d="M405.5 99.8h6.1v9.1h-6.1v-9.1z"/><path fill="none" stroke="#020405" stroke-width=".2" stroke-miterlimit="3.864" d="M405.5 99.8h6.1v9.1h-6.1v-9.1z"/><path fill="#020405" d="M411.6 114.9h6v9h-6v-9z"/><path fill="none" stroke="#020405" stroke-width=".2" stroke-miterlimit="3.864" d="M411.6 114.9h6v9h-6v-9z"/><path fill="#020405" d="M417.6 130h6v9h-6v-9z"/><path fill="none" stroke="#020405" stroke-width=".2" stroke-miterlimit="3.864" d="M417.6 130h6v9h-6v-9z"/><path fill="#020405" d="M423.6 145h6.1v9.1h-6.1V145z"/><path fill="none" stroke="#020405" stroke-width=".2" stroke-miterlimit="3.864" d="M423.6 145h6.1v9.1h-6.1V145z"/><path fill="#020405" d="M429.7 160.1h6v9.1h-6v-9.1z"/><path fill="none" stroke="#020405" stroke-width=".2" stroke-miterlimit="3.864" d="M429.7 160.1h6v9.1h-6v-9.1z"/><path fill="#020405" d="M435.7 175.2h6v9h-6v-9z"/><path fill="none" stroke="#020405" stroke-width=".2" stroke-miterlimit="3.864" d="M435.7 175.2h6v9h-6v-9z"/><path fill="#020405" d="M441.7 190.3h6v9h-6v-9z"/><path fill="none" stroke="#020405" stroke-width=".2" stroke-miterlimit="3.864" d="M441.7 190.3h6v9h-6v-9z"/><path fill="#020405" d="M447.7 205.3h6.1v9.1h-6.1v-9.1z"/><path fill="none" stroke="#020405" stroke-width=".2" stroke-miterlimit="3.864" d="M447.7 205.3h6.1v9.1h-6.1v-9.1z"/><path fill="#020405" d="M453.8 220.4h6v9.1h-6v-9.1z"/><path fill="none" stroke="#020405" stroke-width=".2" stroke-miterlimit="3.864" d="M453.8 220.4h6v9.1h-6v-9.1z"/><path fill="#020405" d="M520.1 280.7h6v9.1h-6v-9.1z"/><path fill="none" stroke="#020405" stroke-width=".2" stroke-miterlimit="3.864" d="M520.1 280.7h6v9.1h-6v-9.1z"/><path fill="#020405" d="M526.1 295.8h6.1v9h-6.1v-9z"/><path fill="none" stroke="#020405" stroke-width=".2" stroke-miterlimit="3.864" d="M526.1 295.8h6.1v9h-6.1v-9z"/><path fill="#020405" d="M532.2 310.9h6v9h-6v-9z"/><path fill="none" stroke="#020405" stroke-width=".2" stroke-miterlimit="3.864" d="M532.2 310.9h6v9h-6v-9z"/><path clip-rule="evenodd" fill="none" stroke="#000" stroke-width=".5" stroke-miterlimit="3.864" d="M52.8 69.7v286.4M538.2 57.6v298.5"/><g clip-rule="evenodd"><path fill-rule="evenodd" d="M398.6 347v2.1l-5.5-2.1 5.5-2zm134.1 0v-2l5.5 2-5.5 2.1z"/><path fill="none" stroke="#000" stroke-width=".5" stroke-miterlimit="3.864" d="M398.2 347h134.9"/></g><g clip-rule="evenodd"><path fill-rule="evenodd" d="M58.3 347v2.1l-5.2-2.1 5.2-2zm329.7 0v-2l5.1 2-5.1 2.1z"/><path fill="none" stroke="#000" stroke-width=".5" stroke-miterlimit="3.864" d="M58 347h330.3"/></g><path fill="#5EC5ED" d="M52.8 69.7h340.7v9H52.8v-9z"/><path fill="#5EC5ED" stroke="#000" stroke-width=".2" stroke-miterlimit="3.864" d="M52.8 69.7h340.7v9H52.8v-9z"/><path fill="#5EC5ED" d="M52.8 84.7h340.7v9.1H52.8v-9.1z"/><path fill="#5EC5ED" stroke="#000" stroke-width=".2" stroke-miterlimit="3.864" d="M52.8 84.7h340.7v9.1H52.8v-9.1z"/><path fill="#5EC5ED" d="M52.8 99.8h340.7v9.1H52.8v-9.1z"/><path fill="#5EC5ED" stroke="#000" stroke-width=".2" stroke-miterlimit="3.864" d="M52.8 99.8h340.7v9.1H52.8v-9.1z"/><path fill="#5EC5ED" d="M52.8 114.9h340.7v9H52.8v-9z"/><path fill="#5EC5ED" stroke="#000" stroke-width=".2" stroke-miterlimit="3.864" d="M52.8 114.9h340.7v9H52.8v-9z"/><path fill="#5EC5ED" d="M52.8 130h340.7v9H52.8v-9z"/><path fill="#5EC5ED" stroke="#000" stroke-width=".2" stroke-miterlimit="3.864" d="M52.8 130h340.7v9H52.8v-9z"/><path fill="#5EC5ED" d="M52.8 145h340.7v9.1H52.8V145z"/><path fill="#5EC5ED" stroke="#000" stroke-width=".2" stroke-miterlimit="3.864" d="M52.8 145h340.7v9.1H52.8V145z"/><path fill="#5EC5ED" d="M52.8 160.1h340.7v9.1H52.8v-9.1z"/><path fill="#5EC5ED" stroke="#000" stroke-width=".2" stroke-miterlimit="3.864" d="M52.8 160.1h340.7v9.1H52.8v-9.1z"/><path fill="#5EC5ED" d="M52.8 175.2h340.7v9H52.8v-9z"/><path fill="#5EC5ED" stroke="#000" stroke-width=".2" stroke-miterlimit="3.864" d="M52.8 175.2h340.7v9H52.8v-9z"/><path fill="#5EC5ED" d="M52.8 190.3h340.7v9H52.8v-9z"/><path fill="#5EC5ED" stroke="#000" stroke-width=".2" stroke-miterlimit="3.864" d="M52.8 190.3h340.7v9H52.8v-9z"/><path fill="#5EC5ED" d="M52.8 205.3h340.7v9.1H52.8v-9.1z"/><path fill="#5EC5ED" stroke="#000" stroke-width=".2" stroke-miterlimit="3.864" d="M52.8 205.3h340.7v9.1H52.8v-9.1z"/><path fill="#5EC5ED" d="M52.8 220.4h340.7v9.1H52.8v-9.1z"/><path fill="#5EC5ED" stroke="#000" stroke-width=".2" stroke-miterlimit="3.864" d="M52.8 220.4h340.7v9.1H52.8v-9.1z"/><path fill="#5EC5ED" d="M52.8 280.7h340.7v9.1H52.8v-9.1z"/><path fill="#5EC5ED" stroke="#000" stroke-width=".2" stroke-miterlimit="3.864" d="M52.8 280.7h340.7v9.1H52.8v-9.1z"/><path fill="#5EC5ED" d="M52.8 295.8h340.7v9H52.8v-9z"/><path fill="#5EC5ED" stroke="#000" stroke-width=".2" stroke-miterlimit="3.864" d="M52.8 295.8h340.7v9H52.8v-9z"/><path fill="#5EC5ED" d="M52.8 310.9h340.7v9H52.8v-9z"/><path fill="#5EC5ED" stroke="#000" stroke-width=".2" stroke-miterlimit="3.864" d="M52.8 310.9h340.7v9H52.8v-9z"/><path fill="#5EC5ED" d="M450.5 370h27.1v9h-27.1v-9z"/><path fill="#5EC5ED" stroke="#000" stroke-width=".2" stroke-miterlimit="3.864" d="M450.5 370h27.1v9h-27.1v-9z"/><path fill="#020405" d="M471.6 387.1h6v9h-6v-9z"/><path fill="none" stroke="#020405" stroke-width=".2" stroke-miterlimit="3.864" d="M471.6 387.1h6v9h-6v-9z"/><path d="M116.1 237c0-.8.7-1.5 1.5-1.5s1.5.7 1.5 1.5-.7 1.5-1.5 1.5-1.5-.7-1.5-1.5z"/><path fill="none" stroke="#000" stroke-width=".25" stroke-miterlimit="3.864" d="M116.1 237c0-.8.7-1.5 1.5-1.5s1.5.7 1.5 1.5-.7 1.5-1.5 1.5-1.5-.7-1.5-1.5z"/><path d="M116.1 246c0-.8.7-1.5 1.5-1.5s1.5.7 1.5 1.5-.7 1.5-1.5 1.5-1.5-.6-1.5-1.5z"/><path fill="none" stroke="#000" stroke-width=".25" stroke-miterlimit="3.864" d="M116.1 246c0-.8.7-1.5 1.5-1.5s1.5.7 1.5 1.5-.7 1.5-1.5 1.5-1.5-.6-1.5-1.5z"/><path d="M116.1 255.1c0-.8.7-1.5 1.5-1.5s1.5.7 1.5 1.5-.7 1.5-1.5 1.5-1.5-.7-1.5-1.5z"/><path fill="none" stroke="#000" stroke-width=".25" stroke-miterlimit="3.864" d="M116.1 255.1c0-.8.7-1.5 1.5-1.5s1.5.7 1.5 1.5-.7 1.5-1.5 1.5-1.5-.7-1.5-1.5z"/><path d="M116.1 264.1c0-.8.7-1.5 1.5-1.5s1.5.7 1.5 1.5-.7 1.5-1.5 1.5-1.5-.6-1.5-1.5z"/><path fill="none" stroke="#000" stroke-width=".25" stroke-miterlimit="3.864" d="M116.1 264.1c0-.8.7-1.5 1.5-1.5s1.5.7 1.5 1.5-.7 1.5-1.5 1.5-1.5-.6-1.5-1.5z"/><path d="M116.1 273.2c0-.8.7-1.5 1.5-1.5s1.5.7 1.5 1.5-.7 1.5-1.5 1.5-1.5-.7-1.5-1.5z"/><path fill="none" stroke="#000" stroke-width=".25" stroke-miterlimit="3.864" d="M116.1 273.2c0-.8.7-1.5 1.5-1.5s1.5.7 1.5 1.5-.7 1.5-1.5 1.5-1.5-.7-1.5-1.5z"/><path d="M28.5 131.7c0-.8.7-1.5 1.5-1.5s1.5.7 1.5 1.5-.7 1.5-1.5 1.5-1.5-.7-1.5-1.5z"/><path fill="none" stroke="#000" stroke-width=".25" stroke-miterlimit="3.864" d="M28.5 131.7c0-.8.7-1.5 1.5-1.5s1.5.7 1.5 1.5-.7 1.5-1.5 1.5-1.5-.7-1.5-1.5z"/><path d="M28.5 140.7c0-.8.7-1.5 1.5-1.5s1.5.7 1.5 1.5-.7 1.5-1.5 1.5c-.8.1-1.5-.6-1.5-1.5z"/><path fill="none" stroke="#000" stroke-width=".25" stroke-miterlimit="3.864" d="M28.5 140.7c0-.8.7-1.5 1.5-1.5s1.5.7 1.5 1.5-.7 1.5-1.5 1.5c-.8.1-1.5-.6-1.5-1.5z"/><path d="M28.5 149.8c0-.8.7-1.5 1.5-1.5s1.5.7 1.5 1.5-.7 1.5-1.5 1.5-1.5-.7-1.5-1.5z"/><path fill="none" stroke="#000" stroke-width=".25" stroke-miterlimit="3.864" d="M28.5 149.8c0-.8.7-1.5 1.5-1.5s1.5.7 1.5 1.5-.7 1.5-1.5 1.5-1.5-.7-1.5-1.5z"/><path d="M28.5 158.8c0-.8.7-1.5 1.5-1.5s1.5.7 1.5 1.5-.7 1.5-1.5 1.5-1.5-.6-1.5-1.5z"/><path fill="none" stroke="#000" stroke-width=".25" stroke-miterlimit="3.864" d="M28.5 158.8c0-.8.7-1.5 1.5-1.5s1.5.7 1.5 1.5-.7 1.5-1.5 1.5-1.5-.6-1.5-1.5z"/><path d="M28.5 167.9c0-.8.7-1.5 1.5-1.5s1.5.7 1.5 1.5-.7 1.5-1.5 1.5-1.5-.7-1.5-1.5z"/><path fill="none" stroke="#000" stroke-width=".25" stroke-miterlimit="3.864" d="M28.5 167.9c0-.8.7-1.5 1.5-1.5s1.5.7 1.5 1.5-.7 1.5-1.5 1.5-1.5-.7-1.5-1.5z"/><path d="M327.2 237c0-.8.7-1.5 1.5-1.5s1.5.7 1.5 1.5-.7 1.5-1.5 1.5c-.9 0-1.5-.7-1.5-1.5z"/><path fill="none" stroke="#000" stroke-width=".25" stroke-miterlimit="3.864" d="M327.2 237c0-.8.7-1.5 1.5-1.5s1.5.7 1.5 1.5-.7 1.5-1.5 1.5c-.9 0-1.5-.7-1.5-1.5z"/><path d="M327.2 246c0-.8.7-1.5 1.5-1.5s1.5.7 1.5 1.5-.7 1.5-1.5 1.5c-.9 0-1.5-.6-1.5-1.5z"/><path fill="none" stroke="#000" stroke-width=".25" stroke-miterlimit="3.864" d="M327.2 246c0-.8.7-1.5 1.5-1.5s1.5.7 1.5 1.5-.7 1.5-1.5 1.5c-.9 0-1.5-.6-1.5-1.5z"/><path d="M327.2 255.1c0-.8.7-1.5 1.5-1.5s1.5.7 1.5 1.5-.7 1.5-1.5 1.5c-.9 0-1.5-.7-1.5-1.5z"/><path fill="none" stroke="#000" stroke-width=".25" stroke-miterlimit="3.864" d="M327.2 255.1c0-.8.7-1.5 1.5-1.5s1.5.7 1.5 1.5-.7 1.5-1.5 1.5c-.9 0-1.5-.7-1.5-1.5z"/><path d="M327.2 264.1c0-.8.7-1.5 1.5-1.5s1.5.7 1.5 1.5-.7 1.5-1.5 1.5c-.9 0-1.5-.6-1.5-1.5z"/><path fill="none" stroke="#000" stroke-width=".25" stroke-miterlimit="3.864" d="M327.2 264.1c0-.8.7-1.5 1.5-1.5s1.5.7 1.5 1.5-.7 1.5-1.5 1.5c-.9 0-1.5-.6-1.5-1.5z"/><path d="M327.2 273.2c0-.8.7-1.5 1.5-1.5s1.5.7 1.5 1.5-.7 1.5-1.5 1.5c-.9 0-1.5-.7-1.5-1.5z"/><path fill="none" stroke="#000" stroke-width=".25" stroke-miterlimit="3.864" d="M327.2 273.2c0-.8.7-1.5 1.5-1.5s1.5.7 1.5 1.5-.7 1.5-1.5 1.5c-.9 0-1.5-.7-1.5-1.5z"/><g clip-rule="evenodd"><path fill-rule="evenodd" d="M52.8 53.8h4.9L52.8 66l-4.9-12.2z"/><path fill="none" stroke="#000" stroke-width="1.5" stroke-miterlimit="3.864" d="M52.8 42.5v12.1"/></g><path clip-rule="evenodd" fill="none" stroke="#000" stroke-width=".5" stroke-miterlimit="3.864" d="M393.5 57.6v298.5"/><path d="M465 237c0-.8.7-1.5 1.5-1.5s1.5.7 1.5 1.5-.7 1.5-1.5 1.5-1.5-.7-1.5-1.5z"/><path fill="none" stroke="#000" stroke-width=".25" stroke-miterlimit="3.864" d="M465 237c0-.8.7-1.5 1.5-1.5s1.5.7 1.5 1.5-.7 1.5-1.5 1.5-1.5-.7-1.5-1.5z"/><path d="M476.6 246c0-.8.7-1.5 1.5-1.5s1.5.7 1.5 1.5-.7 1.5-1.5 1.5-1.5-.6-1.5-1.5z"/><path fill="none" stroke="#000" stroke-width=".25" stroke-miterlimit="3.864" d="M476.6 246c0-.8.7-1.5 1.5-1.5s1.5.7 1.5 1.5-.7 1.5-1.5 1.5-1.5-.6-1.5-1.5z"/><path d="M488.2 255.1c0-.8.7-1.5 1.5-1.5s1.5.7 1.5 1.5-.7 1.5-1.5 1.5-1.5-.7-1.5-1.5z"/><path fill="none" stroke="#000" stroke-width=".25" stroke-miterlimit="3.864" d="M488.2 255.1c0-.8.7-1.5 1.5-1.5s1.5.7 1.5 1.5-.7 1.5-1.5 1.5-1.5-.7-1.5-1.5z"/><path d="M500.3 264.1c0-.8.7-1.5 1.5-1.5s1.5.7 1.5 1.5-.7 1.5-1.5 1.5-1.5-.6-1.5-1.5z"/><path fill="none" stroke="#000" stroke-width=".25" stroke-miterlimit="3.864" d="M500.3 264.1c0-.8.7-1.5 1.5-1.5s1.5.7 1.5 1.5-.7 1.5-1.5 1.5-1.5-.6-1.5-1.5z"/><path d="M511.5 273.2c0-.8.7-1.5 1.5-1.5s1.5.7 1.5 1.5-.7 1.5-1.5 1.5-1.5-.7-1.5-1.5z"/><path fill="none" stroke="#000" stroke-width=".25" stroke-miterlimit="3.864" d="M511.5 273.2c0-.8.7-1.5 1.5-1.5s1.5.7 1.5 1.5-.7 1.5-1.5 1.5-1.5-.7-1.5-1.5z"/><path d="M28.5 177.2c0-.8.7-1.5 1.5-1.5s1.5.7 1.5 1.5-.7 1.5-1.5 1.5-1.5-.7-1.5-1.5z"/><path fill="none" stroke="#000" stroke-width=".25" stroke-miterlimit="3.864" d="M28.5 177.2c0-.8.7-1.5 1.5-1.5s1.5.7 1.5 1.5-.7 1.5-1.5 1.5-1.5-.7-1.5-1.5z"/><path d="M28.5 186.2c0-.8.7-1.5 1.5-1.5s1.5.7 1.5 1.5-.7 1.5-1.5 1.5-1.5-.6-1.5-1.5z"/><path fill="none" stroke="#000" stroke-width=".25" stroke-miterlimit="3.864" d="M28.5 186.2c0-.8.7-1.5 1.5-1.5s1.5.7 1.5 1.5-.7 1.5-1.5 1.5-1.5-.6-1.5-1.5z"/><path d="M28.5 195.3c0-.8.7-1.5 1.5-1.5s1.5.7 1.5 1.5-.7 1.5-1.5 1.5-1.5-.7-1.5-1.5z"/><path fill="none" stroke="#000" stroke-width=".25" stroke-miterlimit="3.864" d="M28.5 195.3c0-.8.7-1.5 1.5-1.5s1.5.7 1.5 1.5-.7 1.5-1.5 1.5-1.5-.7-1.5-1.5z"/><path d="M28.5 204.3c0-.8.7-1.5 1.5-1.5s1.5.7 1.5 1.5-.7 1.5-1.5 1.5-1.5-.6-1.5-1.5z"/><path fill="none" stroke="#000" stroke-width=".25" stroke-miterlimit="3.864" d="M28.5 204.3c0-.8.7-1.5 1.5-1.5s1.5.7 1.5 1.5-.7 1.5-1.5 1.5-1.5-.6-1.5-1.5z"/><path d="M28.5 213.4c0-.8.7-1.5 1.5-1.5s1.5.7 1.5 1.5-.7 1.5-1.5 1.5-1.5-.7-1.5-1.5z"/><path fill="none" stroke="#000" stroke-width=".25" stroke-miterlimit="3.864" d="M28.5 213.4c0-.8.7-1.5 1.5-1.5s1.5.7 1.5 1.5-.7 1.5-1.5 1.5-1.5-.7-1.5-1.5z"/><path d="M28.5 222.7c0-.8.7-1.5 1.5-1.5s1.5.7 1.5 1.5-.7 1.5-1.5 1.5-1.5-.7-1.5-1.5z"/><path fill="none" stroke="#000" stroke-width=".25" stroke-miterlimit="3.864" d="M28.5 222.7c0-.8.7-1.5 1.5-1.5s1.5.7 1.5 1.5-.7 1.5-1.5 1.5-1.5-.7-1.5-1.5z"/><path d="M28.5 231.7c0-.8.7-1.5 1.5-1.5s1.5.7 1.5 1.5-.7 1.5-1.5 1.5c-.8.1-1.5-.6-1.5-1.5z"/><path fill="none" stroke="#000" stroke-width=".25" stroke-miterlimit="3.864" d="M28.5 231.7c0-.8.7-1.5 1.5-1.5s1.5.7 1.5 1.5-.7 1.5-1.5 1.5c-.8.1-1.5-.6-1.5-1.5z"/><path d="M28.5 240.8c0-.8.7-1.5 1.5-1.5s1.5.7 1.5 1.5-.7 1.5-1.5 1.5-1.5-.7-1.5-1.5z"/><path fill="none" stroke="#000" stroke-width=".25" stroke-miterlimit="3.864" d="M28.5 240.8c0-.8.7-1.5 1.5-1.5s1.5.7 1.5 1.5-.7 1.5-1.5 1.5-1.5-.7-1.5-1.5z"/><path d="M28.5 249.8c0-.8.7-1.5 1.5-1.5s1.5.7 1.5 1.5-.7 1.5-1.5 1.5-1.5-.6-1.5-1.5z"/><path fill="none" stroke="#000" stroke-width=".25" stroke-miterlimit="3.864" d="M28.5 249.8c0-.8.7-1.5 1.5-1.5s1.5.7 1.5 1.5-.7 1.5-1.5 1.5-1.5-.6-1.5-1.5z"/><path d="M28.5 258.9c0-.8.7-1.5 1.5-1.5s1.5.7 1.5 1.5-.7 1.5-1.5 1.5-1.5-.7-1.5-1.5z"/><path fill="none" stroke="#000" stroke-width=".25" stroke-miterlimit="3.864" d="M28.5 258.9c0-.8.7-1.5 1.5-1.5s1.5.7 1.5 1.5-.7 1.5-1.5 1.5-1.5-.7-1.5-1.5z"/><text transform="translate(484.495 378.082)" font-family="Helvetica,Arial,sans-serif" font-size="11">= Exposure</text><text transform="translate(24.844 20.832)"><tspan x="0" y="0" font-family="Helvetica,Arial,sans-serif" font-size="11">Frame start</tspan><tspan x="6.3" y="13.2" font-family="Helvetica,Arial,sans-serif" font-size="11">triggered</tspan></text><text transform="translate(15.688 77.85)" font-family="Helvetica,Arial,sans-serif" font-size="11">Row 1</text><text transform="translate(15.688 93.174)" font-family="Helvetica,Arial,sans-serif" font-size="11">Row 2</text><text transform="translate(15.688 109.358)" font-family="Helvetica,Arial,sans-serif" font-size="11">Row 3</text><text transform="translate(6.583 288.252)" font-family="Helvetica,Arial,sans-serif" font-size="11">Row n-2</text><text transform="translate(6.583 303.576)" font-family="Helvetica,Arial,sans-serif" font-size="11">Row n-1</text><text transform="translate(15.795 318.9)" font-family="Helvetica,Arial,sans-serif" font-size="11">Row n</text><text transform="translate(416.863 340.95)" font-family="Helvetica,Arial,sans-serif" font-size="11">Sensor readout time</text><text transform="translate(170 340.95)" font-family="Helvetica,Arial,sans-serif" font-size="11">Exposure time</text><text transform="translate(484.495 395.419)" font-family="Helvetica,Arial,sans-serif" font-size="11">= Readout</text></svg>