<svg version="1.0" xmlns="http://www.w3.org/2000/svg" viewBox="0 0 520 352.7"><path fill="none" stroke="#000" stroke-width=".709" stroke-miterlimit="3.864" d="M53.5 23.6h439.6v284.9H53.5V23.6z"/><path clip-rule="evenodd" fill="none" stroke="#000" stroke-width=".227" stroke-miterlimit="3.864" d="M53.6 51.6h439.8M53.5 80.5h439.8M53.6 108.8h439.8M53.5 137.3h439.8M53.6 165.6h439.8M53.6 194.7h439.8M53.4 223h439.8M53.6 251.4h439.8M53.5 279.7h439.8M126.7 23.5v285.2m73.5-285v285.1m73.6-285.3v285.1m72.7-285.1v285.1M420 23.7v285.2"/><g clip-rule="evenodd"><path fill-rule="evenodd" d="M358 128.8h109.2v74.1H358z"/><path fill="none" stroke="#000" stroke-width="1.117" stroke-miterlimit="3.864" d="M358 128.8h109.2v74.1H358z"/></g><g clip-rule="evenodd"><path fill-rule="evenodd" fill="#FFF" d="M354.7 125.3h109.2v74.1H354.7z"/><path fill="none" stroke="#000" stroke-width="1.117" stroke-miterlimit="3.864" d="M354.7 125.3h109.2v74.1H354.7z"/></g><path clip-rule="evenodd" fill="none" stroke="#2950A3" stroke-miterlimit="3.864" stroke-dasharray="12,2,2,2" d="M364.6 141H404"/><path clip-rule="evenodd" fill="none" stroke="#55B956" stroke-miterlimit="3.864" stroke-dasharray="2,2" d="M364.6 164.5H404"/><path clip-rule="evenodd" fill="none" stroke="#F04A3A" stroke-miterlimit="3.864" stroke-dasharray="72" d="M364.6 188.1H404"/><g font-family="Helvetica,Arial,sans-serif"><text transform="translate(38.624 26.9)" font-size="8">1.0</text><text transform="translate(38.624 54.9)" font-size="8">0.9</text><text transform="translate(38.624 85.9)" font-size="8">0.8</text><text transform="translate(38.624 112.9)" font-size="8">0.7</text><text transform="translate(38.624 139.9)" font-size="8">0.6</text><text transform="translate(38.624 169.9)" font-size="8">0.5</text><text transform="translate(38.624 197.9)" font-size="8">0.4</text><text transform="translate(38.624 226.9)" font-size="8">0.3</text><text transform="translate(38.624 254.9)" font-size="8">0.2</text><text transform="translate(38.624 282.9)" font-size="8">0.1</text><text transform="translate(45.624 309.9)" font-size="8">0</text><text transform="rotate(-90 114.732 93.362)" fill="#131718" font-size="12">Relative Response</text><text transform="translate(421.293 145.1)" fill="#131718" font-size="12">Blue</text><text transform="translate(421.293 169.396)" fill="#131718" font-size="12">Green</text><text transform="translate(421.293 192.147)" fill="#131718" font-size="12">Red</text><text transform="translate(223.971 340.801)" font-size="12">Wavelength (nm)</text><text transform="translate(48.078 322.801)" font-size="8">400</text><text transform="translate(119.078 322.801)" font-size="8">450</text><text transform="translate(196.078 322.801)" font-size="8">500</text><text transform="translate(265.078 322.801)" font-size="8">550</text><text transform="translate(338.078 322.801)" font-size="8">600</text><text transform="translate(413.078 322.801)" font-size="8">650</text><text transform="translate(487.078 322.801)" font-size="8">700</text></g><g clip-rule="evenodd" fill="none" stroke-miterlimit="3.864"><path stroke="#F04A3A" d="M53.4 289c15 3.6 23.8 5.8 29.4 6.8 5.6 1 19.2 3.5 23.7 4.2 4.5.7 40 1.5 47.4 1.5 7.3 0 34.5-.4 39.3-1 4.8-.5 35.4-5.1 44-5.4 8.6-.3 16.2 1.3 17.8 1.5 1.6.3 6.7 1 8.7.8 2-.2 6.1-.5 8-2 2-1.5 9.5-10.3 11.2-14.1 1.7-3.8 5.9-14.8 9.9-31.5s8.6-37.8 9.5-42c.9-4.2 11-63.8 11.4-66 .4-2.2 1.8-11 2.6-15.4.7-4.4 7.1-33 7.8-36.7.7-3.7 5.4-20.7 6.3-23.2.9-2.5 7.5-21 11.9-26.6 4.4-5.6 9.9-11.4 12.1-12.8 2.2-1.3 6.7-3.3 15.5-3.3 8.7 0 14.5 3.5 16.6 5 2.2 1.5 9.8 7.1 12.3 9.5 2.5 2.4 14.2 12.5 17.1 14.4 2.8 2 13.8 9.6 16.4 11.4 2.6 1.8 21.9 15.6 24 17.3 2.1 1.7 11.3 9.5 15.6 11.2 4.3 1.7 8.7 3.2 10.6 3.6 1.8.4 7.5 1.4 10.9 1.3"/><path stroke="#55B956" stroke-dasharray="2,2" d="M53.4 294.4s9.6-1.2 14.3-2.5c4.7-1.3 20.5-6 22.8-6.8 2.3-.9 10-3.7 13-5.5 3-1.8 10.1-5.8 17.1-13.1 7-7.3 16.7-18.6 17.8-19.8 1.1-1.2 20.8-26.2 24.3-31.1 3.6-4.9 7.7-10.3 11.2-16.6 3.6-6.2 10-18.1 17.3-37.7 7.2-19.5 14.1-41.3 18.5-51.8 4.6-10.5 12.3-28.5 15-32.7 2.7-4.2 9.3-15.3 12.3-17.9 3-2.5 6.1-5.5 8.1-6.4 2-.9 5.2-1.8 9-1.8s8.6 1 11.7 4.2c3.1 3.2 9.9 10.3 12.3 14.1 2.4 3.8 7.2 11.6 8.7 15.1 1.6 3.5 12.5 24.9 15.4 32.7 2.9 7.7 13.2 35.5 14.8 39.2 1.6 3.7 7.5 21 8.9 24.5 1.4 3.4 16.9 41.7 18.3 44.6 1.4 2.9 11 21.7 15.2 27.9 4.2 6.1 11.9 18 19.3 22.7 7.4 4.7 20.3 10.8 37.7 10.4 17.4-.4 36.6-14.4 36.6-14.4s24.5-18 26.9-20.2c2.5-2.2 13.1-10.9 13.1-10.9"/><path stroke="#2950A3" stroke-dasharray="12,2,2,2" d="M53.3 231.9s3.2-6.8 3.8-8c.7-1.2 6.5-12.2 8.1-15.1 1.6-3 7-11.6 8.3-13.6 1.3-2 6.5-10 9-13.6 2.5-3.7 8.5-13 8.8-13.7.3-.7 7-12.6 10.6-18.5 3.6-5.9 7.9-12.8 9.5-15.3 1.6-2.5 6.7-9.5 8.3-11.1 1.6-1.5 4.4-4.8 6.2-5.6 1.8-.8 4.1-1.5 7.4-1.7 3.3-.1 9.7 2.2 11 3.1 1.3.8 11.1 9.1 13.1 11.5 2 2.4 11.1 14.6 12.4 16.7 1.3 2.1 6.1 10.4 7.4 12.9 1.3 2.5 15 31 15.5 32.4.5 1.4 15.1 33.9 15.1 33.9s10.2 19.7 11 21.1c.8 1.4 11.4 17.9 12.4 19.1 1.1 1.1 8.2 9.7 15.6 14.7s23.1 15.5 27.3 16.9c4.2 1.4 14.1 5.6 28.5 7.5 14.3 1.8 43.8 2.4 50.1 2.4 6.2 0 31.3-.4 34.7-.8 3.4-.4 48-3.9 52.6-4.2 4.5-.3 41.7-3 52.7-3.1"/></g></svg>