<svg version="1.0" xmlns="http://www.w3.org/2000/svg" viewBox="0 0 354.7 84"><path fill="#E64614" d="M41.4 10.5h19v19h-19v-19z"/><path fill="none" d="M45.3 12.9h11.1v19H45.3v-19z"/><text transform="translate(45.347 26.961)" fill="#FFF" font-family="Helvetica,Arial,sans-serif" font-weight="bold" font-size="18.733">1</text><path fill="#E64614" d="M4.4 10.5h19v19h-19v-19z"/><path fill="none" d="M8.4 12.9h11v19h-11v-19z"/><text transform="translate(8.355 26.961)" fill="#FFF" font-family="Helvetica,Arial,sans-serif" font-weight="bold" font-size="18.733">0</text><path fill="#E64614" d="M78.9 10.5h19v19h-19v-19z"/><path fill="none" d="M82.8 12.9h11.1v19H82.8v-19z"/><text transform="translate(82.842 26.961)" fill="#FFF" font-family="Helvetica,Arial,sans-serif" font-weight="bold" font-size="18.733">2</text><path fill="#32B09E" d="M78.9 49.1h19V68h-19V49.1z"/><path fill="none" d="M82.8 51.5h11.1v18.9H82.8V51.5z"/><text transform="translate(82.84 65.527)" fill="#FFF" font-family="Helvetica,Arial,sans-serif" font-weight="bold" font-size="18.733">0</text><path fill="#32B09E" d="M116.4 49.1h19V68h-19V49.1z"/><path fill="none" d="M120.3 51.5h11.1v18.9h-11.1V51.5z"/><text transform="translate(120.336 65.527)" fill="#FFF" font-family="Helvetica,Arial,sans-serif" font-weight="bold" font-size="18.733">1</text><path fill="#32B09E" d="M154.9 49.1h19V68h-19V49.1z"/><path fill="none" d="M158.9 51.5h11v18.9h-11V51.5z"/><text transform="translate(158.853 65.527)" fill="#FFF" font-family="Helvetica,Arial,sans-serif" font-weight="bold" font-size="18.733">2</text><path fill="none" stroke="#000" stroke-width="2" stroke-miterlimit="3.864" d="M28.9 19.8h6.5m31 0h6.5m30.7 38.6h6.5m31.6 0h6.5m31.5 0h6.5"/><text transform="translate(190.233 65.088)" font-family="Helvetica,Arial,sans-serif" font-weight="bold" font-size="18.733">...</text><path fill="none" stroke="#000" stroke-width="2" stroke-miterlimit="3.864" d="M88.4 43.8v-9.4"/><text transform="translate(27.276 12.749)" font-family="Helvetica,Arial,sans-serif" font-size="9.731">P1</text><text transform="translate(64.982 12.749)" font-family="Helvetica,Arial,sans-serif" font-size="9.731">P1</text><text transform="translate(70.45 42.268)" font-family="Helvetica,Arial,sans-serif" font-size="9.731">P0</text><text transform="translate(101.777 52.228)" font-family="Helvetica,Arial,sans-serif" font-size="9.731">P1</text><text transform="translate(139.483 52.228)" font-family="Helvetica,Arial,sans-serif" font-size="9.731">P1</text><path fill="#FFF" stroke="#1D1D1B" stroke-miterlimit="10" d="M219.6 9.7h132.1v33H219.6z"/><text transform="translate(223.777 22.467)" font-family="Helvetica,Arial,sans-serif" font-size="11">P0 = path 0 trigger signal</text><text transform="translate(223.777 36.863)" font-family="Helvetica,Arial,sans-serif" font-size="11">P1 = path 1 trigger signal</text><g opacity=".3"><path fill="#E64614" d="M116.2 9.7h19.6v19.6h-19.6V9.7z"/><path fill="none" d="M120.2 12.3h11.5v19.6h-11.5V12.3z"/><text transform="translate(120.24 26.799)" fill="#FFF" font-family="Helvetica,Arial,sans-serif" font-weight="bold" font-size="19.358">3</text></g><g opacity=".3"><path fill="#E64614" d="M154.9 9.7h19.6v19.6h-19.6V9.7z"/><path fill="none" d="M159 12.3h11.4v19.6H159V12.3z"/><text transform="translate(158.984 26.799)" fill="#FFF" font-family="Helvetica,Arial,sans-serif" font-weight="bold" font-size="19.358">4</text></g><path opacity=".3" fill="none" stroke="#000" stroke-width="2" stroke-miterlimit="3.864" d="M103.5 19.5h6.7m31.4-.1h6.7"/></svg>