<svg version="1.0" xmlns="http://www.w3.org/2000/svg" xmlns:xlink="http://www.w3.org/1999/xlink" viewBox="0 0 350 150"><pattern x="-184.5" y="504" width="73" height="73" patternUnits="userSpaceOnUse" id="i" viewBox="44.3 -109.6 73 73" overflow="visible"><path fill="none" d="M44.3-109.6h73v73h-73z"/><defs><path id="a" d="M101.9-76.6h72v72h-72z"/></defs><clipPath id="b"><use xlink:href="#a" overflow="visible"/></clipPath><path clip-path="url(#b)" fill="none" stroke="#000" stroke-width=".3" stroke-linejoin="round" d="M94.4-66.1l18-18m-18 24l24-24m-24 30l30-30m-30 36l36-36m-36 42l42-42m-42 48l48-48m-48 54l54-54m-54 60l60-60m-60 66l66-66m-66 72l72-72m-72 78l78-78m-78 84l84-84m-78 84l78-78m-72 78l72-72m-66 72l66-66"/><path clip-path="url(#b)" fill="none" stroke="#000" stroke-width=".3" stroke-linejoin="bevel" d="M73.1-63.1l10-10"/><use xlink:href="#a" overflow="visible" fill="none" stroke="#000"/><defs><path id="c" d="M28.9-76.6h72v72h-72z"/></defs><clipPath id="d"><use xlink:href="#c" overflow="visible"/></clipPath><path clip-path="url(#d)" fill="none" stroke="#000" stroke-width=".3" stroke-linejoin="round" d="M21.4-60.1l24-24m-24 30l30-30m-30 36l36-36m-36 42l42-42m-42 48l48-48m-48 54l54-54m-54 60l60-60m-60 66l66-66m-66 72l72-72m-72 78l78-78m-78 84l84-84m-78 84l78-78m-72 78l72-72m-66 72l66-66m-60 66l60-60m-54 60l54-54m-48 54l48-48m-42 48l42-42"/><use xlink:href="#c" overflow="visible" fill="none" stroke="#000"/><defs><path id="e" d="M101.9-149.6h72v72h-72z"/></defs><clipPath id="f"><use xlink:href="#e" overflow="visible"/></clipPath><path clip-path="url(#f)" fill="#FFF" stroke="#000" stroke-width=".3" stroke-linejoin="bevel" d="M78.1-83.6l6 6m-6 0l6-6"/><path clip-path="url(#f)" fill="none" stroke="#000" stroke-width=".3" stroke-linejoin="round" d="M94.4-109.1l48-48m-48 54l54-54m-54 60l60-60m-60 66l66-66m-66 72l72-72m-72 78l78-78m-78 84l84-84m-78 84l78-78m-72 78l72-72m-66 72l66-66"/><use xlink:href="#e" overflow="visible" fill="none" stroke="#000"/><defs><path id="g" d="M28.9-149.6h72v72h-72z"/></defs><clipPath id="h"><use xlink:href="#g" overflow="visible"/></clipPath><path clip-path="url(#h)" fill="#FFF" stroke="#000" stroke-width=".3" stroke-linejoin="bevel" d="M5.1-83.6l6 6m-6 0l6-6"/><path clip-path="url(#h)" fill="none" stroke="#000" stroke-width=".3" stroke-linejoin="round" d="M21.4-139.1l18-18m-18 24l24-24m-24 30l30-30m-30 36l36-36m-36 42l42-42m-42 48l48-48m-48 54l54-54m-54 60l60-60m-60 66l66-66m-66 72l72-72m-72 78l78-78m-78 84l84-84m-78 84l78-78m-72 78l72-72m-66 72l66-66m-60 66l60-60m-54 60l54-54m-48 54l48-48m-42 48l42-42m-36 42l36-36m-30 36l30-30m-24 30l24-24m-18 24l18-18m-12 18l12-12"/><path clip-path="url(#h)" fill="none" stroke="#000" stroke-width=".3" stroke-linejoin="bevel" d="M.1-136.1l10-10"/><use xlink:href="#g" overflow="visible" fill="none" stroke="#000"/></pattern><path fill="url(#i)" stroke="#000" stroke-width=".5" stroke-miterlimit="10" d="M215.2 56.9h12.5v32.4h-12.5z"/><path clip-rule="evenodd" fill="none" stroke="#000" stroke-width=".709" stroke-miterlimit="3.864" d="M52.9 89.3h48.6V56.9h56.7v32.4h56.9V56.9h56.6v32.4h-.2 70.3"/><path clip-rule="evenodd" fill="none" stroke="#000" stroke-width=".5" stroke-miterlimit="3.864" d="M259.3 29h29.1M222 66.4l37.3-37.3"/><path fill="#DEDFDE" d="M157.5 113.1h70.2v18.3h-70.2v-18.3z"/><path fill="none" stroke="#131718" stroke-width=".5" stroke-miterlimit="3.864" d="M157.5 113.1h70.2v18.3h-70.2v-18.3z"/><path fill="#FFF" d="M101.5 113.1h56.7v18.3h-56.7v-18.3z"/><path fill="none" stroke="#131718" stroke-width=".5" stroke-miterlimit="3.864" d="M101.5 113.1h56.7v18.3h-56.7v-18.3z"/><path fill="none" stroke="#131718" stroke-width=".5" stroke-miterlimit="3.864" d="M101.6 100.3h126.1v31.2H101.6v-31.2z"/><path fill="#DEDFDE" d="M271.6 113.1h70.2v18.3h-70.2v-18.3z"/><path fill="none" stroke="#131718" stroke-width=".5" stroke-miterlimit="3.864" d="M271.6 113.1h70.2v18.3h-70.2v-18.3z"/><path fill="#FFF" d="M227.7 113.1h44v18.3h-44v-18.3z"/><path fill="none" stroke="#131718" stroke-width=".5" stroke-miterlimit="3.864" d="M227.7 113.1h44v18.3h-44v-18.3z"/><path fill="none" stroke="#131718" stroke-width=".5" stroke-miterlimit="3.864" d="M227.7 100.3h114.1v31.2H227.7v-31.2z"/><text transform="translate(229.281 126.098)" font-family="Helvetica,Arial,sans-serif" font-size="10">Exposure</text><text transform="translate(228.281 141.5)" font-family="Helvetica,Arial,sans-serif" font-size="8">(shortened)</text><text transform="translate(128.281 109.75)" font-family="Helvetica,Arial,sans-serif" font-size="8">Frame acquisition N</text><text transform="translate(246.781 109.75)" font-family="Helvetica,Arial,sans-serif" font-size="8">Frame acquisition N + 1</text><text transform="translate(109.597 126.098)" font-family="Helvetica,Arial,sans-serif" font-size="10">Exposure</text><text transform="translate(170.347 126.098)" font-family="Helvetica,Arial,sans-serif" font-size="10">Readout</text><text transform="translate(288.3 126.098)" font-family="Helvetica,Arial,sans-serif" font-size="10">Readout</text><text transform="translate(293.75 25.25)"><tspan x="0" y="0" font-family="Helvetica,Arial,sans-serif" font-size="10">This part of </tspan><tspan x="0" y="12" font-family="Helvetica,Arial,sans-serif" font-size="10">the signal</tspan><tspan x="0" y="24" font-family="Helvetica,Arial,sans-serif" font-size="10">is ignored</tspan></text><text transform="translate(2 73.75)"><tspan x="0" y="0" font-family="Helvetica,Arial,sans-serif" font-size="9">Hardware Frame Start </tspan><tspan x="0" y="10.8" font-family="Helvetica,Arial,sans-serif" font-size="9">trigger signal</tspan></text></svg>