<svg version="1.1" id="Layer_1" xmlns="http://www.w3.org/2000/svg" x="0" y="0" viewBox="0 0 368.5 255.1" xml:space="preserve"><style>.st0{stroke:#000;stroke-width:.2835;stroke-linecap:round;stroke-linejoin:round}.st0,.st1,.st2{fill:none;stroke-miterlimit:10}.st1{stroke-linecap:round;stroke-linejoin:round;stroke:#000;stroke-width:.4252}.st2{stroke:#1a1a18;stroke-width:.2835}.st5{fill-rule:evenodd;clip-rule:evenodd;fill:#1d1d1b}.st6,.st7{fill:none;stroke:#1d1d1b;stroke-width:.2268;stroke-miterlimit:3.8637}.st7{stroke-width:.2835}.st8{font-family:Helvetica,Arial,sans-serif}.st9{font-size:12px}.st10{font-size:10px}</style><g id="ace"><path class="st0" d="M117.2 207.4l-5-4.9m10.5 5.1l-8.1-8m13.6 8.1l-8.5-8.5m13.9 8.7l-8.5-8.7m14.1 8.7l-8.8-8.7m14.2 8.8l-8.9-8.8m14.4 9l-8.9-9m14.6 9.1l-9.3-9.1m14.7 9.3l-9.4-9.3m14.9 9.4l-9.4-9.4m12.7 7.5l-7.5-7.5m7.5 2.2l-2-2.2M120.1 81.8l-7.4-7.6m12.8 7.6l-8.2-8.2m13.6 8.2l-8.4-8.4m13.6 8.4l-8.2-8.5m13.7 8.5l-8.6-8.7m14 8.7l-8.7-8.8m14.1 8.8l-9-9m14.3 9l-8.9-9m14.2 9l-9.1-9.1m14.6 9.1l-9.4-9.3M170 78l-5.7-5.6"/><path class="st1" d="M170 72.7l-.5-.6m-54.6 127.1H170m-56.6 2.7l1.5-2.7m54.3 9.7l-55.9-1.6-1.1-.9v-4.2l.3-.3h.9m56.6 7.3l-.8-.3m.7.3l.1.1m0-137.5l-.1.1m-.7.3l.8-.4m-54.8 7.4h-2.7l-.3-.3v-4.3l1.1-.9 55.9-1.5m-52.5 9.6l-1.5-2.6m54.8 2.6h-53.3m54.4-10.5c-.4 0-.8.2-1.1.5m0 137.5c.3.3.7.5 1.1.5m114.7-2.5v2.5h20v-.5m-20 .5H171m2-138.5h-2m-58.8 130.9V78.9m72.1 104.6l-8.8-71.6m-.6-39.6c0-.5-.4-.9-1-1m1 20V72.2m9.4 111.3l-.2.5-.7.3M173 76v109.8m10.4-1.5l-3.6.3-2.8.1-2.1.3-1.3.5-.6.3M173 76v-4.7h.9m-.9 114.6v-.1m11.3-2.7l101.5 4.2m23.8-114v134.5m0-134.5c0-.8-.6-1.5-1.3-1.5m-.2 137.5c.8 0 1.5-.6 1.5-1.4m-23.8-3.5v-15.8m1.3-6.4v27.1m-1.3-2v-2.9m1.3 4.9h-1.3m0-27.1v6.4m4.1-112.5v15.5l-.4 1.8-.9 1.8-.6.7-.6.8-.3.9v84.6m1.6-90.6V76m-2.9 106.2V97.6m1.3 111.7h21m.2-137.5l-18.4-.5m-1.2.5V76m1.2-4.7l-1.2.5m1.2-.5V76m-2.3 18.3c.7-.8 1.1-1.7 1.1-2.8m-1.9 3.3l.6-.6m-.5.6c-.7.8-1.1 1.7-1.1 2.7m26.7 56.6v38.7m-.8 1c.5 0 .9-.4.9-1m0-38.8c0-.5-.4-.9-.9-.9m-1.1 40.7c-.6 0-1 .5-1 1m0-42.7c0 .6.4 1 1 1m1 0h-.9m.9 40.7h-.9m4.6-60.4V73.8m0 0c0-.5-.4-1-.9-1m0 61.8c.5 0 .9-.5.9-1m-4.3 1c-.8 0-1.4.6-1.4 1.4m-.4-63.7c.2.3.8.5 1.2.5m4 61.8h-3.3m3.3-61.8h-4M174.7 95.5c-.2 1.5-.2 3 0 4.5m.2 2.6c-.1-.8-.1-1.6-.2-2.4m0-4.8c.1-.9.2-1.9.2-2.8m0-2.9v3m0 9.9c0 1.1.1 2.2.1 3.3m0 0v1.2l.2.9v.9l.1.9.2.9v1.2m113.2-40.1H174.9v17.9m110.9 92.5v-8.4m2.9-83.1V76.4m-113.2 35.5l.1.5m158.8-29.9v.3h-15.2v-.3m0 42.4v-.3h15.2v.3m-17.8 5.1V77.4m26 47.5V82.5m-27.3-5.1h1.3m-1.3 52.6h1.3m0-47.5h2.6m15.2 0h8.2m-26 42.4h2.6m15.2 0h8.2m-66.2 30.3v-.8m1.6.2v.6"/><path class="st0" d="M273.2 159.8h-.7m.1-1.6h.6"/><path class="st1" d="M277.9 163.2v.6m-1.7 0v-.6"/><path class="st0" d="M281.3 158.3h.6m0 1.7h-.6m-4.9-4.8l.1 1 .2.9v.2h1v-.2l.2-.9.1-1m-4.8 4.6l1.1-.1.9-.2h.1v-.9h-.1l-.9-.1-1.1-.3m4.7 5l-.2-1.2v-.8l-.1-.2-.9-.1v.3l-.2.8-.3 1.2m5.1-4.9l-1.2.2-.8.1h-.1v1.1h.1l.8.1 1.2.2"/><path class="st1" d="M277.3 151.9c-4 0-7.3 3.1-7.3 7.1-.1 4 3.1 7.3 7.1 7.4 3.9 0 7.3-3.1 7.3-7.2.1-3.9-3.1-7.2-7.1-7.3"/><path class="st0" d="M278 157.1v-2.5m.3 2.5c0 .6.4 1.1 1 1.1m2.6.1l-2.6-.1m0 1.8h2.6m-2.7.1c-.6 0-1.1.5-1.1 1.1m-.2 2.6l.1-2.6m-1.8 0v2.6m0-2.7c0-.6-.5-1.1-1.1-1.1m-2.6-.2l2.7.2m0-1.8h-2.6m2.5 0c.6 0 1.1-.5 1.1-1.1m.2-2.7v2.6"/><path class="st1" d="M180.8 93.9v-.8m1.6.2v.6"/><path class="st0" d="M177.6 98.6h-.7m.1-1.6h.6"/><path class="st1" d="M182.3 101.9v.6m-1.7 0v-.6"/><path class="st0" d="M185.7 97.1h.6m0 1.7h-.6m-4.9-4.9l.1 1 .2 1v.2h1v-.2l.2-1 .1-1m-4.8 4.7l1.1-.1.9-.2h.1v-.9h-.1l-.9-.1-1.1-.3m4.7 4.9l-.2-1.2v-.7l-.1-.2-.9-.1v.3l-.2.7-.3 1.2m5.1-4.8l-1.2.2-.9.1h-.1v1.1h.1l.9.1 1.2.2"/><path class="st1" d="M181.7 90.7c-4 0-7.3 3.1-7.3 7.1-.1 4 3.1 7.3 7.1 7.4 3.9 0 7.3-3.1 7.3-7.2.1-4-3.1-7.2-7.1-7.3"/><path class="st0" d="M182.4 95.9v-2.6m.2 2.6c0 .6.4 1.1 1 1.1m2.7.1l-2.7-.1m0 1.8h2.7m-2.8.1c-.6 0-1.1.5-1.1 1.1m-.1 2.5l.1-2.5m-1.8 0v2.5m0-2.6c0-.6-.5-1.1-1.1-1.1m-2.6-.2l2.7.2m0-1.8H177m2.5 0c.6 0 1.1-.5 1.1-1.1m.2-2.8v2.6m-13.5 43.9l2.7-2.7m-2.7.4l2.7-2.8m-2.7.4l2.7-2.8m-2.7.4l2.7-2.8m-2.7.4l2.7-2.8m-2.7.4l2.7-2.8m-2.7.4l2.7-2.7m-2.7.3l2.7-2.7m-2.7.3l2.7-2.7m-2.7.4l2.7-2.8m-2.7.4l2.7-2.8m-2.7.4l2.7-2.8m-2.7.4l2.7-2.8m-2.7.4l2.7-2.8m-2.7.4l2.7-2.7m-2.7 72l2.7-2.8m-2 4.6l2-2.2m-2.7-2l2.7-2.8m-2.7.4l2.7-2.8m-2.7.4l2.7-2.8m-2.7.4l2.7-2.8m-2.7.4l2.7-2.7m-2.7.3l2.7-2.7m-2.7.3l2.7-2.7m-2.7.4l2.7-2.8m-2.7.4l2.7-2.8m-2.7.4l2.7-2.8m-2.7.4l2.7-2.8m-2.7.4l2.7-2.8m-2.7.4l2.7-2.7m-2.7.3l2.7-2.7m-2.7 38h2.7"/><path class="st1" d="M167.1 95.3s-3.9.2-4.3.2c-.3 0-2.2.1-2.2.9v6.8h1.1l.4.2.6.7 1.7 1.1.7.1 1 .9c.1.1.6.3 1 .3h.2v-2.8h-.7c-.2 0-.5 0-.5-.2v-.5c0-.1.1-.2.3-.2.3 0 3.2-.3 3.3-.3s.2-.1.2-.2v-7h-2.8zm2.9-12l-.4-.2h-10.8l-.6.3v2l.6.4h1.8l2.2.9 4.5.3 2.7-.8v-2.9zm-9.4 2.5v108.9m6.7-88.2v67.9m0-70.8h2.7m0-31.8v137.1M158.2 85.2v110.5"/><path class="st0" d="M170 98.2l-2.8-2.7m2.8 5.1l-5.1-5.1m4.6 7l-7-7m4.8 7.2l-6.6-6.6m6.6 8.9l-6.7-6.7m4.9 7.4l-4.9-4.9m-2.4-15.9l1.6-1.6m-.1 2.5l2.5-2.5m-.5 2.9l2.9-2.9m-1.1 3.5l3.5-3.5m-1.3 3.6l3.8-3.7m-1.2 3.5L170 85"/><path class="st1" d="M167.1 185.7s-3.9-.2-4.3-.2c-.3 0-2.2-.1-2.2-.9v-6.8h1.1l.4-.2.6-.7 1.7-1.1.7-.1 1-.9c.1-.1.6-.3 1-.3h.2v2.8h-.7c-.2 0-.5 0-.5.2v.5c0 .1.1.2.3.2.3 0 3.2.3 3.3.3s.2.1.2.2v7h-2.8zm2.9 11.9l-.4.2h-10.8l-.6-.2v-2.1l.6-.4h1.8l2.2-.9 4.5-.3 2.7.8v2.9z"/><path class="st0" d="M167.2 175.2l-.7-.7m.4 2.7l-1.7-1.7m4.7 4.8l-1.9-1.9m2 4.3l-6.4-6.4m6.3 8.8l-7.6-7.7m5.8 8.2l-7.5-7.5m4.9 7.3l-4.9-4.9m2.6 4.9l-2.5-2.5m-2.5 12.8l.5-.5m-.1 2.5l3-3m-.7 3l3.7-3.6m-1.3 3.6l3.8-3.7m-1.4 3.7l3.3-3.3m-.9 3.3l1.9-1.9"/></g><g id="Middle_line"><path class="st2" d="M103.6 140.5h3.6"/><path d="M110.1 140.5h2" fill="none" stroke="#1a1a18" stroke-width=".283" stroke-miterlimit="10" stroke-dasharray=".581,2.9049"/><path d="M113.5 140.5h230.7" fill="none" stroke="#1a1a18" stroke-width=".283" stroke-miterlimit="10" stroke-dasharray="7.2621,2.9049,.581,2.9049"/><path class="st2" d="M345.6 140.5h3.6"/></g><g id="Guides"><path class="st5" d="M18.7 90.5h3.9l-2-8.7-1.9 8.7zm3.9 99.9h-3.9l1.9 8.8 2-8.8z"/><path class="st6" d="M20.6 88.8v103.6"/><path class="st7" d="M116.4 81.7H18.3m98.1 117.5H18.3"/><path class="st5" d="M39.1 93.8H43l-1.9-9.2-2 9.2zM43 187h-3.9l2 9.2L43 187z"/><path class="st6" d="M41.1 93v94"/><path class="st7" d="M158.2 196.5H38.7m119.5-112H38.7"/><path class="st5" d="M149.3 54.1V58l8.9-1.9-8.9-2zM121.2 58v-3.9l-8.9 2 8.9 1.9z"/><path class="st6" d="M149.7 56h-28.4m36.9 28.1V53.6"/><path class="st5" d="M149.7 244v3.9l9-1.9-9-2zm-28.4 3.9V244l-9 2 9 1.9z"/><path class="st6" d="M233.3 246H121m37.2 4v-52.7M112.3 250v-41.3"/><path class="st5" d="M152 35.4v3.9l9-2-9-1.9zm-30.7 3.9v-3.9l-9 1.9 9 2z"/><path class="st6" d="M152 37.3h-30.7m39.4 58.2V34.9"/><path class="st5" d="M121.3 20v-3.8l-9 1.9 9 1.9zm37.3-3.8V20l9-1.9-9-1.9z"/><path class="st6" d="M121.3 18.1h37.3m-46.2 56.1V15.8"/><path class="st7" d="M167.4 104.1V15.8"/><path class="st5" d="M64.7 96.1h3.8l-1.9-9-1.9 9zm3.8 88.9h-3.8l1.9 9 1.9-9z"/><path class="st6" d="M66.6 96.1V185"/><path class="st7" d="M160.6 194H64.3m96.3-107.1H64.3"/><path class="st5" d="M90.2 115.7H94l-1.9-9-1.9 9zm3.8 49.4h-3.8l1.9 9 1.9-9z"/><path class="st6" d="M92.1 112v57.1"/><path class="st7" d="M209.8 174.2h-120m120.6-67.6H89.8"/></g><g id="Text"><text transform="rotate(-90 98.016 84.89)" class="st8 st9">C-mount thread</text><text transform="rotate(-90 105.365 69.739)" class="st8 st9">max. Ø 23.1</text><text transform="translate(279.165 235.27)" class="st8 st10">Not to scale</text><text transform="translate(279.165 249.67)" class="st8 st10">Dimensions in mm</text><text transform="translate(129.118 15.042)" class="st8 st9">11.4</text><text transform="translate(128.025 53.526)" class="st8 st9">9.6</text><text transform="translate(170.919 241.447)" class="st8 st9">Thread: 9.6</text><text transform="translate(125.474 33.817)" class="st8 st9">10.2</text><text transform="rotate(-90 118.12 56.983)" class="st8 st9">max. Ø 22.5</text><text transform="rotate(-90 128.375 41.725)" class="st8 st9">max. Ø 14</text></g></svg>