<svg version="1.0" xmlns="http://www.w3.org/2000/svg" viewBox="0 0 510 440"><path fill="none" stroke="#000" stroke-width=".253" stroke-linecap="square" stroke-miterlimit="10" d="M52.9 101.4h425.2"/><path d="M53.1 15.1h424.8v1.2H53.1z"/><path fill="none" stroke="#000" stroke-width=".253" stroke-linecap="square" stroke-miterlimit="10" d="M106.5 15.7v370.5m52.6-370.5v370.5m53.9-370v370m52.4-370.5v370.5M319 15.9v370.3m53.2-369.7v369.7m53.3-370.3v370.3M52.9 72.6h425.2M52.9 43.8h425.2"/><path d="M477.3 15.1h1.2v370.7h-1.2z"/><path d="M477.9 101.5h.6v.6h-1.2l.6.6v-1.2zM53.1 385.2h424.8v1.2H53.1z"/><path d="M478.5 385.8v.6h-.6v-1.2l-.6.6h1.2zM52.5 15.1h1.2v370.7h-1.2z"/><path d="M53.1 386.4h-.6v-.6h1.2l-.6-.6v1.2zm-.6-284.3v-.6h.6v1.2l.6-.6h-1.2z"/><path fill="none" stroke="#000" stroke-width=".253" stroke-linecap="square" stroke-miterlimit="10" d="M52.9 130.2h425.2m-425 28.9h425M52.9 187.6h425.2M52.9 216.5h425.2M52.9 244.4h425M52.7 272.3h425M52.9 301h425m-425 28h425M53.1 357.3h425"/><g fill="none" stroke-miterlimit="10"><path stroke="#00F" stroke-dasharray="12,2,2,2" d="M95.9 292.6c2.3-19.8 7.3-39 11.3-58.6 4.3-21.1 9-42.6 16-63 6.7-19.3 14-39.2 23.1-57.5 2.9-5.9 6.2-12.5 11.1-17.1 6-5.7 13.8-2.8 19.2 2.4 13.7 13.3 16.3 31.8 21.1 49.5 5.6 20.6 10 41.1 14.2 62 4.2 21.2 9.3 42.1 13.5 63.3 3.9 19.8 9.7 38.2 20.2 55.5 5.3 8.7 10.4 19 18.5 25.4 7.4 5.8 15.3 7.9 24.2 10.5 11.2 3.3 23 3.7 34.5 5.3 8.4 1.1 16.6 3 25.1 2.9 9.1-.1 18.7-2.7 27.5-4.7 11.4-2.7 22.9-4.6 34.3-7 10-2.1 22-2 32.1-.4 5.3.8 10.4 3 15.8 3.4 6.4.5 13.4-.7 19.8-1.1"/><path stroke="#0F0" stroke-dasharray="3,3,3,3" d="M95.9 373.8c6.5.8 13.7 2.7 20.2 2.3 7.4-.5 14.8-.9 22.3-1.4 4.6-.3 9.2-.6 13.7-.9 3.3-.2 7-3 9.9-4.5 6.1-3 10.7-9.3 15.1-14.4s8.6-10.5 12.8-15.8c5.5-7 8.9-12.4 12.4-20.5 5.7-13.5 7.5-29.1 10.5-43.5 5.8-27.6 10.2-55.7 12.7-83.8 2.6-28.4 4.9-57.1 9.8-85.1 2.7-15.6 4.6-31.4 9.6-46.5 2.4-7.4 4.8-14.6 7.8-21.8 1.1-2.8 4.2-4.6 7-3.5 5.3 2 6.2 3.1 9.5 7.7 7.2 10.3 11 24.6 15 36.3 5.3 15.4 10.3 30.5 14.5 46.2 7.8 28.9 13.6 58.2 19.5 87.5 2.7 13.2 4.5 26.6 6.6 40 2.4 14.9 5.8 28.5 9.7 43.1 3.8 13.9 6.5 28.9 15.1 41 2.4 3.4 4.9 6.8 7.3 10.2 1.9 2.7 6.9 4.4 9.7 6.1 7.1 4.3 12.2 4.7 20.4 4.7 6.3 0 13.9-7 18.6-10.6 5.2-4 9.7-10.4 14-15.4 4-4.6 10.3-9.8 16.7-10 7.8-.2 15.5-.3 23.3-.9 2.6-.2 7 .4 9.3-1 3.3-2 6.5-4 9.8-6"/><path stroke="red" d="M95.9 337c8.3 5.5 16.7 11 25.1 16.2 7.8 4.8 15.6 10.5 24.4 13 4.5 1.3 9.1 2.7 13.6 3.8 4.4 1.2 9.9 3.7 14.5 3.7 10.7 0 21.1-.2 31.7-1 4.6-.3 8.3-.7 12.7-2.1 2.7-.8 5.4-1.6 8-2.4 1.9-.6 3.8-2.7 5.3-3.9 4.5-3.3 7-5.4 12.7-5.5 4.6-.1 8.6 1.6 12.9 3.3 5.5 2.1 9.7 3.4 15.5 4.2 3.4.5 7.4-5.1 9.1-8.1 2.2-4.1 4.9-7.6 5.4-12.3.7-6.5 1.3-13 2-19.5 2-19.7 3-39.6 4.7-59.3 1.6-18.6 4.1-37 5-55.6.9-19.3 3.1-38.3 4.7-57.5 1.8-21.8 3.4-43.5 4.9-65.3.7-9.5 2.9-19 4.4-28.3.7-4.4 1.3-8.9 1.9-13.4.4-2.6 4.1-8.9 7.1-7.8 2.6 1 4.1 1.4 5.5 3.7 1.3 2.1 4.4 4.5 6 6.3 3 3.5 6 6.8 8.7 10.6 6.1 8.9 12.4 17.4 19 25.9 12.1 15.6 25 30.4 36.6 46.3 6.2 8.4 13.1 15.5 20.3 23 6 6.2 10.4 14.5 15.4 21.6 5.7 8.1 11 16.6 18.3 23.3 1.6 1.4 3.5 4.1 5.5 5 1.7.8 4.7.5 6.5.7 4.9.5 9.7 1 14.6 1"/></g><g clip-rule="evenodd"><path fill-rule="evenodd" fill="#1D1D1B" d="M378.8 231.5h117.1v76.2H378.8z"/><path fill="none" stroke="#1D1D1B" stroke-width="1.117" stroke-miterlimit="3.864" d="M378.8 231.5h117.1v76.2H378.8z"/></g><g clip-rule="evenodd"><path fill-rule="evenodd" fill="#FFF" d="M375.3 227.9h117.1v76.2H375.3z"/><path fill="none" stroke="#1D1D1B" stroke-width="1.117" stroke-miterlimit="3.864" d="M375.3 227.9h117.1v76.2H375.3z"/></g><path clip-rule="evenodd" fill="none" stroke="#00F" stroke-miterlimit="3.864" stroke-dasharray="12,2,2,2" d="M385.8 244.1h42.3"/><path clip-rule="evenodd" fill="none" stroke="#0F0" stroke-miterlimit="3.864" stroke-dasharray="2,2" d="M385.8 268.2h42.3"/><path clip-rule="evenodd" fill="none" stroke="red" stroke-miterlimit="3.864" stroke-dasharray="72" d="M385.8 292.5h42.3"/><text transform="translate(440.917 247.234)" fill="#1D1D1B" font-family="Helvetica,Arial,sans-serif" font-size="12">Blue</text><text transform="translate(440.917 272.531)" fill="#1D1D1B" font-family="Helvetica,Arial,sans-serif" font-size="12">Green</text><text transform="translate(440.917 295.281)" fill="#1D1D1B" font-family="Helvetica,Arial,sans-serif" font-size="12">Red</text><text transform="translate(225.19 425.664)" font-family="Helvetica,Arial,sans-serif" font-size="12">Wavelength (nm)</text><text transform="rotate(-90 143.403 126.313)" fill="#1D1D1B" font-family="Helvetica,Arial,sans-serif" font-size="12">Quantum Efficiency (%)</text><path fill="none" d="M42.9 393.1H66v13.3H42.9z"/><text transform="translate(42.938 401.532)" fill="#1D1D1B" font-family="Helvetica,Arial,sans-serif" font-size="8">350</text><path fill="none" d="M97.8 393.1h23.1v13.3H97.8z"/><text transform="translate(97.775 401.532)" fill="#1D1D1B" font-family="Helvetica,Arial,sans-serif" font-size="8">400</text><path fill="none" d="M152.4 393.1h23.1v13.3h-23.1z"/><text transform="translate(152.449 401.532)" fill="#1D1D1B" font-family="Helvetica,Arial,sans-serif" font-size="8">450</text><path fill="none" d="M205 393.1h23.2v13.3H205z"/><text transform="translate(204.956 401.532)" fill="#1D1D1B" font-family="Helvetica,Arial,sans-serif" font-size="8">500</text><path fill="none" d="M261.2 393.1h23.2v13.3h-23.2z"/><text transform="translate(261.212 401.532)" fill="#1D1D1B" font-family="Helvetica,Arial,sans-serif" font-size="8">550</text><path fill="none" d="M313.5 393.1h23.1v13.3h-23.1z"/><text transform="translate(313.468 401.532)" fill="#1D1D1B" font-family="Helvetica,Arial,sans-serif" font-size="8">600</text><path fill="none" d="M369.1 393.1h23.2v13.3h-23.2z"/><text transform="translate(369.14 401.532)" fill="#1D1D1B" font-family="Helvetica,Arial,sans-serif" font-size="8">650</text><path fill="none" d="M422.2 393.1h23.1v13.3h-23.1z"/><text transform="translate(422.232 401.532)" fill="#1D1D1B" font-family="Helvetica,Arial,sans-serif" font-size="8">700</text><path fill="none" d="M473.5 393.1h23.2v13.3h-23.2z"/><text transform="translate(473.487 401.532)" fill="#1D1D1B" font-family="Helvetica,Arial,sans-serif" font-size="8">750</text><path fill="none" d="M42.1 379.1h7.7v13.3h-7.7z"/><text transform="translate(42.073 387.59)" fill="#1D1D1B" font-family="Helvetica,Arial,sans-serif" font-size="8">0</text><path fill="none" d="M42.1 353.8h7.7v13.3h-7.7z"/><text transform="translate(42.073 362.209)" fill="#1D1D1B" font-family="Helvetica,Arial,sans-serif" font-size="8">5</text><path fill="none" d="M34.4 324h15.4v13.3H34.4z"/><text transform="translate(34.365 332.41)" fill="#1D1D1B" font-family="Helvetica,Arial,sans-serif" font-size="8">10</text><path fill="none" d="M34.4 296.6h15.4v13.3H34.4z"/><text transform="translate(34.365 305.027)" fill="#1D1D1B" font-family="Helvetica,Arial,sans-serif" font-size="8">15</text><path fill="none" d="M34.4 267.8h15.4v13.3H34.4z"/><text transform="translate(34.365 276.228)" fill="#1D1D1B" font-family="Helvetica,Arial,sans-serif" font-size="8">20</text><path fill="none" d="M34.4 237.4h15.4v13.3H34.4z"/><text transform="translate(34.365 245.845)" fill="#1D1D1B" font-family="Helvetica,Arial,sans-serif" font-size="8">25</text><path fill="none" d="M34.4 210h15.4v13.3H34.4z"/><text transform="translate(34.365 218.463)" fill="#1D1D1B" font-family="Helvetica,Arial,sans-serif" font-size="8">30</text><path fill="none" d="M34.4 182.8h15.4v13.3H34.4z"/><text transform="translate(34.365 191.245)" fill="#1D1D1B" font-family="Helvetica,Arial,sans-serif" font-size="8">35</text><path fill="none" d="M34.4 151.6h15.4v13.3H34.4z"/><text transform="translate(34.365 160.027)" fill="#1D1D1B" font-family="Helvetica,Arial,sans-serif" font-size="8">40</text><path fill="none" d="M34.4 122.2h15.4v13.3H34.4z"/><text transform="translate(34.365 130.646)" fill="#1D1D1B" font-family="Helvetica,Arial,sans-serif" font-size="8">45</text><path fill="none" d="M34.4 95.8h15.4v13.3H34.4z"/><text transform="translate(34.365 104.264)" fill="#1D1D1B" font-family="Helvetica,Arial,sans-serif" font-size="8">50</text><path fill="none" d="M34.4 66.6h15.4v13.3H34.4z"/><text transform="translate(34.365 75.004)" fill="#1D1D1B" font-family="Helvetica,Arial,sans-serif" font-size="8">55</text><path fill="none" d="M34.4 38.6h15.4v13.3H34.4z"/><text transform="translate(34.365 47.004)" fill="#1D1D1B" font-family="Helvetica,Arial,sans-serif" font-size="8">60</text><path fill="none" d="M34.4 10.2h15.4v13.3H34.4z"/><text transform="translate(34.365 18.671)" fill="#1D1D1B" font-family="Helvetica,Arial,sans-serif" font-size="8">65</text></svg>