<svg version="1.0" xmlns="http://www.w3.org/2000/svg" viewBox="0 0 1000 340"><path clip-rule="evenodd" fill="none" stroke="#000" stroke-miterlimit="3.864" d="M264.2 201.7h19.5"/><g clip-rule="evenodd"><path fill-rule="evenodd" d="M264.2 190.1h19.5l-9.8 9.7z"/><path fill="none" stroke="#000" stroke-linejoin="round" stroke-miterlimit="3.864" d="M264.2 190.1h19.5l-9.8 9.7z"/></g><g clip-rule="evenodd"><path fill-rule="evenodd" d="M322.6 196.6v-6l15.1 6-15.1 6z"/><path fill="none" stroke="#000" stroke-linejoin="round" stroke-miterlimit="3.864" d="M298.3 203.9h20.6l-10.4-7.3h15.1"/></g><path fill="none" stroke="#000" stroke-linejoin="round" stroke-miterlimit="3.864" d="M243.6 165.4H394v62.9H243.6v-62.9z"/><path clip-rule="evenodd" fill="none" stroke="#000" stroke-miterlimit="3.864" d="M238.1 177.5H274l-.1-.4v39"/><path clip-rule="evenodd" fill="none" stroke="#000" stroke-linejoin="round" stroke-miterlimit="3.864" d="M522.6 258.5h39.9m-194.5-41h138.9m-152.2-34.9v29.8m.1-8.6l13.6 13.6m-132.9-1.2h38.7m246.8-12V177m2 82.4v-27.3m38.9 26.7v-52.3m-194-29.7h286.7"/><path d="M516.4 178.2c0-2.7 2.2-4.9 4.9-4.9s4.9 2.2 4.9 4.9-2.2 4.9-4.9 4.9-4.9-2.2-4.9-4.9z"/><path fill="none" stroke="#000" stroke-width=".5" stroke-miterlimit="3.864" d="M516.4 178.2c0-2.7 2.2-4.9 4.9-4.9s4.9 2.2 4.9 4.9-2.2 4.9-4.9 4.9-4.9-2.2-4.9-4.9z"/><g clip-rule="evenodd"><path fill-rule="evenodd" d="M358.4 214.2l6.9-6.9v6.9z"/><path fill="none" stroke="#000" stroke-linejoin="round" stroke-miterlimit="3.864" d="M358.4 214.2l6.9-6.9v6.9z"/></g><path clip-rule="evenodd" fill="none" stroke="#000" stroke-linejoin="round" stroke-miterlimit="3.864" d="M354.7 190.6l13.6-13.6M507 202.7v29.9m.1-15.2l13.6 13.6"/><g clip-rule="evenodd"><path fill-rule="evenodd" fill="#FFF" d="M511.4 232.6l10.9-10.9v10.9z"/><path fill="none" stroke="#000" stroke-linejoin="round" stroke-miterlimit="3.864" d="M511.4 232.6l10.9-10.9v10.9z"/></g><path clip-rule="evenodd" fill="none" stroke="#000" stroke-linejoin="round" stroke-miterlimit="3.864" d="M507 217l13.6-13.6"/><text transform="translate(473.639 207.646)" font-family="Helvetica,Arial,sans-serif" font-size="18.005">Q1</text><text transform="translate(655.778 33.619)"><tspan x="0" y="0" font-family="Helvetica,Arial,sans-serif" font-size="18.005">6-pin </tspan><tspan x="-22.1" y="19.3" font-family="Helvetica,Arial,sans-serif" font-size="18.005">receptacle</tspan></text><path fill="none" stroke="#000" stroke-linejoin="round" stroke-miterlimit="3.864" d="M654.8 68h32.5v182.6h-32.5V68z"/><text transform="translate(664.593 96.227)" font-family="Helvetica,Arial,sans-serif" font-size="18.005">1</text><text transform="translate(664.593 125.154)" font-family="Helvetica,Arial,sans-serif" font-size="18.005">2</text><text transform="translate(664.593 154.08)" font-family="Helvetica,Arial,sans-serif" font-size="18.005">3</text><text transform="translate(664.593 183.004)" font-family="Helvetica,Arial,sans-serif" font-size="18.005">4</text><text transform="translate(664.593 211.933)" font-family="Helvetica,Arial,sans-serif" font-size="18.005">5</text><text transform="translate(664.593 240.857)" font-family="Helvetica,Arial,sans-serif" font-size="18.005">6</text><path fill="none" stroke="#000" stroke-width=".5" stroke-linejoin="round" stroke-miterlimit="3.864" stroke-dasharray="8,4" d="M15.6 70.1h639.2v248.7H15.6V70.1z"/><text transform="translate(33.694 108.057)" font-family="Helvetica,Arial,sans-serif" font-weight="bold" font-size="22.744">Camera</text><text transform="translate(274.155 157.202)" font-family="Helvetica,Arial,sans-serif" font-size="18.005">Optocoupler</text><path clip-rule="evenodd" fill="none" stroke="#000" stroke-linejoin="round" stroke-miterlimit="3.864" d="M560.8 206.5h94.3"/><path clip-rule="evenodd" fill="none" stroke="#000" stroke-width=".9" stroke-linejoin="round" stroke-miterlimit="3.864" stroke-dasharray="8,4" d="M135.7 216.1h99.8"/><path clip-rule="evenodd" fill="none" stroke="#000" stroke-linejoin="round" stroke-miterlimit="3.864" stroke-dasharray="8,4" d="M135.7 177.4h102.6"/><text transform="translate(53.672 190.659)"><tspan x="0" y="0" font-family="Helvetica,Arial,sans-serif" font-size="18.953">Further</tspan><tspan x="0" y="22.7" font-family="Helvetica,Arial,sans-serif" font-size="18.953">circuitry</tspan></text><path clip-rule="evenodd" fill="none" stroke="#000" stroke-miterlimit="3.864" d="M783 310V206"/><path clip-rule="evenodd" fill="none" stroke="#000" stroke-linejoin="round" stroke-miterlimit="3.864" d="M783.4 206.5h-96.1"/><g fill="none" stroke="#000" stroke-linejoin="round" stroke-miterlimit="3.864"><path clip-rule="evenodd" d="M792 310h-17.9"/><path d="M777.4 313.8h11.3m-8.8 3.9h6.3"/></g><g clip-rule="evenodd"><path fill-rule="evenodd" d="M851.3 176.8v-6l16.2 6-16.2 6z"/><path fill="none" stroke="#000" stroke-width="1.001" stroke-linejoin="round" stroke-miterlimit="3.864" d="M852.4 176.8H687.3"/></g><path clip-rule="evenodd" fill="none" stroke="#000" stroke-miterlimit="3.864" d="M782.8 176.2V48.1"/><path fill="#FFF" d="M773.6 95.2h19.5v58.5h-19.5V95.2z"/><path fill="none" stroke="#000" stroke-miterlimit="3.864" d="M773.6 95.2h19.5v58.5h-19.5V95.2z"/><path d="M778.1 176.9c0-2.7 2.2-4.9 4.9-4.9s4.9 2.2 4.9 4.9-2.2 4.9-4.9 4.9-4.9-2.2-4.9-4.9z"/><path fill="none" stroke="#000" stroke-width=".5" stroke-miterlimit="3.864" d="M778.1 176.9c0-2.7 2.2-4.9 4.9-4.9s4.9 2.2 4.9 4.9-2.2 4.9-4.9 4.9-4.9-2.2-4.9-4.9z"/><text transform="translate(870.732 158.522)"><tspan x="0" y="0" font-family="Helvetica,Arial,sans-serif" font-size="18.005">Voltage</tspan><tspan x="4.7" y="19.3" font-family="Helvetica,Arial,sans-serif" font-size="18.005">output</tspan><tspan x="6.8" y="38.5" font-family="Helvetica,Arial,sans-serif" font-size="18.005">signal</tspan></text><g fill="none" stroke="#000" stroke-linejoin="round" stroke-miterlimit="3.864"><path clip-rule="evenodd" d="M972.4 310h-17.9"/><path d="M957.8 313.8h11.3m-8.8 3.9h6.3"/></g><path fill="none" stroke="#000" stroke-miterlimit="3.864" d="M782.6 48.8V22.3h180.8V310"/><text transform="translate(885.33 71.232)"><tspan x="0" y="0" font-family="Helvetica,Arial,sans-serif" font-size="18.005">3.3–24 </tspan><tspan x="11" y="19.3" font-family="Helvetica,Arial,sans-serif" font-size="18.005">VDC</tspan></text><g clip-rule="evenodd" stroke="#000" stroke-linejoin="round" stroke-miterlimit="3.864"><path fill-rule="evenodd" fill="#FFF" d="M975.7 73.2c0 7-5.7 12.6-12.6 12.6s-12.6-5.7-12.6-12.6c0-7 5.7-12.6 12.6-12.6s12.6 5.7 12.6 12.6z"/><path d="M956.1 71.2H970m-13.9 4H970" fill="none"/></g><text transform="translate(966.086 58.392)" font-family="Helvetica,Arial,sans-serif" font-size="18.953">+</text><text transform="translate(966.045 100.122)" font-family="Helvetica,Arial,sans-serif" font-size="18.953">-</text><path clip-rule="evenodd" fill="none" stroke="#000" stroke-miterlimit="3.864" d="M601.4 176.8v29.7"/><g clip-rule="evenodd"><path fill-rule="evenodd" d="M611.1 197.8h-19.5l9.8-11.5z"/><path fill="none" stroke="#000" stroke-width=".003" stroke-linejoin="round" stroke-miterlimit="3.864" d="M611.1 197.8h-19.5l9.8-11.5z"/><path fill="none" stroke="#000" stroke-width=".85" stroke-miterlimit="3.864" d="M595.6 186.7H607m-.3-.1l3.4 3.4m-17.6-6.5l3.4 3.4"/></g><path d="M596.5 176.8c0-2.7 2.2-4.9 4.9-4.9s4.9 2.2 4.9 4.9-2.2 4.9-4.9 4.9-4.9-2.2-4.9-4.9z"/><path fill="none" stroke="#000" stroke-width=".5" stroke-miterlimit="3.864" d="M596.5 176.8c0-2.7 2.2-4.9 4.9-4.9s4.9 2.2 4.9 4.9-2.2 4.9-4.9 4.9-4.9-2.2-4.9-4.9z"/><path d="M596.4 206.5c0-2.7 2.2-4.9 4.9-4.9s4.9 2.2 4.9 4.9-2.2 4.9-4.9 4.9-4.9-2.2-4.9-4.9z"/><path fill="none" stroke="#000" stroke-width=".5" stroke-miterlimit="3.864" d="M596.4 206.5c0-2.7 2.2-4.9 4.9-4.9s4.9 2.2 4.9 4.9-2.2 4.9-4.9 4.9-4.9-2.2-4.9-4.9z"/></svg>