<svg version="1.0" xmlns="http://www.w3.org/2000/svg" viewBox="0 0 520 342.5"><path fill="none" stroke="#000" stroke-width=".709" stroke-miterlimit="3.864" d="M63.6 18h437v283.2h-437V18z"/><path clip-rule="evenodd" fill="none" stroke="#000" stroke-width=".227" stroke-miterlimit="3.864" d="M63.7 45.8h437.1M63.6 74.6h437.1m-437 28.1h437.1M63.6 131h437.1m-437 28.2h437.1m-437 28.9h437.1M63.5 216.2h437.1M63.7 244.4h437.1M63.6 272.5h437.1M136.3 18v283.4m73.1-283.3v283.4m73.2-283.6v283.4m72.2-283.4v283.4m73-283.1v283.4"/><g clip-rule="evenodd"><path fill-rule="evenodd" d="M366.4 122.6h113.9v73.6H366.4z"/><path fill="none" stroke="#000" stroke-width="1.117" stroke-miterlimit="3.864" d="M366.4 122.6h113.9v73.6H366.4z"/></g><g clip-rule="evenodd"><path fill-rule="evenodd" fill="#FFF" d="M363 119.1h113.9v73.6H363z"/><path fill="none" stroke="#000" stroke-width="1.117" stroke-miterlimit="3.864" d="M363 119.1h113.9v73.6H363z"/></g><path clip-rule="evenodd" fill="none" stroke="#2950A3" stroke-miterlimit="3.864" stroke-dasharray="12,2,2,2" d="M373.3 134.7h41.1"/><path clip-rule="evenodd" fill="none" stroke="#55B956" stroke-miterlimit="3.864" stroke-dasharray="2,2" d="M373.3 158h41.1"/><path clip-rule="evenodd" fill="none" stroke="#F04A3A" stroke-miterlimit="3.864" stroke-dasharray="72" d="M373.3 181.5h41.1"/><g font-family="Helvetica,Arial,sans-serif"><text transform="translate(47.523 21.609)" font-size="8">1.0</text><text transform="translate(47.523 47.609)" font-size="8">0.9</text><text transform="translate(47.523 78.609)" font-size="8">0.8</text><text transform="translate(47.523 106.609)" font-size="8">0.7</text><text transform="translate(47.523 133.609)" font-size="8">0.6</text><text transform="translate(47.523 163.609)" font-size="8">0.5</text><text transform="translate(47.523 190.609)" font-size="8">0.4</text><text transform="translate(47.523 219.609)" font-size="8">0.3</text><text transform="translate(54.523 314.609)" font-size="8">400</text><text transform="translate(128.523 314.609)" font-size="8">450</text><text transform="translate(203.523 314.609)" font-size="8">500</text><text transform="translate(276.523 314.609)" font-size="8">550</text><text transform="translate(349.523 314.609)" font-size="8">600</text><text transform="translate(423.523 314.609)" font-size="8">650</text><text transform="translate(490.523 314.609)" font-size="8">700</text><text transform="translate(47.523 247.609)" font-size="8">0.2</text><text transform="translate(47.523 276.609)" font-size="8">0.1</text><text transform="translate(52.523 303.609)" font-size="8">0</text><text transform="rotate(-90 119.128 92.633)" fill="#131718" font-size="12">Relative Response</text><text transform="translate(428.87 139.105)" fill="#131718" font-size="12">Blue</text><text transform="translate(428.87 159.966)" fill="#131718" font-size="12">Green</text><text transform="translate(428.87 184.152)" fill="#131718" font-size="12">Red</text><text transform="translate(226.096 333.468)" font-size="12">Wavelength (nm)</text></g><g clip-rule="evenodd" fill="none" stroke-miterlimit="3.864"><path stroke="#2950A3" stroke-dasharray="12,2,2,2" d="M64.3 220.6l5.1-11 6.2-16 7.1-16.2 8.6-21 7.4-14 7.3-14.6 10.6-18 8.6-12.6 8.7-10.7 9.7-7.9 9.6-6.1 7.4-2.6 7.3-.7 6.7 1.3 7.6 6.4 7.9 8 7.4 11.6 8.3 14.7 4.7 9.6 4.6 13 4.4 13.3 3 15 4.6 20.6 4.7 18.3 5.3 17.3 5 13.3 5.7 14 5.9 11.3 5.7 11.1 8.6 10.6 7.4 6.9 10 8.1 8.3 4.9 7 1 11.3 1 7.6.7"/><path stroke="#55B956" stroke-dasharray="2,2" d="M63.8 291.8l8.5-1 13.4-2.9 16.7-6.4 15.2-9.1 14.4-10.5 7.3-6.6 10-14.4 11.6-18 12.2-22.1 14.1-27.8 13-24.6 9.8-27.1 4.5-13.7 3.5-18.5 4.7-15.5 4.8-14.8 6.7-15.5 5.9-11.6 5-6.9 5-5 6.2-.3 5.7.3 6.3 3.6 9.7 8.3 7.9 11.6 8.4 15.9 10.8 23.1 10.2 25.7 8.2 22.8 7.6 21.9 7.5 27.1 7 24.9 6.5 23.9 4.3 13.4 5 12.2 6.6 13.4 8.6 9.4 7.3 7.7 9.4 5.7 11.9 4.1 12 2.1h14.4l11.9-2.1 11.6-1.2 10.4-2.9 7.6-2.1 8.7-4.7 9.3-6.2 8.7-5.4"/><path stroke="#F04A3A" d="M64.1 296.9l19.8 1.8 17.2 1.2 17.8.3 19-.3 14.4-1.5 26.2-1.5 19.8-1.8 8.2-.9 5.1-.4 9-3 10.9-1.2 12.1-2.1 12.3-.9 10.3 1.8h10.2l9-4.4 6.7-5.8 6.5-6.6 5.2-11.4 4.5-14.8 4.5-23.2 3.6-18.7 7.8-48.8 4.6-26.8 3.3-19.5 3.9-15.6 4.5-13.6 5.1-15.7 4.2-12.4 3.7-6.8 6.3-3.7 6-1.5 7.8-.6 6.7 2.4 8.3 4.6 8.2 5.9 10.9 7.6 12.6 7.6 12.1 8 7.4 5.5 13.3 10.2 8.4 5.7 15.4 10 23.2 11.5"/></g></svg>