<svg version="1.0" xmlns="http://www.w3.org/2000/svg" viewBox="0 0 190 190"><path fill="none" stroke="#FFF" stroke-width=".003" stroke-miterlimit="3.864" d="M10.1 35.7h148v147h-148v-147z"/><path clip-rule="evenodd" fill="none" stroke="#000" stroke-width=".283" stroke-linecap="round" stroke-linejoin="round" stroke-miterlimit="10" d="M150.2 180.8h-1.6v-.6"/><path clip-rule="evenodd" fill="none" stroke="#000" stroke-width=".283" stroke-linecap="round" stroke-linejoin="bevel" stroke-miterlimit="10" d="M150.2 180.6l1.4-.2 1.5-.7 1-1.1.7-1.4.2-1.4"/><path clip-rule="evenodd" fill="none" stroke="#000" stroke-width=".283" stroke-linecap="round" stroke-linejoin="round" stroke-miterlimit="10" d="M155 159.6v16.2m-6.4 5H17m2 0v-.6m5 .6v-.6m-5.3.6v-.6m-6.5-4.4v-16.2"/><path clip-rule="evenodd" fill="none" stroke="#000" stroke-width=".283" stroke-linecap="round" stroke-linejoin="bevel" stroke-miterlimit="10" d="M12.2 175.8l.2 1.4.7 1.4 1.1 1.1 1.4.7 1.5.2"/><path clip-rule="evenodd" fill="none" stroke="#000" stroke-width=".283" stroke-linecap="round" stroke-linejoin="round" stroke-miterlimit="10" d="M148.2 180.8v-.6m-4.9.6v-.6m-103.1.6v-.6m4.8.6v-.6m.2.6v-.6m8.9.6v-.6m23 .6v-.6m13 .6v-.6m23 .6v-.6m8.9.6v-.6m.2.6v-.6m5 .6v-.6M155 156v-.5m-142.8 0v.5"/><path clip-rule="evenodd" fill="none" stroke="#000" stroke-width=".283" stroke-linecap="round" stroke-linejoin="bevel" stroke-miterlimit="10" d="M17.1 38l-1.5.2-1.4.7-1.1 1-.7 1.5-.2 1.4"/><path clip-rule="evenodd" fill="none" stroke="#000" stroke-width=".283" stroke-linecap="round" stroke-linejoin="round" stroke-miterlimit="10" d="M12.2 42.8V156m142.8 0V42.8m-137.9-5l.1.2m133-.2H17.1m133.1 0l-.2.2"/><path clip-rule="evenodd" fill="none" stroke="#000" stroke-width=".283" stroke-linecap="round" stroke-linejoin="bevel" stroke-miterlimit="10" d="M155 42.8l-.2-1.4-.7-1.5-1-1-1.5-.7-1.4-.2"/><path clip-rule="evenodd" fill="none" stroke="#000" stroke-width=".283" stroke-linecap="round" stroke-linejoin="round" stroke-miterlimit="10" d="M154.5 71.3h.5m-.2 9.8v-.2c.3-6.3.3-13 0-19.3v-.2l-.2.2c-.2 6.6-.2 12.7 0 19.3l.2.2z"/><path clip-rule="evenodd" fill="none" stroke="#000" stroke-width=".283" stroke-linecap="round" stroke-linejoin="round" stroke-miterlimit="10" d="M154.7 80.9v-.4c-.3-5.9-.3-12.6 0-18.5v-.4m.3 113.8v-23.2m-142.8 0v23.2"/><path clip-rule="evenodd" fill="none" stroke="#000" stroke-width=".283" stroke-linecap="round" stroke-linejoin="bevel" stroke-miterlimit="10" d="M12.4 175.4l.2 1.4.7 1.5 1.1 1 1.4.8 1.4.1m133 0l1.4-.1 1.5-.8 1-1 .7-1.5.2-1.4"/><path clip-rule="evenodd" fill="none" stroke="#000" stroke-width=".283" stroke-linecap="round" stroke-linejoin="round" stroke-miterlimit="10" d="M155 152.2V42.8l-.3-1.8-1.1-1.6-1.6-1.1-2-.3m4.5 5.3l.5-.5m0 132.6h-.5m-141.7 0h-.6m0-132.6l.6.5m4.4 136.9h.6m0-141.7l-.6-.5M150 38l-.5.5m0 141.7h.7m4.3-4.8V43.3m-141.7 0v132.1c.2 2.1 1.8 4.6 4.1 4.8h.9M149.5 38.5H17.8c-2.3-.3-4.5 1.7-4.8 3.9l-.2.9"/><path clip-rule="evenodd" fill="none" stroke="#000" stroke-width=".283" stroke-linecap="round" stroke-linejoin="round" stroke-miterlimit="10" d="M124.9 39.9h25.3l.7.2c1.2.7 1.9 1.9 2.1 3.2v132.1l-.2.5v.5l-.7 1.1-.4.4-1.1.7-.5.2h-133l-.5-.2-1.1-.7-.4-.4-.4-.5-.5-1.6V43.3l.2-.5.2-.7.7-1.1.5-.5.5-.4.7-.2h85.4m47.1-1.4v1.4m-131.7 0v-1.4m-3.6 4.8h-1.4m1.4 132.1h-1.4m5 3.4v1.4m131.7-1.4v1.4m-131.7 0h131.7"/><path clip-rule="evenodd" fill="none" stroke="#000" stroke-width=".283" stroke-linecap="round" stroke-linejoin="round" stroke-miterlimit="10" d="M153.1 175.4h1.4v.7c-.6 1.8-2 4-4.1 4.1h-.9m3.6-136.9h1.4l-.2-.9c-.3-1.9-1.9-3.5-3.7-3.9h-1.1M12.2 42.8v109.4m0-109.4l.4-1.8 1.1-1.6 1.6-1.1 1.9-.3H150m-47 3.4l-.6-1.5m.6 1.5l5.1-1.5 5.6-.5 5.3.5 5.4 1.5"/><path clip-rule="evenodd" fill="none" stroke="#000" stroke-width=".283" stroke-linecap="round" stroke-linejoin="bevel" stroke-miterlimit="10" d="M127.9 165.3l2.5-.4c4.3-1 7-3.7 8-8l.4-2.5"/><path clip-rule="evenodd" fill="none" stroke="#000" stroke-width=".283" stroke-linecap="round" stroke-linejoin="round" stroke-miterlimit="10" d="M39.3 165.3h88.6"/><path clip-rule="evenodd" fill="none" stroke="#000" stroke-width=".283" stroke-linecap="round" stroke-linejoin="bevel" stroke-miterlimit="10" d="M28.5 154.4l.4 2.5c1 4.3 3.7 7 8 8l2.5.4"/><path clip-rule="evenodd" fill="none" stroke="#000" stroke-width=".283" stroke-linecap="round" stroke-linejoin="round" stroke-miterlimit="10" d="M28.5 132.3v22.1"/><path clip-rule="evenodd" fill="none" stroke="#000" stroke-width=".283" stroke-linecap="round" stroke-linejoin="bevel" stroke-miterlimit="10" d="M39.3 121.4l-2.5.4c-4.3 1-7 3.7-8 8l-.4 2.5"/><path clip-rule="evenodd" fill="none" stroke="#000" stroke-width=".283" stroke-linecap="round" stroke-linejoin="round" stroke-miterlimit="10" d="M127.9 121.4H39.3"/><path clip-rule="evenodd" fill="none" stroke="#000" stroke-width=".283" stroke-linecap="round" stroke-linejoin="bevel" stroke-miterlimit="10" d="M138.8 132.3l-.4-2.5c-1-4.3-3.7-7-8-8l-2.5-.4"/><path clip-rule="evenodd" fill="none" stroke="#000" stroke-width=".283" stroke-linecap="round" stroke-linejoin="round" stroke-miterlimit="10" d="M138.8 154.4v-22.1"/><path clip-rule="evenodd" fill="none" stroke="#000" stroke-width=".283" stroke-linecap="round" stroke-linejoin="bevel" stroke-miterlimit="10" d="M127.9 163.2l2-.2c3.8-1.3 5.3-2.8 6.6-6.6l.2-2"/><path clip-rule="evenodd" fill="none" stroke="#000" stroke-width=".283" stroke-linecap="round" stroke-linejoin="round" stroke-miterlimit="10" d="M136.8 132.3v22.1"/><path clip-rule="evenodd" fill="none" stroke="#000" stroke-width=".283" stroke-linecap="round" stroke-linejoin="bevel" stroke-miterlimit="10" d="M136.7 132.3l-.4-2.3-.9-2.2-1.2-1.8-2-1.2-2-.9-2.3-.4"/><path clip-rule="evenodd" fill="none" stroke="#000" stroke-width=".283" stroke-linecap="round" stroke-linejoin="round" stroke-miterlimit="10" d="M39.3 123.4h88.6"/><path clip-rule="evenodd" fill="none" stroke="#000" stroke-width=".283" stroke-linecap="round" stroke-linejoin="bevel" stroke-miterlimit="10" d="M39.3 123.5l-2 .2c-3.8 1.3-5.3 2.8-6.6 6.6l-.2 2"/><path clip-rule="evenodd" fill="none" stroke="#000" stroke-width=".283" stroke-linecap="round" stroke-linejoin="round" stroke-miterlimit="10" d="M30.4 154.4v-22.1"/><path clip-rule="evenodd" fill="none" stroke="#000" stroke-width=".283" stroke-linecap="round" stroke-linejoin="bevel" stroke-miterlimit="10" d="M30.6 154.4l.4 2.3.8 2.1 1.3 1.8 1.8 1.3 2.1.9 2.3.3"/><path clip-rule="evenodd" fill="none" stroke="#000" stroke-width=".283" stroke-linecap="round" stroke-linejoin="round" stroke-miterlimit="10" d="M127.9 163.3H39.3m97.5-8.9h1.1m-10 9.8v-.9"/><path clip-rule="evenodd" fill="none" stroke="#000" stroke-width=".283" stroke-linecap="round" stroke-linejoin="bevel" stroke-miterlimit="10" d="M127.9 164.2l2.2-.2 2.1-.7 1.8-1.3 1.6-1.6 1.2-1.7.8-2.2.1-2.1"/><path clip-rule="evenodd" fill="none" stroke="#000" stroke-width=".283" stroke-linecap="round" stroke-linejoin="round" stroke-miterlimit="10" d="M127.9 164.5H39.3v-.9m-9.9-9.2h1"/><path clip-rule="evenodd" fill="none" stroke="#000" stroke-width=".283" stroke-linecap="round" stroke-linejoin="bevel" stroke-miterlimit="10" d="M29.5 154.4l.2 2.1.7 2.2 1.3 1.7 1.6 1.6 1.8 1.3 2.1.7 2.1.2"/><path clip-rule="evenodd" fill="none" stroke="#000" stroke-width=".283" stroke-linecap="round" stroke-linejoin="round" stroke-miterlimit="10" d="M29.4 154.4v-22.1h1m8.9-10v1.1"/><path clip-rule="evenodd" fill="none" stroke="#000" stroke-width=".283" stroke-linecap="round" stroke-linejoin="bevel" stroke-miterlimit="10" d="M39.3 122.5l-2.1.2-2.1.7-1.8 1.2-1.6 1.6-1.3 1.8-.7 2.1-.2 2.2"/><path clip-rule="evenodd" fill="none" stroke="#000" stroke-width=".283" stroke-linecap="round" stroke-linejoin="round" stroke-miterlimit="10" d="M39.3 122.3h88.6v1.1m10 8.9h-1.1"/><path clip-rule="evenodd" fill="none" stroke="#000" stroke-width=".283" stroke-linecap="round" stroke-linejoin="bevel" stroke-miterlimit="10" d="M137.7 132.3l-.1-2.2-.8-2.1-1.2-1.8-1.6-1.6-1.8-1.2-2.1-.7-2.2-.2"/><path clip-rule="evenodd" fill="none" stroke="#000" stroke-width=".283" stroke-linecap="round" stroke-linejoin="round" stroke-miterlimit="10" d="M137.9 154.4v-22.1m-98.6-10h88.6"/><path clip-rule="evenodd" fill="none" stroke="#000" stroke-width=".283" stroke-linecap="round" stroke-linejoin="bevel" stroke-miterlimit="10" d="M137.7 132.3l-.1-2.2-.8-2.1-1.2-1.8-1.6-1.6-1.8-1.2-2.1-.7-2.2-.2"/><path clip-rule="evenodd" fill="none" stroke="#000" stroke-width=".283" stroke-linecap="round" stroke-linejoin="round" stroke-miterlimit="10" d="M137.9 132.3v22.1"/><path clip-rule="evenodd" fill="none" stroke="#000" stroke-width=".283" stroke-linecap="round" stroke-linejoin="bevel" stroke-miterlimit="10" d="M127.9 164.2l2.2-.2 2.1-.7 1.8-1.3 1.6-1.6 1.2-1.7.8-2.2.1-2.1"/><path clip-rule="evenodd" fill="none" stroke="#000" stroke-width=".283" stroke-linecap="round" stroke-linejoin="round" stroke-miterlimit="10" d="M138.8 154.4h-.9m-10 10v.9m0-.8H39.3v.9m-9.9-11h-.9"/><path clip-rule="evenodd" fill="none" stroke="#000" stroke-width=".283" stroke-linecap="round" stroke-linejoin="bevel" stroke-miterlimit="10" d="M29.5 154.4l.2 2.1.7 2.2 1.3 1.7 1.6 1.6 1.8 1.3 2.1.7 2.1.2"/><path clip-rule="evenodd" fill="none" stroke="#000" stroke-width=".283" stroke-linecap="round" stroke-linejoin="round" stroke-miterlimit="10" d="M29.4 154.4v-22.1h-.9m10.8-10v-.9"/><path clip-rule="evenodd" fill="none" stroke="#000" stroke-width=".283" stroke-linecap="round" stroke-linejoin="bevel" stroke-miterlimit="10" d="M39.3 122.5l-2.1.2-2.1.7-1.8 1.2-1.6 1.6-1.3 1.8-.7 2.1-.2 2.2"/><path clip-rule="evenodd" fill="none" stroke="#000" stroke-width=".283" stroke-linecap="round" stroke-linejoin="round" stroke-miterlimit="10" d="M127.9 122.3v-.9m10 10.9h.9m-81.1 17.8h54.7v1.4H57.7zm-3.6 0l1.1-1.1"/><path clip-rule="evenodd" fill="none" stroke="#000" stroke-width=".283" stroke-linecap="round" stroke-linejoin="bevel" stroke-miterlimit="10" d="M54.1 150.1l1.6 1.1 2 .3m-2.3-2.6l1 .8 1.3.2"/><path clip-rule="evenodd" fill="none" stroke="#000" stroke-width=".283" stroke-linecap="round" stroke-linejoin="round" stroke-miterlimit="10" d="M54.1 150.1l-2.8-3 1-.9 2.9 2.8m-5.3-5.3h1.4"/><path clip-rule="evenodd" fill="none" stroke="#000" stroke-width=".283" stroke-linecap="round" stroke-linejoin="bevel" stroke-miterlimit="10" d="M49.9 143.7l.3 1.9 1.1 1.7m.2-3.6l.1 1.2.9 1.1"/><path clip-rule="evenodd" fill="none" stroke="#000" stroke-width=".283" stroke-linecap="round" stroke-linejoin="round" stroke-miterlimit="10" d="M49.9 143.7v-3.6h1.4v3.6m3.5-8.6v1.5"/><path clip-rule="evenodd" fill="none" stroke="#000" stroke-width=".283" stroke-linecap="round" stroke-linejoin="bevel" stroke-miterlimit="10" d="M54.8 135.1l-1.6.2-1.2.7-1.3 1.3-.7 1.2-.1 1.6m4.9-3.4l-1.2.2-1.1.9-.9 1.1-.1 1.2"/><path clip-rule="evenodd" fill="none" stroke="#000" stroke-width=".283" stroke-linecap="round" stroke-linejoin="round" stroke-miterlimit="10" d="M54.8 135.1h57.6v1.5H54.8m62.6 3.5H116"/><path clip-rule="evenodd" fill="none" stroke="#000" stroke-width=".283" stroke-linecap="round" stroke-linejoin="bevel" stroke-miterlimit="10" d="M117.4 140.1l-.2-1.6-.7-1.2-1.2-1.3-1.3-.7-1.6-.2m3.4 5l-.2-1.2-.9-1.1-1-.9-1.3-.2"/><path clip-rule="evenodd" fill="none" stroke="#000" stroke-width=".283" stroke-linecap="round" stroke-linejoin="round" stroke-miterlimit="10" d="M117.4 140.1v6.4H116v-6.4"/><path clip-rule="evenodd" fill="none" stroke="#000" stroke-width=".283" stroke-linecap="round" stroke-linejoin="bevel" stroke-miterlimit="10" d="M112.4 151.5l1.6-.1 1.3-.8 1.2-1.2.7-1.3.2-1.6m-5 3.4l1.3-.2 1-.8.9-1.1.2-1.3"/><path clip-rule="evenodd" fill="none" stroke="#000" stroke-width=".283" stroke-linecap="round" stroke-linejoin="round" stroke-miterlimit="10" d="M51.5 143.7h-.2m.2-3.6h-.2m1 5.9v.2m2.9 2.7v.1m57.2.9v.2m-60.9-10v3.6m.8 2.3l2.9 2.9m57.2-12.3H54.8"/><path clip-rule="evenodd" fill="none" stroke="#000" stroke-width=".283" stroke-linecap="round" stroke-linejoin="bevel" stroke-miterlimit="10" d="M112.4 149.9l1.3-.2 1-.8.9-1.1.2-1.3"/><path clip-rule="evenodd" fill="none" stroke="#000" stroke-width=".283" stroke-linecap="round" stroke-linejoin="round" stroke-miterlimit="10" d="M116 146.5v-6.4"/><path clip-rule="evenodd" fill="none" stroke="#000" stroke-width=".283" stroke-linecap="round" stroke-linejoin="bevel" stroke-miterlimit="10" d="M115.8 140.1l-.2-1.2-.9-1.1-1-.9-1.3-.2"/><path clip-rule="evenodd" fill="none" stroke="#000" stroke-width=".283" stroke-linecap="round" stroke-linejoin="round" stroke-miterlimit="10" d="M127.9 164.2v.2m-88.6-.2v.2m52.4-22.3h11.6v.7H92.5m-4.1 0H63.9v-.7h25.3"/><path clip-rule="evenodd" fill="none" stroke="#000" stroke-width=".283" stroke-linecap="round" stroke-linejoin="round" stroke-miterlimit="10" d="M88.7 142.4l-1.8 2-2.6 3m6.2-5.7h-.2"/><path clip-rule="evenodd" fill="none" stroke="#000" stroke-width=".283" stroke-linecap="round" stroke-linejoin="bevel" stroke-miterlimit="10" d="M90.3 141.9l-1.6.7"/><path clip-rule="evenodd" fill="none" stroke="#000" stroke-width=".283" stroke-linecap="round" stroke-linejoin="round" stroke-miterlimit="10" d="M116 142.3h-.2m.2.9h-.9.3v-.2h.2v-.2l.2-.2v-.3m0-1.1h.2m-.2 0v1.1m-11.4 6.9v.7m-1.1 0v-1l.2.1h.2v.2h.7m-8.2.7v-.2l-.2-.1h-.2m1.5-.4v.7m-1.1 0v-1l.2.1h.2v.2h.7m-15.9 0v.7m-21.7-.7h21.7m-21.7 0v.7m21.7-.7h.7v-.2h.2v-.1 1m-30.8-7.6v.1l.1.2v.2l.4.4h.2-.7m60.4-6.5v.2h.2l.1.2m-57.2 0l.2-.2h.2l.2-.2m55.2-.1v.7m1.1-.7v1.2l-.2-.2v-.1h-.4l-.1-.2h-.4m-54.4-.7v.7m0 0h54.4m1.1 1.4v-.9m0 .9h.3H55h.6v-.2m0 0h56.3m-21.9.2h-.6l-.2.2"/><path clip-rule="evenodd" fill="none" stroke="#000" stroke-width=".283" stroke-linecap="round" stroke-linejoin="bevel" stroke-miterlimit="10" d="M113.8 140.3l-.3-1.1-1.1-.3m-57.4 0l-1.1.3-.3 1.1"/><path clip-rule="evenodd" fill="none" stroke="#000" stroke-width=".283" stroke-linecap="round" stroke-linejoin="round" stroke-miterlimit="10" d="M89.2 138.9v1.6m-1.4 3h-3.5m4.9-3.2h-4.9m0 2.5v.7m0-4.6v1.6"/><path clip-rule="evenodd" fill="none" stroke="#000" stroke-width=".283" stroke-linecap="round" stroke-linejoin="bevel" stroke-miterlimit="10" d="M115.4 140.3l-.1-1.2-.7-.9-.9-.7-1.3-.2"/><path clip-rule="evenodd" fill="none" stroke="#000" stroke-width=".283" stroke-linecap="round" stroke-linejoin="round" stroke-miterlimit="10" d="M112.4 137.1h-.2m0 0v1.6m.2 0h-.2m-27.9.2l-.2-.2h-.6m-27.9-.2v-1.9"/><path clip-rule="evenodd" fill="none" stroke="#000" stroke-width=".283" stroke-linecap="round" stroke-linejoin="bevel" stroke-miterlimit="10" d="M57.9 149.6l.7-.2"/><path clip-rule="evenodd" fill="none" stroke="#000" stroke-width=".283" stroke-linecap="round" stroke-linejoin="round" stroke-miterlimit="10" d="M115.8 141.2v-.4l-.2-.1v-.2l-.2-.2h-.3.9m-61-3.2v1.6m1.4-1.4h-.3l-.2.2h-.2l-.1.1v.2m58.2 2.5h1.3m-.7 0v2.9m.7 0h-1.3"/><path clip-rule="evenodd" fill="none" stroke="#000" stroke-width=".283" stroke-linecap="round" stroke-linejoin="bevel" stroke-miterlimit="10" d="M54.3 147.8l.7.2m-1.4-1.5l.2.8"/><path clip-rule="evenodd" fill="none" stroke="#000" stroke-width=".283" stroke-linecap="round" stroke-linejoin="round" stroke-miterlimit="10" d="M51.8 143.5v1.6"/><path clip-rule="evenodd" fill="none" stroke="#000" stroke-width=".283" stroke-linecap="round" stroke-linejoin="bevel" stroke-miterlimit="10" d="M54.5 139.1l-.7 1.2"/><path clip-rule="evenodd" fill="none" stroke="#000" stroke-width=".283" stroke-linecap="round" stroke-linejoin="round" stroke-miterlimit="10" d="M55.2 138.7l-.9.4m-.7 1.2v3.9"/><path clip-rule="evenodd" fill="none" stroke="#000" stroke-width=".283" stroke-linecap="round" stroke-linejoin="bevel" stroke-miterlimit="10" d="M112.4 147.8l1.1-.4.3-1M92.6 144l-.3-1-.7-.7-1.1-.4"/><path clip-rule="evenodd" fill="none" stroke="#000" stroke-width=".283" stroke-linecap="round" stroke-linejoin="round" stroke-miterlimit="10" d="M57.2 149.6v.1m0 0h.8l.2-.1h.2m34.4-5.6v2.4"/><path clip-rule="evenodd" fill="none" stroke="#000" stroke-width=".283" stroke-linecap="round" stroke-linejoin="bevel" stroke-miterlimit="10" d="M92.8 146.4l.4 1 1 .4m-3-1.4l.2 1.2.7.9.9.7 1.2.2m-3.4-5.4l-.3-.3"/><path clip-rule="evenodd" fill="none" stroke="#000" stroke-width=".283" stroke-linecap="round" stroke-linejoin="round" stroke-miterlimit="10" d="M103.1 149.6h.2m-7.5 0h-1.6m18.2-1.8H94.2m17.1 1.8h.2m1.1 0v.3"/><path clip-rule="evenodd" fill="none" stroke="#000" stroke-width=".283" stroke-linecap="round" stroke-linejoin="bevel" stroke-miterlimit="10" d="M113 150.1l-.4-.2m2-.7l-.2-.2"/><path clip-rule="evenodd" fill="none" stroke="#000" stroke-width=".283" stroke-linecap="round" stroke-linejoin="round" stroke-miterlimit="10" d="M113.8 140.3v2.9m-10.7 5.7v1m0-1v-1.1m.2 0v1.1m0-.8h7m-.9 1.1v.7"/><path clip-rule="evenodd" fill="none" stroke="#000" stroke-width=".283" stroke-linecap="round" stroke-linejoin="bevel" stroke-miterlimit="10" d="M112.4 149.4l1.3-.2.9-.7.7-.9.1-1.2"/><path clip-rule="evenodd" fill="none" stroke="#000" stroke-width=".283" stroke-linecap="round" stroke-linejoin="round" stroke-miterlimit="10" d="M102.1 149.2v.7m0-.7h-4.8m-1.5-1.4l.4.2v.9m-.4-1.1v1.8m7.3-1.5h-6.9m5.9 1.1h.7l.2-.2h.1v-.1"/><path clip-rule="evenodd" fill="none" stroke="#000" stroke-width=".283" stroke-linecap="round" stroke-linejoin="bevel" stroke-miterlimit="10" d="M90.3 143.7l-.2.2m-6.9 3.9l1.1-.5"/><path clip-rule="evenodd" fill="none" stroke="#000" stroke-width=".283" stroke-linecap="round" stroke-linejoin="round" stroke-miterlimit="10" d="M87.5 143.9h-3.6l.2-.2h3.5m-3.5 0v-.9m0-2.3v-1.8m-.2 1.8v-1.4m0 0H62.7m-5.5 0l1.9 1.9h1.6l2-1.9m-5.5 0h-2.9m29.6 4.8v-1.1m31.5 5.5h-.5m-1.1-5.1v3.2m1.8-3.2v3.2m-63.8-3.2v.3m1.6-.3v-2.9h-.5m0 0v2.9m0 0h.5m-1.9-2.9h.7-.4v.2l-.3.3v.4m.7 2h.7m.5 0v.3"/><path clip-rule="evenodd" fill="none" stroke="#000" stroke-width=".283" stroke-linecap="round" stroke-linejoin="bevel" stroke-miterlimit="10" d="M55 137.3l-1.2.2-.9.7-.7.9-.2 1.2"/><path clip-rule="evenodd" fill="none" stroke="#000" stroke-width=".283" stroke-linecap="round" stroke-linejoin="round" stroke-miterlimit="10" d="M115.6 146.4v1.6m-58.8-.6l-2.9-2.8m-2.4-3.4v1.1m.7-2h.7m35.3 5.3l1.8-1.9"/><path clip-rule="evenodd" fill="none" stroke="#000" stroke-width=".283" stroke-linecap="round" stroke-linejoin="bevel" stroke-miterlimit="10" d="M52 143.5l.2 1.3.7.8"/><path clip-rule="evenodd" fill="none" stroke="#000" stroke-width=".283" stroke-linecap="round" stroke-linejoin="round" stroke-miterlimit="10" d="M55.6 148.7l-2.9-2.9"/><path clip-rule="evenodd" fill="none" stroke="#000" stroke-width=".283" stroke-linecap="round" stroke-linejoin="bevel" stroke-miterlimit="10" d="M56.6 147.4l1.1.4"/><path clip-rule="evenodd" fill="none" stroke="#000" stroke-width=".283" stroke-linecap="round" stroke-linejoin="round" stroke-miterlimit="10" d="M83.2 149.6h-.4m-24.6 0h-.5"/><path clip-rule="evenodd" fill="none" stroke="#000" stroke-width=".283" stroke-linecap="round" stroke-linejoin="bevel" stroke-miterlimit="10" d="M53.6 143.5l.3 1.1m1.7 3.9l.8.7 1.3.2m-2.7-1.1h-.5"/><path clip-rule="evenodd" fill="none" stroke="#000" stroke-width=".283" stroke-linecap="round" stroke-linejoin="round" stroke-miterlimit="10" d="M82.8 149.6h-.3v.1h-.2v.2m.5-2.1v1.8m-.5-1.6l.5-.2m-24 2.1v-.2h-.2v-.1h-.4m24.1-1.5H58.8m0 0v.9h.1l.2.2h.6m22.6-1.1v.8m-23.5 0v1m0-1.8v-.1l-.6-.2m0 0v1.8m0-1.8h24.6m-.5.3v-.1m8.2-4.5h-.2m.7.5v2.4m-32.8 1.4h-.5m-.5 1.9h-.4m26.4-1.9h-.4"/><path clip-rule="evenodd" fill="none" stroke="#000" stroke-width=".283" stroke-linecap="round" stroke-linejoin="bevel" stroke-miterlimit="10" d="M83.2 149.4l1.2-.2.9-.7"/><path clip-rule="evenodd" fill="none" stroke="#000" stroke-width=".283" stroke-linecap="round" stroke-linejoin="round" stroke-miterlimit="10" d="M84.3 147.4l1.2 1.1m1.4-4.1l1.3 1.2m-3.4 1.7l1.9-2.2m.2-.7l-.3.5.1.2m-2.4 2.3l.3-.3.2.2.5.5 1.1.9m1.8-3.1l-.2.2v.4m-1.6 2.5v.2h.5l.2-.2h.2v-.2l.9-.9h.2v-.2l.1-.1v-.6l-.1-.2"/><path clip-rule="evenodd" fill="none" stroke="#000" stroke-width=".283" stroke-linecap="round" stroke-linejoin="round" stroke-miterlimit="10" d="M86 148.5v-.2h-.3v.2h-.2m2.9-2l-1.1-.9-.6-.5"/><path clip-rule="evenodd" fill="none" stroke="#000" stroke-width=".283" stroke-linecap="round" stroke-linejoin="round" stroke-miterlimit="10" d="M85.3 147.8h.7l.2-.2h.2v-.2l.9-.9v-.1h.2v-.8h-.2m-.2 1.1l1.1.9m-1.8-.2l1.1.9"/><path clip-rule="evenodd" fill="none" stroke="#000" stroke-width=".283" stroke-linecap="round" stroke-linejoin="bevel" stroke-miterlimit="10" d="M112.4 147.8l.9-.7.4-1.1"/><path clip-rule="evenodd" fill="none" stroke="#000" stroke-width=".283" stroke-linecap="round" stroke-linejoin="round" stroke-miterlimit="10" d="M113.7 140.3v5.7"/><path clip-rule="evenodd" fill="none" stroke="#000" stroke-width=".283" stroke-linecap="round" stroke-linejoin="bevel" stroke-miterlimit="10" d="M113.7 140.3l-.7-1.2"/><path clip-rule="evenodd" fill="none" stroke="#000" stroke-width=".283" stroke-linecap="round" stroke-linejoin="round" stroke-miterlimit="10" d="M113 139.1H89.8m0 1.4v-1.4m-27.1 0l.3-.4m-6.2 0l.4.4"/><path clip-rule="evenodd" fill="none" stroke="#000" stroke-width=".283" stroke-linecap="round" stroke-linejoin="bevel" stroke-miterlimit="10" d="M84.1 138.9l-.2.2"/><path clip-rule="evenodd" fill="none" stroke="#000" stroke-width=".283" stroke-linecap="round" stroke-linejoin="round" stroke-miterlimit="10" d="M113 139.1l-.8-.4m-22.8 0v1.8m0-.2h-.2m-4.9 0h-.2m7.3 7.7h-3.6m-23.9-5.9h25.3m2.5 0h11.6v-1.6H63.9v1.6m-6.2 7.8h54.7m-1.6-.3h-.3v.1h-.2v.2m2.1-.3h-1.6m.7 0l.2.1h.7l.2.2m-2.3 0V148m.5 1.6v-1.8m-.5.2l.5-.2m-6.4 1.4h5.5l.2-.2h.2v-.1m.2 1v-.3m.3.3v-.3"/><path clip-rule="evenodd" fill="none" stroke="#000" stroke-width=".283" stroke-linecap="round" stroke-linejoin="bevel" stroke-miterlimit="10" d="M115.8 145.5l-.4-.2m-1.6-.7h-.1"/><path clip-rule="evenodd" fill="none" stroke="#000" stroke-width=".283" stroke-linecap="round" stroke-linejoin="round" stroke-miterlimit="10" d="M130.1 108.9l2.5-1.4m2.6 4.5l-2.5 1.4"/><path fill="none" stroke="#1D1D1B" stroke-width=".283" stroke-miterlimit="3.864" d="M33.4 143.3c0-3.3 2.6-5.9 5.9-5.9 3.3 0 5.9 2.6 5.9 5.9 0 3.3-2.6 5.9-5.9 5.9-3.2.1-5.9-2.6-5.9-5.9z"/><path fill="none" stroke="#1D1D1B" stroke-width=".283" stroke-miterlimit="3.864" d="M34.5 143.3c0-2.7 2.2-4.9 4.9-4.9s4.8 2.2 4.8 4.9-2.2 4.9-4.8 4.9c-2.7 0-4.9-2.2-4.9-4.9z"/><path fill="none" stroke="#1D1D1B" stroke-width=".283" stroke-miterlimit="3.864" d="M35.6 143.3c0-2.1 1.7-3.7 3.7-3.7 2.1 0 3.7 1.7 3.7 3.7 0 2.1-1.7 3.7-3.7 3.7-2 .1-3.7-1.6-3.7-3.7zm86.4.1c0-3.3 2.7-5.9 5.9-5.9 3.3 0 5.9 2.6 5.9 5.9 0 3.3-2.7 5.9-5.9 5.9-3.3 0-5.9-2.7-5.9-5.9z"/><path fill="none" stroke="#1D1D1B" stroke-width=".283" stroke-miterlimit="3.864" d="M123 143.4c0-2.7 2.2-4.9 4.9-4.9s4.9 2.2 4.9 4.9-2.2 4.9-4.9 4.9c-2.7-.1-4.9-2.3-4.9-4.9z"/><path fill="none" stroke="#1D1D1B" stroke-width=".283" stroke-miterlimit="3.864" d="M124.2 143.4c0-2.1 1.7-3.7 3.7-3.7 2.1 0 3.7 1.7 3.7 3.7 0 2.1-1.7 3.7-3.7 3.7-2.1 0-3.7-1.7-3.7-3.7zm2.5-33c0-3.3 2.7-6.1 6.1-6.1 3.3 0 6.1 2.7 6.1 6.1 0 3.3-2.7 6.1-6.1 6.1-3.4-.1-6.1-2.8-6.1-6.1z"/><path fill="none" stroke="#1D1D1B" stroke-width=".283" stroke-miterlimit="3.864" d="M127.6 110.4c0-2.9 2.3-5.2 5.2-5.2 2.9 0 5.2 2.3 5.2 5.2 0 2.9-2.3 5.2-5.2 5.2-2.9 0-5.2-2.4-5.2-5.2z"/><path fill="none" stroke="#1D1D1B" stroke-width=".283" stroke-miterlimit="3.864" d="M129.5 110.4c0-1.8 1.4-3.2 3.2-3.2 1.8 0 3.2 1.4 3.2 3.2 0 1.8-1.4 3.2-3.2 3.2-1.7 0-3.2-1.5-3.2-3.2z"/><path fill="none" stroke="#1D1D1B" stroke-width=".283" stroke-miterlimit="3.864" d="M129.9 110.3c0-1.6 1.3-2.9 2.9-2.9s2.9 1.3 2.9 2.9c0 1.6-1.3 2.9-2.9 2.9s-2.9-1.3-2.9-2.9z"/><g fill="none"><path clip-rule="evenodd" stroke="#000" stroke-width=".283" stroke-linecap="round" stroke-linejoin="round" stroke-miterlimit="10" d="M124.9 39.9l-.5 1.5"/><path clip-rule="evenodd" stroke="#000" stroke-width=".283" stroke-linecap="round" stroke-linejoin="bevel" stroke-miterlimit="10" d="M103 41.4L99.6 43l-3.4 1.8C72.6 61 79.7 96.9 108 102.5l3.7.5h3.9c30.7-2.8 40.6-40.8 15.5-58.3l-3.4-1.8-3.4-1.6"/><path clip-rule="evenodd" stroke="#000" stroke-width=".283" stroke-linecap="round" stroke-linejoin="bevel" stroke-miterlimit="10" d="M102.4 39.9l-3.6 1.4-3.4 2c-26 17.9-16.8 56.6 14.3 61.1l3.9.2 3.9-.2c31-4.5 40.2-43.2 14.3-61.1l-3.4-2-3.6-1.4"/><path clip-rule="evenodd" stroke="#000" stroke-width=".283" stroke-linecap="round" stroke-linejoin="round" stroke-miterlimit="10" d="M124.9 39.9l-5.5-.7-5.7-.3-5.7.3-5.6.7"/><path clip-rule="evenodd" stroke="#000" stroke-width=".283" stroke-linecap="round" stroke-linejoin="bevel" stroke-miterlimit="10" d="M145.4 71.3l-.2-3.7-.7-3.7c-9-33.3-55.2-31.9-62 2l-.5 3.6v3.9c3.7 36.4 52.7 40.7 62.6 5.5l.7-3.7.1-3.9z"/><path clip-rule="evenodd" stroke="#000" stroke-width=".72" stroke-linecap="round" stroke-linejoin="bevel" stroke-miterlimit="10" d="M141.6 71.3l-.2-3.6-.7-3.4c-8.5-29.8-50-27.2-54.9 3.4l-.2 3.6.2 3.6c4.9 30.5 46.4 33.2 54.9 3.4l.7-3.4.2-3.6z"/><path clip-rule="evenodd" stroke="#000" stroke-width=".283" stroke-linecap="round" stroke-linejoin="bevel" stroke-miterlimit="10" d="M142.7 71.3l-.2-3.6-.7-3.6c-8.3-30.1-50.3-28.8-56.7 1.8l-.5 3.6v3.6c3.2 33.1 48.1 37.3 57.2 5.3l.7-3.6.2-3.5z"/><path clip-rule="evenodd" stroke="#000" stroke-width=".283" stroke-linecap="round" stroke-linejoin="bevel" stroke-miterlimit="10" d="M144.3 71.3l-.2-3.7-.7-3.6c-8.9-32.8-55-30.4-60.2 3.6l-.2 3.7.2 3.7c5.3 34 51.3 36.4 60.2 3.6l.7-3.6.2-3.7z"/><path clip-rule="evenodd" stroke="#000" stroke-width=".283" stroke-linecap="round" stroke-linejoin="bevel" stroke-miterlimit="10" d="M141.6 71.3l-.2-3.6-.7-3.4c-8.5-29.8-50-27.2-54.9 3.4l-.2 3.6.2 3.6c4.9 30.5 46.4 33.2 54.9 3.4l.7-3.4.2-3.6z"/><path clip-rule="evenodd" stroke="#000" stroke-width=".283" stroke-linecap="round" stroke-linejoin="round" stroke-miterlimit="10" d="M117.6 53.8v2.9h-5.9v-2.9m0 35.2v-3.1h5.9V89"/><path clip-rule="evenodd" stroke="#000" stroke-width=".283" stroke-linecap="round" stroke-linejoin="bevel" stroke-miterlimit="10" d="M141.6 71.3l-.2-3.4-.7-3.6c-8-27.7-46.7-26.5-52.8 1.8l-.5 3.4v3.6c3.2 30.9 44.6 34.5 53.3 5.2l.7-3.6.2-3.4z"/><path stroke="#1D1D1B" stroke-width=".283" stroke-miterlimit="3.864" d="M113.3 62.4c0-.7.6-1.3 1.3-1.3.7 0 1.3.6 1.3 1.3 0 .7-.6 1.3-1.3 1.3-.7 0-1.3-.6-1.3-1.3zm-7.7 4.5c0-.7.6-1.3 1.3-1.3.7 0 1.3.6 1.3 1.3s-.6 1.3-1.3 1.3c-.7-.1-1.3-.6-1.3-1.3zm15.4 0c0-.7.6-1.3 1.3-1.3.7 0 1.3.6 1.3 1.3s-.6 1.3-1.3 1.3c-.8-.1-1.3-.6-1.3-1.3zm0 8.9c0-.7.6-1.3 1.3-1.3.7 0 1.3.6 1.3 1.3 0 .7-.6 1.3-1.3 1.3-.8 0-1.3-.6-1.3-1.3zm-7.7 4.4c0-.7.6-1.3 1.3-1.3.7 0 1.3.6 1.3 1.3 0 .7-.6 1.3-1.3 1.3-.7 0-1.3-.6-1.3-1.3zm-7.7-4.4c0-.7.6-1.3 1.3-1.3.7 0 1.3.6 1.3 1.3 0 .7-.6 1.3-1.3 1.3-.7-.1-1.3-.6-1.3-1.3z"/><path stroke="#1D1D1B" stroke-width=".283" stroke-miterlimit="3.864" d="M92.8 71.3c0-12 9.7-21.7 21.7-21.7s21.7 9.7 21.7 21.7S126.5 93 114.5 93s-21.7-9.6-21.7-21.7z"/><path clip-rule="evenodd" stroke="#1D1D1B" stroke-width=".283" stroke-miterlimit="3.864" d="M121.7 55.1s-2.7-1.5-7-1.5c-4.4 0-7 1.5-7 1.5l-1.7-2.6s-1.5.6-2.9 1.6-2.8 2.3-2.8 2.3l1.8 2.6s-1.3 1.4-2.3 2.9c-1 1.5-1.7 3.4-1.7 3.4h-3.3s-1 2.8-.9 6.4c0 3.6 1 6 1 6h3.2s2.5 7.9 11 10.7c8.5 2.8 15.2-1.8 15.2-1.8l2 2.2s1.4-.9 2.7-2.2c1.3-1.2 2.3-2.6 2.3-2.6l-2.1-2.2.8-1.2c.4-.6.7-1.3.7-1.3l2.9.9s.7-1.8 1.2-3.3c.4-1.5.6-3.5.6-3.5l-2.9-.6s.4-3.9-1.1-7.4c-2-4.9-4-6.3-4-6.3l1.7-2.6s-1.6-1.4-2.8-2.2c-1.2-.8-3-1.7-3-1.7l-1.6 2.5z"/></g><path d="M122.2 66.9L164 29.8m-41.8 46L170 90.5m-55.4-10.3l-27.7 29.2m20-42.5L70.5 33.3m36.4 42.5l-43 13.4m50.7-26.8l3-41.7" fill="none" stroke="#000" stroke-miterlimit="10"/><g font-family="Helvetica,Arial,sans-serif" font-size="14"><text transform="translate(53.483 94.878)">1</text><text transform="translate(75.403 119.465)">2</text><text transform="translate(173.236 96.522)">3</text><text transform="translate(168.07 30.022)">4</text><text transform="translate(113.911 15.855)">5</text><text transform="translate(59.96 32.022)">6</text></g></svg>