<svg version="1.0" xmlns="http://www.w3.org/2000/svg" viewBox="0 0 520 316.7"><text transform="translate(32.382 271.783)" font-family="Helvetica,Arial,sans-serif" font-size="8">0.0</text><text transform="translate(32.585 221.413)" font-family="Helvetica,Arial,sans-serif" font-size="8">0.2</text><text transform="translate(32.549 172.356)" font-family="Helvetica,Arial,sans-serif" font-size="8">0.4</text><text transform="translate(32.563 123.833)" font-family="Helvetica,Arial,sans-serif" font-size="8">0.6</text><text transform="translate(32.44 73.123)" font-family="Helvetica,Arial,sans-serif" font-size="8">0.8</text><text transform="translate(32.572 23.37)" font-family="Helvetica,Arial,sans-serif" font-size="8">1.0</text><text transform="translate(45.175 285.46)" font-family="Helvetica,Arial,sans-serif" font-size="8">400</text><text transform="translate(118.766 285.5)" font-family="Helvetica,Arial,sans-serif" font-size="8">500</text><text transform="translate(192.182 285.437)" font-family="Helvetica,Arial,sans-serif" font-size="8">600</text><text transform="translate(266.532 285.554)" font-family="Helvetica,Arial,sans-serif" font-size="8">700</text><text transform="translate(342.904 285.517)" font-family="Helvetica,Arial,sans-serif" font-size="8">800</text><text transform="translate(418.1 285.476)" font-family="Helvetica,Arial,sans-serif" font-size="8">900</text><text transform="translate(491.019 285.578)" font-family="Helvetica,Arial,sans-serif" font-size="8">1000</text><text transform="rotate(-90 103.806 84.384)" fill="#1E1E1C" font-family="Helvetica,Arial,sans-serif" font-size="12">Relative Response</text><text transform="translate(225.182 306.471)" fill="#010202" font-family="Helvetica,Arial,sans-serif" font-size="12">Wavelength (nm)</text><g fill="none" stroke="#1E1F1D" stroke-miterlimit="10"><path stroke-width=".227" d="M49.4 70.1h451.3M49.4 95.3h451.3M49.4 120.4h451.7M49.5 145.7h451.3M49.5 170.9h451.4M49.5 196h451.3M49.5 221.2h451.3M49.5 246.3h450.8M49.5 44.9h451.3M86.5 19.6v251.7m37.8-251.7v251.7m37.6-251.5v251.6m37.6-251.2v251.2M237.3 19v252.4m75.3-252.3v252.3m37.6-251.8v251.7m37.7-251.7v251.7m37.7-251v251m37.7-251.7v251.7M274.9 19.7v251.8"/><path stroke-width=".709" d="M49.5 19.6H501v251.8H49.5z"/></g><path fill="none" stroke="#000" stroke-width=".709" stroke-miterlimit="10" d="M49.4 145.2l3.6-5.5 3.7-6L60 129l2.3-5.2 2.7-3.4 3.3-4.7 3.7-5 2.7-4.4L78 101l3.7-5.7 3.3-4.6 4-4.7 4.3-5.7 4.4-5.3 4.3-4.9 5.7-3.8 6.6-3.3 8-3.7L128 56l6.3-3.7 6.7-4.6 8.7-6.4 7.6-4.3 7.4-4.3 7-4.7 8-4.6 7-3.1 5.5-.6 9.8.6 5 1.7 5.3 1.4h4.4L221 25l4.2.7 6.1 2.3 8 4 7.4 4.3L254 40l6 4.9 8.3 4.8 6.6 5 7.8 6 6 4 5 4 4 4.4 4.6 4.6 5.4 4.7 4.9 3.6 5.1 3 5 3.3 4.3 5 4 6 5 7 4.7 6 7 7.5 6.6 6.2 3 3.7 4.7 5.6 5.3 6.5 5.4 7.2 7.3 7 5.3 4.3 6.7 4.4 6.3 7 5 5.6 6.7 6.9 5.7 4.1 6.3 5.4 6.3 5.3 5 4.3 6.7 5.4 5.3 5.6 6 5.4 5.7 4 8.3 4.6 5.7 3 6.7 3 7 4.7 6.3 3.3 4 2.7 5.7 3.3"/></svg>