<svg version="1.1" id="Layer_1" xmlns="http://www.w3.org/2000/svg" x="0" y="0" viewBox="0 0 545 280" xml:space="preserve"><style>.st1{font-size:12px}.st2{font-family:Helvetica,Arial,sans-serif}.st3{fill:none}.st8{font-size:7.511px}.st9{fill:none;stroke:#000;stroke-width:.5;stroke-miterlimit:3.864}.st10,.st11{fill:#9ba566}.st11{stroke:#000;stroke-width:1.000000e-03;stroke-miterlimit:3.864}.st15{fill-rule:evenodd;clip-rule:evenodd}.st16{fill:none;stroke:#fff;stroke-width:1.000000e-03;stroke-miterlimit:3.864}</style><text transform="translate(437.614 124.14)" class="st1" font-family="Arial-BoldMT">Auto function ROI</text><text transform="translate(437.597 204.884)" class="st2 st1">Image ROI</text><path class="st3" d="M204.1 97.8h44.5v44.8h-44.5V97.8z"/><path d="M68.8 97.3H249v112.6H68.8V97.3z" fill="#bde4f7"/><path d="M68.8 97.3H249v112.6H68.8V97.3z" fill="#bde4f7" stroke="#fff" stroke-miterlimit="3.864"/><path d="M204.1 75h56.4v67.6h-56.4V75z" fill="#f99d33"/><path d="M204.1 75h56.4v67.6h-56.4V75z" fill="#f99d33" stroke="#000" stroke-width=".001" stroke-miterlimit="3.864"/><path class="st3" d="M27.5 19.6H31V28h-3.5v-8.4z"/><text transform="translate(27.481 27.752)" class="st2 st8">0</text><path class="st3" d="M38.7 19.6h3.5V28h-3.5v-8.4z"/><text transform="translate(38.748 27.752)" class="st2 st8">1</text><path class="st3" d="M18 30.3h3.5v8.4H18v-8.4z"/><text transform="translate(17.991 38.454)" class="st2 st8">0</text><path class="st9" d="M25.6 31.8h7.5v7.5h-7.5v-7.5zm11.3 0h7.5v7.5h-7.5v-7.5z"/><path class="st3" d="M50 19.6h3.5V28H50v-8.4z"/><text transform="translate(50.013 27.752)" class="st2 st8">2</text><path class="st3" d="M61.3 19.6h3.5V28h-3.5v-8.4z"/><text transform="translate(61.28 27.752)" class="st2 st8">3</text><path class="st9" d="M48.1 31.8h7.5v7.5h-7.5v-7.5zm11.3 0h7.5v7.5h-7.5v-7.5z"/><path class="st3" d="M72.5 19.6H76V28h-3.5v-8.4z"/><text transform="translate(72.545 27.752)" class="st2 st8">4</text><path class="st10" d="M204.1 97.8h44.5v44.8h-44.5V97.8z"/><path class="st11" d="M204.1 97.8h44.5v44.8h-44.5V97.8z"/><path class="st3" d="M83.8 19.6h3.5V28h-3.5v-8.4z"/><text transform="translate(83.811 27.752)" class="st2 st8">5</text><path class="st9" d="M70.7 31.8h7.5v7.5h-7.5v-7.5zm11.2 0h7.5v7.5h-7.5v-7.5z"/><path class="st3" d="M95.1 19.6h3.5V28h-3.5v-8.4z"/><text transform="translate(95.077 27.752)" class="st2 st8">6</text><path class="st3" d="M106.3 19.6h3.5V28h-3.5v-8.4z"/><text transform="translate(106.343 27.752)" class="st2 st8">7</text><path class="st9" d="M93.2 31.8h7.5v7.5h-7.5v-7.5zm11.3 0h7.5v7.5h-7.5v-7.5z"/><path class="st3" d="M117.6 19.6h3.5V28h-3.5v-8.4z"/><text transform="translate(117.609 27.752)" class="st2 st8">8</text><path class="st3" d="M128.3 19.6h3.5V28h-3.5v-8.4z"/><text transform="translate(128.311 27.752)" class="st2 st8">9</text><path class="st9" d="M115.7 31.8h7.5v7.5h-7.5v-7.5zm11.3 0h7.5v7.5H127v-7.5z"/><path class="st3" d="M138.3 19.6h6.9V28h-6.9v-8.4z"/><text transform="translate(138.263 27.752)" class="st2 st8">10</text><path class="st3" d="M149.5 19.6h6.5V28h-6.5v-8.4z"/><text transform="translate(149.529 27.752)" class="st2 st8">1</text><text transform="translate(152.529 27.752)" class="st2 st8">1</text><path class="st9" d="M138.3 31.8h7.5v7.5h-7.5v-7.5zm11.2 0h7.5v7.5h-7.5v-7.5z"/><path class="st3" d="M160.8 19.6h6.9V28h-6.9v-8.4z"/><text transform="translate(160.795 27.752)" class="st2 st8">12</text><path class="st3" d="M172.1 19.6h6.9V28h-6.9v-8.4z"/><text transform="translate(172.06 27.752)" class="st2 st8">13</text><path class="st9" d="M160.8 31.8h7.5v7.5h-7.5v-7.5zm11.3 0h7.5v7.5h-7.5v-7.5z"/><path class="st3" d="M183.3 19.6h6.9V28h-6.9v-8.4z"/><text transform="translate(183.327 27.752)" class="st2 st8">14</text><path class="st3" d="M194.6 19.6h6.9V28h-6.9v-8.4z"/><text transform="translate(194.592 27.752)" class="st2 st8">15</text><path class="st9" d="M183.3 31.8h7.5v7.5h-7.5v-7.5zm11.3 0h7.5v7.5h-7.5v-7.5z"/><path class="st3" d="M205.9 19.6h6.9V28h-6.9v-8.4z"/><text transform="translate(205.858 27.752)" class="st2 st8">16</text><path class="st3" d="M217.1 19.6h6.9V28h-6.9v-8.4z"/><text transform="translate(217.125 27.752)" class="st2 st8">17</text><path class="st9" d="M205.9 31.8h7.5v7.5h-7.5v-7.5zm11.2 0h7.5v7.5h-7.5v-7.5z"/><path class="st3" d="M228.4 19.6h6.9V28h-6.9v-8.4z"/><text transform="translate(228.391 27.752)" class="st2 st8">18</text><path class="st3" d="M239.7 19.6h6.9V28h-6.9v-8.4z"/><text transform="translate(239.657 27.752)" class="st2 st8">19</text><path class="st9" d="M228.4 31.8h7.5v7.5h-7.5v-7.5zm11.3 0h7.5v7.5h-7.5v-7.5z"/><path class="st3" d="M250.9 19.6h6.9V28h-6.9v-8.4z"/><text transform="translate(250.922 27.752)" class="st2 st8">20</text><path class="st3" d="M262.2 19.6h6.9V28h-6.9v-8.4z"/><text transform="translate(262.189 27.752)" class="st2 st8">21</text><path class="st9" d="M250.9 31.8h7.5v7.5h-7.5v-7.5zm11.3 0h7.5v7.5h-7.5v-7.5z"/><path class="st3" d="M273.5 19.6h6.9V28h-6.9v-8.4z"/><text transform="translate(273.455 27.752)" class="st2 st8">22</text><path class="st3" d="M284.7 19.6h6.9V28h-6.9v-8.4z"/><text transform="translate(284.721 27.752)" class="st2 st8">23</text><path class="st9" d="M273.5 31.8h7.5v7.5h-7.5v-7.5zm11.2 0h7.5v7.5h-7.5v-7.5z"/><path class="st3" d="M296 19.6h6.9V28H296v-8.4z"/><text transform="translate(295.987 27.752)" class="st2 st8">24</text><path class="st3" d="M307.3 19.6h6.9V28h-6.9v-8.4z"/><text transform="translate(307.252 27.752)" class="st2 st8">25</text><path class="st9" d="M296 31.8h7.5v7.5H296v-7.5zm11.3 0h7.5v7.5h-7.5v-7.5z"/><path class="st3" d="M318.5 19.6h6.9V28h-6.9v-8.4z"/><text transform="translate(318.518 27.752)" class="st2 st8">26</text><path class="st3" d="M329.8 19.6h6.9V28h-6.9v-8.4z"/><text transform="translate(329.784 27.752)" class="st2 st8">27</text><path class="st9" d="M318.5 31.8h7.5v7.5h-7.5v-7.5zm11.3 0h7.5v7.5h-7.5v-7.5z"/><path class="st3" d="M341.1 19.6h6.9V28h-6.9v-8.4z"/><text transform="translate(341.05 27.752)" class="st2 st8">28</text><path class="st3" d="M352.3 19.6h6.9V28h-6.9v-8.4z"/><text transform="translate(352.316 27.752)" class="st2 st8">29</text><path class="st9" d="M341.1 31.8h7.5v7.5h-7.5v-7.5zm11.2 0h7.5v7.5h-7.5v-7.5z"/><path class="st3" d="M363.6 19.6h6.9V28h-6.9v-8.4z"/><text transform="translate(363.582 27.752)" class="st2 st8">30</text><path class="st9" d="M363.6 31.8h7.5v7.5h-7.5v-7.5zm11.3 0h7.5v7.5h-7.5v-7.5zM25.6 43h7.5v7.5h-7.5V43zm11.3 0h7.5v7.5h-7.5V43zm11.2 0h7.5v7.5h-7.5V43zm11.3 0h7.5v7.5h-7.5V43zm11.3 0h7.5v7.5h-7.5V43zm11.2 0h7.5v7.5h-7.5V43zm11.3 0h7.5v7.5h-7.5V43zm11.3 0h7.5v7.5h-7.5V43zm11.2 0h7.5v7.5h-7.5V43zm11.3 0h7.5v7.5H127V43zm11.3 0h7.5v7.5h-7.5V43zm11.2 0h7.5v7.5h-7.5V43zm11.3 0h7.5v7.5h-7.5V43zm11.3 0h7.5v7.5h-7.5V43zm11.2 0h7.5v7.5h-7.5V43zm11.3 0h7.5v7.5h-7.5V43zm11.3 0h7.5v7.5h-7.5V43zm11.2 0h7.5v7.5h-7.5V43zm11.3 0h7.5v7.5h-7.5V43zm11.3 0h7.5v7.5h-7.5V43zm11.2 0h7.5v7.5h-7.5V43zm11.3 0h7.5v7.5h-7.5V43zm11.3 0h7.5v7.5h-7.5V43zm11.2 0h7.5v7.5h-7.5V43zm11.3 0h7.5v7.5H296V43zm11.3 0h7.5v7.5h-7.5V43zm11.2 0h7.5v7.5h-7.5V43zm11.3 0h7.5v7.5h-7.5V43zm11.3 0h7.5v7.5h-7.5V43zm11.2 0h7.5v7.5h-7.5V43zm11.3 0h7.5v7.5h-7.5V43zm11.3 0h7.5v7.5h-7.5V43zM25.6 54.3h7.5v7.5h-7.5v-7.5zm11.3 0h7.5v7.5h-7.5v-7.5zm11.2 0h7.5v7.5h-7.5v-7.5zm11.3 0h7.5v7.5h-7.5v-7.5zm11.3 0h7.5v7.5h-7.5v-7.5zm11.2 0h7.5v7.5h-7.5v-7.5zm11.3 0h7.5v7.5h-7.5v-7.5zm11.3 0h7.5v7.5h-7.5v-7.5zm11.2 0h7.5v7.5h-7.5v-7.5zm11.3 0h7.5v7.5H127v-7.5zm11.3 0h7.5v7.5h-7.5v-7.5zm11.2 0h7.5v7.5h-7.5v-7.5zm11.3 0h7.5v7.5h-7.5v-7.5zm11.3 0h7.5v7.5h-7.5v-7.5zm11.2 0h7.5v7.5h-7.5v-7.5zm11.3 0h7.5v7.5h-7.5v-7.5zm11.3 0h7.5v7.5h-7.5v-7.5zm11.2 0h7.5v7.5h-7.5v-7.5zm11.3 0h7.5v7.5h-7.5v-7.5zm11.3 0h7.5v7.5h-7.5v-7.5zm11.2 0h7.5v7.5h-7.5v-7.5zm11.3 0h7.5v7.5h-7.5v-7.5zm11.3 0h7.5v7.5h-7.5v-7.5zm11.2 0h7.5v7.5h-7.5v-7.5zm11.3 0h7.5v7.5H296v-7.5zm11.3 0h7.5v7.5h-7.5v-7.5zm11.2 0h7.5v7.5h-7.5v-7.5zm11.3 0h7.5v7.5h-7.5v-7.5zm11.3 0h7.5v7.5h-7.5v-7.5zm11.2 0h7.5v7.5h-7.5v-7.5zm11.3 0h7.5v7.5h-7.5v-7.5zm11.3 0h7.5v7.5h-7.5v-7.5zM25.6 65.6h7.5v7.5h-7.5v-7.5zm11.3 0h7.5v7.5h-7.5v-7.5zm11.2 0h7.5v7.5h-7.5v-7.5zm11.3 0h7.5v7.5h-7.5v-7.5zm11.3 0h7.5v7.5h-7.5v-7.5zm11.2 0h7.5v7.5h-7.5v-7.5zm11.3 0h7.5v7.5h-7.5v-7.5zm11.3 0h7.5v7.5h-7.5v-7.5zm11.2 0h7.5v7.5h-7.5v-7.5zm11.3 0h7.5v7.5H127v-7.5zm11.3 0h7.5v7.5h-7.5v-7.5zm11.2 0h7.5v7.5h-7.5v-7.5zm11.3 0h7.5v7.5h-7.5v-7.5zm11.3 0h7.5v7.5h-7.5v-7.5zm11.2 0h7.5v7.5h-7.5v-7.5zm11.3 0h7.5v7.5h-7.5v-7.5zm11.3 0h7.5v7.5h-7.5v-7.5zm11.2 0h7.5v7.5h-7.5v-7.5zm11.3 0h7.5v7.5h-7.5v-7.5zm11.3 0h7.5v7.5h-7.5v-7.5zm11.2 0h7.5v7.5h-7.5v-7.5zm11.3 0h7.5v7.5h-7.5v-7.5zm11.3 0h7.5v7.5h-7.5v-7.5zm11.2 0h7.5v7.5h-7.5v-7.5zm11.3 0h7.5v7.5H296v-7.5zm11.3 0h7.5v7.5h-7.5v-7.5zm11.2 0h7.5v7.5h-7.5v-7.5zm11.3 0h7.5v7.5h-7.5v-7.5zm11.3 0h7.5v7.5h-7.5v-7.5zm11.2 0h7.5v7.5h-7.5v-7.5zm11.3 0h7.5v7.5h-7.5v-7.5zm11.3 0h7.5v7.5h-7.5v-7.5zM25.6 76.8h7.5v7.5h-7.5v-7.5zm11.3 0h7.5v7.5h-7.5v-7.5zm11.2 0h7.5v7.5h-7.5v-7.5zm11.3 0h7.5v7.5h-7.5v-7.5zm11.3 0h7.5v7.5h-7.5v-7.5zm11.2 0h7.5v7.5h-7.5v-7.5zm11.3 0h7.5v7.5h-7.5v-7.5zm11.3 0h7.5v7.5h-7.5v-7.5zm11.2 0h7.5v7.5h-7.5v-7.5zm11.3 0h7.5v7.5H127v-7.5zm11.3 0h7.5v7.5h-7.5v-7.5zm11.2 0h7.5v7.5h-7.5v-7.5zm11.3 0h7.5v7.5h-7.5v-7.5zm11.3 0h7.5v7.5h-7.5v-7.5zm11.2 0h7.5v7.5h-7.5v-7.5zm11.3 0h7.5v7.5h-7.5v-7.5zm11.3 0h7.5v7.5h-7.5v-7.5zm11.2 0h7.5v7.5h-7.5v-7.5zm11.3 0h7.5v7.5h-7.5v-7.5zm11.3 0h7.5v7.5h-7.5v-7.5zm11.2 0h7.5v7.5h-7.5v-7.5zm11.3 0h7.5v7.5h-7.5v-7.5zm11.3 0h7.5v7.5h-7.5v-7.5zm11.2 0h7.5v7.5h-7.5v-7.5zm11.3 0h7.5v7.5H296v-7.5zm11.3 0h7.5v7.5h-7.5v-7.5zm11.2 0h7.5v7.5h-7.5v-7.5zm11.3 0h7.5v7.5h-7.5v-7.5zm11.3 0h7.5v7.5h-7.5v-7.5zm11.2 0h7.5v7.5h-7.5v-7.5zm11.3 0h7.5v7.5h-7.5v-7.5zm11.3 0h7.5v7.5h-7.5v-7.5zM25.6 88.1h7.5v7.5h-7.5v-7.5zm11.3 0h7.5v7.5h-7.5v-7.5zm11.2 0h7.5v7.5h-7.5v-7.5zm11.3 0h7.5v7.5h-7.5v-7.5zm11.3 0h7.5v7.5h-7.5v-7.5zm11.2 0h7.5v7.5h-7.5v-7.5zm11.3 0h7.5v7.5h-7.5v-7.5zm11.3 0h7.5v7.5h-7.5v-7.5zm11.2 0h7.5v7.5h-7.5v-7.5zm11.3 0h7.5v7.5H127v-7.5zm11.3 0h7.5v7.5h-7.5v-7.5zm11.2 0h7.5v7.5h-7.5v-7.5zm11.3 0h7.5v7.5h-7.5v-7.5zm11.3 0h7.5v7.5h-7.5v-7.5zm11.2 0h7.5v7.5h-7.5v-7.5zm11.3 0h7.5v7.5h-7.5v-7.5zm11.3 0h7.5v7.5h-7.5v-7.5zm11.2 0h7.5v7.5h-7.5v-7.5zm11.3 0h7.5v7.5h-7.5v-7.5zm11.3 0h7.5v7.5h-7.5v-7.5zm11.2 0h7.5v7.5h-7.5v-7.5zm11.3 0h7.5v7.5h-7.5v-7.5zm11.3 0h7.5v7.5h-7.5v-7.5zm11.2 0h7.5v7.5h-7.5v-7.5zm11.3 0h7.5v7.5H296v-7.5zm11.3 0h7.5v7.5h-7.5v-7.5zm11.2 0h7.5v7.5h-7.5v-7.5zm11.3 0h7.5v7.5h-7.5v-7.5zm11.3 0h7.5v7.5h-7.5v-7.5zm11.2 0h7.5v7.5h-7.5v-7.5zm11.3 0h7.5v7.5h-7.5v-7.5zm11.3 0h7.5v7.5h-7.5v-7.5zM25.6 99.4h7.5v7.5h-7.5v-7.5zm11.3 0h7.5v7.5h-7.5v-7.5zm11.2 0h7.5v7.5h-7.5v-7.5zm11.3 0h7.5v7.5h-7.5v-7.5zm11.3 0h7.5v7.5h-7.5v-7.5zm11.2 0h7.5v7.5h-7.5v-7.5zm11.3 0h7.5v7.5h-7.5v-7.5zm11.3 0h7.5v7.5h-7.5v-7.5zm11.2 0h7.5v7.5h-7.5v-7.5zm11.3 0h7.5v7.5H127v-7.5zm11.3 0h7.5v7.5h-7.5v-7.5zm11.2 0h7.5v7.5h-7.5v-7.5zm11.3 0h7.5v7.5h-7.5v-7.5zm11.3 0h7.5v7.5h-7.5v-7.5zm11.2 0h7.5v7.5h-7.5v-7.5zm11.3 0h7.5v7.5h-7.5v-7.5zm11.3 0h7.5v7.5h-7.5v-7.5zm11.2 0h7.5v7.5h-7.5v-7.5zm11.3 0h7.5v7.5h-7.5v-7.5zm11.3 0h7.5v7.5h-7.5v-7.5zm11.2 0h7.5v7.5h-7.5v-7.5zm11.3 0h7.5v7.5h-7.5v-7.5zm11.3 0h7.5v7.5h-7.5v-7.5zm11.2 0h7.5v7.5h-7.5v-7.5zm11.3 0h7.5v7.5H296v-7.5zm11.3 0h7.5v7.5h-7.5v-7.5zm11.2 0h7.5v7.5h-7.5v-7.5zm11.3 0h7.5v7.5h-7.5v-7.5zm11.3 0h7.5v7.5h-7.5v-7.5zm11.2 0h7.5v7.5h-7.5v-7.5zm11.3 0h7.5v7.5h-7.5v-7.5zm11.3 0h7.5v7.5h-7.5v-7.5zM25.6 110.6h7.5v7.5h-7.5v-7.5zm11.3 0h7.5v7.5h-7.5v-7.5zm11.2 0h7.5v7.5h-7.5v-7.5zm11.3 0h7.5v7.5h-7.5v-7.5zm11.3 0h7.5v7.5h-7.5v-7.5zm11.2 0h7.5v7.5h-7.5v-7.5zm11.3 0h7.5v7.5h-7.5v-7.5zm11.3 0h7.5v7.5h-7.5v-7.5z"/><path class="st9" d="M104.5 110.6h7.5v7.5h-7.5v-7.5zm11.2 0h7.5v7.5h-7.5v-7.5z"/><path class="st9" d="M115.7 110.6h7.5v7.5h-7.5v-7.5zm11.3 0h7.5v7.5H127v-7.5z"/><path class="st9" d="M127 110.6h7.5v7.5H127v-7.5zm11.3 0h7.5v7.5h-7.5v-7.5z"/><path class="st9" d="M138.3 110.6h7.5v7.5h-7.5v-7.5zm11.2 0h7.5v7.5h-7.5v-7.5zm11.3 0h7.5v7.5h-7.5v-7.5zm11.3 0h7.5v7.5h-7.5v-7.5zm11.2 0h7.5v7.5h-7.5v-7.5zm11.3 0h7.5v7.5h-7.5v-7.5zm11.3 0h7.5v7.5h-7.5v-7.5zm11.2 0h7.5v7.5h-7.5v-7.5zm11.3 0h7.5v7.5h-7.5v-7.5zm11.3 0h7.5v7.5h-7.5v-7.5zm11.2 0h7.5v7.5h-7.5v-7.5zm11.3 0h7.5v7.5h-7.5v-7.5zm11.3 0h7.5v7.5h-7.5v-7.5zm11.2 0h7.5v7.5h-7.5v-7.5zm11.3 0h7.5v7.5H296v-7.5zm11.3 0h7.5v7.5h-7.5v-7.5zm11.2 0h7.5v7.5h-7.5v-7.5zm11.3 0h7.5v7.5h-7.5v-7.5zm11.3 0h7.5v7.5h-7.5v-7.5zm11.2 0h7.5v7.5h-7.5v-7.5zm11.3 0h7.5v7.5h-7.5v-7.5zm11.3 0h7.5v7.5h-7.5v-7.5zM25.6 121.9h7.5v7.5h-7.5v-7.5zm11.3 0h7.5v7.5h-7.5v-7.5zm11.2 0h7.5v7.5h-7.5v-7.5zm11.3 0h7.5v7.5h-7.5v-7.5zm11.3 0h7.5v7.5h-7.5v-7.5zm11.2 0h7.5v7.5h-7.5v-7.5zm11.3 0h7.5v7.5h-7.5v-7.5zm11.3 0h7.5v7.5h-7.5v-7.5z"/><path class="st9" d="M104.5 121.9h7.5v7.5h-7.5v-7.5zm11.2 0h7.5v7.5h-7.5v-7.5zm11.3 0h7.5v7.5H127v-7.5zm11.3 0h7.5v7.5h-7.5v-7.5zm11.2 0h7.5v7.5h-7.5v-7.5z"/><path class="st9" d="M149.5 121.9h7.5v7.5h-7.5v-7.5zm11.3 0h7.5v7.5h-7.5v-7.5zm11.3 0h7.5v7.5h-7.5v-7.5zm11.2 0h7.5v7.5h-7.5v-7.5zm11.3 0h7.5v7.5h-7.5v-7.5zm11.3 0h7.5v7.5h-7.5v-7.5zm11.2 0h7.5v7.5h-7.5v-7.5zm11.3 0h7.5v7.5h-7.5v-7.5zm11.3 0h7.5v7.5h-7.5v-7.5zm11.2 0h7.5v7.5h-7.5v-7.5zm11.3 0h7.5v7.5h-7.5v-7.5zm11.3 0h7.5v7.5h-7.5v-7.5zm11.2 0h7.5v7.5h-7.5v-7.5zm11.3 0h7.5v7.5H296v-7.5zm11.3 0h7.5v7.5h-7.5v-7.5zm11.2 0h7.5v7.5h-7.5v-7.5zm11.3 0h7.5v7.5h-7.5v-7.5zm11.3 0h7.5v7.5h-7.5v-7.5zm11.2 0h7.5v7.5h-7.5v-7.5zm11.3 0h7.5v7.5h-7.5v-7.5zm11.3 0h7.5v7.5h-7.5v-7.5zM25.6 133.2h7.5v7.5h-7.5v-7.5zm11.3 0h7.5v7.5h-7.5v-7.5zm11.2 0h7.5v7.5h-7.5v-7.5zm11.3 0h7.5v7.5h-7.5v-7.5zm11.3 0h7.5v7.5h-7.5v-7.5zm11.2 0h7.5v7.5h-7.5v-7.5zm11.3 0h7.5v7.5h-7.5v-7.5zm11.3 0h7.5v7.5h-7.5v-7.5z"/><path class="st9" d="M104.5 133.2h7.5v7.5h-7.5v-7.5zm11.2 0h7.5v7.5h-7.5v-7.5zm11.3 0h7.5v7.5H127v-7.5zm11.3 0h7.5v7.5h-7.5v-7.5zm11.2 0h7.5v7.5h-7.5v-7.5z"/><path class="st9" d="M149.5 133.2h7.5v7.5h-7.5v-7.5zm11.3 0h7.5v7.5h-7.5v-7.5zm11.3 0h7.5v7.5h-7.5v-7.5zm11.2 0h7.5v7.5h-7.5v-7.5zm11.3 0h7.5v7.5h-7.5v-7.5zm11.3 0h7.5v7.5h-7.5v-7.5zm11.2 0h7.5v7.5h-7.5v-7.5zm11.3 0h7.5v7.5h-7.5v-7.5zm11.3 0h7.5v7.5h-7.5v-7.5zm11.2 0h7.5v7.5h-7.5v-7.5zm11.3 0h7.5v7.5h-7.5v-7.5zm11.3 0h7.5v7.5h-7.5v-7.5zm11.2 0h7.5v7.5h-7.5v-7.5zm11.3 0h7.5v7.5H296v-7.5zm11.3 0h7.5v7.5h-7.5v-7.5zm11.2 0h7.5v7.5h-7.5v-7.5zm11.3 0h7.5v7.5h-7.5v-7.5zm11.3 0h7.5v7.5h-7.5v-7.5zm11.2 0h7.5v7.5h-7.5v-7.5zm11.3 0h7.5v7.5h-7.5v-7.5zm11.3 0h7.5v7.5h-7.5v-7.5zM25.6 144.4h7.5v7.5h-7.5v-7.5zm11.3 0h7.5v7.5h-7.5v-7.5zm11.2 0h7.5v7.5h-7.5v-7.5zm11.3 0h7.5v7.5h-7.5v-7.5zm11.3 0h7.5v7.5h-7.5v-7.5zm11.2 0h7.5v7.5h-7.5v-7.5zm11.3 0h7.5v7.5h-7.5v-7.5zm11.3 0h7.5v7.5h-7.5v-7.5z"/><path class="st9" d="M104.5 144.4h7.5v7.5h-7.5v-7.5zm11.2 0h7.5v7.5h-7.5v-7.5z"/><path class="st9" d="M115.7 144.4h7.5v7.5h-7.5v-7.5zm11.3 0h7.5v7.5H127v-7.5z"/><path class="st9" d="M127 144.4h7.5v7.5H127v-7.5zm11.3 0h7.5v7.5h-7.5v-7.5z"/><path class="st9" d="M138.3 144.4h7.5v7.5h-7.5v-7.5zm11.2 0h7.5v7.5h-7.5v-7.5zm11.3 0h7.5v7.5h-7.5v-7.5zm11.3 0h7.5v7.5h-7.5v-7.5zm11.2 0h7.5v7.5h-7.5v-7.5zm11.3 0h7.5v7.5h-7.5v-7.5zm11.3 0h7.5v7.5h-7.5v-7.5zm11.2 0h7.5v7.5h-7.5v-7.5zm11.3 0h7.5v7.5h-7.5v-7.5zm11.3 0h7.5v7.5h-7.5v-7.5zm11.2 0h7.5v7.5h-7.5v-7.5zm11.3 0h7.5v7.5h-7.5v-7.5zm11.3 0h7.5v7.5h-7.5v-7.5zm11.2 0h7.5v7.5h-7.5v-7.5zm11.3 0h7.5v7.5H296v-7.5zm11.3 0h7.5v7.5h-7.5v-7.5zm11.2 0h7.5v7.5h-7.5v-7.5zm11.3 0h7.5v7.5h-7.5v-7.5zm11.3 0h7.5v7.5h-7.5v-7.5zm11.2 0h7.5v7.5h-7.5v-7.5zm11.3 0h7.5v7.5h-7.5v-7.5zm11.3 0h7.5v7.5h-7.5v-7.5zM25.6 155.7h7.5v7.5h-7.5v-7.5zm11.3 0h7.5v7.5h-7.5v-7.5zm11.2 0h7.5v7.5h-7.5v-7.5zm11.3 0h7.5v7.5h-7.5v-7.5zm11.3 0h7.5v7.5h-7.5v-7.5zm11.2 0h7.5v7.5h-7.5v-7.5zm11.3 0h7.5v7.5h-7.5v-7.5zm11.3 0h7.5v7.5h-7.5v-7.5z"/><path class="st9" d="M104.5 155.7h7.5v7.5h-7.5v-7.5zm11.2 0h7.5v7.5h-7.5v-7.5zm11.3 0h7.5v7.5H127v-7.5z"/><path class="st9" d="M127 155.7h7.5v7.5H127v-7.5zm11.3 0h7.5v7.5h-7.5v-7.5zm11.2 0h7.5v7.5h-7.5v-7.5zm11.3 0h7.5v7.5h-7.5v-7.5zm11.3 0h7.5v7.5h-7.5v-7.5zm11.2 0h7.5v7.5h-7.5v-7.5zm11.3 0h7.5v7.5h-7.5v-7.5zm11.3 0h7.5v7.5h-7.5v-7.5zm11.2 0h7.5v7.5h-7.5v-7.5zm11.3 0h7.5v7.5h-7.5v-7.5zm11.3 0h7.5v7.5h-7.5v-7.5zm11.2 0h7.5v7.5h-7.5v-7.5zm11.3 0h7.5v7.5h-7.5v-7.5zm11.3 0h7.5v7.5h-7.5v-7.5zm11.2 0h7.5v7.5h-7.5v-7.5zm11.3 0h7.5v7.5H296v-7.5zm11.3 0h7.5v7.5h-7.5v-7.5zm11.2 0h7.5v7.5h-7.5v-7.5zm11.3 0h7.5v7.5h-7.5v-7.5zm11.3 0h7.5v7.5h-7.5v-7.5zm11.2 0h7.5v7.5h-7.5v-7.5zm11.3 0h7.5v7.5h-7.5v-7.5zm11.3 0h7.5v7.5h-7.5v-7.5zM25.6 166.9h7.5v7.5h-7.5v-7.5zm11.3 0h7.5v7.5h-7.5v-7.5zm11.2 0h7.5v7.5h-7.5v-7.5zm11.3 0h7.5v7.5h-7.5v-7.5zm11.3 0h7.5v7.5h-7.5v-7.5zm11.2 0h7.5v7.5h-7.5v-7.5zm11.3 0h7.5v7.5h-7.5v-7.5zm11.3 0h7.5v7.5h-7.5v-7.5z"/><path class="st9" d="M104.5 166.9h7.5v7.5h-7.5v-7.5zm11.2 0h7.5v7.5h-7.5v-7.5zm11.3 0h7.5v7.5H127v-7.5zm11.3 0h7.5v7.5h-7.5v-7.5z"/><path class="st9" d="M138.3 166.9h7.5v7.5h-7.5v-7.5zm11.2 0h7.5v7.5h-7.5v-7.5zm11.3 0h7.5v7.5h-7.5v-7.5zm11.3 0h7.5v7.5h-7.5v-7.5zm11.2 0h7.5v7.5h-7.5v-7.5zm11.3 0h7.5v7.5h-7.5v-7.5zm11.3 0h7.5v7.5h-7.5v-7.5zm11.2 0h7.5v7.5h-7.5v-7.5zm11.3 0h7.5v7.5h-7.5v-7.5zm11.3 0h7.5v7.5h-7.5v-7.5zm11.2 0h7.5v7.5h-7.5v-7.5zm11.3 0h7.5v7.5h-7.5v-7.5zm11.3 0h7.5v7.5h-7.5v-7.5zm11.2 0h7.5v7.5h-7.5v-7.5zm11.3 0h7.5v7.5H296v-7.5zm11.3 0h7.5v7.5h-7.5v-7.5zm11.2 0h7.5v7.5h-7.5v-7.5zm11.3 0h7.5v7.5h-7.5v-7.5zm11.3 0h7.5v7.5h-7.5v-7.5zm11.2 0h7.5v7.5h-7.5v-7.5zm11.3 0h7.5v7.5h-7.5v-7.5zm11.3 0h7.5v7.5h-7.5v-7.5zM25.6 178.2h7.5v7.5h-7.5v-7.5zm11.3 0h7.5v7.5h-7.5v-7.5zm11.2 0h7.5v7.5h-7.5v-7.5zm11.3 0h7.5v7.5h-7.5v-7.5zm11.3 0h7.5v7.5h-7.5v-7.5zm11.2 0h7.5v7.5h-7.5v-7.5zm11.3 0h7.5v7.5h-7.5v-7.5zm11.3 0h7.5v7.5h-7.5v-7.5z"/><path class="st9" d="M104.5 178.2h7.5v7.5h-7.5v-7.5zm11.2 0h7.5v7.5h-7.5v-7.5zm11.3 0h7.5v7.5H127v-7.5zm11.3 0h7.5v7.5h-7.5v-7.5zm11.2 0h7.5v7.5h-7.5v-7.5z"/><path class="st9" d="M149.5 178.2h7.5v7.5h-7.5v-7.5zm11.3 0h7.5v7.5h-7.5v-7.5zm11.3 0h7.5v7.5h-7.5v-7.5zm11.2 0h7.5v7.5h-7.5v-7.5zm11.3 0h7.5v7.5h-7.5v-7.5zm11.3 0h7.5v7.5h-7.5v-7.5zm11.2 0h7.5v7.5h-7.5v-7.5zm11.3 0h7.5v7.5h-7.5v-7.5zm11.3 0h7.5v7.5h-7.5v-7.5zm11.2 0h7.5v7.5h-7.5v-7.5zm11.3 0h7.5v7.5h-7.5v-7.5zm11.3 0h7.5v7.5h-7.5v-7.5zm11.2 0h7.5v7.5h-7.5v-7.5zm11.3 0h7.5v7.5H296v-7.5zm11.3 0h7.5v7.5h-7.5v-7.5zm11.2 0h7.5v7.5h-7.5v-7.5zm11.3 0h7.5v7.5h-7.5v-7.5zm11.3 0h7.5v7.5h-7.5v-7.5zm11.2 0h7.5v7.5h-7.5v-7.5zm11.3 0h7.5v7.5h-7.5v-7.5zm11.3 0h7.5v7.5h-7.5v-7.5zM25.6 189.5h7.5v7.5h-7.5v-7.5zm11.3 0h7.5v7.5h-7.5v-7.5zm11.2 0h7.5v7.5h-7.5v-7.5zm11.3 0h7.5v7.5h-7.5v-7.5zm11.3 0h7.5v7.5h-7.5v-7.5zm11.2 0h7.5v7.5h-7.5v-7.5zm11.3 0h7.5v7.5h-7.5v-7.5zm11.3 0h7.5v7.5h-7.5v-7.5zm11.2 0h7.5v7.5h-7.5v-7.5zm11.3 0h7.5v7.5H127v-7.5zm11.3 0h7.5v7.5h-7.5v-7.5zm11.2 0h7.5v7.5h-7.5v-7.5zm11.3 0h7.5v7.5h-7.5v-7.5zm11.3 0h7.5v7.5h-7.5v-7.5zm11.2 0h7.5v7.5h-7.5v-7.5zm11.3 0h7.5v7.5h-7.5v-7.5zm11.3 0h7.5v7.5h-7.5v-7.5zm11.2 0h7.5v7.5h-7.5v-7.5zm11.3 0h7.5v7.5h-7.5v-7.5zm11.3 0h7.5v7.5h-7.5v-7.5zm11.2 0h7.5v7.5h-7.5v-7.5zm11.3 0h7.5v7.5h-7.5v-7.5zm11.3 0h7.5v7.5h-7.5v-7.5zm11.2 0h7.5v7.5h-7.5v-7.5zm11.3 0h7.5v7.5H296v-7.5zm11.3 0h7.5v7.5h-7.5v-7.5zm11.2 0h7.5v7.5h-7.5v-7.5zm11.3 0h7.5v7.5h-7.5v-7.5zm11.3 0h7.5v7.5h-7.5v-7.5zm11.2 0h7.5v7.5h-7.5v-7.5zm11.3 0h7.5v7.5h-7.5v-7.5zm11.3 0h7.5v7.5h-7.5v-7.5zM25.6 200.7h7.5v7.5h-7.5v-7.5zm11.3 0h7.5v7.5h-7.5v-7.5zm11.2 0h7.5v7.5h-7.5v-7.5zm11.3 0h7.5v7.5h-7.5v-7.5zm11.3 0h7.5v7.5h-7.5v-7.5zm11.2 0h7.5v7.5h-7.5v-7.5zm11.3 0h7.5v7.5h-7.5v-7.5zm11.3 0h7.5v7.5h-7.5v-7.5zm11.2 0h7.5v7.5h-7.5v-7.5zm11.3 0h7.5v7.5H127v-7.5zm11.3 0h7.5v7.5h-7.5v-7.5zm11.2 0h7.5v7.5h-7.5v-7.5zm11.3 0h7.5v7.5h-7.5v-7.5zm11.3 0h7.5v7.5h-7.5v-7.5zm11.2 0h7.5v7.5h-7.5v-7.5zm11.3 0h7.5v7.5h-7.5v-7.5zm11.3 0h7.5v7.5h-7.5v-7.5zm11.2 0h7.5v7.5h-7.5v-7.5zm11.3 0h7.5v7.5h-7.5v-7.5zm11.3 0h7.5v7.5h-7.5v-7.5zm11.2 0h7.5v7.5h-7.5v-7.5zm11.3 0h7.5v7.5h-7.5v-7.5zm11.3 0h7.5v7.5h-7.5v-7.5zm11.2 0h7.5v7.5h-7.5v-7.5zm11.3 0h7.5v7.5H296v-7.5zm11.3 0h7.5v7.5h-7.5v-7.5zm11.2 0h7.5v7.5h-7.5v-7.5zm11.3 0h7.5v7.5h-7.5v-7.5zm11.3 0h7.5v7.5h-7.5v-7.5zm11.2 0h7.5v7.5h-7.5v-7.5zm11.3 0h7.5v7.5h-7.5v-7.5zm11.3 0h7.5v7.5h-7.5v-7.5zM25.6 212h7.5v7.5h-7.5V212zm11.3 0h7.5v7.5h-7.5V212zm11.2 0h7.5v7.5h-7.5V212zm11.3 0h7.5v7.5h-7.5V212zm11.3 0h7.5v7.5h-7.5V212zm11.2 0h7.5v7.5h-7.5V212zm11.3 0h7.5v7.5h-7.5V212zm11.3 0h7.5v7.5h-7.5V212zm11.2 0h7.5v7.5h-7.5V212zm11.3 0h7.5v7.5H127V212zm11.3 0h7.5v7.5h-7.5V212zm11.2 0h7.5v7.5h-7.5V212zm11.3 0h7.5v7.5h-7.5V212zm11.3 0h7.5v7.5h-7.5V212zm11.2 0h7.5v7.5h-7.5V212zm11.3 0h7.5v7.5h-7.5V212zm11.3 0h7.5v7.5h-7.5V212zm11.2 0h7.5v7.5h-7.5V212zm11.3 0h7.5v7.5h-7.5V212zm11.3 0h7.5v7.5h-7.5V212zm11.2 0h7.5v7.5h-7.5V212zm11.3 0h7.5v7.5h-7.5V212zm11.3 0h7.5v7.5h-7.5V212zm11.2 0h7.5v7.5h-7.5V212zm11.3 0h7.5v7.5H296V212zm11.3 0h7.5v7.5h-7.5V212zm11.2 0h7.5v7.5h-7.5V212zm11.3 0h7.5v7.5h-7.5V212zm11.3 0h7.5v7.5h-7.5V212zm11.2 0h7.5v7.5h-7.5V212zm11.3 0h7.5v7.5h-7.5V212zm11.3 0h7.5v7.5h-7.5V212zM25.6 223.3h7.5v7.5h-7.5v-7.5zm11.3 0h7.5v7.5h-7.5v-7.5zm11.2 0h7.5v7.5h-7.5v-7.5zm11.3 0h7.5v7.5h-7.5v-7.5zm11.3 0h7.5v7.5h-7.5v-7.5zm11.2 0h7.5v7.5h-7.5v-7.5zm11.3 0h7.5v7.5h-7.5v-7.5zm11.3 0h7.5v7.5h-7.5v-7.5zm11.2 0h7.5v7.5h-7.5v-7.5zm11.3 0h7.5v7.5H127v-7.5zm11.3 0h7.5v7.5h-7.5v-7.5zm11.2 0h7.5v7.5h-7.5v-7.5zm11.3 0h7.5v7.5h-7.5v-7.5zm11.3 0h7.5v7.5h-7.5v-7.5zm11.2 0h7.5v7.5h-7.5v-7.5zm11.3 0h7.5v7.5h-7.5v-7.5zm11.3 0h7.5v7.5h-7.5v-7.5zm11.2 0h7.5v7.5h-7.5v-7.5zm11.3 0h7.5v7.5h-7.5v-7.5zm11.3 0h7.5v7.5h-7.5v-7.5zm11.2 0h7.5v7.5h-7.5v-7.5zm11.3 0h7.5v7.5h-7.5v-7.5zm11.3 0h7.5v7.5h-7.5v-7.5zm11.2 0h7.5v7.5h-7.5v-7.5zm11.3 0h7.5v7.5H296v-7.5zm11.3 0h7.5v7.5h-7.5v-7.5zm11.2 0h7.5v7.5h-7.5v-7.5zm11.3 0h7.5v7.5h-7.5v-7.5zm11.3 0h7.5v7.5h-7.5v-7.5zm11.2 0h7.5v7.5h-7.5v-7.5zm11.3 0h7.5v7.5h-7.5v-7.5zm11.3 0h7.5v7.5h-7.5v-7.5zM25.6 234.5h7.5v7.5h-7.5v-7.5zm11.3 0h7.5v7.5h-7.5v-7.5zm11.2 0h7.5v7.5h-7.5v-7.5zm11.3 0h7.5v7.5h-7.5v-7.5zm11.3 0h7.5v7.5h-7.5v-7.5zm11.2 0h7.5v7.5h-7.5v-7.5zm11.3 0h7.5v7.5h-7.5v-7.5zm11.3 0h7.5v7.5h-7.5v-7.5zm11.2 0h7.5v7.5h-7.5v-7.5zm11.3 0h7.5v7.5H127v-7.5zm11.3 0h7.5v7.5h-7.5v-7.5zm11.2 0h7.5v7.5h-7.5v-7.5zm11.3 0h7.5v7.5h-7.5v-7.5zm11.3 0h7.5v7.5h-7.5v-7.5zm11.2 0h7.5v7.5h-7.5v-7.5zm11.3 0h7.5v7.5h-7.5v-7.5zm11.3 0h7.5v7.5h-7.5v-7.5zm11.2 0h7.5v7.5h-7.5v-7.5zm11.3 0h7.5v7.5h-7.5v-7.5zm11.3 0h7.5v7.5h-7.5v-7.5zm11.2 0h7.5v7.5h-7.5v-7.5zm11.3 0h7.5v7.5h-7.5v-7.5zm11.3 0h7.5v7.5h-7.5v-7.5zm11.2 0h7.5v7.5h-7.5v-7.5zm11.3 0h7.5v7.5H296v-7.5zm11.3 0h7.5v7.5h-7.5v-7.5zm11.2 0h7.5v7.5h-7.5v-7.5zm11.3 0h7.5v7.5h-7.5v-7.5zm11.3 0h7.5v7.5h-7.5v-7.5zm11.2 0h7.5v7.5h-7.5v-7.5zm11.3 0h7.5v7.5h-7.5v-7.5zm11.3 0h7.5v7.5h-7.5v-7.5zM25.6 245.8h7.5v7.5h-7.5v-7.5zm11.3 0h7.5v7.5h-7.5v-7.5zm11.2 0h7.5v7.5h-7.5v-7.5zm11.3 0h7.5v7.5h-7.5v-7.5zm11.3 0h7.5v7.5h-7.5v-7.5zm11.2 0h7.5v7.5h-7.5v-7.5zm11.3 0h7.5v7.5h-7.5v-7.5zm11.3 0h7.5v7.5h-7.5v-7.5zm11.2 0h7.5v7.5h-7.5v-7.5zm11.3 0h7.5v7.5H127v-7.5zm11.3 0h7.5v7.5h-7.5v-7.5zm11.2 0h7.5v7.5h-7.5v-7.5zm11.3 0h7.5v7.5h-7.5v-7.5zm11.3 0h7.5v7.5h-7.5v-7.5zm11.2 0h7.5v7.5h-7.5v-7.5zm11.3 0h7.5v7.5h-7.5v-7.5zm11.3 0h7.5v7.5h-7.5v-7.5zm11.2 0h7.5v7.5h-7.5v-7.5zm11.3 0h7.5v7.5h-7.5v-7.5zm11.3 0h7.5v7.5h-7.5v-7.5zm11.2 0h7.5v7.5h-7.5v-7.5zm11.3 0h7.5v7.5h-7.5v-7.5zm11.3 0h7.5v7.5h-7.5v-7.5zm11.2 0h7.5v7.5h-7.5v-7.5zm11.3 0h7.5v7.5H296v-7.5zm11.3 0h7.5v7.5h-7.5v-7.5zm11.2 0h7.5v7.5h-7.5v-7.5zm11.3 0h7.5v7.5h-7.5v-7.5zm11.3 0h7.5v7.5h-7.5v-7.5zm11.2 0h7.5v7.5h-7.5v-7.5zm11.3 0h7.5v7.5h-7.5v-7.5zm11.3 0h7.5v7.5h-7.5v-7.5z"/><path class="st3" d="M17.9 41.6h3.5V50h-3.5v-8.4z"/><text transform="translate(17.897 49.72)" class="st2 st8">1</text><path class="st3" d="M18 52.8h3.5v8.4H18v-8.4z"/><text transform="translate(17.991 60.985)" class="st2 st8">2</text><path class="st3" d="M18 64.1h3.5v8.4H18v-8.4z"/><text transform="translate(17.991 72.251)" class="st2 st8">3</text><path class="st3" d="M18 75.4h3.5v8.4H18v-8.4z"/><text transform="translate(17.991 83.518)" class="st2 st8">4</text><path class="st3" d="M18 86.6h3.5V95H18v-8.4z"/><text transform="translate(17.991 94.783)" class="st2 st8">5</text><path class="st3" d="M18 97.9h3.5v8.4H18v-8.4z"/><text transform="translate(17.991 106.05)" class="st2 st8">6</text><path class="st3" d="M18 109.2h3.5v8.4H18v-8.4z"/><text transform="translate(17.991 117.315)" class="st2 st8">7</text><path class="st3" d="M18 120.4h3.5v8.4H18v-8.4z"/><text transform="translate(17.991 128.581)" class="st2 st8">8</text><path class="st3" d="M18 131.7h3.5v8.4H18v-8.4z"/><text transform="translate(17.991 139.847)" class="st2 st8">9</text><path class="st3" d="M14.6 143h6.9v8.4h-6.9V143z"/><text transform="translate(14.568 151.113)" class="st2 st8">10</text><path class="st3" d="M15 154.2h6.5v8.4H15v-8.4z"/><text transform="translate(14.966 162.379)" class="st2 st8">1</text><text transform="translate(17.966 162.379)" class="st2 st8">1</text><path class="st3" d="M14.6 165.5h6.9v8.4h-6.9v-8.4z"/><text transform="translate(14.568 173.644)" class="st2 st8">12</text><path class="st3" d="M14.6 176.7h6.9v8.4h-6.9v-8.4z"/><text transform="translate(14.568 184.91)" class="st2 st8">13</text><path class="st3" d="M14.6 188h6.9v8.4h-6.9V188z"/><text transform="translate(14.568 196.176)" class="st2 st8">14</text><path class="st3" d="M14.6 199.3h6.9v8.4h-6.9v-8.4z"/><text transform="translate(14.568 207.443)" class="st2 st8">15</text><path class="st3" d="M14.6 210.5h6.9v8.4h-6.9v-8.4z"/><text transform="translate(14.568 218.708)" class="st2 st8">16</text><path class="st3" d="M14.6 221.8h6.9v8.4h-6.9v-8.4z"/><text transform="translate(14.568 229.973)" class="st2 st8">17</text><path class="st3" d="M14.6 233.1h6.9v8.4h-6.9v-8.4z"/><text transform="translate(14.568 241.24)" class="st2 st8">18</text><path class="st3" d="M14.6 244.3h6.9v8.4h-6.9v-8.4z"/><text transform="translate(14.568 252.505)" class="st2 st8">19</text><path class="st9" d="M25.6 257.1h7.5v7.5h-7.5v-7.5zm11.3 0h7.5v7.5h-7.5v-7.5zm11.2 0h7.5v7.5h-7.5v-7.5zm11.3 0h7.5v7.5h-7.5v-7.5zm11.3 0h7.5v7.5h-7.5v-7.5zm11.2 0h7.5v7.5h-7.5v-7.5zm11.3 0h7.5v7.5h-7.5v-7.5zm11.3 0h7.5v7.5h-7.5v-7.5zm11.2 0h7.5v7.5h-7.5v-7.5zm11.3 0h7.5v7.5H127v-7.5zm11.3 0h7.5v7.5h-7.5v-7.5zm11.2 0h7.5v7.5h-7.5v-7.5zm11.3 0h7.5v7.5h-7.5v-7.5zm11.3 0h7.5v7.5h-7.5v-7.5zm11.2 0h7.5v7.5h-7.5v-7.5zm11.3 0h7.5v7.5h-7.5v-7.5zm11.3 0h7.5v7.5h-7.5v-7.5zm11.2 0h7.5v7.5h-7.5v-7.5zm11.3 0h7.5v7.5h-7.5v-7.5zm11.3 0h7.5v7.5h-7.5v-7.5zm11.2 0h7.5v7.5h-7.5v-7.5zm11.3 0h7.5v7.5h-7.5v-7.5zm11.3 0h7.5v7.5h-7.5v-7.5zm11.2 0h7.5v7.5h-7.5v-7.5zm11.3 0h7.5v7.5H296v-7.5zm11.3 0h7.5v7.5h-7.5v-7.5zm11.2 0h7.5v7.5h-7.5v-7.5zm11.3 0h7.5v7.5h-7.5v-7.5zm11.3 0h7.5v7.5h-7.5v-7.5zm11.2 0h7.5v7.5h-7.5v-7.5zm11.3 0h7.5v7.5h-7.5v-7.5zm11.3 0h7.5v7.5h-7.5v-7.5z"/><path d="M10.7 267.1h373.6V26.2h-3.7l-3.8 43.7 3.8 43.2-3.8 90.1 1.9 56.4-46.9-1.9-75.1 3.7-82.7-3.7-133.3 1.9-30.2-.7.2 8.2z" fill-rule="evenodd" clip-rule="evenodd" fill="#fff"/><path d="M10.5 259.1l30.2.5 131.5-1.9 84.5 3.7 75.1-3.7 46.9 1.9-1.9-56.4 3.8-90.1-3.8-43.2 3.4-40" fill="none" stroke="#fff" stroke-width=".5" stroke-miterlimit="3.864"/><path d="M8.5 18.5h376.9v249.3H8.5V18.5z" fill="none" stroke="#fff" stroke-miterlimit="3.864"/><path class="st15" d="M204.1 132.7v9.9h9.9l-9.9-9.9z"/><path class="st16" d="M204.1 132.7v9.9h9.9l-9.9-9.9z"/><path class="st15" d="M204.1 112.9v9.9l19.8 19.8h9.8l-29.6-29.7z"/><path class="st16" d="M204.1 112.9v9.9l19.8 19.8h9.8l-29.6-29.7z"/><path class="st15" d="M248.5 127.6v-9.9l-19.8-19.8h-9.9l29.7 29.7z"/><path class="st16" d="M248.5 127.6v-9.9l-19.8-19.8h-9.9l29.7 29.7z"/><path class="st15" d="M248.5 107.8v-9.9h-9.9l9.9 9.9z"/><path class="st16" d="M248.5 107.8v-9.9h-9.9l9.9 9.9z"/><path class="st15" d="M204.1 97.8v5.3l39.5 39.5h5v-5l-39.9-39.8h-4.6z"/><path class="st16" d="M204.1 97.8v5.3l39.5 39.5h5v-5l-39.9-39.8h-4.6z"/><path d="M430.2 201.2H213.8m216.4-80.1H250.9" fill="none" stroke="#000" stroke-width="1.417" stroke-miterlimit="10"/><path class="st3" d="M428.5 28.5h16v16.1h-16V28.5z"/><path class="st10" d="M428.5 28.5h16v16.1h-16V28.5z"/><path class="st11" d="M428.5 28.5h16v16.1h-16V28.5z"/><path class="st15" d="M428.5 41.1v3.6h3.6l-3.6-3.6z"/><path class="st16" d="M428.5 41.1v3.6h3.6l-3.6-3.6z"/><path class="st15" d="M428.5 34v3.5l7.1 7.1h3.6L428.5 34z"/><path class="st16" d="M428.5 34v3.5l7.1 7.1h3.6L428.5 34z"/><path class="st15" d="M444.5 39.2v-3.5l-7.1-7.2h-3.6l10.7 10.7z"/><path class="st16" d="M444.5 39.2v-3.5l-7.1-7.2h-3.6l10.7 10.7z"/><path class="st15" d="M444.5 32.1v-3.6h-3.6l3.6 3.6z"/><path class="st16" d="M444.5 32.1v-3.6h-3.6l3.6 3.6z"/><path class="st15" d="M428.5 28.5v1.9l14.3 14.2h1.7v-1.7l-14.3-14.4h-1.7z"/><path class="st16" d="M428.5 28.5v1.9l14.3 14.2h1.7v-1.7l-14.3-14.4h-1.7z"/><text transform="translate(451.898 41.084)" class="st2 st1">= overlap</text></svg>