<svg version="1.0" xmlns="http://www.w3.org/2000/svg" viewBox="0 0 357 103.5"><path fill="#716F6E" d="M126.1 73.7l-.2-.6-.2-.7-.2-.8-.6-.6-.4-.4-.8-.4-.6-.2-.6-.2-.4 2.2h.4l.4.2.2.2.4.2.2.2v.3l.2.4v.4z"/><path fill="#716F6E" d="M20.8 69.8h101.6V72H20.8z"/><path fill="#716F6E" d="M122.3 69.8c-.5 0-1 .5-1 1.1 0 .6.4 1.1 1 1.1.5 0 1-.5 1-1.1 0-.6-.4-1.1-1-1.1zm-101.7 0l-.6.2-.8.2-.6.4-.6.4-.3.8-.4.6-.2.7v.6l2.1.2v-.8l.2-.3.2-.2.2-.2.4-.2.2-.2h.4z"/><path fill="#716F6E" d="M20.7 69.8c-.6 0-1.1.5-1.1 1.1 0 .6.5 1.1 1.1 1.1.6 0 1.1-.5 1.1-1.1 0-.6-.5-1.1-1.1-1.1zm-3.6 4.1h2.1L19 89.4h-2.1l.2-15.5z"/><path fill="#716F6E" d="M18.1 72.8c-.6 0-1.1.5-1.1 1.1 0 .6.5 1.1 1.1 1.1.6 0 1.1-.5 1.1-1.1 0-.7-.5-1.1-1.1-1.1zm-1.2 16.8v.6l.2.8.4.6.4.6.5.6.6.4.8.2h.6l.2-2.2H20l-.2-.2-.4-.2-.2-.2-.2-.4v-.8z"/><path fill="#716F6E" d="M17.9 88.4c-.6 0-1.1.5-1.1 1.1 0 .6.5 1.1 1.1 1.1.6 0 1.1-.5 1.1-1.1 0-.6-.5-1.1-1.1-1.1zm2.7 3h101.6v2H20.6z"/><path fill="#716F6E" d="M20.6 91.4c-.5 0-1 .4-1 1s.4 1 1 1c.5 0 1-.4 1-1 0-.5-.5-1-1-1zm101.5 2h.8l.8-.2.6-.4.6-.6.4-.6.4-.6.2-.8v-.6l-2.2-.4v1l-.2.2-.2.4-.2.2-.4.2h-.7z"/><path fill="#716F6E" d="M122.1 91.4c-.5 0-1 .4-1 1s.4 1 1 1c.5 0 1-.4 1-1 0-.5-.4-1-1-1zm3.8-2h-2.2l.2-15.5h2.2l-.2 15.5z"/><path fill="#716F6E" d="M124.8 88.4c-.6 0-1.1.5-1.1 1.1 0 .6.5 1.1 1.1 1.1.6 0 1.1-.5 1.1-1.1 0-.6-.5-1.1-1.1-1.1zm.2-15.6c-.6 0-1.1.5-1.1 1.1 0 .6.5 1.1 1.1 1.1.6 0 1.1-.5 1.1-1.1 0-.7-.5-1.1-1.1-1.1z"/><path fill="none" stroke="#000" stroke-width=".384" stroke-linecap="square" stroke-miterlimit="10" d="M103.2 16.4h19.4v19.7h-19.4zm-82.4 0h19.4v19.7H20.8zm0 28.5h19.4v19.7H20.8zm27-28.5h19.4v19.7H47.8zm27.8 0H95v19.7H75.6zm0 28.5H95v19.7H75.6zm0 28.6H95v19.7H75.6zM47.8 44.9h19.4v19.7H47.8zm55.4 0h19.4v19.7h-19.4zm0 28.6h19.4v19.7h-19.4z"/><path fill="#716F6E" d="M150.7 73.7l-.2-.6-.2-.7-.4-.8-.4-.6-.5-.4-.6-.4-.8-.2h-.6l-.4 2h.6l.2.2.4.2.2.2.2.2.2.3.2.4v.4z"/><path fill="#716F6E" d="M131.1 70h15.7v2h-15.7z"/><path fill="#716F6E" d="M146.8 70c-.5 0-1 .4-1 1s.4 1 1 1c.5 0 1-.4 1-1s-.5-1-1-1zm-15.7 0h-.7l-.8.2-.6.4-.6.4-.4.6-.4.8-.2.7v.6l2 .2v-.4l.2-.4.2-.3.2-.2.4-.2.2-.2.4-.2h.3z"/><path fill="#716F6E" d="M131.2 70c-.6 0-1.1.4-1.1 1s.5 1 1.1 1c.6 0 1.1-.4 1.1-1s-.5-1-1.1-1zm-3.8 3.9h2v15.7h-2.2l.2-15.7z"/><path fill="#716F6E" d="M128.4 73c-.5 0-1 .4-1 1s.4 1 1 1c.5 0 1-.4 1-1s-.4-1-1-1zm-1.2 16.6v.8l.2.8.4.6.6.6.4.6.8.2.8.4h.6l.1-2.2h-.7l-.2-.2-.4-.2-.2-.4-.2-.2v-1z"/><path fill="#716F6E" d="M128.3 88.6c-.6 0-1.1.4-1.1 1s.5 1 1.1 1c.6 0 1.1-.4 1.1-1 0-.5-.5-1-1.1-1zm2.8 3h15.5v2h-15.5z"/><path fill="#716F6E" d="M131 91.6c-.6 0-1.1.4-1.1 1s.5 1 1.1 1c.6 0 1.1-.4 1.1-1 0-.5-.5-1-1.1-1zm15.8 2h.6l.8-.4.6-.2.5-.6.6-.6.2-.6.2-.8.2-.8-2.1-.2v.8l-.2.4-.4.4-.2.2-.4.2h-.6z"/><path fill="#716F6E" d="M146.7 91.6c-.6 0-1.1.4-1.1 1s.5 1 1.1 1c.6 0 1.1-.4 1.1-1 0-.5-.5-1-1.1-1zm3.8-2h-2.1l.2-15.7h2.1l-.2 15.7z"/><path fill="#716F6E" d="M149.4 88.6c-.6 0-1.1.4-1.1 1s.5 1 1.1 1c.6 0 1.1-.4 1.1-1 0-.5-.5-1-1.1-1zm.2-15.6c-.6 0-1.1.4-1.1 1s.5 1 1.1 1c.6 0 1.1-.4 1.1-1s-.5-1-1.1-1z"/><path fill="none" stroke="#000" stroke-width=".384" stroke-linecap="square" stroke-miterlimit="10" d="M131.5 16.4h19.4v19.7h-19.4zm-.2 57.1h19.4v19.7h-19.4zm-110.5 0h19.4v19.7H20.8zm110.5-28.6h19.4v19.7h-19.4zm-83.1 29h19.4v19.7H48.2z"/><path fill="#716F6E" d="M126.1 17.3l-.2-.7-.2-.8-.2-.8-.4-.6-.6-.6-.6-.4-.8-.2-.6-.2-.4 2.2h.4l.4.2h.2l.2.4.4.2v.6l.2.3v.6z"/><path fill="#716F6E" d="M20.8 13h101.6v2.2H20.8z"/><path fill="#716F6E" d="M122.3 13c-.5 0-1 .5-1 1.1 0 .6.4 1.1 1 1.1.5 0 1-.5 1-1.1 0-.6-.4-1.1-1-1.1zM20.6 13l-.6.2-.8.2-.6.4-.6.6-.3.6-.4.8-.2.8v.7l2.1.2v-1.1l.2-.4.2-.2.4-.4h.2l.4-.2h.4z"/><path fill="#716F6E" d="M20.8 13c-.5 0-1 .5-1 1.1 0 .6.4 1.1 1 1.1.5 0 1-.5 1-1.1 0-.6-.5-1.1-1-1.1zm-3.7 4.3h2.1L19 35.2h-2.1l.2-17.9z"/><path fill="#716F6E" d="M18.1 16.4c-.6 0-1.1.5-1.1 1.1 0 .6.5 1.1 1.1 1.1.6 0 1.1-.5 1.1-1.1 0-.7-.5-1.1-1.1-1.1zm-1.2 18.8v.8l.2.8.4.8.4.6.5.6.6.4.8.4h.6l.2-2.2H20l-.2-.2-.2-.2-.4-.4v-.4l-.2-.6V35z"/><path fill="#716F6E" d="M17.9 34.2c-.6 0-1.1.4-1.1 1s.5 1 1.1 1c.6 0 1.1-.4 1.1-1 0-.5-.5-1-1.1-1zm2.7 3.4h101.6v2H20.6z"/><path fill="#716F6E" d="M20.6 37.6c-.5 0-1 .4-1 1s.4 1 1 1c.5 0 1-.4 1-1s-.5-1-1-1zm101.5 2h.8l.8-.4.6-.4.6-.6.4-.6.4-.8.2-.8v-.8l-2.2-.2v1l-.2.6-.2.2-.4.4-.2.2h-.7z"/><path fill="#716F6E" d="M122.1 37.6c-.5 0-1 .4-1 1s.4 1 1 1c.5 0 1-.4 1-1s-.4-1-1-1zm3.8-2.4h-2.2l.2-17.9h2.2l-.2 17.9z"/><path fill="#716F6E" d="M124.8 34.2c-.6 0-1.1.4-1.1 1s.5 1 1.1 1c.6 0 1.1-.4 1.1-1 0-.5-.5-1-1.1-1zm.2-17.8c-.6 0-1.1.5-1.1 1.1 0 .6.5 1.1 1.1 1.1.6 0 1.1-.5 1.1-1.1 0-.7-.5-1.1-1.1-1.1zm1.1 29.1v-.7l-.2-.8-.4-.8-.4-.6-.4-.6-.8-.6-.6-.2h-.8l-.2 2h.4l.2.2.4.2.2.2.2.4.2.4.2.5v.6z"/><path fill="#716F6E" d="M20.8 41.2h101.6v2H20.8z"/><path fill="#716F6E" d="M122.4 41.2c-.6 0-1.1.4-1.1 1s.5 1 1.1 1c.6 0 1.1-.4 1.1-1s-.5-1-1.1-1zm-101.6 0H20l-.8.2-.6.6-.2.2-.4.4-.3.6-.2.8-.2.8-.2.7 2.1.2v-.6l.2-.5.2-.4.2-.4.2-.2.4-.2.2-.2h.4z"/><path fill="#716F6E" d="M20.9 41.2c-.6 0-1.1.4-1.1 1s.5 1 1.1 1c.6 0 1.1-.4 1.1-1s-.5-1-1.1-1zm-3.8 4.3h2.1L19 64h-1.9V45.5z"/><path fill="#716F6E" d="M18.1 44.6c-.6 0-1.1.5-1.1 1.1 0 .6.5 1.1 1.1 1.1.6 0 1.1-.5 1.1-1.1 0-.7-.5-1.1-1.1-1.1zm-1 19.4v1l.2.6.4.8.3.8.4.6.8.4.8.4h.6l.2-2.2h-.6l-.2-.2-.4-.4-.2-.4-.2-.4-.2-.4V64z"/><path fill="#716F6E" d="M18 63c-.5 0-1 .5-1 1.1 0 .6.4 1.1 1 1.1.5 0 1-.5 1-1.1 0-.6-.4-1.1-1-1.1zm2.8 3.4h101.6v2.2H20.8z"/><path fill="#716F6E" d="M20.7 66.4c-.6 0-1.1.5-1.1 1.1 0 .6.5 1.1 1.1 1.1.6 0 1.1-.5 1.1-1.1 0-.6-.5-1.1-1.1-1.1zm101.6 2.2h.8l.6-.4.6-.4.4-.4.4-.2.4-.8.2-.6.2-.8.2-.8-2.2-.2v.6l-.2.4-.2.4-.2.4v.2h-.2l-.4.4h-.6z"/><path fill="#716F6E" d="M122.2 66.4c-.6 0-1.1.5-1.1 1.1 0 .6.5 1.1 1.1 1.1.6 0 1.1-.5 1.1-1.1 0-.6-.5-1.1-1.1-1.1zm3.9-2.4h-2.2l.2-18.5h2.2l-.2 18.5z"/><path fill="#716F6E" d="M125 63c-.6 0-1.1.5-1.1 1.1 0 .6.5 1.1 1.1 1.1.6 0 1.1-.5 1.1-1.1 0-.6-.5-1.1-1.1-1.1zm.2-18.4c-.6 0-1.1.5-1.1 1.1 0 .6.5 1.1 1.1 1.1.6 0 1.1-.5 1.1-1.1 0-.7-.5-1.1-1.1-1.1zm25.5 1.3v-.8l-.2-.9-.4-.6-.4-.8-.4-.4-.3-.4-.4-.2-.8-.2h-.8l-.2 2h.4l.4.2h.2v.2l.4.2.2.4.2.3.2.6v.6z"/><path fill="#716F6E" d="M131.3 41.6H147v2h-15.7z"/><path fill="#716F6E" d="M146.9 41.6c-.6 0-1.1.4-1.1 1s.5 1 1.1 1c.6 0 1.1-.4 1.1-1s-.5-1-1.1-1zm-15.8 0h-.7l-.8.4-.6.4-.6.4-.4.8-.4.6-.2.9v.8h2v-.4l.2-.6.2-.3.2-.4.4-.2.2-.2.4-.2h.3z"/><path fill="#716F6E" d="M131.2 41.6c-.6 0-1.1.4-1.1 1s.5 1 1.1 1c.6 0 1.1-.4 1.1-1s-.5-1-1.1-1zm-3.8 4.3h2v17.9h-2.2l.2-17.9z"/><path fill="#716F6E" d="M128.4 44.9c-.5 0-1 .5-1 1.1 0 .6.4 1.1 1 1.1.5 0 1-.5 1-1.1 0-.6-.4-1.1-1-1.1zm-1.2 18.9v.8l.2 1 .4.6.4.6.6.6.4.2.4.4.6.2h.8l.1-2.2h-.7l-.2-.2-.2-.4-.4-.2-.2-.4v-1.2z"/><path fill="#716F6E" d="M128.3 62.8c-.6 0-1.1.4-1.1 1s.5 1 1.1 1c.6 0 1.1-.4 1.1-1 0-.5-.5-1-1.1-1zm2.8 3.4h15.7v2h-15.7z"/><path fill="#716F6E" d="M131 66.2c-.6 0-1.1.4-1.1 1s.5 1 1.1 1c.6 0 1.1-.4 1.1-1s-.5-1-1.1-1zm15.8 2h.8l.8-.4.6-.4.5-.6.6-.6.2-.6.2-1 .2-.8-2.1-.2v.6l-.2.6-.2.4-.2.2-.2.4-.4.2h-.8z"/><path fill="#716F6E" d="M146.8 66.2c-.5 0-1 .4-1 1s.4 1 1 1c.5 0 1-.4 1-1s-.5-1-1-1zm3.9-2.4h-2.1l.2-17.9h2.1l-.2 17.9z"/><path fill="#716F6E" d="M149.6 62.8c-.6 0-1.1.4-1.1 1s.5 1 1.1 1c.6 0 1.1-.4 1.1-1 0-.5-.5-1-1.1-1zm.2-17.9c-.6 0-1.1.5-1.1 1.1 0 .6.5 1.1 1.1 1.1.6 0 1.1-.5 1.1-1.1 0-.6-.5-1.1-1.1-1.1zm1.1-27.6l-.2-.7-.2-.8-.2-.6-.6-.8-.4-.4-.3-.4-.4-.2-.8-.2h-.6l-.4 2h.6l.4.2.2.2.2.2.2.4.2.4.2.3v.6z"/><path fill="#716F6E" d="M131.3 13.2H147v2h-15.7z"/><path fill="#716F6E" d="M147 13.2c-.5 0-1 .4-1 1s.4 1 1 1c.5 0 1-.4 1-1s-.5-1-1-1zm-15.9 0h-.7l-.8.2-.6.4-.6.6-.4.8-.4.6-.2.8v.7l2 .2v-.6l.2-.3.2-.4.2-.4.4-.2.2-.2.4-.2h.3z"/><path fill="#716F6E" d="M131.2 13.2c-.6 0-1.1.4-1.1 1s.5 1 1.1 1c.6 0 1.1-.4 1.1-1s-.5-1-1.1-1zm-3.8 4.3h2v17.9h-2.2l.2-17.9z"/><path fill="#716F6E" d="M128.4 16.6c-.5 0-1 .4-1 1s.4 1 1 1c.5 0 1-.4 1-1s-.4-1-1-1zm-1.2 18.8v.8l.2.8.4.8.4.6.6.6.4.2.4.2.8.4h.6l.1-2.2h-.3l-.4-.2h-.2l-.2-.4-.4-.2-.2-.6v-1z"/><path fill="#716F6E" d="M128.3 34.2c-.6 0-1.1.5-1.1 1.1 0 .6.5 1.1 1.1 1.1.6 0 1.1-.5 1.1-1.1 0-.6-.5-1.1-1.1-1.1zm2.8 3.6h15.7v2h-15.7z"/><path fill="#716F6E" d="M131 37.8c-.6 0-1.1.4-1.1 1s.5 1 1.1 1c.6 0 1.1-.4 1.1-1s-.5-1-1.1-1zm16 2h.6l.8-.4.6-.4.5-.6.6-.6.2-.8.4-.8v-.8l-2.1-.2v.6l-.2.4v.6l-.4.2-.2.4h-.4l-.2.2h-.4z"/><path fill="#716F6E" d="M146.9 37.8c-.6 0-1.1.4-1.1 1s.5 1 1.1 1c.6 0 1.1-.4 1.1-1s-.5-1-1.1-1zm3.8-2.4h-2.1l.2-17.9h2.1l-.2 17.9z"/><path fill="#716F6E" d="M149.6 34.2c-.6 0-1.1.5-1.1 1.1 0 .6.5 1.1 1.1 1.1.6 0 1.1-.5 1.1-1.1 0-.6-.5-1.1-1.1-1.1zm.2-17.6c-.6 0-1.1.4-1.1 1s.5 1 1.1 1c.6 0 1.1-.4 1.1-1s-.5-1-1.1-1z"/><path fill-rule="evenodd" clip-rule="evenodd" fill="#FFF" d="M143.7 11.2l1.5 27.4-1.1 43.9-.4 6.1-27.2-6.7-25.3 3.2-74.5-3.4v12.1l134.8.2-.4-83-7.4.2z"/><path fill="none" stroke="#FFF" stroke-width=".128" stroke-linecap="square" stroke-miterlimit="10" d="M143.7 11.2l1.5 27.4-1.1 43.9-.4 6.1-27.2-6.7-25.3 3.2-74.5-3.4v12.1l134.8.2-.4-83-7.4.2"/><text transform="translate(186.642 52.496)" font-family="Helvetica,Arial,sans-serif" font-size="12">Horizontal mono binning by 4</text></svg>