<svg version="1.0" xmlns="http://www.w3.org/2000/svg" viewBox="0 0 492.7 283.3"><path fill="none" stroke="#1D1E1C" stroke-width=".227" stroke-miterlimit="10" d="M49.2 62.4h427.7M49.2 85.1h427.7M49.2 107.8h428.1m-428 22.7H477M49.3 153.2h427.8M49.3 175.9H477M49.3 198.6H477M49.4 221.3h427.1M49.3 39.7H477M84.4 16.8v227.1m35.7-227.1v227.1M155.8 17v227m35.7-226.6V244m35.7-227.7V244m71.4-227.6V244m35.7-227.2V244M370 16.8V244m35.7-226.6v226.5m35.7-227.1v227.1m-178.5-227v227.2"/><path fill="none" stroke="#1D1E1C" stroke-width=".709" stroke-miterlimit="10" d="M49.3 16.8h427.9V244H49.3z"/><text transform="matrix(1.0503 0 0 1 24.12 201.365)" fill="#1D1D1B" font-family="Helvetica,Arial,sans-serif" font-size="11.469">0.2</text><text transform="matrix(1.0503 0 0 1 24.078 157.483)" fill="#1D1D1B" font-family="Helvetica,Arial,sans-serif" font-size="11.469">0.4</text><text transform="matrix(1.0503 0 0 1 24.094 111.802)" fill="#1D1D1B" font-family="Helvetica,Arial,sans-serif" font-size="11.469">0.6</text><text transform="matrix(1.0503 0 0 1 23.947 65.462)" fill="#1D1D1B" font-family="Helvetica,Arial,sans-serif" font-size="11.469">0.8</text><text transform="matrix(1.0503 0 0 1 24.106 19.866)" fill="#1D1D1B" font-family="Helvetica,Arial,sans-serif" font-size="11.469">1.0</text><text transform="matrix(1.0503 0 0 1 39.288 259.678)" fill="#1D1D1B" font-family="Helvetica,Arial,sans-serif" font-size="11.469">400</text><text transform="matrix(1.0503 0 0 1 109.866 259.725)" fill="#1D1D1B" font-family="Helvetica,Arial,sans-serif" font-size="11.469">500</text><text transform="matrix(1.0503 0 0 1 181.439 259.651)" fill="#1D1D1B" font-family="Helvetica,Arial,sans-serif" font-size="11.469">600</text><text transform="matrix(1.0503 0 0 1 252.934 259.786)" fill="#1D1D1B" font-family="Helvetica,Arial,sans-serif" font-size="11.469">700</text><text transform="matrix(1.0503 0 0 1 324.452 259.743)" fill="#1D1D1B" font-family="Helvetica,Arial,sans-serif" font-size="11.469">800</text><text transform="matrix(1.0503 0 0 1 395.759 259.696)" fill="#1D1D1B" font-family="Helvetica,Arial,sans-serif" font-size="11.469">900</text><text transform="matrix(1.0503 0 0 1 463.12 259.816)" fill="#1D1D1B" font-family="Helvetica,Arial,sans-serif" font-size="11.469">1000</text><text transform="matrix(1.0503 0 0 1 25.464 246.808)" fill="#1D1D1B" font-family="Helvetica,Arial,sans-serif" font-size="11.469">0.0</text><text transform="matrix(0 -.9964 1 0 18.198 176.094)" font-family="Helvetica,Arial,sans-serif" font-size="10.902">Relative Response</text><text transform="matrix(1.0036 0 0 1 227.304 275.215)" font-family="Helvetica,Arial,sans-serif" font-size="10.863">Wavelength (nm)</text><g clip-rule="evenodd"><path fill-rule="evenodd" fill="#1D1E1C" d="M366.4 40.5h95.3v53.2h-95.3z"/><path fill="none" stroke="#1D1E1C" stroke-width="1.117" stroke-miterlimit="3.864" d="M366.4 40.5h95.3v53.2h-95.3z"/></g><path fill-rule="evenodd" clip-rule="evenodd" fill="#FFF" d="M364.6 37.9h95.3v53.2h-95.3z"/><path clip-rule="evenodd" fill="none" stroke="#1D1E1C" stroke-width="1.117" stroke-miterlimit="3.864" d="M364.4 37.9h95.3v53.2h-95.3z"/><path clip-rule="evenodd" fill="none" stroke="#294C99" stroke-miterlimit="3.864" stroke-dasharray="12,2,2,2" d="M372.2 46.7H405"/><path clip-rule="evenodd" fill="none" stroke="#68B231" stroke-miterlimit="3.864" stroke-dasharray="2,2" d="M372.2 63.7H405"/><path clip-rule="evenodd" fill="none" stroke="#E42621" stroke-miterlimit="3.864" d="M372.2 80.6H405"/><text transform="matrix(1.0036 0 0 1 415.366 49.34)" font-family="Helvetica,Arial,sans-serif" font-size="9.505">Blue</text><text transform="matrix(1.0036 0 0 1 415.108 66.386)" font-family="Helvetica,Arial,sans-serif" font-size="9.504">Green</text><text transform="matrix(1.0036 0 0 1 415.366 83.164)" font-family="Helvetica,Arial,sans-serif" font-size="9.504">Red</text><path fill="none" stroke="#294B9A" stroke-width="1.001" stroke-miterlimit="10" stroke-dasharray="11.9991,2,2,2" d="M56.5 151c-1.1 2-2.2 5.3-2.9 7.4-.7 2-4 12.5-4 12.5s8.6-23.3 10.1-25.7c1.5-2.4 6.2-11.2 6.8-12.3.6-1.1 5.1-10.3 6.1-11.9.9-1.7 7-12.7 7.3-13.2.4-.6 3.1-5.5 5-7.2 1.8-1.7 6.1-3.7 7.7-3.7 1.7 0 7.7 1.5 10.3 5.7 2.6 4.2 7.5 16.9 8.6 19.5 1.1 2.6 11 35.3 11 35.3s10.1 33.4 11.2 35.1c1.1 1.7 5 10.5 6.1 12.3 1.1 1.8 11.6 15.3 11.9 15.6.4.4 12.1 12.1 15.6 13 3.5.9 7.7 2.4 10.1 2.6 0 0 4.9 1.2 6.9 1.4 2 .2 11.6 2.6 17.3 2 5.7-.6 13.4-1.8 16-2.8 2.6-.9 11.2-4.4 12.5-5 1.3-.6 7.9-3.5 10.7-4 2.8-.6 9.7-2.6 14.3-2.8 4.6-.2 15.1 1.1 20 3.7 5 2.6 7.3 3.1 9.2 3.5 1.8.4 10.3.6 12.5.2 2.2-.4 8.3-.4 10.7-1.8 2.4-1.5 6.3-4.8 8.1-8.8 1.8-4 4.6-9.2 10.7-36.2 6.1-27 7.5-30.7 8.1-32.3.6-1.7 3.3-11 4.4-14.5 1.1-3.5 3.7-7.9 4.6-9.2.9-1.3 2.9-4.8 5.5-4.8s6.3 2.8 7.4 4.4c1.1 1.7 5.1 7.3 5.7 8.3.6.9 3.7 5.3 4.6 6.1.9.7 5.7 4.4 6.4 4.8.7.4 4.2 2.9 7.5 3.7 3.3.7 11.8 4.6 13.6 6.4 1.8 1.8 7.3 8.1 9.4 10.8 2 2.8 9.7 14.5 15.4 18.4 5.7 3.9 12.5 7.3 17.1 11.2 4.6 3.9 12.9 12.5 17.1 15.1 4.2 2.6 15.8 7.9 17.5 8.6 1.7.7 6.6 3.7 6.6 3.7"/><path fill="none" stroke="#E42822" stroke-width="1.001" stroke-miterlimit="10" d="M49.2 228.3s23.2 9.9 28.8 10.5c5.7.6 10.5 1.5 14.5 1.1 4-.4 9.4-1.5 13.2-1.1 3.9.4 10.1 0 11.9-.2 1.8-.2 9.9-3.9 11.6-5 1.7-1.1 6.8-4.2 10.3-4.2 3.5 0 15.6 6.4 20.8 5.9 5.1-.6 4.4-1.8 4.6-2.6.2-.7 1.8-3.9 2.6-7.7.7-3.9 3.1-17.5 4.4-28.5 1.3-11 4-40.1 4.6-46.9.6-6.8 4.6-54.2 5.1-58.6.6-4.4 1.1-10.5 1.5-13.4.4-2.9 2.2-24.3 2.8-27.7.6-3.5 2.9-17.8 4-20.9 1.1-3.1 2.6-7.9 4-9.4 1.5-1.5 4.2-2.9 7.9-2.8 3.7.2 5.9 1.7 12.1 3.7 6.2 2 11 2.4 14.1 4.6 3.1 2.2 6.6 8.6 13 18s10.1 14.3 12.7 16.9c2.6 2.6 6.1 5.7 8.6 5.9 2.6.2 5.1-2.2 6.4-3.1 1.3-.9 5.1-3.5 7-3.5 1.8 0 8.3 1.7 9.7 1.7s6.8-.2 8.5.4c1.7.6 7.3 6.8 9.6 10.8s5.7 10.8 7.3 13c1.7 2.2 5 3.9 8.5 4.2 3.5.4 5 .7 6.3 2 1.3 1.3 10.8 12.9 13 16.2 2.2 3.3 16.9 17.8 18.2 19.5 1.3 1.7 10.8 12.9 13 16.2 2.2 3.3 4.4 7 7.7 9.7 3.3 2.8 11.6 5 14.3 7.9 2.8 2.9 20 22.2 21.9 23.7 1.8 1.5 27.2 21.1 29 22.6 1.8 1.5 9.4 7.4 11.4 8.6 1.7 1.1 16.1 8.1 21.1 10.6 1.1.5 1.7.8 1.7.8s-6.2-2.9-7.7-3.7"/><path fill="none" stroke="#6CB330" stroke-width="1.001" stroke-miterlimit="10" stroke-dasharray="2.0013,2,2,2" d="M475.5 226.3c1.1.5 1.7.8 1.7.8s-6.2-2.9-7.7-3.7c-1.5-.7-16.7-6.8-19.7-8.6-2.9-1.8-12.1-9.2-12.7-9.9-.6-.7-10.3-7.7-12.1-9.4-1.8-1.7-15.4-11.4-17.6-13.4-2.2-2-10.5-10.3-14-12.9-3.5-2.6-7.7-3.5-12.5-7.4-4.8-3.9-6.8-7.9-8.6-10.7-1.8-2.8-7.2-7.9-10.7-10.5-3.5-2.6-14.5-5-17.1-5.5-2.6-.6-9.7-2-16.5 0-6.8 2-6.6 4.2-7.9 5.5-1.3 1.3-6.1 4.8-7.7 6.1-1.7 1.3-5 2-6.2 2.4-1.3.4-6.1 3.1-6.8 3.7-.7.6-3.9 3.3-4.8 4-.9.7-4.6 4.8-8.5 4.8-3.9 0-6.2-2.6-12.5-2.6-6.2 0-10.7 8.1-11.9 9.7-1.3 1.7-7.9 12.1-10.3 16.2-2.4 4-7.9 12.1-8.8 13.4-.9 1.3-3.1 5.3-8.8 5.5-5.7.2-8.3-2-12.7-5.5-4.4-3.5-9.4-11.8-11.4-15.3s-7.7-20.9-8.1-22.2c-.4-1.3-9-39.7-9.6-41.5-.6-1.8-6.8-29.8-8.1-35.6-1.3-5.9-7.7-22-11.8-29.2S161.5 42.5 161 42c-.6-.6-5-5.9-10.5-6.1-5.5-.2-8.8 2.6-10.3 3.3-1.5.7-4.2 3.5-6.8 5.9-2.6 2.4-3.5 2.9-6.8 7.2-3.3 4.2-5 10.7-7.3 17.1-2.4 6.4-5 18.6-5.7 21.9-.7 3.3-3.5 20.9-4.2 25.4-.7 4.4-5.1 36.9-5.5 39.9-.4 2.9-4 29.6-5.9 42.1-1.8 12.5-5 22.8-5.3 23.9-.4 1.1-1.8 5.9-5.1 8.5-3.3 2.6-8.5 2.9-10.1 3.3-1.7.4-7.3 1.5-9.9 1.3-2.6-.2-8.1-1.1-8.1-1.1l-10.1-3.7"/></svg>