<svg version="1.0" xmlns="http://www.w3.org/2000/svg" viewBox="0 0 200 190"><path clip-rule="evenodd" fill="none" stroke="#FFF" stroke-width=".283" stroke-miterlimit="3.864" d="M41.5 15.5h150V165h-150z"/><path clip-rule="evenodd" fill="none" stroke="#000" stroke-width=".283" stroke-miterlimit="3.864" d="M182.7 163.2v-.3m1.9.3h-1.9m6.8-18.8v13.7m-99.7 5.1H48.9m133.7-.2v-.1m-138.7-4.8v-13.7m45.9 18.8v-.3m.3.1v-.1m79.5.3h2.3m0 0h2.1l1-.1h2.8l.3-.1h.3l-.3-.1h-2.3l-.9-.1h-10.8l-.9.1H161l-.3.1h-.1.3l.3.1h2.8l.9.1h2.2m0 0h2.5m0 0v-.4m-66.4.4h2.5m-4.9 0h2.4m2.5 0h2l1.1-.1h2.6l.5-.1h.2-.1l-.3-.1h-2.2l-1-.1H97.8l-.8.1h-2.4l-.3.1h.3l.3.1h2.8l.9.1h2.2m2.4 0v-.4"/><path clip-rule="evenodd" fill="none" stroke="#000" stroke-width=".283" stroke-miterlimit="3.864" d="M178.3 163h-.2l-.1-.1h-2.6l-1.3-.1h-9.3l-1.2.1H161l-.1.1h-.2m-48.7 0h-.1l-.2-.1h-2.6l-1.3-.1h-9.3l-1.2.1h-2.6l-.1.1h-.1m72.6.2h-61.4m-4.9 0h-11m92.9 0h-10.8m10.7-.2l.1.2"/><path clip-rule="evenodd" fill="none" stroke="#000" stroke-width=".283" stroke-miterlimit="3.864" d="M169.6 162.6h2.6l1.3.2h6.4l.9.1h1l.4.1h.4m-79.4-.4h66.4m-79.5.4h.3l.5-.1H92l.7-.1h6.4l1.4-.2h2.7m-13.4.6l.3-.2m99.4-25v6.2M43.9 138v5.7m0 0v.5m0-6.8v.6m5-120.5l-.9.1-.9.1-.7.5-.7.4-.7.6-.5.8-.3.9-.3.7V138m145.6 0v-.6m0 .6V22.5m0 0v.1m-145.6-.1v.1m145.6-.1v-.9l-.3-.7-.3-.9-.5-.8-.6-.6-.7-.4-.8-.5-.9-.1-.8-.1m-8 39.2V56l-.2-.6-.4-.6-.4-.5-.6-.5-.7-.3-.7-.2h-.6l-.7.2-.6.3-.6.5-.5.5-.3.6-.1.6-.2.7.2.7.1.6.3.6.5.5.6.4.6.3.7.2h.6l.7-.2.7-.3.6-.4.4-.5.4-.6.2-.6v-.7"/><path clip-rule="evenodd" fill="none" stroke="#000" stroke-width=".283" stroke-miterlimit="3.864" d="M169.4 56.7l.2-.9.1-.6.3-.7.5-.7.6-.5.8-.3.8-.1.7-.2.7.2.8.1.6.3.6.5.5.7.4.7.2.6v1.7l-.2.7-.4.6-.5.6-.6.6-.6.4-.8.2h-1.4l-.8-.2-.8-.4-.6-.6-.5-.6-.3-.6-.1-.7-.2-.8m-100.6 0l.2-.9.2-.6.5-.7.4-.7.6-.5.6-.3.8-.1.8-.2.7.2.7.1.7.3.7.5.5.7.3.7.2.6.1.9-.1.8-.2.7-.3.6-.5.6-.7.6-.7.4-.7.2h-1.5l-.8-.2-.6-.4-.6-.6-.4-.6-.5-.6-.2-.7-.2-.8"/><path clip-rule="evenodd" fill="none" stroke="#000" stroke-width=".283" stroke-miterlimit="3.864" d="M179.2 56.7l-.1-1-.2-.8-.4-.9-.5-.8-.7-.7-.7-.6-.7-.5-.9-.2-1-.4h-.9l-.9.3-1 .2-.8.4-.7.4-.6.8-.7.7-.4.8-.3.8-.2 1v.9l.2 1 .3.8.4.9.7.8.6.6.7.5.8.3 1 .4h1.8l1-.1.9-.4.7-.5.7-.6.7-.6.5-.9.4-.8.2-.9.1-.9m-100.5 0l-.1-1-.2-.8-.4-.9-.5-.8-.6-.7-.7-.6-.9-.5-.9-.2-.8-.4h-1l-.9.3-.8.2-.9.4-.8.4-.7.8-.5.7-.5.8-.2.8-.1 1v.9l.1 1 .2.8.5.9.5.8.7.6.8.5.9.3.8.4h1.9l.8-.1.9-.4.9-.5.7-.6.6-.6.5-.9.4-.8.2-.9.1-.9"/><path clip-rule="evenodd" fill="none" stroke="#000" stroke-width=".283" stroke-miterlimit="3.864" d="M76.2 56.7l-.1-.7-.1-.6-.4-.6-.6-.5-.4-.5-.8-.3-.6-.2h-.8l-.6.2-.6.3-.6.5-.3.5-.4.6-.2.6-.3.7.3.7.2.6.4.6.3.5"/><path clip-rule="evenodd" fill="none" stroke="#000" stroke-width=".283" stroke-miterlimit="3.864" d="M70.6 59.1l.6.4.6.3.6.2h.8l.6-.2.8-.3.4-.4.6-.5.4-.6.1-.6.1-.7m100.4 0V56l-.2-.6-.4-.6-.5-.5-.5-.5-.7-.2-.7-.3h-.6l-.6.3-.7.2-.6.5-.5.5-.2.6-.2.6-.2.7.2.7.2.6.2.6.5.5.6.4.7.3.6.2h.6l.7-.2.7-.3.5-.4.5-.5.4-.6.2-.6v-.7"/><path clip-rule="evenodd" fill="none" stroke="#000" stroke-width=".283" stroke-miterlimit="3.864" d="M76.2 56.7l-.1-.7-.2-.6-.3-.6-.6-.5-.6-.5-.6-.2-.6-.3h-.8l-.6.3-.6.2-.5.5-.4.5-.4.6-.2.6v1.4l.2.6.4.6.4.5.5.4.6.3.6.2h.8l.6-.2.6-.3.6-.4.6-.5.3-.6.2-.6.1-.7m9.1-33.5v-.7h-.4l-.6.2-.3.2-.3.4-.1.4-.1.5h.7m76.8-1v-.7H85.3m-1.8 60.6h.7m-.7-58.9v58.9m78.4-58.9h.9l-.3-.5-.1-.4-.2-.4-.4-.2-.5-.2h-.3M85.3 84.9v-.7m-1.8-1.1l.1.4.1.6.3.3.3.3.6.1.4.1m76.6-1.8h.9V24.2M161 84.9v-.7m-75.7.7H161l.3-.1.5-.1.4-.3.2-.3.1-.6.3-.4"/><path clip-rule="evenodd" fill="none" stroke="#000" stroke-width=".283" stroke-miterlimit="3.864" d="M85.3 23.2H85l-.2.1-.2.2-.3.3-.1.4m1.1-1H161M84.2 83.1V24.2m77.7 0l-.1-.4-.1-.3-.2-.2-.3-.1h-.2M84.2 83.1l.1.3.3.3.2.3.2.2h.3m76.6-60v58.9m-.9 1.1H85.3m75.7 0h.2l.3-.2.2-.3.1-.3.1-.3M63 56.7l.1-1.2.3-1.2.4-1.2.5-1.1.6-.9.7-1 .9-.8 1-.7 1-.6 1.2-.6 1-.3 1.2-.2h1.3l1.1.1 1.3.3 1.1.3 1.1.6 1 .7.9.7.8.9.6 1 .7 1.1.4 1.1.3 1.2.2 1.2v1.2l-.2 1.2-.3 1.2-.4 1.1-.7 1-.6 1-.8.9-.9.8-1 .6-1.1.5-1.1.5-1.3.3h-2.4l-1.2-.1-1-.3-1.2-.6-1-.6-1-.7-.9-.8-.7-1-.6-1-.5-1.1-.4-1.1-.3-1.2-.1-1.2m100.6 0v-1.2l.2-1.2.4-1.2.5-1.1.6-.9.8-1 .8-.8 1-.7 1.2-.6 1.1-.6 1-.3 1.2-.2h1.2l1.3.1 1.1.3 1.1.3 1.2.6.9.7 1 .7.8.9.7 1 .5 1.1.5 1.1.2 1.2.1 1.2v1.2l-.1 1.2-.2 1.2-.5 1.1-.5 1-.7 1-.8.9-1 .8-.9.6-1.2.5-1.1.5-1.1.3h-2.5l-1.2-.1-1-.3-1.1-.6-1.2-.6-1-.7-.8-.8-.8-1-.6-1-.5-1.1-.4-1.1-.2-1.2v-1.2m25.9 101.4l-.5-.6m0-134.4l.5-.6M184 162.6l.6.6m0 0l.8-.1.9-.2.8-.4.7-.5.6-.7.5-.6.3-.8.3-.8v-1m-140.6 5.1l.6-.6m-5-5.1l-.6.6m0 0v1l.3.8.3.8.5.6.7.7.7.5.7.4.9.2.9.1"/><path clip-rule="evenodd" fill="none" stroke="#000" stroke-width=".283" stroke-miterlimit="3.864" d="M164.4 56.7l.2-1.2.1-1.1.3-1.2.7-.9.6-1 .8-.9.8-.8 1.1-.7.9-.5 1.1-.3 1.2-.4h2.4l1 .4 1.1.3 1.2.5.8.7.9.8.8.9.7 1 .5.9.4 1.2.2 1.1.1 1.2-.1 1.2-.2 1-.4 1.2-.5 1.1-.7.8-.8 1-.9.8-.8.6-1.2.5-1.1.4-1 .2h-2.4l-1.2-.2-1.1-.4-.9-.5-1.1-.6-.8-.8-.8-1-.6-.8-.7-1.1-.3-1.2-.1-1-.2-1.2m-100.5 0l.2-1.2.2-1.1.4-1.2.4-.9.6-1 .8-.9.9-.8 1-.7 1-.5 1.2-.3 1.1-.4h2.4l1.1.4 1.1.3 1 .5 1 .7.9.8.7.9.6 1 .6.9.4 1.2.2 1.1.1 1.2-.1 1.2-.2 1-.4 1.2-.6 1.1-.6.8-.7 1-.9.8-1 .6-1 .5-1.1.4-1.1.2h-2.4l-1.1-.2-1.2-.4-1-.5-1-.6-.9-.8-.8-1-.6-.8-.4-1.1-.4-1.2-.2-1-.2-1.2m120.7-39.2l-.6.7m-134.5 0l-.6-.7m-5 5l.6.6m1.6 95.2V23.1m0 134.4v-33.8m3.4 37.4l-.6-.1-.8-.3-.6-.2-.5-.5-.3-.5-.4-.7-.2-.6v-.7m137.9 3.6H49.5m137.9-3.6v.7l-.2.6-.2.7-.6.5-.5.5-.6.2-.6.3-.7.1m3.4-138v134.4M184 19.6h.7l.6.2.6.4.5.4.6.5.2.6.2.8v.6M49.5 19.6H184M46.1 23.1v-.6l.2-.8.4-.6.3-.5.5-.4.6-.4.8-.2h.6m0 143v-1.5"/><path clip-rule="evenodd" fill="none" stroke="#000" stroke-width=".283" stroke-miterlimit="3.864" d="M46.1 157.5h-1.6v.9l.3.9.3.8.6.6.6.6.7.5.7.5 1 .2.8.1m134.5 0v-1.5m-134.5 1.5H184M46.1 23.1h-1.6v134.4m144.5 0h-1.6m-3.4 5.1l.8-.1.9-.2.7-.5.8-.5.6-.6.5-.6.3-.8.3-.9.1-.9M49.5 19.6v-1.4h-.8l-1 .2-.7.4-.7.4-.6.6-.6.8-.3.8-.3.8v.9m144.5 0h-1.6m1.6 134.4V23.1m-5-3.5v-1.4H49.5"/><path clip-rule="evenodd" fill="none" stroke="#000" stroke-width=".283" stroke-miterlimit="3.864" d="M189 23.1l-.1-.9-.3-.8-.3-.8-.5-.8-.6-.6-.8-.4-.7-.4-.9-.2h-.8m5.5 139.9v-13.9m-140.6 19h39.8m95.3 0h.6m-140.7-19v13.9m145.6-13.9v-6.7m0 0v-115m-145.6 0V137m5-119.5h-.7l-.3.1h-.3l-.3.1-.3.1-.3.2-.3.2-.2.2-.3.1-.2.3-.3.2-.3.2-.2.3-.1.2-.2.3-.2.2-.1.4-.1.3-.2.4v.2l-.1.4v.6m140.7-5H48.9"/><path clip-rule="evenodd" fill="none" stroke="#000" stroke-width=".283" stroke-miterlimit="3.864" d="M189.5 22.5v-.6l-.1-.4v-.2l-.2-.4-.1-.3-.1-.4-.1-.2-.3-.3-.1-.2-.2-.3-.3-.2-.2-.2-.2-.3-.3-.1-.2-.2-.3-.2-.4-.2-.3-.1-.3-.1h-.3l-.3-.1h-.6M43.9 137v7.2m33.2 18.4h-5.9l-.9.2h-2.7l-.3.1H67h.2l.2.1H69l.9.1h14.3l.8-.1h1.7l.3-.1h.1-.3l-.3-.1h-2.8l-.8-.2h-5.8"/><path clip-rule="evenodd" fill="none" stroke="#000" stroke-width=".283" stroke-miterlimit="3.864" d="M86.7 162.9l-.2-.1h-1.6l-1.3-.2H70.5l-1.3.2h-1.6l-.2.1h-.1m21.4.3l.2-.2h.1l.3-.1H91l.7-.1h4.4l1.3-.2h77.9l1.2.2h4.4l.8.1h1.6l.4.1.3.2m-9.8-101.5l1-.3.7-.3.7-.5.6-.6.6-.8.3-.9.3-.7v-1.8l-.3-.8-.3-.8-.6-.7-.6-.6-.7-.5-.7-.4-1-.2-.8-.1-.9.1-.8.2-.9.4-.6.5-.6.6-.5.7-.4.8-.3.8-.1.9.1.9m-94.7 4.1l.9-.3.7-.3.8-.5.6-.6.5-.8.3-.9.3-.7.1-.9-.1-.9-.3-.8-.3-.8-.5-.7-.6-.6-.8-.5-.7-.4-.9-.2-.8-.1-1 .1-.8.2-.7.4-.7.5-.7.6-.5.7-.4.8-.2.8v1.8m16.3-31.1h1.2m-1.2 1.6h1.2m76.5-4h-3.7m2.7 1.1h1m0 6.6h-1m1 1.5h-1m-76.7-5h1.2m47.4-3.7v-1.4m-46.2 0v1.4m-2.4 6l.7-.2.5-.2m76.5 52.1h-1m-1.7 1.9v-1.9m-11.5 1.9v-1.9m-49.2 1.9v-1.9M87 84.2v-1.9m-1.6 0h-1.2m1.2 0V68.7m0-7.5V47.6m0-7.5V24.6m64.3 57.7H96.4m-7.4 0h-3.6m75.5 0h-3.6m3.6-57.7v15.5m0 7.5v13.6m0 7.5v13.6m-2.7-57.7h2.7m-75.5 0H88m7.4 0H112m22.3 0h16.5m6.5 57.7v1.9m-7.6 0v-1.9m7.6 0h-7.6m-60.7 0v1.9m7.4 0v-1.9H89m72.9-21.1h-1m0 7.5h1m-1-7.5v7.5m1-21.1h-1m0-7.5h1m-1 0v7.5M84.2 61.2h1.2m0 7.5h-1.2m1.2 0v-7.5m-1.2-13.6h1.2m0-7.5h-1.2m1.2 7.5v-7.5m72.8-16.9v1.4m-7.4 0v-1.4m0 1.4h7.4m-46.2 0h22.3v3.5m-22.3 0v-3.5m22.3 3.5H112m-24-4.9v1.4m7.4 0v-1.4M88 24.6h7.4m38.9 3.5h5.9v7.7"/><path clip-rule="evenodd" fill="none" stroke="#000" stroke-width=".283" stroke-miterlimit="3.864" d="M140.2 35.8h4v2.5m-42.2 0v-2.5h4v-7.7h6m32.2 10.2h10.1v36.1H92V38.3h10m-17.8-10h1.2m-1.2 2.3l.7-.2.5-.2m76.5 50.2h-1m.1-29.1h.9m-.9 9.9v-9.9M84.2 73.7h1.2m75.6-38h.9m-.9 13.6v-1.7m0-7.5v-4.4m.9 13.6h-.9M84.7 36.8v3.3m0 7.5v2.6m-.5-13.4h.5m0 13.4h-.5m23.8 73.5v-.5l.2-.2v-4l-.2-.2v-.5"/><path clip-rule="evenodd" fill="none" stroke="#000" stroke-width=".283" stroke-linecap="round" stroke-linejoin="round" stroke-miterlimit="10" d="M108.2 121c0 17.2-14 31.2-31.2 31.2s-31.2-14-31.2-31.2 14-31.2 31.2-31.2 31.2 14 31.2 31.2z"/><path fill="none" stroke="#000" stroke-width=".283" stroke-linecap="round" stroke-linejoin="round" stroke-miterlimit="10" d="M59.2 121c0-9.8 8-17.8 17.8-17.8s17.8 8 17.8 17.8-8 17.8-17.8 17.8-17.8-8-17.8-17.8z"/><path fill="none" stroke="#000" stroke-width=".283" stroke-linecap="round" stroke-linejoin="round" stroke-miterlimit="10" d="M96.4 110.2c1.7 3.2 2.7 6.8 2.7 10.7 0 9.1-5.5 17-13.3 20.4m0-40.8c1.6.7 3 1.5 4.4 2.6m-27.9.8c3.9-3.3 8.9-5.3 14.5-5.3h.1m-18.7 34.7c-2.4-3.6-3.7-7.8-3.7-12.4 0-4.5 1.3-8.6 3.6-12.1m13.5 33.8c-3-.7-5.8-2-8.2-3.8m22.6 4.6c-2.9 1.4-7.1 1.7-9.1 1.7-1.8 0-3.6 0-5.3-.5m19.6-43.1c1.4.9 5.4 5.1 6.7 7.7M77.1 96.5c2.4 0 6.6.7 9.3 2.1m-29.7 9c.8-1.3 3.2-4.1 4.3-5m.9 37.4c-2-1.6-3.9-4-5-5.6"/><path clip-rule="evenodd" fill="none" stroke="#000" stroke-width=".283" stroke-linecap="round" stroke-linejoin="round" stroke-miterlimit="10" d="M62 140.1l1.4-1.3m-6.6-4.4l1.4-1.1m13.4 11.2v-1.9m14.6.7l-.3-2m11.8-31.9l-1.2.8m-5.2-8.6l-1.1 1.4m-4.4-2.7l.7-1.8m-9.5-.3l.2-1.7m-19.3 12.3l-1.2-1.1m5.6-3.8l-1.4-1.3m41.4 18.4c0 14-11.3 25.3-25.3 25.3S51.7 135 51.7 121 63.1 95.7 77 95.7c14 0 25.3 11.3 25.3 25.3z"/><path fill="#1D1D1B" d="M70.4 130.3c0-.8.6-1.4 1.4-1.4.8 0 1.4.6 1.4 1.4 0 .8-.6 1.4-1.4 1.4-.8 0-1.4-.6-1.4-1.4z"/><path fill="none" stroke="#1D1D1B" stroke-width=".283" stroke-miterlimit="3.864" d="M70.4 130.3c0-.8.6-1.4 1.4-1.4.8 0 1.4.6 1.4 1.4 0 .8-.6 1.4-1.4 1.4-.8 0-1.4-.6-1.4-1.4z"/><path fill="#1D1D1B" d="M64.9 121.2c0-.8.6-1.4 1.4-1.4.8 0 1.4.6 1.4 1.4 0 .8-.6 1.4-1.4 1.4-.8 0-1.4-.7-1.4-1.4z"/><path fill="none" stroke="#1D1D1B" stroke-width=".283" stroke-miterlimit="3.864" d="M64.9 121.2c0-.8.6-1.4 1.4-1.4.8 0 1.4.6 1.4 1.4 0 .8-.6 1.4-1.4 1.4-.8 0-1.4-.7-1.4-1.4z"/><path fill="#1D1D1B" d="M70.1 112.1c0-.8.6-1.4 1.4-1.4.8 0 1.4.6 1.4 1.4 0 .8-.6 1.4-1.4 1.4-.8-.1-1.4-.7-1.4-1.4z"/><path fill="none" stroke="#1D1D1B" stroke-width=".283" stroke-miterlimit="3.864" d="M70.1 112.1c0-.8.6-1.4 1.4-1.4.8 0 1.4.6 1.4 1.4 0 .8-.6 1.4-1.4 1.4-.8-.1-1.4-.7-1.4-1.4z"/><path fill="#1D1D1B" d="M80.8 130.3c0-.8.6-1.4 1.4-1.4.8 0 1.4.6 1.4 1.4 0 .8-.6 1.4-1.4 1.4-.8 0-1.4-.6-1.4-1.4z"/><path fill="none" stroke="#1D1D1B" stroke-width=".283" stroke-miterlimit="3.864" d="M80.8 130.3c0-.8.6-1.4 1.4-1.4.8 0 1.4.6 1.4 1.4 0 .8-.6 1.4-1.4 1.4-.8 0-1.4-.6-1.4-1.4z"/><path fill="#1D1D1B" d="M80.8 112.1c0-.8.6-1.4 1.4-1.4.8 0 1.4.6 1.4 1.4 0 .8-.6 1.4-1.4 1.4-.8-.1-1.4-.7-1.4-1.4z"/><path fill="none" stroke="#1D1D1B" stroke-width=".283" stroke-miterlimit="3.864" d="M80.8 112.1c0-.8.6-1.4 1.4-1.4.8 0 1.4.6 1.4 1.4 0 .8-.6 1.4-1.4 1.4-.8-.1-1.4-.7-1.4-1.4z"/><path fill="#1D1D1B" d="M86.2 121.2c0-.8.6-1.4 1.4-1.4.8 0 1.4.6 1.4 1.4 0 .8-.6 1.4-1.4 1.4-.8 0-1.4-.7-1.4-1.4z"/><path fill="none" stroke="#1D1D1B" stroke-width=".283" stroke-miterlimit="3.864" d="M86.2 121.2c0-.8.6-1.4 1.4-1.4.8 0 1.4.6 1.4 1.4 0 .8-.6 1.4-1.4 1.4-.8 0-1.4-.7-1.4-1.4z"/><path d="M82.5 112.2l30.5-19M88 121h42.8m-111.9.1l49-.2m3.6-8.7l-41-25.5m.7 69.4l41-25.5m10.5.1l34.5 21.5" fill="none" stroke="#000" stroke-miterlimit="10"/><g font-family="Helvetica,Arial,sans-serif" font-size="14"><text transform="translate(6 125.735)">5</text><text transform="translate(19.977 165.155)">6</text><text transform="translate(121.419 160.038)">1</text><text transform="translate(136.92 125.776)">2</text><text transform="translate(118.458 95.476)">3</text><text transform="translate(18.977 89.045)">4</text></g></svg>