<svg version="1.0" xmlns="http://www.w3.org/2000/svg" viewBox="0 0 180 185"><path clip-rule="evenodd" fill="none" stroke="#000" stroke-width=".5" stroke-miterlimit="3.864" stroke-dasharray="2,2" d="M6.3 10.4h169.2V176H6.3z"/><g clip-rule="evenodd"><circle fill-rule="evenodd" cx="110.7" cy="131.2" r="1"/><circle fill="none" stroke="#000" stroke-width=".25" stroke-miterlimit="3.864" cx="110.7" cy="131.2" r="1"/></g><g clip-rule="evenodd"><circle fill-rule="evenodd" cx="116.7" cy="131.2" r="1"/><circle fill="none" stroke="#000" stroke-width=".25" stroke-miterlimit="3.864" cx="116.7" cy="131.2" r="1"/></g><g clip-rule="evenodd"><circle fill-rule="evenodd" cx="122.7" cy="131.2" r="1"/><circle fill="none" stroke="#000" stroke-width=".25" stroke-miterlimit="3.864" cx="122.7" cy="131.2" r="1"/></g><g clip-rule="evenodd"><circle fill-rule="evenodd" cx="128.7" cy="131.2" r="1"/><circle fill="none" stroke="#000" stroke-width=".25" stroke-miterlimit="3.864" cx="128.7" cy="131.2" r="1"/></g><g clip-rule="evenodd"><path fill-rule="evenodd" fill="#AAA" d="M6.5 10.6h6V176h-6z"/><path fill="none" stroke="#000" stroke-width=".2" stroke-miterlimit="3.864" d="M6.5 10.6h6V176h-6z"/></g><g clip-rule="evenodd"><path fill-rule="evenodd" fill="#AAA" d="M93.9 10.6h6V176h-6z"/><path fill="none" stroke="#000" stroke-width=".2" stroke-miterlimit="3.864" d="M93.9 10.6h6V176h-6z"/></g><g clip-rule="evenodd"><path fill-rule="evenodd" fill="#AAA" d="M81.5 10.5h6v165.4h-6z"/><path fill="none" stroke="#000" stroke-width=".2" stroke-miterlimit="3.864" d="M81.5 10.5h6v165.4h-6z"/></g><g clip-rule="evenodd"><path fill-rule="evenodd" fill="#AAA" d="M69 10.5h6v165.4h-6z"/><path fill="none" stroke="#000" stroke-width=".2" stroke-miterlimit="3.864" d="M69 10.5h6v165.4h-6z"/></g><g clip-rule="evenodd"><path fill-rule="evenodd" fill="#AAA" d="M56.4 10.5h6v165.4h-6z"/><path fill="none" stroke="#000" stroke-width=".2" stroke-miterlimit="3.864" d="M56.4 10.5h6v165.4h-6z"/></g><g clip-rule="evenodd"><path fill-rule="evenodd" fill="#AAA" d="M44 10.6h6V176h-6z"/><path fill="none" stroke="#000" stroke-width=".2" stroke-miterlimit="3.864" d="M44 10.6h6V176h-6z"/></g><g clip-rule="evenodd"><path fill-rule="evenodd" fill="#AAA" d="M31.4 10.6h6V176h-6z"/><path fill="none" stroke="#000" stroke-width=".2" stroke-miterlimit="3.864" d="M31.4 10.6h6V176h-6z"/></g><g clip-rule="evenodd"><path fill-rule="evenodd" fill="#AAA" d="M19 10.6h6V176h-6z"/><path fill="none" stroke="#000" stroke-width=".2" stroke-miterlimit="3.864" d="M19 10.6h6V176h-6z"/></g><g clip-rule="evenodd"><path fill-rule="evenodd" fill="#FFF" d="M12.7 10.6h6V176h-6z"/><path fill="none" stroke="#000" stroke-width=".2" stroke-miterlimit="3.864" d="M12.7 10.6h6V176h-6z"/></g><g clip-rule="evenodd"><path fill-rule="evenodd" fill="#FFF" d="M25.2 10.5h6v165.4h-6z"/><path fill="none" stroke="#000" stroke-width=".2" stroke-miterlimit="3.864" d="M25.2 10.5h6v165.4h-6z"/></g><g clip-rule="evenodd"><path fill-rule="evenodd" fill="#FFF" d="M37.7 10.5h6v165.4h-6z"/><path fill="none" stroke="#000" stroke-width=".2" stroke-miterlimit="3.864" d="M37.7 10.5h6v165.4h-6z"/></g><g clip-rule="evenodd"><path fill-rule="evenodd" fill="#FFF" d="M50.2 10.6h6V176h-6z"/><path fill="none" stroke="#000" stroke-width=".2" stroke-miterlimit="3.864" d="M50.2 10.6h6V176h-6z"/></g><g clip-rule="evenodd"><path fill-rule="evenodd" fill="#FFF" d="M62.7 10.5h6v165.4h-6z"/><path fill="none" stroke="#000" stroke-width=".2" stroke-miterlimit="3.864" d="M62.7 10.5h6v165.4h-6z"/></g><g clip-rule="evenodd"><path fill-rule="evenodd" fill="#FFF" d="M75.2 10.5h6v165.4h-6z"/><path fill="none" stroke="#000" stroke-width=".2" stroke-miterlimit="3.864" d="M75.2 10.5h6v165.4h-6z"/></g><g clip-rule="evenodd"><path fill-rule="evenodd" fill="#FFF" d="M87.7 10.5h6v165.4h-6z"/><path fill="none" stroke="#000" stroke-width=".2" stroke-miterlimit="3.864" d="M87.7 10.5h6v165.4h-6z"/></g><g clip-rule="evenodd"><path fill-rule="evenodd" fill="#AAA" d="M157 10.6h6V176h-6z"/><path fill="none" stroke="#000" stroke-width=".2" stroke-miterlimit="3.864" d="M157 10.6h6V176h-6z"/></g><g clip-rule="evenodd"><path fill-rule="evenodd" fill="#AAA" d="M144.5 10.6h6V176h-6z"/><path fill="none" stroke="#000" stroke-width=".2" stroke-miterlimit="3.864" d="M144.5 10.6h6V176h-6z"/></g><g clip-rule="evenodd"><path fill-rule="evenodd" fill="#AAA" d="M131.9 10.6h6V176h-6z"/><path fill="none" stroke="#000" stroke-width=".2" stroke-miterlimit="3.864" d="M131.9 10.6h6V176h-6z"/></g><g clip-rule="evenodd"><path fill-rule="evenodd" fill="#AAA" d="M169.5 10.6h6V176h-6z"/><path fill="none" stroke="#000" stroke-width=".2" stroke-miterlimit="3.864" d="M169.5 10.6h6V176h-6z"/></g><g clip-rule="evenodd"><path fill-rule="evenodd" fill="#FFF" d="M138.2 10.6h6V176h-6z"/><path fill="none" stroke="#000" stroke-width=".2" stroke-miterlimit="3.864" d="M138.2 10.6h6V176h-6z"/></g><g clip-rule="evenodd"><path fill-rule="evenodd" fill="#FFF" d="M150.7 10.6h6V176h-6z"/><path fill="none" stroke="#000" stroke-width=".2" stroke-miterlimit="3.864" d="M150.7 10.6h6V176h-6z"/></g><g clip-rule="evenodd"><path fill-rule="evenodd" fill="#FFF" d="M163.2 10.6h6V176h-6z"/><path fill="none" stroke="#000" stroke-width=".2" stroke-miterlimit="3.864" d="M163.2 10.6h6V176h-6z"/></g></svg>