<svg version="1.0" xmlns="http://www.w3.org/2000/svg" viewBox="0 0 400 260"><path clip-rule="evenodd" fill="none" stroke="#020405" stroke-width=".283" stroke-linecap="round" stroke-linejoin="round" stroke-miterlimit="10" d="M248.5 205.7v-6.8l16.9-.4"/><path clip-rule="evenodd" fill="none" stroke="#020405" stroke-width=".283" stroke-linecap="round" stroke-linejoin="bevel" stroke-miterlimit="10" d="M265.6 198.3l1.5-.4 1.4-.5 1.1-1.2.8-1.5.2-1.5"/><path clip-rule="evenodd" fill="none" stroke="#020405" stroke-width=".283" stroke-linecap="round" stroke-linejoin="round" stroke-miterlimit="10" d="M270.6 193.2v-17.3"/><path clip-rule="evenodd" fill="none" stroke="#020405" stroke-width=".283" stroke-linecap="round" stroke-linejoin="bevel" stroke-miterlimit="10" d="M270.6 175.9l-.2-1.5-.8-1.5-1.1-1.2-1.4-.5-1.5-.4"/><path clip-rule="evenodd" fill="none" stroke="#020405" stroke-width=".283" stroke-linecap="round" stroke-linejoin="round" stroke-miterlimit="10" d="M265.4 170.8l-5.5-.2"/><path clip-rule="evenodd" fill="none" stroke="#020405" stroke-width=".283" stroke-linecap="round" stroke-linejoin="bevel" stroke-miterlimit="10" d="M250.8 161.1l.4 2.3.8 2.3 1.5 1.8 1.9 1.6 2.1.9 2.4.4"/><path clip-rule="evenodd" fill="none" stroke="#020405" stroke-width=".283" stroke-linecap="round" stroke-linejoin="round" stroke-miterlimit="10" d="M250.6 161.1v-24.5"/><path clip-rule="evenodd" fill="none" stroke="#020405" stroke-width=".283" stroke-linecap="round" stroke-linejoin="bevel" stroke-miterlimit="10" d="M250.8 122.7l-1.1 2.1-.8 2.3-.2 2.5.2 2.4.8 2.3 1.1 2.1"/><path clip-rule="evenodd" fill="none" stroke="#020405" stroke-width=".283" stroke-linecap="round" stroke-linejoin="round" stroke-miterlimit="10" d="M250.6 122.7V98.2"/><path clip-rule="evenodd" fill="none" stroke="#020405" stroke-width=".283" stroke-linecap="round" stroke-linejoin="bevel" stroke-miterlimit="10" d="M259.9 88.9l-2.4.4-2.1 1-1.9 1.5-1.5 1.9-.8 2.3-.4 2.2"/><path clip-rule="evenodd" fill="none" stroke="#020405" stroke-width=".283" stroke-linecap="round" stroke-linejoin="round" stroke-miterlimit="10" d="M259.9 88.8l5.5-.2"/><path clip-rule="evenodd" fill="none" stroke="#020405" stroke-width=".283" stroke-linecap="round" stroke-linejoin="bevel" stroke-miterlimit="10" d="M265.6 88.4l1.5-.4 1.4-.6 1.1-1.1.8-1.5.2-1.5"/><path clip-rule="evenodd" fill="none" stroke="#020405" stroke-width=".283" stroke-linecap="round" stroke-linejoin="round" stroke-miterlimit="10" d="M270.6 83.3V66"/><path clip-rule="evenodd" fill="none" stroke="#020405" stroke-width=".283" stroke-linecap="round" stroke-linejoin="bevel" stroke-miterlimit="10" d="M270.6 66l-.2-1.5-.8-1.6-1.1-1.1-1.4-.6-1.5-.4"/><path clip-rule="evenodd" fill="none" stroke="#020405" stroke-width=".283" stroke-linecap="round" stroke-linejoin="round" stroke-miterlimit="10" d="M265.4 60.8l-16.9-.3v-6.9"/><path clip-rule="evenodd" fill="none" stroke="#020405" stroke-width=".283" stroke-linecap="round" stroke-linejoin="bevel" stroke-miterlimit="10" d="M267.9 184.6l-.2-2.1-.8-1.9c-3.5-6.5-13-6.5-15.9.9l-.6 2.1v1.9c1.5 8.7 12.2 10.6 16.5 3l.8-1.9.2-2z"/><path clip-rule="evenodd" fill="none" stroke="#020405" stroke-width=".283" stroke-linecap="round" stroke-linejoin="bevel" stroke-miterlimit="10" d="M268.3 184.6l-.2-2.1-.8-2.1c-3.5-7-14.2-6.5-16.7 1.1l-.6 1.9v2.3c1.5 9 13 10.9 17.3 3l.8-2.1.2-2zm0-109.9l-.2-2.1-.8-2.1c-3.5-7-14.2-6.5-16.7 1.1l-.6 1.9v2.3c1.5 9 13 10.9 17.3 3l.8-2.1.2-2z"/><path clip-rule="evenodd" fill="none" stroke="#020405" stroke-width=".283" stroke-linecap="round" stroke-linejoin="bevel" stroke-miterlimit="10" d="M267.9 74.7l-.2-2.1-.8-1.9c-3.5-6.5-13-6.5-15.9.9l-.6 2.1v1.9c1.5 8.7 12.2 10.6 16.5 3l.8-1.9.2-2z"/><path clip-rule="evenodd" fill="none" stroke="#020405" stroke-width=".283" stroke-linecap="round" stroke-linejoin="round" stroke-miterlimit="10" d="M121.1 115.9h-.1l-.2.2h-.8V56.5l.2-.2h.4l.4-.4v-.4l.1-.2m-.5-.3l-.2.3-.4 1.2"/><path clip-rule="evenodd" fill="none" stroke="#020405" stroke-width=".283" stroke-linecap="round" stroke-linejoin="round" stroke-miterlimit="10" d="M120 116.1l.4 13.5-.4 13.6h1v.2h.1l.2-13.8-.2-13.7m0 88.1l-.1-.2v-.4l-.4-.3h-.2l-.2-.2h-.2v-59.7m0 59.7l.4 1.1.2.4"/><path clip-rule="evenodd" fill="none" stroke="#020405" stroke-width=".283" stroke-linecap="round" stroke-linejoin="bevel" stroke-miterlimit="10" d="M120.6 54.8l.7-.4m0 150.6l-.7-.4"/><path clip-rule="evenodd" fill="none" stroke="#020405" stroke-width=".283" stroke-linecap="round" stroke-linejoin="round" stroke-miterlimit="10" d="M122.7 59.1l9.5-.3h116.3m0 141.8H132.2l-9.5-.4m9.5.4v5.1h116.3m0-152.1H132.2v5.2m0-5.2l-9.5.2m0 151.7l9.5.2m-9.5-5.5V59.1"/><path clip-rule="evenodd" fill="none" stroke="#020405" stroke-width=".283" stroke-linecap="round" stroke-linejoin="bevel" stroke-miterlimit="10" d="M122.7 53.8l-1.2.4-.4 1.1"/><path clip-rule="evenodd" fill="none" stroke="#020405" stroke-width=".283" stroke-linecap="round" stroke-linejoin="round" stroke-miterlimit="10" d="M121.1 55.3v60.6m0 27.5v56.8m1.6 0h-1.6m0-141.1h1.6v-5.3"/><path clip-rule="evenodd" fill="none" stroke="#020405" stroke-width=".283" stroke-linecap="round" stroke-linejoin="bevel" stroke-miterlimit="10" d="M121.1 204l.4 1.1 1.2.4"/><path clip-rule="evenodd" fill="none" stroke="#020405" stroke-width=".283" stroke-linecap="round" stroke-linejoin="round" stroke-miterlimit="10" d="M122.7 200.2v5.3m-1.6-1.5v-3.8"/><path clip-rule="evenodd" fill="none" stroke="#020405" stroke-width=".283" stroke-linecap="round" stroke-linejoin="bevel" stroke-miterlimit="10" d="M267.7 184.6l-.2-2.1-.8-1.9c-3.7-6.9-13.9-5.8-15.9 1.9l-.2 2.1.2 2.1c2.1 7.7 12.2 8.8 15.9 1.9l.8-1.9.2-2.1zm0-109.9l-.2-2.1-.8-1.9c-3.7-6.9-13.9-5.8-15.9 1.9l-.2 2.1.2 2.1c2.1 7.7 12.2 8.8 15.9 1.9l.8-1.9.2-2.1z"/><path clip-rule="evenodd" fill="none" stroke="#020405" stroke-width=".283" stroke-linecap="round" stroke-linejoin="round" stroke-miterlimit="10" d="M59.1 56.5v146.4m61.5 1.5l-61.5-1.5-1-1.2V57.6l1-1.1 61.5-1.5m129.6 150.7l23-.6m0-150.9l-23-.6m-.1 5.2l23.1.7m0 140.3l-23.1.6m-1.6-146.8h1.7l-.1 5.2m0 0h-1.6m0 146.9h1.7l-.1-5.3m0 0h-1.6m24.7-140.9v-5.3m1.7 1.5v147.7"/><path clip-rule="evenodd" fill="none" stroke="#020405" stroke-width=".283" stroke-linecap="round" stroke-linejoin="bevel" stroke-miterlimit="10" d="M274.7 55.7l-.3-1.1-1.2-.4"/><path clip-rule="evenodd" fill="none" stroke="#020405" stroke-width=".283" stroke-linecap="round" stroke-linejoin="round" stroke-miterlimit="10" d="M274.9 59.5h-1.7m1.7 140.3h-1.7V59.5"/><path clip-rule="evenodd" fill="none" stroke="#020405" stroke-width=".283" stroke-linecap="round" stroke-linejoin="bevel" stroke-miterlimit="10" d="M273.2 205l1.2-.4.3-1.2"/><path clip-rule="evenodd" fill="none" stroke="#020405" stroke-width=".283" stroke-linecap="round" stroke-linejoin="round" stroke-miterlimit="10" d="M273.2 205.1v-5.3m3.2-12.3v8"/><path clip-rule="evenodd" fill="none" stroke="#020405" stroke-width=".283" stroke-linecap="round" stroke-linejoin="bevel" stroke-miterlimit="10" d="M276.4 195.6l-1.1.4-.4 1.2"/><path clip-rule="evenodd" fill="none" stroke="#020405" stroke-width=".283" stroke-linecap="round" stroke-linejoin="round" stroke-miterlimit="10" d="M280.1 195.5v-67.8m1.1 1.1v65.5"/><path clip-rule="evenodd" fill="none" stroke="#020405" stroke-width=".283" stroke-linecap="round" stroke-linejoin="bevel" stroke-miterlimit="10" d="M281 128.8l-.2-.6-.7-.3m0 67.4l.7-.4.2-.6"/><path clip-rule="evenodd" fill="none" stroke="#020405" stroke-width=".283" stroke-linecap="round" stroke-linejoin="round" stroke-miterlimit="10" d="M278 176.9v9.4M278 73v103.9"/><path clip-rule="evenodd" fill="none" stroke="#020405" stroke-width=".283" stroke-linecap="round" stroke-linejoin="bevel" stroke-miterlimit="10" d="M277 187.3l.8-.4.2-.6"/><path clip-rule="evenodd" fill="none" stroke="#020405" stroke-width=".283" stroke-linecap="round" stroke-linejoin="round" stroke-miterlimit="10" d="M277 187.5v-10.6h1m-1 0V82.5h1"/><path clip-rule="evenodd" fill="none" stroke="#020405" stroke-width=".283" stroke-linecap="round" stroke-linejoin="bevel" stroke-miterlimit="10" d="M278 73l-.2-.6-.8-.4"/><path clip-rule="evenodd" fill="none" stroke="#020405" stroke-width=".283" stroke-linecap="round" stroke-linejoin="round" stroke-miterlimit="10" d="M277 82.5V71.9m-1.1 105v10.6"/><path clip-rule="evenodd" fill="none" stroke="#020405" stroke-width=".283" stroke-linecap="round" stroke-linejoin="bevel" stroke-miterlimit="10" d="M275.9 187.5l-.8.4-.2.5"/><path clip-rule="evenodd" fill="none" stroke="#020405" stroke-width=".283" stroke-linecap="round" stroke-linejoin="round" stroke-miterlimit="10" d="M275.9 176.9h-1m1.5 0V82.5h-.9"/><path clip-rule="evenodd" fill="none" stroke="#020405" stroke-width=".283" stroke-linecap="round" stroke-linejoin="bevel" stroke-miterlimit="10" d="M274.9 70.9l.2.6.8.4"/><path clip-rule="evenodd" fill="none" stroke="#020405" stroke-width=".283" stroke-linecap="round" stroke-linejoin="round" stroke-miterlimit="10" d="M275.9 71.9v10.6m1.1 105h-1.1m1.1-10.6h-1.1m1.1-105h-1.1m1.1 10.6h-1.1m-24.1 53.7v24.9"/><path clip-rule="evenodd" fill="none" stroke="#020405" stroke-width=".283" stroke-linecap="round" stroke-linejoin="bevel" stroke-miterlimit="10" d="M251.8 161.1l.2 2.1.9 2.1 1.1 1.7 1.8 1.3 2 .8 2.1.3"/><path clip-rule="evenodd" fill="none" stroke="#020405" stroke-width=".283" stroke-linecap="round" stroke-linejoin="round" stroke-miterlimit="10" d="M259.9 169.4l5.7.2"/><path clip-rule="evenodd" fill="none" stroke="#020405" stroke-width=".283" stroke-linecap="round" stroke-linejoin="bevel" stroke-miterlimit="10" d="M271.7 175.9l-.4-1.9-.7-1.7-1.4-1.3-1.7-1-1.9-.4"/><path clip-rule="evenodd" fill="none" stroke="#020405" stroke-width=".283" stroke-linecap="round" stroke-linejoin="round" stroke-miterlimit="10" d="M271.7 175.9v17.3"/><path clip-rule="evenodd" fill="none" stroke="#020405" stroke-width=".283" stroke-linecap="round" stroke-linejoin="bevel" stroke-miterlimit="10" d="M265.6 199.4l1.9-.3 1.7-1 1.4-1.3.7-1.7.4-1.9"/><path clip-rule="evenodd" fill="none" stroke="#020405" stroke-width=".283" stroke-linecap="round" stroke-linejoin="round" stroke-miterlimit="10" d="M265.6 199.4l-17.1.6m0-140.7l17.1.4"/><path clip-rule="evenodd" fill="none" stroke="#020405" stroke-width=".283" stroke-linecap="round" stroke-linejoin="bevel" stroke-miterlimit="10" d="M271.7 66l-.4-1.9-.7-1.7-1.4-1.4-1.7-.9-1.9-.4"/><path clip-rule="evenodd" fill="none" stroke="#020405" stroke-width=".283" stroke-linecap="round" stroke-linejoin="round" stroke-miterlimit="10" d="M271.7 66v17.3"/><path clip-rule="evenodd" fill="none" stroke="#020405" stroke-width=".283" stroke-linecap="round" stroke-linejoin="bevel" stroke-miterlimit="10" d="M265.6 89.5l1.9-.4 1.7-.9 1.4-1.3.7-1.8.4-1.8"/><path clip-rule="evenodd" fill="none" stroke="#020405" stroke-width=".283" stroke-linecap="round" stroke-linejoin="round" stroke-miterlimit="10" d="M265.6 89.7h-5.7"/><path clip-rule="evenodd" fill="none" stroke="#020405" stroke-width=".283" stroke-linecap="round" stroke-linejoin="bevel" stroke-miterlimit="10" d="M259.9 89.9l-2.1.4-2 .7-1.8 1.4-1.1 1.7-.9 2.1-.2 2"/><path clip-rule="evenodd" fill="none" stroke="#020405" stroke-width=".283" stroke-linecap="round" stroke-linejoin="round" stroke-miterlimit="10" d="M251.8 98.2v24.7"/><path clip-rule="evenodd" fill="none" stroke="#020405" stroke-width=".283" stroke-linecap="round" stroke-linejoin="bevel" stroke-miterlimit="10" d="M252 123.1l-1.2 1.9-.7 2.3-.2 2.3.2 2.3.7 2.2 1.2 1.9"/><path clip-rule="evenodd" fill="none" stroke="#020405" stroke-width=".283" stroke-linecap="round" stroke-linejoin="round" stroke-miterlimit="10" d="M280.1 195.5h-3.7m3.7-67.8H278m22.6 31.9h-15.2m0 6.2h9.5v-6.2m5.7 0v6.2h-5.7"/><path clip-rule="evenodd" fill="none" stroke="#020405" stroke-width=".283" stroke-linecap="round" stroke-linejoin="round" stroke-miterlimit="10" d="M285.4 158.4h16.7v8.4h-16.7zm-2.9-24.6v57.7m28.5-52.1v46.4m-29.8-52h1.3m-1.3 57.7h1.3m0-52.1H311m-28.5 46.4H311m-53.2-5.5l-.1-.8"/><path clip-rule="evenodd" fill="none" stroke="#020405" stroke-width=".283" stroke-linecap="round" stroke-linejoin="bevel" stroke-miterlimit="10" d="M259.7 180.3l-1.9.2"/><path clip-rule="evenodd" fill="none" stroke="#020405" stroke-width=".283" stroke-linecap="round" stroke-linejoin="round" stroke-miterlimit="10" d="M259.6 179.3v.8"/><path clip-rule="evenodd" fill="none" stroke="#020405" stroke-width=".283" stroke-linecap="round" stroke-linejoin="bevel" stroke-miterlimit="10" d="M259.7 179.5l-1.9.2"/><path clip-rule="evenodd" fill="none" stroke="#020405" stroke-width=".283" stroke-linecap="round" stroke-linejoin="round" stroke-miterlimit="10" d="M254.8 186h-.8"/><path clip-rule="evenodd" fill="none" stroke="#020405" stroke-width=".283" stroke-linecap="round" stroke-linejoin="bevel" stroke-miterlimit="10" d="M254.8 184.1l.2 1.9"/><path clip-rule="evenodd" fill="none" stroke="#020405" stroke-width=".283" stroke-linecap="round" stroke-linejoin="round" stroke-miterlimit="10" d="M253.9 184.1h.7"/><path clip-rule="evenodd" fill="none" stroke="#020405" stroke-width=".283" stroke-linecap="round" stroke-linejoin="bevel" stroke-miterlimit="10" d="M254 184.1l.2 1.9"/><path clip-rule="evenodd" fill="none" stroke="#020405" stroke-width=".283" stroke-linecap="round" stroke-linejoin="round" stroke-miterlimit="10" d="M260.3 189l.2.6"/><path clip-rule="evenodd" fill="none" stroke="#020405" stroke-width=".283" stroke-linecap="round" stroke-linejoin="bevel" stroke-miterlimit="10" d="M258.6 189l1.9-.2"/><path clip-rule="evenodd" fill="none" stroke="#020405" stroke-width=".283" stroke-linecap="round" stroke-linejoin="round" stroke-miterlimit="10" d="M258.6 189.8v-.8"/><path clip-rule="evenodd" fill="none" stroke="#020405" stroke-width=".283" stroke-linecap="round" stroke-linejoin="bevel" stroke-miterlimit="10" d="M258.6 189.8l1.9-.2"/><path clip-rule="evenodd" fill="none" stroke="#020405" stroke-width=".283" stroke-linecap="round" stroke-linejoin="round" stroke-miterlimit="10" d="M263.3 183.3h.8"/><path clip-rule="evenodd" fill="none" stroke="#020405" stroke-width=".283" stroke-linecap="round" stroke-linejoin="bevel" stroke-miterlimit="10" d="M263.5 185.2l-.2-1.9"/><path clip-rule="evenodd" fill="none" stroke="#020405" stroke-width=".283" stroke-linecap="round" stroke-linejoin="round" stroke-miterlimit="10" d="M264.3 185l-.8.2"/><path clip-rule="evenodd" fill="none" stroke="#020405" stroke-width=".283" stroke-linecap="round" stroke-linejoin="bevel" stroke-miterlimit="10" d="M264.3 185.2l-.2-1.9"/><path clip-rule="evenodd" fill="none" stroke="#020405" stroke-width=".283" stroke-linecap="round" stroke-linejoin="round" stroke-miterlimit="10" d="M257.8 180.3l.6 2.1v.1"/><path clip-rule="evenodd" fill="none" stroke="#020405" stroke-width=".283" stroke-linecap="round" stroke-linejoin="bevel" stroke-miterlimit="10" d="M259.6 182.5l-1.2.2"/><path clip-rule="evenodd" fill="none" stroke="#020405" stroke-width=".283" stroke-linecap="round" stroke-linejoin="round" stroke-miterlimit="10" d="M259.6 182.5v-2.4m-4.8 5.9l2.1-.6h.2"/><path clip-rule="evenodd" fill="none" stroke="#020405" stroke-width=".283" stroke-linecap="round" stroke-linejoin="bevel" stroke-miterlimit="10" d="M257.1 184.3l.2 1.1"/><path clip-rule="evenodd" fill="none" stroke="#020405" stroke-width=".283" stroke-linecap="round" stroke-linejoin="round" stroke-miterlimit="10" d="M257.1 184.3h-.4l-2.1-.2m5.7 4.9l-.4-2.3-.2-.2"/><path clip-rule="evenodd" fill="none" stroke="#020405" stroke-width=".283" stroke-linecap="round" stroke-linejoin="bevel" stroke-miterlimit="10" d="M258.8 186.7l1.1-.2"/><path clip-rule="evenodd" fill="none" stroke="#020405" stroke-width=".283" stroke-linecap="round" stroke-linejoin="round" stroke-miterlimit="10" d="M258.8 186.7v.2l-.2 2.1m4.7-5.7l-2 .6h-.2"/><path clip-rule="evenodd" fill="none" stroke="#020405" stroke-width=".283" stroke-linecap="round" stroke-linejoin="bevel" stroke-miterlimit="10" d="M261.3 185l-.2-1.1"/><path clip-rule="evenodd" fill="none" stroke="#020405" stroke-width=".283" stroke-linecap="round" stroke-linejoin="round" stroke-miterlimit="10" d="M261.3 185h.2l2 .2m-6.4.2l1.1.4.6.9m.9-.2l.4-.9 1.2-.6m-.2-1.1l-1-.4-.5-1m-1.2 0l-.4 1.2-.9.6"/><path clip-rule="evenodd" fill="none" stroke="#020405" stroke-width=".283" stroke-linecap="round" stroke-linejoin="bevel" stroke-miterlimit="10" d="M265.8 184.6l-.2-1.7-.8-1.7c-2.6-4.5-9.7-4.3-11.8.8l-.6 1.7v1.9c1.1 6.2 9.1 7.8 12.3 2.5l.8-1.7.3-1.8z"/><path clip-rule="evenodd" fill="none" stroke="#020405" stroke-width=".283" stroke-linecap="round" stroke-linejoin="bevel" stroke-miterlimit="10" d="M267 184.6l-.2-1.9-.8-1.9c-3.1-5.8-11.7-5.1-14 .9l-.6 1.9v1.9c1.2 7.4 10.8 9.4 14.6 2.8l.8-1.9.2-1.8z"/><path clip-rule="evenodd" fill="none" stroke="#020405" stroke-width=".283" stroke-linecap="round" stroke-linejoin="round" stroke-miterlimit="10" d="M259.9 182.2l-.3-2.9"/><path clip-rule="evenodd" fill="none" stroke="#020405" stroke-width=".283" stroke-linecap="round" stroke-linejoin="bevel" stroke-miterlimit="10" d="M260.1 182.4l.4.7.8.2"/><path clip-rule="evenodd" fill="none" stroke="#020405" stroke-width=".283" stroke-linecap="round" stroke-linejoin="round" stroke-miterlimit="10" d="M264.1 183.3l-2.8.2m.2 1.9l2.8-.4"/><path clip-rule="evenodd" fill="none" stroke="#020405" stroke-width=".283" stroke-linecap="round" stroke-linejoin="bevel" stroke-miterlimit="10" d="M261.5 185.6l-.8.4-.2.7"/><path clip-rule="evenodd" fill="none" stroke="#020405" stroke-width=".283" stroke-linecap="round" stroke-linejoin="round" stroke-miterlimit="10" d="M260.5 189.6l-.2-2.9m-2.1.2l.4 2.9"/><path clip-rule="evenodd" fill="none" stroke="#020405" stroke-width=".283" stroke-linecap="round" stroke-linejoin="bevel" stroke-miterlimit="10" d="M258.2 186.9l-.4-.7-.7-.2"/><path clip-rule="evenodd" fill="none" stroke="#020405" stroke-width=".283" stroke-linecap="round" stroke-linejoin="round" stroke-miterlimit="10" d="M254 186l2.9-.2m0 0v-.4m1.3 1.5h.6m1.5-.2h-.4m1.6-1.3v-.4m-.2-1.5v.4m-1.4-1.7l-.3.2m-2.9 1.5l-2.8.2"/><path clip-rule="evenodd" fill="none" stroke="#020405" stroke-width=".283" stroke-linecap="round" stroke-linejoin="bevel" stroke-miterlimit="10" d="M256.9 183.7l.8-.4.1-.8"/><path clip-rule="evenodd" fill="none" stroke="#020405" stroke-width=".283" stroke-linecap="round" stroke-linejoin="round" stroke-miterlimit="10" d="M257.7 179.5l.1 2.9m0 0h.6m-1.7 1.5v.4M255 72.8l-.6-.4"/><path clip-rule="evenodd" fill="none" stroke="#020405" stroke-width=".283" stroke-linecap="round" stroke-linejoin="bevel" stroke-miterlimit="10" d="M256.1 71.5l-.9 1.5"/><path clip-rule="evenodd" fill="none" stroke="#020405" stroke-width=".283" stroke-linecap="round" stroke-linejoin="round" stroke-miterlimit="10" d="M255.6 70.9l.5.4"/><path clip-rule="evenodd" fill="none" stroke="#020405" stroke-width=".283" stroke-linecap="round" stroke-linejoin="bevel" stroke-miterlimit="10" d="M255.6 71.1l-1 1.3"/><path clip-rule="evenodd" fill="none" stroke="#020405" stroke-width=".283" stroke-linecap="round" stroke-linejoin="round" stroke-miterlimit="10" d="M257.3 78.9l-.4.6"/><path clip-rule="evenodd" fill="none" stroke="#020405" stroke-width=".283" stroke-linecap="round" stroke-linejoin="bevel" stroke-miterlimit="10" d="M255.9 77.7l1.6 1"/><path clip-rule="evenodd" fill="none" stroke="#020405" stroke-width=".283" stroke-linecap="round" stroke-linejoin="round" stroke-miterlimit="10" d="M255.4 78.3l.4-.6"/><path clip-rule="evenodd" fill="none" stroke="#020405" stroke-width=".283" stroke-linecap="round" stroke-linejoin="bevel" stroke-miterlimit="10" d="M255.6 78.3l1.3 1"/><path clip-rule="evenodd" fill="none" stroke="#020405" stroke-width=".283" stroke-linecap="round" stroke-linejoin="round" stroke-miterlimit="10" d="M263.2 76.6l.5.4"/><path clip-rule="evenodd" fill="none" stroke="#020405" stroke-width=".283" stroke-linecap="round" stroke-linejoin="bevel" stroke-miterlimit="10" d="M262.2 77.9l1-1.5"/><path clip-rule="evenodd" fill="none" stroke="#020405" stroke-width=".283" stroke-linecap="round" stroke-linejoin="round" stroke-miterlimit="10" d="M262.8 78.5l-.6-.6"/><path clip-rule="evenodd" fill="none" stroke="#020405" stroke-width=".283" stroke-linecap="round" stroke-linejoin="bevel" stroke-miterlimit="10" d="M262.8 78.3l.9-1.3"/><path clip-rule="evenodd" fill="none" stroke="#020405" stroke-width=".283" stroke-linecap="round" stroke-linejoin="round" stroke-miterlimit="10" d="M260.9 70.5l.4-.5"/><path clip-rule="evenodd" fill="none" stroke="#020405" stroke-width=".283" stroke-linecap="round" stroke-linejoin="bevel" stroke-miterlimit="10" d="M262.4 71.7l-1.5-1"/><path clip-rule="evenodd" fill="none" stroke="#020405" stroke-width=".283" stroke-linecap="round" stroke-linejoin="round" stroke-miterlimit="10" d="M262.8 71.1l-.4.6"/><path clip-rule="evenodd" fill="none" stroke="#020405" stroke-width=".283" stroke-linecap="round" stroke-linejoin="bevel" stroke-miterlimit="10" d="M262.8 71.1l-1.3-1"/><path clip-rule="evenodd" fill="none" stroke="#020405" stroke-width=".283" stroke-linecap="round" stroke-linejoin="round" stroke-miterlimit="10" d="M255 72.8l1.9 1 .2.1"/><path clip-rule="evenodd" fill="none" stroke="#020405" stroke-width=".283" stroke-linecap="round" stroke-linejoin="bevel" stroke-miterlimit="10" d="M257.8 73l-.5.9"/><path clip-rule="evenodd" fill="none" stroke="#020405" stroke-width=".283" stroke-linecap="round" stroke-linejoin="round" stroke-miterlimit="10" d="M256.1 71.3l1.6 1.7m-.4 5.9l.9-2.1.2-.2"/><path clip-rule="evenodd" fill="none" stroke="#020405" stroke-width=".283" stroke-linecap="round" stroke-linejoin="bevel" stroke-miterlimit="10" d="M257.5 76l.9.6"/><path clip-rule="evenodd" fill="none" stroke="#020405" stroke-width=".283" stroke-linecap="round" stroke-linejoin="round" stroke-miterlimit="10" d="M257.5 76l-1.7 1.7m7.4-1.1l-1.9-1.1h-.2"/><path clip-rule="evenodd" fill="none" stroke="#020405" stroke-width=".283" stroke-linecap="round" stroke-linejoin="bevel" stroke-miterlimit="10" d="M260.5 76.4l.6-.9"/><path clip-rule="evenodd" fill="none" stroke="#020405" stroke-width=".283" stroke-linecap="round" stroke-linejoin="round" stroke-miterlimit="10" d="M260.5 76.4h.2l1.5 1.5m-1.3-7.4l-1 2.1"/><path clip-rule="evenodd" fill="none" stroke="#020405" stroke-width=".283" stroke-linecap="round" stroke-linejoin="bevel" stroke-miterlimit="10" d="M260.9 73.4l-1-.6"/><path clip-rule="evenodd" fill="none" stroke="#020405" stroke-width=".283" stroke-linecap="round" stroke-linejoin="round" stroke-miterlimit="10" d="M260.7 73.4l1.7-1.7m-4 4.9l1-.6 1.1.4m.6-.9l-.6-1 .2-1.1m-.8-.8l-1.1.6-1.1-.2m-.6.9l.6 1-.2 1.1"/><path clip-rule="evenodd" fill="none" stroke="#020405" stroke-width=".283" stroke-linecap="round" stroke-linejoin="bevel" stroke-miterlimit="10" d="M265.8 74.7l-.2-1.7-.8-1.7c-2.6-4.5-9.7-4.3-11.8.8l-.6 1.7v1.9c1.1 6.2 9.1 7.8 12.3 2.5l.8-1.7.3-1.8z"/><path clip-rule="evenodd" fill="none" stroke="#020405" stroke-width=".283" stroke-linecap="round" stroke-linejoin="bevel" stroke-miterlimit="10" d="M267 74.7l-.2-1.9-.8-1.9c-3.1-5.7-11.7-5.1-14 .9l-.6 1.9v1.9c1.2 7.4 10.8 9.4 14.6 2.8l.8-1.9.2-1.8z"/><path clip-rule="evenodd" fill="none" stroke="#020405" stroke-width=".283" stroke-linecap="round" stroke-linejoin="round" stroke-miterlimit="10" d="M257.8 72.6l-2.2-1.7"/><path clip-rule="evenodd" fill="none" stroke="#020405" stroke-width=".283" stroke-linecap="round" stroke-linejoin="bevel" stroke-miterlimit="10" d="M258 72.4l.8.2.8-.4"/><path clip-rule="evenodd" fill="none" stroke="#020405" stroke-width=".283" stroke-linecap="round" stroke-linejoin="round" stroke-miterlimit="10" d="M261.3 70l-1.7 2.2m1.7 1.2l1.5-2.3"/><path clip-rule="evenodd" fill="none" stroke="#020405" stroke-width=".283" stroke-linecap="round" stroke-linejoin="bevel" stroke-miterlimit="10" d="M261.3 73.6l-.2.7.4.8"/><path clip-rule="evenodd" fill="none" stroke="#020405" stroke-width=".283" stroke-linecap="round" stroke-linejoin="round" stroke-miterlimit="10" d="M263.7 77l-2.2-1.7m-1.2 1.5l2.5 1.7"/><path clip-rule="evenodd" fill="none" stroke="#020405" stroke-width=".283" stroke-linecap="round" stroke-linejoin="bevel" stroke-miterlimit="10" d="M260.1 77l-.7-.2-.8.4"/><path clip-rule="evenodd" fill="none" stroke="#020405" stroke-width=".283" stroke-linecap="round" stroke-linejoin="round" stroke-miterlimit="10" d="M256.9 79.5l1.7-2.3m0 0l-.4-.4m2.1 0l.4-.4m.8-1.1l-.2.2m0-2.1l-.4-.2m-1.3-1l.3.4m-2.1 0l-.1.4m-.8 3l-1.5 2.3"/><path clip-rule="evenodd" fill="none" stroke="#020405" stroke-width=".283" stroke-linecap="round" stroke-linejoin="bevel" stroke-miterlimit="10" d="M256.9 75.8l.2-.7-.4-.8"/><path clip-rule="evenodd" fill="none" stroke="#020405" stroke-width=".283" stroke-linecap="round" stroke-linejoin="round" stroke-miterlimit="10" d="M254.4 72.4l2.3 1.7m0 0l.2-.3m0 2.2l.4.2"/><path clip-rule="evenodd" fill="none" stroke="#020405" stroke-width=".227" stroke-linecap="round" stroke-linejoin="round" stroke-miterlimit="10" d="M159.1 77.2h-44.6m22.4-22.4v44.8m7.8-20.5v38.3m0 24.5v38.4m14.4 1.9h-44.6m22.4-22.4v44.6m142.4-43.3h-38.4m19.2-19.2v38.4m23.4-50.7h-44.6m22.4-22.2V152m18-53.8h-38.4m19.2-19.1v38.1"/><path fill="none" stroke="#000" stroke-width=".283" stroke-miterlimit="3.864" d="M254.2 98.3c0-3.2 2.6-5.9 5.9-5.9 3.3 0 5.9 2.6 5.9 5.9 0 3.2-2.6 5.9-5.9 5.9-3.2-.1-5.9-2.7-5.9-5.9z"/><path fill="none" stroke="#000" stroke-width=".283" stroke-miterlimit="3.864" d="M256.1 98.2c0-2.2 1.8-4 4-4s4 1.8 4 4-1.8 4-4 4c-2.2.1-4-1.7-4-4z"/><circle fill="none" stroke="#000" stroke-width=".283" stroke-miterlimit="3.864" cx="261.2" cy="129.6" r="9.1"/><path d="M255 129.6c0-3.5 2.8-6.3 6.3-6.3s6.3 2.8 6.3 6.3-2.8 6.3-6.3 6.3-6.3-2.8-6.3-6.3z"/><path fill="none" d="M255 129.6c0-3.5 2.8-6.3 6.3-6.3s6.3 2.8 6.3 6.3-2.8 6.3-6.3 6.3-6.3-2.8-6.3-6.3z"/><path fill="none" stroke="#000" stroke-width=".283" stroke-miterlimit="3.864" d="M254.3 161.1c0-3.2 2.6-5.9 5.9-5.9 3.2 0 5.9 2.6 5.9 5.9 0 3.3-2.6 5.9-5.9 5.9-3.3 0-5.9-2.7-5.9-5.9z"/><path fill="none" stroke="#000" stroke-width=".283" stroke-miterlimit="3.864" d="M256.1 161.1c0-2.2 1.8-4 4-4s4 1.8 4 4-1.8 4-4 4-4-1.8-4-4zm-128.4 21c0-5.1 4.1-9.2 9.2-9.2s9.2 4.1 9.2 9.2-4.1 9.2-9.2 9.2-9.2-4.1-9.2-9.2z"/><path fill="none" stroke="#000" stroke-width=".283" stroke-miterlimit="3.864" d="M130.6 182.2c0-3.5 2.8-6.3 6.3-6.3s6.3 2.8 6.3 6.3-2.8 6.3-6.3 6.3-6.3-2.8-6.3-6.3z"/><path d="M130.8 182.2c0-3.4 2.7-6.1 6.1-6.1 3.4 0 6.1 2.7 6.1 6.1 0 3.4-2.7 6.1-6.1 6.1-3.4 0-6.1-2.7-6.1-6.1z"/><path fill="none" d="M130.8 182.2c0-3.4 2.7-6.1 6.1-6.1 3.4 0 6.1 2.7 6.1 6.1 0 3.4-2.7 6.1-6.1 6.1-3.4 0-6.1-2.7-6.1-6.1z"/><path fill="none" stroke="#000" stroke-width=".283" stroke-miterlimit="3.864" d="M127.8 77.2c0-5 4.1-9.1 9.1-9.1s9.1 4.1 9.1 9.1-4.1 9.1-9.1 9.1-9.1-4.1-9.1-9.1z"/><path d="M130.8 77.2c0-3.4 2.7-6.1 6.1-6.1 3.4 0 6.1 2.7 6.1 6.1 0 3.4-2.7 6.1-6.1 6.1-3.3 0-6.1-2.7-6.1-6.1z"/><path fill="none" d="M130.8 77.2c0-3.4 2.7-6.1 6.1-6.1 3.4 0 6.1 2.7 6.1 6.1 0 3.4-2.7 6.1-6.1 6.1-3.3 0-6.1-2.7-6.1-6.1z"/><path fill="none" stroke="#000" stroke-width=".283" stroke-miterlimit="3.864" d="M130.6 77.2c0-3.5 2.8-6.3 6.3-6.3s6.3 2.8 6.3 6.3-2.8 6.3-6.3 6.3-6.3-2.8-6.3-6.3zm8.2 21.1c0-3.3 2.6-5.9 5.9-5.9s5.9 2.6 5.9 5.9c0 3.3-2.6 5.9-5.9 5.9s-5.9-2.7-5.9-5.9z"/><path fill="none" stroke="#000" stroke-width=".283" stroke-miterlimit="3.864" d="M140.7 98.3c0-2.2 1.8-4 4-4s4 1.8 4 4-1.8 4-4 4c-2.2-.1-4-1.8-4-4z"/><path fill="none" stroke="#000" stroke-width=".283" stroke-miterlimit="3.864" d="M140.9 98.2c0-2.1 1.7-3.8 3.8-3.8 2.1 0 3.8 1.7 3.8 3.8 0 2.1-1.7 3.8-3.8 3.8-2.1.1-3.8-1.7-3.8-3.8z"/><path fill="none" stroke="#000" stroke-width=".283" stroke-miterlimit="3.864" d="M141.1 98.2c0-2 1.6-3.6 3.6-3.6s3.6 1.6 3.6 3.6-1.6 3.6-3.6 3.6c-2 .1-3.6-1.6-3.6-3.6z"/><g fill="none" stroke="#000" stroke-width=".283" stroke-miterlimit="3.864"><path d="M138.8 161.1c0-3.3 2.6-5.9 5.9-5.9 3.3 0 5.9 2.6 5.9 5.9s-2.6 5.9-5.9 5.9c-3.3 0-5.9-2.6-5.9-5.9z"/><path d="M140.7 161.1c0-2.2 1.8-4 4-4s4 1.8 4 4-1.8 4-4 4-4-1.8-4-4z"/><path d="M140.9 161.1c0-2.1 1.7-3.8 3.8-3.8 2.1 0 3.8 1.7 3.8 3.8 0 2.1-1.7 3.8-3.8 3.8-2.1 0-3.8-1.7-3.8-3.8z"/><path d="M141 161.1c0-2 1.6-3.6 3.6-3.6s3.6 1.6 3.6 3.6-1.6 3.6-3.6 3.6-3.6-1.6-3.6-3.6z"/></g><path clip-rule="evenodd" fill="none" stroke="#020405" stroke-width=".227" stroke-linecap="round" stroke-linejoin="round" stroke-miterlimit="10" stroke-dasharray="12,2,2,2" d="M45.1 129.6h246.2"/><path clip-rule="evenodd" fill="none" stroke="#020405" stroke-width=".227" stroke-linecap="round" stroke-linejoin="round" stroke-miterlimit="10" d="M312.6 129.6h-46.1m-101.3 31.5h-38.4m37.1-62.8h-38.3"/><g clip-rule="evenodd"><path fill-rule="evenodd" fill="#FFF" d="M115.3 70.6l4.2-7.8L131.2 73l-1.1 2.1z"/><path fill="none" stroke="#FFF" stroke-width=".003" stroke-miterlimit="3.864" d="M115.3 70.6l4.2-7.8L131.2 73l-1.1 2.1z"/><path fill-rule="evenodd" d="M120.1 64.9l-2.7 5.1 13.3 3.8z"/><path fill="none" stroke="#000" stroke-width=".227" stroke-miterlimit="3.864" d="M118.8 67.5L28.1 18.3"/></g><g clip-rule="evenodd"><path fill-rule="evenodd" fill="#FFF" d="M116 189.2l4.3 7.9 11.7-10.3-1.2-2.1z"/><path fill="none" stroke="#FFF" stroke-width=".003" stroke-miterlimit="3.864" d="M116 189.2l4.3 7.9 11.7-10.3-1.2-2.1z"/><path fill-rule="evenodd" d="M118.2 189.8l2.7 5.1 10.6-8.9z"/><path fill="none" stroke="#000" stroke-width=".227" stroke-miterlimit="3.864" d="M119.5 192.4l-90.7 49.1"/></g><g clip-rule="evenodd"><path fill-rule="evenodd" fill="#FFF" d="M283 123.5l-4.3-7.9-11.7 10.3 1.2 2.1z"/><path fill="none" stroke="#FFF" stroke-width=".003" stroke-miterlimit="3.864" d="M283 123.5l-4.3-7.9-11.7 10.3 1.2 2.1z"/><path fill-rule="evenodd" d="M280.9 122.9l-2.8-5.2-10.5 9z"/><path fill="none" stroke="#000" stroke-width=".227" stroke-miterlimit="3.864" d="M279.5 120.3l90.7-49.1"/></g><g font-family="Helvetica,Arial,sans-serif" font-size="12"><text transform="translate(8.5 18.324)">(a)</text><text transform="translate(8.5 248.242)">(a)</text><text transform="translate(376 70.808)">(b)</text><text transform="translate(177 124.925)">Bottom</text></g></svg>