<svg version="1.0" xmlns="http://www.w3.org/2000/svg" viewBox="0 0 180 185"><path clip-rule="evenodd" fill="none" stroke="#FFF" stroke-width=".1" stroke-miterlimit="3.864" d="M5.8 2.6H175V184H5.8z"/><path clip-rule="evenodd" fill="none" stroke="#000" stroke-width=".5" stroke-miterlimit="3.864" stroke-dasharray="2,2" d="M7.7 8h165.6v169.2H7.7z"/><g clip-rule="evenodd"><circle fill-rule="evenodd" cx="52.5" cy="110.3" r="1"/><circle fill="none" stroke="#000" stroke-width=".25" stroke-miterlimit="3.864" cx="52.5" cy="110.3" r="1"/></g><g clip-rule="evenodd"><circle fill-rule="evenodd" cx="52.5" cy="116.3" r="1"/><circle fill="none" stroke="#000" stroke-width=".25" stroke-miterlimit="3.864" cx="52.5" cy="116.3" r="1"/></g><g clip-rule="evenodd"><circle fill-rule="evenodd" cx="52.5" cy="122.3" r="1"/><circle fill="none" stroke="#000" stroke-width=".25" stroke-miterlimit="3.864" cx="52.5" cy="122.3" r="1"/></g><g clip-rule="evenodd"><circle fill-rule="evenodd" cx="52.5" cy="128.3" r="1"/><circle fill="none" stroke="#000" stroke-width=".25" stroke-miterlimit="3.864" cx="52.5" cy="128.3" r="1"/></g><g clip-rule="evenodd"><path fill-rule="evenodd" fill="#5EC5ED" d="M7.8 8.1h165.4v6H7.8z"/><path fill="none" stroke="#000" stroke-width=".2" stroke-miterlimit="3.864" d="M7.8 8.1h165.4v6H7.8z"/></g><g clip-rule="evenodd"><path fill-rule="evenodd" fill="#FFF" d="M7.8 95.6h165.4v6H7.8z"/><path fill="none" stroke="#000" stroke-width=".2" stroke-miterlimit="3.864" d="M7.8 95.6h165.4v6H7.8z"/></g><g clip-rule="evenodd"><path fill-rule="evenodd" fill="#5EC5ED" d="M7.8 83.1h165.4v6H7.8z"/><path fill="none" stroke="#000" stroke-width=".2" stroke-miterlimit="3.864" d="M7.8 83.1h165.4v6H7.8z"/></g><g clip-rule="evenodd"><path fill-rule="evenodd" fill="#FFF" d="M7.8 70.6h165.4v6H7.8z"/><path fill="none" stroke="#000" stroke-width=".2" stroke-miterlimit="3.864" d="M7.8 70.6h165.4v6H7.8z"/></g><g clip-rule="evenodd"><path fill-rule="evenodd" fill="#5EC5ED" d="M7.8 58.1h165.4v6H7.8z"/><path fill="none" stroke="#000" stroke-width=".2" stroke-miterlimit="3.864" d="M7.8 58.1h165.4v6H7.8z"/></g><g clip-rule="evenodd"><path fill-rule="evenodd" fill="#FFF" d="M7.8 45.6h165.4v6H7.8z"/><path fill="none" stroke="#000" stroke-width=".2" stroke-miterlimit="3.864" d="M7.8 45.6h165.4v6H7.8z"/></g><g clip-rule="evenodd"><path fill-rule="evenodd" fill="#5EC5ED" d="M7.8 33.1h165.4v6H7.8z"/><path fill="none" stroke="#000" stroke-width=".2" stroke-miterlimit="3.864" d="M7.8 33.1h165.4v6H7.8z"/></g><g clip-rule="evenodd"><path fill-rule="evenodd" fill="#FFF" d="M7.8 20.6h165.4v6H7.8z"/><path fill="none" stroke="#000" stroke-width=".2" stroke-miterlimit="3.864" d="M7.8 20.6h165.4v6H7.8z"/></g><g clip-rule="evenodd"><path fill-rule="evenodd" fill="#5EC5ED" d="M7.7 14.4h165.4v6H7.7z"/><path fill="none" stroke="#000" stroke-width=".2" stroke-miterlimit="3.864" d="M7.7 14.4h165.4v6H7.7z"/></g><g clip-rule="evenodd"><path fill-rule="evenodd" fill="#FFF" d="M7.8 26.9h165.4v6H7.8z"/><path fill="none" stroke="#000" stroke-width=".2" stroke-miterlimit="3.864" d="M7.8 26.9h165.4v6H7.8z"/></g><g clip-rule="evenodd"><path fill-rule="evenodd" fill="#5EC5ED" d="M7.8 39.4h165.4v6H7.8z"/><path fill="none" stroke="#000" stroke-width=".2" stroke-miterlimit="3.864" d="M7.8 39.4h165.4v6H7.8z"/></g><g clip-rule="evenodd"><path fill-rule="evenodd" fill="#FFF" d="M7.8 51.9h165.4v6H7.8z"/><path fill="none" stroke="#000" stroke-width=".2" stroke-miterlimit="3.864" d="M7.8 51.9h165.4v6H7.8z"/></g><g clip-rule="evenodd"><path fill-rule="evenodd" fill="#5EC5ED" d="M7.8 64.4h165.4v6H7.8z"/><path fill="none" stroke="#000" stroke-width=".2" stroke-miterlimit="3.864" d="M7.8 64.4h165.4v6H7.8z"/></g><g clip-rule="evenodd"><path fill-rule="evenodd" fill="#FFF" d="M7.8 76.9h165.4v6H7.8z"/><path fill="none" stroke="#000" stroke-width=".2" stroke-miterlimit="3.864" d="M7.8 76.9h165.4v6H7.8z"/></g><g clip-rule="evenodd"><path fill-rule="evenodd" fill="#5EC5ED" d="M7.8 89.4h165.4v6H7.8z"/><path fill="none" stroke="#000" stroke-width=".2" stroke-miterlimit="3.864" d="M7.8 89.4h165.4v6H7.8z"/></g><g clip-rule="evenodd"><path fill-rule="evenodd" fill="#5EC5ED" d="M7.8 158.6h165.4v6H7.8z"/><path fill="none" stroke="#000" stroke-width=".2" stroke-miterlimit="3.864" d="M7.8 158.6h165.4v6H7.8z"/></g><g clip-rule="evenodd"><path fill-rule="evenodd" fill="#FFF" d="M7.8 146.1h165.4v6H7.8z"/><path fill="none" stroke="#000" stroke-width=".2" stroke-miterlimit="3.864" d="M7.8 146.1h165.4v6H7.8z"/></g><g clip-rule="evenodd"><path fill-rule="evenodd" fill="#5EC5ED" d="M7.8 133.6h165.4v6H7.8z"/><path fill="none" stroke="#000" stroke-width=".2" stroke-miterlimit="3.864" d="M7.8 133.6h165.4v6H7.8z"/></g><g clip-rule="evenodd"><path fill-rule="evenodd" fill="#FFF" d="M7.8 171.1h165.4v6H7.8z"/><path fill="none" stroke="#000" stroke-width=".2" stroke-miterlimit="3.864" d="M7.8 171.1h165.4v6H7.8z"/></g><g clip-rule="evenodd"><path fill-rule="evenodd" fill="#5EC5ED" d="M7.8 139.9h165.4v6H7.8z"/><path fill="none" stroke="#000" stroke-width=".2" stroke-miterlimit="3.864" d="M7.8 139.9h165.4v6H7.8z"/></g><g clip-rule="evenodd"><path fill-rule="evenodd" fill="#FFF" d="M7.8 152.4h165.4v6H7.8z"/><path fill="none" stroke="#000" stroke-width=".2" stroke-miterlimit="3.864" d="M7.8 152.4h165.4v6H7.8z"/></g><g clip-rule="evenodd"><path fill-rule="evenodd" fill="#5EC5ED" d="M7.8 164.9h165.4v6H7.8z"/><path fill="none" stroke="#000" stroke-width=".2" stroke-miterlimit="3.864" d="M7.8 164.9h165.4v6H7.8z"/></g></svg>