<svg version="1.0" xmlns="http://www.w3.org/2000/svg" viewBox="0 0 520 293.5"><g clip-rule="evenodd"><path fill-rule="evenodd" d="M403.2 39.7h97.3v57.1h-97.3z"/><path fill="none" stroke="#000" stroke-width="1.117" stroke-miterlimit="3.864" d="M403.2 39.7h97.3v57.1h-97.3z"/></g><g clip-rule="evenodd"><path fill-rule="evenodd" fill="#FFF" d="M400.3 35.9h97.3V93h-97.3z"/><path fill="none" stroke="#000" stroke-width="1.117" stroke-miterlimit="3.864" d="M400.3 35.9h97.3V93h-97.3z"/></g><path clip-rule="evenodd" fill="none" stroke="#2950A3" stroke-miterlimit="3.864" stroke-dasharray="12,2,2,2" d="M409.1 49.1h35.1"/><path clip-rule="evenodd" fill="none" stroke="#55B956" stroke-miterlimit="3.864" stroke-dasharray="2,2" d="M409.1 67.2h35.1"/><path clip-rule="evenodd" fill="none" stroke="#F04A3A" stroke-miterlimit="3.864" stroke-dasharray="72" d="M409.1 85.4h35.1"/><path clip-rule="evenodd" fill="none" stroke="#000" stroke-width=".227" stroke-miterlimit="3.864" d="M40.4 59.7l359.5-.2m8.9 36.7v153.9m33.9-154.3v155.5m31.9-153.6v153.6"/><path clip-rule="evenodd" fill="none" stroke="#000" stroke-width=".866" stroke-miterlimit="3.864" d="M41.1 21l467.6-.2v229.9l-467.6.3z"/><path clip-rule="evenodd" fill="none" stroke="#000" stroke-width=".227" stroke-miterlimit="3.864" d="M73.7 22.4v228.3M108.2 20v228.2m33.2-225.8v228.3m33.2-229.3v229.3m32.2-229.9l.4 230.5m34.4-228.9v228.3m32.6-230.6v231.8M308 22.4v228.3m33.8-227.6v228.2M375 23.7v228.2M39.1 98.5l468.9-.3m-466.7 39L508 137M42.7 176.6l467.2-.3M40.7 214.1l466.7-.3"/><path clip-rule="evenodd" fill="none" stroke="#000" stroke-width=".045" stroke-miterlimit="3.864" d="M500.4 60.2l7.9-.4"/><path fill="none" stroke="#000" stroke-width=".227" stroke-miterlimit="3.864" d="M408.5 21.3v14.3m35-14.6v14.3M476.4 21v14.3"/><g font-family="Helvetica,Arial,sans-serif"><text transform="rotate(-90 112.889 99.136)" fill="#131718" font-size="12">Quantum Efficiency (%)</text><text transform="translate(32.422 253.963)" font-size="8">0</text><text transform="translate(27.968 215.99)" font-size="8">10</text><text transform="translate(27.968 180.99)" font-size="8">20</text><text transform="translate(27.968 139.99)" font-size="8">30</text><text transform="translate(27.968 100.99)" font-size="8">40</text><text transform="translate(27.968 61.99)" font-size="8">50</text><text transform="translate(27.968 23.99)" font-size="8">60</text><text transform="translate(35.855 264.121)" font-size="8">400</text><text transform="translate(99.957 264.121)" font-size="8">500</text><text transform="translate(167.324 264.121)" font-size="8">600</text><text transform="translate(234.906 264.121)" font-size="8">700</text><text transform="translate(301.906 264.121)" font-size="8">800</text><text transform="translate(369.788 264.121)" font-size="8">900</text><text transform="translate(432.953 264.121)" font-size="8">1000</text><text transform="translate(66.957 264.121)" font-size="8">450</text><text transform="translate(136.458 264.121)" font-size="8">550</text><text transform="translate(200.958 264.121)" font-size="8">650</text><text transform="translate(266.69 264.121)" font-size="8">750</text><text transform="translate(336.406 264.121)" font-size="8">850</text><text transform="translate(400.639 264.121)" font-size="8">950</text><text transform="translate(462.734 264.121)" font-size="8">1050</text><g font-size="8"><text transform="translate(496.234 264.121)">1</text><text transform="translate(500.937 264.121)">100</text></g><text transform="translate(455.734 52.63)" fill="#131718" font-size="12">Blue</text><text transform="translate(455.734 69.928)" fill="#131718" font-size="12">Green</text><text transform="translate(455.734 88.678)" fill="#131718" font-size="12">Red</text><text transform="translate(213.312 285.334)" font-size="12">Wavelength (nm)</text></g><g clip-rule="evenodd" fill="none" stroke-miterlimit="3.864"><path stroke="#2950A3" stroke-dasharray="12,2,2,2" d="M42.4 174.4l6.1-21.8 4.9-8.9 4.2-8.4 3.5-5.8 3.7-6.9 2.9-5.1 7.4-8.3 4.3-1.8 2.5-.6 4.9 2.9 2.6 1.5 2.3 3.4 3.8 4.9 2.9 6 2.5 6.3 2 5.2 2.8 9.2 2.8 7.4 2.2 8 3.8 13.2 3.8 13.2 4.7 13.2 5.6 14.8 7.7 8.3 7.3 6.3 5.2 4.5 4.9 2.2 7.5.3 8.8.2 5.1 1.5 3.7 1.4 4.2.3 6.3 2 8-1.4 8.1-2.3 5.5-1.4 4.3-1.5 2.6-.6 3.2-1.2 6.1-1.8 6.5-.6 7.2-1.9 8.5-1.4 5.4 2 5.5 1.2h6.3l4.6-1.7 5.1-.6 2.7-.7 6.6-1.7 3.7-.8 7.1-6 8.1-18.1 3.5-7.5 1.8-2.8 3.7-.6 2.6-1.5 4.3.8 3.8-.3 4.2-.5 4.9-.8 2.6-.3 8 6 5.8 5.1 4.8 1.7 4.9 1.1 5.8.3 6.1 1.1 5.1 2.5 5.2 3.4 6.5 5.1 8.3 7.4 8.3 4.2 7.4 3.1 6.9 2.6 8.8 3.4 5.5 2.6 4.6 2.5 4.3 1.1 6.9 4.5 7.1-.2c3.4.5 7.6 1.2 12.5 2.3-1 .5 4.8.6 4.8.6l9.2.8"/><path stroke="#F04A3A" d="M41.9 227.7L58 240.3c1-.8 8.6 6.1 8.6 6.1l8.8 1.3c.4-1.1 9.5.9 9.5.9l6.6-1.4 7-.7c.4 1 6.5 0 6.5 0l5.2-.9s2.4.5 2.3-.8c2 1.6 4.9-1.8 4.9-1.8 2 1.6 6-2.9 6-2.9l6.3-2.7 8 .6 4.9.3 3-.1 10.6-3.9 9.2-60.6 4-38.7 1.2-5.2 4-6.8 1.2-4 6.5-2.2 9.2 11.4 4.6 5.2 7.1-3.4 12.9 10.1 7.4.9 7.1 9.5 5.5 5.5.9.3-.3.6 4.8-2.2 8.1-1.4 5.2 3.4 2.5 1.8 1.8.9c2.3-.8 4.3 2.8 4.3 2.8l-2.2-1.2 3.4 1.2 11.7-2.8 13.2 8.9 11.4-1.2 4.3.3 5.2 2.8 7.1 8.3 7.1 4.3 11.7 2.5 12 10.8 8 4 7.4.6 8.9 1.8 6.8 3.4 8 6.8 9.8 8 11.7 4.9 8.3 3.1 8.3 3.4 7.7 4 9.2 4 7.4 2.8 7.4 1.2 7.4 1.5 10.5 1.5 8.9 1.2"/><path stroke="#55B956" stroke-width="1.09" stroke-dasharray="2,2" d="M44.1 241.6l6.8-.9 6.5-3.1h6.1l7.7-5.8 6.9-5.3 4.4-1.7c-.8-.8 4.1-5.4 4-2.8-1.7-1.1 3.9-5.6 3.9-5.6l19.1-67.3 6.8-19.1 5.5-15.4 2.3-5 6.6-4.5 6.8-.2 12.3 20 16.3 39.7 7.5 26.6 4.8 15.7 4 8.6 2.5 5.4 6.1 6.6 5.8 3.1 8.6-1.1 7.4.6 6-1.4 20.1-12.6 6.5-6.5 5.4-3.4 13.7 5.2 14-10.5 4.8-2.8h8l9.5-5.2 4.3-3.4 5.5-2.2 11.7 2.6 16.3-1.2 13.5 11.7 8.3 2 8.3.5 6.8 1.8 9.2 6.6 13.2 11.7 19.7 7.8 19.5 8.5 17.2 5.7 10.5 2 7.2 1.5 11.1.9"/></g></svg>