<svg version="1.0" xmlns="http://www.w3.org/2000/svg" viewBox="0 0 328.2 250"><path fill="#FFF" d="M368.8 139.4V71.5c0-.6-.4-.7-.9-.9l-2.5-.1c-.6 0-.8-.5-.8-.8V57.9c0-.5-.4-.9-.9-1l-10.3-.3-1.5.4H216.6l-1.5-.4h-47l-2.2 2.4v131.3l2.2 2.4h47l1.5-.4h135.3l1.5.4 10.3-.3c.5 0 .9-.4.9-1v-4.1c0-.5.4-.9.9-1l22.7-.9c.6 0 1.1-.5 1.1-1.1V141c0-.6-.5-1.1-1.1-1.1l-19.4-.5z"/><path fill="none" stroke="#000" stroke-width=".283" stroke-miterlimit="10" d="M368.8 139.4V71.5c0-.6-.4-.7-.9-.9l-2.5-.1c-.6 0-.8-.5-.8-.8V57.9c0-.5-.4-.9-.9-1h0l-10.3-.3-1.5.4H216.6l-1.5-.4h-47l-2.2 2.4v131.3l2.2 2.4h47l1.5-.4h135.3l1.5.4 10.3-.3h0c.5 0 .9-.4.9-1v-4.1c0-.5.4-.9.9-1l22.7-.9c.6 0 1.1-.5 1.1-1.1V141c0-.6-.5-1.1-1.1-1.1l-19.4-.5z"/><path fill="none" stroke="#000" stroke-width=".283" stroke-linecap="round" stroke-linejoin="round" stroke-miterlimit="10" d="M216.5 150.3h.1m-20.8-56.7l.5-.1.1-.2m-.6.3H166m0 9.9h30.4m0 0V56.7m0 6.1h168.2m-148 82.9v5.1m0-93.7v135.1m216.9-39.5c0-.4-.5-.7-1.1-.7h-16.9c-3 0-6 .3-8.8 1l-31.7 7.2c-3.4.8-7 1.2-10.6 1.2H278c-9.5 0-16.6-2.7-22.7-7.3l-5-3.6c-4.7-3.5-11.6-5.5-18.8-5.5h.1-13.9c-.6 0-1.1.3-1.1.7"/><g fill="none" stroke="#000" stroke-width=".283" stroke-linecap="round" stroke-linejoin="round" stroke-miterlimit="10"><path d="M225.8 80.6l.3 2.6c.1.6.6 1 1.2 1l2.5-.1.1 1.6-2.4.3c-.6.1-1 .6-1 1.2l.1 2.5-1.6.3-.3-2.6c-.1-.6-.6-1-1.2-1l-2.6.1-.1-1.6 2.6-.3c.6-.1 1-.6 1-1.2l-.1-2.6 1.5-.2zm-.4 12.1h-8.7"/><path d="M225.5 72.4c7.1 0 12.8 5.7 12.8 12.8 0 7.1-5.7 12.8-12.8 12.8h-8.8m0-20.3h8.7m0-5.3h-8.7"/><circle cx="225.5" cy="85.2" r="7.4"/></g><g fill="none" stroke="#000" stroke-width=".283" stroke-linecap="round" stroke-linejoin="round" stroke-miterlimit="10"><path d="M227.7 159l.3 2.6c.1.6.6 1 1.2 1l2.5-.1.1 1.6-2.4.3c-.6.1-1 .6-1 1.2l.1 2.5-1.6.3-.3-2.6c-.1-.6-.6-1-1.2-1l-2.6.1-.1-1.6 2.6-.3c.6-.1 1-.6 1-1.2l-.1-2.6 1.5-.2zm-.4 12.1h-10.4"/><path d="M227.3 150.8c7.1 0 12.8 5.7 12.8 12.8 0 7.1-5.7 12.8-12.8 12.8h-10.5m.1-20.3h10.4m0-5.3h-10.4"/><path d="M217.8 163.6c0 4.1 5.4 7.4 9.5 7.4s7.4-3.3 7.4-7.4c0-4.1-3.3-7.4-7.4-7.4-4.1 0-9.5 3.3-9.5 7.4z"/></g><path fill="none" stroke="#000" stroke-width=".283" stroke-linecap="round" stroke-linejoin="round" stroke-miterlimit="10" d="M165.9 59.1h30.5m-.6 96.7l.5.2.1.1m-.6-.3H166m0-9.9h30.4m0 0v46.8m-30.5-2.3h30.5m0-3.7h168.5"/><path fill="#FFF" d="M213.5 57.1h-45.4l-2.2 2.4v130.9l2.2 2.4h45.4s16.9-24.1 16.9-67.9c0-43.9-16.9-67.8-16.9-67.8z"/><path fill="none" stroke="#1A1A18" stroke-width=".283" stroke-miterlimit="10" d="M213.5 57.1h-45.4l-2.2 2.4v130.9l2.2 2.4h45.4s16.9-24.1 16.9-67.9c0-43.9-16.9-67.8-16.9-67.8z"/><path fill="#F5F5F5" stroke="#000" stroke-width=".283" stroke-miterlimit="3.864" d="M70.4 53.1H166v11.2h43.8v6h6.8v108.9h-6.8v6.3H166v10.9H70.4z"/><g clip-rule="evenodd" fill="none" stroke-width=".283"><path stroke="#1D1D1B" stroke-miterlimit="3.864" d="M211.8 66.2H166m47.2 2.4l-1.4-2.4m7.7 2.5l-6.3-.1m0 112.4l6.3-.2m-7.7 2.6l1.4-2.4m-45.2 2.4h43.8m-45.8 2.1l2-2.1m55.2-12l-.1.1m0 0l-.1.1M166 64.3v121.2m45.8-2.1v-.4m0 0v-3.9m0-108.8v-4m0 0v-.1m1.4 2.4v1.7m0 108.8v1.8m0 0v.1m8.3-5l-2.1-.1m6.9-16.9v-1.6m-1.8 1.6h1.8m-1.8 1.6V159m-.7 2.3l.2-.1m0 0l.2-.1m0 0l.2-.2m0 0l.1-.3m-2.7.7h2m-2-3.5v3.5m.1-3.9l-.1.4m1.4-5.5l-1.3 5.1m-.4-5.9l.2-.2m0 0l.3-.2m0 0h.3m0 0h.4m0 0l.3.2m0 0l.2.2m0 0l.1.4m0 0l-.1.4m-4.5 4.4l2.8-5.2m-3.1 6.3l.1-.6m0 0l.2-.5m-.3 18.3V74.8m1 101.1l-1-.9m1-101.3l2.1-.1m-3.1 1.1l1-1m-.7 19.3l-.2-.6m0 0l-.1-.6m3.1 6.2l-2.8-5m4.5 4.3l.1.4m0 0l-.1.3m0 0l-.2.3m0 0l-.3.1m0 0l-.4.1m0 0l-.3-.1m0 0l-.3-.1m0 0l-.2-.3m.4-5.8l1.3 5.1m-1.4-5.5l.1.4m-.1-4v3.6m2-3.6h-2m2.7.7l-.1-.2m0 0l-.2-.3m0 0l-.2-.1m0 0l-.2-.1m.7 2.4v-1.7m1.8 1.7h-1.8m1.8 1.6v-1.6m.8 2.3h-.3m0 0l-.2-.2m0 0l-.2-.2m0 0l-.1-.3m-3.1-3.5v-.5m-4.8 3.6v.2m7.9 57.4h.2m0 0h.1m0 0h.1m0 0h.1m0 0h.1m0 0h.2m0 0h.1m0 0h.1m0 0h.1m0 0h.1m0 0h.2m0 0h.1m0 0h.1m0 0h.1m0 0h.1m0 0h.1m0 0h.1m0 0h.1m-5.2 10.7h-.1m0 0h-.1m0 0v-.1m0 0h-.1m0 0h-.1m5.6-59.9h-.1m0 0h-.1m0 0h-.1m0 0h-.1m0 0h-.1m0 0h-.1m0 0h-.1m0 0h-.2m0 0h-.1m0 0h-.1m0 0h-.1m0 0h-.1m0 0h-.2m0 0h-.1m0 0h-.1m0 0h-.1m0 0h-.1m0 0h-.2m2.4 47.5h-.1m0 0h-.2m0 0h-.1m0 0h-.2m0 0h-.1m0 0h-.2m0 0h-.1m0 0l-.2-.1m0 0h-.1m0 0h-.2m0 0h-.1m0 0h-.2m0 0h-.1m0 0h-.2m0 0h-.1m0 0h-.2m0-45.4h.2m0 0h.1m0 0h.2m0 0h.1m0 0h.2m0 0h.1m0 0h.2m0 0h.1m0 0h.2m0 0h.1m0 0h.2m0 0h.1m0 0h.2m0 0h.1m0 0h.2m0 0h.1m-5.5-13.4v.3m0 0v.3m0 0v.1m0 0v.1m-.4 0h.1m0 0h.1m0 0h.1m0 0h.1m-1.4.7v.1m0 0v.1m8.3 24.9h-.1m0 0h-.2m0 0h-.1m0 0h-.2m0 0h-.1m0 0h-.2m0 0h-.2m0 0h-.2m0 0h-.1m0 0h-.2m0 0h-.1m0 0h-.2m0 0h-.1m0 0h-.2m0 0h-.2m0 0h-.1m0 0l-.2.1m0 0h-.1m0 0h-.2m0 0h-.1m0 0h-.2m0 0h-.2m0 0h-.1m0 0h-.2m-3.1 44.7v1.2m-1.4-2.2v.2m0 0v.1m8.4-43l-3.9.1m.3 37h.1m0 0h.1m0 0h.1m0 0h.1m0 0h.1m0 0h.1m0 0h.1m-.7 0h-.1m0 0h-.1m0 0h-.1m.3-57.5h.1m0 0h.1m0 0h.1m0 0h.1m0 0h.1m0 0h.1m0 0h.1m-1 0h.1m0 0h.1m0 0h.1m-3.8-5.9h.1m0 0h.1m0 0h.1m0 0h.1m0 0h.1m0 0h.1m0 0h.1m0 0h.1m0 0h.1m0 0h.1m0 0h.1m0 0h.2m0 0h.1m0 0h.1m0 0h.1m0 0h.1m2.1 4.4h-.1m0 0v.1m0 0h-.1m0 0h-.1m3.1 48.7h-.2m0 0h-.2m0 0h-.1m0 0h-.1m0 0h-.1m0 0h-.1m0 0h-.2m0 0h-.1m0 0h-.1m0 0h-.1m0 0h-.1m0 0h-.2m0 0h-.1m0 0h-.1m0 0h-.1m0 0h-.2m0 0h-.1m0 0h-.1m0 0h-.2m0 0h-.1m0 0h-.1m0 0h-.1m0 0h-.1m0 0h-.2m-1.8 16.1h-.1m0 0h-.1m0 0h-.1m0 0h-.1m0 0h-.2m0 0h-.1m0 0h-.1m0 0h-.1m0 0h-.1m0 0h-.1m0 0h-.1m0 0h-.1m0 0h-.1m0 0h-.1m0 0h-.1m0 0h-.1"/><path stroke="#000" stroke-linecap="round" stroke-linejoin="round" stroke-miterlimit="10" d="M226.3 144.5h.2m0 0h.1m0 0h.1m0 0h.1m0 0h.1m0 0h.2m0 0h.1m0 0h.1m0 0h.1m0 0h.1m0 0h.1m0 0h.1m0 0h.1m0 0h.2m0 0h.1m0 0h.1m0 0h.1m0 0h.1m0 0h.2m0 0h.1m0 0h.1m0 0h.1m0 0h.1m0 0h.2"/><path stroke="#1D1D1B" stroke-miterlimit="3.864" d="M227.3 155.8v-2.3m-.1-57.5h.1m0 0v-2.3m0 0h-.3m0 0h-.2m0 0h-.2m0 .7v.1m0-1.8v1.7m-3.8-4.3l-.4.1m0 0l-.3.2m0 0l-.2.1m0 0l-.1.3m1-.7V90m0 0v-.1m0 0v-.1m0 0v-.1m0 0v-.1m0 0v-.1m0 69.9l-.4-.1m0 0l-.3-.1m0 0l-.2-.2m0 0l-.1-.3m1 1.3v-.1m0 0v-.1m0 0v-.1m0 0v-.1m0 0v-.1m0 0v-.1m4.4-40.5h-.3m0 0h-.3m0 0h-.2m0 0h-.1m0 11.7h.1m0 0h.2m0 0h.3m0 0h.3m0 0v-11.7m3.1.1l-3.1-.1m3.1 11.6l-3.1.1m-.9 2.6l3.9.1m.1-.7l-4-.1M221.5 98v53.5m-3.1-7.6h4.6m-4.6-38.2h4.6m0-14.4h3.3m-3.3 66.9V91.3m3.3 66.9H223m3.3-66.9v66.9M218 68.7l1-1m-4.1.9l3.1-3.1m-5.3 2.2l4.3-4.4m-6.1 2.9l5.1-5m-8.3 5l7.1-7.1m-10.3 7.1l9-9.1m-12.3 9.1l9.5-9.5M198 66.2l9.6-9.5m-12.8 9.5l9.6-9.5m-12.8 9.5l9.5-9.5m-12.7 9.5l9.4-9.5m-12.6 9.5l9.4-9.5m-12.7 9.5l9.5-9.5m-12.6 9.5l9.4-9.5m-12.6 9.5l9.4-9.5m-12.7 9.5l9.5-9.5m-12.7 9.5l9.6-9.5m-12.2 8.9l8.8-8.9m-9.3 6.2l6.1-6.2m37.7 136.1l7.8-7.9m-11.1 7.8l12-11.9m-15.1 11.9l11.8-11.8m-15 11.8l9.3-9.3m-12.6 9.4l9.4-9.4m-12.6 9.3l9.4-9.3m-12.5 9.3l9.2-9.3m-12.6 9.3l9.4-9.3m-12.5 9.3l9.4-9.3m-12.6 9.3l9.3-9.3m-12.5 9.3l9.3-9.3m-12.6 9.3l9.4-9.3m-12.6 9.3l9.3-9.3m-12.4 9.3l9.3-9.3m-10.8 7.5l7.6-7.5m-8.2 5l4.9-5m48.1-7.9l4.2-4.1m-4.8 1.4l6-5.9m-6 2.7l7.4-7.4m-7.4 4.2l5.2-5.1m.9-.9l1.4-1.4m.4-.5l.5-.4m-8.4 5l3.4-3.3m-3.4.1l3.8-3.6m-3.3 0l4.3-4.3m-1.1-53.6l1.1-1.1m3.3-4.9l.4-.4m-6.1 4.6l1.8-1.8m3.7-3.9l.3-.3m-7.1 3.9l2.4-2.2m2.6-2.7L226 88m-7.4 4.3l3.2-3.3m.9-.8l2.7-2.7m-7 3.7l6.2-6.2m-6.2 3l5.5-5.5m-5.5 2.3l4.8-4.7m-4.8 1.4l3.9-3.8m-3.9.6l2.8-2.6m4.8 84.5l-3-3m3.3.1l-3.1-3.1m3.1-.1l-3.3-3.3m3.3.2l-3.3-3.4m3.3.1l-3.3-3.3m3.3.1l-3.3-3.3m3.3.1l-3.3-3.4m3.3.1l-3.3-3.3m3.3.2l-3.3-3.3m3.3.1l-3.3-3.4m3.3.1l-3.3-3.3m3.3.1l-3.3-3.3m3.3.1l-3.3-3.4m3.3.2l-3.3-3.3m3.3.1l-3.3-3.3m3.3.1L223 107m3.3.1l-3.3-3.3m3.3.1l-3.3-3.4m3.3.2l-3-3m3-.2l-3.3-3.3m3.3.1l-2.8-3M166 183.4h43.6m.2-4.3V70.4m6.8 108.7h-6.8m6.8-108.7v108.7"/></g><g clip-rule="evenodd"><path fill="none" stroke="#1D1D1B" stroke-width=".227" stroke-miterlimit="3.864" d="M111 239.2H23.9"/><path fill-rule="evenodd" fill="#1D1D1B" d="M215.7 134.9l2.8 2.9 5.4-8z"/><path fill="none" stroke="#1D1D1B" stroke-width=".283" stroke-miterlimit="3.864" d="M217.1 136.3L111 239.2"/><path fill-rule="evenodd" fill="#1D1D1B" d="M32.6 73h3.9l-2-9zm3.9 103.7h-3.9l1.9 9z"/><path fill="none" stroke="#1D1D1B" stroke-width=".227" stroke-miterlimit="3.864" d="M34.5 73v103.7"/><path fill="none" stroke="#1D1D1B" stroke-width=".283" stroke-miterlimit="3.864" d="M166.1 64.1H32.2m133.9 121.4H32.2"/><path fill="none" stroke="#1D1D1B" stroke-width=".227" stroke-miterlimit="3.864" d="M105.6 40H19.5"/><path fill-rule="evenodd" fill="#1D1D1B" d="M53 79.2h3.9l-2-9zm3.9 91.1H53l1.9 9z"/><path fill="none" stroke="#1D1D1B" stroke-width=".227" stroke-miterlimit="3.864" d="M54.9 79.2v91.1"/><path fill="none" stroke="#1D1D1B" stroke-width=".283" stroke-miterlimit="3.864" d="M209.8 179.1H52.6M209.8 70.4H52.6"/><path fill="none" stroke="#1D1D1B" stroke-width=".227" stroke-miterlimit="3.864" d="M113.2 23.5H19.5"/><path fill-rule="evenodd" fill="#1D1D1B" d="M203 38.4v3.8l9-1.9zm-28.1 3.8v-3.8l-9 1.9z"/><path fill="none" stroke="#1D1D1B" stroke-width=".227" stroke-miterlimit="3.864" d="M203 40.3h-28.1m36.9 25.9V37.9"/><path fill-rule="evenodd" fill="#1D1D1B" d="M174.9 21.3v-3.9l-9 2zm34.7-3.9v3.9l9-1.9z"/><path fill="none" stroke="#1D1D1B" stroke-width=".227" stroke-miterlimit="3.864" d="M174.9 19.4h34.7M166 51V17"/><path fill="none" stroke="#1D1D1B" stroke-width=".283" stroke-miterlimit="3.864" d="M218.4 73.1V17"/><path fill-rule="evenodd" fill="#1D1D1B" d="M213.2 79.3l-2 3.5 9.1 2.9z"/><path fill="none" stroke="#1D1D1B" stroke-width=".283" stroke-miterlimit="3.864" d="M212.2 81l-99-57.5"/><path fill-rule="evenodd" fill="#1D1D1B" d="M112.3 43.6l-2.7 2.8 7.9 4.7z"/><path fill="none" stroke="#1D1D1B" stroke-width=".227" stroke-miterlimit="3.864" d="M110.9 45l-5.3-5"/></g><text transform="translate(19.863 19.274)" font-family="Helvetica,Arial,sans-serif" font-size="12">Filter holder</text><text transform="translate(18.863 36.5)" font-family="Helvetica,Arial,sans-serif" font-size="12">C-mount lens</text><text transform="rotate(-90 98.541 69.34)" font-family="Helvetica,Arial,sans-serif" font-size="12">C-mount thread</text><text transform="rotate(-90 102.508 50.806)" font-family="Helvetica,Arial,sans-serif" font-size="12">max. Ø 22</text><text transform="translate(27.672 225)" font-family="Helvetica,Arial,sans-serif" font-size="12">IR cut filter</text><text transform="translate(223.489 224)"><tspan x="0" y="0" font-family="Helvetica,Arial,sans-serif" font-size="12">Not to scale</tspan><tspan x="0" y="14.4" font-family="Helvetica,Arial,sans-serif" font-size="12">Dimensions in mm</tspan></text><text transform="translate(27.629 236)" font-family="Helvetica,Arial,sans-serif" font-size="8">(color cameras only)</text><text transform="translate(179.997 15.024)" font-family="Helvetica,Arial,sans-serif" font-size="12">10.9</text><text transform="translate(180.384 36.5)" font-family="Helvetica,Arial,sans-serif" font-size="12">10</text></svg>