<svg version="1.1" id="Layer_1" xmlns="http://www.w3.org/2000/svg" x="0" y="0" viewBox="0 0 550 400" xml:space="preserve"><style>.st0{fill:none;stroke:#000;stroke-width:.283;stroke-linecap:round;stroke-linejoin:round;stroke-miterlimit:10}.st1{fill-rule:evenodd;clip-rule:evenodd;fill:silver}.st2{fill:none;stroke:silver;stroke-width:.283;stroke-linecap:round;stroke-linejoin:round;stroke-miterlimit:10}.st3,.st4{stroke:#000}.st3,.st4,.st5{fill:none;stroke-width:.227}.st3{stroke-linecap:round;stroke-linejoin:round;stroke-miterlimit:10}.st4,.st5{stroke-miterlimit:3.864}.st5{stroke:#1e1e1c}.st6{fill:#010202}.st7{font-family:Helvetica,Arial,sans-serif}.st8{font-size:12px}.st10,.st9{fill-rule:evenodd;clip-rule:evenodd}.st9{fill:#1e1e1c}.st10{fill:#fff}.st11{fill:none;stroke:#fff;stroke-width:3.000000e-03;stroke-miterlimit:3.864}</style><path class="st0" d="M208.1 95.8h29.5m-30.5 1l1-1m-1 28.8V96.8m-26.6 27.8h26.6m-27.6 1.1l1-1.1m-1 7v-5.9m2.9 8.8l-2.9-2.9m48.1 2.9h-45.2m45.2.2v-.2m16.4.2h-16.4m11.3 156.5l-.2.5m0 0v.5m0 0l-.1.4m0 0l-.1.5m0 0l-.1.5m0 0l-.1.4m0 0l-.1.4m0 0l-.1.3m0 0v.3m0 0l-.1.3m0 0v.3m0 0v.2m0 0l-.1.2m0 0v.1m0 0l-.1.1m3.8-20.7l-.9 5.2m0 0l-.9 5.3m0 0l-.9 5.2m3.2-19l-.5 3.3m0-157.5l.5 3.2m-3.5-20.4l.8 4.3m0 0l.8 4.2m0 0l.7 4.4m0 0l.7 4.3m-4-22l.1.2m0 0v.2m0 0l.1.3m0 0v.2m0 0v.4m0 0l.2.3m0 0v.4m0 0l.1.5m0 0l.1.4m0 0l.1.5m0 0l.1.5m0 0l.1.4m0 0l.1.5m-11 156.6h16.5m-16.5.1v-.1m-45.2.1h45.2m-48.1 2.9l2.9-2.9m-2.9 8.9v-6m1 7l-1-1m27.6 1h-26.6m26.6 27.8v-27.8m1 28.8l-1-1m30.7 1h-29.7m34-195.4v-.5m0 0v-.5m0 0v-.5m0 0v-.5m0 0v-.4m0 0V98m0 0v-.4m0 0v-.3m0 0V97m0 0v-.3m0-.1v-.2m0 24.8v-20.4m0 190.4v-19m0 23.6v-.1m0 0v-.1m0 0v-.1m0 0v-.2m0 0v-.3m0 0v-.3m0 0v-.3m0 0v-.4m0 0v-.4m0 0v-.4m0 0v-.5m0 0v-.5m0 0v-.5m0 0v-.5m-.5-190.4V118m0 157.5v15.7m0-195.4l.5.5m-.5-.3v.2m0 0v.3m0 0v.2m0 0v.4m0 0v.4m0 0v.4m0 0v.4m0 0v.5m0 0v.5m0 0v.4m0 0v.6m0 0v.5m0 190.4v.5m0 0v.5m0 0v.6m0 0v.4m0 0v.5m0 0v.4m0 0v.5m0 0v.3m0 0v.4m0 0v.3m0 0v.2m0 0v.2m0 0v.1m0 0v.1m0 0l.5-.4m-14.5-161.1v.2m0 0v.2m0 0v.3m0 0v.3m0 0v.4m0 0v.4m0 0v.6m0 0v.5m0 0v.7m0 0v.7m0 0v.7m0 0v.8m0 0v.8m0 0v.9m0 0v1m0 0v1m0 0v1.1m0 0v1.1m0 0v1.1m0 0v1.2m0 0v1.3m0 0v1.3m0 0v1.3m0 0v1.4m0 0v1.4m0 0v1.5m0 0v1.5m0 0v1.5m0 0v1.6m0 0v1.6m0 0v1.7m0 0v1.6m0 0v1.7m0 0v1.8m0 0v1.7m0 0v1.8m0 0v1.8m0 0v1.8m0 0v1.9m0 0v1.8m0 0v1.9m0 0v1.9m0 0v1.9m0 0v1.9m0 0v1.9m0 0v1.9m0 0v2m0 0v1.9m0 0v1.9m0 0v2m0 0v1.9m0 0v1.9m0 0v1.9m0 0v1.9m0 0v1.9m0 0v1.9m0 0v1.8m0 0v1.9m0 0v1.8m0 0v1.8m0 0v1.8m0 0v1.7m0 0v1.8m0 0v1.7m0 0v1.6m0 0v1.7m0 0v1.6m0 0v1.6m0 0v1.6m0 0v1.5m0 0v1.4m0 0v1.4m0 0v1.4m0 0v1.3m0 0v1.4m0 0v1.2m0 0v1.2m0 0v1.2m0 0v1.1m0 0v1m0 0v1m0 0v1m0 0v.9m0 0v.8m0 0v.9m0 0v.7m0 0v.7m0 0v.6m0 0v.6m0 0v.4m0 0v.5m0 0v.4m0 0v.3m0 0v.3m0 0v.2m0 0v.1m0 0v.2m-45.2.1v-.1m0 0v-.2m0 0v-.2m0 0v-.3m0 0v-.3m0 0v-.4m0 0v-.4m0 0v-.5m0 0v-.6m0 0v-.7m0 0v-.6m0 0v-.8m0 0v-.7m0 0v-.9m0 0v-.9m0 0v-.9m0 0v-1.1m0 0v-1m0 0v-1.2m0 0v-1.1m0 0v-1.2m0 0v-1.3m0 0v-1.2m0 0v-1.4m0 0v-1.4m0 0v-1.4m0 0v-1.5m0 0v-1.5m0 0v-1.5m0 0v-1.6m0 0V229m0 0v-1.7m0 0v-1.7m0 0v-1.7m0 0v-1.7m0 0v-1.8m0 0v-1.8m0 0v-1.8m0 0V215m0 0v-1.9m0 0v-1.8m0 0v-1.9m0 0v-1.8m0 0v-2m0 0v-1.9m0 0v-1.9m0 0v-1.9m0 0v-2m0 0V196m0 0v-1.9m0 0v-2m0 0v-1.9m0 0v-1.9m0 0v-1.9m0 0v-1.9m0 0v-1.9m0 0v-1.9m0 0v-1.9m0 0V177m0 0v-1.8m0 0v-1.8m0 0v-1.8m0 0v-1.8m0 0v-1.7m0 0v-1.7m0 0v-1.7m0 0v-1.6m0 0v-1.6m0 0v-1.6m0 0v-1.6m0 0v-1.5m0 0v-1.4m0 0v-1.5m0 0v-1.4m0 0v-1.3m0 0v-1.3m0 0v-1.3m0 0v-1.2m0 0v-1.2m0 0v-1m0 0v-1.1m0 0v-1m0 0v-.9m0 0v-1m0 0v-.8m0 0v-.8m0 0v-.7m0 0v-.8m0 0v-.6m0 0v-.5m0 0v-.5m0 0v-.5m0 0v-.4m0 0v-.3m0 0v-.3m0 0v-.2m0 0v-.1m0 0v-.2m55.4 161.7h3.8m0-200.4h-4m10.1 92.5l-.1-.4m0 0l-.2-.4m0 0l-.1-.4m0 0l-.1-.4m0 0l-.1-.3m0 0v-.4m0 0l-.1-.3m0 0v-.4m0-9.8v-.8m0 0v-.9m0 0v-.9m0 0v-.9m0 0v-1m0 0v-.9m0 0v-1m0 0v-1m0 11.4v-.7m0 0v-.7m0 0v-.7m0 0v-.6m0 0v-.7m0 0v-.6m0 9.8v-5.8m-1.4 0v33m0-37v.6m0 0v.7m0 0v.6m0 0v.7m0 0v.7m0 0v.7m0-22.3v.7m0 0v.7m0 0v.8m0 0v.8m0 0v.9m0 0v.8m0 0v.9m0 0v.9m0 0v.9m0 0v.9m0 0v1m0 0v.9m0 0v1m0 0v.9m0 0v.9m0 0v1m0 0v.9m0 0v.9m0 0v.8m0 0v.9m0 0v.8m0-25.9v1m0 0v1m0 0v1.1m0 0v1m0 0v1.1m0 0v1.2m0 0v1.2m0 77.7v1.2m0 0v1.2m0 0v1.2m0 0v1.2m0 0v1m0 0v1.1m0 0v1m0 0v1m0-27.3v.8m0 0v.9m0 0v.9m0 0v.9m0 0v.9m0 0v.9m0 0v.9m0 0v.9m0 0v1m0 0v1m0 0v.9m0 0v.9m0 0v.9m0 0v.9m0 0v.9m0 0v.9m0 0v.8m0 0v.8m0 0v.8m0 0v.7m0 0v.8m0-22.4v.7m0 0v.7m0 0v.7m0 0v.6m0 0v.7m0 0v.6m1.4-4v-5.8m0 0v-.3m0 0l.1-.4m0 0v-.4m0 0l.1-.4m0 0l.1-.3m0 0l.1-.4m0 0l.2-.4m0 0l.2-.4m-.8 21.6v-.9m0 0v-.9m0 0v-.9m0 0v-1m0 0v-.9m0 0v-.8m0 0v-.9m0 0v-.9m0 0v-.8m0 0v-.8m0 0v-.6m0 0v-.7m0 0v-.6m0 0v-.7m0 0v-.7m0 0v-.7m-67.5-80.9v.1m0 0v.1m0 0v.1m0 0v.2m0 0v.3m0 0v.3m0 0v.4m0 0v.5m0 0v.5m0 0v.6m0 0v.6m0 0v.7m0 0v.7m0 0v.8m0 0v.9m0 0v.9m0 0v.9m0 0v1.1m0 0v1m0 0v1.2m0 0v1.1m0 0v1.3m0 0v1.2m0 0v1.3m0 0v1.4m0 0v1.4m0 0v1.5m0 0v1.4m0 0v1.6m0 0v1.5m0 0v1.6m0 0v1.7m0 0v1.6m0 0v1.7m0 0v1.8m0 0v1.7m0 0v1.8m0 0v1.8m0 0v1.9m0 0v1.8m0 0v1.9m0 0v1.9m0 0v1.9m0 0v1.9m0 0v2m0 0v1.9m0 0v2m0 0v2m0 0v2m0 0v2m0 0v1.9m0 0v2m0 0v2m0 0v2m0 0v2m0 0v1.9m0 0v1.9m0 0v2m0 0v1.9m0 0v1.9m0 0v1.9m0 0v1.9m0 0v1.9m0 0v1.8m0 0v1.8m0 0v1.8m0 0v1.8m0 0v1.7m0 0v1.7m0 0v1.7m0 0v1.6m0 0v1.6m0 0v1.6m0 0v1.5m0 0v1.5m0 0v1.5m0 0v1.3m0 0v1.4m0 0v1.3m0 0v1.2m0 0v1.3m0 0v1.2m0 0v1.1m0 0v1.1m0 0v1m0 0v.9m0 0v.9m0 0v.9m0 0v.8m0 0v.7m0 0v.8m0 0v.6m0 0v.6m0 0v.4m0 0v.5m0 0v.4m0 0v.3m0 0v.3m0 0v.2m0 0v.2m0 0v.1M385.4 95.8h-21.6m21.6 195.4v.5m0 0v.5m0 0v.6m0 0v.4m0 0v.5m0 0v.4m0 0v.5m0 0v.3m0 0v.4m0 0v.3m0 0v.2m0 0v.2m0 0v.1m0 0v.1m0-200.2v.2m0 0v.3m0 0v.2m0 0v.4m0 0v.4m0 0v.4m0 0v.4m0 0v.5m0 0v.5m0 0v.4m0 0v.6m0 0v.5m-21.6 195.4h21.6m-22-199.9l.4-.5m0 5v-.5m0 0v-.6m0 0v-.4m0 0v-.5m0 0v-.5m0 0v-.4m0 0v-.4m0 0v-.4m0 0v-.4m0 0v-.2m0 0v-.3m0 0V96m-.4.4v.2m0 .1v.3m0 0v.3m0 0v.3m0 0v.4m0 0v.4m0 0v.4m0 0v.5m0 0v.5m0 0v.5m0 0v.5m.4 190.4V100.8m-.4 0v190.4m0 4.6l.4.4m0 0v-.1m0 0v-.1m0 0v-.2m0 0v-.2m0 0v-.3m0 0v-.4m0 0v-.3m0 0v-.5m0 0v-.4m0 0v-.5m0 0v-.4m0 0v-.6m0 0v-.5m0 0v-.5m-.4 0v.5m0 0v.5m0 0v.5m0 0v.5m0 0v.4m0 0v.4m0 0v.4m0 0v.3m0 0v.3m0 0v.3m0 0v.2m0 0v.1m0 0v.1m0 0v.1m29.1-98.9v-.1m0 0v-.2m0 0v-.2m0 0v-.2m0 0v-.3m0 0v-.5m0 0v-.4m0 0v-.5m0 0v-.6m0 0v-.6m0 0v-.6m0 0v-.7m0 0v-.8m0 0v-.8m0 0v-.8m0 0v-.9m0 0v-1m0 0v-1m0 0v-1m0 0v-1.1m0 0v-1.1m0 0v-1.1m0 0v-1.2m0 0V180m0 0v-1.2m0 0v-1.3m0 0v-1.3m0 0V175m0 0v-1.4m0 0v-1.3m0 0V171m0 0v-1.4m0 0v-1.3m0 0v-1.4m0 0v-1.4m0 0v-1.3m0 0v-1.4m0 0v-1.4m0 0v-1.3m0 0v-1.4m0 0v-1.3m0 0v-1.3m0 0v-1.3m0 0v-1.2m0 0v-1.3m0 0V151m0 0v-1.2m0 0v-1.1m0 0v-1.2m0 0v-1.1m0 0v-1.1m0 0v-1m0 0v-.9m0 0v-1m0 0v-.9m0 0v-.8m0 0v-.9m0 0v-.8m0 0v-.7m0 0v-.6m0 0v-.6m0 0v-.6m0 0v-.5m0 0v-.4m0 0v-.4m0 0v-.3m0 0v-.2m0 0v-.3m0 0v-.1m0 0v-.1m-1.1-1v.1m0 0v.1m0 0v.2m0 0v.3m0 0v.3m0 0v.4m0 0v.5m0 0v.5m0 0v.5m0 0v.6m0 0v.7m0 0v.7m0 0v.8m0 0v.8m0 0v.8m0 0v.9m0 0v1m0 0v1m0 0v1m0 0v1.1m0 0v1.1m0 0v1.1m0 0v1.2m0 0v1.2m0 0v1.3m0 0v1.3m0 0v1.2m0 0v1.3m0 0v1.4m0 0v1.3m0 0v1.4m0 0v1.3m0 0v1.4m0 0v1.5m0 0v1.3m0 0v1.4m0 0v1.4m0 0v1.4m0 0v1.4m0 0v1.3m0 0v1.4m0 0v1.3m0 0v1.4m0 0v1.3m0 0v1.3m0 0v1.3m0 0v1.2m0 0v1.2m0 0v1.2m0 0v1.1m0 0v1.1m0 0v1.1m0 0v1m0 0v1.1m0 0v.9m0 0v.9m0 0v.9m0 0v.8m0 0v.8m0 0v.7m0 0v.6m0 0v.7m0 0v.5m0 0v.5m0 0v.5m0 0v.3m0 0v.3m0 0v.3m0 0v.3m0 0v.1m0 0v.1m-2 52.2l-1 1m0-10v.7m0 0v.8m0 0v.7m0 0v.8m0 0v.7m0 0v.6m0 0v.7m0 0v.6m0 0v.6m0 0v.6m0 0v.6m0 0v.5m0 0v.4m0 0v.4m0 0v.3m0 0v.4m0 0v.1m0 0v.3m0 0v.1m0 0v.1m1-1v-.1m0 0v-.1m0 0v-.2m0 0v-.3m0 0v-.3m0 0v-.3m0 0v-.4m0 0v-.5m0 0v-.4m0 0v-.5m0 0v-.6m0 0v-.6m0 0v-.6m0 0v-.7m0 0v-.6m0 0v-.7m0 0v-.7m0 0v-.7m0 0v-.7m-1-43.2v43.2m1 0v-43.2m3.1-1l-1.1 1m1.1-63.7l-1.1-1m-6-32.4v190.4m1.1 0V100.8m-1.1 195.4l1.1-1m0 0v-.1m0 0v-.2m0 0v-.2m0 0v-.2m0 0v-.3m0 0v-.4m0 0v-.3m0 0v-.4m0 0v-.5m0 0v-.4m0 0v-.5m0 0v-.5m-1.1-195.4l1.1 1m0 4v-.5m0 0v-.4m0 0v-.5m0 0V99m0 0v-.5m0 0v-.3m0 0v-.4m0 0v-.3m0 0v-.2m0 0V97m1.9 154.1h-1.9m4.9-53.2h-4.9m4.9-64.7h-4.9m-144.4-12l.8 5.4m0 0l.7 5.3m0 0l.7 5.4m0 0l.6 5.3m0 0l.6 5.4m0 0l.4 5.4m0 0l.5 5.4m0 0l.4 5.4m0 0l.3 5.4m0 0l.3 5.4m0 0l.2 5.4m0 0l.1 5.5m0 0l.1 5.4m0 0l.1 5.5m0 0l-.1 5.4m0 0l-.1 5.4m0 0l-.1 5.4m0 0l-.2 5.4m0 0l-.3 5.4m0 0l-.3 5.4m0 0l-.4 5.4m0 0l-.5 5.4m0 0l-.4 5.4m0 0l-.6 5.4m0 0l-.6 5.4m0 0l-.7 5.4m0 0l-.7 5.3m0 0l-.8 5.3m0 23h121.3m0-198.4H242.1m163.4 65.1h-9.1m14.6 0h-.1m0 0h-.1m0 0h-.3m0 0h-.2m0 0h-.3m0 0h-.3m0 0h-.4m0 0h-.3m0 0h-.4m0 0h-.4m0 0h-.4m0 0h-.4m0 0h-.4m0 0h-.3m0 0h-.3m0 0h-.3m0 0h-.2m0 0h-.2m0 0h-.2m-9.1 6.1h9.1m0 0v-6.1m0 6.1h.2m0 0h.2m0 0h.2m0 0h.3m0 0h.3m0 0h.3m0 0h.4m0 0h.4m0 0h.4m0 0h.4m0 0h.4m0 0h.3m0 0h.4m0 0h.3m0 0h.3m0 0h.2m0 0h.3m0 0h.1m0 0h.1m0-6.1v6.1m1.4.9h-16m16-8v1.2m0 0v1.1m0 0v1.2m0 0v1.1m0 0v1.1m0 0v1.2m0 0v1.1m-16-8h16m-16 8v-1.1m0 0v-1.2m0 0v-1.1m0 0v-1.1m0 0v-1.2m0 0v-1.1m0 0v-1.2m-2.7 31.6v-.1m0 0v-.1m0 0v-.1m0 0v-.2m0 0v-.3m0 0v-.3m0 0v-.4m0 0v-.4m0 0v-.5m0 0v-.6m0 0v-.6m0 0v-.7m0 0v-.7m0 0v-.8m0 0v-.7m0 0v-.9m0 0v-.9m0 0v-.9m0 0v-1.1m0 0v-1m0 0v-1m0 0v-1.1m0 0v-1.2m0 0v-1.1m0 0v-1.2m0 0v-1.2m0 0v-1.2m0 0v-1.3m0 0v-1.2m0 0v-1.3m0 0v-1.3m0 0v-1.2m0 0v-1.3m0 0v-1.4m0 0V163m0 0v-1.3m0 0v-1.3m0 0v-1.3m0 0v-1.2m0 0v-1.2m0 0v-1.3m0 0v-1.2m0 0V153m0 0v-1.1m0 0v-1.2m0 0v-1m0 0v-1.1m0 0v-1m0 0v-1m0 0v-1m0 0v-.9m0 0v-.8m0 0v-.8m0 0v-.8m0 0v-.7m0 0v-.6m0 0v-.7m0 0v-.5m0 0v-.5m0 0v-.4m0 0v-.5m0 0v-.3m0 0v-.3m0 0v-.2m0 0v-.1m0 0v-.1m27.3 49.7v-.1m0 0v-.1m0 0v-.3m0 0v-.3m0 0v-.3m0 0v-.4m0 0v-.4m0 0v-.5m0 0v-.5m0 0v-.7m0 0v-.6m0 0v-.7m0 0v-.8m0 0v-.8m0 0v-.9m0 0v-.8m0 0v-1m0 0v-.9m0 0v-1m0 0v-1m0 0v-1m0 0v-1.1m0 0v-1.1m0 0v-1.1m0 0v-1.2m0 0v-1.1m0 0v-1.2m0 0V166m0 0v-1.1m0 0v-1.1m0 0v-1.2m0 0v-1.1m0 0v-1.2m0 0v-1.1m0 0v-1.1m0 0V157m0 0v-1.1m0 0v-1m0 0v-1.1m0 0v-1m0 0v-.9m0 0v-.9m0 0v-.9m0 0v-.9m0 0v-.7m0 0v-.8m0 0v-.7m0 0v-.6m0 0v-.7m0 0v-.5m0 0v-.5m0 0v-.5m0 0v-.4m0 0v-.3m0 0v-.3m0 0v-.2m0 0v-.1m0 0v-.1m-28.5-5.4h1.2m-1.2 55.1h1.2m0-49.7H421m-27.3 44.3H421m-180.6 52.7v1.8m0-91.2v1.8m-.3.2h-.2m0 0l-.3-.1m0 0l-.2-.1m0 0l-.2-.1m-1.5-1.4l-.6-.1m3.3 1.6l-.3.2m0 87.2l.3.2m-10.3 17h-.2m0 0l-.3-.2m0 0l-.3-.1m0 0l-.3-.2m0 0l-.2-.2m0 0l-.1-.2m0 0l-.1-.3m0 0v-.3m0-118.5v-.3m0 0l.1-.3m0 0l.1-.3m0 0l.2-.2m0 0l.3-.2m0 0l.3-.1m0 0l.3-.1m0 0h.2m12.7 117.8h.1m-6.1-102.6l-1.4-1.3m-.3-.1l-.6-.1m4.7 3.1l-1.2-1.3m-3.8-1.9l-1.3-1.3m-.3-.2h-.5m5 3.2h-.2m0 0l-.1-.1m-1.4-1.3l-.1-.1m0 0h-.2m2.9 1.7l-.2-.1m0 0h-.1m-3.2-1.7l-.1-.1m0 0h-.1m0 0h-.1m-1.3-1.3v-.1m0 0l-.2-.1m0 0h-.1m-.5 0h-.2m0 0l-.1-.1m0 0l-.1-.1m0 0l-.1-.1m0 0v-.2m10.7 98.6v7.2m0 0l.1.2m0 0l.1.1m0 0l.1.1m0 0h.2m0-7.9h-.2m0 0h-.1m0 0l-.1.2m0 0l-.1.1m.6-.3h-.1m.1 7.9l.2.1m0 0h.1m0 0v.1m0 0l.2.2m0 0v.1m0-9v.2m0 0l-.2.1m0 0v.2m0 0h-.1m0 0l-.2.1m-11.8-106.1l-2.1-.8m0 0h-.2m0 0l-.1-.2m0 0l-.1-.1m0 0v-.1m3 1.9l-.1-.2m0 0v-.1m0 0l-.1-.2m0 0l-.2-.1m0 0l-.1-.1m11.3 117.4l-12.3.3m0-121.5l12.3.1m1 120.2v.2m0 0l-.2.2m0 0v.2m0 0l-.2.1m0 0l-.2.2m0 0h-.2m0 0h-.2m0-121.1l.2.1m0 0l.2.1m0 0l.2.1m0 0l.2.2m0 0v.1m0 0l.2.3m0 0v.2m0 117.1v2m0-119.1v1.9m0 9v1.1m0 95.1v1m-.8-1.8h.2m0 0l.2.1m0 0l.2.1m0 0v.2m0 0l.2.2m0 0v.2m-3.6-1.3v.2m0-93v.2m.6 91.9l-.2.1m0 0l-.1.1m0 0l-.2.1m0 0v.2m0 0l-.1.2m.3.4l2.5.1m-2.8-.3h.1m0 0v.2m0 0h.1m0 0h.1m-.3-93l.1.2m0 0v.2m0 0l.2.1m0 0l.1.1m0 0l.2.1m-.3-1.1h-.1m0 0l-.1.1m0 0v.1m0 0h-.1m2.8-.3l-2.5.1m3.3-.8v.2m0 0l-.2.2m0 0v.1m0 0l-.2.1m0 0l-.2.1m0 0h-.2m.3-2.3h.2m0 0l.1.1m0 0v.1m0 0l.2.2m0 0v.1m-.6-.5h.1m-.6-.4l.1.1m0 0l.1.2m0 0h.1m0 0l.2.1m-.5-7.6v7.2m.5-7.6l-.2.1m0 0h-.1m0 0l-.1.2m0 0l-.1.1m.6-.4h-.1m.6-.5v.2m0 0l-.2.1m0 0v.1m0 0l-.1.1m0 0h-.2m-11.3 113.3v-7.1m0-98.2v-7.1m-3 115.5v-1.1m0-116.3v-1.1M239.2 240l.2-.2m0 0l.2-.1m0 0l.3-.1m0 0h.2m-2.1 1.6l1.2-1.2m-1.5 1.4l.1-.1m0 0l.2-.1m-.9.2h.6m-.9.2l.1-.1m0 0v-.1m0 0h.2m-1.7 1.4l1.4-1.2m-1.7 1.4h.2m0 0v-.1m0 0l.1-.1m-.9.2h.6m-.9.2l.1-.1m0 0l.1-.1m0 0h.1m-1.6 1.5l1.3-1.3m-1.6 1.4h.1m0 0l.2-.1m-.8.1h.5m-1 .5v-.1m0 0l.1-.2m0 0l.1-.1m0 0l.1-.1m0 0h.2m-1 8.3l.1-.1m0 0l.2-.1m0 0l.1-.1m0 0v-.2m0 0l.1-.2m-2.6 1.4l2.1-.7m-2.5 1.3v-.2m0 0l.1-.2m0 0l.1-.1m0 0l.2-.1m11.1-33v-49.2m0 0v-1m0 0v-1.1m0 0v-1m0 0v-1.1m0 0v-1m0 0v-1.1m0 0v-.9m0 0v-1m0 0v-.9m0 0v-1m0 0v-.8m0 0v-.9m0 0v-.8m0 0v-.8m0 0v-.7m0 0v-.7m0 0v-.6m0 0v-.6m0 0v-.6m0 0v-.5m0 0v-.4m0 0v-.4m0 0v-.3m0 0v-.3m0 0v-.2m0 0v-.2m0 0v-.1m0 87.2v-.1m0 0v-.2m0 0v-.2m0 0v-.2m0 0v-.4m0 0v-.3m0 0v-.5m0 0v-.4m0 0v-.6m0 0v-.6m0 0v-.6m0 0v-.8m0 0v-.7m0 0v-.8m0 0v-.7m0 0v-.9m0 0v-.9m0 0v-.9m0 0v-1m0 0v-1m0 0v-.9m0 0v-1.1m0 0v-1m0 0v-1m0 0v-1.1m0 0v-1m0 0v-1.1m-8.5-15.8v15.8m0 0v1.2m0 0v1.2m0 0v1.2m0 0v1.2m0 0v1.1m0 0v1.2m0 0v1.2m0 0v1m0 0v1.2m0 0v1m0 0v1.1m0 0v1m0 0v1m0 0v1m0 0v.9m0 0v.8m0 0v.9m0 0v.7m0 0v.8m0 0v.7m0 0v.6m0 0v.6m0 0v.6m0 0v.5m0 0v.4m0 0v.4m0 0v.3m0 0v.2m0 0v.3m0 0v.1m0 0v.1m0-55.9v.6m0 0v.7m0 0v.6m0 0v.7m0 0v.8m0 0v.7m0 0v.8m0 0v.7m0 0v.8m0 0v.8m0 0v.8m0 0v.8m0 0v.7m0 0v.8m0 0v.7m0 0v.7m0 0v.7m0 0v.6m0 0v.6m0-55.9v.1m0 0v.1m0 0v.3m0 0v.2m0 0v.4m0 0v.3m0 0v.5m0 0v.4m0 0v.6m0 0v.6m0 0v.6m0 0v.8m0 0v.7m0 0v.8m0 0v.8m0 0v.9m0 0v.9m0 0v.9m0 0v1m0 0v1m0 0v1.1m0 0v1m0 0v1.2m0 0v1.1m0 0v1.2m0 0v1.1m0 0v1.2m0 0v1.1m0 0v1.2m0 0v1.2m0 0v1.2m0 0v15.8m0 0v.3m0 0v.3m0 0v.2m0 0v.3m0 0v.2m0 0v.2m0 0v.3m0 0v.2m0 13.6v.3m0 0v.1m0 0v.3m0 0v.3m0 0v.2m0 0v.3m0 0v.3m0 0v.2m-3-66.9v.1m0 0v.1m0 0v.3m0 0v.2m0 0v.4m0 0v.3m0 0v.5m0 0v.5m0 0v.5m0 0v.7m0 0v.7m0 0v.7m0 0v.8m0 0v.8m0 0v.9m0 0v1m0 0v.9m0 0v1.1m0 0v1.1m0 0v1.1m0 0v1.2m0 0v1.2m0 0v1.3m0 0v1.3m0 0v1.4m0 0v1.4m0 0v1.5m0 0v1.4m0 0v1.5m0 0v1.6m0 0v1.6m0 0v1.6m0 0v1.6m0 0v1.7m0 0v1.7m0 0v1.7m0 0v1.8m0 0v1.8m0 0v1.7m0 0v1.8m0 0v1.8m0 0v1.9m0 0v1.8m0 0v1.8m0 0v1.9m0 0v1.8m0 7.2v1.8m0 0v1.9m0 0v1.8m0 0v1.9m0 0v1.8m0 0v1.8m0 0v1.8m0 0v1.8m0 0v1.8m0 0v1.7m0 0v1.7m0 0v1.7m0 0v1.7m0 0v1.7m0 0v1.5m0 0v1.6m0 0v1.6m0 0v1.5m0 0v1.5m0 0v1.5m0 0v1.3m0 0v1.4m0 0v1.3m0 0v1.3m0 0v1.2m0 0v1.2m0 0v1.1m0 0v1.1m0 0v1.1m0 0v1m0 0v.9m0 0v.9m0 0v.9m0 0v.7m0 0v.8m0 0v.7m0 0v.6m0 0v.5m0 0v.6m0 0v.4m0 0v.4m0 0v.3m0 0v.2m0 0v.3m0 0v.1m0 0v.1m0 0v.1m0-55.2v.3m0 0v.3m0-7.2v.4m0 0v.2m0 0v.7m0 0v.7m0 0v.6m0 0v.7m0 0v.6m0 0v.7m0 0v.7m0 0v.6m0 0v.7m16.2 53.1l-2 .1m2.6-5.9l-2.6-.2m2.4-100.3l-2.4.1m1.8-6h-1.8m0 106.2h-.2m0 0l-.1-.1m0 0l-.1-.2m0 0l-.1-.1m0 6.9l.1-.2m0 0l.1-.1m0 0l.1-.1m0 0h.2m0-112.3l-.2-.1m0 0h-.1m0 0l-.1-.2m0 0l-.1-.1m0 6.9l.1-.2m0 0l.1-.1m0 0l.1-.1m0 0l.2-.1m.6 94.5h1.2m-1.2 5.1v-5.1m1.2 5.1h-1.2m1.2-5.1v5.1m-.3 10.9h-.9m1.2-3.9v1m-1.2-1h1.2m-1.2 3.9v-3.9m1.2-113h-1.2m0-3.9h.7m-.7 3.9v-3.9m1.2 16h-1.2m1.2-5.1v5.1m-1.2-5.1h1.2m-1.2 5.1v-5.1m0 106v-.1m0 0v-.1m0 0v-.2m0-6v-.2m0 0v-.2m0 0v-.1m0 0v-.1m0-99v-.1m0 0v-.1m0 0v-.2m0 0v-.2m0-6v-.1m0 0v-.2m0 0v-.1m1.2 6.3v.3m0 0v.1m0 0v.2m0 0v.1m0 99v.1m0 0v.1m0 0v.3m0 0v.1m0 6v.2m0 0v.1m0 0v.1m0-100.9v.1m0 0v.1m0 0v.1m0 0v.2m0 0v.3m0 0v.3m0 0v.4m0 0v.5m0 0v.4m0 0v.6m0 0v.6m0 0v.6m0 0v.7m0 0v.7m0 0v.9m0 0v.7m0 0v.9m0 0v.9m0 0v.9m0 0v.9m0 0v1.1m0 0v.9m0 0v1m0 0v1.1m0 0v1m0 0v1.1m0 0v1m0 0v1.1m0 0v50.6m0 0v1.1m0 0v1.1m0 0v1m0 0v1.1m0 0v1m0 0v1m0 0v1m0 0v1m0 0v.9m0 0v.9m0 0v.9m0 0v.9m0 0v.8m0 0v.8m0 0v.7m0 0v.7m0 0v.6m0 0v.6m0 0v.6m0 0v.5m0 0v.4m0 0v.4m0 0v.3m0 0v.2m0 0v.3m0 0v.1m0 0v.1m0 0v.1m-.7 1.7h-3.5m3.5-92.2v92.2m-3.5-92.2h3.5m-3.5 92.2v-92.2"/><path class="st1" d="M179.5 120.9h-64.4l64.4 150.3"/><path class="st2" d="M179.5 120.9h-64.4l64.4 150.3V120.9z"/><path class="st1" d="M179.5 271.2l-64.4-150.3v150.3"/><path class="st2" d="M179.5 271.2l-64.4-150.3v150.3h64.4z"/><path class="st1" d="M222.1 134.5h-42.6l42.6 123"/><path class="st2" d="M222.1 134.5h-42.6l42.6 123v-123z"/><path class="st1" d="M222.1 257.5l-42.6-123v123"/><path class="st2" d="M222.1 257.5l-42.6-123v123h42.6z"/><path class="st0" d="M240.1 134.7l3.4-3.5m-7.9 3.5l7.4-7.4m-11.9 7.4l11.3-11.4m-15.7 11.2l15.2-15.1m-19.7 15.1l19-18.9m-23.5 18.9l22.8-22.8m-27.3 22.8l26.7-26.6m-31.2 26.6l30.5-30.4m-35 30.4l34.3-34.2m-38.8 34.2l38-37.9m-42.5 37.9l9.9-9.9m2-1.9L234 95.8m-43.3 38.7l9.9-9.9m6.5-6.4l22.4-22.4m-43.3 38.7l9.9-9.9m11-10.9L225 95.8m-43 38.4l9.6-9.6m15.5-15.4l13.4-13.4M179.8 132l7.3-7.4m20-19.9l8.9-8.9m-36.5 32l3.1-3.2m24.5-24.4l4.4-4.4M236 296.2l2.3-2.2m-6.8 2.2l7.9-7.8m-12.4 7.8l13.4-13.3m-17.9 13.3l18.8-18.7M218 296.2l24.2-24.1m-28.7 24.1l29.4-29.4M209 296.2l34.6-34.6m-36.5 32.1l36.3-36.3m-36.3 31.8l31.8-31.8m-31.8 27.3l27.3-27.3m-27.3 22.8l22.8-22.8m-22.8 18.3l18.1-18.2m-18.1 13.7l13.6-13.7m-14.4 9.9l9.9-9.9m-14.4 9.9l9.9-9.9m-14.4 9.9l9.9-9.9m-14.4 9.9l9.9-9.9m-14.4 9.9l9.9-9.9m-14.4 9.9l9.9-9.9m-13.8 9.3l9.3-9.3m-9.7 5.3l5.2-5.3m45.8-.7l-1.9-2m4.1 1.9l-3.2-3.2m5.4 3.2l-3.8-3.8m6 3.7l-5.5-5.5m7.7 5.5l-7.7-7.8m10 7.8l-10-10m11.6 9.4l-11.3-11.3m11.5 9.2l-9.9-9.9m8.8 6.6l-7.5-7.6m7.5 5.4l-6.1-6.2m6.1 3.9l-4.7-4.7m5.7 3.4l-2-2.1m-1.1-.9l-1.3-1.4m-3.5-91.3l-3.8-3.8m8.8 6.6l-8.8-8.8m8.5 6.2l-8.5-8.5m-2.4-2.4l-.6-.5m13.6 11.3l-13.3-13.3m14.5 12.3l-12.9-12.9m11.8 9.6l-9.5-9.6m9.5 7.3l-7.2-7.2m7.2 5l-4.9-5m5.7 3.5l-3.5-3.5m3.8 1.5l-1.5-1.5m1.5 108.2l1.2-.8m-1.2 11.7l1.2-.6M243.4 137l.8-.5m-.8 15.1l1.2-.6m-1.2-3l1.2-.7m-.8 94.8l.1-.1m-.4.1l.4-.3m-.5.3l.5-.5m-.8.5l.8-.8m-1 .8l1-1m-1.3 1l1.3-1.2m-1.4 1.2l1.4-1.4m-1.7 1.4l1.7-1.7m-1.9 1.7l1.9-1.9m-2.2 1.9l2.2-2.1m-2.3 2.1l2.3-2.3m-2.6 2.3l2.6-2.6m-2.8 2.6l2.8-2.8m-3.1 2.8l3.1-3m-3.2 3l3.2-3.2m-3.5 3.2l3.5-3.5m-3.5 3.3l3.5-3.5m-3.5 3.3l3.5-3.5m-3.5 3.3l3.5-3.5m-3.5 3.3l3.5-3.6m-3.5 3.3l3.5-3.5m-3.5 3.3l3.5-3.5m-3.5 3.3l3.5-3.5m-3.5 3.3l3.5-3.6m-3.5 3.3l3.5-3.5m-3.5 3.3l3.5-3.5m-3.5 3.3l3.5-3.5m-3.5 3.3l3.5-3.6m-3.5 3.3l3.5-3.5m-3.5 3.3l3.5-3.5m-3.5 3.3l3.5-3.5m-3.5 3.3l3.5-3.6m-3.5 3.3l3.5-3.5m-3.5 3.3l3.5-3.5m-3.5 3.3l3.5-3.5m-3.5 3.3l3.5-3.6m-3.5 3.3l3.5-3.5m-3.5 3.3l3.5-3.5m-3.5 3.3l3.5-3.5m-3.5 3.3l3.5-3.6m-3.5 3.3l3.5-3.5m-3.5 3.3l3.5-3.5m-3.5 3.3l3.5-3.5m-3.5 3.3l3.5-3.6m-3.5 3.3l3.5-3.5m-3.5 3.3l3.5-3.5m-3.5 3.3l3.5-3.5m-3.5 3.3l3.5-3.6m-3.5 3.3l3.5-3.5m-3.5 3.3l3.5-3.5m-3.5 3.3l3.5-3.5m-3.5 3.3l3.5-3.6m-3.5 3.3l3.5-3.5m-3.5 3.3l3.5-3.5m-3.5 3.3l3.5-3.5m-3.5 3.3l3.5-3.6m-3.5 3.3l3.5-3.5m-3.5 3.3l3.5-3.5m-3.5 3.3l3.5-3.5m-3.5 3.3l3.5-3.6m-3.5 3.3l3.5-3.5m-3.5 3.3l3.5-3.5m-3.5 3.3l3.5-3.5m-3.5 3.3l3.5-3.6m-3.5 3.3l3.5-3.5m-3.5 3.3l3.5-3.5m-3.5 3.3l3.5-3.5m-3.5 3.3l3.5-3.6m-3.5 3.3l3.5-3.5m-3.5 3.3l3.5-3.5m-3.5 3.3l3.5-3.5m-3.5 3.3l3.5-3.6m-3.5 3.3l3.5-3.5m-3.5 3.3l3.5-3.5m-3.5 3.3l3.5-3.5m-3.5 3.3l3.5-3.6m-3.5 3.3l3.5-3.5m-3.5 3.3l3.5-3.5m-3.5 3.3l3.5-3.5m-3.5 3.3l3.5-3.6m-3.5 3.3l3.5-3.5m-3.5 3.3l3.5-3.5m-3.5 3.3l3.5-3.5m-3.5 3.3l3.5-3.6m-3.5 3.3l3.5-3.5m-3.5 3.3l3.5-3.5m-3.5 3.3l3.5-3.5m-3.5 3.3l3.5-3.6m-3.5 3.3l3.5-3.5m-3.5 3.3l3.5-3.5m-3.5 3.3l3.5-3.5m-3.5 3.3l3.5-3.6m-3.5 3.3l3.5-3.5m-3.5 3.3l3.5-3.5m-3.5 3.3l3.5-3.5m-3.5 3.3l3.5-3.6m-3.5 3.3l3.5-3.5m-3.5 3.3l3.5-3.5m-3.5 3.3l3.5-3.5m-3.5 3.3l3.5-3.6m-3.5 3.3l3.5-3.5m-3.5 3.3l3.5-3.5m-3.5 3.3l3.5-3.5m-3.5 3.3l3.5-3.6m-3.5 3.3l3.5-3.5m-3.5 3.3l3.5-3.5m-3.5 3.3l3.5-3.5m-3.5 3.3l3.5-3.6m-3.5 3.3l3.5-3.5m-3.5 3.3l3.5-3.5m-3.5 3.3l3.5-3.5m-3.5 3.3l3.5-3.6m-3.5 3.3l3.5-3.5m-3.5 3.3l3.5-3.5m-3.5 3.3l3.5-3.5m-3.5 3.3l3.5-3.6m-3.5 3.3l3.5-3.5m-3.5 3.3l3.5-3.5m-3.5 3.3l3.5-3.5m-3.5 3.3l3.5-3.6m-3.5 3.3l3.5-3.5m-3.5 3.3l3.5-3.5m-3.5 3.3l3.5-3.5m-3.5 3.3l3.5-3.6m-3.5 3.3l3.5-3.5m-3.5 3.3l3.5-3.5m-3.5 3.3l3.5-3.5m-3.5 3.3l3.5-3.6m-3.5 3.3l3.5-3.5m-3.5 3.3l3.5-3.5m-3.5 3.3l3.5-3.5m-3.5 3.3l3.5-3.6m-3.5 3.3l3.5-3.5m-3.5 3.3l3.5-3.5m-3.5 3.3l3.5-3.5m-3.5 3.3l3.5-3.6m-3.5 3.3l3.5-3.5m-3.5 3.3l3.5-3.5m-3.5 3.3l3.5-3.5m-3.5 3.3l3.5-3.6m-3.5 3.3l3.5-3.5m-3.5 3.3l3.5-3.5m-3.5 3.3l3.5-3.5m-3.5 3.3l3.5-3.6m-3.5 3.3l3.5-3.5m-3.5 3.3l3.5-3.5m-3.5 3.3l3.5-3.5m-3.5 3.3l3.5-3.6m-3.5 3.3l3.5-3.5m-3.5 3.3l3.5-3.5m-3.5 3.3l3.5-3.5m-3.5 3.3l3.5-3.6m-3.5 3.3l3.5-3.5m-3.5 3.3l3.5-3.5m-3.5 3.3l3.5-3.5m-3.5 3.3l3.5-3.5m-3.5 3.2l3.5-3.5m-3.5 3.3l3.5-3.5m-3.5 3.3l3.5-3.5m-3.5 3.3l3.5-3.5m-3.5 3.2l3.5-3.5m-3.5 3.3l3.5-3.5m-3.5 3.3l3.5-3.5m-3.5 3.3l3.5-3.5m-3.5 3.2l3.5-3.5m-3.5 3.3l3.5-3.5m-3.5 3.3l3.5-3.5m-3.5 3.3l3.5-3.5m-3.5 3.2l3.5-3.5m-3.5 3.3l3.5-3.5m-3.5 3.3l3.5-3.5m-3.5 3.3l3.5-3.5m-3.5 3.2l3.5-3.5m-3.5 3.3l3.5-3.5m-3.5 3.3l3.5-3.5m-3.5 3.3l3.5-3.5m-3.5 3.2l3.5-3.5m-3.5 3.3l3.5-3.5m-3.5 3.3l3.5-3.5m-3.5 3.3l3.5-3.5m-3.5 3.2l3.5-3.5m-3.5 3.3l3.5-3.5m-3.5 3.3l3.5-3.5m-3.5 3.3l3.5-3.5m-3.5 3.2l3.5-3.5m-3.5 3.3l3.5-3.5m-3.5 3.3l3.5-3.5m-3.5 3.3l3.5-3.5m-3.5 3.2l3.5-3.5m-3.5 3.3l3.5-3.5m-3.5 3.3l3.5-3.5m-3.5 3.3l3.5-3.5m-3.5 3.2l3.5-3.5m-3.5 3.3l3.5-3.5m-3.5 3.3l3.5-3.5m-3.5 3.3l3.5-3.5m-3.5 3.2l3.5-3.5m-3.5 3.3l3.5-3.5m-3.5 3.3l3.5-3.5m-3.5 3.3l3.5-3.5m-3.5 3.2l3.5-3.5m-3.5 3.3l3.5-3.5m-3.5 3.3l3.5-3.5m-3.5 3.3l3.5-3.5m-3.5 3.2l3.5-3.5m-3.5 3.3l3.5-3.5m-3.5 3.3l3.5-3.5m-3.5 3.3l3.5-3.5m-3.5 3.2l3.5-3.5m-3.5 3.3l3.5-3.5m-3.5 3.3l3.5-3.5m-3.5 3.3l3.5-3.5m-3.5 3.2l3.5-3.5m-3.5 3.3l3.5-3.5m-3.5 3.3l3.5-3.5m-3.5 3.3l3.5-3.5m-3.5 3.2l3.5-3.5m-3.5 3.3l3.5-3.5m-3.5 3.3l3.5-3.5m-3.5 3.3l3.5-3.5m-3.5 3.2l3.5-3.5m-3.5 3.3l3.5-3.5m-3.5 3.3l3.5-3.5m-3.5 3.3l3.5-3.5m-3.5 3.2l3.5-3.5m-3.5 3.3l3.5-3.5m-3.5 3.3l3.5-3.5m-3.5 3.3l3.5-3.5m-3.5 3.2l3.5-3.5m-3.5 3.3l3.5-3.5m-3.5 3.3l3.5-3.5m-3.5 3.3l3.5-3.5m-3.5 3.2l3.5-3.5m-3.5 3.3l3.5-3.5m-3.5 3.3l3.5-3.5m-3.5 3.3l3.5-3.5m-3.5 3.2l3.5-3.5m-3.5 3.3l3.5-3.5m-3.5 3.3l3.5-3.5m-3.5 3.3l3.5-3.5m-3.5 3.2l3.5-3.5m-3.5 3.3l3.5-3.5m-3.5 3.3l3.5-3.5m-3.5 3.3l3.5-3.5m-3.5 3.2l3.5-3.5m-3.5 3.3l3.5-3.5m-3.5 3.3l3.5-3.5m-3.5 3.3l3.5-3.5m-3.5 3.2l3.5-3.5m-3.5 3.3l3.5-3.5m-3.5 3.3l3.5-3.5m-3.5 3.3l3.5-3.5m-3.5 3.2l3.5-3.5m-3.5 3.3l3.5-3.5m-3.5 3.3l3.5-3.5m-3.5 3.3l3.5-3.5m-3.5 3.2l3.5-3.5m-3.5 3.3l3.5-3.5m-3.5 3.3l3.5-3.5m-3.5 3.3l3.5-3.5m-3.5 3.2l3.5-3.5m-3.5 3.3l3.5-3.5m-3.5 3.3l3.5-3.5m-3.5 3.3l3.5-3.5m-3.5 3.2l3.5-3.5m-3.5 3.3l3.5-3.5m-3.5 3.3l3.5-3.5m-3.5 3.3l3.5-3.5m-3.5 3.2l3.5-3.5m-3.5 3.3l3.5-3.5m-3.5 3.3l3.5-3.5m-3.5 3.3l3.5-3.5m-3.5 3.2l3.5-3.5m-3.5 3.4l3.5-3.6m-3.5 3.3l3.5-3.5m-3.5 3.3l3.5-3.5m-3.5 3.2l3.5-3.5m-3.5 3.4l3.5-3.6m-3.5 3.3l3.5-3.5m-3.5 3.3l3.5-3.5m-3.5 3.2l3.5-3.5m-3.5 3.4l3.5-3.6m-3.5 3.3l3.5-3.5m-3.5 3.3l3.5-3.5m-3.5 3.2l3.5-3.5m-3.5 3.4l3.5-3.6m-3.5 3.3l3.5-3.5m-3.5 3.3l3.5-3.5m-3.5 3.2l3.5-3.5m-3.5 3.4l3.5-3.6m-3.5 3.3l3.5-3.5m-3.5 3.3l3.5-3.5m-3.5 3.2l3.5-3.5m-3.5 3.4l3.5-3.6m-3.5 3.3l3.5-3.5m-3.5 3.3l3.5-3.5m-3.5 3.2l3.5-3.5m-3.5 3.4l3.5-3.6m-3.5 3.3l3.5-3.5m-3.5 3.3l3.5-3.5m-3.5 3.2l3.5-3.5m-3.5 3.4l3.5-3.6m-3.5 3.3l3.5-3.5m-3.5 3.3l3.5-3.5m-3.5 3.2l3.5-3.5m-3.5 3.4l3.5-3.6m-3.5 3.3l3.5-3.5m-3.5 3.3l3.5-3.5m-3.5 3.2l3.5-3.5m-3.5 3.4l3.5-3.6m-3.5 3.3l3.5-3.5m-3.5 3.3l3.5-3.5m-3.5 3.2l3.5-3.5m-3.5 3.4l3.5-3.6m-3.5 3.3l3.5-3.5m-3.5 3.3l3.5-3.5m-3.5 3.2l3.5-3.5m-3.5 3.4l3.5-3.6m-3.5 3.3l3.5-3.5m-3.5 3.3l3.5-3.5m-3.5 3.2l3.5-3.5m-3.5 3.4l3.5-3.6m-3.5 3.3l3.5-3.5m-3.5 3.3l3.5-3.5m-3.5 3.2l3.5-3.5m-3.5 3.4l3.5-3.6m-3.5 3.3l3.5-3.5m-3.5 3.3l3.5-3.5m-3.5 3.2l3.5-3.5m-3.5 3.4l3.5-3.6m-3.5 3.3l3.5-3.5m-3.5 3.3l3.5-3.5m-3.5 3.2l3.5-3.5m-3.5 3.4l3.5-3.6m-3.5 3.3l3.5-3.5m-3.5 3.3l3.5-3.5m-3.5 3.2l3.5-3.5m-3.5 3.4l3.5-3.6m-3.5 3.3l3.5-3.5m-3.5 3.3l3.5-3.5m-3.5 3.2l3.5-3.5m-3.5 3.4l3.5-3.6m-3.5 3.3l3.5-3.5m-3.5 3.3l3.5-3.5m-3.5 3.2l3.5-3.5m-3.5 3.4l3.5-3.6m-3.5 3.3l3.5-3.5m-3.5 3.3l3.5-3.5m-3.5 3.2l3.5-3.5m-3.5 3.4l3.5-3.6m-3.5 3.3l3.5-3.5m-3.5 3.3l3.5-3.5m-3.5 3.2l3.5-3.5m-3.5 3.4l3.5-3.6m-3.5 3.3l3.5-3.5m-3.5 3.3l3.5-3.5m-3.5 3.2l3.5-3.5m-3.5 3.4l3.5-3.6m-3.5 3.3l3.5-3.5m-3.5 3.3l3.5-3.5m-3.5 3.2l3.5-3.5m-3.5 3.4l3.5-3.6m-3.5 3.3l3.5-3.5m-3.5 3.3l3.5-3.5m-3.5 3.2l3.5-3.5m-3.5 3.4l3.5-3.6m-3.5 3.3l3.5-3.5m-3.5 3.3l3.5-3.5m-3.5 3.2l3.5-3.5m-3.5 3.4l3.5-3.6m-3.5 3.3l3.5-3.5m-3.5 3.3l3.5-3.5m-3.5 3.2l3.5-3.5m-3.5 3.4l3.5-3.6m-3.5 3.3l3.5-3.5m-3.5 3.3l3.5-3.5m-3.5 3.2l3.5-3.5m-3.5 3.4l3.5-3.6m-3.5 3.3l3.5-3.5m-3.5 3.3l3.5-3.5m-3.5 3.2l3.5-3.5m-3.5 3.4l3.5-3.6m-3.5 3.3l3.5-3.5m-3.5 3.3l3.5-3.5m-3.5 3.2l3.5-3.5m-3.5 3.4l3.5-3.6m-3.5 3.3l3.5-3.5m-3.5 3.3l3.5-3.5m-3.5 3.2l3.5-3.5m-3.5 3.4l3.5-3.6m-3.5 3.3l3.5-3.5m-3.5 3.3l3.5-3.5m-3.5 3.2l3.5-3.5m-3.5 3.4l3.5-3.6m-3.5 3.3l3.5-3.5m-3.5 3.3l3.5-3.5m-3.5 3.2l3.5-3.5m-3.5 3.4l3.5-3.6m-3.5 3.3l3.5-3.5m-3.5 3.3l3.5-3.5m-3.5 3.2l3.5-3.5m-3.5 3.4l3.5-3.6m-3.5 3.3l3.5-3.5m-3.5 3.3l3.5-3.5m-3.5 3.2l3.5-3.5m-3.5 3.4l3.5-3.6m-3.5 3.3l3.5-3.5m-3.5 3.3l3.5-3.5m-3.5 3.2l3.5-3.5m-3.5 3.4l3.5-3.6m-3.5 3.3l3.3-3.4m-3.3 3.2l3.1-3.2m-3.1 2.9l2.9-2.9m-2.9 2.8l2.7-2.8m-2.7 2.5l2.4-2.5m-2.4 2.3l2.2-2.3m-2.2 2l2-2m-2 1.9l1.8-1.9m-1.8 1.6l1.5-1.6m-1.5 1.4l1.3-1.4m-1.3 1.1l1.1-1.1m-1.1 1l.9-1m-.9.7l.6-.7m-.6.5l.4-.5m-.4.2l.2-.2m-.2.1v-.1m-60.9 121.3V120.9m-64.4 150.3h64.4m-64.4-150.3v150.3m64.4-150.3h-64.4m64.4 136.6v-123m42.6 123h-42.6m42.6-123v123m-42.6-123h42.6M179.5 196h4.9m1.5 0h1.5m1.5 0h4.9m1.5 0h1.5m1.6 0h4.8m1.5 0h1.6m1.4 0h4.9m1.5 0h1.5m1.5 0h5m-111.3 0h4.6m1.6 0h1.4m1.5 0h4.7m1.5 0h1.5m1.5 0h4.6m1.5 0h1.6m1.4 0h4.7m1.5 0h1.5m1.5 0h4.6m1.5 0h1.5m1.5 0h4.7m1.5 0h1.5m1.5 0h4.6m1.5 0h1.5m1.5 0h4.7m42.6 0h3.8m1.5 0h1.5m1.5 0h3.8m1.5 0h1.5m1.5 0h3.8m1.6 0h1.5m1.5 0h3.8"/><path class="st3" d="M177.9 257.4H64.4m112.2-122.9H63.1m163.2 4.2H90.5m135.7 114.6H90.5"/><path class="st4" d="M246.8 221l68.8 106.3"/><path class="st5" d="M243.7 252.8l65.6 101.4m-183.7-82.3l36 55.6"/><text transform="translate(316.84 323.873)" class="st6 st7 st8">IR cut filter (color cameras only)</text><text transform="translate(164.558 323.907)" class="st6 st7 st8">C-mount lens</text><text transform="translate(311.416 350.41)" class="st6 st7 st8">Filter holder (color and mono cameras)</text><path class="st4" d="M315.4 327.6h183"/><text transform="rotate(-90 150.73 87.507)" class="st6 st7 st8">C-mount thread</text><path class="st9" d="M69.1 249.7h-3.3l1.7 7.7 1.6-7.7zm-3.3-107.5h3.3l-1.6-7.7-1.7 7.7z"/><path class="st5" d="M67.5 250.8V141.5"/><path class="st9" d="M95.3 245.5H92l1.7 7.7 1.6-7.7zm-3.3-99h3.3l-1.6-7.7-1.7 7.7z"/><path class="st5" d="M93.7 246V145.7"/><text transform="rotate(-90 153.908 64.06)" class="st6 st7 st8">Ø 22.8</text><path class="st10" d="M246.9 225.2l4.2-2.8-6.4-6.1-1.1.8 3.3 8.1z"/><path class="st11" d="M246.9 225.2l4.2-2.8-6.4-6.1-1.1.8 3.3 8.1z"/><path class="st10" d="M243.8 257l4.2-2.9-6.4-6.1-1.2.8 3.4 8.2z"/><path class="st11" d="M243.8 257l4.2-2.9-6.4-6.1-1.2.8 3.4 8.2z"/><path class="st10" d="M125.8 276.1l4.2-2.9-6.4-6-1.2.7 3.4 8.2z"/><path class="st11" d="M125.8 276.1l4.2-2.9-6.4-6-1.2.7 3.4 8.2z"/><path class="st9" d="M247.4 224.9l2.8-1.9-5.6-5.5 2.8 7.4zm-3.1 31.6l2.8-1.8-5.6-5.5 2.8 7.3zm-117.9 19.1l2.8-1.8-5.6-5.6 2.8 7.4z"/><path class="st4" d="M239.7 327.4h-78.2"/><text transform="translate(409.084 40.972)" class="st6 st7 st8">Not to scale</text><text transform="translate(409.084 55.372)" class="st6 st7 st8">Dimensions in mm</text><path class="st4" d="M309.4 354h215.5"/><path class="st3" d="M227.6 132.2V62.5m-48.2 56.4V41m52.2 96.2V41.3"/><text transform="translate(243.67 83.793)" class="st7 st8">Unthreaded</text><path class="st9" d="M219.7 84.8v3.3l7.7-1.7-7.7-1.6z"/><path class="st5" d="M193.1 86.4h26.2"/><text transform="translate(182.629 62.31)" class="st7 st8">9.6 max.</text><path class="st9" d="M186.9 67.3V64l-7.4 1.6 7.4 1.7zm32.9-3.3v3.3l7.5-1.7-7.5-1.6z"/><path class="st5" d="M122 65.6h102.5"/><path class="st9" d="M187.2 46.9v-3.3l-7.7 1.6 7.7 1.7zm36.7-3.3v3.3l7.7-1.7-7.7-1.6z"/><text transform="translate(179.403 40.887)" class="st7 st8">10.2 max.</text><path class="st5" d="M182.3 45.2h45.9"/><text transform="translate(123.62 62.347)" class="st7 st8">Threaded</text><path class="st9" d="M239.2 88.1v-3.3l-7.7 1.6 7.7 1.7z"/><path class="st5" d="M214.2 86.4h97.5"/></svg>