<svg version="1.0" xmlns="http://www.w3.org/2000/svg" viewBox="0 0 411 155.9"><text transform="translate(192 52.888)" font-family="Helvetica,Arial,sans-serif" font-size="14">Temperature measurement point</text><path fill="none" stroke="#000" stroke-miterlimit="10" d="M179.5 48.8H88.1"/><path fill="none" stroke="#010202" stroke-width=".8" stroke-linecap="round" stroke-linejoin="round" stroke-miterlimit="10" d="M72.9 142.3l-.2-.2m27.7-126.7l.2.2M67.7 142.1l-.2.2m38.1-126.7l.2-.2M72.5 141.9c-.2-1.3-1.4-2.2-2.7-2-1 .2-1.8 1-2 2m32.9-126.1c.2 1.3 1.4 2.2 2.7 2 1-.2 1.8-1 2-2M40 28h2.6m0 0v4.9m0 0H40m0 0V28M28.5 45.1h-2.6m0 0v-4.9m0 0h2.6m0 0v4.9m.9 31.8h-2.6m0 0v-5m0 0h2.6m0 0v5m67.1 3.4v5.1m0 0H84.3m0 0v-5.1m0 0h12.2m16.9-57.6c0 1.3 1.1 2.3 2.3 2.3 1.3 0 2.3-1.1 2.3-2.3 0-1.3-1.1-2.3-2.3-2.3-1.3 0-2.3 1-2.3 2.3h0zm-8.6 4.8v-2.6m0 0h5m0 0v2.6m0 0h-5m10.6 40.9v-2.6m0 0h4.9m0 0v2.6m0 0h-4.9m-33 11.9v5.1m0 0H70.2m0 0v-5.1m0 0h12.2M56.7 39.7h2.5m0 0v5m0 0h-2.5m0 0v-5m53.1-1.6h2.5m0 0V43m0 0h-2.5m0 0v-4.9M56.7 64.6h2.5m0 0v5m0 0h-2.5m0 0v-5m0-34.5h2.5m0 0V35m0 0h-2.5m0 0v-4.9m-14.1-4.7H40m0 0v-4.9m0 0h2.6m0 0v4.9m18.1 28h2.5m0 0v4.9m0 0h-2.5m0 0v-4.9m53-15.3h2.6m0 0V43m0 0h-2.6m0 0v-4.9M77.8 72.6V70m0 0h4.9m0 0v2.6m0 0h-4.9m-55-11V59m0 0h5m0 0v2.6m0 0h-5m33.9 10.3h2.5m0 0v5m0 0h-2.5m0 0v-5m-33.9-6.3V63m0 0h5m0 0v2.6m0 0h-5m46.8 7V70m0 0h4.9m0 0v2.6m0 0h-4.9M25.4 109v2.6m0 0h-4.9m0 0V109m0 0h4.9m16.7-74v2.6m0 0h-4.9m0 0V35m0 0h4.9m12.6 8.8v24m0 0h-24m0 0v-24m0 0h24M22.8 57.6V55m0 0h5m0 0v2.6m0 0h-5m37.9-17.9h2.5m0 0v5m0 0h-2.5m0 0v-5M33 79.7v6.8m0 0H22.7m0 0v-6.8m0 0H33m8.4-37.9v-2.5m0 0h4.9m0 0v2.5m0 0h-4.9m70.9 9.4h-2.5m0 0v-4.9m0 0h2.5m0 0v4.9M67.2 67.5h-2.6m0 0v-5m0 0h2.6m0 0v5m-47.1 48.3c0 1 .8 1.9 1.9 1.9 1 0 1.9-.8 1.9-1.9s-.8-1.9-1.9-1.9c-1.1 0-1.9.8-1.9 1.9h0zm74.1-39.2V74m0 0h5m0 0v2.6m0 0h-5M80.4 24.9v2.6m0 0h-4.9m0 0v-2.6m0 0h4.9M62.3 60.2v2.6m0 0h-4.9m0 0v-2.6m0 0h4.9m6.9 7.8V29.5m0 0h38.6m0 0V68m0 0H69.2M46.3 21.6v-2.5m0 0h5m0 0v2.5m0 0h-5m12.9 36.7h-2.5m0 0v-4.9m0 0h2.5m0 0v4.9M41.5 135c0 1.3 1.1 2.3 2.3 2.3 1.3 0 2.3-1.1 2.3-2.3 0-1.3-1.1-2.3-2.3-2.3-1.2-.1-2.3 1-2.3 2.3h0zM86 72.6V70m0 0h5m0 0v2.6m0 0h-5m52.7 31v2.6m0 0h-5m0 0v-2.6m0 0h5M32.9 109v2.6m0 0H28m0 0V109m0 0h4.9m92.2-82.8c0 3.9 3.2 7 7 7 3.9 0 7-3.2 7-7 0-3.9-3.2-7-7-7s-7 3.1-7 7h0zm0 105.3c0 3.9 3.2 7 7 7 3.9 0 7-3.2 7-7 0-3.9-3.2-7-7-7-3.8-.1-7 3.1-7 7h0zm-105.2 0c0 3.9 3.2 7 7 7 3.9 0 7-3.2 7-7 0-3.9-3.2-7-7-7-3.9-.1-7 3.1-7 7h0zm0-105.3c0 3.9 3.2 7 7 7 3.9 0 7-3.2 7-7 0-3.9-3.2-7-7-7-3.9 0-7 3.1-7 7h0zm80.7-10.6l.2.2m-77.6-.4h77.2m-77.2 0c-3.9 0-7 3.2-7 7m-.1 112.8V22.5m0 112.7c0 3.9 3.2 7 7 7m.1.1h44.3m.3-.4l-.2.2m5.1 0l-.2-.2m63.5.4H72.9m63.1 0c3.9 0 7-3.2 7-7m0-112.8v112.7m0-112.7c0-3.9-3.2-7-7-7m0-.1h-30.2m-.4.4l.2-.2M54.1 39.3v2.5m-5-2.5h5m-5 2.5v-2.5m5 2.5h-5M67.2 35h-2.6m2.6-4.9V35m-2.6-4.9h2.6M64.6 35v-4.9M21.7 48h2.5m-2.5 4.9V48m2.5 4.9h-2.5m2.5-4.9v4.9m96.1 16.9v2.6m-4.9-2.6h4.9m-4.9 2.6v-2.6m4.9 2.6h-4.9m-68.5 7.3v6.8m-10.3-6.8h10.3m-10.3 6.8v-6.8m10.3 6.8H36.6m74-6.2v5.1m-12.2-5.1h12.2m-12.2 5.1v-5.1m12.2 5.1H98.4M22.8 69.6V67m5 2.6h-5m5-2.6v2.6m-5-2.6h5m36.8 4.9h2.6m-2.6 5v-5m2.6 5h-2.6m2.6-5v5m42.6-14.1h2.5m-2.5 4.9v-4.9m2.5 4.9h-2.5m2.5-4.9v4.9M21.1 96.2h12.2m-12.2 9.9v-9.9m12.2 9.9H21.1m12.2-9.9v9.9m58.6-82.6v-2.6m4.9 2.6h-4.9m4.9-2.6v2.6m-4.9-2.6h4.9M60.7 64.6h2.5m-2.5 5v-5m2.5 5h-2.5m2.5-5v5m52.2-5.2v-2.6m4.9 2.6h-4.9m4.9-2.6v2.6m-4.9-2.6h4.9M33.9 76.9h-2.6m2.6-5v5m-2.6-5h2.6m-2.6 5v-5m39.7-47v2.6m-4.9-2.6H71m-4.9 2.6v-2.6m4.9 2.6h-4.9M46.9 71.2V78m-10.3-6.8h10.3M36.6 78v-6.8M46.9 78H36.6M25.9 48h2.6m-2.6 4.9V48m2.6 4.9h-2.6m2.6-4.9v4.9m102.4 50.7v2.6m-4.9-2.6h4.9m-4.9 2.6v-2.6m4.9 2.6H126m-16.2-51.9h2.5m-2.5 4.9v-4.9m2.5 4.9h-2.5m2.5-4.9v4.9M107.4 70v2.6m-4.9-2.6h4.9m-4.9 2.6V70m4.9 2.6h-4.9M91.9 27.5v-2.6m4.9 2.6h-4.9m4.9-2.6v2.6m-4.9-2.6h4.9M68.3 80.3v5.1m-12.2-5.1h12.2m-12.2 5.1v-5.1m12.2 5.1H56.1m73 16.7V88m6.6 14.1h-6.6m6.6-14.1v14.1M129.1 88h6.6m-52-60.5v-2.6m4.9 2.6h-4.9m4.9-2.6v2.6m-4.9-2.6h4.9m5.6 47.7V70m5 2.6h-5m5-2.6v2.6m-5-2.6h5M44.7 36.9V24.5m10.1 12.4H44.7m10.1-12.4v12.4M44.7 24.5h10.1m65.5 49.3v2.6m-4.9-2.6h4.9m-4.9 2.6v-2.6m4.9 2.6h-4.9M54 21.8v-2.9m5.1 2.9H54m5.1-2.9v2.9M54 18.9h5.1m45.7 4.6v-2.6m5 2.6h-5m5-2.6v2.6m-5-2.6h5M64.6 54.8h2.6m-2.6 4.9v-4.9m2.6 4.9h-2.6m2.6-4.9v4.9M38.6 39.3v2.5m-5-2.5h5m-5 2.5v-2.5m5 2.5h-5m-10.5 51v-4.4m8.2 4.4h-8.2m8.2-4.4v4.4m-8.2-4.4h8.2M54 84.5h-4.3m4.3-8v8m-4.3-8H54m-4.3 8v-8M24.5 45.4h-3.1m3.1-5.4v5.4M21.4 40h3.1m-3.1 5.4V40m88.4-10.1h2.5m-2.5 4.9v-4.9m2.5 4.9h-2.5m2.5-4.9v4.9M60.7 71.9h2.5m-2.5 5v-5m2.5 5h-2.5m2.5-5v5m-38.3 0h-2.5m2.5-5v5m-2.5-5h2.5m-2.5 5v-5m116 12v2.6m-4.9-2.6h4.9m-4.9 2.6v-2.6m4.9 2.6h-4.9M64.6 39.7h2.6m-2.6 5v-5m2.6 5h-2.6m2.6-5v5m-6.5-14.6h2.5M60.7 35v-4.9m2.5 4.9h-2.5m2.5-4.9V35m27.2 57.8v-.9m0 .9v1.1m0 .3v-.3m-.5.3v-.3m0-1.1v1.1m0-1.1v-.9m0 0h.5m-46.9 2.3h72.2m-16.4-2.3h.5m0 .9v-.9m-.5.9v-.9m-59.5 10h79.5m-74.7 2.2h3m.5 0h1.8m.6 0h1.8m.5 0h1.8m.6 0H57m.5 0h1.8m.6 0h1.8m.5 0H64m.6 0h1.8m.5 0h1.8m.6 0h1.8m.5 0h1.8m.6 0h1.8m.5 0h1.8m.6 0h1.8m.5 0h1.8m.6 0h1.8m.5 0h1.8m.6 0h1.8m.5 0h1.8m.6 0h1.8m.5 0h1.8m.6 0h1.8m.5 0h1.8m.6 0h1.8m.5 0h1.8m2.4 0h-1.8m4.1 0h-1.8m5.4 0h-3m-67 0v.8m0 0h-4.5m7.5.6v-.6m0 0v-3m0 3.6h.5m0 0v-.6m0 0h-.5m.5 0v-3m63.5 3.6h-.6m-1.8 0h-.5m-1.8 0h-.6m-2.3 0h.5m-2.9 0h.6m-2.9 0h.5m-2.9 0h.6m-2.9 0h.5m-2.9 0h.6m-2.9 0h.5m-2.9 0h.6m-2.9 0h.5m-2.9 0h.6m-2.9 0h.5m-2.9 0h.6m-2.9 0h.5m-2.9 0h.6m-2.9 0h.5m-2.9 0h.6m-2.9 0h.5m-2.9 0h.6m-2.9 0h.5m-2.9 0h.6m-2.9 0h.5m-2.9 0h.6m-2.9 0h.5m-2.9 0h.6m-10.4-.6v8.9m1.9 0h-1.9m1.9-5.2h75.2m0 5.2h1.8m0-8.9v8.9m-4.4-8.9h4.4m-4.4-.8v.8m-3.6.6v-.6m0-3v3m0 0h.6m0 0v-3m0 3.6v-.6m-2.4 0v-3m0 3.6v-.6m-.5 0h.5m-.5.6v-.6m0 0v-3m-1.8 3v-3m0 3.6v-.6m-.6 0h.6m-.6.6v-.6m0 0v-3m-4.1 3v-3m0 3.6v-.6m0 0h-.6m0 .6v-.6m0 0v-3m-1.8 0v3m0 .6v-.6m-.5.6v-.6m0-3v3m.5 0h-.5m-1.8 0v-3m0 3.6v-.6m0 0h-.6m0 .6v-.6m0 0v-3m-1.8 3v-3m0 3.6v-.6m0 0h-.5m0 .6v-.6m0 0v-3m-1.8 0v3m0 .6v-.6m-.6.6v-.6m0-3v3m.6 0h-.6m-1.8 0v-3m0 3.6v-.6m0 0h-.5m0 .6v-.6m0 0v-3m-1.8 3v-3m0 3.6v-.6m0 0h-.6m0 .6v-.6m0 0v-3m-1.8 3v-3m0 3.6v-.6m0 0h-.5m0 .6v-.6m0 0v-3m-1.8 3v-3m0 3.6v-.6m0 0h-.6m0 .6v-.6m0 0v-3m-1.8 3v-3m0 3.6v-.6m0 0h-.5m0 .6v-.6m0 0v-3m-1.8 3v-3m0 3.6v-.6m0 0h-.6m0 .6v-.6m0 0v-3m-1.8 0v3m0 .6v-.6m-.5.6v-.6m0-3v3m.5 0h-.5m-1.8 0v-3m0 3.6v-.6m0 0h-.6m0 .6v-.6m0 0v-3m-1.8 3v-3m0 3.6v-.6m0 0h-.5m0 .6v-.6m0 0v-3m-1.8 0v3m0 .6v-.6m-.6.6v-.6m0-3v3m.6 0h-.6m-1.8 0v-3m0 3.6v-.6m0 0h-.5m0 .6v-.6m0 0v-3m-1.8 3v-3m0 3.6v-.6m0 0H64m0 .6v-.6m0 0v-3m-1.8 0v3m0 .6v-.6m-.5.6v-.6m0-3v3m.5 0h-.5m-1.8 0v-3m0 3.6v-.6m0 0h-.6m0 .6v-.6m0 0v-3m-1.8 3v-3m0 3.6v-.6m0 0H57m0 .6v-.6m0 0v-3m-1.8 3v-3m0 3.6v-.6m0 0h-.6m0 .6v-.6m0 0v-3m-1.8 3v-3m0 3.6v-.6m0 0h-.5m0 .6v-.6m0 0v-3m-1.8 3v-3m0 3.6v-.6m0 0h-.6m0 .6v-.6m0 0v-3m67.3 17.9H42m75.2-.9v.9m-75.2-.9v.9m75.2-9.5v8.6M42 110.3h75.2m-75.2 0v8.6m0-10.3v1.7m75.2-1.7v1.7m-13.2-4.8v-.6m0 0v-3m.5 3v-3m0 3.6v-.6m0 0h-.5m-58.7-1v-2m-.9 2.9h-1.9m2.8-.9l-.2.2m-.5.5l-.2.2M37.3 118h4.4m.3 0h-.3m.8-13.1v-3m71.3 2v-2m3.6 13.2v2.9m-5.8-25.2v-.9m0 2v-1.1m0 1.4v-.3m10.3 24.1V97.5m-7.2 7.3h1.9m2.7 10.3v-13.2m-5.5 2l.2.2m.6.5l.1.2M43.5 94.2v3.3m73.1 7.4v-3m-79.3-4.4h6.2m-1.8 17.6v2.9m-1.9-2.9h1.9m-1.9 0v-13.2m12.5 19.4v-.3m0 0v-.2m0-1v1m.5-1v1m0 .2v-.2m0 .5v-.3m0 .3h-.5m11.7 0v-.3m0 0v-.2m0-1v1m.6-1v1m0 .2v-.2m0 .5v-.3m0 .3H64m11.8 0v-.3m0 0v-.2m0-1v1m.5-1v1m0 .2v-.2m0 .5v-.3m0 .3h-.5m11.7 0v-.3m0 0v-.2m0-1v1m.6-1v1m0 .2v-.2m0 .5v-.3m0 .3h-.6m11.8 0v-.3m0 0v-.2m0-1v1m.5-1v1m0 .2v-.2m0 .5v-.3m0 .3h-.5m-57.6-1.5V118m.3 1.8h-.3m-4.4-1.8V97.5m62.5-3.3v-.3m-.5.3v-.3m11.7.3v-.3m0-1.1v1.1m0-1.1v-.9m.6 0h-.6m-9.4 2.3v-.3m0-1.1v1.1m0-1.1v-.9m.6.9v1.1m0-1.1v-.9m0 2.3v-.3m-.6-2h.6m-5.3 2.3v-.3m0-1.1v1.1m0-1.1v-.9m.6.9v1.1m0-1.1v-.9m0 2.3v-.3m-.6-2h.6m6.5 2.3v-.3m0-1.1v1.1m0-1.1v-.9m.5.9v1.1m0-1.1v-.9m0 2.3v-.3m-.5-2h.5m4.7.9v-.9m0 .9v1.1m0 .3v-.3m-.5-1.1v1.1m.5-2h-.5m0 .9v-.9m0 2.3v-.3m-1.8-1.1v-.9m0 .9v1.1m0 .3v-.3m-.6-1.1v1.1m.6-2h-.6m0 .9v-.9m0 2.3v-.3m-58.7.3v-.3m0-1.1v1.1m0-1.1v-.9m.5.9v1.1m0-1.1v-.9m0 2.3v-.3m-.5-2h.5m1.8 2.3v-.3m0-1.1v1.1m0-1.1v-.9m.6.9v1.1m0-1.1v-.9m0 2.3v-.3m-.6-2h.6m1.8 2.3v-.3m0-1.1v1.1m0-1.1v-.9m.5.9v1.1m0-1.1v-.9m0 2.3v-.3m-.5-2h.5m1.8 2.3v-.3m0-1.1v1.1m0-1.1v-.9m.6.9v1.1m0-1.1v-.9m0 2.3v-.3m-.6-2h.6m1.8 2.3v-.3m0-1.1v1.1m0-1.1v-.9m.5.9v1.1m0-1.1v-.9m0 2.3v-.3m-.5-2h.5m2.4.9v-.9m0 .9v1.1m0 .3v-.3m-.6-1.1v1.1m0-2h.6m-.6.9v-.9m0 2.3v-.3m2.4.3v-.3m0-1.1v1.1m0-1.1v-.9m.5.9v1.1m0-1.1v-.9m0 2.3v-.3m-.5-2h.5m1.8 2.3v-.3m0-1.1v1.1m0-1.1v-.9m.6.9v1.1m0-1.1v-.9m0 2.3v-.3m-.6-2h.6m1.8 2.3v-.3m0-1.1v1.1m0-1.1v-.9m.5.9v1.1m0-1.1v-.9m0 2.3v-.3m-.5-2h.5m1.8 2.3v-.3m0-1.1v1.1m0-1.1v-.9m.6.9v1.1m0-1.1v-.9m0 2.3v-.3m-.6-2h.6m1.8 2.3v-.3m0-1.1v1.1m0-1.1v-.9m.5.9v1.1m0-1.1v-.9m0 2.3v-.3m-.5-2h.5m1.8 2.3v-.3m0-1.1v1.1m0-1.1v-.9m.6.9v1.1m0-1.1v-.9m0 2.3v-.3m-.6-2h.6m2.3.9v-.9m0 .9v1.1m0 .3v-.3m-.5-1.1v1.1m0-2h.5m-.5.9v-.9m0 2.3v-.3m2.3.3v-.3m0-1.1v1.1m0-1.1v-.9m.6.9v1.1m0-1.1v-.9m0 2.3v-.3m-.6-2h.6m1.8 2.3v-.3m0-1.1v1.1m0-1.1v-.9m.5.9v1.1m0-1.1v-.9m0 2.3v-.3m-.5-2h.5m1.8 2.3v-.3m0-1.1v1.1m0-1.1v-.9m.6.9v1.1m0-1.1v-.9m0 2.3v-.3m-.6-2h.6m1.8 2.3v-.3m0-1.1v1.1m0-1.1v-.9m.5.9v1.1m0-1.1v-.9m0 2.3v-.3m-.5-2h.5m2.4.9v-.9m0 .9v1.1m0 .3v-.3m-.6-1.1v1.1m0-2h.6m-.6.9v-.9m0 2.3v-.3m4.7.3v-.3m0-1.1v1.1m0-1.1v-.9m.6.9v1.1m0-1.1v-.9m0 2.3v-.3m-.6-2h.6m1.8 2.3v-.3m0-1.1v1.1m0-1.1v-.9m.5.9v1.1m0-1.1v-.9m0 2.3v-.3m-.5-2h.5m4.2.9v1.1m.5-1.1v1.1m17.4 24.1h.2m1.9-2.9h-1.9m-1.7-20.9v3.3m6.2 20.5h-4.5m4.5-20.5h-6.2m1.7 22.3V118m-.2 1.8h.2m5.4-93.6h18.8m-9.4 9.4V16.8m-9.4 114.7h18.8m-9.4 9.4v-18.8m-114.7 9.4h18.8m-9.4 9.4v-18.8m-9.4-95.9h18.8m-9.4 9.4V16.8m105.3 114.7h9.4m-9.4-105.3h9.4m-9.4 105.3h0m0-105.3h0"/></svg>