<svg version="1.0" xmlns="http://www.w3.org/2000/svg" viewBox="0 0 1000 450"><path fill="none" stroke="#000" stroke-width=".51" stroke-linejoin="round" stroke-miterlimit="3.864" stroke-dasharray="8,4" d="M19.7 35.7h766v383.2h-766V35.7z"/><path clip-rule="evenodd" fill="none" stroke="#000" stroke-miterlimit="3.864" d="M379 366.4v-40.8m10.2 25.7h-20.4"/><g clip-rule="evenodd"><path fill-rule="evenodd" d="M389.2 339.2h-20.4l10.2 10.2z"/><path fill="none" stroke="#000" stroke-linejoin="round" stroke-miterlimit="3.864" d="M389.2 339.2h-20.4l10.2 10.2z"/></g><path clip-rule="evenodd" fill="none" stroke="#000" stroke-linejoin="round" stroke-miterlimit="3.864" d="M378 325.6h96.7m-97 40.8h21.7"/><g clip-rule="evenodd"><path fill-rule="evenodd" d="M328.1 346v6.3l-15.7-6.3 15.7-6.3z"/><path fill="none" stroke="#000" stroke-linejoin="round" stroke-miterlimit="3.864" d="M353.6 353.6H332l10.8-7.6h-15.7"/></g><path fill="none" stroke="#000" stroke-linejoin="round" stroke-miterlimit="3.864" d="M253.5 313.4h157.2v65.7H253.5v-65.7z"/><path clip-rule="evenodd" fill="none" stroke="#000" stroke-linejoin="round" stroke-miterlimit="3.864" d="M446 277.6h57.3m-103.9 88.8h276.2m-381-35v31.1m-.1-9l-14.2 14.2m165.6-90v-92.8m230.4 181.6V209.7m-174 68.1V185m-56.2.3h55.7m-28.6-.5v-64.5"/><g clip-rule="evenodd"><path fill-rule="evenodd" d="M290.8 364.4l-7.2-7.2v7.2z"/><path fill="none" stroke="#000" stroke-linejoin="round" stroke-miterlimit="3.864" d="M290.8 364.4l-7.2-7.2v7.2z"/></g><path clip-rule="evenodd" fill="none" stroke="#000" stroke-linejoin="round" stroke-miterlimit="3.864" d="M294.6 339.7l-14.2-14.1m-25.6.1h26.4m-28.3 41.9h26.4"/><path clip-rule="evenodd" fill="none" stroke="#000" stroke-miterlimit="3.864" d="M474.8 326.3v-49"/><path clip-rule="evenodd" fill="none" stroke="#000" stroke-linejoin="round" stroke-miterlimit="3.864" d="M473.2 120.3h311.7"/><text transform="translate(829.11 31.744)"><tspan x="0" y="0" font-family="Helvetica,Arial,sans-serif" font-size="18.891">6-pin </tspan><tspan x="-23.2" y="20.1" font-family="Helvetica,Arial,sans-serif" font-size="18.891">receptacle</tspan></text><path fill="none" stroke="#000" stroke-linejoin="round" stroke-miterlimit="3.864" d="M785.7 66.3h34.9V257h-34.9V66.3z"/><text transform="translate(795.91 95.767)" font-family="Helvetica,Arial,sans-serif" font-size="18.891">1</text><text transform="translate(795.91 125.99)" font-family="Helvetica,Arial,sans-serif" font-size="18.891">2</text><text transform="translate(795.91 156.209)" font-family="Helvetica,Arial,sans-serif" font-size="18.891">3</text><text transform="translate(795.91 186.43)" font-family="Helvetica,Arial,sans-serif" font-size="18.891">4</text><text transform="translate(795.91 216.652)" font-family="Helvetica,Arial,sans-serif" font-size="18.891">5</text><text transform="translate(795.91 246.87)" font-family="Helvetica,Arial,sans-serif" font-size="18.891">6</text><text transform="translate(52.25 79.816)" font-family="Helvetica,Arial,sans-serif" font-weight="bold" font-size="23.863">Camera</text><path clip-rule="evenodd" fill="none" stroke="#000" stroke-linejoin="round" stroke-miterlimit="3.864" d="M927.7 120.5H820.6"/><path fill="#FFF" d="M927.2 120.8c0-2.8 2.3-5.1 5.1-5.1s5.1 2.3 5.1 5.1-2.3 5.1-5.1 5.1-5.1-2.3-5.1-5.1z"/><path fill="none" stroke="#000" stroke-width="1.001" stroke-miterlimit="3.864" d="M927.2 120.8c0-2.8 2.3-5.1 5.1-5.1s5.1 2.3 5.1 5.1-2.3 5.1-5.1 5.1-5.1-2.3-5.1-5.1z"/><g clip-rule="evenodd"><path fill-rule="evenodd" fill="#FFF" d="M960.9 143.4V97.7l-22.8 22.9z"/><path fill="none" stroke="#000" stroke-width="1.001" stroke-linejoin="round" stroke-miterlimit="3.864" d="M960.9 143.4V97.7l-22.8 22.9z"/></g><text transform="translate(894.026 87.557)" font-family="Helvetica,Arial,sans-serif" font-size="18.891">Logic gate</text><text transform="rotate(-90 367.4 -102.769)"><tspan x="0" y="0" font-family="Helvetica,Arial,sans-serif" font-size="18.891">Current</tspan><tspan x="4.6" y="20.1" font-family="Helvetica,Arial,sans-serif" font-size="18.891">limiter</tspan></text><path clip-rule="evenodd" fill="none" stroke="#000" stroke-linejoin="round" stroke-miterlimit="3.864" d="M932.1 210H821.3"/><path clip-rule="evenodd" fill="none" stroke="#000" stroke-miterlimit="3.864" d="M932 410.8V209.7"/><path clip-rule="evenodd" fill="none" stroke="#000" stroke-linejoin="round" stroke-miterlimit="3.864" d="M676.3 210h109.6"/><g fill="none" stroke="#000" stroke-linejoin="round" stroke-miterlimit="3.864"><path clip-rule="evenodd" d="M941.4 410.8h-18.8"/><path d="M926.1 414.9h11.8m-9.2 4h6.6"/></g><text transform="translate(279.282 304.281)" font-family="Helvetica,Arial,sans-serif" font-size="18.891">Optocoupler</text><g clip-rule="evenodd"><path fill="none" stroke="#000" stroke-miterlimit="3.864" d="M740.8 120.3v89.2"/><path fill-rule="evenodd" d="M749 170.9h-16.4l8.2-9.7z"/><path fill="none" stroke="#000" stroke-width=".003" stroke-linejoin="round" stroke-miterlimit="3.864" d="M749 170.9h-16.4l8.2-9.7z"/><path fill="none" stroke="#000" stroke-width=".85" stroke-miterlimit="3.864" d="M736 161.6h9.5m-.3-.1l2.9 2.8m-14.7-5.4l2.8 2.9"/></g><path d="M736.7 120.3c0-2.3 1.8-4.1 4.1-4.1s4.1 1.8 4.1 4.1-1.8 4.1-4.1 4.1-4.1-1.8-4.1-4.1z"/><path fill="none" stroke="#000" stroke-width=".5" stroke-miterlimit="3.864" d="M736.7 120.3c0-2.3 1.8-4.1 4.1-4.1s4.1 1.8 4.1 4.1-1.8 4.1-4.1 4.1-4.1-1.8-4.1-4.1z"/><path d="M736.7 210c0-2.3 1.8-4.1 4.1-4.1s4.1 1.8 4.1 4.1-1.8 4.1-4.1 4.1-4.1-1.9-4.1-4.1z"/><path fill="none" stroke="#000" stroke-width=".5" stroke-miterlimit="3.864" d="M736.7 210c0-2.3 1.8-4.1 4.1-4.1s4.1 1.8 4.1 4.1-1.8 4.1-4.1 4.1-4.1-1.9-4.1-4.1z"/><path clip-rule="evenodd" fill="none" stroke="#000" stroke-width=".9" stroke-linejoin="round" stroke-miterlimit="3.864" stroke-dasharray="8,4" d="M146 367.6h107.5"/><path clip-rule="evenodd" fill="none" stroke="#000" stroke-linejoin="round" stroke-miterlimit="3.864" stroke-dasharray="8,4" d="M146 325.7h107.5"/><text transform="translate(59.862 339.597)"><tspan x="0" y="0" font-family="Helvetica,Arial,sans-serif" font-size="19.886">Further</tspan><tspan x="0" y="23.9" font-family="Helvetica,Arial,sans-serif" font-size="19.886">circuitry</tspan></text></svg>