<svg version="1.0" xmlns="http://www.w3.org/2000/svg" viewBox="0 0 520 354.5"><path fill="none" d="M36.5 16.7h17.4v292.2H36.5z"/><path fill="none" d="M49.3 307h460.6v14.1H49.3z"/><path fill="none" stroke="#000" stroke-width=".781" stroke-miterlimit="3.864" d="M59.6 22.4h430.6v279H59.6v-279z"/><path clip-rule="evenodd" fill="none" stroke="#000" stroke-width=".227" stroke-miterlimit="3.864" d="M59.7 49.8h430.8M59.7 78.1h430.7M59.7 105.9h430.7M59.6 133.7h430.7M59.7 161.5h430.7M59.8 190h430.7m-431 27.7h430.7M59.7 245.4h430.7M59.7 273.2h430.7M131.3 22.3v279.3m72-279.1v279.2m72.1-279.4v279.2m71.2-279.3v279.3m71.9-279v279.3"/><path clip-rule="evenodd" fill="none" stroke="#000" stroke-width=".709" stroke-miterlimit="3.864" d="M60.3 135.9l7-13.6 7.8-14.4 9.3-18 7.7-14 8-14.8 8.9-14.8 7-9.8 6.1-7.7 6.4-5 5.2-1.1 7.9.4 7.1 1.6 9.8 2.7 8.4 4.2 8.6 4.9 7.6 6.6 7.4 8L205.1 67l10.2 12.5 6.2 8.6 8.3 11.6 6.9 10.1 9.6 11.8 7.2 10.2 3.6 4.1 3.7 2.9 4.5 3.2 4.8 3 3.4 2 3 .9 2.4.7 2.8 1.8 2.3 3.2 2 3.7 2.5 4.3 3.2 3.8 5 5.3 5 5.2 10.2 9.6 10.1 9.3 11.8 10.6 9.9 9.1 5.8 6 4.7 4.5 3.4 2.5 3.2 1.1 4.5 2 4.6 1.9 4.3 2.1 3.9 2.2 3.6 2.3 2.6 3.1 2.9 2.4 4.1 2.9 5.7 3.4 7.4 4.3 6.9 3.9 4.5 2.7 6.4 4.1 5.7 3.7 5.5 3.4 5.6 2.9 6.1 2.7 5.5 2.6 6.6 2 6.1 1.4 7.1 1.6 6.1 1.1 6.4 1.1 7.3.9"/><g font-family="Helvetica,Arial,sans-serif"><text transform="rotate(-90 119.986 98.397)" fill="#131718" font-size="12">Relative Response</text><text transform="translate(229.69 342.33)" font-size="12">Wavelength (nm)</text><text transform="translate(41.5 27.285)" font-size="8">1.0</text><text transform="translate(41.5 52.285)" font-size="8">0.9</text><text transform="translate(41.5 80.285)" font-size="8">0.8</text><text transform="translate(41.5 109.285)" font-size="8">0.7</text><text transform="translate(41.5 136.285)" font-size="8">0.6</text><text transform="translate(41.5 165.285)" font-size="8">0.5</text><text transform="translate(41.5 191.285)" font-size="8">0.4</text><text transform="translate(41.5 220.285)" font-size="8">0.3</text><text transform="translate(41.5 249.285)" font-size="8">0.2</text><text transform="translate(41.5 275.285)" font-size="8">0.1</text><text transform="translate(47.5 302.285)" font-size="8">0</text><text transform="translate(47.5 318.285)" font-size="8">400</text><text transform="translate(123.5 318.285)" font-size="8">500</text><text transform="translate(195.5 318.285)" font-size="8">600</text><text transform="translate(266.5 318.285)" font-size="8">700</text><text transform="translate(338.5 318.285)" font-size="8">800</text><text transform="translate(410.5 318.285)" font-size="8">900</text><text transform="translate(481.5 318.285)" font-size="8">1000</text></g></svg>