<svg version="1.0" xmlns="http://www.w3.org/2000/svg" viewBox="0 0 520 362.3"><path clip-rule="evenodd" fill="none" stroke="#000" stroke-miterlimit="3.864" d="M50.2 143.6l6.4-11.2 9.9-20.7 14.4-28.8L90.1 65l11.5-18.8 10.5-15 6.8-7.7 5.1-3.2 6.1-.9 8.9.9 7.3 1 8.7 2.9 10.1 4.5 8 5.1 9 7.6 9.9 10.5 13.4 15 9.2 10.9 7.7 10.5 9.3 12.5 28 38.3 20.5 18.8 13.7 9 18.2 17.2 54.6 53 10.5 4.8 10 4.8 7.3 4.1 7.3 7.7 26.8 14.7 11.5 8 10.9 7 15.3 7.3 14.4 4.5 16.9 3.2 14.7 2.5"/><path fill="none" stroke="#000" stroke-width=".709" stroke-miterlimit="3.864" d="M50.2 17.5h462.5v299.7H50.2V17.5z"/><path clip-rule="evenodd" fill="none" stroke="#000" stroke-width=".227" stroke-miterlimit="3.864" d="M50.4 46.9H513M50.3 77.4h462.6M50.3 107.2H513M50.2 137.1h462.7M50.3 166.9H513M50.4 197.5H513M50.1 227.3h462.7M50.4 257.1H513M50.3 286.9h462.6M127.2 17.4v300m77.3-299.8v300M282 17.4v300m76.4-300.1v300m77.4-299.6v299.9"/><g font-family="Helvetica,Arial,sans-serif"><text transform="translate(35.374 23.4)" font-size="8">1.0</text><text transform="translate(35.374 48.4)" font-size="8">0.9</text><text transform="translate(35.374 81.4)" font-size="8">0.8</text><text transform="translate(35.374 108.4)" font-size="8">0.7</text><text transform="translate(35.374 139.4)" font-size="8">0.6</text><text transform="translate(35.374 170.4)" font-size="8">0.5</text><text transform="translate(35.374 199.4)" font-size="8">0.4</text><text transform="translate(35.374 228.4)" font-size="8">0.3</text><text transform="translate(35.374 259.4)" font-size="8">0.2</text><text transform="translate(35.374 289.4)" font-size="8">0.1</text><text transform="translate(40.374 316.4)" font-size="8">0</text><text transform="translate(44.707 330.066)" font-size="8">400</text><text transform="translate(118.707 330.066)" font-size="8">500</text><text transform="translate(198.707 330.066)" font-size="8">600</text><text transform="translate(277.707 330.066)" font-size="8">700</text><text transform="translate(352.707 330.066)" font-size="8">800</text><text transform="translate(429.707 330.066)" font-size="8">900</text><text transform="translate(498.707 330.066)" font-size="8">1000</text><text transform="translate(488.707 343.4)" font-size="8">100</text><text transform="rotate(-90 126.858 108.737)" fill="#131718" font-size="12">Relative Response</text><text transform="translate(203.721 350.302)" font-size="12">Wavelength (nm)</text></g></svg>