<svg version="1.1" id="Layer_1" xmlns="http://www.w3.org/2000/svg" x="0" y="0" viewBox="0 0 520 520" xml:space="preserve"><style>.st0,.st1{stroke:#000}.st0{fill:none;stroke-miterlimit:3.864;stroke-width:1.559}.st1{stroke-width:.709}.st1,.st2,.st3,.st4{fill:none;stroke-miterlimit:3.864}.st2{stroke-dasharray:5.6693,5.6693;stroke:#262626;stroke-width:1.001}.st3{stroke:#000;stroke-width:.85}.st4{stroke:#fff;stroke-width:2.551}.st5{fill:#fff}.st6{fill:none;stroke:#262626;stroke-width:1.001;stroke-miterlimit:3.864;stroke-dasharray:12.7559,7.0866}.st11{font-family:Helvetica,Arial,sans-serif}.st12{font-size:12px}.st13{font-size:6.996px}.st15{fill:#68bd45}.st16{font-size:11px}.st17{fill:#e2001a}.st18{font-family:&apos;Arial-BoldMT&apos;}</style><path class="st0" d="M44.9 131.3H106m.5 58.9h274.3m-274.8 0v-59m275.5 59.4v-59.3m0 0h125.1"/><path class="st1" d="M44.9 131.5v58.9h461.7M39.4 131.5h5.5"/><path class="st2" d="M199.8 263.2v59.2m221.4-58.9v58.4"/><path class="st1" d="M44.9 263.2l.2 59h461.7"/><path class="st3" d="M207.4 313.2h18.9"/><path d="M209.1 315.7l-9.3-2.5 9.3-2.4v4.9z"/><path class="st3" d="M98.1 313.3H69"/><path d="M96.4 310.8l9.3 2.4-9.3 2.5v-4.9z"/><path class="st3" d="M374.1 313.2H345"/><path d="M372.4 310.8l9.3 2.4-9.3 2.5v-4.9z"/><path class="st3" d="M433.4 295.8l-9.7-3.1 9.7-3v6.1zm-221.2 0l-9.8-3 9.8-3.1v6.1z"/><path class="st0" d="M44.9 454h88.3m31.2-57h219.9m31.7 56.9h90.7"/><path class="st2" d="M148.2 394.9V454"/><path class="st1" d="M44.9 394.9V454h461.7"/><path class="st3" d="M155.5 445h19"/><path d="M157.2 447.5L148 445l9.2-2.5v5z"/><path class="st3" d="M374.5 445H345"/><path d="M372.8 442.5l9.3 2.5-9.3 2.5v-5z"/><path class="st3" d="M98.9 444.9H69"/><path class="st4" d="M102.1 444.9H84.9"/><path class="st5" d="M98 441.4v7l7.7-2.6V444l-7.7-2.6z"/><path d="M105.5 444.9l-6.8 2.4v-4.8l6.8 2.4z"/><path class="st3" d="M84.9 444.9h17m58.3-17.3l-9.8-3.1 9.8-3v6.1zm253.4.4l-9.7-3.1 9.7-3v6.1z"/><path class="st6" d="M106.2 242.9v102.4m0 36.5v71.9m275.3-263.9v264.3"/><path d="M40.8 483.5h458.9" fill="none" stroke="#000" stroke-width="2.5" stroke-miterlimit="3.864"/><path d="M496.8 487.7l15.7-4.2-15.7-4.2v8.4z"/><path d="M106.3 313.3h95.8m179.1 0h44.1M106.4 445h47.5m226.8 0h22.2" fill="none" stroke="#000" stroke-width=".567" stroke-miterlimit="3.864"/><path class="st2" d="M401 395v59.4"/><path class="st0" d="M185.9 321.4h-141m359.9-54.2H216.1m291 54.1h-71.8m-31-54.2l31.1 54.8m-218.7-54.7l-31.1 54.5M165 396.9l-32.1 56.4m251-56.7l32.4 56.9"/><path class="st3" d="M430.4 313.3h17.5"/><path class="st4" d="M426.6 313.3h23.3"/><path class="st5" d="M432.1 316.9v-7.3l-10.4 2.8v1.8l10.4 2.7z"/><path d="M421.4 313.3l9.1-2.5v4.9l-9.1-2.4z"/><path class="st3" d="M448.2 313.3h-23.1M411 445h17.5"/><path class="st4" d="M406.5 445h19.9"/><path class="st5" d="M411.9 448.6v-7.3l-10.4 2.8v1.8l10.4 2.7z"/><path d="M401.1 445l9.1-2.5v4.9l-9.1-2.4z"/><path class="st3" d="M427.6 445h-20.9"/><path d="M431.8 309.6h1.4v2.9h-1.4v-2.9z" fill-rule="evenodd" clip-rule="evenodd" fill="#fff" stroke="#fff" stroke-width=".028" stroke-miterlimit="3.864"/><path d="M411.7 439.7h1.3v4.2h-1.3v-4.2z" fill="#fff" stroke="#fff" stroke-width=".028" stroke-miterlimit="3.864"/><text transform="translate(27.348 194.72)" class="st11 st12">0</text><text transform="translate(27.348 325.22)" class="st11 st12">0</text><text transform="translate(27.348 134.22)" class="st11 st12">1</text><text transform="translate(27.348 455.222)" class="st11 st12">0</text><text transform="translate(73.252 305.008)" class="st11 st12">t</text><text transform="translate(77.172 309.004)" class="st11 st13">PLH</text><text transform="translate(73.252 438.008)" class="st11 st12">t</text><text transform="translate(77.172 442.004)" class="st11 st13">PLH</text><text transform="translate(352.84 305.008)" class="st11 st12">t</text><text transform="translate(356.76 309.004)" class="st11 st13">PHL</text><text transform="translate(352.84 438.008)" class="st11 st12">t</text><text transform="translate(356.76 442.004)" class="st11 st13">PHL</text><path class="st3" d="M59.8 18.3l13.5 4.3-13.5 4.1v-8.4z"/><text transform="translate(84.814 26.725)" class="st11 st12">= Signal threshold</text><text transform="translate(85.814 48.674)" class="st11 st12">= Low-to-high propagation delay</text><text transform="translate(59.073 46.674)" class="st11 st12">t</text><text transform="translate(62.993 50.67)" class="st11 st13">PLH</text><text transform="translate(59.74 67.342)" class="st11 st12">t</text><text transform="translate(63.66 71.338)" class="st11 st13">PHL</text><text transform="translate(86.814 69.769)" class="st11 st12">= High-to-low propagation delay</text><path d="M44.7 8.6H274v74.7H44.7V8.6z" fill="none" stroke="#000" stroke-miterlimit="10"/><text transform="translate(384.932 259.769)" class="st15 st11 st16">Fast edge</text><text transform="translate(110.319 259.769)" class="st17 st11 st16">Slow edge</text><text transform="translate(384.932 388.769)" class="st15 st11 st16">Fast edge</text><text transform="translate(110.319 388.769)" class="st17 st11 st16">Slow edge</text><text transform="rotate(-90 232.79 213.123)" class="st11 st12">Voltage</text><text transform="rotate(-90 165.123 145.457)" class="st11 st12">Voltage</text><text transform="rotate(-90 104.907 85.24)" class="st11 st12">Logic Level</text><path class="st1" d="M39.5 271.8H45m0-9.7v43.4"/><path d="M42.9 263.5l2.1-7.7 2.1 7.7h-4.2z"/><path class="st1" d="M39.5 293.3H45m-5.5 21.6H45m-5.5 89.4H45m0-9.7V438"/><path d="M42.9 396l2.1-7.7 2.1 7.7h-4.2z"/><path class="st1" d="M39.5 425.8H45m-5.5 21.6H45"/><text transform="translate(487.16 509.103)" class="st18 st12">Time</text><text transform="translate(44.759 224.758)" class="st11 st12">Analog signal</text><text transform="translate(44.759 239.158)" class="st11 st12">(</text><text transform="translate(48.859 239.158)" class="st18 st12">opto-coupled</text><text transform="translate(120.859 239.158)" class="st11 st12">line, ace classic/U/L only)</text><text transform="translate(45.009 114.09)" class="st11 st12">Internal line status</text><text transform="translate(44.759 359.258)" class="st11 st12">Analog signal</text><text transform="translate(44.759 373.658)" class="st11 st12">(</text><text transform="translate(48.859 373.658)" class="st18 st12">GPIO</text><text transform="translate(79.559 373.658)" class="st11 st12">line)</text><path class="st6" d="M106.3 190.4v22.8"/></svg>