<svg version="1.0" xmlns="http://www.w3.org/2000/svg" viewBox="0 0 550 294.2"><path fill="none" stroke="#1D1E1C" stroke-width=".227" stroke-miterlimit="10" d="M69.2 62.2l427.7-.1M69.2 84.9l427.7-.1M69.2 107.7l428.1-.2m-428 22.9l427.7-.2M69.3 153.1l427.8-.1M69.3 175.8l427.7-.1M69.3 198.5l427.8-.1M69.4 221.2l427.2-.1M69.3 39.5l427.7-.1M104.3 16.6l.1 227.2M140 16.6l.1 227.2m35.7-227v227.1m35.7-226.7v226.7m35.7-227.8v227.7m71.4-227.6l.1 227.6m35.6-227.2l.1 227.1M390 16.5l.1 227.2m35.6-226.5l.1 226.5m35.6-227.2l.1 227.2m-178.6-227l.1 227.2"/><path fill="none" stroke="#1D1E1C" stroke-width=".709" stroke-miterlimit="10" d="M69.3 16.6h427.9v227.2H69.3z"/><text transform="matrix(1.0502 -.0003 .00033 1 44.129 201.208)" fill="#1D1D1B" font-family="Helvetica,Arial,sans-serif" font-size="11.471">0.2</text><text transform="matrix(1.0502 -.0003 .00033 1 44.07 157.32)" fill="#1D1D1B" font-family="Helvetica,Arial,sans-serif" font-size="11.471">0.4</text><text transform="matrix(1.0502 -.0003 .00033 1 44.074 111.633)" fill="#1D1D1B" font-family="Helvetica,Arial,sans-serif" font-size="11.471">0.6</text><text transform="matrix(1.0502 -.0003 .00033 1 43.911 65.287)" fill="#1D1D1B" font-family="Helvetica,Arial,sans-serif" font-size="11.471">0.8</text><text transform="matrix(1.0502 -.0003 .00033 1 44.054 19.687)" fill="#1D1D1B" font-family="Helvetica,Arial,sans-serif" font-size="11.471">1.0</text><text transform="matrix(1.0502 -.0003 .00033 1 59.316 259.523)" fill="#1D1D1B" font-family="Helvetica,Arial,sans-serif" font-size="11.471">400</text><text transform="matrix(1.0502 -.0003 .00033 1 129.898 259.55)" fill="#1D1D1B" font-family="Helvetica,Arial,sans-serif" font-size="11.471">500</text><text transform="matrix(1.0502 -.0003 .00033 1 201.477 259.456)" fill="#1D1D1B" font-family="Helvetica,Arial,sans-serif" font-size="11.471">600</text><text transform="matrix(1.0502 -.0003 .00033 1 272.975 259.57)" fill="#1D1D1B" font-family="Helvetica,Arial,sans-serif" font-size="11.471">700</text><text transform="matrix(1.0502 -.0003 .00033 1 344.5 259.507)" fill="#1D1D1B" font-family="Helvetica,Arial,sans-serif" font-size="11.471">800</text><text transform="matrix(1.0502 -.0003 .00033 1 415.811 259.438)" fill="#1D1D1B" font-family="Helvetica,Arial,sans-serif" font-size="11.471">900</text><text transform="matrix(1.0502 -.0003 .00033 1 483.177 259.536)" fill="#1D1D1B" font-family="Helvetica,Arial,sans-serif" font-size="11.471">1000</text><text transform="matrix(1.0502 -.0003 .00033 1 45.489 246.655)" fill="#1D1D1B" font-family="Helvetica,Arial,sans-serif" font-size="11.471">0.0</text><text transform="matrix(-.00033 -.9964 1 -.00029 38.193 175.768)" font-family="Helvetica,Arial,sans-serif" font-size="10.903">Relative Response</text><text transform="matrix(1.0036 -.0003 .00033 1 247.352 275.009)" font-family="Helvetica,Arial,sans-serif" font-size="10.864">Wavelength (nm)</text><path fill="none" stroke="#000" stroke-linecap="round" stroke-linejoin="round" stroke-miterlimit="10" d="M69.4 82.3c1.2-2 2.4-4.2 3.6-6 1.2-1.8 2.4-3.3 3.6-4.9 1.2-1.6 2.4-3.3 3.6-4.8 1.2-1.5 2.4-2.9 3.6-4.2 1.2-1.3 2.4-2.3 3.6-3.4 1.2-1.1 2.4-2.1 3.6-3.3 1.2-1.2 2.4-2.5 3.6-3.9 1.2-1.4 2.4-3 3.6-4.3 1.2-1.3 2.4-2.5 3.6-3.6 1.2-1.1 2.4-1.9 3.6-2.7 1.2-.9 2.4-1.6 3.6-2.5 1.2-.8 2.4-1.6 3.6-2.5 1.2-1 2.4-2.2 3.6-3.2 1.2-1 2.4-2.1 3.6-3 1.2-.9 2.4-1.9 3.6-2.6 1.2-.7 2.4-.9 3.6-1.4 1.2-.5 2.4-1 3.6-1.4 1.2-.4 2.4-.7 3.6-1.2 1.2-.6 2.4-1.5 3.6-2.1 1.2-.6 2.4-1 3.6-1.5 1.2-.5 2.4-1 3.6-1.3 1.2-.3 2.4-.3 3.6-.4 1.2-.1 2.4-.1 3.6-.1 1.2 0 2.4.2 3.6.2 1.2 0 2.4-.1 3.6-.2 1.2-.1 2.4-.1 3.6-.2 1.2-.1 2.4-.3 3.6-.3 1.2 0 2.4.1 3.6.3 1.2.2 2.4.5 3.6.9 1.2.3 2.4.8 3.6 1.2 1.2.4 2.4.9 3.6 1.3 1.2.4 2.4.9 3.6 1.1 1.2.3 2.4.3 3.6.4 1.2.1 2.4 0 3.6.1 1.2.1 2.4 0 3.6.2 1.2.2 2.4.7 3.6 1.2 1.2.5 2.4 1.1 3.6 2 1.2.9 2.4 2.1 3.6 3.4 1.2 1.2 2.4 2.6 3.6 4 1.2 1.4 2.4 2.9 3.6 4.2 1.2 1.3 2.4 2.6 3.6 3.7 1.2 1.1 2.4 2 3.6 2.8 1.2.8 2.4 1.4 3.6 2 1.2.6 2.4 1 3.6 1.4 1.2.4 2.4.7 3.6.9 1.2.3 2.4.3 3.6.7 1.2.4 2.4 1.1 3.6 1.7 1.2.6 2.4 1 3.6 1.7 1.2.7 2.4 1.5 3.6 2.5 1.2 1 2.4 2.3 3.6 3.5 1.2 1.2 2.4 2.7 3.6 3.8 1.2 1.1 2.4 1.7 3.6 2.8 1.2 1 2.4 2.3 3.6 3.4 1.2 1.1 2.4 2.2 3.6 2.9 1.2.8 2.4 1.2 3.6 1.6 1.2.4 2.4.3 3.6.8 1.2.5 2.4 1.5 3.6 2 1.2.5 2.4.8 3.6 1.1 1.2.3 2.4.4 3.6.7 1.2.3 2.4.5 3.6 1.1 1.2.6 2.4 1.7 3.6 2.6 1.2.9 2.4 1.6 3.6 2.5 1.2.9 2.4 1.9 3.6 3 1.2 1.1 2.4 2.2 3.6 3.5 1.2 1.3 2.4 2.9 3.6 4.4 1.2 1.5 2.4 3.2 3.6 4.7 1.2 1.5 2.4 2.8 3.6 4.1 1.2 1.3 2.4 2.4 3.6 3.6 1.2 1.2 2.4 2.3 3.6 3.5 1.2 1.2 2.4 2.5 3.6 3.6 1.2 1.1 2.4 2.1 3.6 2.9 1.2.9 2.4 1.6 3.6 2.3 1.2.7 2.4 1.2 3.6 1.9l3.6 2.1c1.2.6 2.4 1.2 3.6 1.7 1.2.5 2.4.8 3.6 1.4 1.2.5 2.4 1 3.6 1.8 1.2.7 2.4 1.8 3.6 2.6l3.6 2.4 3.6 2.1c1.2.7 2.4 1.4 3.6 2.3 1.2.9 2.4 1.9 3.6 2.9 1.2 1 2.4 2.1 3.6 3.2 1.2 1.1 2.4 2.5 3.6 3.5 1.2 1 2.4 1.9 3.6 2.6 1.2.7 2.4 1.2 3.6 1.7 1.2.5 2.4.9 3.6 1.5 1.2.6 2.4 1.2 3.6 1.9 1.2.7 2.4 1.6 3.6 2.4 1.2.9 2.4 1.9 3.6 2.7 1.2.8 2.4 1.7 3.6 2.2 1.2.6 2.4 1 3.6 1.2 1.2.2 2.4.1 3.6.2 1.2.1 2.4 0 3.6.3 1.2.3 2.4.9 3.6 1.7 1.2.8 2.4 1.9 3.6 2.9 1.2 1 2.4 2.3 3.6 3.2 1.2.9 2.4 1.7 3.6 2.2 1.2.5 2.4.6 3.6.6 1.2.1 2.4-.3 3.6-.3 1.2 0 2.4-.1 3.6.3 1.2.4 2.4 1.1 3.6 2.1 1.2 1 2.4 2.5 3.6 3.9 1.2 1.4 2.4 3.1 3.6 4.5 1.2 1.4 2.4 2.8 3.6 3.8 1.2 1 2.4 1.8 3.6 2.3 1.2.5 2.4.5 3.6.7 1.2.1 2.4-.1 3.6.1 1.2.2 2.4.4 3.6 1.1 1.2.7 2.4 1.7 3.6 2.8 1.2 1.2 2.4 2.7 3.6 4.1 1.2 1.4 2.4 3 3.6 4.3 1.2 1.3 2.4 2.6 3.6 3.5 1.2.9 2.4 1.5 3.6 1.9 1.2.3 2.4.2 3.6.2 1.2 0 2.4-.3 3.6-.4 1.2 0 2.4-.1 3.6.2 1.2.3 2.4.8 3.6 1.4 1.2.6 2.4.9 3.6 2s2.4 2.9 3.6 4.3"/></svg>