<svg version="1.1" id="Layer_1" xmlns="http://www.w3.org/2000/svg" x="0" y="0" viewBox="0 0 520 300" xml:space="preserve"><style>.st0,.st1{fill:none;stroke-miterlimit:10}.st0{stroke-width:.25;stroke-linecap:square;stroke:#000}.st1{stroke:#131718}.st2{fill:#131718}.st3{font-family:Helvetica,Arial,sans-serif}.st4{font-size:12px}.st5{font-size:9.31px}</style><g id="Graph"><path class="st0" d="M276.5 22.1v216.5m53.9-216.5v216.5M168.6 22.1v216.5M114.7 22.1v216.5M438.3 22.1v216.5M384.4 22.1v216.5M60.7 22.1v216.5M222.6 22.1v216.5M492.3 22.1v216.5m-431.6-.1h431.6M60.7 22.1h431.6"/><path class="st1" d="M60.5 22.1h431.8v216.4H60.5z"/><path class="st0" d="M60.7 216.9h431.6M60.7 173.6h431.6M60.7 65.4h431.6M60.7 238.5h431.6M60.7 130.3h431.6M60.7 195.2h431.6M60.7 43.8h431.6M60.7 22.1h431.6M60.7 87h431.6M60.7 152h431.6M60.7 108.7h431.6"/></g><path class="st1" d="M60.5 238.3l5.8-2 4.5-6.6 6-13.2 5.3-9.2 5-12.1L94 183l6.9-12.6 6.2-14 7.4-13 7-10.9 8.2-12 10.4-15.5 8.3-6.9 7.8-15.3 7.5-7.1 7.9-4.9 6.7-9.1 8-5.2 8.4-12 4.9-2 13.1-6.2 4.1 2.8 5.1-12.2h6.7l4.2-4 6-.9 4.4 2.8 10.8-1.9 12 4.2 4.8 6.9 5.7-1.3 5.8 7.6 5.1 2.8h5.4l7 7.7 4 3.8 10.4 18.8 8.9 9.4 7.2 12.4 8.1 10.7 8.6 13.6 5.3 3.8 5.3 3.6 10 17.7 6.2 6 10.3 12.2 9.4 11.7 12.1 15.6 9.7 9.6 9.4 6.6 7.2 8.7 11.6 8.3 9.9 3.9 13.5 5.7 14.2 2.6 11 .8" id="Curve"/><g id="Text"><text transform="rotate(-90 110.975 84.385)" class="st2 st3 st4">Relati</text><text transform="rotate(-90 95.965 69.375)" class="st2 st3 st4">v</text><text transform="rotate(-90 93.1 66.51)" class="st2 st3 st4">e Response</text><text transform="translate(236.69 277.3)" class="st3 st4">W</text><text transform="translate(247.14 277.3)" class="st3 st4">a</text><text transform="translate(253.58 277.3)" class="st3 st4">v</text><text transform="translate(259.32 277.3)" class="st3 st4">elength (nm)</text><text transform="translate(40.33 199.85)" class="st3 st5">0.2</text><text transform="translate(40.33 243.5)" class="st3 st5">0.0</text><text transform="translate(40.33 156.19)" class="st3 st5">0.4</text><text transform="translate(40.33 112.54)" class="st3 st5">0.6</text><text transform="translate(40.33 68.88)" class="st3 st5">0.8</text><text transform="translate(40.33 25.23)" class="st3 st5">1.0</text><text transform="translate(53.38 253.58)" class="st3 st5">300</text><text transform="translate(107.39 253.58)" class="st3 st5">400</text><text transform="translate(161.4 253.58)" class="st3 st5">500</text><text transform="translate(215.4 253.58)" class="st3 st5">600</text><text transform="translate(269.41 253.58)" class="st3 st5">700</text><text transform="translate(323.42 253.58)" class="st3 st5">800</text><text transform="translate(377.42 253.58)" class="st3 st5">900</text><text transform="translate(428.84 253.58)" class="st3 st5">1000</text><text transform="translate(483.19 253.58)" class="st3 st5">1100</text></g></svg>