<svg version="1.0" xmlns="http://www.w3.org/2000/svg" viewBox="0 0 520 233.8"><path clip-rule="evenodd" fill="none" stroke="#000" stroke-width=".913" stroke-miterlimit="3.864" d="M57.4 10.3h449.9m-450 171.1h450"/><path clip-rule="evenodd" fill="none" stroke="#000" stroke-width=".619" stroke-miterlimit="3.864" d="M507.3 10.3v175.8M59.5 10.3v176.3"/><path clip-rule="evenodd" fill="none" stroke="#000" stroke-width=".257" stroke-miterlimit="3.864" d="M57.3 44.6h450m-450 34.6h450m-450 33.5h450M57.4 146.9h449.9"/><path clip-rule="evenodd" fill="none" stroke="#000" stroke-width=".177" stroke-miterlimit="3.864" d="M57.7 153.9h1.8m-1.8 6.9h1.8m-1.9 6.9h1.8m-1.8 6.9h1.8m-1.7-55h1.8m-1.8 6.9h1.8m-1.9 6.9h1.8m-1.7 6.9h1.7m-1.7-54.7h1.8m-1.8 6.9h1.8m-1.9 6.9h1.8m-1.8 6.9h1.8m-1.7-54.9h1.8m-1.8 6.9h1.8m-1.9 6.9h1.8m-1.7 6.9h1.8m-1.8-55.3h1.8m-1.8 6.9h1.8m-1.9 6.9h1.8m-1.8 6.9h1.8M87.3 10v176.1m28-176.1v176.1m28-176.1v176.1m28-175.8v175.8m28-175.8v175.8m28-176.1v176.1m28-175.8v175.8m28-176.1v176.1m28-176.1v176.1m28-175.8v175.8m28-175.4v175.4m28-176.1v176.1m28-176.4v176.4m27.9-175.8v175.8m28-176.1v176.1m28-175.8v175.8"/><g clip-rule="evenodd"><path fill-rule="evenodd" d="M408.8 29.6h88.4v51.9h-88.4z"/><path fill="none" stroke="#000" stroke-width="1.117" stroke-miterlimit="3.864" d="M408.8 29.6h88.4v51.9h-88.4z"/></g><g clip-rule="evenodd"><path fill-rule="evenodd" fill="#FFF" d="M406.2 27.1h88.4V79h-88.4z"/><path fill="none" stroke="#000" stroke-width="1.117" stroke-miterlimit="3.864" d="M406.2 27.1h88.4V79h-88.4z"/></g><path clip-rule="evenodd" fill="none" stroke="#2950A3" stroke-miterlimit="3.864" stroke-dasharray="12,2,2,2" d="M414.2 38.1h31.9"/><path clip-rule="evenodd" fill="none" stroke="#55B956" stroke-miterlimit="3.864" stroke-dasharray="2,2" d="M414.2 54.6h31.9"/><path clip-rule="evenodd" fill="none" stroke="#F04A3A" stroke-miterlimit="3.864" stroke-dasharray="72" d="M414.2 71.1h31.9"/><g font-family="Helvetica,Arial,sans-serif"><text transform="translate(210.83 223.013)" font-size="12">Wavelength (nm)</text><text transform="translate(453.376 41.22)" fill="#131718" font-size="10">Blue</text><text transform="translate(453.376 57.315)" fill="#131718" font-size="10">Green</text><text transform="rotate(-90 95.567 68.774)" fill="#131718" font-size="12">Quantum Efficiency (%)</text><text transform="translate(454.376 73.8)" fill="#131718" font-size="10">Red</text><text transform="translate(43.605 46.775)" font-size="8">40</text><text transform="translate(43.605 13.252)" font-size="8">50</text><text transform="translate(43.605 81.464)" font-size="8">30</text><text transform="translate(43.605 114.705)" font-size="8">20</text><text transform="translate(47.605 184.06)" font-size="8">0</text><text transform="translate(43.605 149.775)" font-size="8">10</text><text transform="translate(54.404 197.906)" font-size="8">300</text><text transform="translate(278.404 197.906)" font-size="8">700</text><text transform="translate(334.404 197.906)" font-size="8">800</text><text transform="translate(54.404 197.906)" font-size="8">300</text><text transform="translate(391.404 197.906)" font-size="8">900</text><text transform="translate(444.404 197.906)" font-size="8">1000</text><text transform="translate(499.404 197.906)" font-size="8">1100</text><text transform="translate(220.404 197.906)" font-size="8">600</text><text transform="translate(165.404 197.906)" font-size="8">500</text><text transform="translate(107.404 197.906)" font-size="8">400</text></g><g clip-rule="evenodd" fill="none" stroke-miterlimit="3.864"><path stroke="#F04A3A" d="M59.9 172.6l5.5 4.7 5.9-1.8L74 180l2.6-6.7 3.9-.5 2.7-2.8 2.1-6.1 2.7-1.2 3-5.4 5.4-1.6 5.7-4.7 6.1-4.2 2.2 1.2 3 .3 3.7 3.3 1.7.8 2 2.4 2.2 2 2.1 1.7 2.5 2.5 9.2 5.9 2.3.8 6.1 3.6 3.6.8 9.1.2 3.3-.7 3-.1 2.2 1.1h11.3l3-2.4 5.2-7.6h2.7l2.4 2.5 5.4 7.4 2.7 2.3 2.4 1.4 2.9-.4 2-1.7 2.7-4.4 2.3-6.7 2.3-16.7 1.3-16.5 1.9-28.7 2.3-33 1-13.5 1.5-9.5.8-3.9 2 3.6 3.2 3.6 1.9-2.8 1.9-5.3 5-20.3 2.7 2.2 2.5 10.3 3.1 4.9 4.1-10.1 4.3-8.6 2.6 2.2 5.8 19.7 2.7 1.6 5.7-7.8 2.7 5.8 5.3 22.5 5.3 6.3h1.8l2.4-1.6 5.1-5.2 3.2 6.3 2.4 10.8 2.6 7 2 1.3 1.8-.8 4.6-8.6 3-3.5 2.8 1.2 2.8 6.6 4.1 9.1 3.2 3.8 2.8 3 1.9.8 2.9-.1 2.8-1.4 2-.3 1.9.5 1.8 2.6 3.4 8.1 2.9 7.7 2.7 4.7 2 1.9 6.6 1.2 4.6.3 3.9 1.8 6.5 5.8 5 5.2 5.8 6.2 4.1 2.2 5.3.3 5.5.6 3.6 3.1 4.8 4.2 7.4 5.9 7 3.7 7.6 3.7 10.3 3.4 7.4 3.3 8.5 3.5 7.4 1.3 15.4 1.1 13.9.5 14.6.1"/><path stroke="#55B956" stroke-width="1.09" stroke-dasharray="2,2" d="M61.2 175.2l2.8-3.5.7 7.3 4.3-3.7 4.8-.2 2.8 1.1 2.6 4.1 2.9-5.3 3.7-.2 5.2 2.5 3.2-2.3 3.2 2.3 3.5-2.8 4.2.7 4.2-1.8 5.1-.2 12.6-.5 5.6-.7 5.3-1.6 5.4-4.8 6.5-2.2 3.2-2.2 1.6-3.9 2.3-7.5 3.3-13.5 5.1-24.2 6-30.2 5.8-28.1 4-7.6 6.9-25.1 1-1.5 1.8-3.4 1 .8 1.5 4.5 1 4.3 2.1-1.5 2-.3 2.2 1.3 2.1 3.5 2.1 9.1 2.8 16.4 6.3 7.2 3.9 16.2 3.9 27.1 7.3 38 6.3 17.9 4.3 6.3 6.8 1.5 3.4 1.4 6 3 3.3-.5 3.3-2.4 4.6-3.4 7.6-5.3 4.4-9.2 3.2-7.3 3.2-3 2.7-1 3.7 4 5.2 2.3 3.6-2.3 2.5-3 2.6-3 4.7-4.6h6.3l9.2-6.7 5.5-2.3 3.7-1.6 4.4 2.6 5.4 3.2 4.9-4 3.6-3.3 1.8-2.4h1.7l2 .5 2.2 2 3.5 6.7 4.3 3 2.7.8 4.5 4 7.2.6 4.2-1.5 3 1.5 2.5 2 3.5 3.5 3.4 3.3 9.8 7.8 8 5.7 15.1 7.1 13.9 7.7 14.8 2.3 18.8 2.3 11.3 1.4 15.2.3"/><path stroke="#2950A3" stroke-dasharray="12,2,2,2" d="M59.4 176.3l3.7-2.5 2.6 2.1 1.1 3 .6 1.3 3.5-1.1 1.9-1.1 2.4 1 2.5-2.1 2.3.8 1.2 2.1 2.5.4 1.5-1.1 3.1.1 2.5-2.1 3.4-.5 2.5-.3 5-10.5 4.3-13.5 3-14.1 5.5-25.8 4.7-18.6 2.2-10.8 2.4-5.6 3-2.5 3-19 3.3-4.8 2.5-2.6 2.8-5.5 8.1-11.8 1.8.1 3.7 3 3.1-3.5 2.4 1 1.9 4.9 2.3 5.2 1.6 2.6 2.7 1.8 1.4 6.3 1.5 5.5 2.7 7.8 5.1 9.7 2.2 9.1 2.6 12.9 3.7 16.2 5.5 17 3.8 9.3 4.5 6.9 4.3 9.5 3.5 6.8 4.8 3.6 3.5 1 3.3 1.6 3.6 2.3 5.9-.1 3.4.7 4.1.6h3.3l3.8-1.6 4.3-3 2.9-.6 3.8-1.9 6.5-6 3.2-2.8 3-.5 2.3.8 2.4 1.1 2.8 1 2.5-.7 2.3-1.7 2-1.1 2.7-.7 2.3.2 1.3 1.3 1.8 2.5 4.3 3.9 2.7 1.8 3.1.8 7.8.6 3.5 1.7 3.9 2.2 2.4.8h2l2.8-.6 2.4-2.4 2.2-2.8 3-6.5 4.6-12.2 4.2-7.8 4.8-7.2 5-9.1 3.9-4.6 3.3-1.8 3.8-.8 3.1 1.5 2.9 3.2 4.1 5.9 4.2 4.4 4.9 3.2 4 .8 4.8 2.1 4.3 3.4 5.6 4.7 6.8 6.8 5 5 5.5 2.9 8.9 1.9 4.7 2.1 7.3 5.4 8.2 4.3 10.6 3.1 9 .7 10.6 1.2 21.3 1.8 12.6.3"/></g></svg>