<svg version="1.0" xmlns="http://www.w3.org/2000/svg" viewBox="0 0 190 190"><g fill="none"><path stroke="#1A1A18" stroke-width=".567" stroke-linecap="round" stroke-linejoin="round" stroke-miterlimit="10" d="M14 158.3c-2.8 0-5.1-2.3-5.1-5.1V15.5c0-2.8 2.3-5.1 5.1-5.1h137.8c2.8 0 5.1 2.3 5.1 5.1v137.8c0 2.8-2.3 5.1-5.1 5.1H14z"/><path stroke="#1A1A18" stroke-width=".283" stroke-linecap="round" stroke-linejoin="round" stroke-miterlimit="10" d="M40.6 131.6c1.9 0 3.5-1.6 3.5-3.5s-1.6-3.5-3.5-3.5-3.5 1.6-3.5 3.5 1.5 3.5 3.5 3.5z"/><path stroke="#1A1A18" stroke-width=".283" stroke-linecap="round" stroke-linejoin="round" stroke-miterlimit="10" d="M40.6 133.9c3.2 0 5.9-2.6 5.9-5.9 0-3.2-2.6-5.9-5.9-5.9-3.2 0-5.9 2.6-5.9 5.9 0 3.3 2.6 5.9 5.9 5.9zm0-94.8c1.9 0 3.5-1.6 3.5-3.5s-1.6-3.5-3.5-3.5-3.5 1.6-3.5 3.5 1.5 3.5 3.5 3.5z"/><path stroke="#1A1A18" stroke-width=".283" stroke-linecap="round" stroke-linejoin="round" stroke-miterlimit="10" d="M40.6 41.5c3.2 0 5.9-2.6 5.9-5.9 0-3.2-2.6-5.9-5.9-5.9-3.2 0-5.9 2.6-5.9 5.9 0 3.2 2.6 5.9 5.9 5.9z"/><path stroke="#1A1A18" stroke-width=".283" stroke-linecap="round" stroke-linejoin="round" stroke-miterlimit="10" d="M24 139.7c-3.4 0-6.1-2.7-6.1-6.1V29.3c0-3.4 2.7-6.1 6.1-6.1h33.3c3.4 0 6.1 2.7 6.1 6.1v104.3c0 3.4-2.7 6.1-6.1 6.1H24z"/><path stroke="#1A1A18" stroke-width=".283" stroke-linecap="round" stroke-linejoin="round" stroke-miterlimit="10" d="M43.5 48.2h-3.1l-1.8.8-4.6 4.4-.7 1.6v56.5c0 2.3 1.8 4.1 4.1 4.1h6c2.3 0 4.1-1.8 4.1-4.1V52.3c.1-2.3-1.7-4.1-4-4.1z"/><path stroke="#1A1A18" stroke-width=".283" stroke-linecap="round" stroke-linejoin="round" d="M76.7 128.1c0 1.9-1.5 3.4-3.4 3.4s-3.4-1.5-3.4-3.4 1.5-3.4 3.4-3.4c1.8-.1 3.4 1.5 3.4 3.4z"/><path stroke="#1A1A18" stroke-width=".283" stroke-linecap="round" stroke-linejoin="round" d="M79.5 128.1c0 3.5-2.8 6.3-6.3 6.3s-6.3-2.8-6.3-6.3 2.8-6.3 6.3-6.3 6.3 2.8 6.3 6.3zm54.4-2.3c0 11.8-9.6 21.4-21.4 21.4-11.8 0-21.4-9.6-21.4-21.4 0-11.8 9.6-21.4 21.4-21.4 11.8 0 21.4 9.6 21.4 21.4z"/><path stroke="#1A1A18" stroke-width=".283" stroke-linecap="round" stroke-linejoin="round" d="M130.4 125.8c0 9.9-8 17.9-17.9 17.9-9.9 0-17.9-8-17.9-17.9 0-9.9 8-17.9 17.9-17.9 9.9.1 17.9 8 17.9 17.9z"/><path stroke="#1A1A18" stroke-width=".283" stroke-linecap="round" stroke-linejoin="round" d="M138.2 125.8c0 14.2-11.5 25.7-25.7 25.7S86.8 140 86.8 125.8s11.5-25.7 25.7-25.7 25.7 11.5 25.7 25.7z"/><g stroke="#1A1A18" stroke-width=".283" stroke-linecap="round" stroke-linejoin="round"><path d="M109.4 125.8c0-1.9 1.5-3.4 3.4-3.4s3.4 1.5 3.4 3.4-1.5 3.4-3.4 3.4c-1.9.1-3.4-1.5-3.4-3.4zm-10 0c0-1.9 1.5-3.4 3.5-3.4 1.9 0 3.4 1.5 3.4 3.4s-1.5 3.4-3.4 3.4c-2 .1-3.5-1.5-3.5-3.4zm16.8-7.4c0-1.9 1.5-3.4 3.4-3.4s3.4 1.5 3.4 3.4-1.5 3.4-3.4 3.4c-1.8.1-3.4-1.5-3.4-3.4zm-10.5-1.5c0-1.9 1.5-3.4 3.4-3.4s3.4 1.5 3.4 3.4-1.5 3.4-3.4 3.4-3.4-1.5-3.4-3.4zm10.5 16.3c0 1.9 1.5 3.4 3.4 3.4s3.4-1.5 3.4-3.4-1.5-3.4-3.4-3.4c-1.8-.1-3.4 1.5-3.4 3.4zm-2.2 3.7c0 .8.7 1.5 1.5 1.5s1.5-.7 1.5-1.5-.7-1.5-1.5-1.5c-.9 0-1.5.7-1.5 1.5zm-12.1-4.9c0 .8.7 1.5 1.5 1.5s1.5-.7 1.5-1.5-.7-1.5-1.5-1.5-1.5.7-1.5 1.5zm12.1-17.3c0-.8.7-1.5 1.5-1.5s1.5.7 1.5 1.5-.7 1.5-1.5 1.5c-.9 0-1.5-.6-1.5-1.5zm-12.1 5c0-.8.7-1.5 1.5-1.5s1.5.7 1.5 1.5-.7 1.5-1.5 1.5c-.8-.1-1.5-.7-1.5-1.5zm3.8 15.1c0 1.9 1.5 3.4 3.4 3.4s3.4-1.5 3.4-3.4-1.5-3.4-3.4-3.4c-1.9-.1-3.4 1.5-3.4 3.4zm20.1-12.2v-.7h-1.2l-3.6 2.6h-1.8c-.5 0-.8-.1-.8.4v1.9c0 .5.3.4.8.4h1.8l3.6 2.6h1.2v-.8 0l-.1-.1c-1-.7-1.7-1.8-1.7-3.1-.1-1.4.7-2.5 1.8-3.2h0z"/><path d="M127.3 128.9c-1.4 6.7-7.3 11.7-14.4 11.7-8.1 0-14.7-6.6-14.7-14.7s6.6-14.7 14.7-14.7c7.1 0 13 5 14.4 11.7-1.5.2-2.7 1.5-2.7 3s1.1 2.8 2.7 3z"/></g><path d="M.2 1.6h165.4V167H.2z"/></g><path d="M118.9 118.8l44.5-39.4m-44.5 53.4l50.8 15.6m-60.4-13.9l-29.4 31m32.6-39.7L63.9 81.6m38.7 43.6l-45.7 14.3m52.4-22.4l3.2-44.4" fill="none" stroke="#000" stroke-miterlimit="10"/><g font-family="Helvetica,Arial,sans-serif" font-size="14.889"><text transform="translate(45.823 145.554)">4</text><text transform="translate(67.627 176.225)">3</text><text transform="translate(173.182 154.838)">2</text><text transform="translate(167.685 79.593)">1</text><text transform="translate(108.58 67.541)">5</text><text transform="translate(52.712 80.213)">6</text></g></svg>