<svg version="1.1" id="Layer_1" xmlns="http://www.w3.org/2000/svg" x="0" y="0" viewBox="0 0 889.4 237.2" xml:space="preserve"><style>.st1{fill:none;stroke:#000;stroke-width:.5;stroke-miterlimit:10}.st2{font-family:Helvetica,Arial,sans-serif}.st3{font-size:18px}</style><path d="M79.4 220.4V52l-59.9.5v-5.9H85v154h5.4c2.2 0 4 .2 4.3 4.4 0 .5.1 4.3.1 10.7h10.1v-45.2h26s.7 1.1 1.8 1.1.6-2.5 2.2-2.4c1.6.1 2.2 1.8 2.2 1.8s.1-.9 1.6-.8c1.4.1 1.3 1.3 2.1 1.2s.7-1.1 2-1.1c1.3.1 1.2.9 1.9.9s.6-1.1 1.3-1.1c.7.1 2.1.9 2.5.9s-.2-2.2 1.7-2.1c1.9.1 1.3 2.7 2.3 2.5s.9-.8.9-.8h318.4s.6.4 2 .2c1.4-.1 1.5-2.4 2.6-2.4s.9 2.4 1.8 2.4c.9.1.7-2 1.8-2s.9 2.3 2 2.4c1.1.1.5-2.4 1.8-2.4 1.2 0 .9 2.6 2 2.6s.9-2 2-1.9c1.1 0-.3 2.3 1.5 2.1 1.8-.1 1-2.2 2.5-2.1 1.5 0 .1 2.5 1.9 2.3 1.8-.1 1.4-1.2 1.4-1.2h336.6c.8 0 .7 1.6 1.5 1.6s.9-2.6 2.6-2.4c1.7.2.7 2.4 1.6 2.5.8.1.5-1.8 1.9-1.6 1.3.2.7 1.5 1.7 1.4.9-.1 1.2-.9 2.2-.9 1 .1 1.3 1.3 2 1.3s.7-1.8 1.8-1.7c1 .1 1.1 1.3 1.8 1.3.7-.1.9-.6 1-2.1 1.3-1.3 2.4-.1 2.4.5s.4 1.8 1.3 1.8 1.1-1.8 1.1-1.8h11.7c.9 0 1.1.9 1.1 1.4v251.9c0 .4 0 1.6-1.3 1.6h-35.3l-1.1.1h-.6v2.8l-2.7-1.4v-1.5H825v1.6h-3v-1.6h-.8v1.6H818v-1.8h-.7v2h-3.1v-1.7h-1.3v2.8l-2.7-1.5v-1.4h-.9v.1s-336.3-.3-339.5 0-5.7 1.3-5.7 4.8v49.4l-3 3h-90.8l-2.9-2.9v-31.5c.1-6.9-8.2-6.8-8.2-.5v29.3l-.8 3.2-2.2 2.2h-46l-2.5-2.5v-48c-.3-3.4-3-6.3-7.3-6.6-3.6.2-8.3 1.9-8.3 5.9v30.2l-.9.9h-7.8v-1.5H282v2.4h-2.4v-2.2H278v1.8h-2.2V461H274v1.9h-2V461h-2v1.7h-1.8v-1.5h-1.9v2.1h-2.1V462s-.6-1.4-1.5-1.5-.9 1.2-.9 1.2h-6.9v-32.4c0-1.4-.7-3.9-3.5-4h-74.9c-2.9.1-3.7 1.1-3.7 2.8v31.6l-1.1 1.2h-24.1v-1.2h-.9v2.3h-3.2v-2.3h-1.1v1.3h-2.5v-1h-.9v2h-3.1v-2h-.9v2h-2.7v-1.3c-.4-1.5-1.1 0-1.1 0v1.3h-3.1v-1s0-.8-1-.7c-1 .1-1 .7-1 .7H105l-.1-7.3H94.8V471c0 3.2-3.1 5.1-5.6 4.9h-5.7v61.8h-4V371.5l-1.7-.5-1.3.5-1.9-2.8H56.3s-.2-2.2-2.1-2.2c-1.8 0-2.1 2.2-2.1 2.2h-5.7v-17.9h5.7s.3 2.2 2.1 2.2 2.1-2.2 2.1-2.2h18.1l1.9-2.8 1.3.5 1.7-.5v-29.7h-21v-15h21.1v-8.1h-7.8v-53.4h7.8v-6.4H58.3v-15h21.1z" fill="#f6f6f6"/><path class="st1" d="M79.2 227.9H58.3m808.6 10.8h-58.5V175h58.5v63.7zm-58.6-8.5h-30.6v-4.6h30.6v4.6zm0-21h-30.6v-4.6h30.6v4.6zm0-21.1h-30.6v-4.6h30.6v4.6zm-602.6 53.5h21.9c1.9 0 3.4-1.5 3.4-3.4v-21.9c0-1.9-1.5-3.4-3.4-3.4h-21.9c-1.9 0-3.4 1.5-3.4 3.4v21.9c-.1 1.9 1.5 3.4 3.4 3.4zM164.3 226v-16.7h22V226h-22zm2.1-16.7v-7.6m6 7.6v-7.6m6 7.6v-7.6m6 7.6v-7.6m-18 32.1v-7.6m6 7.6v-7.6m6 7.6v-7.6m6 7.6v-7.6m-30.8 18.3V236m6.6 8.5V236m6.5 8.5V236m6.6 8.5V236m6.8 8.5V236m6.6 8.5V236m6.5 8.5V236m6.5 8.5V236m502.8-20.7h-8.1v-17.5h8.1v17.5zm0-2.9h-8.1m8.1-11.7h-8.1m19.5 14.6h-8.1v-17.5h8.1v17.5zm.1-2.9h-8.1m8.1-11.7h-8.1m17.1 25v-8.1h17.5v8.1H723zm2.8-.1v-8.1m11.8 8.1v-8.1M0 0"/><path class="st1" d="M79.4 220.4V52l-59.9.5v-5.9H85v154h5.4c2.2 0 4 .2 4.3 4.4 0 .5.1 4.3.1 10.7h10.1v-45.2h26s.7 1.1 1.8 1.1.6-2.5 2.2-2.4c1.6.1 2.2 1.8 2.2 1.8s.1-.9 1.6-.8c1.4.1 1.3 1.3 2.1 1.2s.7-1.1 2-1.1c1.3.1 1.2.9 1.9.9s.6-1.1 1.3-1.1c.7.1 2.1.9 2.5.9s-.2-2.2 1.7-2.1c1.9.1 1.3 2.7 2.3 2.5s.9-.8.9-.8h318.4s.6.4 2 .2c1.4-.1 1.5-2.4 2.6-2.4s.9 2.4 1.8 2.4c.9.1.7-2 1.8-2s.9 2.3 2 2.4c1.1.1.5-2.4 1.8-2.4 1.2 0 .9 2.6 2 2.6s.9-2 2-1.9c1.1 0-.3 2.3 1.5 2.1 1.8-.1 1-2.2 2.5-2.1 1.5 0 .1 2.5 1.9 2.3 1.8-.1 1.4-1.2 1.4-1.2h336.6c.8 0 .7 1.6 1.5 1.6s.9-2.6 2.6-2.4c1.7.2.7 2.4 1.6 2.5.8.1.5-1.8 1.9-1.6 1.3.2.7 1.5 1.7 1.4.9-.1 1.2-.9 2.2-.9 1 .1 1.3 1.3 2 1.3s.7-1.8 1.8-1.7c1 .1 1.1 1.3 1.8 1.3.7-.1.9-.6 1-2.1 1.3-1.3 2.4-.1 2.4.5s.4 1.8 1.3 1.8 1.1-1.8 1.1-1.8h11.7c.9 0 1.1.9 1.1 1.4v251.9c0 .4 0 1.6-1.3 1.6h-35.3l-1.1.1h-.6v2.8l-2.7-1.4v-1.5H825v1.6h-3v-1.6h-.8v1.6H818v-1.8h-.7v2h-3.1v-1.7h-1.3v2.8l-2.7-1.5v-1.4h-.9v.1s-336.3-.3-339.5 0-5.7 1.3-5.7 4.8v49.4l-3 3h-90.8l-2.9-2.9v-31.5c.1-6.9-8.2-6.8-8.2-.5v29.3l-.8 3.2-2.2 2.2h-46l-2.5-2.5v-48c-.3-3.4-3-6.3-7.3-6.6-3.6.2-8.3 1.9-8.3 5.9v30.2l-.9.9h-7.8v-1.5H282v2.4h-2.4v-2.2H278v1.8h-2.2V461H274v1.9h-2V461h-2v1.7h-1.8v-1.5h-1.9v2.1h-2.1V462s-.6-1.4-1.5-1.5-.9 1.2-.9 1.2h-6.9v-32.4c0-1.4-.7-3.9-3.5-4h-74.9c-2.9.1-3.7 1.1-3.7 2.8v31.6l-1.1 1.2h-24.1v-1.2h-.9v2.3h-3.2v-2.3h-1.1v1.3h-2.5v-1h-.9v2h-3.1v-2h-.9v2h-2.7v-1.3c-.4-1.5-1.1 0-1.1 0v1.3h-3.1v-1s0-.8-1-.7c-1 .1-1 .7-1 .7H105l-.1-7.3H94.8V471c0 3.2-3.1 5.1-5.6 4.9h-5.7v61.8h-4V371.5l-1.7-.5-1.3.5-1.9-2.8H56.3s-.2-2.2-2.1-2.2c-1.8 0-2.1 2.2-2.1 2.2h-5.7v-17.9h5.7s.3 2.2 2.1 2.2 2.1-2.2 2.1-2.2h18.1l1.9-2.8 1.3.5 1.7-.5v-29.7h-21v-15h21.1v-8.1h-7.8v-53.4h7.8v-6.4H58.3v-15h21.1zm0 15v-15"/><path class="st1" d="M169.6 174.5h11.3v5.1h-11.3v-5.1zm487.4 0h11.3v5.1H657v-5.1zm15.3 0h11.3v5.1h-11.3v-5.1z"/><text transform="translate(161.437 94.947)" class="st2 st3">LED</text><text transform="translate(151.837 116.547)" class="st2 st3">Block 1</text><text transform="translate(339.946 94.947)" class="st2 st3">LEDs</text><text transform="translate(332.946 116.547)" class="st2 st3">Block 2</text><text transform="translate(644.19 94.947)" class="st2 st3">LEDs</text><text transform="translate(638.19 116.547)" class="st2 st3">Block 3</text><path d="M175.3 127.2v49.9m181.1-49.9v49.9m306.3-49.9v49.9" fill="none" stroke="#000" stroke-miterlimit="10"/></svg>