<svg version="1.0" xmlns="http://www.w3.org/2000/svg" viewBox="0 0 493 286"><path fill="none" stroke="#1D1E1C" stroke-width=".227" stroke-miterlimit="10" d="M49.8 62.2h427.7M49.7 84.9h427.8M49.8 107.7h428M49.9 130.4h427.7M49.8 153.2h427.8M49.9 175.9h427.7M49.8 198.7h427.8M49.9 221.4h427.2M49.9 39.4h427.7M84.9 16.5v227.6m35.7-227.6v227.6m35.7-227.4v227.5M192 17.1v227.1M227.7 16v228.2m71.5-228.1v228.1m35.7-227.7v227.6m35.7-227.6v227.6m35.7-226.9V244M442 16.5v227.6M263.5 16.6v227.7"/><path fill="none" stroke="#1D1E1C" stroke-width=".709" stroke-miterlimit="10" d="M49.8 16.5h427.9v227.6H49.8z"/><text transform="matrix(1.0483 0 0 1 24.661 201.422)" fill="#1D1D1B" font-family="Helvetica,Arial,sans-serif" font-size="11.491">0.2</text><text transform="matrix(1.0483 0 0 1 24.617 157.455)" fill="#1D1D1B" font-family="Helvetica,Arial,sans-serif" font-size="11.491">0.4</text><text transform="matrix(1.0483 0 0 1 24.634 111.689)" fill="#1D1D1B" font-family="Helvetica,Arial,sans-serif" font-size="11.491">0.6</text><text transform="matrix(1.0483 0 0 1 24.488 65.26)" fill="#1D1D1B" font-family="Helvetica,Arial,sans-serif" font-size="11.491">0.8</text><text transform="matrix(1.0483 0 0 1 24.648 19.583)" fill="#1D1D1B" font-family="Helvetica,Arial,sans-serif" font-size="11.491">1.0</text><text transform="matrix(1.0483 0 0 1 39.83 259.843)" fill="#1D1D1B" font-family="Helvetica,Arial,sans-serif" font-size="11.491">400</text><text transform="matrix(1.0483 0 0 1 110.407 259.89)" fill="#1D1D1B" font-family="Helvetica,Arial,sans-serif" font-size="11.491">500</text><text transform="matrix(1.0483 0 0 1 181.981 259.817)" fill="#1D1D1B" font-family="Helvetica,Arial,sans-serif" font-size="11.491">600</text><text transform="matrix(1.0483 0 0 1 253.476 259.95)" fill="#1D1D1B" font-family="Helvetica,Arial,sans-serif" font-size="11.491">700</text><text transform="matrix(1.0483 0 0 1 324.996 259.907)" fill="#1D1D1B" font-family="Helvetica,Arial,sans-serif" font-size="11.491">800</text><text transform="matrix(1.0483 0 0 1 396.304 259.86)" fill="#1D1D1B" font-family="Helvetica,Arial,sans-serif" font-size="11.491">900</text><text transform="matrix(1.0483 0 0 1 463.666 259.98)" fill="#1D1D1B" font-family="Helvetica,Arial,sans-serif" font-size="11.491">1000</text><text transform="matrix(1.0483 0 0 1 26.005 246.948)" fill="#1D1D1B" font-family="Helvetica,Arial,sans-serif" font-size="11.491">0.0</text><text transform="matrix(0 -.9983 1 0 18.655 176.102)" font-family="Helvetica,Arial,sans-serif" font-size="10.902">Relative Response</text><text transform="matrix(1.0018 0 0 1 227.847 275.41)" font-family="Helvetica,Arial,sans-serif" font-size="10.883">Wavelength (nm)</text><path fill="none" stroke="#1D1D1B" stroke-miterlimit="10" d="M49.7 129s6.5-11.6 8.6-14.5c2.1-2.9 9.2-11.3 11.9-14.8C72.9 96.1 81 84.8 83 82.8c2.1-2 10.7-10.5 12.2-12.2 1.5-1.7 7.7-9.3 10.7-11.6 3-2.3 9.2-4.7 14-7 4.8-2.3 17.8-9.9 17.8-9.9 1-.7 3.5-3.3 5.2-4.3 1.7-1 6.2-3.1 7.9-3.8 1.7-.7 5.1-2.9 6.2-3.5 1.1-.6 3.7-1.4 5.6-2.4 1.9-1.1 9.1-6.1 10.6-6.8 1.5-.7 6.8-3 8.3-3.5 1.5-.5 7.4-1.2 8.5-1.2 1.1 0 5.1 1.1 7.3 1.1s3.6-.3 5.3.1c1.8.4 13.5 4.2 14.9 4.8 1.4.6 4.7 1.9 6.2 2.5 1.5.6 6.8 1.8 8.4 2.6 1.6.8 9.3 5.6 12 7.5 2.8 1.9 7.6 6.8 10.9 9.3 3.4 2.5 13.2 10.6 14.8 11.3 1.6.7 11.8 4.7 13.4 5.5 1.6.8 9 7.9 10.5 9.8 1.3 1.6 4 4.8 4.8 5.7.8.9 8.6 7.3 9.9 8.6 1.3 1.3 7.9 9.2 9 10.4 1.7 1.9 3.8 4.6 5 5.9 1.2 1.3 8.1 7.3 8.7 7.8.6.5 3.9 3.6 5.8 5.2s12.2 12.1 13.7 13.8c1.5 1.7 10 13 10.4 13.7.4.7 4.3 5.6 5.6 6.7 1.3 1.1 12 10.2 12.9 11.1.9.9 8.8 8.6 10.2 9.9 1.4 1.3 16.2 13.4 17.6 14.4 1.4 1 23.8 18 24.3 18.5s8.5 6.6 11.2 8.2c2.8 1.6 19.3 9.1 21.2 10 1.9 1 13.6 7.4 13.6 7.4"/></svg>