<svg version="1.0" xmlns="http://www.w3.org/2000/svg" viewBox="0 0 411 155.9"><text transform="translate(192 88.888)" font-family="Helvetica,Arial,sans-serif" font-size="14">Temperature measurement point</text><path fill="none" stroke="#000" stroke-miterlimit="10" d="M179.5 84.8H88.1"/><path fill="none" stroke="#010202" stroke-width=".8" stroke-linecap="round" stroke-linejoin="round" stroke-miterlimit="10" d="M95.4 9.7l.2.2M65.3 148.7l-.2-.2m36-138.6l.2-.2M59.6 148.5l-.2.2M95.8 10.1c.2 1.4 1.5 2.4 2.9 2.2 1.1-.2 2-1 2.2-2.2m-36 138.2c-.2-1.4-1.5-2.4-2.9-2.2-1.1.2-2 1-2.2 2.2m84.3-32.2h2.8m0 0v5.4m0 0h-2.8m0 0v-5.4M69.5 77.6V72m0 0h13.4m0 0v5.6m0 0H69.5M51 140.7c0-1.4-1.2-2.6-2.6-2.6-1.4 0-2.6 1.2-2.6 2.6 0 1.4 1.2 2.6 2.6 2.6 1.4 0 2.6-1.1 2.6-2.6h0zm9.4-5.2v2.8m0 0H55m0 0v-2.8m0 0h5.4M48.8 90.7v2.8m0 0h-5.4m0 0v-2.8m0 0h5.4M85 77.6V72m0 0h13.4m0 0v5.6m0 0H85m28.2 44.5h-2.9m0 0v-5.4m0 0h2.9m0 0v5.4M55 123.9h-2.8m0 0v-5.4m0 0H55m0 0v5.4m58.2-29.1h-2.9m0 0v-5.4m0 0h2.9m0 0v5.4m-4.4 12.3H106m0 0v-5.4m0 0h2.8m0 0v5.4m-58.2 16.8h-2.8m0 0v-5.4m0 0h2.8m0 0v5.4m99.7-25.8v2.8m0 0h-5.5m0 0v-2.8m0 0h5.5m0-4.4v2.9m0 0h-5.5m0 0v-2.9m0 0h5.5m-2.9-47.6v-2.8m0 0h5.4m0 0v2.8m0 0h-5.4m-32 71.5V91.3m0 0h26.2m0 0v26.3m0 0h-26.2m34.9-15.1v2.8m0 0h-5.5m0 0v-2.8m0 0h5.5m-41.5 19.6H106m0 0v-5.4m0 0h2.8m0 0v5.4m21.1-2.4v2.9m0 0h-5.4m0 0v-2.9m0 0h5.4m-77.7-10.3H55m0 0v5.5m0 0h-2.8m0 0v-5.5m49.4-17.7h2.8m0 0v5.4m0 0h-2.8m0 0v-5.4m-14.4 46.6v-2.8m0 0h5.4m0 0v2.8m0 0h-5.4M107 99.7v-2.9m0 0h5.4m0 0v2.9m0 0H107M99.4 91v42.3m0 0H57.2m0 0V91m0 0h42.2m10.9 10.7h2.9m0 0v5.4m0 0h-2.9m0 0v-5.4m28.9-55.6v-2.8m0 0h5.4m0 0v2.8m0 0h-5.4M38.1 136.9c0-4.3-3.5-7.7-7.7-7.7s-7.7 3.5-7.7 7.7c0 4.3 3.5 7.7 7.7 7.7s7.7-3.5 7.7-7.7h0zm0-115.4c0-4.3-3.5-7.7-7.7-7.7s-7.7 3.5-7.7 7.7c0 4.3 3.5 7.7 7.7 7.7s7.7-3.4 7.7-7.7h0zm115.4 0c0-4.3-3.5-7.7-7.7-7.7s-7.7 3.5-7.7 7.7c0 4.3 3.5 7.7 7.7 7.7s7.7-3.4 7.7-7.7h0zm0 115.4c0-4.3-3.5-7.7-7.7-7.7s-7.7 3.5-7.7 7.7c0 4.3 3.5 7.7 7.7 7.7s7.7-3.5 7.7-7.7h0zm-88.4 11.6l-.2-.2m85 .4H65.3m84.6 0c4.3 0 7.7-3.5 7.7-7.7m0-123.6V141m0-123.6c0-4.3-3.5-7.7-7.7-7.7m0 0h-48.6m-.4.4l.2-.2m-5.5 0l.2.2m-69.5-.4h69.1m-69.1 0c-4.3 0-7.7 3.5-7.7 7.7m0 123.6V17.4m0 123.6c0 4.3 3.5 7.7 7.7 7.7m0 0h33.1m.4-.4l-.2.2m56.4-25.9v-2.9m5.4 2.9H116m5.4-2.9v2.9m-5.4-2.9h5.4m30.1-6.6h-2.8m2.8-5.5v5.5m-2.8-5.5h2.8m-2.8 5.5v-5.5m-24.8-29.3v-7.5m11.3 7.5h-11.3m11.3-7.5v7.5m-11.3-7.5h11.3m-81.1 6.8V72m13.4 5.6H54.1M67.5 72v5.6M54.1 72h13.4m82.8 17.4v2.8m-5.5-2.8h5.5m-5.5 2.8v-2.8m5.5 2.8h-5.5M55 96.8h-2.8m2.8-5.4v5.4m-2.8-5.4H55m-2.8 5.4v-5.4m100-31.3h-13.4m13.4-10.8v10.8m-13.4-10.8h13.4m-13.4 10.8V49.3m-64.2 90.5v2.9m-5.5-2.9h5.5m-5.5 2.9v-2.9m5.5 2.9h-5.5m39.7-47.9H106m2.8-5.4v5.4m-2.8-5.4h2.8m-2.8 5.4v-5.4M48.8 95v2.9M43.4 95h5.4m-5.4 2.9V95m5.4 2.9h-5.4m54.1 40.4v-2.8m5.4 2.8h-5.4m5.4-2.8v2.8m-5.4-2.8h5.4m21-47.9v-7.5m11.3 7.5h-11.3m11.3-7.5v7.5m-11.3-7.5h11.3m11.7 33h-2.8m2.8-5.5v5.5m-2.8-5.5h2.8m-2.8 5.5v-5.5M55 106.1h-2.8m2.8-5.4v5.4m-2.8-5.4H55m-2.8 5.4v-5.4m22.4 34.8v2.8m-5.5-2.8h5.5m-5.5 2.8v-2.8m5.5 2.8h-5.5m31.3-60.7V72m13.4 5.6h-13.4m13.4-5.6v5.6M100.4 72h13.4m-30.2 63.5v2.8m-5.4-2.8h5.4m-5.4 2.8v-2.8m5.4 2.8h-5.4m-17.8 1.5v2.9m-5.4-2.9h5.4m-5.4 2.9v-2.9m5.4 2.9H55m49.4-37.1h-2.8m2.8-5.4v5.4m-2.8-5.4h2.8m-2.8 5.4v-5.4m31.4 22.4v-2.9m5.4 2.9H133m5.4-2.9v2.9m-5.4-2.9h5.4M150 63.9v4.9m-9-4.9h9m-9 4.9v-4.9m9 4.9h-9m7.4 47.1h3.4m-3.4 5.9v-5.9m3.4 5.9h-3.4m3.4-5.9v5.9M55 132.9h-2.8m2.8-5.4v5.4m-2.8-5.4H55m-2.8 5.4v-5.4m52.2-5.4h-2.8m2.8-5.4v5.4m-2.8-5.4h2.8m-2.8 5.4v-5.4M76.2 63.9v1m0-1v-1.2m0-.4v.4m.6-.4v.4m0 1.2v-1.2m0 1.2v1m0 0h-.6m51.4-2.6H48.5m18 2.6h-.6m0-1v1m.6-1v1m65.1-11H44.5m81.9-2.3h-3.3m-.6 0h-1.9m-.7 0H118m-.6 0h-2m-.6 0h-2m-.6 0h-1.9m-.7 0h-1.9m-.6 0h-2m-.6 0h-2m-.6 0H100m-.7 0h-1.9m-.6 0h-2m-.6 0h-2m-.6 0h-1.9m-.7 0h-1.9m-.6 0h-2m-.6 0h-2m-.6 0h-1.9m-.6 0h-2m-.6 0h-2m-.6 0h-2m-.6 0h-1.9m-.6 0h-2m-.6 0h-2m-.6 0h-2m-.6 0h-1.9m-2.6 0h2m-4.6 0h2m-5.9 0H53m73.4 0v-.9m0 0h4.9m-8.2-.7v.7m0 0v3.2m0-3.9h-.6m0 0v.7m0 0h.6m-.6 0v3.2M53 50h.6m2 0h.6m2 0h.6m2.5 0h-.6m3.2 0h-.6m3.2 0h-.6m3.2 0h-.6m3.1 0H71m3.2 0h-.6m3.2 0h-.6m3.2 0h-.6m3.1 0h-.6m3.2 0h-.6m3.2 0h-.6m3.2 0H89m3.2 0h-.6m3.2 0h-.6m3.2 0h-.6m3.2 0h-.7m3.2 0h-.6m3.2 0h-.6m3.2 0h-.6m3.2 0h-.7m3.2 0h-.6m3.2 0h-.6m3.2 0h-.6m3.2 0h-.7m11.4.7v-9.8m-2 0h2m-2 5.7H46.9m0-5.7h-2.1m0 9.8v-9.8m4.9 9.8h-4.9m4.9.9v-.9m3.9-.7v.7m0 3.2v-3.2m0 0H53m0 0v3.2m0-3.9v.7m2.6 0v3.2m0-3.9v.7m.6 0h-.6m.6-.7v.7m0 0v3.2m2-3.2v3.2m0-3.9v.7m.6 0h-.6m.6-.7v.7m0 0v3.2m4.5-3.2v3.2m0-3.9v.7m0 0h.6m0-.7v.7m0 0v3.2m2 0v-3.2m0-.7v.7m.6-.7v.7m0 3.2v-3.2m-.6 0h.6m2 0v3.2m0-3.9v.7m0 0h.6m0-.7v.7m0 0v3.2m1.9-3.2v3.2m0-3.9v.7m0 0h.6m0-.7v.7m0 0v3.2m2 0v-3.2m0-.7v.7m.6-.7v.7m0 3.2v-3.2m-.6 0h.6m2 0v3.2m0-3.9v.7m0 0h.6m0-.7v.7m0 0v3.2m2-3.2v3.2m0-3.9v.7m0 0h.6m0-.7v.7m0 0v3.2m1.9-3.2v3.2m0-3.9v.7m0 0h.6m0-.7v.7m0 0v3.2m2-3.2v3.2m0-3.9v.7m0 0h.6m0-.7v.7m0 0v3.2m2-3.2v3.2m0-3.9v.7m0 0h.6m0-.7v.7m0 0v3.2m1.9-3.2v3.2m0-3.9v.7m0 0h.7m0-.7v.7m0 0v3.2m1.9 0v-3.2m0-.7v.7m.6-.7v.7m0 3.2v-3.2m-.6 0h.6m2 0v3.2m0-3.9v.7m0 0h.6m0-.7v.7m0 0v3.2m2-3.2v3.2m0-3.9v.7m0 0h.6m0-.7v.7m0 0v3.2m1.9 0v-3.2m0-.7v.7m.7-.7v.7m0 3.2v-3.2m-.7 0h.7m1.9 0v3.2m0-3.9v.7m0 0h.6m0-.7v.7m0 0v3.2m2-3.2v3.2m0-3.9v.7m0 0h.6m0-.7v.7m0 0v3.2m2 0v-3.2m0-.7v.7m.6-.7v.7m0 3.2v-3.2m-.6 0h.6m1.9 0v3.2m0-3.9v.7m0 0h.7m0-.7v.7m0 0v3.2m1.9-3.2v3.2m0-3.9v.7m0 0h.6m0-.7v.7m0 0v3.2m2-3.2v3.2m0-3.9v.7m0 0h.6m0-.7v.7m0 0v3.2m2-3.2v3.2m0-3.9v.7m0 0h.6m0-.7v.7m0 0v3.2m1.9-3.2v3.2m0-3.9v.7m0 0h.7m0-.7v.7m0 0v3.2M46.9 34.3h82.4m-82.4 1v-1m82.4 1v-1M46.9 44.7v-9.4m82.4 9.4H46.9m82.4 0v-9.4m0 11.3v-1.9m-82.4 1.9v-1.9M61.3 50v.7m0 0v3.2m-.6-3.2v3.2m0-3.9v.7m0 0h.6m64.3 1.1v2.1m1-3.2h2.1m-3.1 1.1l.2-.2m.6-.7l.2-.2m7.8-14.4h-4.8m-.3 0h.3m-.9 14.4v3.2m-78.1-2.1v2.1m-4-14.5v-3.1M53 63.9v1m0-2.2v1.2m0-1.6v.4M41.7 36.3v22.4m7.8-8h-2m-3-11.3v14.5m6.1-2.1l-.2-.2m-.7-.7l-.2-.2m78.1 11.6v-3.6m-80.1-8v3.2m86.9 4.8h-6.8m2-19.3v-3.1m2 3.1h-2m2 0v14.5M118 32.7v.3m0 0v.2m0 1.1v-1.1m-.6 1.1v-1.1m0-.2v.2m0-.5v.3m0-.3h.6m-12.9 0v.3m0 0v.2m0 1.1v-1.1m-.6 1.1v-1.1m0-.2v.2m0-.5v.3m0-.3h.6m-12.9 0v.3m0 0v.2m0 1.1v-1.1m-.6 1.1v-1.1m0-.2v.2m0-.5v.3m0-.3h.6m-12.8 0v.3m0 0v.2m0 1.1v-1.1m-.6 1.1v-1.1m0-.2v.2m0-.5v.3m0-.3h.6m-12.9 0v.3m0 0v.2m0 1.1v-1.1m-.6 1.1v-1.1m0-.2v.2m0-.5v.3m0-.3h.6m63 1.6v2m-.2-2h.2m4.9 2v22.4m-68.5 3.6v.4m.6-.4v.4m-12.9-.4v.4m0 1.2v-1.2m0 1.2v1m-.6 0h.6m10.3-2.6v.4m0 1.2v-1.2m0 1.2v1m-.6-1v-1.2m0 1.2v1m0-2.6v.4m.6 2.2h-.6m5.8-2.6v.4m0 1.2v-1.2m0 1.2v1m-.6-1v-1.2m0 1.2v1m0-2.6v.4m.6 2.2h-.6m-7.2-2.6v.4m0 1.2v-1.2m0 1.2v1m-.6-1v-1.2m0 1.2v1m0-2.6v.4m.6 2.2h-.6m-5.1-1v1m0-1v-1.2m0-.4v.4m.6 1.2v-1.2m-.6 2.2h.6m0-1v1m0-2.6v.4m2 1.2v1m0-1v-1.2m0-.4v.4m.6 1.2v-1.2m-.6 2.2h.6m0-1v1m0-2.6v.4m64.3-.4v.4m0 1.2v-1.2m0 1.2v1m-.6-1v-1.2m0 1.2v1m0-2.6v.4m.6 2.2h-.6m-1.9-2.6v.4m0 1.2v-1.2m0 1.2v1m-.7-1v-1.2m0 1.2v1m0-2.6v.4m.7 2.2h-.7m-1.9-2.6v.4m0 1.2v-1.2m0 1.2v1m-.6-1v-1.2m0 1.2v1m0-2.6v.4m.6 2.2h-.6m-2-2.6v.4m0 1.2v-1.2m0 1.2v1m-.6-1v-1.2m0 1.2v1m0-2.6v.4m.6 2.2h-.6m-2-2.6v.4m0 1.2v-1.2m0 1.2v1m-.6-1v-1.2m0 1.2v1m0-2.6v.4m.6 2.2h-.6m-2.6-1v1m0-1v-1.2m0-.4v.4m.7 1.2v-1.2m0 2.2h-.7m.7-1v1m0-2.6v.4m-2.6-.4v.4m0 1.2v-1.2m0 1.2v1m-.6-1v-1.2m0 1.2v1m0-2.6v.4m.6 2.2h-.6m-2-2.6v.4m0 1.2v-1.2m0 1.2v1m-.6-1v-1.2m0 1.2v1m0-2.6v.4m.6 2.2h-.6m-2-2.6v.4m0 1.2v-1.2m0 1.2v1m-.6-1v-1.2m0 1.2v1m0-2.6v.4m.6 2.2h-.6m-1.9-2.6v.4m0 1.2v-1.2m0 1.2v1m-.7-1v-1.2m0 1.2v1m0-2.6v.4m.7 2.2h-.7m-1.9-2.6v.4m0 1.2v-1.2m0 1.2v1m-.6-1v-1.2m0 1.2v1m0-2.6v.4m.6 2.2h-.6m-2-2.6v.4m0 1.2v-1.2m0 1.2v1m-.6-1v-1.2m0 1.2v1m0-2.6v.4m.6 2.2h-.6m-2.6-1v1m0-1v-1.2m0-.4v.4m.6 1.2v-1.2m0 2.2h-.6m.6-1v1m0-2.6v.4m-2.5-.4v.4m0 1.2v-1.2m0 1.2v1m-.7-1v-1.2m0 1.2v1m0-2.6v.4m.7 2.2H89m-1.9-2.6v.4m0 1.2v-1.2m0 1.2v1m-.6-1v-1.2m0 1.2v1m0-2.6v.4m.6 2.2h-.6m-2-2.6v.4m0 1.2v-1.2m0 1.2v1m-.6-1v-1.2m0 1.2v1m0-2.6v.4m.6 2.2h-.6m-2-2.6v.4m0 1.2v-1.2m0 1.2v1m-.6-1v-1.2m0 1.2v1m0-2.6v.4m.6 2.2h-.6m-2.5-1v1m0-1v-1.2m0-.4v.4m.6 1.2v-1.2m0 2.2h-.6m.6-1v1m0-2.6v.4m-5.2-.4v.4m0 1.2v-1.2m0 1.2v1m-.6-1v-1.2m0 1.2v1m0-2.6v.4m.6 2.2h-.6m-2-2.6v.4m0 1.2v-1.2m0 1.2v1m-.6-1v-1.2m0 1.2v1m0-2.6v.4m.6 2.2H71m-4.5-1v-1.2m-.6 1.2v-1.2m-19-26.4h-.3m-2.1 3.1h2.1m1.9 22.9v-3.6m-6.8-22.4h4.9m-4.9 22.4h6.8m-1.9-24.4v2m.3-2h-.3m.8 75.1h2.8m0 0v5.5m0 0h-2.8m0 0v-5.5m-6.7 27.5H20.1m10.3-10.3v20.6M40.7 21.5H20.1m10.3-10.3v20.6M156 21.5h-20.6m10.3-10.3v20.6M156 136.9h-20.6m10.3-10.3v20.6M30.4 21.5H20.1m10.3 115.4H20.1M30.4 21.5h0m0 115.4h0"/></svg>