<?xml version="1.0" encoding="utf-8"?>
<!-- Generator: Adobe Illustrator 23.1.0, SVG Export Plug-In . SVG Version: 6.00 Build 0)  -->
<svg version="1.1" id="Layer_1" xmlns="http://www.w3.org/2000/svg" xmlns:xlink="http://www.w3.org/1999/xlink" x="0px" y="0px"
	 viewBox="0 0 581.1 411" style="enable-background:new 0 0 581.1 411;" xml:space="preserve">
<style type="text/css">
	.st0{fill:#F6F6F6;}
	.st1{fill:none;stroke:#000000;stroke-width:0.425;}
	.st2{fill:none;stroke:#000000;stroke-width:0.85;stroke-linecap:round;stroke-linejoin:round;}
	.st3{fill:none;stroke:#000000;stroke-width:0.425;stroke-linecap:round;stroke-linejoin:round;}
	.st4{fill:none;stroke:#000000;stroke-width:0.283;stroke-linecap:round;stroke-linejoin:round;}
	.st5{fill:none;stroke:#000000;stroke-width:0.283;}
	.st6{fill:none;stroke:#000000;stroke-width:0.85;}
	.st7{fill:none;stroke:#000000;stroke-width:0.283;stroke-miterlimit:10;}
	.st8{fill:none;stroke:#000000;stroke-width:0.283;stroke-miterlimit:10;stroke-dasharray:1.2609,5.0436;}
	.st9{fill:none;stroke:#000000;stroke-width:0.283;stroke-miterlimit:10;stroke-dasharray:12.609,5.0436,1.2609,5.0436;}
	.st10{fill:none;stroke:#000000;stroke-width:0.283;stroke-miterlimit:10;stroke-dasharray:1.4495,5.7979;}
	.st11{fill:none;stroke:#000000;stroke-width:0.283;stroke-miterlimit:10;stroke-dasharray:14.4949,5.7979,1.4495,5.7979;}
	.st12{fill:none;stroke:#000000;stroke-width:0.283;stroke-miterlimit:10;stroke-dasharray:0.4588,1.8352;}
	.st13{fill:none;stroke:#000000;stroke-width:0.283;stroke-linecap:round;stroke-linejoin:round;stroke-miterlimit:10;}
	.st14{fill:#040406;}
	.st15{font-family:'ArialMT';}
	.st16{font-size:15px;}
	.st17{font-size:16px;}
	.st18{fill:#1A1A18;}
	.st19{fill:#F5F5F5;}
	.st20{fill:none;stroke:#1A1A18;stroke-width:0.85;stroke-miterlimit:10;}
	.st21{fill:none;stroke:#1A1A18;stroke-width:0.4252;stroke-linecap:round;stroke-linejoin:round;}
	.st22{fill:none;stroke:#1A1A18;stroke-width:0.425;stroke-miterlimit:10;}
	.st23{fill:none;stroke:#000000;stroke-width:0.2835;stroke-linecap:round;stroke-linejoin:round;}
	.st24{fill:none;stroke:#000000;stroke-width:0.2835;stroke-linecap:round;stroke-linejoin:round;stroke-miterlimit:10;}
	.st25{fill:#040306;}
</style>
<path class="st0" d="M283.7,71.9h1c0.4,0,3.8-3.9,3.8-4.2V60c0-0.4-3.5-4.2-3.8-4.2h-1v-4H41v4h-1c-0.4,0-3.8,3.9-3.8,4.2v7.6
	c0,0.4,3.5,4.2,3.8,4.2h1v129.8h-1c-0.4,0-3.8,3.9-3.8,4.2v7.6c0,0.4,3.5,4.2,3.8,4.2h1v4h242.7v-4h1c0.4,0,3.8-3.9,3.8-4.2v-7.6
	c0-0.4-3.5-4.2-3.8-4.2h-1V71.9z"/>
<path class="st1" d="M166,102.7c0,2-1.6,3.6-3.6,3.6s-3.6-1.6-3.6-3.6s1.6-3.6,3.6-3.6S166,100.7,166,102.7z"/>
<path class="st2" d="M283.7,71.9h1c0.4,0,3.8-3.9,3.8-4.2V60c0-0.4-3.5-4.2-3.8-4.2h-1v-4H41v4h-1c-0.4,0-3.8,3.9-3.8,4.2v7.6
	c0,0.4,3.5,4.2,3.8,4.2h1v129.8h-1c-0.4,0-3.8,3.9-3.8,4.2v7.6c0,0.4,3.5,4.2,3.8,4.2h1v4h242.7v-4h1c0.4,0,3.8-3.9,3.8-4.2v-7.6
	c0-0.4-3.5-4.2-3.8-4.2h-1V71.9z"/>
<circle class="st1" cx="162.4" cy="170.8" r="3.6"/>
<path class="st3" d="M43.9,221.7V51.6 M280.9,221.7V51.6 M43.9,54.6h237 M276.6,63.1c0-2.2,1.4-5,4.2-5h0.1h-237
	c2.8,0,4.2,2.8,4.2,5 M41,71.9V55.8 M283.7,71.9V55.8 M43.9,218.9h237 M43.9,159.4h237 M43.9,182.1h237 M43.9,91.3h237 M43.9,114
	h237 M276.6,210.4c0,2.2,1.4,5,4.2,5h0.1h-237c2.8,0,4.2-2.8,4.2-5 M41,201.6v16.2 M283.7,201.6v16.2"/>
<path class="st0" d="M283.8,381.6v-80.8c0-2.1-1.1-4-2.9-5l0.1-3.2h-5v-7.7h-6.4c0,0-4.8-4.9-5.7-5.8c-0.6-0.6-1.5-0.6-1.5-0.6h-6.8
	v-3.7h-4.7c-2.9,0-3.2,2.5-3.5,3.7c-1.1,0-1.9,1.1-1.9,1.1l-3.7,6.6v6.5H86.4v-6.5l-3.7-6.6c0,0-0.7-1.1-1.9-1.1
	c-0.3-1.2-0.6-3.7-3.5-3.7h-4.7v3.7h-6.8c0,0-0.9,0-1.5,0.6c-0.9,0.9-11.4,11.3-11.4,11.3s-1.1,1.2-1.2,2.1v0.2H44v3.2
	c-1.7,1-2.9,2.9-2.9,5.1v80.8h-1l-3.4,3.4l-0.4,0.9v7.5l0.4,0.9l3.4,3.4h1v2.8h242.7v-2.8h1l3.4-3.4l0.4-0.9v-7.5l-0.4-0.9l-3.4-3.4
	h-1V381.6L283.8,381.6z"/>
<path class="st4" d="M256,292.5v-7.7h20v7.5 M247.4,278.2h8.2 M78.1,283.8c-0.9,0.9-3.5,3.3-3.5,3.3 M65.9,278.2l8.8,8.8
	 M72.6,278.2l5.5,5.5 M80.8,278.2h-8.1"/>
<circle class="st4" cx="57" cy="290.9" r="1.6"/>
<circle class="st4" cx="82.1" cy="287.1" r="1.6"/>
<circle class="st4" cx="270.9" cy="290.9" r="1.6"/>
<path class="st4" d="M247.4,287.1c0,0.9-0.7,1.6-1.6,1.6c-0.9,0-1.6-0.7-1.6-1.6s0.7-1.6,1.6-1.6
	C246.7,285.5,247.4,286.2,247.4,287.1z"/>
<path class="st5" d="M241.9,292.5H276 M86.4,292.5H51.8 M41.1,381.6v16.3 M44,295.7v105 M283.8,381.6v16.3 M280.9,295.7v105
	 M44,295.7h236.9"/>
<path class="st6" d="M283.8,381.6v-80.8c0-2.1-1.1-4-2.9-5l0.1-3.2h-5v-7.7h-6.4l0,0c0,0-4.8-4.9-5.7-5.8c-0.6-0.6-1.5-0.6-1.5-0.6
	h-6.8v-3.7h-4.7c-2.9,0-3.2,2.5-3.5,3.7c-1.1,0-1.9,1.1-1.9,1.1l-3.7,6.6v6.5H86.4v-6.5l-3.7-6.6c0,0-0.7-1.1-1.9-1.1
	c-0.3-1.2-0.6-3.7-3.5-3.7h-4.7v3.7h-6.8c0,0-0.9,0-1.5,0.6c-0.9,0.9-11.4,11.3-11.4,11.3s-1.1,1.2-1.2,2.1v0.2H44v3.2
	c-1.7,1-2.9,2.9-2.9,5.1v80.8h-1l-3.4,3.4l-0.4,0.9v7.5l0.4,0.9l3.4,3.4h1v2.8h242.7v-2.8h1l3.4-3.4l0.4-0.9v-7.5l-0.4-0.9l-3.4-3.4
	h-1V381.6L283.8,381.6L283.8,381.6z"/>
<path class="st5" d="M44.3,305.2h236.6 M44.3,317.4h236.6 M44.3,340.3h236.6 M44.3,355.3h236.6 M44.3,378.8h236.6"/>
<path class="st7" d="M162.4,225.3v-7"/>
<path class="st8" d="M162.4,213.2v-3.8"/>
<path class="st9" d="M162.4,206.9v-93.3"/>
<path class="st7" d="M162.4,111.1V104 M288.6,136.7h-7.1"/>
<path class="st10" d="M275.7,136.7h-4.3"/>
<path class="st11" d="M268.5,136.7H51"/>
<path class="st7" d="M48.1,136.7h-7 M172.1,170.8h-7"/>
<path class="st12" d="M163.2,170.8h-1.3"/>
<path class="st7" d="M160.9,170.8h-7.1 M170.3,102.7h-7.1"/>
<path class="st12" d="M161.4,102.7H160"/>
<path class="st7" d="M159.1,102.7H152"/>
<path class="st4" d="M152.5,29.9H51.4"/>
<path d="M150.3,26.6l12.2,3.3l-12.2,3.3V26.6z M53.6,26.6l-12.3,3.3l12.3,3.3V26.6z"/>
<path class="st13" d="M41.3,26.8v27.1 M162.5,26.8v72.3"/>
<path class="st4" d="M314.9,59.7v152.4"/>
<path d="M312,61.7l2.9-10.8l2.9,10.8H312z M312,210.2l2.9,10.7l2.9-10.7H312z"/>
<path class="st13" d="M317.4,51h-34.1 M317.4,221h-34.1"/>
<path class="st4" d="M22.5,200.6v-19.7"/>
<path d="M25.8,183.1l-3.3-12.3l-3.3,12.3C19.2,183.1,25.8,183.1,25.8,183.1z"/>
<path class="st4" d="M22.5,73v19.8"/>
<path d="M19.2,90.5l3.3,12.3l3.3-12.3C25.8,90.5,19.2,90.5,19.2,90.5z"/>
<path class="st13" d="M20,170.8h142.3 M20,102.8h142.3"/>
<path class="st4" d="M51.2,251h222.4"/>
<path d="M53.4,254.3L41.1,251l12.3-3.3C53.4,247.7,53.4,254.3,53.4,254.3z M271.4,254.3l12.3-3.3l-12.3-3.3V254.3z"/>
<path class="st13" d="M41.2,221.5v33.4 M283.8,221.5v33.4 M41.1,136.8H20 M22.5,170.8v-68"/>
<path class="st7" d="M169.8,95.6l62.9-65.7h164"/>
<path d="M173.7,96.2l-10.9,6.6l6.2-11.1L173.7,96.2z"/>
<path class="st14" d="M22.5,135.4c0.9,0,1.6,0.7,1.6,1.6c0,0.9-0.7,1.6-1.6,1.6s-1.6-0.7-1.6-1.6C20.9,136.1,21.6,135.4,22.5,135.4z
	"/>
<text transform="matrix(1 0 0 1 87.842 20.316)" class="st14 st15 st16">42.5</text>
<text transform="matrix(6.123234e-17 -1 1 6.123234e-17 309.869 144.3447)" class="st14 st15 st16">60</text>
<text transform="matrix(6.123234e-17 -1 1 6.123234e-17 17.145 164.2051)" class="st14 st15 st16">12</text>
<text transform="matrix(6.123234e-17 -1 1 6.123234e-17 17.146 126.8857)" class="st14 st15 st16">12</text>
<text transform="matrix(1 0 0 1 154.19 244.977)" class="st14 st15 st16">85</text>
<text transform="matrix(1 0 0 1 292.29 20.316)" class="st14 st15 st17">2 x M3</text>
<text transform="matrix(1 0 0 1 437.86 378.821)" class="st18 st15 st16">Not to scale</text>
<text transform="matrix(1 0 0 1 437.86 396.821)" class="st18 st15 st16">Dimensions in mm</text>
<g>
	<path class="st19" d="M533.5,119.2v-16h-1.9v-9h-7.9v9h-2.4v-9h-7.9v9h-2.4v-9h-7.9v9h-2.4v-9H493v9h-2.4v-9h-7.9v9h-2.4v-9h-7.9v9
		h-2.4v-9h-7.9v9h-2.4v-9H452v9h-2.4v-9h-7.9v9h-2.4v-9h-7.9v9h-2.4v-9h-7.9v9h-2.4v-9h-7.9v9h-6.8v16.1l-13.9,0v5.5h-0.6v-6.5
		c0-0.3-0.3-0.6-0.7-0.6h-2.4c-0.4,0-0.7,0.3-0.7,0.6v9.2l0,0c0,0.3-0.1,0.5-0.3,0.6l-2,1c-0.2,0.1-0.4,0.4-0.4,0.7v11.6
		c0,0.2,0.1,0.4,0.3,0.6l2.1,1.1c0.2,0.1,0.4,0.4,0.4,0.6c0,0.3-0.1,0.5-0.3,0.6l-2,1c-0.2,0.1-0.4,0.4-0.4,0.7
		c0,0.2,0.1,0.4,0.3,0.6l2.1,1c0.2,0.1,0.4,0.4,0.4,0.6c0,0.3-0.1,0.5-0.3,0.6l-2,1c-0.2,0.1-0.4,0.4-0.4,0.7c0,0.2,0.1,0.4,0.3,0.6
		l2.1,1.1c0.2,0.1,0.4,0.4,0.4,0.6c0,0.3-0.1,0.5-0.3,0.6l-2,1c-0.2,0.1-0.4,0.4-0.4,0.7c0,0.2,0.1,0.4,0.3,0.6l2.1,1.1
		c0.2,0.1,0.4,0.4,0.4,0.6c0,0.3-0.1,0.5-0.3,0.6l-2,1c-0.2,0.1-0.4,0.4-0.4,0.7c0,0.2,0.1,0.4,0.3,0.6l2.1,1.1
		c0.2,0.1,0.4,0.4,0.4,0.6c0,0.3-0.1,0.5-0.3,0.6l-2,1c-0.2,0.1-0.4,0.4-0.4,0.7v13.5c0,0.2,0.1,0.4,0.3,0.6l2.1,1.1
		c0.2,0.1,0.4,0.4,0.4,0.6c0,0.3-0.1,0.5-0.3,0.6l-2,1c-0.2,0.1-0.4,0.4-0.4,0.7c0,0.2,0.1,0.4,0.3,0.6l2.1,1
		c0.2,0.1,0.4,0.4,0.4,0.6c0,0.3-0.1,0.5-0.3,0.6l-2,1c-0.2,0.1-0.4,0.4-0.4,0.7c0,0.2,0.1,0.4,0.3,0.6l2.1,1.1
		c0.2,0.1,0.4,0.4,0.4,0.6c0,0.3-0.1,0.5-0.3,0.6l-2,1c-0.2,0.1-0.4,0.4-0.4,0.7c0,0.2,0.1,0.4,0.3,0.6l2.1,1.1
		c0.2,0.1,0.4,0.4,0.4,0.6c0,0.3-0.1,0.5-0.3,0.6l-2,1c-0.2,0.1-0.4,0.4-0.4,0.7c0,0.2,0.1,0.4,0.3,0.6l2.1,1.1
		c0.2,0.1,0.4,0.4,0.4,0.6c0,0.3-0.1,0.5-0.3,0.6l-2,1c-0.2,0.1-0.4,0.4-0.4,0.7c0,0.2,0.1,0.4,0.3,0.6l2.1,1
		c0.2,0.1,0.4,0.4,0.4,0.6l0,15.1c0,1.7,1.4,3,3.1,3h158.2c1.7,0,3.1-1.4,3.1-3l0-15.1c0-0.3,0.1-0.5,0.4-0.6l2.1-1
		c0.2-0.1,0.3-0.3,0.3-0.6c0-0.3-0.2-0.5-0.4-0.7l-2-1c-0.2-0.1-0.3-0.3-0.3-0.6c0-0.3,0.1-0.5,0.4-0.6l2.1-1.1
		c0.2-0.1,0.3-0.3,0.3-0.6c0-0.3-0.2-0.5-0.4-0.7l-2-1c-0.2-0.1-0.3-0.3-0.3-0.6c0-0.3,0.1-0.5,0.4-0.6l2.1-1.1
		c0.2-0.1,0.3-0.3,0.3-0.6c0-0.3-0.2-0.5-0.4-0.7l-2-1c-0.2-0.1-0.3-0.3-0.3-0.6c0-0.3,0.1-0.5,0.4-0.6l2.1-1.1
		c0.2-0.1,0.3-0.3,0.3-0.6c0-0.3-0.2-0.5-0.4-0.7l-2-1c-0.2-0.1-0.3-0.3-0.3-0.6c0-0.3,0.1-0.5,0.4-0.6l2.1-1
		c0.2-0.1,0.3-0.3,0.3-0.6c0-0.3-0.2-0.5-0.4-0.7l-2-1c-0.2-0.1-0.3-0.3-0.3-0.6c0-0.3,0.1-0.5,0.4-0.6l2.1-1.1
		c0.2-0.1,0.3-0.3,0.3-0.6v-13.5c0-0.3-0.2-0.5-0.4-0.7l-2-1c-0.2-0.1-0.3-0.3-0.3-0.6c0-0.3,0.1-0.5,0.4-0.6l2.1-1.1
		c0.2-0.1,0.3-0.3,0.3-0.6c0-0.3-0.2-0.5-0.4-0.7l-2-1c-0.2-0.1-0.3-0.3-0.3-0.6c0-0.3,0.1-0.5,0.4-0.6l2.1-1.1
		c0.2-0.1,0.3-0.3,0.3-0.6c0-0.3-0.2-0.5-0.4-0.7l-2-1c-0.2-0.1-0.3-0.3-0.3-0.6c0-0.3,0.1-0.5,0.4-0.6l2.1-1.1
		c0.2-0.1,0.3-0.3,0.3-0.6c0-0.3-0.2-0.5-0.4-0.7l-2-1c-0.2-0.1-0.3-0.3-0.3-0.6c0-0.3,0.1-0.5,0.4-0.6l2.1-1
		c0.2-0.1,0.3-0.3,0.3-0.6c0-0.3-0.2-0.5-0.4-0.7l-2-1c-0.2-0.1-0.3-0.3-0.3-0.6c0-0.3,0.1-0.5,0.4-0.6l2.1-1.1
		c0.2-0.1,0.3-0.3,0.3-0.6v-11.6c0-0.3-0.2-0.5-0.4-0.7l-2-1c-0.2-0.1-0.4-0.4-0.4-0.6v-9.2c0-0.3-0.3-0.6-0.7-0.6h-2.4
		c-0.4,0-0.7,0.3-0.7,0.6v6.5h-0.6v-5.5H533.5z"/>
	<path class="st20" d="M533.5,119.2v-16h-1.9v-9h-7.9v9h-2.4v-9h-7.9v9h-2.4v-9h-7.9v9h-2.4v-9H493v9h-2.4v-9h-7.9v9h-2.4v-9h-7.9v9
		h-2.4v-9h-7.9v9h-2.4v-9H452v9h-2.4v-9h-7.9v9h-2.4v-9h-7.9v9h-2.4v-9h-7.9v9h-2.4v-9h-7.9v9h-6.8v16.1l-13.9,0v5.5h-0.6v-6.5
		c0-0.3-0.3-0.6-0.7-0.6h-2.4c-0.4,0-0.7,0.3-0.7,0.6v9.2l0,0c0,0.3-0.1,0.5-0.3,0.6l-2,1c-0.2,0.1-0.4,0.4-0.4,0.7v11.6
		c0,0.2,0.1,0.4,0.3,0.6l2.1,1.1c0.2,0.1,0.4,0.4,0.4,0.6c0,0.3-0.1,0.5-0.3,0.6l-2,1c-0.2,0.1-0.4,0.4-0.4,0.7
		c0,0.2,0.1,0.4,0.3,0.6l2.1,1c0.2,0.1,0.4,0.4,0.4,0.6c0,0.3-0.1,0.5-0.3,0.6l-2,1c-0.2,0.1-0.4,0.4-0.4,0.7c0,0.2,0.1,0.4,0.3,0.6
		l2.1,1.1c0.2,0.1,0.4,0.4,0.4,0.6c0,0.3-0.1,0.5-0.3,0.6l-2,1c-0.2,0.1-0.4,0.4-0.4,0.7c0,0.2,0.1,0.4,0.3,0.6l2.1,1.1
		c0.2,0.1,0.4,0.4,0.4,0.6c0,0.3-0.1,0.5-0.3,0.6l-2,1c-0.2,0.1-0.4,0.4-0.4,0.7c0,0.2,0.1,0.4,0.3,0.6l2.1,1.1
		c0.2,0.1,0.4,0.4,0.4,0.6c0,0.3-0.1,0.5-0.3,0.6l-2,1c-0.2,0.1-0.4,0.4-0.4,0.7v13.5c0,0.2,0.1,0.4,0.3,0.6l2.1,1.1
		c0.2,0.1,0.4,0.4,0.4,0.6c0,0.3-0.1,0.5-0.3,0.6l-2,1c-0.2,0.1-0.4,0.4-0.4,0.7c0,0.2,0.1,0.4,0.3,0.6l2.1,1
		c0.2,0.1,0.4,0.4,0.4,0.6c0,0.3-0.1,0.5-0.3,0.6l-2,1c-0.2,0.1-0.4,0.4-0.4,0.7c0,0.2,0.1,0.4,0.3,0.6l2.1,1.1
		c0.2,0.1,0.4,0.4,0.4,0.6c0,0.3-0.1,0.5-0.3,0.6l-2,1c-0.2,0.1-0.4,0.4-0.4,0.7c0,0.2,0.1,0.4,0.3,0.6l2.1,1.1
		c0.2,0.1,0.4,0.4,0.4,0.6c0,0.3-0.1,0.5-0.3,0.6l-2,1c-0.2,0.1-0.4,0.4-0.4,0.7c0,0.2,0.1,0.4,0.3,0.6l2.1,1.1
		c0.2,0.1,0.4,0.4,0.4,0.6c0,0.3-0.1,0.5-0.3,0.6l-2,1c-0.2,0.1-0.4,0.4-0.4,0.7c0,0.2,0.1,0.4,0.3,0.6l2.1,1
		c0.2,0.1,0.4,0.4,0.4,0.6l0,15.1c0,1.7,1.4,3,3.1,3h158.2c1.7,0,3.1-1.4,3.1-3l0-15.1c0-0.3,0.1-0.5,0.4-0.6l2.1-1
		c0.2-0.1,0.3-0.3,0.3-0.6c0-0.3-0.2-0.5-0.4-0.7l-2-1c-0.2-0.1-0.3-0.3-0.3-0.6c0-0.3,0.1-0.5,0.4-0.6l2.1-1.1
		c0.2-0.1,0.3-0.3,0.3-0.6c0-0.3-0.2-0.5-0.4-0.7l-2-1c-0.2-0.1-0.3-0.3-0.3-0.6c0-0.3,0.1-0.5,0.4-0.6l2.1-1.1
		c0.2-0.1,0.3-0.3,0.3-0.6c0-0.3-0.2-0.5-0.4-0.7l-2-1c-0.2-0.1-0.3-0.3-0.3-0.6c0-0.3,0.1-0.5,0.4-0.6l2.1-1.1
		c0.2-0.1,0.3-0.3,0.3-0.6c0-0.3-0.2-0.5-0.4-0.7l-2-1c-0.2-0.1-0.3-0.3-0.3-0.6c0-0.3,0.1-0.5,0.4-0.6l2.1-1
		c0.2-0.1,0.3-0.3,0.3-0.6c0-0.3-0.2-0.5-0.4-0.7l-2-1c-0.2-0.1-0.3-0.3-0.3-0.6c0-0.3,0.1-0.5,0.4-0.6l2.1-1.1
		c0.2-0.1,0.3-0.3,0.3-0.6v-13.5c0-0.3-0.2-0.5-0.4-0.7l-2-1c-0.2-0.1-0.3-0.3-0.3-0.6c0-0.3,0.1-0.5,0.4-0.6l2.1-1.1
		c0.2-0.1,0.3-0.3,0.3-0.6c0-0.3-0.2-0.5-0.4-0.7l-2-1c-0.2-0.1-0.3-0.3-0.3-0.6c0-0.3,0.1-0.5,0.4-0.6l2.1-1.1
		c0.2-0.1,0.3-0.3,0.3-0.6c0-0.3-0.2-0.5-0.4-0.7l-2-1c-0.2-0.1-0.3-0.3-0.3-0.6c0-0.3,0.1-0.5,0.4-0.6l2.1-1.1
		c0.2-0.1,0.3-0.3,0.3-0.6c0-0.3-0.2-0.5-0.4-0.7l-2-1c-0.2-0.1-0.3-0.3-0.3-0.6c0-0.3,0.1-0.5,0.4-0.6l2.1-1
		c0.2-0.1,0.3-0.3,0.3-0.6c0-0.3-0.2-0.5-0.4-0.7l-2-1c-0.2-0.1-0.3-0.3-0.3-0.6c0-0.3,0.1-0.5,0.4-0.6l2.1-1.1
		c0.2-0.1,0.3-0.3,0.3-0.6v-11.6c0-0.3-0.2-0.5-0.4-0.7l-2-1c-0.2-0.1-0.4-0.4-0.4-0.6v-9.2c0-0.3-0.3-0.6-0.7-0.6h-2.4
		c-0.4,0-0.7,0.3-0.7,0.6v6.5h-0.6v-5.5H533.5z"/>
	<ellipse class="st21" cx="395.2" cy="210" rx="8.1" ry="7.8"/>
	<ellipse class="st21" cx="541.3" cy="210" rx="8.1" ry="7.8"/>
	<path class="st21" d="M418.8,111.2c0,2.2-7.9,2.5-7.9,0v-8.1h7.9V111.2z"/>
	<path class="st21" d="M429.1,111.2c0,2.2-7.9,2.5-7.9,0v-8.1h7.9V111.2z"/>
	<path class="st21" d="M439.3,111.2c0,2.2-7.9,2.5-7.9,0v-8.1h7.9V111.2z"/>
	<path class="st21" d="M449.6,111.2c0,2.2-7.9,2.5-7.9,0v-8.1h7.9V111.2z"/>
	<path class="st21" d="M459.8,111.2c0,2.2-7.9,2.5-7.9,0v-8.1h7.9V111.2z"/>
	<path class="st21" d="M470.1,111.2c0,2.2-7.9,2.5-7.9,0v-8.1h7.9V111.2z"/>
	<line class="st21" x1="386" y1="127.4" x2="386" y2="202.2"/>
	<path class="st21" d="M386,127.4c0-1.6,1.3-2.7,3-2.7h0.7"/>
	<line class="st21" x1="550.5" y1="127.4" x2="550.5" y2="202.2"/>
	<path class="st21" d="M550.5,127.4c0-1.6-1.3-2.7-3-2.7h-0.7"/>
	<line class="st21" x1="404.2" y1="119.2" x2="533.5" y2="119.2"/>
	<line class="st21" x1="390.3" y1="124.7" x2="546.2" y2="124.7"/>
	<line class="st21" x1="409.9" y1="103.2" x2="409.9" y2="103.2"/>
	<line class="st21" x1="420" y1="103.2" x2="420" y2="117.7"/>
	<line class="st21" x1="430.2" y1="103.2" x2="430.2" y2="117.7"/>
	<line class="st21" x1="409.7" y1="103.2" x2="409.7" y2="117.7"/>
	<line class="st21" x1="440.5" y1="103.2" x2="440.5" y2="117.7"/>
	<line class="st21" x1="450.8" y1="103.2" x2="450.8" y2="117.7"/>
	<line class="st21" x1="461" y1="103.2" x2="461" y2="117.7"/>
	<line class="st21" x1="471.3" y1="103.2" x2="471.3" y2="117.7"/>
	<line class="st21" x1="404.2" y1="117.7" x2="533.5" y2="117.7"/>
	<g>
		<ellipse class="st21" cx="401.6" cy="177.3" rx="8.1" ry="7.8"/>
		<polygon class="st21" points="400.6,175.4 401.4,172.2 401.9,172.2 402.7,175.4 403.5,176.2 406.7,177 406.7,177.6 403.5,178.3 
			402.7,179.1 401.9,182.4 401.4,182.4 400.6,179.1 399.8,178.3 396.5,177.6 396.5,177 399.8,176.2 		"/>
	</g>
	<polygon class="st21" points="542.3,208.2 541.6,204.9 541,204.9 540.2,208.2 539.4,209 536.2,209.8 536.2,210.3 539.4,211.1 
		540.2,211.8 541,215.1 541.6,215.1 542.3,211.8 543.2,211.1 546.4,210.3 546.4,209.8 543.2,209 	"/>
	<polygon class="st21" points="396.3,208.2 395.5,204.9 394.9,204.9 394.2,208.2 393.4,209 390.1,209.8 390.1,210.3 393.4,211.1 
		394.2,211.8 394.9,215.1 395.5,215.1 396.3,211.8 397.1,211.1 400.3,210.3 400.3,209.8 397.1,209 	"/>
	<line class="st20" x1="531.6" y1="103.2" x2="472.5" y2="103.2"/>
	<polyline class="st22" points="531.6,103.2 531.6,111.7 472.5,111.7 472.5,103.2 	"/>
</g>
<g>
	<g>
		<line class="st23" x1="359" y1="209.8" x2="359" y2="127.1"/>
		<g>
			<polygon points="362.3,207.6 359,219.9 355.7,207.6 			"/>
		</g>
		<g>
			<polygon points="362.3,129.4 359,117.1 355.7,129.4 			"/>
		</g>
	</g>
</g>
<g>
	<g>
		<line class="st23" x1="359" y1="83.9" x2="359" y2="54.9"/>
		<g>
			<polygon points="362.3,81.7 359,93.9 355.7,81.7 			"/>
		</g>
	</g>
</g>
<line class="st24" x1="359" y1="117.1" x2="359" y2="93.9"/>
<line class="st24" x1="355.8" y1="93.9" x2="421.1" y2="93.9"/>
<line class="st24" x1="355.8" y1="117.1" x2="402.8" y2="117.1"/>
<line class="st24" x1="355.8" y1="220" x2="406" y2="220"/>
<text transform="matrix(0 -1 1 0 345.7802 184.0498)" class="st25 st15 st17">37,5</text>
<text transform="matrix(0 -1 1 0 345.7802 110.248)" class="st25 st15 st17">7</text>
</svg>
