<svg version="1.1" id="Layer_1" xmlns="http://www.w3.org/2000/svg" x="0" y="0" viewBox="0 0 545 280" xml:space="preserve"><style>.st5{fill:none}.st6{font-family:Helvetica,Arial,sans-serif}.st7{font-size:7.564px}.st8{fill:none;stroke:#000;stroke-width:.5;stroke-miterlimit:3.864}.st9{fill-rule:evenodd;clip-rule:evenodd}.st10,.st11{fill:none;stroke:#fff;stroke-width:1.000000e-03;stroke-miterlimit:3.864}.st11{stroke-width:1.000000e-02}.st13{font-size:12px}</style><path d="M67.2 98h181.4v113.4H67.2V98z" fill="#e6e7e8"/><path d="M67.2 98h181.4v113.4H67.2V98z" fill="none" stroke="#fff" stroke-miterlimit="3.864"/><path d="M55.7 75.5H294v158.9H55.7V75.5z" fill="#f99d33"/><path d="M55.7 75.5H294v158.9H55.7V75.5z" fill="#f99d33" stroke="#000" stroke-width=".001" stroke-miterlimit="3.864"/><path d="M67.3 98h181.4v113.3H67.3V98z" fill="#9ba566" stroke="#fff" stroke-width="2.5" stroke-miterlimit="3.864" stroke-dasharray="8,4"/><path class="st5" d="M25.7 18.8h3.5v8.5h-3.5v-8.5z"/><text transform="translate(25.735 27.005)" class="st6 st7">0</text><path class="st5" d="M37.1 18.8h3.5v8.5h-3.5v-8.5z"/><text transform="translate(37.081 27.005)" class="st6 st7">1</text><path class="st5" d="M15.1 30.6h3.5v8.5h-3.5v-8.5z"/><text transform="translate(15.11 38.855)" class="st6 st7">0</text><path class="st8" d="M23.7 32h7.5v7.5h-7.5V32zM35 32h7.6v7.5H35V32z"/><path class="st5" d="M48.4 18.8h3.5v8.5h-3.5v-8.5z"/><text transform="translate(48.427 27.005)" class="st6 st7">2</text><path class="st5" d="M59.8 18.8h3.5v8.5h-3.5v-8.5z"/><text transform="translate(59.773 27.005)" class="st6 st7">3</text><path class="st8" d="M46.3 32h7.6v7.5h-7.6V32zm11.4 0h7.6v7.5h-7.6V32z"/><path class="st5" d="M71.1 18.8h3.5v8.5h-3.5v-8.5z"/><text transform="translate(71.119 27.005)" class="st6 st7">4</text><path class="st5" d="M82.5 18.8H86v8.5h-3.5v-8.5z"/><text transform="translate(82.465 27.005)" class="st6 st7">5</text><path class="st8" d="M69 32h7.6v7.5H69V32zm11.4 0h7.5v7.5h-7.5V32z"/><path class="st5" d="M93.8 18.8h3.5v8.5h-3.5v-8.5z"/><text transform="translate(93.81 27.005)" class="st6 st7">6</text><path class="st5" d="M105.2 18.8h3.5v8.5h-3.5v-8.5z"/><text transform="translate(105.156 27.005)" class="st6 st7">7</text><path class="st8" d="M91.7 32h7.6v7.5h-7.6V32zm11.4 0h7.5v7.5h-7.5V32z"/><path class="st5" d="M116.5 18.8h3.5v8.5h-3.5v-8.5z"/><text transform="translate(116.502 27.005)" class="st6 st7">8</text><path class="st5" d="M127.3 18.8h3.5v8.5h-3.5v-8.5z"/><text transform="translate(127.28 27.005)" class="st6 st7">9</text><path class="st8" d="M114.4 32h7.6v7.5h-7.6V32zm11.4 0h7.5v7.5h-7.5V32z"/><path class="st5" d="M137.5 18.5h7V27h-7v-8.5z"/><text transform="translate(137.514 26.714)" class="st6 st7">10</text><path class="st5" d="M148.9 18.5h6.5V27h-6.5v-8.5z"/><text transform="translate(148.864 26.714)" class="st6 st7">1</text><text transform="translate(151.864 26.714)" class="st6 st7">1</text><path class="st8" d="M137.1 32h7.6v7.5h-7.6V32zm11.4 0h7.5v7.5h-7.5V32z"/><path class="st5" d="M160.2 18.5h7V27h-7v-8.5z"/><text transform="translate(160.206 26.714)" class="st6 st7">12</text><path class="st5" d="M171.6 18.5h7V27h-7v-8.5z"/><text transform="translate(171.552 26.714)" class="st6 st7">13</text><path class="st8" d="M159.8 32h7.6v7.5h-7.6V32zm11.3 0h7.6v7.5h-7.6V32z"/><path class="st5" d="M182.9 18.5h7V27h-7v-8.5z"/><text transform="translate(182.898 26.714)" class="st6 st7">14</text><path class="st5" d="M194.2 18.5h7V27h-7v-8.5z"/><text transform="translate(194.243 26.714)" class="st6 st7">15</text><path class="st8" d="M182.5 32h7.6v7.5h-7.6V32zm11.3 0h7.6v7.5h-7.6V32z"/><path class="st5" d="M205.6 18.5h7V27h-7v-8.5z"/><text transform="translate(205.59 26.714)" class="st6 st7">16</text><path class="st5" d="M216.9 18.5h7V27h-7v-8.5z"/><text transform="translate(216.935 26.714)" class="st6 st7">17</text><path class="st8" d="M205.2 32h7.6v7.5h-7.6V32zm11.3 0h7.6v7.5h-7.6V32z"/><path class="st5" d="M228.3 18.5h7V27h-7v-8.5z"/><text transform="translate(228.288 26.714)" class="st6 st7">18</text><path class="st5" d="M239.6 18.5h7V27h-7v-8.5z"/><text transform="translate(239.635 26.714)" class="st6 st7">19</text><path class="st8" d="M227.9 32h7.5v7.5h-7.5V32zm11.3 0h7.6v7.5h-7.6V32z"/><path class="st5" d="M251 18.5h7V27h-7v-8.5z"/><text transform="translate(250.98 26.714)" class="st6 st7">20</text><path class="st5" d="M262.3 18.5h6.9V27h-6.9v-8.5z"/><text transform="translate(262.325 26.714)" class="st6 st7">21</text><path class="st8" d="M250.6 32h7.5v7.5h-7.5V32zm11.3 0h7.6v7.5h-7.6V32z"/><path class="st5" d="M273.7 18.5h7V27h-7v-8.5z"/><text transform="translate(273.672 26.714)" class="st6 st7">22</text><path class="st5" d="M285 18.5h7V27h-7v-8.5z"/><text transform="translate(285.018 26.714)" class="st6 st7">23</text><path class="st8" d="M273.3 32h7.5v7.5h-7.5V32zm11.3 0h7.6v7.5h-7.6V32z"/><path class="st5" d="M296.4 18.5h7V27h-7v-8.5z"/><text transform="translate(296.362 26.714)" class="st6 st7">24</text><path class="st5" d="M307.7 18.5h7V27h-7v-8.5z"/><text transform="translate(307.709 26.714)" class="st6 st7">25</text><path class="st8" d="M296 32h7.5v7.5H296V32zm11.3 0h7.6v7.5h-7.6V32z"/><path class="st5" d="M319.1 18.5h7V27h-7v-8.5z"/><text transform="translate(319.055 26.714)" class="st6 st7">26</text><path class="st5" d="M330.4 18.5h7V27h-7v-8.5z"/><text transform="translate(330.4 26.714)" class="st6 st7">27</text><path class="st8" d="M318.6 32h7.6v7.5h-7.6V32zm11.4 0h7.6v7.5H330V32z"/><path class="st5" d="M341.7 18.5h7V27h-7v-8.5z"/><text transform="translate(341.746 26.714)" class="st6 st7">28</text><path class="st5" d="M353.1 18.5h7V27h-7v-8.5z"/><text transform="translate(353.092 26.714)" class="st6 st7">29</text><path class="st8" d="M341.3 32h7.6v7.5h-7.6V32zm11.4 0h7.6v7.5h-7.6V32z"/><path class="st5" d="M364.4 18.5h7V27h-7v-8.5z"/><text transform="translate(364.438 26.714)" class="st6 st7">30</text><path class="st8" d="M364 32h7.6v7.5H364V32zm11.4 0h7.5v7.5h-7.5V32zM23.7 43.3h7.5v7.6h-7.5v-7.6zm11.3 0h7.6v7.6H35v-7.6zm11.3 0h7.6v7.6h-7.6v-7.6zm11.4 0h7.6v7.6h-7.6v-7.6zm11.3 0h7.6v7.6H69v-7.6zm11.4 0h7.5v7.6h-7.5v-7.6zm11.3 0h7.6v7.6h-7.6v-7.6zm11.4 0h7.5v7.6h-7.5v-7.6zm11.3 0h7.6v7.6h-7.6v-7.6zm11.4 0h7.5v7.6h-7.5v-7.6zm11.3 0h7.6v7.6h-7.6v-7.6zm11.4 0h7.5v7.6h-7.5v-7.6zm11.3 0h7.6v7.6h-7.6v-7.6zm11.3 0h7.6v7.6h-7.6v-7.6zm11.4 0h7.6v7.6h-7.6v-7.6zm11.3 0h7.6v7.6h-7.6v-7.6zm11.4 0h7.6v7.6h-7.6v-7.6zm11.3 0h7.6v7.6h-7.6v-7.6zm11.4 0h7.5v7.6h-7.5v-7.6zm11.3 0h7.6v7.6h-7.6v-7.6zm11.4 0h7.5v7.6h-7.5v-7.6zm11.3 0h7.6v7.6h-7.6v-7.6zm11.4 0h7.5v7.6h-7.5v-7.6zm11.3 0h7.6v7.6h-7.6v-7.6zm11.4 0h7.5v7.6H296v-7.6zm11.3 0h7.6v7.6h-7.6v-7.6zm11.3 0h7.6v7.6h-7.6v-7.6zm11.4 0h7.6v7.6H330v-7.6zm11.3 0h7.6v7.6h-7.6v-7.6zm11.4 0h7.6v7.6h-7.6v-7.6zm11.3 0h7.6v7.6H364v-7.6zm11.4 0h7.5v7.6h-7.5v-7.6zM23.7 54.6h7.5v7.6h-7.5v-7.6zm11.3 0h7.6v7.6H35v-7.6zm11.3 0h7.6v7.6h-7.6v-7.6zm11.4 0h7.6v7.6h-7.6v-7.6zm11.3 0h7.6v7.6H69v-7.6zm11.4 0h7.5v7.6h-7.5v-7.6zm11.3 0h7.6v7.6h-7.6v-7.6zm11.4 0h7.5v7.6h-7.5v-7.6zm11.3 0h7.6v7.6h-7.6v-7.6zm11.4 0h7.5v7.6h-7.5v-7.6zm11.3 0h7.6v7.6h-7.6v-7.6zm11.4 0h7.5v7.6h-7.5v-7.6zm11.3 0h7.6v7.6h-7.6v-7.6zm11.3 0h7.6v7.6h-7.6v-7.6zm11.4 0h7.6v7.6h-7.6v-7.6zm11.3 0h7.6v7.6h-7.6v-7.6zm11.4 0h7.6v7.6h-7.6v-7.6zm11.3 0h7.6v7.6h-7.6v-7.6zm11.4 0h7.5v7.6h-7.5v-7.6zm11.3 0h7.6v7.6h-7.6v-7.6zm11.4 0h7.5v7.6h-7.5v-7.6zm11.3 0h7.6v7.6h-7.6v-7.6zm11.4 0h7.5v7.6h-7.5v-7.6zm11.3 0h7.6v7.6h-7.6v-7.6zm11.4 0h7.5v7.6H296v-7.6zm11.3 0h7.6v7.6h-7.6v-7.6zm11.3 0h7.6v7.6h-7.6v-7.6zm11.4 0h7.6v7.6H330v-7.6zm11.3 0h7.6v7.6h-7.6v-7.6zm11.4 0h7.6v7.6h-7.6v-7.6zm11.3 0h7.6v7.6H364v-7.6zm11.4 0h7.5v7.6h-7.5v-7.6zM23.7 66h7.5v7.6h-7.5V66zM35 66h7.6v7.6H35V66zm11.3 0h7.6v7.6h-7.6V66zm11.4 0h7.6v7.6h-7.6V66zM69 66h7.6v7.6H69V66zm11.4 0h7.5v7.6h-7.5V66zm11.3 0h7.6v7.6h-7.6V66zm11.4 0h7.5v7.6h-7.5V66zm11.3 0h7.6v7.6h-7.6V66zm11.4 0h7.5v7.6h-7.5V66zm11.3 0h7.6v7.6h-7.6V66zm11.4 0h7.5v7.6h-7.5V66zm11.3 0h7.6v7.6h-7.6V66zm11.3 0h7.6v7.6h-7.6V66zm11.4 0h7.6v7.6h-7.6V66zm11.3 0h7.6v7.6h-7.6V66zm11.4 0h7.6v7.6h-7.6V66zm11.3 0h7.6v7.6h-7.6V66zm11.4 0h7.5v7.6h-7.5V66zm11.3 0h7.6v7.6h-7.6V66zm11.4 0h7.5v7.6h-7.5V66zm11.3 0h7.6v7.6h-7.6V66zm11.4 0h7.5v7.6h-7.5V66zm11.3 0h7.6v7.6h-7.6V66zm11.4 0h7.5v7.6H296V66zm11.3 0h7.6v7.6h-7.6V66zm11.3 0h7.6v7.6h-7.6V66zm11.4 0h7.6v7.6H330V66zm11.3 0h7.6v7.6h-7.6V66zm11.4 0h7.6v7.6h-7.6V66zm11.3 0h7.6v7.6H364V66zm11.4 0h7.5v7.6h-7.5V66zM23.7 77.3h7.5v7.6h-7.5v-7.6zm11.3 0h7.6v7.6H35v-7.6zm11.3 0h7.6v7.6h-7.6v-7.6zm11.4 0h7.6v7.6h-7.6v-7.6zm11.3 0h7.6v7.6H69v-7.6zm11.4 0h7.5v7.6h-7.5v-7.6zm11.3 0h7.6v7.6h-7.6v-7.6zm11.4 0h7.5v7.6h-7.5v-7.6zm11.3 0h7.6v7.6h-7.6v-7.6zm11.4 0h7.5v7.6h-7.5v-7.6zm11.3 0h7.6v7.6h-7.6v-7.6zm11.4 0h7.5v7.6h-7.5v-7.6zm11.3 0h7.6v7.6h-7.6v-7.6zm11.3 0h7.6v7.6h-7.6v-7.6zm11.4 0h7.6v7.6h-7.6v-7.6zm11.3 0h7.6v7.6h-7.6v-7.6zm11.4 0h7.6v7.6h-7.6v-7.6zm11.3 0h7.6v7.6h-7.6v-7.6zm11.4 0h7.5v7.6h-7.5v-7.6zm11.3 0h7.6v7.6h-7.6v-7.6zm11.4 0h7.5v7.6h-7.5v-7.6zm11.3 0h7.6v7.6h-7.6v-7.6zm11.4 0h7.5v7.6h-7.5v-7.6zm11.3 0h7.6v7.6h-7.6v-7.6zm11.4 0h7.5v7.6H296v-7.6zm11.3 0h7.6v7.6h-7.6v-7.6zm11.3 0h7.6v7.6h-7.6v-7.6zm11.4 0h7.6v7.6H330v-7.6zm11.3 0h7.6v7.6h-7.6v-7.6zm11.4 0h7.6v7.6h-7.6v-7.6zm11.3 0h7.6v7.6H364v-7.6zm11.4 0h7.5v7.6h-7.5v-7.6zM23.7 88.7h7.5v7.5h-7.5v-7.5zm11.3 0h7.6v7.5H35v-7.5zm11.3 0h7.6v7.5h-7.6v-7.5zm11.4 0h7.6v7.5h-7.6v-7.5zm11.3 0h7.6v7.5H69v-7.5zm11.4 0h7.5v7.5h-7.5v-7.5zm11.3 0h7.6v7.5h-7.6v-7.5zm11.4 0h7.5v7.5h-7.5v-7.5zm11.3 0h7.6v7.5h-7.6v-7.5zm11.4 0h7.5v7.5h-7.5v-7.5zm11.3 0h7.6v7.5h-7.6v-7.5zm11.4 0h7.5v7.5h-7.5v-7.5zm11.3 0h7.6v7.5h-7.6v-7.5zm11.3 0h7.6v7.5h-7.6v-7.5zm11.4 0h7.6v7.5h-7.6v-7.5zm11.3 0h7.6v7.5h-7.6v-7.5zm11.4 0h7.6v7.5h-7.6v-7.5zm11.3 0h7.6v7.5h-7.6v-7.5zm11.4 0h7.5v7.5h-7.5v-7.5zm11.3 0h7.6v7.5h-7.6v-7.5zm11.4 0h7.5v7.5h-7.5v-7.5zm11.3 0h7.6v7.5h-7.6v-7.5zm11.4 0h7.5v7.5h-7.5v-7.5zm11.3 0h7.6v7.5h-7.6v-7.5zm11.4 0h7.5v7.5H296v-7.5zm11.3 0h7.6v7.5h-7.6v-7.5zm11.3 0h7.6v7.5h-7.6v-7.5zm11.4 0h7.6v7.5H330v-7.5zm11.3 0h7.6v7.5h-7.6v-7.5zm11.4 0h7.6v7.5h-7.6v-7.5zm11.3 0h7.6v7.5H364v-7.5zm11.4 0h7.5v7.5h-7.5v-7.5zM23.7 100h7.5v7.6h-7.5V100zm11.3 0h7.6v7.6H35V100zm11.3 0h7.6v7.6h-7.6V100zm11.4 0h7.6v7.6h-7.6V100zm11.3 0h7.6v7.6H69V100zm11.4 0h7.5v7.6h-7.5V100zm11.3 0h7.6v7.6h-7.6V100zm11.4 0h7.5v7.6h-7.5V100zm11.3 0h7.6v7.6h-7.6V100zm11.4 0h7.5v7.6h-7.5V100zm11.3 0h7.6v7.6h-7.6V100zm11.4 0h7.5v7.6h-7.5V100zm11.3 0h7.6v7.6h-7.6V100zm11.3 0h7.6v7.6h-7.6V100zm11.4 0h7.6v7.6h-7.6V100zm11.3 0h7.6v7.6h-7.6V100zm11.4 0h7.6v7.6h-7.6V100zm11.3 0h7.6v7.6h-7.6V100zm11.4 0h7.5v7.6h-7.5V100zm11.3 0h7.6v7.6h-7.6V100zm11.4 0h7.5v7.6h-7.5V100zm11.3 0h7.6v7.6h-7.6V100zm11.4 0h7.5v7.6h-7.5V100zm11.3 0h7.6v7.6h-7.6V100zm11.4 0h7.5v7.6H296V100zm11.3 0h7.6v7.6h-7.6V100zm11.3 0h7.6v7.6h-7.6V100zm11.4 0h7.6v7.6H330V100zm11.3 0h7.6v7.6h-7.6V100zm11.4 0h7.6v7.6h-7.6V100zm11.3 0h7.6v7.6H364V100zm11.4 0h7.5v7.6h-7.5V100zM23.7 111.4h7.5v7.5h-7.5v-7.5zm11.3 0h7.6v7.5H35v-7.5zm11.3 0h7.6v7.5h-7.6v-7.5zm11.4 0h7.6v7.5h-7.6v-7.5zm11.3 0h7.6v7.5H69v-7.5zm11.4 0h7.5v7.5h-7.5v-7.5zm11.3 0h7.6v7.5h-7.6v-7.5zm11.4 0h7.5v7.5h-7.5v-7.5z"/><path class="st8" d="M103.1 111.4h7.5v7.5h-7.5v-7.5zm11.3 0h7.6v7.5h-7.6v-7.5z"/><path class="st8" d="M114.4 111.4h7.6v7.5h-7.6v-7.5zm11.4 0h7.5v7.5h-7.5v-7.5z"/><path class="st8" d="M125.8 111.4h7.5v7.5h-7.5v-7.5zm11.3 0h7.6v7.5h-7.6v-7.5z"/><path class="st8" d="M137.1 111.4h7.6v7.5h-7.6v-7.5zm11.4 0h7.5v7.5h-7.5v-7.5zm11.3 0h7.6v7.5h-7.6v-7.5zm11.3 0h7.6v7.5h-7.6v-7.5zm11.4 0h7.6v7.5h-7.6v-7.5zm11.3 0h7.6v7.5h-7.6v-7.5zm11.4 0h7.6v7.5h-7.6v-7.5zm11.3 0h7.6v7.5h-7.6v-7.5zm11.4 0h7.5v7.5h-7.5v-7.5zm11.3 0h7.6v7.5h-7.6v-7.5zm11.4 0h7.5v7.5h-7.5v-7.5zm11.3 0h7.6v7.5h-7.6v-7.5zm11.4 0h7.5v7.5h-7.5v-7.5zm11.3 0h7.6v7.5h-7.6v-7.5zm11.4 0h7.5v7.5H296v-7.5zm11.3 0h7.6v7.5h-7.6v-7.5zm11.3 0h7.6v7.5h-7.6v-7.5zm11.4 0h7.6v7.5H330v-7.5zm11.3 0h7.6v7.5h-7.6v-7.5zm11.4 0h7.6v7.5h-7.6v-7.5zm11.3 0h7.6v7.5H364v-7.5zm11.4 0h7.5v7.5h-7.5v-7.5zM23.7 122.7h7.5v7.6h-7.5v-7.6zm11.3 0h7.6v7.6H35v-7.6zm11.3 0h7.6v7.6h-7.6v-7.6zm11.4 0h7.6v7.6h-7.6v-7.6zm11.3 0h7.6v7.6H69v-7.6zm11.4 0h7.5v7.6h-7.5v-7.6zm11.3 0h7.6v7.6h-7.6v-7.6zm11.4 0h7.5v7.6h-7.5v-7.6z"/><path class="st8" d="M103.1 122.7h7.5v7.6h-7.5v-7.6zm11.3 0h7.6v7.6h-7.6v-7.6zm11.4 0h7.5v7.6h-7.5v-7.6zm11.3 0h7.6v7.6h-7.6v-7.6zm11.4 0h7.5v7.6h-7.5v-7.6z"/><path class="st8" d="M148.5 122.7h7.5v7.6h-7.5v-7.6zm11.3 0h7.6v7.6h-7.6v-7.6zm11.3 0h7.6v7.6h-7.6v-7.6zm11.4 0h7.6v7.6h-7.6v-7.6zm11.3 0h7.6v7.6h-7.6v-7.6zm11.4 0h7.6v7.6h-7.6v-7.6zm11.3 0h7.6v7.6h-7.6v-7.6zm11.4 0h7.5v7.6h-7.5v-7.6zm11.3 0h7.6v7.6h-7.6v-7.6zm11.4 0h7.5v7.6h-7.5v-7.6zm11.3 0h7.6v7.6h-7.6v-7.6zm11.4 0h7.5v7.6h-7.5v-7.6zm11.3 0h7.6v7.6h-7.6v-7.6zm11.4 0h7.5v7.6H296v-7.6zm11.3 0h7.6v7.6h-7.6v-7.6zm11.3 0h7.6v7.6h-7.6v-7.6zm11.4 0h7.6v7.6H330v-7.6zm11.3 0h7.6v7.6h-7.6v-7.6zm11.4 0h7.6v7.6h-7.6v-7.6zm11.3 0h7.6v7.6H364v-7.6zm11.4 0h7.5v7.6h-7.5v-7.6zM23.7 134.1h7.5v7.5h-7.5v-7.5zm11.3 0h7.6v7.5H35v-7.5zm11.3 0h7.6v7.5h-7.6v-7.5zm11.4 0h7.6v7.5h-7.6v-7.5zm11.3 0h7.6v7.5H69v-7.5zm11.4 0h7.5v7.5h-7.5v-7.5zm11.3 0h7.6v7.5h-7.6v-7.5zm11.4 0h7.5v7.5h-7.5v-7.5z"/><path class="st8" d="M103.1 134.1h7.5v7.5h-7.5v-7.5zm11.3 0h7.6v7.5h-7.6v-7.5zm11.4 0h7.5v7.5h-7.5v-7.5zm11.3 0h7.6v7.5h-7.6v-7.5zm11.4 0h7.5v7.5h-7.5v-7.5z"/><path class="st8" d="M148.5 134.1h7.5v7.5h-7.5v-7.5zm11.3 0h7.6v7.5h-7.6v-7.5zm11.3 0h7.6v7.5h-7.6v-7.5zm11.4 0h7.6v7.5h-7.6v-7.5zm11.3 0h7.6v7.5h-7.6v-7.5zm11.4 0h7.6v7.5h-7.6v-7.5zm11.3 0h7.6v7.5h-7.6v-7.5zm11.4 0h7.5v7.5h-7.5v-7.5zm11.3 0h7.6v7.5h-7.6v-7.5zm11.4 0h7.5v7.5h-7.5v-7.5zm11.3 0h7.6v7.5h-7.6v-7.5zm11.4 0h7.5v7.5h-7.5v-7.5zm11.3 0h7.6v7.5h-7.6v-7.5zm11.4 0h7.5v7.5H296v-7.5zm11.3 0h7.6v7.5h-7.6v-7.5zm11.3 0h7.6v7.5h-7.6v-7.5zm11.4 0h7.6v7.5H330v-7.5zm11.3 0h7.6v7.5h-7.6v-7.5zm11.4 0h7.6v7.5h-7.6v-7.5zm11.3 0h7.6v7.5H364v-7.5zm11.4 0h7.5v7.5h-7.5v-7.5zM23.7 145.4h7.5v7.6h-7.5v-7.6zm11.3 0h7.6v7.6H35v-7.6zm11.3 0h7.6v7.6h-7.6v-7.6zm11.4 0h7.6v7.6h-7.6v-7.6zm11.3 0h7.6v7.6H69v-7.6zm11.4 0h7.5v7.6h-7.5v-7.6zm11.3 0h7.6v7.6h-7.6v-7.6zm11.4 0h7.5v7.6h-7.5v-7.6z"/><path class="st8" d="M103.1 145.4h7.5v7.6h-7.5v-7.6zm11.3 0h7.6v7.6h-7.6v-7.6z"/><path class="st8" d="M114.4 145.4h7.6v7.6h-7.6v-7.6zm11.4 0h7.5v7.6h-7.5v-7.6z"/><path class="st8" d="M125.8 145.4h7.5v7.6h-7.5v-7.6zm11.3 0h7.6v7.6h-7.6v-7.6z"/><path class="st8" d="M137.1 145.4h7.6v7.6h-7.6v-7.6zm11.4 0h7.5v7.6h-7.5v-7.6zm11.3 0h7.6v7.6h-7.6v-7.6zm11.3 0h7.6v7.6h-7.6v-7.6zm11.4 0h7.6v7.6h-7.6v-7.6zm11.3 0h7.6v7.6h-7.6v-7.6zm11.4 0h7.6v7.6h-7.6v-7.6zm11.3 0h7.6v7.6h-7.6v-7.6zm11.4 0h7.5v7.6h-7.5v-7.6zm11.3 0h7.6v7.6h-7.6v-7.6zm11.4 0h7.5v7.6h-7.5v-7.6zm11.3 0h7.6v7.6h-7.6v-7.6zm11.4 0h7.5v7.6h-7.5v-7.6zm11.3 0h7.6v7.6h-7.6v-7.6zm11.4 0h7.5v7.6H296v-7.6zm11.3 0h7.6v7.6h-7.6v-7.6zm11.3 0h7.6v7.6h-7.6v-7.6zm11.4 0h7.6v7.6H330v-7.6zm11.3 0h7.6v7.6h-7.6v-7.6zm11.4 0h7.6v7.6h-7.6v-7.6zm11.3 0h7.6v7.6H364v-7.6zm11.4 0h7.5v7.6h-7.5v-7.6zM23.7 156.8h7.5v7.5h-7.5v-7.5zm11.3 0h7.6v7.5H35v-7.5zm11.3 0h7.6v7.5h-7.6v-7.5zm11.4 0h7.6v7.5h-7.6v-7.5zm11.3 0h7.6v7.5H69v-7.5zm11.4 0h7.5v7.5h-7.5v-7.5zm11.3 0h7.6v7.5h-7.6v-7.5zm11.4 0h7.5v7.5h-7.5v-7.5z"/><path class="st8" d="M103.1 156.8h7.5v7.5h-7.5v-7.5zm11.3 0h7.6v7.5h-7.6v-7.5zm11.4 0h7.5v7.5h-7.5v-7.5z"/><path class="st8" d="M125.8 156.8h7.5v7.5h-7.5v-7.5zm11.3 0h7.6v7.5h-7.6v-7.5zm11.4 0h7.5v7.5h-7.5v-7.5zm11.3 0h7.6v7.5h-7.6v-7.5zm11.3 0h7.6v7.5h-7.6v-7.5zm11.4 0h7.6v7.5h-7.6v-7.5zm11.3 0h7.6v7.5h-7.6v-7.5zm11.4 0h7.6v7.5h-7.6v-7.5zm11.3 0h7.6v7.5h-7.6v-7.5zm11.4 0h7.5v7.5h-7.5v-7.5zm11.3 0h7.6v7.5h-7.6v-7.5zm11.4 0h7.5v7.5h-7.5v-7.5zm11.3 0h7.6v7.5h-7.6v-7.5zm11.4 0h7.5v7.5h-7.5v-7.5zm11.3 0h7.6v7.5h-7.6v-7.5zm11.4 0h7.5v7.5H296v-7.5zm11.3 0h7.6v7.5h-7.6v-7.5zm11.3 0h7.6v7.5h-7.6v-7.5zm11.4 0h7.6v7.5H330v-7.5zm11.3 0h7.6v7.5h-7.6v-7.5zm11.4 0h7.6v7.5h-7.6v-7.5zm11.3 0h7.6v7.5H364v-7.5zm11.4 0h7.5v7.5h-7.5v-7.5zM23.7 168.1h7.5v7.6h-7.5v-7.6zm11.3 0h7.6v7.6H35v-7.6zm11.3 0h7.6v7.6h-7.6v-7.6zm11.4 0h7.6v7.6h-7.6v-7.6zm11.3 0h7.6v7.6H69v-7.6zm11.4 0h7.5v7.6h-7.5v-7.6zm11.3 0h7.6v7.6h-7.6v-7.6zm11.4 0h7.5v7.6h-7.5v-7.6z"/><path class="st8" d="M103.1 168.1h7.5v7.6h-7.5v-7.6zm11.3 0h7.6v7.6h-7.6v-7.6zm11.4 0h7.5v7.6h-7.5v-7.6zm11.3 0h7.6v7.6h-7.6v-7.6z"/><path class="st8" d="M137.1 168.1h7.6v7.6h-7.6v-7.6zm11.4 0h7.5v7.6h-7.5v-7.6zm11.3 0h7.6v7.6h-7.6v-7.6zm11.3 0h7.6v7.6h-7.6v-7.6zm11.4 0h7.6v7.6h-7.6v-7.6zm11.3 0h7.6v7.6h-7.6v-7.6zm11.4 0h7.6v7.6h-7.6v-7.6zm11.3 0h7.6v7.6h-7.6v-7.6zm11.4 0h7.5v7.6h-7.5v-7.6zm11.3 0h7.6v7.6h-7.6v-7.6zm11.4 0h7.5v7.6h-7.5v-7.6zm11.3 0h7.6v7.6h-7.6v-7.6zm11.4 0h7.5v7.6h-7.5v-7.6zm11.3 0h7.6v7.6h-7.6v-7.6zm11.4 0h7.5v7.6H296v-7.6zm11.3 0h7.6v7.6h-7.6v-7.6zm11.3 0h7.6v7.6h-7.6v-7.6zm11.4 0h7.6v7.6H330v-7.6zm11.3 0h7.6v7.6h-7.6v-7.6zm11.4 0h7.6v7.6h-7.6v-7.6zm11.3 0h7.6v7.6H364v-7.6zm11.4 0h7.5v7.6h-7.5v-7.6zM23.7 179.4h7.5v7.6h-7.5v-7.6zm11.3 0h7.6v7.6H35v-7.6zm11.3 0h7.6v7.6h-7.6v-7.6zm11.4 0h7.6v7.6h-7.6v-7.6zm11.3 0h7.6v7.6H69v-7.6zm11.4 0h7.5v7.6h-7.5v-7.6zm11.3 0h7.6v7.6h-7.6v-7.6zm11.4 0h7.5v7.6h-7.5v-7.6z"/><path class="st8" d="M103.1 179.4h7.5v7.6h-7.5v-7.6zm11.3 0h7.6v7.6h-7.6v-7.6zm11.4 0h7.5v7.6h-7.5v-7.6zm11.3 0h7.6v7.6h-7.6v-7.6zm11.4 0h7.5v7.6h-7.5v-7.6z"/><path class="st8" d="M148.5 179.4h7.5v7.6h-7.5v-7.6zm11.3 0h7.6v7.6h-7.6v-7.6zm11.3 0h7.6v7.6h-7.6v-7.6zm11.4 0h7.6v7.6h-7.6v-7.6zm11.3 0h7.6v7.6h-7.6v-7.6zm11.4 0h7.6v7.6h-7.6v-7.6zm11.3 0h7.6v7.6h-7.6v-7.6zm11.4 0h7.5v7.6h-7.5v-7.6zm11.3 0h7.6v7.6h-7.6v-7.6zm11.4 0h7.5v7.6h-7.5v-7.6zm11.3 0h7.6v7.6h-7.6v-7.6zm11.4 0h7.5v7.6h-7.5v-7.6zm11.3 0h7.6v7.6h-7.6v-7.6zm11.4 0h7.5v7.6H296v-7.6zm11.3 0h7.6v7.6h-7.6v-7.6zm11.3 0h7.6v7.6h-7.6v-7.6zm11.4 0h7.6v7.6H330v-7.6zm11.3 0h7.6v7.6h-7.6v-7.6zm11.4 0h7.6v7.6h-7.6v-7.6zm11.3 0h7.6v7.6H364v-7.6zm11.4 0h7.5v7.6h-7.5v-7.6zM23.7 190.8h7.5v7.6h-7.5v-7.6zm11.3 0h7.6v7.6H35v-7.6zm11.3 0h7.6v7.6h-7.6v-7.6zm11.4 0h7.6v7.6h-7.6v-7.6zm11.3 0h7.6v7.6H69v-7.6zm11.4 0h7.5v7.6h-7.5v-7.6zm11.3 0h7.6v7.6h-7.6v-7.6zm11.4 0h7.5v7.6h-7.5v-7.6zm11.3 0h7.6v7.6h-7.6v-7.6zm11.4 0h7.5v7.6h-7.5v-7.6zm11.3 0h7.6v7.6h-7.6v-7.6zm11.4 0h7.5v7.6h-7.5v-7.6zm11.3 0h7.6v7.6h-7.6v-7.6zm11.3 0h7.6v7.6h-7.6v-7.6zm11.4 0h7.6v7.6h-7.6v-7.6zm11.3 0h7.6v7.6h-7.6v-7.6zm11.4 0h7.6v7.6h-7.6v-7.6zm11.3 0h7.6v7.6h-7.6v-7.6zm11.4 0h7.5v7.6h-7.5v-7.6zm11.3 0h7.6v7.6h-7.6v-7.6zm11.4 0h7.5v7.6h-7.5v-7.6zm11.3 0h7.6v7.6h-7.6v-7.6zm11.4 0h7.5v7.6h-7.5v-7.6zm11.3 0h7.6v7.6h-7.6v-7.6zm11.4 0h7.5v7.6H296v-7.6zm11.3 0h7.6v7.6h-7.6v-7.6zm11.3 0h7.6v7.6h-7.6v-7.6zm11.4 0h7.6v7.6H330v-7.6zm11.3 0h7.6v7.6h-7.6v-7.6zm11.4 0h7.6v7.6h-7.6v-7.6zm11.3 0h7.6v7.6H364v-7.6zm11.4 0h7.5v7.6h-7.5v-7.6zM23.7 202.1h7.5v7.6h-7.5v-7.6zm11.3 0h7.6v7.6H35v-7.6zm11.3 0h7.6v7.6h-7.6v-7.6zm11.4 0h7.6v7.6h-7.6v-7.6zm11.3 0h7.6v7.6H69v-7.6zm11.4 0h7.5v7.6h-7.5v-7.6zm11.3 0h7.6v7.6h-7.6v-7.6zm11.4 0h7.5v7.6h-7.5v-7.6zm11.3 0h7.6v7.6h-7.6v-7.6zm11.4 0h7.5v7.6h-7.5v-7.6zm11.3 0h7.6v7.6h-7.6v-7.6zm11.4 0h7.5v7.6h-7.5v-7.6zm11.3 0h7.6v7.6h-7.6v-7.6zm11.3 0h7.6v7.6h-7.6v-7.6zm11.4 0h7.6v7.6h-7.6v-7.6zm11.3 0h7.6v7.6h-7.6v-7.6zm11.4 0h7.6v7.6h-7.6v-7.6zm11.3 0h7.6v7.6h-7.6v-7.6zm11.4 0h7.5v7.6h-7.5v-7.6zm11.3 0h7.6v7.6h-7.6v-7.6zm11.4 0h7.5v7.6h-7.5v-7.6zm11.3 0h7.6v7.6h-7.6v-7.6zm11.4 0h7.5v7.6h-7.5v-7.6zm11.3 0h7.6v7.6h-7.6v-7.6zm11.4 0h7.5v7.6H296v-7.6zm11.3 0h7.6v7.6h-7.6v-7.6zm11.3 0h7.6v7.6h-7.6v-7.6zm11.4 0h7.6v7.6H330v-7.6zm11.3 0h7.6v7.6h-7.6v-7.6zm11.4 0h7.6v7.6h-7.6v-7.6zm11.3 0h7.6v7.6H364v-7.6zm11.4 0h7.5v7.6h-7.5v-7.6zM23.7 213.5h7.5v7.5h-7.5v-7.5zm11.3 0h7.6v7.5H35v-7.5zm11.3 0h7.6v7.5h-7.6v-7.5zm11.4 0h7.6v7.5h-7.6v-7.5zm11.3 0h7.6v7.5H69v-7.5zm11.4 0h7.5v7.5h-7.5v-7.5zm11.3 0h7.6v7.5h-7.6v-7.5zm11.4 0h7.5v7.5h-7.5v-7.5zm11.3 0h7.6v7.5h-7.6v-7.5zm11.4 0h7.5v7.5h-7.5v-7.5zm11.3 0h7.6v7.5h-7.6v-7.5zm11.4 0h7.5v7.5h-7.5v-7.5zm11.3 0h7.6v7.5h-7.6v-7.5zm11.3 0h7.6v7.5h-7.6v-7.5zm11.4 0h7.6v7.5h-7.6v-7.5zm11.3 0h7.6v7.5h-7.6v-7.5zm11.4 0h7.6v7.5h-7.6v-7.5zm11.3 0h7.6v7.5h-7.6v-7.5zm11.4 0h7.5v7.5h-7.5v-7.5zm11.3 0h7.6v7.5h-7.6v-7.5zm11.4 0h7.5v7.5h-7.5v-7.5zm11.3 0h7.6v7.5h-7.6v-7.5zm11.4 0h7.5v7.5h-7.5v-7.5zm11.3 0h7.6v7.5h-7.6v-7.5zm11.4 0h7.5v7.5H296v-7.5zm11.3 0h7.6v7.5h-7.6v-7.5zm11.3 0h7.6v7.5h-7.6v-7.5zm11.4 0h7.6v7.5H330v-7.5zm11.3 0h7.6v7.5h-7.6v-7.5zm11.4 0h7.6v7.5h-7.6v-7.5zm11.3 0h7.6v7.5H364v-7.5zm11.4 0h7.5v7.5h-7.5v-7.5zM23.7 224.8h7.5v7.6h-7.5v-7.6zm11.3 0h7.6v7.6H35v-7.6zm11.3 0h7.6v7.6h-7.6v-7.6zm11.4 0h7.6v7.6h-7.6v-7.6zm11.3 0h7.6v7.6H69v-7.6zm11.4 0h7.5v7.6h-7.5v-7.6zm11.3 0h7.6v7.6h-7.6v-7.6zm11.4 0h7.5v7.6h-7.5v-7.6zm11.3 0h7.6v7.6h-7.6v-7.6zm11.4 0h7.5v7.6h-7.5v-7.6zm11.3 0h7.6v7.6h-7.6v-7.6zm11.4 0h7.5v7.6h-7.5v-7.6zm11.3 0h7.6v7.6h-7.6v-7.6zm11.3 0h7.6v7.6h-7.6v-7.6zm11.4 0h7.6v7.6h-7.6v-7.6zm11.3 0h7.6v7.6h-7.6v-7.6zm11.4 0h7.6v7.6h-7.6v-7.6zm11.3 0h7.6v7.6h-7.6v-7.6zm11.4 0h7.5v7.6h-7.5v-7.6zm11.3 0h7.6v7.6h-7.6v-7.6zm11.4 0h7.5v7.6h-7.5v-7.6zm11.3 0h7.6v7.6h-7.6v-7.6zm11.4 0h7.5v7.6h-7.5v-7.6zm11.3 0h7.6v7.6h-7.6v-7.6zm11.4 0h7.5v7.6H296v-7.6zm11.3 0h7.6v7.6h-7.6v-7.6zm11.3 0h7.6v7.6h-7.6v-7.6zm11.4 0h7.6v7.6H330v-7.6zm11.3 0h7.6v7.6h-7.6v-7.6zm11.4 0h7.6v7.6h-7.6v-7.6zm11.3 0h7.6v7.6H364v-7.6zm11.4 0h7.5v7.6h-7.5v-7.6zM23.7 236.2h7.5v7.5h-7.5v-7.5zm11.3 0h7.6v7.5H35v-7.5zm11.3 0h7.6v7.5h-7.6v-7.5zm11.4 0h7.6v7.5h-7.6v-7.5zm11.3 0h7.6v7.5H69v-7.5zm11.4 0h7.5v7.5h-7.5v-7.5zm11.3 0h7.6v7.5h-7.6v-7.5zm11.4 0h7.5v7.5h-7.5v-7.5zm11.3 0h7.6v7.5h-7.6v-7.5zm11.4 0h7.5v7.5h-7.5v-7.5zm11.3 0h7.6v7.5h-7.6v-7.5zm11.4 0h7.5v7.5h-7.5v-7.5zm11.3 0h7.6v7.5h-7.6v-7.5zm11.3 0h7.6v7.5h-7.6v-7.5zm11.4 0h7.6v7.5h-7.6v-7.5zm11.3 0h7.6v7.5h-7.6v-7.5zm11.4 0h7.6v7.5h-7.6v-7.5zm11.3 0h7.6v7.5h-7.6v-7.5zm11.4 0h7.5v7.5h-7.5v-7.5zm11.3 0h7.6v7.5h-7.6v-7.5zm11.4 0h7.5v7.5h-7.5v-7.5zm11.3 0h7.6v7.5h-7.6v-7.5zm11.4 0h7.5v7.5h-7.5v-7.5zm11.3 0h7.6v7.5h-7.6v-7.5zm11.4 0h7.5v7.5H296v-7.5zm11.3 0h7.6v7.5h-7.6v-7.5zm11.3 0h7.6v7.5h-7.6v-7.5zm11.4 0h7.6v7.5H330v-7.5zm11.3 0h7.6v7.5h-7.6v-7.5zm11.4 0h7.6v7.5h-7.6v-7.5zm11.3 0h7.6v7.5H364v-7.5zm11.4 0h7.5v7.5h-7.5v-7.5zM23.7 247.5h7.5v7.6h-7.5v-7.6zm11.3 0h7.6v7.6H35v-7.6zm11.3 0h7.6v7.6h-7.6v-7.6zm11.4 0h7.6v7.6h-7.6v-7.6zm11.3 0h7.6v7.6H69v-7.6zm11.4 0h7.5v7.6h-7.5v-7.6zm11.3 0h7.6v7.6h-7.6v-7.6zm11.4 0h7.5v7.6h-7.5v-7.6zm11.3 0h7.6v7.6h-7.6v-7.6zm11.4 0h7.5v7.6h-7.5v-7.6zm11.3 0h7.6v7.6h-7.6v-7.6zm11.4 0h7.5v7.6h-7.5v-7.6zm11.3 0h7.6v7.6h-7.6v-7.6zm11.3 0h7.6v7.6h-7.6v-7.6zm11.4 0h7.6v7.6h-7.6v-7.6zm11.3 0h7.6v7.6h-7.6v-7.6zm11.4 0h7.6v7.6h-7.6v-7.6zm11.3 0h7.6v7.6h-7.6v-7.6zm11.4 0h7.5v7.6h-7.5v-7.6zm11.3 0h7.6v7.6h-7.6v-7.6zm11.4 0h7.5v7.6h-7.5v-7.6zm11.3 0h7.6v7.6h-7.6v-7.6zm11.4 0h7.5v7.6h-7.5v-7.6zm11.3 0h7.6v7.6h-7.6v-7.6zm11.4 0h7.5v7.6H296v-7.6zm11.3 0h7.6v7.6h-7.6v-7.6zm11.3 0h7.6v7.6h-7.6v-7.6zm11.4 0h7.6v7.6H330v-7.6zm11.3 0h7.6v7.6h-7.6v-7.6zm11.4 0h7.6v7.6h-7.6v-7.6zm11.3 0h7.6v7.6H364v-7.6zm11.4 0h7.5v7.6h-7.5v-7.6z"/><path class="st5" d="M15 42h3.5v8.5H15V42z"/><text transform="translate(15.015 50.202)" class="st6 st7">1</text><path class="st5" d="M15.1 53.3h3.5v8.5h-3.5v-8.5z"/><text transform="translate(15.11 61.547)" class="st6 st7">2</text><path class="st5" d="M15.1 64.7h3.5v8.5h-3.5v-8.5z"/><text transform="translate(15.11 72.893)" class="st6 st7">3</text><path class="st5" d="M15.1 76h3.5v8.5h-3.5V76z"/><text transform="translate(15.11 84.24)" class="st6 st7">4</text><path class="st5" d="M15.1 87.4h3.5v8.5h-3.5v-8.5z"/><text transform="translate(15.11 95.585)" class="st6 st7">5</text><path class="st5" d="M15.1 98.7h3.5v8.5h-3.5v-8.5z"/><text transform="translate(15.11 106.93)" class="st6 st7">6</text><path class="st5" d="M15.1 110.1h3.5v8.5h-3.5v-8.5z"/><text transform="translate(15.11 118.276)" class="st6 st7">7</text><path class="st5" d="M15.1 121.4h3.5v8.5h-3.5v-8.5z"/><text transform="translate(15.11 129.623)" class="st6 st7">8</text><path class="st5" d="M15.1 132.8h3.5v8.5h-3.5v-8.5z"/><text transform="translate(15.11 140.968)" class="st6 st7">9</text><path class="st5" d="M11.9 143.8h6.9v8.5h-6.9v-8.5z"/><text transform="translate(11.879 152.022)" class="st6 st7">10</text><path class="st5" d="M12.3 155.2h6.5v8.5h-6.5v-8.5z"/><text transform="translate(12.28 163.369)" class="st6 st7">1</text><text transform="translate(15.28 163.369)" class="st6 st7">1</text><path class="st5" d="M11.9 166.5h6.9v8.5h-6.9v-8.5z"/><text transform="translate(11.879 174.707)" class="st6 st7">12</text><path class="st5" d="M11.9 177.8h6.9v8.5h-6.9v-8.5z"/><text transform="translate(11.879 186.052)" class="st6 st7">13</text><path class="st5" d="M11.9 189.2h6.9v8.5h-6.9v-8.5z"/><text transform="translate(11.879 197.397)" class="st6 st7">14</text><path class="st5" d="M11.9 200.5h6.9v8.5h-6.9v-8.5z"/><text transform="translate(11.879 208.744)" class="st6 st7">15</text><path class="st5" d="M11.9 211.9h6.9v8.5h-6.9v-8.5z"/><text transform="translate(11.879 220.09)" class="st6 st7">16</text><path class="st5" d="M11.9 223.2h6.9v8.5h-6.9v-8.5z"/><text transform="translate(11.879 231.435)" class="st6 st7">17</text><path class="st5" d="M11.9 234.6h6.9v8.5h-6.9v-8.5z"/><text transform="translate(11.879 242.78)" class="st6 st7">18</text><path class="st5" d="M11.9 245.9h6.9v8.5h-6.9v-8.5z"/><text transform="translate(11.879 254.127)" class="st6 st7">19</text><path class="st8" d="M23.7 258.9h7.5v7.5h-7.5v-7.5zm11.3 0h7.6v7.5H35v-7.5zm11.3 0h7.6v7.5h-7.6v-7.5zm11.4 0h7.6v7.5h-7.6v-7.5zm11.3 0h7.6v7.5H69v-7.5zm11.4 0h7.5v7.5h-7.5v-7.5zm11.3 0h7.6v7.5h-7.6v-7.5zm11.4 0h7.5v7.5h-7.5v-7.5zm11.3 0h7.6v7.5h-7.6v-7.5zm11.4 0h7.5v7.5h-7.5v-7.5zm11.3 0h7.6v7.5h-7.6v-7.5zm11.4 0h7.5v7.5h-7.5v-7.5zm11.3 0h7.6v7.5h-7.6v-7.5zm11.3 0h7.6v7.5h-7.6v-7.5zm11.4 0h7.6v7.5h-7.6v-7.5zm11.3 0h7.6v7.5h-7.6v-7.5zm11.4 0h7.6v7.5h-7.6v-7.5zm11.3 0h7.6v7.5h-7.6v-7.5zm11.4 0h7.5v7.5h-7.5v-7.5zm11.3 0h7.6v7.5h-7.6v-7.5zm11.4 0h7.5v7.5h-7.5v-7.5zm11.3 0h7.6v7.5h-7.6v-7.5zm11.4 0h7.5v7.5h-7.5v-7.5zm11.3 0h7.6v7.5h-7.6v-7.5zm11.4 0h7.5v7.5H296v-7.5zm11.3 0h7.6v7.5h-7.6v-7.5zm11.3 0h7.6v7.5h-7.6v-7.5zm11.4 0h7.6v7.5H330v-7.5zm11.3 0h7.6v7.5h-7.6v-7.5zm11.4 0h7.6v7.5h-7.6v-7.5zm11.3 0h7.6v7.5H364v-7.5zm11.4 0h7.5v7.5h-7.5v-7.5z"/><path class="st9" d="M248.7 113.2v-10l-5.6-5.4h-9.9l15.5 15.4z"/><path class="st10" d="M248.7 113.2v-10l-5.6-5.4h-9.9l15.5 15.4z"/><path class="st9" d="M248.6 153.1l.1-9.8-45.3-45.4h-10l55.2 55.2z"/><path class="st10" d="M248.6 153.1l.1-9.8-45.3-45.4h-10l55.2 55.2z"/><path class="st9" d="M67.2 201.4v10h10l-10-10z"/><path class="st10" d="M67.2 201.4v10h10l-10-10z"/><path class="st9" d="M67.2 181.5v9.9l19.9 19.9h10l-29.9-29.8z"/><path class="st10" d="M67.2 181.5v9.9l19.9 19.9h10l-29.9-29.8z"/><path class="st9" d="M67.2 161.6v9.9l40 39.9h9.9l-49.9-49.8z"/><path class="st11" d="M67.2 161.6v9.9l40 39.9h9.9l-49.9-49.8z"/><path class="st9" d="M67.2 141.6v9.9l60 59.9h9.9l-69.9-69.8z"/><path class="st11" d="M67.2 141.6v9.9l60 59.9h9.9l-69.9-69.8z"/><path class="st9" d="M67.2 121.7v9.9l79.9 79.8h9.9l-89.8-89.7z"/><path class="st11" d="M67.2 121.7v9.9l79.9 79.8h9.9l-89.8-89.7z"/><path class="st9" d="M67.2 101.6v10l99.9 99.8h9.9L67.2 101.6z"/><path class="st10" d="M67.2 101.6v10l99.9 99.8h9.9L67.2 101.6z"/><path class="st9" d="M83.6 97.9H73.5l113.4 113.5H197L83.6 97.9z"/><path class="st11" d="M83.6 97.9H73.5l113.4 113.5H197L83.6 97.9z"/><path class="st9" d="M103.5 98h-9.9l113.5 113.4h9.8L103.5 98z"/><path class="st11" d="M103.5 98h-9.9l113.5 113.4h9.8L103.5 98z"/><path class="st9" d="M123.6 97.9h-10.2l113.5 113.5H237L123.6 97.9z"/><path class="st11" d="M123.6 97.9h-10.2l113.5 113.5H237L123.6 97.9z"/><path class="st9" d="M143.4 98l-10-.1 113.5 113.5h1.7v-8.2L143.4 98z"/><path class="st11" d="M143.4 98l-10-.1 113.5 113.5h1.7v-8.2L143.4 98z"/><path class="st9" d="M163.5 98h-10l95.1 95.1.1-9.9L163.5 98z"/><path class="st11" d="M163.5 98h-10l95.1 95.1.1-9.9L163.5 98z"/><path class="st9" d="M183.4 97.9h-10l75.2 75.3v-10l-65.2-65.3z"/><path class="st11" d="M183.4 97.9h-10l75.2 75.3v-10l-65.2-65.3z"/><path class="st9" d="M248.7 133.3v-10L223.4 98h-10.1l35.4 35.3z"/><path class="st10" d="M248.7 133.3v-10L223.4 98h-10.1l35.4 35.3z"/><path d="M8.7 268.5H385V25.9h-3.8L377.4 70l3.8 43.4-3.8 90.8 1.9 56.7-47.2-1.9-75.7 3.8-83.2-3.8-134.3 1.9-30.4-.6.2 8.2z" fill-rule="evenodd" clip-rule="evenodd" fill="#fff"/><text transform="translate(432.946 144.963)" class="st6 st13">Image ROI</text><text transform="translate(432.928 202.989)" class="st6 st13">Auto function ROI</text><path d="M425.8 199.3H274.6m151.2-57.4H191" fill="none" stroke="#000" stroke-width="1.417" stroke-miterlimit="10"/><path class="st5" d="M428.5 28.5h16v16.1h-16V28.5z"/><path d="M428.5 28.5h16v16.1h-16V28.5z" fill="#9ba566"/><path d="M428.5 28.5h16v16.1h-16V28.5z" fill="#9ba566" stroke="#000" stroke-width=".001" stroke-miterlimit="3.864"/><path class="st9" d="M428.5 41.1v3.6h3.6l-3.6-3.6z"/><path class="st10" d="M428.5 41.1v3.6h3.6l-3.6-3.6z"/><path class="st9" d="M428.5 34v3.5l7.1 7.1h3.6L428.5 34z"/><path class="st10" d="M428.5 34v3.5l7.1 7.1h3.6L428.5 34z"/><path class="st9" d="M444.5 39.2v-3.5l-7.1-7.2h-3.6l10.7 10.7z"/><path class="st10" d="M444.5 39.2v-3.5l-7.1-7.2h-3.6l10.7 10.7z"/><path class="st9" d="M444.5 32.1v-3.6h-3.6l3.6 3.6z"/><path class="st10" d="M444.5 32.1v-3.6h-3.6l3.6 3.6z"/><path class="st9" d="M428.5 28.5v1.9l14.3 14.2h1.7v-1.7l-14.3-14.4h-1.7z"/><path class="st10" d="M428.5 28.5v1.9l14.3 14.2h1.7v-1.7l-14.3-14.4h-1.7z"/><text transform="translate(451.898 41.084)" class="st6 st13">= overlap</text></svg>