<svg version="1.0" xmlns="http://www.w3.org/2000/svg" viewBox="0 0 515.5 402.5"><g clip-rule="evenodd"><path fill-rule="evenodd" fill="#1D1D1B" d="M494.1 374.8V371l9.4 3.8-9.4 3.8z"/><path fill="none" stroke="#1D1D1B" stroke-width="2.5" stroke-miterlimit="3.864" d="M84.1 374.8h410.6"/></g><path fill="#80FF80" d="M238.2 333.3h28.7v9.6h-28.7v-9.6z"/><path fill="none" stroke="#80FF80" stroke-miterlimit="3.864" d="M238.2 333.3h28.7v9.6h-28.7v-9.6z"/><g clip-rule="evenodd"><path fill-rule="evenodd" fill="#B3B3B3" d="M268.4 355.8h4.4l-4.4 10.9-4.4-10.9z"/><path fill="none" stroke="#B3B3B3" stroke-width="3" stroke-miterlimit="3.864" stroke-dasharray="2,2" d="M268.4 346.2v10.3"/></g><path clip-rule="evenodd" fill="none" stroke="#1D1D1B" stroke-miterlimit="3.864" d="M83.5 298.3H121m0-14.4v14.4m4.8-14.4v14.4m-4.8-14.4h4.8m0 14.4h33.4m0-14.4v14.4m4.8-14.4v14.4m-4.8-14.4h4.8m0 14.4h33.5m0-14.4v14.4m4.7-14.4v14.4m-4.7-14.4h4.7m71.8 0v14.4m4.7-14.4v14.4m-4.7-14.4h4.7m0 14.4h33.5m0-14.4v14.4m4.8-14.4v14.4m-4.8-14.4h4.8m0 14.4h33.5m0-14.4v14.4m4.7-14.4v14.4m-4.7-14.4h4.7m-153 14.5h33.5m0-14.4v14.4m4.8-14.4v14.4m-4.8-14.4h4.8m0 14.4H274m81.2-.1h33.5m0-14.3v14.3"/><path clip-rule="evenodd" fill="none" stroke="#999" stroke-width="1.8" stroke-miterlimit="3.864" d="M97 261.5v90.1"/><path clip-rule="evenodd" fill="none" stroke="#1D1D1B" stroke-miterlimit="3.864" d="M116.6 298.3h4.7"/><g clip-rule="evenodd"><path fill-rule="evenodd" fill="#1D1D1B" d="M197.5 304.8l2 4.2 2.1-4.2z"/><path fill="none" stroke="#1D1D1B" stroke-miterlimit="3.864" d="M197.5 304.8l2 4.2 2.1-4.2z"/></g><path fill="#E64614" d="M199.6 311.5h8v8h-8v-8z"/><path fill="none" d="M199.6 311.5h8v8h-8v-8z"/><path fill="none" d="M201.3 312h4.5v8.8h-4.5z"/><text transform="translate(200.947 318.498)" fill="#FFF" font-family="Helvetica,Arial,sans-serif" font-size="7.968">1</text><g clip-rule="evenodd"><path fill-rule="evenodd" fill="#1D1D1B" d="M235.7 304.9l2.1 4.2 2.1-4.2z"/><path fill="none" stroke="#1D1D1B" stroke-miterlimit="3.864" d="M235.7 304.9l2.1 4.2 2.1-4.2z"/></g><path fill="#E64614" d="M237.8 311.5h8.1v8h-8.1v-8z"/><path fill="none" d="M237.8 311.5h8.1v8h-8.1v-8z"/><path fill="none" d="M239.6 312h4.5v8.8h-4.5z"/><text transform="translate(239.196 318.495)" fill="#FFF" font-family="Helvetica,Arial,sans-serif" font-size="7.968">1</text><g clip-rule="evenodd"><path fill-rule="evenodd" fill="#80FF80" d="M314.7 333.3h31.8v9.6h-31.8z"/><path fill="none" stroke="#80FF80" stroke-miterlimit="3.864" d="M314.7 333.3h31.8v9.6h-31.8z"/></g><g clip-rule="evenodd"><path fill-rule="evenodd" fill="#B3B3B3" d="M348.3 355.8h4.4l-4.4 11-4.4-11z"/><path fill="none" stroke="#B3B3B3" stroke-width="3" stroke-miterlimit="3.864" stroke-dasharray="2,2" d="M348.3 346.2v10.3"/></g><g clip-rule="evenodd"><path fill-rule="evenodd" fill="#1D1D1B" d="M312.2 304.8l2.1 4.2 2.1-4.2z"/><path fill="none" stroke="#1D1D1B" stroke-miterlimit="3.864" d="M312.2 304.8l2.1 4.2 2.1-4.2z"/></g><path fill="#E64614" d="M314.3 311.5h8.1v8h-8.1v-8z"/><path fill="none" d="M314.3 311.5h8.1v8h-8.1v-8z"/><path fill="none" d="M316.1 312h4.5v8.8h-4.5z"/><text transform="translate(315.685 318.505)" fill="#FFF" font-family="Helvetica,Arial,sans-serif" font-size="7.968">3</text><g clip-rule="evenodd"><path fill-rule="evenodd" fill="#80FF80" d="M352.9 333.3h8.4v9.6h-8.4z"/><path fill="none" stroke="#80FF80" stroke-miterlimit="3.864" d="M352.9 333.3h8.4v9.6h-8.4z"/></g><g clip-rule="evenodd"><path fill-rule="evenodd" fill="#B3B3B3" d="M363.1 355.8h4.4l-4.4 11-4.3-11z"/><path fill="none" stroke="#B3B3B3" stroke-width="3" stroke-miterlimit="3.864" stroke-dasharray="2,2" d="M363.1 346.2v10.3"/></g><g clip-rule="evenodd"><path fill-rule="evenodd" fill="#1D1D1B" d="M350.5 304.8l2 4.2 2.1-4.2z"/><path fill="none" stroke="#1D1D1B" stroke-miterlimit="3.864" d="M350.5 304.8l2 4.2 2.1-4.2z"/></g><path fill="#E64614" d="M352.5 311.5h8.1v8h-8.1v-8z"/><path fill="none" d="M352.5 311.5h8.1v8h-8.1v-8z"/><path fill="none" d="M354.3 312h4.5v8.8h-4.5z"/><text transform="translate(353.933 318.505)" fill="#FFF" font-family="Helvetica,Arial,sans-serif" font-size="7.968">4</text><path fill="#80FF80" d="M391.2 333.3h28.7v9.6h-28.7v-9.6z"/><path fill="none" stroke="#80FF80" stroke-miterlimit="3.864" d="M391.2 333.3h28.7v9.6h-28.7v-9.6z"/><g clip-rule="evenodd"><path fill-rule="evenodd" fill="#B3B3B3" d="M421.4 355.8h4.4l-4.4 10.9-4.4-10.9z"/><path fill="none" stroke="#B3B3B3" stroke-width="3" stroke-miterlimit="3.864" stroke-dasharray="2,2" d="M421.4 346.1v10.4"/></g><g clip-rule="evenodd"><path fill-rule="evenodd" fill="#1D1D1B" d="M388.7 304.9l2.1 4.2 2.1-4.2z"/><path fill="none" stroke="#1D1D1B" stroke-miterlimit="3.864" d="M388.7 304.9l2.1 4.2 2.1-4.2z"/></g><path fill="#E64614" d="M390.8 311.5h8.1v8h-8.1v-8z"/><path fill="none" d="M390.8 311.5h8.1v8h-8.1v-8z"/><path fill="none" d="M392.6 312h4.5v8.8h-4.5z"/><text transform="translate(392.185 318.488)" fill="#FFF" font-family="Helvetica,Arial,sans-serif" font-size="7.968">5</text><path fill="#80FF80" d="M429.4 333.3h28.7v9.6h-28.7v-9.6z"/><path fill="none" stroke="#80FF80" stroke-miterlimit="3.864" d="M429.4 333.3h28.7v9.6h-28.7v-9.6z"/><g clip-rule="evenodd"><path fill-rule="evenodd" fill="#B3B3B3" d="M459.7 355.8h4.3l-4.3 10.9-4.4-10.9z"/><path fill="none" stroke="#B3B3B3" stroke-width="3" stroke-miterlimit="3.864" stroke-dasharray="2,2" d="M459.7 346.1v10.4"/></g><path clip-rule="evenodd" fill="none" stroke="#1D1D1B" stroke-miterlimit="3.864" d="M426.9 283.9v14.4m0-14.4h4.8m-43 .1h4.8m0 0v14.3m0 0h33.4"/><g clip-rule="evenodd"><path fill-rule="evenodd" fill="#1D1D1B" d="M427 304.9l2 4.2 2.1-4.2z"/><path fill="none" stroke="#1D1D1B" stroke-miterlimit="3.864" d="M427 304.9l2 4.2 2.1-4.2z"/></g><path fill="#E64614" d="M429 311.5h8.1v8H429v-8z"/><path fill="none" d="M429 311.5h8.1v8H429v-8z"/><path fill="none" d="M430.8 312h4.5v8.8h-4.5z"/><text transform="translate(430.427 318.488)" fill="#FFF" font-family="Helvetica,Arial,sans-serif" font-size="7.968">5</text><g clip-rule="evenodd"><path fill-rule="evenodd" fill="#1D1D1B" d="M159.2 304.8l2.1 4.2 2.1-4.2z"/><path fill="none" stroke="#1D1D1B" stroke-miterlimit="3.864" d="M159.2 304.8l2.1 4.2 2.1-4.2z"/></g><path fill="#E64614" d="M161.3 311.5h8.1v8h-8.1v-8z"/><path fill="none" d="M161.3 311.5h8.1v8h-8.1v-8z"/><path fill="none" d="M163.1 312h4.5v8.8h-4.5z"/><text transform="translate(162.696 318.498)" fill="#FFF" font-family="Helvetica,Arial,sans-serif" font-size="7.968">1</text><path fill="#80FF80" d="M161.7 333.3h28.7v9.6h-28.7v-9.6z"/><path fill="none" stroke="#80FF80" stroke-miterlimit="3.864" d="M161.7 333.3h28.7v9.6h-28.7v-9.6z"/><g clip-rule="evenodd"><path fill-rule="evenodd" fill="#B3B3B3" d="M192.1 355.8h4.3l-4.3 11-4.4-11z"/><path fill="none" stroke="#B3B3B3" stroke-width="3" stroke-miterlimit="3.864" stroke-dasharray="2,2" d="M192.1 346.2v10.3"/></g><path fill="#80FF80" d="M200 333.3h28.6v9.6H200v-9.6z"/><path fill="none" stroke="#80FF80" stroke-miterlimit="3.864" d="M200 333.3h28.6v9.6H200v-9.6z"/><g clip-rule="evenodd"><path fill-rule="evenodd" fill="#B3B3B3" d="M230.3 355.8h4.4l-4.4 11-4.4-11z"/><path fill="none" stroke="#B3B3B3" stroke-width="3" stroke-miterlimit="3.864" stroke-dasharray="2,2" d="M230.3 346.2v10.3"/></g><g clip-rule="evenodd"><path fill-rule="evenodd" fill="#1D1D1B" d="M121 304.8l2.1 4.2 2-4.2z"/><path fill="none" stroke="#1D1D1B" stroke-miterlimit="3.864" d="M121 304.8l2.1 4.2 2-4.2z"/></g><path fill="#E64614" d="M123.1 311.5h8v8h-8v-8z"/><path fill="none" d="M123.1 311.5h8v8h-8v-8z"/><path fill="none" d="M124.9 312h4.5v8.8h-4.5z"/><text transform="translate(124.46 318.499)" fill="#FFF" font-family="Helvetica,Arial,sans-serif" font-size="7.968">0</text><g clip-rule="evenodd"><path fill-rule="evenodd" fill="#80FF80" d="M123.5 333.3h14v9.6h-14z"/><path fill="none" stroke="#80FF80" stroke-miterlimit="3.864" d="M123.5 333.3h14v9.6h-14z"/><path fill-rule="evenodd" fill="#B3B3B3" d="M139.3 355.8h4.4l-4.4 11-4.4-11z"/><path fill="none" stroke="#B3B3B3" stroke-width="3" stroke-miterlimit="3.864" stroke-dasharray="2,2" d="M139.3 346.2v10.3"/></g><g clip-rule="evenodd"><path fill-rule="evenodd" fill="#1D1D1B" d="M274 304.9l2 4.2 2.1-4.2z"/><path fill="none" stroke="#1D1D1B" stroke-miterlimit="3.864" d="M274 304.9l2 4.2 2.1-4.2z"/></g><path fill="#E64614" d="M276 311.5h8.1v8.1H276v-8.1z"/><path fill="none" d="M276 311.5h8.1v8.1H276v-8.1z"/><path fill="none" d="M277.8 312.1h4.5v8.8h-4.5z"/><text transform="translate(277.444 318.574)" fill="#FFF" font-family="Helvetica,Arial,sans-serif" font-size="7.968">2</text><path fill="#80FF80" d="M276.5 333.4h28.6v9.6h-28.6v-9.6z"/><path fill="none" stroke="#80FF80" stroke-miterlimit="3.864" d="M276.5 333.4h28.6v9.6h-28.6v-9.6z"/><g clip-rule="evenodd"><path fill-rule="evenodd" fill="#B3B3B3" d="M306.7 355.9h4.4l-4.4 10.9-4.4-10.9z"/><path fill="none" stroke="#B3B3B3" stroke-width="3" stroke-miterlimit="3.864" stroke-dasharray="2,2" d="M306.7 346.2v10.4"/></g><path clip-rule="evenodd" fill="none" stroke="#1D1D1B" stroke-miterlimit="3.864" d="M465.2 283.9v14.4m4.8-14.4v14.4m-4.8-14.4h4.8m0 14.4h21.5m-59.8 0h33.5"/><g clip-rule="evenodd"><path fill-rule="evenodd" fill="#80FF80" d="M467.7 333.3h14v9.6h-14z"/><path fill="none" stroke="#80FF80" stroke-miterlimit="3.864" d="M467.7 333.3h14v9.6h-14z"/></g><g clip-rule="evenodd"><path fill-rule="evenodd" fill="#B3B3B3" d="M483.5 355.8h4.4l-4.4 11-4.3-11z"/><path fill="none" stroke="#B3B3B3" stroke-width="3" stroke-miterlimit="3.864" stroke-dasharray="2,2" d="M483.5 346.2v10.3"/></g><g clip-rule="evenodd"><path fill-rule="evenodd" fill="#1D1D1B" d="M465.2 304.9l2.1 4.2 2-4.2z"/><path fill="none" stroke="#1D1D1B" stroke-miterlimit="3.864" d="M465.2 304.9l2.1 4.2 2-4.2z"/></g><path fill="#E64614" d="M467.3 311.5h8v8h-8v-8z"/><path fill="none" d="M467.3 311.5h8v8h-8v-8z"/><path fill="none" d="M469.1 312h4.5v8.8h-4.5z"/><text transform="translate(468.675 318.488)" fill="#FFF" font-family="Helvetica,Arial,sans-serif" font-size="7.968">0</text><path clip-rule="evenodd" fill="none" stroke="#1D1D1B" stroke-miterlimit="3.864" d="M431.7 283.9v14.4"/><g clip-rule="evenodd"><path fill-rule="evenodd" fill="#1D1D1B" d="M467.3 277.4h2l-2 5-2-5z"/><path fill="none" stroke="#1D1D1B" stroke-linejoin="round" stroke-miterlimit="3.864" d="M467.3 277.8v-10.9"/></g><path clip-rule="evenodd" fill="none" stroke="#999" stroke-width="1.8" stroke-miterlimit="3.864" d="M478.4 261.5v90.1"/><path clip-rule="evenodd" fill="none" stroke="#000" stroke-miterlimit="10" d="M12.5 12h313.7v106H12.5z"/><path fill="#80FF80" d="M22.4 62.3h30v12h-30v-12z"/><path fill="none" stroke="#80FF80" stroke-miterlimit="3.864" d="M22.4 62.3h30v12h-30v-12z"/><g clip-rule="evenodd"><path fill-rule="evenodd" fill="#B3B3B3" d="M37.2 94.9h5.5l-5.5 13.7-5.5-13.7z"/><path fill="none" stroke="#B3B3B3" stroke-width="3" stroke-miterlimit="3.864" stroke-dasharray="2,2" d="M37.2 82.8v13"/></g><g clip-rule="evenodd"><path fill-rule="evenodd" fill="#1D1D1B" d="M34.6 24.7l2.6 5.2 2.6-5.2z"/><path fill="none" stroke="#1D1D1B" stroke-miterlimit="3.864" d="M34.6 24.7l2.6 5.2 2.6-5.2z"/></g><path fill="#E64614" d="M32.1 41.4h10.2v10.1H32.1V41.4z"/><path fill="#E64614" d="M32.1 41.4h10.2v10.1H32.1V41.4z"/><path fill="none" d="M34.4 40H40v11h-5.6z"/><text transform="translate(34.4 50.188)" fill="#FFF" font-family="Helvetica,Arial,sans-serif" font-size="10">0</text><path clip-rule="evenodd" fill="none" stroke="#000" stroke-miterlimit="10" d="M12.5 132h313.7v78H12.5z"/><text transform="translate(77.076 242.788)"><tspan x="0" y="0" fill="#1D1D1D" font-family="Helvetica,Arial,sans-serif" font-size="10">Sequencer</tspan><tspan x="6" y="12" fill="#1D1D1D" font-family="Helvetica,Arial,sans-serif" font-size="10">enabled</tspan></text><text transform="translate(454.243 242.788)"><tspan x="0" y="0" fill="#1D1D1D" font-family="Helvetica,Arial,sans-serif" font-size="10">Sequencer</tspan><tspan x="4.8" y="12" fill="#1D1D1D" font-family="Helvetica,Arial,sans-serif" font-size="10">disabled</tspan></text><text transform="translate(282.502 392.759)" fill="#1D1D1D" font-family="Helvetica,Arial,sans-serif" font-weight="bold" font-size="11">Time</text><text transform="translate(271.2 246.22)"><tspan x="0" y="0" fill="#1D1D1D" font-family="Helvetica,Arial,sans-serif" font-size="10">Sequence set cycle</tspan><tspan x="25.5" y="12" fill="#1D1D1D" font-family="Helvetica,Arial,sans-serif" font-size="10">restarts</tspan></text><text transform="translate(18.5 298.55)"><tspan x="0" y="0" fill="#1D1D1D" font-family="Helvetica,Arial,sans-serif" font-size="10">Frame Start </tspan><tspan x="0" y="12" fill="#1D1D1D" font-family="Helvetica,Arial,sans-serif" font-size="10">trigger signal</tspan></text><text transform="translate(62.3 30.54)" fill="#1D1D1D" font-family="Helvetica,Arial,sans-serif" font-size="10">= Camera selects a sequence set</text><text transform="translate(62.3 49.074)" fill="#1D1D1D" font-family="Helvetica,Arial,sans-serif" font-size="10">= Sequence set used for image acquisition (index number)</text><text transform="translate(62.3 72.206)" fill="#1D1D1D" font-family="Helvetica,Arial,sans-serif" font-size="10">= Frame exposure and readout</text><text transform="translate(62.3 98.266)" fill="#1D1D1D" font-family="Helvetica,Arial,sans-serif" font-size="10">= Frame transmission</text><path fill="#1D1D1D" stroke="#1D1D1B" stroke-linejoin="round" stroke-miterlimit="3.864" d="M467.3 266.9L357.1 252"/><text transform="translate(22.363 164.25)"><tspan x="0" y="0" fill="#1D1D1D" font-family="Helvetica,Arial,sans-serif" font-size="10">SequenceSetTotalNumber = 6</tspan><tspan x="0" y="12" fill="#1D1D1D" font-family="Helvetica,Arial,sans-serif" font-size="10">SequenceSetExecutions = 1 for sequence sets 0, 2, 3, and 4</tspan><tspan x="262.3" y="12" fill="#1D1D1D" font-family="Helvetica,Arial,sans-serif" font-size="10" letter-spacing="23"> </tspan><tspan x="0" y="24" fill="#1D1D1D" font-family="Helvetica,Arial,sans-serif" font-size="10">SequenceSetExecutions = 2 for sequence set 5</tspan><tspan x="0" y="36" fill="#1D1D1D" font-family="Helvetica,Arial,sans-serif" font-size="10">SequenceSetExecutions = 3 for sequence set 1</tspan></text><text transform="translate(22.541 147)" fill="#1D1D1D" font-family="Helvetica,Arial,sans-serif" font-size="10">Settings:</text></svg>