<svg version="1.0" xmlns="http://www.w3.org/2000/svg" viewBox="0 0 550 150"><path fill="#0090D4" d="M364 6.4h134.3v44.4H364z"/><path fill="#5EC5ED" d="M208.6 6.5h134.3v44.4H208.6z"/><path fill="#BDE4F7" d="M5.9 6.5h202.9v44.4H5.9z"/><path fill="none" stroke="#000" stroke-width=".709" stroke-miterlimit="3.864" d="M5.9 6.5h533.3v8.7l-3.3 8.6 7.1 15.7-6.2 11.4H5.9V6.5z"/><path clip-rule="evenodd" fill="none" stroke="#000" stroke-width=".709" stroke-miterlimit="3.864" stroke-dasharray="2,2" d="M169.3 6.7v44.7M129.9 6.5v44.7M343.3 6.7v44.7m-78.9-45v44.7m39.5-44.7v44.7M208.7 6.2v44.7M363.9 6.3V51M498.4 6.7v44.7M419.6 6.5v44.6M459 6.4v44.7"/><path clip-rule="evenodd" fill="none" stroke="#000" stroke-width=".709" stroke-miterlimit="3.864" d="M208.6 108.1h66.3m0 0h38.2m-307.4.1h124.2m-124 5.9v-11.7m124 5.7H168m40.7 6.2v-11.8m-40.7 5.6h40.6m134.7 5.9v-11.7m-44.9 5.8h38m27.5 6.1v-11.8m-8.7 5.7h54.1m89 5.7V102m-50.9 6.2h51m-89.1-.1h38.1m-111 0h33.4M5.9 78.2h138.7m-138.7 6V72.4m138.7 5.8h38.1M129.8 84V72.3m39.6 11.6V72.2m39.3 11.7V72.2m-26 6h38.1m43.6 5.9V72.3m39.4 11.8V72.3M343 84.1V72.4m-29.8 5.8h38m12.8 5.9V72.3m6.1 5.9h54m-4.5 5.8V72.3M459 83.9V72.2m39.3 11.9V72.4m-36.1 5.8h36.1m-74.2 0h38.2m-241.7 0h54.2m.2 0h38.2m38.1 0h18.9m-364.3 60h492.4M5.9 144v-11.7m492.4 11.9v-11.8"/><text transform="translate(52.82 26.444)"><tspan x="0" y="0" font-family="Helvetica,Arial,sans-serif" font-size="8.767">Chunk 1</tspan><tspan x="-22.5" y="10.5" font-family="Helvetica,Arial,sans-serif" font-size="8.767">Image data payload</tspan></text><text transform="translate(133.645 26.444)"><tspan x="0" y="0" font-family="Helvetica,Arial,sans-serif" font-size="8.767">Chunk 1</tspan><tspan x="11.8" y="10.5" font-family="Helvetica,Arial,sans-serif" font-size="8.767">ID</tspan></text><text transform="translate(307.659 26.446)"><tspan x="0" y="0" font-family="Helvetica,Arial,sans-serif" font-size="8.767">Chunk 2</tspan><tspan x="2.5" y="10.5" font-family="Helvetica,Arial,sans-serif" font-size="8.767">Length</tspan></text><text transform="translate(173.014 26.444)"><tspan x="0" y="0" font-family="Helvetica,Arial,sans-serif" font-size="8.767">Chunk 1</tspan><tspan x="2.5" y="10.5" font-family="Helvetica,Arial,sans-serif" font-size="8.767">Length</tspan></text><text transform="translate(349.07 32.225)" font-family="Helvetica,Arial,sans-serif" font-size="8.767">...</text><text transform="translate(267.464 26.445)"><tspan x="0" y="0" font-family="Helvetica,Arial,sans-serif" font-size="8.767">Chunk 2</tspan><tspan x="11.8" y="10.5" font-family="Helvetica,Arial,sans-serif" font-size="8.767">ID</tspan></text><text transform="translate(423.23 26.444)"><tspan x="0" y="0" fill="#E6E6E6" font-family="Helvetica,Arial,sans-serif" font-size="8.767">Chunk N</tspan><tspan x="12.5" y="10.5" fill="#E6E6E6" font-family="Helvetica,Arial,sans-serif" font-size="8.767">ID</tspan></text><text transform="translate(462.39 26.446)"><tspan x="0" y="0" fill="#E6E6E6" font-family="Helvetica,Arial,sans-serif" font-size="8.767">Chunk N</tspan><tspan x="3.1" y="10.5" fill="#E6E6E6" font-family="Helvetica,Arial,sans-serif" font-size="8.767">Length</tspan></text><text transform="translate(52.715 74.54)" font-family="Helvetica,Arial,sans-serif" font-size="8.767">Length</text><text transform="translate(220.17 20.965)"><tspan x="0" y="0" font-family="Helvetica,Arial,sans-serif" font-size="8.767">Chunk 2</tspan><tspan x="-5.8" y="10.5" font-family="Helvetica,Arial,sans-serif" font-size="8.767">Gain chunk</tspan><tspan x=".5" y="21" font-family="Helvetica,Arial,sans-serif" font-size="8.767">payload</tspan></text><text transform="translate(51.163 105.153)" font-family="Helvetica,Arial,sans-serif" font-weight="bold" font-size="8.767">Chunk 1 (Image data chunk)</text><text transform="translate(373.41 21.027)"><tspan x="0" y="0" fill="#E6E6E6" font-family="Helvetica,Arial,sans-serif" font-size="8.767">Chunk N</tspan><tspan x="7" y="10.5" fill="#E6E6E6" font-family="Helvetica,Arial,sans-serif" font-size="8.767">CRC </tspan><tspan x="1.2" y="21" fill="#E6E6E6" font-family="Helvetica,Arial,sans-serif" font-size="8.767">payload</tspan></text><text transform="translate(178.185 74.54)" font-family="Helvetica,Arial,sans-serif" font-size="8.767">32 bit</text><text transform="translate(311.521 74.54)" font-family="Helvetica,Arial,sans-serif" font-size="8.767">32 bit</text><text transform="translate(271.64 74.54)" font-family="Helvetica,Arial,sans-serif" font-size="8.767">32 bit</text><text transform="translate(191.101 135.165)" font-family="Helvetica,Arial,sans-serif" font-size="8.767">Actual payload size of grab result</text><text transform="translate(139.243 74.54)" font-family="Helvetica,Arial,sans-serif" font-size="8.767">32 bit</text><text transform="translate(380.74 105.153)" font-family="Helvetica,Arial,sans-serif" font-weight="bold" font-size="8.767">Chunk (e.g., CRC chunk)</text><text transform="translate(223.83 105.153)" font-family="Helvetica,Arial,sans-serif" font-weight="bold" font-size="8.767">Chunk 2 (e.g., Gain chunk)</text><text transform="translate(378.902 74.54)" font-family="Helvetica,Arial,sans-serif" font-size="8.767">Length</text><text transform="translate(224.065 74.54)" font-family="Helvetica,Arial,sans-serif" font-size="8.767">Length</text><text transform="translate(428.245 74.54)" font-family="Helvetica,Arial,sans-serif" font-size="8.767">32 bit</text><text transform="translate(468.087 74.54)" font-family="Helvetica,Arial,sans-serif" font-size="8.767">32 bit</text></svg>