<svg version="1.1" id="Layer_1" xmlns="http://www.w3.org/2000/svg" x="0" y="0" viewBox="0 0 971 492" xml:space="preserve"><style>.st0,.st1{fill:#f6f6f6}.st1{stroke:#000;stroke-width:.709;stroke-miterlimit:10}.st2,.st5{fill:none;stroke-width:.425;stroke-linecap:round;stroke-linejoin:round}.st2{stroke-miterlimit:10;stroke:#020204}.st5{stroke:#000}.st5,.st9{stroke-miterlimit:10}.st10,.st9{fill:none;stroke:#000;stroke-width:.283;stroke-linecap:round;stroke-linejoin:round}.st11,.st12{fill:none;stroke:#fff;stroke-width:1.417;stroke-miterlimit:10;stroke-dasharray:5.6693,2.8347,1.4173,2.8347}.st12{stroke:#000;stroke-width:.283}.st13{enable-background:new}.st14{font-family:Helvetica,Arial,sans-serif}.st15{font-size:22px}.st17{fill:#1a1a18}</style><path class="st0" d="M548 299.3l-4-1.8v-25.7h-4.4V269h-7c-.1-.8-.8-1.3-1.6-1.3h-2.7l-.4.4v-.7h4.4V259h4v-13.3h-2v-19.5h-6.4v-1.6h7.6v-18.5h-4.4v-1.4h4.4v-31.6h-2.4v-2.2h2.3V152h-1.7v-10.4c0-1.9-1-3.6-2.7-4.4-1.1-.5-2.3-.1-2.9 1-.1.3-.2.6-.2 1V135h-1.6v-6.3c0-.9-.7-1.6-1.6-1.6l-5.7-.2-62.8 1.6c-.9 0-1.6.7-1.6 1.6v46.2c0 .9-.7 1.6-1.6 1.6l-44.5 1.2c-.9 0-1.6.7-1.6 1.6v125.4c0 .9.7 1.6 1.6 1.6l44.5 1.2c.9 0 1.6.7 1.6 1.6v46.2c0 .9.7 1.6 1.6 1.6l68.4 1.5c.9 0 1.6-.7 1.6-1.6v-6.3h1.6v-4.2c0 1.2 1 2.1 2.1 2.1.3 0 .7-.1 1-.2 1.7-.8 2.7-2.5 2.7-4.4v-23.7c0-1.6-.8-3.2-2.2-4.1.1 0 .1-.1.2-.1.2 0 .3-.1.3-.3v-1.7h14.3c.9 0 1.6-.7 1.6-1.6v-14.4h.2zM60.7 350.2c0 5.2 4.3 9.5 9.5 9.5h213.9c5.2 0 9.5-4.3 9.5-9.5V136.4c0-5.2-4.3-9.5-9.5-9.5H74.4l-2.8 1.2-10.7 10.5-.2 211.6z"/><path class="st1" d="M60.7 350.2c0 5.2 4.3 9.5 9.5 9.5h213.9c5.2 0 9.5-4.3 9.5-9.5V136.4c0-5.2-4.3-9.5-9.5-9.5H74.4l-2.8 1.2-10.7 10.5-.2 211.6z"/><path class="st0" d="M619.7 351.9c0 5.2 4.3 9.5 9.5 9.5h213.9c5.2 0 9.5-4.3 9.5-9.5V138c0-5.2-4.3-9.5-9.5-9.5H633.3l-2.8 1.2-10.7 10.5-.1 211.7z"/><path class="st1" d="M619.7 351.9c0 5.2 4.3 9.5 9.5 9.5h213.9c5.2 0 9.5-4.3 9.5-9.5V138c0-5.2-4.3-9.5-9.5-9.5H633.3l-2.8 1.2-10.7 10.5-.1 211.7z"/><path class="st2" d="M668.5 245.5c0-37.1 30-67.1 67.1-67.1s67.1 30 67.1 67.1-30 67.1-67.1 67.1c-37 0-67.1-30.1-67.1-67.1z"/><path class="st2" d="M672.9 245.5c0-34.6 28.1-62.7 62.7-62.7s62.7 28.1 62.7 62.7-28.1 62.7-62.7 62.7-62.7-28.1-62.7-62.7zm-37.6 90c0-5.7 4.6-10.3 10.3-10.3s10.3 4.6 10.3 10.3c0 5.7-4.6 10.3-10.3 10.3s-10.3-4.6-10.3-10.3zm180.1 0c0-5.7 4.6-10.3 10.3-10.3s10.3 4.6 10.3 10.3c0 5.7-4.6 10.3-10.3 10.3s-10.3-4.6-10.3-10.3zM635.3 155.4c0-5.7 4.6-10.3 10.3-10.3s10.3 4.6 10.3 10.3-4.6 10.3-10.3 10.3-10.3-4.6-10.3-10.3zm180.1 0c0-5.7 4.6-10.3 10.3-10.3s10.3 4.6 10.3 10.3-4.6 10.3-10.3 10.3-10.3-4.6-10.3-10.3z"/><path class="st2" d="M689.5 245.5c0-25.4 20.6-46.1 46.1-46.1 25.4 0 46.1 20.6 46.1 46.1 0 25.4-20.6 46.1-46.1 46.1-25.4-.1-46.1-20.7-46.1-46.1zm127.8-90.1c0-4.6 3.7-8.4 8.4-8.4 4.6 0 8.4 3.7 8.4 8.4 0 4.6-3.7 8.4-8.4 8.4-4.6 0-8.4-3.8-8.4-8.4zm0 180.1c0-4.6 3.7-8.4 8.4-8.4 4.6 0 8.4 3.7 8.4 8.4 0 4.6-3.7 8.4-8.4 8.4-4.6 0-8.4-3.8-8.4-8.4zM637.2 155.4c0-4.6 3.7-8.4 8.4-8.4 4.6 0 8.4 3.7 8.4 8.4 0 4.6-3.7 8.4-8.4 8.4s-8.4-3.8-8.4-8.4zm0 180.1c0-4.6 3.7-8.4 8.4-8.4 4.6 0 8.4 3.7 8.4 8.4 0 4.6-3.7 8.4-8.4 8.4s-8.4-3.8-8.4-8.4zm188.5-180.1"/><path d="M454.8 309V178" fill="none" stroke="#020204" stroke-width=".425" stroke-miterlimit="10"/><path d="M273.7 134.7c6.7 0 12.1 5.4 12.1 12.1v193c0 6.7-5.4 12.1-12.1 12.1H166.2c-.3 0-1-.1-1.1-.6-.3-2.2-2.4-3.7-4.6-3.4-1.7.3-3.1 1.6-3.4 3.4-.1.5-.8.6-1.1.6H80.7c-6.7 0-12.1-5.4-12.1-12.1v-193c0-6.7 5.4-12.1 12.1-12.1h131.6c.3 0 .6.1.8.3l.3.3c.3 2.2 2.4 3.7 4.6 3.4 1.7-.3 3.1-1.6 3.4-3.4l.3-.3c.2-.2.5-.3.8-.3h51.2" fill="none"/><path class="st5" d="M544.2 271.5h-4.5m6.9 43.9c.9 0 1.6-.7 1.6-1.6m0-14.8v14.8m-10-1.6v3.2m0 0h8.4m-2.4-18.1l4 1.7m-4 13.2h-13.7m0 0V311m0-13.2v-1.6m0-12.5v-1.6m7.6 33.3v-3.2m-7.6 3.2h4.3m-5.7-17.6v-1.6m0-12.5v-1.6m15.1-10.6v5.7m-4.5 0h4.5m-13.5 38.4c.2 0 .3-.1.4-.2m-1.3.2h.9m-1.3-.2c.1.1.2.2.4.2m-1.6.1l.1-.5m.1.8l-.2-.3m.3.6v-.3m-.4.8l.4-.5m-.4.5v.2m.4.4l-.4-.4m1.4.4h-1m1.4.4c0-.2-.2-.4-.4-.4m2 .4h-1.6m2-.4c-.2 0-.4.2-.4.4m.4-.4c.2 0 .3-.1.3-.3m.1-1.7v1.7m-4.1-6.1v4m0 0c0 .2.2.4.4.4m1.9 0h-1.9m2.3-.4c-.2 0-.4.2-.4.4m.4-.4h3.5m.4.4c0-.2-.2-.4-.4-.4m.4.4h3.2m0 0v-3.2m6.2 0v-35m-11.5-8.4c-.1-.8-.8-1.3-1.6-1.3m0 0h-2.6m0 0l-.4.4"/><path d="M528.1 134.7v213.2" fill="none" stroke="#000" stroke-width=".709" stroke-linecap="round" stroke-linejoin="round" stroke-miterlimit="10"/><path class="st5" d="M528.5 170.7h7.1m0-18.9v18.9m-7.5-18.9h7.5m-7.5-8.2h5.2m0 0v8.2m-2 52.9v1.2m1.2 52.9h4m0-13.3v13.3m-2-13.3h2m-.8-26.5h.4m0-12.5V219m-.4-12.5h.4m-8 17.9h7.6m0-18.5v18.5m-7.6-18.5h7.6m0-20.7h.4m0-12.5v12.5m-7.6-12.5h7.6m-7.6-1.8h4.7m0-.2v.2m-5.1 111.2h11.6m0-13.3v13.3m-11.6-13.3h11.6m-11.6-8h4.4m0-6v6m-4.4-6h4.4m0-7.1v7.1m-4.4 12.4h4.4m0-6v6m-4.4-6h4.4m-4.4 49.8h11.6m0-13.2V311m-11.6-13.2h11.6m-11.6-15.3h1m-.6-140.3v-.2m-.4 0h.4m7.2 30.9v18.5m-7.2-18.5h7.2m-2.4-2.2v2m-5.2 32h5.1m0-.2v.2m-5.1 43h6.4m0-21.7v21.7m-6.4-21.7h6.4m-6.4 70.2h8m0-12.5v12.5m-8-12.5h8m-8-133.9h3.2m0-6v6m-3.2-6h3.2m0-2.6v1m-3.2-1h3.2m-3.2 42.4h3.2m0-6v6m-3.2-6h3.2m1.2-35.4v1.4m-4.4-1.4h4.4m-4.4 62.3h7.5m0-18.9v18.9m-7.5-18.9h7.5m-339.8 83.5v-1.6m0 1.6v1.9m0 .5v-.5m-1 .5v-.5m0-1.9v1.9m0-1.9v-1.6m0 0h1m-80.4 4H239m-28.1-4h1m0 1.6v-1.6m-1 1.6v-1.6m-101.7 17.2h136m-127.9 3.7h5.1m1 0h3.1m.9 0h3.1m.9 0h3.1m1 0h3m1 0h3m1 0h3.1m.9 0h3.1m.9 0h3.1m1 0h3m1 0h3m1 0h3.1m.9 0h3.1m.9 0h3.1m1 0h3m1 0h3m1 0h3.1m.9 0h3.1m.9 0h3.1m1 0h3m1 0h3m1 0h3.1m.9 0h3.1m1 0h3m1 0h3m1 0h3m4.1 0h-3.1m7.1 0h-3.1m9.2 0H232m-114.7 0v1.4m0 0h-7.7m12.8 1v-1m0 0v-5.1m0 6.1h1m0 0v-1m0 0h-1m1 0v-5.1m108.6 6.1h-1m-3.1 0h-.9m-3.1 0h-1m-4 0h1m-5 0h1m-5 0h1m-5 0h.9m-5 0h1m-5 0h1m-5 0h1m-5 0h.9m-4.9 0h.9m-5 0h1m-5 0h1m-5 0h1m-5 0h.9m-4.9 0h.9m-5 0h1m-5 0h1m-5 0h1m-5 0h.9m-4.9 0h.9m-5 0h1m-5 0h1m-5 0h1m-5 0h.9m-4.9 0h.9m-17.8-1V305m3.3 0h-3.3m3.3-8.9h128.6m0 8.9h3.2m0-15.2V305m-7.6-15.2h7.6m-7.6-1.4v1.4m-6.1 1v-1m0-5.1v5.1m0 0h1m0 0v-5.1m0 6.1v-1m-4.1 0v-5.1m0 6.1v-1m-.9 0h.9m-.9 1v-1m0 0v-5.1m-3.1 5.1v-5.1m0 6.1v-1m-1 0h1m-1 1v-1m0 0v-5.1m-7 5.1v-5.1m0 6.1v-1m0 0h-1m0 1v-1m0 0v-5.1m-3 0v5.1m0 1v-1m-1 1v-1m0-5.1v5.1m1 0h-1m-3.1 0v-5.1m0 6.1v-1m0 0h-.9m0 1v-1m0 0v-5.1m-3.1 5.1v-5.1m0 6.1v-1m0 0h-1m0 1v-1m0 0v-5.1m-3 0v5.1m0 1v-1m-1 1v-1m0-5.1v5.1m1 0h-1m-3 0v-5.1m0 6.1v-1m0 0h-1m0 1v-1m0 0v-5.1m-3.1 5.1v-5.1m0 6.1v-1m0 0h-.9m0 1v-1m0 0v-5.1m-3.1 5.1v-5.1m0 6.1v-1m0 0h-.9m0 1v-1m0 0v-5.1m-3.1 5.1v-5.1m0 6.1v-1m0 0h-1m0 1v-1m0 0v-5.1m-3 5.1v-5.1m0 6.1v-1m0 0h-1m0 1v-1m0 0v-5.1m-3 5.1v-5.1m0 6.1v-1m0 0h-1m0 1v-1m0 0v-5.1m-3.1 0v5.1m0 1v-1m-.9 1v-1m0-5.1v5.1m.9 0h-.9m-3.1 0v-5.1m0 6.1v-1m0 0h-.9m0 1v-1m0 0v-5.1m-3.1 5.1v-5.1m0 6.1v-1m0 0h-1m0 1v-1m0 0v-5.1m-3 0v5.1m0 1v-1m-1 1v-1m0-5.1v5.1m1 0h-1m-3 0v-5.1m0 6.1v-1m0 0h-1m0 1v-1m0 0v-5.1m-3.1 5.1v-5.1m0 6.1v-1m0 0h-.9m0 1v-1m0 0v-5.1m-3.1 0v5.1m0 1v-1m-.9 1v-1m0-5.1v5.1m.9 0h-.9m-3.1 0v-5.1m0 6.1v-1m0 0h-1m0 1v-1m0 0v-5.1m-3 5.1v-5.1m0 6.1v-1m0 0h-1m0 1v-1m0 0v-5.1m-3 5.1v-5.1m0 6.1v-1m0 0h-1m0 1v-1m0 0v-5.1m-3.1 5.1v-5.1m0 6.1v-1m0 0h-.9m0 1v-1m0 0v-5.1m-3.1 5.1v-5.1m0 6.1v-1m0 0h-.9m0 1v-1m0 0v-5.1m115 30.7H112.9m128.6-1.6v1.6m-128.6-1.6v1.6M241.5 299v14.8M112.9 299h128.6m-128.6 0v14.8m0-17.7v2.9m128.6-2.9v2.9m-22.6-8.2v-1m0 0v-5.1m1 5.1v-5.1m0 6.1v-1m0 0h-1M118.6 288v-3.3m-1.6 4.9h-3.2m4.8-1.6l-.3.4m-1 1l-.3.2m-12.2 22.6h7.6m.5 0h-.5m1.4-22.4v-5.1m122 3.3v-3.3m6.2 22.6v4.9m-10-43.1v-1.6m0 3.5v-1.9m0 2.4v-.5m17.6 41.2v-35m-12.2 12.4h3.2m4.6 17.7v-22.6m-9.4 3.3l.3.4m1 1l.3.2m-122-18.1v5.7m125.2 12.6v-5.1m-135.8-7.5h10.6m-3 30.1v4.9m-3.2-4.9h3.2m-3.2 0v-22.6m21.3 33.1v-.4m0 0v-.3m0-1.7v1.7m.9-1.7v1.7m0 .3v-.3m0 .7v-.4m0 .4h-.9m20.1 0v-.4m0 0v-.3m0-1.7v1.7m.9-1.7v1.7m0 .3v-.3m0 .7v-.4m0 .4h-.9m20.1 0v-.4m0 0v-.3m0-1.7v1.7m.9-1.7v1.7m0 .3v-.3m0 .7v-.4m0 .4h-.9m20.1 0v-.4m0 0v-.3m0-1.7v1.7m.9-1.7v1.7m0 .3v-.3m0 .7v-.4m0 .4h-.9m20.1 0v-.4m0 0v-.3m0-1.7v1.7m1-1.7v1.7m0 .3v-.3m0 .7v-.4m0 .4h-1m-98.4-2.4v-3.2m.4 3.2h-.4m-7.7-3.2v-35m107.1-5.7v-.5m-1 .5v-.5m20.1.5v-.5m0-1.9v1.9m0-1.9v-1.6m1 0h-1m-16.1 4v-.5m0-1.9v1.9m0-1.9v-1.6m1 1.6v1.9m0-1.9v-1.6m0 4v-.5m-1-3.5h1m-9 4v-.5m0-1.9v1.9m0-1.9v-1.6m.9 1.6v1.9m0-1.9v-1.6m0 4v-.5m-.9-3.5h.9m11.1 4v-.5m0-1.9v1.9m0-1.9v-1.6m1 1.6v1.9m0-1.9v-1.6m0 4v-.5m-1-3.5h1m8 1.6v-1.6m0 1.6v1.9m0 .5v-.5m-.9-1.9v1.9m.9-3.5h-.9m0 1.6v-1.6m0 4v-.5m-3.1-1.9v-1.6m0 1.6v1.9m0 .5v-.5m-1-1.9v1.9m1-3.5h-1m0 1.6v-1.6m0 4v-.5m-100.5.5v-.5m0-1.9v1.9m0-1.9v-1.6m1 1.6v1.9m0-1.9v-1.6m0 4v-.5m-1-3.5h1m3.1 4v-.5m0-1.9v1.9m0-1.9v-1.6m.9 1.6v1.9m0-1.9v-1.6m0 4v-.5m-.9-3.5h.9m3.1 4v-.5m0-1.9v1.9m0-1.9v-1.6m.9 1.6v1.9m0-1.9v-1.6m0 4v-.5m-.9-3.5h.9m3.1 4v-.5m0-1.9v1.9m0-1.9v-1.6m1 1.6v1.9m0-1.9v-1.6m0 4v-.5m-1-3.5h1m3 4v-.5m0-1.9v1.9m0-1.9v-1.6m1 1.6v1.9m0-1.9v-1.6m0 4v-.5m-1-3.5h1m4 1.6v-1.6m0 1.6v1.9m0 .5v-.5m-1-1.9v1.9m0-3.5h1m-1 1.6v-1.6m0 4v-.5m4.1.5v-.5m0-1.9v1.9m0-1.9v-1.6m.9 1.6v1.9m0-1.9v-1.6m0 4v-.5m-.9-3.5h.9m3.1 4v-.5m0-1.9v1.9m0-1.9v-1.6m.9 1.6v1.9m0-1.9v-1.6m0 4v-.5m-.9-3.5h.9m3.1 4v-.5m0-1.9v1.9m0-1.9v-1.6m1 1.6v1.9m0-1.9v-1.6m0 4v-.5m-1-3.5h1m3 4v-.5m0-1.9v1.9m0-1.9v-1.6m1 1.6v1.9m0-1.9v-1.6m0 4v-.5m-1-3.5h1m3 4v-.5m0-1.9v1.9m0-1.9v-1.6m1 1.6v1.9m0-1.9v-1.6m0 4v-.5m-1-3.5h1m3.1 4v-.5m0-1.9v1.9m0-1.9v-1.6m.9 1.6v1.9m0-1.9v-1.6m0 4v-.5m-.9-3.5h.9m4 1.6v-1.6m0 1.6v1.9m0 .5v-.5m-.9-1.9v1.9m0-3.5h.9m-.9 1.6v-1.6m0 4v-.5m4 .5v-.5m0-1.9v1.9m0-1.9v-1.6m1 1.6v1.9m0-1.9v-1.6m0 4v-.5m-1-3.5h1m3 4v-.5m0-1.9v1.9m0-1.9v-1.6m1 1.6v1.9m0-1.9v-1.6m0 4v-.5m-1-3.5h1m3 4v-.5m0-1.9v1.9m0-1.9v-1.6m1 1.6v1.9m0-1.9v-1.6m0 4v-.5m-1-3.5h1m3.1 4v-.5m0-1.9v1.9m0-1.9v-1.6m.9 1.6v1.9m0-1.9v-1.6m0 4v-.5m-.9-3.5h.9m4 1.6v-1.6m0 1.6v1.9m0 .5v-.5m-.9-1.9v1.9m0-3.5h.9m-.9 1.6v-1.6m0 4v-.5m8 .5v-.5m0-1.9v1.9m0-1.9v-1.6m1 1.6v1.9m0-1.9v-1.6m0 4v-.5m-1-3.5h1m3 4v-.5m0-1.9v1.9m0-1.9v-1.6m1 1.6v1.9m0-1.9v-1.6m0 4v-.5m-1-3.5h1m7.1 1.6v1.9m1-1.9v1.9m29.6 41.2h.5m3.2-4.9H242m-3-35.8v5.7m10.6 35H242m7.6-35H239m2.9 38.2v-3.2m-.4 3.2h.4m13.3 18c0-6.7 5.4-12.1 12.1-12.1 6.7 0 12.1 5.4 12.1 12.1s-5.4 12.1-12.1 12.1c-6.7-.1-12.1-5.5-12.1-12.1zm-180.1 0c0-6.7 5.4-12.1 12.1-12.1s12.1 5.4 12.1 12.1-5.4 12.1-12.1 12.1c-6.7-.1-12.1-5.5-12.1-12.1zm0-180.2c0-6.7 5.4-12.1 12.1-12.1s12.1 5.4 12.1 12.1c0 6.7-5.4 12.1-12.1 12.1s-12.1-5.4-12.1-12.1zm180.1 0c0-6.7 5.4-12.1 12.1-12.1 6.7 0 12.1 5.4 12.1 12.1 0 6.7-5.4 12.1-12.1 12.1s-12.1-5.4-12.1-12.1zm-88.3 16.7h6.1m-6.1-12.4v12.4m6.1-12.4h-6.1m6.1 12.4v-12.4m-22.1 13.2h9.2m-9.2-18.9v18.9m9.2-18.9h-9.2m9.2 18.9v-18.9m-38.2 18.9h9.3m-9.3-18.9v18.9m9.3-18.9h-9.3m9.3 18.9v-18.9m41.8-8.2h-6.9m6.9 12.9v-12.9m-6.9 12.9h6.9m-6.9-12.9v12.9m-59.5 86.4h6.1m-6.1-12.1v12.1m6.1-12.1h-6.1m6.1 12.1v-12.1m98.5-16.9h6m-6-12v12m6-12h-6m6 12v-12m-107.4 16.9h6.1m-6.1-12.1v12.1m6.1-12.1h-6.1m6.1 12.1v-12.1m68.3-7.2h-6m6 12v-12m-6 12h6m-6-12v12m3.2-26.9h-6m6 12.1v-12.1m-6 12.1h6m-6-12.1v12.1m-83-19.1v6m12-6h-12m12 6v-6m-12 6h12m75-25.9h-6m6 12v-12m-6 12h6m-6-12v12m65.9-3.2h-6m6 12.1v-12.1m-6 12.1h6m-6-12.1v12.1M184 245.1v14.1m22.5-14.1H184m22.5 14.1v-14.1M184 259.2h22.5m-46.6-14.1v14.1m22.5-14.1h-22.5m22.5 14.1v-14.1m-22.5 14.1h22.5m-49.6-.4v-13.3m-22.1 13.3h22.1m-22.1-13.3v13.3m22.1-13.3h-22.1m-24-39V219m21.7-12.5H86.7m21.7 12.5v-12.5M86.7 219h21.7m-33.9 5.4h9.2m-9.2-18.5v18.5m9.2-18.5h-9.2m9.2 18.5v-18.5m50.5-33.2v12.5m21.7-12.5h-21.7m21.7 12.5v-12.5m-21.7 12.5h21.7m-21.7-32v17.7m13.6-17.7h-13.6m13.6 17.7v-17.7m-13.6 17.7h13.6m-26.9 8.1v-16.1M104.8 179h16.1m-16.1-16.1V179m16.1-16.1h-16.1m-6.6 119.2v-13.3m-22.1 13.3h22.1m-22.1-13.3v13.3m22.1-13.3H76.1m12.4-8v-6m-12.4 6h12.4m-12.4-6v6m12.4-6H76.1m27.3-50.3h9.3m-9.3-18.9v18.9m9.3-18.9h-9.3m9.3 18.9v-18.9m-9.3 72.8h6m-6-12.5v12.5m6-12.5h-6m6 12.5v-12.5m-20.9 21.3v-6m-12.4 6h12.4m-12.4-6v6m12.4-6H76.1M98.2 311v-13.2M76.1 311h22.1m-22.1-13.2V311m22.1-13.2H76.1M262.4 270H256m6.4 12.5V270m-6.4 12.5h6.4M256 270v12.5m-10.9 58.1v-16.1m-16 16.1h16m-16-16.1v16.1m16-16.1h-16m-4.5-179.3c0-1.8 1.4-3.2 3.2-3.2s3.2 1.4 3.2 3.2-1.4 3.2-3.2 3.2c-1.7 0-3.2-1.4-3.2-3.2zm-51.2 11.3h6m-6-12.1v12.1m6-12.1h-6m6 12.1v-12.1m-57.5 47h9.3m-9.3-18.5v18.5m9.3-18.5h-9.3m9.3 18.5v-18.5m98.3 23.8V150m-46.7 46.7h46.7M182.8 150v46.7m46.7-46.7h-46.7m-96.1 37v17.7m13.7-17.7H86.7m13.7 17.7V187m-13.7 17.7h13.7m-25.3 43h22.5M75.1 226v21.7M97.6 226H75.1m22.5 21.7V226m38.2 19.1v14.1m22.5-14.1h-22.5m22.5 14.1v-14.1m-22.5 14.1h22.5m-60.3 37v-12.5m-21.7 12.5H98m-21.7-12.5v12.5M98 283.7H76.3m60.3-139.9v6m12-6h-12m12 6v-6m-12 6h12m59.6 95.3v14.1m22.5-14.1h-22.5m22.5 14.1v-14.1m-22.5 14.1h22.5m2.6-106h6m-6-12v12m6-12h-6m6 12v-12M89.9 183.6v-6m-12 6h12m-12-6v6m12-6h-12m45.6 41.2h6m-6-12.1v12.1m6-12.1h-6m6 12.1v-12.1m88.1 7.2h6m-6-12v12m6-12h-6m6 12v-12m-124.2 41h6m-6-12.1v12.1m6-12.1h-6m6 12.1v-12.1m92.5-82.6v-6m-12.5 6h12.5m-12.5-6v6m12.5-6h-12.5m47.9 23.9h6m-6-12.5v12.5m6-12.5h-6m6 12.5v-12.5M74.5 204.5h9.2m-9.2-18.9v18.9m9.2-18.9h-9.2m9.2 18.9v-18.9"/><path d="M70.9 153.2c0-9 7.3-16.3 16.3-16.3s16.3 7.3 16.3 16.3-7.3 16.3-16.3 16.3-16.3-7.3-16.3-16.3c0 0 0 0 0 0zm0 180.2c0-9 7.3-16.3 16.3-16.3s16.3 7.3 16.3 16.3-7.3 16.3-16.3 16.3c-9-.1-16.3-7.4-16.3-16.3 0 0 0 0 0 0zM251 153.2c0-9 7.3-16.3 16.3-16.3s16.3 7.3 16.3 16.3-7.3 16.3-16.3 16.3-16.3-7.3-16.3-16.3h0zm0 180.2c0-9 7.3-16.3 16.3-16.3s16.3 7.3 16.3 16.3-7.3 16.3-16.3 16.3c-9-.1-16.3-7.4-16.3-16.3h0z" fill="none" stroke="#020204" stroke-width=".51" stroke-linecap="round" stroke-linejoin="round" stroke-miterlimit="10"/><path class="st5" d="M273.7 134.7c6.7 0 12.1 5.4 12.1 12.1v193c0 6.7-5.4 12.1-12.1 12.1H166.2c-.3 0-1-.1-1.1-.6-.3-2.2-2.4-3.7-4.6-3.4-1.7.3-3.1 1.6-3.4 3.4-.1.5-.8.6-1.1.6H80.7c-6.7 0-12.1-5.4-12.1-12.1v-193c0-6.7 5.4-12.1 12.1-12.1h131.6c.3 0 .6.1.8.3l.3.3c.3 2.2 2.4 3.7 4.6 3.4 1.7-.3 3.1-1.6 3.4-3.4l.3-.3c.2-.2.5-.3.8-.3h51.2"/><path d="M548 299.3l-4-1.8v-25.7h-4.4V269h-7c-.1-.8-.8-1.3-1.6-1.3h-2.7l-.4.4v-.7h4.4V259h4v-13.3h-2 0v-19.5h-6.4v-1.6h7.6v-18.5h-4.4v-1.4h4.4v-31.6h-2.4v-2.2h2.3V152h-1.7v-10.4c0-1.9-1-3.6-2.7-4.4-1.1-.5-2.3-.1-2.9 1-.1.3-.2.6-.2 1V135h-1.6v-6.3c0-.9-.7-1.6-1.6-1.6l-5.7-.2-62.8 1.6c-.9 0-1.6.7-1.6 1.6v46.2c0 .9-.7 1.6-1.6 1.6l-44.5 1.2h0c-.9 0-1.6.7-1.6 1.6v125.4c0 .9.7 1.6 1.6 1.6l44.5 1.2c.9 0 1.6.7 1.6 1.6v46.2c0 .9.7 1.6 1.6 1.6l68.4 1.5c.9 0 1.6-.7 1.6-1.6v-6.3h1.6v-4.2c0 1.2 1 2.1 2.1 2.1.3 0 .7-.1 1-.2 1.7-.8 2.7-2.5 2.7-4.4v-23.7c0-1.6-.8-3.2-2.2-4.1h0c.1 0 .1-.1.2-.1.2 0 .3-.1.3-.3v-1.7h14.3c.9 0 1.6-.7 1.6-1.6v-14.4h.2z" fill="none" stroke="#020204" stroke-width=".709" stroke-linecap="round" stroke-linejoin="round" stroke-miterlimit="10"/><path class="st9" d="M528.1 134.7v-65"/><path class="st10" d="M410.4 72.9h113.9"/><path d="M411.1 73.9l-3.7-1 3.7-1v2zm112.5 0l3.7-1-3.7-1v2z"/><path class="st9" d="M454.1 166.9v-65.1"/><path class="st10" d="M410.4 105.1h39.9"/><path d="M411.1 106.1l-3.7-1 3.7-1v2zm38.5 0l3.7-1-3.7-1v2z"/><path class="st10" d="M544.8 42.3H410.7"/><path d="M544.1 41.4l3.7.9-3.7 1v-1.9zm-132.8 0l-3.6.9 3.6 1v-1.9z"/><path class="st9" d="M406.6 211.1V38.8M548.2 299V38.8m97.4 133.7V96.9m180.1 75.6V96.9"/><path class="st10" d="M649.4 100.2h173.3"/><path d="M650.1 101.2l-3.7-1 3.7-1v2zm171.9 0l3.7-1-3.7-1v2z"/><path class="st9" d="M825.7 156.5h76.4m-76.4 180.1h76.4"/><path class="st10" d="M898.9 160.3v173.3"/><path d="M897.9 160.9l1-3.6 1 3.6h-2zm0 172l1 3.7 1-3.7h-2z"/><path class="st9" d="M369.2 179h40.2m-40.2 129.4h40.2"/><path class="st10" d="M373.1 182.8v122.6"/><path d="M372.2 183.5l.9-3.7 1 3.7h-1.9zm0 121.2l.9 3.7 1-3.7h-1.9z"/><path class="st9" d="M619.1 150V68m233.2 82V68"/><path class="st10" d="M622.9 71.2h226.3"/><path d="M623.6 72.2l-3.7-1 3.7-1v2zm225 0l3.7-1-3.7-1v2z"/><path class="st9" d="M832.2 129.1h103.4m-101 232.4h101"/><path class="st10" d="M932.4 132.9v225.6"/><path d="M931.4 133.6l1-3.7 1 3.7h-2zm0 224.2l1 3.7 1-3.7h-2z"/><path class="st10" d="M96.9 345.5l52.5 57.9"/><path d="M96.6 346.7l-1.7-3.4 3.2 2-1.5 1.4z"/><path class="st9" d="M149.4 403.4h110.9"/><path class="st11" d="M176.6 369.2V108.3m-131.1 135h269.6"/><path class="st12" d="M176.6 369.2V108.3m-131.1 135h269.6"/><path class="st11" d="M399.3 244h154"/><path class="st12" d="M399.3 244h154"/><path class="st11" d="M736.1 366.1V123.9m-121 122.6h242"/><path class="st12" d="M736.1 366.1V123.9m-121 122.6h242"/><path class="st9" d="M101.6 153.2H72.7m14.4-14.4v28.9m194.6-14.5h-28.9m14.5-14.4v28.9m14.4 165.7h-28.9m14.5-14.5v28.9m-165.7-14.4H72.7m14.4-14.5v28.9m573.4-191.3h-29m209.1 0h-29m29 180.1h-29m14.5-14.5v29m-165.6-14.5h-29m14.5-14.5v29"/><text transform="translate(161.854 395.26)" class="st13"><tspan x="0" y="0" class="st14 st15">4 x </tspan><tspan x="46.5" y="0" class="st14 st15">Ø 2.08</tspan></text><path class="st10" d="M653.9 345.5l52.5 57.9"/><path d="M653.6 346.7l-1.8-3.4 3.2 2-1.4 1.4z"/><path class="st9" d="M706.4 403.4H962"/><text transform="translate(718.804 395.26)" class="st13"><tspan x="0" y="0" class="st14 st15">4 x </tspan><tspan x="46.5" y="0" class="st14 st15">Ø 2.2; max. 3.2 deep</tspan></text><text transform="rotate(-90 314.485 -50.4)" class="st13"><tspan x="11" y="0" class="st14 st15">Ø 16</tspan></text><text transform="translate(445.653 67.98)" class="st14 st15">14.8</text><text transform="translate(423.44 99.895)" class="st14 st15">6</text><text transform="translate(447.505 33.577)" class="st13"><tspan x="11" y="0" class="st14 st15">≈ 17.5</tspan></text><text transform="translate(713.977 94.922)" class="st14 st15">22.4</text><text transform="rotate(-90 581.326 -312.322)" class="st14 st15">22.4</text><text transform="translate(723.44 65.973)" class="st14 st15">29</text><text transform="rotate(-90 593.34 -333.801)" class="st14 st15">29</text><text transform="translate(787.1 464.2)" class="st17 st14 st15">Not to scale</text><text transform="translate(787.1 487.1)" class="st17 st14 st15">Dimensions in mm</text></svg>