<svg version="1.0" xmlns="http://www.w3.org/2000/svg" viewBox="0 0 440 180"><path fill="#FFF" d="M159.6 58.7h3.5l1.8-1.3 1.2 1.1-2.1 1.8-.9.3V62h2.8v55.9h-2.8v2l.9.3 2.1 1.8-1.2 1.1-1.8-1.4h-3.5v25.9c0 4.3-3.5 7.8-7.8 7.8H36.6c-4.3 0-7.8-3.5-7.8-7.8V32c0-4.3 3.5-7.8 7.8-7.8h115.3c4.3 0 7.8 3.5 7.8 7.8v26.7z"/><path fill="#FFF" stroke="#010202" stroke-width=".425" stroke-miterlimit="10" d="M47.4 35.4c0 4-3.3 7.3-7.3 7.3s-7.3-3.3-7.3-7.3 3.3-7.3 7.3-7.3c4 .1 7.3 3.3 7.3 7.3zm94 0c0 4 3.3 7.3 7.3 7.3s7.3-3.3 7.3-7.3-3.3-7.3-7.3-7.3c-4.1.1-7.3 3.3-7.3 7.3zm-94 109.1c0-4-3.3-7.3-7.3-7.3s-7.3 3.3-7.3 7.3 3.3 7.3 7.3 7.3c4-.1 7.3-3.3 7.3-7.3zm94 0c0-4 3.3-7.3 7.3-7.3s7.3 3.3 7.3 7.3-3.3 7.3-7.3 7.3c-4.1-.1-7.3-3.3-7.3-7.3z"/><path fill="none" stroke="#000" stroke-width=".425" stroke-linecap="round" stroke-linejoin="round" stroke-miterlimit="10" d="M58.5 31.9h38.7v38.8H58.5zm50.7 2.9h20.1v15h-20.1zm29.7 23.9h24.2v62.8h-24.2zm0 37.4h5.3m0 0V79.7m0 0h-5.3m24.2 38.5h-24.2m24.2-56.4h-24.2"/><path fill="none" stroke="#000" stroke-width=".425" stroke-linecap="round" stroke-linejoin="round" stroke-miterlimit="10" d="M158.8 93.1v.4l-.1.2-.1.1-.2.1h-1.7l-.1-.1-.1-.1-.1-.1-.1-.1v-.2l-.1-.1-.1-.1h-4.3l-.2-.1-.1-.1-.1-.1-.1-.1v-2.5l.1-.1.1-.1.1-.1h4.4l.1-.1.1-.1.1-.1v-.1l.1-.2.1-.1.1-.1h.1l.1-.1h1.5l.1.1h.2l.1.1.1.2v.5h-.1 2.3v3.2h-2.3m.1 22.9v.5l-.1.1-.1.1-.2.1h-1.7l-.1-.1h-.1l-.1-.2-.1-.1v-.1l-.1-.1-.1-.1-.1-.1h-4.4l-.1-.1-.1-.1-.1-.2v-2.4l.1-.1.1-.2h.1l.2-.1h4.3l.1-.1.1-.1v-.2l.1-.1.1-.2h.1l.1-.1h1.7l.2.1.1.1.1.1v.5h-.1 2.3v3.2h-2.3m-14.5-32.9h2.2c.9 0 .7.9.7.9v6c0 .6-.3.9-.9.9h-1.9M53.8 66.4h-2.7m0 0v-5.1m0 0h2.7m0 0v5.1M102.7 40h2.7m0 0v5.1m0 0h-2.7m0 0V40m2.7-3.1h-2.7m0 0v-5.1m0 0h2.7m0 0v5.1M70.7 137.7h2.7m0 0v5m0 0h-2.7m0 0v-5m58.2-22.9h4.5m0 0v8.2m0 0h-4.5m0 0v-8.2m-15.5 16.1h5v-2.7h-5m0 2.7v-2.7m10.1 19.6v4.7h-8.4v-4.7m0 0h8.4M108.8 128h2.6m-2.6 0v5.1h2.6V128m-21.6 23h-2.6m0 0v-5.1m0 0h2.6m0 0v5.1m-40.6-37.6h-2.7m0 0v-5m0 0h2.7m0 0v5m59.3 30.6h2.7m0 0v5.1m0 0h-2.7m0 0V144m-22.8 6.7h-2.6m0 0v-5.1m0 0h2.6m0 0v5.1M53 115.9v2.6m0 0h-5m0 0v-2.6m0 0h5m21.8 21.8h2.7m0 0v5m0 0h-2.7m0 0v-5m-25.6-32.5h-2.7m0 0v-5.1m0 0h2.7m0 0v5.1m19.3 36.1v2.7m0 0h-5m0 0v-2.7m0 0h5M34.4 92.4v-2.7h5.1v2.7m0 0h-5.1m14.8 3.9h-2.7m0 0v-5.1h2.7v5.1m11.3 45v2.7m0 0h-5m0 0v-2.7m0 0h5m-9.7-45h2.7v-5.1h-2.7v5.1m13.4 49.3v4.6m0 0h-8.5m0 0v-4.6m0 0h8.5M51.1 81.2h2.7m-2.7 0v5.1h2.7v-5.1m80.9 54v2.7h-5.1v-2.7h5.1M44.8 96.3h-2.7m0 0v-5.1h2.7v5.1m86 37.5v-2.7m0 0h5.1v2.7h-5.1m-43.6 3.9h2.6m0 0v5m0 0h-2.6m0 0v-5M51.1 53.6h2.7m0 0v5.1m0 0h-2.7m0 0v-5.1m32 84.1h2.6m0 0v5m0 0h-2.6m0 0v-5m8-58.4h5.1v-2.7h-5.1m0 2.7v-2.7M79 137.7h2.6m0 0v5m0 0H79m0 0v-5M56.7 76.6v2.7m0 0h-5.1m0 0v-2.7m0 0h5.1M68.5 137v2.6m0 0h-5m0 0V137m0 0h5m57.5-8.8v2.7m0-2.7h-5.1v2.7h5.1m1.2 9.5h7v10.7h-7v-10.7M60.5 137v2.6m0 0h-5m0 0V137m0 0h5m-6.7-85.8h-2.7m0 0v-5.1m0 0h2.7m0 0v5.1M116 120h-2.6m0 0v-5.1m0 0h2.6m0 0v5.1m14.8 9.4v-2.6m0 2.6h5.1v-2.6h-5.1m-21.3-44.6h2.7v5.1h-2.7zM50.8 126h2.7v-5h-2.7m0 5v-5m29.9 28.1v2.6m0 0h-5.1m0 0v-2.6m0 0h5.1m33.6-72v5.1h2.7v-5.1m-2.7 0h2.7M46.5 121h2.7m0 0v5m0 0h-2.7m0 0v-5m29.1 26.6V145m0 0h5.1m0 0v2.6m0 0h-5.1m37.3-82.9v2.7m0 0h-5.1m0 0v-2.7m0 0h5.1m-69.6 59.9v4.6m0 0h-8.4m0 0v-4.6m0 0h8.4m75.8-58.4v.3m0 0l-.1.3m0 0l-.2.4m0 0l-.2.2m0 0l-.2.3m0 0l-.3.2m0 0l-.3.1m0 0l-.3.1m0 0h-.3m0 0h-.4m0 0l-.3-.1m0 0l-.3-.1m0 0l-.3-.2m0 0l-.3-.3m0 0l-.2-.2m0 0l-.1-.4m0 0l-.1-.3m0 0v-.3m0 0v-.3m0 0l.1-.4m0 0l.1-.3m0 0l.2-.3m0 0l.3-.2m0 0l.3-.2m0 0l.3-.1m0 0l.3-.1m0 0h.4m0 0h.3m0 0l.3.1m0 0l.3.1m0 0l.3.2m0 0l.2.2m0 0l.2.3m0 0l.2.3m0 0l.1.4m0 0v.3m-1.6 52.3h4.6V110h-4.6m0 8.5V110m-8.5 4.9h2.7m0 0v5.1m0 0H109m0 0v-5.1m-74.4.2v-2.6m0 0h5.1m0 0v2.6m0 0h-5.1m75.1-2.1v-2.7m0 0h5.1m0 0v2.7m0 0h-5.1m0-8.5v-2.7m0 0h5.1m0 0v2.7m0 0h-5.1m0 3.9v-2.7m0 0h5.1m0 0v2.7m0 0h-5.1m-58.9 5h2.7v-5h-2.7m0 5v-5m-7.5-2.2v4.6m0 0h-8.4m0 0v-4.6m0 0h8.4m69.7 37.9h12.6v-10.2H113m0 10.2v-10.2m-62.2-28.7h2.7v-5.1h-2.7m0 5.1v-5.1m-15.7 22.8v-6.1m0 0h8m0 0v6.1m0 0h-8m-.5-26.2V94m0 0h5.1m0 0v2.7m0 0h-5.1m95.7 7.3l3.6 3.6m0 0l-2.9 2.9m0 0l-3.5-3.6m0 0l2.8-2.9m-12.1-10.2h-4.6m0 0v-8.5h4.6v8.5m-6 1.2h-2.7m0 0v-5.1h2.7V95m-77.1 9.5v-6.1m0 0h8m0 0v6.1m0 0h-8m76.8-27.9v2.7m0 0h-5.1m0 0v-2.7m0 0h5.1m21.2.4h-5.3m0 0V64.4m0 0h5.3m0 0V77m-16.8-6.9v4.6m0 0h-8.5m0 0v-4.6m0 0h8.5m16.9-21.8h5.1m-5.1 0v4.1h5.1v-4.1m-33.2 25.6h-2.6m0 0v-5.1m0 0h2.6m0 0v5.1m-1.2 2.7h-5.1v2.7h5.1m0-2.7v2.7m4.4-16v-5.1m0 0h4.1m0 0v5.1m0 0h-4.1m-25 16v-2.7m0 0h5.1m0 0v2.7m0 0h-5.1m33-16v-5.1m0 0h4.1m0 0v5.1m0 0h-4.1M80.4 76.6v2.7m0 0h-5.1m0 0v-2.7m0 0h5.1m-13.1 2.7v-2.7m0 0h5.1m0 0v2.7m0 0h-5.1m-2.9-2.7v2.7m0 0h-5.1m0 0v-2.7m0 0h5.1m40.7-10.7h-2.6m0 0v-5m0 0h2.6m0 0v5m-54 3.4h2.7m-2.7 0v5.1h2.7v-5.1m39.1 69h12.6m0 0v10.1m0 0H92.9m0 0v-10.1M105.1 58h-2.6m0 0v-5.1h2.6V58m-57.4 72.9v-2.7m0 0h5.1m0 0v2.7m0 0h-5.1m24.8 14.7v2.8m0 0h-5.3m0 0v-2.8m0 0h5.3M57 84.7h48.5v48.5H57zm89.6 45.6c0 1.3-1 2.3-2.3 2.3-1.3 0-2.3-1-2.3-2.3 0-1.3 1-2.3 2.3-2.3 1.3 0 2.3 1.1 2.3 2.3zM56.1 31.9c0 1.3-1.1 2.4-2.4 2.4-1.3 0-2.4-1.1-2.4-2.4 0-1.3 1.1-2.4 2.4-2.4 1.4 0 2.4 1 2.4 2.4zm11 123.2c.6 0 .6-.4.7-.5.2-1.1 1.2-1.9 2.4-1.9s2.1.8 2.4 1.9c0 .2.2.6.6.6m33.9-130.9c-.6 0-.6.4-.7.5-.2 1.1-1.2 1.9-2.4 1.9s-2.1-.8-2.4-1.9c0-.2-.2-.6-.6-.6"/><path fill="none" stroke="#010202" stroke-width=".709" stroke-miterlimit="10" d="M159.6 58.7h3.5l1.8-1.3 1.2 1.1-2.1 1.8-.9.3V62h2.8v55.9h-2.8v2l.9.3 2.1 1.8-1.2 1.1-1.8-1.4h-3.5v25.9c0 4.3-3.5 7.8-7.8 7.8H36.6c-4.3 0-7.8-3.5-7.8-7.8V32c0-4.3 3.5-7.8 7.8-7.8h115.3c4.3 0 7.8 3.5 7.8 7.8v26.7z"/><path fill="none" stroke="#FFF" stroke-width="1.417" stroke-miterlimit="10" stroke-dasharray="5.6693,2.8347,1.4173,2.8347" d="M94.3 167.9V18.2M20.1 90h163.6"/><g fill="none" stroke="#010202" stroke-width=".283" stroke-miterlimit="10"><path d="M136.1 144.5h2.8"/><path stroke-dasharray="1.3335,2.667" d="M141.6 144.5h2.6"/><path stroke-dasharray="5.334,2.667,1.3335,2.667" d="M145.6 144.5h10.6"/><path d="M157.6 144.5h2.8"/></g><g fill="none" stroke="#010202" stroke-width=".283" stroke-miterlimit="10"><path d="M148.2 132v2.8"/><path stroke-dasharray="1.3814,2.7629" d="M148.2 137.6v2.8"/><path stroke-dasharray="5.5257,2.7629,1.3814,2.7629" d="M148.2 141.7v11.1"/><path d="M148.2 154.2v2.8"/></g><g fill="none" stroke="#010202" stroke-width=".283" stroke-miterlimit="10"><path d="M27.8 144.5h2.8"/><path stroke-dasharray="1.3332,2.6665" d="M33.3 144.5h2.6"/><path stroke-dasharray="5.3329,2.6665,1.3332,2.6665" d="M37.3 144.5h10.6"/><path d="M49.3 144.5h2.8"/></g><g fill="none" stroke="#010202" stroke-width=".283" stroke-miterlimit="10"><path d="M39.9 132v2.8"/><path stroke-dasharray="1.3814,2.7629" d="M39.9 137.6v2.8"/><path stroke-dasharray="5.5257,2.7629,1.3814,2.7629" d="M39.9 141.7v11.1"/><path d="M39.9 154.2v2.8"/></g><g fill="none" stroke="#010202" stroke-width=".283" stroke-miterlimit="10"><path d="M136.1 35.2h2.8"/><path stroke-dasharray="1.3335,2.667" d="M141.6 35.2h2.6"/><path stroke-dasharray="5.334,2.667,1.3335,2.667" d="M145.6 35.2h10.6"/><path d="M157.6 35.2h2.8"/></g><g fill="none" stroke="#010202" stroke-width=".283" stroke-miterlimit="10"><path d="M148.2 22.7v2.8"/><path stroke-dasharray="1.3811,2.7622" d="M148.2 28.3v2.8"/><path stroke-dasharray="5.5243,2.7622,1.3811,2.7622" d="M148.2 32.5v11"/><path d="M148.2 44.9v2.8"/></g><g fill="none" stroke="#010202" stroke-width=".283" stroke-miterlimit="10"><path d="M27.8 35.2h2.8"/><path stroke-dasharray="1.3332,2.6665" d="M33.3 35.2h2.6"/><path stroke-dasharray="5.3329,2.6665,1.3332,2.6665" d="M37.3 35.2h10.6"/><path d="M49.3 35.2h2.8"/></g><g fill="none" stroke="#010202" stroke-width=".283" stroke-miterlimit="10"><path d="M39.9 22.7v2.8"/><path stroke-dasharray="1.3811,2.7622" d="M39.9 28.3v2.8"/><path stroke-dasharray="5.5243,2.7622,1.3811,2.7622" d="M39.9 32.5v11"/><path d="M39.9 44.9v2.8"/></g><path fill="none" stroke="#010202" stroke-width=".283" stroke-miterlimit="10" stroke-dasharray="5.6693,2.8347,1.4173,2.8347" d="M94.3 167.9V18.2M20.1 90h163.6"/><path fill="none" stroke="#000" stroke-miterlimit="10" d="M119.3 42.3h105.4m-73.4 30.1h73.4M69.9 146.7h154.8"/><text transform="translate(235.447 46.075)" font-family="Helvetica,Arial,sans-serif" font-size="14">I/O connector</text><text transform="translate(235.447 76.241)" font-family="Helvetica,Arial,sans-serif" font-size="14">USB 3.0 Micro-B connector</text><text transform="translate(235.447 150.152)" font-family="Helvetica,Arial,sans-serif" font-size="14">Status LED</text></svg>