<svg version="1.0" xmlns="http://www.w3.org/2000/svg" viewBox="0 0 180 185"><path clip-rule="evenodd" fill="none" stroke="#000" stroke-width=".5" stroke-miterlimit="3.864" stroke-dasharray="2,2" d="M6.1 9.4h169.2V175H6.1z"/><g clip-rule="evenodd"><circle fill-rule="evenodd" cx="108.3" cy="130.2" r="1"/><circle fill="none" stroke="#000" stroke-width=".25" stroke-miterlimit="3.864" cx="108.3" cy="130.2" r="1"/></g><g clip-rule="evenodd"><circle fill-rule="evenodd" cx="114.3" cy="130.2" r="1"/><circle fill="none" stroke="#000" stroke-width=".25" stroke-miterlimit="3.864" cx="114.3" cy="130.2" r="1"/></g><g clip-rule="evenodd"><circle fill-rule="evenodd" cx="120.3" cy="130.2" r="1"/><circle fill="none" stroke="#000" stroke-width=".25" stroke-miterlimit="3.864" cx="120.3" cy="130.2" r="1"/></g><g clip-rule="evenodd"><circle fill-rule="evenodd" cx="126.3" cy="130.2" r="1"/><circle fill="none" stroke="#000" stroke-width=".25" stroke-miterlimit="3.864" cx="126.3" cy="130.2" r="1"/></g><g clip-rule="evenodd"><path fill-rule="evenodd" fill="#F99D33" d="M6.2 9.6h6V175h-6z"/><path fill="none" stroke="#000" stroke-width=".2" stroke-miterlimit="3.864" d="M6.2 9.6h6V175h-6z"/></g><g clip-rule="evenodd"><path fill-rule="evenodd" fill="#FFF" d="M93.7 9.6h6V175h-6z"/><path fill="none" stroke="#000" stroke-width=".2" stroke-miterlimit="3.864" d="M93.7 9.6h6V175h-6z"/></g><g clip-rule="evenodd"><path fill-rule="evenodd" fill="#F99D33" d="M81.2 9.5h6v165.4h-6z"/><path fill="none" stroke="#000" stroke-width=".2" stroke-miterlimit="3.864" d="M81.2 9.5h6v165.4h-6z"/></g><g clip-rule="evenodd"><path fill-rule="evenodd" fill="#FFF" d="M68.7 9.5h6v165.4h-6z"/><path fill="none" stroke="#000" stroke-width=".2" stroke-miterlimit="3.864" d="M68.7 9.5h6v165.4h-6z"/></g><g clip-rule="evenodd"><path fill-rule="evenodd" fill="#F99D33" d="M56.2 9.5h6v165.4h-6z"/><path fill="none" stroke="#000" stroke-width=".2" stroke-miterlimit="3.864" d="M56.2 9.5h6v165.4h-6z"/></g><g clip-rule="evenodd"><path fill-rule="evenodd" fill="#FFF" d="M43.7 9.6h6V175h-6z"/><path fill="none" stroke="#000" stroke-width=".2" stroke-miterlimit="3.864" d="M43.7 9.6h6V175h-6z"/></g><g clip-rule="evenodd"><path fill-rule="evenodd" fill="#F99D33" d="M31.2 9.6h6V175h-6z"/><path fill="none" stroke="#000" stroke-width=".2" stroke-miterlimit="3.864" d="M31.2 9.6h6V175h-6z"/></g><g clip-rule="evenodd"><path fill-rule="evenodd" fill="#FFF" d="M18.7 9.6h6V175h-6z"/><path fill="none" stroke="#000" stroke-width=".2" stroke-miterlimit="3.864" d="M18.7 9.6h6V175h-6z"/></g><g clip-rule="evenodd"><path fill-rule="evenodd" fill="#F99D33" d="M12.5 9.6h6V175h-6z"/><path fill="none" stroke="#000" stroke-width=".2" stroke-miterlimit="3.864" d="M12.5 9.6h6V175h-6z"/></g><g clip-rule="evenodd"><path fill-rule="evenodd" fill="#FFF" d="M24.9 9.5h6v165.4h-6z"/><path fill="none" stroke="#000" stroke-width=".2" stroke-miterlimit="3.864" d="M24.9 9.5h6v165.4h-6z"/></g><g clip-rule="evenodd"><path fill-rule="evenodd" fill="#F99D33" d="M37.4 9.5h6v165.4h-6z"/><path fill="none" stroke="#000" stroke-width=".2" stroke-miterlimit="3.864" d="M37.4 9.5h6v165.4h-6z"/></g><g clip-rule="evenodd"><path fill-rule="evenodd" fill="#FFF" d="M49.9 9.6h6V175h-6z"/><path fill="none" stroke="#000" stroke-width=".2" stroke-miterlimit="3.864" d="M49.9 9.6h6V175h-6z"/></g><g clip-rule="evenodd"><path fill-rule="evenodd" fill="#F99D33" d="M62.4 9.5h6v165.4h-6z"/><path fill="none" stroke="#000" stroke-width=".2" stroke-miterlimit="3.864" d="M62.4 9.5h6v165.4h-6z"/></g><g clip-rule="evenodd"><path fill-rule="evenodd" fill="#FFF" d="M74.9 9.5h6v165.4h-6z"/><path fill="none" stroke="#000" stroke-width=".2" stroke-miterlimit="3.864" d="M74.9 9.5h6v165.4h-6z"/></g><g clip-rule="evenodd"><path fill-rule="evenodd" fill="#F99D33" d="M87.4 9.5h6v165.4h-6z"/><path fill="none" stroke="#000" stroke-width=".2" stroke-miterlimit="3.864" d="M87.4 9.5h6v165.4h-6z"/></g><g clip-rule="evenodd"><path fill-rule="evenodd" fill="#F99D33" d="M156.7 9.6h6V175h-6z"/><path fill="none" stroke="#000" stroke-width=".2" stroke-miterlimit="3.864" d="M156.7 9.6h6V175h-6z"/></g><g clip-rule="evenodd"><path fill-rule="evenodd" fill="#FFF" d="M144.2 9.6h6V175h-6z"/><path fill="none" stroke="#000" stroke-width=".2" stroke-miterlimit="3.864" d="M144.2 9.6h6V175h-6z"/></g><g clip-rule="evenodd"><path fill-rule="evenodd" fill="#F99D33" d="M131.7 9.6h6V175h-6z"/><path fill="none" stroke="#000" stroke-width=".2" stroke-miterlimit="3.864" d="M131.7 9.6h6V175h-6z"/></g><g clip-rule="evenodd"><path fill-rule="evenodd" fill="#FFF" d="M169.2 9.6h6V175h-6z"/><path fill="none" stroke="#000" stroke-width=".2" stroke-miterlimit="3.864" d="M169.2 9.6h6V175h-6z"/></g><g clip-rule="evenodd"><path fill-rule="evenodd" fill="#F99D33" d="M137.9 9.6h6V175h-6z"/><path fill="none" stroke="#000" stroke-width=".2" stroke-miterlimit="3.864" d="M137.9 9.6h6V175h-6z"/></g><g clip-rule="evenodd"><path fill-rule="evenodd" fill="#FFF" d="M150.4 9.6h6V175h-6z"/><path fill="none" stroke="#000" stroke-width=".2" stroke-miterlimit="3.864" d="M150.4 9.6h6V175h-6z"/></g><g clip-rule="evenodd"><path fill-rule="evenodd" fill="#F99D33" d="M162.9 9.6h6V175h-6z"/><path fill="none" stroke="#000" stroke-width=".2" stroke-miterlimit="3.864" d="M162.9 9.6h6V175h-6z"/></g></svg>