<svg version="1.0" xmlns="http://www.w3.org/2000/svg" viewBox="0 0 550 294.2"><path fill="none" stroke="#1D1E1C" stroke-width=".227" stroke-miterlimit="10" d="M69 66.5l427.7-.1M69 89.2l427.7-.1M69 111.9l428.1-.1m-428 22.8l427.7-.1M69.1 157.4l427.8-.2M69.1 180.1l427.7-.2M69.1 202.8l427.8-.1M69.2 225.5l427.2-.1M69.1 43.8l427.7-.1M104.1 20.9l.1 227.2m35.6-227.2l.1 227.2m35.6-227l.1 227.1m35.7-226.7v226.6M247 20.3v227.8m71.4-227.6l.1 227.6m35.6-227.3l.1 227.2m35.6-227.2l.1 227.2m35.6-226.5l.1 226.5m35.6-227.2l.1 227.2M282.7 21l.1 227.2"/><path fill="none" stroke="#1D1E1C" stroke-width=".709" stroke-miterlimit="10" d="M69.1 20.9H497v227.2H69.1z"/><text transform="matrix(1.0502 -.0003 .00033 1 43.923 205.492)" fill="#1D1D1B" font-family="Helvetica,Arial,sans-serif" font-size="11.471">0.2</text><text transform="matrix(1.0502 -.0003 .00033 1 43.864 161.604)" fill="#1D1D1B" font-family="Helvetica,Arial,sans-serif" font-size="11.471">0.4</text><text transform="matrix(1.0502 -.0003 .00033 1 43.868 115.916)" fill="#1D1D1B" font-family="Helvetica,Arial,sans-serif" font-size="11.471">0.6</text><text transform="matrix(1.0502 -.0003 .00033 1 43.705 69.57)" fill="#1D1D1B" font-family="Helvetica,Arial,sans-serif" font-size="11.471">0.8</text><text transform="matrix(1.0502 -.0003 .00033 1 43.848 23.97)" fill="#1D1D1B" font-family="Helvetica,Arial,sans-serif" font-size="11.471">1.0</text><text transform="matrix(1.0502 -.0003 .00033 1 59.11 263.807)" fill="#1D1D1B" font-family="Helvetica,Arial,sans-serif" font-size="11.471">400</text><text transform="matrix(1.0502 -.0003 .00033 1 129.692 263.833)" fill="#1D1D1B" font-family="Helvetica,Arial,sans-serif" font-size="11.471">500</text><text transform="matrix(1.0502 -.0003 .00033 1 201.271 263.739)" fill="#1D1D1B" font-family="Helvetica,Arial,sans-serif" font-size="11.471">600</text><text transform="matrix(1.0502 -.0003 .00033 1 272.77 263.853)" fill="#1D1D1B" font-family="Helvetica,Arial,sans-serif" font-size="11.471">700</text><text transform="matrix(1.0502 -.0003 .00033 1 344.294 263.79)" fill="#1D1D1B" font-family="Helvetica,Arial,sans-serif" font-size="11.471">800</text><text transform="matrix(1.0502 -.0003 .00033 1 415.605 263.722)" fill="#1D1D1B" font-family="Helvetica,Arial,sans-serif" font-size="11.471">900</text><text transform="matrix(1.0502 -.0003 .00033 1 482.97 263.82)" fill="#1D1D1B" font-family="Helvetica,Arial,sans-serif" font-size="11.471">1000</text><text transform="matrix(1.0502 -.0003 .00033 1 45.283 250.938)" fill="#1D1D1B" font-family="Helvetica,Arial,sans-serif" font-size="11.471">0.0</text><text transform="matrix(-.00033 -.9964 1 -.00029 37.987 180.052)" font-family="Helvetica,Arial,sans-serif" font-size="10.903">Relative Response</text><text transform="matrix(1.0036 -.0003 .00033 1 247.145 279.292)" font-family="Helvetica,Arial,sans-serif" font-size="10.864">Wavelength (nm)</text><path fill="none" stroke="#1D1D1B" stroke-miterlimit="10" d="M69 88.1s6.7-11.3 7.9-12.9c1.2-1.7 6.1-8 7.3-9.6 1.3-1.6 4.9-5.1 5.6-5.7.6-.6 2.5-1.4 3.3-2.1.7-.7 12.9-11.4 13.9-12.4.9-1 4-3.8 4.7-4.2.7-.5 8.9-6.4 9.6-7 .6-.6 3.7-3.1 4.3-3.4.6-.3 5.8-2.5 7.6-2.8 1.8-.3 5.7-1.1 7-1.4 1.4-.3 14.7-4.8 15.4-4.9.6-.1 1.8-.6 3.7-.6.5 0 1.1 0 1.7.1 0 0 .8.1 2.6.1s3.3-.5 5.5.2 5.5 1.3 7.5 1.7c2 .4 8.9 1.5 10.8 2.3 1.9.8 5.4 1.8 8.1 4 2.7 2.3 13.3 11 16.4 12.7 3 1.8 10.6 5.2 13.9 6 3.3.8 6.1 3.2 9.3 5.5 3.3 2.4 6.7 5.6 9 6.8 2.3 1.2 4.2 1.5 5.9 2.4 1.7.9 3.7 3.3 5.4 3.5 1.7.2 2.7.1 4.7 1.1s5.5 3.2 6.6 4.1c1.2.9 4.3 2 6.2 3.2 1.9 1.2 5.9 5.8 7.2 7.5 1.4 1.7 6.5 5.8 8.1 7.9 1.6 2.1 5.4 8 6.7 9.1 1.4 1.1 4.7 4.4 7.1 6.3 2.4 1.9 5.8 4.3 6.7 4.7.9.4 6.8 1.6 9.8 3.3 2.9 1.7 4.2 3 6.4 4.1 2.2 1.1 3.5 1.2 5.4 2.5 1.9 1.3 7.3 6.8 8.9 8.1 1.6 1.3 8 5.6 9 6.7 1 1.1 9.3 8.6 12.4 10.2 3 1.6 11 5 12.3 5.7 1.3.7 8.9 5.6 10.4 6.5 1.5.9 5.5 1.9 6.6 2.2 1.2.3 1.7-.3 3.6 1.3 1.9 1.6 5.6 5.3 6.9 6.9 1.4 1.6 4.9 6 6.5 7.3 1.6 1.3 6.9 4.1 8.5 5.4 1.6 1.4 6.7 6.4 7.2 7.1.5.7 5.2 6.4 5.8 6.8.5.4 2.4 2.2 3.5 2.7 1 .5 9.4 3.8 11.4 4.7 2 1 9.3 5.9 11.3 6.9s12.2 5 14 5.8c1.8.8 12.9 7.6 14.8 8.5 1.9.9 6.3 3.5 7.6 3.6 1.3.1 4.5.8 6 1"/></svg>