<svg version="1.0" xmlns="http://www.w3.org/2000/svg" viewBox="0 0 396.2 126.3"><g clip-rule="evenodd"><path fill-rule="evenodd" d="M26.4 92.2h-2.1l2.1-5.3 2.1 5.3z"/><path fill="none" stroke="#000" stroke-width=".5" stroke-miterlimit="3.864" d="M26.4 91.8v12.1"/></g><g clip-rule="evenodd"><path fill-rule="evenodd" d="M32.4 79.7v2.1l-5.3-2.1 5.3-2.1zm48.7 0v-2.1l5.2 2.1-5.2 2.1z"/><path fill="none" stroke="#000" stroke-width=".5" stroke-miterlimit="3.864" d="M32 79.7h49.4"/></g><g clip-rule="evenodd"><path fill-rule="evenodd" d="M94.1 52.6v2.1l-5.3-2.1 5.3-2.2zm76.1 0v-2.2l5.3 2.2-5.3 2.1z"/><path fill="none" stroke="#000" stroke-width=".5" stroke-miterlimit="3.864" d="M93.8 52.6h76.7"/></g><path clip-rule="evenodd" fill="none" stroke="#000" stroke-width=".5" stroke-miterlimit="3.864" d="M87.6 56v-7.7m88.5 7.8v-7.6"/><path clip-rule="evenodd" fill="none" stroke="#000" stroke-miterlimit="3.864" d="M176.1 58.2v27.3M4.9 86h82.9m-.4-27.8v27.4m.4-26.9H176m.6 26.3h33.6"/><path clip-rule="evenodd" fill="none" stroke="#000" stroke-width=".5" stroke-miterlimit="3.864" d="M26.4 83.9v-7.7"/><text transform="translate(108.88 46.11)" font-family="Helvetica,Arial,sans-serif" font-size="12">Duration</text><text transform="translate(35.216 71.875)" font-family="Helvetica,Arial,sans-serif" font-size="12">Delay</text><text transform="translate(94.11 16.91)" font-family="Helvetica,Arial,sans-serif" font-size="12">Arm delay</text><text transform="translate(24.28 118.368)" font-family="Helvetica,Arial,sans-serif" font-size="12">Trigger source event occurs</text><path clip-rule="evenodd" fill="none" stroke="#000" stroke-width=".5" stroke-miterlimit="3.864" d="M26.4 28.7v-7.6m184.1 8.1v-7.6"/><path fill="none" stroke="#000" stroke-width=".5" stroke-miterlimit="3.864" d="M32.8 24.7h171.6"/><path d="M34.1 26.6l-7-1.9 7-1.8zm169 0l7.1-1.9-7.1-1.8z"/><g clip-rule="evenodd"><path fill-rule="evenodd" d="M210.2 91.4h-2.1l2.1-5.3 2.1 5.3z"/><path fill="none" stroke="#000" stroke-width=".5" stroke-miterlimit="3.864" d="M210.2 91v12.1"/></g><text transform="translate(208.054 116.95)" font-family="Helvetica,Arial,sans-serif" font-size="12">Next possible trigger source event</text><g fill="none" stroke="#000" stroke-miterlimit="3.864"><path d="M210.2 85h3"/><path stroke-dasharray="5.8615,1.9539" d="M215.1 85h124.1"/><path d="M340.2 85h3"/></g></svg>