<svg version="1.0" xmlns="http://www.w3.org/2000/svg" viewBox="0 0 550 142.5"><path fill-rule="evenodd" clip-rule="evenodd" fill="#BDE4F7" stroke="#000" stroke-width=".425" stroke-miterlimit="3.864" d="M105.9 58.9h371.6V109H105.9z"/><path fill="none" stroke="#000" stroke-miterlimit="3.864" d="M476.9 58.9V109"/><path fill-rule="evenodd" clip-rule="evenodd" fill="#0090D4" stroke="#000" stroke-width=".425" stroke-miterlimit="3.864" d="M353.5 58.8h122.6v50.1H353.5z"/><text transform="translate(459.107 54.22)" font-family="Helvetica,Arial,sans-serif" font-size="9">Start</text><path fill="#F1F2F2" d="M229.8 72h24.7v24.7h-24.7V72z"/><path fill="none" stroke="#000" stroke-width=".567" stroke-miterlimit="3.864" d="M229.8 72h24.7v24.7h-24.7V72z"/><path fill="#F1F2F2" d="M56.4 72h24.7v24.7H56.4V72z"/><path fill="none" stroke="#000" stroke-width=".567" stroke-miterlimit="3.864" d="M56.4 72h24.7v24.7H56.4V72z"/><path fill="#F1F2F2" d="M81.1 72h24.8v24.7H81.1V72z"/><path fill="none" stroke="#000" stroke-width=".567" stroke-miterlimit="3.864" d="M81.1 72h24.8v24.7H81.1V72z"/><path fill="#F1F2F2" d="M105.9 72h24.8v24.7h-24.8V72z"/><path fill="none" stroke="#000" stroke-width=".567" stroke-miterlimit="3.864" d="M105.9 72h24.8v24.7h-24.8V72z"/><path fill="#F1F2F2" d="M130.7 72h24.8v24.7h-24.8V72z"/><path fill="none" stroke="#000" stroke-width=".567" stroke-miterlimit="3.864" d="M130.7 72h24.8v24.7h-24.8V72z"/><path fill="#F1F2F2" d="M155.5 72h24.7v24.7h-24.7V72z"/><path fill="none" stroke="#000" stroke-width=".567" stroke-miterlimit="3.864" d="M155.5 72h24.7v24.7h-24.7V72z"/><path fill="#F1F2F2" d="M180.2 72H205v24.7h-24.8V72z"/><path fill="none" stroke="#000" stroke-width=".567" stroke-miterlimit="3.864" d="M180.2 72H205v24.7h-24.8V72z"/><path fill="#F1F2F2" d="M205 72h24.8v24.7H205V72z"/><path fill="none" stroke="#000" stroke-width=".567" stroke-miterlimit="3.864" d="M205 72h24.8v24.7H205V72z"/><path fill="#F1F2F2" d="M254.5 72h24.8v24.7h-24.8V72z"/><path fill="none" stroke="#000" stroke-width=".567" stroke-miterlimit="3.864" d="M254.5 72h24.8v24.7h-24.8V72z"/><path fill="#F1F2F2" d="M279.3 72h24.8v24.7h-24.8V72z"/><path fill="none" stroke="#000" stroke-width=".567" stroke-miterlimit="3.864" d="M279.3 72h24.8v24.7h-24.8V72z"/><path fill="#F1F2F2" d="M304.1 72h24.8v24.7h-24.8V72z"/><path fill="none" stroke="#000" stroke-width=".567" stroke-miterlimit="3.864" d="M304.1 72h24.8v24.7h-24.8V72z"/><g clip-rule="evenodd"><path fill-rule="evenodd" fill="#FFF" d="M25.2 77.9v3.9h19.5v5.5H25.1v3.8L10 84.5z"/><path fill="none" stroke="#000" stroke-miterlimit="3.864" d="M25.2 77.9v3.9h19.5v5.5H25.1v3.8L10 84.5z"/></g><path fill="#F9CCD1" stroke="#000" stroke-width=".567" stroke-miterlimit="3.864" d="M328.9 72h24.7v24.7h-24.7V72z"/><path fill="#F9CCD1" stroke="#000" stroke-width=".567" stroke-miterlimit="3.864" d="M328.9 72h24.7v24.7h-24.7V72zm24.7 0h24.8v24.7h-24.8V72z"/><path fill="#F9CCD1" stroke="#000" stroke-width=".567" stroke-miterlimit="3.864" d="M353.6 72h24.8v24.7h-24.8V72z"/><path fill="#F1F2F2" d="M378.4 72h24.8v24.7h-24.8V72z"/><path fill="none" stroke="#000" stroke-width=".567" stroke-miterlimit="3.864" d="M378.4 72h24.8v24.7h-24.8V72z"/><path fill="#F1F2F2" d="M427.9 72h24.8v24.7h-24.8V72z"/><path fill="none" stroke="#000" stroke-width=".567" stroke-miterlimit="3.864" d="M427.9 72h24.8v24.7h-24.8V72z"/><path fill="#F1F2F2" d="M452.7 72h24.8v24.7h-24.8V72z"/><path fill="none" stroke="#000" stroke-width=".567" stroke-miterlimit="3.864" d="M452.7 72h24.8v24.7h-24.8V72z"/><path fill="#FFF" d="M477.5 72h24.8v24.7h-24.8V72z"/><path fill="none" stroke="#000" stroke-width=".567" stroke-miterlimit="3.864" d="M477.5 72h24.8v24.7h-24.8V72z"/><path fill="#FFF" d="M502.3 72H527v24.7h-24.7V72z"/><path fill="none" stroke="#000" stroke-width=".567" stroke-miterlimit="3.864" d="M502.3 72H527v24.7h-24.7V72z"/><g clip-rule="evenodd"><path fill-rule="evenodd" fill="#FFF" d="M526.9 72h7.7c-2.9 6.8 1.1 17.3 0 24.8-4.3-.1-7.7 0-7.7 0V72z"/><path fill="none" stroke="#000" stroke-width=".567" stroke-miterlimit="3.864" d="M526.9 72h7.7c-2.9 6.8 1.1 17.3 0 24.8-4.3-.1-7.7 0-7.7 0V72z"/></g><g clip-rule="evenodd"><path fill-rule="evenodd" fill="#F1F2F2" d="M56.5 96.7h-6.6c2.5-6.8-.9-17.3 0-24.8 3.7.1 6.6 0 6.6 0v24.8z"/><path fill="none" stroke="#000" stroke-width=".567" stroke-miterlimit="3.864" d="M56.5 96.7h-6.6c2.5-6.8-.9-17.3 0-24.8 3.7.1 6.6 0 6.6 0v24.8z"/></g><path fill="#F1F2F2" d="M403.2 72H428v24.7h-24.8V72z"/><path fill="none" stroke="#000" stroke-width=".567" stroke-miterlimit="3.864" d="M403.2 72H428v24.7h-24.8V72z"/><g clip-rule="evenodd"><path fill-rule="evenodd" d="M531.2 119.4v-1.6l3.6 1.6-3.6 1.6z"/><path fill="none" stroke="#000" stroke-width=".567" stroke-miterlimit="3.864" d="M56.5 119.4h474.9"/></g><g clip-rule="evenodd"><path fill-rule="evenodd" d="M351.5 38.6l2.2 12.9 2.2-12.9z"/><path fill="none" stroke="#000" stroke-width=".567" stroke-miterlimit="3.864" d="M351.5 38.6l2.2 12.9 2.2-12.9z"/><path fill="none" d="M351.5 38.6l2.2 12.9 2.2-12.9z"/></g><text transform="translate(490.382 135)" font-family="Helvetica,Arial,sans-serif" font-size="12">Time</text><text transform="translate(312.202 17.5)"><tspan x="0" y="0" font-family="Helvetica,Arial,sans-serif" font-size="12">Resend request</tspan><tspan x="16.4" y="14.4" font-family="Helvetica,Arial,sans-serif" font-size="12">threshold</tspan></text><path fill="none" d="M261.7 78.9h14.6v9.6h-14.6z"/><text transform="translate(261.723 87.893)" font-family="Helvetica,Arial,sans-serif" font-size="8.5">96</text><path fill="none" d="M286.8 78.9h14.6v9.6h-14.6z"/><text transform="translate(286.81 87.894)" font-family="Helvetica,Arial,sans-serif" font-size="8.5">97</text><path fill="none" d="M311.8 78.9h17v9.6h-17z"/><text transform="translate(311.838 87.893)" font-family="Helvetica,Arial,sans-serif" font-size="8.5">98</text><path fill="none" d="M335.7 78.9h14.6v9.6h-14.6z"/><text transform="translate(335.737 87.893)" font-family="Helvetica,Arial,sans-serif" font-size="8.5">99</text><path fill="none" d="M357.1 78.9h19.5v9.6h-19.5z"/><text transform="translate(357.063 87.893)" font-family="Helvetica,Arial,sans-serif" font-size="8.5">100</text><path fill="none" d="M381.8 78.9h19.5v9.6h-19.5z"/><text transform="translate(381.808 87.893)" font-family="Helvetica,Arial,sans-serif" font-size="8.5">101</text><path fill="none" d="M406.2 78.9h21.9v9.6h-21.9z"/><text transform="translate(406.166 87.893)" font-family="Helvetica,Arial,sans-serif" font-size="8.5">102</text><path fill="none" d="M431.1 78.9h19.5v9.6h-19.5z"/><text transform="translate(431.149 87.893)" font-family="Helvetica,Arial,sans-serif" font-size="8.5">103</text><path fill="none" d="M455.9 78.9h19.5v9.6h-19.5z"/><text transform="translate(455.904 87.892)" font-family="Helvetica,Arial,sans-serif" font-size="8.5">104</text><path fill="none" d="M480.3 78.9h19.5v9.6h-19.5z"/><text transform="translate(480.296 87.893)" font-family="Helvetica,Arial,sans-serif" font-size="8.5">105</text><path fill="none" d="M505 78.9h19.5v9.6H505z"/><text transform="translate(505.04 87.892)" font-family="Helvetica,Arial,sans-serif" font-size="8.5">106</text><path fill="none" d="M236.6 78.9h14.6v9.6h-14.6z"/><text transform="translate(236.628 87.894)" font-family="Helvetica,Arial,sans-serif" font-size="8.5">95</text><path fill="none" d="M212 78.9h14.6v9.6H212z"/><text transform="translate(211.952 87.893)" font-family="Helvetica,Arial,sans-serif" font-size="8.5">94</text><path fill="none" d="M186.8 78.9h17v9.6h-17z"/><text transform="translate(186.788 87.893)" font-family="Helvetica,Arial,sans-serif" font-size="8.5">93</text><path fill="none" d="M162.3 78.9h14.6v9.6h-14.6z"/><text transform="translate(162.256 87.894)" font-family="Helvetica,Arial,sans-serif" font-size="8.5">92</text><path fill="none" d="M137.6 78.9h14.6v9.6h-14.6z"/><text transform="translate(137.65 87.892)" font-family="Helvetica,Arial,sans-serif" font-size="8.5">91</text><path fill="none" d="M112.7 78.9h14.6v9.6h-14.6z"/><text transform="translate(112.655 87.893)" font-family="Helvetica,Arial,sans-serif" font-size="8.5">90</text><path fill="none" d="M88.4 78.9H103v9.6H88.4z"/><text transform="translate(88.42 87.893)" font-family="Helvetica,Arial,sans-serif" font-size="8.5">89</text><path fill="none" d="M63 78.9h14.6v9.6H63z"/><text transform="translate(63.038 87.893)" font-family="Helvetica,Arial,sans-serif" font-size="8.5">88</text><text transform="translate(48.253 111.003)" font-family="Helvetica,Arial,sans-serif" font-size="10">Frames</text><path fill="none" stroke="#F99D33" stroke-width="3.402" stroke-miterlimit="3.864" d="M353.7 58.9l-.2 50.1"/></svg>