<svg xmlns="http://www.w3.org/2000/svg" viewBox="0 0 311.8 328.8"><style>.st1{fill:none;stroke:#000;stroke-width:.2835;stroke-linecap:round;stroke-miterlimit:10}.st1,.st4{stroke-linejoin:round}.st4,.st5{fill:none;stroke:#000;stroke-width:.2835;stroke-miterlimit:10}.st8{fill-rule:evenodd;clip-rule:evenodd}.st10,.st9{fill:none;stroke:#000;stroke-miterlimit:3.8637}.st9{fill-rule:evenodd;clip-rule:evenodd;stroke-width:.2268}.st10{stroke-width:.2835}.st11{font-family:Helvetica,Arial,sans-serif}.st12{font-size:11px}</style><g id="boost"><path fill="#fff" d="M256.3 75.9l.9.8v157.7h4.8l.6.5v25.6l-.6.4h-4.8v13.8l-.9.9H212l-.6-.6h-1.5l-.5.6h-2.6v5.9l-.8.9h-67.8l-.8-.9v-65.8h-5.9l-.5-.6v-78.8l.5-.5h5.9V69.9l.8-.7H206l.8.7v6h2.6l.5.5h1.5l.6-.5z"/><circle class="st1" cx="169.3" cy="109.3" r="5.8"/><circle class="st1" cx="169.3" cy="109.3" r="4.2"/><circle class="st1" cx="169.3" cy="242.4" r="5.8"/><circle class="st1" cx="169.3" cy="242.4" r="4.2"/><path class="st1" d="M137.3 124.5l16.2 1.4c15.4 1.9 25.2 10.8 25.2 24.9v49.8c0 14.1-12.9 24.7-25.5 25.5-11.6.5-15.9-1.7-15.9-1.7m72.5-148V275m1.5-198.6v198.7m-4.7.5V76m50.3 181.5h-28.7v18.1m28.7-14.6v-26.5M228.2 76v18.1H257"/><path class="st1" d="M228.2 77.3h7.9c.5 0 .9.4.9.9v12.9c0 .5-.4.9-.9.9h-7.9m0 167.6h7.9c.5 0 .9.4.9.9v13c0 .5-.4.9-.9.9h-7.9"/><path fill="none" stroke="#000" stroke-width=".567" stroke-miterlimit="10" d="M256.2 76l.8.8v157.7h4.8l.6.5v25.5l-.6.5H257v13.8l-.8.8h-44.3l-.6-.6h-1.5l-.5.6h-2.7v5.9l-.7 1h-67.8l-.8-1v-65.7h-5.9l-.5-.6v-78.9l.5-.5h5.9V70l.8-.8h67.8l.7.8v6h2.7l.5.4h1.5l.6-.4z"/></g><path fill="#f5f5f5" stroke="#000" stroke-width=".567" stroke-miterlimit="3.864" d="M74.5 135.9h56.6v6.3h21.8v3.1H174v61.2h-21.1v2.9h-21.8v6.4H74.5z" id="Lens"/><g id="Cut"><path class="st1" d="M131.5 136h13.8v-10.6m12.7 1.4v98.7m-5.4-82.3v65.2m-.6 17.8l6-6"/><path class="st4" d="M146 226.2l11.6-11.4"/><path class="st1" d="M145.3 221l10-10m-10.5 4.6l7.1-7.2"/><path class="st4" d="M138.7 215.6l7.2-7.2"/><path class="st1" d="M132.5 215.8l7.4-7.4m-9 3l3-3m17.5-65.2l5.8-5.9m-11.8 5.9l12.6-12.8"/><path class="st4" d="M139.4 143.2l16.8-16.8"/><path class="st1" d="M133.4 143.2l7.2-7.2m4.7-4.7l5.7-5.6m-20.1 14l3.9-3.9m10.5 90.3v-10.5h-13.9"/><path class="st1" d="M138.6 215.6v.9c0 .3.2.5.5.5h6.2"/><path class="st4" d="M130.8 210v-67.7"/><path class="st1" d="M154.4 209.4l3.6 6.4m-5.2-7.4l1.6 1m-23.6-1h23.6m-23.5 1.1h23.5m0-66.3h-23.6m23.6-1.1h-23.5m23.5.1l-1.6 1m5.2-7.4l-3.6 6.4m0 67.2v-67.3M175 192h1.9m1.7 10.5h-1.7v-.5H175v-52.3h1.9v-.5h1.7m-1.7 10.5H175"/><path class="st1" d="M178.6 154.5h-1.7v42.6h1.7"/><path class="st1" d="M178.6 189.7h-.7V162h.7m-3.6 17.6h1.9m-1.9-5.7h1.9m-1.9-3.4h1.9m-1.9-5.9h1.9M175 161h1.9m-1.9 29.8h1.9m-1.9 2.1l.5-.9m-.5 3.4l1.9-3.2M175 198l1.9-3.2m-1.9 5.7l2-3.4m-1.4 4.9l2.7-4.9m-1.4 5.3l1.8-3.2m-3.7-46.9l1.4-2.6m-1.4 5.1l3.2-5.6m-3.2 8.2l3.6-6.4m-3.5 8.7l1.8-3m1.2-2.2l.5-.9m-.7 11.4l.7-1.3m-.7 3.8l.7-1.2m-.7 3.8l.7-1.3m-.7 3.7l.7-1.1m-.7 3.7l.7-1.2m-.7 3.8l.7-1.3m-.7 3.8l.7-1.2m-.7 3.8l.7-1.3m-.7 3.8l.7-1.3m-.7 3.8l.7-1.2m-.3 3.1l.3-.6"/></g><g id="Middle_line"><path class="st5" d="M71.5 175.8H75"/><path fill="none" stroke="#000" stroke-width=".283" stroke-miterlimit="10" stroke-dasharray=".5683,2.8415" d="M77.8 175.8h2"/><path fill="none" stroke="#000" stroke-width=".283" stroke-miterlimit="10" stroke-dasharray="7.1036,2.8415,.5683,2.8415" d="M81.2 175.8h185.6"/><path class="st5" d="M268.2 175.8h3.6"/></g><g id="Guides"><path class="st8" d="M169 147.9l-2.3 3.1 8.4 3.7z"/><path class="st9" d="M167.8 149.4l-65.3-47.8H39.1"/><path class="st8" d="M113.7 128.8l-2.2 3.1 8.4 3.7z"/><path class="st9" d="M112.9 130.6l-9.2-7H39.1"/><path class="st8" d="M139.1 227l-2.3-3.1 8.5-3.8z"/><path class="st9" d="M138 225.3L119.5 239H67.9"/><path class="st8" d="M50.7 151h3.9l-2-9.1zm3.9 49.6h-3.9l1.9 9.1z"/><path class="st9" d="M52.6 151v49.6"/><path class="st10" d="M131 142.1H50.1m80.9 67.4H50.1"/><path class="st8" d="M165.9 23.8v3.9l9.1-2zM140 27.7v-3.9l-9 1.9z"/><path class="st9" d="M165.9 25.7H140"/><path class="st10" d="M130.9 142.1v-119M175 149.7V23.1"/><path class="st5" d="M175 25.7h99.5"/><path class="st8" d="M121.9 46.8v3.8l9-1.9zm41.3 3.8v-3.8l-9 1.9z"/><path class="st10" d="M154.3 172.7V46.1"/><path class="st5" d="M39.2 48.7h133.1"/></g><g id="Text"><text transform="rotate(-90 122.48 74.19)"><tspan x="0" y="0" class="st11 st12">C-mount</tspan><tspan x="4" y="16" class="st11 st12"> thread</tspan></text><text transform="translate(38.568 97.547)" class="st11 st12">Sensor glass</text><text transform="translate(38.574 119.496)" class="st11 st12">C-mount lens</text><text transform="translate(67.477 234.697)" class="st11 st12">C-mount</text><text transform="translate(179.867 20.667)" class="st11 st12">Max. lens intrusion</text><text transform="translate(38.568 45.61)"><tspan x="0" y="0" class="st11 st12">Lens mount </tspan><tspan x="0" y="13.2" class="st11 st12">thread length</tspan></text><text transform="translate(183.344 306.279)"><tspan x="0" y="0" class="st11 st12">Not to scale</tspan><tspan x="0" y="13.2" class="st11 st12">Dimensions in mm</tspan></text></g></svg>