<svg version="1.0" xmlns="http://www.w3.org/2000/svg" viewBox="0 0 550 350"><path fill="#5EC5ED" d="M451.5 312.8h10.6v5.3h-10.6v-5.3z"/><path fill="#5EC5ED" stroke="#000" stroke-width=".073" stroke-miterlimit="3.864" d="M451.5 312.8h10.6v5.3h-10.6v-5.3z"/><path fill="#020405" d="M459.7 332.3h2.4v5.4h-2.4v-5.4z"/><path fill="none" stroke="#020405" stroke-width=".073" stroke-miterlimit="3.864" d="M459.7 332.3h2.4v5.4h-2.4v-5.4z"/><path fill="#5EC5ED" d="M22.1 95.9H156v5.3H22.1v-5.3z"/><path fill="#5EC5ED" stroke="#000" stroke-width=".073" stroke-miterlimit="3.864" d="M22.1 95.9H156v5.3H22.1v-5.3z"/><path fill="#020405" d="M156 95.9h2.3v5.3H156v-5.3z"/><path fill="none" stroke="#020405" stroke-width=".073" stroke-miterlimit="3.864" d="M156 95.9h2.3v5.3H156v-5.3z"/><path fill="#5EC5ED" d="M24.4 104.8h133.9v5.3H24.4v-5.3z"/><path fill="#5EC5ED" stroke="#000" stroke-width=".073" stroke-miterlimit="3.864" d="M24.4 104.8h133.9v5.3H24.4v-5.3z"/><path fill="#020405" d="M158.3 104.8h2.4v5.3h-2.4v-5.3z"/><path fill="none" stroke="#020405" stroke-width=".073" stroke-miterlimit="3.864" d="M158.3 104.8h2.4v5.3h-2.4v-5.3z"/><path fill="#5EC5ED" d="M26.8 113.7h133.9v5.3H26.8v-5.3z"/><path fill="#5EC5ED" stroke="#000" stroke-width=".073" stroke-miterlimit="3.864" d="M26.8 113.7h133.9v5.3H26.8v-5.3z"/><path fill="#020405" d="M160.7 113.7h2.4v5.3h-2.4v-5.3z"/><path fill="none" stroke="#020405" stroke-width=".073" stroke-miterlimit="3.864" d="M160.7 113.7h2.4v5.3h-2.4v-5.3z"/><path fill="#5EC5ED" d="M29.2 122.5h133.9v5.4H29.2v-5.4z"/><path fill="#5EC5ED" stroke="#000" stroke-width=".073" stroke-miterlimit="3.864" d="M29.2 122.5h133.9v5.4H29.2v-5.4z"/><path fill="#020405" d="M163.1 122.5h2.3v5.4h-2.3v-5.4z"/><path fill="none" stroke="#020405" stroke-width=".073" stroke-miterlimit="3.864" d="M163.1 122.5h2.3v5.4h-2.3v-5.4z"/><path fill="#5EC5ED" d="M31.6 131.4h133.8v5.4H31.6v-5.4z"/><path fill="#5EC5ED" stroke="#000" stroke-width=".073" stroke-miterlimit="3.864" d="M31.6 131.4h133.8v5.4H31.6v-5.4z"/><path fill="#020405" d="M165.4 131.4h2.4v5.4h-2.4v-5.4z"/><path fill="none" stroke="#020405" stroke-width=".073" stroke-miterlimit="3.864" d="M165.4 131.4h2.4v5.4h-2.4v-5.4z"/><path fill="#5EC5ED" d="M33.9 140.3h133.9v5.3H33.9v-5.3z"/><path fill="#5EC5ED" stroke="#000" stroke-width=".073" stroke-miterlimit="3.864" d="M33.9 140.3h133.9v5.3H33.9v-5.3z"/><path fill="#020405" d="M167.8 140.3h2.4v5.3h-2.4v-5.3z"/><path fill="none" stroke="#020405" stroke-width=".073" stroke-miterlimit="3.864" d="M167.8 140.3h2.4v5.3h-2.4v-5.3z"/><path fill="#5EC5ED" d="M36.3 149.2h133.9v5.3H36.3v-5.3z"/><path fill="#5EC5ED" stroke="#000" stroke-width=".073" stroke-miterlimit="3.864" d="M36.3 149.2h133.9v5.3H36.3v-5.3z"/><path fill="#020405" d="M170.2 149.2h2.3v5.3h-2.3v-5.3z"/><path fill="none" stroke="#020405" stroke-width=".073" stroke-miterlimit="3.864" d="M170.2 149.2h2.3v5.3h-2.3v-5.3z"/><path fill="#5EC5ED" d="M38.7 158.1h133.8v5.3H38.7v-5.3z"/><path fill="#5EC5ED" stroke="#000" stroke-width=".073" stroke-miterlimit="3.864" d="M38.7 158.1h133.8v5.3H38.7v-5.3z"/><path fill="#020405" d="M172.5 158.1h2.4v5.3h-2.4v-5.3z"/><path fill="none" stroke="#020405" stroke-width=".073" stroke-miterlimit="3.864" d="M172.5 158.1h2.4v5.3h-2.4v-5.3z"/><path fill="#5EC5ED" d="M41 167h133.9v5.3H41V167z"/><path fill="#5EC5ED" stroke="#000" stroke-width=".073" stroke-miterlimit="3.864" d="M41 167h133.9v5.3H41V167z"/><path fill="#020405" d="M174.9 167h2.4v5.3h-2.4V167z"/><path fill="none" stroke="#020405" stroke-width=".073" stroke-miterlimit="3.864" d="M174.9 167h2.4v5.3h-2.4V167z"/><path fill="#5EC5ED" d="M43.4 175.9h133.9v5.3H43.4v-5.3z"/><path fill="#5EC5ED" stroke="#000" stroke-width=".073" stroke-miterlimit="3.864" d="M43.4 175.9h133.9v5.3H43.4v-5.3z"/><path fill="#020405" d="M177.3 175.9h2.4v5.3h-2.4v-5.3z"/><path fill="none" stroke="#020405" stroke-width=".073" stroke-miterlimit="3.864" d="M177.3 175.9h2.4v5.3h-2.4v-5.3z"/><path fill="#5EC5ED" d="M45.8 184.7h133.9v5.4H45.8v-5.4z"/><path fill="#5EC5ED" stroke="#000" stroke-width=".073" stroke-miterlimit="3.864" d="M45.8 184.7h133.9v5.4H45.8v-5.4z"/><path fill="#020405" d="M179.7 184.7h2.3v5.4h-2.3v-5.4z"/><path fill="none" stroke="#020405" stroke-width=".073" stroke-miterlimit="3.864" d="M179.7 184.7h2.3v5.4h-2.3v-5.4z"/><path fill="#5EC5ED" d="M71.8 220.3h133.9v5.3H71.8v-5.3z"/><path fill="#5EC5ED" stroke="#000" stroke-width=".073" stroke-miterlimit="3.864" d="M71.8 220.3h133.9v5.3H71.8v-5.3z"/><path fill="#020405" d="M205.7 220.3h2.4v5.3h-2.4v-5.3z"/><path fill="none" stroke="#020405" stroke-width=".073" stroke-miterlimit="3.864" d="M205.7 220.3h2.4v5.3h-2.4v-5.3z"/><path fill="#5EC5ED" d="M74.2 229.2h133.9v5.3H74.2v-5.3z"/><path fill="#5EC5ED" stroke="#000" stroke-width=".073" stroke-miterlimit="3.864" d="M74.2 229.2h133.9v5.3H74.2v-5.3z"/><path fill="#020405" d="M208.1 229.2h2.4v5.3h-2.4v-5.3z"/><path fill="none" stroke="#020405" stroke-width=".073" stroke-miterlimit="3.864" d="M208.1 229.2h2.4v5.3h-2.4v-5.3z"/><path fill="#5EC5ED" d="M76.6 238.1h133.9v5.3H76.6v-5.3z"/><path fill="#5EC5ED" stroke="#000" stroke-width=".073" stroke-miterlimit="3.864" d="M76.6 238.1h133.9v5.3H76.6v-5.3z"/><path fill="#020405" d="M210.5 238.1h2.3v5.3h-2.3v-5.3z"/><path fill="none" stroke="#020405" stroke-width=".073" stroke-miterlimit="3.864" d="M210.5 238.1h2.3v5.3h-2.3v-5.3z"/><path d="M87.2 194.5c0-.5.3-.9.6-.9s.6.4.6.9-.3.9-.6.9-.6-.4-.6-.9z"/><path fill="none" stroke="#000" stroke-width=".092" stroke-miterlimit="3.864" d="M87.2 194.5c0-.5.3-.9.6-.9s.6.4.6.9-.3.9-.6.9-.6-.4-.6-.9z"/><path d="M89.6 199.9c0-.5.3-.9.6-.9s.6.4.6.9-.3.9-.6.9c-.3-.1-.6-.5-.6-.9z"/><path fill="none" stroke="#000" stroke-width=".092" stroke-miterlimit="3.864" d="M89.6 199.9c0-.5.3-.9.6-.9s.6.4.6.9-.3.9-.6.9c-.3-.1-.6-.5-.6-.9z"/><path d="M92 205.2c0-.5.3-.9.6-.9s.6.4.6.9-.3.9-.6.9c-.4 0-.6-.4-.6-.9z"/><path fill="none" stroke="#000" stroke-width=".092" stroke-miterlimit="3.864" d="M92 205.2c0-.5.3-.9.6-.9s.6.4.6.9-.3.9-.6.9c-.4 0-.6-.4-.6-.9z"/><path d="M94.3 210.5c0-.5.3-.9.6-.9s.6.4.6.9-.3.9-.6.9-.6-.4-.6-.9z"/><path fill="none" stroke="#000" stroke-width=".092" stroke-miterlimit="3.864" d="M94.3 210.5c0-.5.3-.9.6-.9s.6.4.6.9-.3.9-.6.9-.6-.4-.6-.9z"/><path d="M96.7 215.8c0-.5.3-.9.6-.9s.6.4.6.9-.3.9-.6.9-.6-.4-.6-.9z"/><path fill="none" stroke="#000" stroke-width=".092" stroke-miterlimit="3.864" d="M96.7 215.8c0-.5.3-.9.6-.9s.6.4.6.9-.3.9-.6.9-.6-.4-.6-.9z"/><path d="M153.6 194.5c0-.5.3-.9.6-.9s.6.4.6.9-.3.9-.6.9-.6-.4-.6-.9z"/><path fill="none" stroke="#000" stroke-width=".092" stroke-miterlimit="3.864" d="M153.6 194.5c0-.5.3-.9.6-.9s.6.4.6.9-.3.9-.6.9-.6-.4-.6-.9z"/><path d="M156 199.9c0-.5.3-.9.6-.9s.6.4.6.9-.3.9-.6.9c-.4-.1-.6-.5-.6-.9z"/><path fill="none" stroke="#000" stroke-width=".092" stroke-miterlimit="3.864" d="M156 199.9c0-.5.3-.9.6-.9s.6.4.6.9-.3.9-.6.9c-.4-.1-.6-.5-.6-.9z"/><path d="M158.3 205.2c0-.5.3-.9.6-.9s.6.4.6.9-.3.9-.6.9-.6-.4-.6-.9z"/><path fill="none" stroke="#000" stroke-width=".092" stroke-miterlimit="3.864" d="M158.3 205.2c0-.5.3-.9.6-.9s.6.4.6.9-.3.9-.6.9-.6-.4-.6-.9z"/><path d="M160.7 210.5c0-.5.3-.9.6-.9s.6.4.6.9-.3.9-.6.9-.6-.4-.6-.9z"/><path fill="none" stroke="#000" stroke-width=".092" stroke-miterlimit="3.864" d="M160.7 210.5c0-.5.3-.9.6-.9s.6.4.6.9-.3.9-.6.9-.6-.4-.6-.9z"/><path d="M163.1 215.8c0-.5.3-.9.6-.9s.6.4.6.9-.3.9-.6.9c-.4 0-.6-.4-.6-.9z"/><path fill="none" stroke="#000" stroke-width=".092" stroke-miterlimit="3.864" d="M163.1 215.8c0-.5.3-.9.6-.9s.6.4.6.9-.3.9-.6.9c-.4 0-.6-.4-.6-.9z"/><path fill="#5EC5ED" d="M180 95.9h133.9v5.3H180v-5.3z"/><path fill="#5EC5ED" stroke="#000" stroke-width=".073" stroke-miterlimit="3.864" d="M180 95.9h133.9v5.3H180v-5.3z"/><path fill="#020405" d="M313.9 95.9h2.3v5.3h-2.3v-5.3z"/><path fill="none" stroke="#020405" stroke-width=".073" stroke-miterlimit="3.864" d="M313.9 95.9h2.3v5.3h-2.3v-5.3z"/><path fill="#5EC5ED" d="M182.3 104.8h133.9v5.3H182.3v-5.3z"/><path fill="#5EC5ED" stroke="#000" stroke-width=".073" stroke-miterlimit="3.864" d="M182.3 104.8h133.9v5.3H182.3v-5.3z"/><path fill="#020405" d="M316.2 104.8h2.4v5.3h-2.4v-5.3z"/><path fill="none" stroke="#020405" stroke-width=".073" stroke-miterlimit="3.864" d="M316.2 104.8h2.4v5.3h-2.4v-5.3z"/><path fill="#5EC5ED" d="M184.7 113.7h133.9v5.3H184.7v-5.3z"/><path fill="#5EC5ED" stroke="#000" stroke-width=".073" stroke-miterlimit="3.864" d="M184.7 113.7h133.9v5.3H184.7v-5.3z"/><path fill="#020405" d="M318.6 113.7h2.4v5.3h-2.4v-5.3z"/><path fill="none" stroke="#020405" stroke-width=".073" stroke-miterlimit="3.864" d="M318.6 113.7h2.4v5.3h-2.4v-5.3z"/><path fill="#5EC5ED" d="M187.1 122.5H321v5.4H187.1v-5.4z"/><path fill="#5EC5ED" stroke="#000" stroke-width=".073" stroke-miterlimit="3.864" d="M187.1 122.5H321v5.4H187.1v-5.4z"/><path fill="#020405" d="M321 122.5h2.3v5.4H321v-5.4z"/><path fill="none" stroke="#020405" stroke-width=".073" stroke-miterlimit="3.864" d="M321 122.5h2.3v5.4H321v-5.4z"/><path fill="#5EC5ED" d="M189.5 131.4h133.8v5.4H189.5v-5.4z"/><path fill="#5EC5ED" stroke="#000" stroke-width=".073" stroke-miterlimit="3.864" d="M189.5 131.4h133.8v5.4H189.5v-5.4z"/><path fill="#020405" d="M323.3 131.4h2.4v5.4h-2.4v-5.4z"/><path fill="none" stroke="#020405" stroke-width=".073" stroke-miterlimit="3.864" d="M323.3 131.4h2.4v5.4h-2.4v-5.4z"/><path fill="#5EC5ED" d="M191.8 140.3h133.9v5.3H191.8v-5.3z"/><path fill="#5EC5ED" stroke="#000" stroke-width=".073" stroke-miterlimit="3.864" d="M191.8 140.3h133.9v5.3H191.8v-5.3z"/><path fill="#020405" d="M325.7 140.3h2.4v5.3h-2.4v-5.3z"/><path fill="none" stroke="#020405" stroke-width=".073" stroke-miterlimit="3.864" d="M325.7 140.3h2.4v5.3h-2.4v-5.3z"/><path fill="#5EC5ED" d="M194.2 149.2h133.9v5.3H194.2v-5.3z"/><path fill="#5EC5ED" stroke="#000" stroke-width=".073" stroke-miterlimit="3.864" d="M194.2 149.2h133.9v5.3H194.2v-5.3z"/><path fill="#020405" d="M328.1 149.2h2.3v5.3h-2.3v-5.3z"/><path fill="none" stroke="#020405" stroke-width=".073" stroke-miterlimit="3.864" d="M328.1 149.2h2.3v5.3h-2.3v-5.3z"/><path fill="#5EC5ED" d="M196.6 158.1h133.8v5.3H196.6v-5.3z"/><path fill="#5EC5ED" stroke="#000" stroke-width=".073" stroke-miterlimit="3.864" d="M196.6 158.1h133.8v5.3H196.6v-5.3z"/><path fill="#020405" d="M330.4 158.1h2.4v5.3h-2.4v-5.3z"/><path fill="none" stroke="#020405" stroke-width=".073" stroke-miterlimit="3.864" d="M330.4 158.1h2.4v5.3h-2.4v-5.3z"/><path fill="#5EC5ED" d="M198.9 167h133.9v5.3H198.9V167z"/><path fill="#5EC5ED" stroke="#000" stroke-width=".073" stroke-miterlimit="3.864" d="M198.9 167h133.9v5.3H198.9V167z"/><path fill="#020405" d="M332.8 167h2.4v5.3h-2.4V167z"/><path fill="none" stroke="#020405" stroke-width=".073" stroke-miterlimit="3.864" d="M332.8 167h2.4v5.3h-2.4V167z"/><path fill="#5EC5ED" d="M201.3 175.9h133.9v5.3H201.3v-5.3z"/><path fill="#5EC5ED" stroke="#000" stroke-width=".073" stroke-miterlimit="3.864" d="M201.3 175.9h133.9v5.3H201.3v-5.3z"/><path fill="#020405" d="M335.2 175.9h2.3v5.3h-2.3v-5.3z"/><path fill="none" stroke="#020405" stroke-width=".073" stroke-miterlimit="3.864" d="M335.2 175.9h2.3v5.3h-2.3v-5.3z"/><g fill="#5EC5ED"><path d="M203.7 184.7h133.8v5.4H203.7v-5.4z"/><path stroke="#000" stroke-width=".073" stroke-miterlimit="3.864" d="M203.7 184.7h133.8v5.4H203.7v-5.4z"/></g><path fill="#020405" d="M337.5 184.7h2.4v5.4h-2.4v-5.4z"/><path fill="none" stroke="#020405" stroke-width=".073" stroke-miterlimit="3.864" d="M337.5 184.7h2.4v5.4h-2.4v-5.4z"/><g fill="#5EC5ED"><path d="M229.7 220.3h133.9v5.3H229.7v-5.3z"/><path stroke="#000" stroke-width=".073" stroke-miterlimit="3.864" d="M229.7 220.3h133.9v5.3H229.7v-5.3z"/></g><path fill="#020405" d="M363.6 220.3h2.4v5.3h-2.4v-5.3z"/><path fill="none" stroke="#020405" stroke-width=".073" stroke-miterlimit="3.864" d="M363.6 220.3h2.4v5.3h-2.4v-5.3z"/><g fill="#5EC5ED"><path d="M232.1 229.2H366v5.3H232.1v-5.3z"/><path stroke="#000" stroke-width=".073" stroke-miterlimit="3.864" d="M232.1 229.2H366v5.3H232.1v-5.3z"/></g><path fill="#020405" d="M366 229.2h2.4v5.3H366v-5.3z"/><path fill="none" stroke="#020405" stroke-width=".073" stroke-miterlimit="3.864" d="M366 229.2h2.4v5.3H366v-5.3z"/><g fill="#5EC5ED"><path d="M234.5 238.1h133.9v5.3H234.5v-5.3z"/><path stroke="#000" stroke-width=".073" stroke-miterlimit="3.864" d="M234.5 238.1h133.9v5.3H234.5v-5.3z"/></g><path fill="#020405" d="M368.4 238.1h2.3v5.3h-2.3v-5.3z"/><path fill="none" stroke="#020405" stroke-width=".073" stroke-miterlimit="3.864" d="M368.4 238.1h2.3v5.3h-2.3v-5.3z"/><path d="M245.1 194.5c0-.5.3-.9.6-.9s.6.4.6.9-.3.9-.6.9-.6-.4-.6-.9z"/><path fill="none" stroke="#000" stroke-width=".092" stroke-miterlimit="3.864" d="M245.1 194.5c0-.5.3-.9.6-.9s.6.4.6.9-.3.9-.6.9-.6-.4-.6-.9z"/><path d="M247.5 199.9c0-.5.3-.9.6-.9s.6.4.6.9-.3.9-.6.9c-.3-.1-.6-.5-.6-.9z"/><path fill="none" stroke="#000" stroke-width=".092" stroke-miterlimit="3.864" d="M247.5 199.9c0-.5.3-.9.6-.9s.6.4.6.9-.3.9-.6.9c-.3-.1-.6-.5-.6-.9z"/><path d="M249.9 205.2c0-.5.3-.9.6-.9s.6.4.6.9-.3.9-.6.9c-.4 0-.6-.4-.6-.9z"/><path fill="none" stroke="#000" stroke-width=".092" stroke-miterlimit="3.864" d="M249.9 205.2c0-.5.3-.9.6-.9s.6.4.6.9-.3.9-.6.9c-.4 0-.6-.4-.6-.9z"/><path d="M252.2 210.5c0-.5.3-.9.6-.9s.6.4.6.9-.3.9-.6.9-.6-.4-.6-.9z"/><path fill="none" stroke="#000" stroke-width=".092" stroke-miterlimit="3.864" d="M252.2 210.5c0-.5.3-.9.6-.9s.6.4.6.9-.3.9-.6.9-.6-.4-.6-.9z"/><path d="M254.6 215.8c0-.5.3-.9.6-.9s.6.4.6.9-.3.9-.6.9-.6-.4-.6-.9z"/><path fill="none" stroke="#000" stroke-width=".092" stroke-miterlimit="3.864" d="M254.6 215.8c0-.5.3-.9.6-.9s.6.4.6.9-.3.9-.6.9-.6-.4-.6-.9z"/><path d="M311.5 194.5c0-.5.3-.9.6-.9s.6.4.6.9-.3.9-.6.9-.6-.4-.6-.9z"/><path fill="none" stroke="#000" stroke-width=".092" stroke-miterlimit="3.864" d="M311.5 194.5c0-.5.3-.9.6-.9s.6.4.6.9-.3.9-.6.9-.6-.4-.6-.9z"/><path d="M313.9 199.9c0-.5.3-.9.6-.9s.6.4.6.9-.3.9-.6.9c-.4-.1-.6-.5-.6-.9z"/><path fill="none" stroke="#000" stroke-width=".092" stroke-miterlimit="3.864" d="M313.9 199.9c0-.5.3-.9.6-.9s.6.4.6.9-.3.9-.6.9c-.4-.1-.6-.5-.6-.9z"/><path d="M316.2 205.2c0-.5.3-.9.6-.9s.6.4.6.9-.3.9-.6.9-.6-.4-.6-.9z"/><path fill="none" stroke="#000" stroke-width=".092" stroke-miterlimit="3.864" d="M316.2 205.2c0-.5.3-.9.6-.9s.6.4.6.9-.3.9-.6.9-.6-.4-.6-.9z"/><path d="M318.6 210.5c0-.5.3-.9.6-.9s.6.4.6.9-.3.9-.6.9-.6-.4-.6-.9z"/><path fill="none" stroke="#000" stroke-width=".092" stroke-miterlimit="3.864" d="M318.6 210.5c0-.5.3-.9.6-.9s.6.4.6.9-.3.9-.6.9-.6-.4-.6-.9z"/><path d="M321 215.8c0-.5.3-.9.6-.9s.6.4.6.9-.3.9-.6.9c-.4 0-.6-.4-.6-.9z"/><path fill="none" stroke="#000" stroke-width=".092" stroke-miterlimit="3.864" d="M321 215.8c0-.5.3-.9.6-.9s.6.4.6.9-.3.9-.6.9c-.4 0-.6-.4-.6-.9z"/><g fill="#5EC5ED"><path d="M337.6 95.9h133.8v5.3H337.6v-5.3z"/><path stroke="#000" stroke-width=".073" stroke-miterlimit="3.864" d="M337.6 95.9h133.8v5.3H337.6v-5.3z"/></g><path fill="#020405" d="M471.4 95.9h2.4v5.3h-2.4v-5.3z"/><path fill="none" stroke="#020405" stroke-width=".073" stroke-miterlimit="3.864" d="M471.4 95.9h2.4v5.3h-2.4v-5.3z"/><g fill="#5EC5ED"><path d="M339.9 104.8h133.9v5.3H339.9v-5.3z"/><path stroke="#000" stroke-width=".073" stroke-miterlimit="3.864" d="M339.9 104.8h133.9v5.3H339.9v-5.3z"/></g><path fill="#020405" d="M473.8 104.8h2.4v5.3h-2.4v-5.3z"/><path fill="none" stroke="#020405" stroke-width=".073" stroke-miterlimit="3.864" d="M473.8 104.8h2.4v5.3h-2.4v-5.3z"/><g fill="#5EC5ED"><path d="M342.3 113.7h133.9v5.3H342.3v-5.3z"/><path stroke="#000" stroke-width=".073" stroke-miterlimit="3.864" d="M342.3 113.7h133.9v5.3H342.3v-5.3z"/></g><path fill="#020405" d="M476.2 113.7h2.3v5.3h-2.3v-5.3z"/><path fill="none" stroke="#020405" stroke-width=".073" stroke-miterlimit="3.864" d="M476.2 113.7h2.3v5.3h-2.3v-5.3z"/><g fill="#5EC5ED"><path d="M344.7 122.5h133.8v5.4H344.7v-5.4z"/><path stroke="#000" stroke-width=".073" stroke-miterlimit="3.864" d="M344.7 122.5h133.8v5.4H344.7v-5.4z"/></g><path fill="#020405" d="M478.5 122.5h2.4v5.4h-2.4v-5.4z"/><path fill="none" stroke="#020405" stroke-width=".073" stroke-miterlimit="3.864" d="M478.5 122.5h2.4v5.4h-2.4v-5.4z"/><g fill="#5EC5ED"><path d="M347 131.4h133.9v5.4H347v-5.4z"/><path stroke="#000" stroke-width=".073" stroke-miterlimit="3.864" d="M347 131.4h133.9v5.4H347v-5.4z"/></g><path fill="#020405" d="M480.9 131.4h2.4v5.4h-2.4v-5.4z"/><path fill="none" stroke="#020405" stroke-width=".073" stroke-miterlimit="3.864" d="M480.9 131.4h2.4v5.4h-2.4v-5.4z"/><g fill="#5EC5ED"><path d="M349.4 140.3h133.9v5.3H349.4v-5.3z"/><path stroke="#000" stroke-width=".073" stroke-miterlimit="3.864" d="M349.4 140.3h133.9v5.3H349.4v-5.3z"/></g><path fill="#020405" d="M483.3 140.3h2.4v5.3h-2.4v-5.3z"/><path fill="none" stroke="#020405" stroke-width=".073" stroke-miterlimit="3.864" d="M483.3 140.3h2.4v5.3h-2.4v-5.3z"/><g fill="#5EC5ED"><path d="M351.8 149.2h133.9v5.3H351.8v-5.3z"/><path stroke="#000" stroke-width=".073" stroke-miterlimit="3.864" d="M351.8 149.2h133.9v5.3H351.8v-5.3z"/></g><path fill="#020405" d="M485.7 149.2h2.3v5.3h-2.3v-5.3z"/><path fill="none" stroke="#020405" stroke-width=".073" stroke-miterlimit="3.864" d="M485.7 149.2h2.3v5.3h-2.3v-5.3z"/><g fill="#5EC5ED"><path d="M354.1 158.1H488v5.3H354.1v-5.3z"/><path stroke="#000" stroke-width=".073" stroke-miterlimit="3.864" d="M354.1 158.1H488v5.3H354.1v-5.3z"/></g><path fill="#020405" d="M488 158.1h2.4v5.3H488v-5.3z"/><path fill="none" stroke="#020405" stroke-width=".073" stroke-miterlimit="3.864" d="M488 158.1h2.4v5.3H488v-5.3z"/><g fill="#5EC5ED"><path d="M356.5 167h133.9v5.3H356.5V167z"/><path stroke="#000" stroke-width=".073" stroke-miterlimit="3.864" d="M356.5 167h133.9v5.3H356.5V167z"/></g><path fill="#020405" d="M490.4 167h2.4v5.3h-2.4V167z"/><path fill="none" stroke="#020405" stroke-width=".073" stroke-miterlimit="3.864" d="M490.4 167h2.4v5.3h-2.4V167z"/><g fill="#5EC5ED"><path d="M358.9 175.9h133.9v5.3H358.9v-5.3z"/><path stroke="#000" stroke-width=".073" stroke-miterlimit="3.864" d="M358.9 175.9h133.9v5.3H358.9v-5.3z"/></g><path fill="#020405" d="M492.8 175.9h2.3v5.3h-2.3v-5.3z"/><path fill="none" stroke="#020405" stroke-width=".073" stroke-miterlimit="3.864" d="M492.8 175.9h2.3v5.3h-2.3v-5.3z"/><g fill="#5EC5ED"><path d="M361.3 184.7h133.8v5.4H361.3v-5.4z"/><path stroke="#000" stroke-width=".073" stroke-miterlimit="3.864" d="M361.3 184.7h133.8v5.4H361.3v-5.4z"/></g><path fill="#020405" d="M495.1 184.7h2.4v5.4h-2.4v-5.4z"/><path fill="none" stroke="#020405" stroke-width=".073" stroke-miterlimit="3.864" d="M495.1 184.7h2.4v5.4h-2.4v-5.4z"/><g fill="#5EC5ED"><path d="M387.3 220.3h133.9v5.3H387.3v-5.3z"/><path stroke="#000" stroke-width=".073" stroke-miterlimit="3.864" d="M387.3 220.3h133.9v5.3H387.3v-5.3z"/></g><path fill="#020405" d="M521.2 220.3h2.4v5.3h-2.4v-5.3z"/><path fill="none" stroke="#020405" stroke-width=".073" stroke-miterlimit="3.864" d="M521.2 220.3h2.4v5.3h-2.4v-5.3z"/><g fill="#5EC5ED"><path d="M389.7 229.2h133.9v5.3H389.7v-5.3z"/><path stroke="#000" stroke-width=".073" stroke-miterlimit="3.864" d="M389.7 229.2h133.9v5.3H389.7v-5.3z"/></g><path fill="#020405" d="M523.6 229.2h2.3v5.3h-2.3v-5.3z"/><path fill="none" stroke="#020405" stroke-width=".073" stroke-miterlimit="3.864" d="M523.6 229.2h2.3v5.3h-2.3v-5.3z"/><g fill="#5EC5ED"><path d="M392.1 238.1h133.8v5.3H392.1v-5.3z"/><path stroke="#000" stroke-width=".073" stroke-miterlimit="3.864" d="M392.1 238.1h133.8v5.3H392.1v-5.3z"/></g><path fill="#020405" d="M525.9 238.1h2.4v5.3h-2.4v-5.3z"/><path fill="none" stroke="#020405" stroke-width=".073" stroke-miterlimit="3.864" d="M525.9 238.1h2.4v5.3h-2.4v-5.3z"/><path d="M402.7 194.5c0-.5.3-.9.6-.9s.6.4.6.9-.3.9-.6.9-.6-.4-.6-.9z"/><path fill="none" stroke="#000" stroke-width=".092" stroke-miterlimit="3.864" d="M402.7 194.5c0-.5.3-.9.6-.9s.6.4.6.9-.3.9-.6.9-.6-.4-.6-.9z"/><path d="M405.1 199.9c0-.5.3-.9.6-.9s.6.4.6.9-.3.9-.6.9c-.3-.1-.6-.5-.6-.9z"/><path fill="none" stroke="#000" stroke-width=".092" stroke-miterlimit="3.864" d="M405.1 199.9c0-.5.3-.9.6-.9s.6.4.6.9-.3.9-.6.9c-.3-.1-.6-.5-.6-.9z"/><path d="M407.5 205.2c0-.5.3-.9.6-.9s.6.4.6.9-.3.9-.6.9c-.4 0-.6-.4-.6-.9z"/><path fill="none" stroke="#000" stroke-width=".092" stroke-miterlimit="3.864" d="M407.5 205.2c0-.5.3-.9.6-.9s.6.4.6.9-.3.9-.6.9c-.4 0-.6-.4-.6-.9z"/><path d="M409.8 210.5c0-.5.3-.9.6-.9s.6.4.6.9-.3.9-.6.9-.6-.4-.6-.9z"/><path fill="none" stroke="#000" stroke-width=".092" stroke-miterlimit="3.864" d="M409.8 210.5c0-.5.3-.9.6-.9s.6.4.6.9-.3.9-.6.9-.6-.4-.6-.9z"/><path d="M412.2 215.8c0-.5.3-.9.6-.9s.6.4.6.9-.3.9-.6.9-.6-.4-.6-.9z"/><path fill="none" stroke="#000" stroke-width=".092" stroke-miterlimit="3.864" d="M412.2 215.8c0-.5.3-.9.6-.9s.6.4.6.9-.3.9-.6.9-.6-.4-.6-.9z"/><path d="M469.1 194.5c0-.5.3-.9.6-.9s.6.4.6.9-.3.9-.6.9c-.4 0-.6-.4-.6-.9z"/><path fill="none" stroke="#000" stroke-width=".092" stroke-miterlimit="3.864" d="M469.1 194.5c0-.5.3-.9.6-.9s.6.4.6.9-.3.9-.6.9c-.4 0-.6-.4-.6-.9z"/><path d="M471.4 199.9c0-.5.3-.9.6-.9s.6.4.6.9-.3.9-.6.9c-.3-.1-.6-.5-.6-.9z"/><path fill="none" stroke="#000" stroke-width=".092" stroke-miterlimit="3.864" d="M471.4 199.9c0-.5.3-.9.6-.9s.6.4.6.9-.3.9-.6.9c-.3-.1-.6-.5-.6-.9z"/><path d="M473.8 205.2c0-.5.3-.9.6-.9s.6.4.6.9-.3.9-.6.9-.6-.4-.6-.9z"/><path fill="none" stroke="#000" stroke-width=".092" stroke-miterlimit="3.864" d="M473.8 205.2c0-.5.3-.9.6-.9s.6.4.6.9-.3.9-.6.9-.6-.4-.6-.9z"/><path d="M476.2 210.5c0-.5.3-.9.6-.9s.6.4.6.9-.3.9-.6.9c-.4 0-.6-.4-.6-.9z"/><path fill="none" stroke="#000" stroke-width=".092" stroke-miterlimit="3.864" d="M476.2 210.5c0-.5.3-.9.6-.9s.6.4.6.9-.3.9-.6.9c-.4 0-.6-.4-.6-.9z"/><path d="M478.5 215.8c0-.5.3-.9.6-.9s.6.4.6.9-.3.9-.6.9-.6-.4-.6-.9z"/><path fill="none" stroke="#000" stroke-width=".092" stroke-miterlimit="3.864" d="M478.5 215.8c0-.5.3-.9.6-.9s.6.4.6.9-.3.9-.6.9-.6-.4-.6-.9z"/><g clip-rule="evenodd"><path fill-rule="evenodd" d="M529.6 285.8v-5l12.4 5-12.4 4.9z"/><path fill="none" stroke="#000" stroke-miterlimit="3.864" d="M14.2 285.8h518.5"/></g><path clip-rule="evenodd" fill="none" stroke="#000" stroke-width=".612" stroke-miterlimit="3.864" d="M14.2 70.7h7.9m0 0V53.8m0 0h24.7m0 16.9V53.8m0 16.9H180m0 0V53.8m0 0h24.7m0 16.9V53.8m0 16.9h132.8m0 0V53.8m0 0h24.7m0 16.9V53.8m0 16.9h170.5"/><text transform="translate(471.475 320.51)" font-family="Helvetica,Arial,sans-serif" font-size="13.989">= Exposure</text><text transform="translate(471.573 340.206)" font-family="Helvetica,Arial,sans-serif" font-size="13.989">= Readout</text><text transform="translate(245.138 310.102)" font-family="Helvetica,Arial,sans-serif" font-size="17.097">Time</text><text transform="translate(255.686 261.153)" font-family="Helvetica,Arial,sans-serif" font-size="12.717">Frame acquisition n+1</text><text transform="translate(84.06 261.153)" font-family="Helvetica,Arial,sans-serif" font-size="12.717">Frame acquisition n</text><text transform="translate(402.398 261.153)" font-family="Helvetica,Arial,sans-serif" font-size="12.717">Frame acquisition n+2</text><text transform="translate(12.108 21.664)"><tspan x="0" y="0" font-family="Helvetica,Arial,sans-serif" font-size="13.506">Frame Start </tspan><tspan x="0" y="16.2" font-family="Helvetica,Arial,sans-serif" font-size="13.506">trigger signal</tspan></text></svg>