<svg version="1.0" xmlns="http://www.w3.org/2000/svg" viewBox="0 0 505.3 656.3"><path fill="#FEDDBF" d="M234.7 255.5h191.9v119.6H234.7V255.5z"/><path fill="none" stroke="#000" stroke-width=".5" stroke-miterlimit="3.864" d="M116.2 605.2h8v8h-8v-8zm12 0h8v8h-8v-8zm12 0h8v8h-8v-8zm12 0h8v8h-8v-8zm12 0h8v8h-8v-8zm12 0h8v8h-8v-8zm12 0h8v8h-8v-8zm12 0h8v8h-8v-8zm12 0h8v8h-8v-8zm12 0h8v8h-8v-8zm12 0h8v8h-8v-8zm12 0h8v8h-8v-8zm12 0h8v8h-8v-8zm12 0h8v8h-8v-8zm12 0h8v8h-8v-8zm12 0h8v8h-8v-8zm12 0h8v8h-8v-8zm12 0h8v8h-8v-8zm12 0h8v8h-8v-8zm12 0h8v8h-8v-8zm12 0h8v8h-8v-8zm12 0h8v8h-8v-8zm12 0h8v8h-8v-8zm12 0h8v8h-8v-8zm12 0h8v8h-8v-8zm12 0h8v8h-8v-8zm12 0h8v8h-8v-8zm12 0h8v8h-8v-8zm12 0h8v8h-8v-8zm12 0h8v8h-8v-8zm12 0h8v8h-8v-8zm12-204h8v8h-8v-8zm0 12h8v8h-8v-8zm0 12h8v8h-8v-8zm0 12h8v8h-8v-8zm0 12h8v8h-8v-8zm0 12h8v8h-8v-8zm0 12h8v8h-8v-8zm0 12h8v8h-8v-8zm0 12h8v8h-8v-8zm0 12h8v8h-8v-8zm0 12h8v8h-8v-8zm0 12h8v8h-8v-8zm0 12h8v8h-8v-8zm0 12h8v8h-8v-8zm0 12h8v8h-8v-8zm0 12h8v8h-8v-8zm0 12h8v8h-8v-8zm0 12h8v8h-8v-8z"/><path fill="#BDD5BA" d="M234.6 87h191.9v71.8H234.6V87z"/><text transform="translate(118.077 11.377)" font-family="Helvetica,Arial,sans-serif" font-size="8">0</text><text transform="translate(130.077 11.377)" font-family="Helvetica,Arial,sans-serif" font-size="8">1</text><text transform="translate(109.419 23.976)" font-family="Helvetica,Arial,sans-serif" font-size="8">0</text><path fill="none" stroke="#000" stroke-width=".5" stroke-miterlimit="3.864" d="M116.3 17.1h8v8h-8v-8zm12 0h8v8h-8v-8z"/><text transform="translate(142.077 11.377)" font-family="Helvetica,Arial,sans-serif" font-size="8">2</text><text transform="translate(154.077 11.377)" font-family="Helvetica,Arial,sans-serif" font-size="8">3</text><path fill="none" stroke="#000" stroke-width=".5" stroke-miterlimit="3.864" d="M140.3 17.1h8v8h-8v-8zm12 0h8v8h-8v-8z"/><text transform="translate(166.077 11.377)" font-family="Helvetica,Arial,sans-serif" font-size="8">4</text><text transform="translate(178.077 11.377)" font-family="Helvetica,Arial,sans-serif" font-size="8">5</text><path fill="none" stroke="#000" stroke-width=".5" stroke-miterlimit="3.864" d="M164.3 17.1h8v8h-8v-8zm12 0h8v8h-8v-8z"/><text transform="translate(190.077 11.377)" font-family="Helvetica,Arial,sans-serif" font-size="8">6</text><text transform="translate(202.077 11.377)" font-family="Helvetica,Arial,sans-serif" font-size="8">7</text><path fill="none" stroke="#000" stroke-width=".5" stroke-miterlimit="3.864" d="M188.3 17.1h8v8h-8v-8zm12 0h8v8h-8v-8z"/><text transform="translate(214.077 11.377)" font-family="Helvetica,Arial,sans-serif" font-size="8">8</text><text transform="translate(225.477 11.377)" font-family="Helvetica,Arial,sans-serif" font-size="8">9</text><path fill="none" stroke="#000" stroke-width=".5" stroke-miterlimit="3.864" d="M212.3 17.1h8v8h-8v-8zm12 0h8v8h-8v-8z"/><text transform="translate(236.077 11.377)" font-family="Helvetica,Arial,sans-serif" font-size="8">10</text><g font-family="Helvetica,Arial,sans-serif" font-size="8"><text transform="translate(248.077 11.377)">1</text><text transform="translate(251.299 11.377)">1</text></g><path fill="none" stroke="#000" stroke-width=".5" stroke-miterlimit="3.864" d="M236.3 17.1h8v8h-8v-8zm12 0h8v8h-8v-8z"/><text transform="translate(260.077 11.377)" font-family="Helvetica,Arial,sans-serif" font-size="8">12</text><text transform="translate(272.077 11.377)" font-family="Helvetica,Arial,sans-serif" font-size="8">13</text><path fill="none" stroke="#000" stroke-width=".5" stroke-miterlimit="3.864" d="M260.3 17.1h8v8h-8v-8zm12 0h8v8h-8v-8z"/><text transform="translate(284.077 11.377)" font-family="Helvetica,Arial,sans-serif" font-size="8">14</text><text transform="translate(296.077 11.377)" font-family="Helvetica,Arial,sans-serif" font-size="8">15</text><path fill="none" stroke="#000" stroke-width=".5" stroke-miterlimit="3.864" d="M284.3 17.1h8v8h-8v-8zm12 0h8v8h-8v-8z"/><text transform="translate(308.077 11.377)" font-family="Helvetica,Arial,sans-serif" font-size="8">16</text><text transform="translate(320.077 11.377)" font-family="Helvetica,Arial,sans-serif" font-size="8">17</text><path fill="none" stroke="#000" stroke-width=".5" stroke-miterlimit="3.864" d="M308.3 17.1h8v8h-8v-8zm12 0h8v8h-8v-8z"/><text transform="translate(332.077 11.377)" font-family="Helvetica,Arial,sans-serif" font-size="8">18</text><text transform="translate(344.077 11.377)" font-family="Helvetica,Arial,sans-serif" font-size="8">19</text><path fill="none" stroke="#000" stroke-width=".5" stroke-miterlimit="3.864" d="M332.3 17.1h8v8h-8v-8zm12 0h8v8h-8v-8z"/><text transform="translate(356.077 11.377)" font-family="Helvetica,Arial,sans-serif" font-size="8">20</text><text transform="translate(368.077 11.377)" font-family="Helvetica,Arial,sans-serif" font-size="8">21</text><path fill="none" stroke="#000" stroke-width=".5" stroke-miterlimit="3.864" d="M356.3 17.1h8v8h-8v-8zm12 0h8v8h-8v-8z"/><text transform="translate(380.077 11.377)" font-family="Helvetica,Arial,sans-serif" font-size="8">22</text><text transform="translate(392.077 11.377)" font-family="Helvetica,Arial,sans-serif" font-size="8">23</text><path fill="none" stroke="#000" stroke-width=".5" stroke-miterlimit="3.864" d="M380.3 17.1h8v8h-8v-8zm12 0h8v8h-8v-8z"/><text transform="translate(404.076 11.377)" font-family="Helvetica,Arial,sans-serif" font-size="8">24</text><text transform="translate(416.076 11.377)" font-family="Helvetica,Arial,sans-serif" font-size="8">25</text><path fill="none" stroke="#000" stroke-width=".5" stroke-miterlimit="3.864" d="M404.3 17.1h8v8h-8v-8zm12 0h8v8h-8v-8z"/><text transform="translate(428.076 11.377)" font-family="Helvetica,Arial,sans-serif" font-size="8">26</text><text transform="translate(440.076 11.377)" font-family="Helvetica,Arial,sans-serif" font-size="8">27</text><path fill="none" stroke="#000" stroke-width=".5" stroke-miterlimit="3.864" d="M428.3 17.1h8v8h-8v-8zm12 0h8v8h-8v-8z"/><text transform="translate(452.076 11.377)" font-family="Helvetica,Arial,sans-serif" font-size="8">28</text><text transform="translate(464.076 11.377)" font-family="Helvetica,Arial,sans-serif" font-size="8">29</text><path fill="none" stroke="#000" stroke-width=".5" stroke-miterlimit="3.864" d="M452.3 17.1h8v8h-8v-8zm12 0h8v8h-8v-8z"/><text transform="translate(476.077 11.377)" font-family="Helvetica,Arial,sans-serif" font-size="8">30</text><path fill="none" stroke="#000" stroke-width=".5" stroke-miterlimit="3.864" d="M476.3 17.1h8v8h-8v-8zm12 0h8v8h-8v-8zm-372 12h8v8h-8v-8zm12 0h8v8h-8v-8zm12 0h8v8h-8v-8zm12 0h8v8h-8v-8zm12 0h8v8h-8v-8zm12 0h8v8h-8v-8zm12 0h8v8h-8v-8zm12 0h8v8h-8v-8zm12 0h8v8h-8v-8zm12 0h8v8h-8v-8zm12 0h8v8h-8v-8zm12 0h8v8h-8v-8zm12 0h8v8h-8v-8zm12 0h8v8h-8v-8zm12 0h8v8h-8v-8zm12 0h8v8h-8v-8zm12 0h8v8h-8v-8zm12 0h8v8h-8v-8zm12 0h8v8h-8v-8zm12 0h8v8h-8v-8zm12 0h8v8h-8v-8zm12 0h8v8h-8v-8zm12 0h8v8h-8v-8zm12 0h8v8h-8v-8zm12 0h8v8h-8v-8zm12 0h8v8h-8v-8zm12 0h8v8h-8v-8zm12 0h8v8h-8v-8zm12 0h8v8h-8v-8zm12 0h8v8h-8v-8zm12 0h8v8h-8v-8zm12 0h8v8h-8v-8zm-372 12h8v8h-8v-8zm12 0h8v8h-8v-8zm12 0h8v8h-8v-8zm12 0h8v8h-8v-8zm12 0h8v8h-8v-8zm12 0h8v8h-8v-8zm12 0h8v8h-8v-8zm12 0h8v8h-8v-8zm12 0h8v8h-8v-8zm12 0h8v8h-8v-8zm12 0h8v8h-8v-8zm12 0h8v8h-8v-8zm12 0h8v8h-8v-8zm12 0h8v8h-8v-8zm12 0h8v8h-8v-8zm12 0h8v8h-8v-8zm12 0h8v8h-8v-8zm12 0h8v8h-8v-8zm12 0h8v8h-8v-8zm12 0h8v8h-8v-8zm12 0h8v8h-8v-8zm12 0h8v8h-8v-8zm12 0h8v8h-8v-8zm12 0h8v8h-8v-8zm12 0h8v8h-8v-8zm12 0h8v8h-8v-8zm12 0h8v8h-8v-8zm12 0h8v8h-8v-8zm12 0h8v8h-8v-8zm12 0h8v8h-8v-8zm12 0h8v8h-8v-8zm12 0h8v8h-8v-8zm-372 12h8v8h-8v-8zm12 0h8v8h-8v-8zm12 0h8v8h-8v-8zm12 0h8v8h-8v-8zm12 0h8v8h-8v-8zm12 0h8v8h-8v-8zm12 0h8v8h-8v-8zm12 0h8v8h-8v-8zm12 0h8v8h-8v-8zm12 0h8v8h-8v-8zm12 0h8v8h-8v-8zm12 0h8v8h-8v-8zm12 0h8v8h-8v-8zm12 0h8v8h-8v-8zm12 0h8v8h-8v-8zm12 0h8v8h-8v-8zm12 0h8v8h-8v-8zm12 0h8v8h-8v-8zm12 0h8v8h-8v-8zm12 0h8v8h-8v-8zm12 0h8v8h-8v-8zm12 0h8v8h-8v-8zm12 0h8v8h-8v-8zm12 0h8v8h-8v-8zm12 0h8v8h-8v-8zm12 0h8v8h-8v-8zm12 0h8v8h-8v-8zm12 0h8v8h-8v-8zm12 0h8v8h-8v-8zm12 0h8v8h-8v-8zm12 0h8v8h-8v-8zm12 0h8v8h-8v-8zm-372 12h8v8h-8v-8zm12 0h8v8h-8v-8zm12 0h8v8h-8v-8zm12 0h8v8h-8v-8zm12 0h8v8h-8v-8zm12 0h8v8h-8v-8zm12 0h8v8h-8v-8zm12 0h8v8h-8v-8zm12 0h8v8h-8v-8zm12 0h8v8h-8v-8zm12 0h8v8h-8v-8zm12 0h8v8h-8v-8zm12 0h8v8h-8v-8zm12 0h8v8h-8v-8zm12 0h8v8h-8v-8zm12 0h8v8h-8v-8zm12 0h8v8h-8v-8zm12 0h8v8h-8v-8zm12 0h8v8h-8v-8zm12 0h8v8h-8v-8zm12 0h8v8h-8v-8zm12 0h8v8h-8v-8zm12 0h8v8h-8v-8zm12 0h8v8h-8v-8zm12 0h8v8h-8v-8zm12 0h8v8h-8v-8zm12 0h8v8h-8v-8zm12 0h8v8h-8v-8zm12 0h8v8h-8v-8zm12 0h8v8h-8v-8zm12 0h8v8h-8v-8zm12 0h8v8h-8v-8zm-372 12h8v8h-8v-8zm12 0h8v8h-8v-8zm12 0h8v8h-8v-8zm12 0h8v8h-8v-8zm12 0h8v8h-8v-8zm12 0h8v8h-8v-8zm12 0h8v8h-8v-8zm12 0h8v8h-8v-8zm12 0h8v8h-8v-8zm12 0h8v8h-8v-8zm12 0h8v8h-8v-8zm12 0h8v8h-8v-8zm12 0h8v8h-8v-8zm12 0h8v8h-8v-8zm12 0h8v8h-8v-8zm12 0h8v8h-8v-8zm12 0h8v8h-8v-8zm12 0h8v8h-8v-8zm12 0h8v8h-8v-8zm12 0h8v8h-8v-8zm12 0h8v8h-8v-8zm12 0h8v8h-8v-8zm12 0h8v8h-8v-8zm12 0h8v8h-8v-8zm12 0h8v8h-8v-8zm12 0h8v8h-8v-8zm12 0h8v8h-8v-8zm12 0h8v8h-8v-8zm12 0h8v8h-8v-8zm12 0h8v8h-8v-8zm12 0h8v8h-8v-8zm12 0h8v8h-8v-8zm-372 12h8v8h-8v-8zm12 0h8v8h-8v-8zm12 0h8v8h-8v-8zm12 0h8v8h-8v-8zm12 0h8v8h-8v-8zm12 0h8v8h-8v-8zm12 0h8v8h-8v-8zm12 0h8v8h-8v-8zm12 0h8v8h-8v-8zm12 0h8v8h-8v-8zm12 0h8v8h-8v-8zm12 0h8v8h-8v-8zm12 0h8v8h-8v-8zm12 0h8v8h-8v-8zm12 0h8v8h-8v-8zm12 0h8v8h-8v-8zm12 0h8v8h-8v-8zm12 0h8v8h-8v-8zm12 0h8v8h-8v-8zm12 0h8v8h-8v-8zm12 0h8v8h-8v-8zm12 0h8v8h-8v-8zm12 0h8v8h-8v-8zm12 0h8v8h-8v-8zm12 0h8v8h-8v-8zm12 0h8v8h-8v-8zm12 0h8v8h-8v-8zm12 0h8v8h-8v-8zm12 0h8v8h-8v-8zm12 0h8v8h-8v-8zm12 0h8v8h-8v-8zm12 0h8v8h-8v-8zm-372 12h8v8h-8v-8zm12 0h8v8h-8v-8zm12 0h8v8h-8v-8zm12 0h8v8h-8v-8zm12 0h8v8h-8v-8zm12 0h8v8h-8v-8zm12 0h8v8h-8v-8zm12 0h8v8h-8v-8zm12 0h8v8h-8v-8zm12 0h8v8h-8v-8zm12 0h8v8h-8v-8zm12 0h8v8h-8v-8zm12 0h8v8h-8v-8zm12 0h8v8h-8v-8zm12 0h8v8h-8v-8zm12 0h8v8h-8v-8zm12 0h8v8h-8v-8zm12 0h8v8h-8v-8zm12 0h8v8h-8v-8zm12 0h8v8h-8v-8zm12 0h8v8h-8v-8zm12 0h8v8h-8v-8zm12 0h8v8h-8v-8zm12 0h8v8h-8v-8zm12 0h8v8h-8v-8zm12 0h8v8h-8v-8zm12 0h8v8h-8v-8zm12 0h8v8h-8v-8zm12 0h8v8h-8v-8zm12 0h8v8h-8v-8zm12 0h8v8h-8v-8zm12 0h8v8h-8v-8zm-372 12h8v8h-8v-8zm12 0h8v8h-8v-8zm12 0h8v8h-8v-8zm12 0h8v8h-8v-8zm12 0h8v8h-8v-8zm12 0h8v8h-8v-8zm12 0h8v8h-8v-8zm12 0h8v8h-8v-8zm12 0h8v8h-8v-8zm12 0h8v8h-8v-8zm12 0h8v8h-8v-8zm12 0h8v8h-8v-8zm12 0h8v8h-8v-8zm12 0h8v8h-8v-8zm12 0h8v8h-8v-8zm12 0h8v8h-8v-8zm12 0h8v8h-8v-8zm12 0h8v8h-8v-8zm12 0h8v8h-8v-8zm12 0h8v8h-8v-8zm12 0h8v8h-8v-8zm12 0h8v8h-8v-8zm12 0h8v8h-8v-8zm12 0h8v8h-8v-8zm12 0h8v8h-8v-8zm12 0h8v8h-8v-8zm12 0h8v8h-8v-8zm12 0h8v8h-8v-8zm12 0h8v8h-8v-8zm12 0h8v8h-8v-8zm12 0h8v8h-8v-8zm12 0h8v8h-8v-8zm-372 12h8v8h-8v-8zm12 0h8v8h-8v-8zm12 0h8v8h-8v-8zm12 0h8v8h-8v-8zm12 0h8v8h-8v-8zm12 0h8v8h-8v-8zm12 0h8v8h-8v-8zm12 0h8v8h-8v-8zm12 0h8v8h-8v-8zm12 0h8v8h-8v-8zm12 0h8v8h-8v-8zm12 0h8v8h-8v-8zm12 0h8v8h-8v-8zm12 0h8v8h-8v-8zm12 0h8v8h-8v-8zm12 0h8v8h-8v-8zm12 0h8v8h-8v-8zm12 0h8v8h-8v-8zm12 0h8v8h-8v-8zm12 0h8v8h-8v-8zm12 0h8v8h-8v-8zm12 0h8v8h-8v-8zm12 0h8v8h-8v-8zm12 0h8v8h-8v-8zm12 0h8v8h-8v-8zm12 0h8v8h-8v-8zm12 0h8v8h-8v-8zm12 0h8v8h-8v-8zm12 0h8v8h-8v-8zm12 0h8v8h-8v-8zm12 0h8v8h-8v-8zm12 0h8v8h-8v-8zm-372 12h8v8h-8v-8zm12 0h8v8h-8v-8zm12 0h8v8h-8v-8zm12 0h8v8h-8v-8zm12 0h8v8h-8v-8zm12 0h8v8h-8v-8zm12 0h8v8h-8v-8zm12 0h8v8h-8v-8zm12 0h8v8h-8v-8zm12 0h8v8h-8v-8zm12 0h8v8h-8v-8zm12 0h8v8h-8v-8zm12 0h8v8h-8v-8zm12 0h8v8h-8v-8zm12 0h8v8h-8v-8zm12 0h8v8h-8v-8zm12 0h8v8h-8v-8zm12 0h8v8h-8v-8zm12 0h8v8h-8v-8zm12 0h8v8h-8v-8zm12 0h8v8h-8v-8zm12 0h8v8h-8v-8zm12 0h8v8h-8v-8zm12 0h8v8h-8v-8zm12 0h8v8h-8v-8zm12 0h8v8h-8v-8zm12 0h8v8h-8v-8zm12 0h8v8h-8v-8zm12 0h8v8h-8v-8zm12 0h8v8h-8v-8zm12 0h8v8h-8v-8zm12 0h8v8h-8v-8zm-372 12h8v8h-8v-8zm12 0h8v8h-8v-8zm12 0h8v8h-8v-8zm12 0h8v8h-8v-8zm12 0h8v8h-8v-8zm12 0h8v8h-8v-8zm12 0h8v8h-8v-8zm12 0h8v8h-8v-8zm12 0h8v8h-8v-8zm12 0h8v8h-8v-8zm12 0h8v8h-8v-8zm12 0h8v8h-8v-8zm12 0h8v8h-8v-8zm12 0h8v8h-8v-8zm12 0h8v8h-8v-8zm12 0h8v8h-8v-8zm12 0h8v8h-8v-8zm12 0h8v8h-8v-8zm12 0h8v8h-8v-8zm12 0h8v8h-8v-8zm12 0h8v8h-8v-8zm12 0h8v8h-8v-8zm12 0h8v8h-8v-8zm12 0h8v8h-8v-8zm12 0h8v8h-8v-8zm12 0h8v8h-8v-8zm12 0h8v8h-8v-8zm12 0h8v8h-8v-8zm12 0h8v8h-8v-8zm12 0h8v8h-8v-8zm12 0h8v8h-8v-8zm12 0h8v8h-8v-8zm-372 12h8v8h-8v-8zm12 0h8v8h-8v-8zm12 0h8v8h-8v-8zm12 0h8v8h-8v-8zm12 0h8v8h-8v-8zm12 0h8v8h-8v-8zm12 0h8v8h-8v-8zm12 0h8v8h-8v-8zm12 0h8v8h-8v-8zm12 0h8v8h-8v-8zm12 0h8v8h-8v-8zm12 0h8v8h-8v-8zm12 0h8v8h-8v-8zm12 0h8v8h-8v-8zm12 0h8v8h-8v-8zm12 0h8v8h-8v-8zm12 0h8v8h-8v-8zm12 0h8v8h-8v-8zm12 0h8v8h-8v-8zm12 0h8v8h-8v-8zm12 0h8v8h-8v-8zm12 0h8v8h-8v-8zm12 0h8v8h-8v-8zm12 0h8v8h-8v-8zm12 0h8v8h-8v-8zm12 0h8v8h-8v-8zm12 0h8v8h-8v-8zm12 0h8v8h-8v-8zm12 0h8v8h-8v-8zm12 0h8v8h-8v-8zm12 0h8v8h-8v-8zm12 0h8v8h-8v-8zm-372 12h8v8h-8v-8zm12 0h8v8h-8v-8zm12 0h8v8h-8v-8zm12 0h8v8h-8v-8zm12 0h8v8h-8v-8zm12 0h8v8h-8v-8zm12 0h8v8h-8v-8zm12 0h8v8h-8v-8zm12 0h8v8h-8v-8zm12 0h8v8h-8v-8zm12 0h8v8h-8v-8zm12 0h8v8h-8v-8zm12 0h8v8h-8v-8zm12 0h8v8h-8v-8zm12 0h8v8h-8v-8zm12 0h8v8h-8v-8zm12 0h8v8h-8v-8zm12 0h8v8h-8v-8zm12 0h8v8h-8v-8zm12 0h8v8h-8v-8zm12 0h8v8h-8v-8zm12 0h8v8h-8v-8zm12 0h8v8h-8v-8zm12 0h8v8h-8v-8zm12 0h8v8h-8v-8zm12 0h8v8h-8v-8zm12 0h8v8h-8v-8zm12 0h8v8h-8v-8zm12 0h8v8h-8v-8zm12 0h8v8h-8v-8zm12 0h8v8h-8v-8zm12 0h8v8h-8v-8zm-372 12h8v8h-8v-8zm12 0h8v8h-8v-8zm12 0h8v8h-8v-8zm12 0h8v8h-8v-8zm12 0h8v8h-8v-8zm12 0h8v8h-8v-8zm12 0h8v8h-8v-8zm12 0h8v8h-8v-8zm12 0h8v8h-8v-8zm12 0h8v8h-8v-8zm12 0h8v8h-8v-8zm12 0h8v8h-8v-8zm12 0h8v8h-8v-8zm12 0h8v8h-8v-8zm12 0h8v8h-8v-8zm12 0h8v8h-8v-8zm12 0h8v8h-8v-8zm12 0h8v8h-8v-8zm12 0h8v8h-8v-8zm12 0h8v8h-8v-8zm12 0h8v8h-8v-8zm12 0h8v8h-8v-8zm12 0h8v8h-8v-8zm12 0h8v8h-8v-8zm12 0h8v8h-8v-8zm12 0h8v8h-8v-8zm12 0h8v8h-8v-8zm12 0h8v8h-8v-8zm12 0h8v8h-8v-8zm12 0h8v8h-8v-8zm12 0h8v8h-8v-8zm12 0h8v8h-8v-8zm-372 12h8v8h-8v-8zm12 0h8v8h-8v-8zm12 0h8v8h-8v-8zm12 0h8v8h-8v-8zm12 0h8v8h-8v-8zm12 0h8v8h-8v-8zm12 0h8v8h-8v-8zm12 0h8v8h-8v-8zm12 0h8v8h-8v-8zm12 0h8v8h-8v-8zm12 0h8v8h-8v-8zm12 0h8v8h-8v-8zm12 0h8v8h-8v-8zm12 0h8v8h-8v-8zm12 0h8v8h-8v-8zm12 0h8v8h-8v-8zm12 0h8v8h-8v-8zm12 0h8v8h-8v-8zm12 0h8v8h-8v-8zm12 0h8v8h-8v-8zm12 0h8v8h-8v-8zm12 0h8v8h-8v-8zm12 0h8v8h-8v-8zm12 0h8v8h-8v-8zm12 0h8v8h-8v-8zm12 0h8v8h-8v-8zm12 0h8v8h-8v-8zm12 0h8v8h-8v-8zm12 0h8v8h-8v-8zm12 0h8v8h-8v-8zm12 0h8v8h-8v-8zm12 0h8v8h-8v-8zm-372 12h8v8h-8v-8zm12 0h8v8h-8v-8zm12 0h8v8h-8v-8zm12 0h8v8h-8v-8zm12 0h8v8h-8v-8zm12 0h8v8h-8v-8zm12 0h8v8h-8v-8zm12 0h8v8h-8v-8zm12 0h8v8h-8v-8zm12 0h8v8h-8v-8zm12 0h8v8h-8v-8zm12 0h8v8h-8v-8zm12 0h8v8h-8v-8zm12 0h8v8h-8v-8zm12 0h8v8h-8v-8zm12 0h8v8h-8v-8zm12 0h8v8h-8v-8zm12 0h8v8h-8v-8zm12 0h8v8h-8v-8zm12 0h8v8h-8v-8zm12 0h8v8h-8v-8zm12 0h8v8h-8v-8zm12 0h8v8h-8v-8zm12 0h8v8h-8v-8zm12 0h8v8h-8v-8zm12 0h8v8h-8v-8zm12 0h8v8h-8v-8zm12 0h8v8h-8v-8zm12 0h8v8h-8v-8zm12 0h8v8h-8v-8zm12 0h8v8h-8v-8zm12 0h8v8h-8v-8zm-372 12h8v8h-8v-8zm12 0h8v8h-8v-8zm12 0h8v8h-8v-8zm12 0h8v8h-8v-8zm12 0h8v8h-8v-8zm12 0h8v8h-8v-8zm12 0h8v8h-8v-8zm12 0h8v8h-8v-8zm12 0h8v8h-8v-8zm12 0h8v8h-8v-8zm12 0h8v8h-8v-8zm12 0h8v8h-8v-8zm12 0h8v8h-8v-8zm12 0h8v8h-8v-8zm12 0h8v8h-8v-8zm12 0h8v8h-8v-8zm12 0h8v8h-8v-8zm12 0h8v8h-8v-8zm12 0h8v8h-8v-8zm12 0h8v8h-8v-8zm12 0h8v8h-8v-8zm12 0h8v8h-8v-8zm12 0h8v8h-8v-8zm12 0h8v8h-8v-8zm12 0h8v8h-8v-8zm12 0h8v8h-8v-8zm12 0h8v8h-8v-8zm12 0h8v8h-8v-8zm12 0h8v8h-8v-8zm12 0h8v8h-8v-8zm12 0h8v8h-8v-8zm12 0h8v8h-8v-8zm-372 12h8v8h-8v-8zm12 0h8v8h-8v-8zm12 0h8v8h-8v-8zm12 0h8v8h-8v-8zm12 0h8v8h-8v-8zm12 0h8v8h-8v-8zm12 0h8v8h-8v-8zm12 0h8v8h-8v-8zm12 0h8v8h-8v-8zm12 0h8v8h-8v-8zm12 0h8v8h-8v-8zm12 0h8v8h-8v-8zm12 0h8v8h-8v-8zm12 0h8v8h-8v-8zm12 0h8v8h-8v-8zm12 0h8v8h-8v-8zm12 0h8v8h-8v-8zm12 0h8v8h-8v-8zm12 0h8v8h-8v-8zm12 0h8v8h-8v-8zm12 0h8v8h-8v-8zm12 0h8v8h-8v-8zm12 0h8v8h-8v-8zm12 0h8v8h-8v-8zm12 0h8v8h-8v-8zm12 0h8v8h-8v-8zm12 0h8v8h-8v-8zm12 0h8v8h-8v-8zm12 0h8v8h-8v-8zm12 0h8v8h-8v-8zm12 0h8v8h-8v-8zm12 0h8v8h-8v-8zm-372 12h8v8h-8v-8zm12 0h8v8h-8v-8zm12 0h8v8h-8v-8zm12 0h8v8h-8v-8zm12 0h8v8h-8v-8zm12 0h8v8h-8v-8zm12 0h8v8h-8v-8zm12 0h8v8h-8v-8zm12 0h8v8h-8v-8zm12 0h8v8h-8v-8zm12 0h8v8h-8v-8zm12 0h8v8h-8v-8zm12 0h8v8h-8v-8zm12 0h8v8h-8v-8zm12 0h8v8h-8v-8zm12 0h8v8h-8v-8zm12 0h8v8h-8v-8zm12 0h8v8h-8v-8zm12 0h8v8h-8v-8zm12 0h8v8h-8v-8zm12 0h8v8h-8v-8zm12 0h8v8h-8v-8zm12 0h8v8h-8v-8zm12 0h8v8h-8v-8zm12 0h8v8h-8v-8zm12 0h8v8h-8v-8zm12 0h8v8h-8v-8zm12 0h8v8h-8v-8zm12 0h8v8h-8v-8zm12 0h8v8h-8v-8zm12 0h8v8h-8v-8zm12 0h8v8h-8v-8z"/><text transform="translate(109.319 35.976)" font-family="Helvetica,Arial,sans-serif" font-size="8">1</text><text transform="translate(109.419 47.976)" font-family="Helvetica,Arial,sans-serif" font-size="8">2</text><text transform="translate(109.419 59.976)" font-family="Helvetica,Arial,sans-serif" font-size="8">3</text><text transform="translate(109.419 71.976)" font-family="Helvetica,Arial,sans-serif" font-size="8">4</text><text transform="translate(109.419 83.976)" font-family="Helvetica,Arial,sans-serif" font-size="8">5</text><text transform="translate(109.419 95.976)" font-family="Helvetica,Arial,sans-serif" font-size="8">6</text><text transform="translate(109.419 107.976)" font-family="Helvetica,Arial,sans-serif" font-size="8">7</text><text transform="translate(109.419 119.976)" font-family="Helvetica,Arial,sans-serif" font-size="8">8</text><text transform="translate(109.419 131.976)" font-family="Helvetica,Arial,sans-serif" font-size="8">9</text><text transform="translate(105.773 143.976)" font-family="Helvetica,Arial,sans-serif" font-size="8">10</text><g font-family="Helvetica,Arial,sans-serif" font-size="8"><text transform="translate(106.197 155.976)">1</text><text transform="translate(109.419 155.976)">1</text></g><text transform="translate(105.773 167.976)" font-family="Helvetica,Arial,sans-serif" font-size="8">12</text><text transform="translate(105.773 179.976)" font-family="Helvetica,Arial,sans-serif" font-size="8">13</text><text transform="translate(105.773 191.976)" font-family="Helvetica,Arial,sans-serif" font-size="8">14</text><text transform="translate(105.773 203.976)" font-family="Helvetica,Arial,sans-serif" font-size="8">15</text><text transform="translate(105.773 215.976)" font-family="Helvetica,Arial,sans-serif" font-size="8">16</text><text transform="translate(105.773 227.976)" font-family="Helvetica,Arial,sans-serif" font-size="8">17</text><text transform="translate(105.773 239.976)" font-family="Helvetica,Arial,sans-serif" font-size="8">18</text><text transform="translate(105.773 251.976)" font-family="Helvetica,Arial,sans-serif" font-size="8">19</text><path fill="none" stroke="#000" stroke-width=".5" stroke-miterlimit="3.864" d="M116.3 257.1h8v8h-8v-8zm12 0h8v8h-8v-8zm12 0h8v8h-8v-8zm12 0h8v8h-8v-8zm12 0h8v8h-8v-8zm12 0h8v8h-8v-8zm12 0h8v8h-8v-8zm12 0h8v8h-8v-8zm12 0h8v8h-8v-8zm12 0h8v8h-8v-8zm12 0h8v8h-8v-8zm12 0h8v8h-8v-8zm12 0h8v8h-8v-8zm12 0h8v8h-8v-8zm12 0h8v8h-8v-8zm12 0h8v8h-8v-8zm12 0h8v8h-8v-8zm12 0h8v8h-8v-8zm12 0h8v8h-8v-8zm12 0h8v8h-8v-8zm12 0h8v8h-8v-8zm12 0h8v8h-8v-8zm12 0h8v8h-8v-8zm12 0h8v8h-8v-8zm12 0h8v8h-8v-8zm12 0h8v8h-8v-8zm12 0h8v8h-8v-8zm12 0h8v8h-8v-8zm12 0h8v8h-8v-8zm12 0h8v8h-8v-8zm12 0h8v8h-8v-8zm12 0h8v8h-8v-8z"/><path clip-rule="evenodd" fill="none" stroke="#009749" stroke-miterlimit="3.864" d="M496.5 87h-477m477 72H19.6"/><path fill="none" d="M0 1.3h505.3v655H0V1.3z"/><path clip-rule="evenodd" fill="none" stroke="#009749" stroke-miterlimit="3.864" d="M33.2 14.4H19.5"/><path clip-rule="evenodd" fill="none" stroke="#000" stroke-miterlimit="3.864" d="M114.3 625.5v28.9"/><path fill="none" stroke="#000" stroke-width=".5" stroke-miterlimit="3.864" d="M116.3 269.1h8v8h-8v-8zm12 0h8v8h-8v-8zm12 0h8v8h-8v-8zm12 0h8v8h-8v-8zm12 0h8v8h-8v-8zm12 0h8v8h-8v-8zm12 0h8v8h-8v-8zm12 0h8v8h-8v-8zm12 0h8v8h-8v-8zm12 0h8v8h-8v-8zm12 0h8v8h-8v-8zm12 0h8v8h-8v-8zm12 0h8v8h-8v-8zm12 0h8v8h-8v-8zm12 0h8v8h-8v-8zm12 0h8v8h-8v-8zm12 0h8v8h-8v-8zm12 0h8v8h-8v-8zm12 0h8v8h-8v-8zm12 0h8v8h-8v-8zm12 0h8v8h-8v-8zm12 0h8v8h-8v-8zm12 0h8v8h-8v-8zm12 0h8v8h-8v-8zm12 0h8v8h-8v-8zm12 0h8v8h-8v-8zm12 0h8v8h-8v-8zm12 0h8v8h-8v-8zm12 0h8v8h-8v-8zm12 0h8v8h-8v-8zm12 0h8v8h-8v-8zm12 0h8v8h-8v-8zm-372 12h8v8h-8v-8zm12 0h8v8h-8v-8zm12 0h8v8h-8v-8zm12 0h8v8h-8v-8zm12 0h8v8h-8v-8zm12 0h8v8h-8v-8zm12 0h8v8h-8v-8zm12 0h8v8h-8v-8zm12 0h8v8h-8v-8zm12 0h8v8h-8v-8zm12 0h8v8h-8v-8zm12 0h8v8h-8v-8zm12 0h8v8h-8v-8zm12 0h8v8h-8v-8zm12 0h8v8h-8v-8zm12 0h8v8h-8v-8zm12 0h8v8h-8v-8zm12 0h8v8h-8v-8zm12 0h8v8h-8v-8zm12 0h8v8h-8v-8zm12 0h8v8h-8v-8zm12 0h8v8h-8v-8zm12 0h8v8h-8v-8zm12 0h8v8h-8v-8zm12 0h8v8h-8v-8zm12 0h8v8h-8v-8zm12 0h8v8h-8v-8zm12 0h8v8h-8v-8zm12 0h8v8h-8v-8zm12 0h8v8h-8v-8zm12 0h8v8h-8v-8zm12 0h8v8h-8v-8zm-372 12h8v8h-8v-8zm12 0h8v8h-8v-8zm12 0h8v8h-8v-8zm12 0h8v8h-8v-8zm12 0h8v8h-8v-8zm12 0h8v8h-8v-8zm12 0h8v8h-8v-8zm12 0h8v8h-8v-8zm12 0h8v8h-8v-8zm12 0h8v8h-8v-8zm12 0h8v8h-8v-8zm12 0h8v8h-8v-8zm12 0h8v8h-8v-8zm12 0h8v8h-8v-8zm12 0h8v8h-8v-8zm12 0h8v8h-8v-8zm12 0h8v8h-8v-8zm12 0h8v8h-8v-8zm12 0h8v8h-8v-8zm12 0h8v8h-8v-8zm12 0h8v8h-8v-8zm12 0h8v8h-8v-8zm12 0h8v8h-8v-8zm12 0h8v8h-8v-8zm12 0h8v8h-8v-8zm12 0h8v8h-8v-8zm12 0h8v8h-8v-8zm12 0h8v8h-8v-8zm12 0h8v8h-8v-8zm12 0h8v8h-8v-8zm12 0h8v8h-8v-8zm12 0h8v8h-8v-8zm-372 12h8v8h-8v-8zm12 0h8v8h-8v-8zm12 0h8v8h-8v-8zm12 0h8v8h-8v-8zm12 0h8v8h-8v-8zm12 0h8v8h-8v-8zm12 0h8v8h-8v-8zm12 0h8v8h-8v-8zm12 0h8v8h-8v-8zm12 0h8v8h-8v-8zm12 0h8v8h-8v-8zm12 0h8v8h-8v-8zm12 0h8v8h-8v-8zm12 0h8v8h-8v-8zm12 0h8v8h-8v-8zm12 0h8v8h-8v-8zm12 0h8v8h-8v-8zm12 0h8v8h-8v-8zm12 0h8v8h-8v-8zm12 0h8v8h-8v-8zm12 0h8v8h-8v-8zm12 0h8v8h-8v-8zm12 0h8v8h-8v-8zm12 0h8v8h-8v-8zm12 0h8v8h-8v-8zm12 0h8v8h-8v-8zm12 0h8v8h-8v-8zm12 0h8v8h-8v-8zm12 0h8v8h-8v-8zm12 0h8v8h-8v-8zm12 0h8v8h-8v-8zm12 0h8v8h-8v-8zm-372 12h8v8h-8v-8zm12 0h8v8h-8v-8zm12 0h8v8h-8v-8zm12 0h8v8h-8v-8zm12 0h8v8h-8v-8zm12 0h8v8h-8v-8zm12 0h8v8h-8v-8zm12 0h8v8h-8v-8zm12 0h8v8h-8v-8zm12 0h8v8h-8v-8zm12 0h8v8h-8v-8zm12 0h8v8h-8v-8zm12 0h8v8h-8v-8zm12 0h8v8h-8v-8zm12 0h8v8h-8v-8zm12 0h8v8h-8v-8zm12 0h8v8h-8v-8zm12 0h8v8h-8v-8zm12 0h8v8h-8v-8zm12 0h8v8h-8v-8zm12 0h8v8h-8v-8zm12 0h8v8h-8v-8zm12 0h8v8h-8v-8zm12 0h8v8h-8v-8zm12 0h8v8h-8v-8zm12 0h8v8h-8v-8zm12 0h8v8h-8v-8zm12 0h8v8h-8v-8zm12 0h8v8h-8v-8zm12 0h8v8h-8v-8zm12 0h8v8h-8v-8zm12 0h8v8h-8v-8zm-372 12h8v8h-8v-8zm12 0h8v8h-8v-8zm12 0h8v8h-8v-8zm12 0h8v8h-8v-8zm12 0h8v8h-8v-8zm12 0h8v8h-8v-8zm12 0h8v8h-8v-8zm12 0h8v8h-8v-8zm12 0h8v8h-8v-8zm12 0h8v8h-8v-8zm12 0h8v8h-8v-8zm12 0h8v8h-8v-8zm12 0h8v8h-8v-8zm12 0h8v8h-8v-8zm12 0h8v8h-8v-8zm12 0h8v8h-8v-8zm12 0h8v8h-8v-8zm12 0h8v8h-8v-8zm12 0h8v8h-8v-8zm12 0h8v8h-8v-8zm12 0h8v8h-8v-8zm12 0h8v8h-8v-8zm12 0h8v8h-8v-8zm12 0h8v8h-8v-8zm12 0h8v8h-8v-8zm12 0h8v8h-8v-8zm12 0h8v8h-8v-8zm12 0h8v8h-8v-8zm12 0h8v8h-8v-8zm12 0h8v8h-8v-8zm12 0h8v8h-8v-8zm12 0h8v8h-8v-8zm-372 12h8v8h-8v-8zm12 0h8v8h-8v-8zm12 0h8v8h-8v-8zm12 0h8v8h-8v-8zm12 0h8v8h-8v-8zm12 0h8v8h-8v-8zm12 0h8v8h-8v-8zm12 0h8v8h-8v-8zm12 0h8v8h-8v-8zm12 0h8v8h-8v-8zm12 0h8v8h-8v-8zm12 0h8v8h-8v-8zm12 0h8v8h-8v-8zm12 0h8v8h-8v-8zm12 0h8v8h-8v-8zm12 0h8v8h-8v-8zm12 0h8v8h-8v-8zm12 0h8v8h-8v-8zm12 0h8v8h-8v-8zm12 0h8v8h-8v-8zm12 0h8v8h-8v-8zm12 0h8v8h-8v-8zm12 0h8v8h-8v-8zm12 0h8v8h-8v-8zm12 0h8v8h-8v-8zm12 0h8v8h-8v-8zm12 0h8v8h-8v-8zm12 0h8v8h-8v-8zm12 0h8v8h-8v-8zm12 0h8v8h-8v-8zm12 0h8v8h-8v-8zm12 0h8v8h-8v-8zm-372 12h8v8h-8v-8zm12 0h8v8h-8v-8zm12 0h8v8h-8v-8zm12 0h8v8h-8v-8zm12 0h8v8h-8v-8zm12 0h8v8h-8v-8zm12 0h8v8h-8v-8zm12 0h8v8h-8v-8zm12 0h8v8h-8v-8zm12 0h8v8h-8v-8zm12 0h8v8h-8v-8zm12 0h8v8h-8v-8zm12 0h8v8h-8v-8zm12 0h8v8h-8v-8zm12 0h8v8h-8v-8zm12 0h8v8h-8v-8zm12 0h8v8h-8v-8zm12 0h8v8h-8v-8zm12 0h8v8h-8v-8zm12 0h8v8h-8v-8zm12 0h8v8h-8v-8zm12 0h8v8h-8v-8zm12 0h8v8h-8v-8zm12 0h8v8h-8v-8zm12 0h8v8h-8v-8zm12 0h8v8h-8v-8zm12 0h8v8h-8v-8zm12 0h8v8h-8v-8zm12 0h8v8h-8v-8zm12 0h8v8h-8v-8zm12 0h8v8h-8v-8zm12 0h8v8h-8v-8zm-372 12h8v8h-8v-8zm12 0h8v8h-8v-8zm12 0h8v8h-8v-8zm12 0h8v8h-8v-8zm12 0h8v8h-8v-8zm12 0h8v8h-8v-8zm12 0h8v8h-8v-8zm12 0h8v8h-8v-8zm12 0h8v8h-8v-8zm12 0h8v8h-8v-8zm12 0h8v8h-8v-8zm12 0h8v8h-8v-8zm12 0h8v8h-8v-8zm12 0h8v8h-8v-8zm12 0h8v8h-8v-8zm12 0h8v8h-8v-8zm12 0h8v8h-8v-8zm12 0h8v8h-8v-8zm12 0h8v8h-8v-8zm12 0h8v8h-8v-8zm12 0h8v8h-8v-8zm12 0h8v8h-8v-8zm12 0h8v8h-8v-8zm12 0h8v8h-8v-8zm12 0h8v8h-8v-8zm12 0h8v8h-8v-8zm12 0h8v8h-8v-8zm12 0h8v8h-8v-8zm12 0h8v8h-8v-8zm12 0h8v8h-8v-8zm12 0h8v8h-8v-8zm12 0h8v8h-8v-8zm-372 12h8v8h-8v-8zm12 0h8v8h-8v-8zm12 0h8v8h-8v-8zm12 0h8v8h-8v-8zm12 0h8v8h-8v-8zm12 0h8v8h-8v-8zm12 0h8v8h-8v-8zm12 0h8v8h-8v-8zm12 0h8v8h-8v-8zm12 0h8v8h-8v-8zm12 0h8v8h-8v-8zm12 0h8v8h-8v-8zm12 0h8v8h-8v-8zm12 0h8v8h-8v-8zm12 0h8v8h-8v-8zm12 0h8v8h-8v-8zm12 0h8v8h-8v-8zm12 0h8v8h-8v-8zm12 0h8v8h-8v-8zm12 0h8v8h-8v-8zm12 0h8v8h-8v-8zm12 0h8v8h-8v-8zm12 0h8v8h-8v-8zm12 0h8v8h-8v-8zm12 0h8v8h-8v-8zm12 0h8v8h-8v-8zm12 0h8v8h-8v-8zm12 0h8v8h-8v-8zm12 0h8v8h-8v-8zm12 0h8v8h-8v-8zm12 0h8v8h-8v-8zm12 0h8v8h-8v-8zm-372 12h8v8h-8v-8zm12 0h8v8h-8v-8zm12 0h8v8h-8v-8zm12 0h8v8h-8v-8zm12 0h8v8h-8v-8zm12 0h8v8h-8v-8zm12 0h8v8h-8v-8zm12 0h8v8h-8v-8zm12 0h8v8h-8v-8zm12 0h8v8h-8v-8zm12 0h8v8h-8v-8zm12 0h8v8h-8v-8zm12 0h8v8h-8v-8zm12 0h8v8h-8v-8zm12 0h8v8h-8v-8zm12 0h8v8h-8v-8zm12 0h8v8h-8v-8zm12 0h8v8h-8v-8zm12 0h8v8h-8v-8zm12 0h8v8h-8v-8zm12 0h8v8h-8v-8zm12 0h8v8h-8v-8zm12 0h8v8h-8v-8zm12 0h8v8h-8v-8zm12 0h8v8h-8v-8zm12 0h8v8h-8v-8zm12 0h8v8h-8v-8zm12 0h8v8h-8v-8zm12 0h8v8h-8v-8zm12 0h8v8h-8v-8zm12 0h8v8h-8v-8zm12 0h8v8h-8v-8z"/><text transform="translate(106.068 263.465)" font-family="Helvetica,Arial,sans-serif" font-size="8">20</text><text transform="translate(106.068 275.465)" font-family="Helvetica,Arial,sans-serif" font-size="8">21</text><text transform="translate(106.068 287.465)" font-family="Helvetica,Arial,sans-serif" font-size="8">22</text><text transform="translate(106.068 299.465)" font-family="Helvetica,Arial,sans-serif" font-size="8">23</text><text transform="translate(106.068 311.465)" font-family="Helvetica,Arial,sans-serif" font-size="8">24</text><text transform="translate(106.068 323.465)" font-family="Helvetica,Arial,sans-serif" font-size="8">25</text><text transform="translate(106.068 335.465)" font-family="Helvetica,Arial,sans-serif" font-size="8">26</text><text transform="translate(106.068 383.465)" font-family="Helvetica,Arial,sans-serif" font-size="8">30</text><text transform="translate(106.068 347.465)" font-family="Helvetica,Arial,sans-serif" font-size="8">27</text><text transform="translate(106.068 359.465)" font-family="Helvetica,Arial,sans-serif" font-size="8">28</text><text transform="translate(106.068 371.465)" font-family="Helvetica,Arial,sans-serif" font-size="8">29</text><path fill-rule="evenodd" clip-rule="evenodd" fill="#FFF" d="M101.3 617.2h398l.2-605.4H493l-1.9 332.6 4.2 108.8-4 96 2 60-50-2-80 4-88-4-142 2-30.4-.7z"/><path clip-rule="evenodd" fill="none" stroke="#000" stroke-width=".5" stroke-miterlimit="3.864" d="M116.1 608.7l17.2.5 140-2 90 4 80-4 50 2-2-60 4-96-4.2-108L493 16.9"/><path clip-rule="evenodd" fill="none" stroke="#000" stroke-miterlimit="3.864" d="M234.5 22.4v632m192-632v632"/><path clip-rule="evenodd" fill="none" stroke="#F89945" stroke-miterlimit="3.864" d="M500 255.2H49.5M500 375.1H49.5M63.2 14.4H49.5"/><path clip-rule="evenodd" fill="none" stroke="#2950A3" stroke-miterlimit="3.864" d="M500 471.1H79.2m421.3 96.2H79.2M92.9 14.4H79.2"/><path fill="#B4B8DD" d="M234.4 471.1h191.9V567H234.4v-95.9z"/><path fill="none" stroke="#000" stroke-width=".5" stroke-miterlimit="3.864" d="M116.2 401.2h8v8h-8v-8zm12 0h8v8h-8v-8zm12 0h8v8h-8v-8zm12 0h8v8h-8v-8zm12 0h8v8h-8v-8zm12 0h8v8h-8v-8zm12 0h8v8h-8v-8zm12 0h8v8h-8v-8zm12 0h8v8h-8v-8zm12 0h8v8h-8v-8zm12 0h8v8h-8v-8zm12 0h8v8h-8v-8zm12 0h8v8h-8v-8zm12 0h8v8h-8v-8zm12 0h8v8h-8v-8zm12 0h8v8h-8v-8zm12 0h8v8h-8v-8zm12 0h8v8h-8v-8zm12 0h8v8h-8v-8zm12 0h8v8h-8v-8zm12 0h8v8h-8v-8zm12 0h8v8h-8v-8zm12 0h8v8h-8v-8zm12 0h8v8h-8v-8zm12 0h8v8h-8v-8zm12 0h8v8h-8v-8zm12 0h8v8h-8v-8zm12 0h8v8h-8v-8zm12 0h8v8h-8v-8zm12 0h8v8h-8v-8zm12 0h8v8h-8v-8zm-360 12h8v8h-8v-8zm12 0h8v8h-8v-8zm12 0h8v8h-8v-8zm12 0h8v8h-8v-8zm12 0h8v8h-8v-8zm12 0h8v8h-8v-8zm12 0h8v8h-8v-8zm12 0h8v8h-8v-8zm12 0h8v8h-8v-8zm12 0h8v8h-8v-8zm12 0h8v8h-8v-8zm12 0h8v8h-8v-8zm12 0h8v8h-8v-8zm12 0h8v8h-8v-8zm12 0h8v8h-8v-8zm12 0h8v8h-8v-8zm12 0h8v8h-8v-8zm12 0h8v8h-8v-8zm12 0h8v8h-8v-8zm12 0h8v8h-8v-8zm12 0h8v8h-8v-8zm12 0h8v8h-8v-8zm12 0h8v8h-8v-8zm12 0h8v8h-8v-8zm12 0h8v8h-8v-8zm12 0h8v8h-8v-8zm12 0h8v8h-8v-8zm12 0h8v8h-8v-8zm12 0h8v8h-8v-8zm12 0h8v8h-8v-8zm12 0h8v8h-8v-8zm-360 12h8v8h-8v-8zm12 0h8v8h-8v-8zm12 0h8v8h-8v-8zm12 0h8v8h-8v-8zm12 0h8v8h-8v-8zm12 0h8v8h-8v-8zm12 0h8v8h-8v-8zm12 0h8v8h-8v-8zm12 0h8v8h-8v-8zm12 0h8v8h-8v-8zm12 0h8v8h-8v-8zm12 0h8v8h-8v-8zm12 0h8v8h-8v-8zm12 0h8v8h-8v-8zm12 0h8v8h-8v-8zm12 0h8v8h-8v-8zm12 0h8v8h-8v-8zm12 0h8v8h-8v-8zm12 0h8v8h-8v-8zm12 0h8v8h-8v-8zm12 0h8v8h-8v-8zm12 0h8v8h-8v-8zm12 0h8v8h-8v-8zm12 0h8v8h-8v-8zm12 0h8v8h-8v-8zm12 0h8v8h-8v-8zm12 0h8v8h-8v-8zm12 0h8v8h-8v-8zm12 0h8v8h-8v-8zm12 0h8v8h-8v-8zm12 0h8v8h-8v-8zm-360 12h8v8h-8v-8zm12 0h8v8h-8v-8zm12 0h8v8h-8v-8zm12 0h8v8h-8v-8zm12 0h8v8h-8v-8zm12 0h8v8h-8v-8zm12 0h8v8h-8v-8zm12 0h8v8h-8v-8zm12 0h8v8h-8v-8zm12 0h8v8h-8v-8zm12 0h8v8h-8v-8zm12 0h8v8h-8v-8zm12 0h8v8h-8v-8zm12 0h8v8h-8v-8zm12 0h8v8h-8v-8zm12 0h8v8h-8v-8zm12 0h8v8h-8v-8zm12 0h8v8h-8v-8zm12 0h8v8h-8v-8zm12 0h8v8h-8v-8zm12 0h8v8h-8v-8zm12 0h8v8h-8v-8zm12 0h8v8h-8v-8zm12 0h8v8h-8v-8zm12 0h8v8h-8v-8zm12 0h8v8h-8v-8zm12 0h8v8h-8v-8zm12 0h8v8h-8v-8zm12 0h8v8h-8v-8zm12 0h8v8h-8v-8zm12 0h8v8h-8v-8zm-360 12h8v8h-8v-8zm12 0h8v8h-8v-8zm12 0h8v8h-8v-8zm12 0h8v8h-8v-8zm12 0h8v8h-8v-8zm12 0h8v8h-8v-8zm12 0h8v8h-8v-8zm12 0h8v8h-8v-8zm12 0h8v8h-8v-8zm12 0h8v8h-8v-8zm12 0h8v8h-8v-8zm12 0h8v8h-8v-8zm12 0h8v8h-8v-8zm12 0h8v8h-8v-8zm12 0h8v8h-8v-8zm12 0h8v8h-8v-8zm12 0h8v8h-8v-8zm12 0h8v8h-8v-8zm12 0h8v8h-8v-8zm12 0h8v8h-8v-8zm12 0h8v8h-8v-8zm12 0h8v8h-8v-8zm12 0h8v8h-8v-8zm12 0h8v8h-8v-8zm12 0h8v8h-8v-8zm12 0h8v8h-8v-8zm12 0h8v8h-8v-8zm12 0h8v8h-8v-8zm12 0h8v8h-8v-8zm12 0h8v8h-8v-8zm12 0h8v8h-8v-8zm-360 12h8v8h-8v-8zm12 0h8v8h-8v-8zm12 0h8v8h-8v-8zm12 0h8v8h-8v-8zm12 0h8v8h-8v-8zm12 0h8v8h-8v-8zm12 0h8v8h-8v-8zm12 0h8v8h-8v-8zm12 0h8v8h-8v-8zm12 0h8v8h-8v-8zm12 0h8v8h-8v-8zm12 0h8v8h-8v-8zm12 0h8v8h-8v-8zm12 0h8v8h-8v-8zm12 0h8v8h-8v-8zm12 0h8v8h-8v-8zm12 0h8v8h-8v-8zm12 0h8v8h-8v-8zm12 0h8v8h-8v-8zm12 0h8v8h-8v-8zm12 0h8v8h-8v-8zm12 0h8v8h-8v-8zm12 0h8v8h-8v-8zm12 0h8v8h-8v-8zm12 0h8v8h-8v-8zm12 0h8v8h-8v-8zm12 0h8v8h-8v-8zm12 0h8v8h-8v-8zm12 0h8v8h-8v-8zm12 0h8v8h-8v-8zm12 0h8v8h-8v-8zm-360 12h8v8h-8v-8zm12 0h8v8h-8v-8zm12 0h8v8h-8v-8zm12 0h8v8h-8v-8zm12 0h8v8h-8v-8zm12 0h8v8h-8v-8zm12 0h8v8h-8v-8zm12 0h8v8h-8v-8zm12 0h8v8h-8v-8zm12 0h8v8h-8v-8zm12 0h8v8h-8v-8zm12 0h8v8h-8v-8zm12 0h8v8h-8v-8zm12 0h8v8h-8v-8zm12 0h8v8h-8v-8zm12 0h8v8h-8v-8zm12 0h8v8h-8v-8zm12 0h8v8h-8v-8zm12 0h8v8h-8v-8zm12 0h8v8h-8v-8zm12 0h8v8h-8v-8zm12 0h8v8h-8v-8zm12 0h8v8h-8v-8zm12 0h8v8h-8v-8zm12 0h8v8h-8v-8zm12 0h8v8h-8v-8zm12 0h8v8h-8v-8zm12 0h8v8h-8v-8zm12 0h8v8h-8v-8zm12 0h8v8h-8v-8zm12 0h8v8h-8v-8zm-360 12h8v8h-8v-8zm12 0h8v8h-8v-8zm12 0h8v8h-8v-8zm12 0h8v8h-8v-8zm12 0h8v8h-8v-8zm12 0h8v8h-8v-8zm12 0h8v8h-8v-8zm12 0h8v8h-8v-8zm12 0h8v8h-8v-8zm12 0h8v8h-8v-8zm12 0h8v8h-8v-8zm12 0h8v8h-8v-8zm12 0h8v8h-8v-8zm12 0h8v8h-8v-8zm12 0h8v8h-8v-8zm12 0h8v8h-8v-8zm12 0h8v8h-8v-8zm12 0h8v8h-8v-8zm12 0h8v8h-8v-8zm12 0h8v8h-8v-8zm12 0h8v8h-8v-8zm12 0h8v8h-8v-8zm12 0h8v8h-8v-8zm12 0h8v8h-8v-8zm12 0h8v8h-8v-8zm12 0h8v8h-8v-8zm12 0h8v8h-8v-8zm12 0h8v8h-8v-8zm12 0h8v8h-8v-8zm12 0h8v8h-8v-8zm12 0h8v8h-8v-8zm-360 12h8v8h-8v-8zm12 0h8v8h-8v-8zm12 0h8v8h-8v-8zm12 0h8v8h-8v-8zm12 0h8v8h-8v-8zm12 0h8v8h-8v-8zm12 0h8v8h-8v-8zm12 0h8v8h-8v-8zm12 0h8v8h-8v-8zm12 0h8v8h-8v-8zm12 0h8v8h-8v-8zm12 0h8v8h-8v-8zm12 0h8v8h-8v-8zm12 0h8v8h-8v-8zm12 0h8v8h-8v-8zm12 0h8v8h-8v-8zm12 0h8v8h-8v-8zm12 0h8v8h-8v-8zm12 0h8v8h-8v-8zm12 0h8v8h-8v-8zm12 0h8v8h-8v-8zm12 0h8v8h-8v-8zm12 0h8v8h-8v-8zm12 0h8v8h-8v-8zm12 0h8v8h-8v-8zm12 0h8v8h-8v-8zm12 0h8v8h-8v-8zm12 0h8v8h-8v-8zm12 0h8v8h-8v-8zm12 0h8v8h-8v-8zm12 0h8v8h-8v-8zm-360 12h8v8h-8v-8zm12 0h8v8h-8v-8zm12 0h8v8h-8v-8zm12 0h8v8h-8v-8zm12 0h8v8h-8v-8zm12 0h8v8h-8v-8zm12 0h8v8h-8v-8zm12 0h8v8h-8v-8zm12 0h8v8h-8v-8zm12 0h8v8h-8v-8zm12 0h8v8h-8v-8zm12 0h8v8h-8v-8zm12 0h8v8h-8v-8zm12 0h8v8h-8v-8zm12 0h8v8h-8v-8zm12 0h8v8h-8v-8zm12 0h8v8h-8v-8zm12 0h8v8h-8v-8zm12 0h8v8h-8v-8zm12 0h8v8h-8v-8zm12 0h8v8h-8v-8zm12 0h8v8h-8v-8zm12 0h8v8h-8v-8zm12 0h8v8h-8v-8zm12 0h8v8h-8v-8zm12 0h8v8h-8v-8zm12 0h8v8h-8v-8zm12 0h8v8h-8v-8zm12 0h8v8h-8v-8zm12 0h8v8h-8v-8zm12 0h8v8h-8v-8zm-360 12h8v8h-8v-8zm12 0h8v8h-8v-8zm12 0h8v8h-8v-8zm12 0h8v8h-8v-8zm12 0h8v8h-8v-8zm12 0h8v8h-8v-8zm12 0h8v8h-8v-8zm12 0h8v8h-8v-8zm12 0h8v8h-8v-8zm12 0h8v8h-8v-8zm12 0h8v8h-8v-8zm12 0h8v8h-8v-8zm12 0h8v8h-8v-8zm12 0h8v8h-8v-8zm12 0h8v8h-8v-8zm12 0h8v8h-8v-8zm12 0h8v8h-8v-8zm12 0h8v8h-8v-8zm12 0h8v8h-8v-8zm12 0h8v8h-8v-8zm12 0h8v8h-8v-8zm12 0h8v8h-8v-8zm12 0h8v8h-8v-8zm12 0h8v8h-8v-8zm12 0h8v8h-8v-8zm12 0h8v8h-8v-8zm12 0h8v8h-8v-8zm12 0h8v8h-8v-8zm12 0h8v8h-8v-8zm12 0h8v8h-8v-8zm12 0h8v8h-8v-8zm-360 12h8v8h-8v-8zm12 0h8v8h-8v-8zm12 0h8v8h-8v-8zm12 0h8v8h-8v-8zm12 0h8v8h-8v-8zm12 0h8v8h-8v-8zm12 0h8v8h-8v-8zm12 0h8v8h-8v-8zm12 0h8v8h-8v-8zm12 0h8v8h-8v-8zm12 0h8v8h-8v-8zm12 0h8v8h-8v-8zm12 0h8v8h-8v-8zm12 0h8v8h-8v-8zm12 0h8v8h-8v-8zm12 0h8v8h-8v-8zm12 0h8v8h-8v-8zm12 0h8v8h-8v-8zm12 0h8v8h-8v-8zm12 0h8v8h-8v-8zm12 0h8v8h-8v-8zm12 0h8v8h-8v-8zm12 0h8v8h-8v-8zm12 0h8v8h-8v-8zm12 0h8v8h-8v-8zm12 0h8v8h-8v-8zm12 0h8v8h-8v-8zm12 0h8v8h-8v-8zm12 0h8v8h-8v-8zm12 0h8v8h-8v-8zm12 0h8v8h-8v-8zm-360 12h8v8h-8v-8zm12 0h8v8h-8v-8zm12 0h8v8h-8v-8zm12 0h8v8h-8v-8zm12 0h8v8h-8v-8zm12 0h8v8h-8v-8zm12 0h8v8h-8v-8zm12 0h8v8h-8v-8zm12 0h8v8h-8v-8zm12 0h8v8h-8v-8zm12 0h8v8h-8v-8zm12 0h8v8h-8v-8zm12 0h8v8h-8v-8zm12 0h8v8h-8v-8zm12 0h8v8h-8v-8zm12 0h8v8h-8v-8zm12 0h8v8h-8v-8zm12 0h8v8h-8v-8zm12 0h8v8h-8v-8zm12 0h8v8h-8v-8zm12 0h8v8h-8v-8zm12 0h8v8h-8v-8zm12 0h8v8h-8v-8zm12 0h8v8h-8v-8zm12 0h8v8h-8v-8zm12 0h8v8h-8v-8zm12 0h8v8h-8v-8zm12 0h8v8h-8v-8zm12 0h8v8h-8v-8zm12 0h8v8h-8v-8zm12 0h8v8h-8v-8zm-360 12h8v8h-8v-8zm12 0h8v8h-8v-8zm12 0h8v8h-8v-8zm12 0h8v8h-8v-8zm12 0h8v8h-8v-8zm12 0h8v8h-8v-8zm12 0h8v8h-8v-8zm12 0h8v8h-8v-8zm12 0h8v8h-8v-8zm12 0h8v8h-8v-8zm12 0h8v8h-8v-8zm12 0h8v8h-8v-8zm12 0h8v8h-8v-8zm12 0h8v8h-8v-8zm12 0h8v8h-8v-8zm12 0h8v8h-8v-8zm12 0h8v8h-8v-8zm12 0h8v8h-8v-8zm12 0h8v8h-8v-8zm12 0h8v8h-8v-8zm12 0h8v8h-8v-8zm12 0h8v8h-8v-8zm12 0h8v8h-8v-8zm12 0h8v8h-8v-8zm12 0h8v8h-8v-8zm12 0h8v8h-8v-8zm12 0h8v8h-8v-8zm12 0h8v8h-8v-8zm12 0h8v8h-8v-8zm12 0h8v8h-8v-8zm12 0h8v8h-8v-8zm-360 12h8v8h-8v-8zm12 0h8v8h-8v-8zm12 0h8v8h-8v-8zm12 0h8v8h-8v-8zm12 0h8v8h-8v-8zm12 0h8v8h-8v-8zm12 0h8v8h-8v-8zm12 0h8v8h-8v-8zm12 0h8v8h-8v-8zm12 0h8v8h-8v-8zm12 0h8v8h-8v-8zm12 0h8v8h-8v-8zm12 0h8v8h-8v-8zm12 0h8v8h-8v-8zm12 0h8v8h-8v-8zm12 0h8v8h-8v-8zm12 0h8v8h-8v-8zm12 0h8v8h-8v-8zm12 0h8v8h-8v-8zm12 0h8v8h-8v-8zm12 0h8v8h-8v-8zm12 0h8v8h-8v-8zm12 0h8v8h-8v-8zm12 0h8v8h-8v-8zm12 0h8v8h-8v-8zm12 0h8v8h-8v-8zm12 0h8v8h-8v-8zm12 0h8v8h-8v-8zm12 0h8v8h-8v-8zm12 0h8v8h-8v-8zm12 0h8v8h-8v-8zm-360 12h8v8h-8v-8zm12 0h8v8h-8v-8zm12 0h8v8h-8v-8zm12 0h8v8h-8v-8zm12 0h8v8h-8v-8zm12 0h8v8h-8v-8zm12 0h8v8h-8v-8zm12 0h8v8h-8v-8zm12 0h8v8h-8v-8zm12 0h8v8h-8v-8zm12 0h8v8h-8v-8zm12 0h8v8h-8v-8zm12 0h8v8h-8v-8zm12 0h8v8h-8v-8zm12 0h8v8h-8v-8zm12 0h8v8h-8v-8zm12 0h8v8h-8v-8zm12 0h8v8h-8v-8zm12 0h8v8h-8v-8zm12 0h8v8h-8v-8zm12 0h8v8h-8v-8zm12 0h8v8h-8v-8zm12 0h8v8h-8v-8zm12 0h8v8h-8v-8zm12 0h8v8h-8v-8zm12 0h8v8h-8v-8zm12 0h8v8h-8v-8zm12 0h8v8h-8v-8zm12 0h8v8h-8v-8zm12 0h8v8h-8v-8zm12 0h8v8h-8v-8zm-360 12h8v8h-8v-8zm12 0h8v8h-8v-8zm12 0h8v8h-8v-8zm12 0h8v8h-8v-8zm12 0h8v8h-8v-8zm12 0h8v8h-8v-8zm12 0h8v8h-8v-8zm12 0h8v8h-8v-8zm12 0h8v8h-8v-8zm12 0h8v8h-8v-8zm12 0h8v8h-8v-8zm12 0h8v8h-8v-8zm12 0h8v8h-8v-8zm12 0h8v8h-8v-8zm12 0h8v8h-8v-8zm12 0h8v8h-8v-8zm12 0h8v8h-8v-8zm12 0h8v8h-8v-8zm12 0h8v8h-8v-8zm12 0h8v8h-8v-8zm12 0h8v8h-8v-8zm12 0h8v8h-8v-8zm12 0h8v8h-8v-8zm12 0h8v8h-8v-8zm12 0h8v8h-8v-8zm12 0h8v8h-8v-8zm12 0h8v8h-8v-8zm12 0h8v8h-8v-8zm12 0h8v8h-8v-8zm12 0h8v8h-8v-8zm12 0h8v8h-8v-8z"/><text transform="translate(106.068 396.066)" font-family="Helvetica,Arial,sans-serif" font-size="8">31</text><text transform="translate(106.068 407.566)" font-family="Helvetica,Arial,sans-serif" font-size="8">32</text><text transform="translate(106.068 419.765)" font-family="Helvetica,Arial,sans-serif" font-size="8">33</text><text transform="translate(106.068 431.666)" font-family="Helvetica,Arial,sans-serif" font-size="8">34</text><text transform="translate(106.068 443.867)" font-family="Helvetica,Arial,sans-serif" font-size="8">35</text><text transform="translate(106.068 455.766)" font-family="Helvetica,Arial,sans-serif" font-size="8">36</text><text transform="translate(106.068 467.766)" font-family="Helvetica,Arial,sans-serif" font-size="8">37</text><text transform="translate(106.068 479.966)" font-family="Helvetica,Arial,sans-serif" font-size="8">38</text><text transform="translate(106.068 491.867)" font-family="Helvetica,Arial,sans-serif" font-size="8">39</text><text transform="translate(106.068 503.966)" font-family="Helvetica,Arial,sans-serif" font-size="8">40</text><text transform="translate(106.068 516.166)" font-family="Helvetica,Arial,sans-serif" font-size="8">41</text><text transform="translate(106.068 528.267)" font-family="Helvetica,Arial,sans-serif" font-size="8">42</text><text transform="translate(106.068 540.166)" font-family="Helvetica,Arial,sans-serif" font-size="8">43</text><text transform="translate(106.068 552.166)" font-family="Helvetica,Arial,sans-serif" font-size="8">44</text><text transform="translate(106.068 564.367)" font-family="Helvetica,Arial,sans-serif" font-size="8">45</text><text transform="translate(106.068 576.166)" font-family="Helvetica,Arial,sans-serif" font-size="8">46</text><text transform="translate(106.068 587.867)" font-family="Helvetica,Arial,sans-serif" font-size="8">47</text><text transform="translate(106.068 600.267)" font-family="Helvetica,Arial,sans-serif" font-size="8">48</text><path clip-rule="evenodd" fill="none" stroke="#000" stroke-width=".227" stroke-miterlimit="3.864" d="M239.4 639.9h181.4"/><path d="M241.9 638v3.7l-6.6-1.8zm177.3 0v3.7l6.5-1.8z"/><path fill="#009749" d="M27.8 94.3h-3.7l1.8-6.6zm.1 57.8h-3.7l1.8 6.5z"/><path clip-rule="evenodd" fill="none" stroke="#009749" stroke-width=".4" stroke-miterlimit="3.864" d="M25.9 19.8v63"/><path fill="#009749" d="M27.7 21.8H24l1.8-6.6zm0 58.3H24l1.8 6.5z"/><path clip-rule="evenodd" fill="none" stroke="#000" stroke-width=".227" stroke-miterlimit="3.864" d="M118.8 639.9h111.4"/><path d="M121.3 638v3.7l-6.6-1.8zm106 0v3.7l6.5-1.8z"/><path clip-rule="evenodd" fill="none" stroke="#009749" stroke-width=".4" stroke-miterlimit="3.864" d="M26 94.3v59.6"/><path fill="#F89945" d="M57.7 263.3h-3.6l1.7-6.6zm0-15.4h-3.6l1.7 6.6z"/><path clip-rule="evenodd" fill="none" stroke="#F89945" stroke-width=".4" stroke-miterlimit="3.864" d="M55.9 18.3v232.6"/><path fill="#F89945" d="M57.7 21.3h-3.6l1.7-6.6zm.1 346.4h-3.6l1.7 6.6z"/><path clip-rule="evenodd" fill="none" stroke="#F89945" stroke-width=".4" stroke-miterlimit="3.864" d="M55.9 166.2v203.1"/><path fill="#2950A3" d="M87.4 478.3h-3.7l1.8-6.6zm0 82.1h-3.7l1.8 6.5z"/><path clip-rule="evenodd" fill="none" stroke="#2950A3" stroke-width=".4" stroke-miterlimit="3.864" d="M85.6 18.9v446.4"/><path fill="#2950A3" d="M87.4 21.6h-3.7l1.8-6.6z"/><path clip-rule="evenodd" fill="none" stroke="#2950A3" stroke-width=".4" stroke-miterlimit="3.864" d="M85.6 474.9v87.3"/><path fill="#2950A3" d="M87.5 464.1h-3.7l1.8 6.6z"/><path fill="#FFF" d="M9.2 107.3H43v22.2H9.2zm0-65.3H43v22.2H9.2zm290.5 261.6h58v21.3h-58z"/><text transform="translate(307.374 318.404)" font-family="Helvetica,Arial,sans-serif" font-size="14">Zone 1</text><path fill="#FFF" d="M299.7 508.4h58v21.3h-58z"/><text transform="translate(307.374 523.197)" font-family="Helvetica,Arial,sans-serif" font-size="14">Zone 2</text><path fill="#FFF" d="M299.7 108.3h58v21.3h-58z"/><text transform="translate(307.327 123.098)" font-family="Helvetica,Arial,sans-serif" font-size="14">Zone 0</text><text transform="translate(12.394 50.93)"><tspan x="0" y="0" font-family="Helvetica,Arial,sans-serif" font-size="9">Zone 0 </tspan><tspan x="1.4" y="10.8" font-family="Helvetica,Arial,sans-serif" font-size="9">Offset</tspan></text><text transform="translate(12.394 116.237)"><tspan x="0" y="0" font-family="Helvetica,Arial,sans-serif" font-size="9">Zone 0 </tspan><tspan x="5.4" y="10.8" font-family="Helvetica,Arial,sans-serif" font-size="9">Size</tspan></text><path fill="#FFF" d="M68.7 408.8h33.8V431H68.7z"/><text transform="translate(71.827 417.736)"><tspan x="0" y="0" font-family="Helvetica,Arial,sans-serif" font-size="9">Zone 2 </tspan><tspan x="1.4" y="10.8" font-family="Helvetica,Arial,sans-serif" font-size="9">Offset</tspan></text><path fill="#FFF" d="M68.4 508h33.8v22.2H68.4z"/><text transform="translate(71.54 515.71)"><tspan x="0" y="0" font-family="Helvetica,Arial,sans-serif" font-size="9">Zone 2 </tspan><tspan x="5.4" y="10.8" font-family="Helvetica,Arial,sans-serif" font-size="9">Size</tspan></text><path fill="#FFF" d="M39.1 191h33.8v22.2H39.1z"/><text transform="translate(42.3 199.93)"><tspan x="0" y="0" font-family="Helvetica,Arial,sans-serif" font-size="9">Zone 1 </tspan><tspan x="1.4" y="10.8" font-family="Helvetica,Arial,sans-serif" font-size="9">Offset</tspan></text><path fill="#FFF" d="M39.1 303.2h33.8v22.2H39.1z"/><text transform="translate(42.3 311.55)"><tspan x="0" y="0" font-family="Helvetica,Arial,sans-serif" font-size="9">Zone 1 </tspan><tspan x="5.4" y="10.8" font-family="Helvetica,Arial,sans-serif" font-size="9">Size</tspan></text><text transform="translate(158.64 636.93)" font-family="Helvetica,Arial,sans-serif" font-size="9">Offset X</text><text transform="translate(315.897 636.93)" font-family="Helvetica,Arial,sans-serif" font-size="9">Width</text></svg>