<svg version="1.0" xmlns="http://www.w3.org/2000/svg" viewBox="0 0 354.7 280"><text transform="matrix(1.0503 0 0 1 23.566 199.773)" fill="#1D1D1B" font-family="Helvetica,Arial,sans-serif" font-size="11.469">0.2</text><text transform="matrix(1.0503 0 0 1 23.523 155.89)" fill="#1D1D1B" font-family="Helvetica,Arial,sans-serif" font-size="11.469">0.4</text><text transform="matrix(1.0503 0 0 1 23.54 110.208)" fill="#1D1D1B" font-family="Helvetica,Arial,sans-serif" font-size="11.469">0.6</text><text transform="matrix(1.0503 0 0 1 23.393 63.868)" fill="#1D1D1B" font-family="Helvetica,Arial,sans-serif" font-size="11.469">0.8</text><text transform="matrix(1.0503 0 0 1 23.551 18.273)" fill="#1D1D1B" font-family="Helvetica,Arial,sans-serif" font-size="11.469">1.0</text><text transform="matrix(1.0503 0 0 1 38.437 258.085)" fill="#1D1D1B" font-family="Helvetica,Arial,sans-serif" font-size="11.469">400</text><text transform="matrix(1.0503 0 0 1 85.481 258.132)" fill="#1D1D1B" font-family="Helvetica,Arial,sans-serif" font-size="11.469">450</text><text transform="matrix(1.0503 0 0 1 133.984 258.058)" fill="#1D1D1B" font-family="Helvetica,Arial,sans-serif" font-size="11.469">500</text><text transform="matrix(1.0503 0 0 1 181.088 258.192)" fill="#1D1D1B" font-family="Helvetica,Arial,sans-serif" font-size="11.469">550</text><text transform="matrix(1.0503 0 0 1 228.52 258.15)" fill="#1D1D1B" font-family="Helvetica,Arial,sans-serif" font-size="11.469">600</text><text transform="matrix(1.0503 0 0 1 324.002 258.222)" fill="#1D1D1B" font-family="Helvetica,Arial,sans-serif" font-size="11.469">700</text><text transform="matrix(1.0503 0 0 1 24.91 245.215)" fill="#1D1D1B" font-family="Helvetica,Arial,sans-serif" font-size="11.469">0.0</text><text transform="matrix(0 -.9964 1 0 16.725 174.5)" font-family="Helvetica,Arial,sans-serif" font-size="10.902">Relative Response</text><text transform="matrix(1.0036 0 0 1 148.526 273.622)" font-family="Helvetica,Arial,sans-serif" font-size="10.863">Wavelength (nm)</text><text transform="matrix(1.0503 0 0 1 275.793 258.152)" fill="#1D1D1B" font-family="Helvetica,Arial,sans-serif" font-size="11.469">650</text><g fill="none" stroke-miterlimit="10"><path d="M48 59.6h285.1M48 82.3h285.1M48 105h285.3M48.1 127.8h285.1M48.1 150.5h285.1M48.1 173.2h285m-285 22.7h285.1M48.1 218.6h284.7M48.1 36.9h285.1M95.6 14.4v227.1m47.5-227.1v227.1m47.6-226.9v227M238.2 15v226.6m47.6-227.7v227.7" stroke="#1D1E1C" stroke-width=".227"/><path stroke="#1D1D1B" d="M47.6 14.6h286.2v226.3H47.6z"/></g><path fill="none" stroke="#2A4C9A" stroke-miterlimit="10" stroke-dasharray="12,2,2,2" d="M47.6 137.4s5.8-13.1 7.1-15.9c1.3-2.7 6.6-12.6 7.3-13.6.7-.9 5.2-7.7 6.2-9.1 1-1.4 8.1-12.7 9.1-14.4 1.1-1.7 7.8-11.7 8.6-12.7.7-1 5.3-6.9 6.8-8.1 1.5-1.3 6.6-4.8 9.8-4.8 3.2 0 7.6 1.9 10.9 5.3 3.2 3.4 6.6 8 8.7 12.3 2.1 4.3 7.6 17.5 9.7 23.6 2.2 6.1 8.7 24.9 9.5 27.1.7 2.2 6.7 22 7.1 23.3.4 1.3 6 17.9 6.9 20 .9 2.1 5.6 14.4 6.9 17.1 1.3 2.7 5.5 10.3 6.9 12.3 1.4 2 6.2 8.8 14.4 15.5 8.1 6.8 15.4 12.7 22.8 14.6 7.4 1.9 11.9 1.8 12.8 1.8.9 0 9.2.9 10.7 1 1.5.1 15.2 1.9 20.3 2 5.1.1 11.5 0 13.1-.2 1.6-.2 12-2.1 14.4-2.7 2.3-.6 22.3-5.3 25.8-5.8 3.6-.5 15.2-1.9 16.3-2 1.1-.1 6.8-1.1 8.2-1.1h5.9"/><path clip-rule="evenodd" fill="none" stroke="#E42621" stroke-miterlimit="3.864" d="M47.6 219.1s10.7 7.1 13.1 8c2.4.9 12.9 5.5 17.6 6.2 4.7.6 11.1 2.6 12.4 2.5 1.2-.1 7.7.7 9.5.5 1.8-.2 15.1-.8 16.4-1.1 1.3-.3 5.8-.9 7.3-1 1.5-.1 14.5-.5 19.5-2.3 5-1.8 10-3.9 11.1-4.5 1.2-.6 9.1-4 12.5-4 3.3 0 11.4 2.9 13.1 3.8 1.7.8 8.4 2.7 11.2 2.8 2.8.1 5.9-1 6.7-1.7.8-.6 3.3-3.6 4.2-6.2.8-2.5 3.3-11 3.8-14s2.7-13.1 3.3-17c.6-3.9 4.2-29.4 4.4-31.5.2-2.1 4.2-35.8 4.5-37.7.2-1.9 4.3-32.9 4.5-35.3.2-2.4 1.2-10.8 1.7-13.5.4-2.6 3.8-23.1 4.1-24.4 0 0 1.7-7.1 2.1-8.3.3-1.3 1.3-5.9 2.3-7.6 1-1.7 3.2-3.2 3.6-3.5.4-.3 1.7-1.5 3.7-1.4 2 .1 5.1 1 6 1.7.9.6 13.2 8.9 13.7 9.3.5.4 14.8 9.7 17.2 12 2.4 2.3 13.3 12.9 14.7 15 1.4 2.1 12.5 15.2 13.4 16.4.9 1.1 11.6 11.7 13 12.2 1.3.5 4.4 2.8 6.1 2.7 1.7-.1 6-.7 6.6-.8.6-.1 2.8-.4 2.8-.4"/><path clip-rule="evenodd" fill="none" stroke="#6CB330" stroke-miterlimit="3.864" stroke-dasharray="2,2" d="M47.6 224.8s11.5 4.6 13.5 5.1c2.1.5 8.1 1.9 10.1 2 2 .1 8-.9 9.6-1 1.7-.1 6.2-.3 8.2-.8 2-.5 6.6-2.1 9-4.5 2.5-2.4 5.6-9 6.1-10.5.5-1.6 4.9-17.4 5.2-19.1.3-1.7 3.6-18.9 4.2-22.9.6-4.1 5.1-31.9 5.4-33.5.2-1.6 4.3-29.8 4.5-31.1.2-1.3 4.9-28.5 5.1-29.4.2-.9 3.9-19.5 4.2-21.1.3-1.6 5.2-16.9 6.1-18.6.8-1.7 5.2-11.2 9.5-15.6 4.2-4.5 7.9-8.7 20.8-8.8 0 0 6.6-.7 11 2s10.1 8.2 12.3 10.6c2.2 2.4 8.4 10.1 15.1 21.4 6.7 11.3 10.6 19.5 12.7 24.7 2.1 5.2 8.6 24.8 9.5 28.3 1 3.4 8.1 28.6 8.8 30.9.7 2.3 7.1 24.4 8.6 28.8 1.6 4.4 7.6 18.8 10.5 23.1 2.9 4.3 9.2 12.6 18.2 17s9.4 4.4 11 4.6c1.7.2 6.6.3 7.8.2 1.2-.1 4.6-.6 7.3-2.1s13.5-10.4 15-11.9 9.2-9.6 10-10.3c.7-.7 6.5-5.6 6.5-5.6"/><g clip-rule="evenodd"><path fill-rule="evenodd" fill="#1D1E1C" d="M251.8 114.6H328v42.6h-76.2z"/><path fill="none" stroke="#1D1E1C" stroke-width="1.117" stroke-miterlimit="3.864" d="M251.8 114.6H328v42.6h-76.2z"/></g><path fill-rule="evenodd" clip-rule="evenodd" fill="#FFF" d="M250.4 112.6h76.2v42.6h-76.2z"/><path clip-rule="evenodd" fill="none" stroke="#1D1E1C" stroke-width="1.117" stroke-miterlimit="3.864" d="M250.2 112.6h76.2v42.6h-76.2z"/><path clip-rule="evenodd" fill="none" stroke="#294B9A" stroke-miterlimit="3.864" stroke-dasharray="12,2,2,2" d="M256.4 119.6h26.2"/><path clip-rule="evenodd" fill="none" stroke="#6CB330" stroke-miterlimit="3.864" stroke-dasharray="2,2" d="M256.4 133.2h26.2"/><path clip-rule="evenodd" fill="none" stroke="#E42621" stroke-miterlimit="3.864" d="M256.4 146.7h26.2"/><text transform="matrix(1.0036 0 0 1 290.932 121.722)" font-family="Helvetica,Arial,sans-serif" font-size="7.604">Blue</text><text transform="matrix(1.0036 0 0 1 290.726 135.357)" font-family="Helvetica,Arial,sans-serif" font-size="7.603">Green</text><text transform="matrix(1.0036 0 0 1 290.932 148.78)" font-family="Helvetica,Arial,sans-serif" font-size="7.603">Red</text></svg>