<svg version="1.0" xmlns="http://www.w3.org/2000/svg" viewBox="0 0 320 460"><path clip-rule="evenodd" fill="none" stroke="#000" stroke-width="2.835" stroke-miterlimit="3.864" d="M34.7 234.2l93-70.3m34.2 139.5L34.7 234.2m127.2 69.2l93-70.6m-220.2 1.4L68.8 94.9M254.9 233l34-135.2"/><path clip-rule="evenodd" fill="none" stroke="#000" stroke-width="2.126" stroke-miterlimit="3.864" d="M161.9 28.1l127 69.7"/><path clip-rule="evenodd" fill="none" stroke="#D1D3D4" stroke-width="2.126" stroke-miterlimit="3.864" d="M195.9 164.5L68.8 94.9m127.1 69.6l93-66.7"/><path clip-rule="evenodd" fill="none" stroke="#000" stroke-width="2.835" stroke-miterlimit="3.864" d="M127.7 163.4l34.2-135.3"/><path clip-rule="evenodd" fill="none" stroke="#000" stroke-width="2.126" stroke-miterlimit="3.864" d="M68.8 94.9l93.1-66.8"/><g clip-rule="evenodd"><path fill-rule="evenodd" fill="#F1F2F2" d="M195.9 325.7l46.5 19.9 46.6 19.8-17.1 27.2-17 27.1-63.6 7.2-63.6 7.3-46.5-19.8-46.5-19.9 17-27.1 17-27.2 63.6-7.2z"/><path fill="none" stroke="#000" stroke-miterlimit="3.864" d="M195.9 325.7l46.5 19.9 46.6 19.8-17.1 27.2-17 27.1-63.6 7.2-63.6 7.3-46.5-19.8-46.5-19.9 17-27.1 17-27.2 63.6-7.2z"/></g><path clip-rule="evenodd" fill="none" stroke="#000" stroke-miterlimit="3.864" d="M254.9 419.7L68.8 340.2m-34.1 54.3L289 365.4m-93.1-39.7l-68.1 108.5"/><path fill="#F04A3A" d="M247.7 423.9c-4-2.3-4-6.1 0-8.4 4-2.3 10.5-2.3 14.5 0s4 6.1 0 8.4c-4 2.3-10.5 2.3-14.5 0z"/><path fill="none" stroke="#000" stroke-width="2.3" stroke-miterlimit="3.864" d="M247.7 423.9c-4-2.3-4-6.1 0-8.4 4-2.3 10.5-2.3 14.5 0s4 6.1 0 8.4c-4 2.3-10.5 2.3-14.5 0z"/><path fill="#72CBCA" d="M61.5 344.5c-4-2.3-4-6.1 0-8.4 4-2.3 10.5-2.3 14.5 0s4 6.1 0 8.4c-4 2.3-10.5 2.3-14.5 0z"/><path fill="none" stroke="#BCBEC0" stroke-width="1.5" stroke-miterlimit="3.864" d="M61.5 344.5c-4-2.3-4-6.1 0-8.4 4-2.3 10.5-2.3 14.5 0s4 6.1 0 8.4c-4 2.3-10.5 2.3-14.5 0z"/><path clip-rule="evenodd" fill="none" stroke="#D1D3D4" stroke-width="2.126" stroke-miterlimit="3.864" d="M161.9 303.4l34-138.9"/><path fill="#FFF" d="M152.2 28.2c0-5.3 4.3-9.7 9.7-9.7 5.3 0 9.7 4.3 9.7 9.7 0 5.3-4.3 9.7-9.7 9.7-5.4-.1-9.7-4.4-9.7-9.7z"/><path fill="none" stroke="#000" stroke-miterlimit="3.864" d="M152.2 28.2c0-5.3 4.3-9.7 9.7-9.7 5.3 0 9.7 4.3 9.7 9.7 0 5.3-4.3 9.7-9.7 9.7-5.4-.1-9.7-4.4-9.7-9.7z"/><path fill="#72CBCA" d="M59.2 95c0-5.3 4.3-9.7 9.7-9.7 5.3 0 9.7 4.3 9.7 9.7 0 5.3-4.3 9.7-9.7 9.7-5.4 0-9.7-4.4-9.7-9.7z"/><path fill="none" stroke="#000" stroke-miterlimit="3.864" d="M59.2 95c0-5.3 4.3-9.7 9.7-9.7 5.3 0 9.7 4.3 9.7 9.7 0 5.3-4.3 9.7-9.7 9.7-5.4 0-9.7-4.4-9.7-9.7z"/><path clip-rule="evenodd" fill="none" stroke="#939598" stroke-miterlimit="3.864" stroke-dasharray="2,2" d="M68.8 340.3l-.1-235.6M254.9 421V242.5m-93 60.9V37.9"/><path clip-rule="evenodd" fill="none" stroke="#000" stroke-width="2.835" stroke-miterlimit="3.864" d="M127.7 163.9l127.2 68.9"/><path fill="#F04A3A" d="M245.3 232.9c0-5.3 4.3-9.7 9.7-9.7 5.3 0 9.7 4.3 9.7 9.7s-4.3 9.7-9.7 9.7c-5.4-.1-9.7-4.4-9.7-9.7z"/><path fill="none" stroke="#000" stroke-miterlimit="3.864" d="M245.3 232.9c0-5.3 4.3-9.7 9.7-9.7 5.3 0 9.7 4.3 9.7 9.7s-4.3 9.7-9.7 9.7c-5.4-.1-9.7-4.4-9.7-9.7z"/><path d="M152.2 303.4c0-5.3 4.3-9.7 9.7-9.7 5.3 0 9.7 4.3 9.7 9.7 0 5.3-4.3 9.7-9.7 9.7-5.4 0-9.7-4.4-9.7-9.7z"/><path fill="none" stroke="#000" stroke-miterlimit="3.864" d="M152.2 303.4c0-5.3 4.3-9.7 9.7-9.7 5.3 0 9.7 4.3 9.7 9.7 0 5.3-4.3 9.7-9.7 9.7-5.4 0-9.7-4.4-9.7-9.7z"/><path fill="#D1D3D4" d="M154.6 384.1c-4-2.3-4-6.1 0-8.4 4-2.3 10.5-2.3 14.5 0s4 6.1 0 8.4c-4 2.4-10.5 2.4-14.5 0z"/><path fill="none" stroke="#BCBEC0" stroke-width="1.5" stroke-miterlimit="3.864" d="M154.6 384.1c-4-2.3-4-6.1 0-8.4 4-2.3 10.5-2.3 14.5 0s4 6.1 0 8.4c-4 2.4-10.5 2.4-14.5 0z"/><path clip-rule="evenodd" fill="none" stroke="#939598" stroke-miterlimit="3.864" stroke-dasharray="2,2" d="M161.9 380.6v-67.1"/><path fill="#D87EB4" d="M281.7 369.7c-4-2.3-4-6.1 0-8.4 4-2.3 10.5-2.3 14.5 0s4 6.1 0 8.4c-4 2.3-10.5 2.3-14.5 0z"/><path fill="none" stroke="#BCBEC0" stroke-width="1.5" stroke-miterlimit="3.864" d="M281.7 369.7c-4-2.3-4-6.1 0-8.4 4-2.3 10.5-2.3 14.5 0s4 6.1 0 8.4c-4 2.3-10.5 2.3-14.5 0z"/><path fill="#55B956" d="M27.5 398.7c-4-2.3-4-6.1 0-8.4 4-2.3 10.5-2.3 14.5 0s4 6.1 0 8.4c-4 2.3-10.5 2.3-14.5 0z"/><path fill="none" stroke="#000" stroke-width="2.2" stroke-miterlimit="3.864" d="M27.5 398.7c-4-2.3-4-6.1 0-8.4 4-2.3 10.5-2.3 14.5 0s4 6.1 0 8.4c-4 2.3-10.5 2.3-14.5 0z"/><ellipse fill="#FCE454" cx="127.8" cy="434.2" rx="10.3" ry="5.9"/><ellipse fill="none" stroke="#BCBEC0" stroke-width="1.5" stroke-miterlimit="3.864" cx="127.8" cy="434.2" rx="10.3" ry="5.9"/><path fill="#2950A3" d="M188.6 329.9c-4-2.3-4-6.1 0-8.4 4-2.3 10.5-2.3 14.5 0s4 6.1 0 8.4c-4 2.4-10.5 2.4-14.5 0z"/><path fill="none" stroke="#000" stroke-width="2.3" stroke-miterlimit="3.864" d="M188.6 329.9c-4-2.3-4-6.1 0-8.4 4-2.3 10.5-2.3 14.5 0s4 6.1 0 8.4c-4 2.4-10.5 2.4-14.5 0z"/><path clip-rule="evenodd" fill="none" stroke="#939598" stroke-miterlimit="3.864" stroke-dasharray="2,2" d="M195.9 325.7V174.3m93 191.1V108.5M127.7 434.1V173.7m-93 220.8v-150"/><path fill="#2950A3" d="M186.3 164.6c0-5.3 4.3-9.7 9.7-9.7 5.3 0 9.7 4.3 9.7 9.7s-4.3 9.7-9.7 9.7c-5.4-.1-9.7-4.4-9.7-9.7z"/><path fill="none" stroke="#000" stroke-miterlimit="3.864" d="M186.3 164.6c0-5.3 4.3-9.7 9.7-9.7 5.3 0 9.7 4.3 9.7 9.7s-4.3 9.7-9.7 9.7c-5.4-.1-9.7-4.4-9.7-9.7z"/><path fill="#55B956" d="M25.1 234.2c0-5.3 4.3-9.7 9.7-9.7 5.3 0 9.7 4.3 9.7 9.7 0 5.3-4.3 9.7-9.7 9.7-5.4 0-9.7-4.4-9.7-9.7z"/><path fill="none" stroke="#000" stroke-miterlimit="3.864" d="M25.1 234.2c0-5.3 4.3-9.7 9.7-9.7 5.3 0 9.7 4.3 9.7 9.7 0 5.3-4.3 9.7-9.7 9.7-5.4 0-9.7-4.4-9.7-9.7z"/><path fill="#FCE454" d="M118 164c0-5.3 4.3-9.7 9.7-9.7 5.3 0 9.7 4.3 9.7 9.7 0 5.3-4.3 9.7-9.7 9.7-5.3-.1-9.7-4.4-9.7-9.7z"/><path fill="none" stroke="#000" stroke-miterlimit="3.864" d="M118 164c0-5.3 4.3-9.7 9.7-9.7 5.3 0 9.7 4.3 9.7 9.7 0 5.3-4.3 9.7-9.7 9.7-5.3-.1-9.7-4.4-9.7-9.7z"/><path fill="#D87EB4" d="M278.2 98.9c0-5.3 4.3-9.7 9.7-9.7 5.3 0 9.7 4.3 9.7 9.7 0 5.3-4.3 9.7-9.7 9.7-5.3-.1-9.7-4.4-9.7-9.7z"/><path fill="none" stroke="#000" stroke-miterlimit="3.864" d="M278.2 98.9c0-5.3 4.3-9.7 9.7-9.7 5.3 0 9.7 4.3 9.7 9.7 0 5.3-4.3 9.7-9.7 9.7-5.3-.1-9.7-4.4-9.7-9.7z"/><text transform="translate(254.908 442)" font-family="Helvetica,Arial,sans-serif" font-size="12">Red</text><text transform="translate(265.623 348.562)" font-family="Helvetica,Arial,sans-serif" font-size="12">Magenta</text><text transform="translate(202.38 312.834)" font-family="Helvetica,Arial,sans-serif" font-size="12">Blue</text><text transform="translate(36.655 327.84)" font-family="Helvetica,Arial,sans-serif" font-size="12">Cyan</text><text transform="translate(10.333 417.16)" font-family="Helvetica,Arial,sans-serif" font-size="12">Green</text><text transform="translate(98.281 457.166)" font-family="Helvetica,Arial,sans-serif" font-size="12">Yellow</text></svg>