<svg version="1.0" xmlns="http://www.w3.org/2000/svg" viewBox="0 0 550 290"><path fill="#C8C8C8" d="M444.5 204.6h34.8v69.6h-34.8z"/><path fill="#BDE4F7" stroke="#1D1D1B" stroke-miterlimit="10" d="M4.5 28.8h474.7v34.8H4.5z"/><path fill="none" stroke="#1D1D1B" stroke-miterlimit="10" d="M4.5 28.8h474.7v104.3H4.5zm0 34.7h474.7M4.5 98.3h474.7M61.9 28.8v104.3M96.7 28.8v104.3m34.7-104.3v104.3m34.8-104.3v104.3M201 28.8v104.3m34.8-104.3v104.3m34.8-104.3v104.3m34.7-104.3v104.3m34.8-104.3v104.3m34.8-104.3v104.3m34.8-104.3v104.3m34.8-104.3v104.3"/><path fill="#BDE4F7" stroke="#1D1D1B" stroke-miterlimit="10" d="M4.5 169.8h474.7v34.8H4.5z"/><path fill="none" stroke="#1D1D1B" stroke-miterlimit="10" d="M4.5 169.8h474.7v104.3H4.5zm0 34.8h474.7M4.5 239.4h474.7M61.9 169.8v104.3m34.8-104.3v104.3m34.7-104.3v104.3m34.8-104.3v104.3M201 169.8v104.3m34.8-104.3v104.3m34.8-104.3v104.3m34.7-104.3v104.3m34.8-104.3v104.3m34.8-104.3v104.3m34.8-104.3v104.3m34.8-104.3v104.3"/><path fill="none" stroke="#5A5A5A" stroke-miterlimit="10" d="M461 89.6l-30.2 113.9"/><path fill="#5A5A5A" d="M428.5 200.9v11.2l5.6-9.7z"/><path fill="none" stroke="#5A5A5A" stroke-miterlimit="10" d="M426.2 89.6L396 203.5"/><path fill="#5A5A5A" d="M393.7 200.9v11.2l5.6-9.7z"/><path fill="none" stroke="#5A5A5A" stroke-miterlimit="10" d="M391.4 89.6l-30.2 113.9"/><path fill="#5A5A5A" d="M358.9 200.9v11.2l5.6-9.7z"/><path fill="none" stroke="#5A5A5A" stroke-miterlimit="10" d="M356.6 89.6l-30.2 113.9"/><path fill="#5A5A5A" d="M324.1 200.9l.1 11.2 5.5-9.7z"/><path fill="none" stroke="#5A5A5A" stroke-miterlimit="10" d="M321.8 89.6l-30.1 113.9"/><path fill="#5A5A5A" d="M289.4 200.9v11.2l5.6-9.7z"/><path fill="none" stroke="#5A5A5A" stroke-miterlimit="10" d="M287.1 89.6l-30.2 113.9"/><path fill="#5A5A5A" d="M254.6 200.9v11.2l5.6-9.7z"/><path fill="none" stroke="#5A5A5A" stroke-miterlimit="10" d="M252.3 89.6l-30.2 113.9"/><path fill="#5A5A5A" d="M219.8 200.9v11.2l5.6-9.7z"/><path fill="none" stroke="#5A5A5A" stroke-miterlimit="10" d="M217.5 89.6l-30.2 113.9"/><path fill="#5A5A5A" d="M185 200.9l.1 11.2 5.5-9.7z"/><path fill="none" stroke="#5A5A5A" stroke-miterlimit="10" d="M182.7 89.6l-30.2 113.9"/><path fill="#5A5A5A" d="M150.2 200.9l.1 11.2 5.6-9.7z"/><path fill="none" stroke="#5A5A5A" stroke-miterlimit="10" d="M148 89.6l-30.2 113.9"/><path fill="#5A5A5A" d="M115.5 200.9v11.2l5.6-9.7z"/><path fill="none" stroke="#5A5A5A" stroke-miterlimit="10" d="M113.2 89.6L83 203.5"/><path fill="#5A5A5A" d="M80.7 200.9v11.2l5.6-9.7z"/><text transform="translate(65.377 49.45)" font-family="Helvetica,Arial,sans-serif" font-size="11">Bit 11</text><text transform="translate(99.823 49.45)" font-family="Helvetica,Arial,sans-serif" font-size="11">Bit 10</text><text transform="translate(138.462 49.45)" font-family="Helvetica,Arial,sans-serif" font-size="11">Bit 9</text><text transform="translate(173.219 49.45)" font-family="Helvetica,Arial,sans-serif" font-size="11">Bit 8</text><text transform="translate(206.975 49.45)" font-family="Helvetica,Arial,sans-serif" font-size="11">Bit 7</text><text transform="translate(242.06 49.45)" font-family="Helvetica,Arial,sans-serif" font-size="11">Bit 6</text><text transform="translate(276.802 49.45)" font-family="Helvetica,Arial,sans-serif" font-size="11">Bit 5</text><text transform="translate(311.652 49.45)" font-family="Helvetica,Arial,sans-serif" font-size="11">Bit 4</text><text transform="translate(346.898 49.45)" font-family="Helvetica,Arial,sans-serif" font-size="11">Bit 3</text><text transform="translate(381.154 49.45)" font-family="Helvetica,Arial,sans-serif" font-size="11">Bit 2</text><text transform="translate(416.121 49.45)" font-family="Helvetica,Arial,sans-serif" font-size="11">Bit 1</text><text transform="translate(450.878 49.45)" font-family="Helvetica,Arial,sans-serif" font-size="11">Bit 0</text><text transform="translate(17.83 83.922)" font-family="Helvetica,Arial,sans-serif" font-size="11">Binary</text><text transform="translate(14.153 119.314)" font-family="Helvetica,Arial,sans-serif" font-size="11">Decimal</text><text transform="translate(74.523 86.22)" font-family="Helvetica,Arial,sans-serif" font-weight="bold" font-size="14">0</text><text transform="translate(109.288 86.22)" font-family="Helvetica,Arial,sans-serif" font-weight="bold" font-size="14">0</text><text transform="translate(144.053 86.22)" font-family="Helvetica,Arial,sans-serif" font-weight="bold" font-size="14">0</text><text transform="translate(178.818 86.22)" font-family="Helvetica,Arial,sans-serif" font-weight="bold" font-size="14">0</text><text transform="translate(213.583 86.22)" font-family="Helvetica,Arial,sans-serif" font-weight="bold" font-size="14">0</text><text transform="translate(248.347 86.22)" font-family="Helvetica,Arial,sans-serif" font-weight="bold" font-size="14">0</text><text transform="translate(283.112 86.22)" font-family="Helvetica,Arial,sans-serif" font-weight="bold" font-size="14">0</text><text transform="translate(317.877 86.22)" font-family="Helvetica,Arial,sans-serif" font-weight="bold" font-size="14">1</text><text transform="translate(352.642 86.22)" font-family="Helvetica,Arial,sans-serif" font-weight="bold" font-size="14">0</text><text transform="translate(387.406 86.22)" font-family="Helvetica,Arial,sans-serif" font-weight="bold" font-size="14">1</text><text transform="translate(422.172 86.22)" font-family="Helvetica,Arial,sans-serif" font-weight="bold" font-size="14">1</text><text transform="translate(456.937 86.22)" font-family="Helvetica,Arial,sans-serif" font-weight="bold" font-size="14">0</text><text transform="translate(74.609 120.314)" font-family="Helvetica,Arial,sans-serif" font-size="14">0</text><text transform="translate(109.374 120.314)" font-family="Helvetica,Arial,sans-serif" font-size="14">0</text><text transform="translate(144.139 120.314)" font-family="Helvetica,Arial,sans-serif" font-size="14">0</text><text transform="translate(178.903 120.314)" font-family="Helvetica,Arial,sans-serif" font-size="14">0</text><text transform="translate(213.668 120.314)" font-family="Helvetica,Arial,sans-serif" font-size="14">0</text><text transform="translate(248.433 120.314)" font-family="Helvetica,Arial,sans-serif" font-size="14">0</text><text transform="translate(283.197 120.314)" font-family="Helvetica,Arial,sans-serif" font-size="14">0</text><text transform="translate(314.032 120.314)" font-family="Helvetica,Arial,sans-serif" font-size="14">16</text><text transform="translate(352.727 120.314)" font-family="Helvetica,Arial,sans-serif" font-size="14">0</text><text transform="translate(387.492 120.314)" font-family="Helvetica,Arial,sans-serif" font-size="14">4</text><text transform="translate(422.257 120.314)" font-family="Helvetica,Arial,sans-serif" font-size="14">2</text><text transform="translate(457.022 120.314)" font-family="Helvetica,Arial,sans-serif" font-size="14">0</text><text transform="translate(67.47 21.274)" font-family="Helvetica,Arial,sans-serif" font-weight="bold" font-size="11">MSB</text><text transform="translate(451.924 21.274)" font-family="Helvetica,Arial,sans-serif" font-weight="bold" font-size="11">LSB</text><text transform="translate(65.377 190.49)" font-family="Helvetica,Arial,sans-serif" font-size="11">Bit 11</text><text transform="translate(99.823 190.49)" font-family="Helvetica,Arial,sans-serif" font-size="11">Bit 10</text><text transform="translate(138.462 190.49)" font-family="Helvetica,Arial,sans-serif" font-size="11">Bit 9</text><text transform="translate(173.219 190.49)" font-family="Helvetica,Arial,sans-serif" font-size="11">Bit 8</text><text transform="translate(206.975 190.49)" font-family="Helvetica,Arial,sans-serif" font-size="11">Bit 7</text><text transform="translate(242.06 190.49)" font-family="Helvetica,Arial,sans-serif" font-size="11">Bit 6</text><text transform="translate(276.802 190.49)" font-family="Helvetica,Arial,sans-serif" font-size="11">Bit 5</text><text transform="translate(311.652 190.49)" font-family="Helvetica,Arial,sans-serif" font-size="11">Bit 4</text><text transform="translate(346.898 190.49)" font-family="Helvetica,Arial,sans-serif" font-size="11">Bit 3</text><text transform="translate(381.154 190.49)" font-family="Helvetica,Arial,sans-serif" font-size="11">Bit 2</text><text transform="translate(416.121 190.49)" font-family="Helvetica,Arial,sans-serif" font-size="11">Bit 1</text><text transform="translate(450.878 190.49)" font-family="Helvetica,Arial,sans-serif" font-size="11">Bit 0</text><text transform="translate(17.83 224.961)" font-family="Helvetica,Arial,sans-serif" font-size="11">Binary</text><text transform="translate(14.153 260.353)" font-family="Helvetica,Arial,sans-serif" font-size="11">Decimal</text><text transform="translate(74.523 227.26)" font-family="Helvetica,Arial,sans-serif" font-weight="bold" font-size="14">0</text><text transform="translate(109.288 227.26)" font-family="Helvetica,Arial,sans-serif" font-weight="bold" font-size="14">0</text><text transform="translate(144.053 227.26)" font-family="Helvetica,Arial,sans-serif" font-weight="bold" font-size="14">0</text><text transform="translate(178.818 227.26)" font-family="Helvetica,Arial,sans-serif" font-weight="bold" font-size="14">0</text><text transform="translate(213.583 227.26)" font-family="Helvetica,Arial,sans-serif" font-weight="bold" font-size="14">0</text><text transform="translate(248.347 227.26)" font-family="Helvetica,Arial,sans-serif" font-weight="bold" font-size="14">0</text><text transform="translate(283.112 227.26)" font-family="Helvetica,Arial,sans-serif" font-weight="bold" font-size="14">1</text><text transform="translate(317.877 227.26)" font-family="Helvetica,Arial,sans-serif" font-weight="bold" font-size="14">0</text><text transform="translate(352.642 227.26)" font-family="Helvetica,Arial,sans-serif" font-weight="bold" font-size="14">1</text><text transform="translate(387.406 227.26)" font-family="Helvetica,Arial,sans-serif" font-weight="bold" font-size="14">1</text><text transform="translate(422.172 227.26)" font-family="Helvetica,Arial,sans-serif" font-weight="bold" font-size="14">0</text><text transform="translate(456.937 227.26)" font-family="Helvetica,Arial,sans-serif" font-weight="bold" font-size="14">0</text><text transform="translate(74.609 261.353)" font-family="Helvetica,Arial,sans-serif" font-size="14">0</text><text transform="translate(109.374 261.353)" font-family="Helvetica,Arial,sans-serif" font-size="14">0</text><text transform="translate(144.139 261.353)" font-family="Helvetica,Arial,sans-serif" font-size="14">0</text><text transform="translate(178.903 261.353)" font-family="Helvetica,Arial,sans-serif" font-size="14">0</text><text transform="translate(213.668 261.353)" font-family="Helvetica,Arial,sans-serif" font-size="14">0</text><text transform="translate(248.433 261.353)" font-family="Helvetica,Arial,sans-serif" font-size="14">0</text><text transform="translate(279.267 261.353)" font-family="Helvetica,Arial,sans-serif" font-size="14">32</text><text transform="translate(317.963 261.353)" font-family="Helvetica,Arial,sans-serif" font-size="14">0</text><text transform="translate(352.727 261.353)" font-family="Helvetica,Arial,sans-serif" font-size="14">8</text><text transform="translate(387.492 261.353)" font-family="Helvetica,Arial,sans-serif" font-size="14">4</text><text transform="translate(422.257 261.353)" font-family="Helvetica,Arial,sans-serif" font-size="14">0</text><text transform="translate(457.022 261.353)" font-family="Helvetica,Arial,sans-serif" font-size="14">0</text><text transform="translate(484.778 114.175)"><tspan x="0" y="0" font-family="Helvetica,Arial,sans-serif" font-size="11">Original pixel </tspan><tspan x="0" y="13.2" font-family="Helvetica,Arial,sans-serif" font-size="11">value: </tspan><tspan x="31.3" y="13.2" font-family="Helvetica,Arial,sans-serif" font-weight="bold" font-size="11">22</tspan></text><text transform="translate(484.777 255.214)"><tspan x="0" y="0" font-family="Helvetica,Arial,sans-serif" font-size="11">New pixel</tspan><tspan x="0" y="13.2" font-family="Helvetica,Arial,sans-serif" font-size="11">value: </tspan><tspan x="31.3" y="13.2" font-family="Helvetica,Arial,sans-serif" font-weight="bold" font-size="11">44</tspan></text></svg>