<svg version="1.0" xmlns="http://www.w3.org/2000/svg" viewBox="0 0 450 171.9"><g clip-rule="evenodd"><path fill-rule="evenodd" d="M417.1 156.8v-4.5l6.5 4.5-6.5 4.5z"/><path fill="none" stroke="#000" stroke-width="1.5" stroke-miterlimit="3.864" d="M137.7 156.8h279.9"/></g><path clip-rule="evenodd" fill="none" stroke="#000" stroke-miterlimit="3.864" d="M420.4 124h-73.3V99H169.5v25h-31.9"/><path fill="none" stroke="#000" stroke-miterlimit="3.864" d="M178.4 86.2h159.9"/><path d="M180.4 89.1l-10.9-2.9 10.9-2.9zm155.9 0l10.8-2.9-10.8-2.9z"/><path fill="none" stroke="#000" stroke-miterlimit="3.864" d="M424.3 45.6H250.6V21.3h-7.8v24.3h-14.5V21.3h-11.2v24.3h0-28.8 0V21.3h-18.8v24.3h-31.9"/><path fill="none" stroke="#000" stroke-width=".5" stroke-miterlimit="3.864" d="M169.5 90.1v-8m177.6 8.4v-8"/><text transform="translate(202.736 78.537)" fill="#14487E" font-family="Helvetica,Arial,sans-serif" font-weight="bold" font-size="13.5">Input hold-off time</text><text transform="translate(12.077 29.068)"><tspan x="0" y="0" font-family="Helvetica,Arial,sans-serif" font-size="12">Incoming input signal </tspan><tspan x="0" y="14.4" font-family="Helvetica,Arial,sans-serif" font-size="12">(unfiltered)</tspan></text><text transform="translate(12.078 102.777)"><tspan x="0" y="0" font-family="Helvetica,Arial,sans-serif" font-size="12">Resulting input signal </tspan><tspan x="0" y="14.4" font-family="Helvetica,Arial,sans-serif" font-size="12">(filtered, not delayed)</tspan></text><text transform="translate(258.397 150.087)" font-family="Helvetica,Arial,sans-serif" font-size="13">Time</text></svg>