<svg version="1.0" xmlns="http://www.w3.org/2000/svg" xmlns:xlink="http://www.w3.org/1999/xlink" viewBox="0 0 212.6 283.5"><path fill="none" stroke="#010202" stroke-width=".283" stroke-linecap="round" stroke-linejoin="round" stroke-miterlimit="10" d="M70.8 22.5h3.5m0 0v6.6m0 0h-3.5m0 0v-6.6m-15.4 23h-3.5m0 0v-6.6m0 0h3.5m0 0v6.6M56.6 88h-3.4m0 0v-6.6m0 0h3.4m0 0V88m90 4.6v6.9m0 0h-16.4m0 0v-6.9m0 0h16.4"/><defs><path id="a" d="M0 0h212.6v283.5H0z"/></defs><clipPath id="b"><use xlink:href="#a" overflow="visible"/></clipPath><path clip-path="url(#b)" fill="none" stroke="#010202" stroke-width=".283" stroke-linecap="round" stroke-linejoin="round" stroke-miterlimit="10" d="M169.2 15.4c0 1.7 1.4 3.1 3.1 3.1 1.7 0 3.1-1.4 3.1-3.1 0-1.7-1.4-3.1-3.1-3.1-1.7 0-3.1 1.4-3.1 3.1zm-11.5 6.5v-3.5m0 0h6.6m0 0v3.5m0 0h-6.6m14.2 54.8v-3.5m0 0h6.6m0 0v3.5m0 0h-6.6m-44.2 15.9v6.9m0 0h-16.4m0 0v-6.9m0 0h16.4M93.2 38.3h3.4m0 0v6.6m0 0h-3.4m0 0v-6.6m71.1-2.2h3.5m0 0v6.6m0 0h-3.5m0 0v-6.6M93.2 71.7h3.4m0 0v6.6m0 0h-3.4m0 0v-6.6m0-46.3h3.4m0 0V32m0 0h-3.4m0 0v-6.6m-18.9-6.3h-3.5m0 0v-6.7m0 0h3.5m0 0v6.7m24.2 37.4h3.5m0 0v6.7m0 0h-3.5m0 0v-6.7m71.2-20.4h3.5m0 0v6.6m0 0h-3.5m0 0v-6.6m-48.2 46.3v-3.5m0 0h6.6m0 0v3.5m0 0h-6.6M47.8 67.6v-3.5m0 0h6.6m0 0v3.5m0 0h-6.6m45.4 13.8h3.4m0 0V88m0 0h-3.4m0 0v-6.6m-45.4-8.5v-3.4m0 0h6.6m0 0v3.4m0 0h-6.6m62.7 9.5v-3.5m0 0h6.6m0 0v3.5m0 0h-6.6m-59.2 48.8v3.4m0 0h-6.6m0 0v-3.4m0 0h6.6M73.6 32v3.4m0 0H67m0 0V32m0 0h6.6m16.9 11.8v32.1m0 0H58.4m0 0V43.8m0 0h32.1M47.8 62.2v-3.5m0 0h6.6m0 0v3.5m0 0h-6.6m50.7-23.9h3.5m0 0v6.6m0 0h-3.5m0 0v-6.6m-37 53.5v9.1m0 0H47.7m0 0v-9.1m0 0h13.8m11.2-50.7v-3.5m0 0h6.6m0 0v3.5m0 0h-6.6m95.1 12.6h-3.5m0 0v-6.6m0 0h3.5m0 0v6.6m-60.5 21.7h-3.4m0 0v-6.6m0 0h3.4m0 0v6.6m-63.2 64.8c0 1.4 1.1 2.5 2.5 2.5s2.5-1.1 2.5-2.5-1.1-2.5-2.5-2.5c-1.3 0-2.5 1.1-2.5 2.5zm99.5-52.5v-3.4m0 0h6.6m0 0v3.4m0 0h-6.6M125 18.4v3.5m0 0h-6.6m0 0v-3.5m0 0h6.6m-24.3 47.3v3.4m0 0h-6.6m0 0v-3.4m0 0h6.6m9.3 10.5V24.6m0 0h51.7m0 0v51.6m0 0H110M79.3 14v-3.4m0 0h6.6m0 0V14m0 0h-6.6m17.3 49.2h-3.4m0 0v-6.7m0 0h3.4m0 0v6.7M72.9 166c0 1.7 1.4 3.1 3.1 3.1 1.7 0 3.1-1.4 3.1-3.1 0-1.7-1.4-3.1-3.1-3.1-1.7-.1-3.1 1.3-3.1 3.1zm59.6-83.6v-3.5m0 0h6.6m0 0v3.5m0 0h-6.6m70.6 41.5v3.5m0 0h-6.6m0 0v-3.5m0 0h6.6m-141.7 7.3v3.4m0 0h-6.7m0 0v-3.4m0 0h6.7M185 161.8c0 5.2 4.2 9.4 9.4 9.4s9.5-4.2 9.5-9.4-4.2-9.5-9.5-9.5c-5.2 0-9.4 4.3-9.4 9.5z"/><path clip-path="url(#b)" fill="none" stroke="#010202" stroke-width=".709" stroke-linecap="round" stroke-linejoin="round" stroke-miterlimit="10" d="M38.8 166.3V15.1c0-5.2 4.2-9.4 9.5-9.4h103.5l.3.3c.1.1.2.1.2.2.3 1.7 1.9 2.9 3.6 2.6 1.4-.2 2.4-1.3 2.6-2.6.1-.1.2-.1.2-.2l.3-.3h40.5c5.2 0 9.5 4.2 9.5 9.4v151.2c0 5.2-4.2 9.4-9.5 9.4h-84.6l-.3-.3c-.1-.1-.2-.1-.2-.2-.3-1.7-1.9-2.9-3.6-2.6-1.4.2-2.4 1.3-2.6 2.6-.1.1-.2.1-.2.2l-.3.3H48.3c-5.2 0-9.5-4.2-9.5-9.4z"/><path clip-path="url(#b)" fill="none" stroke="#010202" stroke-width=".283" stroke-linecap="round" stroke-linejoin="round" stroke-miterlimit="10" d="M89.7 37.6v3.5m-6.6-3.5h6.6m-6.6 3.5v-3.5m6.6 3.5h-6.6m24.2-9.1h-3.4m3.4-6.6V32m-3.4-6.6h3.4m-3.4 6.6v-6.6M46.2 49.3h3.5m-3.5 6.6v-6.6m3.5 6.6h-3.5m3.5-6.6v6.6m128.8 22.7V82m-6.6-3.4h6.6m-6.6 3.4v-3.4m6.6 3.4h-6.6m-91.8 9.8v9.1m-13.9-9.1h13.9m-13.9 9.1v-9.1m13.9 9.1H66.2m99.2-8.3v6.9m-16.3-6.9h16.3m-16.3 6.9v-6.9m16.3 6.9h-16.3M47.8 78.3v-3.5m6.6 3.5h-6.6m6.6-3.5v3.5m-6.6-3.5h6.6m49.5 6.6h3.4m-3.4 6.6v-6.6m3.4 6.6h-3.4m3.4-6.6V88m57-18.9h3.5m-3.5 6.6v-6.6m3.5 6.6h-3.5m3.5-6.6v6.6M45.4 114h16.4m-16.4 13.2V114m16.4 13.2H45.4M61.8 114v13.2m78.6-110.7v-3.4m6.6 3.4h-6.6m6.6-3.4v3.4m-6.6-3.4h6.6M98.5 71.7h3.5m-3.5 6.6v-6.6m3.5 6.6h-3.5m3.5-6.6v6.6m69.9-7v-3.4m6.6 3.4h-6.6m6.6-3.4v3.4m-6.6-3.4h6.6M62.6 88h-3.5m3.5-6.6V88m-3.5-6.6h3.5M59.1 88v-6.6m53.3-63v3.5m-6.6-3.5h6.6m-6.6 3.5v-3.5m6.6 3.5h-6.6M80.1 80.5v9.1m-13.9-9.1h13.9m-13.9 9.1v-9.1m13.9 9.1H66.2M51.9 49.3h3.5m-3.5 6.6v-6.6m3.5 6.6h-3.5m3.5-6.6v6.6m137.3 68v3.5m-6.6-3.5h6.6m-6.6 3.5v-3.5m6.6 3.5h-6.6m-21.8-69.6h3.5m-3.5 6.6v-6.6m3.5 6.6h-3.5m3.5-6.6v6.6m-6.6 14.5v3.5m-6.6-3.5h6.6m-6.6 3.5v-3.5m6.6 3.5h-6.6m-14.2-60.5v-3.5m6.6 3.5h-6.6m6.6-3.5v3.5m-6.6-3.5h6.6m-38.2 74.2v6.9m-16.4-6.9h16.4m-16.4 6.9v-6.9m16.4 6.9H92.4m97.9 22.4V103m8.8 18.9h-8.8m8.8-18.9v18.9m-8.8-18.9h8.8m-69.7-81.1v-3.5m6.6 3.5h-6.6m6.6-3.5v3.5m-6.6-3.5h6.6m7.6 64v-3.5m6.6 3.5h-6.6m6.6-3.5v3.5m-6.6-3.5h6.6M77.1 34.5V17.8m13.5 16.7H77.1m13.5-16.7v16.7M77.1 17.8h13.5m87.9 66.1v3.5m-6.6-3.5h6.6m-6.6 3.5v-3.5m6.6 3.5h-6.6M89.5 14.2v-3.8m7 3.8h-7m7-3.8v3.8m-7-3.8h7m61.2 6.1v-3.4m6.6 3.4h-6.6m6.6-3.4v3.4m-6.6-3.4h6.6m-60.4 45.3h3.4m-3.4 6.6v-6.6m3.4 6.6h-3.4m3.4-6.6V65M68.9 37.6v3.5m-6.6-3.5h6.6m-6.6 3.5v-3.5m6.6 3.5h-6.6m-14.2 68.3v-5.9m11 5.9h-11m11-5.9v5.9m-11-5.9h11m30.5-5.2h-5.8m5.8-10.7v10.7m-5.8-10.7h5.8m-5.8 10.7V87.6M50 45.8h-4.1m4.1-7.2v7.2m-4.1-7.2H50m-4.1 7.2v-7.2M164.3 25h3.5m-3.5 6.7V25m3.5 6.7h-3.5m3.5-6.7v6.7M98.5 81.4h3.5M98.5 88v-6.6M102 88h-3.5m3.5-6.6V88m-51.4 0h-3.4m3.4-6.6V88m-3.4-6.6h3.4M47.2 88v-6.6m155.6 16.1v3.4m-6.6-3.4h6.6m-6.6 3.4v-3.4m6.6 3.4h-6.6m-92.3-62.6h3.4m-3.4 6.6v-6.6m3.4 6.6h-3.4m3.4-6.6v6.6m-8.8-19.5h3.5M98.5 32v-6.6M102 32h-3.5m3.5-6.6V32m36.4 77.4v-1.2m0 1.2v1.5m0 .4v-.4m-.7.4v-.4m0-1.5v1.5m0-1.5v-1.2m0 0h.7m-62.9 3.1h96.8m-22-3.1h.7m0 1.2v-1.2m-.7 1.2v-1.2m-79.7 13.5h106.6m-100.3 2.8H81m.7 0h2.4m.8 0h2.4m.7 0h2.4m.8 0h2.4m.7 0h2.4m.8 0h2.4m.7 0h2.4m.8 0h2.4m.7 0h2.4m.8 0h2.4m.7 0h2.4m.8 0h2.4m.7 0h2.4m.8 0h2.4m.7 0h2.4m.8 0h2.4m.7 0h2.4m.8 0h2.4m.7 0h2.4m.8 0h2.4m.7 0h2.4m.8 0h2.4m.7 0h2.4m.8 0h2.4m.7 0h2.4m3.2 0h-2.4m5.5 0h-2.4m7.2 0h-4m-89.9 0v1.1m0 0H71m10 .8v-.8m0 0v-3.9m0 4.7h.7m0 0v-.8m0 0H81m.7 0v-3.9m85.1 4.7h-.8m-2.4 0h-.7m-2.4 0h-.8m-3.1 0h.7m-3.9 0h.8m-3.9 0h.7m-3.9 0h.8m-3.9 0h.7m-3.9 0h.8m-3.9 0h.7m-3.9 0h.8m-3.9 0h.7m-3.9 0h.8m-3.9 0h.7m-3.9 0h.8m-3.9 0h.7m-3.9 0h.8m-3.9 0h.7m-3.9 0h.8m-3.9 0h.7m-3.9 0h.8m-3.9 0h.7m-3.9 0h.8m-3.9 0h.7m-3.9 0h.8m-3.9 0h.7m-3.9 0h.8m-13.9-.8v11.9m2.5 0H71m2.5-6.9h100.8m0 6.9h2.5m0-11.9v11.9m-6-11.9h6m-6-1.1v1.1m-4.8.8v-.8m0-3.9v3.9m0 0h.8m0 0v-3.9m0 4.7v-.8m-3.2 0v-3.9m0 4.7v-.8m-.7 0h.7m-.7.8v-.8m0 0v-3.9m-2.4 3.9v-3.9m0 4.7v-.8m-.8 0h.8m-.8.8v-.8m0 0v-3.9m-5.5 3.9v-3.9m0 4.7v-.8m0 0h-.8m0 .8v-.8m0 0v-3.9m-2.4 0v3.9m0 .8v-.8m-.7.8v-.8m0-3.9v3.9m.7 0h-.7m-2.4 0v-3.9m0 4.7v-.8m0 0h-.8m0 .8v-.8m0 0v-3.9m-2.4 3.9v-3.9m0 4.7v-.8m0 0h-.7m0 .8v-.8m0 0v-3.9m-2.4 0v3.9m0 .8v-.8m-.8.8v-.8m0-3.9v3.9m.8 0h-.8m-2.4 0v-3.9m0 4.7v-.8m0 0h-.7m0 .8v-.8m0 0v-3.9m-2.4 3.9v-3.9m0 4.7v-.8m0 0h-.8m0 .8v-.8m0 0v-3.9m-2.4 3.9v-3.9m0 4.7v-.8m0 0h-.7m0 .8v-.8m0 0v-3.9m-2.4 3.9v-3.9m0 4.7v-.8m0 0h-.8m0 .8v-.8m0 0v-3.9m-2.4 3.9v-3.9m0 4.7v-.8m0 0h-.7m0 .8v-.8m0 0v-3.9m-2.4 3.9v-3.9m0 4.7v-.8m0 0h-.8m0 .8v-.8m0 0v-3.9m-2.4 0v3.9m0 .8v-.8m-.7.8v-.8m0-3.9v3.9m.7 0h-.7m-2.4 0v-3.9m0 4.7v-.8m0 0h-.8m0 .8v-.8m0 0v-3.9m-2.4 3.9v-3.9m0 4.7v-.8m0 0h-.7m0 .8v-.8m0 0v-3.9m-2.4 0v3.9m0 .8v-.8m-.8.8v-.8m0-3.9v3.9m.8 0h-.8m-2.4 0v-3.9m0 4.7v-.8m0 0h-.7m0 .8v-.8m0 0v-3.9m-2.4 3.9v-3.9m0 4.7v-.8m0 0h-.8m0 .8v-.8m0 0v-3.9m-2.4 0v3.9m0 .8v-.8m-.7.8v-.8m0-3.9v3.9m.7 0h-.7m-2.4 0v-3.9m0 4.7v-.8m0 0h-.8m0 .8v-.8m0 0v-3.9m-2.4 3.9v-3.9m0 4.7v-.8m0 0h-.7m0 .8v-.8m0 0v-3.9m-2.4 3.9v-3.9m0 4.7v-.8m0 0h-.8m0 .8v-.8m0 0v-3.9m-2.4 3.9v-3.9m0 4.7v-.8m0 0h-.7m0 .8v-.8m0 0v-3.9m-2.4 3.9v-3.9m0 4.7v-.8m0 0h-.8m0 .8v-.8m0 0v-3.9m90.2 24H73.5m100.8-1.3v1.3m-100.8-1.3v1.3m100.8-12.8v11.5M73.5 132.9h100.8m-100.8 0v11.5m0-13.8v2.3m100.8-2.3v2.3m-17.7-6.5v-.8m0 0v-3.9m.7 3.9v-3.9m0 4.7v-.8m0 0h-.7M78 124.3v-2.6m-1.3 3.8h-2.5m3.8-1.2l-.3.2m-.8.8l-.2.2m-9.5 17.7h5.9m.4 0h-.4m1.1-17.6v-3.9m95.6 2.6v-2.6m4.8 17.7v3.8m-7.8-33.8v-1.2m0 2.7v-1.5m0 1.9v-.4m13.8 32.3v-27.5m-9.6 9.8h2.6m3.6 13.9v-17.7m-7.4 2.6l.2.2m.8.8l.2.2m-95.5-14.2v4.4m98.1 9.9v-3.9m-106.4-6h8.3m-2.4 23.7v3.8m-2.5-3.8h2.5m-2.5 0v-17.7m16.7 25.9v-.4m0 0v-.2m0-1.3v1.3m.7-1.3v1.3m0 .2v-.2m0 .6v-.4m0 .4h-.7m15.7 0v-.4m0 0v-.2m0-1.3v1.3m.8-1.3v1.3m0 .2v-.2m0 .6v-.4m0 .4h-.8m15.8 0v-.4m0 0v-.2m0-1.3v1.3m.7-1.3v1.3m0 .2v-.2m0 .6v-.4m0 .4h-.7m15.7 0v-.4m0 0v-.2m0-1.3v1.3m.8-1.3v1.3m0 .2v-.2m0 .6v-.4m0 .4h-.8m15.8 0v-.4m0 0v-.2m0-1.3v1.3m.7-1.3v1.3m0 .2v-.2m0 .6v-.4m0 .4h-.7m-77.1-1.9v-2.5m.3 2.5h-.3m-6-2.5v-27.5m83.8-4.4v-.4m-.7.4v-.4m15.7.4v-.4m0-1.5v1.5m0-1.5v-1.2m.8 0h-.8m-12.6 3.1v-.4m0-1.5v1.5m0-1.5v-1.2m.8 1.2v1.5m0-1.5v-1.2m0 3.1v-.4m-.8-2.7h.8m-7.1 3.1v-.4m0-1.5v1.5m0-1.5v-1.2m.8 1.2v1.5m0-1.5v-1.2m0 3.1v-.4m-.8-2.7h.8m8.7 3.1v-.4m0-1.5v1.5m0-1.5v-1.2m.7 1.2v1.5m0-1.5v-1.2m0 3.1v-.4m-.7-2.7h.7m6.3 1.2v-1.2m0 1.2v1.5m0 .4v-.4m-.7-1.5v1.5m.7-2.7h-.7m0 1.2v-1.2m0 3.1v-.4m-2.4-1.5v-1.2m0 1.2v1.5m0 .4v-.4m-.8-1.5v1.5m.8-2.7h-.8m0 1.2v-1.2m0 3.1v-.4m-78.7.4v-.4m0-1.5v1.5m0-1.5v-1.2m.7 1.2v1.5m0-1.5v-1.2m0 3.1v-.4m-.7-2.7h.7m2.4 3.1v-.4m0-1.5v1.5m0-1.5v-1.2m.8 1.2v1.5m0-1.5v-1.2m0 3.1v-.4m-.8-2.7h.8m2.4 3.1v-.4m0-1.5v1.5m0-1.5v-1.2m.7 1.2v1.5m0-1.5v-1.2m0 3.1v-.4m-.7-2.7h.7m2.4 3.1v-.4m0-1.5v1.5m0-1.5v-1.2m.8 1.2v1.5m0-1.5v-1.2m0 3.1v-.4m-.8-2.7h.8m2.4 3.1v-.4m0-1.5v1.5m0-1.5v-1.2m.7 1.2v1.5m0-1.5v-1.2m0 3.1v-.4m-.7-2.7h.7m3.2 1.2v-1.2m0 1.2v1.5m0 .4v-.4m-.8-1.5v1.5m0-2.7h.8m-.8 1.2v-1.2m0 3.1v-.4m3.2.4v-.4m0-1.5v1.5m0-1.5v-1.2m.7 1.2v1.5m0-1.5v-1.2m0 3.1v-.4m-.7-2.7h.7m2.4 3.1v-.4m0-1.5v1.5m0-1.5v-1.2m.8 1.2v1.5m0-1.5v-1.2m0 3.1v-.4m-.8-2.7h.8m2.4 3.1v-.4m0-1.5v1.5m0-1.5v-1.2m.7 1.2v1.5m0-1.5v-1.2m0 3.1v-.4m-.7-2.7h.7m2.4 3.1v-.4m0-1.5v1.5m0-1.5v-1.2m.8 1.2v1.5m0-1.5v-1.2m0 3.1v-.4m-.8-2.7h.8m2.4 3.1v-.4m0-1.5v1.5m0-1.5v-1.2m.7 1.2v1.5m0-1.5v-1.2m0 3.1v-.4m-.7-2.7h.7m2.4 3.1v-.4m0-1.5v1.5m0-1.5v-1.2m.8 1.2v1.5m0-1.5v-1.2m0 3.1v-.4m-.8-2.7h.8m3.1 1.2v-1.2m0 1.2v1.5m0 .4v-.4m-.7-1.5v1.5m0-2.7h.7m-.7 1.2v-1.2m0 3.1v-.4m3.1.4v-.4m0-1.5v1.5m0-1.5v-1.2m.8 1.2v1.5m0-1.5v-1.2m0 3.1v-.4m-.8-2.7h.8m2.4 3.1v-.4m0-1.5v1.5m0-1.5v-1.2m.7 1.2v1.5m0-1.5v-1.2m0 3.1v-.4m-.7-2.7h.7m2.4 3.1v-.4m0-1.5v1.5m0-1.5v-1.2m.8 1.2v1.5m0-1.5v-1.2m0 3.1v-.4m-.8-2.7h.8m2.4 3.1v-.4m0-1.5v1.5m0-1.5v-1.2m.7 1.2v1.5m0-1.5v-1.2m0 3.1v-.4m-.7-2.7h.7m3.2 1.2v-1.2m0 1.2v1.5m0 .4v-.4m-.8-1.5v1.5m0-2.7h.8m-.8 1.2v-1.2m0 3.1v-.4m6.3.4v-.4m0-1.5v1.5m0-1.5v-1.2m.8 1.2v1.5m0-1.5v-1.2m0 3.1v-.4m-.8-2.7h.8m2.4 3.1v-.4m0-1.5v1.5m0-1.5v-1.2m.7 1.2v1.5m0-1.5v-1.2m0 3.1v-.4m-.7-2.7h.7m5.6 1.2v1.5m.7-1.5v1.5m23.3 32.3h.3m2.6-3.8h-2.6m-2.3-28.1v4.4m8.3 27.5h-6m6-27.5h-8.3m2.3 30v-2.5m-.3 2.5h.3"/><path clip-path="url(#b)" fill="none" stroke="#010202" stroke-width=".283" stroke-miterlimit="10" d="M67.7 20.9h-2.9"/><path clip-path="url(#b)" fill="none" stroke="#010202" stroke-width=".283" stroke-miterlimit="10" stroke-dasharray="1.645,3.289" d="M61.5 20.9h-3.2"/><path clip-path="url(#b)" fill="none" stroke="#010202" stroke-width=".283" stroke-miterlimit="10" stroke-dasharray="6.579,3.289,1.645,3.289" d="M56.6 20.9H43.5"/><path clip-path="url(#b)" fill="none" stroke="#010202" stroke-width=".283" stroke-miterlimit="10" d="M41.8 20.9H39m14.3 13.8v-2.8"/><path clip-path="url(#b)" fill="none" stroke="#010202" stroke-width=".283" stroke-miterlimit="10" stroke-dasharray="1.573,3.145" d="M53.3 28.7v-3.1"/><path clip-path="url(#b)" fill="none" stroke="#010202" stroke-width=".283" stroke-miterlimit="10" stroke-dasharray="6.291,3.145,1.573,3.145" d="M53.3 24V11.4"/><path clip-path="url(#b)" fill="none" stroke="#010202" stroke-width=".283" stroke-miterlimit="10" d="M53.3 9.9V7"/><path clip-path="url(#b)" fill="none" stroke="#010202" stroke-width=".283" stroke-miterlimit="10" stroke-dasharray="5.669,2.835,1.417,2.835" d="M124 7.2v166m83.5-82.6H40.6"/><path clip-path="url(#b)" fill="none" stroke="#010202" stroke-width=".283" stroke-linecap="round" stroke-linejoin="round" stroke-miterlimit="10" d="M43.9 20.9c0 5.2 4.2 9.4 9.4 9.4s9.4-4.2 9.4-9.4-4.2-9.5-9.4-9.5-9.4 4.2-9.4 9.5z"/><path clip-path="url(#b)" fill="none" stroke="#010202" stroke-width=".283" stroke-miterlimit="10" d="M208.7 20.9h-2.8"/><path clip-path="url(#b)" fill="none" stroke="#010202" stroke-width=".283" stroke-miterlimit="10" stroke-dasharray="1.645,3.289" d="M202.6 20.9h-3.3"/><path clip-path="url(#b)" fill="none" stroke="#010202" stroke-width=".283" stroke-miterlimit="10" stroke-dasharray="6.579,3.289,1.645,3.289" d="M197.6 20.9h-13.1"/><path clip-path="url(#b)" fill="none" stroke="#010202" stroke-width=".283" stroke-miterlimit="10" d="M182.8 20.9H180m14.3 13.8v-2.8"/><path clip-path="url(#b)" fill="none" stroke="#010202" stroke-width=".283" stroke-miterlimit="10" stroke-dasharray="1.573,3.145" d="M194.3 28.7v-3.1"/><path clip-path="url(#b)" fill="none" stroke="#010202" stroke-width=".283" stroke-miterlimit="10" stroke-dasharray="6.291,3.145,1.573,3.145" d="M194.3 24V11.4"/><path clip-path="url(#b)" fill="none" stroke="#010202" stroke-width=".283" stroke-miterlimit="10" d="M194.3 9.9V7"/><path clip-path="url(#b)" fill="none" stroke="#010202" stroke-width=".283" stroke-linecap="round" stroke-linejoin="round" stroke-miterlimit="10" d="M184.9 20.9c0 5.2 4.2 9.4 9.4 9.4s9.4-4.2 9.4-9.4-4.2-9.5-9.4-9.5-9.4 4.2-9.4 9.5z"/><path clip-path="url(#b)" fill="none" stroke="#010202" stroke-width=".283" stroke-miterlimit="10" d="M67.7 161.8h-2.9"/><path clip-path="url(#b)" fill="none" stroke="#010202" stroke-width=".283" stroke-miterlimit="10" stroke-dasharray="1.645,3.289" d="M61.5 161.8h-3.2"/><path clip-path="url(#b)" fill="none" stroke="#010202" stroke-width=".283" stroke-miterlimit="10" stroke-dasharray="6.579,3.289,1.645,3.289" d="M56.6 161.8H43.5"/><path clip-path="url(#b)" fill="none" stroke="#010202" stroke-width=".283" stroke-miterlimit="10" d="M41.8 161.8H39m14.3 13.8v-2.8"/><path clip-path="url(#b)" fill="none" stroke="#010202" stroke-width=".283" stroke-miterlimit="10" stroke-dasharray="1.573,3.145" d="M53.3 169.6v-3.1"/><path clip-path="url(#b)" fill="none" stroke="#010202" stroke-width=".283" stroke-miterlimit="10" stroke-dasharray="6.291,3.145,1.573,3.145" d="M53.3 164.9v-12.6"/><path clip-path="url(#b)" fill="none" stroke="#010202" stroke-width=".283" stroke-miterlimit="10" d="M53.3 150.8v-2.9"/><path clip-path="url(#b)" fill="none" stroke="#010202" stroke-width=".283" stroke-linecap="round" stroke-linejoin="round" stroke-miterlimit="10" d="M43.9 161.8c0 5.2 4.2 9.4 9.4 9.4s9.4-4.2 9.4-9.4-4.2-9.4-9.4-9.4c-5.2-.1-9.4 4.2-9.4 9.4z"/><path clip-path="url(#b)" fill="none" stroke="#010202" stroke-width=".283" stroke-miterlimit="10" d="M208.7 161.8h-2.8"/><path clip-path="url(#b)" fill="none" stroke="#010202" stroke-width=".283" stroke-miterlimit="10" stroke-dasharray="1.645,3.289" d="M202.6 161.8h-3.3"/><path clip-path="url(#b)" fill="none" stroke="#010202" stroke-width=".283" stroke-miterlimit="10" stroke-dasharray="6.579,3.289,1.645,3.289" d="M197.6 161.8h-13.1"/><path clip-path="url(#b)" fill="none" stroke="#010202" stroke-width=".283" stroke-miterlimit="10" d="M182.8 161.8H180m14.3 13.8v-2.8"/><path clip-path="url(#b)" fill="none" stroke="#010202" stroke-width=".283" stroke-miterlimit="10" stroke-dasharray="1.573,3.145" d="M194.3 169.6v-3.1"/><path clip-path="url(#b)" fill="none" stroke="#010202" stroke-width=".283" stroke-miterlimit="10" stroke-dasharray="6.291,3.145,1.573,3.145" d="M194.3 164.9v-12.6"/><path clip-path="url(#b)" fill="none" stroke="#010202" stroke-width=".283" stroke-miterlimit="10" d="M194.3 150.8v-2.9"/><path clip-path="url(#b)" fill="none" stroke="#010202" stroke-width=".283" stroke-linecap="round" stroke-linejoin="round" stroke-miterlimit="10" d="M8.9 237.3H3.8m143.9-30.4h28.2m-151 1.5h28.2m134.8 27.4h9.3M57.5 271.2H20.8m167.1-54.8v47.1m-53-47.1h53m-175.7 1.5h53.6m-56.9 4.5v37.3m179-44.4v1.1m1.6 27v15.8M3.7 244.9h5.2m179 14.3h1.6m7.5-15.8h-7.5m1.8 15.8h-1.8m-.3 2.6v-2.6"/><defs><path id="c" d="M0 0h212.6v283.5H0z"/></defs><clipPath id="d"><use xlink:href="#c" overflow="visible"/></clipPath><path clip-path="url(#d)" fill="#FFF" d="M157.5 136.2h10.9c.8 0 1.5.7 1.5 1.5v2.4c0 .8-.7 1.5-1.5 1.5h-10.9c-.8 0-1.5-.7-1.5-1.5v-2.4c0-.8.7-1.5 1.5-1.5"/><path clip-path="url(#d)" fill="none" stroke="#000" stroke-width=".709" stroke-miterlimit="10" d="M157.5 136.2h10.9c.8 0 1.5.7 1.5 1.5v2.4c0 .8-.7 1.5-1.5 1.5h-10.9c-.8 0-1.5-.7-1.5-1.5v-2.4c0-.8.7-1.5 1.5-1.5z"/><path clip-path="url(#d)" fill="#FFF" d="M137.7 136.2h10.9c.8 0 1.5.7 1.5 1.5v2.4c0 .8-.7 1.5-1.5 1.5h-10.9c-.8 0-1.5-.7-1.5-1.5v-2.4c0-.8.7-1.5 1.5-1.5"/><path clip-path="url(#d)" fill="none" stroke="#000" stroke-width=".709" stroke-miterlimit="10" d="M137.7 136.2h10.9c.8 0 1.5.7 1.5 1.5v2.4c0 .8-.7 1.5-1.5 1.5h-10.9c-.8 0-1.5-.7-1.5-1.5v-2.4c0-.8.7-1.5 1.5-1.5z"/><path clip-path="url(#d)" fill="#FFF" d="M98 136.2h10.9c.8 0 1.5.7 1.5 1.5v2.4c0 .8-.7 1.5-1.5 1.5H98c-.8 0-1.5-.7-1.5-1.5v-2.4c0-.8.7-1.5 1.5-1.5"/><path clip-path="url(#d)" fill="none" stroke="#000" stroke-width=".709" stroke-miterlimit="10" d="M98 136.2h10.9c.8 0 1.5.7 1.5 1.5v2.4c0 .8-.7 1.5-1.5 1.5H98c-.8 0-1.5-.7-1.5-1.5v-2.4c0-.8.7-1.5 1.5-1.5z"/><path clip-path="url(#d)" fill="#FFF" d="M78.2 136.2h10.9c.8 0 1.5.7 1.5 1.5v2.4c0 .8-.7 1.5-1.5 1.5H78.2c-.8 0-1.5-.7-1.5-1.5v-2.4c-.1-.8.6-1.5 1.5-1.5"/><path clip-path="url(#d)" fill="none" stroke="#000" stroke-width=".709" stroke-miterlimit="10" d="M78.2 136.2h10.9c.8 0 1.5.7 1.5 1.5v2.4c0 .8-.7 1.5-1.5 1.5H78.2c-.8 0-1.5-.7-1.5-1.5v-2.4c-.1-.8.6-1.5 1.5-1.5z"/><path clip-path="url(#d)" fill="#FFF" d="M117.9 136.2h10.9c.8 0 1.5.7 1.5 1.5v2.4c0 .8-.7 1.5-1.5 1.5h-10.9c-.8 0-1.5-.7-1.5-1.5v-2.4c-.1-.8.6-1.5 1.5-1.5"/><path clip-path="url(#d)" fill="none" stroke="#000" stroke-width=".709" stroke-miterlimit="10" d="M117.9 136.2h10.9c.8 0 1.5.7 1.5 1.5v2.4c0 .8-.7 1.5-1.5 1.5h-10.9c-.8 0-1.5-.7-1.5-1.5v-2.4c-.1-.8.6-1.5 1.5-1.5z"/><text transform="translate(163.627 140.484)" font-family="Helvetica,Arial,sans-serif" font-size="5.139">28</text><defs><path id="e" d="M0 0h212.6v283.5H0z"/></defs><clipPath id="f"><use xlink:href="#e" overflow="visible"/></clipPath><path clip-path="url(#f)" fill="#FFF" d="M127.8 230.1h36c3.5 0 6.3 2.8 6.3 6.3v10.1c0 3.5-2.8 6.3-6.3 6.3h-34.6"/><path clip-path="url(#f)" fill="none" stroke="#000" stroke-width=".709" stroke-miterlimit="10" d="M127.8 230.1h36c3.5 0 6.3 2.8 6.3 6.3v10.1c0 3.5-2.8 6.3-6.3 6.3h-34.6"/><path clip-path="url(#f)" fill="#FFF" d="M71.7 254.4H28.4c-3.5 0-6.3-2.8-6.3-6.3V238c0-3.5 2.8-6.3 6.3-6.3h44.8"/><path clip-path="url(#f)" fill="none" stroke="#000" stroke-width=".709" stroke-miterlimit="10" d="M71.7 254.4H28.4c-3.5 0-6.3-2.8-6.3-6.3V238c0-3.5 2.8-6.3 6.3-6.3h44.8"/><text transform="translate(143.089 249.022)" font-family="Helvetica,Arial,sans-serif" font-size="21.415">28</text><defs><path id="g" d="M0 0h212.6v283.5H0z"/></defs><clipPath id="h"><use xlink:href="#g" overflow="visible"/></clipPath><path clip-path="url(#h)" d="M88.2 137.2h1.5v.7h-1.2v.6h.7s.1 0 .1.1l.1.1v1.5h-1.7l-.1-.1-.1-.1-.2-.2-.1-.1-.1-.1-.1-.1-.1-.1-.1-.1-.1-.1-.1-.1-.1-.1-.1-.1-.1-.1-.1-.1-.1-.1-.1-.1v-.7h.5v-.6h-1v2.1h.4v.7h-1.1v-1.8H84v1.5h-1v.3h.3v-2.2H83v-.7h1v1.3h.8v-1.3h2l.1.1v1l.1.1c.1 0 .1.1.2.2l.2.2.1.1.1.1.1.1.1.1.1.1.1.1.1.1h1v-.9h-.9l-.1-.1v-1.1l.1-.1h.1-.1M72.7 243.9c-.1 0-.2-.1-.3-.1h-.1c-.1 0-.1-.1-.2-.1s-.1 0-.2-.1l-.1-.1c-.1 0-.1-.1-.2-.1-.1-.1-.2-.2-.3-.4v-.1c0-.1-.1-.1-.1-.2-.1-.1-.1-.2-.2-.3 0-.1-.1-.1-.1-.2s-.1-.1-.1-.2v-4.3c0-.1 0-.1.1-.2 0-.1.1-.2.1-.2s0-.1.1-.1c0-.1.1-.1.1-.2s.1-.1.1-.1l.1-.1.3-.3s1.3-.9 2-.9.9 4.4.9 5.1-.2 3.4-.4 3.4c-.3-.2-1.5-.2-1.5-.2m-.4 6.6h-2.2c-.1-.1-.2-.2-.4-.3 0 0 0-.1-.1-.1s-.1-.1-.2-.1l-.4-.4-.7-.7c-.1-.1-.2-.2-.4-.3l-.3-.3-.3-.3c-.1-.1-.2-.3-.4-.4l-.3-.3-.3-.3-.1-.1-.1-.1-.3-.3-.5-.5-.5-.5-.5-.5c-.1-.1-.2-.3-.4-.4l-.3-.3-.3-.3v-3h2v-2.6h-4v9.1h1.6v2.9h-4.4v-6.6H55v6.4h-4.5v-2.9h1.4v-9h-1.6v-2.9h4.5v5.4h3.5v-5.2h8.3c.1 0 .1 0 .2.1.1 0 .2.1.3.1.1 0 .1.1.2.1s.2.1.2.1h.2c.1.1.3.2.3.4l.1.1c0 .1.1.1.1.2v.1s.1.1.1.2.1.2.1.3v4.4s0 .1-.1.1v.2c-.1.1-.1.2-.1.2 0 .1-.1.1-.1.2l-.2.2-.2.2-.1.1c-.1 0-.1.1-.2.1l-.1.1.3.3.6.6c.2.2.4.4.6.7l.3.3.4.4.3.3.3.3.4.4.3.3c.1.1.2.3.4.4l.2.2h1.3"/><text transform="translate(78.158 140.02)" font-family="Helvetica,Arial,sans-serif" font-size="3.517">▲</text><text transform="translate(28.448 247.913)" font-family="Helvetica,Arial,sans-serif" font-size="14.653">▲</text><defs><path id="i" d="M0 0h212.6v283.5H0z"/></defs><clipPath id="j"><use xlink:href="#i" overflow="visible"/></clipPath><path clip-path="url(#j)" fill="#010202" d="M168 129.2c5.1 0 9.2 4.1 9.2 9.2s-4.1 9.2-9.2 9.2-9.2-4.1-9.2-9.2 4.1-9.2 9.2-9.2m0 17c4.3 0 7.8-3.5 7.8-7.8s-3.5-7.8-7.8-7.8-7.8 3.5-7.8 7.8 3.5 7.8 7.8 7.8m-87.3-17c5.1 0 9.2 4.1 9.2 9.2s-4.1 9.2-9.2 9.2-9.2-4.1-9.2-9.2 4.1-9.2 9.2-9.2m0 17c4.3 0 7.8-3.5 7.8-7.8s-3.5-7.8-7.8-7.8-7.8 3.5-7.8 7.8 3.5 7.8 7.8 7.8m81.1 57.1c19.9 0 36.1 16.2 36.1 36.1 0 19.9-16.2 36.1-36.1 36.1-19.9 0-36.1-16.2-36.1-36.1 0-19.9 16.2-36.1 36.1-36.1m0 70.9c19.1 0 34.7-15.6 34.7-34.7s-15.6-34.7-34.7-34.7-34.7 15.6-34.7 34.7 15.6 34.7 34.7 34.7M39 204.8c19.9 0 36.1 16.2 36.1 36.1 0 19.9-16.2 36.1-36.1 36.1-19.9 0-36.1-16.2-36.1-36.1C2.8 221 19 204.8 39 204.8m0 70.9c19.1 0 34.7-15.6 34.7-34.7S58.1 206.3 39 206.3 4.3 221.9 4.3 241s15.5 34.7 34.7 34.7"/><path clip-path="url(#j)" fill="none" stroke="#010202" stroke-width=".5" stroke-linecap="round" stroke-linejoin="round" stroke-miterlimit="10" d="M176.9 137.2l19.9 94.2M159.7 135l-31.6 92.1m-38.5-87.5L74.4 246.4m-.6-113.7L11 218.6"/></svg>