<svg version="1.1" id="Layer_1" xmlns="http://www.w3.org/2000/svg" x="0" y="0" viewBox="0 0 954 432" xml:space="preserve"><style>.st1{stroke:#000;stroke-width:.283}.st1,.st12,.st2,.st3{fill:none;stroke-miterlimit:10}.st2{stroke-linecap:round;stroke-linejoin:round;stroke:#000;stroke-width:.283}.st12,.st3{stroke-dasharray:5.6693,2.8347,1.4173,2.8347}.st3{stroke:#fff;stroke-width:1.417}.st12{stroke:#000;stroke-width:.283}.st13{fill-rule:evenodd;clip-rule:evenodd;fill:#1a171b}.st14{font-family:Helvetica,Arial,sans-serif}.st15{font-size:20.079px}.st16{font-family:Helvetica,Arial,sans-serif}.st17{fill:#1a1a18}.st18{font-size:13.27px}</style><path d="M221.5 254.6v-1.7m0 1.7v1.9m0 .6v-.6m-1 .6v-.6m0-1.9v1.9m0-1.9v-1.7m0 0h1m-84.1 4.2h129.3m-29.4-4.2h1m0 1.7v-1.7m-1 1.7v-1.7m-106.5 18h142.5m-134 3.8h5.4m1 0h3.2m1 0h3.2m1 0h3.2m1.1 0h3.2m1 0h3.2m1 0h3.2m1 0h3.2m1 0h3.2m1 0h3.2m1 0h3.2m1 0h3.2m1 0h3.2m1 0h3.2m1 0h3.2m1.1 0h3.2m1 0h3.2m1 0h3.2m1 0h3.2m1 0h3.2m1 0h3.2m1 0h3.2m1 0h3.2m1 0h3.2m1 0h3.2m1.1 0h3.1m4.3 0H251m7.4 0h-3.2m9.6 0h-5.4m-120.1 0v1.5m0 0h-8m13.4 1v-1m0 0v-5.3m0 6.3h1m0 0v-1m0 0h-1m1 0v-5.3m113.7 6.3h-1m-3.2 0h-1m-3.2 0h-1.1m-4.2 0h1.1m-5.3 0h1m-5.2 0h1m-5.2 0h1m-5.2 0h1m-5.2 0h1m-5.2 0h1m-5.2 0h1m-5.2 0h1m-5.2 0h1m-5.3 0h1.1m-5.3 0h1m-5.2 0h1m-5.2 0h1m-5.2 0h1m-5.2 0h1m-5.2 0h1m-5.2 0h1m-5.2 0h1m-5.2 0h1m-5.2 0h1m-5.3 0h1.1m-5.3 0h1m-5.2 0h1m-18.6-1v15.9m3.4 0h-3.4m3.4-9.3h134.7m0 9.3h3.4m0-15.9v15.9m-8-15.9h8m-8-1.5v1.5m-6.4 1v-1m0-5.3v5.3m0 0h1m0 0v-5.3m0 6.3v-1m-4.2 0v-5.3m0 6.3v-1m-1 0h1m-1 1v-1m0 0v-5.3m-3.2 5.3v-5.3m0 6.3v-1m-1.1 0h1.1m-1.1 1v-1m0 0v-5.3m-7.4 5.3v-5.3m0 6.3v-1m0 0h-1m0 1v-1m0 0v-5.3m-3.2 0v5.3m0 1v-1m-1 1v-1m0-5.3v5.3m1 0h-1m-3.2 0v-5.3m0 6.3v-1m0 0h-1m0 1v-1m0 0v-5.3m-3.2 5.3v-5.3m0 6.3v-1m0 0h-1m0 1v-1m0 0v-5.3m-3.2 0v5.3m0 1v-1m-1 1v-1m0-5.3v5.3m1 0h-1m-3.2 0v-5.3m0 6.3v-1m0 0h-1m0 1v-1m0 0v-5.3m-3.2 5.3v-5.3m0 6.3v-1m0 0h-1m0 1v-1m0 0v-5.3m-3.2 5.3v-5.3m0 6.3v-1m0 0h-1m0 1v-1m0 0v-5.3m-3.2 5.3v-5.3m0 6.3v-1m0 0h-1m0 1v-1m0 0v-5.3m-3.2 5.3v-5.3m0 6.3v-1m0 0h-1.1m0 1v-1m0 0v-5.3m-3.2 5.3v-5.3m0 6.3v-1m0 0h-1m0 1v-1m0 0v-5.3m-3.2 0v5.3m0 1v-1m-1 1v-1m0-5.3v5.3m1 0h-1m-3.2 0v-5.3m0 6.3v-1m0 0h-1m0 1v-1m0 0v-5.3m-3.2 5.3v-5.3m0 6.3v-1m0 0h-1m0 1v-1m0 0v-5.3m-3.2 0v5.3m0 1v-1m-1 1v-1m0-5.3v5.3m1 0h-1m-3.2 0v-5.3m0 6.3v-1m0 0h-1m0 1v-1m0 0v-5.3m-3.2 5.3v-5.3m0 6.3v-1m0 0h-1m0 1v-1m0 0v-5.3m-3.2 0v5.3m0 1v-1m-1 1v-1m0-5.3v5.3m1 0h-1m-3.2 0v-5.3m0 6.3v-1m0 0h-1m0 1v-1m0 0v-5.3m-3.2 5.3v-5.3m0 6.3v-1m0 0h-1m0 1v-1m0 0v-5.3m-3.2 5.3v-5.3m0 6.3v-1m0 0h-1.1m0 1v-1m0 0v-5.3m-3.2 5.3v-5.3m0 6.3v-1m0 0h-1m0 1v-1m0 0v-5.3m-3.2 5.3v-5.3m0 6.3v-1m0 0h-1m0 1v-1m0 0v-5.3M269.4 303H134.7m134.7-1.7v1.7m-134.7-1.7v1.7m134.7-17.1v15.4m-134.7-15.4h134.7m-134.7 0v15.4m0-18.5v3.1m134.7-3.1v3.1m-23.7-8.7v-1m0 0v-5.3m1.1 5.3v-5.3m0 6.3v-1m0 0h-1.1m-105-1.9v-3.4M139 276h-3.4m5.1-1.7l-.3.4m-1.1 1l-.3.3m-12.7 23.6h7.9m.5 0h-.5m1.4-23.4v-5.3m127.8 3.4v-3.4m6.5 23.6v5.1m-10.5-45v-1.7m0 3.6v-1.9m0 2.5v-.6m18.4 43.1V263m-12.7 13h3.3m4.9 18.5v-23.6m-9.9 3.4l.3.4m1.1 1l.3.3m-127.7-18.9v5.9m131 13.2v-5.3M126.3 263h11.1m-3.2 31.5v5.1m-3.4-5.1h3.4m-3.4 0v-23.6m22.3 34.6v-.4m0 0v-.4m0-1.7v1.7m1-1.7v1.7m0 .4v-.4m0 .8v-.4m0 .4h-1m21.1 0v-.4m0 0v-.4m0-1.7v1.7m1-1.7v1.7m0 .4v-.4m0 .8v-.4m0 .4h-1m21 0v-.4m0 0v-.4m0-1.7v1.7m1-1.7v1.7m0 .4v-.4m0 .8v-.4m0 .4h-1m21.1 0v-.4m0 0v-.4m0-1.7v1.7m1-1.7v1.7m0 .4v-.4m0 .8v-.4m0 .4h-1m21 0v-.4m0 0v-.4m0-1.7v1.7m1-1.7v1.7m0 .4v-.4m0 .8v-.4m0 .4h-1m-103-2.5v-3.4m.4 3.4h-.4m-8-3.4V263m112-5.9v-.6m-1 .6v-.6m21.1.6v-.6m0-1.9v1.9m0-1.9v-1.7m1 0h-1m-16.9 4.2v-.6m0-1.9v1.9m0-1.9v-1.7m1 1.7v1.9m0-1.9v-1.7m0 4.2v-.6m-1-3.6h1m-9.4 4.2v-.6m0-1.9v1.9m0-1.9v-1.7m1 1.7v1.9m0-1.9v-1.7m0 4.2v-.6m-1-3.6h1m11.6 4.2v-.6m0-1.9v1.9m0-1.9v-1.7m1.1 1.7v1.9m0-1.9v-1.7m0 4.2v-.6m-1.1-3.6h1.1m8.4 1.7v-1.7m0 1.7v1.9m0 .6v-.6m-1-1.9v1.9m1-3.6h-1m0 1.7v-1.7m0 4.2v-.6m-3.2-1.9v-1.7m0 1.7v1.9m0 .6v-.6m-1.1-1.9v1.9m1.1-3.6h-1.1m0 1.7v-1.7m0 4.2v-.6m-105.2.6v-.6m0-1.9v1.9m0-1.9v-1.7m1 1.7v1.9m0-1.9v-1.7m0 4.2v-.6m-1-3.6h1m3.2 4.2v-.6m0-1.9v1.9m0-1.9v-1.7m1 1.7v1.9m0-1.9v-1.7m0 4.2v-.6m-1-3.6h1m3.2 4.2v-.6m0-1.9v1.9m0-1.9v-1.7m1 1.7v1.9m0-1.9v-1.7m0 4.2v-.6m-1-3.6h1m3.2 4.2v-.6m0-1.9v1.9m0-1.9v-1.7m1.1 1.7v1.9m0-1.9v-1.7m0 4.2v-.6m-1.1-3.6h1.1m3.2 4.2v-.6m0-1.9v1.9m0-1.9v-1.7m1 1.7v1.9m0-1.9v-1.7m0 4.2v-.6m-1-3.6h1m4.2 1.7v-1.7m0 1.7v1.9m0 .6v-.6m-1-1.9v1.9m0-3.6h1m-1 1.7v-1.7m0 4.2v-.6m4.2.6v-.6m0-1.9v1.9m0-1.9v-1.7m1 1.7v1.9m0-1.9v-1.7m0 4.2v-.6m-1-3.6h1m3.2 4.2v-.6m0-1.9v1.9m0-1.9v-1.7m1 1.7v1.9m0-1.9v-1.7m0 4.2v-.6m-1-3.6h1m3.2 4.2v-.6m0-1.9v1.9m0-1.9v-1.7m1 1.7v1.9m0-1.9v-1.7m0 4.2v-.6m-1-3.6h1m3.2 4.2v-.6m0-1.9v1.9m0-1.9v-1.7m1 1.7v1.9m0-1.9v-1.7m0 4.2v-.6m-1-3.6h1m3.2 4.2v-.6m0-1.9v1.9m0-1.9v-1.7m1 1.7v1.9m0-1.9v-1.7m0 4.2v-.6m-1-3.6h1m3.2 4.2v-.6m0-1.9v1.9m0-1.9v-1.7m1 1.7v1.9m0-1.9v-1.7m0 4.2v-.6m-1-3.6h1m4.2 1.7v-1.7m0 1.7v1.9m0 .6v-.6m-1-1.9v1.9m0-3.6h1m-1 1.7v-1.7m0 4.2v-.6m4.2.6v-.6m0-1.9v1.9m0-1.9v-1.7m1 1.7v1.9m0-1.9v-1.7m0 4.2v-.6m-1-3.6h1m3.2 4.2v-.6m0-1.9v1.9m0-1.9v-1.7m1.1 1.7v1.9m0-1.9v-1.7m0 4.2v-.6m-1.1-3.6h1.1m3.2 4.2v-.6m0-1.9v1.9m0-1.9v-1.7m1 1.7v1.9m0-1.9v-1.7m0 4.2v-.6m-1-3.6h1m3.2 4.2v-.6m0-1.9v1.9m0-1.9v-1.7m1 1.7v1.9m0-1.9v-1.7m0 4.2v-.6m-1-3.6h1m4.2 1.7v-1.7m0 1.7v1.9m0 .6v-.6m-1-1.9v1.9m0-3.6h1m-1 1.7v-1.7m0 4.2v-.6m8.4.6v-.6m0-1.9v1.9m0-1.9v-1.7m1 1.7v1.9m0-1.9v-1.7m0 4.2v-.6m-1-3.6h1m3.2 4.2v-.6m0-1.9v1.9m0-1.9v-1.7m1 1.7v1.9m0-1.9v-1.7m0 4.2v-.6m-1-3.6h1m7.4 1.7v1.9m1-1.9v1.9m31.1 43.1h.5m3.4-5.1h-3.4m-3.2-37.4v5.9m11.1 36.6h-7.9m7.9-36.6h-11.1m3.1 40v-3.4m-.4 3.4h.4m-12.2-71v9.3m0 0h-21.9m0 0V232m0 0h21.9M97.2 260.7h21.9m0 0v17.6m0 0H97.2m0 0v-17.6m158.9-89.5h4.7m0 0v8.8m0 0h-4.7m0 0v-8.8m19 49.3v4.6m0 0h-8.9m0 0v-4.6m0 0h8.9m30.7 18.1v4.6m0 0H297m0 0v-4.6m0 0h8.8m-49.7-82.1h4.7m0 0v8.8m0 0h-4.7m0 0v-8.8m-8.8-26.1v-4.7m0 0h8.8m0 0v4.7m0 0h-8.8m-146.9 61v-4.6m0 0h8.8m0 0v4.6m0 0h-8.8m109-53.9v-4.6m0 0h8.9m0 0v4.6m0 0h-8.9m-2.3 94.5v9.3m0 0h-21.9m0 0V232m0 0h21.9m-44-21.6v-4.7m0 0h8.9m0 0v4.7m0 0h-8.9M134.9 151v4.6m0 0h-8.8m0 0V151m0 0h8.8m33.3 8.4h4.6m0 0v8.9m0 0h-4.6m0 0v-8.9m-11.8-.8v4.6m0 0h-8.9m0 0v-4.6m0 0h8.9m109.8 45V199m0 0h8.9m0 0v4.6m0 0h-8.9M232.4 232v9.3m0 0h-21.9m0 0V232m0 0h21.9m75.3 51.8v5.9m0 0h-21.9m0 0v-5.9m0 0h21.9m-124.8-58.3v-4.6m0 0h8.8m0 0v4.6m0 0h-8.8m-43.4-71.1v-22.3m0 0h18.1m0 0v22.3m0 0h-18.1m-39.1 44.2v-4.7m0 0h8.8m0 0v4.7m0 0h-8.8m43.1 32.4v12.2m0 0H125m0 0V231m0 0h18.5m13.9-64.2v42.9m0 0h-42.9m0 0v-42.9m0 0h42.9m41.5 51.6v-4.7m0 0h8.8m0 0v4.7m0 0h-8.8m29.5 0v-4.7m0 0h8.8m0 0v4.7m0 0h-8.8m-14.8 7.1v-4.6m0 0h8.9m0 0v4.6m0 0h-8.9m-103.1-56.4h-4.6m0 0v-8.8m0 0h4.6m0 0v8.8M271.1 315v5.8m0 0h-16m0 0V315m0 0h16m-158.9-89.1h-4.6m0 0v-8.8m0 0h4.6m0 0v8.8m67.8-16.8h-4.7m0 0v-8.8m0 0h4.7m0 0v8.8m127.9 65.2v4.7m0 0h-8.8m0 0v-4.7m0 0h8.8M105 283.6v4.6m0 0h-8.8m0 0v-4.6m0 0h8.8m-.8-57.7h-4.6m0 0v-8.8m0 0h4.6m0 0v8.8m14.5 5.1v12.2m0 0h-18.5m0 0V231m0 0h18.5m-9 57.2v-4.6m0 0h8.8m0 0v4.6m0 0h-8.8m74.9-69.8v-4.7m0 0h8.8m0 0v4.7m0 0h-8.8m18.9-85.5v4.6m0 0h-8.8m0 0v-4.6m0 0h8.8m62.7 77.9v-4.7m0 0h8.9m0 0v4.7m0 0h-8.9m-100.6-8.9H161m0 0v-8.8m0 0h4.6m0 0v8.8m30.3 23.6v-4.6m0 0h8.9m0 0v4.6m0 0h-8.9M161 159.4h4.6m0 0v8.9m0 0H161m0 0v-8.9m-12.2 59v-4.7m0 0h8.8m0 0v4.7m0 0h-8.8m49.5-95.8v5.9m0 0h-16m0 0v-5.9m0 0h16m-55.8 4.4v-4.6m0 0h8.8m0 0v4.6m0 0h-8.8m104.8 10.5v-4.6m0 0h8.8m0 0v4.6m0 0h-8.8m-144 32h-5.4m0 0v-9.7m0 0h5.4m0 0v9.7m66.5 57.7v-4.6m0 0h8.9m0 0v4.6m0 0h-8.9m-1.6-85h4.6m0 0v8.8m0 0h-4.6m0 0v-8.8m-7.2 0h4.6m0 0v8.8m0 0H161m0 0v-8.8m-18.7 187.9c0-2.3-1.9-4.2-4.2-4.2s-4.2 1.9-4.2 4.2c0 2.3 1.9 4.2 4.2 4.2s4.2-1.9 4.2-4.2h0zm-11.2-191.7h4.7m0 0v8.8m0 0h-4.7m0 0v-8.8m-2.5 20.2v4.6m0 0h-8.8m0 0v-4.6m0 0h8.8m58.1-25.7v4.6m0 0h-8.9m0 0v-4.6m0 0h8.9m41.7 92.6v-4.6m0 0h8.8m0 0v4.6m0 0h-8.8m-92.6-91.8h-4.7m0 0v-8.8m0 0h4.7m0 0v8.8m-37.5 40.5h4.6m0 0v8.8m0 0h-4.6m0 0v-8.8m2.1 38.7v-4.6m0 0h8.8m0 0v4.6m0 0h-8.8m151.5.8v4.7m0 0h-8.8m0 0v-4.7m0 0h8.8m-79.1-11.8h-4.6m0 0v-8.8m0 0h4.6m0 0v8.8m-52.6 24h-4.7m0 0v-8.8m0 0h4.7m0 0v8.8M180 151h-4.7m0 0v-8.8m0 0h4.7m0 0v8.8m29.4-20.6v-4.7m0 0h8.9m0 0v4.7m0 0h-8.9m-25.9 79.7v-69m0 0h69.1m0 0v69m0 0h-69.1m108.4 28.5v4.6m0 0h-8.8m0 0v-4.6m0 0h8.8m-67.8-108.2v-4.7m0 0h8.9m0 0v4.7m0 0h-8.9m32 11.3h4.7m0 0v8.9m0 0h-4.7m0 0v-8.9M285.2 279v-4.7m0 0h8.8m0 0v4.7m0 0h-8.8m-115.4-59.4V215m0 0h8.9m0 0v4.6m0 0h-8.9m5.5-33.2h4.7m0 0v8.8m0 0h-4.7m0 0v-8.8m38.3 32v-4.7m0 0h8.9m0 0v4.7m0 0h-8.9m-111.4 77.3c0-1.9-1.5-3.4-3.4-3.4s-3.4 1.5-3.4 3.4 1.5 3.4 3.4 3.4c1.9-.1 3.4-1.6 3.4-3.4h0zm200-.9v5.8m0 0h-16m0 0v-5.8m0 0h16M133.6 163.2v-4.6m0 0h8.9m0 0v4.6m0 0h-8.9m22.9 76.6h-8.2m0 0v-14.7m0 0h8.2m0 0v14.7m25.3-7.8v9.3m0 0H160m0 0V232m0 0h21.8m-38.3-16.2V228m0 0H125m0 0v-12.2m0 0h18.5m-42.7 38.8v-8m0 0h14.7m0 0v8m0 0h-14.7m123.3-117.1v-4.6m0 0h8.9m0 0v4.6m0 0h-8.9m39.2 33.7h4.6m0 0v8.8m0 0h-4.6m0 0v-8.8m-7.2 29.9h4.7m0 0v8.8m0 0h-4.7m0 0v-8.8m-67.9 113.4v5.9m0 0h-58.1m0 0v-5.9m0 0h58.1m-82.3-140.3h4.6m0 0v8.8m0 0h-4.6m0 0v-8.8m59.7 11.3H161m0 0v-8.8m0 0h4.6m0 0v8.8m125.3 85.7v-25.3m0 0h11.7m0 0v25.3m0 0h-11.7m-134.7-144v-5m0 0h9.2m0 0v5m0 0h-9.2m5.2 88.6h4.7m0 0v8.9m0 0h-4.7m0 0v-8.9m101.9-59.3h4.6m0 0v8.8m0 0h-4.6m0 0v-8.8m-88 2.9h4.7m0 0v8.9m0 0h-4.7m0 0v-8.9m-74.9 46.3v-4.6m0 0h8.8m0 0v4.6m0 0h-8.8m170.7-76.8c0-2.3-1.9-4.2-4.2-4.2-2.3 0-4.2 1.9-4.2 4.2 0 2.3 1.9 4.2 4.2 4.2 2.3 0 4.2-1.9 4.2-4.2h0zm4 84.4v4.6m0 0h-8.9m0 0v-4.6m0 0h8.9m-19-27.4h4.7m0 0v8.9m0 0h-4.7m0 0v-8.9m52.9-50.7c0-7-5.7-12.6-12.6-12.6-7 0-12.6 5.7-12.6 12.6 0 7 5.7 12.6 12.6 12.6s12.6-5.6 12.6-12.6h0zm0 188.6c0-7-5.7-12.6-12.6-12.6-7 0-12.6 5.7-12.6 12.6 0 7 5.7 12.6 12.6 12.6s12.6-5.6 12.6-12.6h0zm-188.6 0c0-7-5.7-12.6-12.6-12.6-7 0-12.6 5.7-12.6 12.6 0 7 5.7 12.6 12.6 12.6 6.9 0 12.6-5.6 12.6-12.6h0zm0-188.6c0-7-5.7-12.6-12.6-12.6-7 0-12.6 5.7-12.6 12.6 0 7 5.7 12.6 12.6 12.6 6.9 0 12.6-5.6 12.6-12.6h0zM240 116.5c.3 2.3 2.5 3.9 4.8 3.5 1.8-.3 3.3-1.7 3.5-3.5m-8.6-.3l.3.3m-.3-.3c-.2-.2-.5-.3-.9-.3m-137.8 0h137.8m-137.8 0c-7 0-12.6 5.7-12.6 12.6m0 202v-202m0 202c0 7 5.7 12.6 12.6 12.6m78.9.1H101m78.9 0c.3 0 .6-.1.9-.3m.2-.4l-.3.3m8.7-.3c-.3-2.3-2.5-3.9-4.8-3.5-1.8.3-3.3 1.7-3.5 3.5m8.6.3l-.3-.3m.3.3c.2.2.5.3.9.3m112.5.1H190.6m112.5 0c7 0 12.6-5.7 12.6-12.6m0-202.1v202m0-202c0-7-5.7-12.6-12.6-12.6m-53.6 0h53.6m-53.6 0c-.3 0-.6.1-.9.3m-.3.3l.3-.3m269.2 131h-15.7m18.2 45.6c.9 0 1.7-.8 1.7-1.7m0-15.3v15.3m-10.4 1.7h0m0-3.4v3.4m0 0h8.7m-2.5-18.9l4.2 1.9m-4.2 13.6h-14.3m0 0v-11.3m0-4.6v-5.2m8 24.5v-3.4m-8 3.4h4.6m3.3 0h0m6.4-45.6v5.8m-9 0h9m-14 40c.2 0 .3-.1.4-.2m-1.4.2h1m-1.4-.2c.1.1.2.2.4.2m-.3 1.9h-.4m.9.4c0-.2-.2-.4-.4-.4m2 .4H503m2.1-.4c-.2 0-.4.2-.4.4m.4-.4c.2 0 .3-.2.3-.3m0-1.8v1.7m-1.9-10.1l-.8-1.2m-.2 0h.2m.8 9.6h-1.4m1.9-.4c-.2 0-.4.2-.4.4m.4-.4h3.6m.5.4c0-.2-.2-.4-.4-.4m.4.4h3.3m0 0v-3.4m6.4 0V253m-14-5.8v-1.7m2.1 1.1c0 .2.1.4.2.6m-.2-2.6v2m-2.5-1.5h-1.3m1.7.4c0-.2-.2-.4-.4-.4m-1.3 5.6h6.7m-6.7 17.6h6.7m0 0v-17.6m-3.3-68.9v-4.6m-3.4 0h3.4m-3.4 4.6h3.4m-12.6 65h-5.3m0 0v8.6m5.3 0h-5.3m5.3 20.6H485m0 0v14.7m7.9 0H485m17.1-144.4h4.6m0 0v-4.7m-4.6 0h4.6m-17.1 69.5h-4.2m0 0v11.8m.8-78.3H485m0 0v8.8m1.2-9.7H485m0 0v.9m24.7.4v-22.2m-3 0h3m-3 22.2h3m-4.2 44v-4.6m-3.4 0h3.4m-3.4 4.6h3.4m5.4 44.3h3.4m0 0v-12.1m-3.4 0h3.4m-8.8-21.1h6.9m0 0v-42.8m-4.8 0h4.8m-27.9 33.8v11.3m8.4 0h-8.4m8.4-11.3h-8.4m5.1 64.4v4.6m3.3 0h-3.3m12.5 50.5h.4m0 0v-.4m-.4-32.1h3.4m0 0v-4.6m-3.4 0h3.4m-3.4-57.3h4.6m0 0v-8.8m-4.6 0h4.6m-4.6 25.9h8.8m0 0v-12.1m-8.8 0h8.8m-21.3-31v.9m3.3-.9h-3.3m17.1 15.9V204m-1.2 0h1.2m-13.8 18.9H485m0 0v7.9m7.9 0H485m2.6-45.2h-2.2m0-.8v.8m7.5-8.3h-5.3m0 0v8.6m5.3 0h-5.3m-2.6-21.6v7.9m7.9 0H485m7.9-7.9H485m7.9 40.1h-4.6m0 0v4.7m1.3 0h-1.3m1.3 22.1h-1.3m0 0v2.6m17.2-27.7V204m-3.4 0h3.4m-21 56.6v11.3m8.4 0h-8.4m8.4-11.3h-8.4m5.1-29.8v1.7m3.3 0h-3.3m15.9-116.8v-2.5m-3.4 0h3.4m-3.4 46.9h5.5m0 0v-9.7m-5.5 0h5.5m-5.1 165.2v8.4m-.4-8.4h.4m-.4 8.4h.4m-16.3-207.3v36.7m6.7-36.7h-6.7m15.9 12.4h4.6m-4.6 8.8h4.6m0 0v-8.8m0 21.3v-1.2m-4.6 0h4.6m-13.8 4.2H485m0 0v7.9m7.9 0H485m17.1-36.8h4.6m0 0v-8.8m-4.6 0h4.6m-4.6 49h3.4m-3.4 8.8h3.4m0 0v-8.8m0 38.5v-4.6m-3.4 0h3.4m-3.4 4.6h3.4m-12.6 52.3H485m0-13.8v13.8m7.9-69.5h-4.6m0-.1v.1m-3.3 85.9v4.1m4.6-114.3v2.6m3.3-2.6h-3.3m-4.6-.4v3m0 0h0m27.2 36.2v-.4m0-42.8v-25.5m-2.5 0h2.5m-6.7 68.7h6.7M485 233.8v7.9m7.9 0H485m7.9-7.9H485m7.5 85.2v-8.4m.4 8.4h-.4m.4-8.4h-.4m10-28.4v6.7m-.4-6.7h.4m-.4 6.7h.4m4.3-67.7v-2.9m-19.2-33.5H485m0-12.6v12.6m17.1 33.5h12.2m0 0v-12.2m-12.2 0h12.2m-21.4.9h-3.3m0 0v8.8m3.3 0h-3.3m0 84.5v4.6m3.3 0h-3.3m3.3-4.6h-3.3m20.1-55.7v-7.9m-7.6 0h7.6m-7.6 7.9h7.6m-7.6 65.6h.4m0 0v-5.9m-.4 0h.4m-17.1-13.6v2.1m2.2 0h-2.2m2.2-2.1v6.8m5.3 0h-5.3m-.4-41.1h0m5.7-105.1h-3.3m0 0v2.1m15.9 11.3h1.2m-1.2 8.8h1.2m0 0v-8.8m6.7 82.5v-11.1m-11.3 0h11.3M507.1 118v-5m-5 0h5m-.4 5h.4m-1.6 78.1v-4.6m-3.4 0h3.4m-3.4 4.6h3.4m-19.3-69.9H485m0 0v14.6m1.2 0H485m20.5 63.2v-.4m-3.4 0h3.4m-3.4-96.9h-9.2m0 12.5v-12.5m9.2 0v12.5m-9.2 0v201m9.2 0v-201m-9.2 213.6v-12.6m9.2 12.6h-9.2m9.2-12.6v12.6m-20.3-83.3v-58.8m0 0c.7-2.2 1.2-4.4 1.6-6.4.2-1.2.3-2.3.4-3.3 0-.5.1-1 .1-1.5V178m0 83.6v-.6c0-.5 0-.9-.1-1.5-.1-1-.2-2.1-.4-3.3-.3-2.1-.8-4.5-1.6-6.9m2.1-71.4v83.7m.6 0h-.6m3.3-76v5.5m0 11.3v8.7m0 19.7v3m0 21.7v5.1m-2.2-82.7h-1.1m3.3 7.7v5.5m0 11.3v8.7m0 19.7v3m0 21.7v5.1m5-74.6v4.2m0 12.2v2m0 55.7v.5m362.7-33.5v-4.9m0 0h9.3m0 0v4.9m0 0h-9.3m19.4-16.3h-4.8m0 0v-9.2m0 0h4.8m0 0v9.2m18.7 48.5h13.2m0 0v9.1m0 0H893m0 0v-9.1M869.5 290h8.3m0 0v15.4m0 0h-8.3m0 0V290m-74-110.9v-4.8m0 0h9.3m0 0v4.8m0 0h-9.3m81.4 58.1h-8.3m0 0v-15.4m0 0h8.3m0 0v15.4m-22 28.6V261m0 0h9.3m0 0v4.8m0 0h-9.3M803 135.5v-4.8m0 0h9.2m0 0v4.8m0 0H803m-8.8 31.7h-8.4m0 0v-15.4m0 0h8.4m0 0v15.4m-51.5-7.9V151m0 0h15.4m0 0v8.3m0 0h-15.4m3.1 95.5h4.8m0 0v9.3m0 0h-4.8m0 0v-9.3M904 200.7v11.9m0 0h-18.5m0 0v-11.9m0 0H904M738.3 301.9v4.8m0 0h-9.2m0 0v-4.8m0 0h9.2m116.6-28.6v-4.8m0 0h9.3m0 0v4.8m0 0h-9.3m0-29.9v-4.9m0 0h9.3m0 0v4.9m0 0h-9.3m-130.2-77h8.3m0 0v15.4m0 0h-8.3m0 0v-15.4m12 114.3v18.2m0 0h-18.3m0 0v-18.2m0 0h18.3m127.5-80.9v4.8m0 0h-9.3m0 0v-4.8m0 0h9.3m-9.3 51V246m0 0h9.3m0 0v4.8m0 0h-9.3m-48.8-93.7h-4.9m0 0v-9.2m0 0h4.9m0 0v9.2M741 238.5v8.4m0 0h-15.4m0 0v-8.4m0 0H741m83.1 48.9v-4.9m0 0h9.3m0 0v4.9m0 0h-9.3m68.7-44.9v-8.4m0 0h15.4m0 0v8.4m0 0h-15.4m-173.4-28.6h-4.9m0 0v-9.3m0 0h4.9m0 0v9.3M870.3 195H862m0 0v-15.4m0 0h8.3m0 0V195m22.7-8.8h13.2m0 0v9.1m0 0H893m0 0v-9.1m-90-42.7v-4.9m0 0h9.2m0 0v4.9m0 0H803m-59.2-13c0-2.4-2-4.4-4.4-4.4s-4.4 2-4.4 4.4 2 4.4 4.4 4.4 4.4-2 4.4-4.4h0zm164.4 42v8.4m0 0h-15.4m0 0v-8.4m0 0h15.4M807.8 283.4h4.9m0 0v9.3m0 0h-4.9m0 0v-9.3m47.6-63.8v-4.8m0 0h9.2m0 0v4.8m0 0h-9.2m18.9 32.6h-4.8m0 0v-9.3m0 0h4.8m0 0v9.3m-154-60.3v8.3m0 0h-15.4m0 0v-8.3m0 0h15.4m185.9 81.8v11.9m0 0h-18.5m0 0v-11.9m0 0h18.5M882.7 235h4.8m0 0v9.2m0 0h-4.8m0 0V235m-10.2 39.6h4.9m0 0v9.3m0 0h-4.9m0 0v-9.3M741 250v8.3m0 0h-15.4m0 0V250m0 0H741m114.4-15v-4.8m0 0h9.2m0 0v4.8m0 0h-9.2m16-112.4v44.9m0 0h-53.6m0 0v-44.9m0 0h53.6m-149.7 62.8h-18.3m0 0v-18.3m0 0h18.3m0 0v18.3m78.7 98h4.8m0 0v9.3m0 0h-4.8m0 0v-9.3m92.4-114v-8.3m0 0h15.4m0 0v8.3m0 0h-15.4M700.5 187h-4.9m0 0v-9.2m0 0h4.9m0 0v9.2m45.3 52.8h4.8m0 0v9.3m0 0h-4.8m0 0v-9.3m-21.1 26.5v-4.9m0 0h9.2m0 0v4.9m0 0h-9.2m139.5-59v4.8m0 0h-9.3m0 0v-4.8m0 0h9.3m-114.9 15.4v4.8m0 0h-9.2m0 0v-4.8m0 0h9.2m138.2 45.8h-8.4m0 0V253m0 0h8.4m0 0v15.5M741 210.8v8.4m0 0h-15.4m0 0v-8.4m0 0H741m160.1 15.8h-4.8m0 0v-9.2m0 0h4.8m0 0v9.2m-42.2-31.2h-4.8m0 0v-9.2m0 0h4.8m0 0v9.2m-14.5 95.9V283m0 0h15.4m0 0v8.3m0 0h-15.4m20.7-121.4v4.8m0 0h-9.3m0 0v-4.8m0 0h9.3m-126.8 2.6v-8.3m0 0h15.4m0 0v8.3m0 0h-15.4m38.3 1.8v4.8m0 0h-9.2m0 0v-4.8m0 0h9.2m131.6 71.3v8.3m0 0h-15.4m0 0v-8.3m0 0h15.4m-92.9 37.8h4.9m0 0v9.3m0 0h-4.9m0 0v-9.3m-29.9 0h4.8m0 0v9.3m0 0h-4.8m0 0v-9.3m-15 0h4.9m0 0v9.3m0 0h-4.9m0 0v-9.3m98.8 47.3c0-2.4-2-4.4-4.4-4.4s-4.4 2-4.4 4.4 2 4.4 4.4 4.4 4.4-1.9 4.4-4.4h0zm-91.3-47.3h4.9m0 0v9.3m0 0h-4.9m0 0v-9.3m-28.6-52.8v4.8m0 0h-9.2m0 0v-4.8m0 0h9.2m138.2-36.5h-8.4m0 0v-15.4m0 0h8.4m0 0v15.4m.4 23.3h4.9m0 0v9.2m0 0h-4.9m0 0v-9.2m-12.3-58.5h4.9m0 0v9.2m0 0h-4.9m0 0v-9.2m29.1 58.5h4.8m0 0v9.2m0 0h-4.8m0 0v-9.2m-180 18v-4.8m0 0h9.2m0 0v4.8m0 0h-9.2m88.9-78.3h-4.9m0 0v-9.2m0 0h4.9m0 0v9.2m66 60.3h4.8m0 0v9.2m0 0h-4.8m0 0v-9.2m-154.9 10.1v-4.8m0 0h9.2m0 0v4.8m0 0h-9.2m140.4 88v4.9m0 0h-9.3m0 0v-4.9m0 0h9.3m-114.5-97.2h-4.8m0 0V209m0 0h4.8m0 0v9.3m85.9-39.2v-4.8m0 0h9.2m0 0v4.8m0 0h-9.2m18.4 79.2v-4.8m0 0h9.3m0 0v4.8m0 0h-9.3m-62 25.1h4.8m0 0v9.3m0 0h-4.8m0 0v-9.3m30.4 8.8h8.3m0 0v15.4m0 0h-8.3m0 0v-15.4m40.1 2.1v18.3m0 0h-18.3m0 0v-18.3m0 0h18.3m-82-115.2v-4.8m0 0h9.3m0 0v4.8m0 0h-9.3m-63.8 98.6v-8.4m0 0H733m0 0v8.4m0 0h-15.4m165.5-118.8h4.8m0 0v9.2m0 0h-4.8m0 0v-9.2m-63.4 149.6h-4.8m0 0v-9.2m0 0h4.8m0 0v9.2m-77-26.8h8.4m0 0v15.4m0 0h-8.4m0 0v-15.4m28.6-149.2h8.4m0 0v15.4m0 0h-8.4m0 0v-15.4m-54.3-.3c0-7.3-5.9-13.2-13.2-13.2s-13.2 5.9-13.2 13.2c0 7.3 5.9 13.2 13.2 13.2s13.2-5.9 13.2-13.2h0zm0 197.2c0-7.3-5.9-13.2-13.2-13.2s-13.2 5.9-13.2 13.2 5.9 13.2 13.2 13.2 13.2-5.9 13.2-13.2h0zm197.1 0c0-7.3-5.9-13.2-13.2-13.2s-13.2 5.9-13.2 13.2 5.9 13.2 13.2 13.2 13.2-5.9 13.2-13.2h0zm0-197.2c0-7.3-5.9-13.2-13.2-13.2s-13.2 5.9-13.2 13.2c0 7.3 5.9 13.2 13.2 13.2s13.2-5.9 13.2-13.2h0zM754 112.7c.4 2.4 2.6 4.1 5 3.7 1.9-.3 3.4-1.8 3.7-3.7m0 0l.3-.3m.9-.4c-.3 0-.7.1-.9.4m.9-.4H908m13.2 13.2c0-7.3-5.9-13.2-13.2-13.2m13.2 13.2v211.2M908 349.6c7.3 0 13.2-5.9 13.2-13.2M908 349.6h-82.5m-.9-.3c.2.2.6.4.9.4m-.9-.4l-.3-.3m0 0c-.4-2.4-2.6-4.1-5-3.7-1.9.3-3.4 1.8-3.7 3.7m0 0l-.3.3m-.9.3c.3 0 .7-.1.9-.4m-.9.4H696.7m-13.2-13.2c0 7.3 5.9 13.2 13.2 13.2m-13.2-13.2V125.2m13.2-13.2c-7.3 0-13.2 5.9-13.2 13.2m13.2-13.2h56m.9.4c-.2-.2-.6-.4-.9-.4m.9.4l.3.3m79.6 149.4v-61.8m0 0h-66.6m0 0v61.8m0 0h66.6m0-61.8l6.7-6.7 3.5-3.5c.5-.5 1-1.1 1.5-1.6.2-.3.5-.5.7-.8.1-.1.2-.3.3-.5.1-.1.1-.2.2-.4m0 88l-.6-.6-1.5-1.5-3.4-3.4-7.2-7.2m12.7-75.3v88m-88.1-88c0 1 .3 1.8.6 2.6s.7 1.6 1.2 2.3c.9 1.5 2 2.9 3.1 4.3 1.2 1.4 2.4 2.8 3.7 4.3m-8.6 74.5v-88m8.6 75.3c-1.3 1.4-2.6 2.9-3.7 4.3-1.2 1.4-2.2 2.8-3.1 4.3-.5.7-.9 1.5-1.2 2.3-.2.6-.4 1.2-.5 1.8m-.1-88h88.1m0 88h-88.1m-36.9 54.6h-35.2m17.6-17.6V347m17.6-214.8h-35.2m17.6-17.6v35.2m214.7-17.6h-35.2m17.6-17.6v35.2m17.6 179.6h-35.2m17.6-17.6V347" fill="none" stroke="#000" stroke-width=".5" stroke-linecap="round" stroke-linejoin="round" stroke-miterlimit="10"/><path class="st1" d="M124.6 134.8H58.7m49 17V89.2M297 151.8V89.2M124.6 323.7H58.7"/><path class="st2" d="M111.9 90.9h180.8M92.5 64.4h219.7m4.2 63.6V62.7M88.2 128V62.2m12.7 53.2H28.3m72.6 228.1H28.3m32-204.5v180.9m432.2-282h17.4M386.3 86h151.3m-15.9 198.4V36.1m-20.4 79.3V80.7m-8.8 34.7V80.7m-11.7 118.8V36.1M342.7 293.6l-43.2 28.5m43.2-28.4h67.7"/><path class="st1" d="M124.6 134.8H58.7m49 17V89.2M297 151.8V89.2M124.6 323.7H58.7"/><path class="st3" d="M452.9 229.4h102.5M202.3 365.2v-261M72.8 229.4h285.3"/><path class="st1" d="M280.2 134.8h2.8"/><path d="M286.2 134.8h3.2" fill="none" stroke="#000" stroke-width=".283" stroke-miterlimit="10" stroke-dasharray="1.5987,3.1974"/><path d="M291 134.8h27.2" fill="none" stroke="#000" stroke-width=".283" stroke-miterlimit="10" stroke-dasharray="6.3948,3.1974,1.5987,3.1974"/><path class="st1" d="M319.8 134.8h2.8m-214.9 172v2.8"/><path d="M107.7 312.9v3.3" fill="none" stroke="#000" stroke-width=".283" stroke-miterlimit="10" stroke-dasharray="1.6495,3.299"/><path d="M107.7 317.9v28" fill="none" stroke="#000" stroke-width=".283" stroke-miterlimit="10" stroke-dasharray="6.5979,3.299,1.6495,3.299"/><path class="st1" d="M107.7 347.5v2.9m167.4-26h2.8"/><path d="M281.1 324.4h3.2" fill="none" stroke="#000" stroke-width=".283" stroke-miterlimit="10" stroke-dasharray="1.5987,3.1975"/><path d="M285.9 324.4h27.2" fill="none" stroke="#000" stroke-width=".283" stroke-miterlimit="10" stroke-dasharray="6.395,3.1975,1.5987,3.1975"/><path class="st1" d="M314.7 324.4h2.8m-21.2-21.8v2.8"/><path d="M296.3 308.7v3.3" fill="none" stroke="#000" stroke-width=".283" stroke-miterlimit="10" stroke-dasharray="1.6496,3.2991"/><path d="M296.3 313.7v28" fill="none" stroke="#000" stroke-width=".283" stroke-miterlimit="10" stroke-dasharray="6.5983,3.2991,1.6496,3.2991"/><path class="st1" d="M296.3 343.4v2.8"/><path class="st12" d="M202.3 365.2v-261M72.8 229.4h285.3m89.8 0h102.5"/><path class="st3" d="M654.3 230.7h291.1"/><path class="st12" d="M654.3 230.7h291.1"/><path class="st3" d="M802.3 368.9V102.6"/><path class="st12" d="M802.3 368.9V102.6"/><path class="st13" d="M316.2 64.7l-14.6-2.5v4.9l14.6-2.4zm-19.3 26.1l-14.7-2.4v4.9l14.7-2.5zm224.3-53l-14.6-2.4v4.9l14.6-2.5zM296.3 323.9l13.6-6-2.7-4.1-10.9 10.1zM481.4 37.8l14.7-2.4v4.9l-14.7-2.5zm11.3 48.1l-14.6-2.4v4.9l14.6-2.5zm6.9 0l14.7-2.4v4.9l-14.7-2.5zM88.8 64.7l14.6-2.5v4.9l-14.6-2.4zm19.3 26.1l14.7-2.4v4.9l-14.7-2.5zm-47.8 44.1l2.5 14.6h-4.9l2.4-14.6zm0 189.3l-2.4-14.6h4.9l-2.5 14.6z"/><path class="st2" d="M31 119.7v219"/><path class="st13" d="M31 115.5l2.5 14.7h-4.9l2.4-14.7zM31 343l-2.4-14.7h4.9L31 343z"/><text transform="translate(478.764 28.057)" class="st14 st15">≈</text><text transform="translate(488.764 28.057)" class="st16 st15">4.8</text><text transform="translate(389.488 78.682)" class="st16 st15">max. 1.1</text><text transform="translate(191.674 59.791)" class="st16 st15">27</text><text transform="translate(351.246 286.063)" class="st16 st15">4 x</text><text transform="translate(383.646 286.063)" class="st14 st15">Ø</text><text transform="translate(393.646 286.063)" class="st16 st15">3</text><text transform="rotate(-90 151.056 96.452)" class="st16 st15">22.4</text><text transform="rotate(-90 131.308 107.92)" class="st16 st15">27</text><text transform="translate(183.394 85.963)" class="st16 st15">22.4</text><text transform="translate(839.9 408.198)" class="st17 st16 st18">Not to scale</text><text transform="translate(839.9 424.098)" class="st17 st16 st18">Dimensions in mm</text></svg>