<svg version="1.0" xmlns="http://www.w3.org/2000/svg" viewBox="0 0 290 220"><path d="M116.1 120.8l32.6-18.6m-27.3 27.1h48.1m-131.1.1l62.9-.2m4.2-8.1l-64-39.2m18.1 98.5l47.5-43.1m8.9.3l54.1 43.1" fill="none" stroke="#000" stroke-miterlimit="10"/><text transform="translate(151.206 104.548)" font-family="Helvetica,Arial,sans-serif" font-size="14">3</text><path fill="none" stroke="#000" stroke-width=".283" stroke-linecap="round" stroke-linejoin="round" stroke-miterlimit="10" d="M245.4 171.3c2.8 0 5-2.2 5-5m0-139.8c0-2.8-2.2-5-5-5M50.6 166.3c0 2.8 2.2 5 5 5m0-149.8c-2.8 0-5 2.2-5 5m199.8 139.8V26.5m-5-5H55.6m-4 144.8V26.5m-1 0v139.8m1 0c0 2.2 1.8 4 4 4m189.8 0H55.6m0 1h189.8m0-1c2.2 0 4-1.8 4-4m0-139.8v139.8m0-139.8c0-2.2-1.8-4-4-4m-189.8 0h189.8m-189.8 0c-2.2 0-4 1.8-4 4m66.5 61.4V32m77.4 0v55.9m-2.5 2.5c1.4 0 2.5-1.1 2.5-2.5m-77.4 0c0 1.4 1.1 2.5 2.5 2.5m0-60.9c-1.4 0-2.5 1.1-2.5 2.5m77.4 0c0-1.4-1.1-2.5-2.5-2.5m0 60.9h-72.4m0-60.9H193m19.8 33.4c0-3.3-2.7-6-6-6s-6 2.7-6 6 2.7 6 6 6 6-2.7 6-6h0z"/><path fill="none" stroke="#000" stroke-width=".283" stroke-linecap="round" stroke-linejoin="round" stroke-miterlimit="10" d="M210.7 62.9c0-2.2-1.8-3.9-3.9-3.9-2.2 0-3.9 1.8-3.9 3.9 0 2.2 1.8 3.9 3.9 3.9 2.1 0 3.9-1.7 3.9-3.9h0zm-97.9 0c0-3.3-2.7-6-6-6s-6 2.7-6 6 2.7 6 6 6c3.4 0 6-2.7 6-6h0z"/><path fill="none" stroke="#000" stroke-width=".283" stroke-linecap="round" stroke-linejoin="round" stroke-miterlimit="10" d="M110.8 62.9c0-2.2-1.8-3.9-3.9-3.9-2.2 0-3.9 1.8-3.9 3.9 0 2.2 1.8 3.9 3.9 3.9 2.1 0 3.9-1.7 3.9-3.9h0zm28.7 66.5c0-15.7-12.7-28.5-28.5-28.5s-28.5 12.7-28.5 28.5c0 15.7 12.7 28.5 28.5 28.5s28.5-12.8 28.5-28.5h0zm-46.3-3h2.9m0 6h-2.9m2.9-6v6m32.8 0h-3m0-6h3m-3 6v-6"/><path fill="none" stroke="#000" stroke-width=".283" stroke-linecap="round" stroke-linejoin="round" stroke-miterlimit="10" d="M129.1 129.4c0-10-8.1-18.1-18.1-18.1-10 0-18.1 8.1-18.1 18.1 0 10 8.1 18.1 18.1 18.1 10 0 18.1-8.1 18.1-18.1h0z"/><path stroke="#000" stroke-width=".283" stroke-linecap="round" stroke-linejoin="round" stroke-miterlimit="10" d="M116.9 121.6c0-.8-.6-1.4-1.4-1.4-.8 0-1.4.6-1.4 1.4 0 .8.6 1.4 1.4 1.4.8 0 1.4-.7 1.4-1.4h0zm-9 0c0-.8-.6-1.4-1.4-1.4-.8 0-1.4.6-1.4 1.4 0 .8.6 1.4 1.4 1.4.8 0 1.4-.7 1.4-1.4h0zm-4.5 7.8c0-.8-.6-1.4-1.4-1.4-.8 0-1.4.6-1.4 1.4 0 .8.6 1.4 1.4 1.4.8-.1 1.4-.7 1.4-1.4h0zm4.5 7.8c0-.8-.6-1.4-1.4-1.4-.8 0-1.4.6-1.4 1.4 0 .8.6 1.4 1.4 1.4.8-.1 1.4-.7 1.4-1.4h0zm9 0c0-.8-.6-1.4-1.4-1.4-.8 0-1.4.6-1.4 1.4 0 .8.6 1.4 1.4 1.4.8-.1 1.4-.7 1.4-1.4h0zm4.5-7.8c0-.8-.6-1.4-1.4-1.4-.8 0-1.4.6-1.4 1.4 0 .8.6 1.4 1.4 1.4.8-.1 1.4-.7 1.4-1.4h0z"/><path fill="none" stroke="#000" stroke-width=".283" stroke-linecap="round" stroke-linejoin="round" stroke-miterlimit="10" d="M138.5 129.4c0-15.2-12.3-27.5-27.5-27.5s-27.5 12.3-27.5 27.5 12.3 27.5 27.5 27.5c15.2-.1 27.5-12.4 27.5-27.5h0z"/><path fill="none" stroke="#000" stroke-width=".283" stroke-linecap="round" stroke-linejoin="round" stroke-miterlimit="10" d="M133.1 129.4c0-12.2-9.9-22.1-22.1-22.1s-22.1 9.9-22.1 22.1c0 12.2 9.9 22.1 22.1 22.1s22.1-9.9 22.1-22.1h0zm-13.8-41V74.9m0-7.5V53.9m0-7.4V31m64 57.4h-53m-7.5 0h-3.5m75 0h-3.5m3.5-57.4v15.5m0 7.4v13.5m0 7.5v13.5M191.8 31h2.5m-75 0h2.5m7.5 0h16.4m22.2 0h16.4m6.5 57.4v.3m-7.5 0v-.3m7.5 0h-7.5m-60.5 0v.3m7.5 0v-.3m0 0h-7.5m71.9-21h-.4m0 7.5h.4m-.4-7.5v7.5m.4-21h-.4m0-7.4h.4m-.4 0v7.4m-75.4 13.5h.4m0 7.5h-.4m.4 0v-7.5m-.4-13.5h.4m0-7.4h-.4m.4 7.4v-7.4m72.5-15.9v.4m-7.5 0v-.4m0 .4h7.5m-70-.4v.4m7.5 0v-.4m-7.5.4h7.5m38.6 0v3.5m-22.2 0V31m22.2 3.5h-22.2m22.2 0h5.9m0 0v7.8m0 0h4m0 0v2.4m-42 0v-2.4m0 0h4m0 0v-7.8m0 0h5.9m32.1 10.2h10m0 0v36m0 0h-62m0 0v-36m0 0h10"/><path fill="none" stroke="#000" stroke-width=".283" stroke-linecap="round" stroke-linejoin="round" stroke-miterlimit="10" d="M93.2 132.9c2.3 9.8 12 15.9 21.9 13.7 6.8-1.6 12.1-6.9 13.7-13.7m16.9-101.5h22.2M50.6 166.3h1m0-139.8h-1m5 144.8v-1m189.8 1v-1m5-4h-1m1-139.8h-1m-4-5v1m-189.8-1v1"/><path fill="none" stroke="#000" stroke-width=".227" stroke-linecap="round" stroke-linejoin="round" stroke-miterlimit="10" d="M55.6 171.3h0"/><path fill="none" stroke="#000" stroke-width=".283" stroke-miterlimit="3.864" d="M116.6 62.9c0 5.4-4.4 9.7-9.7 9.7-5.4 0-9.7-4.4-9.7-9.7s4.4-9.7 9.7-9.7c5.3 0 9.7 4.4 9.7 9.7zm99.9 0c0 5.4-4.4 9.7-9.7 9.7-5.4 0-9.7-4.4-9.7-9.7 0-5.4 4.4-9.7 9.7-9.7 5.3 0 9.7 4.3 9.7 9.7zM142 129.4c0 17.1-13.9 31-31 31s-31-13.9-31-31 13.9-31 31-31c17.1-.1 31 13.8 31 31z"/><text transform="translate(27.51 133.309)" font-family="Helvetica,Arial,sans-serif" font-size="14">5</text><text transform="translate(50.088 189.656)" font-family="Helvetica,Arial,sans-serif" font-size="14">6</text><text transform="translate(171.396 190.61)" font-family="Helvetica,Arial,sans-serif" font-size="14">1</text><text transform="translate(173.705 132.794)" font-family="Helvetica,Arial,sans-serif" font-size="14">2</text><text transform="translate(31.494 83.41)" font-family="Helvetica,Arial,sans-serif" font-size="14">4</text></svg>