<svg xmlns="http://www.w3.org/2000/svg" viewBox="0 0 400 200"><style>.st1,.st2{stroke-width:.4252;stroke-miterlimit:10}.st1{stroke:#000;fill:#fff}.st2,.st5,.st6{stroke:#000;fill:none}.st2{stroke-linecap:round;stroke-linejoin:round}.st5,.st6{stroke-width:.2835;stroke-miterlimit:10}.st6{stroke-linecap:round;stroke-linejoin:round}.st10{stroke-dasharray:.824,1.648}.st10,.st11,.st12,.st13,.st17,.st18{fill:none;stroke:#000;stroke-width:.2835;stroke-miterlimit:10}.st11{stroke-dasharray:3.2959,1.648,.824,1.648}.st12{stroke-dasharray:.8579,1.7158}.st13{stroke-dasharray:3.4315,1.7158,.8579,1.7158}.st17{stroke-dasharray:.8241,1.6481}.st18{stroke-dasharray:3.2962,1.6481,.8241,1.6481}.st20{fill-rule:evenodd;clip-rule:evenodd;fill:#1a171b}.st21{font-family:Helvetica,Arial,sans-serif}.st22{font-size:9px}</style><path d="M128.6 70.9h2.5l1.2-.9.8.8-1.5 1.2-.6.2v1h2v39.5h-2v1.4l.6.2 1.5 1.2-.8.8-1.2-1h-2.5v18.3c0 3-2.5 5.5-5.5 5.5H41.6c-3 0-5.5-2.5-5.5-5.5V52c0-3 2.5-5.5 5.5-5.5h81.5c3 0 5.5 2.5 5.5 5.5v18.9zm157.9.2H284l-1.2-.9-.8.8 1.5 1.2.6.2v1h-2v39.5h2v1.4l-.6.2-1.5 1.2.8.8 1.2-1h2.5v18.3c0 3 2.5 5.5 5.5 5.5h81.5c3 0 5.5-2.5 5.5-5.5V52.2c0-3-2.5-5.5-5.5-5.5H292c-3 0-5.5 2.5-5.5 5.5v18.9zm-66.8-19.6h2.7V47h3.8v5.1h4.1v2.1h12.3v10.6h-10v5.3h.4s.2.1.2.2v.7s2 .1 2.2 2.1v.2l.1.3s0 .1.1.1h.4c.1 0 .3.1.3.3v38.6c0 .2-.1.3-.2.3h-.4s-.1 0-.1.1l-.1.3v.3c0 .3-.4 1.8-2.2 1.9h-.1v.7s0 .2-.2.2h-1.6s-.2-.1-.2-.2v-.7h-.9v8.3h-2.2v.5h.9v4.6h.9v7.5h-.5v1h-3.1v2.1h-3.8V135h-1.4v-.7h-1.9v-2.5h-.8v-7.9h.9v-.8h3.2v-.5h-1.9v-1h-2.7v-4.8h1.4v-.6h3.2V115h-1.9v-.5h-.3v-4.2h-1.5v-.3s.2-1.5-.8-5V81s.9-3.2.8-4.8V76h1.5v-1.8h-1.1V71h1.1v-.5h2.1v-.3h-1.8v-.7h-1.3v-6.4h.5v-2h-.5v-3.3h.5v-6.3z" fill="#f2f2f2" id="HG"/><g id="dart"><path class="st1" d="M49.1 54.6c0 2.8-2.3 5.1-5.1 5.1s-5.1-2.3-5.1-5.1 2.3-5.1 5.1-5.1 5.1 2.3 5.1 5.1zm66.5 0c0 2.8 2.3 5.1 5.1 5.1s5.1-2.3 5.1-5.1-2.3-5.1-5.1-5.1-5.1 2.3-5.1 5.1zm-66.5 77.1c0-2.8-2.3-5.1-5.1-5.1s-5.1 2.3-5.1 5.1 2.3 5.1 5.1 5.1c2.8.1 5.1-2.2 5.1-5.1zm66.5 0c0-2.8 2.3-5.1 5.1-5.1s5.1 2.3 5.1 5.1-2.3 5.1-5.1 5.1c-2.8.1-5.1-2.2-5.1-5.1z"/><path class="st2" d="M37.4 63.5h12.5v27.2H37.4zM57 52.1h27.4v27.4H57zm35.9 2.1h14.2v10.6H92.9zm20.9 16.9h17.1v44.4h-17.1zm.1 26.4h3.7m0 0V85.9m0 0h-3.7m17.1 27.3h-17.2M131 73.3h-17.1"/><path class="st2" d="M127.9 95.4v.3l-.1.1-.1.1-.1.1h-1.2l-.1-.1v-.1l-.1-.1-.1-.2-.1-.1h-3.1l-.1-.1h-.1v-.1l-.1-.1v-1.7l.1-.1v-.1h.1l.1-.1h3.1l.1-.1v-.1l.1-.1v-.1l.1-.1h.1l.1-.1h1.1v.1h.1l.1.1.1.1v.3h1.6v2.3h-1.6m0 16.2v.3l-.1.1-.1.1-.1.1h-1.2l-.1-.1-.1-.1v-.1l-.1-.1v-.1h-.1l-.1-.1h-3.1l-.1-.1-.1-.2v-1.7l.1-.1v-.1h3.1l.1-.1h.1l.1-.1.1-.1v-.1l.1-.1v-.1h1.4l.1.1.1.1v.4h1.6v2.2h-1.6m-10.3-23.2h1.5c.6 0 .5.6.5.6v4.2c0 .4-.2.6-.7.6h-1.4M53.7 76.5h-1.9m0 0V73m0 0h1.9m0 0v3.5m34.6-18.6h1.8m0 0v3.6m0 0h-1.8m0 0v-3.6m1.8-2.2h-1.8m0 0v-3.6m0 0h1.8m0 0v3.6m-24.5 71.2h1.9m0 0v3.6m0 0h-1.9m0 0v-3.6m41.2-16.2h3.1m0 0v5.8m0 0h-3.1m0 0v-5.8m-11 11.4h3.6v-1.9h-3.6m0 1.9v-1.9m7.2 13.9v3.3h-6v-3.3m0 0h6m-10.5-14h1.9m-1.9 0v3.5h1.9v-3.5m-15.2 16.2h-1.9m0 0v-3.6m0 0h1.9m0 0v3.6m-28.8-26.5h-1.9m0 0v-3.6m0 0h1.9m0 0v3.6m42 21.6h1.8m0 0v3.6m0 0h-1.8m0 0v-3.6m-16.1 4.7h-1.9m0 0v-3.5m0 0h1.9m0 0v3.5m-23.2-24.6v1.9m0 0h-3.6m0 0v-1.9m0 0h3.6m15.4 15.4h1.9m0 0v3.6m0 0h-1.9m0 0v-3.6M50.4 104h-1.9m0 0v-3.6m0 0h1.9m0 0v3.6m13.7 25.5v1.9m0 0h-3.6m0 0v-1.9m0 0h3.6M39.9 94.9V93h3.6v1.9m0 0h-3.6m10.5 2.7h-1.9m0 0V94h1.9v3.6m8 31.9v1.9m0 0h-3.5m0 0v-1.9m0 0h3.5m-6.8-31.9h1.9V94h-1.9v3.6m9.4 35v3.2m0 0h-6m0 0v-3.2m0 0h6M51.8 87h1.9m-1.9 0v3.6h1.9V87m57.2 38.2v1.9h-3.6v-1.9h3.6M47.3 97.6h-1.9m0 0V94h1.9v3.6m60.8 26.6v-1.9m0 0h3.6v1.9h-3.6m-30.8 2.7h1.9m0 0v3.6m0 0h-1.9m0 0v-3.6M51.8 67.5h1.9m0 0v3.6m0 0h-1.9m0 0v-3.6m22.6 59.4h1.9m0 0v3.6m0 0h-1.9m0 0v-3.6M80 85.6h3.6v-1.9H80m0 1.9v-1.9m-8.5 43.2h1.8m0 0v3.6m0 0h-1.8m0 0v-3.6M55.7 83.7v1.9m0 0h-3.6m0 0v-1.9m0 0h3.6m8.4 42.7v1.9m0 0h-3.6m0 0v-1.9m0 0h3.6m40.6-6.2v1.9m0-1.9h-3.6v1.9h3.6m.8 6.8h5v7.5h-5v-7.5m-47.1-2.5v1.9m0 0h-3.5m0 0v-1.9m0 0h3.5m-4.7-60.6h-1.9m0 0v-3.6m0 0h1.9m0 0v3.6m44 48.6h-1.9m0 0v-3.6m0 0h1.9m0 0v3.6m10.4 6.7v-1.9m0 1.9h3.6v-1.9h-3.6M93 87.7h1.9v3.6H93zm-41.4 31h1.9v-3.6h-1.9m0 3.6v-3.6M72.7 135v1.8m0 0h-3.6m0 0V135m0 0h3.6m23.8-50.9v3.6h1.9v-3.6m-1.9 0h1.9m-49.9 31h1.9m0 0v3.6m0 0h-1.9m0 0v-3.6m20.6 18.8v-1.8m0 0h3.6m0 0v1.8m0 0h-3.6m26.3-58.5v1.8m0 0h-3.6m0 0v-1.8m0 0h3.6m-49.1 42.2v3.3m0 0h-6m0 0v-3.3m0 0h6m53.5-41.2v.2m0 0l-.1.2m0 0v.3m0 0l-.2.1m0 0l-.2.2m0 0l-.2.2m0 0l-.2.1m0 0h-.2m0 0l-.2.1m0 0l-.3-.1m0 0H98m0 0l-.2-.1m0 0l-.2-.2m0 0l-.2-.2m0 0l-.1-.1m0 0l-.1-.3m0 0l-.1-.2m0 0v-.2m0 0v-.3m0 0l.1-.2m0 0l.1-.2m0 0l.1-.2m0 0l.2-.2m0 0l.2-.1m0 0l.2-.1m0 0l.2-.1m0 0h.3m0 0h.2m0 0l.2.1m0 0l.2.1m0 0l.2.1m0 0l.2.2m0 0l.2.2m0 0v.2m0 0l.1.2m0 0v.3m-1.1 37h3.3v-6h-3.3m0 6v-6m-6 3.4h1.9m0 0v3.6m0 0h-1.9m0 0v-3.6m-52.6.2v-1.9m0 0h3.6m0 0v1.9m0 0h-3.6m53.1-1.6v-1.8m0 0h3.6m0 0v1.8m0 0h-3.6m0-6v-1.9m0 0h3.6m0 0v1.9m0 0h-3.6m0 2.8v-1.9m0 0h3.6m0 0v1.9m0 0h-3.6m-41.6 3.6h1.9v-3.6h-1.9m0 3.6v-3.6m-5.3-1.5v3.2m0 0h-6m0 0v-3.2m0 0h6m49.2 26.7h8.9v-7.1h-8.9m0 7.1v-7.1M51.6 104h1.9v-3.6h-1.9m0 3.6v-3.6m-11.1 16.1v-4.3m0 0h5.6m0 0v4.3m0 0h-5.6M40.1 98v-1.9m0 0h3.6m0 0V98m0 0h-3.6m67.7 5.1l2.5 2.5m0 0l-2 2.1m0 0l-2.5-2.5m0 0l2-2.1m-8.6-7.2H96m0 0v-6h3.2v6m-4.3.9H93m0 0v-3.6h1.9v3.6m-54.4 6.6v-4.2m0 0h5.6m0 0v4.2m0 0h-5.6m54.3-19.7v1.9m0 0h-3.6m0 0v-1.9m0 0h3.6m15 .3H106m0 0v-8.9m0 0h3.8m0 0V84m-12-4.9v3.3m0 0h-6m0 0v-3.3m0 0h6m12-15.4h3.6m-3.6 0v2.9h3.6v-2.9M89.9 81.9h-1.8m0 0v-3.6m0 0h1.8m0 0v3.6m-.8 1.8h-3.6v1.9h3.6m0-1.9v1.9m3.1-11.3v-3.6m0 0h2.9m0 0v3.6m0 0h-2.9M74.5 85.6v-1.9m0 0h3.6m0 0v1.9m0 0h-3.6m23.3-11.3v-3.6m0 0h2.9m0 0v3.6m0 0h-2.9m-25.3 9.4v1.9m0 0h-3.6m0 0v-1.9m0 0h3.6m-9.3 1.9v-1.9m0 0h3.6m0 0v1.9m0 0h-3.6m-2-1.9v1.9m0 0h-3.6m0 0v-1.9m0 0h3.6m28.7-7.5h-1.8m0 0v-3.6m0 0h1.8m0 0v3.6m-38.1 2.4h1.9m-1.9 0v3.6h1.9v-3.6m27.6 48.7h8.9m0 0v7.2m0 0h-8.9m0 0v-7.2m8.6-56.7h-1.8m0 0V67h1.8v3.6m-40.5 51.5v-1.9m0 0H53m0 0v1.9m0 0h-3.6m17.5 10.4v2m0 0h-3.8m0 0v-2m0 0h3.8M56 89.5h34.3v34.3H56zm63.3 32.2c0 .9-.7 1.6-1.6 1.6-.9 0-1.6-.7-1.6-1.6s.7-1.6 1.6-1.6c.9 0 1.6.7 1.6 1.6zm-64-69.6c0 .9-.8 1.7-1.7 1.7-.9 0-1.7-.8-1.7-1.7 0-.9.8-1.7 1.7-1.7 1 0 1.7.8 1.7 1.7zm7.8 87.1c.4 0 .5-.3.5-.4.2-.8.9-1.4 1.7-1.4.8 0 1.5.6 1.7 1.3 0 .1.1.4.5.4m23.9-92.3c-.4 0-.5.3-.5.4-.2.8-.9 1.4-1.7 1.4-.8 0-1.5-.6-1.7-1.3 0-.1-.1-.4-.5-.4"/><path class="st1" d="M365.8 54.6c0 2.8 2.3 5.1 5.1 5.1s5.1-2.3 5.1-5.1-2.3-5.1-5.1-5.1-5.1 2.3-5.1 5.1zm-66.4 0c0 2.8-2.3 5.1-5.1 5.1s-5.1-2.3-5.1-5.1 2.3-5.1 5.1-5.1 5.1 2.3 5.1 5.1zm66.4 77.1c0-2.8 2.3-5.1 5.1-5.1s5.1 2.3 5.1 5.1-2.3 5.1-5.1 5.1c-2.8.1-5.1-2.2-5.1-5.1zm-66.4 0c0-2.8-2.3-5.1-5.1-5.1s-5.1 2.3-5.1 5.1 2.3 5.1 5.1 5.1c2.8.1 5.1-2.2 5.1-5.1z"/><path class="st2" d="M284 112.8h2.5M284 73.3h2.5m0 19.8h-1v2.3h1m0 14h-1v2.2h1m6.4-30.8c0 .9.7 1.6 1.6 1.6.9 0 1.6-.7 1.6-1.6 0-.9-.7-1.6-1.6-1.6-.9 0-1.6.7-1.6 1.6zm62.4 50.8c0 .9.8 1.7 1.7 1.7.9 0 1.7-.8 1.7-1.7 0-.9-.8-1.7-1.7-1.7-.9 0-1.7.8-1.7 1.7zm-3.4 7.6c-.4 0-.5-.3-.5-.4-.2-.8-.9-1.4-1.7-1.4-.8 0-1.5.6-1.7 1.3 0 .1-.1.4-.5.4m-23.9-92.3c.4 0 .5.3.5.4.2.8.9 1.4 1.7 1.4.8 0 1.5-.6 1.7-1.3 0-.1.1-.4.5-.4"/><path fill="none" stroke="#000" stroke-width=".425" stroke-miterlimit="10" d="M286.5 71.1v44.3"/><path class="st2" d="M288.5 111.6h6.5m0 0v4.3m0 0l-.1.2m0 0v.2m0 0l-.1.2m0 0l-.1.1m0 0l-.2.1m0 0l-.2.1m0 0l-.2.1m0 0h-.1m0 0h-4.5m0 0h-.2m0 0l-.2-.1m0 0l-.2-.1m0 0l-.1-.1m0 0l-.2-.1m0 0l-.1-.2m0 0v-.2m0 0v-.2m0 0v-4.3m4.3 1.4h.3m0 0l.2.1m0 0l.2.1m0 0l.2.1m0 0l.2.2m0 0l.1.1m0 0l.2.3m0 0v.2m0 0l.1.2m0 0v.3m0 0l-.1.2m0 0v.2m0 0l-.2.3m0 0l-.1.1m0 0l-.2.2m0 0l-.2.1m0 0l-.2.1m0 0l-.2.1m0 0h-.3m0 0h-2.2m0 0h-.2m0 0l-.3-.1m0 0l-.2-.1m0 0l-.2-.1m0 0l-.2-.2m0 0l-.1-.1m0 0l-.1-.3m0 0l-.1-.2m0 0v-.2m0 0v-.3m0 0v-.2m0 0l.1-.2m0 0l.1-.3m0 0l.1-.1m0 0l.2-.2m0 0l.2-.1m0 0l.2-.1m0 0l.3-.1m0 0h.2m0 0h2.2m1.9-43.1l.1.2m0 0l.1.1m0 0v.2m0 0l.1.2m0 0v4m0 0h-6.5m0 0v-4m0 0v-.2m0 0v-.2m0 0l.1-.1m0 0l.2-.2m0 0l.1-.1h5.6l.2.1m-4.1.7h2.2m0 0h.3m0 0l.2.1m0 0l.2.1m0 0l.2.1m0 0l.2.2m0 0l.1.1m0 0l.2.3m0 0v.2m0 0l.1.2m0 0v.3m0 0l-.1.2m0 0v.2m0 0l-.2.2m0 0l-.1.2m0 0l-.2.2m0 0l-.2.1m0 0l-.2.1m0 0l-.2.1m0 0h-.3m0 0h-2.2m0 0h-.2m0 0l-.3-.1m0 0l-.2-.1m0 0l-.2-.1m0 0l-.2-.2m0 0l-.1-.2m0 0l-.1-.2m0 0l-.1-.2m0 0v-.2m0 0v-.3m0 0v-.2m0 0l.1-.2m0 0l.1-.3m0 0l.1-.1m0 0l.2-.2m0 0l.2-.1m0 0l.2-.1m0 0l.3-.1m0 0h.2m61.2 2.7v-1.9m0 0h3.5m0 0v1.9m0 0h-3.5m-48.7-3.4h1.9v-3.6h-1.9m0 3.6v-3.6m43.2 7v-1.9m0 0h3.5m0 0v1.9m0 0h-3.5m-44.4-3.4H300m0 0v-3.6m0 0h1.9m0 0v3.6m38.9 3.4v-1.9m0 0h3.6m0 0v1.9m0 0h-3.6M360 55.8h-1.9m0 0v-3.6m0 0h1.9m0 0v3.6m-36.5 17.5v-1.9m0 0h3.6m0 0v1.9m0 0h-3.6m27.4-18.5v1.9m0 0h-3.6m0 0v-1.9m0 0h3.6m-29.3 16.6v1.9m0 0H318m0 0v-1.9m0 0h3.6m25.7-13.5v3.2m0 0h-6m0 0v-3.2m0 0h6m-38 13h1.9m0 0v3.6m0 0h-1.9m0 0v-3.6m29.6-11.8V61m0 0h-3.6m0 0v-1.9m0 0h3.6m13.5 75.2h-3.2m0 0v-6m0 0h3.2m0 0v6m-44.3-59.8h-1.9m0 0v-3.6m0 0h1.9m0 0v3.6M338.9 56v1.9m0 0h-3.6m0 0V56m0 0h3.6m-9.2 78.3h-3.2m0 0v-6m0 0h3.2m0 0v6m1.7-75.9h-1.9m0 0v-3.6m0 0h1.9m0 0v3.6m25-6.7v1.9m0 0h-3.6m0 0v-1.9m0 0h3.6m-19.1 80.1h-5.8m0 0v-7.2m0 0h5.8m0 0v7.2m-22.4-.7h-5.8m0 0v-7.2m0 0h5.8m0 0v7.2m22.3-10.4v1.9m0 0h-3.6m0 0v-1.9m0 0h3.6m-9.3 1.9v-1.9m0 0h3.6m0 0v1.9m0 0h-3.6m37.9-35.8h-1.9m0 0v-3.6m0 0h1.9m0 0v3.6M348 134.3h-3.3m0 0v-6m0 0h3.3m0 0v6m13.5-39.4h-1.9m0 0v-3.6m0 0h1.9m0 0v3.6m-53.6 39.5H306m0 0v-3.6m0 0h1.9m0 0v3.6m57.2-63.3v3.2m0 0h-6m0 0v-3.2m0 0h6m-25.7 55.3v-3.3m0 0h6m0 0v3.3m0 0h-6m22.8-60.6h1.9m0 0v3.6m0 0h-1.9m0 0v-3.6m-36.7 68.5h-3.3m0 0v-6m0 0h3.3m0 0v6m7.9-74.5v1.9m0 0h-3.6m0 0v-1.9m0 0h3.6m34.3 60.3v-3.3m0 0h6m0 0v3.3m0 0h-6m-8.4-62.2v3.2m0 0h-6m0 0v-3.2m0 0h6m-25.4 61.6v-3.2m0 0h6m0 0v3.2m0 0h-6m22.6-64.7v1.9m0 0h-3.6m0 0v-1.9m0 0h3.6m-25.3 61.5v3.2m0 0h-6m0 0v-3.2m0 0h6m-14.3 10.3v-3.3m0 0h6m0 0v3.3m0 0h-6m31.4-10h1.9m0 0v3.6m0 0h-1.9m0 0v-3.6m-14.9-65.1v1.9m0 0h-3.6m0 0v-1.9m0 0h3.6m1.6 63.6v-1.9m0 0h3.6m0 0v1.9m0 0H335m-4.3-1.9v1.9m0 0h-3.6m0 0v-1.9m0 0h3.6m37-7.9v-3.2m0 0h6m0 0v3.2m0 0h-6m-63-33.7v1.9m0 0H301m0 0v-1.9m0 0h3.7m6.5 31.8h1.8m0 0v3.6m0 0h-1.8m0 0v-3.6M343 129v5.2m0 0h-3.5m0 0V129m0 0h3.5m24.7-42.9v-3.2m0 0h6m0 0v3.2m0 0h-6m-6.1 35.6h-10.3m0 0v-4.8m0 0h10.3m0 0v4.8m-50.4-29.9h1.8m0 0v3.6m0 0h-1.8m0 0v-3.6m9.2 37.2v5.2m0 0h-3.6m0 0V129m0 0h3.6m47.3-28.1v-3.3m0 0h6m0 0v3.3m0 0h-6m-.4 6.6h7.1m0 0v7.1m0 0h-7.1m0 0v-7.1M361.5 89h-3.2m0 0v-5.9m0 0h3.2m0 0V89m5.8-.7h7.1m0 0v7.1m0 0h-7.1m0 0v-7.1M337 133.1v1.9m0 0h-3.6m0 0v-1.9m0 0h3.6m17.8-45.2h-1.9m0 0v-3.6m0 0h1.9m0 0v3.6m-43.7 46.9v-1.9m0 0h3.6m0 0v1.9m0 0h-3.6m1.9-45.2h-1.8m0 0V86m0 0h1.8m0 0v3.6m54.3-19.1h7.1m0 0v7.1m0 0h-7.1m0 0v-7.1m-3 37.1h1.8m0 0v3.5m0 0h-1.8m0 0v-3.5m6-39.3v-1.8m0 0h3.5m0 0v1.8m0 0h-3.5M353.1 110v-1.9m0 0h3.6m0 0v1.9m0 0h-3.6m3.3-41.7v1.9m0 0h-3.6m0 0v-1.9m0 0h3.6m-3.3 38.6V105m0 0h3.6m0 0v1.9m0 0h-3.6m-2.6-38.6v1.9m0 0h-3.6m0 0v-1.9m0 0h3.6m2.6 35.5v-1.9m0 0h3.6m0 0v1.9m0 0h-3.6m-12-33.6v-1.9m0 0h3.6m0 0v1.9m0 0h-3.6m12 30.5v-1.9m0 0h3.6m0 0v1.9m0 0h-3.6m-17.8-27.4v-1.9m0 0h3.6m0 0v1.9m0 0h-3.6m17.8 24.3v-1.9m0 0h3.6m0 0v1.9m0 0h-3.6m-14.2-29.3v1.9m0 0h-3.6m0 0v-1.9m0 0h3.6m-27.7 29.3h1.8m0 0v3.6m0 0h-1.8m0 0v-3.6m21.5-26.2v1.9m0 0h-3.6m0 0v-1.9m0 0h3.6m31.2 17.3h1.9m0 0v3.6m0 0h-1.9m0 0v-3.6m-34.4-25.2h3.2m0 0v6m0 0h-3.2m0 0v-6m23.6 31v-1.9m0 0h3.6m0 0v1.9m0 0h-3.6m17.2-12.8v-1.9m0 0h3.5m0 0v1.9m0 0h-3.5m-17.2 9.8v-1.9m0 0h3.6m0 0v1.9m0 0h-3.6m8.2-22.3h-3.2m0 0v-6m0 0h3.2m0 0v6m-8.2 13.4v-1.9m0 0h3.6m0 0v1.9m0 0h-3.6m-.8-19.7h1.8m0 0v3.6m0 0h-1.8m0 0v-3.6m-39.4 19.5v1.9m0 0h-3.6m0 0v-1.9m0 0h3.6m34-15.2v-2m0 0h3.6m0 0v2m0 0h-3.6m21.3 12.6v1.9m0 0h-3.6m0 0v-1.9m0 0h3.6M346.9 64v-1.8m0 0h3.6m0 0V64m0 0h-3.6m6.2 15.4v-1.8m0 0h3.6m0 0v1.8m0 0h-3.6m-9.8-16.5h1.9m0 0v3.6m0 0h-1.9m0 0v-3.6m9.8 13.5v-1.9m0 0h3.6m0 0v1.9m0 0h-3.6m-10.8-9.9h-1.9m0 0v-3.6m0 0h1.9m0 0v3.6m-29.4 12.8v1.9m0 0h-3.6m0 0v-1.9m0 0h3.6m26-14.1v2m0 0h-3.6m0 0v-2m0 0h3.6m-26 11v1.9m0 0h-3.6m0 0v-1.9m0 0h3.6M335.3 64v-1.8m0 0h3.6m0 0V64m0 0h-3.6m-14.5 17.1v24m0 0h26m0 0v-24m0 0h-26m-4.9 29.3V76.1m34.2 0v34.3m0 0h-34.2m0-34.3h34.2m-34.2 34.3l4.9-5.3m0-24l-4.9-5m30.9 5l3.3-5m-3.3 29l3.3 5.3m-43.3-58.9h20.9V69h-20.9zm-84.4 82.9v.4m0-82.7v82.3m0-83.1v.4m0 0v.4m3.8 82.3v.4m0 0v.5m0 0v.4m0 0v.4m0 0v.4m0 0v.4m0 0v.4m-3.8-2.9h3.8m0-82.3v82.3m-3.8-82.3h3.8m0 0v82.3m0 2.9v-.4m0 0v-.4m0 0v-.4m0 0v-.4m0 0v-.4m0 0v-.5m0 0v-.4m-3.8 0v.6m3.8-.6h-3.8m0-83.1v.4m0 0v.4m3.8 0h-3.8m0 0v82.3m0-78.6h-1.8m1.8 72.5h-3.2m0 0v3.5m1.4-75.1v1.2m8.7 78.5v-.6m-11-11.9v.7m9.8-29.7V93m-1.9 0h1.9m-1.9 1.9h1.9m-1.9 40.9h3.2m0 0v-3.2m-1.8 0h1.8m-10.2-8.7v2.5m3.2 0h-3.2m3.2-60.6h-1.8m0 0v3.7m-1.4 47.3v3.3m3.2 0h-3.2m3.2-62.2h-3.2m1.4-2.1v.9m7 75.9v-.5m-1.4 0h1.4m-1.4-11.2h3.2m0 0v-3.3m-3.2 0h3.2m-7-15.5h-3.2m0 0v3.2m3.2 0h-3.2m3.2-22.4h-3.2m0 0v3.2m8.9 24.9v-1.9m-1.9 1.9h1.9m-5.7-13.4h-3.2m0 0v3.3m3.2 0h-3.2m3.2 6.6h-2.1m0 0v2.9m0-21.4h-1.1m0-2.9V89m3.2-.7h-2.1m0 0v7.1m2.1 0h-2.1m7.8 13.7v-1.2m-5.7-37.4h-2.1m2.1 7.1h-2.1m5.9 30.3h3.2m0 0v-3.2m-3.2 0h3.2m-1.1 11.8v-4.3m-2.1 0h2.1m-2.1 4.3h2.1m-7.2-11.2v1.6m1.3 0h-1.3m7-8.9v-1.9m-1.9 0h1.9m-1.9 1.9h1.9m-1.9 25.7h1.9m2.2-8.3V90.8m-2 13.9v-5.5m-2.1 0h2.1m2-35.7v-9.3m-7.9 9h-2.7m6.5.3h6.4m-6.4 27.3h6.4m0 0V63.5m-4.3 69.1v-.1m7.2-46.6h-.1m0 0h-.1m0 0h-.1m0 0h-.1m0 0h-.2m0 0h-.3m0 0h-.2m0 0h-.2m0 0h-.3m0 0h-.2m-1.1 0h1.1m-1.1-3.4h1.1m1.2-5.7l-1 1.1m0 0l-.1.1m0 0l-.1.1m0 0v.1m-.4-5.9h.2m0 0h.2m0 0l.1.2m0 0l.2.1m0 0l.1.1m0 0l.1.2m0 0l.1.2m0 0v.2m0 39.9v.2m0 0l-.1.2m0 0l-.1.2m0 0l-.1.1m0 0l-.2.1m0 0l-.1.2m0 0h-.2m0 0h-.2m2.2-31.7h-.1m0 0h-.1m0 0h-.1m0 0h-.1m0 0h-.2m0 0h-.3m0 0h-.2m0 0h-.2m0 0h-.3m0 0h-.2m-.4-11.5v.1m0-.1h-.7m1.7 40.3v-.2m0 0l-.1-.2m0 0v-.2m0 0l-.2-.1m.3-35.3v.1m0 0l-.1.2m0 0v.2m0 0l-.2.2m-1.2 1.4l.9.8m.3-2.2l-1 1.2m0 0h-.1m0 0l-.1.1m0 0v.1m2.7-2.1v.2m0 0l-.1.3m0 0l-.1.3m0 0v.2m0 0l-.2.2m0 0l-.2.3m-.9 33.8l-1-1.3m0 0h-.1m0 0l-.1-.1m0 0v-.1m1.5 2.2v.6m-.3-11.6h.1m0 0h.1m0 4.1h-.1m0 0h-.1m-.3 0h.2m0 0h.3m0 0h.2m0 0h.2m0 0h.3m0 0h.2m0 0h.1m0 0h.1m0 0h.1m-2.2 0h.5m-2.5 11v.1m2.1-1.3h-3m2.3-13.2v2.8m1.1-3.5h.2m0 0h.3m0 0h.2m0 0h.2m0 0h.3m0 0h.2m0 0h.1m0 0h.1m0 0h.1m0 0h.1m0 0v-2.7m-1.8 0h.2m0 0h.3m0 0h.2m0 0h.2m0 0h.3m0 0h.2m0 0h.1m0 0h.1m0 0h.1m0 0h.1m0 6.8h-.1m-1.7 2.8h.2m0 0h.3m0 0h.2m0 0h.2m0 0h.3m0 0h.2m0 0h.1m0 0h.1m0 0h.1m0 0h.1m-4.2 0h2.4m-2.4 0h-.1m-.9-1.6l.9 1.6m2.1-34.9h-.7m2.9 1v2m-1.2-2v.1m0 0v.5m0 0v1.4m-1.1 29.1h-.1m0 0h-.2m0 0l-.1-.1m0 0l-.1-.1m0 0l-.1-.2m0 0v-.1m0 0v-.1m.7 11.6v.1m.4-7.2l-.9.8m2.2.7l-1.1-1.2m0 0l-.1-.1m0 0v-.1m0 0h-.1m0 0v-.1m1.3 1.5l.1.2m0 0l.2.2m0 0v.3m0 0l.1.2m0 0l.1.3m0 0v.3m-2.9-10.3v-.1m0 0v-.2m0 0l.1-.1m0 0l.1-.1m0 0l.1-.1m0 0l.2-.1m0 0h.1m2.3 6.9v4.1m-4.2-13.7h2.4m-3.4 1.6l1-1.6m2.4 2.7h-.5m2.3 6.9v-2.8m-4.5 9.8h-.2m3.5-6.3v-.7m0-9.6v-.7m0-10.1v-.9m0 9.7v-8.8m0 10.1v-1.3m0 12.3v1.1m0 2.9v-.2m0 .2v1.2m0-39.7v-.2m0 39.9v.1m1.2-1.9v1.9m0-30.7v3.4m-16.7 24.5v-.2m0 0l-.1-.2m0 0v-.3m0 0v-.1m.1-33.3v-.2m1.3 0v6.8m0-6.8v6.8m.2 27.5h-.2"/></g><path d="M128.5 71.1h2.5l1.2-.9.8.8-1.5 1.2-.6.2v1h2v39.5h-2v1.4l.6.2 1.5 1.2-.8.8-1.2-1h-2.5v18.3c0 3-2.5 5.5-5.5 5.5H41.5c-3 0-5.5-2.5-5.5-5.5V52.2c0-3 2.5-5.5 5.5-5.5H123c3 0 5.5 2.5 5.5 5.5v18.9zm158 0H284l-1.2-.9-.8.8 1.5 1.2.6.2v1h-2v39.5h2v1.4l-.6.2-1.5 1.2.8.8 1.2-1h2.5v18.3c0 3 2.5 5.5 5.5 5.5h81.5c3 0 5.5-2.5 5.5-5.5V52.2c0-3-2.5-5.5-5.5-5.5H292c-3 0-5.5 2.5-5.5 5.5v18.9zm-66.8-19.6h2.7V47h3.8v5.1h4.1v2.1h12.3v10.6h-10v5.3h.4s.2.1.2.2v.7s2 .1 2.2 2.1v.2l.1.3s0 .1.1.1h.4c.1 0 .3.1.3.3v38.6c0 .2-.1.3-.2.3h-.4s-.1 0-.1.1l-.1.3v.3c0 .3-.4 1.8-2.2 1.9h-.1v.7s0 .2-.2.2h-1.6s-.2-.1-.2-.2v-.7h-.9v8.3h-2.2v.5h.9v4.6h.9v7.5h-.5v1h-3.1v2.1h-3.8V135h-1.4v-.7h-1.9v-2.5h-.8v-7.9h.9v-.8h3.2v-.5h-1.9v-1h-2.7v-4.8h1.4v-.6h3.2V115h-1.9v-.5h-.3v-4.2h-1.5v-.3s.2-1.5-.8-5V81s.9-3.2.8-4.8V76h1.5v-1.8h-1.1V71h1.1v-.5h2.1v-.3h-1.8v-.7h-1.3v-6.4h.5v-2h-.5v-3.3h.5v-6.3z" fill="none" stroke-miterlimit="10" stroke-width=".709" stroke="#000" id="Kontur"/><g id="Bemassung"><path class="st5" d="M50.8 54.9H24.1M44 161.8v-30.5m76.5 30.5v-30.5m-69.7.2H24.1"/><path class="st6" d="M45.7 159.8H119m-81.2 14.8h89.1m-86.5 15.3h89m-.8-14.2v-41.2M35.8 191v-59.4m97.2 59.3v-80.3M41.2 47H11.8m144.1-.3h-13.4m-2.5 0h-16.7m32.6 12.8H91.3m51.5-4.9h-29.1m-72.5 84.9H11.8m13-82.9v73.3M189.4 15.6h51.5m-65.7 19.5h65.7m1.8 19.1V14.9M226.2 47V33m-3.6 14V33m-4.7 48.1V14.9m-78.6 104.4l-17.6 11.5m17.6-11.5h27.4"/><path class="st5" d="M50.8 54.9H24.1M44 161.8v-30.5m76.5 30.5v-30.5m-69.7.2H24.1"/></g><g id="Mittellinie"><path d="M206.6 93.2h41.6M82.3 148.3V42.5M29.8 93.2h115.7m188.4 55.1V33m-64.4 60.2h121.9" stroke="#fff" stroke-width="1.417" stroke-dasharray="5.6693,2.8347,1.4173,2.8347" fill="none" stroke-miterlimit="10"/><path class="st5" d="M44 124.6v2.8"/><path fill="none" stroke="#000" stroke-width=".283" stroke-miterlimit="10" stroke-dasharray=".8578,1.7156" d="M44 129.1v1.8"/><path fill="none" stroke="#000" stroke-width=".283" stroke-miterlimit="10" stroke-dasharray="3.4313,1.7156,.8578,1.7156" d="M44 131.7v6.9"/><path class="st5" d="M44 139.4v2.9m67.8-10.6h2.9"/><path class="st10" d="M116.3 131.7h1.7"/><path class="st11" d="M118.8 131.7h6.6"/><path class="st5" d="M126.2 131.7h2.8m-8.6-8.8v2.8"/><path class="st12" d="M120.4 127.5v1.7"/><path class="st13" d="M120.4 130v6.9"/><path class="st5" d="M120.4 137.7v2.9M44 54.9v2.8"/><path fill="none" stroke="#000" stroke-width=".283" stroke-miterlimit="10" stroke-dasharray=".7011,1.4022" d="M44 59.1v1.4"/><path class="st5" d="M44 61.2V64m76.4-17.6v2.8"/><path fill="none" stroke="#000" stroke-width=".283" stroke-miterlimit="10" stroke-dasharray=".7333,1.4666" d="M120.4 50.7v1.5"/><path fill="none" stroke="#000" stroke-width=".283" stroke-miterlimit="10" stroke-dasharray="2.9332,1.4666,.7333,1.4666" d="M120.4 52.9v5.9"/><path class="st5" d="M120.4 59.5v2.8m165.1 69.4h2.9"/><path class="st10" d="M290 131.7h1.7"/><path class="st11" d="M292.5 131.7h6.6"/><path class="st5" d="M299.9 131.7h2.8m-8.6-8.8v2.8"/><path class="st12" d="M294.1 127.5v1.7"/><path class="st13" d="M294.1 130v6.9"/><path class="st5" d="M294.1 137.7v2.9m68-8.9h2.8"/><path class="st17" d="M366.5 131.7h1.7"/><path class="st18" d="M369 131.7h6.6"/><path class="st5" d="M376.4 131.7h2.9m-8.6-8.8v2.8"/><path class="st12" d="M370.7 127.5v1.7"/><path class="st13" d="M370.7 130v6.9"/><path class="st5" d="M370.7 137.7v2.9m-85.2-86.3h2.9"/><path class="st10" d="M290 54.3h1.7"/><path class="st11" d="M292.5 54.3h6.6"/><path class="st5" d="M299.9 54.3h2.8m-8.6-8.9v2.9"/><path class="st12" d="M294.1 50v1.7"/><path class="st13" d="M294.1 52.5v6.9"/><path class="st5" d="M294.1 60.3v2.8m68-8.8h2.8"/><path class="st17" d="M366.5 54.3h1.7"/><path class="st18" d="M369 54.3h6.6"/><path class="st5" d="M376.4 54.3h2.9m-8.6-8.9v2.9"/><path class="st12" d="M370.7 50v1.7"/><path class="st13" d="M370.7 52.5v6.9"/><path class="st5" d="M370.7 60.3v2.8"/><path d="M82.3 148.3V42.5M29.8 93.2h115.7m61.1 0h41.6m85.7 55.1V33m-64.4 60.2h121.9" stroke-dasharray="5.6693,2.8347,1.4173,2.8347" fill="none" stroke="#000" stroke-width=".283" stroke-miterlimit="10"/></g><g id="Pfeile"><path class="st20" d="M132.8 189.8l-6-1v2l6-1zm-4.3-15.1l-5.9-1v2l5.9-1zm-8.1-14.9l-6-1v2l6-1zm122-144.2l-5.9-1v1.9l5.9-.9zm-122 115.9l5.5-2.4-1-1.7-4.5 4.1zm-20.3-72.3l3.8-4.7-1.7-.9-2.1 5.6zM218 15.6l5.9-1v1.9l-5.9-.9zm4.8 19.5l-6-1V36l6-.9zm2.7 0l6-1V36l-6-.9z"/><path class="st6" d="M141.4 26.3V71"/><path class="st20" d="M141.5 56l.9-6h-1.9l1 6zm0 2.8l.9 5.9h-1.9l1-5.9z"/><path class="st6" d="M154.8 22.3v49"/><path class="st20" d="M154.8 46.6l1-5.9h-2l1 5.9zm0 12.2l1 5.9h-2l1-5.9zm-118.7 131l5.9-1v2l-5.9-1zm.2-15.1l6-1v2l-6-1zm7.9-14.9l5.9-1v2l-5.9-1zM24.8 54.9l1 5.9h-2l1-5.9zm0 76.8l-1-6h2l-1 6z"/><path class="st6" d="M12.9 48.8v88.7"/><path class="st20" d="M12.9 47.1l1 5.9h-2l1-5.9zm0 92.2l-1-6h2l-1 6z"/></g><g id="Text"><text transform="translate(309.128 178.133)"><tspan x="0" y="0" class="st21 st22">Not to scale</tspan><tspan x="0" y="10.8" class="st21 st22">Dimensions in mm</tspan></text><text transform="translate(70.118 188.041)" class="st21 st22">≈ 28.3</text><text transform="translate(177.468 31.177)" class="st21 st22">max. 1.1</text><text transform="translate(77.59 172.72)" class="st21 st22">27</text><path class="st6" d="M37.8 18.7h59.9M48.3 34H96m4 32.7V16.2M35.8 52.1V17M44 54.9v-23"/><path class="st20" d="M99.9 33.9l-5.9-1v2l5.9-1zm0-15.1l-6-1v2l6-1zM44 33.9l5.9-1v2l-5.9-1zm-7.7-15.1l6-1v2l-6-1z"/><text transform="translate(60.384 32.136)" class="st21 st22">15.35</text><text transform="translate(55.505 16.814)" class="st21 st22">18.65</text><text transform="translate(140.861 116.202)" class="st21 st22">4 x Ø3</text><path class="st6" d="M123.5 18.2l-21.7 38.1m21.7-38h43.2"/><text transform="translate(124.921 15.31)" class="st21 st22">I/O center</text><text transform="rotate(-90 61.845 39.466)" class="st21 st22">22.4</text><text transform="rotate(-90 53.641 43.918)" class="st21 st22">27</text><text transform="rotate(-90 96.496 -56.653)" class="st21 st22">3.65</text><text transform="rotate(-90 92.102 -47.44)" class="st21 st22">1.35</text><text transform="translate(73.837 157.82)" class="st21 st22">22.4</text><text transform="translate(188.03 9.724)" class="st21 st22">≈ 7.2</text></g></svg>