<svg version="1.1" id="Ebene_1" xmlns="http://www.w3.org/2000/svg" xmlns:xlink="http://www.w3.org/1999/xlink" x="0" y="0" viewBox="0 0 459.5 229.3" xml:space="preserve"><style>.st0{fill:#fff;fill-opacity:0}.st1,.st2{fill:none;stroke:#000;stroke-width:.6573;stroke-linecap:round;stroke-linejoin:round;stroke-miterlimit:10}.st2{stroke-width:.3193}.st119{fill:#1a1a18}.st120{font-family:Helvetica,Arial,sans-serif}.st121{font-size:8.5039px}</style><path class="st0" d="M40 104.7v-3.1l.2-3 .2-3.1.4-3 .4-3 .6-3 .6-3 .8-3 .8-2.9 1-2.9 1-2.9 1.2-2.9 1.2-2.7 1.4-2.8h-.7L46 58.2v-2.5l.8-.7h7.1v2.4H56V54H42.8l-.7-.8v-1.8l.6-.6.4.5h.7l.5-1h.1l.6 1h.7l.5-1h.1l.6 1h.7l.6-1 .6 1h.4v.5H56v-1.5h21.7l.8.7.8-.7h4.1l.7.7v4h.4v-4l.8-.7h1.1v.5H109v-.5h1.1l.7.7v.4l.4-.4h23.3v4.9h.4V51l.7-.7h13.1l1.8 1.9v6.9h4.2v-1.8l.8 1.4h1.8l1-1.7h.1l.9 1.7h1.9l.9-1.7h.1l.9 1.7h1.9l.9-1.7h.1l.9 1.7h1.8l1-1.7 1 1.7h1.9l.9-1.7h.1l.9 1.7h1.8l1-1.7 1 1.7h1.8l.3.2v.3h5.2l1.9 2v15l-.3.4h-4.6l-.4-.4-.3.4h-3.8l-.4-.4h-1.9v1.3h7.4l.7.7v8.3l-2.4 2.4h-.2l-.7-.7v16.5H40z"/><path class="st1" d="M53.9 55h-7.1l-.8.7v2.5l3.1 5.2h.7l-1.4 2.8-1.2 2.7-1.2 2.9-1 2.9-1 2.9-.8 2.9-.8 3-.6 3-.6 3-.4 3-.4 3-.2 3.1-.2 3v3.1h140.6V88.2l.7.7h.2l2.4-2.4v-8.3l-.7-.7h-7.4v-1.3h1.9l.4.4h3.8l.3-.4.4.4h4.6l.3-.4v-15l-1.9-2h-5.2v-.3l-.3-.2h-1.8l-1-1.7-1 1.7h-1.8l-.9-1.7h-.1l-.9 1.7h-1.9l-1-1.7-1 1.7h-1.8L166 57h-.1l-.9 1.7h-1.9l-.9-1.7h-.1l-.9 1.7h-1.9l-.9-1.7h-.1l-1 1.7h-1.8l-.8-1.4v1.8h-4.2v-6.9l-1.8-1.9h-13.1l-.7.7v4.9h-.4V51h-23.3l-.4.4V51l-.7-.7H109v.5H86.4v-.5h-1.1l-.8.7v4h-.4v-4l-.7-.7h-4.1l-.8.7-.8-.7H56v1.5h-6.8v-.5h-.4l-.6-1-.6 1h-.7l-.6-1h-.1l-.5 1H45l-.6-1h-.1l-.5 1h-.7l-.4-.5-.6.6v1.8l.7.8H56v3.4h-2.1V55zm133.6 49.7V76.2m-.3 28.5V76.6m.3 28.1h-.3m-4.6-27.2v-.9m4.6 28.1h-3.3m-1.7-27.2v-1.3m-.3.4v.9m-3.8-.9v.9m-.4-1.3v1.3m6.2 9v18.2m-2.4-15.8v15.8m2.4 0h-2.4m-.2-15.8v15.8m.2 0h-.9M49.1 63.4v1.5M46 58.2v13.7M56 55h-2.1m58.1-4.7l-.8.7m23.3 0v-.7m-48.8-1.9l.6-.2.8-.3.7-.3.7-.1.9-.2H91l.8.1.9.1.8.2.7.2.6.3.6.3M84.2 55l.3-.3"/><path class="st1" d="M83.5 50.3l.4-.4.4-.5.6-.4.6-.4.7-.3.8-.3.8-.2.9-.2.9-.1h1.9l.8.1 1 .2.8.2.8.2.7.4"/><path class="st1" d="M95.6 48.6l.7.4.5.4.5.4.4.5.3.5m14-.5h22.5m-92.4 3v31.9m.7-31.2v28m114.5-23.3l1-1.7m2.9 1.7l.9-1.7m2.8 1.7l1-1.7m2.8 1.7l1-1.7m2.8 1.7l1-1.7m2.8 1.7l1-1.7m-81.9-8.5l.6.3m-10.3-.4l-.5.4"/><path class="st0" d="M135.6 159.1l-.7-.7v-4.9h-.4v4.9h-23.3l-.4-.4v.4l-.7.7H109v-.5H86.4v.5h-1.1l-.8-.7v-4h-3.1v4l-.7.7h-4.2l-.8-.7-.7.7H53.2v-1.5h-6.8v1.5l-.6-1h-.7l-.6 1-.6-1h-.7l-.6 1-.7-1h-.6l-.6 1h-.1l-.6-1h-.6l-.1-.1v-1.8l.7-.8h13.2V152h-3.7v2.4h-7.2l-.8-.7v-2.5l3-5.2h.8l-1.3-2.7-1.3-2.8-1.1-2.9-1.1-2.9-.9-2.9-.9-2.9-.8-3-.6-3-.6-2.9-.4-3.1-.4-3.1-.2-3-.2-3v-3.1h140.6v16.5l.8-.7h.1l2.5 2.4v8.3l-.8.7h-2.9v1.4h1.9l.4-.4h3.8l.3.4.4-.4h4.6l.3.4v15l-1.9 1.8h-5.2v.4l-1.5 1.4-.7-1.2h-1.8l-.9 1.7h-.1l-1-1.7h-1.7l-1 1.7h-.1l-.9-1.7h-1.9l-.9 1.7h-.1l-1-1.7H165l-1 1.7-.9-1.7h-1.9l-1 1.7-1-1.7h-1.8l-.9 1.7h-1.8v-2.1h-4.2v6.9l-1.8 1.9h-13.1z"/><path class="st1" d="M182.2 133.3l-.3-.4h-3.8l-.4.4h-1.9v-1.4h2.9l.8-.7v-8.3l-2.5-2.4h-.1l-.8.7v-16.5H35.5v3.1l.2 3 .2 3 .4 3.1.4 3.1.6 2.9.6 3 .8 3 .9 2.9.9 2.9 1.1 2.9 1.1 2.9 1.3 2.8 1.3 2.7h-.8l-3 5.2v2.5l.8.7h7.2V152h3.7v3.4H40l-.7.8v1.8l.1.1h.6l.6 1h.1l.6-1h.6l.7 1 .6-1h.7l.6 1 .6-1h.7l.6 1v-1.5h6.8v1.5H75l.7-.7.8.7h4.2l.7-.7v-4h3.1v4l.8.7h1.1v-.5H109v.5h1.1l.7-.7v-.4l.4.4h23.3v-4.9h.4v4.9l.7.7h13.1l1.8-1.9v-6.9h4.2v2.1h1.8l.9-1.7h1.8l1 1.7 1-1.7h1.9l.9 1.7 1-1.7h1.8l1 1.7h.1l.9-1.7h1.9l.9 1.7h.1l1-1.7h1.7l1 1.7h.1l.9-1.7h1.8l.7 1.2 1.5-1.4v-.4h5.2l1.9-1.8v-15l-.3-.4h-4.6l-.4.4zM39.3 131v23.1m0 0v2.1m.7-22.8v22m9.5-1h3.7m-11.7-16.8v13.6m3-6.7v1.5m139.4-41.3h3.6m-10.6 0v15.8m.1-15.8v15.8m2.5-15.8v18.2m-1.8 9v1.4m.4-1.4v1m3.8-28.2v28.2m.3.4v-28.6m-22 47.7h.1m-25.8 6.6v-.6"/><path class="st1" d="M111.4 158.4l.6.6h22.5m53-25.7v-2.1m0 0v-26.5m-.3 28.2v-28.2m-4.6 28.2v-28.2m-6.2 46l-.9 1.7m-2.8-1.7l-1 1.7m-2.9-1.7l-.9 1.7m-2.9-1.7l-1 1.7m-2.8-1.7l-.9 1.7m-2.8-1.7l-1 1.7m288.3-45.7l.1-2.2v-2.1m-109 0v1.2l.1 1.2v1.3l.2 1.2.1 1.3.1 1.2.2 1.2.2 1.3.3 1.3.3 1.2.3 1.3.3 1.2.4 1.3.4 1.2.4 1.3.5 1.2.5 1.3.6 1.2.5 1.2.7 1.2.6 1.2.6 1.2.7 1.2.8 1.2.7 1.1.8 1.1.8 1.1.9 1.1.8 1 1 1.1.9 1 .9 1 1 1 1 .9 1 .9 1 .9 1.1.9 1 .8 1.1.8 1.2.7 1 .8 1.2.7 1.2.7 1.1.6 1.2.6 1.2.6 1.1.6 1.2.5 1.3.5 1.2.5 1.2.4 1.1.4 1.3.4 1.2.3 1.2.3 1.2.3 1.2.2 1.2.2 2.4.4 2.3.3 2.4.1 2.4.1 1.2-.1h1.2l1.3-.1 1.2-.1 1.3-.1 1.2-.2 1.2-.1 1.3-.3 1.3-.2 1.2-.3 1.3-.4 1.2-.3 1.3-.4 1.2-.4 1.3-.5 1.2-.5 1.3-.4 1.2-.6 1.2-.6 1.2-.6 1.3-.6 1.1-.7 1.2-.7 1.1-.7 1.2-.8 1.1-.8 1.1-.8 1.1-.8 1-.9 1.1-.9 1-.9.9-1 1-.9.9-1.1.9-1 1-1 .8-1.1.8-1 .8-1.1.8-1.2.7-1.1.7-1.1.7-1.2.6-1.1.7-1.2.5-1.2.6-1.2.5-1.2.5-1.2.4-1.2.4-1.2.4-1.2.4-1.2.4-1.2.2-1.2.3-1.2.2-1.2.3-1.2.3-2.4.3-2.3m-.8 0l.2-2.2m0 0v-2.1"/><path class="st1" d="M336.1 102.4v1.3l.1 1.3v1.2l.2 1.4.1 1.2.1 1.3.3 1.3.2 1.3.3 1.3.3 1.2.3 1.3.3 1.2.4 1.3.4 1.2.5 1.2.5 1.2.5 1.2.5 1.2.5 1.1.6 1.1.6 1.2.7 1.1.7 1.1.6 1.1.8 1.1.7 1.1.8 1 .7 1 .9 1 .8 1 .9 1 .9.9.8.9 1 .9.9.9 1 .9 1 .8 1 .8 1 .8 1.1.7 1.1.8 1 .7 1.1.6 1.1.7 1.2.7 1.1.5 1.2.6 1.2.6 1.2.4 1.2.6 1.1.4 1.3.4 1.2.4 1.3.4 1.2.4 1.3.3 1.2.2 1.3.3 1.3.2 1.2.2 1.3.1 1.3.2 1.3.1h1.3l1.2.1h2.7l1.3-.1 1.3-.1 1.2-.1 1.3-.2 1.3-.1 1.2-.2 1.4-.3 1.2-.3 1.3-.2 1.2-.4 1.3-.3 1.2-.4 1.2-.5 1.2-.4 1.2-.5 1.2-.5 1.2-.5 1.2-.6 1.1-.6 1.2-.6 1.1-.6 1.1-.7 1-.7 1.1-.8 1.1-.7 1-.8 1-.7 1-.9 1-.8 1-.9.9-.9.9-.9.9-1 .9-.9.8-1 .8-1 .8-1 .8-1.1.7-1 .8-1 .7-1.1.6-1.1.7-1.2.6-1.1.6-1.2.5-1.1.6-1.2.5-1.2.5-1.2.4-1.2.4-1.2.4-1.2.3-1.3.4-1.2.3-1.3.3-1.3.2-1.3.2-1.2.2-1.3.1-1.3.1-1.2"/><path class="st1" d="M343.3 127.8l-1.1-2.2-.9-2.2-.9-2.2-.8-2.2-.7-2.3-.6-2.4-.5-2.3-.4-2.4-.2-2.4-.2-2.4v-2.4"/><path class="st1" d="M343.3 127.8l-.7-1.5-.8-1.5-.7-1.5-.6-1.5-.6-1.6-.5-1.5-.5-1.6-.5-1.6-.4-1.6-.3-1.6-.4-1.6-.2-1.7-.2-1.6-.1-1.7-.2-1.6v-1.7m96.9 49.7h-.1l-.1.1-.3.2-.2.2-.4.3-.4.3-.5.3-.6.4-.6.4-.7.5-.7.5-.6.5-.7.4-.7.5-.7.5-.6.4-.7.5-.5.3-.5.4-.5.3-.4.2-.3.3-.2.1-.1.1m-86.2-52.3l-.3-.1-.1-1.6"/><path class="st1" d="M335.9 107.4l-.1-.5v-1.2l-.1-.4v-.4.6l.1.3m.2 2.8h.3"/><path class="st1" d="M335.8 106.9l.1.5v.5l.1.4m0 0v1l.1.1-.1-.2v-.6m-.2-1.7l.2 1.7m90.1 39.5l-.2.1-.2.2-.3.2-.3.2-.4.2-.4.3-.4.3-.5.4-.4.3-.5.3-.4.2-.3.3-.3.2-.2.1-.1.1h-.1"/><path class="st1" d="M426.1 148.1l.7-.5.6-.4.5-.4.5-.3.5-.3.3-.3.3-.2.2-.1.1-.1-.1.1-.1.1-.4.2-.3.3-.4.2-.5.4-.6.4-.6.4-.6.5-.7.5-.7.4-.8.6-.7.5-.8.5-.7.5-.7.5-.7.4-.6.5-.5.4-.6.3-.4.3-.3.2-.2.2-.3.2v-.1l.3-.1.2-.2.4-.3.4-.3.5-.3.6-.4.6-.4.6-.5m12.5-.4l-.1.1-.2.2-.3.1-.4.4-.5.3-.5.3-.6.4-.6.5-.7.4-.8.5-.7.5-.7.6-.7.5-.8.5-.7.5-.7.5-.6.4-.6.4-.5.4-.5.3-.4.2-.3.3-.2.1-.1.1h-.1m-80.7-57.2v2.4l.3 2.3.2 2.4.4 2.4.6 2.2.6 2.3.7 2.3.8 2.2 1 2.2 1 2.1 1.1 2.1 1.2 2 1.4 1.9 1.4 1.9 1.5 1.9 1.6 1.7 1.7 1.7 1.7 1.6 1.9 1.5 1.8 1.4 2 1.4 2 1.2 2.1 1.1 2.1 1.1 2.2.9 2.2.8 2.3.7 2.3.7 2.3.5 2.3.4 2.4.3 2.4.1h4.7l2.4-.1 2.3-.3 2.3-.4 2.4-.5 2.3-.7 2.2-.7 2.2-.8 2.2-.9 2.1-1.1 2.1-1.1 2.1-1.2 1.9-1.4 1.9-1.4 1.8-1.5 1.8-1.6 1.7-1.7 1.5-1.7 1.6-1.9 1.4-1.9 1.3-1.9 1.2-2 1.2-2.1 1.1-2.1.9-2.2.8-2.2.7-2.3.6-2.3.5-2.2.4-2.4.3-2.4.2-2.3.1-2.4"/><path class="st1" d="M341.4 102.4v2.3l.2 2.4.3 2.3.4 2.3.5 2.3.6 2.2.7 2.2.8 2.2.9 2.2 1 2 1.2 2.1 1.2 2 1.3 1.9 1.4 1.9 1.5 1.8 1.5 1.7 1.7 1.7 1.7 1.6 1.8 1.4 1.9 1.4 1.9 1.3 2 1.2 2.1 1.1 2.1 1.1 2.1.9 2.2.8 2.2.7 2.2.6 2.3.5 2.3.4 2.4.3 2.3.2h4.6l2.4-.2 2.3-.3m0 0l2.3-.4 2.3-.5 2.3-.6 2.2-.7 2.1-.8 2.2-.9 2.1-1.1 2-1.1 2-1.2 2-1.3 1.9-1.4 1.7-1.4 1.8-1.6 1.6-1.7 1.6-1.7 1.4-1.8 1.5-1.9 1.3-1.9 1.2-2 1.1-2.1 1-2 1-2.2.8-2.2.7-2.2.6-2.2.5-2.3.4-2.3.2-2.3.2-2.4.1-2.3"/><path class="st1" d="M343.9 102.4l.1 2.3.1 2.3.3 2.2.3 2.3.6 2.2.6 2.2.7 2.2.9 2.1.8 2.1 1.1 2 1.1 2.1 1.3 1.9 1.2 1.8 1.5 1.8 1.4 1.7 1.6 1.7 1.7 1.6 1.7 1.5 1.8 1.4 1.9 1.3 1.9 1.2 2 1.1 2 1.1 2.1.8 2.1.9 2.2.7 2.2.6 2.3.5 2.2.4 2.3.3 2.3.2h4.5l2.3-.2 2.2-.3 2.3-.4 2.3-.5 2.1-.6 2.2-.7 2.1-.9 2.1-.8 2.1-1.1 2-1.1 1.9-1.2 1.9-1.3 1.7-1.4 1.8-1.5 1.7-1.6 1.5-1.7 1.5-1.7 1.4-1.8 1.3-1.8 1.3-1.9 1.1-2.1 1-2 1-2.1.7-2.1.8-2.2.6-2.2.5-2.2.4-2.3.2-2.2.3-2.3v-2.3"/><path class="st1" d="M349 102.4l.2 2.1.1 2.2.3 2.2.4 2.1.5 2.1.6 2.1.7 2 .8 2 1 1.9 1 2 1.1 1.8 1.3 1.8 1.3 1.7 1.4 1.6 1.5 1.6 1.6 1.5 1.6 1.4 1.7 1.3 1.8 1.3 1.9 1.1 1.8 1 2 .9 2 .9 2 .7 2.1.6 2.2.5 2.1.4 2.1.3 2.2.1 2.1.1 2.2-.1 2.1-.1 2.2-.3 2.2-.4 2.1-.5 2-.6 2.1-.7 1.9-.9 2-.9 1.9-1 1.8-1.1 1.9-1.3 1.7-1.3 1.6-1.4 1.5-1.5 1.5-1.6 1.5-1.6 1.3-1.7 1.2-1.8 1.1-1.8 1-2 1-1.9.8-2 .7-2 .7-2.1.5-2.1.4-2.1.2-2.2.2-2.2.1-2.1m-63.4 50l-.4-.1-.3-.2-.4-.1m2.9 1.3v-.1h-.2l-.2-.1-.3-.2-.3-.1-.4-.2-.4-.2m-1.1-.4l.3.1m-.3-.1l-.5-.3-.5-.2-.4-.2-.4-.2-.3-.1-.3-.2h-.2m3.7 1.6l-.8-.3m-.3-.1l-.4.6-.6-.2"/><path class="st1" d="M366.9 152.6l-.5-.2-.3-.2-.4-.2-.3-.1h-.2l-.1-.1v-.1l.1.1.2.1.2.1.3.2.4.2m1.3-.3l-.2.8m.6.2l.4-.7m-1 .5l.4.2.4.1.4.2.3.1.2.1.1.1-.1-.1-.2-.1-.2-.1m0 0l-.4-.2-.3-.1m-.6-.2l.6.2m-30.9-50.7v2.5l.2 2.4.2 2.5.5 2.4.5 2.4.6 2.4.7 2.3.8 2.4 1 2.3 1.1 2.2 1.1 2.1 1.3 2.2 1.3 2.1 1.4 2 1.6 1.8 1.6 1.9 1.7 1.8 1.8 1.7 1.8 1.6 2 1.6 2 1.4 2 1.3 2.2 1.3 2.1 1.1 2.3 1.1 2.3.9 2.3.8 2.4.8 2.4.6 2.3.5 2.5.4 2.4.3 2.4.2h5l2.5-.2 2.4-.3 2.4-.4 2.5-.5 2.3-.6 2.4-.8 2.3-.8 2.3-.9 2.2-1.1 2.2-1.1 2.1-1.3 2.1-1.3 2-1.4 1.9-1.6 1.9-1.6 1.8-1.7 1.7-1.8 1.6-1.9 1.5-1.8 1.5-2 1.3-2.1 1.2-2.2 1.2-2.1 1-2.2 1-2.3.9-2.4.7-2.3.6-2.4.5-2.4.4-2.4.3-2.5.1-2.4.1-2.5"/><path class="st1" d="M338.9 102.4l.1 2.4.2 2.4.3 2.4.4 2.4.4 2.4.6 2.3.7 2.3.9 2.2 1 2.3 1 2.2 1.1 2.1 1.3 2.1 1.3 2 1.5 1.9 1.5 1.9 1.6 1.8 1.7 1.7 1.7 1.6 1.8 1.6 1.9 1.5 2 1.4 2.1 1.2 2.1 1.2 2.2 1.2 2.2.9 2.2.9 2.3.8 2.3.6 2.4.6 2.3.4 2.4.4 2.4.2 2.4.1h2.4l2.4-.1 2.5-.2 2.3-.4 2.4-.4 2.4-.6 2.3-.6 2.2-.8 2.3-.9 2.2-.9 2.2-1.2 2-1.2 2.1-1.2 2-1.4 1.9-1.5 1.8-1.6 1.8-1.6 1.7-1.7 1.6-1.8 1.5-1.9 1.5-1.9 1.3-2 1.2-2.1 1.2-2.1 1-2.2.9-2.3.9-2.2.7-2.3.6-2.3.5-2.4.4-2.4.3-2.4.1-2.4.1-2.4"/><path class="st1" d="M339.7 102.4v2.4l.2 2.4.3 2.3.4 2.4.5 2.3.5 2.3.8 2.3.8 2.2 1 2.2 1 2.1 1.1 2.1 1.2 2.1 1.3 1.9 1.5 2 1.5 1.8 1.5 1.8 1.7 1.7 1.7 1.6 1.8 1.6 1.9 1.4 2 1.3 2 1.3 2 1.2 2.2 1 2.1 1 2.2.9 2.3.8 2.2.6 2.4.6 2.3.4 2.4.3 2.4.3 2.4.1h2.3l2.4-.1 2.4-.3 2.3-.3 2.3-.4 2.4-.6 2.3-.6 2.2-.8 2.2-.9 2.2-1 2.1-1 2.1-1.2 2-1.3 1.9-1.3 1.9-1.4 1.8-1.6 1.7-1.6 1.7-1.7 1.6-1.8 1.5-1.8 1.4-2 1.4-1.9 1.2-2.1 1.1-2.1 1-2.1 1-2.2.8-2.2.7-2.3.6-2.3m0 0l.5-2.3.4-2.4.3-2.3.1-2.4.1-2.4M335.7 105l.3-.4m.1 4.8l.3.4m87.7 35.4l2 2.9m-6.9.5l1.9 2.9m8.7-6l3.8 5.6m-16.1 3l3.8 5.5m1.1.2l-1.1-.2m12.2-7.5l.1-1m-63.3 1.9l-.1.3m-5.3-2.8l-.2.3m.4.9l-.4-.9m4.5 2.9l1-.4m61.6-50.9l-.1-2.1-.2-2.2-.2-2.1-.4-2.2-.5-2.1-.7-2-.7-2.1-.8-2-1-1.9-1-1.9-1.1-1.9-1.2-1.7-1.3-1.8-1.5-1.6-1.5-1.6-1.5-1.4-1.6-1.5-1.7-1.3-1.9-1.2-1.8-1.2-1.9-1-2-.9-1.9-.8-2.1-.8-2-.6-2.1-.5-2.2-.4-2.2-.2-2.1-.2-2.2-.1-2.1.1-2.2.2-2.1.2-2.1.4-2.2.5-2.1.6-2 .8-2 .8-2 .9-1.8 1-1.9 1.2-1.8 1.2-1.7 1.3-1.6 1.5-1.6 1.4-1.5 1.6-1.4 1.6-1.3 1.8-1.3 1.7-1.1 1.9-1 1.9-1 1.9-.8 2-.7 2.1-.6 2-.5 2.1-.4 2.2-.3 2.1-.1 2.2-.2 2.1"/><path class="st1" d="M437 102.4v-2.3l-.3-2.2-.2-2.3-.4-2.2-.5-2.3-.6-2.2-.8-2.1-.7-2.2-1-2.1-1-2-1.1-2-1.3-1.9-1.3-1.9-1.4-1.8-1.5-1.7-1.6-1.6-1.6-1.6-1.8-1.5-1.7-1.4-1.9-1.4-1.9-1.2-2-1.1-2.1-1-2.1-.9-2.1-.8-2.2-.8-2.1-.6-2.3-.5-2.3-.3-2.2-.4-2.3-.1-2.3-.1-2.2.1-2.3.1-2.3.4-2.2.3-2.3.5-2.2.6-2.2.8-2.1.8-2.1.9-2 1-2 1.1-1.9 1.2-1.9 1.4-1.8 1.4-1.7 1.5-1.7 1.6-1.6 1.6-1.4 1.7-1.5 1.8-1.2 1.9-1.3 1.9-1.1 2-1.1 2-.8 2.1-.9 2.2-.7 2.1-.6 2.2-.6 2.3-.3 2.2-.3 2.3-.1 2.2-.1 2.3"/><path class="st1" d="M439.5 102.4l-.1-2.3-.2-2.3-.2-2.3-.4-2.4-.5-2.2-.6-2.3-.7-2.2-.8-2.2-1-2.1-1-2.2-1.1-2-1.2-2-1.3-1.9-1.5-1.9-1.4-1.8-1.6-1.7-1.6-1.6-1.8-1.6-1.7-1.5-1.9-1.4-2-1.3-2-1.2-2-1.1-2.1-1.1-2.2-.8-2.1-.9-2.2-.7-2.3-.5-2.3-.6-2.3-.4-2.3-.2-2.4-.2-2.3-.1-2.3.1-2.3.2-2.4.2-2.3.4-2.3.6-2.2.5-2.2.7-2.2.9-2.1.8-2.1 1.1-2.1 1.1-2 1.2-1.9 1.3-1.9 1.4-1.8 1.5-1.7 1.6-1.7 1.6-1.5 1.7-1.5 1.8-1.4 1.9-1.3 1.9-1.2 2-1.2 2-1 2.2-.9 2.1-.8 2.2"/><path class="st1" d="M344.1 86.4l-.7 2.2-.6 2.3-.5 2.2-.4 2.4-.3 2.3-.2 2.3v2.3"/><path class="st1" d="M440.3 102.4l-.1-2.3-.2-2.4-.3-2.3-.4-2.4-.5-2.3-.6-2.3-.7-2.3-.8-2.2-.9-2.1-1.1-2.2-1.2-2-1.2-2.1-1.3-2-1.4-1.8-1.6-1.8-1.5-1.8-1.7-1.7-1.8-1.5-1.8-1.6-1.9-1.4-1.9-1.3-2.1-1.2-2.1-1.2-2.1-1-2.2-.9-2.2-.9-2.2-.7-2.3-.6-2.4-.5-2.3-.4-2.3-.3-2.4-.2h-4.7l-2.4.2-2.4.3-2.3.4-2.3.5-2.3.6-2.3.7-2.2.9-2.2.9-2.1 1-2.1 1.2-2 1.2-2 1.3-1.8 1.4-1.9 1.6-1.7 1.5-1.7 1.7-1.6 1.8-1.5 1.8-1.4 1.8-1.4 2-1.2 2.1-1.1 2-1 2.2-1 2.1-.8 2.2-.7 2.3-.6 2.3-.6 2.3-.4 2.4-.2 2.3-.3 2.4v2.3"/><path class="st1" d="M441.2 102.4l-.1-2.4-.1-2.3-.3-2.4-.4-2.3-.5-2.4-.6-2.3-.7-2.2-.8-2.2-1-2.2-1-2.2-1.1-2-1.2-2.1-1.4-2-1.4-1.9-1.5-1.8-1.6-1.9-1.7-1.6-1.7-1.6-1.8-1.6-1.9-1.4-1.9-1.4-2-1.3-2.1-1.2-2.1-1-2.2-.9-2.2-.9-2.2-.8-2.3-.7-2.4-.5-2.3-.5-2.3-.3-2.4-.2-2.4-.1h-2.3l-2.4.1-2.4.2-2.4.3-2.3.5-2.4.5-2.2.7-2.3.8-2.2.9-2.1.9-2.2 1-2 1.2-2 1.3-2 1.4-1.9 1.4-1.8 1.6-1.7 1.6-1.7 1.6-1.5 1.9-1.5 1.8-1.5 1.9-1.3 2-1.2 2.1-1.1 2-1 2.2-1 2.2-.8 2.2-.8 2.2-.5 2.3-.5 2.4-.4 2.3-.3 2.4-.2 2.3v2.4"/><path class="st1" d="M441.9 102.4l-.1-2.4-.1-2.4-.3-2.4-.4-2.4-.5-2.3-.6-2.4-.7-2.3-.9-2.2-.9-2.3-1-2.1-1.2-2.1L434 75l-1.3-2-1.5-1.9-1.5-1.9-1.6-1.8-1.7-1.8-1.8-1.6-1.8-1.6-1.9-1.5-2-1.3-2.1-1.3-2-1.2-2.2-1.1-2.2-1-2.3-.9-2.2-.7-2.3-.7-2.4-.6-2.4-.4-2.3-.4-2.5-.2-2.4-.1h-2.4l-2.4.1-2.4.2-2.4.4-2.3.4-2.4.6-2.3.7-2.3.7-2.2.9-2.2 1-2.2 1.1-2.1 1.2-2.1 1.3-2 1.3-1.9 1.5-1.8 1.6-1.7 1.6-1.7 1.8-1.6 1.8-1.5 1.9-1.5 1.9-1.3 2-1.3 2.1-1.1 2.1-1 2.1-1 2.3-.9 2.2m0 0l-.7 2.3-.6 2.4-.4 2.3-.4 2.4-.3 2.4-.2 2.4-.1 2.4"/><path class="st1" d="M443.8 102.4l-.1-2.4-.1-2.5-.3-2.4-.4-2.5-.5-2.4-.6-2.4-.7-2.3-.9-2.3-1-2.3-1-2.2-1.2-2.2-1.2-2.1-1.3-2.1-1.5-2-1.5-1.9-1.6-1.9-1.7-1.8-1.8-1.7-1.9-1.6-1.9-1.5-2-1.4-2.1-1.4-2.1-1.3-2.2-1.1-2.2-1-2.3-1-2.3-.8-2.4-.7-2.3-.6-2.5-.6-2.4-.4-2.4-.2-2.5-.2-2.5-.1-2.5.1-2.4.2-2.4.2-2.5.4-2.3.6-2.4.6-2.4.7-2.3.8-2.3 1-2.3 1-2.1 1.1-2.2 1.3-2 1.4-2 1.4-2 1.5-1.8 1.6-1.8 1.7-1.7 1.8-1.6 1.9-1.6 1.9-1.4 2-1.3 2.1-1.3 2.1-1.1 2.2-1.1 2.2-1 2.3-.8 2.3-.7 2.3-.6 2.4-.5 2.4-.5 2.5-.2 2.4-.2 2.5v2.4"/><path class="st1" d="M444.2 102.4l-.1-2.2-.2-2.2-.2-2.2-.3-2.2-.4-2.1-.5-2.2-.6-2.1-.7-2.1-.7-2.1-.9-2-.9-2-1-1.9-1.1-2-1.2-1.8-1.2-1.8-1.4-1.8-1.3-1.7-1.5-1.7-1.5-1.6-1.7-1.5-1.5-1.4-1.8-1.4-1.7-1.4-1.9-1.2-1.8-1.2-2-1-1.9-1.1-2-.9-2.1-.9-2-.7-2.1-.7-2.1-.5M337 102.4V100l.2-2.4.3-2.5.3-2.3.5-2.4.6-2.4.8-2.4.8-2.3.9-2.2 1.1-2.2 1-2.2 1.2-2.1 1.4-2 1.4-2 1.5-1.9 1.6-1.9 1.6-1.7 1.8-1.8 1.8-1.6 1.9-1.5 2-1.5 2-1.4 2.1-1.2 2.1-1.2 2.2-1 2.3-1 2.2-.8 2.3-.8 2.4-.7 2.4-.5 2.4-.5 2.4-.2 2.4-.3 2.4-.1h2.5l2.5.2 2.4.2 2.4.3 2.4.5 2.4.6"/><path class="st1" d="M336.6 102.4v-2.1l.1-2.1.1-1.4.2-1.4.1-1.4.3-1.4.2-1.4.3-1.4.3-1.3.4-1.4.4-1.4.4-1.3.5-1.3.5-1.3.5-1.3.6-1.3.6-1.3.7-1.2.6-1.3.8-1.2.7-1.2.7-1.2.8-1.1.9-1.2.8-1.1.9-1.1.9-1.1 1-1 .9-1.1 1-1 1-.9 1.1-1 1-.9 1.1-.9-1.7 1.4-1.6 1.5-1.7 1.5-1.6 1.8-1.7 1.8-1.4 1.9-1.5 1.9-1.3 2-1.3 2.1-1.1 2.2-1 2.1-1 2.2-.9 2.2-.7 2.3-.7 2.3-.5 2.4-.5 2.4-.3 2.3-.3 2.5m0 0l-.1 2.1v2.1"/><path class="st1" d="M444.9 102.4v-1.7l-.1-1.8-.1-1.8-.3-1.9-.2-1.7-.4-1.9-.4-1.8-.5-1.9-.5-1.8-.6-1.8-.7-1.8-.7-1.8-.8-1.8-.9-1.8-1-1.7-1-1.7-1.1-1.7-1.1-1.6-1.2-1.6-1.3-1.5-1.3-1.5-1.3-1.5-1.5-1.4-1.4-1.3-1.6-1.3-1.5-1.2-1.6-1.2-1.7-1.1-1.6-1-1.7-1-1.7-.9-1.7-.9-1.7-.7-1.8-.7-1.8-.6-1.7-.6-1.8-.5-1.7-.5-1.8-.3-1.7-.4-1.7-.2-1.7-.3-1.8-.1-1.7-.1H389l-1.8.1-1.8.1-1.8.3-1.9.2-1.8.3-1.8.4-1.9.5-1.8.5-1.8.6-1.8.6-1.8.8-1.9.8-1.7.9-1.7.9-1.8 1-1.6 1.1-1.6 1.1-1.7 1.2m-20.9 38.8l-.1 2.1-.1 2.1M352 63.8l-.9.9-.8.9-.9 1-.9 1-.7 1-.8 1-.7 1-.8 1-.7 1.1-.6 1-.7 1-.7 1.2-1.1 2.2-1.1 2.1-.9 2.3-.8 2.2-.7 2.3-.7 2.3-.5 2.2-.4 2.2-.3 2.3-.2 2.2M414 53.3l.1-.1m-.1 0l.4.2.4.1.3.2.3.1.1.1h.1l-.2-.1-.2-.1-.3-.2-.4-.1-.5-.2m-1.1-.3l.1-.2m0 0l-.1.1m.1-.1l-.4-.2-.4-.2-.3-.1-.2-.1-.2-.1.2.1.2.1.3.1.3.2.5.2m-57.3 5.6l.2-.1.2-.1.2-.2.3-.2.4-.4.5-.2.5-.3.4-.3.4-.4.5-.3.4-.2.3-.2.3-.2.2-.2.1-.1h.1"/><path class="st1" d="M355.7 58.4l-.7.5-.6.3-.6.5-.4.3-.5.3-.4.2-.2.2-.2.1-.1.1.1-.1.2-.1.2-.2.3-.2.5-.3.4-.3.6-.5.6-.4.7-.4.7-.5.7-.6.8-.5.7-.5.8-.5.7-.5.7-.4.7-.5.6-.4.5-.4.5-.3.5-.3.3-.3.2-.2.3-.1v-.1.2l-.3.1-.2.2-.4.2-.4.3-.5.4-.6.4-.6.4-.6.5m-12.5.3l.1-.1.2-.2.3-.1.4-.3.5-.4.5-.3.6-.5.6-.4.7-.5.7-.4.7-.6.8-.5.7-.5.8-.5.7-.4.7-.5.6-.5.6-.4m0 0l.6-.3.4-.4.4-.2.3-.2.2-.2.2-.1m-12.2 7.5h.1l.1-.1.2-.2.3-.2.4-.3.4-.3.6-.3.5-.4.6-.4.6-.5.7-.5.7-.5.7-.4.7-.5.7-.5.6-.4.6-.4.6-.4.6-.4.4-.3.4-.2.2-.2.3-.2.1-.1h.1m85.1 48.6v.4l.1.5v.5l.1.6v.6l.1.5v1l.1.4.1.3v.5m-.5-5.9v.6m-.1-.7l.1.1v.6l.8.6.4 3.8"/><path class="st1" d="M445.4 95.8v.4l.1.4v.5l.1.5v.5l.1.5v.7l.1.2v.2-.1m-.4-4.4l-.8-.6"/><path class="st1" d="M445.7 99v-.4l-.1-.4v-.4l-.1-.5v-.9l-.1-.4v-.8h-.1.1m.3 3.8l-.3-3.8m-29.8-41.3l.1.3m-4.2-2.2l-.3.1m-54.6 7.6l-.9-1.4m5.9-2l-.9-1.4m-8.7 6l-3.8-5.6m16.1-3l-3.8-5.5m-1-.2l1 .2m-12.2 7.5l-.1 1m96.2 39.2h.1m.4 6h.2m.7-.8l-.7.8m.2-5.3l-.8-.7"/><path class="st2" d="M177.5 104.7l3.1-3.1m-20 3.1l23.3-23.3m-40.2 23.3l43.7-43.6m-60.5 43.6l47-47m-63.9 47l46-46m-62.9 46l54.5-54.4m-71.4 54.4L130 51m-70.6 53.7L113.1 51m-70.6 53.7l53.9-53.9M41.4 89l38.7-38.7M49.6 63.9l13.6-13.6m-20.5 3.6l2.6-2.6m.9-.8l.2-.2m1.4 107.3l-2.2-2.2m-1-1l-3.1-3.1m24.7 7.8L40 133m41.4 24.5l-45.6-45.6m63.6 46.7l-53.9-53.9m70.6 53.7l-53.7-53.7m70.6 53.7l-53.8-53.7m70.5 53.5l-53.6-53.5m64.3 47.4l-.8-.9m-.6-.5l-46-46m63.2 46.3l-46.4-46.3m57.7 40.8l-40.8-40.8m29.4 12.5l-12.5-12.5"/><path d="M213.8 107.4l5.3-5.4m-5.3 0l5.3 5.4m171.9-69h-2.8m-5.7.5l-2.1.2-2.6.5-.9.2m-5.5 1.5l-1.3.3-2.5.9-1.5.7m-5.2 2.3l-.5.3-2.3 1.2-2.1 1.3m-4.7 3.2l-1.9 1.5-2.1 1.7-.4.4m-4 4l-1.1 1.3-1.7 2-.9 1m-3.3 4.6l-.5.9-1.3 2.2-1 1.8m-2.5 5.2h0l-1 2.6" fill="none" stroke="#000" stroke-width=".451" stroke-linecap="round" stroke-linejoin="round" stroke-miterlimit="10"/><defs><path id="SVGID_1_" d="M0 0h459.5v200.9H0z"/></defs><clipPath id="SVGID_2_"><use xlink:href="#SVGID_1_" overflow="visible"/></clipPath><path d="M10.1 115.4c0-.2.1-.3.3-.3h5.9c.2 0 .3.1.3.3 0 .2-.1.3-.3.3h-4.8l2 1.3c.1.1.2.2.2.3 0 .1-.1.2-.2.3l-2 1.3h4.8c.2 0 .3.1.3.3 0 .2-.1.3-.3.3h-5.9c-.2 0-.3-.1-.3-.3 0-.1.1-.2.2-.3l2.5-1.7-2.5-1.7c-.2.1-.2 0-.2-.1m0-3.3c0-.5.2-.8.5-1.2.3-.3.7-.5 1.2-.5.3 0 .6.1.9.3l3.3 2.1v-2c0-.2.1-.3.3-.3.2 0 .3.1.3.3v2.6c0 .2-.1.3-.3.3-.1 0-.1 0-.2-.1l-3.9-2.4c-.2-.1-.4-.2-.5-.2-.3 0-.5.1-.7.3-.2.2-.3.4-.3.7 0 .4.3.7.8 1 .1.1.2.2.2.3 0 .2-.1.3-.3.3h-.1c-.9-.3-1.2-.9-1.2-1.5m6.5-3.9c0 .1 0 .2-.1.2-.1.1-.2.1-.2.1-.2 0-.3-.1-.3-.2l-.3-.6c-.5-.7-1-1.1-1.7-1.2v1c0 .5-.2.8-.5 1.1-.3.3-.7.5-1.2.5h-.7c-.5 0-.8-.2-1.1-.5s-.5-.7-.5-1.2.2-.8.5-1.2c.3-.3.7-.5 1.1-.5h2c1.1 0 2 .5 2.6 1.6.3.5.4.7.4.9m-3.3-1.7h-1.6c-.3 0-.5.1-.7.3-.2.2-.3.4-.3.7 0 .3.1.5.3.7s.4.3.7.3h.7c.3 0 .5-.1.7-.3.2-.2.3-.4.3-.7l-.1-1zm1-4l1.8-1.2c.1 0 .1-.1.2-.1.2 0 .3.1.3.3 0 .1 0 .2-.1.3l-1.6 1 1.6 1c.1.1.2.2.2.3 0 .1 0 .2-.1.2-.1.1-.2.1-.2.1h-.2l-1.8-1.2-1.8 1.2c-.1 0-.1.1-.2.1-.2 0-.3-.1-.3-.3 0-.1 0-.2.1-.3l1.6-1-1.5-1c-.1-.1-.2-.2-.2-.3 0-.2.1-.3.3-.3.1 0 .1 0 .2.1l1.7 1.1zm-1-5.8c.8 0 1.4.1 2 .3.8.3 1.2.7 1.2 1.4s-.4 1.1-1.2 1.4c-.6.2-1.3.3-2 .3-.8 0-1.5-.1-2-.3-.8-.3-1.2-.7-1.2-1.4s.4-1.1 1.3-1.4c.5-.2 1.2-.3 1.9-.3m0 .6c-.5 0-1.1.1-1.5.2-.7.2-1.1.5-1.1.8 0 .4.4.6 1.1.8.5.1 1 .2 1.5.2s1.1-.1 1.5-.2c.7-.2 1.1-.5 1.1-.8 0-.4-.4-.6-1.1-.8-.4-.1-.9-.2-1.5-.2M13 93h-2.6c-.2 0-.3-.1-.3-.3v-2.3c0-.2.1-.3.3-.3s.3.1.3.3v2h2v-1c0-.5.2-.8.5-1.2.3-.3.7-.5 1.1-.5h.7c.5 0 .8.2 1.2.5.3.3.5.7.5 1.2v1.3c0 .2-.1.3-.3.3-.2 0-.3-.1-.3-.3v-1.3c0-.3-.1-.5-.3-.7s-.4-.3-.7-.3h-.7c-.3 0-.5.1-.7.3s-.3.4-.3.7v1.3c-.1.2-.2.3-.4.3" clip-path="url(#SVGID_2_)"/><defs><path id="SVGID_3_" d="M0 0h459.5v200.9H0z"/></defs><clipPath id="SVGID_4_"><use xlink:href="#SVGID_3_" overflow="visible"/></clipPath><path d="M20.5 154.4v4.7" clip-path="url(#SVGID_4_)" fill="none" stroke="#000" stroke-width=".319" stroke-linecap="round" stroke-linejoin="round" stroke-miterlimit="10"/><defs><path id="SVGID_5_" d="M0 0h459.5v200.9H0z"/></defs><clipPath id="SVGID_6_"><use xlink:href="#SVGID_5_" overflow="visible"/></clipPath><path d="M19.6 154.4l.9 4.7 1-4.7h-1.9z" clip-path="url(#SVGID_6_)" fill-rule="evenodd" clip-rule="evenodd"/><defs><path id="SVGID_7_" d="M0 0h459.5v200.9H0z"/></defs><clipPath id="SVGID_8_"><use xlink:href="#SVGID_7_" overflow="visible"/></clipPath><path d="M19.6 154.4l.9 4.7 1-4.7h-1.9z" clip-path="url(#SVGID_8_)" fill="none" stroke="#000" stroke-width=".319" stroke-linecap="round" stroke-linejoin="round" stroke-miterlimit="10"/><defs><path id="SVGID_9_" d="M0 0h459.5v200.9H0z"/></defs><clipPath id="SVGID_10_"><use xlink:href="#SVGID_9_" overflow="visible"/></clipPath><path d="M19.6 154.4l.9 4.7 1-4.7h-1.9z" clip-path="url(#SVGID_10_)" fill-rule="evenodd" clip-rule="evenodd" fill="#fff" fill-opacity="0"/><defs><path id="SVGID_11_" d="M0 0h459.5v200.9H0z"/></defs><clipPath id="SVGID_12_"><use xlink:href="#SVGID_11_" overflow="visible"/></clipPath><path d="M19.6 154.4l.9 4.7 1-4.7h-1.9zm.9-99.4v-4.7" clip-path="url(#SVGID_12_)" fill="none" stroke="#000" stroke-width=".319" stroke-linecap="round" stroke-linejoin="round" stroke-miterlimit="10"/><defs><path id="SVGID_13_" d="M0 0h459.5v200.9H0z"/></defs><clipPath id="SVGID_14_"><use xlink:href="#SVGID_13_" overflow="visible"/></clipPath><path d="M21.5 55l-1-4.7-.9 4.7h1.9z" clip-path="url(#SVGID_14_)" fill-rule="evenodd" clip-rule="evenodd"/><defs><path id="SVGID_15_" d="M0 0h459.5v200.9H0z"/></defs><clipPath id="SVGID_16_"><use xlink:href="#SVGID_15_" overflow="visible"/></clipPath><path d="M21.5 55l-1-4.7-.9 4.7h1.9z" clip-path="url(#SVGID_16_)" fill="none" stroke="#000" stroke-width=".319" stroke-linecap="round" stroke-linejoin="round" stroke-miterlimit="10"/><defs><path id="SVGID_17_" d="M0 0h459.5v200.9H0z"/></defs><clipPath id="SVGID_18_"><use xlink:href="#SVGID_17_" overflow="visible"/></clipPath><path d="M21.5 55l-1-4.7-.9 4.7h1.9z" clip-path="url(#SVGID_18_)" fill-rule="evenodd" clip-rule="evenodd" fill="#fff" fill-opacity="0"/><defs><path id="SVGID_19_" d="M0 0h459.5v200.9H0z"/></defs><clipPath id="SVGID_20_"><use xlink:href="#SVGID_19_" overflow="visible"/></clipPath><path d="M21.5 55l-1-4.7-.9 4.7h1.9zm-1 99.4V55m20.1 104.1H18.7M48.2 50.3H18.7" clip-path="url(#SVGID_20_)" fill="none" stroke="#000" stroke-width=".319" stroke-linecap="round" stroke-linejoin="round" stroke-miterlimit="10"/><defs><path id="SVGID_21_" d="M0 0h459.5v200.9H0z"/></defs><clipPath id="SVGID_22_"><use xlink:href="#SVGID_21_" overflow="visible"/></clipPath><path d="M89.7 86.1c-.6 0-.9-.3-.9-.9V68.3c0-.6.3-.9.9-.9s.9.3.9.9v16.9c0 .6-.3.9-.9.9m4.7-1V73.9c0-.6.3-.9.9-.9h4.7c1.1 0 1.9.4 2.7 1.1.7.7 1.1 1.6 1.1 2.7v8.4c0 .6-.3.9-.9.9s-.9-.3-.9-.9v-8.4c0-.5-.2-1-.5-1.3-.4-.4-.8-.5-1.3-.5h-3.8v10.3c0 .6-.3.9-.9.9-.8-.1-1.1-.4-1.1-1.1m14-12.1h.9v-1.9c0-1.1.4-1.9 1.1-2.6s1.6-1.1 2.6-1.1h.9c.6 0 .9.3.9.9s-.3.9-.9.9h-.9c-.5 0-1 .2-1.3.6-.4.4-.5.8-.5 1.3V73h2.8c.6 0 .9.3.9.9s-.3.9-.9.9h-2.8v10.3c0 .6-.3.9-.9.9s-.9-.3-.9-.9V74.8h-.9c-.6 0-.9-.3-.9-.9s.2-.9.8-.9m10.4 11.2c0-.6.3-.9.9-.9s.9.3.9.9v.9c0 .6-.3.9-.9.9s-.9-.3-.9-.9v-.9zm-23.5 39.9c.6 0 .9.3.9.9v16.9c0 .6-.3.9-.9.9s-.9-.3-.9-.9v-13.8l-3.8 5.7c-.3.4-.5.6-.9.6-.3 0-.6-.2-.9-.6l-3.8-5.7v13.8c0 .6-.3.9-.9.9s-.9-.3-.9-.9V125c0-.6.3-.9.9-.9.3 0 .6.2.8.5l4.8 7.2 4.8-7.3c.2-.2.5-.4.8-.4m16 13.1c0 1.6-.5 2.9-1.7 4-1.1 1.1-2.4 1.7-4 1.7s-2.9-.5-4-1.7c-1.1-1.1-1.7-2.4-1.7-4v-7.5c0-1.6.5-2.9 1.7-4 1.1-1.1 2.4-1.7 4-1.7s2.9.5 4 1.7c1.1 1.1 1.6 2.4 1.6 4l.1 7.5zm-1.9 0v-7.5c0-1.1-.4-1.9-1.1-2.7-.7-.7-1.6-1.1-2.6-1.1-1.1 0-2 .4-2.7 1.1s-1.1 1.6-1.1 2.7v7.5c0 1.1.4 2 1.1 2.7s1.6 1.1 2.7 1.1 1.9-.4 2.6-1.1c.7-.7 1.1-1.6 1.1-2.7m7.5-11.2v15h4.7c.8 0 1.4-.3 2-.8.5-.5.8-1.2.8-2v-9.4c0-.8-.3-1.4-.8-2-.5-.5-1.2-.8-2-.8h-4.7zm-1.8-1c0-.6.3-.9.9-.9h5.6c1.3 0 2.4.5 3.3 1.4s1.4 2 1.4 3.3v9.4c0 1.3-.5 2.4-1.4 3.3-.9.9-2 1.4-3.3 1.4H116c-.6 0-.9-.3-.9-.9v-17zm-45.6 41.8c.5 0 .8.2 1.2.5s.5.7.5 1.2c0 .3-.1.6-.3.9l-2.1 3.3h2c.2 0 .3.1.3.3s-.1.3-.3.3h-2.6c-.2 0-.3-.1-.3-.3 0-.1 0-.1.1-.2l2.4-3.8c.1-.2.2-.4.2-.5 0-.3-.1-.5-.3-.7-.2-.2-.4-.3-.7-.3-.4 0-.7.3-1 .8-.1.1-.2.2-.3.2-.2 0-.3-.1-.3-.3v-.1c.3-.9.8-1.3 1.5-1.3m3.9 6.5c-.1 0-.2 0-.2-.1-.1-.1-.1-.1-.1-.2 0-.2.1-.2.2-.3l.6-.3c.7-.5 1.1-1 1.2-1.7h-1c-.5 0-.8-.2-1.1-.5-.3-.3-.5-.7-.5-1.1v-.7c0-.5.2-.8.5-1.2.3-.3.7-.5 1.1-.5.5 0 .8.2 1.2.5.3.3.5.7.5 1.1v2c0 1.1-.5 2-1.6 2.6-.4.3-.7.4-.8.4m1.6-3.2v-1.6c0-.3-.1-.5-.3-.7-.2-.2-.4-.3-.7-.3-.3 0-.5.1-.7.3s-.3.4-.3.7v.7c0 .3.1.5.3.7.2.2.4.3.7.3l1-.1zm6.6-3.3c.2 0 .3.1.3.3s-.1.3-.2.3c-.5.1-.9.4-1.3.9-.3.4-.5.7-.5 1.1h1c.5 0 .8.2 1.2.5.3.3.5.7.5 1.2v.7c0 .5-.2.8-.5 1.2-.3.3-.7.5-1.1.5-.5 0-.8-.2-1.2-.5-.3-.3-.5-.7-.5-1.1v-2c0-.8.3-1.4.8-2 .4-.4.8-.8 1.3-.9 0-.2.1-.2.2-.2m-1.7 3.3v1.6c0 .3.1.5.3.7.2.2.4.3.7.3.3 0 .5-.1.7-.3s.3-.4.3-.7v-.7c0-.3-.1-.5-.3-.7-.2-.2-.4-.3-.7-.3l-1 .1zm8.6 0c0 .7.1 1.3.2 2 .1.4.2.9.5 1.5v.1c0 .1 0 .2-.1.2-.1.1-.2.1-.2.1-.1 0-.2 0-.3-.2-.2-.4-.3-.9-.5-1.6-.1-.7-.2-1.4-.2-2.1 0-.7.1-1.4.2-2.1.2-.7.3-1.2.5-1.6.1-.1.2-.2.3-.2.2 0 .3.1.3.3v.1c-.2.6-.4 1.1-.5 1.5-.2.6-.2 1.3-.2 2m1.9 2.9v-5.9c0-.2.1-.3.3-.3s.3.1.3.3v2.3h2.6v-2.3c0-.2.1-.3.3-.3.2 0 .3.1.3.3v5.9c0 .2-.1.3-.3.3-.2 0-.3-.1-.3-.3v-2.9H91v2.9c0 .2-.1.3-.3.3s-.3-.1-.3-.3m8-1.3v-1.3c0-.3-.1-.5-.3-.7-.2-.2-.4-.3-.7-.3-.3 0-.5.1-.7.3s-.3.4-.3.7v1.3c0 .3.1.5.3.7.2.2.4.3.7.3.3 0 .5-.1.7-.3s.3-.4.3-.7m-2.7 0v-1.3c0-.5.2-.8.5-1.1s.7-.5 1.2-.5.8.2 1.2.5c.3.3.5.7.5 1.2v1.3c0 .5-.2.8-.5 1.2s-.7.5-1.1.5c-.5 0-.8-.2-1.2-.5-.4-.5-.6-.9-.6-1.3m7.9-2.6v3.9c0 .2-.1.3-.3.3h-1.6c-.4 0-.7-.1-.9-.4-.3-.2-.4-.6-.4-.9v-2.9c0-.2.1-.3.3-.3.2 0 .3.1.3.3v2.9c0 .2.1.3.2.5.1.1.3.2.5.2h1.3v-3.6c0-.2.1-.3.3-.3.2-.1.3.1.3.3m3.9 3.1c0-.2-.1-.4-.3-.4l-1.7-.8c-.5-.2-.7-.5-.7-1 0-.4.2-.7.5-.9s.6-.3 1-.3c.5 0 .9.1 1.3.4.1.1.2.2.2.3s0 .2-.1.2c-.1.1-.1.1-.2.1s-.1 0-.2-.1c-.3-.2-.7-.3-1-.3-.5 0-.8.2-.8.5 0 .2.1.4.3.5l1.7.8c.4.2.7.6.7 1s-.2.7-.5.9-.6.2-1 .2c-.6 0-1.2-.1-1.6-.4-.1-.1-.2-.2-.2-.3s0-.2.1-.2c.1-.1.1-.1.2-.1h.1c.1.1.3.1.5.2.3.1.6.1.9.1.5.1.8-.1.8-.4m2.1-4.8v-.3c0-.2.1-.3.3-.3.2 0 .3.1.3.3v.3c0 .2-.1.3-.3.3-.2.1-.3 0-.3-.3m0 1.7c0-.2.1-.3.3-.3.2 0 .3.1.3.3v3.9c0 .2-.1.3-.3.3-.2 0-.3-.1-.3-.3v-3.9zm1.9 3.9v-3.9c0-.2.1-.3.3-.3h1.6c.4 0 .7.1.9.4.2.3.4.6.4.9v2.9c0 .2-.1.3-.3.3-.2 0-.3-.1-.3-.3v-2.9c0-.2-.1-.3-.2-.5-.1-.1-.3-.2-.5-.2h-1.3v3.6c0 .2-.1.3-.3.3-.2 0-.3-.1-.3-.3m7.2-3.6h-1.3c-.2 0-.3.1-.5.2-.1.1-.2.3-.2.5v2c0 .2.1.3.2.5.1.1.3.2.5.2h1.3v-3.4zm.3-.7c.2 0 .3.1.3.3v4.9c0 .4-.1.7-.4.9s-.6.4-.9.4h-1.3c-.2 0-.3-.1-.3-.3s.1-.3.3-.3h1.3c.2 0 .3-.1.5-.2.1-.1.2-.3.2-.5v-.7h-1.3c-.5 0-.9-.2-1.1-.6-.1-.2-.2-.4-.2-.7v-2c0-.4.1-.7.4-.9.2-.2.6-.4.9-.4h1.6v.1zm2.4 1.4c0-.7-.1-1.3-.2-2-.1-.4-.2-.9-.5-1.5v-.1c0-.1 0-.2.1-.2.1-.1.2-.1.2-.1.1 0 .2 0 .3.2.2.4.4.9.5 1.6.2.7.2 1.4.2 2.1 0 .7-.1 1.4-.2 2.1-.1.7-.3 1.2-.5 1.6 0 .1-.1.2-.3.2-.1 0-.2 0-.2-.1-.1-.1-.1-.2-.1-.2v-.1c.2-.7.4-1.2.5-1.5.1-.7.2-1.4.2-2" clip-path="url(#SVGID_22_)"/><defs><path id="SVGID_23_" d="M0 0h459.5v200.9H0z"/></defs><clipPath id="SVGID_24_"><use xlink:href="#SVGID_23_" overflow="visible"/></clipPath><path d="M145.9 177.9h4.6" clip-path="url(#SVGID_24_)" fill="none" stroke="#000" stroke-width=".319" stroke-linecap="round" stroke-linejoin="round" stroke-miterlimit="10"/><defs><path id="SVGID_25_" d="M0 0h459.5v200.9H0z"/></defs><clipPath id="SVGID_26_"><use xlink:href="#SVGID_25_" overflow="visible"/></clipPath><path d="M145.9 178.9l4.6-1-4.6-.9v1.9z" clip-path="url(#SVGID_26_)" fill-rule="evenodd" clip-rule="evenodd"/><defs><path id="SVGID_27_" d="M0 0h459.5v200.9H0z"/></defs><clipPath id="SVGID_28_"><use xlink:href="#SVGID_27_" overflow="visible"/></clipPath><path d="M145.9 178.9l4.6-1-4.6-.9v1.9z" clip-path="url(#SVGID_28_)" fill="none" stroke="#000" stroke-width=".319" stroke-linecap="round" stroke-linejoin="round" stroke-miterlimit="10"/><defs><path id="SVGID_29_" d="M0 0h459.5v200.9H0z"/></defs><clipPath id="SVGID_30_"><use xlink:href="#SVGID_29_" overflow="visible"/></clipPath><path d="M145.9 178.9l4.6-1-4.6-.9v1.9z" clip-path="url(#SVGID_30_)" fill-rule="evenodd" clip-rule="evenodd" fill="#fff" fill-opacity="0"/><defs><path id="SVGID_31_" d="M0 0h459.5v200.9H0z"/></defs><clipPath id="SVGID_32_"><use xlink:href="#SVGID_31_" overflow="visible"/></clipPath><path d="M145.9 178.9l4.6-1-4.6-.9v1.9zm-101.9-1h-4.7" clip-path="url(#SVGID_32_)" fill="none" stroke="#000" stroke-width=".319" stroke-linecap="round" stroke-linejoin="round" stroke-miterlimit="10"/><defs><path id="SVGID_33_" d="M0 0h459.5v200.9H0z"/></defs><clipPath id="SVGID_34_"><use xlink:href="#SVGID_33_" overflow="visible"/></clipPath><path d="M44 177l-4.7.9 4.7 1V177z" clip-path="url(#SVGID_34_)" fill-rule="evenodd" clip-rule="evenodd"/><defs><path id="SVGID_35_" d="M0 0h459.5v200.9H0z"/></defs><clipPath id="SVGID_36_"><use xlink:href="#SVGID_35_" overflow="visible"/></clipPath><path d="M44 177l-4.7.9 4.7 1V177z" clip-path="url(#SVGID_36_)" fill="none" stroke="#000" stroke-width=".319" stroke-linecap="round" stroke-linejoin="round" stroke-miterlimit="10"/><defs><path id="SVGID_37_" d="M0 0h459.5v200.9H0z"/></defs><clipPath id="SVGID_38_"><use xlink:href="#SVGID_37_" overflow="visible"/></clipPath><path d="M44 177l-4.7.9 4.7 1V177z" clip-path="url(#SVGID_38_)" fill-rule="evenodd" clip-rule="evenodd" fill="#fff" fill-opacity="0"/><defs><path id="SVGID_39_" d="M0 0h459.5v200.9H0z"/></defs><clipPath id="SVGID_40_"><use xlink:href="#SVGID_39_" overflow="visible"/></clipPath><path d="M44 177l-4.7.9 4.7 1V177zm101.9.9H44M39.3 158v21.8m111.2-22.6v22.6" clip-path="url(#SVGID_40_)" fill="none" stroke="#000" stroke-width=".319" stroke-linecap="round" stroke-linejoin="round" stroke-miterlimit="10"/><defs><path id="SVGID_41_" d="M0 0h459.5v200.9H0z"/></defs><clipPath id="SVGID_42_"><use xlink:href="#SVGID_41_" overflow="visible"/></clipPath><path d="M73.5 185.7h-.7c-.2 0-.3-.1-.3-.3s.1-.3.3-.3h.7c.3 0 .5-.1.7-.3s.3-.4.3-.7-.1-.5-.3-.7c-.2-.2-.4-.3-.7-.3h-1.3c-.2 0-.3-.1-.3-.3s.1-.3.3-.3h1.3c.5 0 .8.2 1.2.5.3.3.5.7.5 1.2s-.2 1-.6 1.3c.4.3.6.8.6 1.3v.7c0 .5-.2.8-.5 1.2-.3.3-.7.5-1.2.5h-1.3c-.2 0-.3-.1-.3-.3s.1-.3.3-.3h1.3c.3 0 .5-.1.7-.3s.3-.4.3-.7v-.7c0-.3-.1-.5-.3-.7s-.4-.5-.7-.5m6.2 0c0 .8-.1 1.4-.3 2-.3.8-.7 1.2-1.4 1.2s-1.1-.4-1.4-1.2c-.2-.6-.3-1.2-.3-2s.1-1.5.3-2c.3-.8.7-1.3 1.4-1.3s1.1.4 1.4 1.3c.2.5.3 1.2.3 2m-.6 0c0-.5-.1-1.1-.2-1.5-.2-.7-.5-1.1-.8-1.1-.4 0-.6.4-.8 1.1-.1.5-.2 1-.2 1.5s.1 1.1.2 1.5c.2.7.4 1.1.8 1.1s.6-.4.8-1.1c.1-.5.2-1 .2-1.5m6.6-3.3c.2 0 .3.1.3.3s-.1.2-.2.3c-.5.1-.9.4-1.3.9-.3.4-.5.8-.5 1.1h1c.5 0 .9.2 1.2.5.3.3.5.7.5 1.2v.7c0 .5-.2.8-.5 1.2-.3.3-.7.5-1.2.5s-.8-.2-1.2-.5c-.3-.3-.5-.7-.5-1.1v-2c0-.7.2-1.4.7-2 .4-.4.8-.7 1.3-.9.2-.2.3-.2.4-.2m-1.7 3.3v1.6c0 .3.1.5.3.7.2.2.4.3.7.3.3 0 .5-.1.7-.3s.3-.4.3-.7v-.7c0-.3-.1-.5-.3-.7s-.4-.3-.7-.3l-1 .1zm8.6 0c0 .7.1 1.3.2 2 .1.4.2.9.5 1.5v.1c0 .1 0 .2-.1.2-.1.1-.2.1-.2.1-.1 0-.2-.1-.3-.2-.2-.4-.3-.9-.5-1.6-.2-.7-.2-1.4-.2-2.1 0-.7.1-1.4.2-2.1.1-.7.3-1.3.5-1.6.1-.1.2-.2.3-.2.2 0 .3.1.3.3v.1c-.2.6-.4 1.1-.5 1.5-.1.7-.2 1.3-.2 2m1.9-3c0-.2.1-.3.3-.3.2 0 .3.1.3.3v5.6h2.3c.2 0 .3.1.3.3s-.1.3-.3.3h-2.6c-.2 0-.3-.1-.3-.3v-5.9zm5.3 4.3v.6c0 .2.1.3.2.5.1.1.3.2.5.2h1.7c.2 0 .3.1.3.3s-.1.3-.3.3h-1.7c-.4 0-.7-.1-.9-.4-.3-.2-.4-.6-.4-.9V186c0-.5.2-.8.5-1.1s.7-.5 1.2-.5.8.2 1.2.5.5.7.5 1.2v1h-2.8v-.1zm1-2c-.3 0-.5.1-.7.3s-.3.4-.3.7v.3h2v-.3c0-.3-.1-.5-.3-.7s-.5-.3-.7-.3m2.9 3.6v-3.9c0-.2.1-.3.3-.3h1.7c.4 0 .7.1.9.4.3.3.4.6.4.9v2.9c0 .2-.1.3-.3.3s-.3-.1-.3-.3v-2.9c0-.2-.1-.3-.2-.5-.1-.1-.3-.2-.5-.2h-1.3v3.6c0 .2-.1.3-.3.3-.3 0-.4-.1-.4-.3m7.3-.8c0-.2-.1-.4-.3-.5l-1.7-.8c-.5-.2-.7-.5-.7-1 0-.4.2-.7.5-.9s.6-.3 1-.3c.5 0 .9.1 1.3.4.1.1.2.2.2.3s0 .2-.1.2c-.1.1-.1.1-.2.1h-.2c-.3-.2-.6-.3-1-.3-.5 0-.8.2-.8.5 0 .2.1.4.3.4l1.7.8c.4.2.7.6.7 1s-.2.7-.5.9-.6.2-1 .2c-.6 0-1.2-.1-1.6-.4-.1-.1-.2-.2-.2-.3s0-.2.1-.2c.1-.1.1-.1.2-.1h.1c.1.1.3.1.5.2.3.1.6.1.9.1.5.2.8 0 .8-.3m2.6-2.1c0-.7-.1-1.3-.2-2-.1-.4-.2-.9-.5-1.5v-.1c0-.1 0-.2.1-.2.1-.1.2-.1.2-.1.1 0 .2.1.3.2.2.4.3.9.5 1.6.2.7.2 1.4.2 2.1 0 .7-.1 1.4-.2 2.1-.1.7-.3 1.2-.5 1.6-.1.1-.2.2-.3.2-.1 0-.2 0-.2-.1-.1-.1-.1-.2-.1-.2v-.1c.2-.6.4-1.1.5-1.5.1-.7.2-1.4.2-2" clip-path="url(#SVGID_42_)"/><defs><path id="SVGID_43_" d="M0 0h459.5v200.9H0z"/></defs><clipPath id="SVGID_44_"><use xlink:href="#SVGID_43_" overflow="visible"/></clipPath><path d="M145.9 192.9h4.6" clip-path="url(#SVGID_44_)" fill="none" stroke="#000" stroke-width=".319" stroke-linecap="round" stroke-linejoin="round" stroke-miterlimit="10"/><defs><path id="SVGID_45_" d="M0 0h459.5v200.9H0z"/></defs><clipPath id="SVGID_46_"><use xlink:href="#SVGID_45_" overflow="visible"/></clipPath><path d="M145.9 193.9l4.6-1-4.6-.9v1.9z" clip-path="url(#SVGID_46_)" fill-rule="evenodd" clip-rule="evenodd"/><defs><path id="SVGID_47_" d="M0 0h459.5v200.9H0z"/></defs><clipPath id="SVGID_48_"><use xlink:href="#SVGID_47_" overflow="visible"/></clipPath><path d="M145.9 193.9l4.6-1-4.6-.9v1.9z" clip-path="url(#SVGID_48_)" fill="none" stroke="#000" stroke-width=".319" stroke-linecap="round" stroke-linejoin="round" stroke-miterlimit="10"/><defs><path id="SVGID_49_" d="M0 0h459.5v200.9H0z"/></defs><clipPath id="SVGID_50_"><use xlink:href="#SVGID_49_" overflow="visible"/></clipPath><path d="M145.9 193.9l4.6-1-4.6-.9v1.9z" clip-path="url(#SVGID_50_)" fill-rule="evenodd" clip-rule="evenodd" fill="#fff" fill-opacity="0"/><defs><path id="SVGID_51_" d="M0 0h459.5v200.9H0z"/></defs><clipPath id="SVGID_52_"><use xlink:href="#SVGID_51_" overflow="visible"/></clipPath><path d="M145.9 193.9l4.6-1-4.6-.9v1.9zm-105.7-1h-4.7" clip-path="url(#SVGID_52_)" fill="none" stroke="#000" stroke-width=".319" stroke-linecap="round" stroke-linejoin="round" stroke-miterlimit="10"/><defs><path id="SVGID_53_" d="M0 0h459.5v200.9H0z"/></defs><clipPath id="SVGID_54_"><use xlink:href="#SVGID_53_" overflow="visible"/></clipPath><path d="M40.2 192l-4.7.9 4.7 1V192z" clip-path="url(#SVGID_54_)" fill-rule="evenodd" clip-rule="evenodd"/><defs><path id="SVGID_55_" d="M0 0h459.5v200.9H0z"/></defs><clipPath id="SVGID_56_"><use xlink:href="#SVGID_55_" overflow="visible"/></clipPath><path d="M40.2 192l-4.7.9 4.7 1V192z" clip-path="url(#SVGID_56_)" fill="none" stroke="#000" stroke-width=".319" stroke-linecap="round" stroke-linejoin="round" stroke-miterlimit="10"/><defs><path id="SVGID_57_" d="M0 0h459.5v200.9H0z"/></defs><clipPath id="SVGID_58_"><use xlink:href="#SVGID_57_" overflow="visible"/></clipPath><path d="M40.2 192l-4.7.9 4.7 1V192z" clip-path="url(#SVGID_58_)" fill-rule="evenodd" clip-rule="evenodd" fill="#fff" fill-opacity="0"/><defs><path id="SVGID_59_" d="M0 0h459.5v200.9H0z"/></defs><clipPath id="SVGID_60_"><use xlink:href="#SVGID_59_" overflow="visible"/></clipPath><path d="M40.2 192l-4.7.9 4.7 1V192zm105.7.9H40.2m110.3-35.7v37.6" clip-path="url(#SVGID_60_)" fill="none" stroke="#000" stroke-width=".319" stroke-linecap="round" stroke-linejoin="round" stroke-miterlimit="10"/><path class="st2" d="M35.5 104.7v90.1"/><defs><path id="SVGID_61_" d="M0 0h459.5v200.9H0z"/></defs><clipPath id="SVGID_62_"><use xlink:href="#SVGID_61_" overflow="visible"/></clipPath><path d="M164.9 173.9c-.1 0-.2 0-.2-.1-.1-.1-.1-.2-.1-.2 0-.2.1-.2.2-.3l.6-.3c.7-.5 1.1-1 1.2-1.7h-1c-.5 0-.8-.2-1.1-.5s-.5-.7-.5-1.2v-.6c0-.5.2-.8.5-1.1s.7-.5 1.1-.5c.5 0 .8.2 1.2.5.3.3.5.7.5 1.1v2c0 1.1-.5 2-1.6 2.6-.4.2-.6.3-.8.3m1.7-3.3V169c0-.3-.1-.5-.3-.7s-.4-.3-.7-.3-.5.1-.7.3-.3.4-.3.7v.7c0 .3.1.5.3.7s.4.3.7.3h1v-.1zm5.9-.6c.3 0 .5-.1.7-.3s.3-.4.3-.7-.1-.5-.3-.7-.4-.3-.7-.3-.5.1-.7.3-.3.4-.3.7.1.5.3.7.4.3.7.3m0 3.9c-.5 0-.8-.2-1.2-.5-.3-.3-.5-.7-.5-1.2v-.7c0-.5.2-1 .6-1.3-.4-.3-.6-.8-.6-1.3s.2-.8.5-1.1.7-.5 1.2-.5.8.2 1.1.5.5.7.5 1.1c0 .5-.2 1-.7 1.3.3.2.5.5.6.9 0 .2.1.5.1 1.1 0 .5-.2.8-.5 1.2-.2.4-.6.5-1.1.5m0-.6c.3 0 .5-.1.7-.3s.3-.4.3-.7v-.7c0-.3-.1-.5-.3-.7s-.4-.3-.7-.3-.5.1-.7.3-.3.4-.3.7v.7c0 .3.1.5.3.7s.4.3.7.3" clip-path="url(#SVGID_62_)"/><defs><path id="SVGID_63_" d="M0 0h459.5v200.9H0z"/></defs><clipPath id="SVGID_64_"><use xlink:href="#SVGID_63_" overflow="visible"/></clipPath><path d="M155.3 177.9h-4.8" clip-path="url(#SVGID_64_)" fill="none" stroke="#000" stroke-width=".319" stroke-linecap="round" stroke-linejoin="round" stroke-miterlimit="10"/><defs><path id="SVGID_65_" d="M0 0h459.5v200.9H0z"/></defs><clipPath id="SVGID_66_"><use xlink:href="#SVGID_65_" overflow="visible"/></clipPath><path d="M155.3 177l-4.8.9 4.8.9V177z" clip-path="url(#SVGID_66_)" fill-rule="evenodd" clip-rule="evenodd"/><defs><path id="SVGID_67_" d="M0 0h459.5v200.9H0z"/></defs><clipPath id="SVGID_68_"><use xlink:href="#SVGID_67_" overflow="visible"/></clipPath><path d="M155.3 177l-4.8.9 4.8.9V177z" clip-path="url(#SVGID_68_)" fill="none" stroke="#000" stroke-width=".319" stroke-linecap="round" stroke-linejoin="round" stroke-miterlimit="10"/><defs><path id="SVGID_69_" d="M0 0h459.5v200.9H0z"/></defs><clipPath id="SVGID_70_"><use xlink:href="#SVGID_69_" overflow="visible"/></clipPath><path d="M155.3 177l-4.8.9 4.8.9V177z" clip-path="url(#SVGID_70_)" fill-rule="evenodd" clip-rule="evenodd" fill="#fff" fill-opacity="0"/><defs><path id="SVGID_71_" d="M0 0h459.5v200.9H0z"/></defs><clipPath id="SVGID_72_"><use xlink:href="#SVGID_71_" overflow="visible"/></clipPath><path d="M155.3 177l-4.8.9 4.8.9V177zm27.5.9h4.7" clip-path="url(#SVGID_72_)" fill="none" stroke="#000" stroke-width=".319" stroke-linecap="round" stroke-linejoin="round" stroke-miterlimit="10"/><defs><path id="SVGID_73_" d="M0 0h459.5v200.9H0z"/></defs><clipPath id="SVGID_74_"><use xlink:href="#SVGID_73_" overflow="visible"/></clipPath><path d="M182.8 178.8l4.7-.9-4.7-.9v1.8z" clip-path="url(#SVGID_74_)" fill-rule="evenodd" clip-rule="evenodd"/><defs><path id="SVGID_75_" d="M0 0h459.5v200.9H0z"/></defs><clipPath id="SVGID_76_"><use xlink:href="#SVGID_75_" overflow="visible"/></clipPath><path d="M182.8 178.8l4.7-.9-4.7-.9v1.8h0z" clip-path="url(#SVGID_76_)" fill="none" stroke="#000" stroke-width=".319" stroke-linecap="round" stroke-linejoin="round" stroke-miterlimit="10"/><defs><path id="SVGID_77_" d="M0 0h459.5v200.9H0z"/></defs><clipPath id="SVGID_78_"><use xlink:href="#SVGID_77_" overflow="visible"/></clipPath><path d="M182.8 178.8l4.7-.9-4.7-.9v1.8z" clip-path="url(#SVGID_78_)" fill-rule="evenodd" clip-rule="evenodd" fill="#fff" fill-opacity="0"/><defs><path id="SVGID_79_" d="M0 0h459.5v200.9H0z"/></defs><clipPath id="SVGID_80_"><use xlink:href="#SVGID_79_" overflow="visible"/></clipPath><path d="M182.8 178.8l4.7-.9-4.7-.9v1.8h0zm-27.5-.9h27.5m-32.3-20.7v22.6m37-31.5v31.5" clip-path="url(#SVGID_80_)" fill="none" stroke="#000" stroke-width=".319" stroke-linecap="round" stroke-linejoin="round" stroke-miterlimit="10"/><defs><path id="SVGID_81_" d="M0 0h459.5v200.9H0z"/></defs><clipPath id="SVGID_82_"><use xlink:href="#SVGID_81_" overflow="visible"/></clipPath><path d="M70.8 20.4c.5 0 .8.2 1.2.5s.5.7.5 1.2c0 .3-.1.6-.3.9l-2.1 3.3h2c.2 0 .3.1.3.3 0 .2-.1.3-.3.3h-2.6c-.2 0-.3-.1-.3-.3 0-.1 0-.1.1-.2l2.4-3.8c.1-.2.2-.4.2-.5 0-.3-.1-.5-.3-.7-.2-.2-.4-.3-.7-.3-.4 0-.7.3-1 .8-.1.1-.2.1-.4.1s-.3-.1-.3-.3v-.2c.4-.7 1-1.1 1.6-1.1m4.6 2.6c.3 0 .5-.1.7-.3.2-.2.3-.4.3-.7s-.1-.5-.3-.7c-.2-.2-.4-.3-.7-.3-.3 0-.5.1-.7.3-.2.2-.3.4-.3.7s.1.5.3.7c.2.2.5.3.7.3m0 4c-.5 0-.8-.2-1.1-.5-.3-.3-.5-.7-.5-1.2v-.6c0-.5.2-1 .7-1.3-.5-.4-.7-.8-.7-1.4 0-.5.2-.8.5-1.2.3-.3.7-.5 1.1-.5.5 0 .8.2 1.2.5.3.3.5.7.5 1.2s-.2 1-.7 1.3c.3.2.5.5.6.9.1.2.1.5.1 1.1 0 .5-.2.8-.5 1.2-.3.3-.7.5-1.2.5m0-.7c.3 0 .5-.1.7-.3.2-.2.3-.4.3-.7v-.6c0-.3-.1-.5-.3-.7-.2-.2-.4-.3-.7-.3-.3 0-.5.1-.7.3-.2.2-.3.4-.3.7v.6c0 .3.1.5.3.7.2.2.5.3.7.3m6.2.7c-.1 0-.2 0-.2-.1-.1-.1-.1-.1-.1-.2 0-.2.1-.2.2-.3l.6-.3c.7-.5 1.1-1.1 1.2-1.7h-1c-.5 0-.8-.2-1.1-.5-.3-.3-.5-.7-.5-1.2V22c0-.5.2-.8.5-1.2.3-.3.7-.5 1.1-.5.5 0 .8.2 1.2.5.3.3.5.7.5 1.1v2c0 1.1-.5 2-1.6 2.6-.3.3-.6.5-.8.5m1.7-3.3V22c0-.3-.1-.5-.3-.7-.2-.2-.4-.3-.7-.3-.3 0-.5.1-.7.3-.2.2-.3.4-.3.7v.7c0 .3.1.5.3.7.2.2.4.3.7.3h1zm6.6 0c0 .7.1 1.3.2 2 .1.4.2.9.4 1.5v.1c0 .1 0 .2-.1.2-.1.1-.1.1-.2.1s-.2-.1-.3-.2c-.2-.4-.3-.9-.5-1.6-.1-.7-.2-1.4-.2-2.1s.1-1.4.2-2.1c.2-.7.3-1.2.5-1.6.1-.1.2-.2.3-.2.2 0 .3.1.3.3v.1c-.2.6-.4 1.1-.4 1.5-.1.7-.2 1.3-.2 2m2 2.9v-5.9c0-.2.1-.3.3-.3.2 0 .3.1.3.3V23h2.6v-2.3c0-.2.1-.3.3-.3.2 0 .3.1.3.3v5.9c0 .2-.1.3-.3.3-.2 0-.3-.1-.3-.3v-2.9h-2.6v2.9c0 .2-.1.3-.3.3-.2.1-.3-.1-.3-.3m7.8-1.3V24c0-.3-.1-.5-.3-.7-.2-.2-.4-.3-.7-.3-.3 0-.5.1-.7.3-.2.2-.3.4-.3.7v1.3c0 .3.1.5.3.7.2.2.4.3.7.3.3 0 .5-.1.7-.3.2-.2.3-.4.3-.7m-2.6 0V24c0-.5.2-.8.5-1.2.3-.3.7-.5 1.2-.5s.8.2 1.2.5c.3.3.5.7.5 1.2v1.3c0 .5-.2.8-.5 1.2s-.8.5-1.3.5-.8-.2-1.2-.5c-.2-.4-.4-.7-.4-1.2m7.9-2.6v3.9c0 .2-.1.3-.3.3H103c-.4 0-.7-.1-.9-.4-.3-.2-.4-.6-.4-.9v-2.9c0-.2.1-.3.3-.3.2 0 .3.1.3.3v2.9c0 .2.1.3.2.5.1.1.3.2.5.2h1.3v-3.6c0-.2.1-.3.3-.3.3 0 .4.1.4.3m3.9 3.1c0-.2-.1-.4-.3-.5l-1.7-.8c-.4-.2-.7-.6-.7-1.1 0-.4.2-.7.5-.9.3-.2.6-.3 1-.3.5 0 .9.1 1.3.4.1.1.2.2.2.3 0 .1 0 .2-.1.2-.1.1-.1.1-.2.1h-.2c-.3-.2-.7-.3-1-.3-.5 0-.8.2-.8.5 0 .2.1.4.3.5l1.7.8c.4.2.7.6.7 1.1 0 .4-.2.7-.5.9-.3.2-.6.3-1.1.3-.6 0-1.1-.1-1.6-.4-.1-.1-.2-.2-.2-.3 0-.1 0-.2.1-.2.1-.1.2-.1.2-.1h.1c.1 0 .3.1.5.2.3.1.6.1.9.1.6 0 .9-.2.9-.5m2-4.7v-.3c0-.2.1-.3.3-.3.2 0 .3.1.3.3v.3c0 .2-.1.3-.3.3-.2 0-.3-.1-.3-.3m0 1.6c0-.2.1-.3.3-.3.2 0 .3.1.3.3v3.9c0 .2-.1.3-.3.3-.2 0-.3-.1-.3-.3v-3.9zm2 3.9v-3.9c0-.2.1-.3.3-.3h1.7c.4 0 .7.1.9.4.3.2.4.6.4.9v2.9c0 .2-.1.3-.3.3s-.3-.1-.3-.3v-2.9c0-.2-.1-.3-.2-.5-.1-.1-.3-.2-.5-.2h-1.3v3.6c0 .2-.1.3-.3.3-.3.1-.4-.1-.4-.3m7.2-3.6h-1.3c-.2 0-.3.1-.5.2-.1.1-.2.3-.2.5v2c0 .2.1.3.2.5.1.1.3.2.5.2h1.3V23zm.3-.6c.2 0 .3.1.3.3v4.9c0 .4-.1.7-.4.9-.2.3-.6.4-.9.4h-1.3c-.2 0-.3-.1-.3-.3 0-.2.1-.3.3-.3h1.3c.2 0 .3-.1.5-.2.1-.1.2-.3.2-.5V27h-1.3c-.5 0-.9-.2-1.1-.7-.1-.2-.2-.4-.2-.7v-2c0-.4.1-.7.4-.9.3-.3.6-.4.9-.4h1.6v.1zm2.3 1.3c0-.7-.1-1.3-.2-2-.1-.4-.2-.9-.4-1.5v-.1c0-.1 0-.2.1-.2.1-.1.2-.1.2-.1.1 0 .2.1.3.2.2.4.4.9.5 1.6.2.7.2 1.4.2 2.1s-.1 1.4-.2 2.1-.3 1.3-.5 1.6c0 .1-.1.2-.3.2-.1 0-.2 0-.2-.1-.1-.1-.1-.1-.1-.2v-.1c.2-.6.4-1.1.4-1.5.1-.7.2-1.4.2-2" clip-path="url(#SVGID_82_)"/><defs><path id="SVGID_83_" d="M0 0h459.5v200.9H0z"/></defs><clipPath id="SVGID_84_"><use xlink:href="#SVGID_83_" overflow="visible"/></clipPath><path d="M145.9 31.5h4.6" clip-path="url(#SVGID_84_)" fill="none" stroke="#000" stroke-width=".319" stroke-linecap="round" stroke-linejoin="round" stroke-miterlimit="10"/><defs><path id="SVGID_85_" d="M0 0h459.5v200.9H0z"/></defs><clipPath id="SVGID_86_"><use xlink:href="#SVGID_85_" overflow="visible"/></clipPath><path d="M145.9 32.4l4.6-.9-4.6-.9v1.8z" clip-path="url(#SVGID_86_)" fill-rule="evenodd" clip-rule="evenodd"/><defs><path id="SVGID_87_" d="M0 0h459.5v200.9H0z"/></defs><clipPath id="SVGID_88_"><use xlink:href="#SVGID_87_" overflow="visible"/></clipPath><path d="M145.9 32.4l4.6-.9-4.6-.9v1.8z" clip-path="url(#SVGID_88_)" fill="none" stroke="#000" stroke-width=".319" stroke-linecap="round" stroke-linejoin="round" stroke-miterlimit="10"/><defs><path id="SVGID_89_" d="M0 0h459.5v200.9H0z"/></defs><clipPath id="SVGID_90_"><use xlink:href="#SVGID_89_" overflow="visible"/></clipPath><path d="M145.9 32.4l4.6-.9-4.6-.9v1.8z" clip-path="url(#SVGID_90_)" fill-rule="evenodd" clip-rule="evenodd" fill="#fff" fill-opacity="0"/><defs><path id="SVGID_91_" d="M0 0h459.5v200.9H0z"/></defs><clipPath id="SVGID_92_"><use xlink:href="#SVGID_91_" overflow="visible"/></clipPath><path d="M145.9 32.4l4.6-.9-4.6-.9v1.8zm-99.1-.9h-4.7" clip-path="url(#SVGID_92_)" fill="none" stroke="#000" stroke-width=".319" stroke-linecap="round" stroke-linejoin="round" stroke-miterlimit="10"/><defs><path id="SVGID_93_" d="M0 0h459.5v200.9H0z"/></defs><clipPath id="SVGID_94_"><use xlink:href="#SVGID_93_" overflow="visible"/></clipPath><path d="M46.8 30.6l-4.7.9 4.7.9v-1.8z" clip-path="url(#SVGID_94_)" fill-rule="evenodd" clip-rule="evenodd"/><defs><path id="SVGID_95_" d="M0 0h459.5v200.9H0z"/></defs><clipPath id="SVGID_96_"><use xlink:href="#SVGID_95_" overflow="visible"/></clipPath><path d="M46.8 30.6l-4.7.9 4.7.9v-1.8z" clip-path="url(#SVGID_96_)" fill="none" stroke="#000" stroke-width=".319" stroke-linecap="round" stroke-linejoin="round" stroke-miterlimit="10"/><defs><path id="SVGID_97_" d="M0 0h459.5v200.9H0z"/></defs><clipPath id="SVGID_98_"><use xlink:href="#SVGID_97_" overflow="visible"/></clipPath><path d="M46.8 30.6l-4.7.9 4.7.9v-1.8z" clip-path="url(#SVGID_98_)" fill-rule="evenodd" clip-rule="evenodd" fill="#fff" fill-opacity="0"/><defs><path id="SVGID_99_" d="M0 0h459.5v200.9H0z"/></defs><clipPath id="SVGID_100_"><use xlink:href="#SVGID_99_" overflow="visible"/></clipPath><path d="M46.8 30.6l-4.7.9 4.7.9v-1.8zm99.1.9H46.8m-4.7 19.9V29.6m108.4 22.6V29.6" clip-path="url(#SVGID_100_)" fill="none" stroke="#000" stroke-width=".319" stroke-linecap="round" stroke-linejoin="round" stroke-miterlimit="10"/><defs><path id="SVGID_101_" d="M0 0h459.5v200.9H0z"/></defs><clipPath id="SVGID_102_"><use xlink:href="#SVGID_101_" overflow="visible"/></clipPath><path d="M75.4 6.1c.5 0 .8.2 1.1.5.4.2.5.6.5 1.1 0 .3-.1.6-.3.9l-2 3.4h2c.2 0 .3.1.3.3s-.1.3-.3.3h-2.6c-.2 0-.3-.1-.3-.3 0-.1 0-.1.1-.2l2.4-3.8c.1-.2.2-.4.2-.5 0-.3-.1-.5-.3-.7-.2-.2-.4-.3-.7-.3-.4 0-.7.3-1 .8-.1.1-.2.2-.3.2-.2 0-.3-.1-.3-.3v-.1c.3-1 .8-1.3 1.5-1.3m3.9 6.5c-.1 0-.2 0-.2-.1-.1-.1-.1-.1-.1-.2 0-.2.1-.2.2-.3.2-.1.5-.2.6-.3.7-.5 1.1-1 1.2-1.7h-1c-.5 0-.8-.2-1.2-.5-.3-.3-.5-.7-.5-1.1v-.7c0-.5.2-.8.5-1.2.3-.3.7-.5 1.2-.5s.8.2 1.2.5c.3.3.5.7.5 1.1v2c0 1.1-.5 2-1.5 2.6-.5.3-.7.4-.9.4M81 9.3V7.7c0-.3-.1-.5-.3-.7s-.5-.3-.7-.3-.5.1-.7.3-.3.4-.3.7v.7c0 .3.1.5.3.7.2.2.4.3.7.3l1-.1zm4.2 1.7l1.3-4.7c0-.2.2-.2.3-.2.2 0 .3.1.3.3v.1L86 10.6h1.5v-1c0-.2.1-.3.3-.3.2 0 .3.1.3.3v1h.6c.2 0 .3.1.3.3s-.1.3-.3.3h-.6v1c0 .2-.1.3-.3.3-.2 0-.3-.1-.3-.3v-1h-2c-.2.1-.3 0-.3-.2m9.9-1.7c0 .7.1 1.3.2 2 .1.4.2.9.4 1.5v.1c0 .1 0 .2-.1.2-.1.1-.1.1-.2.1-.2 0-.2 0-.3-.2-.2-.4-.3-.9-.5-1.6-.1-.7-.2-1.4-.2-2.1 0-.7.1-1.4.2-2.1.2-.7.3-1.2.5-1.6.1-.1.1-.2.3-.2.2 0 .3.1.3.3v.1c-.2.6-.4 1.1-.4 1.5-.2.7-.2 1.4-.2 2m2-2.9c0-.2.1-.3.3-.3s.3.1.3.3V12h2.3c.2 0 .3.1.3.3s-.1.3-.3.3h-2.6c-.2 0-.3-.1-.3-.3V6.4zm5.2 4.2v.7c0 .2.1.3.2.5.1.1.3.2.5.2h1.6c.2 0 .3.1.3.3s-.1.3-.3.3H103c-.4 0-.7-.1-.9-.4-.2-.2-.4-.6-.4-.9V9.6c0-.5.2-.8.5-1.1s.7-.5 1.2-.5.8.2 1.2.5c.3.3.5.7.5 1.1v1h-2.8zm1-1.9c-.3 0-.5.1-.7.3s-.3.4-.3.7v.3h2v-.4c0-.3-.1-.5-.3-.7-.2-.1-.4-.2-.7-.2m2.9 3.6V8.4c0-.2.1-.3.3-.3h1.6c.4 0 .7.1.9.4.3.3.4.6.4.9v2.9c0 .2-.1.3-.3.3-.2 0-.3-.1-.3-.3v-3c0-.2-.1-.3-.2-.5-.1-.1-.3-.2-.5-.2h-1.3v3.6c0 .2-.1.3-.3.3-.2.1-.3 0-.3-.2m7.2-.9c0-.2-.1-.4-.3-.4l-1.7-.8c-.5-.2-.7-.6-.7-1.1 0-.4.2-.7.5-.9s.6-.3 1-.3c.5 0 .9.1 1.3.4.1.1.2.2.2.3s0 .2-.1.2c0 .2-.1.2-.2.2s-.1 0-.2-.1c-.3-.2-.7-.3-1-.3-.5 0-.8.2-.8.5 0 .2.1.4.3.5l1.7.8c.4.2.7.6.7 1s-.2.7-.5.9-.6.3-1 .3c-.6 0-1.2-.1-1.6-.4-.1-.1-.2-.2-.2-.3s0-.2.1-.2c.1-.1.1-.1.2-.1h.1c.1.1.2.1.5.2s.6.1.9.1c.6.1.8-.1.8-.5m2.7-2.1c0-.7-.1-1.3-.2-2-.1-.4-.2-.9-.4-1.5v-.1c0-.1 0-.2.1-.2.1-.1.2-.1.2-.1.1 0 .2 0 .3.2.2.4.4.9.5 1.6.2.7.2 1.4.2 2.1s-.1 1.4-.2 2.1c-.1.7-.3 1.2-.5 1.6 0 .1-.1.2-.3.2-.1 0-.2 0-.2-.1-.1-.1-.1-.1-.1-.2v-.1c.2-.7.4-1.1.4-1.5.1-.7.2-1.3.2-2" clip-path="url(#SVGID_102_)"/><defs><path id="SVGID_103_" d="M0 0h459.5v200.9H0z"/></defs><clipPath id="SVGID_104_"><use xlink:href="#SVGID_103_" overflow="visible"/></clipPath><path d="M145.9 16.5h4.6" clip-path="url(#SVGID_104_)" fill="none" stroke="#000" stroke-width=".319" stroke-linecap="round" stroke-linejoin="round" stroke-miterlimit="10"/><defs><path id="SVGID_105_" d="M0 0h459.5v200.9H0z"/></defs><clipPath id="SVGID_106_"><use xlink:href="#SVGID_105_" overflow="visible"/></clipPath><path d="M145.9 17.5l4.6-1-4.6-1v2z" clip-path="url(#SVGID_106_)" fill-rule="evenodd" clip-rule="evenodd"/><defs><path id="SVGID_107_" d="M0 0h459.5v200.9H0z"/></defs><clipPath id="SVGID_108_"><use xlink:href="#SVGID_107_" overflow="visible"/></clipPath><path d="M145.9 17.5l4.6-1-4.6-1v2z" clip-path="url(#SVGID_108_)" fill="none" stroke="#000" stroke-width=".319" stroke-linecap="round" stroke-linejoin="round" stroke-miterlimit="10"/><defs><path id="SVGID_109_" d="M0 0h459.5v200.9H0z"/></defs><clipPath id="SVGID_110_"><use xlink:href="#SVGID_109_" overflow="visible"/></clipPath><path d="M145.9 17.5l4.6-1-4.6-1v2z" clip-path="url(#SVGID_110_)" fill-rule="evenodd" clip-rule="evenodd" fill="#fff" fill-opacity="0"/><defs><path id="SVGID_111_" d="M0 0h459.5v200.9H0z"/></defs><clipPath id="SVGID_112_"><use xlink:href="#SVGID_111_" overflow="visible"/></clipPath><path d="M145.9 17.5l4.6-1-4.6-1v2zm-101.2-1H40" clip-path="url(#SVGID_112_)" fill="none" stroke="#000" stroke-width=".319" stroke-linecap="round" stroke-linejoin="round" stroke-miterlimit="10"/><defs><path id="SVGID_113_" d="M0 0h459.5v200.9H0z"/></defs><clipPath id="SVGID_114_"><use xlink:href="#SVGID_113_" overflow="visible"/></clipPath><path d="M44.7 15.5l-4.7 1 4.7 1v-2z" clip-path="url(#SVGID_114_)" fill-rule="evenodd" clip-rule="evenodd"/><defs><path id="SVGID_115_" d="M0 0h459.5v200.9H0z"/></defs><clipPath id="SVGID_116_"><use xlink:href="#SVGID_115_" overflow="visible"/></clipPath><path d="M44.7 15.5l-4.7 1 4.7 1v-2z" clip-path="url(#SVGID_116_)" fill="none" stroke="#000" stroke-width=".319" stroke-linecap="round" stroke-linejoin="round" stroke-miterlimit="10"/><defs><path id="SVGID_117_" d="M0 0h459.5v200.9H0z"/></defs><clipPath id="SVGID_118_"><use xlink:href="#SVGID_117_" overflow="visible"/></clipPath><path d="M44.7 15.5l-4.7 1 4.7 1v-2z" clip-path="url(#SVGID_118_)" fill-rule="evenodd" clip-rule="evenodd" fill="#fff" fill-opacity="0"/><defs><path id="SVGID_119_" d="M0 0h459.5v200.9H0z"/></defs><clipPath id="SVGID_120_"><use xlink:href="#SVGID_119_" overflow="visible"/></clipPath><path d="M44.7 15.5l-4.7 1 4.7 1v-2zm101.2 1H44.7m105.8 35.7V14.6M40 104.7V14.6" clip-path="url(#SVGID_120_)" fill="none" stroke="#000" stroke-width=".319" stroke-linecap="round" stroke-linejoin="round" stroke-miterlimit="10"/><defs><path id="SVGID_121_" d="M0 0h459.5v200.9H0z"/></defs><clipPath id="SVGID_122_"><use xlink:href="#SVGID_121_" overflow="visible"/></clipPath><path d="M162.3 24.7h-.2c-.2 0-.3-.1-.3-.3 0-.2.1-.3.3-.3h.4l.5-2.3h-2.2c-.2 0-.3-.1-.3-.3 0-.2.1-.3.3-.3h2.6c.2 0 .3.1.3.3v.1l-.6 2.6h.2c.2 0 .3.1.3.3 0 .2-.1.3-.3.3h-.3l-.6 2.7c0 .2-.2.3-.3.3-.2 0-.3-.1-.3-.3v-.1l.5-2.7zm6 2.9c-.1 0-.2 0-.2-.1-.1-.1-.1-.1-.1-.2 0-.2.1-.2.2-.3l.6-.3c.7-.5 1.1-1.1 1.2-1.7h-1c-.5 0-.8-.2-1.1-.5s-.5-.7-.5-1.2v-.7c0-.5.2-.8.5-1.2.3-.3.7-.5 1.1-.5.5 0 .8.2 1.2.5.3.3.5.7.5 1.1v2c0 1.1-.5 2-1.6 2.6-.4.4-.6.5-.8.5m1.7-3.3v-1.6c0-.3-.1-.5-.3-.7s-.4-.3-.7-.3-.5.1-.7.3c-.2.2-.3.4-.3.7v.7c0 .3.1.5.3.7s.4.3.7.3h1v-.1z" clip-path="url(#SVGID_122_)"/><defs><path id="SVGID_123_" d="M0 0h459.5v200.9H0z"/></defs><clipPath id="SVGID_124_"><use xlink:href="#SVGID_123_" overflow="visible"/></clipPath><path d="M155.3 31.5h-4.8" clip-path="url(#SVGID_124_)" fill="none" stroke="#000" stroke-width=".319" stroke-linecap="round" stroke-linejoin="round" stroke-miterlimit="10"/><defs><path id="SVGID_125_" d="M0 0h459.5v200.9H0z"/></defs><clipPath id="SVGID_126_"><use xlink:href="#SVGID_125_" overflow="visible"/></clipPath><path d="M155.3 30.6l-4.8.9 4.8.9v-1.8z" clip-path="url(#SVGID_126_)" fill-rule="evenodd" clip-rule="evenodd"/><defs><path id="SVGID_127_" d="M0 0h459.5v200.9H0z"/></defs><clipPath id="SVGID_128_"><use xlink:href="#SVGID_127_" overflow="visible"/></clipPath><path d="M155.3 30.6l-4.8.9 4.8.9v-1.8z" clip-path="url(#SVGID_128_)" fill="none" stroke="#000" stroke-width=".319" stroke-linecap="round" stroke-linejoin="round" stroke-miterlimit="10"/><defs><path id="SVGID_129_" d="M0 0h459.5v200.9H0z"/></defs><clipPath id="SVGID_130_"><use xlink:href="#SVGID_129_" overflow="visible"/></clipPath><path d="M155.3 30.6l-4.8.9 4.8.9v-1.8z" clip-path="url(#SVGID_130_)" fill-rule="evenodd" clip-rule="evenodd" fill="#fff" fill-opacity="0"/><defs><path id="SVGID_131_" d="M0 0h459.5v200.9H0z"/></defs><clipPath id="SVGID_132_"><use xlink:href="#SVGID_131_" overflow="visible"/></clipPath><path d="M155.3 30.6l-4.8.9 4.8.9v-1.8zm20.4.9h4.7" clip-path="url(#SVGID_132_)" fill="none" stroke="#000" stroke-width=".319" stroke-linecap="round" stroke-linejoin="round" stroke-miterlimit="10"/><defs><path id="SVGID_133_" d="M0 0h459.5v200.9H0z"/></defs><clipPath id="SVGID_134_"><use xlink:href="#SVGID_133_" overflow="visible"/></clipPath><path d="M175.7 32.4l4.7-.9-4.7-.9v1.8z" clip-path="url(#SVGID_134_)" fill-rule="evenodd" clip-rule="evenodd"/><defs><path id="SVGID_135_" d="M0 0h459.5v200.9H0z"/></defs><clipPath id="SVGID_136_"><use xlink:href="#SVGID_135_" overflow="visible"/></clipPath><path d="M175.7 32.4l4.7-.9-4.7-.9v1.8z" clip-path="url(#SVGID_136_)" fill="none" stroke="#000" stroke-width=".319" stroke-linecap="round" stroke-linejoin="round" stroke-miterlimit="10"/><defs><path id="SVGID_137_" d="M0 0h459.5v200.9H0z"/></defs><clipPath id="SVGID_138_"><use xlink:href="#SVGID_137_" overflow="visible"/></clipPath><path d="M175.7 32.4l4.7-.9-4.7-.9v1.8z" clip-path="url(#SVGID_138_)" fill-rule="evenodd" clip-rule="evenodd" fill="#fff" fill-opacity="0"/><defs><path id="SVGID_139_" d="M0 0h459.5v200.9H0z"/></defs><clipPath id="SVGID_140_"><use xlink:href="#SVGID_139_" overflow="visible"/></clipPath><path d="M175.7 32.4l4.7-.9-4.7-.9v1.8zm-20.4-.9h20.4m-25.2 20.7V29.6m29.9 29.3V29.6" clip-path="url(#SVGID_140_)" fill="none" stroke="#000" stroke-width=".319" stroke-linecap="round" stroke-linejoin="round" stroke-miterlimit="10"/><defs><path id="SVGID_141_" d="M0 0h459.5v200.9H0z"/></defs><clipPath id="SVGID_142_"><use xlink:href="#SVGID_141_" overflow="visible"/></clipPath><path d="M236.8 126.3l.8.8c.1.1.1.2.1.2 0 .2-.1.3-.3.3-.1 0-.2 0-.2-.1l-1.3-1.3c-.1-.1-.1-.2-.1-.3 0-.2.1-.3.3-.3h5.9c.2 0 .3.1.3.3s-.1.3-.3.3l-5.2.1zm3.8-4.9v2.6c0 .2-.1.3-.3.3s-.3-.1-.3-.3v-2.6c0-.2.1-.3.3-.3s.3.1.3.3m-1.6-3.3v.7c0 .2-.1.3-.3.3s-.3-.1-.3-.3v-.7c0-.3-.1-.5-.3-.7s-.4-.3-.7-.3-.5.1-.7.3c-.2.2-.3.4-.3.7v1.3c0 .2-.1.3-.3.3s-.3-.1-.3-.3v-1.3c0-.5.2-.8.5-1.1.3-.3.7-.5 1.1-.5.5 0 1 .2 1.3.7.3-.4.8-.6 1.3-.6h.7c.5 0 .8.2 1.2.5.3.3.5.7.5 1.2v1.3c0 .2-.1.3-.3.3s-.3-.1-.3-.3v-1.3c0-.3-.1-.5-.3-.7s-.4-.3-.7-.3h-.7c-.3 0-.5.1-.7.3-.3 0-.4.3-.4.5m-3.3-4.6c0-.5.2-.8.5-1.2.3-.3.7-.5 1.1-.5.3 0 .6.1 1 .3l3.3 2.1v-2c0-.2.1-.3.3-.3s.3.1.3.3v2.6c0 .2-.1.3-.3.3-.1 0-.1 0-.2-.1l-3.9-2.4c-.2-.1-.4-.2-.5-.2-.3 0-.5.1-.7.3-.2.2-.3.4-.3.7 0 .4.3.7.8 1 .1.1.2.2.2.3 0 .2-.1.3-.3.3h-.1c-.8-.3-1.2-.9-1.2-1.5m4.9-5.9v2.6c0 .2-.1.3-.3.3s-.3-.1-.3-.3v-2.6c0-.2.1-.3.3-.3s.3.1.3.3m-4.6-5.5h4.2c.5 0 1 .2 1.4.6s.6.8.6 1.4c0 .5-.2 1-.6 1.4-.4.4-.8.6-1.4.6h-4.3c-.2 0-.3-.1-.3-.3 0-.2.1-.3.3-.3h4.3c.4 0 .7-.1.9-.4s.4-.6.4-.9-.1-.7-.4-.9c-.2-.2-.6-.4-.9-.4H236c-.2 0-.3-.1-.3-.3 0-.4.1-.5.3-.5m4.7-4.7h-4.6c-.2 0-.3-.1-.3-.3 0-.2.1-.3.3-.3h5.9c.2 0 .3.1.3.3 0 .1-.1.2-.2.3l-4.8 2.6h4.6c.2 0 .3.1.3.3 0 .2-.1.3-.3.3H236c-.2 0-.3-.1-.3-.3 0-.1.1-.2.2-.3l4.8-2.6zm-.1-4.9v2.6c0 .2-.1.3-.3.3s-.3-.1-.3-.3v-2.6c0-.2.1-.3.3-.3s.3.1.3.3m-4.9-3.2c0-.5.2-.8.5-1.2.3-.3.7-.5 1.1-.5.3 0 .6.1 1 .3l3.3 2.1v-2c0-.2.1-.3.3-.3s.3.1.3.3v2.6c0 .2-.1.3-.3.3-.1 0-.1 0-.2-.1l-3.9-2.4c-.2-.1-.4-.2-.5-.2-.3 0-.5.1-.7.3-.2.2-.3.4-.3.7 0 .4.3.7.8 1 .1.1.2.2.2.3 0 .2-.1.3-.3.3h-.1c-.8-.3-1.2-.9-1.2-1.5m6.2-7.6c.2 0 .3.1.3.3 0 .2-.1.3-.2.3l-1.4.5v2.3l1.4.5c.2 0 .2.2.2.3 0 .2-.1.3-.3.3h-.1l-5.9-2c-.2-.1-.3-.2-.3-.3 0-.2.1-.3.3-.3l5.9-2 .1.1m-4.8 2.2l2.9 1V83l-2.9.9zm13.6 38.5c.7 0 1.3-.1 2-.2.4-.1.9-.2 1.5-.5h.1c.1 0 .2 0 .2.1.1.1.1.2.1.2 0 .1-.1.2-.2.3-.4.2-.9.3-1.6.5-.7.2-1.4.2-2.1.2-.7 0-1.4-.1-2.1-.2-.7-.2-1.3-.3-1.6-.5-.1-.1-.2-.1-.2-.3 0-.2.1-.3.3-.3h.1c.6.2 1.1.4 1.5.4.7.2 1.3.3 2 .3m-3.3-4.9c0-.2.1-.3.3-.3s.3.1.3.3v1.3c0 .3.1.5.3.7s.4.3.7.3h3.3c.3 0 .5-.1.7-.3.2-.2.3-.4.3-.7v-1.3c0-.2.1-.3.3-.3s.3.1.3.3v1.3c0 .5-.2.8-.5 1.2-.3.3-.7.5-1.2.5H249c-.5 0-.8-.2-1.1-.5s-.5-.7-.5-1.2v-1.3zm4.9-4.6v2.6c0 .2-.1.3-.3.3s-.3-.1-.3-.3v-2.6c0-.2.1-.3.3-.3.2-.1.3 0 .3.3m-4.9-5.9c0-.2.1-.3.3-.3h5.9c.2 0 .3.1.3.3 0 .2-.1.3-.3.3h-4.8l2 1.4c.1.1.2.2.2.3 0 .1-.1.2-.2.3l-2 1.3h4.8c.2 0 .3.1.3.3 0 .2-.1.3-.3.3h-5.9c-.2 0-.3-.1-.3-.3 0-.1.1-.2.2-.3l2.5-1.7-2.5-1.7c-.2 0-.2-.1-.2-.2m4.9-4.3H251c-.3 0-.5.1-.7.3-.2.2-.3.4-.3.7 0 .3.1.5.3.7s.4.3.7.3h1.3c.3 0 .5-.1.7-.3.2-.2.3-.4.3-.7 0-.3-.1-.5-.3-.7s-.4-.3-.7-.3m0 2.6H251c-.5 0-.8-.2-1.2-.5-.3-.3-.5-.7-.5-1.2s.2-.8.5-1.2c.3-.3.7-.5 1.2-.5h1.3c.5 0 .8.2 1.2.5.3.3.5.7.5 1.2s-.2.8-.5 1.1c-.3.5-.7.6-1.2.6m-2.6-7.9h3.9c.2 0 .3.1.3.3v1.6c0 .4-.1.7-.4.9-.3.2-.6.4-.9.4h-3c-.2 0-.3-.1-.3-.3 0-.2.1-.3.3-.3h3c.2 0 .3-.1.5-.2.1-.1.2-.3.2-.5V98h-3.6c-.2 0-.3-.1-.3-.3 0-.2.1-.3.3-.3m3.9-1.3h-3.9c-.2 0-.3-.1-.3-.3v-1.6c0-.4.1-.7.4-.9.3-.2.6-.4.9-.4h3c.2 0 .3.1.3.3 0 .2-.1.3-.3.3h-3c-.2 0-.3.1-.5.2-.1.1-.2.3-.2.5v1.3h3.6c.2 0 .3.1.3.3 0 .2-.1.3-.3.3m-3.6-5.2v.3c0 .2-.1.3-.3.3s-.3-.1-.3-.3v-.3h-1.6c-.2 0-.3-.1-.3-.3 0-.2.1-.3.3-.3h1.6v-1c0-.2.1-.3.3-.3s.3.1.3.3v1h3.6c.2 0 .3.1.3.3 0 .2-.1.3-.3.3H250zm.7-4c-.7 0-1.3.1-2 .2-.4.1-.9.2-1.5.4h-.1c-.1 0-.2 0-.2-.1-.1-.1-.1-.2-.1-.2 0-.1.1-.2.2-.3.4-.2.9-.4 1.6-.5.7-.2 1.4-.2 2.1-.2.7 0 1.4.1 2.1.2.7.2 1.2.3 1.6.5.1.1.2.2.2.3 0 .1 0 .2-.1.2-.1.1-.2.1-.2.1h-.1c-.6-.2-1.1-.4-1.5-.5-.7 0-1.4-.1-2-.1" clip-path="url(#SVGID_142_)"/><defs><path id="SVGID_143_" d="M0 0h459.5v200.9H0z"/></defs><clipPath id="SVGID_144_"><use xlink:href="#SVGID_143_" overflow="visible"/></clipPath><path d="M257.2 61.8V57" clip-path="url(#SVGID_144_)" fill="none" stroke="#000" stroke-width=".319" stroke-linecap="round" stroke-linejoin="round" stroke-miterlimit="10"/><defs><path id="SVGID_145_" d="M0 0h459.5v200.9H0z"/></defs><clipPath id="SVGID_146_"><use xlink:href="#SVGID_145_" overflow="visible"/></clipPath><path d="M258.2 61.8l-1-4.8-.9 4.8h1.9z" clip-path="url(#SVGID_146_)" fill-rule="evenodd" clip-rule="evenodd"/><defs><path id="SVGID_147_" d="M0 0h459.5v200.9H0z"/></defs><clipPath id="SVGID_148_"><use xlink:href="#SVGID_147_" overflow="visible"/></clipPath><path d="M258.2 61.8l-1-4.8-.9 4.8h1.9z" clip-path="url(#SVGID_148_)" fill="none" stroke="#000" stroke-width=".319" stroke-linecap="round" stroke-linejoin="round" stroke-miterlimit="10"/><defs><path id="SVGID_149_" d="M0 0h459.5v200.9H0z"/></defs><clipPath id="SVGID_150_"><use xlink:href="#SVGID_149_" overflow="visible"/></clipPath><path d="M258.2 61.8l-1-4.8-.9 4.8h1.9z" clip-path="url(#SVGID_150_)" fill-rule="evenodd" clip-rule="evenodd" fill="#fff" fill-opacity="0"/><defs><path id="SVGID_151_" d="M0 0h459.5v200.9H0z"/></defs><clipPath id="SVGID_152_"><use xlink:href="#SVGID_151_" overflow="visible"/></clipPath><path d="M258.2 61.8l-1-4.8-.9 4.8h1.9zm-1 85.9v4.7" clip-path="url(#SVGID_152_)" fill="none" stroke="#000" stroke-width=".319" stroke-linecap="round" stroke-linejoin="round" stroke-miterlimit="10"/><defs><path id="SVGID_153_" d="M0 0h459.5v200.9H0z"/></defs><clipPath id="SVGID_154_"><use xlink:href="#SVGID_153_" overflow="visible"/></clipPath><path d="M256.3 147.7l.9 4.7 1-4.7h-1.9z" clip-path="url(#SVGID_154_)" fill-rule="evenodd" clip-rule="evenodd"/><defs><path id="SVGID_155_" d="M0 0h459.5v200.9H0z"/></defs><clipPath id="SVGID_156_"><use xlink:href="#SVGID_155_" overflow="visible"/></clipPath><path d="M256.3 147.7l.9 4.7 1-4.7h-1.9z" clip-path="url(#SVGID_156_)" fill="none" stroke="#000" stroke-width=".319" stroke-linecap="round" stroke-linejoin="round" stroke-miterlimit="10"/><defs><path id="SVGID_157_" d="M0 0h459.5v200.9H0z"/></defs><clipPath id="SVGID_158_"><use xlink:href="#SVGID_157_" overflow="visible"/></clipPath><path d="M256.3 147.7l.9 4.7 1-4.7h-1.9z" clip-path="url(#SVGID_158_)" fill-rule="evenodd" clip-rule="evenodd" fill="#fff" fill-opacity="0"/><defs><path id="SVGID_159_" d="M0 0h459.5v200.9H0z"/></defs><clipPath id="SVGID_160_"><use xlink:href="#SVGID_159_" overflow="visible"/></clipPath><path d="M256.3 147.7l.9 4.7 1-4.7h-1.9zm.9-85.9v85.9M177.3 57h81.8m-83.7 95.4h83.7" clip-path="url(#SVGID_160_)" fill="none" stroke="#000" stroke-width=".319" stroke-linecap="round" stroke-linejoin="round" stroke-miterlimit="10"/><defs><path id="SVGID_161_" d="M0 0h459.5v200.9H0z"/></defs><clipPath id="SVGID_162_"><use xlink:href="#SVGID_161_" overflow="visible"/></clipPath><path d="M229.8 171h-.2c-.2 0-.3-.1-.3-.3s.1-.3.3-.3h.4l.5-2.3h-2.2c-.2 0-.3-.1-.3-.3s.1-.3.3-.3h2.6c.2 0 .3.1.3.3v.1l-.6 2.6h.3c.2 0 .3.1.3.3s-.1.3-.3.3h-.4l-.6 2.7c0 .2-.2.3-.3.3-.2 0-.3-.1-.3-.3v-.1l.5-2.7zm6.9 0h-.2c-.2 0-.3-.1-.3-.3s.1-.3.3-.3h.4l.5-2.3h-2.2c-.2 0-.3-.1-.3-.3s.1-.3.3-.3h2.6c.2 0 .3.1.3.3v.1l-.6 2.6h.2c.2 0 .3.1.3.3s-.1.3-.3.3h-.4l-.6 2.7c0 .2-.2.3-.3.3-.2 0-.3-.1-.3-.3v-.1l.6-2.7zm7.2-.4c0 .7.1 1.3.2 2 .1.4.2.9.4 1.5v.1c0 .1 0 .2-.1.2-.1.1-.2.1-.2.1-.1 0-.2-.1-.3-.2-.2-.4-.4-.9-.5-1.6-.2-.7-.2-1.4-.2-2.1 0-.7.1-1.4.2-2.1.1-.7.3-1.3.5-1.6 0-.1.1-.2.3-.2s.3.1.3.3v.1c-.2.6-.4 1.1-.4 1.5-.1.7-.2 1.4-.2 2m2-2.6v-.3c0-.2.1-.3.3-.3s.3.1.3.3v.3c0 .2-.1.3-.3.3-.2.1-.3-.1-.3-.3m0 1.7c0-.2.1-.3.3-.3s.3.1.3.3v3.9c0 .2-.1.3-.3.3s-.3-.1-.3-.3v-3.9zm2.1 3.9v-3.9c0-.2.1-.3.3-.3h1.7c.4 0 .7.1.9.4.3.3.4.6.4.9v2.9c0 .2-.1.3-.3.3s-.3-.1-.3-.3v-2.9c0-.2-.1-.3-.2-.5-.1-.1-.3-.2-.5-.2h-1.3v3.6c0 .2-.1.3-.3.3-.3 0-.4-.1-.4-.3m11.2-1.7h-1.3c-.2 0-.3.1-.5.2-.1.1-.2.3-.2.5s.1.3.2.5c.1.1.3.2.5.2h1.3v-1.4zm-1.4 2c-.4 0-.7-.1-.9-.4-.2-.3-.4-.6-.4-.9 0-.2.1-.5.2-.7.3-.4.6-.6 1.1-.6h1.3v-.7c0-.2-.1-.3-.2-.5-.1-.1-.3-.2-.5-.2h-1.3c-.2 0-.3-.1-.3-.3s.1-.3.3-.3h1.3c.4 0 .7.1.9.4.3.3.4.6.4.9v2.9c0 .2-.1.3-.3.3h-1.6v.1zm3.3-5.9v-.3c0-.2.1-.3.3-.3.2 0 .3.1.3.3v.3c0 .2-.1.3-.3.3-.2.1-.3-.1-.3-.3m0 1.7c0-.2.1-.3.3-.3.2 0 .3.1.3.3v3.9c0 .2-.1.3-.3.3-.2 0-.3-.1-.3-.3v-3.9zm2 0c0-.2.1-.3.3-.3h2c.2 0 .3.1.3.3v.7c0 .2-.1.3-.3.3-.2 0-.3-.1-.3-.3v-.4h-1.3v3.6c0 .2-.1.3-.3.3-.2 0-.3-.1-.3-.3v-3.9h-.1zm4.6.9c0-.7-.1-1.3-.2-2-.1-.4-.2-.9-.4-1.5v-.1c0-.1 0-.2.1-.2.1-.1.2-.1.2-.1.2 0 .2.1.3.2.2.4.4.9.5 1.6.2.7.2 1.4.2 2.1 0 .7-.1 1.4-.2 2.1-.1.7-.3 1.2-.5 1.6 0 .1-.1.2-.3.2-.1 0-.2 0-.2-.1-.1-.1-.1-.2-.1-.2v-.1c.2-.6.4-1.1.4-1.5.1-.6.2-1.3.2-2" clip-path="url(#SVGID_162_)"/><defs><path id="SVGID_163_" d="M0 0h459.5v200.9H0z"/></defs><clipPath id="SVGID_164_"><use xlink:href="#SVGID_163_" overflow="visible"/></clipPath><path d="M211.7 177.9h4.7" clip-path="url(#SVGID_164_)" fill="none" stroke="#000" stroke-width=".319" stroke-linecap="round" stroke-linejoin="round" stroke-miterlimit="10"/><defs><path id="SVGID_165_" d="M0 0h459.5v200.9H0z"/></defs><clipPath id="SVGID_166_"><use xlink:href="#SVGID_165_" overflow="visible"/></clipPath><path d="M211.7 178.9l4.7-1-4.7-.9v1.9z" clip-path="url(#SVGID_166_)" fill-rule="evenodd" clip-rule="evenodd"/><defs><path id="SVGID_167_" d="M0 0h459.5v200.9H0z"/></defs><clipPath id="SVGID_168_"><use xlink:href="#SVGID_167_" overflow="visible"/></clipPath><path d="M211.7 178.9l4.7-1-4.7-.9v1.9z" clip-path="url(#SVGID_168_)" fill="none" stroke="#000" stroke-width=".319" stroke-linecap="round" stroke-linejoin="round" stroke-miterlimit="10"/><defs><path id="SVGID_169_" d="M0 0h459.5v200.9H0z"/></defs><clipPath id="SVGID_170_"><use xlink:href="#SVGID_169_" overflow="visible"/></clipPath><path d="M211.7 178.9l4.7-1-4.7-.9v1.9z" clip-path="url(#SVGID_170_)" fill-rule="evenodd" clip-rule="evenodd" fill="#fff" fill-opacity="0"/><defs><path id="SVGID_171_" d="M0 0h459.5v200.9H0z"/></defs><clipPath id="SVGID_172_"><use xlink:href="#SVGID_171_" overflow="visible"/></clipPath><path d="M211.7 178.9l4.7-1-4.7-.9v1.9zm-19.5-1h-4.7" clip-path="url(#SVGID_172_)" fill="none" stroke="#000" stroke-width=".319" stroke-linecap="round" stroke-linejoin="round" stroke-miterlimit="10"/><defs><path id="SVGID_173_" d="M0 0h459.5v200.9H0z"/></defs><clipPath id="SVGID_174_"><use xlink:href="#SVGID_173_" overflow="visible"/></clipPath><path d="M192.2 177l-4.7.9 4.7 1V177z" clip-path="url(#SVGID_174_)" fill-rule="evenodd" clip-rule="evenodd"/><defs><path id="SVGID_175_" d="M0 0h459.5v200.9H0z"/></defs><clipPath id="SVGID_176_"><use xlink:href="#SVGID_175_" overflow="visible"/></clipPath><path d="M192.2 177l-4.7.9 4.7 1V177z" clip-path="url(#SVGID_176_)" fill="none" stroke="#000" stroke-width=".319" stroke-linecap="round" stroke-linejoin="round" stroke-miterlimit="10"/><defs><path id="SVGID_177_" d="M0 0h459.5v200.9H0z"/></defs><clipPath id="SVGID_178_"><use xlink:href="#SVGID_177_" overflow="visible"/></clipPath><path d="M192.2 177l-4.7.9 4.7 1V177z" clip-path="url(#SVGID_178_)" fill-rule="evenodd" clip-rule="evenodd" fill="#fff" fill-opacity="0"/><defs><path id="SVGID_179_" d="M0 0h459.5v200.9H0z"/></defs><clipPath id="SVGID_180_"><use xlink:href="#SVGID_179_" overflow="visible"/></clipPath><path d="M192.2 177l-4.7.9 4.7 1V177zm19.5.9h-19.5m-4.7-29.6v31.5m28.9-75.1v75.1m53.9-1.9h-53.9m1.3-77.7l-1.3 4.5" clip-path="url(#SVGID_180_)" fill="none" stroke="#000" stroke-width=".319" stroke-linecap="round" stroke-linejoin="round" stroke-miterlimit="10"/><defs><path id="SVGID_181_" d="M0 0h459.5v200.9H0z"/></defs><clipPath id="SVGID_182_"><use xlink:href="#SVGID_181_" overflow="visible"/></clipPath><path d="M216.8 99.9l-.4 4.8 2.1-4.3-1.7-.5z" clip-path="url(#SVGID_182_)" fill-rule="evenodd" clip-rule="evenodd"/><defs><path id="SVGID_183_" d="M0 0h459.5v200.9H0z"/></defs><clipPath id="SVGID_184_"><use xlink:href="#SVGID_183_" overflow="visible"/></clipPath><path d="M216.8 99.9l-.4 4.8 2.1-4.3-1.7-.5h0z" clip-path="url(#SVGID_184_)" fill="none" stroke="#000" stroke-width=".319" stroke-linecap="round" stroke-linejoin="round" stroke-miterlimit="10"/><defs><path id="SVGID_185_" d="M0 0h459.5v200.9H0z"/></defs><clipPath id="SVGID_186_"><use xlink:href="#SVGID_185_" overflow="visible"/></clipPath><path d="M216.8 99.9l-.4 4.8 2.1-4.3-1.7-.5z" clip-path="url(#SVGID_186_)" fill-rule="evenodd" clip-rule="evenodd" fill="#fff" fill-opacity="0"/><defs><path id="SVGID_187_" d="M0 0h459.5v200.9H0z"/></defs><clipPath id="SVGID_188_"><use xlink:href="#SVGID_187_" overflow="visible"/></clipPath><path d="M216.8 99.9l-.4 4.8 2.1-4.3-1.7-.5h0z" clip-path="url(#SVGID_188_)" fill="none" stroke="#000" stroke-width=".319" stroke-linecap="round" stroke-linejoin="round" stroke-miterlimit="10"/><defs><path id="SVGID_189_" d="M0 0h459.5v200.9H0z"/></defs><clipPath id="SVGID_190_"><use xlink:href="#SVGID_189_" overflow="visible"/></clipPath><path d="M217.7 100.2l18-67.5h67.9" clip-path="url(#SVGID_190_)" fill="none" stroke="#000" stroke-width=".319" stroke-linecap="round" stroke-linejoin="round" stroke-miterlimit="10"/><defs><path id="SVGID_191_" d="M0 0h459.5v200.9H0z"/></defs><clipPath id="SVGID_192_"><use xlink:href="#SVGID_191_" overflow="visible"/></clipPath><path d="M245.1 28.6c0 .5-.2.8-.5 1.2s-.7.5-1.1.5c-.8 0-1.5-.2-2.2-.7-.1-.1-.2-.2-.2-.3 0-.1 0-.2.1-.2.1-.1.1-.1.2-.1s.1 0 .2.1c.2.1.5.3.9.5.3.1.6.2.9.2.3 0 .5-.1.7-.3.2-.2.3-.4.3-.7 0-.4-.2-.7-.5-.9l-1.8-.9c-.6-.3-.9-.8-.9-1.4 0-.5.2-.8.5-1.2s.7-.5 1.2-.5c.8 0 1.4.1 1.8.4.1.1.2.2.2.3 0 .1 0 .2-.1.2-.1.1-.1.1-.2.1h-.2c-.5-.2-1-.3-1.5-.3-.3 0-.5.1-.7.3-.2.2-.3.4-.3.7 0 .4.2.7.5.9l1.8.9c.6.1.9.6.9 1.2m1.9-.3v.7c0 .2.1.3.2.5s.3.2.5.2h1.6c.2 0 .3.1.3.3 0 .2-.1.3-.3.3h-1.6c-.4 0-.7-.1-.9-.4-.3-.2-.4-.6-.4-.9v-1.7c0-.5.2-.8.5-1.1.3-.3.7-.5 1.2-.5s.8.2 1.2.5c.3.3.5.7.5 1.2v1H247v-.1zm1-1.9c-.3 0-.5.1-.7.3-.2.2-.3.4-.3.7v.3h2v-.3c0-.3-.1-.5-.3-.7s-.4-.3-.7-.3m3 3.6v-4c0-.2.1-.3.3-.3h1.7c.4 0 .7.1.9.4.3.3.4.6.4.9v3c0 .2-.1.3-.3.3s-.3-.1-.3-.3v-3c0-.2-.1-.3-.2-.5-.1-.1-.3-.2-.5-.2h-1.3V30c0 .2-.1.3-.3.3-.3 0-.4-.1-.4-.3m7.2-.9c0-.2-.1-.4-.3-.4l-1.7-.8c-.4-.2-.7-.5-.7-1 0-.4.2-.7.5-.9.3-.2.6-.3 1-.3.5 0 .9.1 1.3.4.1.1.2.2.2.3 0 .1 0 .2-.1.2-.1.1-.2.1-.2.1-.1 0-.1 0-.2-.1-.3-.2-.6-.3-1-.3-.5 0-.8.2-.8.5 0 .2.1.4.3.5l1.7.8c.5.2.7.6.7 1s-.2.7-.5.9c-.3.2-.6.2-1 .2-.6 0-1.2-.1-1.6-.4-.1-.1-.2-.2-.2-.3 0-.1 0-.2.1-.2.1-.1.2-.1.2-.1h.1c.1.1.3.1.5.2.3.1.6.1.9.1.6.1.8 0 .8-.4m4.7-.5v-1.3c0-.3-.1-.5-.3-.7-.2-.2-.4-.3-.7-.3-.3 0-.5.1-.7.3-.2.2-.3.4-.3.7v1.3c0 .3.1.5.3.7.2.2.4.3.7.3.3 0 .5-.1.7-.3.2-.1.3-.4.3-.7m-2.7 0v-1.3c0-.5.2-.8.5-1.1.3-.3.7-.5 1.2-.5s.8.2 1.2.5c.3.3.5.7.5 1.2v1.3c0 .5-.2.8-.5 1.2s-.7.5-1.2.5-.8-.2-1.2-.5c-.3-.4-.5-.8-.5-1.3m4.6-2.6c0-.2.1-.3.3-.3h2c.2 0 .3.1.3.3v.7c0 .2-.1.3-.3.3-.2 0-.3-.1-.3-.3v-.3h-1.3V30c0 .2-.1.3-.3.3s-.3-.1-.3-.3v-4h-.1zm8.5-1.6V27h1.3c.4 0 .7-.1.9-.4.2-.3.4-.6.4-.9 0-.4-.1-.7-.4-.9-.3-.3-.6-.4-.9-.4h-1.3zm-.3-.7h1.6c.5 0 1 .2 1.4.6s.6.8.6 1.4-.2 1.1-.5 1.4c-.4.4-.8.5-1.4.5h-1.3V30c0 .2-.1.3-.3.3-.2 0-.3-.1-.3-.3v-5.9c-.1-.3 0-.4.2-.4m7.6 4.9v-1.3c0-.3-.1-.5-.3-.7-.2-.2-.4-.3-.7-.3-.3 0-.5.1-.7.3-.2.2-.3.4-.3.7v1.3c0 .3.1.5.3.7.2.2.4.3.7.3.3 0 .5-.1.7-.3.2-.1.3-.4.3-.7m-2.7 0v-1.3c0-.5.2-.8.5-1.1s.7-.5 1.2-.5.8.2 1.2.5c.3.3.5.7.5 1.2v1.3c0 .5-.2.8-.5 1.2s-.7.5-1.1.5c-.5 0-.8-.2-1.2-.5s-.6-.8-.6-1.3m7.3.5c0-.2-.1-.4-.3-.4l-1.7-.8c-.4-.2-.7-.5-.7-1 0-.4.2-.7.5-.9.3-.2.6-.3 1-.3.5 0 .9.1 1.3.4.1.1.2.2.2.3 0 .1 0 .2-.1.2-.1.1-.2.1-.2.1-.1 0-.1 0-.2-.1-.3-.2-.6-.3-1-.3-.5 0-.8.2-.8.5 0 .2.1.4.3.5l1.7.8c.5.2.7.6.7 1s-.2.7-.5.9c-.3.2-.6.2-1 .2-.6 0-1.2-.1-1.6-.4-.1-.1-.2-.2-.2-.3 0-.1 0-.2.1-.2.1-.1.2-.1.2-.1h.1c.1.1.3.1.5.2.3.1.6.1.9.1.6.1.8 0 .8-.4m1.9-4.7v-.3c0-.2.1-.3.3-.3.2 0 .3.1.3.3v.3c0 .2-.1.3-.3.3-.2 0-.3-.1-.3-.3m0 1.6c0-.2.1-.3.3-.3.2 0 .3.1.3.3v4c0 .2-.1.3-.3.3-.2 0-.3-.1-.3-.3v-4zm2.6.4h-.3c-.2 0-.3-.1-.3-.3 0-.2.1-.3.3-.3h.3v-1.6c0-.2.1-.3.3-.3s.3.1.3.3v1.6h1c.2 0 .3.1.3.3 0 .2-.1.3-.3.3h-1V30c0 .2-.1.3-.3.3s-.3-.1-.3-.3v-3.6zm3.3-2v-.3c0-.2.1-.3.3-.3.2 0 .3.1.3.3v.3c0 .2-.1.3-.3.3-.2 0-.3-.1-.3-.3m0 1.6c0-.2.1-.3.3-.3.2 0 .3.1.3.3v4c0 .2-.1.3-.3.3-.2 0-.3-.1-.3-.3v-4zm4.6 2.6v-1.3c0-.3-.1-.5-.3-.7-.2-.2-.4-.3-.7-.3-.3 0-.5.1-.7.3-.2.2-.3.4-.3.7v1.3c0 .3.1.5.3.7.2.2.4.3.7.3.3 0 .5-.1.7-.3.2-.1.3-.4.3-.7m-2.6 0v-1.3c0-.5.2-.8.5-1.1.3-.3.7-.5 1.2-.5s.8.2 1.2.5c.3.3.5.7.5 1.2v1.3c0 .5-.2.8-.5 1.2-.3.3-.7.5-1.2.5s-.8-.2-1.2-.5c-.3-.4-.5-.8-.5-1.3m4.6 1.4v-4c0-.2.1-.3.3-.3h1.6c.4 0 .7.1.9.4.3.3.4.6.4.9v3c0 .2-.1.3-.3.3-.2 0-.3-.1-.3-.3v-3c0-.2-.1-.3-.2-.5-.1-.1-.3-.2-.5-.2h-1.3V30c0 .2-.1.3-.3.3-.2 0-.3-.1-.3-.3" clip-path="url(#SVGID_192_)"/><defs><path id="SVGID_193_" d="M0 0h459.5v200.9H0z"/></defs><clipPath id="SVGID_194_"><use xlink:href="#SVGID_193_" overflow="visible"/></clipPath><path d="M390.4 102.4h4.7m-4.7 0h16.5m2.8 0h2.8m2.8 0h35m-59.9 0h-4.7m4.7 0H374m-2.8 0h-2.9m-2.8 0h-34.7m59.6 0v-4.6m0 4.6V86m0-2.8v-2.8m0-2.8V42.5m0 59.9v4.7m0-4.7V126m0 2.8v2.8m0 2.9v27.4" clip-path="url(#SVGID_194_)" fill="none" stroke="#000" stroke-width=".319" stroke-linecap="round" stroke-linejoin="round" stroke-miterlimit="10"/><defs><path id="SVGID_195_" d="M0 0h459.5v200.9H0z"/></defs><clipPath id="SVGID_196_"><use xlink:href="#SVGID_195_" overflow="visible"/></clipPath><path d="M329.4 15.3V18h1.3c.4 0 .7-.1.9-.4.2-.2.4-.6.4-.9 0-.4-.1-.7-.4-.9-.3-.2-.6-.4-.9-.4h-1.3v-.1zm2.1 3.2l1.1 2.3v.2c0 .1 0 .2-.1.2-.1.1-.2.1-.2.1-.1 0-.2-.1-.3-.2l-1.2-2.4h-1.4V21c0 .2-.1.3-.3.3s-.3-.1-.3-.3v-6c0-.2.1-.3.3-.3h1.6c.5 0 1 .2 1.4.6.4.4.6.9.6 1.4 0 .9-.4 1.5-1.2 1.8m3.8-2.7l-.8.8c-.1.1-.1.1-.2.1-.2 0-.3-.1-.3-.3 0-.1 0-.2.1-.2l1.3-1.3c.1-.1.2-.1.3-.1.2 0 .3.1.3.3V21c0 .2-.1.3-.3.3-.2 0-.3-.1-.3-.3v-5.2h-.1zm3.9 2.5h-.2c-.2 0-.3-.1-.3-.3 0-.2.1-.3.3-.3h.4l.5-2.3h-2.2c-.2 0-.3-.1-.3-.3s.1-.3.3-.3h2.6c.2 0 .3.1.3.3v.1l-.6 2.6h.2c.2 0 .3.1.3.3 0 .2-.1.3-.3.3h-.4l-.6 2.7c0 .2-.2.3-.3.3-.2 0-.3-.1-.3-.3V21l.6-2.7zm5-.7V15c0-.2.1-.3.3-.3h2.3c.2 0 .3.1.3.3s-.1.3-.3.3h-2v2h1c.5 0 .8.2 1.2.5.3.3.5.7.5 1.2v.7c0 .5-.2.8-.5 1.1-.3.3-.7.5-1.2.5h-1.3c-.2 0-.3-.1-.3-.3 0-.2.1-.3.3-.3h1.3c.3 0 .5-.1.7-.3.2-.2.3-.4.3-.7V19c0-.3-.1-.5-.3-.7-.2-.2-.4-.3-.7-.3h-1.3c-.2 0-.3-.1-.3-.4" clip-path="url(#SVGID_196_)"/><defs><path id="SVGID_197_" d="M0 0h459.5v200.9H0z"/></defs><clipPath id="SVGID_198_"><use xlink:href="#SVGID_197_" overflow="visible"/></clipPath><path d="M361.8 39.9l1.9 4.3" clip-path="url(#SVGID_198_)" fill="none" stroke="#000" stroke-width=".319" stroke-linecap="round" stroke-linejoin="round" stroke-miterlimit="10"/><defs><path id="SVGID_199_" d="M0 0h459.5v200.9H0z"/></defs><clipPath id="SVGID_200_"><use xlink:href="#SVGID_199_" overflow="visible"/></clipPath><path d="M360.9 40.3l2.8 3.9-1.1-4.7-1.7.8z" clip-path="url(#SVGID_200_)" fill-rule="evenodd" clip-rule="evenodd"/><defs><path id="SVGID_201_" d="M0 0h459.5v200.9H0z"/></defs><clipPath id="SVGID_202_"><use xlink:href="#SVGID_201_" overflow="visible"/></clipPath><path d="M360.9 40.3l2.8 3.9-1.1-4.7-1.7.8h0z" clip-path="url(#SVGID_202_)" fill="none" stroke="#000" stroke-width=".319" stroke-linecap="round" stroke-linejoin="round" stroke-miterlimit="10"/><defs><path id="SVGID_203_" d="M0 0h459.5v200.9H0z"/></defs><clipPath id="SVGID_204_"><use xlink:href="#SVGID_203_" overflow="visible"/></clipPath><path d="M360.9 40.3l2.8 3.9-1.1-4.7-1.7.8z" clip-path="url(#SVGID_204_)" fill-rule="evenodd" clip-rule="evenodd" fill="#fff" fill-opacity="0"/><defs><path id="SVGID_205_" d="M0 0h459.5v200.9H0z"/></defs><clipPath id="SVGID_206_"><use xlink:href="#SVGID_205_" overflow="visible"/></clipPath><path d="M360.9 40.3l2.8 3.9-1.1-4.7-1.7.8h0z" clip-path="url(#SVGID_206_)" fill="none" stroke="#000" stroke-width=".319" stroke-linecap="round" stroke-linejoin="round" stroke-miterlimit="10"/><defs><path id="SVGID_207_" d="M0 0h459.5v200.9H0z"/></defs><clipPath id="SVGID_208_"><use xlink:href="#SVGID_207_" overflow="visible"/></clipPath><path d="M361.8 39.9l-6.7-14.7h-28.3" clip-path="url(#SVGID_208_)" fill="none" stroke="#000" stroke-width=".319" stroke-linecap="round" stroke-linejoin="round" stroke-miterlimit="10"/><defs><path id="SVGID_209_" d="M0 0h459.5v200.9H0z"/></defs><clipPath id="SVGID_210_"><use xlink:href="#SVGID_209_" overflow="visible"/></clipPath><path d="M261.5 103.2c0-.5.2-.8.5-1.2.3-.3.7-.5 1.2-.5.3 0 .6.1.9.3l3.3 2.1v-2c0-.2.1-.3.3-.3.2 0 .3.1.3.3v2.6c0 .2-.1.3-.3.3h-.2l-3.9-2.4c-.2-.1-.4-.2-.5-.2-.3 0-.5.1-.7.3-.2.2-.3.4-.3.7 0 .4.3.7.8 1 .1.1.2.2.2.3 0 .2-.1.3-.3.3h-.1c-.8-.4-1.2-.9-1.2-1.6m6.5-3.9c0 .1 0 .2-.1.2-.1.1-.1.1-.2.1-.2 0-.2-.1-.3-.2l-.3-.6c-.5-.7-1.1-1.1-1.7-1.2v1c0 .5-.2.8-.5 1.1-.3.3-.7.5-1.1.5h-.7c-.5 0-.8-.2-1.2-.5-.3-.3-.5-.7-.5-1.2s.2-.8.5-1.2c.3-.3.7-.5 1.2-.5h2c1.1 0 2 .5 2.6 1.6.2.5.3.8.3.9m-3.2-1.6h-1.6c-.3 0-.5.1-.7.3-.2.2-.3.4-.3.7 0 .3.1.5.3.7.2.2.4.3.7.3h.7c.3 0 .5-.1.7-.3.2-.2.3-.4.3-.7v-1h-.1z" clip-path="url(#SVGID_210_)"/><defs><path id="SVGID_211_" d="M0 0h459.5v200.9H0z"/></defs><clipPath id="SVGID_212_"><use xlink:href="#SVGID_211_" overflow="visible"/></clipPath><path d="M272.2 154.4v4.7" clip-path="url(#SVGID_212_)" fill="none" stroke="#000" stroke-width=".319" stroke-linecap="round" stroke-linejoin="round" stroke-miterlimit="10"/><defs><path id="SVGID_213_" d="M0 0h459.5v200.9H0z"/></defs><clipPath id="SVGID_214_"><use xlink:href="#SVGID_213_" overflow="visible"/></clipPath><path d="M271.3 154.4l.9 4.7 1-4.7h-1.9z" clip-path="url(#SVGID_214_)" fill-rule="evenodd" clip-rule="evenodd"/><defs><path id="SVGID_215_" d="M0 0h459.5v200.9H0z"/></defs><clipPath id="SVGID_216_"><use xlink:href="#SVGID_215_" overflow="visible"/></clipPath><path d="M271.3 154.4l.9 4.7 1-4.7h-1.9z" clip-path="url(#SVGID_216_)" fill="none" stroke="#000" stroke-width=".319" stroke-linecap="round" stroke-linejoin="round" stroke-miterlimit="10"/><defs><path id="SVGID_217_" d="M0 0h459.5v200.9H0z"/></defs><clipPath id="SVGID_218_"><use xlink:href="#SVGID_217_" overflow="visible"/></clipPath><path d="M271.3 154.4l.9 4.7 1-4.7h-1.9z" clip-path="url(#SVGID_218_)" fill-rule="evenodd" clip-rule="evenodd" fill="#fff" fill-opacity="0"/><defs><path id="SVGID_219_" d="M0 0h459.5v200.9H0z"/></defs><clipPath id="SVGID_220_"><use xlink:href="#SVGID_219_" overflow="visible"/></clipPath><path d="M271.3 154.4l.9 4.7 1-4.7h-1.9zm.9-99.4v-4.7" clip-path="url(#SVGID_220_)" fill="none" stroke="#000" stroke-width=".319" stroke-linecap="round" stroke-linejoin="round" stroke-miterlimit="10"/><defs><path id="SVGID_221_" d="M0 0h459.5v200.9H0z"/></defs><clipPath id="SVGID_222_"><use xlink:href="#SVGID_221_" overflow="visible"/></clipPath><path d="M273.2 55l-1-4.7-.9 4.7h1.9z" clip-path="url(#SVGID_222_)" fill-rule="evenodd" clip-rule="evenodd"/><defs><path id="SVGID_223_" d="M0 0h459.5v200.9H0z"/></defs><clipPath id="SVGID_224_"><use xlink:href="#SVGID_223_" overflow="visible"/></clipPath><path d="M273.2 55l-1-4.7-.9 4.7h1.9z" clip-path="url(#SVGID_224_)" fill="none" stroke="#000" stroke-width=".319" stroke-linecap="round" stroke-linejoin="round" stroke-miterlimit="10"/><defs><path id="SVGID_225_" d="M0 0h459.5v200.9H0z"/></defs><clipPath id="SVGID_226_"><use xlink:href="#SVGID_225_" overflow="visible"/></clipPath><path d="M273.2 55l-1-4.7-.9 4.7h1.9z" clip-path="url(#SVGID_226_)" fill-rule="evenodd" clip-rule="evenodd" fill="#fff" fill-opacity="0"/><defs><path id="SVGID_227_" d="M0 0h459.5v200.9H0z"/></defs><clipPath id="SVGID_228_"><use xlink:href="#SVGID_227_" overflow="visible"/></clipPath><path d="M273.2 55l-1-4.7-.9 4.7h1.9zm-1 99.4V55M148.7 159.1h125.4M148.7 50.3h125.4" clip-path="url(#SVGID_228_)" fill="none" stroke="#000" stroke-width=".319" stroke-linecap="round" stroke-linejoin="round" stroke-miterlimit="10"/><defs><path id="SVGID_229_" d="M0 0h459.5v200.9H0z"/></defs><clipPath id="SVGID_230_"><use xlink:href="#SVGID_229_" overflow="visible"/></clipPath><path d="M342.2 20.5c0-.2.1-.3.3-.3.2 0 .3.1.3.3v.3c0 .2-.1.4-.3.4-.2 0-.3-.1-.3-.4v-.3zm-259-8.6c0-.2.1-.3.3-.3s.3.1.3.3v.3c0 .2-.1.4-.3.4s-.3-.1-.3-.4v-.3zm-4.5 14.4c0-.2.1-.3.4-.3s.3.1.3.3v.3c0 .2-.1.4-.3.4s-.4-.1-.4-.4v-.3zm86.7.6c0-.2.1-.3.3-.3s.3.1.3.3v.3c0 .2-.1.4-.3.4s-.3-.1-.3-.4v-.3zm67.4 146.3c0-.2.1-.3.3-.3s.3.1.3.3v.3c0 .2-.1.4-.3.4s-.3-.1-.3-.4v-.3zm-63.9 0c0-.2.1-.3.3-.3s.3.1.3.3v.3c0 .2-.1.4-.3.4s-.3-.1-.3-.4v-.3zm-91.6-.6c0-.2.1-.3.3-.3s.3.1.3.3v.3c0 .2-.1.4-.3.4s-.3-.1-.3-.4v-.3zm4 15.6c0-.2.1-.3.3-.3.2 0 .4.1.4.3v.3c0 .2-.1.4-.4.4-.2 0-.3-.1-.3-.4v-.3zM15.9 95c-.2 0-.3-.1-.3-.3s.1-.3.3-.3h.4c.2 0 .3.1.3.3s-.1.3-.3.3h-.4z" clip-path="url(#SVGID_230_)"/><text transform="translate(333.1 207.1)" class="st119 st120 st121">Not to scale</text><text transform="translate(333.1 219)" class="st119 st120 st121">Dimensions in mm</text></svg>