<svg version="1.0" xmlns="http://www.w3.org/2000/svg" viewBox="0 0 550 110"><g fill="none" stroke-width=".5" stroke-linecap="square" stroke-miterlimit="10"><path stroke="#010202" d="M40.1 24h81m0 0l5.6-14.4m-.4-.4h255.9m23.3 0h74.7"/><path stroke="#8C8C8C" d="M122.7 16.5h3.5"/><path stroke="#010202" d="M480.6 9.5l6 14.5m.4 0h57.8"/><path stroke="#8C8C8C" d="M481.9 16.8h3.4"/><path stroke="#010202" d="M40.1 52.4h81"/><path stroke="#8C8C8C" d="M122.3 46h3.4"/><path stroke="#010202" d="M121.1 52.4l6.5-13.2m0 0h68.8m.2 0l6.4 13.2m0 0h48.8m.6 0l6.3-13.2"/><path stroke="#8C8C8C" d="M197.9 46h3.5"/><path stroke="#010202" d="M258.7 39.2h68.5"/><path stroke="#8C8C8C" d="M253 46h3.5"/><path stroke="#010202" d="M327.2 39.2l5.7 13.2m.5 0h48.8m23.1 0l5.4-13.4"/><path stroke="#8C8C8C" d="M328.7 46h3.5"/><path stroke="#010202" d="M410.7 38.8h69.5"/><path stroke="#8C8C8C" d="M406.5 45.6h3.4"/><path stroke="#010202" d="M480.2 39.2l5.8 13.2m.5 0h58.3"/><path stroke="#8C8C8C" d="M481.4 45.6h3.4"/><path stroke="#010202" d="M40.1 87.4h28.7m.1 0l1.9-6.8"/><path stroke="#8C8C8C" d="M68.8 80.6h3.5"/><path stroke="#010202" d="M96.9 81.2l1.7 6.2m0 0h22.5m.3 0l1.7-6.6"/><path stroke="#8C8C8C" d="M95.1 81.4h3.5"/><path stroke="#010202" d="M122.8 80.7l1.7-6.6h75.1l1.7 6.6-1.7 6.7h-75.1z"/><path stroke="#8C8C8C" d="M121.1 81h3.4"/><path stroke="#010202" d="M201.3 80.7l1.7 6.7"/><path stroke="#8C8C8C" d="M199.6 80.6h3.4"/><path stroke="#010202" d="M225.5 87.4h26.3m0 0l1.7-6.7M203 87.4h2m0 0l1.7-6.7m15.5 0l3.1 6.7m-18.6-6.7l1.3-6.6h12.7l1.3 6.6-1.3 6.7H208z"/><path stroke="#8C8C8C" d="M205 80.7h3.4m12 0h3.5"/><path stroke="#010202" d="M253.5 80.7l1.8-6.6H330l1.7 6.6-1.7 6.7h-74.7z"/><path stroke="#8C8C8C" d="M251.8 81h3.5"/><path stroke="#010202" d="M331.7 80.7l1.7 6.7"/><path stroke="#8C8C8C" d="M330 80.6h3.4"/><path stroke="#010202" d="M355.9 87.4h26.3m22.6 0l1.7-6.5m.1-.3l1.7-6.8H483l1.7 6.8-1.7 6.8h-74.7z"/><path stroke="#8C8C8C" d="M404.9 80.6h3.4"/><path stroke="#010202" d="M485 80.5l1.4 6.9"/><path stroke="#8C8C8C" d="M483 80.2h3.5"/><path stroke="#010202" d="M509 87.4h35.8m-211.4 0h2m0 0l1.7-6.7m15.5 0l3.1 6.7m-18.6-6.7l1.3-6.6h12.7l1.3 6.6-1.3 6.7h-12.7z"/><path stroke="#8C8C8C" d="M335.4 80.7h3.4m11.2 0h3.5"/><path stroke="#010202" d="M486.5 87.4h1.9m0 0l1.7-6.8m15.5 0l3.2 6.8m-18.7-6.8l1.3-6.8h12.8l1.3 6.8-1.3 6.8h-12.8z"/><path stroke="#8C8C8C" d="M488.4 80.6h3.5m13.6 0h3.5"/><path stroke="#010202" d="M70.8 80.6l1.7-6.5h22.8l1.8 6.5-1.8 6.6H72.5z"/><path stroke="#010202" stroke-dasharray="2,2" d="M382.5 52.4h22.8m-23.4 35h22.7M382.3 9.2h22.8"/></g><g font-family="Helvetica,Arial,sans-serif"><text transform="translate(7.75 19.595)" font-size="11">FVal</text><text transform="translate(7.75 50.877)" font-size="11">LVal</text><text transform="translate(7.75 87.371)" font-size="11">Data</text><text transform="translate(71.427 101.057)" font-size="9">FrameInfo</text><text transform="translate(123.447 101.057)" font-size="9">Line 1</text><text transform="translate(207.349 101.057)" font-size="9">Cksum 1</text><text transform="translate(255.321 101.057)" font-size="9">Line 2</text><text transform="translate(337.736 101.057)" font-size="9">Cksum 2</text><text transform="translate(407.23 101.057)" font-size="9">Line n</text><text transform="translate(490.786 101.057)" font-size="9">Cksum n</text></g></svg>