<svg version="1.0" xmlns="http://www.w3.org/2000/svg" viewBox="0 0 520 313"><path fill="none" stroke="#1E1F1D" stroke-width=".227" stroke-miterlimit="10" d="M54.8 71h444.6M54.7 95.8h444.7M54.8 120.6h445M54.9 145.5h444.6M54.8 170.3h444.7M54.9 195h444.6M54.8 219.8h444.7M54.9 244.6H499M54.9 46.2h444.6m-408.2-25v248m37.2-248v248.1m37.1-247.8v247.8m37.1-247.4v247.4m37.2-248.6v248.6M314 20.8v248.5m37.1-248.1v248.1m37.2-248.1v248.1m37.1-247.4v247.3m37.1-248v248M276.9 21.4v248"/><path fill="none" stroke="#1E1F1D" stroke-width=".709" stroke-miterlimit="10" d="M54.8 21.3h444.8v248H54.8z"/><g clip-rule="evenodd"><path fill-rule="evenodd" d="M387.5 56.6h93.3v58.1h-93.3z"/><path fill="none" stroke="#000" stroke-width="1.117" stroke-miterlimit="3.864" d="M387.5 56.6h93.3v58.1h-93.3z"/><path fill-rule="evenodd" fill="#FFF" d="M384.7 53.8H478v58.1h-93.3z"/><path fill="none" stroke="#000" stroke-width="1.117" stroke-miterlimit="3.864" d="M384.7 53.8H478v58.1h-93.3z"/><path fill="none" stroke="#2A4B9B" stroke-miterlimit="3.864" stroke-dasharray="12,2,2,2" d="M393.2 66.1h33.6"/><path fill="none" stroke="#66B32E" stroke-miterlimit="3.864" stroke-dasharray="2,2" d="M393.2 84.5h33.6"/><path fill="none" stroke="#E52420" stroke-miterlimit="3.864" stroke-dasharray="72" d="M393.2 103.1h33.6"/></g><g font-family="Helvetica,Arial,sans-serif"><text transform="translate(227.69 303.997)" fill="#010202" font-size="12">Wavelength (nm)</text><text transform="rotate(-90 109.82 89.23)" fill="#1E1E1C" font-size="12">Relative Response</text><text transform="translate(38.233 221.097)" font-size="8">0.2</text><text transform="translate(38.197 170.835)" font-size="8">0.4</text><text transform="translate(38.211 124.007)" font-size="8">0.6</text><text transform="translate(38.088 72.603)" font-size="8">0.8</text><text transform="translate(38.22 24.85)" font-size="8">1.0</text><text transform="translate(46.823 282.94)" font-size="8">400</text><text transform="translate(121.414 282.98)" font-size="8">500</text><text transform="translate(196.83 282.916)" font-size="8">600</text><text transform="translate(268.18 283.034)" font-size="8">700</text><text transform="translate(346.552 282.997)" font-size="8">800</text><text transform="translate(420.748 282.956)" font-size="8">900</text><text transform="translate(489.666 283.058)" font-size="8">1000</text><text transform="translate(39.349 269.718)" font-size="8">0.0</text><text transform="translate(437.17 107.182)" fill="#1E1E1C" font-size="12">Red</text><text transform="translate(437.17 87.431)" fill="#1E1E1C" font-size="12">Green</text><text transform="translate(437.17 70.134)" fill="#1E1E1C" font-size="12">Blue</text></g><g fill="none"><path stroke="#E52420" stroke-miterlimit="10" d="M55.2 248.7l8.3 5.5 7.5 3.5 12.5 4 14.7 1.5h12.5l10.7-.9 10.6-.6 8.2-4.5 6.3-4.5 5-.5 7.5 3 8.3 4.6 6.7-1 3.9-7.4 5.1-25.7 2-20.5 1.8-26 1.4-13.5 1.6-16.9 1.2-18 1-18.9 2-16.1 1.8-21.5 2-16.1 2.7-16.8 2.2-12.7 6.3-6.8h7l4 2.9h7.7l5.8 3.4 9 4.5 9.5 8.7 8 12.4 5.5 9.9 4.8 5 7.7-.7 8.7-3 8.2-4 5.8 3.3 5.3 10.4 8 9.8h11.5l7.5 6.2 10 16.5 8.1 10 10.4 9 7.5 12 11.3 14.8 12.9 10.7 9.8 10 12 10 10.4 9 8.8 9.5 9.8 8.5 11.5 13 12.5 8.5 10 6 11.7 6.4 9.3 3.6"/><path stroke="#66B32E" stroke-miterlimit="3.864" stroke-dasharray="2,2" d="M54.9 253.2l5.6 1.8 6 2.5 8.7 2.2 8.8-.8 11.8-4.1 4.4-6.5 5.3-21 3.5-24.8 2.5-21.8 3.5-24.2 3.3-24.3 3.1-25 5.1-19.8 4.5-17.3 8.5-13.5 10.7-9.9 6.6-3.5L168 45l6.5 4.2 10.5 13 7.5 17 4.3 16.6 4.7 18.9 4.5 23.5 4 24 4 16.5 5.5 16.3 8.2 16.2 11.5 11.5 8.1 2 6.7-4.9 6-6.1 8.2-13.8 8.8-15.2 9.5-9.5 13.5 2.1 9.7-1.1 7.3-5.9 7.5-9.5 11.5-7.1 13-2 12.5-3 11.5 7.8 17.7 11.2 14.8 12.5L420 192l11.8 10.7 12.4 11.6 10.3 10.4 8 5.3 10 6.5 8.3 5.7 18.8 7.6"/><path stroke="#2A4B9B" stroke-miterlimit="3.864" stroke-dasharray="12,2,2,2" d="M499 246.8l-11.2-4.8-10.4-4.2-9.4-5.6-5.5-5.5-8.3-5.6-8.1-8.1-8.9-8.2-10.5-8.6-7-6.7-6.9-7.6-8.3-10.1-5-6.6-6.3-4h-7.5l-6.2.8-6.5-5.5-4.5-5.1-4.8-3.4-4.2 2.2-4.5 11-4.7 16.6-6.8 25.4-3.5 17.9-10.2 27.4-7.5 7.8-17.3.4-15-5-12.8-3.9-17.5.9-12 3.5-13.2 6.7-16 4.3h-12.3l-24.9-4.9-8.1-6.2-14.2-15.4-10-15.6-8.5-22.1-8-28.2-6-20.6-5.1-20-5.9-15.5-5-9.5-6.5-5.7-4.3 2L89 111.9l-10.5 19.3-6.8 14.4-8.2 17.1-4.5 12.5-4.1 10.5"/></g></svg>