<svg version="1.0" xmlns="http://www.w3.org/2000/svg" viewBox="0 0 400 260"><path fill="none" d="M316.6 134.5c0 .6.1 1.1.7 1.1l27.4.9c.7 0 1.3.6 1.3 1.3v52.8c0 .7-.6 1.3-1.3 1.3l-28.4 1.1-.1 17.7c0 .6-.5 1.1-1.1 1.1h.1l-11.7.4-1.8-.5H140.4l-1.8.5h-56l-2.7-2.8V52.9l2.7-2.8h56l1.8.5 161.3 1.1 1.8-.5 12.2.1c.6 0 1 .5 1 1.1v8.3c0 .4.8.8 1.1.9.3 0 2.6.2 3 .2.4 0 1.1.4 1.1 1.1v45.5c0 .5-.4.9-1.1 1-.7 0-2.5.1-2.9.2-.5.1-1.1.6-1.1 1.1l-.3 82.4"/><path fill="none" stroke="#000" stroke-width=".283" stroke-linecap="round" stroke-linejoin="round" stroke-miterlimit="10" d="M115.6 94.1l.6-.2.2-.1m-.8.3H80.1m0 11.9h36.3m0 0V50.1m0 7.2h199.7"/><path fill="none" stroke="#000" stroke-width=".567" stroke-linecap="round" stroke-linejoin="round" stroke-miterlimit="10" d="M316.6 134.5c0 .6.1 1.1.7 1.1l27.4.9c.7 0 1.3.6 1.3 1.3v52.8c0 .7-.6 1.3-1.3 1.3l-28.4 1.1-.1 17.7c0 .6-.5 1.1-1.1 1.1h.1l-11.7.4-1.8-.5H140.4l-1.8.5h-56l-2.7-2.8V52.9l2.7-2.8h56l1.8.5 161.3 1.1 1.8-.5 12.2.1c.6 0 1 .5 1 1.1v8.3c0 .4.8.8 1.1.9.3 0 2.6.2 3 .2.4 0 1.1.4 1.1 1.1v45.5c0 .5-.4.9-1.1 1-.7 0-2.5.1-2.9.2-.5.1-1.1.6-1.1 1.1l-.3 82.4"/><path fill="none" stroke="#000" stroke-width=".283" stroke-linecap="round" stroke-linejoin="round" stroke-miterlimit="10" d="M79.9 52.9h36.5m-.8 115.4l.6.1.2.2m-.8-.3H80.1m0-11.9h36.3m0 0v55.9m-36.5-2.9h36.5m0-4.4h199.7m-4.7-73.6c0 5-4 9-9 9s-9-4-9-9 4-9 9-9c4.9 0 9 4 9 9z"/><path d="M306.6 131.4c0 2.3-1.9 4.2-4.2 4.2s-4.2-1.9-4.2-4.2c0-2.3 1.9-4.2 4.2-4.2s4.2 1.9 4.2 4.2z"/><path fill="none" stroke="#000" stroke-width=".283" stroke-linecap="round" stroke-linejoin="round" stroke-miterlimit="10" d="M138 72.9c0 5-4 9-9 9s-9-4-9-9 4-9 9-9 9 4.1 9 9zm0 117c0 5-4 9-9 9s-9-4-9-9 4-9 9-9c5-.1 9 4 9 9z"/><path d="M133.2 189.9c0 2.3-1.9 4.2-4.2 4.2-2.3 0-4.2-1.9-4.2-4.2 0-2.3 1.9-4.2 4.2-4.2 2.3-.1 4.2 1.8 4.2 4.2z"/><path fill="none" stroke="#000" stroke-width=".283" stroke-linecap="round" stroke-linejoin="round" stroke-miterlimit="10" d="M301.6 211.7v-13.4c0-2.7-1.6-5.1-4.1-6.1l-10.5-4.5c-2.5-1-4.3-3.4-4.3-6V81.4c0-2.7 1.8-5 4.3-6l10.5-4.5c2.5-1 4.1-3.4 4.1-6.1V51.6M138.8 212.2v-10c0-2.7 1.6-5.1 4.1-6.1l12.8-5.4c2.5-1 4.3-3.4 4.3-6V78.6c0-2.7-1.8-5-4.3-6l-12.8-5.4c-2.5-1-4.1-3.4-4.1-6.1V51m177.8 9.8v49.5"/><path d="M133.2 72.9c0 2.3-1.9 4.2-4.2 4.2-2.3 0-4.2-1.9-4.2-4.2 0-2.3 1.9-4.2 4.2-4.2 2.3 0 4.2 1.9 4.2 4.2z"/><text transform="translate(8.5 18.324)" font-family="Helvetica,Arial,sans-serif" font-size="12">(a)</text><text transform="translate(8.5 248.242)" font-family="Helvetica,Arial,sans-serif" font-size="12">(a)</text><text transform="translate(371.334 94.115)" font-family="Helvetica,Arial,sans-serif" font-size="12">(b)</text><text transform="translate(183.333 131.679)" font-family="Helvetica,Arial,sans-serif" font-size="12">Bottom</text><g clip-rule="evenodd"><path fill-rule="evenodd" fill="#FFF" d="M109.9 67.5l4-7.4 11 9.7-1.1 2z"/><path fill="none" stroke="#FFF" stroke-width=".003" stroke-miterlimit="3.864" d="M109.9 67.5l4-7.4 11 9.7-1.1 2z"/></g><g clip-rule="evenodd"><path fill-rule="evenodd" d="M114.5 62.1l-2.6 4.9 12.5 3.5z"/><path fill="none" stroke="#000" stroke-width=".227" stroke-miterlimit="3.864" d="M113.2 64.6L28.1 18.3"/></g><g clip-rule="evenodd"><path fill-rule="evenodd" fill="#FFF" d="M110.2 195.4l4 6.9 10.9-9-1.1-1.9z"/><path fill="none" stroke="#FFF" stroke-width=".003" stroke-miterlimit="3.864" d="M110.2 195.4l4 6.9 10.9-9-1.1-1.9z"/></g><g clip-rule="evenodd"><path fill-rule="evenodd" d="M112.2 195.9l2.5 4.5 9.9-7.8z"/><path fill="none" stroke="#000" stroke-width=".227" stroke-miterlimit="3.864" d="M113.5 198.2l-84.7 43.3"/></g><g clip-rule="evenodd"><path fill-rule="evenodd" fill="#FFF" d="M321.4 125.4l-4.2-7.9-11.4 10.4 1.1 2.1z"/><path fill="none" stroke="#FFF" stroke-width=".003" stroke-miterlimit="3.864" d="M321.4 125.4l-4.2-7.9-11.4 10.4 1.1 2.1z"/><path fill-rule="evenodd" d="M319.3 124.8l-2.6-5.1-10.4 9z"/><path fill="none" stroke="#000" stroke-width=".227" stroke-miterlimit="3.864" d="M318 122.3l50.4-28.2"/></g></svg>