<svg version="1.1" id="Layer_1" xmlns="http://www.w3.org/2000/svg" x="0" y="0" viewBox="0 0 990 399" xml:space="preserve"><style>.st0{stroke-width:.425}.st0,.st1,.st2{fill:none;stroke:#000;stroke-miterlimit:10}.st1{stroke-linecap:round;stroke-linejoin:round;stroke-width:.425}.st2{stroke-width:.709}.st2,.st6{stroke-linecap:round;stroke-linejoin:round}.st6,.st8{fill:none;stroke:#000;stroke-width:.283;stroke-miterlimit:10}.st9{fill-rule:evenodd;clip-rule:evenodd;fill:#1a171b}.st11{stroke-dasharray:1.7861,3.5722}.st11,.st12,.st13,.st14,.st15,.st16,.st17,.st18,.st19,.st20{fill:none;stroke:#000;stroke-width:.283;stroke-miterlimit:10}.st12{stroke-dasharray:7.1444,3.5722,1.7861,3.5722}.st13{stroke-dasharray:1.1237,2.2475}.st14{stroke-dasharray:4.495,2.2475,1.1237,2.2475}.st15{stroke-dasharray:1.786,3.5721}.st16{stroke-dasharray:7.1441,3.5721,1.786,3.5721}.st17{stroke-dasharray:1.1236,2.2472}.st18{stroke-dasharray:4.4943,2.2472,1.1236,2.2472}.st19{stroke-dasharray:1.7859,3.5718}.st20{stroke-dasharray:7.1436,3.5718,1.7859,3.5718}.st22{font-family:Helvetica,Arial,sans-serif}.st23{font-size:14.885px}.st24{enable-background:new}.st27{fill:#1a1a18}.st28{font-size:14.89px}</style><path class="st0" d="M190.9 136.2h4.4l2.2-1.6 1.5 1.3-2.6 2.2-1.1.3v1.7h3.6v70.5h-3.6v2.5l1.1.4 2.6 2.2-1.5 1.3-2.2-1.8h-4.4V248c0 5.4-4.4 9.8-9.8 9.8H35.8c-5.4 0-9.8-4.4-9.8-9.8V102.7c0-5.4 4.4-9.8 9.8-9.8h145.3c5.4 0 9.8 4.4 9.8 9.8v33.5z"/><path class="st1" d="M40.4 250.6c3.5 0 6.3-2.8 6.3-6.3s-2.8-6.3-6.3-6.3-6.3 2.8-6.3 6.3c0 3.4 2.8 6.3 6.3 6.3z"/><path class="st1" d="M40.4 256.7c6.9 0 12.5-5.6 12.5-12.5s-5.6-12.5-12.5-12.5-12.5 5.6-12.5 12.5 5.6 12.5 12.5 12.5zm136.4-6.1c-3.5 0-6.3-2.8-6.3-6.3s2.8-6.3 6.3-6.3 6.3 2.8 6.3 6.3c0 3.4-2.8 6.3-6.3 6.3z"/><path class="st1" d="M176.8 256.7c-6.9 0-12.5-5.6-12.5-12.5s5.6-12.5 12.5-12.5 12.5 5.6 12.5 12.5-5.6 12.5-12.5 12.5zm0-156.1c-3.5 0-6.3 2.8-6.3 6.3s2.8 6.3 6.3 6.3 6.3-2.8 6.3-6.3c0-3.4-2.8-6.3-6.3-6.3z"/><path class="st1" d="M176.8 94.4c-6.9 0-12.5 5.6-12.5 12.5s5.6 12.5 12.5 12.5 12.5-5.6 12.5-12.5-5.6-12.5-12.5-12.5z"/><path class="st2" d="M196.5 94.1c0-4-3.2-7.2-7.2-7.2H27.8c-4 0-7.2 3.2-7.2 7.2V257c0 4 3.2 7.2 7.2 7.2h158.5c1 0 1.4-.3 2.2-1l7.3-7.3c.6-.8.8-1.5.8-2.2V94.1h-.1z"/><path class="st1" d="M40.4 100.6c3.5 0 6.3 2.8 6.3 6.3s-2.8 6.3-6.3 6.3-6.3-2.8-6.3-6.3c0-3.4 2.8-6.3 6.3-6.3z"/><path class="st1" d="M40.4 94.4c6.9 0 12.5 5.6 12.5 12.5s-5.6 12.5-12.5 12.5-12.5-5.6-12.5-12.5 5.6-12.5 12.5-12.5z"/><path class="st1" d="M24.2 101.6c0-6 4.8-10.8 10.8-10.8h80.5c2 0 2.1 3.1 2.1 3.1 0 1.7 1.4 3.1 3.1 3.1s3.1-1.4 3.1-3.1c0 0 0-3.1 1.8-3.1h56.6c6 0 10.8 4.8 10.8 10.8v147.8c0 6-4.8 10.8-10.8 10.8H83.6c-2 0-2.1-3.1-2.1-3.1 0-1.7-1.4-3.1-3.1-3.1s-3.1 1.4-3.1 3.1c0 0 0 3.1-1.8 3.1H35c-6 0-10.8-4.8-10.8-10.8V101.6z"/><path class="st0" d="M49.5 107c0 5.1-4.1 9.2-9.2 9.2s-9.2-4.1-9.2-9.2 4.1-9.2 9.2-9.2 9.2 4.1 9.2 9.2zm118.1 0c0 5.1 4.1 9.2 9.2 9.2s9.2-4.1 9.2-9.2-4.1-9.2-9.2-9.2-9.2 4.1-9.2 9.2zM49.5 244.2c0-5.1-4.1-9.2-9.2-9.2s-9.2 4.1-9.2 9.2 4.1 9.2 9.2 9.2 9.2-4.1 9.2-9.2zm118.1 0c0-5.1 4.1-9.2 9.2-9.2s9.2 4.1 9.2 9.2-4.1 9.2-9.2 9.2-9.2-4.1-9.2-9.2z"/><path class="st1" d="M63.4 102.5h48.8v48.9H63.4v-48.9zm64 3.7h25.3v18.9h-25.3v-18.9zm37.4 30h30.5v79.1h-30.5v-79.1zm0 47.2h6.7m0 0v-20.6m0 0h-6.7m30.5 48.5h-30.5m30.5-71.1h-30.5"/><path class="st1" d="M189.8 179.6v.6l-.1.2-.2.1-.1.1h-2.2l-.2-.1-.1-.1-.1-.1-.1-.2v-.2l-.1-.1-.1-.1-.2-.1h-5.4l-.1-.1-.2-.1-.1-.1-.1-.2-.1-.1v-2.8l.1-.2.1-.1.1-.2.2-.1h5.3l.2-.1h.2l.1-.1.1-.2v-.1l.1-.2.1-.2.1-.1h.2l.2-.1h1.8l.2.1h.1l.2.2.1.1v.7h-.1 2.9v4h-2.9m.1 28.9v.6l-.1.2-.2.1-.1.1h-2.2l-.2-.1-.1-.1-.1-.1-.1-.2v-.2l-.1-.1-.1-.1-.2-.1h-5.5l-.2-.2h-.1l-.1-.3-.1-.1v-2.8l.1-.2.1-.1.1-.2h.2l.1-.1h5.4l.2-.1.1-.1.1-.1v-.2l.1-.2.1-.2.1-.1h.2l.2-.1h1.8l.2.1h.1l.2.2.1.2v.6h-.1 2.9v4h-2.9m-18.2-41.4h2.7c1.1 0 .9 1.1.9 1.1v7.5c0 .8-.4 1.1-1.2 1.1h-2.4M57.5 146h-3.4m0 0v-6.4m0 0h3.4m0 0v6.4m61.7-33.3h3.3m0 0v6.5m0 0h-3.3m0 0v-6.5m3.3-3.9h-3.3m0 0v-6.4m0 0h3.3m0 0v6.4m-43.7 127h3.4m0 0v6.4m0 0h-3.4m0 0v-6.4m73.4-28.8h5.6m0 0v10.3m0 0h-5.6m0 0V207m-19.7 20.2h6.5v-3.3h-6.5m0 3.3v-3.3m12.9 24.7v5.8h-10.7v-5.8m0 0h10.7m-18.6-25h3.3m-3.3 0v6.4h3.3v-6.4m-27.2 29h-3.3m0 0v-6.4m0 0h3.3m0 0v6.4m-51.2-47.3h-3.4m0 0v-6.4m0 0h3.4m0 0v6.4m74.7 38.4h3.4m0 0v6.5m0 0h-3.4m0 0v-6.5m-28.7 8.6h-3.3m0 0v-6.4m0 0h3.3m0 0v6.4m-41.2-44v3.4m0 0h-6.4m0 0v-3.4m0 0h6.4M84 235.8h3.4m0 0v6.4m0 0H84m0 0v-6.4m-32.3-40.9h-3.4m0 0v-6.4m0 0h3.4m0 0v6.4m24.4 45.5v3.3m0 0h-6.4m0 0v-3.3m0 0h6.4M33 178.7v-3.4h6.4v3.4m0 0H33m18.7 4.9h-3.4m0 0v-6.4h3.4v6.4M66 240.4v3.3m0 0h-6.4m0 0v-3.3m0 0H66m-12.3-56.8h3.5v-6.4h-3.5v6.4m16.9 62.3v5.8m0 0H59.9m0 0v-5.8m0 0h10.7m-16.5-81.3h3.4m-3.4 0v6.4h3.4v-6.4m101.9 68.1v3.4H153v-3.4h6.4M46.1 183.6h-3.3m0 0v-6.4h3.3v6.4m108.4 47.3v-3.3m0 0h6.4v3.3h-6.4m-54.9 4.9h3.3m0 0v6.4m0 0h-3.3m0 0v-6.4m-45.5-106h3.4m0 0v6.4m0 0h-3.4m0 0v-6.4m40.3 106h3.3m0 0v6.4m0 0h-3.3m0 0v-6.4m10.1-73.6h6.4v-3.4h-6.4m0 3.4v-3.4m-15.3 77h3.3m0 0v6.4m0 0h-3.3m0 0v-6.4m-28.1-77v3.4m0 0h-6.4m0 0v-3.4m0 0h6.4m15 76.1v3.3m0 0h-6.4m0 0v-3.3m0 0h6.4m72.4-11v3.3m0-3.3H142v3.3h6.5m1.5 12.1h8.8v13.4H150v-13.4m-84-4.4v3.3m0 0h-6.4m0 0v-3.3m0 0H66m-8.5-108.1h-3.4m0 0v-6.4m0 0h3.4m0 0v6.4m78.4 86.7h-3.4m0 0v-6.4m0 0h3.4m0 0v6.4m18.6 11.9v-3.3m0 3.3h6.4v-3.3h-6.4m-26.8-56.2h3.4v6.4h-3.4v-6.4zm-74 55.2h3.5v-6.4h-3.5m0 6.4v-6.4m37.6 35.5v3.3m0 0h-6.4m0 0v-3.3m0 0h6.4m42.5-90.7v6.4h3.3v-6.4m-3.3 0h3.3m-88.8 55.2h3.4m0 0v6.4m0 0h-3.4m0 0v-6.4m36.6 33.6V245m0 0h6.4m0 0v3.3m0 0h-6.4m47-104.4v3.4m0 0h-6.4m0 0v-3.4m0 0h6.4m-87.6 75.4v5.8m0 0H33.6m0 0v-5.8m0 0h10.7m95.5-73.6l-.1.5m0 0l-.1.3m0 0l-.1.5m0 0l-.3.3m0 0l-.3.3m0 0l-.4.2m0 0l-.4.2m0 0l-.3.1m0 0l-.4.1m0 0l-.5-.1m0 0l-.4-.1m0 0l-.4-.2m0 0l-.3-.2m0 0l-.4-.3m0 0l-.2-.3m0 0l-.2-.5m0 0l-.1-.3m0 0v-.5m0 0v-.4m0 0l.1-.4m0 0l.2-.4m0 0l.2-.3m0 0l.4-.3m0 0l.3-.3m0 0l.4-.2m0 0l.4-.1m0 0h.5m0 0h.4m0 0l.3.1m0 0l.4.2m0 0l.4.3m0 0l.3.3m0 0l.3.3m0 0l.1.4m0 0l.1.4m0 0l.1.4m-2 66h5.8V201h-5.8m0 10.7V201m-10.7 6.1h3.3m0 0v6.4m0 0h-3.3m0 0v-6.4m-93.8.3V204m0 0h6.4m0 0v3.4m0 0h-6.4m94.7-2.7v-3.4m0 0h6.4m0 0v3.4m0 0H128m0-10.7v-3.4m0 0h6.4m0 0v3.4m0 0H128m0 4.9v-3.4m0 0h6.4m0 0v3.4m0 0H128m-74.3 6.4h3.5v-6.4h-3.5m0 6.4v-6.4m-9.4-2.8v5.8m0 0H33.6m0 0v-5.8m0 0h10.7m87.8 47.8H148v-12.8h-15.9m0 12.8v-12.8m-78.4-36.2h3.5v-6.4h-3.5m0 6.4v-6.4m-19.8 28.7v-7.7m0 0H44m0 0v7.7m0 0H33.9m-.6-33v-3.4m0 0h6.4m0 0v3.4m0 0h-6.4m120.7 9.2l4.5 4.5m0 0l-3.7 3.7m0 0l-4.5-4.5m0 0l3.7-3.7m-15.3-12.9h-5.8m0 0v-10.6h5.8v10.6m-7.7 1.6h-3.3m0 0v-6.5h3.3v6.5M33.9 194v-7.6m0 0H44m0 0v7.6m0 0H33.9m96.8-35.2v3.4m0 0h-6.4m0 0v-3.4m0 0h6.4m26.8.5h-6.8m0 0v-15.9m0 0h6.8m0 0v15.9m-21.3-8.7v5.8m0 0h-10.7m0 0v-5.8m0 0h10.7m21.4-27.5h6.4m-6.4 0v5.2h6.4v-5.2m-41.8 32.4h-3.4m0 0v-6.4m0 0h3.4m0 0v6.4m-1.5 3.3h-6.5v3.4h6.5m0-3.4v3.4m5.4-20.2v-6.4m0 0h5.2m0 0v6.4m0 0h-5.2m-31.4 20.2v-3.4m0 0h6.4m0 0v3.4m0 0h-6.4m41.5-20.2v-6.4m0 0h5.2m0 0v6.4m0 0h-5.2M91 158.8v3.4m0 0h-6.4m0 0v-3.4m0 0H91m-16.5 3.4v-3.4m0 0h6.4m0 0v3.4m0 0h-6.4m-3.6-3.4v3.4m0 0h-6.4m0 0v-3.4m0 0h6.4m51.3-13.4h-3.4m0 0V139m0 0h3.4m0 0v6.4m-68.1 4.3h3.4m-3.4 0v6.4h3.4v-6.4m49.2 86.9h15.9m0 0v12.8m0 0h-15.9m0 0v-12.8m15.5-101.2h-3.4m0 0V129h3.4v6.4m-72.4 91.8v-3.3m0 0h6.4m0 0v3.3m0 0h-6.4m31.3 18.6v3.6m0 0h-6.7m0 0v-3.6m0 0h6.7m-19.5-76.7h61.1v61.1H61.6v-61.1zm112.9 57.5c0 1.6-1.3 2.9-2.9 2.9-1.6 0-2.9-1.3-2.9-2.9 0-1.6 1.3-2.9 2.9-2.9 1.6 0 2.9 1.3 2.9 2.9zm-114-124.1c0 1.7-1.4 3-3.1 3s-3.1-1.4-3.1-3c0-1.7 1.4-3.1 3.1-3.1s3.1 1.4 3.1 3.1zm13.7 155.3c.7 0 .8-.5.9-.7.3-1.4 1.6-2.4 3-2.4 1.5 0 2.7 1 3 2.4 0 .2.2.7.8.7m42.8-164.9c-.7 0-.8.5-.9.7-.3 1.4-1.5 2.4-3 2.4s-2.7-1-3-2.4c0-.2-.2-.7-.8-.7"/><path d="M625.3 136.2h-4.4l-2.2-1.6-1.5 1.3 2.6 2.2 1.1.3v1.7h-3.6v70.5h3.6v2.5l-1.1.4-2.6 2.2 1.5 1.3 2.2-1.8h4.4V248c0 5.4 4.4 9.8 9.8 9.8h145.3c5.4 0 9.8-4.4 9.8-9.8V102.7c0-5.4-4.4-9.8-9.8-9.8H635.1c-5.4 0-9.8 4.4-9.8 9.8v33.5z" fill="#fff" stroke="#000" stroke-width=".709" stroke-miterlimit="10"/><path d="M791.9 264c4 0 7.3-3.3 7.3-7.3V93.9c0-4-3.3-7.3-7.3-7.3H627.8c-4 0-7.3 3.3-7.3 7.3v159.7c0 1 .3 1.4 1 2.2l7.3 7.3c.8.6 1.5.8 2.2.8h160.9v.1z" fill="#fff" stroke="#000" stroke-width=".709" stroke-linecap="round" stroke-linejoin="round" stroke-miterlimit="10"/><circle class="st1" cx="778.5" cy="106.2" r="6.4"/><path class="st1" d="M641.2 99.8c3.5 0 6.4 2.9 6.4 6.4s-2.9 6.4-6.4 6.4-6.4-2.9-6.4-6.4c0-3.6 2.9-6.4 6.4-6.4zm0 151c3.5 0 6.4-2.9 6.4-6.4s-2.9-6.4-6.4-6.4-6.4 2.9-6.4 6.4 2.9 6.4 6.4 6.4zm137.3 0c-3.5 0-6.4-2.9-6.4-6.4s2.9-6.4 6.4-6.4 6.4 2.9 6.4 6.4-2.9 6.4-6.4 6.4zm-106.4-75.7c0 20.8 16.9 37.7 37.7 37.7s37.7-16.9 37.7-37.7-16.9-37.7-37.7-37.7-37.7 16.9-37.7 37.7z"/><path class="st1" d="M660 175.1c0 27.5 22.3 49.8 49.8 49.8s49.8-22.3 49.8-49.8-22.3-49.8-49.8-49.8-49.8 22.3-49.8 49.8zm72 30.6h-43.8m43.8-61.3h-43.8m52.5 8.8V197m-61.3-43.8V197"/><path class="st2" d="M437 256.8v4.9c0 .8-.6 1-1.2 1l-4.2.1-47-1.2c-.9 0-1.1-.9-1.1-.9v-34.4c0-1.7-1.2-1.6-1.2-1.6l-34.1-.9c-.5 0-.9-.7-.9-1.3v.2-94.1c0-.6.4-1.3.9-1.3l34.1-.9s1.2 0 1.2-1.6V90.3s.2-.9 1.1-.9l47-1.2 4.2.1c.6 0 1.2.2 1.2 1v4.9h1.2v2.9c.4-2.6 4-1.3 4.3 1.5v3.8h2.3v3.7h22V125H449v9.5h.8s.4.2.4.4v1.2s3.6.2 4 3.7l-.1.4.2.5s0 .1.1.1h.7c.2 0 .5.2.5.5v68.9c0 .4-.2.5-.3.5h-.7s-.2 0-.2.1-.2.5-.2.5v.6c0 .5-.8 3.2-3.9 3.4h-.1v1.3s-.1.4-.4.4h-2.9s-.4-.1-.4-.4v-1.2h-1.6v14.8h-4v.9h1.6v8.2h1.5v13.4h-.9v1.7h-1.5"/><path d="M437 256.8h1.2v-2.9h0c.3 1.8 2.1 1.7 3.3.6" fill="#f2f2f2" stroke="#000" stroke-width=".709" stroke-linecap="round" stroke-linejoin="round" stroke-miterlimit="10"/><path class="st1" d="M437 256.8h1.2v-2.9c.4 2.7 4.1 1.3 4.3-1.5v-18.8c-.4-2.8-3.9-4.1-4.3-1.5v-113c.4 2.7 4 1.3 4.3-1.5V98.8c-.4-2.8-3.9-4.1-4.3-1.5v-2.9H437v-4.9c0-.8-.6-1-1.2-1l-4.2-.1"/><path class="st6" d="M384.6 95.4h-.2m0 0h-.3m0 0h-.2m0 0h-.2m0 0h-.1m0 0h-.1m52.4-7.1v174.3m2.3-167.2h-53.6m47 167.4V88.2m5.4 6h1.3m0 24.8V97.1m2.3-1.2v24.3m-2.4 135.4h-54.7m57.1-.5v-24.3m-2.3 1.2v21.8m-54.8-129v101.5"/><path class="st1" d="M440.9 178.7v-3.4m-2.7 0h2.7m-2.7 3.4h2.7m-2.7 46.4h5.1m0 0v-5.8m-5.1 0h5.1m-2.4-11.9V204m-2.7 3.4h2.7m0-3.4v-2.1m-2.7 0h5.1m0 0v-5.8m-5.1 0h5.1m-2.1 21.1v-7.7m-3 0h3m-3 7.7h3m-.3-33v-3.4m-2.7 0h2.7m-2.7 3.4h2.7m-2.7 45.9h2.8m3.9-14.7v-44m-3.7 24.7v-9.7m-3 0h3m-3-15H449m5.1-8.6h-.1m0 0h-.2m0 0h-.2m0 0h-.3m0 0h-.3m0 0h-.4m0 0h-.4m0 0h-.4m0 0h-.5m0 0h-.5m-1.8 0h1.8m-1.8-6.1h1.8m1.2 54.7l-.1.3m0 0l-.1.4m0 0l-.1.3m0 0l-.2.3m0 0l-.3.2m0 0l-.4.2m0 0l-.3.1m0 0h-.4m4-56.5h-.1m0 0h-.2m0 0h-.2m0 0h-.3m0 0h-.3m0 0h-.4m0 0h-.4m0 0h-.4m0 0h-.5m0 0h-.5m1.2 51.2v-.3m0 0l-.1-.3m0 0l-.2-.3m0 0l-.2-.3m0 0l-1.8-2.2m0 0l-.2-.2m0 0l-.1-.1m0 0l-.1-.1m0 0l-.1-.1m2.8 3.9v1.2m-.5-20.7h.2m0 0h.1m0 7.3h-.1m0 0h-.2m-.7 0h.5m0 0h.5m0 0h.4m0 0h.4m0 0h.4m0 0h.3m0 0h.3m0 0h.2m0 0h.2m-3.9 0h.7m-.7 17.5h-5.2m4-23.6v4.9m1.9-6.1h.5m0 0h.5m0 0h.4m0 0h.4m0 0h.4m0 0h.3m0 0h.3m0 0h.2m0 0h.2m0 0h.1m0 0v-4.8m-3.3 0h.5m0 0h.5m0 0h.4m0 0h.4m0 0h.4m0 0h.3m0 0h.3m0 0h.2m0 0h.2m0 0h.1m0 12.1h-.1m-3.2 4.9h.5m0 0h.5m0 0h.4m0 0h.4m0 0h.4m0 0h.3m0 0h.3m0 0h.2m0 0h.2m0 0h.1m-7.5 0h4.2m-4.2 0h-.1m-1.6-2.8l1.6 2.8m3.6-4.9h-.3m0 0l-.2-.1m0 0l-.3-.1m0 0l-.2-.3m0 0l-.1-.2m0 0l-.1-.2m0 0v-.3m1.9 8.1l-1.6 1.4m4 1.3l-1.9-2.2m0 0l-.1-.2m0 0l-.1-.1m0 0l-.2-.1m0 0l-.1-.1m2.4 2.7l.3.4m0 0l.2.4m0 0l.1.5m0 0l.2.4m0 0l.1.4m0 0v.5m-5.2-18.3v-.2m0 0l.1-.3m0 0l.1-.2m0 0l.2-.2m0 0l.3-.2m0 0l.2-.1m0 0h.3m4 12.2v7.3m-7.5-24.3h4.2m-5.9 2.9l1.7-2.9m4.2 4.8h-.7m4 12.2v-4.9m-8.1 17.5h-.3m6.3-11.3v-1.3m0-17v-1.3m0-18v-1.5m0 17.2v-15.7m0 18V180m0 21.9v2m0 5.2v-.4m0 .4v2.1m0 0v.2m2.1-3.5v3.5m0-54.7v6.1"/><path d="M447.1 134.9c-.2.1-.4.3-.4.6m8.5 5.8c-.1-.3-.3-.5-.5-.5m-.5 0h.5m-.8-.6c0 .3.1.6.3.6m-.3 24.4v.9m0 0h0v.1h0v.3h0m-3.1-5.3h3.1m-9.9 0h6.8m-6.8 0h-.1m.1-5.7h6.8m-6.8 0v5.7m6.8-5.7v5.7m2.2-15.3l-1.8 2m-.4.4l.4-.4m.7-7.7c0-.9-.8-1.7-1.7-1.7m-6.2 17h-.1m0 0v5.7m10-5.7v-12m-3.1 12h3.1m-.1 11.4h-1.9m0-1.7h2m-7.1-28.8v.1m3.4-.1v.1m0-.1h-3.4m4.7 8.2c.3-.3.4-.7.4-1.1m2 21.7v-4m-3.7-25.7c0-.2-.1-.4-.4-.6m.4.6v.9m-3.4-.9v.9m2.5 10.6l1.5 1.3m.7-3.7l-1.8 2m-.4.4l.4-.4m3.3-.7c.6-.7.9-1.5.9-2.4m0-3.3c0-2-1.7-3.7-3.7-3.7m0 2h-4.9m4.9-2h-4.9m4.4 10.1l1.5 1.3m2.7-7.7v3.3m-2-3.3v.2m0 0v.9m0 0v2.2m0 19.1v-1.4m-1.7-22.5h-4.9m6.6 1.7c0-.9-.8-1.7-1.7-1.7m1.7 2.6h-6.6m4.3 13.5v.7m0 5.7v1.4m0-7.8h3.4m0-5.7v5.7m0-5.7h-4.5m0-2.2v2.2m3-5.7l-3 3.5m3-3.5c.3-.3.4-.7.4-1.1m-.6 5.5v1.3m0-5.5v1.2m.6 2.3v2m0 6.4v-.7m0 7.8h-10.3m12.3-7.1v5.7m-4.1-26.3h-2.7m-6.4 25.8h.9m0 0v-3.1m-.9 0h.9m-3.1-8.6h3.1m-3.1 6h3.1m0 0v-6m-3.1 6.3h5.3m0 0v-4.7m-5.3-20.1h2.2m-2.2 6h2.2m0 0v-6m.9 33.6v-3.4m0-10.1h3.7m0 0V105m-6.8 55.7h2.2m0 0v-3.1m-2.2 0h2.2m-2.2 5.4h2.2m-2.2 5.9h2.2m0 0V163m-2.2-35.3h2.2m0 0v-6m-2.2 0h2.2m.9 35.9v-2.3m-3.1-9.7h3.1m0 0v-6m-3.1 0h3.1m-.9 24.5h.9m0 3v-3" fill="none" stroke="#000" stroke-width=".3" stroke-linecap="round" stroke-linejoin="round" stroke-miterlimit="10"/><path class="st8" d="M653.6 106H588m53.4 13.7V65.4m136.9 54.3V65.4m-124.7 179H588"/><path class="st6" d="M644.5 66.6h130.7M624.6 35.9h166.7M620.2 91V34.6M798.9 91V34.6m-162.4 52H559m77.5 177.5H559m30.2-155v130.7m-239-183.3h77.5m39.2 49.7V29.9M437.2 91V55.2m-124.5 159v-77.5m34.5-9.5h-35.8m35.8 96.1h-35.8M325 79h80.2m32 34.5V77.8m374.6 144.4l-31.3 20.6m31.5-20.6h170.5"/><path class="st8" d="M653.6 106H588m53.4 13.7V65.4m136.9 54.3V65.4"/><path class="st6" d="M355.8 31.7h108m-116.6 96.7v-98m36.1 59V75.7m-36.2 250.2V225m108.2 100.9V210.6m-99.2 112h90.2"/><path class="st9" d="M797.5 35.8L786.9 34v3.6l10.6-1.8zm-19.3 30.8l-10.6-1.8v3.6l10.6-1.8zm-341-10.1l-10.6-1.8v3.5l10.6-1.7zm341 187.6l9.8-4.4-1.9-2.9-7.9 7.3zM347.3 56.5l10.6-1.8v3.5l-10.6-1.7zm-34.7 70.7l-1.7 10.6h3.5l-1.8-10.6zm0 95.6l-1.7-10.6h3.5l-1.8 10.6zM347.3 79l-10.6-1.8v3.6l10.6-1.8zm36.2 0l10.6-1.8v3.6L383.5 79zm238-43.2l10.6-1.8v3.6l-10.6-1.8zm20.3 30.8l10.5-1.8v3.6l-10.5-1.8zm-52.6 39.5l1.7 10.6h-3.5l1.8-10.6zm0 138.2l-1.8-10.6h3.5l-1.7 10.6z"/><path class="st6" d="M560.9 95.6v158.2"/><path class="st9" d="M560.9 86.7l1.8 10.6h-3.5l1.7-10.6zm0 177l-1.7-10.6h3.5l-1.8 10.6zM466.5 31.6l-10.6-1.7v3.5l10.6-1.8zm-119.2 0l10.6-1.7v3.5l-10.6-1.8zm108.3 290.9l-10.2-1.7v3.4l10.2-1.7zm-107.7 0l10.2-1.7v3.4l-10.2-1.7z"/><path d="M334.9 175.8h141.8m-368.1 98.1V85.3M15 175.8h206.2m488.7 98.1V75.1M597.7 175.8h217.4" fill="none" stroke="#fff" stroke-width="1.417" stroke-miterlimit="10" stroke-dasharray="5.6693,2.8347,1.4173,2.8347"/><path class="st8" d="M161.2 244.4h2.8"/><path class="st11" d="M167.6 244.4h3.5"/><path class="st12" d="M172.9 244.4h14.3"/><path class="st8" d="M189 244.4h2.8M177 228.7v2.8"/><path class="st13" d="M177 233.7v2.3"/><path class="st14" d="M177 237.1v19.1"/><path class="st8" d="M177 257.3v2.9M24.5 244.4h2.8"/><path class="st15" d="M30.9 244.4h3.5"/><path class="st16" d="M36.2 244.4h14.3"/><path class="st8" d="M52.3 244.4h2.8m-14.9-15.7v2.8"/><path class="st13" d="M40.2 233.7v2.3"/><path class="st14" d="M40.2 237.1v19.1"/><path class="st8" d="M40.2 257.3v2.9m121-153.4h2.8"/><path class="st11" d="M167.6 106.8h3.5"/><path class="st12" d="M172.9 106.8h14.3"/><path class="st8" d="M189 106.8h2.8M177 91v2.9"/><path class="st17" d="M177 96.1v2.3"/><path class="st18" d="M177 99.5v19.1"/><path class="st8" d="M177 119.7v2.8M24.5 106.8h2.8"/><path class="st15" d="M30.9 106.8h3.5"/><path class="st16" d="M36.2 106.8h14.3"/><path class="st8" d="M52.3 106.8h2.8M40.2 91v2.9"/><path class="st17" d="M40.2 96.1v2.3"/><path class="st18" d="M40.2 99.5v19.1"/><path class="st8" d="M40.2 119.7v2.8m601.5 106.2v2.8"/><path class="st13" d="M641.7 233.7v2.3"/><path class="st14" d="M641.7 237.1v19.1"/><path class="st8" d="M641.7 257.3v2.9m121-15.8h2.9"/><path class="st19" d="M769.1 244.4h3.6"/><path class="st20" d="M774.5 244.4h14.3"/><path class="st8" d="M790.6 244.4h2.8m-15.3-15.7v2.8"/><path class="st13" d="M778.1 233.7v2.3"/><path class="st14" d="M778.1 237.1v19.1"/><path class="st8" d="M778.1 257.3v2.9m-15.4-153.9h2.9"/><path class="st19" d="M769.1 106.3h3.6"/><path class="st20" d="M774.5 106.3h14.3"/><path class="st8" d="M790.6 106.3h2.8"/><path d="M108.6 273.9V85.3M15 175.8h206.2m113.7 0h141.8m233.2 98.1V75.1M597.7 175.8h217.4" fill="none" stroke="#000" stroke-width=".283" stroke-miterlimit="10" stroke-dasharray="5.6693,2.8347,1.4173,2.8347"/><text transform="translate(701.96 32.725)" class="st22 st23">29</text><text transform="translate(382.687 52.926)" class="st22 st23">14.9</text><text transform="rotate(-90 249.69 -59.41)" class="st24"><tspan x="7.4" y="0" class="st22 st23">Ø 16</tspan></text><text transform="translate(360.903 75.717)" class="st22 st23">6</text><text transform="translate(383.018 27.887)" class="st24"><tspan x="7.4" y="0" class="st22 st23">≈ 19.9</tspan></text><text transform="translate(820.37 216.725)" class="st24"><tspan x="0" y="0" class="st22 st23">4 x </tspan><tspan x="31.4" y="0" class="st22 st23">Ø 2.2; max. 3.2 deep</tspan></text><text transform="rotate(-90 387.137 -197.91)" class="st22 st23">22.4</text><text transform="rotate(-90 370.196 -185.246)" class="st22 st23">29</text><text transform="translate(695.823 63.08)" class="st22 st23">22.4</text><text transform="translate(377.957 318.89)" class="st24"><tspan x="7.4" y="0" class="st22 st23">≈ 18.04</tspan></text><path d="M40.9 246.5l23.9 56.1" fill="none" stroke="#000" stroke-width=".283" stroke-linecap="round" stroke-linejoin="round"/><path d="M39.8 247.4l.3-2.8 2.3 1.7-2.6 1.1z"/><path class="st6" d="M64.8 302.6h75.5"/><text transform="translate(71.2 299.627)" class="st24"><tspan x="0" y="0" class="st22 st23">4 x </tspan><tspan x="31.4" y="0" class="st22 st23">Ø 2.08</tspan></text><text transform="translate(712.054 309.854)" class="st22 st23">Recommended screw size: max. M2</text><text transform="translate(689.354 327.754)" class="st22 st23">Bigger screws may damage the camera.</text><text transform="translate(832 374.25)" class="st27 st22 st28">Not to scale</text><text transform="translate(832 390.15)" class="st27 st22 st28">Dimensions in mm</text></svg>