<svg version="1.0" xmlns="http://www.w3.org/2000/svg" viewBox="0 0 210 95"><g clip-rule="evenodd"><path fill-rule="evenodd" d="M26.4 60.9h-2.1l2.1-5.3 2.1 5.3z"/><path fill="none" stroke="#000" stroke-width=".5" stroke-miterlimit="3.864" d="M26.4 60.5v12.2"/></g><g clip-rule="evenodd"><path fill-rule="evenodd" d="M32.4 48.5v2.1l-5.3-2.1 5.3-2.2zm48.7 0v-2.2l5.2 2.2-5.2 2.1z"/><path fill="none" stroke="#000" stroke-width=".5" stroke-miterlimit="3.864" d="M32 48.5h49.4"/></g><g clip-rule="evenodd"><path fill-rule="evenodd" d="M94.1 21.3v2.1l-5.3-2.1 5.3-2.1zm76.1 0v-2.1l5.3 2.1-5.3 2.1z"/><path fill="none" stroke="#000" stroke-width=".5" stroke-miterlimit="3.864" d="M93.8 21.3h76.7"/></g><path clip-rule="evenodd" fill="none" stroke="#000" stroke-width=".5" stroke-miterlimit="3.864" d="M87.6 24.7V17m88.5 7.9v-7.7"/><path clip-rule="evenodd" fill="none" stroke="#000" stroke-miterlimit="3.864" d="M176.1 26.9v27.3m-171.2.5h82.9m-.4-27.8v27.4m.4-26.9H176m.6 26.4h27.9"/><path clip-rule="evenodd" fill="none" stroke="#000" stroke-width=".5" stroke-miterlimit="3.864" d="M26.4 52.6v-7.7"/><text transform="translate(108.88 14.848)" font-family="Helvetica,Arial,sans-serif" font-size="12">Duration</text><text transform="translate(35.216 40.613)" font-family="Helvetica,Arial,sans-serif" font-size="12">Delay</text><text transform="translate(24.28 87.106)" font-family="Helvetica,Arial,sans-serif" font-size="12">Trigger source event occurs</text></svg>