<svg version="1.1" id="Layer_1" xmlns="http://www.w3.org/2000/svg" x="0" y="0" viewBox="0 0 520 300" xml:space="preserve"><style>.st0{fill:none;stroke:#000;stroke-width:.25;stroke-linecap:square;stroke-miterlimit:10}.st10{font-family:Helvetica,Arial,sans-serif}.st11{font-size:12px}.st12{fill:#1d1d1b}.st13{font-size:9.63px}</style><g id="Graph"><path class="st0" d="M276 27.9v224m55.8-224v224m-167.4-224v224m-55.8-224v224m334.8-224v224m-55.8-224v224M52.8 27.9v224m167.4-224v224m279-224v224m-446.5-.1h446.5M52.7 27.9h446.5"/><path fill="none" stroke="#1d1d1b" stroke-miterlimit="10" d="M52.5 27.9h446.7v223.9H52.5z"/><path class="st0" d="M52.8 229.4h446.4M52.8 184.6h446.4M52.8 72.7h446.4M52.8 251.8h446.4M52.8 139.9h446.4M52.8 207h446.4M52.8 50.3h446.4M52.8 27.9h446.4M52.8 95.1h446.4M52.8 162.3h446.4M52.8 117.5h446.4"/><path fill-rule="evenodd" clip-rule="evenodd" d="M396.8 45.8H487v53h-90.2v-53z"/><path d="M396.8 45.2H487v1.3h-90.2z"/><path d="M486.5 45.8h1.3v53h-1.3z"/><path d="M487 45.2h.8v.6h-1.3l.5.7v-1.3zm-90.2 53.1H487v1.3h-90.2z"/><path d="M487.8 98.8v.8h-.8v-1.3l-.5.5h1.3zm-91.5-53h1.3v53h-1.3z"/><path d="M396.8 99.6h-.5v-.8h1.2l-.7-.5v1.3zm-.5-53.8v-.6h.5v1.3l.7-.7h-1.2z"/><path fill-rule="evenodd" clip-rule="evenodd" fill="#fff" d="M394.1 43.2h90.2v53.2h-90.2V43.2z"/><path d="M394.1 42.7h90.2V44h-90.2z"/><path d="M483.8 43.2h1.3v53.2h-1.3z"/><path d="M484.3 42.7h.7v.5h-1.2l.5.7v-1.2zm-90.2 53.1h90.2v1.3h-90.2z"/><path d="M485 96.4v.7h-.7v-1.3l-.5.6h1.2zm-91.5-53.2h1.3v53.2h-1.3z"/><path d="M394.1 97.1h-.6v-.7h1.3l-.7-.6v1.3zm-.6-53.9v-.5h.6v1.2l.7-.7h-1.3z"/><path d="M402.2 52.8h13.7v1.1h-13.7zm16 0h2.3v1.1h-2.3zm4.6 0h12.1v1.1h-12.1z" fill="#00f"/><path d="M402.2 69.7h2.3v1.1h-2.3zm4.6 0h2.3v1.1h-2.3zm4.6 0h2.3v1.1h-2.3zm4.5 0h2.3v1.1h-2.3zm4.6 0h2.3v1.1h-2.3zm4.5 0h2.3v1.1H425zm4.6 0h2.3v1.1h-2.3zm4.6 0h.7v1.1h-.7z" fill="#0f0"/><path fill="red" d="M402.2 86.6h32.6v1.1h-32.6z"/></g><g id="Curves" fill="none" stroke-miterlimit="10"><path stroke="#00f" stroke-dasharray="12,2,2,2" d="M53.3 246.5l7.6 3.4 6.1-1.7 3.2-1.7 5.2 3.4h6.5l6.6-1.7 3.9-1.7 5.3-5.7 2.6-13.9 3.8-14.6 4.2-13.9 2.5-12.9 2.8-11.2 1.5-4.2 4.9-14.4 6.8-16.3 6-12.4 6.1-10.7 3.7-4.1 3.6-2.1 2.8-.9 3.1.8 2 1.4 1.5 4.1 1 3.6 3 9.1 2.6 9.7 3.9 15.1 4.1 14.9 2.8 14.6 3.4 14.9 3.8 11 1.3 6.1 8.7 9.9 7.4 9.4 5.3 2.8 10.7 1 11.1 2 9.5 1.2 5.8-2 10-5.2 9.4-7 10.5-5.2 8.6-4.2 4.4-.7 8.1 3.2 7.7-.2 13.2-5.5 4.6-3.2 4.5-9.4 4.9-21.4 3.8-24.8 2.7-16.8 5.4-21.9 5.5-7.9 6.4 3.7 4.5 9 7.8 2.5 8.6 6.9 5.7 9.2 6.2 11.1 5.5 10.4 6 9.7 5.8 8.1 6.9 5.1 7.3 10.4 6.8 9.4 7.4 7.7 10.6 8.2 7.5 7.6 7.8 6 10.2 6.2 11.5 5.5 10.7 1.7 8.7 1.5 3.6-.4"/><path stroke="#0f0" stroke-dasharray="3,3,3,3" d="M53.3 247l9.9 2.9 6.4-2.9 6 2.9 8.9-2.9 7-2 6.4 2.4 5.3-3.9 6 1 5.9-4.2 5.8-1.7h6.7l3.7-2.5 5.3-5.2 6-3.5 5-6.2 6.8-28.3 5-22 4.2-20.9 3.6-20.1 2.2-17.1 3.1-12.4 3.2-14.9 4.5-15.9 6.2-7.6 4.2 1.7 2.1 2 3.7 7.6 2.7 7.3 5.3 18.1 4.3 18.6 3.2 14.6 3.6 18.1 3.4 15.9 2.8 19.1 4.2 17.6 4.3 9.9 1.9 3.7 4.7 3.3 6.4 1.2 6.8 1 4.8-2.7 7.7-10.6 6.8-14.2 5.1-11.2 5.4-9.7 2.1-4.7 9.3 1.3 3.9-2.5 3.8-3 4.9-8.5 6.3-11.1 6.6-4 9.8-6.7 6.8-10.4 6.8-6.7 5.3-.5 3.9 1 4.9 5 6.4 4.5 6.6 1.4 4.4 3.8 4.1 7.2 3.8 7.2 4.9 7.4 6.1 10.4 5.2 7.9 5.5 7.2 7.8 8.2 6.4 9.4 5.4 7.5 8 7.2 7.9 6.7 6.8 8.6 8.9 6.3 10.3 6.4 11.2 4.5 10.7 2.2 14.2 1.7"/><path stroke="red" d="M53.5 247.7l8.4 2.2 2.4.6 4-2.8L70 246l4.1 2.2h1.3l2.5-3.7 2.8-5.7 5.9-5 7.3-2.2 4.4-1 4.5-2.2 6.4 5.9 5.3 3.3 7.9 4.9 11.9 4.7 15.3.5 13.4-.7 8.5-2.2 7.8-3.3 1.7-1 11.5.8 4.9-.8 6.8-5.9 1.5-18.9 1.9-20.3 2-26.8 1.1-25.3 1.4-24.2 1.3-19.9 1.3-21.8v-7.8l3.4-17.8 2.1-13.4 6.2-8.4 5.5-1.7 5.3 7.6 8.5 5.5 3.6 2 4.9 7.7 5.2 1.2 4 7.2 2.5 4.2 5.1 3.5 5.5-2.2 5.8-4.5 5.3 1.7 3.5-4.7 1.9-1.3 3 1.6 2.9 3.4 5.9 1.3 5.2 7.1 6.3 5.3 4.9 5.2 5.5 9.7 9 1.2 4 2.7 7.3 10.2 8.2 10.8 5.3 6.8 5.4 2 6.2 5.2 5.1 10.7 6.1 12.9 7.3 12.3 8.4 12.2 6.4 5 7.3 10.6 6.1 9.7 8.1 8.2 5.8 5.4 6.6 5.5 8.5 9.2 9.3 5.7 9.8 5.4 10 3.5 9.4 1.7 8.7 1.8 3.8.2"/></g><g id="Text"><text transform="translate(216.19 286.83)" class="st10 st11">W</text><text transform="translate(226.64 286.83)" class="st10 st11">a</text><text transform="translate(233.08 286.83)" class="st10 st11">v</text><text transform="translate(238.82 286.83)" class="st10 st11">elength (nm)</text><text transform="translate(443.54 57.71)" class="st12 st10 st11">Blue</text><text transform="translate(443.54 74.01)" class="st12 st10 st11">G</text><text transform="translate(451.71 74.01)" class="st12 st10 st11">r</text><text transform="translate(455.66 74.01)" class="st12 st10 st11">een</text><text transform="rotate(-90 107.485 88.395)" class="st12 st10 st11">Relati</text><text transform="rotate(-90 92.475 73.385)" class="st12 st10 st11">v</text><text transform="rotate(-90 89.61 70.52)" class="st12 st10 st11">e Response</text><text transform="translate(443.54 90.76)" class="st12 st10 st11">Red</text><text transform="translate(31.67 211.79)" class="st10 st13">0.2</text><text transform="translate(31.67 166.63)" class="st10 st13">0.4</text><text transform="translate(31.67 121.47)" class="st10 st13">0.6</text><text transform="translate(31.67 76.3)" class="st10 st13">0.8</text><text transform="translate(31.67 256.96)" class="st10 st13">0.0</text><text transform="translate(31.67 31.14)" class="st10 st13">1.0</text><text transform="translate(45.17 267.38)" class="st10 st13">300</text><text transform="translate(101.04 267.38)" class="st10 st13">400</text><text transform="translate(156.92 267.38)" class="st10 st13">500</text><text transform="translate(212.79 267.38)" class="st10 st13">600</text><text transform="translate(268.66 267.38)" class="st10 st13">700</text><text transform="translate(324.54 267.38)" class="st10 st13">800</text><text transform="translate(380.41 267.38)" class="st10 st13">900</text><text transform="translate(433.6 267.38)" class="st10 st13">1000</text><text transform="translate(489.84 267.38)" class="st10 st13">1100</text></g></svg>