<svg version="1.1" id="Layer_1" xmlns="http://www.w3.org/2000/svg" x="0" y="0" viewBox="0 0 1000 394" xml:space="preserve"><style>.st0,.st1,.st2{fill:none;stroke:#000;stroke-miterlimit:10}.st0{stroke-linecap:round;stroke-linejoin:round;stroke-width:.5}.st1,.st2{stroke-width:.283}.st2{stroke-linecap:round;stroke-linejoin:round}.st3{fill-rule:evenodd;clip-rule:evenodd;fill:#1a171b}.st4,.st5,.st6{fill:none;stroke:#fff;stroke-width:1.417;stroke-miterlimit:10;stroke-dasharray:5.6693,2.8347,1.4173,2.8347}.st5,.st6{stroke:#000;stroke-width:.283;stroke-dasharray:1.1118,2.2236}.st6{stroke-dasharray:4.4471,2.2236,1.1118,2.2236}.st10,.st11,.st12,.st13,.st14,.st15,.st16,.st17{fill:none;stroke:#000;stroke-width:.283;stroke-miterlimit:10}.st7{stroke-dasharray:1.7667,3.5335}.st7,.st8,.st9{fill:none;stroke:#000;stroke-width:.283;stroke-miterlimit:10}.st8{stroke-dasharray:7.067,3.5335,1.7667,3.5335}.st9{stroke-dasharray:5.6693,2.8347,1.4173,2.8347}.st10{stroke-dasharray:1.7648,3.5297}.st11{stroke-dasharray:7.0593,3.5297,1.7648,3.5297}.st12{stroke-dasharray:1.1106,2.2213}.st13{stroke-dasharray:4.4425,2.2213,1.1106,2.2213}.st14{stroke-dasharray:1.7648,3.5296}.st15{stroke-dasharray:7.0592,3.5296,1.7648,3.5296}.st16{stroke-dasharray:1.1105,2.2209}.st17{stroke-dasharray:4.4419,2.2209,1.1105,2.2209}.st18{font-family:Helvetica,Arial,sans-serif}.st19{font-size:14.754px}.st22{fill:#1a1a18}.st23{font-size:14.75px}</style><path class="st0" d="M118 198.2V197m0 1.2v1.4m0 .5v-.5m-.8.5v-.5m0-1.4v1.4m0-1.4V197m0 2.6h.8m0-1.4h-.8m0-1.2h.8m-60.9 3.1h93.6m-21.3-3.1h.8m0 1.2V197m-.8 1.2V197m.8 1.2h-.8m-77 11.8h103m-96.8 2.8h3.8m.8 0h2.3m.7 0h2.3m.8 0h2.3m.7 0h2.3m.8 0h2.3m.7 0h2.3m.7 0h2.4m.7 0h2.3m.7 0h2.3m.8 0h2.3m.7 0h2.3m.8 0H99m.7 0h2.3m.8 0h2.3m.7 0h2.3m.7 0h2.4m.7 0h2.3m.7 0h2.3m.8 0h2.3m.7 0h2.3m.8 0h2.3m.7 0h2.3m.8 0h2.3m.7 0h2.3m.7 0h2.4m3 0h-2.3m5.3 0h-2.3m7 0h-3.9m-86.8 0v1.1m0 0h-5.8m9.6.7v-.7m0 0V210m0 4.6h.8m0 0v-.7m0 0h-.8m.8 0V210m82.2 4.6h-.8m-2.3 0h-.7m-2.3 0h-.7m-3.1 0h.7m-3.7 0h.7m-3.8 0h.8m-3.8 0h.7m-3.8 0h.8m-3.8 0h.7m-3.8 0h.8m-3.8 0h.7m-3.7 0h.7m-3.8 0h.7m-3.7 0h.7m-3.8 0h.8m-3.8 0h.7m-3.8 0h.8m-3.8 0h.7m-3.8 0h.8m-3.8 0h.7m-3.7 0h.7m-3.8 0h.7m-3.7 0h.7m-3.8 0h.8m-3.8 0h.7m-3.8 0h.8m-3.8 0h.7m-13.4-.7v11.5m2.4 0h-2.4m2.4-6.7h97.4m0 6.7h2.5m0-11.5v11.5m-5.8-11.5h5.8m-5.8-1.1v1.1m-4.7.7v-.7m0-3.9v3.9m0 0h.8m0 0V210m0 4.6v-.7m-3.1 0V210m0 4.6v-.7m-.7 0h.7m-.7.7v-.7m0 0V210m-2.3 3.9V210m0 4.6v-.7m-.7 0h.7m-.7.7v-.7m0 0V210m-5.4 3.9V210m0 4.6v-.7m0 0h-.7m0 .7v-.7m0 0V210m-2.3 0v3.9m0 .7v-.7m-.8.7v-.7m0-3.9v3.9m.8 0h-.8m-2.3 0V210m0 4.6v-.7m0 0h-.7m0 .7v-.7m0 0V210m-2.3 3.9V210m0 4.6v-.7m0 0h-.8m0 .7v-.7m0 0V210m-2.3 0v3.9m0 .7v-.7m-.7.7v-.7m0-3.9v3.9m.7 0h-.7m-2.3 0V210m0 4.6v-.7m0 0h-.8m0 .7v-.7m0 0V210m-2.3 3.9V210m0 4.6v-.7m0 0h-.7m0 .7v-.7m0 0V210m-2.3 3.9V210m0 4.6v-.7m0 0h-.7m0 .7v-.7m0 0V210m-2.4 3.9V210m0 4.6v-.7m0 0h-.7m0 .7v-.7m0 0V210m-2.3 3.9V210m0 4.6v-.7m0 0h-.7m0 .7v-.7m0 0V210m-2.3 3.9V210m0 4.6v-.7m0 0h-.8m0 .7v-.7m0 0V210m-2.3 0v3.9m0 .7v-.7m-.7.7v-.7m0-3.9v3.9m.7 0H99m-2.3 0V210m0 4.6v-.7m0 0h-.8m0 .7v-.7m0 0V210m-2.3 3.9V210m0 4.6v-.7m0 0h-.7m0 .7v-.7m0 0V210m-2.3 0v3.9m0 .7v-.7m-.8.7v-.7m0-3.9v3.9m.8 0h-.8m-2.3 0V210m0 4.6v-.7m0 0h-.7m0 .7v-.7m0 0V210m-2.3 3.9V210m0 4.6v-.7m0 0h-.7m0 .7v-.7m0 0V210m-2.4 0v3.9m0 .7v-.7m-.7.7v-.7m0-3.9v3.9m.7 0h-.7m-2.3 0V210m0 4.6v-.7m0 0h-.7m0 .7v-.7m0 0V210m-2.3 3.9V210m0 4.6v-.7m0 0h-.8m0 .7v-.7m0 0V210m-2.3 3.9V210m0 4.6v-.7m0 0h-.7m0 .7v-.7m0 0V210m-2.3 3.9V210m0 4.6v-.7m0 0h-.8m0 .7v-.7m0 0V210m-2.3 3.9V210m0 4.6v-.7m0 0h-.7m0 .7v-.7m0 0V210m87.1 23.2H55.2m97.4-1.2v1.2m0-1.2H55.2m0 0v1.2m97.4-12.3V232m-97.4-11.1h97.4m-97.4 0V232m0-13.3v2.2m97.4-2.2v2.2m-17.1-6.3v-.7m0 0V210m.7 3.9V210m0 4.6v-.7m0 0h-.7m-75.9-1.4V210m-1.3 3.8h-2.4m3.7-1.3l-.3.3m-.7.7l-.3.3m-9.2 17h5.7m.4 0h-.4m1.1-16.9V210m92.4 2.5V210m4.7 17.1v3.7m-7.6-32.6V197m0 2.6v-1.4m0 1.9v-.5m13.3 31.2v-26.5m-9.2 9.5h2.4m3.5 13.3V210m-7.1 2.5l.2.3m.8.7l.2.3m-92.4-13.7v4.2m94.8 9.6V210m-102.8-5.7h8m-2.3 22.8v3.7m-2.4-3.7h2.4m-2.4 0V210m16.1 25.1v-.3m0 0v-.3m0-1.3v1.3m.8-1.3v1.3m0 .3v-.3m0 .6v-.3m0 .3h-.8m0-.3h.8m0-.3h-.8m15.3.6v-.3m0 0v-.3m0-1.3v1.3m.7-1.3v1.3m0 .3v-.3m0 .6v-.3m0-.3h-.7m0 .3h.7m0 .3h-.7m15.2 0v-.3m0 0v-.3m0-1.3v1.3m.7-1.3v1.3m0 .3v-.3m0 .6v-.3m0 .3H99m0-.3h.7m0-.3H99m15.2.6v-.3m0 0v-.3m0-1.3v1.3m.7-1.3v1.3m0 .3v-.3m0 .6v-.3m0 .3h-.7m0-.3h.7m0-.3h-.7m15.2.6v-.3m0 0v-.3m0-1.3v1.3m.8-1.3v1.3m0 .3v-.3m0 .6v-.3m0 .3h-.8m0-.3h.8m0-.3h-.8m-74.5-1.3v-2.4m.3 2.4h-.3m-5.8-2.4v-26.5m81.1-4.2v-.5m-.8 0h.8m-.8.5v-.5m16 0h-.8m0 .5v-.5m0-1.4v1.4m0-1.4V197m0 1.2h.8m0-1.2h-.8m-12.1 3.1v-.5m0-1.4v1.4m0-1.4V197m0 2.6h.7m0-1.4v1.4m0-1.4h-.7m.7 0V197m0 3.1v-.5m-.7-2.6h.7m-6.8 3.1v-.5m0-1.4v1.4m0-1.4V197m0 2.6h.7m0-1.4v1.4m0-1.4h-.7m.7 0V197m0 3.1v-.5m-.7-2.6h.7m8.4 3.1v-.5m0-1.4v1.4m0-1.4V197m0 2.6h.7m0-1.4v1.4m0-1.4h-.7m.7 0V197m0 3.1v-.5m-.7-2.6h.7m6.1 1.2V197m0 1.2v1.4m0 .5v-.5m-.7-1.4h.7m-.7 0v1.4m.7 0h-.7m.7-2.6h-.7m0 1.2V197m0 3.1v-.5m-2.3-1.4V197m0 1.2v1.4m0 .5v-.5m-.7-1.4h.7m-.7 0v1.4m.7 0h-.7m.7-2.6h-.7m0 1.2V197m0 3.1v-.5m-76.2.5v-.5m0-1.4v1.4m0-1.4V197m0 2.6h.8m0-1.4v1.4m0-1.4h-.8m.8 0V197m0 3.1v-.5m-.8-2.6h.8m2.3 3.1v-.5m0-1.4v1.4m0-1.4V197m0 2.6h.7m0-1.4v1.4m0-1.4h-.7m.7 0V197m0 3.1v-.5m-.7-2.6h.7m2.3 3.1v-.5m0-1.4v1.4m0-1.4V197m0 2.6h.8m0-1.4v1.4m0-1.4h-.8m.8 0V197m0 3.1v-.5m-.8-2.6h.8m2.3 3.1v-.5m0-1.4v1.4m0-1.4V197m0 2.6h.7m0-1.4v1.4m0-1.4h-.7m.7 0V197m0 3.1v-.5m-.7-2.6h.7m2.3 3.1v-.5m0-1.4v1.4m0-1.4V197m0 2.6h.8m0-1.4v1.4m0-1.4h-.8m.8 0V197m0 3.1v-.5m-.8-2.6h.8m3 1.2V197m0 1.2v1.4m0 .5v-.5m-.7 0h.7m0-1.4h-.7m0 0v1.4m0-2.6h.7m-.7 1.2V197m0 3.1v-.5m3 .5v-.5m0-1.4v1.4m0-1.4V197m0 2.6h.7m0-1.4v1.4m0-1.4h-.7m.7 0V197m0 3.1v-.5m-.7-2.6h.7m2.4 3.1v-.5m0-1.4v1.4m0-1.4V197m0 2.6h.7m0-1.4v1.4m0-1.4h-.7m.7 0V197m0 3.1v-.5m-.7-2.6h.7m2.3 3.1v-.5m0-1.4v1.4m0-1.4V197m0 2.6h.7m0-1.4v1.4m0-1.4h-.7m.7 0V197m0 3.1v-.5m-.7-2.6h.7m2.3 3.1v-.5m0-1.4v1.4m0-1.4V197m0 2.6h.8m0-1.4v1.4m0-1.4h-.8m.8 0V197m0 3.1v-.5m-.8-2.6h.8m2.3 3.1v-.5m0-1.4v1.4m0-1.4V197m0 2.6h.7m0-1.4v1.4m0-1.4h-.7m.7 0V197m0 3.1v-.5m-.7-2.6h.7m2.3 3.1v-.5m0-1.4v1.4m0-1.4V197m0 2.6h.8m0-1.4v1.4m0-1.4h-.8m.8 0V197m0 3.1v-.5m-.8-2.6h.8m3 1.2V197m0 1.2v1.4m0 .5v-.5m-.7 0h.7m0-1.4H99m0 0v1.4m0-2.6h.7m-.7 1.2V197m0 3.1v-.5m3 .5v-.5m0-1.4v1.4m0-1.4V197m0 2.6h.8m0-1.4v1.4m0-1.4h-.8m.8 0V197m0 3.1v-.5m-.8-2.6h.8m2.3 3.1v-.5m0-1.4v1.4m0-1.4V197m0 2.6h.7m0-1.4v1.4m0-1.4h-.7m.7 0V197m0 3.1v-.5m-.7-2.6h.7m2.3 3.1v-.5m0-1.4v1.4m0-1.4V197m0 2.6h.7m0-1.4v1.4m0-1.4h-.7m.7 0V197m0 3.1v-.5m-.7-2.6h.7m2.4 3.1v-.5m0-1.4v1.4m0-1.4V197m0 2.6h.7m0-1.4v1.4m0-1.4h-.7m.7 0V197m0 3.1v-.5m-.7-2.6h.7m3 1.2V197m0 1.2v1.4m0 .5v-.5m-.7 0h.7m0-1.4h-.7m0 0v1.4m0-2.6h.7m-.7 1.2V197m0 3.1v-.5m6.1.5v-.5m0-1.4v1.4m0-1.4V197m0 2.6h.7m0-1.4v1.4m0-1.4h-.7m.7 0V197m0 3.1v-.5m-.7-2.6h.7m2.3 3.1v-.5m0-1.4v1.4m0-1.4V197m0 2.6h.8m0-1.4v1.4m0-1.4h-.8m.8 0V197m0 3.1v-.5m-.8-2.6h.8m5.3 1.2v1.4m.8-1.4v1.4m22.4 31.2h.4m2.4-3.7H153m-2.3-27v4.2m8 26.5H153m5.7-26.5h-8m2.2 28.9v-2.4m-.3 2.4h.3m-8.8-51.3v6.7m0 0h-15.8m0 0v-6.7m0 0h15.8m-116 20.7h15.8m0 0v12.8m0 0H28.1m0 0v-12.8M143 137.9h3.4m0 0v6.4m0 0H143m0 0v-6.4m13.7 35.7v3.3m0 0h-6.4m0 0v-3.3m0 0h6.4m22.2 13.1v3.3m0 0h-6.3m0 0v-3.3m0 0h6.3M143 127.3h3.4m0 0v6.4m0 0H143m0 0v-6.4m-6.4-18.9v-3.3m0 0h6.4m0 0v3.3m0 0h-6.4M30.4 152.6v-3.4m0 0h6.4m0 0v3.4m0 0h-6.4m78.8-39v-3.4m0 0h6.4m0 0v3.4m0 0h-6.4m-1.6 68.3v6.7m0 0H91.7m0 0v-6.7m0 0h15.9m-31.8-15.6v-3.4m0 0h6.3m0 0v3.4m0 0h-6.3m-20.4-43v3.4m0 0H49m0 0v-3.4m0 0h6.4m24 6.1h3.4m0 0v6.4m0 0h-3.4m0 0v-6.4m-8.5-.6v3.4m0 0h-6.4m0 0v-3.4m0 0h6.4m79.4 32.6V158m0 0h6.4m0 0v3.4m0 0h-6.4m-24.5 20.5v6.7m0 0H110m0 0v-6.7m0 0h15.8m54.5 37.5v4.2m0 0h-15.8m0 0v-4.2m0 0h15.8m-90.2-42.2v-3.3m0 0h6.4m0 0v3.3m0 0h-6.4m-31.4-51.4v-16.2m0 0h13.1m0 0v16.2m0 0H58.7m-28.3 31.9v-3.3m0 0h6.4m0 0v3.3m0 0h-6.4m31.2 23.5v8.8m0 0H48.2m0 0v-8.8m0 0h13.4m10-46.4v31m0 0h-31m0 0v-31m0 0h31m30 37.2v-3.3m0 0h6.4m0 0v3.3m0 0h-6.4m21.3 0v-3.3m0 0h6.4m0 0v3.3m0 0h-6.4m-10.6 5.2v-3.3m0 0h6.4m0 0v3.3m0 0h-6.4m-74.6-40.8h-3.4m0 0V130m0 0h3.4m0 0v6.4m116.1 105.5v4.3m0 0h-11.5m0 0v-4.3m0 0h11.5M38.9 177.5h-3.3m0 0v-6.4m0 0h3.3m0 0v6.4m49-12.2h-3.3m0 0V159m0 0h3.3m0 0v6.3m92.6 47.2v3.4m0 0h-6.4m0 0v-3.4m0 0h6.4m-146.8 6.7v3.4m0 0h-6.4m0 0v-3.4m0 0h6.4m-.6-41.7h-3.3m0 0v-6.4m0 0h3.3m0 0v6.4m10.5 3.7v8.8m0 0H30.2m0 0v-8.8m0 0h13.4m-6.5 41.4v-3.4m0 0h6.4m0 0v3.4m0 0h-6.4M91.3 172v-3.3m0 0h6.4m0 0v3.3m0 0h-6.4m13.7-61.8v3.4m0 0h-6.4m0 0v-3.4m0 0h6.4m45.3 56.4v-3.4m0 0h6.4m0 0v3.4m0 0h-6.4m-72.7-6.4h-3.4m0 0v-6.4m0 0h3.4m0 0v6.4m21.9 17v-3.3m0 0h6.4m0 0v3.3m0 0h-6.4m-25.3-47.8h3.4m0 0v6.4m0 0h-3.4m0 0v-6.4M65.4 172v-3.3m0 0h6.4m0 0v3.3m0 0h-6.4m35.8-69.2v4.2m0 0H89.6m0 0v-4.2m0 0h11.6M60.8 106v-3.4m0 0h6.4m0 0v3.4m0 0h-6.4m75.8 7.6v-3.4m0 0h6.4m0 0v3.4m0 0h-6.4M32.5 136.7h-3.9m0 0v-7m0 0h3.9m0 0v7m48.1 41.7v-3.3m0 0H87m0 0v3.3m0 0h-6.4m-1.2-61.5h3.4m0 0v6.4m0 0h-3.4m0 0v-6.4m-5.2 0h3.4m0 0v6.4m0 0h-3.4m0 0v-6.4m-13.5 136c0-1.7-1.4-3-3-3-1.7 0-3 1.4-3 3 0 1.7 1.4 3 3 3s3-1.4 3-3zm-8.1-138.7H56m0 0v6.4m0 0h-3.4m0 0v-6.4m-1.8 14.6v3.4m0 0h-6.4m0 0v-3.4m0 0h6.4m42-18.6v3.4m0 0h-6.4m0 0v-3.4m0 0h6.4m30.1 67v-3.3m0 0h6.4m0 0v3.3m0 0h-6.4M56 110.9h-3.4m0 0v-6.4m0 0H56m0 0v6.4m-27.1 29.2h3.3m0 0v6.4m0 0h-3.3m0 0v-6.4m1.5 28v-3.4m0 0h6.4m0 0v3.4m0 0h-6.4m109.6.6v3.3m0 0h-6.4m0 0v-3.3m0 0h6.4m-57.2-8.5h-3.4m0 0v-6.4m0 0h3.4m0 0v6.4m-38.1 17.3h-3.3m0 0v-6.4m0 0h3.3m0 0v6.4m43.2-54.2h-3.3m0 0v-6.4m0 0h3.3m0 0v6.4m21.3-14.9v-3.3m0 0h6.4m0 0v3.3m0 0h-6.4m-18.7 57.7v-49.9m0 0h49.9m0 0v49.9m0 0H90.5m78.4 20.6v3.3m0 0h-6.4m0 0v-3.3m0 0h6.4m-49-78.3v-3.3m0 0h6.4m0 0v3.3m0 0h-6.4m23.1 8.2h3.4m0 0v6.4m0 0H143m0 0v-6.4m21 99.3v-3.4m0 0h6.4m0 0v3.4m0 0H164M80.6 173v-3.4m0 0H87m0 0v3.4m0 0h-6.4m4-24.1h3.3m0 0v6.4m0 0h-3.3m0 0v-6.4m27.7 23.1v-3.3m0 0h6.4m0 0v3.3m0 0h-6.4m-80.6 56c0-1.3-1.1-2.4-2.4-2.4s-2.4 1.1-2.4 2.4c0 1.3 1.1 2.4 2.4 2.4s2.4-1.1 2.4-2.4zm144.7-.7v4.3m0 0h-11.6m0 0v-4.3m0 0h11.6m-122-95.1v-3.4m0 0h6.4m0 0v3.4m0 0h-6.4m16.5 55.4H65m0 0v-10.7m0 0h5.9m0 0v10.7m18.4-5.7v6.7m0 0H73.5m0 0v-6.7m0 0h15.8m-27.7-11.7v8.8m0 0H48.2m0 0v-8.8m0 0h13.4m-30.9 28v-5.8m0 0h10.7m0 0v5.8m0 0H30.7m89.2-84.6v-3.4m0 0h6.4m0 0v3.4m0 0h-6.4m28.3 24.3h3.4m0 0v6.4m0 0h-3.4m0 0v-6.4m-5.2 21.7h3.4m0 0v6.4m0 0H143m0 0v-6.4m-49.1 82v4.3m0 0h-42m0 0v-4.3m0 0h42M34.3 140.1h3.4m0 0v6.4m0 0h-3.4m0 0v-6.4m43.3 8.2h-3.4m0 0v-6.4m0 0h3.4m0 0v6.4m90.5 62V192m0 0h8.6m0 0v18.3m0 0h-8.6M70.7 106.1v-3.6m0 0h6.7m0 0v3.6m0 0h-6.7m3.8 64.1h3.4m0 0v6.4m0 0h-3.4m0 0v-6.4m73.7-42.9h3.4m0 0v6.4m0 0h-3.4m0 0v-6.4m-63.6 2.1h3.3m0 0v6.4m0 0h-3.3m0 0v-6.4m-54.2 33.5v-3.3m0 0h6.4m0 0v3.3m0 0h-6.4m123.4-55.5c0-1.7-1.4-3-3-3-1.7 0-3 1.4-3 3 0 1.7 1.4 3 3 3 1.7 0 3-1.4 3-3zm2.9 61v3.3m0 0h-6.4m0 0v-3.3m0 0h6.4M143 148.6h3.4m0 0v6.4m0 0H143m0 0v-6.4m-11.7-50.2c.3 1.7 1.8 2.8 3.5 2.6 1.3-.2 2.4-1.2 2.6-2.6m-6.3-.2c.1.1.2.1.2.2m-.2-.2c-.2-.2-.4-.2-.6-.2m-99.7-.1h99.7m-99.7 0c-5 0-9.1 4.1-9.1 9.1m0 146.2V107m0 146.2c0 5 4.1 9.1 9.1 9.1m57.1 0H30.8m57.1 0c.2 0 .5-.1.6-.2m.2-.2c-.1.1-.2.1-.2.2m6.2-.2c-.3-1.7-1.8-2.8-3.5-2.6-1.3.2-2.4 1.2-2.6 2.6m6.4.2c-.1-.1-.2-.1-.2-.2m.2.2c.2.2.4.2.6.2m81.4 0H95.6m81.4 0c5 0 9.1-4.1 9.1-9.1m0-146.2v146.2m0-146.2c0-5-4.1-9.1-9.1-9.1m-38.8 0H177m-38.8 0c-.2 0-.5.1-.6.2m-.2.3c.1-.1.2-.1.2-.2M26 91.8h158.9m-168.4 8.3l7.4-7.4m-8.3 168.4V102.2m7.3 166.2v-.1m162 .1h-162m162 0v-.1m-169.3-7.2h.1m-.1 0c0 4 3.3 7.3 7.3 7.3M192.2 99.1h-.1m.1 0c0-4-3.3-7.3-7.3-7.3m7.3 169.3h-.1m.1-162v162m-7.3 7.3c4 0 7.3-3.3 7.3-7.3M26 91.8c-.8 0-1.6.3-2.2.9m-7.3 7.4c-.6.6-.9 1.3-.9 2.2m0-.1l.1.1m10.4-10.4l-.1-.1m-9.4 8.3h-.1m-.8 115.1v.3c0 .2.1.3.3.4.2.1.6 0 .9-.1m.1.1l-.3-.3"/><path class="st0" d="M16.7 215.6c-.1.1-.3.2-.4.1-.1-.1-.1-.3-.2-.4v-.3m0 .1c-.2 0-.3.1-.3.2m.9-70.7l.3-.2m0 0l-.1-.1c-.1 0-.2-.1-.3-.1h-.4c-.1 0-.2.1-.3.2-.1.1-.1.2-.1.3v.3m-.1 0c0 .1.1.1.3.2"/><path class="st0" d="M16.1 145.2v-.2c0-.1 0-.2.1-.3 0-.1.1-.1.1-.2h.2c.1 0 .1.1.1.1l.1.1m-1-42.4H17m-1.3 0V145m1.3-.6v-42.1m-.4-2.2l.9.9m-.9-.9c-.6.6-.9 1.3-.9 2.2m1.8-1.3c-.3.3-.5.8-.5 1.3m6.9-9.5l.9.9m-.9-.9l-7.3 7.3m.9.9l7.3-7.3m1.3-1.8v1.3m0-1.3c-.8 0-1.6.3-2.2.9m2.2.4c-.5 0-.9.2-1.3.5m160.1-1.8v1.3m0-1.3H26.1m0 1.3h158.8m7.2 5.9h-1.2m1.2 0c0-4-3.2-7.2-7.2-7.2m6 7.2c0-3.3-2.7-6-6-6m7.2 168h-1.2m1.2 0v-162m-1.2 0v162m-6 7.2v-1.2m0 1.2c4 0 7.2-3.2 7.2-7.2m-7.2 6c3.3 0 6-2.7 6-6m-168 7.2v-1.2m0 1.2h162m0-1.2h-162m-7.2-6H17m-1.3 0c0 4 3.2 7.2 7.2 7.2m-5.9-7.2c0 3.3 2.7 6 6 6m-7.3-51.9v45.9m1.3 0v-45.2m-1.3-2.9h.3m-.3 0v2.2m.3-2.2v2m-.3-67.8h.3m-.3 0V213m.3 0v-65.8m-.3-2.2v2.2m.4-2v2m1.9 0h-.3m.3 0c0-1-.4-1.9-1.1-2.8m.8 2.8c0-.9-.4-1.8-1-2.6M18 213h-.3m.3 0v-65.8m-.3 0V213m-.7 2.9c.7-.9 1-1.9 1-2.9m-1.3 2.6c.7-.8 1-1.7 1-2.6M16 147.2h1.7M16 213h1.7m12.4 51.6h58.3m-68.9-10.7c0 5.9 4.8 10.7 10.7 10.7M19.5 106.3v147.6M30.1 95.7c-5.9 0-10.7 4.8-10.7 10.7M131 95.7H30.1m102.4 1.5c0-.8-.7-1.5-1.5-1.5m1.5 1.9v-.4m0 .4c0 1 .8 1.8 1.8 1.8s1.8-.8 1.8-1.8m.1-.4v.4m1.5-1.9c-.8 0-1.5.7-1.5 1.5m41.5-1.5h-40m50.7 10.6c0-5.9-4.8-10.7-10.7-10.7m10.7 158.3V106.3m-10.7 158.3c5.9 0 10.7-4.8 10.7-10.7m-93.3 10.7h82.6M93.5 263c0 .8.7 1.5 1.5 1.5m-1.5-1.9v.4m0-.4c0-1-.8-1.8-1.8-1.8s-1.8.8-1.8 1.8m0 .4v-.4m-1.5 2c.8 0 1.5-.7 1.5-1.5m94.5-151.2c0-6.8-5.5-12.3-12.3-12.3s-12.3 5.5-12.3 12.3 5.5 12.3 12.3 12.3 12.3-5.5 12.3-12.3z"/><path class="st0" d="M181.1 111.9c0-5-4-9-9-9s-9 4-9 9 4 9 9 9 9-4 9-9z"/><path class="st0" d="M179.2 111.9c0-3.9-3.2-7.1-7.1-7.1-3.9 0-7.1 3.2-7.1 7.1s3.2 7.1 7.1 7.1c3.9 0 7.1-3.2 7.1-7.1z"/><path class="st0" d="M178.4 111.9c0-3.5-2.8-6.3-6.3-6.3s-6.3 2.8-6.3 6.3 2.8 6.3 6.3 6.3c3.5.1 6.3-2.8 6.3-6.3z"/><path class="st0" d="M184.6 111.9c0-6.9-5.6-12.5-12.5-12.5s-12.5 5.6-12.5 12.5 5.6 12.5 12.5 12.5 12.5-5.6 12.5-12.5zm-.2 136.4c0-6.8-5.5-12.3-12.3-12.3s-12.3 5.5-12.3 12.3 5.5 12.3 12.3 12.3 12.3-5.5 12.3-12.3z"/><path class="st0" d="M181.1 248.3c0-5-4-9-9-9s-9 4-9 9 4 9 9 9 9-4 9-9z"/><path class="st0" d="M179.2 248.3c0-3.9-3.2-7.1-7.1-7.1-3.9 0-7.1 3.2-7.1 7.1 0 3.9 3.2 7.1 7.1 7.1 3.9 0 7.1-3.2 7.1-7.1z"/><path class="st0" d="M178.4 248.3c0-3.5-2.8-6.3-6.3-6.3s-6.3 2.8-6.3 6.3 2.8 6.3 6.3 6.3 6.3-2.8 6.3-6.3z"/><path class="st0" d="M184.6 248.3c0-6.9-5.6-12.5-12.5-12.5s-12.5 5.6-12.5 12.5 5.6 12.5 12.5 12.5 12.5-5.6 12.5-12.5zm-136.6 0c0-6.8-5.5-12.3-12.3-12.3s-12.3 5.5-12.3 12.3 5.5 12.3 12.3 12.3S48 255.1 48 248.3z"/><path class="st0" d="M44.7 248.3c0-5-4-9-9-9s-9 4-9 9 4 9 9 9 9-4 9-9z"/><path class="st0" d="M42.8 248.3c0-3.9-3.2-7.1-7.1-7.1s-7.1 3.2-7.1 7.1c0 3.9 3.2 7.1 7.1 7.1s7.1-3.2 7.1-7.1z"/><path class="st0" d="M42.1 248.3c0-3.5-2.8-6.3-6.3-6.3s-6.3 2.8-6.3 6.3 2.8 6.3 6.3 6.3c3.4 0 6.3-2.8 6.3-6.3z"/><path class="st0" d="M48.2 248.3c0-6.9-5.6-12.5-12.5-12.5s-12.5 5.6-12.5 12.5 5.6 12.5 12.5 12.5 12.5-5.6 12.5-12.5zM48 111.9c0-6.8-5.5-12.3-12.3-12.3s-12.3 5.5-12.3 12.3 5.5 12.3 12.3 12.3S48 118.7 48 111.9z"/><path class="st0" d="M44.7 111.9c0-5-4-9-9-9s-9 4-9 9 4 9 9 9 9-4 9-9z"/><path class="st0" d="M42.8 111.9c0-3.9-3.2-7.1-7.1-7.1s-7.1 3.2-7.1 7.1 3.2 7.1 7.1 7.1 7.1-3.2 7.1-7.1z"/><path class="st0" d="M42.1 111.9c0-3.5-2.8-6.3-6.3-6.3s-6.3 2.8-6.3 6.3 2.8 6.3 6.3 6.3c3.4.1 6.3-2.8 6.3-6.3z"/><path class="st0" d="M48.2 111.9c0-6.9-5.6-12.5-12.5-12.5s-12.5 5.6-12.5 12.5 5.6 12.5 12.5 12.5 12.5-5.6 12.5-12.5zm140.9-4.9c0-6.7-5.5-12.2-12.2-12.2m.1 170.6c6.7 0 12.2-5.5 12.2-12.2m-170.5 0c0 6.7 5.5 12.2 12.2 12.2m-.1-170.5c-6.7 0-12.2 5.5-12.2 12.2m170.5-.1v146.2m-170.4 0V107m12.1-12.1H177m0 170.5H30.8m422.6-67h-11.1m12.9 32.4c.7 0 1.2-.5 1.2-1.2m0-10.9v10.9m-7.4-1.2v2.4m0 0h6.2m-1.8-13.4l3 1.3m-3 9.7h-10.1m0 0v-8m0-3.3v-3.7m5.7 17.4v-2.4m-5.7 2.4h3.2m2.4 0h.1m4.4-32.4v4.1m-6.3 0h6.3m-9.9 28.4c.1 0 .2-.1.3-.2m-1 .2h.7m-1-.1c0 .1.2.2.3.2m-.2 1.2h-.3m.6.3c0-.2-.1-.3-.3-.3m1.5.3h-1.2m1.5-.3c-.2 0-.3.1-.3.3m.3-.3c.1 0 .2-.1.2-.2m0-1.2v1.2m-1.3-7.2l-.6-.9m-.1 0h.1m.6 6.9h-1m1.3-.3c-.2 0-.3.1-.3.3m.3-.3h2.6m.3.3c0-.2-.1-.3-.3-.3m.3.3h2.4m0 0v-2.4m4.5 0v-25.9m-9.9-4.1v-1.2m1.5.8c0 .2.1.3.2.4m-.2-1.8v1.4m-1.8-1.1h-.9m1.2.3c0-.2-.1-.3-.3-.3m-.9 4h4.8m-4.8 12.5h4.8m0 0v-12.5m-2.4-48.9v-3.2m-2.4 0h2.4m-2.4 3.2h2.4m-2.4-25.2h3.3m0 0v-3.1m-3.3-.2h.1m5.3 2.4v-15.8m-1.1 0h1.1m-2.1 15.8h2.1m-3 31.2v-3.3m-2.4 0h2.4m-2.4 3.3h2.4m3.9 31.5h2.3m0 0V180m-2.3 0h2.3m-6.2-15.1h4.9m0 0v-30.3m-3.4 0h3.4m-7.3 85.8h2.4m0 0v-3.3m-2.4 0h2.4m-2.4-40.7h3.3m0 0v-6.3m-3.3 0h3.3m-3.3 18.5h6.3m0 0V180m-6.3 0h6.3m-3-10.7v-1.5m-.9 0h.9m-.9 1.5v-1.5m-2.4 0h2.4m-2.4-31.2h3.9m0 0v-6.9m-3.9 0h3.9m-.6 0v-.8m-3.3 0h3.3m-3.3 10.9h2.4m-2.4 6.3h2.4m0 0v-6.3m0 27.4v-3.3m-2.4 0h2.4m-2.4 3.3h2.4m4.7-2v-.3m0-30.3v-18.1m-1.7 0h1.7m-4.7 48.7h4.7m-6.8 58v4.8m-.3-4.8h.3m-.3 4.8h.3m3-48v-2.1m-3.3 0h8.6m0 0v-8.6m-8.6 0h8.6m-3.2 27.3v-5.7m-5.4 0h5.4m-5.4 5.7h5.4m-3-56.8h.9m-.9 6.3h.9m0 0v-6.3m4.7 58.6v-7.9m-8 0h8m-5.6-28.4v-3.2m-2.4 0h2.4m-2.4 3.2h2.4m0 5.7v-.3m-2.4 0h2.4m-2.4-68.8h-1.2m1.2 8.9h-1.2m1.2-8.9v8.9m0 142.6h-1.2m1.2 0V107.6m0 151.5h-1.2m1.2-8.9v8.9m-55.2-31.8v-96.8m1.1-27.1v154.5m0-154.5v-1.3m0-6.4v6.4m0-6.4v-.5m0 167.5v-4.8m1.2 0h-1.2m1.2 0V103.4m-1.2 0h1.2m0-2.1c-.6 0-1.2.4-1.2.8m1.2-.8v2.1m0-8.6c-.6 0-1.2.4-1.2.8m1.2 5.7v-6.5m0-.8c-.6 0-1.2.5-1.2 1.2m1.2-1.2v.9m-1.2 167.8c0 .6.5 1.2 1.2 1.2m0-6v6m-1.2-35.4c0-.6-.5-1.2-1.2-1.2m.1-96.8c.6 0 1.2-.5 1.2-1.2m-34.6 2.1v95m86.3-13.2c.1.1.2.2.2.3.1.2.3.3.5.4.2.1.4 0 .4-.1m0 0c0-.1 0-.2-.1-.2"/><path class="st0" d="M441 213.6c0 .1-.1.2-.2.1s-.2-.2-.3-.4c0-.1-.1-.2-.1-.3m-.4.2c.2-.1.4-.1.5-.2m.5-68.8c.1-.1.1-.1.1-.2m0 0c0-.1 0-.2-.1-.2h-.2c-.1 0-.2.1-.3.2l-.3.3c-.1.1-.1.2-.2.3m.4.2c-.1 0-.3-.1-.5-.2"/><path class="st0" d="M440.4 144.8c0-.1.1-.2.1-.2 0-.1.1-.2.2-.3 0-.1.1-.1.2-.2h.1v.2m-1-41.4h1.1m-1.1 0v41.7m1.1-.6v-41.1m0-1.2c0-.5-.5-.8-1.2-.8m.1 2v-2.1m1.1.9v1.2m0-8.3c0-.5-.5-.8-1.2-.8m.1-.1v7.1m1.1.9v-7.1m0-.6c0-.6-.5-1.2-1.2-1.2m.1.9v-.9m1.1 1.2v.6M440 265c.6 0 1.2-.5 1.2-1.2m-1.2-5.9h1.1M440 265v-7.1m1.1 0v5.9m-1.1-50.6v44.7m1.1 0v-44.1m-1.5-2.7h.5m-.5 0c0 .7.1 1.5.4 2.1m.1-2.1c0 .7.1 1.3.3 2m-.8-66.3h.5m-.5 0v64.3m.5 0v-64.3m-.1-2.2c-.2.7-.4 1.4-.4 2.1m.8-1.9c-.2.6-.3 1.3-.3 2m1 0h-.1m.1 0V144m-.1 2.8v-2.5m.1 66.8h-.1m.1 0v-64.3m-.1 0v64.3m.1 2.7v-2.7m-.1 2.5v-2.5m-88.4 14.2v-92.7m1.1-1.2c-.6 0-1.2.5-1.2 1.2m.1 92.7c0 .6.5 1.2 1.2 1.2m82-133.8L389.4 94m0 .8l46.4-1.2m0-.9v.9m0 7.2l-46.4.5m0 2.1l46.4-.5m0 0v-2.1m0 2.1h4.2m0-10l-4.2-.2m0 .9l4.2.1m0 7.1h-4.2m0 0v-7.2m0 164.3v-155m0 162.2l4.2-.1m-4.2-7.1h4.2m-4.2 0v7.2m0-7.2h-46.4m46.4 7.2l-46.4-1.2m50.7-117.1h.9m-.9 64.3h.9m-87.3-79.7l33.4-.9m-33.4 95.9l33.4.9m57.5 30.2v-24m2 20.7v-17.5m-4.3 19.4c0 .9.7 1.6 1.6 1.6.2 0 .5-.1.7-.2m0-24c-.8-.4-1.7-.1-2.1.7-.1.2-.2.5-.2.7m2.3 22.6c1.2-.6 2-1.9 2-3.3m0-17.5c0-1.4-.8-2.6-2-3.3m0-109v-24.1m2 20.8v-17.5m-4.3 19.4c0 .9.7 1.6 1.6 1.6.2 0 .5-.1.7-.2m0-24.1c-.8-.4-1.7-.1-2.1.7-.1.2-.2.5-.2.7m2.3 22.7c1.2-.6 2-1.9 2-3.3m0-17.5c0-1.4-.8-2.6-2-3.3m318.5 79c0-27.3-22.1-49.4-49.4-49.4-27.3 0-49.4 22.1-49.4 49.4s22.1 49.4 49.4 49.4c27.3-.1 49.4-22.2 49.4-49.4z"/><path class="st0" d="M764.4 179.3c0-27.9-22.6-50.6-50.6-50.6-27.9 0-50.6 22.6-50.6 50.6 0 27.9 22.6 50.6 50.6 50.6 27.9-.1 50.6-22.7 50.6-50.6zm34.8-77v157.5m0-157.5c0-.5-.2-.9-.5-1.3m-6.6-6.6l6.5 6.6m-6.5-6.6c-.3-.3-.8-.5-1.3-.5m-157.6 0h157.6m-157.6 0c-2.7 0-4.8 2.2-4.8 4.8m0 161.1V98.7m0 161.1c0 2.7 2.2 4.8 4.8 4.8m161.2.1H633.2m161.2 0c2.7 0 4.8-2.2 4.8-4.8m1.2-.1h-1.2m1.2 0V102.3m-1.2 0h1.2m-1.8-1.3l.9-.9m.9 2.2c0-.8-.3-1.6-.9-2.1m-7.4-5.8l.8-.8m6.6 6.5l-6.6-6.5m-2.1.3v-1.2m2.1.9c-.6-.6-1.3-.9-2.1-.9m-157.6 1.2v-1.2m157.6 0H633.2m-4.8 6h-1.2m6-6c-3.3 0-6 2.7-6 6m1.2 161.1h-1.2m0-161.1v161.1m6 4.9v1.2m-6-6.1c0 3.3 2.7 6 6 6m161.2-1.1v1.2m-161.2 0h161.2m0 0c3.3 0 6-2.7 6-6m-146.7-12.8c0-4.3-3.5-7.7-7.7-7.7-4.3 0-7.7 3.5-7.7 7.7 0 4.3 3.5 7.7 7.7 7.7 4.2.1 7.7-3.4 7.7-7.7z"/><path class="st0" d="M652.8 247.1c0-3.8-3.1-6.8-6.8-6.8-3.8 0-6.8 3.1-6.8 6.8 0 3.8 3.1 6.8 6.8 6.8s6.8-3 6.8-6.8z"/><path class="st0" d="M652.5 247.1c0-3.6-2.9-6.5-6.5-6.5s-6.5 2.9-6.5 6.5 2.9 6.5 6.5 6.5c3.5 0 6.5-2.9 6.5-6.5zm136.9 0c0-4.3-3.5-7.7-7.7-7.7-4.3 0-7.7 3.5-7.7 7.7 0 4.3 3.5 7.7 7.7 7.7 4.2.1 7.7-3.4 7.7-7.7z"/><path class="st0" d="M788.5 247.1c0-3.8-3.1-6.8-6.8-6.8-3.8 0-6.8 3.1-6.8 6.8 0 3.8 3.1 6.8 6.8 6.8s6.8-3 6.8-6.8z"/><path class="st0" d="M788.2 247.1c0-3.6-2.9-6.5-6.5-6.5s-6.5 2.9-6.5 6.5 2.9 6.5 6.5 6.5c3.5 0 6.5-2.9 6.5-6.5zM653.7 111.4c0-4.3-3.5-7.7-7.7-7.7-4.3 0-7.7 3.5-7.7 7.7 0 4.3 3.5 7.7 7.7 7.7 4.2.1 7.7-3.4 7.7-7.7zm135.7 0c0-4.3-3.5-7.7-7.7-7.7-4.3 0-7.7 3.5-7.7 7.7 0 4.3 3.5 7.7 7.7 7.7 4.2.1 7.7-3.4 7.7-7.7z"/><path class="st0" d="M788.5 111.4c0-3.8-3.1-6.8-6.8-6.8-3.8 0-6.8 3.1-6.8 6.8 0 3.8 3.1 6.8 6.8 6.8s6.8-3 6.8-6.8z"/><path class="st0" d="M788.2 111.4c0-3.6-2.9-6.5-6.5-6.5s-6.5 2.9-6.5 6.5 2.9 6.5 6.5 6.5c3.5 0 6.5-2.9 6.5-6.5zm-135.4 0c0-3.8-3.1-6.8-6.8-6.8-3.8 0-6.8 3.1-6.8 6.8 0 3.8 3.1 6.8 6.8 6.8s6.8-3 6.8-6.8z"/><path class="st0" d="M652.5 111.4c0-3.6-2.9-6.5-6.5-6.5s-6.5 2.9-6.5 6.5 2.9 6.5 6.5 6.5c3.5 0 6.5-2.9 6.5-6.5zm109.8 67.9c0-26.8-21.7-48.5-48.5-48.5s-48.5 21.7-48.5 48.5 21.7 48.5 48.5 48.5c26.8-.1 48.5-21.8 48.5-48.5z"/><path class="st0" d="M761 179.3c0-26.1-21.2-47.3-47.3-47.3s-47.3 21.2-47.3 47.3 21.2 47.3 47.3 47.3c26.2-.1 47.3-21.2 47.3-47.3zm30.3-87.9l-.5 1.3m2.1.9l.5-1.3m0 0c-.6-.6-1.3-.9-2.1-.9m9.4 8.2l-1.2.5m.9 2.2l1.2-.5m0 0c0-.8-.3-1.6-.9-2.1m-9.4-8.3H633.2m167.5 8.2l-7.3-7.3m8.2 167.5v-158M633.2 267.1h161.2m0 0c4 0 7.3-3.3 7.3-7.3M633.2 91.4c-4 0-7.3 3.3-7.3 7.3m0 0v161.1m0 0c0 4 3.3 7.3 7.3 7.3m0-175.7v1.3m168.4 167.1h-1.2m-174.5 0h1.3m6 7.3v-1.2m-7.3-167.2h1.3m167.2 168.4v-1.2"/><path class="st0" d="M750.3 179.3c0-20.2-16.4-36.5-36.5-36.5-20.2 0-36.5 16.4-36.5 36.5 0 20.2 16.4 36.5 36.5 36.5 20.2 0 36.5-16.4 36.5-36.5z"/><path class="st0" d="M748.5 179.3c0-19.2-15.5-34.7-34.7-34.7s-34.7 15.5-34.7 34.7 15.5 34.7 34.7 34.7 34.7-15.6 34.7-34.7z"/><path class="st0" d="M707.5 143.5c-19.8 3.5-33 22.3-29.5 42.1s22.3 33 42.1 29.5 33-22.3 29.5-42.1m-97.4-61.6c0-3.5-2.8-6.3-6.3-6.3s-6.3 2.8-6.3 6.3 2.8 6.3 6.3 6.3 6.3-2.8 6.3-6.3zm0 135.7c0-3.5-2.8-6.3-6.3-6.3s-6.3 2.8-6.3 6.3 2.8 6.3 6.3 6.3 6.3-2.8 6.3-6.3zm135.7 0c0-3.5-2.8-6.3-6.3-6.3s-6.3 2.8-6.3 6.3 2.8 6.3 6.3 6.3 6.3-2.8 6.3-6.3zm0-135.7c0-3.5-2.8-6.3-6.3-6.3s-6.3 2.8-6.3 6.3 2.8 6.3 6.3 6.3 6.3-2.8 6.3-6.3z"/><path class="st1" d="M658.5 110.7h-65.1m53 13.5V70.4m135.7 53.8V70.4M658.5 247.8h-65.1"/><path class="st2" d="M649.4 71.6H779M629.7 41.1h165.2M625.3 95.8V39.9m177.2 55.9V39.9M641.6 91.4h-76.9m76.9 176h-76.9m29.9-153.7v129.6M354.7 61.6h76.9m25 169.3V35.2M441 95.8V60.3M317.5 217.9v-76.8m34.2-9.4h-35.4m35.4 95.2h-35.4m13.5-143h79.4m31.8 34.2V82.7m374.3 143.1l-31 20.4m31.2-20.4h169"/><path class="st1" d="M658.5 110.7h-65.1m53 13.5V70.4m135.7 53.8V70.4"/><path class="st2" d="M360.3 37h94.8m-103.4 95.9V35.8m35.8 58.4V80.6"/><path class="st3" d="M801.1 41.1l-10.5-1.8v3.5l10.5-1.7zm-19.2 30.5l-10.5-1.8v3.5l10.5-1.7zm-341-10.1l-10.5-1.7v3.5l10.5-1.8zm341.1 186l9.7-4.3-1.9-2.9-7.8 7.2zm-430.2-186l10.5-1.7v3.5l-10.5-1.8zm-34.3 70.2l-1.7 10.5h3.4l-1.7-10.5zm0 94.7l-1.7-10.5h3.4l-1.7 10.5zm34.4-142.5l-10.5-1.8v3.5l10.5-1.7zm35.9 0l10.5-1.8v3.5l-10.5-1.7zm238.8-42.8l10.5-1.8v3.5l-10.5-1.7zm20.1 30.5l10.5-1.8v3.5l-10.5-1.7zm-52.1 39.1l1.8 10.5h-3.5l1.7-10.5zm0 137l-1.7-10.5h3.5l-1.8 10.5z"/><path class="st2" d="M566.6 100.3v156.9"/><path class="st3" d="M566.6 91.5l1.8 10.5h-3.5l1.7-10.5zm0 175.5l-1.7-10.5h3.5l-1.8 10.5zM456.9 36.9l-10.5-1.7v3.5l10.5-1.8zm-105.1 0l10.5-1.7v3.5l-10.5-1.8z"/><path class="st4" d="M339.6 179.8h140.5m234.2 97.3V80m-111.2 99.8h215.5"/><path class="st1" d="M646.6 232.2v2.9"/><path class="st5" d="M646.6 237.3v2.2"/><path class="st6" d="M646.6 240.6v18.9"/><path class="st1" d="M646.6 260.6v2.9m120.1-15.6h2.8"/><path class="st7" d="M773 247.9h3.6"/><path class="st8" d="M778.3 247.9h14.2"/><path class="st1" d="M794.2 247.9h2.9m-15.2-15.7v2.9"/><path class="st5" d="M781.9 237.3v2.2"/><path class="st6" d="M781.9 240.6v18.9"/><path class="st1" d="M781.9 260.6v2.9m-15.2-152.6h2.8"/><path class="st7" d="M773 110.9h3.6"/><path class="st8" d="M778.3 110.9h14.2"/><path class="st1" d="M794.2 110.9h2.9"/><path class="st9" d="M339.6 179.8h140.5m234.2 97.3V80m-111.2 99.8h215.5"/><path class="st4" d="M103.7 277.5V90.6m-92.6 89.7h204.2"/><path class="st1" d="M156.4 248h2.8"/><path class="st10" d="M162.8 248h3.5"/><path class="st11" d="M168.1 248h14.1"/><path class="st1" d="M184 248h2.8m-15.2-15.3v2.8"/><path class="st12" d="M171.6 237.7v2.2"/><path class="st13" d="M171.6 241v18.9"/><path class="st1" d="M171.6 261v2.9M20.7 248h2.9"/><path class="st14" d="M27.1 248h3.5"/><path class="st15" d="M32.4 248h14.1"/><path class="st1" d="M48.3 248h2.8m-15.2-15.3v2.8"/><path class="st12" d="M35.9 237.7v2.2"/><path class="st13" d="M35.9 241v18.9"/><path class="st1" d="M35.9 261v2.9m120.5-151.8h2.8"/><path class="st10" d="M162.8 112.1h3.5"/><path class="st11" d="M168.1 112.1h14.1"/><path class="st1" d="M184 112.1h2.8m-15.2-15.7v2.8"/><path class="st16" d="M171.6 101.4v2.2"/><path class="st17" d="M171.6 104.7v18.9"/><path class="st1" d="M171.6 124.7v2.9M20.7 112.1h2.9"/><path class="st14" d="M27.1 112.1h3.5"/><path class="st15" d="M32.4 112.1h14.1"/><path class="st1" d="M48.3 112.1h2.8M35.9 96.4v2.8"/><path class="st16" d="M35.9 101.4v2.2"/><path class="st17" d="M35.9 104.7v18.9"/><path class="st1" d="M35.9 124.7v2.9"/><path class="st9" d="M103.7 277.5V90.6m-92.6 89.7h204.2"/><text transform="translate(706.41 38.025)" class="st18 st19">29</text><text transform="translate(386.933 58.049)" class="st18 st19">14.9</text><text transform="rotate(-90 250.31 -63.603)" class="st18 st19">Ø 16</text><text transform="translate(365.34 80.64)" class="st18 st19">6</text><text transform="translate(392.817 33.23)" class="st18 st19">≈ 17.5</text><text transform="translate(823.783 220.413)" class="st18 st19">4 x</text><text transform="translate(854.983 220.413)" class="st18 st19">Ø 2.2; max. 3.2 deep</text><text transform="rotate(-90 391.752 -198.69)" class="st18 st19">22.4</text><text transform="rotate(-90 374.96 -186.135)" class="st18 st19">29</text><text transform="translate(700.326 68.115)" class="st18 st19">22.4</text><path d="M37 249.9l23.7 55.6" fill="none" stroke="#000" stroke-width=".283" stroke-linecap="round" stroke-linejoin="round"/><path d="M35.9 250.9l.3-2.8 2.3 1.7-2.6 1.1z"/><path class="st2" d="M60.7 305.5h74.8"/><text transform="translate(67.03 302.588)" class="st18 st19">4 x</text><text transform="translate(98.23 302.588)" class="st18 st19">Ø 2.08</text><text transform="translate(747.262 304.433)" class="st18 st19">Recommended screw size: max. M2</text><text transform="translate(728.762 322.133)" class="st18 st19">Bigger screws can damage the camera.</text><text transform="translate(865.983 360.462)" class="st22 st18 st23">Not to scale</text><text transform="translate(865.983 380.662)" class="st22 st18 st23">Dimensions in mm</text></svg>