<svg version="1.0" xmlns="http://www.w3.org/2000/svg" viewBox="0 0 335.5 187.5"><g fill="none" stroke="#000" stroke-width=".624" stroke-linecap="round" stroke-linejoin="round" stroke-miterlimit="10"><path d="M313.1 104.4v12.4m-110.8-15.2v3.8c1 11.6 7.9 23.5 17.4 30.2l3.4 1.9m42.1-86l.5-.3m-5.4-1.5l.4-.4-.4-.2.4.2m-.4-.2v-.2m.8 1.2l-.8-.5.8.5zm3.2-.2l-.4-.2.4.2zm-.4-.2v-.2m.4.4l-.9.5m.5-.7l-1 .5 1-.5zm-.5.7l-.5-.3m-.8-1l.4-.3-.4-.2.4.2m-.4-.2l-.5.2.5-.2zm0 .5l-.5-.3m.5.9l.4-.4-.4-.2.4.2m-.4-.2l-.5.2.5-.2zm0 .6l-.5-.4m.9 1.1l.4-.3-.8-.4.8.4m-.4.3l1 .5-1-.5zm-.4-.7l-1 .5 1-.5zm-1 .4l.5.3-1.3.8 1.3-.8m3.1.2l.5-.2-.5-.3.5.3m-.5-.3l-.5.2.5-.2zm0 .5l-.4-.2m1.4.2l.4.3-.4-.3-.5.3zm-.5.3v-.2m-.5-.1l-.5.2.5-.2zm-.4.3v-.2m.4-.1l.5.2-.5-.2zm.5.9l-.5-.3m-1.3-.3l.5-.2-.5.2zm-1.3.3l.4-.3m.4.8l-.8-.5.8.5zm-1.8-.5l.5.3m.9.4l.4-.2m-.4.2l-.4-.2m-.5.2l.5-.2m-1 0l.5-.2-.5.2.5.2m-1.8-1l.5-.3-.5-.2.5.2m-.5-.2v-.1m0 .6l.5.4-.5-.4zm0-.5l-1 .5 1-.5zm-.9.5v-.2m-.4-.1l1.3-.7m.5-.8l-2.3 1.3 2.3-1.3zm-2.3 1.3l.5.2-.5.3.5-.3m-.5.3v-.2m.5.5l.4.3m-.9 0l.5-.3m-.5-.3l-.5-.2.5.2zm0 .6l-.5-.3m-.8.5l.8-.5m0-.6l-1.3.8 1.3-.8zm-1.3.9l.5.2-.5.2.5-.2m.4.7l.4-.2-.8-.5.8.5m-.4.2l-.9-.5m3.6 0l1.3-.7m-2.6-.6l.4.2-.4-.2zm1.3 1.3l-.5-.2m-.4.2l.4-.2m-.8 0l.4-.2-.4.2.4.2m-.9 0l.5-.2-.5-.2.5.2m-.5-.2l-.5.2.5-.2zm0 .4l-.5-.2m3.6-1.6l-.4.3-.9-.5m4.1.7l.4.2-.4-.2zm0 1.1l.8-.5m-.8.5l-1.4-.8m1.4 1.3l.4-.3-.4-.2.4.2m-.4-.2l-.5.2.5-.2zm0 .5l-.5-.3m-6.7-2.2l-1.3-.8 1.3.8zm-1.3-.9l-1.4.8 1.4-.8zm1.3.9l-1.3.7-1.5-.7m-.8 0l2.3-1.4m-2.3 1.4l2.3 1.2-2.3-1.2zm-1 0l3.2-1.9-3.2 1.9zm3.3-1.4l2.1 1.4m1 0l-3.1-1.9 3.1 1.9zm-3.1 1.2l2.2-1.2-2.2 1.2z"/><path d="M258.5 49.7l-3.1 1.8-3.3-1.8m9-4.7l-.4.2-.4-.2.4-.4zm9.5 1.2l-.4.3-.5-.3.5-.3zm0 2.6l-.4.3-.9-.5.4-.3-.9-.6.9-.5.9.5-.9.6zm.9-2.6l-.4-.3.4-.2.5.2zm-7.2.6l-.9-.6-.5.3-.4-.3"/><path d="M261.6 45.7l-.5-.3 1.4-.8-.4-.2-.5.2-.5-.2.5-.3.5.3.4-.3.4.3.5-.3-.9-.5.9-.4.5.2.4-.2-.4-.4.8-.5.5.3-.5.2.5.4.5-.4.4.4-.4.2.4.2.9-.4.9.4-.4.3-.5-.3-.9.5.5.3-.5.2.5.4 1.3-.9.5.3.4-.3.5.3-.9.6.4.2.5-.2.9.4-.5.3-.4-.3-.9.5.4.3-.4.3.4.3.5-.3.4.3-.9.4-.4-.2-.5.2"/><path d="M265.7 47.5l-.5-.3 1.4-.7-.5-.3-.9.6-.5-.3-.4.3m3.6.4l-.4-.2-.5.2-.4-.2-.9.5m-3.2-1.3l.9-.5-.9-.5-.9.5m-.5-.7l-.4-.4-.4.4m4.9.7l.5-.3-.5-.2.5.2m-.5-.2l-.5.2.5-.2zm0 .5l-.5-.3m5.9.8l-.4-.3-.5.3m1.8 0V46m.5-.1l-.5-.2-.4.2m-8.6.3l.9-.5m.5-.3l1.3.7-1.3-.7zm-2.8 0l1.4-.8m-.4-.2l-.5-.3-.5.3m4.1 2.8l1.4-.7m.4-.3l.5.4-.5-.4zm-3.6-1.6l.5.4-.5-.4zm.5.4l.4-.4-.4.4zm.4-.4l-.4-.2m-1.4-.3l.4.3m-.4-.3l-.4.3m1.3.2l.5-.2-.5-.3.5.3m-.5-.3l-.5.3m5.5 2.1l.4.3m-.4-.3v-.1m.4-.2l-.4-.3-.9.6.9-.6m-3.2.3l1.3-.7-1.3.7zm1.4-.8l-1.4-.8m2.7 1.1l-.9.5m0-1l.5.2-.5-.2zm-.9-.6l.5.4m-.5-.4v-.1m-.9.1l-1.3.8m.4-1.3l.4.3-.4-.3-.4.3zm.9 0l.5.3-.5-.3-.5.3zm-1.8 0l.5-.2-.5-.3.5.3m-.5-.3l.5-.2-.5-.2-.9.4m4.1.8l-.5-.3-.4.3.4-.3m-.4-.2l-.5.2m.5-.7l.4.2m-.4-.2v-.1m-1.8.1l.4-.2m.9.9l-1.3-.7m2.2.7l-.4-.2m-1-1.1l.5.4m-.5-.4v-.1m.5-.1l-.5-.3-.8.5m2.2.4l-.4-.4-.5.4m2.7.4l-.9-.4-.9.4m2.3 2.3l-.5-.2m.5-.7l.4.2m-.4-.2l-.8.5.8-.5zm-.5-.4l-.9.6m.9-1.1l.5.3m-.5-.3l-1.3.9m1.8 0l-.5-.4m1.4-.2l-.5-.3-.4.3m1.8 1l-.9-.4-.5.2m.9 1.6l-.4-.3-.5.3m1.8 2l-.9-.5-.4.3m1.3-.9l-.9-.5-.9.5m4.5 3.2l-.4.3-1.8-1.1.4-.2zm1.8.6l-3.1-1.8 3.1-2 3.1 2z"/><path d="M271.5 46.2l1.4.8.4-.2.9.4-.4.3-.5-.3-1.3.9.4.2.5-.2.4.2-.9.5-.9-.5-.4.3-.5-.3 1.4-.8-.5-.3-.4.3-.9-.5.4-.2.9.4.5-.2-.9-.5zm-.4 3.5l-.5-.4.9-.5.5.3zm-2.7 0l.4-.4.5.4.4-.4.9.6-.4.2.9.5-.5.3zm.9 2l.4-.2-.4-.3.4-.3.5.3-.5.3.5.2.4-.2.5.2.4-.2.5.2.4-.2.5.2.9-.5.9.5-1.8 1.1-.5-.4.5-.2-.9-.5-.5.2.5.3-.9.6-.9-.6m-1.4 1.8l-.4.2-.5-.2m-1.3-.3l.4-.2m-1.8-.5l.9-.6-.4-.2.4-.3m1.4.9l.4-.4m-1.3 1.3l.4-.2m-.9-.5l.5-.2m-1.4.2l.9-.6m-.4-.2l.4-.3m1.4.9l.4-.4m-.4.4v-.1m5.8-1.8l-1.8-1-.4.2m1.8-.4l2.2 1.2-2.2-1.2zm2.2 1.2l2.3-1.2-2.3 1.2zm2.3-1.2l-2.3-1.4-2.2 1.4"/><path d="M278.2 49.7l-3.1-2-3.1 2m0-1.6l.4.2m-.4-.2V48m-1.4.3l1.4-.8m-.5-.3l-.9-.4-.4.2m1.3.2l.5-.2m-.5-.8l1.4.8m-1.4-.8l-.4.3m3.1.7l-.9-.4-.4.2m.4 1.3l-.4-.2-.5.2"/><path d="M273.8 49.7l1.3.7 1.3-.7-1.3-.9 1.3.9m-1.3-.9l-1.3.8 1.3-.8zm-3.1.3l-.5-.3-.9.5m.5 1.3l-.9-.5m-1.4-.8l.5.4m-.5-.4l-.4.4m2.2.2l-.9-.6-.4.4m.9 2.5l.5-.2-.5.2zm.4-.3l-.4-.2m1.8.5l-.5-.3m-1.8 0l.5-.2-.5-.2-.4.2m.9-.5l-.5-.3-.4.3m1.3.3l.5.2m-.5-.2l-.4.2m2.2.7l.5-.2m-.9-.5l-.5-.2-.4.2m1.3-.2l.5.2m-.5-.2l-.4.2m2.7 0l-.9-.5-.9.5m-4.1 2.3l-.5-.2.5.2zm-.4-.3l-.5.2.5-.2zm4 9.9l-20-11.5.3-.2 20 11.6zM267 75.8l-.4.3-.9-.4-.6-.4.1-.3.3-.4 1.7-.9.4.2-.2.1.5.2.6.2.3.4-.3.5-1.2.2-1.3-.6-.3.4.4.3.8.2zm1 .9l.7.1 1-.2.5-.6-.4-.4-1-.2.5-.4.4.1.5.3.4.3.2.4-.3.3-.5.4-1.3.4-1.1-.4-.6-.5.5-.2.1.2zm-10.6-5.8l.5-.1-.7-.1-.5-.1-.1-.2.5-.2.2.1.8.3 1.8-1.1.5.2-2.5 1.5zm2.2 5.7l1.1.6.9-.3 1 .5-4.8 1.3-1-.4 2.3-2.8 1 .5zm-2.9-6.6l-.5.2-.8-.4-.6-.6.1-.2.4-.2 1.6-1 .4.2-.2.2h.6l.6.2.2.5-.4.5-1 .1-1.4-.5h-.1l-.2.4.3.2zm3.1 9.8v-.3l.4-.3 1.2-.1-.3-.5.5-.5 1.1-.2 1.3.5 1.5.7-3.5 2-1.3-.7-.5-.3zm-13.2-17.5l-.5-.2h-.1l.5-.2.5.1.6.3.4.3.2.4-.2.4-.4.3-1.4.5-1.2-.4-.3-.2-.1-.4.1-.2.5-.4.2-.1 1.7 1 .5-.5-.4-.5zm6.3 13.4l.8-.4h.1l.2.5.4.4.6.2.5-.1.1-.1-.2-.4c-2.1-1.2.7-2.6 3-.8l.4.5-.8.5-.2-.6-.6-.4-.5-.2h-.5l-.2.2.1.2.6.5.2.6-.5.5-1.2.2-1.4-.5-.9-.8zm16.3-5l.5.2-.6.4-.6-.3z"/><path d="M254.2 73.3l-1.6-.8.7-.4 2.4 1.3-3.6 2.1-.8-.5zm16.8-3.7l.6.4-.7.3-.5-.3zm-22 1.8l1.5.8.8-.4-1.5-.9.7-.5 2.4 1.5-3.5 2-2.4-1.4.6-.4 1.5.9.6-.4-1.3-.7zm20.4-3.1l-12.5-7.2.3-.3 12.6 7.2zm-23 3.8l-1.5-.7-.7-.7v-.4l.4-.3.8-.3.8.1.4-1.5 1.1.6-.4 1.3.4.1 1.3-.7.8.5zm6.1-11.8l1.2.8-.4.2-1.3-.7zm13.7 12.8l.5.2-2.6 1.5-.4-.3.3-.1-1.1-.2-.2-.3v-.3l-1.2-.2-.2-.4.1-.3.3-.2 1.7-1 .4.3-1.5.8-.4.4.2.2.8.1.3-.1 1.5-.8.5.2-1.4.7-.5.4.1.3 1 .2zm-13.7-14.7l-7.6-4.3.4-.1 7.4 4.3zm8.9 12.3l-.6-.3h-.5l.4-.3.6.2.4.1.5.4.1.5-.1.3-.5.4-1.3.4-1.2-.3-.3-.3-.2-.3.3-.3.3-.4.3-.1 1.8.9.3-.4zm16.1-.6l.1.3.4.4.7.2.6-.1.1-.2-.1-.4-.5-.5-.1-.4.4-.4.9-.2 1.2.3.5.4.4.3-.6.4-.3-.5-.3-.3-.8-.3-.6.1-.2.3.1.2.5.5.2.5-.3.5-1 .1-1.1-.3-.8-.7zm-26-2.9l.9.4 1.1-.6.4-.4-.2-.4-.4-.1.4-.2.5.2.3.5-.3.5-1.5.7.3.2-.3.2-.3-.2-.7.4-.4-.2.7-.4-.8-.5zm23.2 2.3l5.6-1.7.3.1-5.5 1.7zm-24-2.4l1.2-1.5-2.5.6-.5-.2 4.8-1.2.5.4-1.6.2-1.4 1.9zm24.4-.6l-2.7 1.4-.3-.2 3.2-1.9.5.3-1.3 2.4 2.9-1.5.3.2-3.3 1.9-.6-.3zm-26.5-.6l-.4-.3.2-.1-1.1-.3-.2-.3v-.2l.6-.7 1.3-.4 1.1.2.5.4 1.1-.6.3.2zm25.4-1l.5.4-.6.3-.6-.2zm-1.9 9.1l.3-.2.4.2 2.6-1.4-.3-.2.3-.3 1.2.7-.2.3-.5-.3-2.6 1.5.5.3-.4.2zm0-8l.6.4-.7.3-.5-.3zm-.6 7.7l-.7-.4-.6-.5-.3-.3v-.6l.7-.6 1-.4 1.1-.1 1.4.6.7.4zm-19.1-21.6l.3-.2 20 11.6m-20-11.6v-.1M268 75l.2-.2m-1 .3h.6l.2-.1m-1.7-.4l.9.5m1.3-.7l-.6-.2-.5-.2m.2-.1l-.4-.2-1.7.9-.4.5m1.9.7h-.1l-.8-.2-.4-.3m2.8-.9l.3.4m-1.6.3l.8-.1m-.8.1V75m.8 0v-.1m0 .1l.2-.2-.2-.3-1-.2m-1.5.3v-.1m1.7-.8v-.1m.2.4v-.1m.5.3V74m.6.4v-.1m-1.3.8l-.9-.5.7-.3m-1.3 1v-.2m.4.5v-.1m.8.3v-.1m1.1 1v-.1m0 .1l1 .1.7-.2m0 0v-.2m-2.1-.1l.4.4m-.5-.6l.1.2m-.1-.2l-.5.2m3.2-.9v-.1m0 .1l.3.3.3.4m-1.1-1l.5.3m-.9-.4l.4.1m-.9.3l.5-.4m.4 1.6l.3-.4.2-.2m-12.9-5.7l-.2-.1-.5.2m.8.5l.5-.1m2.5-1.1l-.5-.2-1.8 1.1-.8-.3m.6.5v-.1m-.8-.5v-.1m.2.2v-.1m.8.4v-.2m1.8-.9v-.1m-.3 7.2l1.1.6m-1.6-1.7l1 .5m-3.3 2.3l2.3-2.8m0 1.6l-.8.8m3.3-1l1 .5m-1.9-.2l.9-.3m-2.5.2l.7.3-1.5.5 1.5-.5m-2-8.3l.1-.2m-1 .2l.4.1h.1l.4-.1m-1.7-.3l.8.3m1.4-.7l-.6-.2h-.6m.2-.2l-.4-.2-1.6 1-.5.4m1.9.8l-1-.4-.3-.2v-.2m2.9-.8l.2.5m-1.6.2h.9m-.9 0V69m.9.1V69m0 .1l.1-.2-.2-.4-1-.1m-1.4.4v-.2m1.6-.8v-.1m.2.5V68m.6.2V68m.6.4v-.1m-1.4.8l-.8-.3.6-.4m-1.3 1v-.2m.3.4v-.1m1 .5v-.2m3.1 9.9l.4-.5m0 0v-.1m3.8-.7v-.1m0 .1l1.5.7m-3-.5l-.3.3.1.2-.1-.2m.1.2l.6.4-.6-.4zm.6.4v-.2m0 .2l.1.1-.1-.1zm.2.1v-.1m-1.8.2l-.2.2v-.1m0 .1l.5.4-.5-.4zm.5.4v-.1m0 .1h.1-.1zm.1 0v-.1m1-2.3v-.1m0 .1l1.3.5m-2.4-.3V78m0 .1l1.1-.2m-1.3 1.2V79m-.3-.4l.5-.5m-.2 1V79m-1.2.2l.3-.1h.9m1.7-.5h-.6m1.4.4l-.5-.3-.3-.1m.8.4l-.8.6.8-.6zm-2.6.7l.4-.1.6.2h.2l-.8.5.8-.5m-14.9-17.5l.4.3.2.4m-.6-.7l-.6-.3-.5-.1-.5.2m1.6.9l-.5.5-1.7-1-.2.1-.6.6v.2m1.5.4l.7-.1m-1.4 0l.2.1h.5"/><path d="M245.2 63.4l.2.3.7.1m-.7-.1v-.1m.7.2l.7-.1-1.3-.8m1-1v-.1m.5.2v-.1m.6.4v-.2"/><path d="M245.4 63.7l-.2-.3.3-.5m-.9.3v-.1m.6-.5v-.1m.2 0v-.1m1.7 1.1v-.1m5.8 12.3l.8-.3m3 .3v-.1m0 .1l.2.5m-.8-.9v-.2m.6.6l-.6-.4-.1-.3m1.8-.4v-.1m0 .1l.6.4.1.1.2.4m-3.7-1.1v-.1m0 .1l1.1-.2 1.7.4m-3.1.3l.3-.5m.5 1.9v-.1m0 .1l.1-.1m-.6.2v-.1m0 .1l.5-.1m-1.1-.1v-.1m0 .1l.6.2m-1.2-1l.3.4.3.4m-.7-.8h.1m15.9-4.5l-.5-.2-.7.3m.7-.3v-.1m-15 2.7l-2.9 1.7m2-2.9l2.4 1.3m-3.1-.9l.7-.4m18.3-2.1l-.6-.4-.6.4m.6-.4v-.1m-22 1.9l1.5.8m-2.1-.3l.6-.5m.7 1.2v-.1m-.6.5l.6-.4m-2.1-.5l1.5.9m-2.1-.5l.6-.4m2.9-1.7l2.4 1.5m-3.1-1l.7-.5m.8 1.4l-.8.4m6.4-11.1l.3-.3 12.6 7.2m-12.6-7.2v-.1m-8.2 8.9l.8.5m-2.1.2l1.3-.7m-1.7.6l.4.1m-2.2.1l-.1.4v-.1m0 .1l.4.4-.4-.4zm.4.4V71m0 .2l.4.1-.4-.1zm.3.1v-.1m.5-2.9l1.1.6m-1.5.9l.4-1.5m-2 1.7v-.2m0 .2l.6-.2h1m-2.1.8l.2-.4.3-.2m.9.4l.6-.1.7.3.3.1-1 .6 1-.6m6.6-9.6l-1.2-.8-.5.3m.5-.3v-.1m13.7 12.9l.5.2m-2.3.9l1.8-1.1m-2.8.9v-.1m0 .1l.6.2h.4m-1.1-.4l.1.2m1.3-1.6l.5.2m-2 .6v-.1m0 .1l1.5-.8m-1.8.9l.3-.1m-1.1 0v-.1m.8.2l-.8-.1-.2-.2m1.5-1.5l.4.3m-2.1.7v-.1m0 .1l1.7-1m-2.1 1.5l.4-.5m-.4.5v-.2m1.4.8l-.1.2m1.4.6l-.3.1m-18.8-20.4l.4-.1 7.4 4.3m-7.4-4.3v-.1m16.1 17.7l.3-.4m-2.1-.5l1.8.9m-2.1-.8v-.1m0 .1l.3-.1m-.9.8l.6-.7m-.6.7v-.1m1-.2l-.4.3.3.4-.3-.4m.3.4v-.1m2.1-1.4v-.1m0 .1l.5.4.1.4m-1-.9v-.1m0 .1l.4.1m-1-.3l.6.2m-1 .1l.4-.3m-1 1.1l1.3.7-.7.1.7-.1m-.7.1l-.7-.1.2.1zm20.9-2.9l.5.4.1.1.3.2m-2.1-1h.5l.7.3m-1.2-.3l-.9.2-.5.5m.7 1.4l.1-.3m-1.4.2l.7.2.6-.1m-1.3-.1l-.5-.7-.6.2m3-.1l.2.2v.3m-.2-.5l-.5-.5-.1-.2m-1.8.6V70m.5.8v-.1m1.3.2v-.1m-.2-1.8v-.1m.9-.1v-.2m1.2.5V69m-1.8.7v-.1m.5.6v-.1m-28.4-2.9l.9.4m-1.2-.3l.3-.1m.5.6l-.7.4m1.4-.4l.3.2m1.2-1.9V66m0 .1l.3.5m-.8-.7l.5.2m-.9 0l.4-.2m.2.7v-.1m-.4.5v-.2m0 .2l.3-.3.1-.1m-1.5 1l1.1-.6m27.1.9l-.3-.1-5.6 1.7m5.6-1.7v-.1m-29.6-.6l1.2-1.5m1.8-.8l.5.4m-5.3.8l4.8-1.2m22.1 1.3l-.5-.3-3.2 1.9m1.7 1.1l1.3-2.3m2.6.7l-.3-.2-2.9 1.5m.6-2v-.1m.2-.6v-.2m-.8 2.9v-.1m2.9-1.4v-.2m-25.7-3.2l.3.2m-1.4.4l1.1-.6m-3.5.6l-.5.5.1.3-.1-.2m.1.2v-.1m1 .4l-1-.3.4.2h.1zm1.3-1.5v-.1m0 .1l.4.3.1.1m-2.9-.2v-.2m0 .2l1.4-.4 1 .2m-3.1 1l.2-.5.5-.3m.7 1.5l-.2.1"/><path d="M249.8 64.1l-.8-.3-.8.4m1.6-.1l.4.3-1.4.9 1.4-.9m24.3.9l-.5-.4-.7.5m.7-.5v-.1m-1.9 9.2l.3-.2m.9.5l.5.3m1.6-2.5l1.2.7m-1.5-.4l.3-.3m0 .5v-.1m-2.6 1.5l2.6-1.4m-3 1.2l.4.2m-.1-7.6l-.6-.4-.6.4m.6-.4v-.1m2 5.5v-.1m0 .1l.7.4m-3.8-.3l-.5.5v.5l-.1-.3m.1.3l.6.6m-.6-.6l.1.2.2.1.3.3m0 0V73m0 .1l.4.1-.4-.1zm.4.1v-.1m1.2-2.3l.6.2h.3l.5.4m-3.5-.1v-.1"/><path d="M270.6 71.3l1.1-.5h1m-2.9 1.4l.2-.4.6-.5m2-.1h-.8l-.8.3m1.6-.3l1 .3.4.3-2.5 1.4 2.5-1.4m-5.8 3v-.2m-2.5.7v-.2m4.5.9v-.2m-12.3-6.9v-.1m-2.5.4v-.1m6.8 9.8v-.2m-1.1 1.1v-.1m-15.9-16.3v-.2m2.4-.2v-.1M256 75v-.1m-.4 1.3v-.1m-10.2-5.4v-.1m17.9 3.2v-.1m-1.4-.7v-.2m-.2-1.6V71m-2.4.5v-.1m20.1-.8v-.2m-.1-.9v-.1m-25.4-2.9v-.1m-6.2-1.6v-.1m22.7 7.5v-.1"/><path d="M207.7 52.7l52.2 30.2.5.2.5.1c1.9.4 1.6.3 3.4-.1l.5-.2 36.8-21.3c.7-.4 1.4-1.3.7-2l-.4-.4-.4-.2-52.2-30.2-.5-.2c-1.7-.4-1.6-.5-3.4-.1l-.5.1-.5.2-36.8 21.1-.4.4-.4.4-.2.4v.7l.2.4.4.4.5.1zm0 .1v-.1m0 .1l52.1 30.1m0 0v-.1"/><path d="M206.7 51.5v.2l.1.4.5.4.4.3m93.7 8.9v-.2m0 .2l.4-.3.3-.3.3-.4v-.4m-37.8 22.6v-.1m0 .1l36.8-21.2m-41.6 21.2l.5.2c2.1.5 1.8.5 3.8 0l.5-.2m-57.9-31.4v-.2m95.7 9v-.1m-34-4.9l-3.2 1.8-3.1-1.8 3.1-1.8zm0-4.7l-1.4.9 1.8.9-.4.4.4.2.9-.6-1.8-.9.5-.3.9.5m.9.5l-.5.2 1.4.9-.5.2.5.2-.5.3-.4-.3-.5.3.5.2-.5.4-.9-.6m-.9 0l-.4.2-.9-.5m.4-.2l-.4-.2-.5.2-.9-.5m.5-.8l-1.4.8.4.3-.4.2-.4-.2-.5.2-.5-.2.5-.3-.5-.2-.4.2-.4-.2-.5.2 1.8 1-.9.6-.4-.4-1 .6-.4-.2.9-.6-.5-.3-.8.5-.5-.2.5-.3-1-.4-.4.2-.4-.2.4-.3-.9-.6.9-.5m6.3-.4l.5.2-.5.2.5.3m.4-.3l1.4.9m.4-.4l-2.2-1.2"/><path d="M261.6 51.9l.5.3.4-.3m-2.7 0l.5.3.4-.3.4.3.5-.3m-2.7 0l.4.3.5-.3m2.7 0l.4.3-.4.2.4.4.5-.4.5.4.8-.6-.4-.3.9-.4m5 .7l-.5-.2.5.2zm-1.8-1l.9.5m-3.2 1.3l.5.3.4-.3-.4-.2m.4.7l.9.5m.9 0l.5-.3-.5-.2.5-.2-.5-.3-.4.3-.5-.3-.9.5m-3.1 1.8l1.3.8 1.4-.8-1.4-.7 1.4.7m-1.4-.7l-1.3.7 1.3-.7zm0 2l2.3-1.3-2.3 1.3zm2.3-1.3l-2.3-1.3m0 2.6l-2.3-1.3 2.3 1.3zm0-2.6l-2.3 1.3"/><path d="M268.4 55.3l-3.2-1.8-3.1 1.8m5.8-1.3l-.9-.5m-8.1-1.1l.4-.2-.4-.3m.4.9l-.5-.4.5.4zm0 .5l.5-.3-.5.3-.4-.3zm-.4-.3l-.4.3m.8-.5l-.4.2m0-1.1l-.9.5m1.8.6l.5-.2-.5-.4.5.4m-.5-.4l-.5.4.5-.4zm0 .6l-.5-.2m1 .9v-.1m.8.1l-1.3-.7 1.3.7zm-.8 0l-.5.3m2.3.2l-.5-.2.5.2zm-.5-.2l-.9.6m1.4-.9l-.5.3m-.5-.3l.5-.2-.5.2zm1 0l.4.3m-.9-.5l-1.3-.7m2.2 1.2l-.4.2.4-.2zm-2.7-1.6l.5-.2-.5-.3-.5.3zm4.1.9l-.5-.2.5.2zm-.5-.3l-.5.3m0-.5l-.4-.4m-.9.6v-.1m-.5-.1l.5-.4-.5.4zm.5-.4l-.5-.2m0 .6l-.5-.4.5.4zm2.3 1.2l-1.8-1m-.9-.6l-.4.4.4-.4.4-.2-.4-.3-.4.3zm.9-.5l.5.3m-.5-.3l-.5.3m1.8 0l-.4-.3-.4.3m2.6 1.1l-.4-.3-.4.3.4-.3m-.9 0l.5-.2-.5-.4-.5.4m1.4.2l-.4-.2.8-.6m1 0l-.5-.3m.5-.2l-.5-.2-.9.4m1.8 1.1l.5.3.4-.3m1.8 0l-.4-.2m.4-.4l-1.8-.9m.5 1.3l-1.4-.9m4.1 2.3l-.5-.2m-2.7-1v-.1m1.8 1.1l.5-.3m1.8 0l-.5-.2m.5-.2l-1.4-.9-.9.6m.5.3l-.5.2m-.4-.7v-.1m-1.4-1.2v-.2m2.3 2v-.2m.4-.7v-.1m-1.3-1.1l-.5.3m-5.4-2.7l.4-.2-.8-.5.4-.4-.4-.2.4-.3.4.3 1.4-.7m-1.8-.6l-.4.3.4.3-.4.2-.5-.2.5-.3-.5-.3-1.3.8.4.2-.4.3.4.2.4-.2.5.2-.5.4.5.2-.9.5-.4-.2-.5.2-.5-.2-.4.2-.9-.5-.5.3-.8-.5.4-.4-.4-.2.4-.3.9.5 1.3-.7-.4-.2-.4.2-.5-.2-.5.2-.4-.2.4-.3.5.3.5-.3-.5-.3.9-.5.4.2-.4.3.9.6.5-.3-.5-.3.5-.3-.5-.2.5-.3.4.3-.4.2.4.3.9-.5m6.3 1.5l.5.3-.5.2.5.4-.5.2.5.3-.5.2.5.3-.5.2.5.4-.5.2 1.4.7-.5.3-.4-.3"/><path d="M266.1 50.9l.5-.3-.5-.2-.4.2-.5-.2.5-.3.4.3.5-.3-.5-.2.5-.2.9.4.4-.2-.4-.2.4-.4-.4-.2-.5.2-.4-.2 1.3-.8-.4-.2-.5.2-.9-.6-.9.6.5.3.4-.3.5.3-1.9 1.1.5.2-.5.2-.4-.2.4-.2-.8-.6-.5.2-.9-.5m-5.8-.7l.4-.4m2.2.9l-.8-.5.8.5zm-.8-.5V48m-1.4-.8l.9.5m-.9-.5l-.4.3m3.6 1.1l-.5-.2.5.2zm-.5-.3l-.5.2.5-.2zm-.9-.6l-.4.4m1.8.5l.4-.2-.4.2zm.4-.3l-.4-.2-.5.2m-.5-.8l.5.2-.5-.2zm.5.8l-.9-.6m-.9-.9l-.5-.3-.4.3m4.5 1.5l-.5-.2m-.8-.6l.4.2m-.4-.2l-.5.2.5-.2zm-1 0l.5-.3-.5-.2.5.2m-.5-.2l-1.3.7m0-.9l.5-.3m2.2.7l-.4-.2-.5.2.5-.2m0 .5l-.5-.3m-.5-.2l.5-.2-.9-.6m.4-.3l-.4-.2-.9.5m1.8.6l.5-.3m0 .5l-.5-.2m2.7 0l-.4-.3-.5.3m-1.3-.9l.4.3m-.4-.3l-.5.3m.9-.5l-.4-.3-.5.3m2.7.5l-.8-.5.8.5zm-.9-.5l-.9.5m.9 1.5l-.5-.2-.4.2"/><path d="M266.6 50.6l.4.3-.4-.3-.5.3m0-.5l-.4-.3-.5.3m0-.5l-.5-.2-.4.2m-1.8-1.1l.4-.2m3.2 1.8l.5-.3m-2.3-1.3l.5.2-.5-.2zm-1.4-.7l1 .5-1-.5zm-.8 0l.4-.4m0-.5l.4.3m-.4-.3l-.4.3m.8.6l1.8-1.1-.4-.2.4.2m-.4-.2l-1.4.7m4.1 3.4l.8-.5-.8.5zm.9-.5l-.4-.3-.9.5m.9-.5l-.9-.4-.5.2m3.2.7l-1.4-.7-.4.2m-2.8-1l.5-.2-.5.2zm.5-.3l-.5-.2-.4.2m.9-.5l.5.3m-.5-.3v-.1m3.2 1.5l-.5-.4-.4.4m.9-.6l-.5-.3m-1.8-1.1l-.4-.2.4.2zm-.4-.2l-1.8 1.1 1.8-1.1zm2.7 1.1l-.5-.3-1.3.8m1.8-1l-.5-.4m-1.3-.2l.4.2-.4-.2-.5.2zm1.8 0l-.5-.3-.9.5.9-.5m-1.3 1.4l-.5-.3-.4.3m-77.5 44.3l-.7 4.4c-1.6 20.2 13.4 46.2 31.7 55l4.2 1.6"/><path d="M191.6 94.1l-.1 5c.3 17.7 12.9 39.8 28.2 48.9l4.4 2.4"/><path d="M188.2 92.9l-.7 4.4c-1.6 20.1 13.5 46.4 31.7 55l4.2 1.6"/><path d="M194.6 95.6l-4.3-1.9-4.3-1.2c-23.6-3.3-22.3 26-15.4 40.7l2.6 5.6 3.1 5.3c8.3 15.2 36.3 36.4 46.5 12.1l1.1-4.3.5-4.7"/><path d="M172 92.9l-2.9 2.3-2.4 2.9c-14.3 23.8 15.8 74.9 43.4 71.7l3.6-1 3.2-1.8c22.2-20-9.3-76.9-37.7-76.2l-3.8.6-3.4 1.5z"/><path d="M193 94.8l-.1 4.8c.8 17.7 12.2 37.4 27.2 47l4.2 2.3m-28.3-96l-.3-.1-.4-.1h-.4m64.7 37L196 52.9m66.1 40.9v-.5c-.2-1.3-1.1-2.4-2-3.4l-.5-.2m2.5 4.1l2.4 60.3-2.5 2.1-.5.8m0-63v-.5l-.1-.6-.3-.6-.7-1.2-.3-.5-1-.7m2.4 4.1v63m0-63l.6-.2m-3-3.9l.5-.2M195.1 53l64 36.9m-64-36.9l.9-.1m-.9.1l-.4-.2-.4-.1h-.7l-.2.1m.6-.1h.9m60.8 88.6l-.1-.1h-.1l-.1-.1h-.5l-.1.1m-9.6 14.7l2.7-1.8 2.3-2.5 2.1-2.9 1.4-3.6 1.1-3.9"/><path d="M241.6 157.8l3.4-1.1 3-1.8 2.7-2.5 2.2-3.1 1.6-3.8 1.2-4.2m0-15.7h-.8l-.1.1.6 4.1.4 3.8-.4 3.8-.6 3.7"/><path d="M255.7 141.3l.4-3.8.1-3.9-.5-8m-27.4-45.7h.1c.6-.6-.1 0 .5-.6v-.1m25.9 46.5l-1.1-5.5c-3.3-13.3-11.2-26.8-21-36.4l-4.3-3.8"/><path d="M255.7 125.6l-1.2-5.6c-3.5-13.9-11-26.8-21.3-36.9l-4.3-3.8M215 72.2l.1-.1V72h.1v-.1l.2-.1v-.4m-.4.8l3.5 1.2 3.4 1.7 3.3 2.3 3.1 2.5"/><path d="M228.9 79.2l-6.6-4.4c-7.9-4.7-17.5-7.5-25.7-1.8l-2.6 2.4"/><path d="M215 72.2l-4-1-3.7-.5-3.6.2-3.4.9-3 1.4m31.6 6l25.2 14.6m.7-1.4l-.1.2-.2.1-.1.2-.1.1-.1.2-.1.2v.4m.7-1.4L191 55.7l-.2.1-.2.1-.1.1v.1l-.1.3-.2.1v.4l25.2 14.5m40.3 25.2v29m-1.6-31.8l1.2 1.2.4 1.6m0 44.7v29.1l.2.1h1l.3-.1V96.6m-1.5 0h.2l.2.2h.7l.1-.2h.3m-21.3 64.3l18.1 10.5c.7.5 1.5.2 1.7-.6v-.4"/><path d="M254.1 171.4v.2l.1.1.1.2m2.2.1l.2-.3.1-.2.3-.2v-.4l.1-.5m-68.6-91.8V57.8m-.3-.3v.1l.1.1.2.1m68.6 38.8l-.3-1.2-.4-1.2-.9-.9-.8-.9M191 55.7l-1-.4-.8.2m-.6 2.3l.1-.7.3-.4.6-.1.6.3m64.1 115L235.6 161m20.9 11l-1.2.2-1-.3"/><path d="M188.3 78.9V57.5l.1-1.1.8-.9m4.1 112.4l4.7 2.4 4.4 1.7 4.4.8c6.9.7 13.2-2 16.7-8.2l1.8-3.8 1.2-4.4c1.7-9 0-19.4-3.5-27.9l-2.5-6-3-5.8-3.5-5.5c-10.1-17-42.6-38.7-51.9-9l-.8 4.8-.2 5.2"/><path d="M170.7 90.6l-3 2.3-2.5 3c-16 25.1 18.3 82.8 48.1 75.9l3.5-1.4 3.1-2.3c20.6-22.9-11.9-80.6-41.7-79.7l-4 .6-3.5 1.6zm-9.5 22.1l-.2-.6m31.8 55.4l.5.4"/><path d="M195.1 95.9l-.2 4.4c.7 16.9 11.3 35.1 25.5 44.2l4 2m89.7-17.7l-.2-1.2-.8-.9m1 10.9v-8.8m-.6 10.4l.3-.3.2-.3.1-.5v-.5m0 0L261.5 168m-.7 1.6l.5-.5.1-.2.1-.5v-.4m0 0l-4.3 2.4"/><path d="M313.5 139.2l-52.7 30.4-4.3 2.4m5-15l52.6-28.2M261.5 157v11m-4.3-71.4l4.3-2.6m-6.7-1.6l4.3-2.5M191 55.7l4.1-2.7m-5.9 2.5l4.2-2.7M170.3 90l27-16.8m19.7 97.7l28.2-15m68.9-27.7l.6-2.1.2-1.9m-.8 4.3v-.3m0 9.1l.8-.4m0-12.7v12.7m-.8 1.6l.4-.3.2-.3.2-.5v-.5m-.9 1.7l.1-.1m.8-14.3l-1 .2m0 0l.2 3.8m11 2.6l-10.2 6.1m1.3-74.4l8.9-5.2m-2.4-4l-8.9 5.1m-64-37l9.4-4.8m55.1 121.9l10-6.3M248.2 21.3l9.5-4.9m67.4 40.9v73.5m-.8 1.4l.4-.2.1-.4.3-.4v-.4M259.2 16.6l63.5 36.7m2.4 4v-.6l-.1-.6-.3-.6-.4-.4-.3-.6-.4-.5-.5-.5-.4-.2m-63-36.7l-.1-.1h-.3l-.1.1"/><path d="M323.1 53.3l-.1-.2h-.2l-.1.2m2.4 4l.2-.2V57m-.2 73.8l.2-.3v-.2M259.2 16.6l-.5-.2-.3-.2h-.5l-.2.2m2 .2l63.4 36.7m2.2 3.7l-.1-1.1-.5-1.1-.7-.9-.9-.6m2.2 3.7v73.3"/><path d="M324.3 132.2l.9-.8.1-1.1M259.7 16.6l-1-.4-1 .2m58.5 46.1v8.9m-.7 2.4l.3-.6.4-1.8m-.7 2.4l-.3.6-.1.2-.1.4-.1.3v48.9m.4-52.6v-8.8m.9-.3v-.1m-2.3 62V75.8m0 0l1-.2m.4-4l.9-.2m-1.3 2l.6.4m-1 .2l.7.4m-67.4-52.9l.8-.3 1.2.2m-.6.6l-1.2-.2-.7.5m1.9-.3l.6-.6m-2.4.7l.4-.6m65.4 37.4l-64-36.9m66.1 40.8l-.1-1.1-.5-1.1-.7-1-.8-.7m.6-.5l-64-37m63.4 37.5l.6-.5m0 0l.9.7.8 1 .4 1.2.3 1.2m-.9.3l.9-.3m-1.3 10.9l.2-.4.1-.5.1-.5v-.4m-.4 1.8l-.4.6-.2.4-.2.4-.1.3v.4l-.1.3m-31.8-46.3l-2.3-1.6-2.2-1.3-2-1.2-2-.7"/><path d="M287.6 32.7l-2.5-2.9-2.7-2.5-2.8-1.9-2.8-1.3-2.7-.6h-2.5"/><path d="M288.2 33l-1.8-2.3c-2.7-3-8.6-7.5-12.9-7.3h-1.9m-22.2-1.3l-.4-.2-.5-.1-.3.1-.4.1m65.3 36.9l-63.7-36.8M315.3 63v-.6c-.2-1.4-.8-2.3-1.9-3.2l-.4-.2m2.3 12v-8m-1.4 61.5v-4.9m-.7 6.5l.5-.5.2-.7v-.4m-51.8-30.7L315.3 63m-50.9 87.5l49.5-26m-54.3-34.8l53.5-30.8m-117.1-6l53.4-30.8m63.8 104l-48.8 25.5m-69.7-98.9L247.8 22m65.5 82.3l.2-.2.3-.4.1-.5v-.4M312 105v.3m0 9.5v.5l.1.2.1.2.1.3.3.2m1.3 3.4v-.5l-.1-.6-.1-.5-.3-.5-.3-.6-.3-.4m-46.6-20.2l.2-.3.3-.3.1-.4.1-.6-4.7 2.7m4.7 14.1l-.1-.4-.1-.5-.1-.6-.5-1-.4-.5"/><path d="M266.9 111.5l1.3-.8 1.2-1.2c1.9-1.7 4-5.5 4.4-8.1l.2-1.7v-1.6c-.1-2.6-1.9-4.9-4.7-4.4l-1.2.4-1.3.6"/><path d="M265.7 108.5l1-.7 1.8-1.8.7-1.1.6-1.2.6-1.3.4-1.2.1-1.2c.1-1.6-.1-3.2-1.7-4l-.8-.2h-.8m-4.7 18l4-2.3m-1.2-3l-2.9 1.7"/><path d="M262.7 109.7l2.8-1.6c3.4-1.5 7.8-10.4 2.9-12.4h-1m45.4 20.8l-4.3 2.5m1.2 3v-.5l-.1-.5-.3-.6-.4-.9-.4-.5m1.2 3l4.2-2.4"/><path d="M309 106.7l.4-.2.1-.4.2-.4v-.5l-1.3.8-1.3 1.2c-2.2 2.1-3.6 5.1-4.3 8.1l-.2 1.7v1.6c.3 2.7 1.5 4.7 4.6 4.3l1.3-.2 1.3-.7"/><path d="M303.6 117.9l.4.7.5.6.6.3.9.2h.7l.9-.2.9-.5m5.4-16.2l-4.2 2.5m-1.8 12.6v.4l.2.2.2.2 4.3-2.5m-5-8.5v.1"/><path d="M303.6 117.8l.4.7.6.6.9.2h.8l1-.2 1-.4m-4.7-4l.1.8.1.7.4.6.4.5.5.4h1.5m.9-9.8l.1-.1 4.4-2.5m-47 2.2l.2.4.3.3m-1.6-1l-1.2.7m2.2-10.9v.4m3.8 1l-.2-.6-.4-.6-.5-.2-.6-.2h-.7l-.7.2-.7.4-2.6 1.4m0-.2l3.9-2.3.7-.4.6-.1"/><path d="M303.6 117.9l-.1-.8c-.2-4 2.3-8.1 5.5-10.3l4.3-2.4m-1.3.9v3.8m.8 7.4l-.2-.3m-47.1-8l.2.3m42.6 10.2l.2.3m-45.6-5.2l1.5 36.7m-2.2-53.1l-.1-3.6M196 52.9l63.6 36.8m25.2-61.3l-.6.2m1.7.4h.1m.7-2.8h-.1c-.9-.1-1.7.8-1.9 1.7l-.1.2m.2.3l1.5.8-1.7-1.1m2.1-1.9l2.3 1.3m2.2-1.2l-5.8 3.4m4-2.4l-1-.5-1.1-.5"/><path d="M291.2 26.3l-1.9-1.3-2-.8v2.1l-.1.2m-2.6 1.5l-.6.4m-1.6-1.3l4.9-2.9m-2.5 4.1v.1"/><path d="M303.8 42v-2.3c-.4-7.3-9.2-21.5-17.9-17.7l-5.9 3.4m-11.4 76.9v-.7m.5.7h-.5m.5 0v-1m-1.9-1.2l-.2.4m.2-.4l-.4.3-.5.2m-1.7 4.1l-.2.2m0-.9v.9m2.5.1l.3.5m-.9-.1l.4-.1.2-.3m-.6 1l.5-.2.4-.3m-.9-4.7l.7-.3m-2.4 4.2l-.1-.9m1.8-2.1l1 .2m.3.1l1 .3m-1.7 2.7l-.6-.7m-.2-.2l-.7-.7"/><path d="M264.5 106.9l.5.2h.6l.6-.1.6-.4.6-.4.5-.6.6-.6.5-.7.4-.7c.3-1.1.9-2.4.2-3.5l-.2-.5-.4-.4-.5-.1c-3-.2-5.7 4.4-4.6 7l.2.4.4.4z"/><path d="M268.8 98.4l-.6-.2c-3.5-.2-6.9 5.8-4.9 8.7l.5.4"/><path d="M267.6 97.7l-.5-.1c-1.9-.3-3.3 1.3-4.3 2.6l-.4.7m6.4-2.5l.9 1.1.3 1.6-.2 1.7-.7 1.6-1.1 1.5-1.4 1.1-1.5.5-1.3-.3"/><path d="M262.3 100.7l1.2-1.5 1.4-1.1 1.4-.6 1.3.2m1.5 4.6l-1.3.7-.3.2v.2l-.1.1-.1.1v.1l-.1.1v1.7m-.9.5v-1.7l-.1-.1h-.1v-.1h-.2l-.1.1h-.1l-1.3.7m0-.9l1.3-.9h.1l.3-.2v-.1l.1-.2.1-.2v-1.8m-.6 3.6l-.8-.6m2.3.4l-1.6-.8m2.2-.2l-1.5-1m-.1 2.2l-1-.7m2-3.4v1.7l.1.1.1.1h.2l.2-.1 1.3-.6m-1.9.4l-.9-.5m1.1.8l-1.1-.4m-2.5 5.6l-1.2-.7m6.2-8.1l-1.2-.7m41.1 18.4v.5m-.4-.5h.4m-.7.5h.7m2.2-2.4l.2-.6.2-.5m.1 1.2l-.5-.1m.5.1l.2-.6.1-.5m-.9-2.3l-.3-.1h-.2m.8-.2l-.3.3m.3-.3h-.8m-2.9 3.3h-.1m.5-1l-.3.4-.2.6m.1 0l.5-1m.8 3.2l-.3-.5"/><path d="M308.5 112.9l1.1.6 1.3.7m-.7-3.3h.6"/><path d="M307.4 117.3l.5.2h.5c2.6-.1 5.6-5.3 3.7-7.4l-.4-.4-.5-.1h-.5l-.6.1-.6.2-1.2 1-.5.7-.5.6c-.5 1.1-1.2 2.4-.8 3.7l.1.6.4.5.4.3z"/><path d="M311.6 108.9l-.6-.1-.6-.1c-2.3.9-1.6.5-3.2 2.4l-.6.8-.5.8c-.4 1.7-1 2.4-.2 4.1l.2.5.5.4"/><path d="M310.4 108.3l-.5-.2c-3.5-.4-7.1 6-4.9 8.5l.4.4m6.2-8.1l1 1.1.2 1.5-.2 1.7-.7 1.7-1.1 1.4-1.3 1.1-1.5.5-1.4-.2"/><path d="M305.4 116.9l-.8-1c-1-3.1 1.5-7.3 4.6-7.9l1.3.2m-2.5 8.4l.6-1.7.1-.2v-.5h-.1l-.1-.1-1.2-.2m.5-1l1.1.1.1-.1h.2l.1-.2.2-.1.1-.1v-.1l.1-.1.6-1.7m.8 0l-.7 1.7v.6l.1.1v.1h.2l1 .1m-1.3-.9l-.6-.4m-1.3 2.2l-.9-.6m2.9-.4l-1-.5m-.9 1.6l-1-.7m3.8.8l-1.1-.1c-.3 0-.8.4-.8.7l-.7 1.7m.7-1.7l-.8-.4m1.6-.3l-1.9-1.3m-1.8 4.8l-1.2-.8m6.2-8l-1.2-.6"/></g><path fill="#666" stroke="#666" stroke-width=".624" stroke-linecap="round" stroke-linejoin="round" stroke-miterlimit="10" d="M217 78.1c.8.7 1 1.7.5 2.4s-1.6.7-2.4 0c-.8-.7-1-1.7-.5-2.4s1.6-.6 2.4 0z"/><text transform="translate(13 20.861)"><tspan x="0" y="0" font-family="Helvetica,Arial,sans-serif" font-size="12">Housing temperature </tspan><tspan x="0" y="14.4" font-family="Helvetica,Arial,sans-serif" font-size="12">measurement point</tspan></text><path fill="none" stroke="#000" stroke-miterlimit="10" d="M13 40.5h113.8m0 0l87.7 37.6"/></svg>