<svg version="1.1" id="Layer_1" xmlns="http://www.w3.org/2000/svg" x="0" y="0" viewBox="0 0 1000 727.3" xml:space="preserve"><style>.st0{stroke-linecap:round;stroke-linejoin:round}.st0,.st1{fill:none;stroke:#000;stroke-width:.4;stroke-miterlimit:10}.st2{stroke-linecap:round;stroke-linejoin:round}.st10,.st12,.st13{fill:none;stroke-miterlimit:10}.st2,.st3{stroke:#000;stroke-width:.3}.st2,.st3,.st8,.st9{fill:none;stroke-miterlimit:10}.st8{stroke:#fff;stroke-width:1.4;stroke-dasharray:5.6693,2.8347,1.4173,2.8347}.st10,.st12,.st13,.st9{stroke:#000;stroke-width:.3}.st9{stroke-dasharray:1.387,2.7739}.st10{stroke-dasharray:5.5479,2.7739,1.387,2.7739}.st12{stroke-dasharray:1.3647,2.7295}.st13{stroke-dasharray:5.4589,2.7295,1.3647,2.7295}.st15{fill-rule:evenodd;clip-rule:evenodd;fill:#0f0f19}.st19{font-size:21.149px}.st20{font-family:Helvetica,Arial,sans-serif}.st21{font-size:13.9972px}.st23{fill:#1a1a18}.st24{font-size:15.08px}</style><path d="M660.3 175.7c1.6 0 3 1.3 3 3v53.4c0 1.6-1.3 3-3 3h-58.5c-1.6 0-3-1.3-3-3v-53.4c0-1.6 1.3-3 3-3h58.5m0-.7h-58.5c-2 0-3.7 1.7-3.7 3.7v53.4c0 2 1.7 3.7 3.7 3.7h58.5c2 0 3.7-1.7 3.7-3.7v-53.4c0-2.1-1.7-3.7-3.7-3.7z"/><path class="st0" d="M656.4 299.9c41.7-11.5 72.3-49.7 72.3-95 0-54.4-44.1-98.5-98.5-98.5s-98.5 44.1-98.5 98.5c0 45.1 30.3 83.1 71.6 94.8l53.1.2z"/><path class="st0" d="M551.6 204.9c0-43.5 35.2-78.7 78.7-78.7s78.7 35.2 78.7 78.7-35.2 78.7-78.7 78.7-78.7-35.2-78.7-78.7z"/><path class="st0" d="M566.6 204.9c0-35.2 28.5-63.7 63.7-63.7s63.7 28.5 63.7 63.7-28.5 63.7-63.7 63.7-63.7-28.5-63.7-63.7z"/><path class="st0" d="M563.6 204.9c0-36.8 29.9-66.7 66.7-66.7s66.7 29.9 66.7 66.7-29.9 66.7-66.7 66.7c-36.9 0-66.7-29.9-66.7-66.7z"/><path class="st0" d="M574 204.9c0-31 25.2-56.2 56.2-56.2s56.2 25.2 56.2 56.2-25.2 56.2-56.2 56.2S574 236 574 204.9zm-264.9 95.5V102.2m133.4 198.4V102.4M302.9 284.6V125.9m7.3 545.7v-63.2l-6.1-11m6.1-127.3v63.3l-6.1 11m-.1 106.2V491.9m530.9-342.8h59.8v113.3h-59.8V149.1zm105 151.3V102.2M806.6 300.6V102.4m139.5 182.2V125.9"/><path class="st1" d="M855.5 167.8h18.1v75.6h-18.1v-75.6z"/><path class="st0" d="M863.3 198.5l7 7v26.6l-5.6 5.6h-5.4l-.7-2.1v-58.7l1.8-3.3h8l1.9 2.9v18.2l-2.3 1.2h-4c.1-.1-2.1 1.2-.7 2.6zM375.9 530h-55.5v-61.1m74.2 101.8c0-6.8 5.5-12.4 12.4-12.4 6.8 0 12.4 5.5 12.4 12.4 0 6.8-5.5 12.4-12.4 12.4s-12.4-5.5-12.4-12.4z"/><path class="st0" d="M391.2 570.7c0-8.7 7-15.7 15.7-15.7s15.7 7 15.7 15.7-7 15.7-15.7 15.7c-8.7.1-15.7-7-15.7-15.7zm-303.4-424c0 6.6-5.3 11.9-11.9 11.9S64 153.3 64 146.7c0-6.6 5.3-11.9 11.9-11.9s11.9 5.3 11.9 11.9z"/><path class="st0" d="M73.2 151.6l-2.9-4.9 2.9-4.9h5.6l2.8 4.9-2.8 4.9h-5.6zm131.5 112.9c0 6.6-5.3 11.9-11.9 11.9-6.6 0-11.9-5.3-11.9-11.9s5.3-11.9 11.9-11.9c6.6.1 11.9 5.4 11.9 11.9z"/><path class="st0" d="M190 269.4l-2.8-4.9 2.8-4.9h5.7l2.8 4.9-2.8 4.9H190z"/><path d="M135.1 103.8c55.9 0 101.2 45.3 101.2 101.2 0 43.5-27.5 80.6-66 94.9l-70.7-.1C61.3 285.3 34 248.3 34 204.9c0-55.9 45.3-101.1 101.1-101.1m0-.7c-56.2 0-101.9 45.7-101.9 101.9 0 21.2 6.4 41.4 18.6 58.7 11.9 16.8 28.3 29.6 47.5 36.8h.2l70.7.1h.2c19.3-7.2 35.8-19.9 47.8-36.7 12.2-17.3 18.7-37.6 18.7-58.8.1-56.4-45.6-102-101.8-102z"/><path class="st0" d="M161.3 299.9c41.7-11.5 72.3-49.7 72.3-95 0-54.4-44.1-98.5-98.5-98.5s-98.5 44.1-98.5 98.5c0 45.1 30.3 83.1 71.6 94.8l53.1.2z"/><path d="M630.2 103.8c55.9 0 101.2 45.3 101.2 101.2 0 43.5-27.5 80.6-66 94.9l-70.7-.1C556.3 285.4 529 248.4 529 205c0-56 45.3-101.2 101.2-101.2m0-.7c-56.2 0-101.9 45.7-101.9 101.9 0 21.2 6.4 41.4 18.6 58.7 11.9 16.8 28.3 29.6 47.5 36.8h.2l70.7.1h.2c19.3-7.2 35.8-19.9 47.8-36.7 12.2-17.3 18.7-37.6 18.7-58.8.1-56.4-45.6-102-101.8-102zm-258 .1l2 1.9v194.4h-70.7v-14.9c-.6-.6-1.6-.7-2.2-.7h-.6V126.6s.5.4 1.1.4c.5 0 1.1-.2 1.7-1.1v-19l4.4-3.7h64.3m0-.7h-64.5c-.3 0-.5.2-.6.4l-4.1 3.5c-.2.1-.2.3-.2.5v18.7c-.3.4-.7.7-1 .7-.4 0-.6-.2-.6-.2-.1-.1-.3-.2-.4-.2s-.2 0-.3.1c-.2.1-.4.4-.4.6v157.3c0 .2.1.4.2.5s.3.2.5.2h.6c.7 0 1.2.1 1.5.3v14.5c0 .4.3.7.7.7h70.7c.4 0 .7-.3.7-.7V105c0-.2-.1-.4-.2-.5l-2-1.9c-.2-.1-.4-.1-.6-.1zm70.2.7l6.3 3.7v192.5H376V105l2-1.9h64.4m.1-.6H378c-.2 0-.4.1-.5.2l-2 1.9c-.1.1-.2.3-.2.5v194.4c0 .4.3.7.7.7h72.6c.4 0 .7-.3.7-.7V106.9c0-.2-.1-.5-.3-.6l-6-3.6c-.1-.1-.3-.2-.5-.2zm498.7.7l4.4 3.7v19c.6.9 1.2 1.1 1.7 1.1.6 0 1.1-.4 1.1-.4v157.3h-.6c-.6 0-1.7.1-2.2.7v14.8h-70.7V105l2-1.9 64.3.1m.1-.7h-64.5c-.2 0-.4.1-.5.2l-2 1.9c-.1.1-.2.3-.2.5v194.4c0 .4.3.7.7.7h70.7c.4 0 .7-.3.7-.7v-14.6c.3-.2.9-.3 1.5-.3h.6c.2 0 .3-.1.5-.2.1-.1.2-.3.2-.5V126.6c0-.3-.2-.5-.4-.6-.1 0-.2-.1-.3-.1-.2 0-.3.1-.5.2 0 0-.3.2-.6.2s-.7-.2-1-.7v-18.7c0-.2-.1-.4-.2-.5l-4.1-3.5c-.1-.3-.3-.4-.6-.4zm-70.2.7l2 1.9v194.4h-72.6V106.9l6.3-3.7h-.1 64.4m0-.7h-64.5c-.2 0-.4.1-.5.3l-6 3.6c-.2.1-.3.4-.3.6v192.5c0 .4.3.7.7.7H873c.4 0 .7-.3.7-.7V105c0-.2-.1-.4-.2-.5l-2-1.9c-.1-.1-.3-.1-.4-.1zM445.3 469.2l4.4 3.7v194.4l-5.9 5h-27.5V655H381l-1.9-1.9v-182l2-1.9h64.2m.1-.7h-64.5c-.2 0-.4.1-.5.2l-2 1.9c-.1.1-.2.3-.2.5v182c0 .2.1.4.2.5l1.9 1.9c.1.1.3.2.5.2h34.6v16.6c0 .4.3.7.7.7h27.5c.2 0 .3-.1.4-.2l5.9-5c.2-.1.3-.3.3-.5V472.9c0-.2-.1-.4-.2-.5l-4.1-3.5c0-.3-.2-.4-.5-.4zm-72.1.7l2 1.9v182l-1.9 1.9h-16.6v17.3h-46.3l-5.9-5v-16.7c-.6-.6-1.6-.7-2.2-.7h-.6V492.7s.5.4 1.1.4c.5 0 1.1-.2 1.7-1.1v-19l4.4-3.7h64.3m0-.8h-64.5c-.3 0-.5.2-.6.4l-4.1 3.5c-.2.1-.2.3-.2.5v18.7c-.3.4-.7.6-1 .6-.4 0-.6-.2-.6-.2-.1-.1-.3-.2-.5-.2-.1 0-.2 0-.3.1-.2.1-.4.4-.4.6V650c0 .2.1.4.2.5s.3.2.5.2h.6c.7 0 1.2.1 1.5.3v16.4c0 .2.1.4.3.5l5.9 5c.1.1.3.2.4.2h46.3c.4 0 .7-.3.7-.7v-16.6h15.9c.2 0 .4-.1.5-.2l1.9-1.9c.1-.1.2-.3.2-.5v-182c0-.2-.1-.4-.2-.5l-2-1.9c-.1-.2-.3-.3-.5-.3z"/><path class="st1" d="M443.5 468.8V533h-63l-4.4 9.4m67.4-9.4l7.3 9.9s-9 26.4-.4 56.6l-6.2 9.3"/><path class="st1" d="M377.4 602.3l3.1 5.6h63.9v65.5m-63.9-139.5l-4.4-9.4"/><path class="st2" d="M357.5 332.9h-53.1m222.7 0H366.5"/><path class="st3" d="M366.2 188.6v144.3m-66.8-52.1v53.6M798.9 68.3v41m148.1-41v41"/><path class="st2" d="M595.6 301.1h-79.5m469.8 0h-41.2m40.9-199.3h-48.9"/><path class="st3" d="M388.8 570.8h2.8"/><path d="M394.3 570.8h2.6" fill="none" stroke="#000" stroke-width=".3" stroke-miterlimit="10" stroke-dasharray="1.3341,2.6682"/><path d="M398.3 570.8H421" fill="none" stroke="#000" stroke-width=".3" stroke-miterlimit="10" stroke-dasharray="5.3365,2.6682,1.3341,2.6682"/><path class="st3" d="M422.3 570.8h2.8m-18.2-18.6v2.8"/><path d="M406.9 557.8v2.7" fill="none" stroke="#000" stroke-width=".3" stroke-miterlimit="10" stroke-dasharray="1.3776,2.7552"/><path d="M406.9 561.9v23.4" fill="none" stroke="#000" stroke-width=".3" stroke-miterlimit="10" stroke-dasharray="5.5105,2.7552,1.3776,2.7552"/><path class="st3" d="M406.9 586.7v2.8"/><path class="st8" d="M135.1 317.4V92.5"/><path class="st3" d="M135.1 317.4v-2.9"/><path class="st9" d="M135.1 311.7V309"/><path class="st10" d="M135.1 307.6V96.8"/><path class="st3" d="M135.1 95.4v-2.9"/><path class="st8" d="M22.7 204.9h224.8"/><path class="st3" d="M22.7 204.9h2.9"/><path class="st9" d="M28.3 204.9h2.8"/><path d="M32.5 204.9h210.8" fill="none" stroke="#000" stroke-width=".3" stroke-miterlimit="10" stroke-dasharray="5.5478,2.7739,1.387,2.7739"/><path class="st3" d="M244.7 204.9h2.8"/><path class="st8" d="M630.2 317.4V92.5"/><path class="st3" d="M630.2 317.4v-2.9"/><path class="st9" d="M630.2 311.7V309"/><path class="st10" d="M630.2 307.6V96.8"/><path class="st3" d="M630.2 95.4v-2.9"/><path class="st8" d="M517.8 204.9h224.8"/><path class="st3" d="M517.8 204.9h2.8"/><path class="st9" d="M523.4 204.9h2.8"/><path class="st10" d="M527.6 204.9h210.8"/><path class="st3" d="M739.8 204.9h2.8"/><path class="st8" d="M287.9 204.9h159.8"/><path class="st3" d="M287.9 204.9h2.8"/><path class="st12" d="M293.4 204.9h2.7"/><path class="st13" d="M297.5 204.9h146"/><path class="st3" d="M444.9 204.9h2.8"/><path class="st8" d="M787.6 204.9h159.9"/><path class="st3" d="M787.6 204.9h2.9"/><path class="st12" d="M793.2 204.9h2.7"/><path class="st13" d="M797.3 204.9h146"/><path class="st3" d="M944.7 204.9h2.8"/><path class="st8" d="M289 570.9h170.8"/><path d="M289 570.9h171.1" fill="none" stroke="#000" stroke-width=".3" stroke-miterlimit="10" stroke-dasharray="5.6693,2.8347,1.4173,2.8347"/><path class="st15" d="M299.1 333l12.5 2.1v-4.2l-12.5 2.1zm67.4 0l-12.5 2.1v-4.2l12.5 2.1zM947.4 73.4l-12.6 2v-4.1l12.6 2.1zm-148.4 0l12.6-2.1v4.1l-12.6-2z"/><path class="st2" d="M518.1 215.2v73"/><path class="st15" d="M518.1 204.6l2.1 12.6H516l2.1-12.6zm0 96.3l-2.1-12.6h4.2l-2.1 12.6z"/><path d="M339 353.6v10.8" fill="none" stroke="#000" stroke-width=".5" stroke-linecap="round" stroke-linejoin="round" stroke-miterlimit="10"/><path class="st15" d="M339 336.9l3.2 19.2h-6.4l3.2-19.2z"/><path class="st2" d="M983.3 113.5v174.7"/><path class="st15" d="M983.3 101.9l2.1 12.5h-4.2l2.1-12.5zm0 199l-2.1-12.6h4.2l-2.1 12.6z"/><path class="st2" d="M406.9 558.3v144.2m-106.6-55.1v55.1"/><path class="st15" d="M299.8 700.2l12.6-2.1v4.2l-12.6-2.1zm107.5 0l-12.5 2.1v-4.2l12.5 2.1zM83.8 115.9l-7.7-10.1 3.6-1.9 4.1 12zm101.8 176.8l8 9.9-3.6 2-4.4-11.9z"/><path class="st2" d="M198.2 314.5l-114-197.9L73 95.7H17.7"/><path class="st15" d="M365.8 231.9l12.6-2.1v4.2l-12.6-2.1z"/><path class="st0" d="M374.4 232h10.5l35.8-159H632m179.4.1h126.2"/><path class="st2" d="M308.6 700.2h89.7"/><path class="st15" d="M412.8 585.4l4.8 11.7-4 1-.8-12.7z"/><path class="st2" d="M415.2 596.8l28 103.3h150.6"/><text transform="translate(18.114 91.37)"><tspan x="10.6" y="0" class="st20 st19">Ø 38.8</tspan></text><text transform="translate(389.15 326.329)" class="st20 st19">max. 12.526</text><text transform="translate(505.415 318.334)" class="st20 st21">a</text><text transform="translate(317.003 361.688)" class="st20 st19">A</text><text transform="translate(333.396 695.733)" class="st20 st19">20.1</text><text transform="translate(424.816 42.286)" class="st20 st19">Photosensitive</text><text transform="translate(424.816 67.686)" class="st20 st19">surface of the sensor</text><text transform="translate(348.16 433.657)" class="st20 st19">View A</text><text transform="translate(844.731 67.668)" class="st20 st19">28.24</text><text transform="rotate(-90 391.196 -122.712)" class="st20 st19">18</text><text transform="rotate(-90 602.762 -375.454)" class="st20 st19">37.4</text><text transform="translate(449.231 695.733)" class="st20 st19">1/4-20 UNC 6</text><path d="M564 685.8l4.3 8.8 4-8.7m-10.6-4.9h13.2m-6.6 12.9v-12.7" fill="none" stroke="#000" stroke-width=".5" stroke-miterlimit="10"/><text transform="translate(645.707 380.251)" class="st20 st21">a</text><text transform="translate(653.321 388.246)" class="st20 st19">puA1600-60um/uc: max. 12.071 +</text><text transform="translate(645.707 413.625)" class="st20 st19">spacer ring 0.5 = 12.571</text><text transform="translate(867.55 692.25)" class="st23 st20 st24">Not to scale</text><text transform="translate(867.55 708.15)" class="st23 st20 st24">Dimensions in mm</text></svg>