<svg version="1.0" xmlns="http://www.w3.org/2000/svg" viewBox="0 0 520 320.6"><path fill="none" stroke="#000" stroke-width=".709" stroke-miterlimit="10" d="M55.4 20h444.3v258.7H55.4z"/><path fill="none" stroke="#000" stroke-width=".227" stroke-miterlimit="10" d="M55.5 106.6h444.2M55.5 128.2h444.2m-444 21.5h444M55.6 171.2h444.1M55.6 192.8h444.1M55.6 214.3h444m-444 21.5h444.1M55.6 257.3h444.1M166.4 20.1v258.6m55.5-258.6v258.6m55.6-258.3v258.8M333 20.1v258.8M388.6 20v258.8M110.9 20.1v258.6M55.5 41.6h444.2M55.6 63h444.1M55.5 85.1h444.2M444.1 20v258.8"/><g clip-rule="evenodd"><path fill-rule="evenodd" d="M382.5 40.3h95.6v56.1h-95.6z"/><path fill="none" stroke="#000" stroke-width="1.117" stroke-miterlimit="3.864" d="M382.5 40.3h95.6v56.1h-95.6z"/></g><g clip-rule="evenodd"><path fill-rule="evenodd" fill="#FFF" d="M379.7 37.6h95.6v56.1h-95.6z"/><path fill="none" stroke="#000" stroke-width="1.117" stroke-miterlimit="3.864" d="M379.7 37.6h95.6v56.1h-95.6z"/></g><path clip-rule="evenodd" fill="none" stroke="#2A4B9B" stroke-miterlimit="3.864" stroke-dasharray="12,2,2,2" d="M388.3 49.5h34.5"/><path clip-rule="evenodd" fill="none" stroke="#66B32E" stroke-miterlimit="3.864" stroke-dasharray="2,2" d="M388.3 67.3h34.5"/><path clip-rule="evenodd" fill="none" stroke="#E52420" stroke-miterlimit="3.864" stroke-dasharray="72" d="M388.3 85.2h34.5"/><g fill="none" stroke-miterlimit="10"><path stroke="#E5231F" d="M99.2 249.7l7.5 3.2 8.7 3.8 8 3.6 6.1 2.4 7 2.4 5.5 1.6 7.8 1.6 8.7 1.6 8.4.9 7.5.4h4.8c.2 0 7.2-.8 7.2-.8l6.3-.8 7.2-1.2 4.1-.3 8-.8 4.4-.8 2.9-.8 3.2-1.2 2.6-1.4 3.5-2.1 4.2-2.9 3.3-3.1 5.8-5.5 3.6-3.4 3.9-3 2.6-1.8 2.6-1.4 3.2-1.1 2.8-.2 3.1.6 3.1.7 4.1 1.3 5.8 1.8 4.5 1.2 3.4.5 2.4.1 2.8-.2 2.7-.6 2.8-.8 2.1-1.5 1.9-1.6 1-2.1 1.5-4.5 2.2-9.1 2.1-10.2L310 192l3-19.1 3.6-29 2.8-21.7 1-7 1.4-8.2 1.2-5.5 1.1-3.9 1.6-4.7 1.6-3.6 1-2.2 2.1-3.8 1-1.3.8-.8 1-.5.6-.2.7.2.8.8.6.7.7 1 .6 1.1.6 1.5 1 2 1.4 3.3 2 5.1.9 2.2 1.4 2.8 2.8 6.5 5.3 11.4 2.6 5 2.8 4.1 1.9 2.4 4.9 5.4 7.2 8.5 3.6 4.6 10.1 13.6 3.4 4.4 5.4 6.2 3.2 3.5 6.7 6.3 5.2 4.4 5 3.3 4.5 2.7 4.8 1.8 4.8 1.4 4.2.7 4 .9 4.3 1.2 3.6.9 7 2.9 3.9 2.1s4.6 3.2 4.7 3.3c.2.1 5 3.5 5 3.5l5.2 4 4.2 2.8 3.8 2.1 3.4 1.3 3.4 1.1 4.1.5 3.4.1 3.3-.3 1.7-.4 2.3-.5"/><path stroke="#65B32E" stroke-dasharray="2,2" d="M99.3 263.8l9.7 3.2 6.8 1.4 6.2 1.1 4.3.1 7.4-.1 7.1-.7s8-1.9 8.2-1.8c.2 0 9-2.1 9-2.1l6.4-2.3 5.2-2.5 3.9-2.4 2.5-2.2 3.9-4.3 4.3-6.8 3.3-5.1 2.3-3.5 4.4-5.7 5.2-6.2 2-2 2.1-1.3 3.9-2.8 1.2-1.1 1.4-1.7 2-3.2 3.9-8.1 3.2-8.6 2.6-7.2 2.9-11.9 5.1-25.2 2.4-11.3 3.6-17.5 3.1-15.6 3.4-15.9 2.5-10.8 2-7.5 2.5-9.1 3.1-9.8 2.5-5.4 2.1-3.9 1.7-2.4 2.3-2.2L263 38l1.6-.8 1.4-.2 1 .2 1.9.7 1.6 1.8 2.4 3.3 3 4.6 3.5 6.6 4.5 8.8 4.8 10.3 5.5 11.6 6.3 12.9 3.6 8.3 4.7 10.6 5.3 12.2 4.5 11.2 3 8 9.9 28.2 7 20.5 4.8 13.3 3.1 7.9 4.1 9.1 4 7.1 4.7 7.2 4.1 4.7 4.5 3.6 4.2 3.2 5.6 2.5 4.4 1.8 4.1 1.1 5.8 1.2 4.1.8 3.7.4 3.9.2 4.1-.2 4.4-.5 4.4-1.1 3.4-1 5.8-2.3 6-2.5 4.1-2.1 4.1-1.9 3.4-1.2 3.8-1.2 4.1-.6 3.7-.3 3.3.1 5.1.7 5.2 1.2 5.6 1.5 4.6 1.2 4.3.6 4.1.5 3.6-.2 4.5-.5 3.3-.8 2.6-1"/><path stroke="#2C4A9A" stroke-dasharray="12,2,2,2" d="M99.9 215.5l10.5-32.4 1.9-5.8 19.2-38.1 1.8-2.5 6.7-8.6 2.8-3.5 2.7-4 8.6-13.4 5.6-8.5 2.4-3.6 2.1-2.7 1.7-1.3 1.1-.3 2.4.3 2.2 1.8 2.2 2.4 1.7 1.7 1.8 1.5 1.7.8 2.8 1.1 2.6 1.1 2 1 3.3 2.4 3.2 3.4 3.9 5.2 3 5.6 2.3 6.6 2.8 8.6 4 12.2 2.8 9.3 4 12 2.9 8.2 4.6 11.6 3.6 9.3 4.1 8.8 6.3 12.4 4 6.4 4.8 6.2 5.2 4.6 6 3.9 6 2.3 6.1 2.1 4.9 2.1 8.5 3 6.8 2.4 7.7 2.1 5.1.7 6.1.6h10.3l4.7.6 6.4 1.7 7 2.9 9.8 3.9 7.2 2.5 6.8 1.7s9.6 1.1 10.3 1.1c.7 0 13.9.3 13.9.3l11-.3 15-.6 11-1.1 10.6-1 7.9-.8 4.4-.4 5.5-.1 5.7.3 6.5.7 7.5 1 7.5 1 5.9.4 9.2-.4 8.2-.8"/></g><g font-family="Helvetica,Arial,sans-serif"><text transform="translate(226.154 311.463)" fill="#010202" font-size="12">Wavelength (nm)</text><text transform="rotate(-90 117.764 97.008)" fill="#1E1E1C" font-size="12">Quantum Efficiency (%)</text><text transform="translate(36.588 64.716)" font-size="8">0.5</text><text transform="translate(104.801 292.933)" font-size="8">400</text><text transform="translate(215.193 292.968)" font-size="8">500</text><text transform="translate(326.044 292.735)" font-size="8">600</text><text transform="translate(437.698 292.796)" font-size="8">700</text><text transform="translate(36.596 23.55)" font-size="8">0.6</text><text transform="translate(36.645 235.602)" font-size="8">0.1</text><text transform="translate(36.58 193.87)" font-size="8">0.2</text><text transform="translate(36.612 150.886)" font-size="8">0.3</text><text transform="translate(36.581 108.639)" font-size="8">0.4</text><text transform="translate(37.657 279.886)" font-size="8">0.0</text><text transform="translate(435.291 88.326)" fill="#1E1E1C" font-size="12">Red</text><text transform="translate(435.291 71.575)" fill="#1E1E1C" font-size="12">Green</text><text transform="translate(435.291 52.278)" fill="#1E1E1C" font-size="12">Blue</text></g></svg>