<svg version="1.0" xmlns="http://www.w3.org/2000/svg" viewBox="0 0 180 210"><path clip-rule="evenodd" fill="none" stroke="#F99D33" stroke-width="3" stroke-miterlimit="3.864" d="M91.5 74.3v24"/><path fill="#0090D4" stroke="#000" stroke-width="1.199" stroke-miterlimit="3.864" d="M19.5 8.3h138v66h-138v-66z"/><path fill="#E4E4E4" stroke="#000" stroke-miterlimit="3.864" d="M76.7 45.7h30v28.4h-30V45.7z"/><path fill="#BDE4F7" stroke="#000" stroke-width="1.199" stroke-miterlimit="3.864" d="M10.5 188.3v-42h30v42h-30zm6 0h18v12h-18v-12zm36 0v-42h30v42h-30zm6 0h18v12h-18v-12z"/><path fill="#646464" stroke="#000" stroke-width="1.199" stroke-miterlimit="3.864" d="M49.5 98.3h84.1v24H49.5v-24z"/><path clip-rule="evenodd" fill="none" stroke="#000" stroke-width="2" stroke-miterlimit="3.864" d="M79.5 122.3v12h-12v12m60-24v12h30v12"/><path fill="#BDE4F7" stroke="#000" stroke-width="1.199" stroke-miterlimit="3.864" d="M97.5 188.3v-42h30v42h-30zm6 0h18v12h-18v-12zm36 0v-42h30v42h-30zm6 0h18v12h-18v-12z"/><path clip-rule="evenodd" fill="none" stroke="#000" stroke-width="2" stroke-miterlimit="3.864" d="M55.5 122.3v12h-30v12m78-24v12h12v12"/><text transform="translate(83.587 58.1)"><tspan x="0" y="0" font-family="Helvetica,Arial,sans-serif" font-size="8">GigE</tspan><tspan x="-5.4" y="9.6" font-family="Helvetica,Arial,sans-serif" font-size="8">adapter</tspan></text><text transform="translate(53.104 113.2)" fill="#F5F5F5" font-family="Helvetica,Arial,sans-serif" font-size="8.5">GigE network switch</text><text transform="translate(17.287 165.4)"><tspan x="0" y="0" font-family="Helvetica,Arial,sans-serif" font-size="8">GigE</tspan><tspan x="-5.2" y="9.6" font-family="Helvetica,Arial,sans-serif" font-size="8">camera</tspan></text><text transform="translate(59.087 165.4)"><tspan x="0" y="0" font-family="Helvetica,Arial,sans-serif" font-size="8">GigE</tspan><tspan x="-5.2" y="9.6" font-family="Helvetica,Arial,sans-serif" font-size="8">camera</tspan></text><text transform="translate(104.487 165.4)"><tspan x="0" y="0" font-family="Helvetica,Arial,sans-serif" font-size="8">GigE</tspan><tspan x="-5.2" y="9.6" font-family="Helvetica,Arial,sans-serif" font-size="8">camera</tspan></text><text transform="translate(146.287 165.4)"><tspan x="0" y="0" font-family="Helvetica,Arial,sans-serif" font-size="8">GigE</tspan><tspan x="-5.2" y="9.6" font-family="Helvetica,Arial,sans-serif" font-size="8">camera</tspan></text><text transform="translate(25.5 24.467)" fill="#F5F5F5" font-family="Helvetica,Arial,sans-serif" font-size="12">Computer</text><text transform="translate(5.4 98.3)"><tspan x="0" y="0" font-family="Helvetica,Arial,sans-serif" font-weight="bold" font-size="11">Single</tspan><tspan x="0" y="13.2" font-family="Helvetica,Arial,sans-serif" font-weight="bold" font-size="11">path</tspan></text><path fill="none" stroke="#000" stroke-miterlimit="3.864" d="M40.5 95.1l37.4-8.4"/><path d="M76.6 90l9.9-5.2-11.2-.5z"/></svg>