<svg version="1.0" xmlns="http://www.w3.org/2000/svg" viewBox="0 0 120 120"><style>.st2{font-family:Helvetica,Arial,sans-serif}.st3{font-size:24.34px}</style><g id="Text"><path d="M115 60.4c0-30.2-24.4-54.6-54.6-54.6C30.2 5.7 5.8 30.2 5.8 60.4c0 30.2 24.4 54.6 54.6 54.6 30.1 0 54.6-24.4 54.6-54.6" fill="none" stroke="#000" stroke-width=".567" stroke-linecap="round" stroke-linejoin="round" stroke-miterlimit="10"/><path d="M74.5 60.4c0-7.8-6.3-14.1-14.1-14.1s-14.1 6.3-14.1 14.1 6.3 14.1 14.1 14.1 14.1-6.3 14.1-14.1m0 36.7c0-7.8-6.3-14.1-14.1-14.1s-14.1 6.3-14.1 14.1 6.3 14.1 14.1 14.1 14.1-6.3 14.1-14.1M48.8 7.2c0 6.4 5.2 11.6 11.6 11.6 6.4 0 11.6-5.2 11.6-11.6m29.5 29c0-7.8-6.3-14.1-14.1-14.1s-14.1 6.3-14.1 14.1 6.3 14.1 14.1 14.1 14.1-6.3 14.1-14.1m-53.2 0c0-7.8-6.3-14.1-14.1-14.1s-14.1 6.3-14.1 14.1 6.3 14.1 14.1 14.1S48.3 44 48.3 36.2m59 38.6c0-7.8-6.3-14.1-14.1-14.1S79.1 67 79.1 74.8s6.3 14.1 14.1 14.1c7.8.1 14.1-6.3 14.1-14.1m-64.8 0c0-7.8-6.3-14.1-14.1-14.1S14.3 67 14.3 74.8s6.3 14.1 14.1 14.1c7.8.1 14.1-6.3 14.1-14.1" fill="none" stroke="#000" stroke-width=".283" stroke-linecap="round" stroke-linejoin="round" stroke-miterlimit="10"/><text transform="translate(52.818 69.39)" class="st2 st3">6</text><text transform="translate(52.818 105.9)" class="st2 st3">4</text><text transform="translate(86.638 83.271)" class="st2 st3">3</text><text transform="translate(20.482 83.838)" class="st2 st3">5</text><text transform="translate(80.554 44.714)" class="st2 st3">2</text><text transform="translate(27.026 44.71)" class="st2 st3">1</text></g></svg>