<svg version="1.0" xmlns="http://www.w3.org/2000/svg" viewBox="0 0 550 142.5"><g stroke="#000" stroke-miterlimit="3.864"><path fill-rule="evenodd" clip-rule="evenodd" fill="#BDE4F7" stroke-width=".425" d="M105.9 58.9h371.6V109H105.9z"/><path fill="none" d="M476.9 58.9V109"/><path fill-rule="evenodd" clip-rule="evenodd" fill="#FFF899" stroke-width=".425" d="M353.7 58.9h99v50h-99z"/><path fill-rule="evenodd" clip-rule="evenodd" fill="#0090D4" stroke-width=".425" d="M452.7 58.9h24.1V109h-24.1z"/></g><path fill="#F1F2F2" d="M229.8 72h24.7v24.7h-24.7V72z"/><path fill="none" stroke="#000" stroke-width=".567" stroke-miterlimit="3.864" d="M229.8 72h24.7v24.7h-24.7V72z"/><path fill="#F1F2F2" d="M56.4 72h24.7v24.7H56.4V72z"/><path fill="none" stroke="#000" stroke-width=".567" stroke-miterlimit="3.864" d="M56.4 72h24.7v24.7H56.4V72z"/><path fill="#F1F2F2" d="M81.1 72h24.8v24.7H81.1V72z"/><path fill="none" stroke="#000" stroke-width=".567" stroke-miterlimit="3.864" d="M81.1 72h24.8v24.7H81.1V72z"/><path fill="#F1F2F2" d="M105.9 72h24.8v24.7h-24.8V72z"/><path fill="none" stroke="#000" stroke-width=".567" stroke-miterlimit="3.864" d="M105.9 72h24.8v24.7h-24.8V72z"/><path fill="#F1F2F2" d="M130.7 72h24.8v24.7h-24.8V72z"/><path fill="none" stroke="#000" stroke-width=".567" stroke-miterlimit="3.864" d="M130.7 72h24.8v24.7h-24.8V72z"/><path fill="#F1F2F2" d="M155.5 72h24.7v24.7h-24.7V72z"/><path fill="none" stroke="#000" stroke-width=".567" stroke-miterlimit="3.864" d="M155.5 72h24.7v24.7h-24.7V72z"/><path fill="#F1F2F2" d="M180.2 72H205v24.7h-24.8V72z"/><path fill="none" stroke="#000" stroke-width=".567" stroke-miterlimit="3.864" d="M180.2 72H205v24.7h-24.8V72z"/><path fill="#F1F2F2" d="M205 72h24.8v24.7H205V72z"/><path fill="none" stroke="#000" stroke-width=".567" stroke-miterlimit="3.864" d="M205 72h24.8v24.7H205V72z"/><path fill="#F1F2F2" d="M254.5 72h24.8v24.7h-24.8V72z"/><path fill="none" stroke="#000" stroke-width=".567" stroke-miterlimit="3.864" d="M254.5 72h24.8v24.7h-24.8V72z"/><path fill="#F1F2F2" d="M279.3 72h24.8v24.7h-24.8V72z"/><path fill="none" stroke="#000" stroke-width=".567" stroke-miterlimit="3.864" d="M279.3 72h24.8v24.7h-24.8V72z"/><path fill="#F1F2F2" d="M304.1 72h24.8v24.7h-24.8V72z"/><path fill="none" stroke="#000" stroke-width=".567" stroke-miterlimit="3.864" d="M304.1 72h24.8v24.7h-24.8V72z"/><g clip-rule="evenodd"><path fill-rule="evenodd" fill="#FFF" d="M25.2 77.9v3.9h19.5v5.5H25.1v3.8L10 84.5z"/><path fill="none" stroke="#000" stroke-miterlimit="3.864" d="M25.2 77.9v3.9h19.5v5.5H25.1v3.8L10 84.5z"/></g><path fill="#F9CCD1" stroke="#000" stroke-width=".567" stroke-miterlimit="3.864" d="M328.9 72h24.7v24.7h-24.7V72z"/><path fill="#F9CCD1" stroke="#000" stroke-width=".567" stroke-miterlimit="3.864" d="M328.9 72h24.7v24.7h-24.7V72zm24.7 0h24.8v24.7h-24.8V72z"/><path fill="#F9CCD1" stroke="#000" stroke-width=".567" stroke-miterlimit="3.864" d="M353.6 72h24.8v24.7h-24.8V72z"/><path fill="#F9CCD1" stroke="#000" stroke-width=".567" stroke-miterlimit="3.864" d="M378.4 72h24.8v24.7h-24.8V72z"/><path fill="#F9CCD1" stroke="#000" stroke-width=".567" stroke-miterlimit="3.864" d="M378.4 72h24.8v24.7h-24.8V72z"/><path fill="#F1F2F2" d="M427.9 72h24.8v24.7h-24.8V72z"/><path fill="none" stroke="#000" stroke-width=".567" stroke-miterlimit="3.864" d="M427.9 72h24.8v24.7h-24.8V72z"/><path fill="#F1F2F2" d="M452.7 72h24.8v24.7h-24.8V72z"/><path fill="none" stroke="#000" stroke-width=".567" stroke-miterlimit="3.864" d="M452.7 72h24.8v24.7h-24.8V72z"/><path fill="#FFF" d="M477.5 72h24.8v24.7h-24.8V72z"/><path fill="none" stroke="#000" stroke-width=".567" stroke-miterlimit="3.864" d="M477.5 72h24.8v24.7h-24.8V72z"/><path fill="#FFF" d="M502.3 72H527v24.7h-24.7V72z"/><path fill="none" stroke="#000" stroke-width=".567" stroke-miterlimit="3.864" d="M502.3 72H527v24.7h-24.7V72z"/><g clip-rule="evenodd"><path fill-rule="evenodd" fill="#FFF" d="M526.9 72h7.7c-2.9 6.8 1.1 17.3 0 24.8-4.3-.1-7.7 0-7.7 0V72z"/><path fill="none" stroke="#000" stroke-width=".567" stroke-miterlimit="3.864" d="M526.9 72h7.7c-2.9 6.8 1.1 17.3 0 24.8-4.3-.1-7.7 0-7.7 0V72z"/></g><g clip-rule="evenodd"><path fill-rule="evenodd" fill="#F1F2F2" d="M56.5 96.7h-6.6c2.5-6.8-.9-17.3 0-24.8 3.7.1 6.6 0 6.6 0v24.8z"/><path fill="none" stroke="#000" stroke-width=".567" stroke-miterlimit="3.864" d="M56.5 96.7h-6.6c2.5-6.8-.9-17.3 0-24.8 3.7.1 6.6 0 6.6 0v24.8z"/></g><g fill="#F9CCD1" stroke="#000" stroke-width=".567" stroke-miterlimit="3.864"><path d="M403.2 72H428v24.7h-24.8V72z"/><path d="M403.2 72H428v24.7h-24.8V72z"/></g><g clip-rule="evenodd"><path fill-rule="evenodd" d="M531.2 119.4v-1.6l3.6 1.6-3.6 1.6z"/><path fill="none" stroke="#000" stroke-width=".567" stroke-miterlimit="3.864" d="M56.5 119.4h474.9"/></g><g clip-rule="evenodd"><path fill-rule="evenodd" d="M351.5 38.6l2.2 12.9 2.2-12.9z"/><path fill="none" stroke="#000" stroke-width=".567" stroke-miterlimit="3.864" d="M351.5 38.6l2.2 12.9 2.2-12.9z"/><path fill="none" d="M351.5 38.6l2.2 12.9 2.2-12.9z"/></g><text transform="translate(490.382 135)" font-family="Helvetica,Arial,sans-serif" font-size="12">Time</text><text transform="translate(312.202 17.5)"><tspan x="0" y="0" font-family="Helvetica,Arial,sans-serif" font-size="12">Resend request</tspan><tspan x="16.4" y="14.4" font-family="Helvetica,Arial,sans-serif" font-size="12">threshold</tspan></text><path d="M452.7 108.9v-5m0-2.5v-5m0-2.5v-5.1m0-2.5v-5m0-2.5v-5m0-2.5v-5.1m0-2.5v-5" clip-rule="evenodd" fill="none" stroke="#14487E" stroke-width="3.402" stroke-miterlimit="3.864"/><text transform="translate(429.65 17.5)"><tspan x="0" y="0" font-family="Helvetica,Arial,sans-serif" font-size="12">Batching</tspan><tspan x="-1.6" y="14.4" font-family="Helvetica,Arial,sans-serif" font-size="12">threshold</tspan></text><g clip-rule="evenodd"><path fill-rule="evenodd" d="M450.6 38.6l2.1 12.9 2.2-12.9z"/><path fill="none" stroke="#000" stroke-width=".567" stroke-miterlimit="3.864" d="M450.6 38.6l2.1 12.9 2.2-12.9z"/><path fill="none" d="M450.6 38.6l2.1 12.9 2.2-12.9z"/></g><path fill="none" d="M262.9 78.7h14.6v9.6h-14.6z"/><text transform="translate(262.894 87.693)" font-family="Helvetica,Arial,sans-serif" font-size="8.5">96</text><path fill="none" d="M288 78.7h14.6v9.6H288z"/><text transform="translate(287.98 87.694)" font-family="Helvetica,Arial,sans-serif" font-size="8.5">97</text><path fill="none" d="M313 78.7h17v9.6h-17z"/><text transform="translate(313.009 87.693)" font-family="Helvetica,Arial,sans-serif" font-size="8.5">98</text><path fill="none" d="M336.9 78.7h14.6v9.6h-14.6z"/><text transform="translate(336.907 87.693)" font-family="Helvetica,Arial,sans-serif" font-size="8.5">99</text><path fill="none" d="M358.2 78.7h19.5v9.6h-19.5z"/><text transform="translate(358.234 87.693)" font-family="Helvetica,Arial,sans-serif" font-size="8.5">100</text><path fill="none" d="M383 78.7h19.5v9.6H383z"/><text transform="translate(382.978 87.693)" font-family="Helvetica,Arial,sans-serif" font-size="8.5">101</text><path fill="none" d="M407.3 78.7h21.9v9.6h-21.9z"/><text transform="translate(407.336 87.693)" font-family="Helvetica,Arial,sans-serif" font-size="8.5">102</text><path fill="none" d="M432.3 78.7h19.5v9.6h-19.5z"/><text transform="translate(432.32 87.693)" font-family="Helvetica,Arial,sans-serif" font-size="8.5">103</text><path fill="none" d="M457.1 78.7h19.5v9.6h-19.5z"/><text transform="translate(457.074 87.692)" font-family="Helvetica,Arial,sans-serif" font-size="8.5">104</text><path fill="none" d="M481.5 78.7H501v9.6h-19.5z"/><text transform="translate(481.467 87.693)" font-family="Helvetica,Arial,sans-serif" font-size="8.5">105</text><path fill="none" d="M506.2 78.7h19.5v9.6h-19.5z"/><text transform="translate(506.21 87.692)" font-family="Helvetica,Arial,sans-serif" font-size="8.5">106</text><path fill="none" d="M237.8 78.7h14.6v9.6h-14.6z"/><text transform="translate(237.799 87.694)" font-family="Helvetica,Arial,sans-serif" font-size="8.5">95</text><path fill="none" d="M213.1 78.7h14.6v9.6h-14.6z"/><text transform="translate(213.122 87.693)" font-family="Helvetica,Arial,sans-serif" font-size="8.5">94</text><path fill="none" d="M188 78.7h17v9.6h-17z"/><text transform="translate(187.958 87.693)" font-family="Helvetica,Arial,sans-serif" font-size="8.5">93</text><path fill="none" d="M163.4 78.7H178v9.6h-14.6z"/><text transform="translate(163.427 87.694)" font-family="Helvetica,Arial,sans-serif" font-size="8.5">92</text><path fill="none" d="M138.8 78.7h14.6v9.6h-14.6z"/><text transform="translate(138.82 87.692)" font-family="Helvetica,Arial,sans-serif" font-size="8.5">91</text><path fill="none" d="M113.8 78.7h14.6v9.6h-14.6z"/><text transform="translate(113.825 87.693)" font-family="Helvetica,Arial,sans-serif" font-size="8.5">90</text><path fill="none" d="M89.6 78.7h14.6v9.6H89.6z"/><text transform="translate(89.59 87.693)" font-family="Helvetica,Arial,sans-serif" font-size="8.5">89</text><path fill="none" d="M64.2 78.7h14.6v9.6H64.2z"/><text transform="translate(64.209 87.693)" font-family="Helvetica,Arial,sans-serif" font-size="8.5">88</text><text transform="translate(49.398 109.01)" font-family="Helvetica,Arial,sans-serif" font-size="10">Frames</text><path fill="none" stroke="#F99D33" stroke-width="3.402" stroke-miterlimit="3.864" d="M353.7 58.9l-.2 50.1"/><text transform="translate(459.753 54.887)" font-family="Helvetica,Arial,sans-serif" font-size="9">Start</text></svg>