<svg version="1.0" xmlns="http://www.w3.org/2000/svg" viewBox="0 0 550 142.5"><path fill-rule="evenodd" clip-rule="evenodd" fill="#BDE4F7" stroke="#000" stroke-width=".425" stroke-miterlimit="3.864" d="M105.9 58.9h371.6V109H105.9z"/><path fill="none" stroke="#000" stroke-miterlimit="3.864" d="M476.9 58.9V109"/><text transform="translate(436.335 68.804)" font-family="Helvetica,Arial,sans-serif" font-size="9">Front end</text><path fill-rule="evenodd" clip-rule="evenodd" fill="#0090D4" stroke="#000" stroke-width=".425" stroke-miterlimit="3.864" d="M353.7 58.9h122.6V109H353.7z"/><text transform="translate(460.106 54.477)" font-family="Helvetica,Arial,sans-serif" font-size="9">Start</text><path fill="#F1F2F2" d="M229.8 72h24.7v24.7h-24.7V72z"/><path fill="none" stroke="#000" stroke-width=".567" stroke-miterlimit="3.864" d="M229.8 72h24.7v24.7h-24.7V72z"/><path fill="#F1F2F2" d="M56.4 72h24.7v24.7H56.4V72z"/><path fill="none" stroke="#000" stroke-width=".567" stroke-miterlimit="3.864" d="M56.4 72h24.7v24.7H56.4V72z"/><path fill="#F1F2F2" d="M81.1 72h24.8v24.7H81.1V72z"/><path fill="none" stroke="#000" stroke-width=".567" stroke-miterlimit="3.864" d="M81.1 72h24.8v24.7H81.1V72z"/><path fill="#F1F2F2" d="M105.9 72h24.8v24.7h-24.8V72z"/><path fill="none" stroke="#000" stroke-width=".567" stroke-miterlimit="3.864" d="M105.9 72h24.8v24.7h-24.8V72z"/><path fill="#F1F2F2" d="M130.7 72h24.8v24.7h-24.8V72z"/><path fill="none" stroke="#000" stroke-width=".567" stroke-miterlimit="3.864" d="M130.7 72h24.8v24.7h-24.8V72z"/><path fill="#F1F2F2" d="M155.5 72h24.7v24.7h-24.7V72z"/><path fill="none" stroke="#000" stroke-width=".567" stroke-miterlimit="3.864" d="M155.5 72h24.7v24.7h-24.7V72z"/><path fill="#F1F2F2" d="M180.2 72H205v24.7h-24.8V72z"/><path fill="none" stroke="#000" stroke-width=".567" stroke-miterlimit="3.864" d="M180.2 72H205v24.7h-24.8V72z"/><path fill="#F1F2F2" d="M205 72h24.8v24.7H205V72z"/><path fill="none" stroke="#000" stroke-width=".567" stroke-miterlimit="3.864" d="M205 72h24.8v24.7H205V72z"/><path fill="#F1F2F2" d="M254.5 72h24.8v24.7h-24.8V72z"/><path fill="none" stroke="#000" stroke-width=".567" stroke-miterlimit="3.864" d="M254.5 72h24.8v24.7h-24.8V72z"/><path fill="#F1F2F2" d="M279.3 72h24.8v24.7h-24.8V72z"/><path fill="none" stroke="#000" stroke-width=".567" stroke-miterlimit="3.864" d="M279.3 72h24.8v24.7h-24.8V72z"/><path fill="#F1F2F2" d="M304.1 72h24.8v24.7h-24.8V72z"/><path fill="none" stroke="#000" stroke-width=".567" stroke-miterlimit="3.864" d="M304.1 72h24.8v24.7h-24.8V72z"/><g clip-rule="evenodd"><path fill-rule="evenodd" fill="#FFF" d="M25.2 77.9v3.9h19.5v5.5H25.1v3.8L10 84.5z"/><path fill="none" stroke="#000" stroke-miterlimit="3.864" d="M25.2 77.9v3.9h19.5v5.5H25.1v3.8L10 84.5z"/></g><path fill="#F1F2F2" d="M328.9 72h24.7v24.7h-24.7V72z"/><path fill="none" stroke="#000" stroke-width=".567" stroke-miterlimit="3.864" d="M328.9 72h24.7v24.7h-24.7V72z"/><path fill="#F1F2F2" d="M353.6 72h24.8v24.7h-24.8V72z"/><path fill="none" stroke="#000" stroke-width=".567" stroke-miterlimit="3.864" d="M353.6 72h24.8v24.7h-24.8V72z"/><path fill="#F1F2F2" d="M378.4 72h24.8v24.7h-24.8V72z"/><path fill="none" stroke="#000" stroke-width=".567" stroke-miterlimit="3.864" d="M378.4 72h24.8v24.7h-24.8V72z"/><path fill="#F9CCD1" stroke="#000" stroke-width=".567" stroke-miterlimit="3.864" d="M427.9 72h24.8v24.7h-24.8V72z"/><path fill="#F9CCD1" stroke="#000" stroke-width=".567" stroke-miterlimit="3.864" d="M427.9 72h24.8v24.7h-24.8V72zm24.8 0h24.8v24.7h-24.8V72z"/><path fill="#F9CCD1" stroke="#000" stroke-width=".567" stroke-miterlimit="3.864" d="M452.7 72h24.8v24.7h-24.8V72z"/><path fill="#FFF" d="M477.5 72h24.8v24.7h-24.8V72z"/><path fill="none" stroke="#000" stroke-width=".567" stroke-miterlimit="3.864" d="M477.5 72h24.8v24.7h-24.8V72z"/><path fill="#FFF" d="M502.3 72H527v24.7h-24.7V72z"/><path fill="none" stroke="#000" stroke-width=".567" stroke-miterlimit="3.864" d="M502.3 72H527v24.7h-24.7V72z"/><g clip-rule="evenodd"><path fill-rule="evenodd" fill="#FFF" d="M526.9 72h7.7c-2.9 6.8 1.1 17.3 0 24.8-4.3-.1-7.7 0-7.7 0V72z"/><path fill="none" stroke="#000" stroke-width=".567" stroke-miterlimit="3.864" d="M526.9 72h7.7c-2.9 6.8 1.1 17.3 0 24.8-4.3-.1-7.7 0-7.7 0V72z"/></g><g clip-rule="evenodd"><path fill-rule="evenodd" fill="#F1F2F2" d="M56.5 96.7h-6.6c2.5-6.8-.9-17.3 0-24.8 3.7.1 6.6 0 6.6 0v24.8z"/><path fill="none" stroke="#000" stroke-width=".567" stroke-miterlimit="3.864" d="M56.5 96.7h-6.6c2.5-6.8-.9-17.3 0-24.8 3.7.1 6.6 0 6.6 0v24.8z"/></g><path fill="#F1F2F2" d="M403.2 72H428v24.7h-24.8V72z"/><path fill="none" stroke="#000" stroke-width=".567" stroke-miterlimit="3.864" d="M403.2 72H428v24.7h-24.8V72z"/><g clip-rule="evenodd"><path fill-rule="evenodd" d="M531.2 119.4v-1.6l3.6 1.6-3.6 1.6z"/><path fill="none" stroke="#000" stroke-width=".567" stroke-miterlimit="3.864" d="M56.5 119.4h474.9"/></g><g clip-rule="evenodd"><path fill-rule="evenodd" d="M351.5 38.6l2.2 12.9 2.2-12.9z"/><path fill="none" stroke="#000" stroke-width=".567" stroke-miterlimit="3.864" d="M351.5 38.6l2.2 12.9 2.2-12.9z"/><path fill="none" d="M351.5 38.6l2.2 12.9 2.2-12.9z"/></g><text transform="translate(490.382 135)" font-family="Helvetica,Arial,sans-serif" font-size="12">Time</text><text transform="translate(312.202 17.5)"><tspan x="0" y="0" font-family="Helvetica,Arial,sans-serif" font-size="12">Resend request</tspan><tspan x="16.4" y="14.4" font-family="Helvetica,Arial,sans-serif" font-size="12">threshold</tspan></text><path fill="none" d="M363.2 79.6h14.6v9.6h-14.6z"/><text transform="translate(363.187 88.584)" font-family="Helvetica,Arial,sans-serif" font-size="8.5">96</text><path fill="none" d="M388.3 79.6h14.6v9.6h-14.6z"/><text transform="translate(388.272 88.585)" font-family="Helvetica,Arial,sans-serif" font-size="8.5">97</text><path fill="none" d="M413.3 79.6h17v9.6h-17z"/><text transform="translate(413.302 88.584)" font-family="Helvetica,Arial,sans-serif" font-size="8.5">98</text><path fill="none" d="M437.2 79.6h14.6v9.6h-14.6z"/><text transform="translate(437.2 88.585)" font-family="Helvetica,Arial,sans-serif" font-size="8.5">99</text><path fill="none" d="M458.5 79.6H478v9.6h-19.5z"/><text transform="translate(458.527 88.584)" font-family="Helvetica,Arial,sans-serif" font-size="8.5">100</text><path fill="none" d="M483.3 79.6h19.5v9.6h-19.5z"/><text transform="translate(483.272 88.584)" font-family="Helvetica,Arial,sans-serif" font-size="8.5">101</text><path fill="none" d="M507.6 79.6h21.9v9.6h-21.9z"/><text transform="translate(507.629 88.584)" font-family="Helvetica,Arial,sans-serif" font-size="8.5">102</text><path fill="none" d="M59.2 79.6h19.5v9.6H59.2z"/><text transform="translate(64.201 88.585)" font-family="Helvetica,Arial,sans-serif" font-size="8.5">84</text><path fill="none" d="M84 79.6h19.5v9.6H84z"/><text transform="translate(88.956 88.584)" font-family="Helvetica,Arial,sans-serif" font-size="8.5">85</text><path fill="none" d="M108.4 79.6h19.5v9.6h-19.5z"/><text transform="translate(113.349 88.584)" font-family="Helvetica,Arial,sans-serif" font-size="8.5">86</text><path fill="none" d="M133.1 79.6h19.5v9.6h-19.5z"/><text transform="translate(138.092 88.584)" font-family="Helvetica,Arial,sans-serif" font-size="8.5">87</text><path fill="none" d="M338.1 79.6h14.6v9.6h-14.6z"/><text transform="translate(338.092 88.585)" font-family="Helvetica,Arial,sans-serif" font-size="8.5">95</text><path fill="none" d="M313.4 79.6H328v9.6h-14.6z"/><text transform="translate(313.415 88.584)" font-family="Helvetica,Arial,sans-serif" font-size="8.5">94</text><path fill="none" d="M288.3 79.6h17v9.6h-17z"/><text transform="translate(288.25 88.584)" font-family="Helvetica,Arial,sans-serif" font-size="8.5">93</text><path fill="none" d="M263.7 79.6h14.6v9.6h-14.6z"/><text transform="translate(263.72 88.585)" font-family="Helvetica,Arial,sans-serif" font-size="8.5">92</text><path fill="none" d="M239.1 79.6h14.6v9.6h-14.6z"/><text transform="translate(239.113 88.584)" font-family="Helvetica,Arial,sans-serif" font-size="8.5">91</text><path fill="none" d="M214.1 79.6h14.6v9.6h-14.6z"/><text transform="translate(214.118 88.584)" font-family="Helvetica,Arial,sans-serif" font-size="8.5">90</text><path fill="none" d="M189.9 79.6h14.6v9.6h-14.6z"/><text transform="translate(189.883 88.584)" font-family="Helvetica,Arial,sans-serif" font-size="8.5">89</text><path fill="none" d="M164.5 79.6h14.6v9.6h-14.6z"/><text transform="translate(164.501 88.584)" font-family="Helvetica,Arial,sans-serif" font-size="8.5">88</text><text transform="translate(49.19 111.503)" font-family="Helvetica,Arial,sans-serif" font-size="10">Frames</text><path fill="none" stroke="#F99D33" stroke-width="3.402" stroke-miterlimit="3.864" d="M353.7 58.9l-.2 50.1"/></svg>