<svg version="1.0" xmlns="http://www.w3.org/2000/svg" viewBox="0 0 440 180"><path fill="#FFF" d="M160.1 151.6c0 2.7-2.2 4.9-4.9 4.9H24.4c-2.7 0-4.9-2.2-4.9-4.9V20.7c0-2.7 2.2-4.9 4.9-4.9h130.9c2.7 0 4.9 2.2 4.9 4.9v130.9z"/><path fill="none" stroke="#1A1A18" stroke-width=".567" stroke-linecap="round" stroke-linejoin="round" stroke-miterlimit="10" d="M160.1 151.6c0 2.7-2.2 4.9-4.9 4.9H24.4c-2.7 0-4.9-2.2-4.9-4.9V20.7c0-2.7 2.2-4.9 4.9-4.9h130.9c2.7 0 4.9 2.2 4.9 4.9v130.9z"/><path fill="none" stroke="#1A1A18" stroke-width=".283" stroke-linecap="round" stroke-linejoin="round" d="M74.7 123.7c0-1.8 1.5-3.3 3.3-3.3 1.8 0 3.3 1.5 3.3 3.3 0 1.8-1.5 3.3-3.3 3.3-1.9-.1-3.3-1.5-3.3-3.3z"/><path fill="none" stroke="#1A1A18" stroke-width=".283" stroke-linecap="round" stroke-linejoin="round" d="M72 123.7c0-3.3 2.7-6 6-6s6 2.7 6 6-2.7 6-6 6-6-2.7-6-6zm26.6 1.5c0-11.2 9.1-20.3 20.3-20.3 11.2 0 20.3 9.1 20.3 20.3 0 11.2-9.1 20.3-20.3 20.3-11.3 0-20.3-9.1-20.3-20.3z"/><path fill="none" stroke="#1A1A18" stroke-width=".283" stroke-linecap="round" stroke-linejoin="round" d="M101.9 125.2c0-9.4 7.6-17 17-17s17 7.6 17 17-7.6 17-17 17-17-7.6-17-17z"/><path fill="none" stroke="#1A1A18" stroke-width=".283" stroke-linecap="round" stroke-linejoin="round" d="M94.5 125.2c0-13.5 10.9-24.4 24.4-24.4 13.5 0 24.4 10.9 24.4 24.4 0 13.5-10.9 24.4-24.4 24.4-13.5 0-24.4-10.9-24.4-24.4z"/><g fill="none" stroke="#1A1A18" stroke-width=".283" stroke-linecap="round" stroke-linejoin="round"><path d="M121.8 125.2c0 1.8-1.5 3.3-3.3 3.3-1.8 0-3.3-1.5-3.3-3.3 0-1.8 1.5-3.3 3.3-3.3 1.9 0 3.3 1.5 3.3 3.3zm9.5 0c0 1.8-1.5 3.3-3.3 3.3-1.8 0-3.3-1.5-3.3-3.3 0-1.8 1.5-3.3 3.3-3.3 1.9 0 3.3 1.5 3.3 3.3zm-16 7c0 1.8-1.5 3.3-3.3 3.3-1.8 0-3.3-1.5-3.3-3.3 0-1.8 1.5-3.3 3.3-3.3 1.9 0 3.3 1.5 3.3 3.3zm10 1.5c0 1.8-1.5 3.3-3.3 3.3-1.8 0-3.3-1.5-3.3-3.3 0-1.8 1.5-3.3 3.3-3.3 1.9 0 3.3 1.5 3.3 3.3zm-10-15.5c0-1.8-1.5-3.3-3.3-3.3-1.8 0-3.3 1.5-3.3 3.3 0 1.8 1.5 3.3 3.3 3.3 1.9 0 3.3-1.5 3.3-3.3zm2.2-3.5c0-.8-.6-1.4-1.4-1.4-.8 0-1.4.6-1.4 1.4 0 .8.6 1.4 1.4 1.4.7 0 1.4-.7 1.4-1.4zm11.4 4.6c0-.8-.6-1.4-1.4-1.4-.8 0-1.4.6-1.4 1.4 0 .8.6 1.4 1.4 1.4.8 0 1.4-.6 1.4-1.4zm-11.4 16.4c0 .8-.6 1.4-1.4 1.4-.8 0-1.4-.6-1.4-1.4 0-.8.6-1.4 1.4-1.4.7 0 1.4.6 1.4 1.4zm11.4-4.7c0 .8-.6 1.4-1.4 1.4-.8 0-1.4-.6-1.4-1.4 0-.8.6-1.4 1.4-1.4.8 0 1.4.7 1.4 1.4zm-3.6-14.3c0-1.8-1.5-3.3-3.3-3.3-1.8 0-3.3 1.5-3.3 3.3 0 1.8 1.5 3.3 3.3 3.3 1.9 0 3.3-1.5 3.3-3.3zm-19 11.5v.7h1.1l3.4-2.5h1.7c.5 0 .8.1.8-.4v-1.8c0-.5-.3-.4-.8-.4h-1.7l-3.4-2.5h-1.1v.7s.1 0 .1.1c1 .6 1.6 1.7 1.6 3 0 1.4-.7 2.5-1.7 3.1z"/><path d="M104.8 122.3c1.3-6.4 7-11.1 13.7-11.1 7.7 0 14 6.3 14 14s-6.3 14-14 14c-6.7 0-12.4-4.8-13.7-11.1 1.4-.2 2.6-1.4 2.6-2.9s-1.1-2.7-2.6-2.9z"/></g><path fill="none" stroke="#1A1A18" stroke-width=".283" stroke-linecap="round" stroke-linejoin="round" stroke-miterlimit="10" d="M50.5 58c0 5-4.1 9.1-9.1 9.1-5.1 0-9.1-4.1-9.1-9.1 0-5.1 4.1-9.1 9.1-9.1 5-.1 9.1 4 9.1 9.1z"/><path fill="none" stroke="#1A1A18" stroke-width=".283" stroke-linecap="round" stroke-linejoin="round" stroke-miterlimit="10" d="M46.4 58c0 2.8-2.2 5-5 5s-5-2.2-5-5 2.2-5 5-5 5 2.2 5 5zm101.3 0c0 5-4.1 9.1-9.1 9.1-5.1 0-9.1-4.1-9.1-9.1 0-5.1 4.1-9.1 9.1-9.1 5-.1 9.1 4 9.1 9.1z"/><path fill="none" stroke="#1A1A18" stroke-width=".283" stroke-linecap="round" stroke-linejoin="round" stroke-miterlimit="10" d="M143.5 58c0 2.8-2.2 5-5 5s-5-2.2-5-5 2.2-5 5-5 5 2.2 5 5zM51.4 23.6h77.1v68.9H51.4z"/><path fill="none" stroke="#1A1A18" stroke-width=".283" stroke-linecap="round" stroke-linejoin="round" stroke-miterlimit="10" d="M117.4 27.2h7.7V37h-7.7zm-61.8 0h7.7V37h-7.7zm45.1 3.5h6.8v5.9h2.9v3.7H121v37.3H58.7l.1-37.1h10.6v-3.9h2.8v-5.9h6.9v-4.3h21.6v4.3"/><g font-family="Helvetica,Arial,sans-serif" font-size="14"><text transform="translate(201.59 51.673)">Ethernet connector (8-pin RJ-45 jack)</text><text transform="translate(201.59 129.876)">I/O connector (6-pin connector)</text></g><path d="M109.7 46.4h82.1m-73.2 78.7h73.2" fill="none" stroke="#000" stroke-miterlimit="10"/></svg>