<svg version="1.0" xmlns="http://www.w3.org/2000/svg" viewBox="0 0 550 270"><path fill="#5EC5ED" d="M442.5 213.4h7.8v3.8h-7.8v-3.8z"/><path fill="#5EC5ED" stroke="#000" stroke-width=".073" stroke-miterlimit="3.864" d="M442.5 213.4h7.8v3.8h-7.8v-3.8z"/><path fill="#020405" d="M448.6 229.8h1.7v3.8h-1.7v-3.8z"/><path fill="none" stroke="#020405" stroke-width=".073" stroke-miterlimit="3.864" d="M448.6 229.8h1.7v3.8h-1.7v-3.8z"/><g clip-rule="evenodd"><path fill-rule="evenodd" d="M532.1 185.7v-3.6l9 3.6-9 3.6z"/><path fill="none" stroke="#000" stroke-miterlimit="3.864" d="M58.9 185.7h473.8"/></g><path clip-rule="evenodd" fill="none" stroke="#000" stroke-width=".612" stroke-miterlimit="3.864" d="M58.9 25.1h45.6m0 0V12.8m0 0H162m0 12.3V12.8m0 12.3h102.8m.1 0V12.8m0 0h57.7m0 12.3V12.8m0 12.3h103m.1 0V12.8m.2 0h57.7m0 12.3V12.8m0 12.3h52"/><text transform="translate(454.73 219.938)" font-family="Helvetica,Arial,sans-serif" font-size="11">= Exposure</text><text transform="translate(292.57 221.938)" font-family="Helvetica,Arial,sans-serif" font-size="11">= Start of exposure row N</text><text transform="translate(292.681 238.914)" font-family="Helvetica,Arial,sans-serif" font-size="11">= End of exposure row 1</text><text transform="translate(282.736 200.07)" font-family="Helvetica,Arial,sans-serif" font-size="11">Time</text><text transform="translate(10.5 17.286)"><tspan x="0" y="0" font-family="Helvetica,Arial,sans-serif" font-size="11">Flash Window </tspan><tspan x="0" y="13.2" font-family="Helvetica,Arial,sans-serif" font-size="11">signal</tspan></text><text transform="translate(81.873 179.658)" font-family="Helvetica,Arial,sans-serif" font-size="11">Frame acquisition N</text><text transform="translate(242.68 179.658)" font-family="Helvetica,Arial,sans-serif" font-size="11">Frame acquisition N+1</text><text transform="translate(403.486 179.658)" font-family="Helvetica,Arial,sans-serif" font-size="11">Frame acquisition N+2</text><text transform="translate(454.807 235.426)" font-family="Helvetica,Arial,sans-serif" font-size="11">= Readout</text><text transform="translate(454.73 254.664)" font-family="Helvetica,Arial,sans-serif" font-weight="bold" font-size="11">= Flash window</text><path fill="#C7CDD1" stroke="#000" stroke-width=".2" stroke-miterlimit="3.864" stroke-dasharray="1,1" d="M440.9 246.3h9.4v9.4h-9.4v-9.4z"/><text transform="translate(282.113 222.438)" fill="#00305F" font-family="Helvetica,Arial,sans-serif" font-size="12">A</text><path fill="#C7CDD1" stroke="#000" stroke-width=".2" stroke-miterlimit="3.864" stroke-dasharray="1,1" d="M104.4 40.4H162v112.5h-57.6V40.4z"/><path fill="#5EC5ED" d="M64.6 43.3H162v3.8H64.6v-3.8z"/><path fill="#5EC5ED" stroke="#000" stroke-width=".073" stroke-miterlimit="3.864" d="M64.6 43.3H162v3.8H64.6v-3.8z"/><path fill="#020405" d="M162 43.3h1.7v3.8H162v-3.8z"/><path fill="none" stroke="#020405" stroke-width=".073" stroke-miterlimit="3.864" d="M162 43.3h1.7v3.8H162v-3.8z"/><path fill="#5EC5ED" d="M66.4 49.7h97.3v3.9H66.4v-3.9z"/><path fill="#5EC5ED" stroke="#000" stroke-width=".073" stroke-miterlimit="3.864" d="M66.4 49.7h97.3v3.9H66.4v-3.9z"/><path fill="#020405" d="M163.7 49.7h1.7v3.9h-1.7v-3.9z"/><path fill="none" stroke="#020405" stroke-width=".073" stroke-miterlimit="3.864" d="M163.7 49.7h1.7v3.9h-1.7v-3.9z"/><path fill="#5EC5ED" d="M68.1 56.2h97.3v3.9H68.1v-3.9z"/><path fill="#5EC5ED" stroke="#000" stroke-width=".073" stroke-miterlimit="3.864" d="M68.1 56.2h97.3v3.9H68.1v-3.9z"/><path fill="#020405" d="M165.4 56.2h1.8v3.9h-1.8v-3.9z"/><path fill="none" stroke="#020405" stroke-width=".073" stroke-miterlimit="3.864" d="M165.4 56.2h1.8v3.9h-1.8v-3.9z"/><path fill="#5EC5ED" d="M69.8 62.6h97.4v3.9H69.8v-3.9z"/><path fill="#5EC5ED" stroke="#000" stroke-width=".073" stroke-miterlimit="3.864" d="M69.8 62.6h97.4v3.9H69.8v-3.9z"/><path fill="#020405" d="M167.2 62.6h1.7v3.9h-1.7v-3.9z"/><path fill="none" stroke="#020405" stroke-width=".073" stroke-miterlimit="3.864" d="M167.2 62.6h1.7v3.9h-1.7v-3.9z"/><path fill="#5EC5ED" d="M71.5 69.1h97.4V73H71.5v-3.9z"/><path fill="#5EC5ED" stroke="#000" stroke-width=".073" stroke-miterlimit="3.864" d="M71.5 69.1h97.4V73H71.5v-3.9z"/><path fill="#020405" d="M168.9 69.1h1.7V73h-1.7v-3.9z"/><path fill="none" stroke="#020405" stroke-width=".073" stroke-miterlimit="3.864" d="M168.9 69.1h1.7V73h-1.7v-3.9z"/><path fill="#5EC5ED" d="M73.3 75.6h97.3v3.8H73.3v-3.8z"/><path fill="#5EC5ED" stroke="#000" stroke-width=".073" stroke-miterlimit="3.864" d="M73.3 75.6h97.3v3.8H73.3v-3.8z"/><path fill="#020405" d="M170.6 75.6h1.7v3.8h-1.7v-3.8z"/><path fill="none" stroke="#020405" stroke-width=".073" stroke-miterlimit="3.864" d="M170.6 75.6h1.7v3.8h-1.7v-3.8z"/><path fill="#5EC5ED" d="M75 82h97.3v3.9H75V82z"/><path fill="#5EC5ED" stroke="#000" stroke-width=".073" stroke-miterlimit="3.864" d="M75 82h97.3v3.9H75V82z"/><path fill="#020405" d="M172.3 82h1.7v3.9h-1.7V82z"/><path fill="none" stroke="#020405" stroke-width=".073" stroke-miterlimit="3.864" d="M172.3 82h1.7v3.9h-1.7V82z"/><path fill="#5EC5ED" d="M76.7 88.5H174v3.9H76.7v-3.9z"/><path fill="#5EC5ED" stroke="#000" stroke-width=".073" stroke-miterlimit="3.864" d="M76.7 88.5H174v3.9H76.7v-3.9z"/><path fill="#020405" d="M174 88.5h1.8v3.9H174v-3.9z"/><path fill="none" stroke="#020405" stroke-width=".073" stroke-miterlimit="3.864" d="M174 88.5h1.8v3.9H174v-3.9z"/><path fill="#5EC5ED" d="M78.4 95h97.4v3.8H78.4V95z"/><path fill="#5EC5ED" stroke="#000" stroke-width=".073" stroke-miterlimit="3.864" d="M78.4 95h97.4v3.8H78.4V95z"/><path fill="#020405" d="M175.8 95h1.7v3.8h-1.7V95z"/><path fill="none" stroke="#020405" stroke-width=".073" stroke-miterlimit="3.864" d="M175.8 95h1.7v3.8h-1.7V95z"/><path fill="#5EC5ED" d="M80.2 101.4h97.3v3.9H80.2v-3.9z"/><path fill="#5EC5ED" stroke="#000" stroke-width=".073" stroke-miterlimit="3.864" d="M80.2 101.4h97.3v3.9H80.2v-3.9z"/><path fill="#020405" d="M177.5 101.4h1.7v3.9h-1.7v-3.9z"/><path fill="none" stroke="#020405" stroke-width=".073" stroke-miterlimit="3.864" d="M177.5 101.4h1.7v3.9h-1.7v-3.9z"/><path fill="#5EC5ED" d="M81.9 107.9h97.3v3.9H81.9v-3.9z"/><path fill="#5EC5ED" stroke="#000" stroke-width=".073" stroke-miterlimit="3.864" d="M81.9 107.9h97.3v3.9H81.9v-3.9z"/><path fill="#020405" d="M179.2 107.9h1.7v3.9h-1.7v-3.9z"/><path fill="none" stroke="#020405" stroke-width=".073" stroke-miterlimit="3.864" d="M179.2 107.9h1.7v3.9h-1.7v-3.9z"/><path fill="#5EC5ED" d="M100.8 133.7h97.4v3.9h-97.4v-3.9z"/><path fill="#5EC5ED" stroke="#000" stroke-width=".073" stroke-miterlimit="3.864" d="M100.8 133.7h97.4v3.9h-97.4v-3.9z"/><path fill="#020405" d="M198.2 133.7h1.7v3.9h-1.7v-3.9z"/><path fill="none" stroke="#020405" stroke-width=".073" stroke-miterlimit="3.864" d="M198.2 133.7h1.7v3.9h-1.7v-3.9z"/><path fill="#5EC5ED" d="M102.5 140.2h97.4v3.9h-97.4v-3.9z"/><path fill="#5EC5ED" stroke="#000" stroke-width=".073" stroke-miterlimit="3.864" d="M102.5 140.2h97.4v3.9h-97.4v-3.9z"/><path fill="#020405" d="M199.9 140.2h1.7v3.9h-1.7v-3.9z"/><path fill="none" stroke="#020405" stroke-width=".073" stroke-miterlimit="3.864" d="M199.9 140.2h1.7v3.9h-1.7v-3.9z"/><path fill="#5EC5ED" d="M104.3 146.6h97.3v3.9h-97.3v-3.9z"/><path fill="#5EC5ED" stroke="#000" stroke-width=".073" stroke-miterlimit="3.864" d="M104.3 146.6h97.3v3.9h-97.3v-3.9z"/><path fill="#020405" d="M201.6 146.6h1.7v3.9h-1.7v-3.9z"/><path fill="none" stroke="#020405" stroke-width=".073" stroke-miterlimit="3.864" d="M201.6 146.6h1.7v3.9h-1.7v-3.9z"/><path d="M112 115c0-.4.2-.6.4-.6s.4.3.4.6c0 .4-.2.6-.4.6s-.4-.3-.4-.6z"/><path fill="none" stroke="#000" stroke-width=".092" stroke-miterlimit="3.864" d="M112 115c0-.4.2-.6.4-.6s.4.3.4.6c0 .4-.2.6-.4.6s-.4-.3-.4-.6z"/><path d="M113.7 118.9c0-.4.2-.6.4-.6s.4.3.4.6c0 .4-.2.6-.4.6s-.4-.3-.4-.6z"/><path fill="none" stroke="#000" stroke-width=".092" stroke-miterlimit="3.864" d="M113.7 118.9c0-.4.2-.6.4-.6s.4.3.4.6c0 .4-.2.6-.4.6s-.4-.3-.4-.6z"/><path d="M115.5 122.7c0-.4.2-.6.4-.6s.4.3.4.6c0 .4-.2.6-.4.6-.2.1-.4-.2-.4-.6z"/><path fill="none" stroke="#000" stroke-width=".092" stroke-miterlimit="3.864" d="M115.5 122.7c0-.4.2-.6.4-.6s.4.3.4.6c0 .4-.2.6-.4.6-.2.1-.4-.2-.4-.6z"/><path d="M117.2 126.6c0-.4.2-.6.4-.6s.4.3.4.6c0 .4-.2.6-.4.6-.2.1-.4-.2-.4-.6z"/><path fill="none" stroke="#000" stroke-width=".092" stroke-miterlimit="3.864" d="M117.2 126.6c0-.4.2-.6.4-.6s.4.3.4.6c0 .4-.2.6-.4.6-.2.1-.4-.2-.4-.6z"/><path d="M118.9 130.5c0-.4.2-.6.4-.6s.4.3.4.6c0 .4-.2.6-.4.6s-.4-.3-.4-.6z"/><path fill="none" stroke="#000" stroke-width=".092" stroke-miterlimit="3.864" d="M118.9 130.5c0-.4.2-.6.4-.6s.4.3.4.6c0 .4-.2.6-.4.6s-.4-.3-.4-.6z"/><path d="M160.3 115c0-.4.2-.6.4-.6s.4.3.4.6c0 .4-.2.6-.4.6s-.4-.3-.4-.6z"/><path fill="none" stroke="#000" stroke-width=".092" stroke-miterlimit="3.864" d="M160.3 115c0-.4.2-.6.4-.6s.4.3.4.6c0 .4-.2.6-.4.6s-.4-.3-.4-.6z"/><path d="M162 118.9c0-.4.2-.6.4-.6s.4.3.4.6c0 .4-.2.6-.4.6s-.4-.3-.4-.6z"/><path fill="none" stroke="#000" stroke-width=".092" stroke-miterlimit="3.864" d="M162 118.9c0-.4.2-.6.4-.6s.4.3.4.6c0 .4-.2.6-.4.6s-.4-.3-.4-.6z"/><path d="M163.7 122.7c0-.4.2-.6.4-.6s.4.3.4.6c0 .4-.2.6-.4.6-.2.1-.4-.2-.4-.6z"/><path fill="none" stroke="#000" stroke-width=".092" stroke-miterlimit="3.864" d="M163.7 122.7c0-.4.2-.6.4-.6s.4.3.4.6c0 .4-.2.6-.4.6-.2.1-.4-.2-.4-.6z"/><path d="M165.4 126.6c0-.4.2-.6.4-.6s.4.3.4.6c0 .4-.2.6-.4.6-.2.1-.4-.2-.4-.6z"/><path fill="none" stroke="#000" stroke-width=".092" stroke-miterlimit="3.864" d="M165.4 126.6c0-.4.2-.6.4-.6s.4.3.4.6c0 .4-.2.6-.4.6-.2.1-.4-.2-.4-.6z"/><path d="M167.2 130.5c0-.4.2-.6.4-.6s.4.3.4.6c0 .4-.2.6-.4.6-.3 0-.4-.3-.4-.6z"/><path fill="none" stroke="#000" stroke-width=".092" stroke-miterlimit="3.864" d="M167.2 130.5c0-.4.2-.6.4-.6s.4.3.4.6c0 .4-.2.6-.4.6-.3 0-.4-.3-.4-.6z"/><text transform="translate(100.075 163.852)" fill="#00305F" font-family="Helvetica,Arial,sans-serif" font-size="12">A</text><text transform="translate(158.763 38.102)" fill="#F99D33" font-family="Helvetica,Arial,sans-serif" font-size="12">B</text><path fill="#C7CDD1" stroke="#000" stroke-width=".2" stroke-miterlimit="3.864" stroke-dasharray="1,1" d="M264.2 40.4h57.6v112.5h-57.6V40.4z"/><path fill="#5EC5ED" d="M224.4 43.3h97.4v3.8h-97.4v-3.8z"/><path fill="#5EC5ED" stroke="#000" stroke-width=".073" stroke-miterlimit="3.864" d="M224.4 43.3h97.4v3.8h-97.4v-3.8z"/><path fill="#020405" d="M321.8 43.3h1.7v3.8h-1.7v-3.8z"/><path fill="none" stroke="#020405" stroke-width=".073" stroke-miterlimit="3.864" d="M321.8 43.3h1.7v3.8h-1.7v-3.8z"/><path fill="#5EC5ED" d="M226.2 49.7h97.3v3.9h-97.3v-3.9z"/><path fill="#5EC5ED" stroke="#000" stroke-width=".073" stroke-miterlimit="3.864" d="M226.2 49.7h97.3v3.9h-97.3v-3.9z"/><path fill="#020405" d="M323.5 49.7h1.7v3.9h-1.7v-3.9z"/><path fill="none" stroke="#020405" stroke-width=".073" stroke-miterlimit="3.864" d="M323.5 49.7h1.7v3.9h-1.7v-3.9z"/><path fill="#5EC5ED" d="M227.9 56.2h97.3v3.9h-97.3v-3.9z"/><path fill="#5EC5ED" stroke="#000" stroke-width=".073" stroke-miterlimit="3.864" d="M227.9 56.2h97.3v3.9h-97.3v-3.9z"/><path fill="#020405" d="M325.2 56.2h1.8v3.9h-1.8v-3.9z"/><path fill="none" stroke="#020405" stroke-width=".073" stroke-miterlimit="3.864" d="M325.2 56.2h1.8v3.9h-1.8v-3.9z"/><path fill="#5EC5ED" d="M229.6 62.6H327v3.9h-97.4v-3.9z"/><path fill="#5EC5ED" stroke="#000" stroke-width=".073" stroke-miterlimit="3.864" d="M229.6 62.6H327v3.9h-97.4v-3.9z"/><path fill="#020405" d="M327 62.6h1.7v3.9H327v-3.9z"/><path fill="none" stroke="#020405" stroke-width=".073" stroke-miterlimit="3.864" d="M327 62.6h1.7v3.9H327v-3.9z"/><path fill="#5EC5ED" d="M231.3 69.1h97.4V73h-97.4v-3.9z"/><path fill="#5EC5ED" stroke="#000" stroke-width=".073" stroke-miterlimit="3.864" d="M231.3 69.1h97.4V73h-97.4v-3.9z"/><path fill="#020405" d="M328.7 69.1h1.7V73h-1.7v-3.9z"/><path fill="none" stroke="#020405" stroke-width=".073" stroke-miterlimit="3.864" d="M328.7 69.1h1.7V73h-1.7v-3.9z"/><path fill="#5EC5ED" d="M233.1 75.6h97.3v3.8h-97.3v-3.8z"/><path fill="#5EC5ED" stroke="#000" stroke-width=".073" stroke-miterlimit="3.864" d="M233.1 75.6h97.3v3.8h-97.3v-3.8z"/><path fill="#020405" d="M330.4 75.6h1.7v3.8h-1.7v-3.8z"/><path fill="none" stroke="#020405" stroke-width=".073" stroke-miterlimit="3.864" d="M330.4 75.6h1.7v3.8h-1.7v-3.8z"/><path fill="#5EC5ED" d="M234.8 82h97.3v3.9h-97.3V82z"/><path fill="#5EC5ED" stroke="#000" stroke-width=".073" stroke-miterlimit="3.864" d="M234.8 82h97.3v3.9h-97.3V82z"/><path fill="#020405" d="M332.1 82h1.7v3.9h-1.7V82z"/><path fill="none" stroke="#020405" stroke-width=".073" stroke-miterlimit="3.864" d="M332.1 82h1.7v3.9h-1.7V82z"/><path fill="#5EC5ED" d="M236.5 88.5h97.3v3.9h-97.3v-3.9z"/><path fill="#5EC5ED" stroke="#000" stroke-width=".073" stroke-miterlimit="3.864" d="M236.5 88.5h97.3v3.9h-97.3v-3.9z"/><path fill="#020405" d="M333.8 88.5h1.8v3.9h-1.8v-3.9z"/><path fill="none" stroke="#020405" stroke-width=".073" stroke-miterlimit="3.864" d="M333.8 88.5h1.8v3.9h-1.8v-3.9z"/><path fill="#5EC5ED" d="M238.2 95h97.4v3.8h-97.4V95z"/><path fill="#5EC5ED" stroke="#000" stroke-width=".073" stroke-miterlimit="3.864" d="M238.2 95h97.4v3.8h-97.4V95z"/><path fill="#020405" d="M335.6 95h1.7v3.8h-1.7V95z"/><path fill="none" stroke="#020405" stroke-width=".073" stroke-miterlimit="3.864" d="M335.6 95h1.7v3.8h-1.7V95z"/><path fill="#5EC5ED" d="M240 101.4h97.3v3.9H240v-3.9z"/><path fill="#5EC5ED" stroke="#000" stroke-width=".073" stroke-miterlimit="3.864" d="M240 101.4h97.3v3.9H240v-3.9z"/><path fill="#020405" d="M337.3 101.4h1.7v3.9h-1.7v-3.9z"/><path fill="none" stroke="#020405" stroke-width=".073" stroke-miterlimit="3.864" d="M337.3 101.4h1.7v3.9h-1.7v-3.9z"/><path fill="#5EC5ED" d="M241.7 107.9H339v3.9h-97.3v-3.9z"/><path fill="#5EC5ED" stroke="#000" stroke-width=".073" stroke-miterlimit="3.864" d="M241.7 107.9H339v3.9h-97.3v-3.9z"/><path fill="#020405" d="M339 107.9h1.7v3.9H339v-3.9z"/><path fill="none" stroke="#020405" stroke-width=".073" stroke-miterlimit="3.864" d="M339 107.9h1.7v3.9H339v-3.9z"/><g fill="#5EC5ED"><path d="M260.6 133.7H358v3.9h-97.4v-3.9z"/><path stroke="#000" stroke-width=".073" stroke-miterlimit="3.864" d="M260.6 133.7H358v3.9h-97.4v-3.9z"/></g><path fill="#020405" d="M358 133.7h1.7v3.9H358v-3.9z"/><path fill="none" stroke="#020405" stroke-width=".073" stroke-miterlimit="3.864" d="M358 133.7h1.7v3.9H358v-3.9z"/><g fill="#5EC5ED"><path d="M262.3 140.2h97.4v3.9h-97.4v-3.9z"/><path stroke="#000" stroke-width=".073" stroke-miterlimit="3.864" d="M262.3 140.2h97.4v3.9h-97.4v-3.9z"/></g><path fill="#020405" d="M359.7 140.2h1.7v3.9h-1.7v-3.9z"/><path fill="none" stroke="#020405" stroke-width=".073" stroke-miterlimit="3.864" d="M359.7 140.2h1.7v3.9h-1.7v-3.9z"/><g fill="#5EC5ED"><path d="M264.1 146.6h97.3v3.9h-97.3v-3.9z"/><path stroke="#000" stroke-width=".073" stroke-miterlimit="3.864" d="M264.1 146.6h97.3v3.9h-97.3v-3.9z"/></g><path fill="#020405" d="M361.4 146.6h1.7v3.9h-1.7v-3.9z"/><path fill="none" stroke="#020405" stroke-width=".073" stroke-miterlimit="3.864" d="M361.4 146.6h1.7v3.9h-1.7v-3.9z"/><path d="M271.8 115c0-.4.2-.6.4-.6s.4.3.4.6c0 .4-.2.6-.4.6s-.4-.3-.4-.6z"/><path fill="none" stroke="#000" stroke-width=".092" stroke-miterlimit="3.864" d="M271.8 115c0-.4.2-.6.4-.6s.4.3.4.6c0 .4-.2.6-.4.6s-.4-.3-.4-.6z"/><path d="M273.5 118.9c0-.4.2-.6.4-.6s.4.3.4.6c0 .4-.2.6-.4.6s-.4-.3-.4-.6z"/><path fill="none" stroke="#000" stroke-width=".092" stroke-miterlimit="3.864" d="M273.5 118.9c0-.4.2-.6.4-.6s.4.3.4.6c0 .4-.2.6-.4.6s-.4-.3-.4-.6z"/><path d="M275.3 122.7c0-.4.2-.6.4-.6s.4.3.4.6c0 .4-.2.6-.4.6-.2.1-.4-.2-.4-.6z"/><path fill="none" stroke="#000" stroke-width=".092" stroke-miterlimit="3.864" d="M275.3 122.7c0-.4.2-.6.4-.6s.4.3.4.6c0 .4-.2.6-.4.6-.2.1-.4-.2-.4-.6z"/><path d="M277 126.6c0-.4.2-.6.4-.6s.4.3.4.6c0 .4-.2.6-.4.6-.2.1-.4-.2-.4-.6z"/><path fill="none" stroke="#000" stroke-width=".092" stroke-miterlimit="3.864" d="M277 126.6c0-.4.2-.6.4-.6s.4.3.4.6c0 .4-.2.6-.4.6-.2.1-.4-.2-.4-.6z"/><path d="M278.7 130.5c0-.4.2-.6.4-.6s.4.3.4.6c0 .4-.2.6-.4.6s-.4-.3-.4-.6z"/><path fill="none" stroke="#000" stroke-width=".092" stroke-miterlimit="3.864" d="M278.7 130.5c0-.4.2-.6.4-.6s.4.3.4.6c0 .4-.2.6-.4.6s-.4-.3-.4-.6z"/><path d="M320.1 115c0-.4.2-.6.4-.6s.4.3.4.6c0 .4-.2.6-.4.6s-.4-.3-.4-.6z"/><path fill="none" stroke="#000" stroke-width=".092" stroke-miterlimit="3.864" d="M320.1 115c0-.4.2-.6.4-.6s.4.3.4.6c0 .4-.2.6-.4.6s-.4-.3-.4-.6z"/><path d="M321.8 118.9c0-.4.2-.6.4-.6s.4.3.4.6c0 .4-.2.6-.4.6s-.4-.3-.4-.6z"/><path fill="none" stroke="#000" stroke-width=".092" stroke-miterlimit="3.864" d="M321.8 118.9c0-.4.2-.6.4-.6s.4.3.4.6c0 .4-.2.6-.4.6s-.4-.3-.4-.6z"/><path d="M323.5 122.7c0-.4.2-.6.4-.6s.4.3.4.6c0 .4-.2.6-.4.6-.2.1-.4-.2-.4-.6z"/><path fill="none" stroke="#000" stroke-width=".092" stroke-miterlimit="3.864" d="M323.5 122.7c0-.4.2-.6.4-.6s.4.3.4.6c0 .4-.2.6-.4.6-.2.1-.4-.2-.4-.6z"/><path d="M325.2 126.6c0-.4.2-.6.4-.6s.4.3.4.6c0 .4-.2.6-.4.6-.2.1-.4-.2-.4-.6z"/><path fill="none" stroke="#000" stroke-width=".092" stroke-miterlimit="3.864" d="M325.2 126.6c0-.4.2-.6.4-.6s.4.3.4.6c0 .4-.2.6-.4.6-.2.1-.4-.2-.4-.6z"/><path d="M327 130.5c0-.4.2-.6.4-.6s.4.3.4.6c0 .4-.2.6-.4.6-.3 0-.4-.3-.4-.6z"/><path fill="none" stroke="#000" stroke-width=".092" stroke-miterlimit="3.864" d="M327 130.5c0-.4.2-.6.4-.6s.4.3.4.6c0 .4-.2.6-.4.6-.3 0-.4-.3-.4-.6z"/><text transform="translate(259.875 163.852)" fill="#00305F" font-family="Helvetica,Arial,sans-serif" font-size="12">A</text><text transform="translate(318.564 38.102)" fill="#F99D33" font-family="Helvetica,Arial,sans-serif" font-size="12">B</text><path fill="#C7CDD1" stroke="#000" stroke-width=".2" stroke-miterlimit="3.864" stroke-dasharray="1,1" d="M425.1 40.4h57.6v112.5h-57.6V40.4z"/><g fill="#5EC5ED"><path d="M385.4 43.3h97.3v3.8h-97.3v-3.8z"/><path stroke="#000" stroke-width=".073" stroke-miterlimit="3.864" d="M385.4 43.3h97.3v3.8h-97.3v-3.8z"/></g><path fill="#020405" d="M482.7 43.3h1.7v3.8h-1.7v-3.8z"/><path fill="none" stroke="#020405" stroke-width=".073" stroke-miterlimit="3.864" d="M482.7 43.3h1.7v3.8h-1.7v-3.8z"/><g fill="#5EC5ED"><path d="M387.1 49.7h97.3v3.9h-97.3v-3.9z"/><path stroke="#000" stroke-width=".073" stroke-miterlimit="3.864" d="M387.1 49.7h97.3v3.9h-97.3v-3.9z"/></g><path fill="#020405" d="M484.4 49.7h1.8v3.9h-1.8v-3.9z"/><path fill="none" stroke="#020405" stroke-width=".073" stroke-miterlimit="3.864" d="M484.4 49.7h1.8v3.9h-1.8v-3.9z"/><g fill="#5EC5ED"><path d="M388.8 56.2h97.4v3.9h-97.4v-3.9z"/><path stroke="#000" stroke-width=".073" stroke-miterlimit="3.864" d="M388.8 56.2h97.4v3.9h-97.4v-3.9z"/></g><path fill="#020405" d="M486.2 56.2h1.7v3.9h-1.7v-3.9z"/><path fill="none" stroke="#020405" stroke-width=".073" stroke-miterlimit="3.864" d="M486.2 56.2h1.7v3.9h-1.7v-3.9z"/><g fill="#5EC5ED"><path d="M390.6 62.6h97.3v3.9h-97.3v-3.9z"/><path stroke="#000" stroke-width=".073" stroke-miterlimit="3.864" d="M390.6 62.6h97.3v3.9h-97.3v-3.9z"/></g><path fill="#020405" d="M487.9 62.6h1.7v3.9h-1.7v-3.9z"/><path fill="none" stroke="#020405" stroke-width=".073" stroke-miterlimit="3.864" d="M487.9 62.6h1.7v3.9h-1.7v-3.9z"/><g fill="#5EC5ED"><path d="M392.3 69.1h97.3V73h-97.3v-3.9z"/><path stroke="#000" stroke-width=".073" stroke-miterlimit="3.864" d="M392.3 69.1h97.3V73h-97.3v-3.9z"/></g><path fill="#020405" d="M489.6 69.1h1.7V73h-1.7v-3.9z"/><path fill="none" stroke="#020405" stroke-width=".073" stroke-miterlimit="3.864" d="M489.6 69.1h1.7V73h-1.7v-3.9z"/><g fill="#5EC5ED"><path d="M394 75.6h97.3v3.8H394v-3.8z"/><path stroke="#000" stroke-width=".073" stroke-miterlimit="3.864" d="M394 75.6h97.3v3.8H394v-3.8z"/></g><path fill="#020405" d="M491.3 75.6h1.8v3.8h-1.8v-3.8z"/><path fill="none" stroke="#020405" stroke-width=".073" stroke-miterlimit="3.864" d="M491.3 75.6h1.8v3.8h-1.8v-3.8z"/><g fill="#5EC5ED"><path d="M395.7 82h97.4v3.9h-97.4V82z"/><path stroke="#000" stroke-width=".073" stroke-miterlimit="3.864" d="M395.7 82h97.4v3.9h-97.4V82z"/></g><path fill="#020405" d="M493.1 82h1.7v3.9h-1.7V82z"/><path fill="none" stroke="#020405" stroke-width=".073" stroke-miterlimit="3.864" d="M493.1 82h1.7v3.9h-1.7V82z"/><g fill="#5EC5ED"><path d="M397.4 88.5h97.4v3.9h-97.4v-3.9z"/><path stroke="#000" stroke-width=".073" stroke-miterlimit="3.864" d="M397.4 88.5h97.4v3.9h-97.4v-3.9z"/></g><path fill="#020405" d="M494.8 88.5h1.7v3.9h-1.7v-3.9z"/><path fill="none" stroke="#020405" stroke-width=".073" stroke-miterlimit="3.864" d="M494.8 88.5h1.7v3.9h-1.7v-3.9z"/><g fill="#5EC5ED"><path d="M399.2 95h97.3v3.8h-97.3V95z"/><path stroke="#000" stroke-width=".073" stroke-miterlimit="3.864" d="M399.2 95h97.3v3.8h-97.3V95z"/></g><path fill="#020405" d="M496.5 95h1.7v3.8h-1.7V95z"/><path fill="none" stroke="#020405" stroke-width=".073" stroke-miterlimit="3.864" d="M496.5 95h1.7v3.8h-1.7V95z"/><g fill="#5EC5ED"><path d="M400.9 101.4h97.3v3.9h-97.3v-3.9z"/><path stroke="#000" stroke-width=".073" stroke-miterlimit="3.864" d="M400.9 101.4h97.3v3.9h-97.3v-3.9z"/></g><path fill="#020405" d="M498.2 101.4h1.8v3.9h-1.8v-3.9z"/><path fill="none" stroke="#020405" stroke-width=".073" stroke-miterlimit="3.864" d="M498.2 101.4h1.8v3.9h-1.8v-3.9z"/><g fill="#5EC5ED"><path d="M402.6 107.9H500v3.9h-97.4v-3.9z"/><path stroke="#000" stroke-width=".073" stroke-miterlimit="3.864" d="M402.6 107.9H500v3.9h-97.4v-3.9z"/></g><path fill="#020405" d="M500 107.9h1.7v3.9H500v-3.9z"/><path fill="none" stroke="#020405" stroke-width=".073" stroke-miterlimit="3.864" d="M500 107.9h1.7v3.9H500v-3.9z"/><g fill="#5EC5ED"><path d="M421.6 133.7h97.3v3.9h-97.3v-3.9z"/><path stroke="#000" stroke-width=".073" stroke-miterlimit="3.864" d="M421.6 133.7h97.3v3.9h-97.3v-3.9z"/></g><path fill="#020405" d="M518.9 133.7h1.7v3.9h-1.7v-3.9z"/><path fill="none" stroke="#020405" stroke-width=".073" stroke-miterlimit="3.864" d="M518.9 133.7h1.7v3.9h-1.7v-3.9z"/><g fill="#5EC5ED"><path d="M423.3 140.2h97.3v3.9h-97.3v-3.9z"/><path stroke="#000" stroke-width=".073" stroke-miterlimit="3.864" d="M423.3 140.2h97.3v3.9h-97.3v-3.9z"/></g><path fill="#020405" d="M520.6 140.2h1.8v3.9h-1.8v-3.9z"/><path fill="none" stroke="#020405" stroke-width=".073" stroke-miterlimit="3.864" d="M520.6 140.2h1.8v3.9h-1.8v-3.9z"/><g fill="#5EC5ED"><path d="M425 146.6h97.4v3.9H425v-3.9z"/><path stroke="#000" stroke-width=".073" stroke-miterlimit="3.864" d="M425 146.6h97.4v3.9H425v-3.9z"/></g><path fill="#020405" d="M522.4 146.6h1.7v3.9h-1.7v-3.9z"/><path fill="none" stroke="#020405" stroke-width=".073" stroke-miterlimit="3.864" d="M522.4 146.6h1.7v3.9h-1.7v-3.9z"/><path d="M432.8 115c0-.4.2-.6.4-.6s.4.3.4.6c0 .4-.2.6-.4.6s-.4-.3-.4-.6z"/><path fill="none" stroke="#000" stroke-width=".092" stroke-miterlimit="3.864" d="M432.8 115c0-.4.2-.6.4-.6s.4.3.4.6c0 .4-.2.6-.4.6s-.4-.3-.4-.6z"/><path d="M434.5 118.9c0-.4.2-.6.4-.6s.4.3.4.6c0 .4-.2.6-.4.6s-.4-.3-.4-.6z"/><path fill="none" stroke="#000" stroke-width=".092" stroke-miterlimit="3.864" d="M434.5 118.9c0-.4.2-.6.4-.6s.4.3.4.6c0 .4-.2.6-.4.6s-.4-.3-.4-.6z"/><path d="M436.2 122.7c0-.4.2-.6.4-.6s.4.3.4.6c0 .4-.2.6-.4.6s-.4-.2-.4-.6z"/><path fill="none" stroke="#000" stroke-width=".092" stroke-miterlimit="3.864" d="M436.2 122.7c0-.4.2-.6.4-.6s.4.3.4.6c0 .4-.2.6-.4.6s-.4-.2-.4-.6z"/><path d="M437.9 126.6c0-.4.2-.6.4-.6s.4.3.4.6c0 .4-.2.6-.4.6-.2.1-.4-.2-.4-.6z"/><path fill="none" stroke="#000" stroke-width=".092" stroke-miterlimit="3.864" d="M437.9 126.6c0-.4.2-.6.4-.6s.4.3.4.6c0 .4-.2.6-.4.6-.2.1-.4-.2-.4-.6z"/><path d="M439.7 130.5c0-.4.2-.6.4-.6s.4.3.4.6c0 .4-.2.6-.4.6-.3 0-.4-.3-.4-.6z"/><path fill="none" stroke="#000" stroke-width=".092" stroke-miterlimit="3.864" d="M439.7 130.5c0-.4.2-.6.4-.6s.4.3.4.6c0 .4-.2.6-.4.6-.3 0-.4-.3-.4-.6z"/><path d="M481 115c0-.4.2-.6.4-.6s.4.3.4.6c0 .4-.2.6-.4.6s-.4-.3-.4-.6z"/><path fill="none" stroke="#000" stroke-width=".092" stroke-miterlimit="3.864" d="M481 115c0-.4.2-.6.4-.6s.4.3.4.6c0 .4-.2.6-.4.6s-.4-.3-.4-.6z"/><path d="M482.7 118.9c0-.4.2-.6.4-.6s.4.3.4.6c0 .4-.2.6-.4.6s-.4-.3-.4-.6z"/><path fill="none" stroke="#000" stroke-width=".092" stroke-miterlimit="3.864" d="M482.7 118.9c0-.4.2-.6.4-.6s.4.3.4.6c0 .4-.2.6-.4.6s-.4-.3-.4-.6z"/><path d="M484.4 122.7c0-.4.2-.6.4-.6s.4.3.4.6c0 .4-.2.6-.4.6-.2.1-.4-.2-.4-.6z"/><path fill="none" stroke="#000" stroke-width=".092" stroke-miterlimit="3.864" d="M484.4 122.7c0-.4.2-.6.4-.6s.4.3.4.6c0 .4-.2.6-.4.6-.2.1-.4-.2-.4-.6z"/><path d="M486.2 126.6c0-.4.2-.6.4-.6s.4.3.4.6c0 .4-.2.6-.4.6-.2.1-.4-.2-.4-.6z"/><path fill="none" stroke="#000" stroke-width=".092" stroke-miterlimit="3.864" d="M486.2 126.6c0-.4.2-.6.4-.6s.4.3.4.6c0 .4-.2.6-.4.6-.2.1-.4-.2-.4-.6z"/><path d="M487.9 130.5c0-.4.2-.6.4-.6s.4.3.4.6c0 .4-.2.6-.4.6s-.4-.3-.4-.6z"/><path fill="none" stroke="#000" stroke-width=".092" stroke-miterlimit="3.864" d="M487.9 130.5c0-.4.2-.6.4-.6s.4.3.4.6c0 .4-.2.6-.4.6s-.4-.3-.4-.6z"/><text transform="translate(420.815 163.852)" fill="#00305F" font-family="Helvetica,Arial,sans-serif" font-size="12">A</text><text transform="translate(479.503 38.102)" fill="#F99D33" font-family="Helvetica,Arial,sans-serif" font-size="12">B</text><text transform="translate(281.974 239.25)" fill="#F99D33" font-family="Helvetica,Arial,sans-serif" font-size="12">B</text></svg>