<svg version="1.1" id="Layer_1" xmlns="http://www.w3.org/2000/svg" xmlns:xlink="http://www.w3.org/1999/xlink" x="0" y="0" viewBox="0 0 346 283.5" xml:space="preserve"><style>.st13{font-family:Helvetica,Arial,sans-serif}.st26{font-size:12px}</style><defs><path id="SVGID_1_" d="M0 0h212.6v283.5H0z"/></defs><clipPath id="SVGID_2_"><use xlink:href="#SVGID_1_" overflow="visible"/></clipPath><path d="M185 161.8c0 5.2 4.2 9.4 9.4 9.4s9.5-4.2 9.5-9.4-4.2-9.5-9.5-9.5c-5.2 0-9.4 4.3-9.4 9.5z" clip-path="url(#SVGID_2_)" fill="none" stroke="#010202" stroke-width=".283" stroke-linecap="round" stroke-linejoin="round" stroke-miterlimit="10"/><defs><path id="SVGID_3_" d="M0 0h212.6v283.5H0z"/></defs><clipPath id="SVGID_4_"><use xlink:href="#SVGID_3_" overflow="visible"/></clipPath><path d="M38.8 166.3V15.1c0-5.2 4.2-9.4 9.5-9.4h103.5l.3.3c.1.1.2.1.2.2.3 1.7 1.9 2.9 3.6 2.6 1.4-.2 2.4-1.3 2.6-2.6.1-.1.2-.1.2-.2l.3-.3h40.5c5.2 0 9.5 4.2 9.5 9.4v151.2c0 5.2-4.2 9.4-9.5 9.4h-84.6l-.3-.3c-.1-.1-.2-.1-.2-.2-.3-1.7-1.9-2.9-3.6-2.6-1.4.2-2.4 1.3-2.6 2.6-.1.1-.2.1-.2.2l-.3.3H48.3c-5.2 0-9.5-4.2-9.5-9.4z" clip-path="url(#SVGID_4_)" fill="none" stroke="#010202" stroke-width=".709" stroke-linecap="round" stroke-linejoin="round" stroke-miterlimit="10"/><defs><path id="SVGID_5_" d="M0 0h212.6v283.5H0z"/></defs><clipPath id="SVGID_6_"><use xlink:href="#SVGID_5_" overflow="visible"/></clipPath><path d="M138.4 109.4v-1.2m0 1.2v1.5m0 .4v-.4m-.7.4v-.4m0-1.5v1.5m0-1.5v-1.2m0 0h.7m-62.9 3.1h96.8m-22-3.1h.7m0 1.2v-1.2m-.7 1.2v-1.2m-79.7 13.5h106.6m-100.3 2.8H81m.7 0h2.4m.8 0h2.4m.7 0h2.4m.8 0h2.4m.7 0h2.4m.8 0h2.4m.7 0h2.4m.8 0h2.4m.7 0h2.4m.8 0h2.4m.7 0h2.4m.8 0h2.4m.7 0h2.4m.8 0h2.4m.7 0h2.4m.8 0h2.4m.7 0h2.4m.8 0h2.4m.7 0h2.4m.8 0h2.4m.7 0h2.4m.8 0h2.4m.7 0h2.4m.8 0h2.4m.7 0h2.4m3.2 0h-2.4m5.5 0h-2.4m7.2 0h-4m-89.9 0v1.1m0 0H71m10 .8v-.8m0 0v-3.9m0 4.7h.7m0 0v-.8m0 0H81m.7 0v-3.9m85.1 4.7h-.8m-2.4 0h-.7m-2.4 0h-.8m-3.1 0h.7m-3.9 0h.8m-3.9 0h.7m-3.9 0h.8m-3.9 0h.7m-3.9 0h.8m-3.9 0h.7m-3.9 0h.8m-3.9 0h.7m-3.9 0h.8m-3.9 0h.7m-3.9 0h.8m-3.9 0h.7m-3.9 0h.8m-3.9 0h.7m-3.9 0h.8m-3.9 0h.7m-3.9 0h.8m-3.9 0h.7m-3.9 0h.8m-3.9 0h.7m-3.9 0h.8m-3.9 0h.7m-3.9 0h.8m-13.9-.8v11.9m2.5 0H71m2.5-6.9h100.8m0 6.9h2.5m0-11.9v11.9m-6-11.9h6m-6-1.1v1.1m-4.8.8v-.8m0-3.9v3.9m0 0h.8m0 0v-3.9m0 4.7v-.8m-3.2 0v-3.9m0 4.7v-.8m-.7 0h.7m-.7.8v-.8m0 0v-3.9m-2.4 3.9v-3.9m0 4.7v-.8m-.8 0h.8m-.8.8v-.8m0 0v-3.9m-5.5 3.9v-3.9m0 4.7v-.8m0 0h-.8m0 .8v-.8m0 0v-3.9m-2.4 0v3.9m0 .8v-.8m-.7.8v-.8m0-3.9v3.9m.7 0h-.7m-2.4 0v-3.9m0 4.7v-.8m0 0h-.8m0 .8v-.8m0 0v-3.9m-2.4 3.9v-3.9m0 4.7v-.8m0 0h-.7m0 .8v-.8m0 0v-3.9m-2.4 0v3.9m0 .8v-.8m-.8.8v-.8m0-3.9v3.9m.8 0h-.8m-2.4 0v-3.9m0 4.7v-.8m0 0h-.7m0 .8v-.8m0 0v-3.9m-2.4 3.9v-3.9m0 4.7v-.8m0 0h-.8m0 .8v-.8m0 0v-3.9m-2.4 3.9v-3.9m0 4.7v-.8m0 0h-.7m0 .8v-.8m0 0v-3.9m-2.4 3.9v-3.9m0 4.7v-.8m0 0h-.8m0 .8v-.8m0 0v-3.9m-2.4 3.9v-3.9m0 4.7v-.8m0 0h-.7m0 .8v-.8m0 0v-3.9m-2.4 3.9v-3.9m0 4.7v-.8m0 0h-.8m0 .8v-.8m0 0v-3.9m-2.4 0v3.9m0 .8v-.8m-.7.8v-.8m0-3.9v3.9m.7 0h-.7m-2.4 0v-3.9m0 4.7v-.8m0 0h-.8m0 .8v-.8m0 0v-3.9m-2.4 3.9v-3.9m0 4.7v-.8m0 0h-.7m0 .8v-.8m0 0v-3.9m-2.4 0v3.9m0 .8v-.8m-.8.8v-.8m0-3.9v3.9m.8 0h-.8m-2.4 0v-3.9m0 4.7v-.8m0 0h-.7m0 .8v-.8m0 0v-3.9m-2.4 3.9v-3.9m0 4.7v-.8m0 0h-.8m0 .8v-.8m0 0v-3.9m-2.4 0v3.9m0 .8v-.8m-.7.8v-.8m0-3.9v3.9m.7 0h-.7m-2.4 0v-3.9m0 4.7v-.8m0 0h-.8m0 .8v-.8m0 0v-3.9m-2.4 3.9v-3.9m0 4.7v-.8m0 0h-.7m0 .8v-.8m0 0v-3.9m-2.4 3.9v-3.9m0 4.7v-.8m0 0h-.8m0 .8v-.8m0 0v-3.9m-2.4 3.9v-3.9m0 4.7v-.8m0 0h-.7m0 .8v-.8m0 0v-3.9m-2.4 3.9v-3.9m0 4.7v-.8m0 0h-.8m0 .8v-.8m0 0v-3.9m90.2 24H73.5m100.8-1.3v1.3m-100.8-1.3v1.3m100.8-12.8v11.5M73.5 132.9h100.8m-100.8 0v11.5m0-13.8v2.3m100.8-2.3v2.3m-17.7-6.5v-.8m0 0v-3.9m.7 3.9v-3.9m0 4.7v-.8m0 0h-.7M78 124.3v-2.6m-1.3 3.8h-2.5m3.8-1.2l-.3.2m-.8.8l-.2.2m-9.5 17.7h5.9m.4 0h-.4m1.1-17.6v-3.9m95.6 2.6v-2.6m4.8 17.7v3.8m-7.8-33.8v-1.2m0 2.7v-1.5m0 1.9v-.4m13.8 32.3v-27.5m-9.6 9.8h2.6m3.6 13.9v-17.7m-7.4 2.6l.2.2m.8.8l.2.2m-95.5-14.2v4.4m98.1 9.9v-3.9m-106.4-6h8.3m-2.4 23.7v3.8m-2.5-3.8h2.5m-2.5 0v-17.7m16.7 25.9v-.4m0 0v-.2m0-1.3v1.3m.7-1.3v1.3m0 .2v-.2m0 .6v-.4m0 .4h-.7m15.7 0v-.4m0 0v-.2m0-1.3v1.3m.8-1.3v1.3m0 .2v-.2m0 .6v-.4m0 .4h-.8m15.8 0v-.4m0 0v-.2m0-1.3v1.3m.7-1.3v1.3m0 .2v-.2m0 .6v-.4m0 .4h-.7m15.7 0v-.4m0 0v-.2m0-1.3v1.3m.8-1.3v1.3m0 .2v-.2m0 .6v-.4m0 .4h-.8m15.8 0v-.4m0 0v-.2m0-1.3v1.3m.7-1.3v1.3m0 .2v-.2m0 .6v-.4m0 .4h-.7m-77.1-1.9v-2.5m.3 2.5h-.3m-6-2.5v-27.5m83.8-4.4v-.4m-.7.4v-.4m15.7.4v-.4m0-1.5v1.5m0-1.5v-1.2m.8 0h-.8m-12.6 3.1v-.4m0-1.5v1.5m0-1.5v-1.2m.8 1.2v1.5m0-1.5v-1.2m0 3.1v-.4m-.8-2.7h.8m-7.1 3.1v-.4m0-1.5v1.5m0-1.5v-1.2m.8 1.2v1.5m0-1.5v-1.2m0 3.1v-.4m-.8-2.7h.8m8.7 3.1v-.4m0-1.5v1.5m0-1.5v-1.2m.7 1.2v1.5m0-1.5v-1.2m0 3.1v-.4m-.7-2.7h.7m6.3 1.2v-1.2m0 1.2v1.5m0 .4v-.4m-.7-1.5v1.5m.7-2.7h-.7m0 1.2v-1.2m0 3.1v-.4m-2.4-1.5v-1.2m0 1.2v1.5m0 .4v-.4m-.8-1.5v1.5m.8-2.7h-.8m0 1.2v-1.2m0 3.1v-.4m-78.7.4v-.4m0-1.5v1.5m0-1.5v-1.2m.7 1.2v1.5m0-1.5v-1.2m0 3.1v-.4m-.7-2.7h.7m2.4 3.1v-.4m0-1.5v1.5m0-1.5v-1.2m.8 1.2v1.5m0-1.5v-1.2m0 3.1v-.4m-.8-2.7h.8m2.4 3.1v-.4m0-1.5v1.5m0-1.5v-1.2m.7 1.2v1.5m0-1.5v-1.2m0 3.1v-.4m-.7-2.7h.7m2.4 3.1v-.4m0-1.5v1.5m0-1.5v-1.2m.8 1.2v1.5m0-1.5v-1.2m0 3.1v-.4m-.8-2.7h.8m2.4 3.1v-.4m0-1.5v1.5m0-1.5v-1.2m.7 1.2v1.5m0-1.5v-1.2m0 3.1v-.4m-.7-2.7h.7m3.2 1.2v-1.2m0 1.2v1.5m0 .4v-.4m-.8-1.5v1.5m0-2.7h.8m-.8 1.2v-1.2m0 3.1v-.4m3.2.4v-.4m0-1.5v1.5m0-1.5v-1.2m.7 1.2v1.5m0-1.5v-1.2m0 3.1v-.4m-.7-2.7h.7m2.4 3.1v-.4m0-1.5v1.5m0-1.5v-1.2m.8 1.2v1.5m0-1.5v-1.2m0 3.1v-.4m-.8-2.7h.8m2.4 3.1v-.4m0-1.5v1.5m0-1.5v-1.2m.7 1.2v1.5m0-1.5v-1.2m0 3.1v-.4m-.7-2.7h.7m2.4 3.1v-.4m0-1.5v1.5m0-1.5v-1.2m.8 1.2v1.5m0-1.5v-1.2m0 3.1v-.4m-.8-2.7h.8m2.4 3.1v-.4m0-1.5v1.5m0-1.5v-1.2m.7 1.2v1.5m0-1.5v-1.2m0 3.1v-.4m-.7-2.7h.7m2.4 3.1v-.4m0-1.5v1.5m0-1.5v-1.2m.8 1.2v1.5m0-1.5v-1.2m0 3.1v-.4m-.8-2.7h.8m3.1 1.2v-1.2m0 1.2v1.5m0 .4v-.4m-.7-1.5v1.5m0-2.7h.7m-.7 1.2v-1.2m0 3.1v-.4m3.1.4v-.4m0-1.5v1.5m0-1.5v-1.2m.8 1.2v1.5m0-1.5v-1.2m0 3.1v-.4m-.8-2.7h.8m2.4 3.1v-.4m0-1.5v1.5m0-1.5v-1.2m.7 1.2v1.5m0-1.5v-1.2m0 3.1v-.4m-.7-2.7h.7m2.4 3.1v-.4m0-1.5v1.5m0-1.5v-1.2m.8 1.2v1.5m0-1.5v-1.2m0 3.1v-.4m-.8-2.7h.8m2.4 3.1v-.4m0-1.5v1.5m0-1.5v-1.2m.7 1.2v1.5m0-1.5v-1.2m0 3.1v-.4m-.7-2.7h.7m3.2 1.2v-1.2m0 1.2v1.5m0 .4v-.4m-.8-1.5v1.5m0-2.7h.8m-.8 1.2v-1.2m0 3.1v-.4m6.3.4v-.4m0-1.5v1.5m0-1.5v-1.2m.8 1.2v1.5m0-1.5v-1.2m0 3.1v-.4m-.8-2.7h.8m2.4 3.1v-.4m0-1.5v1.5m0-1.5v-1.2m.7 1.2v1.5m0-1.5v-1.2m0 3.1v-.4m-.7-2.7h.7m5.6 1.2v1.5m.7-1.5v1.5m23.3 32.3h.3m2.6-3.8h-2.6m-2.3-28.1v4.4m8.3 27.5h-6m6-27.5h-8.3m2.3 30v-2.5m-.3 2.5h.3M43.9 20.9c0 5.2 4.2 9.4 9.4 9.4s9.4-4.2 9.4-9.4-4.2-9.5-9.4-9.5-9.4 4.2-9.4 9.5zm141 0c0 5.2 4.2 9.4 9.4 9.4s9.4-4.2 9.4-9.4-4.2-9.5-9.4-9.5-9.4 4.2-9.4 9.5zm-141 140.9c0 5.2 4.2 9.4 9.4 9.4s9.4-4.2 9.4-9.4-4.2-9.4-9.4-9.4c-5.2-.1-9.4 4.2-9.4 9.4zm-35 75.5H3.8m143.9-30.4h28.2m-151 1.5h28.2m134.8 27.4h9.3M57.5 271.2H20.8m167.1-54.8v47.1m-53-47.1h53m-175.7 1.5h53.6m-56.9 4.5v37.3m179-44.4v1.1m1.6 27v15.8M3.7 244.9h5.2m179 14.3h1.6m7.5-15.8h-7.5m1.8 15.8h-1.8m-.3 2.6v-2.6" clip-path="url(#SVGID_6_)" fill="none" stroke="#010202" stroke-width=".283" stroke-linecap="round" stroke-linejoin="round" stroke-miterlimit="10"/><defs><path id="SVGID_7_" d="M0 0h212.6v283.5H0z"/></defs><clipPath id="SVGID_8_"><use xlink:href="#SVGID_7_" overflow="visible"/></clipPath><path d="M157.5 136.2h10.9c.8 0 1.5.7 1.5 1.5v2.4c0 .8-.7 1.5-1.5 1.5h-10.9c-.8 0-1.5-.7-1.5-1.5v-2.4c0-.8.7-1.5 1.5-1.5" clip-path="url(#SVGID_8_)" fill="#fff"/><defs><path id="SVGID_9_" d="M0 0h212.6v283.5H0z"/></defs><clipPath id="SVGID_10_"><use xlink:href="#SVGID_9_" overflow="visible"/></clipPath><path d="M157.5 136.2h10.9c.8 0 1.5.7 1.5 1.5v2.4c0 .8-.7 1.5-1.5 1.5h-10.9c-.8 0-1.5-.7-1.5-1.5v-2.4c0-.8.7-1.5 1.5-1.5z" clip-path="url(#SVGID_10_)" fill="none" stroke="#000" stroke-width=".709" stroke-miterlimit="10"/><defs><path id="SVGID_11_" d="M0 0h212.6v283.5H0z"/></defs><clipPath id="SVGID_12_"><use xlink:href="#SVGID_11_" overflow="visible"/></clipPath><path d="M137.7 136.2h10.9c.8 0 1.5.7 1.5 1.5v2.4c0 .8-.7 1.5-1.5 1.5h-10.9c-.8 0-1.5-.7-1.5-1.5v-2.4c0-.8.7-1.5 1.5-1.5" clip-path="url(#SVGID_12_)" fill="#fff"/><defs><path id="SVGID_13_" d="M0 0h212.6v283.5H0z"/></defs><clipPath id="SVGID_14_"><use xlink:href="#SVGID_13_" overflow="visible"/></clipPath><path d="M137.7 136.2h10.9c.8 0 1.5.7 1.5 1.5v2.4c0 .8-.7 1.5-1.5 1.5h-10.9c-.8 0-1.5-.7-1.5-1.5v-2.4c0-.8.7-1.5 1.5-1.5z" clip-path="url(#SVGID_14_)" fill="none" stroke="#000" stroke-width=".709" stroke-miterlimit="10"/><defs><path id="SVGID_15_" d="M0 0h212.6v283.5H0z"/></defs><clipPath id="SVGID_16_"><use xlink:href="#SVGID_15_" overflow="visible"/></clipPath><path d="M98 136.2h10.9c.8 0 1.5.7 1.5 1.5v2.4c0 .8-.7 1.5-1.5 1.5H98c-.8 0-1.5-.7-1.5-1.5v-2.4c0-.8.7-1.5 1.5-1.5" clip-path="url(#SVGID_16_)" fill="#fff"/><defs><path id="SVGID_17_" d="M0 0h212.6v283.5H0z"/></defs><clipPath id="SVGID_18_"><use xlink:href="#SVGID_17_" overflow="visible"/></clipPath><path d="M98 136.2h10.9c.8 0 1.5.7 1.5 1.5v2.4c0 .8-.7 1.5-1.5 1.5H98c-.8 0-1.5-.7-1.5-1.5v-2.4c0-.8.7-1.5 1.5-1.5z" clip-path="url(#SVGID_18_)" fill="none" stroke="#000" stroke-width=".709" stroke-miterlimit="10"/><defs><path id="SVGID_19_" d="M0 0h212.6v283.5H0z"/></defs><clipPath id="SVGID_20_"><use xlink:href="#SVGID_19_" overflow="visible"/></clipPath><path d="M78.2 136.2h10.9c.8 0 1.5.7 1.5 1.5v2.4c0 .8-.7 1.5-1.5 1.5H78.2c-.8 0-1.5-.7-1.5-1.5v-2.4c-.1-.8.6-1.5 1.5-1.5" clip-path="url(#SVGID_20_)" fill="#fff"/><defs><path id="SVGID_21_" d="M0 0h212.6v283.5H0z"/></defs><clipPath id="SVGID_22_"><use xlink:href="#SVGID_21_" overflow="visible"/></clipPath><path d="M78.2 136.2h10.9c.8 0 1.5.7 1.5 1.5v2.4c0 .8-.7 1.5-1.5 1.5H78.2c-.8 0-1.5-.7-1.5-1.5v-2.4c-.1-.8.6-1.5 1.5-1.5z" clip-path="url(#SVGID_22_)" fill="none" stroke="#000" stroke-width=".709" stroke-miterlimit="10"/><defs><path id="SVGID_23_" d="M0 0h212.6v283.5H0z"/></defs><clipPath id="SVGID_24_"><use xlink:href="#SVGID_23_" overflow="visible"/></clipPath><path d="M117.9 136.2h10.9c.8 0 1.5.7 1.5 1.5v2.4c0 .8-.7 1.5-1.5 1.5h-10.9c-.8 0-1.5-.7-1.5-1.5v-2.4c-.1-.8.6-1.5 1.5-1.5" clip-path="url(#SVGID_24_)" fill="#fff"/><defs><path id="SVGID_25_" d="M0 0h212.6v283.5H0z"/></defs><clipPath id="SVGID_26_"><use xlink:href="#SVGID_25_" overflow="visible"/></clipPath><path d="M117.9 136.2h10.9c.8 0 1.5.7 1.5 1.5v2.4c0 .8-.7 1.5-1.5 1.5h-10.9c-.8 0-1.5-.7-1.5-1.5v-2.4c-.1-.8.6-1.5 1.5-1.5z" clip-path="url(#SVGID_26_)" fill="none" stroke="#000" stroke-width=".709" stroke-miterlimit="10"/><text transform="translate(163.627 140.484)" class="st13" font-size="5.139">28</text><defs><path id="SVGID_27_" d="M0 0h212.6v283.5H0z"/></defs><clipPath id="SVGID_28_"><use xlink:href="#SVGID_27_" overflow="visible"/></clipPath><path d="M127.8 230.1h36c3.5 0 6.3 2.8 6.3 6.3v10.1c0 3.5-2.8 6.3-6.3 6.3h-34.6" clip-path="url(#SVGID_28_)" fill="#fff"/><defs><path id="SVGID_29_" d="M0 0h212.6v283.5H0z"/></defs><clipPath id="SVGID_30_"><use xlink:href="#SVGID_29_" overflow="visible"/></clipPath><path d="M127.8 230.1h36c3.5 0 6.3 2.8 6.3 6.3v10.1c0 3.5-2.8 6.3-6.3 6.3h-34.6" clip-path="url(#SVGID_30_)" fill="none" stroke="#000" stroke-width=".709" stroke-miterlimit="10"/><defs><path id="SVGID_31_" d="M0 0h212.6v283.5H0z"/></defs><clipPath id="SVGID_32_"><use xlink:href="#SVGID_31_" overflow="visible"/></clipPath><path d="M71.7 254.4H28.4c-3.5 0-6.3-2.8-6.3-6.3V238c0-3.5 2.8-6.3 6.3-6.3h44.8" clip-path="url(#SVGID_32_)" fill="#fff"/><defs><path id="SVGID_33_" d="M0 0h212.6v283.5H0z"/></defs><clipPath id="SVGID_34_"><use xlink:href="#SVGID_33_" overflow="visible"/></clipPath><path d="M71.7 254.4H28.4c-3.5 0-6.3-2.8-6.3-6.3V238c0-3.5 2.8-6.3 6.3-6.3h44.8" clip-path="url(#SVGID_34_)" fill="none" stroke="#000" stroke-width=".709" stroke-miterlimit="10"/><text transform="translate(143.089 249.022)" class="st13" font-size="21.415">28</text><defs><path id="SVGID_35_" d="M0 0h212.6v283.5H0z"/></defs><clipPath id="SVGID_36_"><use xlink:href="#SVGID_35_" overflow="visible"/></clipPath><path d="M88.2 137.2h1.5v.7h-1.2v.6h.7s.1 0 .1.1l.1.1v1.5h-1.7l-.1-.1-.1-.1-.2-.2-.1-.1-.1-.1-.1-.1-.1-.1-.1-.1-.1-.1-.1-.1-.1-.1-.1-.1-.1-.1-.1-.1-.1-.1-.1-.1v-.7h.5v-.6h-1v2.1h.4v.7h-1.1v-1.8H84v1.5h-1v.3h.3v-2.2H83v-.7h1v1.3h.8v-1.3h2l.1.1v1l.1.1c.1 0 .1.1.2.2l.2.2.1.1.1.1.1.1.1.1.1.1.1.1.1.1h1v-.9h-.9l-.1-.1v-1.1l.1-.1M72.7 243.9c-.1 0-.2-.1-.3-.1h-.1c-.1 0-.1-.1-.2-.1s-.1 0-.2-.1l-.1-.1c-.1 0-.1-.1-.2-.1-.1-.1-.2-.2-.3-.4v-.1c0-.1-.1-.1-.1-.2-.1-.1-.1-.2-.2-.3 0-.1-.1-.1-.1-.2s-.1-.1-.1-.2v-4.3c0-.1 0-.1.1-.2 0-.1.1-.2.1-.2s0-.1.1-.1c0-.1.1-.1.1-.2s.1-.1.1-.1l.1-.1.3-.3s1.3-.9 2-.9.9 4.4.9 5.1-.2 3.4-.4 3.4c-.3-.2-1.5-.2-1.5-.2m-.4 6.6h-2.2c-.1-.1-.2-.2-.4-.3 0 0 0-.1-.1-.1s-.1-.1-.2-.1l-.4-.4-.7-.7c-.1-.1-.2-.2-.4-.3l-.3-.3-.3-.3c-.1-.1-.2-.3-.4-.4l-.3-.3-.3-.3-.1-.1-.1-.1-.3-.3-.5-.5-.5-.5-.5-.5c-.1-.1-.2-.3-.4-.4l-.3-.3-.3-.3v-3h2v-2.6h-4v9.1h1.6v2.9h-4.4v-6.6H55v6.4h-4.5v-2.9h1.4v-9h-1.6v-2.9h4.5v5.4h3.5v-5.2h8.3c.1 0 .1 0 .2.1.1 0 .2.1.3.1.1 0 .1.1.2.1s.2.1.2.1h.2c.1.1.3.2.3.4l.1.1c0 .1.1.1.1.2v.1s.1.1.1.2.1.2.1.3v4.4s0 .1-.1.1v.2c-.1.1-.1.2-.1.2 0 .1-.1.1-.1.2l-.2.2-.2.2-.1.1c-.1 0-.1.1-.2.1l-.1.1.3.3.6.6c.2.2.4.4.6.7l.3.3.4.4.3.3.3.3.4.4.3.3c.1.1.2.3.4.4l.2.2h1.3" clip-path="url(#SVGID_36_)"/><text transform="translate(78.158 140.02)" class="st13" font-size="3.517">▲</text><text transform="translate(28.448 247.913)" class="st13" font-size="14.653">▲</text><defs><path id="SVGID_37_" d="M0 0h212.6v283.5H0z"/></defs><clipPath id="SVGID_38_"><use xlink:href="#SVGID_37_" overflow="visible"/></clipPath><path d="M168 129.2c5.1 0 9.2 4.1 9.2 9.2s-4.1 9.2-9.2 9.2-9.2-4.1-9.2-9.2 4.1-9.2 9.2-9.2m0 17c4.3 0 7.8-3.5 7.8-7.8s-3.5-7.8-7.8-7.8-7.8 3.5-7.8 7.8 3.5 7.8 7.8 7.8m-87.3-17c5.1 0 9.2 4.1 9.2 9.2s-4.1 9.2-9.2 9.2-9.2-4.1-9.2-9.2 4.1-9.2 9.2-9.2m0 17c4.3 0 7.8-3.5 7.8-7.8s-3.5-7.8-7.8-7.8-7.8 3.5-7.8 7.8 3.5 7.8 7.8 7.8m81.1 57.1c19.9 0 36.1 16.2 36.1 36.1s-16.2 36.1-36.1 36.1-36.1-16.2-36.1-36.1 16.2-36.1 36.1-36.1m0 70.9c19.1 0 34.7-15.6 34.7-34.7s-15.6-34.7-34.7-34.7-34.7 15.6-34.7 34.7 15.6 34.7 34.7 34.7M39 204.8c19.9 0 36.1 16.2 36.1 36.1S58.9 277 39 277 2.9 260.8 2.9 240.9C2.8 221 19 204.8 39 204.8m0 70.9c19.1 0 34.7-15.6 34.7-34.7S58.1 206.3 39 206.3 4.3 221.9 4.3 241s15.5 34.7 34.7 34.7" clip-path="url(#SVGID_38_)" fill="#010202"/><defs><path id="SVGID_39_" d="M0 0h212.6v283.5H0z"/></defs><clipPath id="SVGID_40_"><use xlink:href="#SVGID_39_" overflow="visible"/></clipPath><path d="M176.9 137.2l19.9 94.2M159.7 135l-31.6 92.1m-38.5-87.5L74.4 246.4m-.6-113.7L11 218.6" clip-path="url(#SVGID_40_)" fill="none" stroke="#010202" stroke-width=".5" stroke-linecap="round" stroke-linejoin="round" stroke-miterlimit="10"/><path d="M183.5 77.4v-3.5m0 0h6.6m0 0v3.5m0 0h-6.6m-44.3 15.9v6.9m0 0h-16.3m0 0v-6.9m0 0h16.3m-34.5-21h3.5m0 0v6.6m0 0h-3.5m0 0v-6.6m5.4-15.1h3.5m0 0v6.6m0 0h-3.5m0 0v-6.6m23 25.8v-3.4m0 0h6.6m0 0V83m0 0h-6.6M59.4 68.2v-3.4m0 0H66m0 0v3.4m0 0h-6.6m45.3 13.9h3.5m0 0v6.6m0 0h-3.5m0 0v-6.6m-45.3-8.5v-3.5m0 0H66m0 0v3.5m0 0h-6.6m62.7 9.4v-3.4m0 0h6.6m0 0V83m0 0h-6.6m-20-38.6v32.2m0 0H69.9m0 0V44.4m0 0h32.2M59.4 62.9v-3.5m0 0H66m0 0v3.5m0 0h-6.6m13.7 29.6v9.1m0 0H59.2m0 0v-9.1m0 0h13.9m106.3-38.1h-3.5m0 0v-6.6m0 0h3.5m0 0v6.6m-60.5 21.7h-3.4m-.1 0v-6.6m0 0h3.5m0 0v6.6m36.2 12.3v-3.5m0 0h6.6m0 0v3.5m0 0h-6.6m-42.8-22.1v3.5m0 0h-6.6m0 0v-3.5m0 0h6.6m9.3 10.6V25.2m0 0h51.6m0 0v51.7m0 0h-51.6m-13.4-13.1h-3.5m0 0v-6.6m0 0h3.5m0 0v6.6M144.1 83v-3.4m0 0h6.6m0 0V83m0 0h-6.6M57.8 50h3.5m-3.5-10.8h3.5m-3.5 17.4V50m3.5 6.6h-3.5m3.5-6.6v6.6m128.8 22.6v3.5m-6.6-3.5h6.6m-6.6 3.5v-3.4m6.6 3.4h-6.6m-91.8 9.8v9.1m-13.9-9.1h13.9m-13.9 9.1v-9.1m13.9 9.1H77.8m99.2-8.3v6.9m-16.4-6.9H177m-16.4 6.9v-6.9m16.4 6.9h-16.4M59.4 78.9v-3.4m6.6 3.4h-6.6m6.6-3.4v3.4m-6.6-3.4H66m49.4 6.6h3.5m-3.5 6.6v-6.6m3.5 6.6h-3.4m3.4-6.6v6.6m57-18.9h3.5m-3.5 6.6v-6.6m3.5 6.6h-3.5m3.5-6.6v6.6m-69.3-4.1h3.5m-3.5 6.6v-6.6m3.5 6.6h-3.5m3.5-6.6v6.6m69.9-6.9v-3.5m6.6 3.5h-6.6m6.6-3.5V72m-6.6-3.5h6.6M74.2 88.7h-3.5m3.5-6.6v6.6m-3.5-6.6h3.5m-3.5 6.6v-6.6m21-1v9.2m-13.9-9.2h13.9m-13.9 9.2v-9.2m13.9 9.2H77.8M63.5 50h3.4m-3.4 6.6V50m3.4 6.6h-3.4m3.4-6.6v6.6m109 1.9h3.5m-3.5 6.6v-6.6m3.5 6.6h-3.5m3.5-6.6v6.6m-6.6 14.5V83m-6.6-3.4h6.6m-6.6 3.4v-3.4m6.6 3.4h-6.6m-45.9 10.3v6.9M104 93.3h16.3m-16.3 6.9v-6.9m16.3 6.9H104M155.1 83v-3.4m6.6 3.4h-6.6m6.6-3.4V83m-6.6-3.4h6.6m28.4 5v3.5m-6.6-3.5h6.6m-6.6 3.5v-3.5m6.6 3.5h-6.6m-68.1-29h3.5m-3.5 6.6v-6.6m3.5 6.6h-3.4m3.4-6.6v6.6m-17.7 33.2h-5.8m5.8-10.7v10.7m-5.8-10.7h5.8m-5.8 10.7V88.2M61.6 46.5h-4.1m4.1-7.3v7.3m-4.1 0v-7.3m52.6 42.9h3.5m-3.5 6.6v-6.6m3.5 6.6h-3.5m3.5-6.6v6.6m-51.4 0h-3.4m3.4-6.6v6.6m-3.4-6.6h3.4m-3.4 6.6v-6.6" fill="none" stroke="#010202" stroke-width=".283" stroke-linecap="round" stroke-linejoin="round" stroke-miterlimit="10"/><text transform="translate(220.667 19.132)" class="st13 st26">Parts on the board are</text><text transform="translate(220.667 33.532)" class="st13 st26">symbolic only</text></svg>