<svg version="1.0" xmlns="http://www.w3.org/2000/svg" viewBox="0 0 490 120"><text transform="translate(263.998 38.55)" font-family="Helvetica,Arial,sans-serif" font-size="14">Temperature measurement point</text><path fill="none" stroke="#010202" stroke-width=".4" stroke-linecap="round" stroke-linejoin="round" stroke-miterlimit="10" d="M118.9 80.5l-.1-.1m0 0s0 0 0 0m-.2-37.3s.1.1.2.1m0 0c.1-.1.1-.3.2-.4.1-.2.2-.4.3-.5.1-.2.2-.3.3-.4m0-.1h-.1m2.9-4.8c0-.1 0-.2.1-.2.1-.1.1-.2.2-.4.1-.1.2-.2.3-.4.1-.1.2-.3.3-.4m-.1 0c-.1-.1-.2-.1-.2-.1m-.7 1.4s.1 0 0 0M155.4 17s0 0 0 0m0 0s.1 0 .1.1"/><path fill="none" stroke="#010202" stroke-width=".4" stroke-linecap="round" stroke-linejoin="round" stroke-miterlimit="10" d="M155.4 17l1.2.6c1 .5 1.9 1 2.9 1.6m-4.1-2.2c-9.5-3.1-22.7 4.6-32.2 18.6"/><path fill="none" stroke="#010202" stroke-width=".4" stroke-linecap="round" stroke-linejoin="round" stroke-miterlimit="10" d="M127.2 37.8c-.9-.5-1.9-1.1-2.8-1.6-.4-.2-.8-.4-1.2-.7m-4.4 7.7c.4.2.8.5 1.2.7.9.6 1.9 1.1 2.8 1.7m-4-2.4c-7.4 15.2-7.4 30.5 0 37.2m4 2.5c-.9-.6-1.9-1.2-2.8-1.7-.4-.2-.8-.5-1.2-.7m34.1-57.6c-.3.2-.6.3-1 .5-.3.2-.7.3-1 .5-.3.2-.7.4-1 .6-.3.2-.7.4-1 .6"/><path fill="none" stroke="#010202" stroke-width=".4" stroke-linecap="round" stroke-linejoin="round" stroke-miterlimit="10" d="M148.9 25.1c.4-.2.8-.4 1.1-.6.4-.2.7-.4 1.1-.6.3-.2.7-.3 1-.5m.8-.5h.2m-8.7 4.9s.1 0 .1.1m1.1-.7l.1-.1c.4-.2.7-.5 1.1-.7.3-.2.7-.4 1-.7.4-.2.7-.5 1.1-.7"/><path fill="none" stroke="#010202" stroke-width=".4" stroke-linecap="round" stroke-linejoin="round" stroke-miterlimit="10" d="M148.9 25.1l-1.2.6c-.4.2-.7.4-1.1.6-.4.2-.8.5-1.1.7-.4.2-.8.5-1.1.7m9.4-5.2h-.1c-.3.1-.6.2-.8.4m-8.5 4.9c-.3.2-.7.4-1 .7l-.1.1m-20.6 36.8c0 .5 0 .9-.1 1.4v3.9"/><path fill="none" stroke="#010202" stroke-width=".4" stroke-linecap="round" stroke-linejoin="round" stroke-miterlimit="10" d="M122.6 70.7v-1.3c0-.4 0-.8.1-1.2 0-.4 0-.8.1-1.3v-.2m0-1.2l-.1-.1m.1 10l-.1-.1m0-1c0-.4 0-.7-.1-1.1 0-.4 0-.8-.1-1.2v-1.3"/><path fill="none" stroke="#010202" stroke-width=".4" stroke-linecap="round" stroke-linejoin="round" stroke-miterlimit="10" d="M122.6 70.7v3.4c0 .4 0 .7.1 1.1m.1-11.1v.1c0 .4-.1.8-.1 1.2m0 9.9c0 .3.1.6.1.9v.1m-3.9 4.2c-.1 0-.1-.1-.2-.1m-.1-37.3c.1-.2.2-.4.3-.5.1-.1.2-.3.2-.4.1-.1.2-.3.3-.4m2.9-4.9c0-.2.1-.3.2-.5s.2-.3.3-.5c.1-.1.2-.2.2-.4M155.4 17c.1 0 .1 0 .2.1m0-.1c1.3.7 2.7 1.4 4 2.1M123 35.5c1.8-2.7 3.8-5.2 5.9-7.5 2.1-2.3 4.4-4.3 6.7-5.9 2.3-1.7 4.6-3 6.9-4 2.3-1 4.6-1.6 6.7-1.8 2.2-.2 4.2 0 6.1.6m-35.8 24.9c.3-.2.5-.5.8-.8.3-.3.5-.6.7-.9.2-.3.4-.7.6-1 .2-.4.3-.7.5-1.1.1-.4.2-.7.3-1.1m-3.6 43.5c-1.5-1.3-2.7-3-3.6-5-.9-2-1.5-4.2-1.8-6.7-.3-2.5-.3-5.2 0-8s.9-5.8 1.8-8.7c.9-3 2.1-6 3.5-8.9m4.1 39.8l-3.9-2.4m.7-38.7c1.4-1.2 2.4-3.1 2.8-4.9m0 .1c.5.3.9.5 1.4.8.6.3 1.2.7 1.8 1m-2.8 4.9c-.6-.4-1.2-.7-1.8-1.1-.5-.3-.9-.5-1.4-.8m34-19c-.1-.1-.2-.1-.3 0m.3 0l20.2-11.7m0 0c-.1-.1-.2-.1-.3 0m-24.6 14c.8-.4 1.6-.7 2.4-1.1.8-.4 1.6-.8 2.3-1.2m-8.7 5c-.1-.1-.2-.1-.3 0m.3 0c.7-.4 1.4-.9 2-1.3.7-.5 1.3-.9 1.9-1.4m-24.1 14.3c-.1-.1-.2-.1-.3 0m.3 0l20.2-11.6m-22.1 37.9c0 .1.1.2.1.2m0 0V42.6m-.1-.2c0 .1.1.2.1.2"/><path fill="none" stroke="#010202" stroke-width=".4" stroke-linecap="round" stroke-linejoin="round" stroke-miterlimit="10" d="M122.6 70.7c.1-.8.2-1.6.2-2.4.1-.8.1-1.6.1-2.4M175 11c-.3-.2-.8-.1-1.3.1m-49 28.3c-1 .6-1.8 2-1.8 3.2m-.1 56.4c0 .1.1.2.1.2m0 0c0 .5.2 1 .5 1.2m-.5-1.2V75.9m-.1-.2c0 .1.1.2.1.2m0 0c0-.8-.1-1.7-.1-2.6-.1-.9-.1-1.8-.2-2.6m30.7-47.9l20.2-11.7m-20.2 11.7c-.1 0-.2.1-.2.1-.1 0-.2.1-.2.1-.1 0-.2.1-.2.1-.1 0-.2.1-.2.1-.1 0-.2.1-.3.1m-6.6 3.9c-.1 0-.1.1-.2.1s-.1.1-.2.1-.1.1-.2.1-.1.1-.2.1-.1.1-.2.1m-20.1 11.7l20.2-11.6m-21.9 37.9V42.4m0 23.3v1"/><path fill="none" stroke="#010202" stroke-width=".4" stroke-linecap="round" stroke-linejoin="round" stroke-miterlimit="10" d="M173.5 11.1c.1-.1.2-.1.3-.1.1 0 .2-.1.3-.1h.6c.1 0 .2.1.3.1m-52.2 31.4c0-.2 0-.5.1-.7.1-.2.1-.5.2-.7.1-.2.2-.4.4-.6.1-.2.3-.4.5-.6.2-.2.4-.3.6-.4m-1.2 61c-.1-.1-.2-.1-.2-.2-.1-.1-.1-.2-.2-.3-.1-.1-.1-.2-.1-.3 0-.1-.1-.2-.1-.3V99m0 0V75.7m-.1-1.4v1.5M188.1 19l-14.3-7.9m-34.7 36.2l-14.4-7.9m12.2 11.7l-14-8.5m14 65.1l-14-8.5M175 11l14.7 7.8m-66.3 81.6l14.1 8.8m52.2-90.3c-.4-.3-1-.2-1.6.1m-49 28.3l49-28.3m-49 28.3c-1.2.7-2.2 2.4-2.2 3.8m0 56.6V51.1m0 56.6c0 .7.2 1.2.7 1.4M188.1 19l1.3.8m-50.3 27.5l1.3.8m-3.5 59.6l1.4.8m-1.4-57.4l1.4.8M191 19.7l-1.3-.8m-50.8 91l-1.3-.7M191.8 37s-.1.2-.2.3m0 0s.1 0 0 0m.1-.1c0 .1 0 .1 0 0m0 .1h0m-.1 39.7c.1-.1.2-.1.2-.2m-.2-7.9V77m-.1.6l-.1-.1m0 0c.1-.2.2-.4.2-.5m-2.3 4.4l-.1-.1m2.2-3.8l-2.2 3.8m-.5.7c.1 0 .1-.1.1-.2m.1 0c.1-.1.3-.2.4-.4m-48.6 28.4c.1 0 .1-.1.1-.2m48.1-27.8l-48.1 27.7m-2.5-1c.2.1.5.1.7 0m-.7 0c0 .7.2 1.2.7 1.4m0-1.4c0 1.2.8 1.6 1.8 1m-2.5-57.6c.2.1.5.1.7 0m-.7 0v56.6m.7 0V51.9m1.8-3.2c0-.2-.2-.5-.4-.6m0 0c-1.2.7-2.2 2.4-2.2 3.8m2.6-3.2c-1 .6-1.8 2-1.8 3.1m50.8-31.4c0-.2-.2-.5-.4-.6m0 0l-49 28.3m.4.6l49-28.3m1.8 1.1c.1-.1.2-.1.2-.2m-.8-1.6c-.4-.3-1-.2-1.6.1m2.2 1.7c0-1.2-.8-1.6-1.8-1m1.8 1v15.8m.1 0c0 .1-.1.2-.1.3m0-.3c-.1.1-.1.3-.2.4m.2-.3c0 .1-.1.2-.1.3m.2-.4s0 0 0 0c0-.1 0-.1 0 0"/><path fill="none" stroke="#010202" stroke-width=".4" stroke-linecap="round" stroke-linejoin="round" stroke-miterlimit="10" d="M191.8 37c0 .1 0 .1 0 0 0 .1 0 .1 0 0-.1.1-.1.1 0 0v.1s0 0 0 0 0 0 0 0 0 0 0 0 0 0 0 0m0 31.8v7.9m0 0v.6c0 .1 0 .1-.1.2 0 .1-.1.1-.1.2m-.1-.2l-2.2 3.8m0 0l-.1.1-.1.1-.1.1-.1.1-.1.1m-.1.1l-48 27.8m0 0c-.1.1-.2.1-.3.2-.1 0-.2.1-.4.1h-.8c-.1 0-.2-.1-.3-.1M191 19.7c.1.1.2.1.3.2.1.1.2.2.2.3.1.1.1.2.1.3 0 .1.1.2.1.4v.4m.1 0V37m-.1.3v.3m0-.3c-.1 0-.1 0 0 0m-4.1-14.7L170 32.8m20.9-8.4c0-2.1-1.4-2.9-3.2-1.9m3.2 53.5v-6.6m0-31.4V24.4m-3.3 57.2c1.8-1 3.2-3.5 3.2-5.6m-33.7 23.2l18.1-10.4m3.2-1.9l9.2-5.3m-31 17.4c0 .3.2.4.5.3m-.5-.5v.2m0-.2c0-.3-.2-.5-.5-.3 0 0 0 0 0 0m-1 1.9c.2-.1.5-.5.5-.8m-12.6 7.8l12.1-7m-15.4 5.1c0 2.1 1.4 2.9 3.2 1.9m-3.2-53.5v51.6m3.3-57.1c-1.8 1-3.2 3.5-3.2 5.6M168 33.9l-25 14.5m25.4-14.2c0-.3-.2-.4-.5-.3m.5.4v-.1m0 .1c0 .3.2.5.5.3s.5-.6.5-.9m.1-.1v.1m.5-.9c-.3.1-.5.5-.5.8m24.6 20.9v1m2-18c0-.1 0-.2-.1-.2m-.4-.2l.4.2m-.4-.2c-.1-.1-.2-.1-.4-.1m.9.5l-.9-.5m2.8 4v23.5m0-23.5c0-.1 0-.2-.1-.2m.1 24v-24m0 24c.1-.1.1-.2.1-.3M195.2 37c-.1 0-.2.1-.3.3m3.1 3.5c-.1-.1-.2-.1-.4-.1m-.5.1l.5-.1m-.8-.1c0 .1.1.2.3.2m-.3-.2v24.7m.3-.2c-.2 0-.3.1-.3.3m.3-.3l.5-.1m0 0c.2 0 .3-.1.4-.2m-.2-24.4c-.1-.2-.3-.2-.5-.2m.3.5l-.3-.5m-13.7 26.5l1.6-.9m0 0l.1-.1m.1-.1l-.1.1m-.9.4l1-.6m-1 .6c-.1.1-.2.2-.3.2m-.5.4l.5-.4m13-25.5l-.3-.2m0-.3l.5-.1m-6.6 13.5c0-.2-.1-.2-.3-.2m0 .7l-.5-.3m.8-.2c0 .1 0 .1 0 0 0 .1 0 .1 0 0 0 .1 0 .1 0 0v.1s0 0 0 0v.1s0 0 0 0 0 0 0 0 0 0 0 0 0 0 0 0 0 0 0 0 0 0 0 0 0 0 0 0 0 0 0 0 0 0 0 0 0 0 0 0 0 0 0 0 0 0 0 0 0 0 0 0 0 0 0 0 0 0 0 0 0 0 0 0 0 0 0 0 0 0 0 0 0 0 0 0 0 0 0 0 0 0 0 0 0 0 0 0 0 0 0 0 0 0 0 0m-1.1-1.3l-.8.5m-2 0c.6.3 1.5.3 2 0m-4.3-1.3l2.3 1.3m-2.3-3.4l2.3 1.3m-2.3-1.3v2.1m2.3-.8v2.1m.5-5.2l1-.6m-1 .6l-.6.4m0 0s0 0 0 0m.1 0l.7-.4m0 0s.1-.1.2-.1m.1-.1l-.2.1m.3-.2c-.1 0-.1.1-.2.1m.6-.4l-.4.3m-.9-2.1s0 0 0 0M183.1 66l.5-.5m.3-.2c-.1.1-.2.2-.3.2m.3-.2l.9-.5m3.5-17.5c.1-.1.2-.3.3-.5m-4.1 2.9l.6-.4m1.3 21.3h.1m-.1 0c.3.2.6 0 .6-.3m1.7-1.5s0-.1-.1-.1m.1.1l.3.5m.6-.5l-.6-.4m-.2.3c.1-.1.2-.2.2-.3 0 0 0 0 0 0m.4.7l-.6-.4m.6.4c.1-.1.2-.2.2-.3 0 0 0 0 0 0m-1-.2c0 .1 0 .1 0 0 .1.1.1.1 0 0m1-23.1l-.1-.1m-.5.3V48m.1 2.1l.5.3m0 0v-4.9m-4.5 3.8l2.3 1.3m-.6.4c.6.3 1.5.3 2 0m.8-.6l-.8.5m-1.4-.3c.2.1.4.1.6.1m.9 3.6c.5.1 1.1.1 1.5-.1m-5 1.9c0 .1 0 .2.1.2m-.1-1.5v1.3m.1-1.6c0 .1-.1.2-.1.3m3.5 1.6c.5.1 1.1.1 1.5-.1m0 0s.1 0 0 0c.1 0 .1 0 0 0 .1 0 .1 0 0 0 .1 0 .1 0 0 0 .1 0 .1 0 0 0 .1 0 .1 0 0 0h.1s0 0 0 0 0 0 0 0 0 0 0 0 0 0 0 0 0 0 0 0 0 0 0 0 0 0 0 0 0 0 0 0 0 0 0 0 0 0 0 0 0 0 0 0 0 0 0 0 0 0 0 0 0 0 0 0 0 0 0 0 0 0 0 0 0 0 0 0 0 0 0 0 0 0 0 0 0 0 0 0 0 0 0 0 0 0 0 0 0 0 0 0 0 0 0 0 0 0 0 0 0 0 0 0 0 0 0 0 0 0 0 0 0 0 0 0 0 0 0 0 0 0 0 0 0 0 0 0 0 0 0 0 0 0 0 0 0 0 0 0 0 0 0 0m.2.2v-2.8m-4.9 1.3v1.3m0-1.3l-.4-.2m.4 1.5l-.4-.2m11.4-15.5c0-.8-.5-1.7-1.2-2.1m1.2 2.1h0m-6.3 13l-.9.5m-.6-.4l.6.4m5.8 11.4v-1.4m0 1.4l.2-.1m0 0v-1.3m-.2 0h.2m-9.7-9.3c-.1.1-.1.1-.1.2m0 1.3c0 .1 0 .1.1.2m8.6-18.6c0-.1.1-.1 0 0m0 0l1.1.6m0 0s.1 0 0 0m.1-.1l-1.1-.6M187 69.1c0-.2 0-.3-.1-.5m-.1-21.5c.1-.1.1-.2.1-.3m-3.3 19.9c-.1.1-.1.2-.1.3m0 .1l1.6-1m.1-.3c-.1.1-.1.2-.1.3m-2-.1c-.2.1-.3.4-.3.7m6.2-7.3l.6.4m0 0v-2.3m0 0l-.6-.4m0 0v2.3m0-6.5v.8m.6.4v-1.5m6.4-14.7c.1-.1.1-.3.1-.4m.4.7l-.5-.3m.5.3c.1-.2.1-.5-.1-.6m-.4.3l-.3.5m.4.4s0 0 0 0m.4-.6l-.4.5m-1.2-1.5l-.3.6m-7.8 9.3l-.5.4m0 0c-.1 0-.1 0 0 0m2.4-.8s-.1 0 0 0c-.1 0-.1 0 0 0-.1 0-.1 0 0 0-.1 0-.1 0 0 0-.1 0-.1 0 0 0v.1m0-.1c0-.1 0-.1.1-.2m-1.2.6l1.1-.6m-1.4 1.4c.2-.1.3-.4.3-.7m-4.8 19.5v1.2m1.6-1.8l-.5-.8m1.2.8h0m1.7 2.5l-.5-1.1m0-.3c-.1.1-.1.2-.1.3m.1-.3l.7-.4m0 0s0 0 0 0m-3.5 1.4v.1m0-1.2v1.2m2.9 2.3c.3.2.6 0 .6-.3m-.6.3l-2.2-1.3m5.4-23.8c0-.1-.1-.2-.2-.1m1.3-6h-.1m0-.1s0 0 0 0 0 0 0 0 0 0 0 0 0 0 0 0 0 0 0 0 0 0 0 0c0 .1 0 .1 0 0 0 .1 0 .1 0 0 0 .1 0 .1 0 0 0 .1 0 .1 0 0 0 .1 0 .1 0 0v.1s0 0 0 0 0 0 0 0 0 0 0 0 0 0 0 0 0 0 0 0m-.1.1l.2-.1m-1.2.4c.2-.1.3-.4.4-.6m-.2 1c.2.1.4 0 .6-.3.1-.1.2-.3.2-.4m-1.7 1.2l.9-.5m-.2-.3s0 0 0 0m0 0s0 0 0 0c.1.1.1.1 0 0 .1.1.1.1 0 0 .1.1.1.1 0 0v.1s0 0 0 0 0 0 0 0m.1 0c0 .1 0 .1 0 0m.1.2s0 0 0 0 0 0 0 0c0-.1 0-.1 0 0 0-.1 0-.1 0 0 0-.1 0-.1 0 0 0-.1 0-.1 0 0 0-.1 0-.1 0 0-.1-.1-.1-.1 0 0l-.1-.1m.3-1.3s0 0 0 0 0 0 0 0 0 0 0 0c0 .1 0 .1 0 0 0 .1 0 .1 0 0 0 .1 0 .1 0 0 0 .1 0 .1 0 0 0 .1 0 .1 0 0v.1s0 0 0 0 0 0 0 0 0 0 0 0 0 0 0 0 0 0 0 0 0 0 0 0 0 0 0 0 0 0 0 0 0 0 0 0 0 0 0 0 0 0 0 0 0 0 0 0 0 0 0 0 0 0 0 0m-.4 1c0-.6-.4-1.3-.8-1.7m-.2 2.3l1-.6m-.9.7l1-.6m-.9.6l.9-.5m-1.8.2h.2m0 0l-.1-.1m.1.1l1 .6m.8-2.2s0 0 0 0 0 0 0 0 0 0 0 0 0 0 0 0 0 0 0 0 0 0 0 0 0 0 0 0 0 0 0 0 0 0 0 0 0 0 0 0 0 0 0 0v-.1s0 0 0 0 0 0 0 0m.9.1c-.3-.2-.7-.2-.9 0m.9 0l2.6-1.5m0 0c-.3-.2-.6-.2-.8-.1m-4.4 22.8h0m2.5-20.5l-.1-.1-.1-.1c-.1-.1-.2-.2-.3-.2-.1-.1-.2-.2-.3-.2m.9.6l.8.4m.3-.5v.4m0-.4l-1.1-.6m-7.2 29.6c0 .4.2.8.6 1m0-.1h-.1m10.5-4.2l.7.3m-.7-.2V65m.7.5l-.7-.4m.7.4v-.2m-7.1-1.3s0 0 0 0m-2.7-9.4l-1.9 1.1m2.4 1.4l-2.4-1.4m5.4.9l.3-.1m-5.6 10.7c-.1.1-.1.2-.1.3m4.3-7.8l-.7-.4m.7.4l.3-.2m7.2 5.8h-.1m-.1-.3l.2.3m-.2-.5v.1m0-.3l-.6.4m-7.5 4.1v.4m.4-9.6c.2.1.5.1.7 0m6.3 4.1c-.1.1-.2.2-.2.3m1.8-.8l-.7.4m0 0l.1.2m.2 0l.5-.4m-.1-.2l.1.2m-.9.1l-.2-.1m-.2.1l.4.2m0 0v-.2m-.7-25.9l-1.2-.7m-1 29.6l.2.1m1.6-.9l-1.6.9m.9-1.3l.7.4m-.7-.4l-1.1.6m0 .6c0 .1.1.2.2.1m3.1-1.5l.5-.3m0 0v-1.4m-1 1.3v-1.1m.2 1.4l.1.2m-8-1.3c.1 0 .2.1.3.1m.4-.3c0 .1 0 .1 0 0 0 .1 0 .1 0 0l-.1.1s0 0 0 0 0 0 0 0 0 0 0 0 0 0 0 0 0 0 0 0 0 0 0 0 0 0 0 0 0 0 0 0 0 0 0 0 0 0 0 0 0 0 0 0 0 0 0 0 0 0 0 0 0 0 0 0 0 0 0 0 0 0 0 0 0 0 0 0 0 0 0 0h-.2m6.4 1.9l.2.1m-.2 0c0 .1.1.1.2.1m-2.1-.4v1m1.2-1.2h-.1m.8.5c0-.1-.1-.1-.2-.1m-7.2-1.4c.5.3 1.1.3 1.7.1m-.8-.4l.8.4m-1.1-.5l-.2-.1m-.7.3l.7-.3m-.7.3l.3.2m-.4 6.8L184 70m8.5-14.6c-.1.1-.2.2-.2.3m1.8-1.2c.1-.1.2-.2.2-.3m.2 10.5l.3.1m.3-.2h-.1m0 0c-.1-.1-.3 0-.5.1m.6-.1h-.1m-.5-9.7l.7.3m.1 0h-.1m-.1-.3l.2.3m-.2-.5v.1m0-.3l-.6.4m-2.2 10.9l2.1-1.2m-8 6l-2.4-1.4m10.5-4.5l-.1-.1m-8.3-.8l.7-.4m0 0V62m-.7.1l.4-.2m-.4.2v1.7m.7-1.8v-1.7m0 1.7c.5.3 1.1.3 1.7.1m0 0s0 0 0 0 0 0 0 0 0 0 0 0c.1 0 .1 0 0 0h.1s0 0 0 0 0 0 0 0 0 0 0 0 0 0 0 0 0 0 0 0 0 0 0 0 0 0 0 0 0 0 0 0 0 0 0 0 0 0 0 0 0 0 0 0 0 0 0 0 0 0 0 0m.2 0v-1.8m-2 0c.6.3 1.5.3 2 0m-1.2-14.4l9.2-5.3m-9 2.4l7.8-4.5m-8 7.4c0-.2 0-.5-.1-.7m6.7 10.7l.2.1m-.2-.1c0 .1.1.1.2.1m-6.2 7.7l.7.4m-.8-.1c.1-.1.1-.2.1-.3m.6.7s0 .1 0 0c-.1.1-.1.1 0 0-.1.1-.1.1 0 0-.1.1-.1.1 0 0l-.1.1s0 0 0 0 0 0 0 0 0 0 0 0 0 0 0 0 0 0 0 0 0 0 0 0 0 0 0 0 0 0 0 0 0 0 0 0m.1-.1c.1-.1.1-.2.1-.3m.7 1.7l-.8.5m-2 0c.6.3 1.5.3 2 0m-3.4-.8l1.4.8m-1.4-.8l-.9-2.4m7.8-6.4l.2.1m-.2-.1c0 .1.1.2.2.1m-4.9 13.9l9.2-5.3m-10.4 6c.7.4 1.2.1 1.2-.7m8.9-4.6c.2-.1.4-.4.4-.8m-5.1-25.6c.2-.1.2-.3 0-.4m0 .4l-2 1.2m-.8 0c.2.1.5.1.7 0m.1 15.7c.1 0 .1-.1.2-.2m.5.6l-.7-.4m.7.4c.2-.1.3-.3.3-.5m-1.7 12.8l-.2-.2m.2.2l.3-.2m-.7-.3l.1-.1m-2.5-21.2l.4.8m.9-2.4v1.2m-.6-1.6v.1m0 0v.3m0 0v.8m2.1-1.1c-.1 0-.1.1-.2.2m.1 0l-.3.7m.8-1.1l-.4.2m5 19l-1.6.9m2.9-11.5v1.4m0 0l.2-.1m0 0v-1.4m-.2.1l.2-.1m-.3-.1l.1.2m-.3-.2v1.1m.2.3l.1.2m-.9-.4v-.1m.7.5l-.7-.4m.7.4v-.2m-1.1-.7l-1.6.9m2.5-1.8l-.6.3m1.6-.5l-.7.4m.3.1l.5-.3m-.1-.2l.1.2m-.9.1l-.2-.1m-.2.1l.4.1m0 0v-.1m-6.8 8.4l.5.3m0 0c0-.1 0-.2-.1-.2m5.3-6.3l-1.6.9m.9-1.3l.7.4m-.7-.4l-1.1.6m2.1-2.2c-.1.1-.2.2-.2.3m.1 1.1c.1-.1.2-.2.2-.3m-.2.3l.7.4m0 0c.1-.1.2-.2.2-.3m-9.1 8.4c0 .2.2.5.4.6m.3-1c0 .2.2.5.4.6m8-10.3c0-.1-.1-.2-.2-.1m-6 15.7c0 .1.1.1.2 0m-2.4-2.3l-.5.2m.5-.2l.7-.4m0 0l-.5.2m.3 1.6l-.6-1.1m.6 1.1l1.1-.6m0 0l-.5-.8m-.1-.2c.1.1.1.2.2.2m-.4-.4l.2.2m-.2-.2h-.2m-.6.4c-.1.1-.1.2-.1.3m.9 2.2l1.1-.7m-.1-.2c0-.3-.1-.6-.3-.8m-.7 1.7c0-.3-.1-.7-.3-1.1m-.6-1.1l-.4.2m.2-5.6c-.2-.1-.4 0-.4.2m10-8.5V55m-.5.3l.5-.3m-.8-1.2h-.1m-1.4 1.8l.5-.3m.1.7l.6-.3m-2.7 0v1m1.2-1.2h-.1m.8.4c0-.1-.1-.1-.2-.1m-5 12.6v-2.3m.6-.3v3m-3.5-9.6l1.3.7m-2-.3l.7-.4m-.7.4l1.4.7m2.8-.5l-.8.5m-.7-.4l.9-.5m-4.5 1.6l.9-1.4m-.9 1.4v2.1m2.3 3.2v-1.7m0-2.6l-.3-.1m2.3 4.4v-1.9m-.6-.7v-1.5m.7.2v1.7m5.3.3c.1.1.1.1.2.1m-.1.9c.1-.1.2-.2.2-.3m-.2.3l.7.4m0 0c.1-.1.2-.2.2-.3m-11.1.8l-.5-.8m-.8 2.4c0 .8.5 1.7 1.2 2.1m4.1-6v-1.8m-1.1-2.9v.4m0 2.4V64m1.1-4.1v-.4m-.1-6.2l-1 .6m0 5.5v-5.5m.8 5l-.8.5m.8.3v-.8m1.8-2.2l-.6.4m.6-.6v.2m-.7-2.4v2.3m.5-2.6l-.5.3m-2.1 12.3l-.1.1m.1-.1v-.3m-.1-.1v.5m.2 2.2l-.1.1m0-2.4l.2.2m-.3-.1l-.8.4m.9 1.9l-.9-1.9m2.2-.6v.9m-.3-.9v.3m-.8 2.7c0-.2 0-.3-.1-.5m-2.3-2.6l1.3.7m-1.3-.7l-1 .8m-.1.8v-.5m0 .5c0 .5.3 1 .7 1.3m2.8.2v.7m-1.7-4.5v.3m1.7-20.4v-.1m-1.1 9.3l-2.4-1.4m2.4 1.4v2.3m1.1 13.1v.1m.6-.8v1.2m2-13.2l.9-.5m-.7-.4l-.2.1M187 45.9l-.5-.2m7.3 20l.5-.3m-1.8.1c-.1.1-.2.2-.2.3m3-1.9l-.1.1m-1.1.6c.1-.1.2-.2.2-.3m-10.6-17v.4m0 0h.1m0 .6v-.6m-.1.6v.7m0 0l.1.1m0 .5v-.5m-.1.6v.3m.6.3l-.6-.3m.6.3v1.1m.2.2l-.2-.2m2.7-1.3v.3m0-.3l1.1.6m0-2.1v2.1m0-2.1l-.9-.6m-.5-1.1v.3m.3-.5l-.3.2m1.1.8v.5m-1-1.4l.2-.1m-.2.4v-.3m1 1.4l-.4-.3m.7.7l1-.6m-.4-.2l.4.2m-.4-.2l-.6.4m-.3 0c.1.1.3.1.4 0m-1.5-1.3l.1-.1m1.3.6v.8m1.2-.1v1.7m-.2.4l.2-.4m-1.2.9l1-.5m0-2.2l.2.1m-2.3 5.8l-3.5-2m.8-.5l-.8.5m0 0v1.5m0 2.3v1.7m0 0l3.5 2m-4.2-10.9l.2.2m.8-.4l-.8.4m1.6 17.7l.8-.4m-1.7-8.5v.3m0 0h.1m0 .6v-.6m-.1.6v.8m0 0h.1m0 .5v-.5m-.1.6v.7m0 0l.1.1m0 .5v-.5m-.1.6v.7m0 0l.1.1m0 .5V62m-.1.6v.7m0 0l.1.1m0 .5v-.5m-.1.5v.3m1.6.9l-1.6-.9m1.7 1.8v-.5m0 .5l1.3.7m-3.7-8.4v.5m0-.5l-.2-.2m0 .6v-.6m0 .6l.2.1m.8-.4l-.8.4m.7-1.2l-.9.5m.2.2l.8-.5m-.1-.2s0 0 0 0m-.7 2.1l-.2-.2m.2.2l.8-.5m-.1-.3c0 .1 0 .1 0 0m0 .1l-.9.5m0 .5v-.5m0 .5l.2.2m.8-.5l-.8.5m0-.5v.5m0 2.2l-.2-.1m.2.1l.8-.4m-.1-.3s0 0 0 0m0 0l-.9.6m0 .5v-.5m0 .5l.2.2m.8-.5l-.8.5m0-.6v.6m0 .8l-.2-.1m.2.1l.8-.4m-.1-.3s0 0 0 0m0 0l-.9.6m0 .5v-.5m0 .5l.2.1m.8-.4l-.8.4m0-.5v.5m-.2-15.8V48m.9-.5l-.9.5m.2 1.6l.8-.5m-.8.5v.5m.8-.5l-.8.5m0-1.9l.8-.5m-.8.5v.5m-.2 1.2v-.5m0 .5l.2.2m0-.5l-.2-.2m.9-.5l-.9.5m.9-1.9s0 0 0 0m0 1.3s0 .1 0 0m-.7-.6l-.2-.2m0 13.4v-.5m0 .5l.2.2m0-.5v.5m0-.5l-.2-.2m.2.2l.8-.5m-.1-.3s0 0 0 0m0 .1l-.9.5m1 .2l-.8.5m11.4 4.5l.6-.3m.2-2c0-.1-.1-.2-.2-.1m-6.2-12.8v2.2m6.2 10.6l-.6.3m2.4 1.3v.1m1.2-24.5l-.2-.5m-11.9 16.1l-.4-.2m10.9-18.7l-.4-.3m-9.1 33.2l-.1.1m3.1-32l2.6-1.5"/><path fill="none" stroke="#010202" stroke-width=".4" stroke-linecap="round" stroke-linejoin="round" stroke-miterlimit="10" d="M190.6 39.4c0-.1 0-.1 0 0 0-.1 0-.1 0 0l-.1-.1-.2-.2c-.2-.1-.3-.2-.5-.3m3.7 26.8l.7.4m.9-1.2v-.9m-7.8 7.6l9.2-5.4m-10.3-18.6l.5.8m8.4 6.4v-.9m-1.6 1.7l.7.4m-6.7 10.7l-.5.2m-1.7-1v.2m4.4-9.5v.2M144 81.8v-1.2m-1-.5l1 .5m-1 .6v-1.1m0 1.1l1 .6m0-1.2l1.9-1.1m-.6-.3l.6.3m-2.9.6l.5-.4m2.4-.2v1.2m0 0l-1.9 1.1m9.7-9.5l18.4-10.6m-2.2-1.3l2.2 1.3M151.5 71l18.4-10.6M151.5 71l2.2 1.3m18.4-10.6V83m0 0l-18.4 10.6m-2.2-1.3l2.2 1.3m0 0V72.3m-2.2 20V71m27.9-2.2l1.7-1m-.6-.3l.6.3m-2.3.6l1.7-.9m-1.7.9l.6.4m1.7-1v3.6m0 0l-1.7 1m-.6-.3l.6.3m0 0v-3.6m-.6 3.3v-3.7m-16.3 20.7l1-.6m-.5-.3l.5.3m-1.5.3l.5.3m1-.6v2.2m0 0l-1 .6m-.6-.3l.6.3m0 0v-2.2m-1 .1v-.1m-12.3-6.9l-1 .6m-.7-.5l.7.5m0 0v-2.3m-.7-.4l.7.4m-.7 1.8v-2.2m.7.4l1-.6m-.7-.4l.7.4m-1.7.2l1-.6m.7.4v2.3m22.8 1.4l1-.6m-.9-.5l.9.5m-1.5.3l.5.3m1-.6v2.3m0 0l-1 .6m-1-.6l1 .6m0 0v-2.3m-1 .9v-.9m-22.5 6.2l1-.5m-1-.6l1 .6m-2 0l1-.6m-1 .6l1 .5m1-.5v2.2m0 0l-1 .6m-1-.6l1 .6m0 0v-2.3m-1 1.7v-2.2M173.4 56v1.2m-.1-1.2h.1m0 1.2l-2 1.1m-1-.6l1 .6m0 0v-1.2m-.9-.5l.9.5m-1 .6v-1m1 .4l2-1.1m-2.6.3l.7-.4M151.2 85l-1.1.6m-.9-.5l.9.5m0 0v-2.2m-1-.6l1 .6m-1 .1v-.7m1 .6l1.1-.6m-1.1-.6l1.1.6m-2.1 0l1-.6m1.1.6V85m4.1-18.6v1.2m-1-1.7l1 .5m0 1.2l-1.9 1.1m-1.1-.6l1.1.6m0 0v-1.1m-1.1-.6l1.1.6m-1.1.5V67m1.1.6l1.9-1.2m-3 .6l2-1.1m.4 27.7l1-.6m-.5-.3l.5.3m-1.6.3l.6.3m1-.6v2.3m0 0l-1 .6m-1.1-.6l1.1.6m0 0v-2.3m-1.1 1.7v-.2m0-1.4v-.1m-9.4-.4v-2.6m-1.1-.6l1.1.6m-1.1 2V90m0 2.6l1.1.6m0-2.6l3.1-1.8m-1.1-.6l1.1.6m-4.2 1.2l.5-.3m2.3-1.3l.3-.2m1.1.6v2.7m0 0l-3.1 1.7m6-27l1-.6m-1-.6l1 .6m-2 0l1-.6m-1 .6l1 .6m1-.6v2.2m0 0l-1 .6m-1-.6l1 .6m0 0v-2.2m-1 1.6v-2.2m24.5-15v1.2m-.6-1.6l.6.4m0 1.2l-1.9 1.1m-1-.6l1 .6m0 0v-1.2m-1-.6l1 .6m0 0l1.9-1.1m-2.9.5l.7-.4M159.3 95v-1.2m-.6-.3l.6.3m-.8.8v-1m0 1l.8.4m0-1.2l1.9-1.1m-.7-.4l.7.4m-2.4.5l.4-.2m1.2-.7h.1m.7.4v1.2m0 0l-1.9 1.1m16.4-42.4v2m-1.7-3l1.7 1m0 2l-3.2 1.9m-1.7-1l1.7 1m0 0v-2m-1.7-1l1.7 1m-1.7-.3v-.7m1.7 1l3.2-1.9m-4.9.9l1-.6m1.9-1.1l.3-.2m-.6 12.4l-1 .6m-.3-.2l.3.2m0 0v-2.2m-.3-.2l.3.2m0 0l1-.6m-1-.6l1 .6m-1.5-.3l.5-.3m1 .6V64m-5-3.9v-1.2m-1-.6l1 .6m-1 .6v-1.2m0 1.2l1 .6m0-1.2l1.9-1.1m-1-.6l1 .6m-2.9.5l1.9-1.1m1 .6v1.1m0 0l-1.9 1.2m-18.4-1l1-.6m-.8-.4l.8.4m-1.8.2l1-.6m-1 .6l.8.4m1-.6v2.2m0 0l-1 .6m-.8-.4l.8.4m0 0v-2.2m-.8 1.8v-2.2m23.3 10v-1.1m-.4-.3l.4.3m-.4.9l.4.2m0-1.1l2-1.2m-1.1-.5l1.1.5m-2.4.2l1.3-.7m1.1.5v1.2m0 0l-2 1.1m-11.1-5.8v1.2m-1-1.8l1 .6m0 1.2l-2 1.1m-1-.6l1 .6m0 0V64m-1-.5l1 .5m-1 .6v-1.1m1 .5l2-1.1m-3 .6l2-1.2m-10.5 13.3l1-.5m-.8-.5l.8.5m-1.8.1l1-.6m-1 .6l.8.4m1-.5v2.2m0 0l-1 .6m-.7-.4l.7.4m0 0v-2.3m-.8.4v-.8m-1.5 4l-1.1.6m-.7-.4l.7.4m0 0v-2.2m-.7-.5l.7.5m-.7 1.8v-.6m0-1.1v-.6m.7.5l1.1-.6m-.8-.5l.8.5m-1.8.1l1-.6m.8.5v2.2m-3.7.7v-1.1m-1-.6l1 .6m-1 .6v-1.2m0 1.2l1 .5m0-1.1l1.9-1.1m-1-.6l1 .6m-2.9.5l1.9-1.1m1 .6v1.1m0 0l-1.9 1.1m21.2 9.9l-1 .6m-.6-.3l.6.3m0 0v-2.2m-.6-.3l.6.3m-1.1 0h0m1.1 0l1-.6m-.5-.3l.5.3m0 0v2.2m-15-.9l1.1-.6m-1.1-.6l1.1.6m-2.1 0l1-.6m-1 .6l1 .6m1.1-.6v2.2m0 0l-1.1.6m-.6-.4l.6.4m0 0v-2.2m-1 .1v-.7m26.5-11.2v1.1m-.8-1.5l.8.4m0 1.1l-2 1.2m-.7-.5l.7.5m0 0v-1.2m-.7-.4l.7.4m-.7.3v-.7m.7.4l2-1.1m-2.7.7l1.9-1.1m5.7-.2l-1.1.6m-1-.6l1 .6m0 0v-2.3m-1-.5l1 .5m-1 .6v-1.1m1 .5l1.1-.5m-1.1-.6l1.1.6m-2.1 0l1-.6m1.1.6v2.2M171 89l-4.8 2.8m-1.1-.7l1.1.7m0 0v-4.5m-.8-.5l.8.5m-1.1 3.8V87m1.1.3l4.8-2.7m-.8-.5l.8.5m0 0V89m12.6-14.3l-1 .6m-.6-.3l.6.3m0 0V73m-1-.6l1 .6m-1 .1v-.7m1 .6l1-.6m-1-.5l1 .5m-2 0l1-.5m1 .5v2.3m-25.8 17.1l1-.6m-.5-.3l.5.3m-1.5.3l.5.3m1-.6v2.3m0 0l-1 .5m-.3-.1l.3.1m0 0v-2.2m3.4 2.7v1.2m-.6-1.5l.6.3m0 1.2l-1.9 1.1m-.8-.4l.8.4m0 0v-1.2m-.8-.4l.8.4m-.8.8v-1.2m.8.4l1.9-1.1m-2.7.7l.6-.3M148 84.5v2m-1.3-2.8l1.3.8m0 2l-3.2 1.8m-1.8-1l1.8 1m0 0v-2m-1.8-1l1.8 1m-1.8 1v-2m1.8 1l3.2-1.8m-5 .8l.8-.4m28.1-34v-2.2m-.9-.6l.9.6m-.9 1.7v-2.3m0 2.3l.9.5m0-2.2l1.5-.9m-.9-.6l.9.6m-2.4.3l1.5-.9m.9.6V50m0 0l-1.5.9m-15.5 46.5v-1.3m-1.1-.6l1.1.6m-1.1.7v-1.3m0 1.3l1.1.6m0-1.3l2.1-1.1m-1-.6l1 .6m-3.2.5l.8-.4m2.4-.1v1.3m0 0l-2.1 1.1m-5.2-16l-1.1.6m-.9-.6l.9.6m0 0v-2.3m-1-.5l1 .5m-1 .2v-.7m1 .5l1.1-.5m-1.1-.6l1.1.6m-2.1 0l1-.6m1.1.6v2.2m27.2 3.5v2m-1.4-2.8l1.4.8m0 2l-3.2 1.9m-1.7-1l1.7 1m0 0v-2m-1.7-1l1.7 1m-1.7 1v-2m1.7 1l3.2-1.9m-4.9.9l.5-.3m1.3-28.2l-1 .6m-1-.6l1 .6m0 0v-2.2m-.2-.1l.2.1m-1 1.6v-.1m1-1.5l1-.6m-.2-.1l.2.1m0 0v2.2M144 89.9v-1.2m-1-.6l1 .6m-1 .6v-1.2m0 1.2l1 .6m0-1.2l.7-.4m-1.7-.2l.7-.4m2.2 0v1.1m0 0l-1.9 1.1m19.4 4.4l-1 .6m-1-.6l1 .6m0 0v-2.2m-1-.6l1 .6m-1 1.6v-2.2m1 .6l1-.6m-1-.6l1 .6m-2 0l1-.6m1 .6v2.2m13.1-31.7l-1.8 1m-1.3-.7l1.3.7m0 0v-3.7m-1.3-.7l1.3.7m-1.7 1.6v-.6m1.7-1l1.8-1m-1.8-1l1.8 1m-3.1-.3l1.3-.7m1.8 1v3.7m-7.5-5.3l-14.8 8.5m-2.2-1.2l2.2 1.2m0 0v-17m-2.2-1.3l2.2 1.3M152 64.6V47.5m2.2 1.3l14.8-8.5m-2.2-1.3l2.2 1.3m-17 7.2l14.8-8.5m2.2 1.3v17M152.1 68v1.2m-.8-1.6l.8.4m0 1.2l-2 1.1m-.7-.5l.7.5m0 0v-1.2m-.7-.4l.7.4m-.7.7v-1.1m.7.4l2-1.1m-2.7.7l.6-.4m1.2-.7h.1m28.8 12.6l2.7-1.6m-2-1.1l2 1.1m-3.8-.1l1.8-1m-1.8 2.1l1.1.6m2.7-1.6v4.7m0 0l-2.7 1.5m-2-1.1l2 1.1m0 0v-4.6m-2 3.5v-.3M148 92.5v2.1m-1.3-2.8l1.3.7m0 2.1l-3.2 1.8m-1.8-1l1.8 1m0 0v-2m-1.8-1l1.8 1m-1.8 1v-2m1.8 1l3.2-1.9m-5 .9l.8-.4m27-36.6l-1 .6m-.8-.4l.8.4m0 0v-2.2m-.8-.5l.8.5m0 0l1-.6m-1-.6l1 .6m-1.8-.1l.8-.5m1 .6v2.2m5.4 13.5l1.7-1m-1.7-1l1.7 1m-3.4 0l1.7-1m-1.7 1l1.7 1m1.7-1v3.7m0 0l-1.7 1m-1.3-.7l1.3.7m0 0v-3.7m-1.7 1.8v-.4m0-1.1v-.9M150.7 86v1.2m-.7-1.6l.7.4m0 1.2l-1.9 1.1m-.8-.4l.8.4m0 0v-1.2m-.8-.4l.8.4m-.8.8v-1.2m.8.4l1.9-1.1m-2.7.7l2-1.1m17.1-26.3v1.2m-.7-1.6l.7.4m0 1.2l-1.9 1.1m-.8-.4l.8.4m0 0v-1.2m-.8-.4l.8.4m-.8.8V60m.8.4l1.9-1.1m-2.7.7l2-1.1m8.1-10c-.4.2-.8.8-.8 1.3s.3.7.7.5c.4-.2.8-.8.8-1.3 0-.1 0-.2-.1-.3"/><path fill="none" stroke="#010202" stroke-width=".4" stroke-linecap="round" stroke-linejoin="round" stroke-miterlimit="10" d="M174.4 48.8c-.4.2-.8.8-.8 1.3 0 .2.1.4.2.5m0 0l.1.1m-24.3-.9c.4.2.9-.1 1.3-.8.4-.6.4-1.3 0-1.5-.4-.2-.9.1-1.3.8-.3.6-.3 1.3 0 1.5"/><path fill="none" stroke="#010202" stroke-width=".4" stroke-linecap="round" stroke-linejoin="round" stroke-miterlimit="10" d="M150.8 47.5c-.4-.2-.9.1-1.3.8-.4.6-.4 1.3 0 1.5m1.3-2.3h.1m-1.4 2.2l.1.1m30.7 14.1l1.3.8m-2.2-1.3l.9.5m1.3.8l-1.1 1.9m0 0l-1.3-.7m-.9-.6l.9.6m0 0l1.1-2m-2 1.4l1.1-1.9m-4.5 10.8l-1 .5m-.6-.3l.6.3m0 0v-2.2m-.7-.4l.7.4m-1 .2v-.5m1 .3l1-.6m-.7-.4l.7.4m0 0v2.3m-30.7 11v-2.7m-1.1-.6l1.1.6m-1.1 2v-2.6m0 2.6l1.1.7m0-2.7l3.1-1.8m-1.1-.6l1.1.6m-4.2 1.2l.5-.3m2.3-1.3l.3-.2m1.1.6v2.7m0 0l-3.1 1.8m5.8-14l1-.6m-.8-.4l.8.4m-1.8.2l.9-.5m-.9.5l.8.4m1-.6v2.3m0 0l-1 .6m-.8-.5l.8.5m0 0v-2.3m-.8 1.8v-2.2M170.9 40l-1 .6m-1.1-.6l1.1.6m0 0v-2.2m-1.1-.6l1.1.6m-1.1 1.6v-2.2m1.1.6l1-.6m-1-.6l1 .6m-2.1 0l1.1-.6m1 .6V40m4 9.2v-2.3m-.9-.5l.9.5m-.9 1.7v-2.2m0 2.2l.9.6m0-2.3l.5-.3m-1.4-.2l.5-.3m2 1.1v1m0 0l-1.6 1M151 57.4l-1 .6m-.8-.4l.8.4m0 0v-2.2m-.8-.4l.8.4m-.8 1.8v-2.2m.8.4l1-.6m-.8-.4l.8.4m-1.8.2l1-.6m.8.4v2.2m27.4 18v1.2m-.7-1.6l.7.4m0 1.2l-1.9 1.1m-.7-.4l.7.4m0 0v-1.2m-.7-.4l.7.4m-.7.8v-1.2m.7.4l1.9-1.1m-2.6.7l1.9-1.1m-28.5 3.2l-1 .6m-.6-.3l.6.3m0 0v-2.2m-.7-.4l.7.4m-.7.3v-.7m.7.4l1-.6m-.7-.4l.7.4m-1.7.2l1-.6m.7.4v2.2m4.6 17.5v1.2m-.6-1.6l.6.4m0 1.2l-1.9 1.1m-1-.6l1 .6m0 0v-1.2m-1-.6l1 .6m-1 .6v-1.2m1 .6l1.9-1.1m-2.9.5l.6-.3m7.9-5l1-.6m-.5-.3l.5.3m-1.6.3l.6.3m1-.6v2.3m0 0l-1 .5m-.6-.3l.6.3m0 0v-2.2m-1.1.1v-.1m23.1-39.4l-2 1.2m-1-.6l1 .6m0 0v-3.8m-1 3.2v-3.8m3 .3v2.9m-27.6 42.3V95m-1-1.8l1 .6m0 1.2l-1.9 1.1m-1-.6l1 .6m0 0v-1.2m-1-.6l1 .6m-1 .6v-1.2m1 .6l1.9-1.1m-2.9.5l1.9-1.1m9.7-29.7v-1.2m-1-.6l1 .6m-1 .6v-1.2m0 1.2l1 .6m0-1.2l1.9-1.1m-1-.6l1 .6m-2.9.5l1.9-1.1m1 .6v1.1m0 0l-1.9 1.2m9.8 10l1-.6m-.8-.5l.8.5m-1.2-.5l.2-.1m-.2 1.1l.2.1m1-.6v2.2m0 0l-1 .6m-.2-.1l.2.1m0 0v-2.2m7.9-24.1v-6.6m-8.9-5.1l8.9 5.1m-8.9 1.5v-6.6m0 6.6l8.9 5.1m0-6.6l7.6-4.5m-8.8-5.1l8.8 5.1m-16.5-.6l7.7-4.5m8.8 5.1v6.6m0 0l-7.6 4.5M169.9 42l1-.6m-1-.6l1 .6m-1.9-.1l.9-.5m-.9.7l.9.5m1-.6v2.2m0 0l-1 .6m-.9-.5l.9.5m0 0V42m-13.5 25v-1.2m-1-.6l1 .6m-1 .6v-1.2m0 1.2l1 .6m0-1.2l1.9-1.1m-1-.6l1 .6m-2.9.5l1.9-1.1m1 .6v1.2m0 0l-1.9 1.1m4.5 23l1-.6m-.5-.3l.5.3m-1.5.3l.5.3m1-.6v2.3m0 0l-1 .5m-.5-.3l.5.3m0 0V90m-1 .1V90M182 75.6l-1 .6m-.5-.3l.5.3m0 0v-2.3m-1-.5l1 .5m-1 .1v-.6m1 .5l1-.5m-1-.6l1 .6m-2 0l1-.6m1 .6v2.2m-9.9 3.4l.8-.5m-.7-.4l.7.4m-.8-.4h.1m.7.4v2.2m0 0l-.8.5m-15.8 11.6l1.2-.7m-.6-.4l.6.4m-1.8.3l.6.4m1.2-.7v2.4m0 0l-1.2.7m-.6-.4l.6.4m0 0v-2.4m-5.1-28.5l-1 .6m-1-.6l1 .6m0 0v-2.2m-1-.6l1 .6m-1 1.6v-2.2m1 .6l1-.6m-1-.6l1 .6m-2 0l1-.6m1 .6v2.2M179 82.9l-4.8 2.8M173 85l1.2.7m0 0v-4.5m-1.3-.8l1.3.8m-1.4 1.7v-2.1m1.4.4l4.8-2.8m-1.5-.8l1.5.8m-6.1 1.9l4.6-2.7m1.5.8v4.5m-6.5-10.5v-1.1m-.4-.3l.4.3m-.4.9l.4.2m0-1.1l2-1.1m-.8-.5l.8.5m-2.4.1h.2m2.2-.1v1.1m0 0l-2 1.1m0-2v-1.1m-.4-.3l.4.3m-.4.9l.4.2m0-1.1l2-1.2m-.5-.2l.5.2m0 0v1.2m0 0l-2 1.1m-.1-11.4l1-.6m-1-.6l1 .6m-2 0l1-.6m-1 .6l1 .6m1-.6v2.2m0 0l-1 .6m-1-.6l1 .6m0 0V59m-1 1.6v-2.2m-15.5 38.8v2m-1.7-3l1.7 1m0 2l-3.2 1.9m-1.7-1l1.7 1m0 0v-2m-1.7-1l1.7 1m-1.7 1v-2m1.7 1l3.2-1.9m-4.9.9l.5-.3m2.3-1.4l.4-.2m-3.6-4.7v1.2m-.7-1.6l.7.4m0 1.2l-1.9 1.1m-.7-.4l.7.4m0 0v-1.2m-.8-.4l.8.4m-.8-.1v-.3m.8.4l1.9-1.1m-2.7.7l.4-.2m1.2-.7l.4-.2m20.9-41.8l-1 .6m-.8-.5l.8.5m0 0v-2.2m-.8-.5l.8.5m0 0l1-.6m-1-.6l1 .6m-1.8-.2l.8-.4m1 .6v2.2m13.4 23.8c.4.2.9-.1 1.3-.8.4-.6.4-1.3 0-1.5-.4-.2-.9.1-1.3.8-.4.6-.4 1.3 0 1.5"/><path fill="none" stroke="#010202" stroke-width=".4" stroke-linecap="round" stroke-linejoin="round" stroke-miterlimit="10" d="M185.4 70.8c-.4-.2-.9.1-1.3.8-.4.6-.4 1.3 0 1.5m1.3-2.3l.1.1m-1.4 2.2h.1m-35 12.7l-1 .6m-.2-.1l.2.1m0 0v-2.2m-.7-.5l.7.5m-.7 0v-.5m.7.5l1-.6m-.7-.5l.7.5m-1.7.1l1-.6m.7.5v2.2m21.6-33l-1 .6m-.8-.4l.8.4m0 0v-2.2m-.8-.5l.8.5m0 0l1-.6m-1-.6l1 .6m-1.8-.1l.8-.5m1 .6v2.2m-13.4 45.7l-.4-.2m.4.2c-.1-.5-.5-.7-1-.3-.1.1-.3.2-.4.4m-.4.9v.1m1.8-1s0 0 0 0m0 0h.2m28.2-16.3l-7.4 4.2m-3.5 2.1l-17.3 10m32.9-73.3v1.1m0 3.4v8.4m0 31.4v4.5m-2.7-50.4l-.4-.2m3.1 1.8c0-1.8-1.2-2.5-2.8-1.6m-17.2 10l-.3-.3m.3.3l17.3-10m-17.5 10.2l-.3-.3m.5.1c-.1 0-.1.1-.2.2m0 .1l-.4-.2m.4.2s0-.1.1-.1m-2 1.1l-.3-.2m.3.2c.1.5.5.7 1 .3.4-.3.7-.8.8-1.3m-1.8 1l-.4-.2m.4.2s0 0 0 0m-.2 0l-.4-.2m.6.2h-.2m-24.6 14.2l-.4-.2m.4.2L168.2 35m-27.4 19l-.4-.2m3.2-4.6c-1.5.9-2.8 3-2.8 4.8m0 51.1l-.4-.2m.4.2V54m0 51.1c0 1.8 1.2 2.5 2.8 1.6m11.7-6.8l-7.9 4.5m-2.9 1.7l-.9.6m11.7-6.8c.1 0 .1-.1.2-.2m0-.1s0 .1-.1.1m34.3-76.2l-.3-.2m-47.8 83.6l-.4-.2m7.9-9.1c-.8-1.7-3-1.4-4.9.7-1.9 2.1-2.7 5.1-1.9 6.8.4.7 1 1.1 1.9 1.1"/><path fill="none" stroke="#010202" stroke-width=".4" stroke-linecap="round" stroke-linejoin="round" stroke-miterlimit="10" d="M144.4 105c1.1.6 2.8-.4 3.8-2.2 1.1-1.8 1.1-3.8 0-4.4-1.1-.6-2.8.4-3.8 2.2-1 1.8-1 3.8 0 4.4"/><path fill="none" stroke="#010202" stroke-width=".4" stroke-linecap="round" stroke-linejoin="round" stroke-miterlimit="10" d="M144.8 104.3c.8.5 2.2-.3 3-1.8.8-1.5.8-3 0-3.5s-2.2.3-3 1.8c-.8 1.5-.8 3.1 0 3.5"/><path fill="none" stroke="#010202" stroke-width=".4" stroke-linecap="round" stroke-linejoin="round" stroke-miterlimit="10" d="M144.2 102.8c.1 1.2 1 1.6 2 .9 1.1-.7 1.9-2.2 1.8-3.4-.1-1.1-.8-1.5-1.8-1"/><path fill="none" stroke="#010202" stroke-width=".4" stroke-linecap="round" stroke-linejoin="round" stroke-miterlimit="10" d="M149.1 97.6c-.2-.4-.4-.7-.7-.9-.3-.2-.6-.3-.9-.4-.3-.1-.7-.1-1.1 0-.4.1-.8.3-1.2.5-.4.3-.9.6-1.2 1-.4.4-.7.8-1.1 1.3-.3.5-.6 1-.8 1.5-.2.5-.4 1.1-.5 1.6-.1.5-.1 1 0 1.5s.2.9.4 1.3c.2.3.5.6.8.8.3.2.6.3.9.3h.5m0 .1c.4 0 .8-.1 1.2-.3.5-.2.9-.5 1.3-.8l1.2-1.2c.4-.5.7-1 .9-1.5.2-.5.4-1.1.6-1.6.1-.6.2-1.1.1-1.7 0-.5-.2-1-.4-1.4m41.3-23.9c-.8-1.7-3-1.4-4.9.7-1.9 2.1-2.7 5.1-1.9 6.8.4.7 1 1.1 1.9 1.1"/><path fill="none" stroke="#010202" stroke-width=".4" stroke-linecap="round" stroke-linejoin="round" stroke-miterlimit="10" d="M189.6 74.5c-1.1-.6-2.8.4-3.8 2.2-1.1 1.8-1.1 3.8 0 4.4 1.1.6 2.8-.4 3.8-2.2 1-1.8 1-3.7 0-4.4"/><path fill="none" stroke="#010202" stroke-width=".4" stroke-linecap="round" stroke-linejoin="round" stroke-miterlimit="10" d="M189.2 75.2c-.8-.5-2.2.3-3 1.8-.8 1.5-.8 3 0 3.5s2.2-.3 3-1.8c.8-1.4.8-3 0-3.5"/><path fill="none" stroke="#010202" stroke-width=".4" stroke-linecap="round" stroke-linejoin="round" stroke-miterlimit="10" d="M185.5 79c.1 1.2 1 1.6 2 .9 1.1-.7 1.9-2.2 1.8-3.4-.1-1.1-.8-1.5-1.8-1"/><path fill="none" stroke="#010202" stroke-width=".4" stroke-linecap="round" stroke-linejoin="round" stroke-miterlimit="10" d="M190.4 73.8c-.2-.4-.4-.7-.7-.9-.3-.2-.6-.3-.9-.4-.3-.1-.7-.1-1.1 0-.4.1-.8.3-1.2.5-.4.3-.9.6-1.2 1-.4.4-.7.8-1.1 1.3-.3.5-.6 1-.8 1.5-.2.5-.4 1.1-.5 1.6-.1.5-.1 1 0 1.5s.2.9.4 1.3c.2.3.5.6.8.8.3.2.6.3.9.3h.5"/><path fill="none" stroke="#010202" stroke-width=".4" stroke-linecap="round" stroke-linejoin="round" stroke-miterlimit="10" d="M185.5 82.3c.4 0 .8-.1 1.2-.3.5-.2.9-.5 1.3-.8l1.2-1.2c.4-.5.7-1 .9-1.5.2-.5.4-1.1.6-1.6.1-.6.2-1.1.1-1.7 0-.5-.2-1-.4-1.4M149.1 50c-.8-1.7-3-1.4-4.9.7-1.9 2.1-2.7 5.1-1.9 6.8.4.7 1 1.1 1.9 1.1"/><path fill="none" stroke="#010202" stroke-width=".4" stroke-linecap="round" stroke-linejoin="round" stroke-miterlimit="10" d="M148.3 50.7c-1.1-.6-2.8.4-3.8 2.2-1.1 1.8-1.1 3.8 0 4.4 1.1.6 2.8-.4 3.8-2.2 1-1.8 1-3.8 0-4.4"/><path fill="none" stroke="#010202" stroke-width=".4" stroke-linecap="round" stroke-linejoin="round" stroke-miterlimit="10" d="M147.9 51.4c-.8-.5-2.2.3-3 1.8-.8 1.5-.8 3 0 3.5s2.2-.3 3-1.8c.8-1.4.8-3 0-3.5"/><path fill="none" stroke="#010202" stroke-width=".4" stroke-linecap="round" stroke-linejoin="round" stroke-miterlimit="10" d="M144.2 55.2c.1 1.2 1 1.6 2 .9 1.1-.7 1.9-2.2 1.8-3.4-.1-1.1-.8-1.5-1.8-1"/><path fill="none" stroke="#010202" stroke-width=".4" stroke-linecap="round" stroke-linejoin="round" stroke-miterlimit="10" d="M149.1 50c-.2-.4-.4-.7-.7-.9-.3-.2-.6-.3-.9-.4-.3-.1-.7-.1-1.1 0-.4.1-.8.3-1.2.5-.4.3-.9.6-1.2 1-.4.4-.7.8-1.1 1.3-.3.5-.6 1-.8 1.5-.2.5-.4 1.1-.5 1.6-.1.5-.1 1 0 1.5s.2.9.4 1.3c.2.3.5.6.8.8.3.2.6.3.9.3h.5"/><path fill="none" stroke="#010202" stroke-width=".4" stroke-linecap="round" stroke-linejoin="round" stroke-miterlimit="10" d="M144.2 58.5c.4 0 .8-.1 1.2-.3.5-.2.9-.5 1.3-.8l1.2-1.2c.4-.5.7-1 .9-1.5.2-.5.4-1.1.6-1.6.1-.6.2-1.1.1-1.7 0-.5-.2-1-.4-1.4m41.3-23.9c-.8-1.7-3-1.4-4.9.7-1.9 2.1-2.7 5.1-1.9 6.8.4.7 1 1.1 1.9 1.1"/><path fill="none" stroke="#010202" stroke-width=".4" stroke-linecap="round" stroke-linejoin="round" stroke-miterlimit="10" d="M185.7 33.5c1.1.6 2.8-.4 3.8-2.2 1.1-1.8 1.1-3.8 0-4.4-1.1-.6-2.8.4-3.8 2.2-1 1.8-1 3.8 0 4.4"/><path fill="none" stroke="#010202" stroke-width=".4" stroke-linecap="round" stroke-linejoin="round" stroke-miterlimit="10" d="M186.1 32.8c.8.5 2.2-.3 3-1.8.8-1.5.8-3 0-3.5s-2.2.3-3 1.8c-.8 1.5-.8 3.1 0 3.5"/><path fill="none" stroke="#010202" stroke-width=".4" stroke-linecap="round" stroke-linejoin="round" stroke-miterlimit="10" d="M185.5 31.3c.1 1.2 1 1.6 2 .9 1.1-.7 1.9-2.2 1.8-3.4-.1-1.1-.8-1.5-1.8-1"/><path fill="none" stroke="#010202" stroke-width=".4" stroke-linecap="round" stroke-linejoin="round" stroke-miterlimit="10" d="M190.4 26.1c-.2-.4-.4-.7-.7-.9-.3-.2-.6-.3-.9-.4-.3-.1-.7-.1-1.1 0-.4.1-.8.3-1.2.5-.4.3-.9.6-1.2 1-.4.4-.7.8-1.1 1.3-.3.5-.6 1-.8 1.5-.2.5-.4 1.1-.5 1.6-.1.5-.1 1 0 1.5s.2.9.4 1.3c.2.3.5.6.8.8.3.2.6.3.9.3h.5m0 .1c.4 0 .8-.1 1.2-.3.5-.2.9-.5 1.3-.8l1.2-1.2c.4-.5.7-1 .9-1.5.2-.5.4-1.1.6-1.6.1-.6.2-1.1.1-1.7 0-.5-.2-1-.4-1.4m-3 55.8c2-1.2 3.7-4 3.7-6.4m-51.6 29.8c0 2.4 1.6 3.3 3.7 2.1m0-59.5c-2 1.2-3.7 4-3.7 6.4m51.6-29.9c0-2.4-1.7-3.3-3.7-2.1m0 59.6l-44.2 25.5m0-59.5l44.2-25.6m-47.9 83V54.3m51.6-29.8v13.4m0 31.3v6.4"/><g fill="none" stroke="#010202" stroke-width=".4" stroke-linecap="round" stroke-linejoin="round" stroke-miterlimit="10"><path d="M6 98.7c0 .1.1.2.1.2m0 0c0 .5.2 1 .5 1.2m-.6-58c0 .1.1.2.1.2m0 56.6V42.3m1.8-3.1c-.1-.1-.2-.1-.3 0m.3 0c-1 .6-1.8 2-1.8 3.2M57 10.9c-.1-.1-.2-.1-.3 0M7.9 39.2L57 10.9m1.2-.2c-.3-.2-.8-.1-1.3.1"/><path d="M6.6 100.1c-.1-.1-.2-.1-.2-.2-.1-.1-.1-.2-.2-.3-.1-.1-.1-.2-.1-.3-.1 0-.1-.1-.1-.2v-.3m0-.1V42.1m0 0c0-.2 0-.5.1-.7.1-.2.1-.5.2-.7.1-.2.2-.4.4-.6.1-.2.3-.4.5-.6.2-.2.4-.3.6-.4m-.1 0l49-28.3m0 0c.1-.1.2-.1.3-.1.1 0 .2-.1.3-.1h.6c.1 0 .2.1.3.1m16.8 26s-.1.2-.2.3m0 0s.1 0 0 0m.1 0s0 0 0 0m0 0h0m-.1 39.7c.1-.1.2-.1.2-.2m-.2-7.8v8m-.1.6l-.1-.1m0 0c.1-.2.2-.4.2-.5m-2.3 4.4h-.1m2.2-3.9l-2.2 3.9m-.5.6c.1 0 .1-.1.1-.2m0 0c.1-.1.3-.2.4-.4m-48.5 28.4c.1 0 .1-.1.1-.2m48-27.8l-48 27.7m-2.6-1c.2.1.5.1.7 0m-.7 0c0 .7.2 1.2.7 1.4m.1-1.4c0 1.2.8 1.6 1.8 1m-2.6-57.6c.2.1.5.1.7 0m-.7 0v56.6m.8 0V51.6m1.8-3.1c0-.2-.2-.5-.4-.6m0-.1c-1.2.7-2.2 2.4-2.2 3.8m2.6-3.1c-1 .6-1.8 2-1.8 3.1M73 20.2c0-.2-.2-.5-.4-.6m0-.1l-49 28.3m.4.7l49-28.3m1.8 1c.1-.1.2-.1.2-.2m-.8-1.6c-.4-.3-1-.2-1.6.1m2.2 1.7c0-1.2-.8-1.6-1.8-1m1.8 1V37m.1 0c0 .1-.1.2-.1.3m0-.3c-.1.1-.1.3-.2.4m.2-.3c0 .1-.1.2-.1.3m.2-.4s0 0 0 0 0 0 0 0"/><path d="M75 36.7c0 .1 0 .1 0 0-.1.1-.1.1 0 0-.1.1-.1.1 0 0v.1s0 0 0 0 0 0 0 0 0 0 0 0 0 0 0 0m0 31.8v7.9m0 0v.6c0 .1 0 .1-.1.2 0 .1 0 .1-.1.2m-.1-.2l-2.2 3.8m0 0l-.1.1-.1.1-.1.1-.1.1-.1.1m-.1.1l-48 27.8m0 0c-.1.1-.2.1-.3.2-.1 0-.2.1-.4.1h-.8c-.1 0-.2-.1-.3-.1m52.1-90.3c.1.1.2.1.3.2.1.1.2.2.2.3.1.1.1.2.1.3 0 .1.1.2.1.4v.4m.1 0v15.7m-.1.3v.3m0-.3c-.1 0-.1.1 0 0m-3.6-18.3l1.3.8M22.3 47l49-28.3M22.3 47l1.3.8m49.3-29.2c-.4-.3-1-.2-1.6.1m-51.2 88.8l1.3.7m-1.3-.7c0 .7.2 1.2.7 1.4m-.7-58l1.3.7m-1.3 55.9V50.9m2.2-3.9c-1.2.7-2.2 2.4-2.2 3.8m54.1-31.4l-1.3-.8m-50.8 91l-1.3-.7m50-86.6L53.2 32.5M74 24.1c0-2.1-1.4-2.9-3.2-1.9M74 75.7v-6.6m0-31.4V24.1m-3.2 57.2c1.8-1 3.2-3.5 3.2-5.6M40.3 98.9l18.1-10.4m3.2-1.9l9.2-5.3m-31 17.4c0 .3.2.4.5.3m-.5-.5v.2m0-.2c0-.3-.2-.5-.5-.3 0 0 0 0 0 0m-1 1.9c.2-.1.5-.5.5-.8m-12.6 7.8l12.1-7m-15.4 5.1c0 2.1 1.4 2.9 3.2 1.9m-3.2-53.4v51.5m3.3-57.1c-1.8 1-3.2 3.5-3.2 5.6m28.2-20.1l-25 14.5m25.4-14.2c0-.3-.2-.4-.5-.3m.5.4v-.1m0 .1c0 .3.2.5.5.3s.5-.6.5-.9m.1-.1v.1m.5-.9c-.3.1-.5.5-.5.8M20.1 50.9l-14-8.6M22.3 47L7.9 39.2m12.2 68.3l-14-8.6m65.2-80.2L57 10.9M6.6 100.1l14.1 8.8m37.5-98.2l14.7 7.9m4.4 35.6v1m2-18c0-.1 0-.2-.1-.2m-.4-.2l.4.2m-.4-.2c-.1-.1-.2-.1-.4-.1m.9.5l-.9-.5m2.8 4v23.5m0-23.5c0-.1 0-.2-.1-.2m0 24v-24m0 24c.1-.1.1-.2.1-.3m-2.8-27.5c-.1 0-.2.1-.3.3m3 3.5c-.1-.1-.2-.1-.4-.1m-.4.1l.4-.1m-.7-.1c0 .1.1.2.3.2m-.3-.2v24.8m.3-.3c-.2 0-.3.1-.3.3m.3-.3l.4-.1m0 0c.2 0 .3-.1.4-.2M81 40.1c-.1-.2-.3-.2-.5-.2m.2.5l-.2-.5M66.8 66.5l1.6-1m0 0l.1-.1m.1 0h-.1m-.9.4l1-.6m-1 .6c-.1.1-.2.2-.3.2m-.5.5l.5-.5m13-25.5l-.3-.2m0-.3l.5-.1m-6.6 13.6c0-.2-.1-.2-.3-.2m0 .6l-.5-.3m.8-.1s0 0 0 0 0 0 0 0 0 0 0 0 0 0 0 0v.2s0 0 0 0 0 0 0 0 0 0 0 0 0 0 0 0 0 0 0 0 0 0 0 0 0 0 0 0 0 0 0 0 0 0 0 0 0 0 0 0 0 0 0 0 0 0 0 0 0 0 0 0 0 0 0 0 0 0 0 0 0 0 0 0 0 0 0 0 0 0 0 0 0 0 0 0 0 0 0 0 0 0 0 0 0 0 0 0 0 0 0 0 0 0 0 0m-1.1-1.4l-.8.5m-2 0c.6.3 1.5.3 2 0m-4.3-1.3l2.3 1.3m-2.3-3.4l2.3 1.3m-2.3-1.3v2.1m2.3-.8v2.1m.5-5.2l1-.6m-1 .6l-.6.4m0 0s0 0 0 0m.1 0l.7-.4m0 0s.1-.1.2-.1m.1-.1l-.2.1m.3-.2c-.1 0-.1.1-.2.1m.6-.4l-.4.3m-.9-2.1s0 0 0 0m-3.9 20.5l.5-.5m.3-.2c-.1.1-.2.2-.3.2m.3-.2l.9-.5M71.5 47c.1-.1.2-.3.3-.5m-4.1 2.9l.6-.4m1.3 21.3h.1m-.1 0c.3.2.6 0 .6-.3m1.7-1.5s0-.1-.1-.1m.1.1l.3.5m.6-.5l-.6-.4m-.2.3c.1-.1.2-.2.2-.3 0 0 0 0 0 0m.4.7l-.6-.4m.6.4c.1-.1.2-.2.2-.3 0 0 0 0 0 0m-1-.2c0 .1 0 .1 0 0 0 .1 0 .1 0 0m1-23.1l-.2-.1m-.4.3v2.3m.1 2.1l.5.4m0 0v-5M68.3 49l2.3 1.3m-.6.4c.6.3 1.5.3 2 0m.8-.5l-.8.5m-1.4-.4c.2.1.4.1.6.1m.9 3.6c.5.1 1.1.1 1.5-.1m-5 1.9c0 .1 0 .2.1.2m-.1-1.5v1.3m.1-1.6c0 .1-.1.2-.1.3m3.5 1.6c.5.1 1.1.1 1.5-.1m0 0s0 0 0 0c.1 0 .1 0 0 0 .1 0 .1 0 0 0 .1 0 .1 0 0 0 .1 0 .1 0 0 0 .1 0 .1 0 0 0h.1s0 0 0 0 0 0 0 0 0 0 0 0 0 0 0 0 0 0 0 0 0 0 0 0 0 0 0 0 0 0 0 0 0 0 0 0 0 0 0 0 0 0 0 0 0 0 0 0 0 0 0 0 0 0 0 0 0 0 0 0 0 0 0 0 0 0 0 0 0 0 0 0 0 0 0 0 0 0 0 0 0 0 0 0 0 0 0 0 0 0 0 0 0 0 0 0 0 0 0 0 0 0 0 0 0 0 0 0 0 0 0 0 0 0 0 0 0 0 0 0 0 0 0 0 0 0 0 0 0 0 0 0 0 0 0 0 0 0 0 0 0 0 0 0m.2.2v-2.7M69 54.7V56m0-1.3l-.4-.2M69 56l-.4-.2M80 40.3c0-.8-.5-1.7-1.2-2.1m1.2 2.1h0m-6.3 13l-.9.5m-.6-.4l.6.4m5.7 11.4v-1.4m0 1.4l.3-.1m0 0v-1.3m-.3 0h.3m-9.7-9.3c-.1.1-.1.2-.1.2m0 1.3c0 .1 0 .1.1.2m8.6-18.6s.1-.1 0 0m0 0l1.1.6m0 0s.1 0 0 0m.1-.1l-1.1-.6m-7.6 31.3c0-.2 0-.3-.1-.5M70 46.8c.1-.1.1-.2.1-.3m-3.3 20c-.1.1-.1.2-.1.3m0 0l1.6-1m.1-.3c-.1.1-.1.2-.1.3m-2-.1c-.2.1-.3.4-.3.7m6.2-7.3l.6.4m0 0v-2.3m0 0l-.6-.4m0 0v2.3m0-6.4v.7m.6.4v-1.5m6.4-14.7c.1-.1.1-.3.1-.4m.3.7l-.4-.3m.4.3c.1-.2.1-.5-.1-.6m-.3.3l-.3.5m.3.4c.1 0 .1 0 0 0m.4-.6l-.3.6M78.1 37l-.3.5M70 46.8l-.5.4m0 0c-.1 0-.1 0 0 0m2.3-.8s0 0 0 0 0 0 0 0 0 0 0 0 0 0 0 0 0 0 0 0v.1m0-.1c0-.1 0-.1.1-.2m-1.1.6l1.1-.6m-1.4 1.4c.2-.1.3-.4.3-.7M66 66.4v1.2m1.6-1.8l-.5-.8m1.2.8h0m1.7 2.5l-.6-1.1m.1-.3c-.1.1-.1.2-.1.3m.1-.3l.7-.4m0 0s0 0 0 0M66.7 68h0m0-1.2V68m2.9 2.3c.3.2.6 0 .6-.3m-.6.3L67.4 69m5.4-23.8c0-.1-.1-.2-.2-.1m1.3-6h-.1m0-.1s0 0 0 0 0 0 0 0 0 0 0 0 0 0 0 0 0 0 0 0c0 .1 0 .1 0 0 0 .1 0 .1 0 0 0 .1 0 .1 0 0 0 .1 0 .1 0 0 0 .1 0 .1 0 0 0 .1 0 .1 0 0v.1s0 0 0 0 0 0 0 0 0 0 0 0 0 0 0 0 0 0 0 0m-.1.1l.2-.1m-1.2.4c.2-.1.3-.4.4-.6m-.2 1c.2.1.4 0 .6-.3.1-.1.2-.3.2-.4M72 40.4l.9-.5m-.2-.3s0 0 0 0m0 0s0 .1 0 0c0 .1.1.1 0 0 .1.1.1.1 0 0 .1.1.1.1 0 0v.1s0 0 0 0 0 0 0 0m.1.1s0 0 0 0m.1.1s0 0 0 0 0 0 0 0 0 0 0 0c0-.1 0-.1 0 0 0-.1 0-.1 0 0 0-.1 0-.1 0 0 0-.1-.1-.1 0 0-.1-.1-.1-.1 0 0l-.1-.1m.3-1.3s0 0 0 0 0 0 0 0c0 .1 0 .1 0 0 0 .1 0 .1 0 0 0 .1 0 .1 0 0 0 .1 0 .1 0 0 0 .1 0 .1 0 0 0 .1 0 .1 0 0v.1s0 0 0 0 0 0 0 0 0 0 0 0 0 0 0 0 0 0 0 0 0 0 0 0 0 0 0 0 0 0 0 0 0 0 0 0 0 0 0 0 0 0 0 0 0 0 0 0 0 0 0 0 0 0 0 0m-.4 1c0-.6-.4-1.3-.8-1.7m-.2 2.4l1-.7m-.9.7l1-.5m-.9.6l.9-.6m-1.8.3l.2-.1m0 0l-.1-.1m.1.1l1 .6m.8-2.1s0 0 0 0 0 0 0 0c0-.1 0-.1 0 0 0-.1 0-.1 0 0 0-.1 0-.1 0 0 0-.1 0-.1 0 0 0-.1 0-.1 0 0 0-.1 0-.1 0 0 0-.1 0-.1 0 0 0-.1 0-.1 0 0 0-.1 0-.1 0 0v-.1s0 0 0 0 0 0 0 0m.9 0c-.3-.2-.7-.2-.9 0m.9 0l2.6-1.5m0 0c-.3-.2-.6-.2-.8-.1m-4.4 22.8v.1m2.5-20.6l-.1-.1-.1-.1c-.1-.1-.2-.2-.3-.2-.1-.1-.2-.2-.3-.2m.9.6l.8.5m.3-.6v.4m0-.4l-1.1-.6M66.7 68c0 .4.2.8.6 1m0-.1l-.1.1m10.5-4.3l.7.4m-.7-.3v-.1m.7.5l-.7-.4m.7.4v-.1m-7.1-1.3s0-.1 0 0m-2.7-9.5l-1.9 1.1m2.4 1.4l-2.4-1.4m5.4.9l.3-.1m-5.6 10.7c-.1.1-.1.2-.1.3m4.3-7.8l-.7-.4m.7.4l.3-.2m7.2 5.8l-.1.1m-.1-.4l.2.3m-.2-.4v.1m0-.4l-.6.4m-7.5 4.1v.4m.4-9.5c.2.1.5.1.7 0m6.3 4c-.1.1-.2.2-.2.3m1.8-.8l-.7.4m0 0v.2m.3 0l.5-.4m-.1-.2l.1.2m-.9.1l-.2-.1m-.2.1l.4.2m0 0v-.2m-.7-25.9l-1.2-.7m-1 29.6l.2.1m1.6-.9l-1.6.9m.9-1.3l.7.4m-.7-.4l-1.1.7m0 .5c0 .1.1.2.2.1m3.1-1.5l.5-.3m0 0v-1.4m-1 1.3v-1.1m.2 1.4v.2m-7.9-1.3c.1 0 .2.1.3.1m.4-.2s0 0 0 0 0 0 0 0l-.1.1s0 0 0 0 0 0 0 0 0 0 0 0 0 0 0 0 0 0 0 0 0 0 0 0 0 0 0 0 0 0 0 0 0 0 0 0 0 0 0 0 0 0 0 0 0 0 0 0 0 0 0 0 0 0 0 0 0 0 0 0 0 0 0 0 0 0 0 0 0 0 0 0H71m6.4 1.8l.2.2m-.2-.1c0 .1.1.1.2.1m-2.1-.4v1m1.2-1.2h-.1m.8.5c0-.1-.1-.1-.2-.1M70 64.3c.5.3 1.1.3 1.7.1m-.8-.4l.7.4m-1-.5l-.3-.1m-.6.4l.6-.4m-.6.4l.3.1m-.4 6.8l-2.4-1.4m8.5-14.6c-.1.1-.2.2-.2.3m1.8-1.2c.1-.1.2-.2.2-.3m.2 10.5l.3.1m.3-.1l-.1-.1m0 0c-.1-.1-.3 0-.5.1m.6 0l-.1-.1m-.5-9.7l.7.3m.1 0h-.1m-.1-.3l.2.3m-.2-.4v.1m0-.4l-.6.4m-2.2 10.9l2.1-1.2m-8 6L67.2 69m10.5-4.6l-.1-.1m-8.3-.8l.7-.4m0 0v-1.3m-.7 0l.4-.2m-.4.2v1.7m.7-1.8V60m0 1.7c.5.3 1.1.3 1.7.1"/><path d="M71.6 61.9c.1 0 .1 0 0 0 .1-.1.1-.1 0 0 .1-.1.1-.1 0 0 .1-.1.1-.1 0 0h.1s0 0 0 0 0 0 0 0 0 0 0 0 0 0 0 0 0 0 0 0 0 0 0 0 0 0 0 0 0 0 0 0 0 0 0 0 0 0 0 0 0 0 0 0 0 0 0 0 0 0 0 0m.3 0V60m-2 0c.6.3 1.5.3 2 0m-1.2-14.4l9.2-5.3m-9 2.4l7.8-4.5m-8 7.4c0-.2 0-.5-.1-.7m6.7 10.7l.2.1m-.2 0c0 .1.1.1.2.1m-6.2 7.6l.7.4m-.8-.1c.1-.1.1-.2.1-.3m.6.7c0 .1-.1.1 0 0-.1.1-.1.1 0 0-.1.1-.1.1 0 0-.1.1-.1.1 0 0l-.1.1s0 0 0 0 0 0 0 0 0 0 0 0 0 0 0 0 0 0 0 0 0 0 0 0 0 0 0 0 0 0 0 0 0 0 0 0m.1-.1c.1-.1.1-.2.1-.3m.7 1.7l-.8.5m-2 0c.6.3 1.5.3 2 0m-3.4-.7l1.4.7m-1.4-.7l-.9-2.5m7.8-6.4l.2.1m-.2-.1c0 .1.1.2.2.1m-4.9 13.9l9.2-5.3m-10.4 6c.7.4 1.2.1 1.2-.7m8.9-4.6c.2-.1.4-.4.4-.8M75 39.4c.2-.1.2-.3 0-.4m0 .4l-2 1.2m-.8 0c.2.1.5.1.7 0m.1 15.7c.1 0 .1-.1.2-.2m.5.6l-.7-.4m.7.4c.2-.1.3-.3.3-.5M72.3 69l-.2-.1m.2.1l.3-.2m-.7-.3l.1-.1m-2.5-21.2l.4.8m.9-2.4v1.2m-.6-1.6v.1m0 0v.3m0 0v.9m2.1-1.2c-.1 0-.1.1-.2.2m.1 0l-.3.7m.7-1.1l-.3.2m5 19l-1.6.9m2.8-11.5v1.4m0 0l.3-.1m0 0v-1.3m-.3 0h.3m-.3-.2v.2m-.2-.2v1.1m.2.3v.2m-.8-.4v-.1m.7.5l-.7-.4m.7.4v-.2m-1.1-.7l-1.6.9m2.5-1.8l-.6.3m1.6-.5l-.7.4m.3.2l.5-.4m-.1-.2l.1.2m-.9.1l-.2-.1m-.2.1l.4.2m0 0v-.2m-6.8 8.5l.5.2m0 0c0-.1 0-.2-.1-.2m5.3-6.3l-1.6.9m.9-1.3l.7.4m-.7-.4l-1.1.6m2.1-2.2c-.1.1-.2.2-.2.3m.1 1.2c.1-.1.2-.2.2-.3m-.2.3l.7.3m0 0c.1-.1.2-.2.2-.3m-9.1 8.4c0 .2.2.5.4.6m.3-1c0 .2.2.5.4.6m8-10.3c0-.1-.1-.2-.2-.1m-6 15.7c0 .1.1.1.2 0M70 66.7l-.5.2m.5-.2l.7-.4m0 0l-.5.2m.3 1.6l-.6-1.1m.6 1.1l1-.6m0 0l-.4-.8m-.1-.2c0 .1.1.2.2.2m-.4-.4l.2.2m-.2-.2h-.2m-.6.4c-.1.1-.1.2-.1.3m.9 2.2l1.1-.7m-.1-.2c0-.3-.1-.6-.3-.8m-.7 1.7c0-.3-.1-.7-.3-1.1m-.6-1.1l-.5.2m.3-5.6c-.2-.1-.4 0-.4.2m10-8.5v1.4m-.5.3l.5-.3m-.8-1.2l-.1.1M77 55.4l.5-.3m.1.6l.6-.3m-2.7 0v1m1.2-1.2h-.1m.8.5c0-.1-.1-.1-.2-.1m-5 12.5v-2.3m.6-.3v3m-3.5-9.6l1.3.8m-2-.4l.7-.4m-.7.4l1.4.7m2.8-.5l-.8.5m-.7-.4l.9-.5m-4.5 1.6l.9-1.4m-.9 1.4v2.1M70 66v-1.7m0-2.6l-.3-.1M72 66v-1.9m-.6-.7v-1.5m.7.2v1.7m5.3.4c.1.1.1.1.2.1m-.1.9c.1-.1.2-.2.2-.3m-.2.3l.7.3m0 0c.1-.1.2-.2.2-.3m-11.1.8l-.5-.8m-.8 2.4c0 .8.5 1.7 1.2 2.1m4.1-6v-1.8m-1.1-2.8v.4m0 2.4v1.8m1.1-4.1v-.4m-.1-6.2l-1 .6m0 5.5v-5.5m.8 5l-.8.5m.8.3v-.8m1.8-2.2l-.6.4m.6-.6v.2m-.7-2.4v2.3m.5-2.6l-.5.3M70 66.3l-.2.1m.2-.1V66m-.2-.1v.5m.3 2.3H70m0-2.4l.1.2m-.3-.1l-.7.5m.9 1.8l-.9-1.8m2.2-.7v.9m-.3-.9v.3m-.8 2.7c0-.2 0-.3-.1-.5m-2.3-2.6l1.3.8m-1.3-.8l-1 .8m-.1.8v-.5m0 .5c0 .5.3 1 .7 1.3m2.8.2v.7m-1.7-4.5v.3m1.7-20.4v-.1m-1.1 9.3l-2.4-1.4m2.4 1.4v2.3m1.1 13.1v.1m.6-.8v1.2m2-13.2l.9-.5m-.7-.4l-.2.1m-2.6-10.8l-.5-.2M77 65.5l.5-.3m-1.8 0c-.1.1-.2.2-.2.3m3-1.9l-.1.1m-1.1.6c.1-.1.2-.2.2-.3M66.9 47v.4m0 0h.1m0 .6v-.6m-.1.6v.8m0 0h.1m0 .5v-.5m-.1.6v.3m.6.3l-.6-.3m.6.3v1.2m.2.1l-.2-.1m2.7-1.4v.3m0-.3l1.1.6m0-2.1v2.1m0-2.1l-.9-.5m-.6-1.1v.2m.4-.5l-.4.3m1.2.7v.5m-1-1.3l.2-.1m-.2.3v-.2m1 1.3l-.4-.2m.7.6l1-.5m-.4-.3l.4.3m-.4-.3l-.6.4m-.3 0c.1.1.3.1.4 0m-1.6-1.2l.2-.1m1.3.5v.8m1.2 0v1.7m-.2.3l.2-.3m-1.2.8l1-.5m0-2.1l.2.1m-2.3 5.7l-3.5-2m.8-.4l-.8.4m0 0v1.5m0 2.3v1.7m0 0l3.5 2M66 48.3l.2.1m.8-.4l-.8.4m1.6 17.7l.8-.4m-1.7-8.5v.3m0 0h.1m0 .6v-.6m-.1.6v.8m0 0h.1m0 .6v-.6m-.1.6v.8m0 0h.1m0 .5v-.5m-.1.6v.7m0 0l.1.1m0 .5v-.5m-.1.6v.7m0 0l.1.1m0 .5v-.5m-.1.6v.2m1.5.9l-1.5-.9m1.7 1.8v-.5m0 .5l1.2.7M66.2 58v.5m0-.5l-.2-.2m0 .6v-.6m0 .6l.2.1m.8-.4l-.8.4m.7-1.2l-.9.5m.2.2l.8-.5m-.1-.2s0 0 0 0m-.7 2.1l-.2-.2m.2.2l.8-.5m-.1-.2s0 0 0 0m0 0l-.9.5m0 .6v-.6m0 .6l.2.1m.8-.4l-.8.4m0-.5v.5m0 2.2L66 62m.2.1l.8-.4m-.1-.3s0 0 0 0m0 .1l-.9.5m0 .5V62m0 .5l.2.2m.8-.5l-.8.5m0-.6v.6m0 .8l-.2-.1m.2.1l.8-.4m-.1-.3s0 0 0 0m0 0l-.9.6m0 .5v-.5m0 .5l.2.2m.8-.5l-.8.5m0-.6v.6M66 48.3v-.6m.9-.5l-.9.5m.2 1.6l.8-.5m-.8.5v.5m.8-.5l-.8.5m0-1.9l.8-.5m-.8.5v.5m-.2 1.2v-.5m0 .5l.2.2m0-.5l-.2-.2m.9-.5l-.9.5m.9-1.9s0 0 0 0m0 1.4s0 0 0 0m-.7-.7l-.2-.2m0 13.4v-.5m0 .5l.2.2m0-.5v.5m0-.5l-.2-.2m.2.2l.8-.5m-.1-.3c0 .1 0 .1 0 0m0 .1l-.9.5m1 .2l-.8.5m11.4 4.6l.6-.4m.2-2c0-.1-.1-.2-.2-.1M72 50.7v2.1m6.2 10.6l-.6.3m2.4 1.4h0m1.2-24.5l-.2-.5M69.1 56.2l-.4-.2m10.9-18.7l-.4-.3m-9.1 33.2l-.1.1m3.1-32l2.6-1.5m-1.9 2.3s0 0 0 0c0-.1 0-.1 0 0 0-.1-.1-.1-.1-.1l-.2-.2c-.2-.1-.3-.2-.5-.3m3.7 26.8l.7.4m.9-1.1v-1m-7.8 7.6l9.2-5.4M69.4 47.2l.5.8m8.4 6.5v-1m-1.6 1.7l.7.4m-6.7 10.7l-.5.2m-1.7-1v.3m4.4-9.6v.2M27.2 81.5v-1.1m-1.1-.6l1.1.6m-1.1.5v-1.1m0 1.1l1.1.6m0-1.1l1.9-1.2m-.7-.3l.7.3m-3 .6l.6-.3m2.4-.3v1.2m0 0l-1.9 1.1m9.7-9.5l18.4-10.6m-2.2-1.3l2.2 1.3m-20.6 9.4l18.4-10.7M34.7 70.8l2.2 1.2m18.4-10.6v21.3m0 0L36.9 93.3M34.7 92l2.2 1.3m0 0V72m-2.2 20V70.8m27.9-2.3l1.7-1m-.6-.3l.6.3m-2.3.7l1.7-1m-1.7 1l.6.3m1.7-1v3.6m0 0l-1.7 1m-.6-.3l.6.3m0 0v-3.6m-.6 3.3v-3.6M45.7 88.8l1-.6m-.5-.3l.5.3m-1.5.3l.5.3m1-.6v2.3m0 0l-1 .5m-.6-.3l.6.3m0 0v-2.2m-1 .1v-.1m-12.3-6.9l-1 .6m-.7-.4l.7.4m0 0v-2.3m-.7-.4l.7.4m-.7 1.9v-2.3m.7.4l1-.5m-.7-.5l.7.5m-1.7.1l1-.6m.7.5v2.2m22.8 1.4l1-.5m-.9-.6l.9.6m-1.5.2l.5.3m1-.5V85m0 0l-1 .6m-1-.6l1 .6m0 0v-2.3m-1 .9v-.9m-22.5 6.3l1-.6m-1-.6l1 .6m-2 0l1-.6m-1 .6l1 .6m1-.6v2.2m0 0l-1 .6m-1-.6l1 .6m0 0v-2.2m-1 1.6V89m25.8-33.3v1.2m0-1.2h0m0 1.2L54.6 58m-1-.6l1 .6m0 0v-1.2m-.9-.5l.9.5m-1 .6v-1m1 .4l1.9-1.1M54 56l.7-.4M34.3 84.7l-1 .6m-.9-.5l.9.5m0 0v-2.2m-1-.6l1 .6m-1 .1v-.7m1 .6l1-.6m-1-.6l1 .6m-2 0l1-.6m1 .6v2.2m4.2-18.5v1.1m-1-1.7l1 .6m0 1.1l-1.9 1.1m-1.1-.5l1.1.5m0 0v-1.1m-1.1-.6l1.1.6m-1.1.6v-1.2m1.1.6l1.9-1.1m-3 .5l2-1.1m.3 27.7l1.1-.5m-.5-.3l.5.3m-1.6.2l.5.3m1.1-.5V95m0 0l-1.1.6m-1-.6l1 .6m0 0v-2.3m-1 1.7v-.2m0-1.4v-.1m-9.4-.3v-2.7m-1.1-.6l1.1.6m-1.1 2v-2.6m0 2.6l1.1.7m0-2.7l3.1-1.8m-1.1-.6l1.1.6m-4.2 1.2l.5-.3m2.3-1.3l.3-.2m1.1.6v2.7m0 0L27.4 93m6-27.1l1-.6m-1-.6l1 .6m-2 0l1-.6m-1 .6l1 .6m1-.6v2.2m0 0l-1 .6m-1-.6l1 .6m0 0v-2.2m-1 1.6v-2.2m24.5-15v1.2m-.6-1.6l.6.4m0 1.2L55 52.6m-1-.6l1 .6m0 0v-1.2m-1-.6l1 .6m0 0l1.9-1.1m-2.9.5l.7-.4M42.5 94.7v-1.2m-.6-.3l.6.3m-.8.8v-1m0 1l.8.4m0-1.2l1.9-1.1m-.7-.4l.7.4M42 93l.4-.2m1.2-.7l.1-.1m.7.4v1.2m0 0l-1.9 1.1m16.4-42.4v2m-1.7-3l1.7 1m0 2l-3.2 1.9m-1.7-1l1.7 1m0 0v-2m-1.7-1l1.7 1m-1.7-.3v-.7m1.7 1l3.2-1.9m-4.9.9l1-.6m1.9-1.1l.3-.2m-.6 12.5l-1 .5m-.3-.1l.3.1m0 0v-2.2m-.3-.2l.3.2m0 0l1-.6m-1-.6l1 .6m-1.5-.2l.5-.4m1 .6v2.3m-5-4v-1.2m-1-.6l1 .6m-1 .6V58m0 1.2l1 .6m0-1.2l1.9-1.1m-1-.6l1 .6m-2.9.5l1.9-1.1m1 .6v1.2m0 0l-1.9 1.1m-18.5-1l1.1-.6m-.8-.4l.8.4m-1.8.2l1-.6m-1 .6l.7.4m1.1-.6v2.3m0 0l-1.1.5m-.7-.4l.7.4m0 0v-2.2m-.7 1.8v-2.2m23.3 10v-1.1m-.4-.3l.4.3m-.4.9l.4.2m0-1.1l2-1.1m-1.1-.6l1.1.6m-2.4.1l1.3-.7m1.1.6v1.1m0 0l-2 1.1m-11.1-5.8v1.2m-1-1.7l1 .5m0 1.2l-2 1.1m-1-.6l1 .6m0 0v-1.1m-1-.6l1 .6m-1 .5v-1.1m1 .6l2-1.2m-3 .6l2-1.1M33.1 75.4l1-.6m-.8-.5l.8.5m-1.8.1l1-.6m-1 .6l.8.5m1-.6V77m0 0l-1 .6m-.7-.4l.7.4m0 0v-2.2m-.8.3v-.8m-1.5 4l-1.1.6m-.7-.4l.7.4m0 0v-2.2m-.7-.5l.7.5m-.7 1.8v-.6m0-1.1v-.6m.7.5l1.1-.6m-.8-.4l.8.4m-1.8.1l1-.5m.8.4v2.2m-3.7.8v-1.2m-1-.6l1 .6m-1 .6v-1.2m0 1.2l1 .6m0-1.2l1.9-1.1m-1-.6l1 .6m-2.9.5l1.9-1.1m1 .6v1.1m0 0l-1.9 1.2m21.2 9.9l-1.1.5m-.5-.3l.5.3m0 0v-2.2m-.5-.3l.5.3m-1 .1v-.1m1 0l1.1-.6m-.5-.3l.5.3m0 0v2.3m-15-1l1-.6m-1-.6l1 .6m-2 0l1-.6m-1 .6l1 .6m1-.6v2.3m0 0l-1 .5m-.6-.3l.6.3m0 0v-2.2m-1 .2V88m26.5-11.2V78m-.8-1.6l.8.4m0 1.2l-2 1.1m-.7-.4l.7.4m0 0v-1.2m-.7-.4l.7.4m-.7.3v-.7m.7.4l2-1.1m-2.7.7l1.9-1.1m5.6-.2l-1 .6m-1-.6l1 .6m0 0v-2.2m-1-.6l1 .6m-1 .5V74m1 .6l1-.6m-1-.6l1 .6m-2 0l1-.6m1 .6v2.2m-9.4 12.5l-4.8 2.8m-1.1-.6l1.1.6m0 0V87m-.8-.4l.8.4m-1.1 3.9v-4.2m1.1.3l4.8-2.7m-.8-.5l.8.5m0 0v4.4m12.6-14.3l-1 .6m-.6-.3l.6.3m0 0v-2.3m-1.1-.5l1.1.5m-1.1.1v-.6m1.1.5l1-.5m-1-.6l1 .6m-2.1 0l1.1-.6m1 .6v2.2M41 91.5l1-.6m-.5-.3l.5.3m-1.5.3l.5.3m1-.6v2.3m0 0l-1 .6m-.3-.2l.3.2m0 0v-2.3m3.4 2.7v1.2m-.6-1.5l.6.3m0 1.2l-1.9 1.1m-.8-.4l.8.4m0 0v-1.1m-.8-.5l.8.5m-.8.7v-1.2m.8.5l1.9-1.2m-2.7.7l.6-.3M31.2 84.2v2m-1.3-2.8l1.3.8m0 2L28 88.1m-1.8-1l1.8 1m0 0V86m-1.8-1l1.8 1m-1.8 1.1V85m1.8 1l3.2-1.8m-5 .8l.8-.4m28.1-34v-2.2m-.9-.5l.9.5m-.9 1.7v-2.2m0 2.2l.9.5m0-2.2l1.5-.9m-.9-.6l.9.6m-2.4.4l1.5-1m.9.6v2.2m0 0l-1.5.9M39.6 97.1v-1.2m-1.1-.7l1.1.7m-1.1.6v-1.3m0 1.3l1.1.6m0-1.2l2.1-1.2m-1-.6l1 .6m-3.2.5l.8-.4m2.4-.1V96m0 0l-2.1 1.1m-5.3-16l-1 .6m-.9-.5l.9.5m0 0v-2.2m-1-.6l1 .6m-1 .1v-.7m1 .6l1-.6m-1-.6l1 .6m-2 0l1-.6m1 .6v2.2m27.3 3.5v2m-1.4-2.8l1.4.8m0 2l-3.2 1.9m-1.7-1l1.7 1m0 0v-2m-1.7-1l1.7 1m-1.7 1v-2m1.7 1l3.2-1.9m-4.9.9l.5-.3m1.3-28.1l-1 .5m-1-.5l1 .5m0 0v-2.2m-.2-.1l.2.1m-1 1.7V57m1-1.6l1-.6m-.2-.1l.2.1m0 0v2.3M27.2 89.6v-1.2m-1.1-.5l1.1.5m-1.1.6v-1.1m0 1.1l1.1.6m0-1.2l.7-.4m-1.8-.1l.8-.5m2.2 0v1.1m0 0l-1.9 1.1M46.6 94l-1 .6m-1-.6l1 .6m0 0v-2.2m-1-.6l1 .6m-1 1.6v-2.2m1 .6l1-.6m-1-.6l1 .6m-2 0l1-.6m1 .6V94m13.1-31.7l-1.8 1m-1.3-.7l1.3.7m0 0v-3.7m-1.3-.7l1.3.7m-1.7 1.7v-.7m1.7-1l1.8-1m-1.8-1l1.8 1m-3.1-.3l1.3-.7m1.8 1v3.7M52.2 57l-14.8 8.5m-2.2-1.2l2.2 1.2m0 0v-17m-2.2-1.3l2.2 1.3m-2.2 15.8V47.2m2.2 1.3L52.2 40M50 38.7l2.2 1.3m-17 7.2L50 38.7m2.2 1.3v17M35.3 67.7v1.2m-.8-1.6l.8.4m0 1.2l-2 1.1m-.7-.4l.7.4m0 0v-1.2m-.7-.4l.7.4m-.7.8v-1.2m.7.4l2-1.1m-2.7.7l.6-.4m1.2-.7h.1m28.8 12.6l2.6-1.6M64 77.2l1.9 1.1m-3.7 0l1.8-1.1m-1.8 2.1l1.1.6m2.6-1.6V83m0 0l-2.6 1.6m-2-1.2l2 1.2m0 0v-4.7m-2 3.5v-.3m-30.1 9.2v2m-1.3-2.8l1.3.8m0 2L28 96.1m-1.8-1l1.8 1m0 0v-2m-1.8-1l1.8 1m-1.8 1v-2m1.8 1l3.2-1.8m-5 .8l.8-.4m27-36.5l-1 .5m-.8-.4l.8.4m0 0v-2.2m-.8-.4l.8.4m0 0l1-.6m-1-.6l1 .6m-1.8-.1l.8-.5m1 .6v2.3m5.4 13.4l1.7-1m-1.7-1l1.7 1m-3.4 0l1.7-1m-1.7 1l1.7 1m1.7-1v3.7m0 0l-1.7 1m-1.3-.7l1.3.7m0 0v-3.7m-1.7 1.8V71m0-1.1V69M33.9 85.7v1.2m-.8-1.6l.8.4m0 1.2l-2 1.1m-.7-.4l.7.4m0 0v-1.2m-.7-.4l.7.4m-.7.8v-1.2m.7.4l2-1.1m-2.7.7l1.9-1.1M50.3 59v1.2m-.8-1.6l.8.4m0 1.2l-1.9 1.1m-.8-.4l.8.4m0 0v-1.2m-.8-.4l.8.4m-.8.8v-1.2m.8.4l1.9-1.1m-2.7.7l1.9-1.1m8.2-10c-.4.2-.8.8-.8 1.3s.3.7.7.5c.4-.2.8-.8.8-1.3 0-.1 0-.2-.1-.3"/><path d="M57.6 48.5c-.4.2-.8.8-.8 1.3 0 .2.1.4.2.5m0 0l.1.1m-24.3-.9c.4.2.9-.1 1.3-.8.4-.6.4-1.3 0-1.5-.4-.2-.9.1-1.3.8-.3.6-.3 1.3 0 1.5"/><path d="M34 47.2c-.4-.2-.9.1-1.3.8-.4.6-.4 1.3 0 1.5m1.3-2.3h.1m-1.4 2.2l.1.1m30.7 14.1l1.3.8m-2.2-1.3l.9.5m1.3.8l-1.1 2m0 0l-1.3-.8m-1-.6l1 .6m0 0l1.1-2M61.4 65l1.2-1.9m-4.5 10.8l-1 .6m-.6-.4l.6.4m0 0v-2.3m-.7-.4l.7.4m-1 .2V72m1 .2l1-.6m-.7-.4l.7.4m0 0v2.3m-30.7 11v-2.7m-1.1-.6l1.1.6m-1.1 2v-2.6m0 2.6l1.1.7m0-2.7l3.1-1.7m-1.1-.7l1.1.7m-4.2 1.1l.5-.3m2.3-1.3l.3-.2m1.1.7v2.6m0 0l-3.1 1.8m5.7-14l1.1-.5m-.8-.5l.8.5m-1.8.1l.9-.5m-.9.5l.7.4m1.1-.5v2.2m0 0l-1.1.6m-.7-.5l.7.5m0 0v-2.3m-.7 1.8v-2.2m21.7-30.8l-1.1.6m-1-.6l1 .6m0 0v-2.2m-1-.6l1 .6m-1 1.6v-2.2m1 .6l1.1-.6m-1.1-.6l1.1.6m-2.1 0l1-.6m1.1.6v2.2m4 9.2v-2.3m-.9-.5l.9.5m-.9 1.7v-2.2m0 2.2l.9.6m0-2.3l.5-.3m-1.4-.2l.5-.3m2 1.2v1m0 0l-1.6.9m-23.9 8.3l-1.1.5m-.7-.4l.7.4m0 0v-2.2m-.7-.4l.7.4m-.7 1.8v-2.2m.7.4l1.1-.6m-.8-.4l.8.4m-1.8.2l1-.6m.8.4v2.3m27.4 17.9v1.2m-.7-1.6l.7.4m0 1.2l-1.9 1.1m-.8-.4l.8.4m0 0v-1.1m-.8-.5l.8.5m-.8.7v-1.2m.8.5l1.9-1.2m-2.7.7l2-1.1M32.4 78l-1 .5m-.6-.3l.6.3m0 0v-2.2m-.7-.4l.7.4m-.7.3v-.7m.7.4l1-.6m-.7-.4l.7.4m-1.7.2l1-.6m.7.4V78M37 95.4v1.2m-.6-1.6l.6.4m0 1.2l-1.9 1.1m-1-.6l1 .6m0 0v-1.2m-1-.6l1 .6m-1 .6v-1.2m1 .6l1.9-1.1m-2.9.5l.6-.3m7.8-5l1.1-.6m-.5-.3l.5.3m-1.6.3l.5.3m1.1-.6v2.3m0 0l-1.1.6m-.5-.4l.5.4m0 0v-2.3m-1 .1v-.1m23.1-39.4l-2 1.2m-1-.6l1 .6m0 0v-3.8m-1 3.2v-3.7m3 .3v2.8M37 93.5v1.2m-1-1.8l1 .6m0 1.2l-1.9 1.1m-1-.6l1 .6m0 0v-1.2m-1-.6l1 .6m-1 .6V94m1 .6l1.9-1.1m-2.9.5l1.9-1.1m9.7-29.7V62m-1-.6l1 .6m-1 .6v-1.2m0 1.2l1 .6m0-1.2l1.9-1.1m-1-.6l1 .6m-2.9.5l1.9-1.1m1 .6v1.2m0 0l-1.9 1.1m9.7 10l1.1-.6m-.8-.4l.8.4m-1.2-.5l.1-.1m-.1 1.1l.1.1m1.1-.6v2.2m0 0l-1.1.6m-.1-.1l.1.1m0 0v-2.2m8-24.1v-6.6m-8.9-5.1l8.9 5.1M54.5 44v-6.6m0 6.6l8.9 5.1m0-6.6l7.6-4.4M62.2 33l8.8 5.1m-16.5-.7l7.7-4.4m8.8 5.1v6.6m0 0l-7.6 4.4M53 41.7l1.1-.6m-1.1-.6l1.1.6m-1.9-.1l.8-.5m-.8.7l.8.5m1.1-.6v2.2m0 0l-1.1.6m-.8-.5l.8.5m0 0v-2.2m-13.4 25v-1.2m-1-.6l1 .6m-1 .6v-1.2m0 1.2l1 .6m0-1.2l1.9-1.1m-1-.6l1 .6m-2.9.5l1.9-1.1m1 .6v1.2m0 0l-1.9 1.1m4.5 23l1-.6m-.5-.3l.5.3m-1.5.3l.5.3m1-.6v2.3m0 0l-1 .6m-.5-.4l.5.4m0 0v-2.3m-1 .1v-.1m22.1-14.4l-1 .6m-.6-.3l.6.3m0 0v-2.2m-1-.6l1 .6m-1 0v-.6m1 .6l1-.6m-1-.6l1 .6m-2 0l1-.6m1 .6v2.2m-9.9 3.4l.8-.5m-.7-.4l.7.4m-.8-.4h.1m.7.4v2.3m0 0l-.8.4M39.5 92.5l1.2-.7m-.6-.4l.6.4m-1.8.3l.6.4m1.2-.7v2.4m0 0l-1.2.7m-.6-.3l.6.3m0 0v-2.4M34.4 64l-1 .6m-1-.6l1 .6m0 0v-2.2m-1-.6l1 .6m-1 1.6v-2.2m1 .6l1-.6m-1-.6l1 .6m-2 0l1-.6m1 .6V64m27.8 18.6l-4.8 2.8m-1.2-.7l1.2.7m0 0v-4.5m-1.3-.8l1.3.8M56 82.6v-2.1m1.4.4l4.8-2.8m-1.5-.8l1.5.8M56.1 80l4.6-2.7m1.5.8v4.5m-6.5-10.4V71m-.4-.2l.4.2m-.4.9l.4.3m0-1.2l2-1.1m-.8-.4l.8.4m-2.4.2l.1-.1m2.3-.1V71m0 0l-2 1.2m0-2.1V69m-.4-.3l.4.3m-.4.9l.4.2m0-1.1l2-1.1m-.5-.3l.5.3m0 0V69m0 0l-2 1.1m-.1-11.4l1-.6m-1-.6l1 .6m-2 0l1-.6m-1 .6l1 .6m1-.6v2.3m0 0l-1 .5m-1-.5l1 .5m0 0v-2.2m-1 1.7v-2.3M39.1 96.9V99m-1.7-3.1l1.7 1m0 2.1l-3.2 1.8m-1.7-1l1.7 1m0 0v-2m-1.7-1l1.7 1m-1.7 1v-2m1.7 1l3.2-1.9m-4.9.9l.5-.3m2.3-1.3l.4-.3m-3.6-4.7v1.2m-.7-1.6l.7.4m0 1.2l-1.9 1.1m-.7-.4l.7.4m0 0v-1.2m-.8-.4l.8.4m-.8-.1v-.3m.8.4l1.9-1.1m-2.7.7l.4-.2m1.2-.7l.4-.2M54 49l-1 .6m-.8-.4l.8.4m0 0v-2.2m-.8-.5l.8.5m0 0l1-.6m-1-.6l1 .6m-1.8-.1l.8-.5m1 .6V49m13.4 23.8c.4.2.9-.1 1.3-.8.4-.6.4-1.3 0-1.5-.4-.2-.9.1-1.3.8-.4.7-.4 1.3 0 1.5"/><path d="M68.6 70.5c-.4-.2-.9.1-1.3.8-.4.6-.4 1.3 0 1.5m1.3-2.3l.1.1m-1.4 2.2h.1m-35 12.7l-1 .6m-.2-.1l.2.1m0 0v-2.2m-.7-.5l.7.5m-.7 0v-.5m.7.5l1-.6m-.7-.4l.7.4m-1.7.1l1-.5m.7.4v2.2m21.6-33l-1 .6m-.8-.4l.8.4m0 0v-2.2m-.8-.5l.8.5m0 0l1-.6m-1-.6l1 .6m-1.8-.1l.8-.5m1 .6v2.2M40.6 98.3l-.4-.3m.4.3c-.1-.5-.5-.7-1-.3-.1.1-.3.2-.4.4m-.4.8v.1m1.8-1s0 0 0 0m0 0h.2M69 82l-7.4 4.3m-3.5 2l-17.3 10M73.7 25v1.1m0 3.4v8.4m0 31.4v4.5M71 23.4l-.4-.2m3.1 1.8c0-1.8-1.2-2.5-2.8-1.6m-17.2 10l-.4-.2m.4.2l17.3-10M53.5 33.6l-.3-.2m.5 0c-.1 0-.1.1-.2.2m0 .1l-.4-.2m.4.2s0-.1.1-.1m-2 1.1l-.3-.2m.3.2c.1.5.5.7 1 .3.4-.3.7-.8.8-1.3m-1.8 1l-.4-.2m.4.2s0 0 0 0m-.2 0l-.4-.2m.6.2h-.2M26.7 48.9l-.3-.2m.3.2l24.7-14.2M24 53.7l-.4-.2m3.1-4.6c-1.5.9-2.8 3-2.8 4.8m.1 51.1l-.4-.2m.4.2V53.7m0 51.1c0 1.8 1.2 2.5 2.8 1.6m11.7-6.8l-7.9 4.5m-2.9 1.7l-1 .6m11.8-6.8c.1 0 .1-.1.2-.2m0-.1s0 .1-.1.1m34.3-76.2l-.3-.2m-47.8 83.6l-.4-.2m7.9-9.1c-.8-1.7-3-1.4-4.9.7-1.9 2.1-2.7 5.1-1.9 6.8.4.7 1 1.1 1.9 1.1"/><path d="M27.6 104.7c1.1.6 2.8-.4 3.8-2.2 1.1-1.8 1.1-3.8 0-4.4-1.1-.6-2.8.4-3.8 2.2-1 1.8-1 3.8 0 4.4"/><path d="M28 104.1c.8.5 2.2-.3 3-1.8.8-1.5.8-3 0-3.5s-2.2.3-3 1.8c-.8 1.4-.8 3 0 3.5"/><path d="M27.4 102.5c.1 1.2 1 1.6 2 .9 1.1-.7 1.9-2.2 1.8-3.4-.1-1.1-.8-1.5-1.8-1"/><path d="M32.3 97.3c-.2-.4-.4-.7-.7-.9-.3-.2-.6-.3-.9-.4-.3-.1-.7-.1-1.1 0-.4.1-.8.3-1.2.5-.4.3-.9.6-1.2 1-.4.4-.7.8-1.1 1.3-.3.5-.6 1-.8 1.5-.2.5-.4 1.1-.5 1.6-.1.5-.1 1 0 1.5s.2.9.4 1.3c.2.3.5.6.8.8.3.2.6.3.9.3h.5m0 .1c.4 0 .8-.1 1.2-.3.5-.2.9-.5 1.3-.8l1.2-1.2c.4-.5.7-1 .9-1.5.2-.5.4-1.1.6-1.6.1-.6.2-1.1.1-1.7 0-.5-.2-1-.4-1.4m41.3-23.9c-.8-1.7-3-1.4-4.9.7-1.9 2.1-2.7 5.1-1.9 6.8.4.7 1 1.1 1.9 1.1"/><path d="M72.7 74.3c-1.1-.6-2.8.4-3.8 2.2-1.1 1.8-1.1 3.8 0 4.4 1.1.6 2.8-.4 3.8-2.2 1.1-1.8 1.1-3.8 0-4.4"/><path d="M72.3 75c-.8-.5-2.2.3-3 1.8-.8 1.5-.8 3 0 3.5s2.2-.3 3-1.8c.9-1.5.9-3.1 0-3.5"/><path d="M68.7 78.7c.1 1.2 1 1.6 2 .9 1.1-.7 1.9-2.2 1.8-3.4-.1-1.1-.8-1.5-1.8-1"/><path d="M73.6 73.5c-.2-.4-.4-.7-.7-.9-.3-.2-.6-.3-.9-.4-.3-.1-.7-.1-1.1 0-.4.1-.8.3-1.2.5-.4.3-.9.6-1.2 1-.4.4-.7.8-1.1 1.3-.3.5-.6 1-.8 1.5-.2.5-.4 1.1-.5 1.6-.1.5-.1 1 0 1.5s.2.9.4 1.3c.2.3.5.6.8.8.3.2.6.3.9.3h.5m0 0c.4 0 .8-.1 1.2-.3.5-.2.9-.5 1.3-.8l1.2-1.2c.4-.5.7-1 .9-1.5.2-.5.4-1.1.6-1.6.1-.6.1-1.1.1-1.7 0-.5-.2-1-.4-1.4M32.3 49.7c-.8-1.7-3-1.4-4.9.7-1.9 2.1-2.7 5.1-1.9 6.8.4.7 1 1.1 1.9 1.1"/><path d="M31.5 50.4c-1.1-.6-2.8.4-3.8 2.2-1.1 1.8-1.1 3.8 0 4.4 1.1.6 2.8-.4 3.8-2.2 1-1.8 1-3.8 0-4.4"/><path d="M31.1 51.1c-.8-.5-2.2.3-3 1.8-.8 1.5-.8 3 0 3.5s2.2-.3 3-1.8c.8-1.4.8-3 0-3.5"/><path d="M27.4 54.9c.1 1.2 1 1.6 2 .9 1.1-.7 1.9-2.2 1.8-3.4-.1-1.1-.8-1.5-1.8-1"/><path d="M32.3 49.7c-.2-.4-.4-.7-.7-.9-.3-.2-.6-.3-.9-.4-.3-.1-.7-.1-1.1 0-.4.1-.8.3-1.2.5-.4.3-.9.6-1.2 1-.4.4-.7.8-1.1 1.3-.3.5-.6 1-.8 1.5-.2.5-.4 1.1-.5 1.6-.1.5-.1 1 0 1.5s.2.9.4 1.3c.2.3.5.6.8.8.3.2.6.3.9.3h.5m0 0c.4 0 .8-.1 1.2-.3.5-.2.9-.5 1.3-.8l1.2-1.2c.4-.5.7-1 .9-1.5.2-.5.4-1.1.6-1.6.1-.6.2-1.1.1-1.7 0-.5-.2-1-.4-1.4m41.3-23.9c-.8-1.7-3-1.4-4.9.7-1.9 2.1-2.7 5.1-1.9 6.8.4.7 1 1.1 1.9 1.1"/><path d="M68.9 33.3c1.1.6 2.8-.4 3.8-2.2 1.1-1.8 1.1-3.8 0-4.4-1-.7-2.7.3-3.8 2.1-1.1 1.9-1.1 3.8 0 4.5"/><path d="M69.3 32.6c.8.5 2.2-.3 3-1.8.8-1.5.8-3 0-3.5s-2.2.3-3 1.8c-.8 1.4-.8 3 0 3.5"/><path d="M68.7 31c.1 1.2 1 1.6 2 .9 1.1-.7 1.9-2.2 1.8-3.4-.1-1.1-.8-1.5-1.8-1"/><path d="M73.6 25.8c-.2-.4-.4-.7-.7-.9-.3-.2-.6-.3-.9-.4-.3-.1-.7-.1-1.1 0-.4.1-.8.3-1.2.5-.4.3-.9.6-1.2 1-.4.4-.7.8-1.1 1.3-.3.5-.6 1-.8 1.5-.2.5-.4 1.1-.5 1.6-.1.5-.1 1 0 1.5s.2.9.4 1.3c.2.3.5.6.8.8.3.2.6.3.9.3h.5m0 .1c.4 0 .8-.1 1.2-.3.5-.2.9-.5 1.3-.8l1.2-1.2c.4-.5.7-1 .9-1.5.2-.5.4-1.1.6-1.6.1-.6.2-1.1.1-1.7 0-.5-.2-1-.4-1.4m.7-1.6c0-2.4-1.6-3.3-3.7-2.1m0 59.5c2-1.2 3.7-4 3.7-6.4m-51.6 29.8c0 2.4 1.6 3.3 3.7 2.1m0-59.5c-2 1.2-3.7 4-3.7 6.4m51.6-29.8v13.3m0 31.4v6.3m-51.6 29.8v-51m3.7-6.4l44.2-25.6m0 59.6l-44.2 25.5"/></g><path fill="none" stroke="#000" stroke-miterlimit="10" d="M256 29.9L13.1 74.8M258 42L130.5 77.4"/></svg>