<svg version="1.0" xmlns="http://www.w3.org/2000/svg" viewBox="0 0 490 120"><path fill="none" stroke="#010202" stroke-width=".4" stroke-linecap="round" stroke-linejoin="round" stroke-miterlimit="10" d="M175.5 73.5V73m.3-.7l-.5-.3m.9 1c0-.3-.2-.6-.4-.7m.4.7v.5m0 0c0 .1 0 .1.1.2m-.3.1l-.5-.3m.5.1c0 .1 0 .1.1.2m-.1-.7v.5m0-.5c0-.2-.2-.6-.4-.7m0 0l-.5-.3m.3.8l-.3-.2m.4.3c0-.1 0-.1-.1-.2m.6.8l.2-.1m0-.5l-.2.1m-.4-.7l.2-.1m.2 1.5l.2-.1m-16.8 12.8l30.1-17.3m0 0l-3.7-2.1m0 0l-.9.5m-.6.4l-.4.1m-.6.4l-.3.2m-.7.4l-.3.2m-.7.4l-.3.1m-.6.4l-.4.2m-.6.4l-.4.2m-.6.3l-.3.2m-.7.4l-.3.2m-.7.4l-.3.2m-.6.3l-.4.2m-.6.4l-.3.2m-.7.4l-.3.2m-.7.3l-.3.2m-.7.4l-.3.2m-.6.4l-.4.2m-.6.3l-.3.2m-.7.4l-.3.2m-.7.4l-.3.1m-.6.4l-.4.2m-.6.4l-.3.2m-.7.4l-.3.1m-.7.4l-.3.2m-.7.4l-.3.2m-.6.3l-.4.2m-.6.4l-.3.2m-.7.4l-.3.2m-.7.3l-.3.2m-.6.4l-2.1 1.2m3.6 2.1l-3.6-2.1m26.1-14l.2-.1m-.2.1l-.6-.3m2.5-.8l-.5-.3m.8.2l-.3.1m-.9.6l-.6-.4m.8.2l-.2.2M158.4 84l.2-.2m-.2.2l-.5-.3m1.5-.3l.2-.1m-.2.1l-.6-.3m1.6-.3l.2-.1m-.2.1l-.6-.3m1.5-.2l.3-.2m-.3.2l-.5-.3m1.5-.3l.2-.1m-.2.1l-.5-.3m1.5-.3l.2-.1m-.2.1l-.6-.3m1.6-.2l.2-.2m-.2.2l-.6-.3m1.5-.3l.3-.1m-.3.1l-.5-.3m1.5-.2l.3-.2m-.3.2l-.5-.4m1.5-.2l.2-.1m-.2.1l-.5-.3m1.5-.3l.2-.1m-.2.1l-.6-.3m1.6-.2l.2-.2m-.2.2l-.6-.4m1.5-.2l.3-.1m-.3.1l-.5-.3m1.5-.3l.3-.1m-.3.1l-.5-.3m1.5-.2l.2-.2m-.2.2l-.6-.3m1.6-.3l.2-.1m-.2.1l-.6-.3m1.6-.3l.2-.1m-.2.1l-.6-.3m1.5-.2l.3-.2m-.3.2l-.5-.3m2.5-.9l.2-.1m-.2.1l-.6-.3m1.6-.2l.2-.2m-.2.2l-.6-.3m2.5-.9l.3-.1m-.3.1l-.5-.3m5.6-2.6l-.2.1m0 0l-.5-.3m-3.4 2.6l.2-.2m-.2.2l-.5-.3m-1.5 1.4l.3-.1m-.3.1l-.5-.3m1.3-1.8l-.5-.3m.3.5l-.5-.3m.5.3l.2-.2m.4.7c0-.2-.2-.6-.4-.7m.2.8c0-.2-.2-.6-.4-.7m.6.6l-.2.1m6.9 3.6v.2m-28.9 16.5L191 72m-32 18.5l.3.1m0 0l1.2-.7m0 0h-.1m.5-.2l.6-.4m0 0h-.1m.5-.2l.6-.3m0 0l-.1-.1m.5-.1l.6-.4m0 0h-.1m.4-.2l.6-.3m0 0l-.1-.1m.5-.2l.6-.3m0 0l-.1-.1m.5-.1l.6-.4m0 0h-.1m.5-.2l.6-.3m0 0l-.1-.1m.5-.2l.5-.3m0 0v-.1m.4-.1l.6-.4m0 0h-.1m.5-.2l.6-.3m0 0l-.1-.1m.5-.2l.6-.3m0 0h-.1m.5-.2l.6-.4m0 0h-.1m.4-.2l.6-.3m0 0v-.1m.4-.2l.6-.3m0 0h-.1m.5-.2l.6-.4m0 0h-.1m.5-.2l.6-.3m0 0l-.1-.1m.5-.1l.5-.4m0 0h0m.4-.2l.6-.4m0 0h-.1m.5-.2l.6-.3m0 0l-.1-.1m.5-.1l.6-.4m0 0h-.1m.5-.2l.6-.3m0 0l-.1-.1m.4-.2l.6-.3m0 0v-.1m.4-.1l.6-.4m0 0h-.1m.5-.2l.6-.3m0 0l-.1-.1m.5-.2l.6-.3m0 0h-.1m1-.6l-.5.4m.5-.4h0m1-.5l-.6.3m.6-.3l-.1-.1m1.6-.8l-1.1.6m.8-.7l.3.1m-29.1 16.8v.4m-.7-.3l.7.3m0 0l-1.4.8m2.5-2.2v.3m.1 0v.7m0 0c.1 0 .1-.1.2-.2m0 0v-.9m-.2 1.1l.3-.1m0 0c.1 0 .1-.1.2-.2m-.1 0l-.2.1m.2-.1v-.9m26.3-14.2l-.3.2m0-.7v.7m-.7.4l-.3.1m0-.7v.7m-.7.5l-.2.1m0-.7v.7m-1 .6l.2-.2m-.2-.5v.7m-1 .5l.2-.1m-.2-.6v.7m-1 .6l.3-.2m-.3-.5v.7m-.9.5l.2-.1m-.2-.5v.6m-1 .6l.2-.1m-.2-.6v.7m-1 .6l.2-.2m-.2-.5v.7m-1 .5l.3-.1m-.3-.6v.7m-1 .6l.3-.1m-.3-.6v.7m-.9.6l.2-.2m-.2-.5v.7m-1 .5l.2-.1m-.2-.6v.7m-1 .6l.2-.1m-.2-.6v.7m-1 .6l.3-.2m-.3-.5v.7m-.9.5l.2-.1m-.2-.6v.7m-1 .6l.2-.1m-.2-.6v.7m-1 .6l.2-.2m-.2-.5v.7m-1 .5l.3-.1m-.3-.6v.7m-1 .6l.3-.2m-.3-.5v.7m-.9.5l.2-.1m-.2-.5v.6m-1 .6l.2-.1m-.2-.6v.7m-1 .6l.2-.2m-.2-.5v.7m-1 .5l.3-.1m-.3-.5v.6m-.9.6l.2-.1m-.2-.6v.7m-1 .6l.2-.2m-.2-.5v.7m-1 .5l.2-.1m-.2-.6v.7m-3.3 5.9l-.3.2m.3-2.7v2.5m0-2.5l31.3-18m.8-2.3v3.1m-1.9-2l1.9-1.1m-1.9.7v.4m-1.5 1.2c.1 0 .1-.1.2-.2m0-.9v.9m0 0l.2-.2m0 0v-.9m-.1 1.1c.1 0 .1-.1.2-.2m-1.1.6v-.9m-.1 1.1c.1 0 .1-.1.2-.2m-.3.1l.2-.1m-.4.3c.1 0 .1-.1.2-.2m-.2-.7v.2m.2.5v-.9m-.7 1.4v-.9m-.2 1.1c.1 0 .1-.1.2-.2m-.3.1l.3-.1m-.4.3c.1 0 .1-.1.2-.2m-.3-.8v.3m.2.5v-.9m-1.7 1.9v-.9m-.2 1.1c.1 0 .1-.1.2-.2m0 0l-.2.1m-.2.2c.1 0 .1-.1.2-.2m-.3-.7v.2m.3.5v-.9m-.8.4v.9m-.1.2c.1 0 .1-.1.2-.2m-.5-.6v.2m0 .8c.1 0 .1-.1.2-.2m0-.9v.9m.2-.2l-.2.2m-.8.4v-.9m-.1 1.1c.1 0 .1-.1.2-.2m-.1 0l-.2.1m-.1.2c.1 0 .1-.1.2-.2m-.3-.7v.2m.2.5v-.9m-.7 1.4v-.9m-.2 1.1c.1 0 .1-.1.2-.2m0 0l-.3.1m-.1.2c.1 0 .1-.1.2-.2m-.3-.7v.2m.2.5v-.9m-.7.4v.9m-.2.2c.1 0 .1-.1.2-.2m-.5-.6v.2m.1.8c.1 0 .1-.1.2-.2m0-.9v.9m.2-.2l-.2.2m-.8.4v-.9m-.1 1.1c.1 0 .1-.1.2-.2m-.1 0l-.2.1m-.2.2c.1 0 .1-.1.2-.2m-.3-.7v.2m.3.5v-.9m-.8 1.4v-.9m-.1 1.1c.1 0 .1-.1.2-.2m-.1 0l-.2.1m-.2.2c.1 0 .1-.1.2-.2m-.2-.8v.3m.2.5v-.9m-.7 1.3v-.9m-.2 1.1c.1 0 .1-.1.2-.2m0 0l-.3.2m-.1.2c.1 0 .1-.1.2-.2m-.3-.8v.2m.2.6v-.9m-.7 1.3v-.9m-.2 1.1c.1 0 .1-.1.2-.2m0 0l-.3.1m-.1.2c.1 0 .1-.1.2-.2m-.3-.7v.2m.2.5V81m-.7 1.4v-.9m-.2 1.1c.1 0 .1-.1.2-.2m0 0l-.2.1m-.2.2c.1 0 .1-.1.2-.2m-.3-.8v.3m.3.5v-.9m-.8 1.3V82m-.1 1.1c.1 0 .1-.1.2-.2m-.1 0l-.2.2m-.2.2c.1 0 .1-.1.2-.2m-.2-.8v.2m.2.6v-.9m-.8.4v.9m-.1.2c.1 0 .1-.1.2-.2m-.5-.6v.2m.1.7c.1 0 .1-.1.2-.2m-.1-.9v.9m.2-.1l-.2.1m-.7.5v-.9m-.2 1.1c.1 0 .1-.1.2-.2m0 0l-.3.1m-.1.2c.1 0 .1-.1.2-.2m-.3-.8v.3m.2.5v-.9m-.7 1.3v-.9m-.2 1.1c.1 0 .1-.1.2-.2m0 0l-.2.2m-.2.2c.1 0 .1-.1.2-.2m-.3-.8v.2m.3.6v-.9m-.8.4v.9m-.1.2c.1 0 .1-.1.2-.2m-.6-.6v.2m.1.7c.1 0 .1-.1.2-.2m0-.9v.9m.2-.1l-.2.1m-.8.5v-.9m-.1 1c.1 0 .1-.1.2-.2m-.1.1l-.2.1m-.2.2c.1 0 .1-.1.2-.2m-.2-.8v.2m.2.6V85m-.7 1.3v-.9m-.2 1.1c.1 0 .1-.1.2-.2m0 0l-.3.1m-.1.2c.1 0 .1-.1.2-.2m-.3-.7v.2m.2.5v-.8m-.7.4v.9m-.2.2c.1 0 .1-.1.2-.2m-.5-.6v.2m.1.7c.1 0 .1-.1.2-.2m-.1-.9v.9m.3-.1l-.3.1m-.7.4v-.9m-.2 1.1c.1 0 .1-.1.2-.2m0 0l-.2.2m-.2.2c.1 0 .1-.1.2-.2m-.3-.8v.2m.3.6v-.9m-.8 1.3v-.9m-.1 1.1c.1 0 .1-.1.2-.2m-.1 0l-.2.1m-.2.2c.1 0 .1-.1.2-.2m-.3-.7v.2m.3.5v-.9m-.8 1.4v-.9m-.1 1.1c.1 0 .1-.1.2-.2m-.1 0l-.2.1m-.1.2c.1 0 .1-.1.2-.2m-.3-.8v.3m.2.5v-.9m-.7 1.3v-.9m-.2 1.1c.1 0 .1-.1.2-.2m0 0l-.3.2m-.1.2c.1 0 .1-.1.2-.2m-.3-.8v.2m.2.6v-.9m-.7 1.3v-.9m-.2 1.1c.1 0 .1-.1.2-.2m0 0l-.2.1m-.2.2c.1 0 .1-.1.2-.2m-.3-.7v.2m.3.5v-.9m29.3-7.4c.1 0 .1-.1.1-.3m0 0l-31.3 18.1m-.4.2c.2.1.4 0 .4-.2m31.3-22.2v4.1m-31.3 14l31.3-18.1m-31.3 18.1v4.1m-1.8-.6l1.4.8m-1.2-6.1l1.6 1.8m29.7-19.8l1.6 1.7m-7.2-1v.2m.1.8c.1 0 .1-.1.2-.2m-.1 0V76m.3.7v-.9m-.2 1.1c.1 0 .1-.1.2-.2m0 0l-.3.2m-27.3 22.5l1.9-1m-1.9 1l-3.3-1.9m0 0v-9.8m0 0l2.6-1.5m28.5-19l-.5-.3m.9 1c0-.2-.2-.6-.4-.7m.4 1.2v-.5m0 .5c0 .1 0 .1.1.2m5.2 4.5l-.7-.3m-.9-5.4l3.3 1.9m0 9.8v-9.8m-1 7.7v-5m-35.2 14.4v-2m3.6 3.7l-3.3-1.9m3.3.3v1.6m-5.9-.4l3.3 1.9m0 0l2.6-1.5m-.7 8.9l-.8-.4m.8.4v1.4m-.8-.9l.8-.5m-.8.5v-6.4m-1.1 8.3v-9.8m23.3-18.4c0 .1 0 .1.1.2m-.3 0l.2-.2m-.2.2c0 .1 0 .1.1.2m5-3.2l-.2.1m0 0c0 .1 0 .1.1.2m-.7-.9l-.3-.2m.4.4c0-.1 0-.1-.1-.2m.1.6V68m.5 0v.5m0-.5c0-.2-.2-.6-.4-.7m0 0l-.5-.2m.9.9l.2-.1m-.4-.7l-.2.1m-4 3.4v-.5m.4.6c0 .1 0 .1.1.2m-.1-.7v.5m0-.5c0-.2-.2-.6-.4-.7m0 0l-.4-.3m.3.7l-.3-.1m.4.3c0-.1 0-.1-.1-.2m.5.8l.3-.1m0-.6v.6m0-.6l-.3.2m-.1-.8l-.5-.3m.9.9c0-.2-.2-.6-.4-.7m.4 1.3c0 .1 0 .1.1.2m-.8-1.3l.3-.1m-2.3 2.3v-.5m.5.6c0 .1 0 .1.1.2m-.1-.7v.5m0-.5c0-.2-.2-.6-.4-.7m0 0l-.5-.3m.3.8l-.3-.2m.4.3c0-.1 0-.1-.1-.2m.6.8l.2-.1m0-.5v.5m0-.5l-.2.1m-.2-.8l-.5-.3m.9 1c0-.2-.2-.6-.4-.7m.4 1.2c0 .1 0 .1.1.2m-.7-1.3l.2-.1m2.6-.5v-.4m.5.5c0 .1 0 .1.1.2m-.1-.7v.5m0-.5c0-.2-.2-.6-.4-.7m0 0l-.5-.3m.3.8l-.3-.2m.4.4c0-.1 0-.1-.1-.2m.6.7l.3-.1m0-.5v.5m0-.5l-.3.1m-.1-.8l-.5-.3m.9 1c0-.2-.2-.6-.4-.7m.4 1.2c0 .1 0 .1.1.2m-.8-1.3l.3-.1m1.9-1.1l-.5-.3m.9.9c0-.2-.2-.6-.4-.7m.4.7v.6m0 0c0 .1 0 .1.1.2m-.3-.6l.2-.2m-.2.2v.5m.2-.1l-.2.1m-.2-1.3l-.2.1m.4.7c0-.2-.2-.6-.4-.7m0 0l-.5-.3m.3.8l-.3-.2m.4.3c0-.1 0-.1-.1-.2m.1.7v-.5m.5.6c0 .1 0 .1.1.2m-1.3-1l-.4-.3m.8 1c0-.2-.2-.6-.4-.7m.4.7v.5m0 0c0 .1 0 .1.1.2m-.3-.6l.2-.1m-.2.1v.6m.2-.2l-.2.2m-.2-1.4l-.2.2m.4.6c0-.2-.2-.6-.4-.7m0 .1l-.5-.3m.3.7l-.3-.2m.4.4c0-.1 0-.1-.1-.2m.1.6v-.4m.5.6c0 .1 0 .1.1.2m-25 13.8v-.5m.4.6c0 .1 0 .1.1.2m-.1-.7v.5m0-.5c0-.2-.1-.5-.3-.6m-.2.3l-.2-.1m.3.3c0-.1 0-.1-.1-.2m.5.8l.3-.2m0-.5v.5m0-.5l-.3.2m.3-.2c0-.2-.1-.5-.3-.6m.3 1.1c0 .1 0 .1.1.2m.1-.7v-.5m.5.6c0 .1 0 .1.1.2m-.1-.7v.5m0-.5c0-.2-.1-.5-.3-.6m-.3.4l-.2-.1m.3.2c0-.1 0-.1-.1-.2m.6.8l.3-.1m0-.5v.5m0-.5l-.3.1m.3-.1c0-.2-.1-.5-.3-.6m.3 1.1c0 .1 0 .1.1.2m.1-.8v-.4m.5.6c0 .1 0 .1.1.2m-.1-.8v.6m0-.6c0-.2-.1-.5-.3-.6m-.3.4l-.2-.1m.3.3c0-.1 0-.1-.1-.2m.6.8l.2-.2m0-.5v.5m0-.5l-.2.1m-.2-.8h-.1m.5.7c0-.3-.2-.6-.4-.7m.4 1.2c0 .1 0 .1.1.2m-.6-1.3l.1-.1m.7.7v-.5m.5.6c0 .1 0 .1.1.2m-.1-.7v.5m0-.5c0-.2-.2-.6-.4-.7m0 0l-.5-.3m.3.7l-.3-.1m.4.3c0-.1 0-.1-.1-.2m.6.8l.2-.1m0-.6v.6m0-.6l-.2.2m-.2-.8l-.5-.3m.9.9c0-.2-.2-.6-.4-.7m.4 1.3c0 .1 0 .1.1.2m-.7-1.3l.2-.1m.7.6v-.5m.5.6c0 .1 0 .1.1.2m-.1-.7v.5m0-.5c0-.2-.2-.6-.4-.7m0 0l-.5-.3m.3.8l-.3-.2m.4.3c0-.1 0-.1-.1-.2m.6.8l.2-.1m0-.5v.5m0-.5l-.2.1m-.2-.8l-.5-.3m.9 1c0-.3-.2-.6-.4-.7m.4 1.2c0 .1 0 .1.1.2m-.7-1.3l.2-.1m1-.6l-.5-.3m.9 1c0-.2-.2-.6-.4-.7m.4.7v.5m0 0c0 .1 0 .1.1.2m-.4 0l.3-.2m0-.5l-.3.1m0 0v.6m-.4-1.2l.3-.2m.1.8c0-.2-.2-.6-.4-.7m0 .1l-.4-.3m.3 1.3v-.4m0 0c0-.1 0-.1-.1-.2m.1 0l-.3-.2m.8 1c0 .1 0 .1.1.2m.4-.9v-.5m.5.6c0 .1 0 .1.1.2m-.1-.7v.5m0-.5c0-.2-.2-.6-.4-.7m0 0l-.5-.3m.3.7l-.3-.1m.4.3c0-.1 0-.1-.1-.2m.6.8l.2-.1m0-.6v.6m0-.6l-.2.2m-.1-.8l-.5-.3m.8.9c0-.2-.2-.6-.4-.7m.4 1.3c0 .1 0 .1.1.2m-.7-1.3l.3-.1m.6.6v-.4m.5.5c0 .1 0 .1.1.2m-.1-.7v.5m0-.5c0-.3-.2-.6-.4-.7m0 0l-.5-.3m.3.8l-.3-.2m.4.4c0-.1 0-.1-.1-.2m.6.7l.2-.1m0-.5v.5m0-.5l-.2.1m-.2-.8l-.5-.3m.9 1c0-.2-.2-.6-.4-.7m.4 1.2c0 .1 0 .1.1.2m-.7-1.3l.2-.1m.7.6v-.4m.5.6c0 .1 0 .1.1.2m-.1-.8v.6m0-.6c0-.2-.2-.6-.4-.7m0 .1l-.5-.3m.3.7l-.3-.2m.4.4c0-.1 0-.1-.1-.2m.6.8l.2-.2m0-.5v.5m0-.5l-.2.1m-.2-.8l-.5-.3m.9 1c0-.2-.2-.6-.4-.7m.4 1.2c0 .1 0 .1.1.2m-.7-1.2l.2-.2m.7.7v-.5m.4.6c0 .1 0 .1.1.2m-.1-.7v.5m0-.5c0-.3-.2-.6-.4-.7m.1 0l-.5-.3m.3.8l-.3-.2m.4.3c0-.1 0-.1-.1-.2m.5.8l.3-.1m0-.6v.6m0-.6l-.3.2m-.1-.8l-.5-.3m.9.9c0-.2-.2-.6-.4-.7m.4 1.3c0 .1 0 .1.1.2m-.7-1.3l.2-.1m.6.6v-.4m.5.5c0 .1 0 .1.1.2m-.1-.7v.5m0-.5c0-.2-.2-.6-.4-.7m0 0l-.5-.2m.3.7l-.3-.2m.4.4c0-.1 0-.1-.1-.2m.6.7l.3-.1m0-.5v.5m0-.5l-.3.1m-.1-.8l-.5-.3m.9 1c0-.2-.2-.6-.4-.7m.4 1.2c0 .1 0 .1.1.2m-.8-1.3l.3-.1m.6.6V77m.5.6c0 .1 0 .1.1.2m-.1-.7v.5m0-.5c0-.2-.2-.6-.4-.7m0 0l-.5-.3m.3.7l-.3-.1m.4.3c0-.1 0-.1-.1-.2m.6.8l.2-.2m0-.5v.5m0-.5l-.2.2m-.2-.9l-.4-.2m.8.9c0-.2-.2-.6-.4-.7m.4 1.2c0 .1 0 .1.1.2m-.7-1.2l.2-.2m1-.5l-.5-.3m.9 1c0-.3-.2-.6-.4-.7m.4.7v.5m0 0c0 .1 0 .1.1.2m-.3-.1l.2-.1m0-.5l-.2.1m0 0v.5m-.4-1.2l.2-.1m.2.8c0-.2-.2-.6-.4-.7m0 0l-.5-.3m.4 1.4v-.5m0 0c0-.1 0-.1-.1-.2m0 .1l-.3-.2m.9.9c0 .1 0 .1.1.2m.4-.9v-.4m.5.5c0 .1 0 .1.1.2m-.1-.7v.5m0-.5c0-.2-.2-.6-.4-.7m0 0l-.5-.2m.3.7l-.3-.2m.4.4c0-.1 0-.1-.1-.2m.6.7l.2-.1m0-.5v.5m0-.5l-.2.1m-.2-.8l-.5-.3m.9 1c0-.2-.2-.6-.4-.7m.4 1.2c0 .1 0 .1.1.2m-.7-1.3l.2-.1m.6.7v-.5m.5.6c0 .1 0 .1.1.2m-.1-.7v.5m0-.5c0-.2-.2-.6-.4-.7m0 0l-.4-.3m.3.7l-.3-.1m.3.3c0-.1 0-.1-.1-.2m.6.8l.3-.2m0-.5v.5m0-.5l-.3.2m-.1-.9l-.5-.2m.9.9c0-.2-.2-.6-.4-.7m.4 1.2c0 .1 0 .1.1.2m-.8-1.2l.3-.2m.6.7v-.5m.5.6c0 .1 0 .1.1.2m-.1-.7v.5m0-.5c0-.3-.2-.6-.4-.7m0 0l-.5-.3m.3.8l-.3-.2m.4.3c0-.1 0-.1-.1-.2m.6.8l.3-.1m0-.5v.5m0-.5l-.3.1m-.1-.8l-.5-.3m.9 1c0-.3-.2-.6-.4-.7m.4 1.2c0 .1 0 .1.1.2m-.8-1.3l.3-.1m.6.6v-.4m.5.5c0 .1 0 .1.1.2m-.1-.7v.5m0-.5c0-.2-.2-.6-.4-.7m0 0l-.5-.2m.3.7l-.3-.2m.4.4c0-.1 0-.1-.1-.2m.6.7l.2-.1m0-.5v.5m0-.5l-.2.1m-.2-.8l-.5-.3m.9 1c0-.3-.2-.6-.4-.7m.4 1.2c0 .1 0 .1.1.2m-.7-1.3l.2-.1m1-.6l-.5-.2m.9.9c0-.2-.2-.6-.4-.7m.4.7v.5m0 0c0 .1 0 .1.1.2m-.3 0l.2-.2m0-.5l-.2.2m0 0v.5m-.4-1.2l.2-.2m.2.9c0-.3-.2-.6-.4-.7m0 0l-.5-.3m.4 1.4v-.5m0 0c0-.1 0-.1-.1-.2m0 0l-.3-.1m.9.9c0 .1 0 .1.1.2m1.3-1.5v-.4m.5.6c0 .1 0 .1.1.2m-.1-.8v.6m0-.6c0-.2-.2-.6-.4-.7m0 .1l-.5-.3m.3.7l-.3-.2m.4.4c0-.1 0-.1-.1-.2m.6.8l.3-.2m0-.5v.5m0-.5l-.3.1m-.1-.8l-.5-.3m.9 1c0-.2-.2-.6-.4-.7m.4 1.2c0 .1 0 .1.1.2m-.8-1.2l.3-.2m.6.7v-.5m.5.6c0 .1 0 .1.1.2m-.1-.7v.5m0-.5c0-.2-.2-.6-.4-.7m0 0l-.5-.3m.3.7l-.3-.1m.4.3c0-.1 0-.1-.1-.2m.6.8l.2-.1m0-.6v.6m0-.6l-.2.2m-.2-.8l-.4-.3m.8.9c0-.2-.2-.6-.4-.7m.4 1.3c0 .1 0 .1.1.2m-.7-1.3l.2-.1m1.7 0v-.4m.5 0v.6m-.6-.8l-.3-.2m.4.4c0-.1 0-.1-.1-.2m.8.1v.5m9.4-2v1.6m2.5 8.3l-.9.6m.9-10.4l-2.5 1.5m-.8-3.4l-1.2.6m3.5 13.5l-31.3 18.1m25.1-37.4v2.5m-1.1-3.1l1.1.6m0 2.5l-5.1 2.9m-.8-.4l.8.4m0 0v-2.5m-1.1-.6l1.1.6m-1.1.3v-.9m1.1.6l5.1-2.9m-6.2 2.3l5.1-2.9M148 91.7l5.1-3m-1.2-.7l1.2.7m-6.7 2.1l2.3-1.3m-2.3 1.3l1.6.9m5.1-3v4.8m0 0l-5.1 2.9m-1.6-.9l1.6.9m0 0v-4.7m-1.6 3.8v-4.7m38.5-45l.6-.4m-.6-.3l.6.3m0 0v2.4m0 0l-.6.4m3.6 8.4v1.2m-.5-1.6l.5.4m0 1.2l-2 1.2m-.8-.5l.8.5m0 0v-1.2m-.8-.5l.8.5m-.8.7v-1.2m.8.5l2-1.2m-2.8.7l.6-.3m9.4.3v1.2m-.8-1.6l.8.4m0 1.2l-2.1 1.2m-.8-.4l.8.4m0 0v-1.2m-.8-.5l.8.5m-.8.8V58m.8.5l2.1-1.2m-2.9.7l2.1-1.1m-10-15l.6-.4m-.6-.4l.6.4m0 0v2.4m0 0l-.6.3m-2.5-7.9v-1.2m-1.1-.7l1.1.7m-1.1.6v-1.3m0 1.3l1.1.6m0-1.2l2-1.2m-1-.6l1 .6m-3.1.5l2.1-1.1m1 .6v1.2m0 0l-2 1.2M148 72.2V71m-.8-.5l.8.5m-.8.8v-1.3m0 1.3l.8.4m0-1.2l2-1.2m-.8-.5l.8.5m-2.8.7l2-1.2m.8.5V71m0 0l-2 1.2m25.6-28.9v-1.2m-1.1-.7l1.1.7m-1.1.6v-1.3m0 1.3l1.1.6m0-1.2l2-1.2m-.6-.4l.6.4m-3.1.5l.6-.3m2.5-.2v1.2m0 0l-2 1.2M173 69v2.4m-1-3.1l1 .7m0 2.4l-5 3m-.8-.5l.8.5m0 0v-2.5m-1.1-.6l1.1.6m-1.1.3v-.9m1.1.6l5-2.9m-6.1 2.3l5.1-3m-9.2-.8l1.8-1m-.8-.5l.8.5m-1.8.1l1-.6m.8.5v1.2m0 0l-1.8 1m-6.5-11.8v1.3m-.9-1.8l.9.5m0 1.3l-2.1 1.1m-1.1-.6l1.1.6m0 0v-1.2m-1.1-.6l1.1.6m-1.1.6v-1.2m1.1.6l2.1-1.2m-3.2.6l2.1-1.2m8.8-1.6l1.1-.6m-1.1-.6l1.1.6m-2.2 0l1.1-.6m-1.1.6l1.1.6m1.1-.6v2.4m0 0l-1.1.6m-.9-.5l.9.5m0 0v-2.4m-1.1.1v-.7m-1.9 1.8v1.2m0 0l-2.1 1.2m-.8-.4l.8.4m0 0v-1.2m-.8.8v-.4m28.4-4.3V52m-.8-.5l.8.5m-.8.8v-1.3m0 1.3l.8.4m0-1.2l2-1.2m-.7-.4l.7.4m-2.8.7l2.1-1.1m.7.4v1.3m0 0l-2 1.1m-7.6 12.4v2.5m-1.1-3.1l1.1.6m0 2.5l-5.1 2.9m-.8-.5l.8.5m0 0v-2.5m-1.1-.6l1.1.6m-1.1.3v-.9m1.1.6l5.1-2.9m-6.2 2.3l5.1-2.9m17.6 3.8v1.6m-.1-1.7l.1.1m0 1.6l-3.4 1.9m0-1.6l3.4-1.9m-3.4 1.8l3.3-1.9m-28.2 1.6V69m-.8-.4l.8.4m-.8.8v-1.2m0 1.2l.8.5m0-1.3l2.1-1.1m-.3-.2l.3.2m-2.9.7l1-.6m1.9-.1v1.2m0 0l-2.1 1.2M158 57.6v-6m-1.5-.9l1.5.9m-1.7 5v-.7m0-2.6v-1m0 4.3l1.7 1m0-6l4.2-2.4m-1.7-1l1.7 1m-5.7 1.3l4-2.3m1.7 1v6m0 0l-4.2 2.4m-10 16.5v-1.2m-.8-.5l.8.5m-.8.8v-1.3m0 1.3l.8.4m0-1.2l2-1.2m-.6-.3l.6.3m-2.8.7l.6-.3m2.2-.4v1.2m0 0l-2 1.2m12 4.1v3.3m-.7-3.7l.7.4m0 3.3l-4.3 2.5m-2.2-1.3l2.2 1.3m0 0v-3.3m-2.8-1.6l2.8 1.6m-2.8.1v-1.7m2.8 1.6l4.3-2.5m-7.1.9l.7-.4m9.2-19.8v11.5m-2.4-12.9l2.4 1.4m0 11.5l-9.9 5.8m-2.5-1.4l2.5 1.4m0 0V64.7m-2.3-1.4l2.3 1.4m-2.5 10.1v-5.9m0-2.6v-1.2m2.5-.4l9.9-5.8m-12.2 4.3l1.9-1.1m2.3-1.4l.9-.5m2.3-1.3l2.4-1.4m10.7 8.9v-.7m-.6.3l.6.4m2.1-1.9v.7m0 0l-2.1 1.2m6.9-4v-.7m-.7.4l.7.3m2-1.9v.8m0 0l-2 1.1m-3.4 3.9v-1.2m-1.1-.6l1.1.6m-1.1.6v-1.2m0 1.2l1.1.6m0-1.2l2-1.2m-.6-.3l.6.3m-3.1.6l.6-.4m2.5-.2v1.3m0 0l-2 1.1m-24-1.3l-1.1.7m-.4-.3l.4.3m0 0v-2.4m-1.1-.6l1.1.6m-1.1-.1v-.5m1.1.6l1.1-.6m-1.1-.7l1.1.7m-2.2 0l1.1-.7m1.1.7V65m.4 15.1l-1.1.6m-.8-.5l.8.5m0 0v-2.4m-1.1-.6l1.1.6m-1.1.3v-.9m1.1.6l1.1-.6m-1.1-.6l1.1.6m-2.2 0l1.1-.6m1.1.6v2.4m15.7-13.6l-1 .6m-1.1-.6l1.1.6m0 0v-2.4m-.9-.5l.9.5m-1.1 1.8v-1.1m1.1-.7l1-.6m-1-.6l1 .6m-1.9-.1l.9-.5m1 .6v2.4m29.8 1.3v.2m0 0l-2.1 1.2m-.2-.1l.2.1m0 0v-.3M149 96.3v1.3m-.4-1.5l.4.2m0 1.3l-2 1.2m-.8-.5l.8.5m0 0v-1.3m-.8-.4l.8.4m-.8.8v-1.2m.8.4l2-1.2m-2.8.8l1.5-.9m1.4-15.1l-1.1.7m-1-.7l1 .7m0 0v-2.4m-1-.6l1 .6m-1 1.7v-2.3m1 .6l1.1-.6m-1.1-.7l1.1.7m-2.1 0l1-.7m1.1.7v2.3m4.4 0v3.3m-2.1-4.5l2.1 1.2m0 3.3l-4.3 2.5m-2.1-1.2l2.1 1.2m0 0v-3.3m-2.1-1.2l2.1 1.2m-2.1 2.1v-3.3m2.1 1.2l4.3-2.5m-6.4 1.3l4.3-2.5m-1.3 17v-1.2m-.4-.3l.4.3m-.8.8v-.9m0 .9l.8.4m0-1.2l2.1-1.2m-.5-.2l.5.2m0 0v1.3m0 0l-2.1 1.1m17.7-28.6v-1.2m-1.1-.6l1.1.6m-1.1.6v-1.2m0 1.2l1.1.6m0-1.2l.6-.4m-1.7-.2l.6-.4m2.6.3v.7m0 0l-2.1 1.2m4.4-25.4v1.2m-1.1-1.9l1.1.7m0 1.2l-2 1.2m-1.1-.6l1.1.6m0 0V44m-1.1-.6l1.1.6m-1.1.7v-1.3m1.1.6l2-1.1m-3.1.5l2-1.2m15.4 13v-1.3m-.8-.4l.8.4m-.8.8v-1.2m0 1.2l.8.5m0-1.3l2-1.2m-.5-.3l.5.3m-2.8.8l.6-.4m2.2-.4V54m0 0l-2 1.2m-23.4 11.1l-.3.1m0-2.3l.3-.2m-.3-.2l.3.2m0 0v2.4m7.1 2.2v-1.2m-.3-.2l.3.2m-.8.8v-.7m0 .7l.8.4m0-1.2l2-1.2m-.3-.2l.3.2m-2.3.5l.7-.5m1.6 0v1.3m0 0l-2 1.1m-8.2-13l1.1-.6m-.8-.5l.8.5m-.9-.4l.1-.1m-.5 1l.2.1m1.1-.6v2.3m0 0l-1.1.7m-.7-.5l.7.5m0 0v-2.4m-.7 1.9v-1.7m-2.1 17.2v-.4m-.4.2l.4.2m2.1-1.6v.5m0 0l-2.1 1.1M170 40.2v1.6m-.1-1.6h.1m0 1.6l-3.7 2.2m-.1-.1l.1.1m0 0v-1.6m-.1-.1l.1.1m-.1 1.5v-1.6m.1.1l3.7-2.2m-3.8 2.1l3.7-2.1m-12.2 9.1V48m-.8-.4l.8.4m-.8.8v-1.2m0 1.2l.8.5m0-1.3l2.1-1.1m-.8-.5l.8.5m-2.9.7l2.1-1.2m.8.5v1.2m0 0l-2.1 1.2m24.7-11.1V37m-1.1-.6l1.1.6m-1.1.6v-1.2m0 1.2l1.1.6m0-1.2l2-1.2m-.6-.3l.6.3m-3.1.6l.6-.4m2.5-.2V37m0 0l-2 1.2m-33.3 28l-1.2.8m-1.3-.8l1.3.8m0 0v-2.6m-1.3-.8l1.3.8m-1.3 1.8v-2.6m1.3.8l1.2-.8m-1.2-.7l1.2.7m-2.5 0l1.3-.7m1.2.7v2.6m15 6.3v-1.2m-.8-.5l.8.5m-.8.7v-1.2m0 1.2l.8.5m0-1.2l2-1.2m-.6-.4l.6.4m-2.8.7l.7-.4m2.1-.3v1.2m0 0l-2 1.2m-.1-22.4l1.1-.6m-1.1-.7l1.1.7m-2.2 0l1.1-.7m-1.1.7l1.1.6m1.1-.6v2.3m0 0l-1.1.6m-.6-.3l.6.3m0 0v-2.3m-1.1 0v-.6m-.6 1.5l1.1-.6m-1.1-.6l1.1.6m-1.2-.5l.1-.1m-.1 1.2h.1m1.1-.6v2.4m0 0l-1.1.6m-.1 0h.1m0 0V51m-5.6 51.8c-.4-.2-1 .1-1.4.8-.4.7-.4 1.4 0 1.6.4.2 1-.1 1.4-.8.4-.7.4-1.4 0-1.6"/><path fill="none" stroke="#010202" stroke-width=".4" stroke-linecap="round" stroke-linejoin="round" stroke-miterlimit="10" d="M156.6 102.7c-.4-.2-1 .1-1.4.8-.4.7-.4 1.4 0 1.6m1.4-2.4l.1.1m-1.5 2.3l.1.1m.1-51.2l1.1-.6m-1.1-.6l1.1.6m-2.2 0l1.1-.6m-1.1.6l1.1.6m1.1-.6v2.4m0 0l-1.1.6m-1.1-.6l1.1.6m0 0V54m-1.1 1.8v-2.4m.5 6.4V61m-1.1-1.8l1.1.6m0 1.2l-2.1 1.2m-1-.6l1 .6m0 0V61m-1-.6l1 .6m-1 .6v-1.2m1 .6l2.1-1.2m-3.1.6l2-1.2m14.6-14.1v1.3m-1.1-1.9l1.1.6m0 1.3l-2.1 1.1m-1-.6l1 .6m0 0v-1.2m-1-.6l1 .6m-1 .6v-1.2m1 .6l2.1-1.2m-3.1.6l2-1.2M178 64.4v-1.3m-1.1-.6l1.1.6m-1.1.6v-1.2m0 1.2l1.1.7m0-1.3l2-1.2m-.6-.3l.6.3m-3.1.6l.6-.3m2.5-.3v1.3m0 0l-2 1.2m-21.5-12.2l-1.1.6m-1.1-.6l1.1.6m0 0v-2.4m-1.1-.6l1.1.6m-1.1 1.8v-2.4m1.1.6l1.1-.6m-1.1-.6l1.1.6m-2.2 0l1.1-.6m1.1.6v2.4m-9 15.7l1-.7m-.5-.3l.5.3m-1.8.2l1-.6m-1 .6l.8.5m1-.7v2.4m0 0l-1 .6m-.8-.4l.8.4m0 0v-2.3m-.8 1.9v-2.4M148 78v-1.3m-.8-.4l.8.4m-.8.8v-1.2m0 1.2l.8.5m0-1.3l2-1.2m-.6-.3l.6.3m-2.8.8l.6-.4m2.2-.4v1.3m0 0l-2 1.2m35.5-19.5v.8m0 0l-2.1 1.2m-.6-.4l.6.4m0 0v-.8m-16.6 5.6l-1.1.6m-.6-.3l.6.3m0 0v-2.3m-.8-.5l.8.5m-.8.2v-.7m.8.5l1.1-.6m-.8-.5l.8.5m-1.9.1l1.1-.6m.8.5v2.3m-12 13.7l-1 .6m-.8-.4l.8.4m0 0v-2.4m-1.1-.6l1.1.6m-1.1.3v-.9m1.1.6l1-.6m-1-.6l1 .6m-2.1 0l1.1-.6m1 .6V79m13.9-28.1l-1 .6m-.6-.3l.6.3m0 0v-2.4m-1.1-.6l1.1.6m-1.1.1v-.7m1.1.6l1-.6m-1-.6l1 .6m-2.1 0l1.1-.6m1 .6v2.4m6.9-9.5v-1.3m-1.1-.6l1.1.6m-1.1.7v-1.3m0 1.3l1.1.6m0-1.3l2-1.1m-1-.7l1 .7m-3.1.5l2.1-1.2m1 .7v1.2m0 0l-2 1.2M168.8 67V48.5m-2.1-1.2l2.1 1.2m-2.3 15.4v-1m0-2.7v-4.6m0-2.6v-2m0-2.6v-1m.2 18.4l2.1 1.2m0-18.5l16.1-9.3m-2.1-1.2l2.1 1.2m-16.6 6.9l1.6-1m2.3-1.3l1.1-.6m2.3-1.4l1.2-.6m2.3-1.3l3-1.8m2.8 1.1v18.5m0 0L168.8 67m23.9-7.7v1.3m-1-1.9l1 .6m0 1.3l-2 1.2m-1.1-.7l1.1.7m0 0v-1.3m-1.1-.6l1.1.6m-1.1.6v-1.2m1.1.6l2-1.2m-3.1.6l2.1-1.2M177 39.4v-1.2m-1.1-.7l1.1.7m-1.1.6v-1.3m0 1.3l1.1.6m0-1.2l2.1-1.2m-1.1-.6l1.1.6m-3.2.5l2.1-1.1m1.1.6v1.2m0 0l-2.1 1.2m7.4-1.2l1.1-.7m-1.1-.6l1.1.6m-2 .1l.9.6m1.1-.7v2.4m0 0l-.6.4m-.5-1.3v-.8m-1 .1v-.6m8.6 31.6l1.2-.6m-2.2 0l1.2-.7m1 .7v1.2m0 0l-1.2.7m-27.9-.1v-1.3m-.8-.4l.8.4m-.8.8v-1.2m0 1.2l.8.5m0-1.3l2-1.2m-.7-.4l.7.4m-2.8.8l2.1-1.2m.7.4v1.3m0 0l-2 1.2m1.6-9.5l1-.6m-1-.7l1 .7m-2.1 0l1.1-.7m-1.1.7l1.1.6m1-.6v2.3m0 0l-1 .6m-1.1-.6l1.1.6m0 0V61m-1.1 1.7v-2.3m10 4v-.7m-.7.4l.7.3m2-1.9v.7m0 0l-2 1.2M147.5 99c-.3-.2-.8.1-1.1.6-.3.5-.3 1.1 0 1.3.3.2.8-.1 1.1-.6.3-.5.3-1.1 0-1.3"/><path fill="none" stroke="#010202" stroke-width=".4" stroke-linecap="round" stroke-linejoin="round" stroke-miterlimit="10" d="M147.4 99c-.3-.2-.8.1-1.1.6-.3.5-.3 1.1 0 1.3m1.1-1.9h.1m-1.2 1.9h.1m47.8-28.4V74m-.1-1.6l.1.1m0 1.5l-2.2 1.3m0-1.6l2.2-1.2m-2.2 1.1l2.1-1.2m-38.1-12v-1.3m-.7-.4l.7.4m-1.1.6v-.8m0 .8l1.1.7m0-1.3l2-1.2m-1.1-.6l1.1.6m-1.7-.2l.6-.4m1.1.6v1.3m0 0l-2 1.2m5.3 17.5l-1.3.7m-.6-.7v-.1m.6-3.2l1.3-.7m-1.1-.6l1.1.6m-2-.1l.9-.5m1.1.6v4m5.9-5.5v2.4m-1.1-3.1l1.1.7m0 2.4l-5.1 3m-.8-.5l.8.5m0 0v-2.5m-.8-.5l.8.5m0 0l5.1-2.9m-5.9 2.1l4.8-2.8m-6.1 2.5v3.2m-1.8-4.3l1.8 1.1m0 3.2l-4.3 2.5m-2.8-1.6l2.8 1.6m0 0v-3.3m-1.8-1l1.8 1m-2.8 1.7v-2.2m2.8.5l4.3-2.4m-11 15.5v-2.2m-1.7-1l1.7 1m-1.7 1.1v-2.1m0 2.1l1.7 1.1m0-2.2l3.4-2m-.4-.2l.4.2m-5.1 1l.6-.4m4.5-.6v2.2m0 0l-3.4 2m28-48.4v-1.2m-1.1-.6l1.1.6m-1.1.6v-1.2m0 1.2l1.1.6m0-1.2l2.1-1.2m-.6-.3l.6.3m-3.2.6l.6-.4m2.6-.2v1.2m0 0l-2.1 1.2m9.1 3.8l1.1-.6m-1.1-.6l1.1.6m-2.2 0l1.1-.6m-1.1.6l1.1.6m1.1-.6v2.4m0 0l-1.1.6m-.6-.4l.6.4m0 0v-2.4m-1.1.1v-.7m-.1 9.3l.6-.3m-.6-.4l.6.4m0 0v2.3m0 0l-.6.4m-25.6 43.3l-5.1 2.9m-.1 0h.1m0 0v-1.5m-.1-.1l.1.1m-.1 1.5v-1.6m.1.1l2.6-1.5m-2.7 1.4l2.6-1.5M149.5 67l1.1-.6m-1.1-.6l1.1.6m-1.5-.4l.4-.2m-.9.7l.9.5m1.1-.6v2.4m0 0l-1.1.6m-1-.6l1 .6m0 0V67m-1.1.2v-.6m14.7-4.7l-.3.1m0-2.3l.3-.2m-.3-.2l.3.2m0 0v2.4m31 7.2v-6.7m-2.2-1.3l2.2 1.3m-2.7 5.2v-6.3m0 6.3l2.7 1.5m0-6.7l2.7-1.6m-2.5-1.5l2.5 1.5m-4.1-.7l.8-.5m3.3 1.2v6.8m0 0l-2.7 1.5m-32.8-21.4v-1.3m-1.2-.7l1.2.7m-1.2.7v-1.4m0 1.4l1.2.6m0-1.3l2.2-1.3m-1.2-.6l1.2.6m-3.4.6l2.2-1.2m1.2.6v1.4m0 0l-2.2 1.2m1.5 22.5l.4-.2m-.4-.3l.4.3m0 0v2.3m0 0l-1.1.6m-.7-.4l.7.4m0 0v-2.1m-.7 1.7v-1.2m24.7-30.1l1.1-.7m-1.1-.6l1.1.6m-2.2 0l1.1-.6m-1.1.6l1.1.7m1.1-.7v2.4m0 0l-1.1.6m-.6-.3l.6.3m0 0v-2.3m-1.1 0v-.7m-19.3 13.2l1-.6m-1-.6l1 .6m-2.1 0l1.1-.6m-1.1.6l1.1.6m1-.6v2.4m0 0l-1 .6m-.6-.3l.6.3m0 0v-2.4m-1.1.1v-.7m-16.6 23v-1.3m-.8-.4l.8.4m-.8.8v-1.2m0 1.2l.8.5m0-1.3l2-1.2m-.6-.3l.6.3m-2.8.8l.6-.4m2.2-.4v1.3m0 0l-2 1.2m38.6-44.6c-.4-.2-1 .1-1.4.8-.4.7-.4 1.4 0 1.6.4.2 1-.1 1.4-.8.4-.6.4-1.4 0-1.6"/><path fill="none" stroke="#010202" stroke-width=".4" stroke-linecap="round" stroke-linejoin="round" stroke-miterlimit="10" d="M186.5 31.5c-.4-.2-1 .1-1.4.8-.4.7-.4 1.4 0 1.6m1.4-2.4h.1m-1.4 2.4h.1m3.2 20.8v1.2m-.5-1.6l.5.4m0 1.2l-2 1.2m-.8-.5l.8.5m0 0v-1.3m-.8-.4l.8.4m-.8.8v-1.2m.8.4l2-1.1m-2.8.7l.6-.4m-1.4-5.2l.6-.4m-.6-.4l.6.4m0 0v2.4m0 0l-.6.3m-5.3-19.2l-.4-.2m.4.2c.1.6.6.7 1.1.3.4-.3.8-.9.8-1.4m0 0l-.4-.2m-1.6 1.3l-.4-.2m.4.2s.1 0 0 0m-.2 0l-.4-.2m.6.2h-.2m-32 18.5l-.4-.2m.4.2l32-18.5m-34.9 23.6l-.4-.2m3.3-4.9c-1.6.9-2.9 3.2-2.9 5.1m0 54.2l-.4-.2m.4.2V56.5m0 54.2c0 1.9 1.3 2.6 2.9 1.7m18.3-10.6l-14.2 8.2m-3.1 1.8l-1 .6m18.3-10.6c.1 0 .1-.1.2-.2m.1-.1s0 .1-.1.1m2-1.2l-.3-.3m.3.3c-.1-.6-.6-.7-1.1-.3-.4.3-.8.9-.8 1.4m2-1.1s0 0 0 0m0 0h.2m24.1-13.9l-24.1 13.9M197.2 26v1.2m0 3.6v47m-2.9-53.5l-.4-.2m3.3 1.9c0-1.9-1.3-2.6-2.9-1.7m-12.5 7.2l-.4-.2m.4.2l12.5-7.2m-12.7 7.4l-.4-.2m.6 0c-.1 0-.1.1-.2.2m-.1.1l.1-.1m-36.4 80.9l-.4-.2m51.5-88.3l-.4-.2m-47.7 4.8l.1.1m1.2-.8l.1-.1c.4-.2.8-.5 1.1-.7.4-.2.7-.5 1.1-.7.4-.2.8-.5 1.1-.7"/><path fill="none" stroke="#010202" stroke-width=".4" stroke-linecap="round" stroke-linejoin="round" stroke-miterlimit="10" d="M153 25.8c-.4.2-.8.4-1.2.7-.4.2-.8.5-1.2.7-.4.2-.8.5-1.2.8-.4.3-.8.5-1.2.8m9-5.4c-.3.2-.7.3-1 .5-.4.2-.7.4-1.1.6-.3.2-.7.4-1 .6-.4.2-.7.4-1.1.7m0 0l1.2-.6c.4-.2.8-.4 1.1-.6.4-.2.7-.4 1.1-.5m.8-.7h.2m-32.1 55.8l-.1-.1m0-1c0-.4 0-.8-.1-1.2 0-.4 0-.9-.1-1.3 0-.5 0-.9-.1-1.4"/><path fill="none" stroke="#010202" stroke-width=".4" stroke-linecap="round" stroke-linejoin="round" stroke-miterlimit="10" d="M125 74.2v3.7c0 .4 0 .8.1 1.2m0-10.5c0 .5-.1 1-.1 1.4v4.2"/><path fill="none" stroke="#010202" stroke-width=".4" stroke-linecap="round" stroke-linejoin="round" stroke-miterlimit="10" d="M125 74.2c0-.4 0-.9.1-1.3 0-.4 0-.9.1-1.3 0-.4 0-.9.1-1.4V70m0-1.3l-.1-.1m34.7-51.4s0 0 0 0m0 0c.1 0 .1 0 .1.1"/><path fill="none" stroke="#010202" stroke-width=".4" stroke-linecap="round" stroke-linejoin="round" stroke-miterlimit="10" d="M159.9 17.2c.4.2.9.5 1.3.7 1 .6 2.1 1.1 3.1 1.7m-39.4 18.8c0-.1 0-.2.1-.3.1-.1.1-.3.2-.4.1-.2.2-.4.4-.6.1-.1.1-.2.2-.3m-.1.1c-.1-.1-.2-.1-.2-.1m-.7 1.5s0 .1.1.1m35-21.2c-10-3.3-24.1 4.9-34.2 19.7m-4.8 8s.1.1.2.1"/><path fill="none" stroke="#010202" stroke-width=".4" stroke-linecap="round" stroke-linejoin="round" stroke-miterlimit="10" d="M121 45.1c.1-.2.1-.3.2-.5l.3-.6c.1-.2.2-.3.3-.4m.1 0h-.1m-.8 1.5c.4.2.8.5 1.2.7l3 1.8m-4 37l-.1-.1m-.1 0s0 0 0 0m0-39.4c-7.9 16.1-7.9 32.4 0 39.5m4.3 2.5l-3-1.8c-.4-.3-.8-.5-1.2-.8m8.9-45.2c-1-.6-2-1.1-3-1.7-.4-.2-.8-.5-1.3-.7m-.6 42.2c0 .3.1.6.1 1v.1m.1-13v.2c0 .4-.1.8-.1 1.2m23-39.9c-.3.2-.7.5-1 .7l-.1.1m11.1-6.5h-.1c-.3.1-.6.3-.9.4m2.7-6.2c.1 0 .1 0 .2.1m0-.1c1.4.8 2.8 1.5 4.2 2.3m-39.5 18.8c0-.2.1-.4.2-.5.1-.2.2-.4.3-.5.1-.1.2-.3.3-.4"/><path fill="none" stroke="#010202" stroke-width=".4" stroke-linecap="round" stroke-linejoin="round" stroke-miterlimit="10" d="M125.5 36.8c1.9-2.8 4-5.5 6.3-7.9 2.3-2.4 4.6-4.5 7.1-6.3 2.4-1.8 4.9-3.2 7.4-4.2 2.4-1 4.9-1.7 7.2-1.9 2.3-.2 4.5 0 6.5.7m-39.1 27.7l.3-.6c.1-.1.2-.3.3-.4.1-.1.2-.3.3-.4m0 .1c.3-.3.6-.5.8-.9.3-.3.5-.7.8-1 .2-.4.4-.7.6-1.1.2-.4.4-.8.5-1.2l.3-1.2m-3.6 46.4c-.1 0-.1-.1-.2-.1m0 0c-1.6-1.4-2.8-3.2-3.8-5.3-1-2.1-1.6-4.5-2-7.1-.3-2.6-.3-5.5 0-8.5s1-6.1 1.9-9.3c.9-3.1 2.2-6.3 3.7-9.4m4.5 42.2c-1.4-.8-2.7-1.7-4.1-2.5m4.1-39.1c-.6-.4-1.3-.7-1.9-1.1-.5-.3-1-.6-1.4-.8m-.1 0c1.5-1.3 2.6-3.3 3-5.2m0 0c.5.3 1 .6 1.5.8.6.4 1.3.7 1.9 1.1M125 74.2c.1-.8.2-1.7.2-2.5.1-.8.1-1.7.1-2.6m0-.2c0 .1.1.2.2.2m-.2 10.4c0 .1.1.2.2.2"/><path fill="none" stroke="#010202" stroke-width=".4" stroke-linecap="round" stroke-linejoin="round" stroke-miterlimit="10" d="M125.4 79.7c0-.9-.1-1.8-.1-2.7-.1-.9-.2-1.9-.2-2.8m.2 30c0 .1.1.2.2.2m-.1.1V79.7m0 24.8c0 .6.2 1 .5 1.2m-.5-36.6V45.7m-.1-.2c0 .1.1.2.2.2m0-1l.2.1m0 0c-.2.3-.3.7-.3 1m2.2-4.8l.2.1m-2.1 3.7l2.1-3.7m.7-.7c-.1-.1-.2-.1-.3 0m.3 0c-.3.1-.5.4-.7.7m.7-.7l20.3-11.7m0 0c-.1-.1-.2-.1-.3 0m.3 0c.8-.4 1.5-.9 2.2-1.4.7-.5 1.4-1 2-1.5m5-2.5c-.1-.1-.2-.1-.3 0m.3 0L179.4 11m0 0c-.1-.1-.2-.1-.3 0m1.6-.2c-.4-.2-.8-.1-1.4.2M153 25.8c.9-.4 1.7-.8 2.5-1.2.8-.4 1.7-.8 2.4-1.3m-32.6 45.6v1m-.1 8.2v1.5m.1 24.6V79.5"/><path fill="none" stroke="#010202" stroke-width=".4" stroke-linecap="round" stroke-linejoin="round" stroke-miterlimit="10" d="M126 105.7c-.1-.1-.2-.1-.3-.2-.1-.1-.1-.2-.2-.3-.1-.1-.1-.2-.1-.3 0-.1-.1-.2-.1-.3v-.3m0-35.4V45.5m.2-.8c0 .1-.1.1-.1.2s0 .1-.1.2c0 .1 0 .1-.1.2v.4m.3-1l2.1-3.7m.6-.7c-.1 0-.1.1-.1.1l-.1.1-.1.1-.1.1s-.1.1-.1.2m.5-.6l20.3-11.7m1-.6c-.1 0-.1.1-.2.1s-.1.1-.2.1-.1.1-.2.1-.1.1-.2.1-.1.1-.2.1m9.2-5.2L179.1 11m0 0c.1-.1.2-.1.3-.2.1 0 .2-.1.3-.1h.6c.1 0 .2.1.3.1m-22.9 12.5c-.1 0-.2.1-.3.1-.1 0-.2.1-.3.1-.1 0-.2.1-.3.1-.1 0-.2.1-.3.1-.1 0-.2.1-.3.1m-15.9 89.7c0 .7.3 1.3.7 1.5m55.3-95.8c-.4-.3-1.1-.2-1.7.1m-54.3 94.2l1.4.8m-1.4-.8V54.6m3.3-5.8l51-29.5m0 0l1.4.9m-55.4 33.4l2.3-4.1m-.5 66.3l-1.4-.7M197.7 20l-1.4-.8m-56 94.3l-14.9-9m69.2-85.2L179.4 11M126 105.7l14.9 9.3m39.8-104.2l15.6 8.4m-54.6 78.1c0 .1.1.1.1.2.1.1.1.2.3.2.1 0 .3 0 .4-.1m-.2-.1c.1 0 .1 0 .1.1"/><path fill="none" stroke="#010202" stroke-width=".4" stroke-linecap="round" stroke-linejoin="round" stroke-miterlimit="10" d="M142.3 97.5c0 .1-.1.1-.2.1s-.1-.1-.1-.2v-.1m-.3 0h.3m.3-26.2c.1 0 .1-.1.1-.1"/><path fill="none" stroke="#010202" stroke-width=".4" stroke-linecap="round" stroke-linejoin="round" stroke-miterlimit="10" d="M142.5 71c-.1 0-.1 0 0 0h-.4c-.1 0-.1 0-.2.1-.1 0-.1.1-.2.1 0 0-.1 0-.1.1m.1-.1c.1.1.2.1.3.1"/><path fill="none" stroke="#010202" stroke-width=".4" stroke-linecap="round" stroke-linejoin="round" stroke-miterlimit="10" d="M141.9 71.3c.1 0 .1 0 0 0 .1-.1.1-.1.1-.2 0 0 .1 0 .1-.1h.2s0 0 0 0m-.6-15.6c.2.1.6.1.8 0m-.8 0v15.8m.8-.2V55.4m-.5-1l.6.4m-.6-.4c-.2.3-.3.7-.3 1m.9-.6c-.1.2-.2.4-.2.6m1.9-5l.7.3m-.7-.3l-2.3 4m.6.4l2.4-4.1m.4-.4c0-.2-.2-.5-.4-.7m0 0c-.3.1-.5.4-.7.7m1.1 0c-.2.1-.3.2-.4.4m51.4-29.9c0-.2-.2-.5-.4-.7m0 .1l-51 29.4m.4.7l51-29.5m1.9 1.2c.1-.1.2-.1.2-.2m-.8-1.8c-.4-.3-1-.2-1.7.1m2.3 1.9c0-1.2-.9-1.7-1.9-1.1m1.9 61.1c.1-.1.2-.1.2-.2m-.2-59.8v60m-2 3.6c.1 0 .1-.1.1-.3m0 .1c1.1-.6 1.9-2.1 1.9-3.3m-54 33.5c.1 0 .1-.1.1-.3m52-29.9l-52 30m-2.7-1.1c.2.1.6.1.8 0m-.8 0c0 .7.3 1.3.7 1.5m.1-1.5c0 1.2.9 1.7 1.9 1.1m-2.7-18.1v17m.8 0V97.5m-.9-1.1c.1 0 .2.1.3 0m-.3 0c0 .3 0 .6.1.9m.1-.9c0 .3 0 .5.1.8m-.3-25.2c.1 0 .2.1.3 0m-.3 0v24.4m.2 0V72m-.1-.8c-.1.2-.1.5-.1.7m.3-.6c-.1.2-.1.4-.1.7m.9-.1h.1m0-.1c0-.4-.1-.6-.3-.8m.2.9c0-.3-.1-.6-.3-.8m.3 25.2h.1m0 0V71.8m-.1.1v24.4m-.2 1.2c.2-.5.3-.9.3-1.2m-.5 1.2c.2-.4.3-.8.3-1.1M197.7 20c.1.1.2.2.3.2.1.1.2.2.2.3.1.1.1.2.2.4 0 .1.1.3.1.4v.4m0 0v60.1"/><path fill="none" stroke="#010202" stroke-width=".4" stroke-linecap="round" stroke-linejoin="round" stroke-miterlimit="10" d="M198.5 81.8c0 .3 0 .6-.1.9l-.3.9c-.1.3-.3.6-.5.8-.2.3-.4.5-.6.7-.2.2-.5.4-.7.5m0 0l-52 30m0 0c-.1.1-.2.1-.4.2-.1 0-.3.1-.4.1h-.8c-.1 0-.2-.1-.4-.1m-.5-43.8l.9-.1m-.9 24.5l.9-.1m-2.4-41.7l1.4.8m-13.9-14.3l15.1 8.4m.7-.7c-.3.1-.5.4-.7.7m.7-.7l-15.1-8.4m16.5 9.2l-1.4-.8m-.7.7l1.4.9m-2.3 4l-1.4-.8m0 0c-.2.3-.3.7-.3 1m-14.9-8.9l14.9 8.9m.3-1l-14.9-8.8m21 68.3l18.7-10.8m-22.1 8.9c0 2.2 1.5 3.1 3.4 2m-3.4-56.8v54.8m3.4-60.7c-1.9 1.1-3.4 3.7-3.4 5.9m35.8-24.6l-32.4 18.7M179.6 32c0-.3-.2-.4-.5-.3m.5.5V32m0 .2c0 .4.3.5.6.3s.6-.6.6-1m0-.1v.1m.4-1c-.3.2-.5.5-.5.8m13.4-8.2l-12.9 7.4m16.3-5.4c0-2.2-1.5-3.1-3.4-2m3.4 56.7V25.1m-3.4 60.7c1.9-1.1 3.4-3.7 3.4-5.9m-29.9 21.2l26.5-15.3m-27 15c0 .3.2.4.5.3m-.5-.5v.2m0-.2c0-.4-.3-.5-.6-.3h-.1m-1 2c.3-.2.5-.5.5-.8m-.5.8s0 0 0 0m-18.7 10.8s0 0 0 0m-3.4-1.9c0-.1 0-.1 0 0m0-54.8s0 0 0 0m3.4-5.9s0 0 0 0m32.4-18.7s0 0 0 0m.5.3s0 0 0 0m0 .1s0 0 0 0m1.2-.7s0 0 0 0m0-.1s0 0 0 0m.4-.8c0-.1 0-.1 0 0m12.9-7.5s0 0 0 0m3.4 2s0 0 0 0m0 54.7s0 0 0 0m-3.4 6c0-.1 0-.1 0 0m-26.5 15.3s0 0 0 0m-.5-.3s0 0 0 0m0-.2s0 0 0 0m30-73.7c-.9-1.8-3.2-1.5-5.2.7s-2.9 5.4-2 7.2c.4.8 1.1 1.2 2 1.1"/><path fill="none" stroke="#010202" stroke-width=".4" stroke-linecap="round" stroke-linejoin="round" stroke-miterlimit="10" d="M196.1 27.7c-1.1-.7-3 .4-4.1 2.4-1.1 2-1.1 4.1 0 4.7 1.1.7 3-.4 4.1-2.4 1.2-2 1.2-4.1 0-4.7"/><path fill="none" stroke="#010202" stroke-width=".4" stroke-linecap="round" stroke-linejoin="round" stroke-miterlimit="10" d="M195.7 28.4c-.9-.5-2.3.3-3.2 1.9-.9 1.5-.9 3.2 0 3.7s2.3-.3 3.2-1.9c.9-1.5.9-3.2 0-3.7"/><path fill="none" stroke="#010202" stroke-width=".4" stroke-linecap="round" stroke-linejoin="round" stroke-miterlimit="10" d="M191.8 32.4c.1 1.3 1 1.7 2.2 1 1.1-.7 2-2.3 1.9-3.6-.1-1.1-.9-1.6-1.9-1.1"/><path fill="none" stroke="#010202" stroke-width=".4" stroke-linecap="round" stroke-linejoin="round" stroke-miterlimit="10" d="M197.1 26.9c-.2-.4-.5-.7-.8-1-.3-.2-.6-.4-1-.4-.4-.1-.8-.1-1.1 0-.4.1-.9.3-1.3.5-.5.3-.9.6-1.3 1s-.8.9-1.1 1.4c-.3.5-.6 1-.8 1.6-.2.6-.4 1.1-.5 1.7-.1.6-.1 1.1 0 1.6s.2 1 .4 1.4c.2.4.5.7.8.9.3.2.6.3 1 .4h.5"/><path fill="none" stroke="#010202" stroke-width=".4" stroke-linecap="round" stroke-linejoin="round" stroke-miterlimit="10" d="M191.8 35.9c.5 0 .9-.1 1.3-.3.5-.2 1-.5 1.4-.8.5-.4.9-.8 1.3-1.3s.7-1 1-1.6c.3-.6.5-1.1.6-1.7.1-.6.2-1.2.1-1.8 0-.5-.2-1-.4-1.5m0 50.6c-.9-1.7-3.1-1.5-5 .5m-2.4 4.2c-.6 2.6.3 4.4 2.2 4.3m4.2-8.2c-1.1-.7-3 .4-4.1 2.4-1.1 2-1.1 4.1 0 4.7 1.1.6 3-.4 4.1-2.4 1.2-2 1.2-4.1 0-4.7"/><path fill="none" stroke="#010202" stroke-width=".4" stroke-linecap="round" stroke-linejoin="round" stroke-miterlimit="10" d="M195.7 79c-.9-.5-2.3.3-3.2 1.9-.9 1.5-.9 3.2 0 3.7s2.3-.3 3.2-1.9c.9-1.5.9-3.2 0-3.7"/><path fill="none" stroke="#010202" stroke-width=".4" stroke-linecap="round" stroke-linejoin="round" stroke-miterlimit="10" d="M191.8 83c.1 1.3 1 1.7 2.2 1 1.1-.7 2-2.3 1.9-3.6-.1-1.1-.9-1.6-1.9-1.1m3.1-1.8c-.2-.4-.5-.7-.8-1-.3-.2-.6-.4-1-.4-.4-.1-.8-.1-1.1 0-.4.1-.9.3-1.3.5-.3.2-.5.3-.8.5m-3.1 5.5c-.1.5-.1.9 0 1.3.1.5.2 1 .4 1.4.2.4.5.7.8.9.3.2.6.3 1 .4h.5"/><path fill="none" stroke="#010202" stroke-width=".4" stroke-linecap="round" stroke-linejoin="round" stroke-miterlimit="10" d="M191.8 86.5c.5 0 .9-.1 1.3-.3.5-.2 1-.5 1.4-.8.5-.4.9-.8 1.3-1.3s.7-1 1-1.6c.3-.6.5-1.1.6-1.7.1-.6.2-1.2.1-1.8 0-.5-.2-1-.4-1.5m-43.9 25.3c-.9-1.8-3.2-1.5-5.2.7s-2.9 5.4-2 7.2c.4.8 1.1 1.2 2 1.1"/><path fill="none" stroke="#010202" stroke-width=".4" stroke-linecap="round" stroke-linejoin="round" stroke-miterlimit="10" d="M152.3 103.6c-1.1-.6-3 .4-4.1 2.4-1.1 1.9-1.1 4.1 0 4.7 1.1.6 3-.4 4.1-2.4 1.2-2 1.2-4.1 0-4.7"/><path fill="none" stroke="#010202" stroke-width=".4" stroke-linecap="round" stroke-linejoin="round" stroke-miterlimit="10" d="M151.9 104.3c-.9-.5-2.3.3-3.2 1.9-.9 1.5-.9 3.2 0 3.7s2.3-.3 3.2-1.9c.9-1.5.9-3.2 0-3.7"/><path fill="none" stroke="#010202" stroke-width=".4" stroke-linecap="round" stroke-linejoin="round" stroke-miterlimit="10" d="M148 108.3c.1 1.3 1 1.7 2.2 1 1.1-.7 2-2.3 1.9-3.6-.1-1.1-.9-1.6-1.9-1.1"/><path fill="none" stroke="#010202" stroke-width=".4" stroke-linecap="round" stroke-linejoin="round" stroke-miterlimit="10" d="M153.2 102.8c-.2-.4-.5-.7-.8-1-.3-.2-.6-.4-1-.4-.4-.1-.8-.1-1.1 0-.4.1-.9.3-1.3.5-.5.3-.9.6-1.3 1s-.8.9-1.1 1.4c-.3.5-.6 1-.8 1.6-.2.6-.4 1.1-.5 1.7-.1.6-.1 1.1-.1 1.6.1.5.2 1 .4 1.4.2.4.5.7.8.9.3.2.6.3 1 .4h.5m.1-.1c.5 0 .9-.1 1.3-.3.5-.2 1-.5 1.4-.8.5-.4.9-.8 1.3-1.3s.7-1 1-1.6c.3-.6.5-1.1.6-1.7.1-.6.2-1.2.1-1.8 0-.5-.2-1-.4-1.5m-.1-50.6c-.9-1.8-3.2-1.5-5.2.7s-2.9 5.4-2 7.2c.4.8 1.1 1.2 2 1.2"/><path fill="none" stroke="#010202" stroke-width=".4" stroke-linecap="round" stroke-linejoin="round" stroke-miterlimit="10" d="M152.3 53c-1.1-.6-3 .4-4.1 2.4-1.1 2-1.1 4.1 0 4.7 1.1.6 3-.4 4.1-2.4 1.2-2 1.2-4.1 0-4.7"/><path fill="none" stroke="#010202" stroke-width=".4" stroke-linecap="round" stroke-linejoin="round" stroke-miterlimit="10" d="M151.9 53.7c-.9-.5-2.3.3-3.2 1.9-.9 1.5-.9 3.2 0 3.7s2.3-.3 3.2-1.9c.9-1.5.9-3.2 0-3.7"/><path fill="none" stroke="#010202" stroke-width=".4" stroke-linecap="round" stroke-linejoin="round" stroke-miterlimit="10" d="M148 57.7c.1 1.3 1 1.7 2.2 1 1.1-.7 2-2.3 1.9-3.6-.1-1.1-.9-1.6-1.9-1.1"/><path fill="none" stroke="#010202" stroke-width=".4" stroke-linecap="round" stroke-linejoin="round" stroke-miterlimit="10" d="M153.2 52.2c-.2-.4-.5-.7-.8-1-.3-.2-.6-.4-1-.4-.4-.1-.8-.1-1.1 0-.4.1-.9.3-1.3.5-.5.3-.9.6-1.3 1s-.8.9-1.1 1.4c-.3.5-.6 1-.8 1.6-.2.6-.4 1.1-.5 1.7-.1.6-.1 1.1-.1 1.6.1.5.2 1 .4 1.4.2.4.5.7.8.9.3.2.6.3 1 .4h.5m.1-.1c.5 0 .9-.1 1.3-.3.5-.2 1-.5 1.4-.8.5-.4.9-.8 1.3-1.3s.7-1 1-1.6c.3-.6.5-1.1.6-1.7.1-.6.2-1.2.1-1.8 0-.5-.2-1-.4-1.5"/><g fill="none" stroke="#010202" stroke-width=".4" stroke-linecap="round" stroke-linejoin="round" stroke-miterlimit="10"><path d="M58 73.5V73m.4-.7l-.5-.3m.9 1c0-.2-.2-.6-.4-.7m.4.7v.5m0 0c0 .1 0 .1.1.2m-.3.1l-.6-.3m.5.1c0 .1 0 .1.1.2m-.1-.7v.5m0-.5c0-.2-.2-.6-.4-.7m0 0l-.5-.3m.3.8l-.3-.2m.4.3c0-.1 0-.1-.1-.2m.6.8l.3-.1m0-.5l-.3.1m-.4-.7l.3-.1m.2 1.5l.2-.1M42 86.5l30-17.3m0 0l-3.6-2.1m0 0l-.9.5m-.7.4l-.3.1m-.6.4l-.4.2m-.6.4l-.3.2m-.7.4l-.3.1m-.7.4l-.3.2m-.7.4l-.3.2m-.6.3l-.4.2m-.6.4l-.3.2m-.7.4l-.3.2m-.7.3l-.3.2m-.6.4l-.4.2m-.6.4l-.4.2m-.6.3l-.3.2m-.7.4l-.3.2m-.7.4l-.3.2m-.6.3l-.4.2m-.6.4l-.3.2m-.7.4l-.3.1m-.7.4l-.3.2m-.6.4l-.4.2m-.6.4l-.4.1m-.6.4l-.3.2m-.7.4l-.3.2m-.7.3l-.3.2m-.6.4l-.4.2m-.6.4l-.3.2m-.7.3l-.3.2m-.7.4l-2.1 1.2m3.7 2.1l-3.7-2.1m26.1-14l.3-.1m-.3.1l-.5-.3m2.5-.8l-.5-.3m.7.2l-.2.1m-1 .6l-.5-.4m.8.2l-.3.2M41 84l.2-.2m-.2.2l-.6-.3m1.5-.3l.3-.1m-.3.1l-.5-.3m1.5-.3l.3-.1m-.3.1l-.5-.3m1.5-.2l.2-.2m-.2.2l-.5-.3m1.5-.3l.2-.1m-.2.1l-.6-.3m1.6-.3l.2-.1m-.2.1l-.6-.3m1.5-.2l.3-.2m-.3.2l-.5-.3m1.5-.3l.3-.1m-.3.1l-.5-.3m1.5-.2l.2-.2m-.2.2l-.5-.4m1.5-.2l.2-.1m-.2.1l-.6-.3m1.5-.3l.3-.1m-.3.1l-.5-.3m1.5-.2l.3-.2m-.3.2l-.5-.4m1.5-.2l.2-.1m-.2.1l-.5-.3m1.5-.3l.2-.1m-.2.1l-.6-.3m1.6-.2l.2-.2m-.2.2l-.6-.3m1.5-.3l.3-.1m-.3.1l-.5-.3m1.5-.3l.3-.1m-.3.1l-.5-.3m1.5-.2l.2-.2m-.2.2l-.5-.3m2.5-.9l.2-.1m-.2.1l-.6-.3m1.5-.2l.3-.2m-.3.2l-.5-.3m2.5-.9l.2-.1m-.2.1l-.6-.3m5.7-2.6l-.2.1m0 0l-.6-.3M63.5 71l.2-.2m-.2.2l-.6-.3m-1.4 1.4l.2-.1m-.2.1l-.5-.3m1.3-1.8l-.5-.3m.2.5l-.5-.3m.5.3l.3-.2m.4.7c0-.2-.2-.6-.4-.7m.1.8c0-.2-.2-.6-.4-.7m.7.6l-.3.1m7 3.6v.2M40.5 91.1L73.6 72m-32 18.5l.2.1m0 0l1.3-.7m0 0H43m.5-.2l.6-.4m0 0H44m.5-.2l.5-.3m0 0v-.1m.4-.1l.6-.4m0 0h-.1m.5-.2l.6-.3m0 0l-.1-.1m.5-.2l.6-.3m0 0l-.1-.1m.5-.1l.6-.4m0 0h-.1m.4-.2l.6-.3m0 0v-.1m.4-.2l.6-.3m0 0l-.1-.1m.5-.1l.6-.4m0 0h-.1m.5-.2l.6-.3m0 0l-.1-.1m.5-.2l.5-.3m0 0h0m.4-.2l.6-.4m0 0h-.1m.5-.2l.6-.3m0 0l-.1-.1m.5-.2l.6-.3m0 0h-.1m.5-.2l.6-.4m0 0h-.1m.4-.2l.6-.3m0 0v-.1m.4-.1l.6-.4m0 0h-.1m.5-.2l.6-.4m0 0h-.1m.5-.2l.6-.3m0 0l-.1-.1m.5-.1l.5-.4m0 0h0m.4-.2l.6-.3m0 0l-.1-.1m.5-.2l.6-.3m0 0l-.1-.1m.5-.1l.6-.4m0 0h-.1m.5-.2l.6-.3m0 0l-.1-.1m.4-.2l.6-.3m0 0v-.1m1-.5l-.6.4m.6-.4h-.1m1.1-.5l-.6.3m.6-.3l-.1-.1m1.6-.8l-1.1.6m.8-.8l.3.2M41.8 90.6v.4m-.6-.3l.6.3m0 0l-1.3.8m2.5-2.2v.3m.1 0v.7m0 0c.1 0 .1-.1.2-.2m-.1 0v-.9m-.1 1.1l.2-.1m0 0c.1 0 .1-.1.2-.2m0 0l-.3.1m.3-.1v-.9m26.2-14.2l-.2.2m0-.7v.7m-.8.4l-.2.1m0-.7v.7m-.7.4l-.3.2m0-.7v.7m-.9.6l.2-.2m-.2-.5v.7m-1 .5l.2-.1m-.2-.6v.7m-1 .6l.2-.2m-.2-.5v.7m-1 .5l.3-.1m-.3-.5v.6m-1 .6l.3-.1m-.3-.6v.7m-.9.6l.2-.2m-.2-.5v.7m-1 .5l.2-.1m-.2-.6v.7m-1 .6l.2-.1m-.2-.6v.7m-1 .6l.3-.2m-.3-.5v.7m-.9.5l.2-.1m-.2-.6v.7m-1 .6l.2-.1m-.2-.6v.7m-1 .6l.2-.2m-.2-.5v.7m-1 .5l.3-.1m-.3-.6v.7m-1 .6l.3-.1m-.3-.6v.7m-.9.6l.2-.2m-.2-.5v.7m-1 .5l.2-.1m-.2-.6v.7m-1 .6l.2-.2m-.2-.5v.7m-1 .5l.3-.1m-.3-.5v.6m-.9.6l.2-.1m-.2-.6v.7m-1 .6l.2-.2m-.2-.5v.7m-1 .5l.2-.1m-.2-.5v.6m-1 .6l.3-.1m-.3-.6v.7m-1 .6l.3-.2m-.3-.5v.7m-.9.5l.2-.1m-.2-.6v.7m-3.3 5.9l-.3.2m.3-2.7v2.5m0-2.5l31.3-18m.7-2.3v3.1m-1.8-2l1.8-1.1m-1.8.7v.4m-1.5 1.2c.1 0 .1-.1.2-.2m-.1-.9v.9m0 0l.3-.2m0 0v-.9m-.2 1.1c.1 0 .1-.1.2-.2m-1 .6v-.9m-.2 1.1c.1 0 .1-.1.2-.2m-.2.1l.2-.1m-.4.3c.1 0 .1-.1.2-.2m-.3-.7v.2m.3.5v-.9m-.8 1.3v-.8m-.1 1c.1 0 .1-.1.2-.2m-.3.2l.2-.2m-.4.4c.1 0 .1-.1.2-.2m-.2-.8v.2m.2.6v-.9M66 77.3v-.9m-.2 1.1c.1 0 .1-.1.2-.2m0 0l-.3.1m-.1.2c.1 0 .1-.1.2-.2m-.3-.7v.2m.2.5v-.9m-.7.4v.9m-.2.2c.1 0 .1-.1.2-.2m-.5-.6v.2m.1.8c.1 0 .1-.1.2-.2m0-.9v.9m.2-.2l-.2.2m-.8.4v-.9m-.1 1.1c.1 0 .1-.1.2-.2m-.1 0l-.2.1m-.2.2c.1 0 .1-.1.2-.2m-.3-.7v.2m.3.5v-.9M63 79v-.9m-.1 1.1c.1 0 .1-.1.2-.2m-.1 0l-.2.1m-.2.2c.1 0 .1-.1.2-.2m-.2-.8v.3m.2.5v-.9m-.7.4v.9m-.2.2c.1 0 .1-.1.2-.2m-.5-.6v.2m.1.8c.1 0 .1-.1.2-.2m-.1-.9v.9m.3-.2l-.3.2m-.7.4v-.9m-.2 1.1c.1 0 .1-.1.2-.2m0 0l-.3.1m-.1.2c.1 0 .1-.1.2-.2m-.3-.7v.2m.2.5v-.9m-.7 1.4v-.9m-.2 1.1c.1 0 .1-.1.2-.2m0 0l-.2.1m-.2.2c.1 0 .1-.1.2-.2m-.3-.8v.3m.3.5v-.9m-.8 1.3v-.9m-.1 1.1c.1 0 .1-.1.2-.2m-.1 0l-.2.2m-.2.2c.1 0 .1-.1.2-.2m-.2-.8v.2m.2.6v-.9m-.8 1.3v-.9M58 82c.1 0 .1-.1.2-.2m-.1 0l-.2.1m-.1.2c.1 0 .1-.1.2-.2m-.3-.7v.2m.2.5V81m-.7 1.4v-.9m-.2 1.1c.1 0 .1-.1.2-.2m0 0l-.3.1m-.1.2c.1 0 .1-.1.2-.2m-.3-.8v.3m.2.5v-.9m-.7 1.3V82m-.2 1.1c.1 0 .1-.1.2-.2m0 0l-.2.2m-.2.2c.1 0 .1-.1.2-.2m-.3-.8v.2m.3.6v-.9m-.8.4v.9m-.1.2c.1 0 .1-.1.2-.2m-.6-.6v.2m.1.7c.1 0 .1-.1.2-.2m0-.9v.9m.2-.1l-.2.1m-.8.5v-.9m-.1 1.1c.1 0 .1-.1.2-.2m-.1 0l-.2.1m-.2.2c.1 0 .1-.1.2-.2m-.2-.8v.3m.2.5v-.9m-.7 1.3v-.9m-.2 1.1c.1 0 .1-.1.2-.2m0 0l-.3.2m-.1.2c.1 0 .1-.1.2-.2m-.3-.8v.2m.2.6v-.9m-.7.4v.9m-.2.2c.1 0 .1-.1.2-.2m-.5-.6v.2m.1.7c.1 0 .1-.1.2-.2m-.1-.9v.9m.3-.1l-.3.1m-.7.4v-.8m-.2 1c.1 0 .1-.1.2-.2m0 0l-.2.2m-.2.2c.1 0 .1-.1.2-.2m-.3-.8v.2m.3.6V85m-.8 1.3v-.9m-.1 1.1c.1 0 .1-.1.2-.2m-.1 0l-.2.1m-.2.2c.1 0 .1-.1.2-.2m-.2-.7v.2m.2.5v-.8m-.8.4v.9m-.1.2c.1 0 .1-.1.2-.2m-.5-.6v.2m.1.7c.1 0 .1-.1.2-.2m-.1-.9v.9m.2-.1l-.2.1m-.7.4v-.9m-.2 1.1c.1 0 .1-.1.2-.2m0 0l-.3.2m-.1.2c.1 0 .1-.1.2-.2m-.3-.8v.2m.2.6v-.9m-.7 1.3v-.9m-.2 1.1c.1 0 .1-.1.2-.2m0 0l-.2.1m-.2.2c.1 0 .1-.1.2-.2m-.3-.7v.2m.3.5v-.9m-.8 1.4v-.9m-.1 1.1c.1 0 .1-.1.2-.2m-.1 0l-.2.1m-.2.2c.1 0 .1-.1.2-.2m-.3-.8v.3m.3.5v-.9m-.8 1.3v-.9m-.1 1.1c.1 0 .1-.1.2-.2m-.1 0l-.2.2m-.2.2c.1 0 .1-.1.2-.2m-.2-.8v.2m.2.6v-.9m-.7 1.3v-.9m-.2 1.1c.1 0 .1-.1.2-.2m0 0l-.3.1m-.1.2c.1 0 .1-.1.2-.2m-.3-.7v.2m.2.5v-.9m29.3-7.4c.1 0 .1-.1.1-.3m0 0L42.3 99.3m-.3.2c.2.1.4 0 .4-.2m31.2-22.2v4.1m-31.3 14l31.3-18.1M42.3 95.2v4.1m-1.7-.6l1.4.8m-1.2-6.1l1.5 1.8m29.8-19.8l1.5 1.7m-7.1-1v.2m.1.8c.1 0 .1-.1.2-.2m-.1 0V76m.2.7v-.9m-.1 1.1c.1 0 .1-.1.2-.2m-.1 0l-.2.2M39.4 99.4l1.8-1m-1.8 1l-3.3-1.9m0 0v-9.8m0 0l2.6-1.5m28.5-19l-.5-.3m.9 1c0-.2-.2-.6-.4-.7m.4 1.2v-.5m0 .5c0 .1 0 .1.1.2m5.1 4.5l-.6-.3m-.9-5.5l3.3 2m0 9.8v-9.8m-1 7.7v-5M38.3 86.4v-2m3.7 3.7l-3.3-1.9m3.3.3v1.6m-5.9-.4l3.3 1.9m0 0l2.6-1.5m-.8 8.9l-.7-.4m.7.4v1.4m-.7-.9l.7-.5m-.7.5v-6.4m-1.1 8.3v-9.8m23.3-18.4c0 .1 0 .1.1.2m-.4 0l.3-.2m-.3.2c0 .1 0 .1.1.2m5.1-3.2l-.3.1m0 0c0 .1 0 .1.1.2m-.7-.9l-.3-.2m.4.4c0-.1 0-.1-.1-.2m.1.6V68m.5 0v.5m0-.5c0-.3-.2-.6-.4-.7m0 0l-.5-.2m.9.9l.3-.1m-.4-.7l-.3.1m-4 3.4v-.5m.5.6c0 .1 0 .1.1.2m-.1-.7v.5m0-.5c0-.2-.2-.6-.4-.7m0 0l-.5-.3m.3.7l-.3-.1m.4.3c0-.1 0-.1-.1-.2m.6.8l.2-.1m0-.6v.6m0-.6l-.2.2m-.1-.8l-.5-.3m.8.9c0-.3-.2-.6-.4-.7m.4 1.3c0 .1 0 .1.1.2m-.7-1.3l.3-.1M61 71.8v-.5m.5.6c0 .1 0 .1.1.2m-.1-.7v.5m0-.5c0-.2-.2-.6-.4-.7m0 0l-.5-.3m.3.8l-.3-.2m.4.3c0-.1 0-.1-.1-.2m.6.8l.2-.1m0-.5v.5m0-.5l-.2.1m-.2-.8l-.5-.3m.9 1c0-.2-.2-.6-.4-.7m.4 1.2c0 .1 0 .1.1.2m-.7-1.3l.2-.1m2.6-.5v-.4m.5.5c0 .1 0 .1.1.2m-.1-.7v.5m0-.5c0-.3-.2-.6-.4-.7m0 0l-.5-.3m.3.8l-.3-.2m.4.4c0-.1 0-.1-.1-.2m.6.7l.2-.1m0-.5v.5m0-.5l-.2.1m-.2-.8l-.5-.3m.9 1c0-.2-.2-.6-.4-.7m.4 1.2c0 .1 0 .1.1.2M64 69l.2-.1m2-1.1l-.5-.3m.9.9c0-.2-.2-.6-.4-.7m.4.7v.6m0 0c0 .1 0 .1.1.2m-.4-.6l.3-.2m-.3.2v.5m.3-.1l-.3.1m-.1-1.3l-.2.1m.3.7c0-.2-.2-.6-.4-.7m.1 0l-.5-.3m.3.8l-.3-.2m.4.3c0-.1 0-.1-.1-.2m.1.7v-.5m.4.6c0 .1 0 .1.1.2m-1.2-1l-.5-.2m.9.9c0-.2-.2-.6-.4-.7m.4.7v.5m0 0c0 .1 0 .1.1.2m-.3-.6l.2-.1m-.2.1v.6m.2-.2l-.2.2m-.2-1.4l-.2.2m.4.6c0-.2-.2-.6-.4-.7m0 .1l-.5-.3m.3.7l-.3-.2m.4.4c0-.1 0-.1-.1-.2m.1.6v-.4m.5.6c0 .1 0 .1.1.2M40.4 83.7v-.5m.5.6c0 .1 0 .1.1.2m-.1-.7v.5m0-.5c0-.2-.1-.5-.3-.6m-.3.3l-.2-.1m.3.3c0-.1 0-.1-.1-.2m.6.8l.2-.2m0-.5v.5m0-.5l-.2.2m.2-.2c0-.2-.1-.5-.3-.6m.3 1.1c0 .1 0 .1.1.2m.2-.7v-.5m.5.6c0 .1 0 .1.1.2m-.1-.7v.5m0-.5c0-.2-.1-.5-.3-.6m-.3.4l-.2-.1m.3.2c0-.1 0-.1-.1-.2m.6.8l.2-.1m0-.5v.5m0-.5l-.2.1m.2-.1c0-.2-.1-.5-.3-.6m.3 1.1c0 .1 0 .1.1.2m.2-.8v-.4m.5.6c0 .1 0 .1.1.2m-.1-.8v.6m0-.6c0-.2-.1-.5-.3-.6m-.3.4l-.2-.1m.3.3c0-.1 0-.1-.1-.2m.6.8l.2-.2m0-.5v.5m0-.5l-.2.1m-.2-.8h-.1m.5.7c0-.3-.2-.6-.4-.7m.4 1.2c0 .1 0 .1.1.2m-.6-1.3l.1-.1m.7.7v-.5m.4.6c0 .1 0 .1.1.2m-.1-.7v.5m0-.5c0-.3-.2-.6-.4-.7m.1 0l-.5-.3m.3.7l-.3-.1m.4.3c0-.1 0-.1-.1-.2m.5.8l.3-.1m0-.6v.6m0-.6l-.3.2m-.1-.8l-.5-.3m.9.9c0-.2-.2-.6-.4-.7m.4 1.3c0 .1 0 .1.1.2m-.7-1.3l.2-.1m.6.6v-.5m.5.6c0 .1 0 .1.1.2m-.1-.7v.5m0-.5c0-.2-.2-.6-.4-.7m0 0l-.5-.3m.3.8l-.3-.2m.4.3c0-.1 0-.1-.1-.2m.6.8l.3-.1m0-.5v.5m0-.5l-.3.1m-.1-.8l-.5-.3m.9 1c0-.2-.2-.6-.4-.7m.4 1.2c0 .1 0 .1.1.2m-.8-1.3l.3-.1m.9-.6l-.4-.3m.8 1c0-.3-.2-.6-.4-.7m.4.7v.5m0 0c0 .1 0 .1.1.2m-.3 0l.2-.2m0-.5l-.2.1m0 0v.6m-.4-1.2l.2-.2m.2.8c0-.2-.2-.6-.4-.7m0 .1l-.5-.3m.4 1.3v-.4m0 0c0-.1 0-.1-.1-.2m0 0l-.3-.2m.9 1c0 .1 0 .1.1.2m.4-.9v-.5m.5.6c0 .1 0 .1.1.2m-.1-.7v.5m0-.5c0-.2-.2-.6-.4-.7m0 0l-.5-.3m.3.7l-.3-.1m.4.3c0-.1 0-.1-.1-.2m.6.8l.2-.1m0-.6v.6m0-.6l-.2.2m-.2-.8l-.5-.3m.9.9c0-.2-.2-.6-.4-.7m.4 1.3c0 .1 0 .1.1.2m-.7-1.3l.2-.1m.7.6v-.4m.5.5c0 .1 0 .1.1.2m-.1-.7v.5m0-.5c0-.2-.2-.6-.4-.7m0 0l-.5-.3m.3.8l-.3-.2m.4.4c0-.1 0-.1-.1-.2m.6.7l.2-.1m0-.5v.5m0-.5l-.2.1m-.2-.8l-.5-.3m.9 1c0-.2-.2-.6-.4-.7m.4 1.2c0 .1 0 .1.1.2m-.7-1.3l.2-.1m.7.6v-.4m.4.6c0 .1 0 .1.1.2m-.1-.8v.6m0-.6c0-.2-.2-.6-.4-.7m0 .1l-.4-.3m.3.7l-.3-.2m.4.4c0-.1 0-.1-.1-.2m.5.8l.3-.2m0-.5v.5m0-.5l-.3.1m-.1-.8l-.5-.3m.9 1c0-.2-.2-.6-.4-.7m.4 1.2c0 .1 0 .1.1.2m-.8-1.2l.3-.2m.6.7v-.5m.5.6c0 .1 0 .1.1.2m-.1-.7v.5m0-.5c0-.2-.2-.6-.4-.7m0 0l-.5-.3m.3.8l-.3-.2m.4.3c0-.1 0-.1-.1-.2m.6.8l.3-.1m0-.6v.6m0-.6l-.3.2m-.1-.8l-.5-.3m.9.9c0-.2-.2-.6-.4-.7m.4 1.3c0 .1 0 .1.1.2m-.8-1.3l.3-.1m.6.6v-.4m.5.5c0 .1 0 .1.1.2m-.1-.7v.5m0-.5c0-.2-.2-.6-.4-.7m0 0l-.5-.2m.3.7l-.3-.2m.4.4c0-.1 0-.1-.1-.2m.6.7l.2-.1m0-.5v.5m0-.5l-.2.1m-.2-.8l-.5-.3m.9 1c0-.2-.2-.6-.4-.7m.4 1.2c0 .1 0 .1.1.2m-.7-1.3l.2-.1m.7.6V77m.5.6c0 .1 0 .1.1.2m-.1-.7v.5m0-.5c0-.3-.2-.6-.4-.7m0 0l-.5-.3m.3.7l-.3-.1m.4.3c0-.1 0-.1-.1-.2m.6.8l.2-.2m0-.5v.5m0-.5l-.2.2m-.2-.9L51 76m.9.9c0-.3-.2-.6-.4-.7m.4 1.2c0 .1 0 .1.1.2m-.7-1.2l.2-.2m1-.5l-.5-.3m.9.9c0-.3-.2-.6-.4-.7m.4.7v.6m0 0c0 .1 0 .1.1.2m-.3-.1l.2-.1m0-.6l-.2.2m0 0v.5m-.4-1.2l.2-.1m.2.8c0-.2-.2-.6-.4-.7m0 0l-.5-.3m.4 1.4v-.5m0 0c0-.1 0-.1-.1-.2m0 .1l-.3-.2m.9.9c0 .1 0 .1.1.2m.3-.9v-.4m.5.5c0 .1 0 .1.1.2m-.1-.7v.5m0-.5c0-.2-.2-.6-.4-.7m0 0l-.5-.2m.3.7l-.3-.2m.4.4c0-.1 0-.1-.1-.2m.6.7l.3-.1m0-.5v.5m0-.5l-.3.1m-.1-.8l-.5-.3m.9 1c0-.2-.2-.6-.4-.7m.4 1.2c0 .1 0 .1.1.2m-.8-1.3l.3-.1m.6.7v-.5m.5.6c0 .1 0 .1.1.2m-.1-.7v.5m0-.5c0-.2-.2-.6-.4-.7m0 0l-.5-.3m.3.7l-.3-.1m.4.3c0-.1 0-.1-.1-.2m.6.8l.2-.2m0-.5v.5m0-.5l-.2.2m-.2-.9l-.4-.2m.8.9c0-.3-.2-.6-.4-.7m.4 1.2c0 .1 0 .1.1.2m-.7-1.2l.2-.2m.7.7v-.5m.5.6c0 .1 0 .1.1.2m-.1-.7v.5m0-.5c0-.2-.2-.6-.4-.7m0 0l-.5-.3m.3.8l-.3-.2m.4.3c0-.1 0-.1-.1-.2m.6.8l.2-.1m0-.5v.5m0-.5l-.2.1m-.2-.8l-.5-.3m.9 1c0-.2-.2-.6-.4-.7m.4 1.2c0 .1 0 .1.1.2m-.7-1.3l.2-.1m.7.6v-.4m.5.5c0 .1 0 .1.1.2m-.1-.7v.5m0-.5c0-.2-.2-.6-.4-.7m0 0l-.5-.2m.3.7l-.3-.2m.4.4c0-.1 0-.1-.1-.2m.6.7l.2-.1m0-.5v.5m0-.5l-.2.1m-.2-.8l-.5-.3m.9 1c0-.2-.2-.6-.4-.7m.4 1.2c0 .1 0 .1.1.2m-.7-1.3l.2-.1m1-.6l-.5-.2m.9.9c0-.2-.2-.6-.4-.7m.4.7v.5m0 0c0 .1 0 .1.1.2m-.4 0l.3-.2m0-.5l-.3.2m0 0v.5m-.4-1.2l.3-.2m.1.9c0-.2-.2-.6-.4-.7m0 0l-.4-.3m.4 1.4v-.5m0 0c0-.1 0-.1-.1-.2m0 0l-.3-.1m.8.9c0 .1 0 .1.1.2m1.4-1.5v-.4m.5.6c0 .1 0 .1.1.2m-.1-.8v.6m0-.6c0-.2-.2-.6-.4-.7m0 .1l-.5-.3m.3.7l-.3-.2m.4.4c0-.1 0-.1-.1-.2m.6.8l.2-.2m0-.5v.5m0-.5l-.2.1m-.2-.8l-.4-.3m.8 1c0-.2-.2-.6-.4-.7m.4 1.2c0 .1 0 .1.1.2m-.7-1.2l.2-.2m.7.7v-.5m.5.6c0 .1 0 .1.1.2m-.1-.7v.5m0-.5c0-.2-.2-.6-.4-.7m0 0l-.5-.3m.3.7l-.3-.1m.4.3c0-.1 0-.1-.1-.2m.6.8l.2-.1m0-.6v.6m0-.6l-.2.2m-.2-.8l-.5-.3m.9.9c0-.3-.2-.6-.4-.7m.4 1.3c0 .1 0 .1.1.2m-.7-1.3l.2-.1m1.6 0v-.4m.5 0v.6m-.6-.8l-.3-.2m.4.4c0-.1 0-.1-.1-.2m.9.1v.5m9.3-2v1.6m2.6 8.3l-1 .6m1-10.4L72 70.8m-.7-3.5l-1.2.7m3.4 13.5L42.2 99.6m25.1-37.4v2.5m-1-3.1l1 .6m0 2.5l-5 2.9m-.8-.4l.8.4m0 0v-2.5m-1.1-.6l1.1.6m-1.1.3v-.9m1.1.6l5-2.9m-6.1 2.3l5.1-2.9M30.6 91.7l5.1-3m-1.3-.7l1.3.7M29 90.8l2.3-1.3M29 90.8l1.6.9m5.1-3v4.8m0 0l-5.1 2.9m-1.6-.9l1.6.9m0 0v-4.7M29 95.5v-4.7m38.4-45l.7-.4m-.7-.3l.7.3m0 0v2.4m0 0l-.7.4m3.7 8.4v1.2m-.6-1.6l.6.4m0 1.2l-2 1.2m-.8-.5l.8.5m0 0v-1.2m-.8-.5l.8.5m-.8.7v-1.2m.8.5l2-1.2m-2.8.7l.6-.3m9.3.3v1.2m-.7-1.6l.7.4m0 1.2l-2 1.2m-.8-.4l.8.4m0 0v-1.2m-.8-.5l.8.5m-.8.8V58m.8.5l2-1.2m-2.8.7l2.1-1.1m-10.1-15l.7-.4m-.7-.4l.7.4m0 0v2.4m0 0l-.7.3m-2.5-7.9v-1.2m-1-.7l1 .7m-1 .6v-1.3m0 1.3l1 .6m0-1.2l2.1-1.2m-1.1-.6l1.1.6m-3.1.5l2-1.1m1.1.6v1.2m0 0l-2.1 1.2M30.5 72.2V71m-.8-.5l.8.5m-.8.8v-1.3m0 1.3l.8.4m0-1.2l2.1-1.2m-.8-.5l.8.5m-2.9.7l2.1-1.2m.8.5V71m0 0l-2.1 1.2m25.6-28.9v-1.2m-1-.7l1 .7m-1 .6v-1.3m0 1.3l1 .6m0-1.2l2.1-1.2m-.6-.4l.6.4m-3.1.5l.6-.3m2.5-.2v1.2m0 0l-2.1 1.2M55.6 69v2.4m-1.1-3.1l1.1.7m0 2.4l-5.1 3m-.8-.5l.8.5m0 0v-2.5m-1.1-.6l1.1.6m-1.1.3v-.9m1.1.6l5.1-2.9m-6.2 2.3l5.1-3m-9.1-.8l1.7-1m-.7-.5l.7.5m-1.7.1l1-.6m.7.5v1.2m0 0l-1.7 1m-6.6-11.8v1.3m-.8-1.8l.8.5m0 1.3l-2 1.1m-1.1-.6l1.1.6m0 0v-1.2m-1.1-.6l1.1.6m-1.1.6v-1.2m1.1.6l2-1.2m-3.1.6l2.1-1.2m8.8-1.6l1-.6m-1-.6l1 .6m-2.1 0l1.1-.6m-1.1.6l1.1.6m1-.6v2.4m0 0l-1 .6m-.9-.5l.9.5m0 0v-2.4m-1.1.1v-.7m-2 1.8v1.2m0 0l-2 1.2m-.8-.4l.8.4m0 0v-1.2m-.8.8v-.4m28.4-4.3V52m-.8-.5l.8.5m-.8.8v-1.3m0 1.3l.8.4m0-1.2l2-1.2m-.8-.4l.8.4m-2.8.7l2-1.1m.8.4v1.3m0 0l-2 1.1m-7.6 12.4v2.5M60.4 65l1.1.6m0 2.5L56.4 71m-.8-.5l.8.5m0 0v-2.5m-1.1-.6l1.1.6m-1.1.3v-.9m1.1.6l5.1-2.9m-6.2 2.3l5.1-2.9M78 68.8v1.6m-.1-1.7l.1.1m0 1.6l-3.4 1.9m0-1.6l3.4-1.9m-3.4 1.8l3.3-1.9m-28.2 1.6V69m-.8-.4l.8.4m-.8.8v-1.2m0 1.2l.8.5m0-1.3l2-1.1m-.3-.2l.3.2m-2.8.7l1-.6m1.8-.1v1.2m0 0l-2 1.2m-9.1-12.7v-6m-1.6-.9l1.6.9m-1.8 5v-.7m0-2.6v-1m0 4.3l1.8 1m0-6l4.2-2.4m-1.8-1l1.8 1M39 50.5l4-2.3m1.8 1v6m0 0l-4.2 2.4M30.5 74.1v-1.2m-.8-.5l.8.5m-.8.8v-1.3m0 1.3l.8.4m0-1.2l2.1-1.2m-.6-.3l.6.3m-2.9.7l.6-.3m2.3-.4v1.2m0 0l-2.1 1.2m12.1 4.1v3.3m-.7-3.7l.7.4m0 3.3L38.3 84M36 82.7l2.3 1.3m0 0v-3.3m-2.8-1.6l2.8 1.6m-2.8.1v-1.7m2.8 1.6l4.3-2.5m-7.1.9l.6-.4m9.3-19.8v11.5M43 57.5l2.4 1.4m0 11.5l-10 5.8M33 74.8l2.4 1.4m0 0V64.7m-2.2-1.4l2.2 1.4M33 74.8v-5.9m0-2.6v-1.2m2.4-.4l10-5.8m-12.2 4.3l1.9-1.1m2.3-1.4l.9-.5m2.3-1.3l2.4-1.4m10.7 8.9v-.7m-.6.3l.6.4m2.1-1.9v.7m0 0l-2.1 1.2m6.8-4v-.7m-.6.4l.6.3m2.1-1.9v.8m0 0l-2.1 1.1m-3.4 3.9v-1.2m-1.1-.6l1.1.6m-1.1.6v-1.2m0 1.2l1.1.6m0-1.2l2.1-1.2m-.6-.3l.6.3m-3.2.6l.6-.4m2.6-.2v1.3m0 0l-2.1 1.1M33.2 65l-1.1.7m-.4-.3l.4.3m0 0v-2.4m-1.1-.6l1.1.6m-1.1-.1v-.5m1.1.6l1.1-.6m-1.1-.7l1.1.7m-2.2 0l1.1-.7m1.1.7V65m.4 15.1l-1.1.6m-.8-.5l.8.5m0 0v-2.4m-1.1-.6l1.1.6m-1.1.3v-.9m1.1.6l1.1-.6m-1.1-.6l1.1.6m-2.2 0l1.1-.6m1.1.6v2.4m15.7-13.6l-1.1.6m-1.1-.6l1.1.6m0 0v-2.4m-.9-.5l.9.5m-1.1 1.8v-1.1m1.1-.7l1.1-.6m-1.1-.6l1.1.6m-2-.1l.9-.5m1.1.6v2.4M79 67.8v.2m0 0l-2 1.2m-.3-.1l.3.1m0 0v-.3M31.6 96.3v1.3m-.4-1.5l.4.2m0 1.3l-2.1 1.1m-.7-.4l.7.4m0 0v-1.2m-.7-.4l.7.4m-.7.8v-1.2m.7.4l2.1-1.2m-2.8.8l1.4-.9m1.5-15.1l-1.1.7m-1.1-.7l1.1.7m0 0v-2.4m-1.1-.6l1.1.6m-1.1 1.7v-2.3m1.1.6l1.1-.6m-1.1-.7l1.1.7m-2.2 0l1.1-.7m1.1.7v2.3m4.3 0v3.3m-2-4.5l2 1.2m0 3.3l-4.3 2.5m-2-1.2l2 1.2m0 0v-3.3m-2-1.2l2 1.2m-2 2.1v-3.3m2 1.2l4.3-2.5m-6.3 1.3l4.3-2.5m-1.3 17v-1.2m-.5-.3l.5.3m-.8.8v-.9m0 .9l.8.4m0-1.2l2-1.2m-.4-.2l.4.2m0 0v1.3m0 0l-2 1.1m17.7-28.6v-1.2m-1.1-.6l1.1.6m-1.1.6v-1.2m0 1.2l1.1.6m0-1.2l.6-.4m-1.7-.2l.6-.4m2.5.3v.7m0 0l-2 1.2m4.4-25.5v1.3m-1.1-1.9l1.1.6m0 1.3l-2.1 1.2m-1.1-.6l1.1.6m0 0V44m-1.1-.6l1.1.6m-1.1.7v-1.3m1.1.6l2.1-1.2m-3.2.6l2.1-1.2m15.4 13v-1.3m-.8-.4l.8.4m-.8.8v-1.2m0 1.2l.8.5m0-1.3l2-1.2m-.6-.3l.6.3m-2.8.8l.6-.4m2.2-.4V54m0 0l-2 1.2M45.7 66.3l-.3.1m0-2.3l.3-.2m-.3-.2l.3.2m0 0v2.4m7 2.2v-1.2m-.3-.2l.3.2m-.8.8v-.7m0 .7l.8.4m0-1.2l2.1-1.2m-.3-.2l.3.2m-2.4.5l.8-.5m1.6 0v1.3m0 0l-2.1 1.1m-8.1-13l1.1-.6m-.8-.5l.8.5m-.9-.4l.1-.1m-.5 1l.2.1m1.1-.6v2.3m0 0l-1.1.7m-.8-.5l.8.5m0 0v-2.4m-.8 1.9v-1.7m-2 17.2v-.4m-.4.2l.4.2m2-1.6v.5m0 0l-2 1.1m10.8-32.7v1.6m-.1-1.6h.1m0 1.6L48.9 44m-.1-.1l.1.1m0 0v-1.6m-.1-.1l.1.1m-.1 1.5v-1.6m.1.1l3.7-2.2m-3.8 2.1l3.7-2.1m-12.2 9.1V48m-.8-.4l.8.4m-.8.8v-1.2m0 1.2l.8.5m0-1.3l2.1-1.1m-.8-.5l.8.5m-2.9.7l2.1-1.2m.8.5v1.2m0 0l-2.1 1.2m24.6-11.1V37m-1-.6l1 .6m-1 .6v-1.2m0 1.2l1 .6m0-1.2l2.1-1.2m-.6-.3l.6.3m-3.1.6l.6-.4m2.5-.2V37m0 0l-2.1 1.2m-33.2 28l-1.3.8m-1.2-.8l1.2.8m0 0v-2.6m-1.2-.8l1.2.8m-1.2 1.8v-2.6m1.2.8l1.3-.8m-1.3-.7l1.3.7m-2.5 0l1.2-.7m1.3.7v2.6m15 6.3v-1.2m-.8-.5l.8.5m-.8.7v-1.2m0 1.2l.8.5m0-1.2l2-1.2m-.7-.4l.7.4m-2.8.7l.7-.4m2.1-.3v1.2m0 0l-2 1.2m-.1-22.4l1-.6m-1-.7l1 .7m-2.1 0l1.1-.7m-1.1.7l1.1.6m1-.6v2.3m0 0l-1 .6m-.6-.3l.6.3m0 0v-2.3m-1.1 0v-.6m-.6 1.5l1.1-.6m-1.1-.6l1.1.6m-1.2-.5l.1-.1m-.1 1.2h.1m1.1-.6v2.4m0 0l-1.1.6m-.1 0h.1m0 0V51m-5.6 51.8c-.4-.2-1 .1-1.4.8-.4.7-.4 1.4 0 1.6.4.2 1-.1 1.4-.8.4-.7.4-1.4 0-1.6"/><path d="M39.2 102.7c-.4-.2-1 .1-1.4.8-.4.7-.4 1.4 0 1.6m1.4-2.4l.1.1m-1.5 2.3l.1.1M38 54l1-.6m-1-.6l1 .6m-2.1 0l1.1-.6m-1.1.6l1.1.6m1-.6v2.4m0 0l-1 .6m-1.1-.6l1.1.6m0 0V54m-1.1 1.8v-2.4m.5 6.4V61m-1.1-1.8l1.1.6m0 1.2l-2.1 1.2m-1.1-.6l1.1.6m0 0V61m-1.1-.6l1.1.6m-1.1.6v-1.2m1.1.6l2.1-1.2m-3.2.6l2.1-1.2m14.6-14.1v1.3m-1.1-1.9l1.1.6m0 1.3l-2.1 1.1m-1.1-.6l1.1.6m0 0v-1.2m-1.1-.6l1.1.6m-1.1.6v-1.2m1.1.6l2.1-1.2m-3.2.6l2.1-1.2m10.7 19.9v-1.3m-1-.6l1 .6m-1 .6v-1.2m0 1.2l1 .7m0-1.3l2.1-1.2m-.6-.3l.6.3m-3.1.6l.6-.3m2.5-.3v1.3m0 0l-2.1 1.2M39 52.2l-1 .6m-1.1-.6l1.1.6m0 0v-2.4m-1.1-.6l1.1.6m-1.1 1.8v-2.4m1.1.6l1-.6m-1-.6l1 .6m-2.1 0l1.1-.6m1 .6v2.4m-9 15.7l1.1-.7m-.6-.3l.6.3m-1.9.2l1-.6m-1 .6l.8.5m1.1-.7v2.4m0 0l-1.1.6m-.8-.4l.8.4m0 0v-2.3m-.8 1.9v-2.4M30.5 78v-1.3m-.8-.4l.8.4m-.8.8v-1.2m0 1.2l.8.5m0-1.3l2.1-1.2m-.6-.3l.6.3m-2.9.8l.6-.4m2.3-.4v1.3m0 0L30.5 78M66 58.5v.8m0 0l-2 1.2m-.7-.4l.7.4m0 0v-.8m-16.7 5.6l-1 .6m-.6-.3l.6.3m0 0v-2.3m-.8-.5l.8.5m-.8.2v-.7m.8.5l1-.6m-.7-.5l.7.5m-1.8.1l1.1-.6m.7.5v2.3M35.4 79l-1.1.6m-.7-.4l.7.4m0 0v-2.4m-1-.6l1 .6m-1 .3v-.9m1 .6l1.1-.6m-1.1-.6l1.1.6m-2.1 0l1-.6m1.1.6V79m13.9-28.1l-1.1.6m-.6-.3l.6.3m0 0v-2.4m-1.1-.6l1.1.6m-1.1.1v-.7m1.1.6l1.1-.6m-1.1-.6l1.1.6m-2.2 0l1.1-.6m1.1.6v2.4m6.8-9.5v-1.3m-1-.6l1 .6m-1 .7v-1.3m0 1.3l1 .6m0-1.3l2.1-1.1m-1.1-.7l1.1.7m-3.1.5l2-1.2m1.1.7v1.2m0 0l-2.1 1.2M51.4 67V48.5m-2.1-1.2l2.1 1.2m-2.3 15.4v-1m0-2.7v-4.6m0-2.6v-2m0-2.6v-1m.2 18.4l2.1 1.2m0-18.5l16-9.3M65.3 38l2.1 1.2m-16.5 6.9l1.6-1m2.3-1.3l1.1-.6m2.3-1.4l1.1-.6m2.3-1.3l3.1-1.8m2.7 1.1v18.5m0 0l-16 9.3m23.9-7.7v1.3m-1.1-1.9l1.1.6m0 1.3l-2 1.2m-1.1-.7l1.1.7m0 0v-1.3m-1.1-.6l1.1.6m-1.1.6v-1.2m1.1.6l2-1.2m-3.1.6l2-1.2M59.6 39.4v-1.2m-1.1-.7l1.1.7m-1.1.6v-1.3m0 1.3l1.1.6m0-1.2l2-1.2m-1.1-.6l1.1.6m-3.1.5l2-1.1m1.1.6v1.2m0 0l-2 1.2m7.4-1.2l1.1-.7m-1.1-.6l1.1.6m-2.1.1l1 .6m1.1-.7v2.4m0 0l-.7.4M67 39v-.8m-1.1.1v-.6m8.7 31.6l1.2-.6m-2.2 0l1.1-.7m1.1.7v1.2m0 0l-1.2.7m-27.9-.1v-1.3m-.8-.4l.8.4m-.8.8v-1.2m0 1.2l.8.5m0-1.3l2-1.2m-.8-.4l.8.4m-2.8.8l2-1.2m.8.4v1.3m0 0l-2 1.2m1.5-9.5l1.1-.6m-1.1-.7l1.1.7m-2.2 0l1.1-.7m-1.1.7l1.1.6m1.1-.6v2.3m0 0l-1.1.6m-1.1-.6l1.1.6m0 0V61m-1.1 1.7v-2.3m10 4v-.7m-.6.4l.6.3m2.1-1.9v.7m0 0l-2.1 1.2M30 99c-.3-.2-.8.1-1.1.6-.3.5-.3 1.1 0 1.3.3.2.8-.1 1.1-.6.3-.5.3-1.1 0-1.3"/><path d="M29.9 99c-.3-.2-.8.1-1.1.6-.3.5-.3 1.1 0 1.3m1.1-1.9h.1m-1.2 1.9h.1m47.8-28.4V74m-.1-1.6l.1.1m0 1.5l-2.1 1.3m0-1.6l2.1-1.2m-2.1 1.1l2-1.2m-38.1-12v-1.3m-.6-.4l.6.4m-1 .6v-.8m0 .8l1 .7m0-1.3l2.1-1.2m-1.1-.6l1.1.6m-1.8-.2l.7-.4m1.1.6v1.3m0 0l-2.1 1.2m5.4 17.5l-1.3.7m-.6-.7v-.1m.6-3.2l1.3-.7m-1.1-.6l1.1.6m-2-.1l.9-.5m1.1.6v4m5.8-5.5v2.4m-1-3.1l1 .7m0 2.4l-5 3m-.8-.5l.8.5m0 0v-2.5m-.8-.5l.8.5m0 0l5-2.9m-5.8 2.1l4.8-2.8m-6.1 2.5v3.2m-1.9-4.3l1.9 1.1m0 3.2l-4.3 2.5m-2.8-1.6l2.8 1.6m0 0v-3.3m-1.9-1l1.9 1m-2.8 1.7v-2.2m2.8.5l4.3-2.4m-11 15.5v-2.2m-1.8-1l1.8 1m-1.8 1.1v-2.1m0 2.1l1.8 1.1m0-2.2l3.4-2m-.5-.2l.5.2m-5.2 1l.7-.4m4.5-.6v2.2m0 0l-3.4 2m28-48.4v-1.2m-1.1-.6l1.1.6m-1.1.6v-1.2m0 1.2l1.1.6m0-1.2l2-1.2m-.6-.3l.6.3m-3.1.6l.6-.4m2.5-.2v1.2m0 0l-2 1.2m9.1 3.8l1-.6m-1-.6l1 .6m-2.1 0l1.1-.6m-1.1.6l1.1.6m1-.6v2.4m0 0l-1 .6m-.6-.4l.6.4m0 0v-2.4m-1.1.1v-.7m-.2 9.3l.7-.3m-.7-.4l.7.4m0 0v2.3m0 0l-.7.4M41.9 99.5l-5.2 2.9m-.1 0h.1m0 0v-1.5m-.1-.1l.1.1m-.1 1.5v-1.6m.1.1l2.6-1.5m-2.7 1.4l2.6-1.5M32.1 67l1.1-.6m-1.1-.6l1.1.6m-1.5-.4l.4-.2m-.9.7l.9.5m1.1-.6v2.4m0 0l-1.1.6m-1-.6l1 .6m0 0V67m-1.1.2v-.6m14.7-4.7l-.3.1m0-2.3l.3-.2m-.3-.2l.3.2m0 0v2.4m30.9 7.2v-6.7m-2.2-1.3l2.2 1.3M74 67.6v-6.3m0 6.3l2.6 1.5m0-6.7l2.8-1.6m-2.5-1.5l2.5 1.5m-4.1-.7l.7-.5m3.4 1.2v6.8m0 0l-2.8 1.5M43.9 47.7v-1.3m-1.2-.7l1.2.7m-1.2.7v-1.4m0 1.4l1.2.6m0-1.3l2.1-1.3m-1.2-.6l1.2.6m-3.3.6l2.1-1.2m1.2.6v1.4m0 0l-2.1 1.2m1.5 22.5l.4-.2m-.4-.3l.4.3m0 0v2.3m0 0l-1.1.6m-.8-.4l.8.4m0 0v-2.1m-.8 1.7v-1.2m24.8-30.1l1-.7m-1-.6l1 .6m-2.1 0l1.1-.6m-1.1.6l1.1.7m1-.7v2.4m0 0l-1 .6m-.6-.3l.6.3m0 0v-2.3m-1.1 0v-.7M48.2 53.7l1.1-.6m-1.1-.6l1.1.6m-2.2 0l1.1-.6m-1.1.6l1.1.6m1.1-.6v2.4m0 0l-1.1.6m-.6-.3l.6.3m0 0v-2.4m-1.1.1v-.7M30.5 76v-1.2m-.8-.4l.8.4m-.8.8v-1.2m0 1.2l.8.4m0-1.2l2.1-1.2m-.6-.3l.6.3m-2.9.8l.6-.4m2.3-.4v1.3m0 0L30.5 76m38.7-44.5c-.4-.2-1 .1-1.4.8-.4.7-.4 1.4 0 1.6.4.2 1-.1 1.4-.8.4-.6.4-1.4 0-1.6"/><path d="M69.1 31.5c-.4-.2-1 .1-1.4.8-.4.7-.4 1.4 0 1.6m1.4-2.4h.1m-1.5 2.4h.1m3.3 20.8v1.2m-.6-1.6l.6.4m0 1.2l-2 1.2m-.8-.5l.8.5m0 0v-1.3m-.8-.4l.8.4m-.8.8v-1.2m.8.4l2-1.1m-2.8.7l.6-.4m-1.5-5.2l.7-.4m-.7-.4l.7.4m0 0v2.4m0 0l-.7.3m-5.2-19.2l-.4-.2m.4.2c.1.6.6.7 1.1.3.4-.3.8-.9.8-1.4m0 0l-.4-.2m-1.6 1.3l-.4-.2m.4.2s0 0 0 0m-.2 0l-.4-.2m.6.2h-.2m-32 18.5l-.4-.2m.4.2l32-18.5M27 56.5l-.4-.2m3.3-4.9c-1.6.9-2.9 3.2-2.9 5.1m0 54.2l-.4-.2m.4.2V56.5m0 54.2c0 1.9 1.3 2.6 2.9 1.7m18.3-10.6L34 110m-3.1 1.8l-1 .6m18.3-10.6c.1 0 .1-.1.2-.2m.1-.1s0 .1-.1.1m2-1.2l-.4-.3"/><path d="M50.4 100.4c-.1-.6-.6-.7-1.1-.3-.4.3-.8.9-.8 1.4m2-1.1s-.1 0 0 0m0 0h.2m24-13.9l-24 13.9M79.8 26v1.2m0 3.6v47m-3-53.5l-.4-.2m3.4 1.9c0-1.9-1.3-2.6-2.9-1.7m-12.5 7.2l-.4-.2m.4.2l12.4-7.2m-12.6 7.4l-.4-.2m.6 0c-.1 0-.1.1-.2.2m-.1.1l.1-.1m-36.4 80.9l-.4-.2m51.5-88.3l-.4-.2M7.8 104.2c0 .1.1.2.2.2m0 .1V45.7m-.2-.2c0 .1.1.2.2.2m.1-1l.2.1m0 0c-.2.3-.3.7-.3 1m2.2-4.8l.2.1m-2.1 3.7l2.1-3.7m.7-.7c-.1-.1-.2-.1-.3 0m.3 0c-.3.1-.5.4-.7.7M62 11c-.1-.1-.2-.1-.3 0M11.1 40.4L62 11m1.3-.2c-.4-.2-.8-.1-1.4.2M8 104.5c0 .6.2 1 .5 1.2m-.7-1.5V45.5"/><path d="M8.1 44.7c-.1 0-.1.1-.1.1 0 .1 0 .1-.1.2 0 .1 0 .1-.1.2v.4m.3-.9l2.1-3.7m.6-.7c-.1 0-.1.1-.1.1l-.1.1-.1.1-.1.1s-.1.1-.1.2m.5-.6L61.7 11m0 0c.1-.1.2-.1.3-.2.1 0 .2-.1.3-.1h.6c.1 0 .2.1.3.1M8.5 105.7c-.1-.1-.2-.1-.3-.2-.1-.1-.1-.2-.2-.3 0-.1 0-.2-.1-.3 0-.1-.1-.2-.1-.3v-.3m18.4-55.5l-15.1-8.4m-.7.7l15.1 8.4m.7-.7c-.3.1-.5.4-.7.7m-2.4 4.1L8.3 44.8m-.3.9l14.8 8.9m.3-1c-.2.3-.3.7-.3 1m0 0l1.5.8m3.3-5.8l-1.4-.8m-.7.7l1.4.9m-2.4 4l-1.4-.8m3.1-4.8l51-29.5M23.1 53.6l2.4-4.1m-2.7 64V54.6m0 58.9l1.5.8m-1.5-.8c0 .7.3 1.3.7 1.5m53.7-95.7l1.4.9m.3-1c-.4-.3-1.1-.2-1.7.1M25 115.8l-1.4-.7M80.3 20l-1.4-.8m-1.7.1L62 11M22.8 113.5l-14.8-9m55.3-93.7l15.5 8.4M8.5 105.7l15 9.3m.8-17.7c0 .1.1.1.1.2.1.1.1.2.3.2.1 0 .3 0 .4-.1m-.2-.1c.1 0 .1 0 .1.1"/><path d="M24.9 97.5c0 .1-.1.1-.2.1s-.1-.1-.1-.2v-.1m-.3 0h.3m.3-26.2c.1 0 .1-.1.1-.1m0 0s0 0 0 0h-.4c-.1 0-.1 0-.2.1-.1 0-.1.1-.2.1 0 0-.1 0-.1.1m.2-.1c.1.1.2.1.3.1"/><path d="M24.5 71.3s0 0 0 0c.1-.1.1-.1.1-.2 0 0 .1 0 .1-.1h.2s0 0 0 0m-.6-15.6c.2.1.6.1.8 0m-.8 0v15.8m.7-.2V55.4m-.5-1l.7.4m-.7-.4c-.2.3-.3.7-.3 1m1-.6c-.1.2-.2.4-.2.6m1.9-5l.6.3m-.6-.3l-2.4 4m.7.4l2.3-4.1m.5-.4c0-.2-.2-.5-.4-.7m0 0c-.3.2-.5.4-.7.7m1.1 0c-.2.1-.3.2-.4.4M79 20.8c0-.2-.2-.5-.4-.7m0 .1l-51 29.4m.4.7l51-29.5m1.9 1.2c.1-.1.2-.1.2-.2m-.8-1.8c-.4-.3-1-.2-1.7.1m2.3 1.9c0-1.2-.9-1.7-1.9-1.1M80.9 82c.1-.1.2-.1.2-.2M80.9 22v60m-2 3.6c.1 0 .1-.1.1-.3m0 .1c1.1-.6 1.9-2.1 1.9-3.3m-54.1 33.5c.1 0 .1-.1.1-.3M79 85.4l-52 30m-2.7-1.1c.2.1.6.1.8 0m-.8 0c0 .7.3 1.3.7 1.5m0-1.5c0 1.2.9 1.7 1.9 1.1m-2.6-18.1v17m.7 0V97.5m-.9-1.1c.1 0 .2.1.3 0m-.3 0c0 .3 0 .6.1.9m.2-.9c0 .3 0 .5.1.8M24.1 72c.1 0 .2.1.3 0m-.3 0v24.4m.3 0V72m-.1-.8c-.1.2-.1.5-.1.7m.3-.6c-.1.2-.1.4-.1.7m.8-.1h.1m.1-.1c0-.4-.1-.6-.3-.8m.1.9c0-.3-.1-.6-.3-.8m.3 25.2h.1m.1 0V71.8m-.2.1v24.4m-.2 1.2c.2-.5.3-.9.3-1.2m-.4 1.2c.2-.4.3-.8.3-1.1M80.3 20c.1.1.2.2.3.2.1.1.2.2.2.3.1.1.1.2.2.4 0 .1.1.3.1.4v.4m0 0v60.1"/><path d="M81.1 81.8c0 .3 0 .6-.1.9l-.3.9c-.1.3-.3.6-.5.8-.2.3-.4.5-.6.7-.2.2-.5.4-.7.5m0 0l-52.1 30m0 0c-.1.1-.2.1-.4.2-.1 0-.2.1-.4.1h-.8c-.1 0-.2-.1-.4-.1M24.4 72l.8-.1m-.8 24.5l.8-.1m4.1 16.8L48 102.3m-22.2 8.9c0 2.2 1.5 3.1 3.4 2m-3.4-56.8v54.8m3.5-60.7c-1.9 1.1-3.4 3.7-3.4 5.9m35.8-24.6L29.3 50.5M62.2 32c0-.3-.2-.4-.5-.3m.5.5V32m0 .2c0 .4.3.5.6.3s.6-.6.6-1m-.1-.1v.1m.5-1c-.3.2-.5.5-.5.8m13.4-8.2l-12.9 7.4m16.3-5.4c0-2.2-1.5-3.1-3.4-2m3.4 56.7V25.1m-3.4 60.7c1.9-1.1 3.4-3.7 3.4-5.9m-30 21.2l26.6-15.3m-27.1 15c0 .3.2.4.5.3m-.5-.5v.2m0-.2c0-.4-.3-.5-.6-.3h-.1m-.9 2c.3-.2.5-.5.5-.8m31.1-74.6c-.9-1.8-3.2-1.5-5.2.7s-2.9 5.4-2 7.2c.4.8 1.1 1.2 2 1.1"/><path d="M78.7 27.7c-1.1-.7-3 .4-4.1 2.4-1.1 1.9-1.1 4.1 0 4.7 1.1.6 3-.4 4.1-2.4 1.1-2 1.1-4.1 0-4.7"/><path d="M78.3 28.4c-.9-.5-2.3.3-3.2 1.9-.9 1.5-.9 3.2 0 3.7s2.3-.3 3.2-1.9c.9-1.5.9-3.2 0-3.7"/><path d="M74.4 32.4c.1 1.3 1 1.7 2.2 1 1.1-.7 2-2.3 1.9-3.6-.1-1.1-.9-1.6-1.9-1.1"/><path d="M79.6 26.9c-.2-.4-.5-.7-.8-1-.3-.2-.6-.4-1-.4-.4-.1-.8-.1-1.1 0-.4.1-.9.3-1.3.5-.5.3-.9.6-1.3 1s-.8.9-1.1 1.4c-.3.5-.6 1-.8 1.6-.2.6-.4 1.1-.5 1.7-.1.6-.1 1.1-.1 1.6.1.5.2 1 .4 1.4.2.4.5.7.8.9.3.2.6.3 1 .4h.5m.1-.1c.5 0 .9-.1 1.3-.3.5-.2 1-.5 1.4-.8.5-.4.9-.8 1.3-1.3s.7-1 1-1.6c.3-.6.5-1.1.6-1.7.1-.6.2-1.2.1-1.8 0-.5-.2-1-.4-1.5m-.1 50.6c-.9-1.7-3.1-1.5-5 .5m-2.4 4.2c-.6 2.6.3 4.4 2.2 4.3m4.3-8.2c-1.1-.6-3 .4-4.1 2.4-1.1 2-1.1 4.1 0 4.7 1.1.7 3-.4 4.1-2.4 1.1-2 1.1-4.1 0-4.7"/><path d="M78.3 79c-.9-.5-2.3.3-3.2 1.9-.9 1.5-.9 3.2 0 3.7s2.3-.3 3.2-1.9c.9-1.5.9-3.2 0-3.7"/><path d="M74.4 83c.1 1.3 1 1.7 2.2 1 1.1-.7 2-2.3 1.9-3.6-.1-1.1-.9-1.6-1.9-1.1m3-1.8c-.2-.4-.5-.7-.8-1-.3-.2-.6-.4-1-.4-.4-.1-.8-.1-1.1 0-.4.1-.9.3-1.3.5-.3.2-.5.3-.8.5m-3 5.5c-.1.5-.1.9 0 1.3.1.5.2 1 .4 1.4.2.4.5.7.8.9.3.2.6.3 1 .4h.5"/><path d="M74.4 86.5c.5 0 .9-.1 1.3-.3.5-.2 1-.5 1.4-.8.5-.4.9-.8 1.3-1.3s.7-1 1-1.6c.3-.6.5-1.1.6-1.7.1-.6.2-1.2.1-1.8 0-.5-.2-1-.4-1.5m-43.9 25.3c-.9-1.8-3.2-1.5-5.2.7s-2.9 5.4-2 7.2c.4.8 1.1 1.2 2 1.2"/><path d="M34.9 103.6c-1.1-.6-3 .4-4.1 2.4-1.1 2-1.1 4.1 0 4.7 1.1.7 3-.4 4.1-2.4 1.1-2 1.1-4.1 0-4.7"/><path d="M34.5 104.3c-.9-.5-2.3.3-3.2 1.9-.9 1.5-.9 3.2 0 3.7s2.3-.3 3.2-1.9c.9-1.5.9-3.2 0-3.7"/><path d="M30.6 108.3c.1 1.3 1 1.7 2.2 1 1.1-.7 2-2.3 1.9-3.6-.1-1.1-.9-1.6-1.9-1.1"/><path d="M35.8 102.8c-.2-.4-.5-.7-.8-1-.3-.2-.6-.4-1-.4-.4-.1-.8-.1-1.1 0-.4.1-.9.3-1.3.5-.5.3-.9.6-1.3 1s-.8.9-1.1 1.4c-.3.5-.6 1-.8 1.6-.2.6-.4 1.1-.5 1.7-.1.6-.1 1.1 0 1.6s.2 1 .4 1.4c.2.4.5.7.8.9.3.2.6.3 1 .4h.5"/><path d="M30.6 111.8c.5 0 .9-.1 1.3-.3.5-.2 1-.5 1.4-.8.5-.4.9-.8 1.3-1.3s.7-1 1-1.6c.3-.6.5-1.1.6-1.7.1-.6.2-1.2.1-1.8 0-.5-.2-1-.4-1.5m-.1-50.6c-.9-1.8-3.2-1.5-5.2.7s-2.9 5.4-2 7.2c.4.8 1.1 1.2 2 1.1"/><path d="M34.9 53c-1.1-.6-3 .4-4.1 2.4-1.1 2-1.1 4.1 0 4.7 1.1.6 3-.4 4.1-2.4 1.1-2 1.1-4.1 0-4.7"/><path d="M34.5 53.7c-.9-.5-2.3.3-3.2 1.9-.9 1.5-.9 3.2 0 3.7s2.3-.3 3.2-1.9c.9-1.5.9-3.2 0-3.7"/><path d="M30.6 57.7c.1 1.3 1 1.7 2.2 1 1.1-.7 2-2.3 1.9-3.6-.1-1.1-.9-1.6-1.9-1.1"/><path d="M35.8 52.2c-.2-.4-.5-.7-.8-1-.3-.2-.6-.4-1-.4-.4-.1-.8-.1-1.1 0-.4.1-.9.3-1.3.5-.5.3-.9.6-1.3 1s-.8.9-1.1 1.4c-.3.5-.6 1-.8 1.6-.2.6-.4 1.1-.5 1.7-.1.6-.1 1.1 0 1.6s.2 1 .4 1.4c.2.4.5.7.8.9.3.2.6.3 1 .4h.5"/><path d="M30.6 61.2c.5 0 .9-.1 1.3-.3.5-.2 1-.5 1.4-.8.5-.4.9-.8 1.3-1.3s.7-1 1-1.6c.3-.6.5-1.1.6-1.7.1-.6.2-1.2.1-1.8 0-.5-.2-1-.4-1.5m44.4-27c0-2.5-1.8-3.5-3.9-2.3m0 63.3c2.2-1.2 3.9-4.3 3.9-6.8M25.6 111c0 2.5 1.8 3.5 3.9 2.3m0-63.3c-2.2 1.2-3.9 4.3-3.9 6.8m54.7-31.6v54.2M25.6 111V56.8m3.9-6.8l46.9-27.1m0 63.3l-46.9 27.1"/></g><text transform="translate(263.998 38.55)" font-family="Helvetica,Arial,sans-serif" font-size="14">Temperature measurement point</text><path fill="none" stroke="#000" stroke-miterlimit="10" d="M256 29.9L13.1 74.8M258 42L130.5 77.4"/></svg>