<svg version="1.1" id="Layer_1" xmlns="http://www.w3.org/2000/svg" x="0" y="0" viewBox="0 0 550 250" xml:space="preserve"><style>.st0{stroke-linejoin:round}.st0,.st1,.st4{fill:none;stroke:#000;stroke-miterlimit:3.864}.st4{stroke-width:.5}.st5{fill-rule:evenodd;clip-rule:evenodd}.st6,.st7{fill:none;stroke:#000;stroke-miterlimit:3.864}.st6{stroke-linejoin:round;stroke-width:3.000000e-03}.st7{stroke-width:.85}.st8{font-family:Helvetica,Arial,sans-serif}.st9{font-size:11.25px}.st10{font-size:11.248px}</style><path class="st0" d="M400.7 111H422v106.6h-21.3V111zm-282.3 63.2h281.9"/><path class="st1" d="M27.4 64.8h80.7l9.7 9.8-10 10H27.4L18 74.7l9.4-9.9zm0 99.5h80.7l9.7 9.8-10 10H27.4l-9.4-9.9 9.4-9.9z"/><path d="M13.5 13.3h387.2v223.2H13.5V13.3z" fill="none" stroke="#000" stroke-width=".722" stroke-linejoin="round" stroke-miterlimit="3.864" stroke-dasharray="8,4"/><path d="M488 123.2h-66" fill="none" stroke="#000" stroke-width="1.001" stroke-linejoin="round" stroke-miterlimit="3.864"/><path class="st1" d="M460.5 166.7l.1-26.3H422"/><path d="M185.7 73.6c0-1.6 1.3-2.8 2.8-2.8 1.6 0 2.8 1.3 2.8 2.8 0 1.6-1.3 2.8-2.8 2.8-1.5.1-2.8-1.2-2.8-2.8z"/><path class="st4" d="M185.7 73.6c0-1.6 1.3-2.8 2.8-2.8 1.6 0 2.8 1.3 2.8 2.8 0 1.6-1.3 2.8-2.8 2.8-1.5.1-2.8-1.2-2.8-2.8z"/><path class="st0" d="M217.4 121.4h-10"/><path class="st5" d="M220.8 54.8h-16.6l8.3-9.9 8.3 9.9z"/><path class="st6" d="M220.8 54.8h-16.6l8.3-9.9 8.3 9.9z"/><path class="st7" d="M207.6 45.3h9.6m-.2-.1l2.9 2.9m-15-5.5l2.9 2.9"/><path class="st5" d="M196.9 54.6h-16.7l8.4-9.9 8.3 9.9z"/><path class="st6" d="M196.9 54.6h-16.7l8.4-9.9 8.3 9.9z"/><path class="st7" d="M182.7 44.7h11.7"/><path class="st5" d="M196.9 102.1h-16.7l8.4-9.9 8.3 9.9z"/><path class="st6" d="M196.9 102.1h-16.7l8.4-9.9 8.3 9.9z"/><path class="st7" d="M182.7 92.2h11.7"/><path class="st1" d="M188.6 28.4h23.9v85.2h-23.9V28.4zm23.9 82.8v10.2"/><path d="M185.7 173.3c0-1.6 1.3-2.8 2.8-2.8 1.6 0 2.8 1.3 2.8 2.8 0 1.6-1.3 2.8-2.8 2.8s-2.8-1.3-2.8-2.8z"/><path class="st4" d="M185.7 173.3c0-1.6 1.3-2.8 2.8-2.8 1.6 0 2.8 1.3 2.8 2.8 0 1.6-1.3 2.8-2.8 2.8s-2.8-1.3-2.8-2.8z"/><path class="st0" d="M217.4 221h-10"/><path class="st5" d="M220.8 154.4h-16.7l8.4-9.8 8.3 9.8z"/><path class="st6" d="M220.8 154.4h-16.7l8.4-9.8 8.3 9.8z"/><path class="st7" d="M207.6 145h9.6m-.2-.2l2.9 2.9m-15-5.5l2.9 2.9"/><path class="st5" d="M196.9 154.2h-16.7l8.4-9.8 8.3 9.8z"/><path class="st6" d="M196.9 154.2h-16.7l8.4-9.8 8.3 9.8z"/><path class="st7" d="M182.7 144.4h11.7"/><path class="st5" d="M196.9 201.7h-16.7l8.4-9.9 8.3 9.9z"/><path class="st6" d="M196.9 201.7h-16.7l8.4-9.9 8.3 9.9z"/><path class="st7" d="M182.7 191.8h11.7"/><path class="st1" d="M188.6 128h23.9v85.2h-23.9V128zm23.9 82.8V221"/><path class="st0" d="M400.7 157.4h-25.9v-83H118.4m346.9 92.3h-9.5m1.8 2h6m-4.7 2.1h3.4"/><text transform="translate(407.41 126.857)" class="st8 st9">1</text><text transform="translate(407.41 143.73)" class="st8 st9">2</text><text transform="translate(407.41 160.605)" class="st8 st9">3</text><text transform="translate(407.41 177.478)" class="st8 st9">4</text><text transform="translate(407.41 194.352)" class="st8 st9">5</text><text transform="translate(407.41 211.226)" class="st8 st9">6</text><text transform="translate(42.454 79.249)" class="st8 st9">FPGA I/O</text><text transform="translate(43.86 178.742)" class="st8 st9">FPGA I/O</text><text transform="translate(493.2 120.11)" class="st8 st10">3.3 VDC</text><text transform="translate(493.2 133.61)" class="st8 st10">(typical)</text><text transform="translate(407.405 89.325)" class="st8 st10">I/O</text><text transform="translate(407.405 102.825)" class="st8 st10">connector</text><text transform="translate(20.296 34.32)" class="st8" font-size="15">Camera module</text></svg>