<svg version="1.0" xmlns="http://www.w3.org/2000/svg" viewBox="0 0 180 185"><path clip-rule="evenodd" fill="none" stroke="#000" stroke-width=".5" stroke-miterlimit="3.864" stroke-dasharray="2,2" d="M7 9h165.6v169.2H7z"/><g clip-rule="evenodd"><circle fill-rule="evenodd" cx="51.8" cy="113.4" r="1"/><circle fill="none" stroke="#000" stroke-width=".25" stroke-miterlimit="3.864" cx="51.8" cy="113.4" r="1"/></g><g clip-rule="evenodd"><circle fill-rule="evenodd" cx="51.8" cy="119.4" r="1"/><circle fill="none" stroke="#000" stroke-width=".25" stroke-miterlimit="3.864" cx="51.8" cy="119.4" r="1"/></g><g clip-rule="evenodd"><circle fill-rule="evenodd" cx="51.8" cy="125.4" r="1"/><circle fill="none" stroke="#000" stroke-width=".25" stroke-miterlimit="3.864" cx="51.8" cy="125.4" r="1"/></g><g clip-rule="evenodd"><circle fill-rule="evenodd" cx="51.8" cy="131.4" r="1"/><circle fill="none" stroke="#000" stroke-width=".25" stroke-miterlimit="3.864" cx="51.8" cy="131.4" r="1"/></g><g clip-rule="evenodd"><path fill-rule="evenodd" fill="#AAA" d="M7 9.1h165.4v6H7z"/><path fill="none" stroke="#000" stroke-width=".2" stroke-miterlimit="3.864" d="M7 9.1h165.4v6H7z"/></g><g clip-rule="evenodd"><path fill-rule="evenodd" fill="#AAA" d="M7 96.6h165.4v6H7z"/><path fill="none" stroke="#000" stroke-width=".2" stroke-miterlimit="3.864" d="M7 96.6h165.4v6H7z"/></g><g clip-rule="evenodd"><path fill-rule="evenodd" fill="#AAA" d="M7.1 84.1h165.4v6H7.1z"/><path fill="none" stroke="#000" stroke-width=".2" stroke-miterlimit="3.864" d="M7.1 84.1h165.4v6H7.1z"/></g><g clip-rule="evenodd"><path fill-rule="evenodd" fill="#AAA" d="M7.1 71.6h165.4v6H7.1z"/><path fill="none" stroke="#000" stroke-width=".2" stroke-miterlimit="3.864" d="M7.1 71.6h165.4v6H7.1z"/></g><g clip-rule="evenodd"><path fill-rule="evenodd" fill="#AAA" d="M7.1 59.1h165.4v6H7.1z"/><path fill="none" stroke="#000" stroke-width=".2" stroke-miterlimit="3.864" d="M7.1 59.1h165.4v6H7.1z"/></g><g clip-rule="evenodd"><path fill-rule="evenodd" fill="#AAA" d="M7 46.6h165.4v6H7z"/><path fill="none" stroke="#000" stroke-width=".2" stroke-miterlimit="3.864" d="M7 46.6h165.4v6H7z"/></g><g clip-rule="evenodd"><path fill-rule="evenodd" fill="#AAA" d="M7 34.1h165.4v6H7z"/><path fill="none" stroke="#000" stroke-width=".2" stroke-miterlimit="3.864" d="M7 34.1h165.4v6H7z"/></g><g clip-rule="evenodd"><path fill-rule="evenodd" fill="#AAA" d="M7 21.6h165.4v6H7z"/><path fill="none" stroke="#000" stroke-width=".2" stroke-miterlimit="3.864" d="M7 21.6h165.4v6H7z"/></g><g clip-rule="evenodd"><path fill-rule="evenodd" fill="#FFF" d="M6.9 15.4h165.4v6H6.9z"/><path fill="none" stroke="#000" stroke-width=".2" stroke-miterlimit="3.864" d="M6.9 15.4h165.4v6H6.9z"/></g><g clip-rule="evenodd"><path fill-rule="evenodd" fill="#FFF" d="M7.1 27.9h165.4v6H7.1z"/><path fill="none" stroke="#000" stroke-width=".2" stroke-miterlimit="3.864" d="M7.1 27.9h165.4v6H7.1z"/></g><g clip-rule="evenodd"><path fill-rule="evenodd" fill="#FFF" d="M7 40.4h165.4v6H7z"/><path fill="none" stroke="#000" stroke-width=".2" stroke-miterlimit="3.864" d="M7 40.4h165.4v6H7z"/></g><g clip-rule="evenodd"><path fill-rule="evenodd" fill="#FFF" d="M7 52.9h165.4v6H7z"/><path fill="none" stroke="#000" stroke-width=".2" stroke-miterlimit="3.864" d="M7 52.9h165.4v6H7z"/></g><g clip-rule="evenodd"><path fill-rule="evenodd" fill="#FFF" d="M7.1 65.4h165.4v6H7.1z"/><path fill="none" stroke="#000" stroke-width=".2" stroke-miterlimit="3.864" d="M7.1 65.4h165.4v6H7.1z"/></g><g clip-rule="evenodd"><path fill-rule="evenodd" fill="#FFF" d="M7.1 77.9h165.4v6H7.1z"/><path fill="none" stroke="#000" stroke-width=".2" stroke-miterlimit="3.864" d="M7.1 77.9h165.4v6H7.1z"/></g><g clip-rule="evenodd"><path fill-rule="evenodd" fill="#FFF" d="M7.1 90.4h165.4v6H7.1z"/><path fill="none" stroke="#000" stroke-width=".2" stroke-miterlimit="3.864" d="M7.1 90.4h165.4v6H7.1z"/></g><g clip-rule="evenodd"><path fill-rule="evenodd" fill="#AAA" d="M7 159.6h165.4v6H7z"/><path fill="none" stroke="#000" stroke-width=".2" stroke-miterlimit="3.864" d="M7 159.6h165.4v6H7z"/></g><g clip-rule="evenodd"><path fill-rule="evenodd" fill="#AAA" d="M7 147.1h165.4v6H7z"/><path fill="none" stroke="#000" stroke-width=".2" stroke-miterlimit="3.864" d="M7 147.1h165.4v6H7z"/></g><g clip-rule="evenodd"><path fill-rule="evenodd" fill="#AAA" d="M7 134.6h165.4v6H7z"/><path fill="none" stroke="#000" stroke-width=".2" stroke-miterlimit="3.864" d="M7 134.6h165.4v6H7z"/></g><g clip-rule="evenodd"><path fill-rule="evenodd" fill="#AAA" d="M7 172.1h165.4v6H7z"/><path fill="none" stroke="#000" stroke-width=".2" stroke-miterlimit="3.864" d="M7 172.1h165.4v6H7z"/></g><g clip-rule="evenodd"><path fill-rule="evenodd" fill="#FFF" d="M7 140.9h165.4v6H7z"/><path fill="none" stroke="#000" stroke-width=".2" stroke-miterlimit="3.864" d="M7 140.9h165.4v6H7z"/></g><g clip-rule="evenodd"><path fill-rule="evenodd" fill="#FFF" d="M7 153.4h165.4v6H7z"/><path fill="none" stroke="#000" stroke-width=".2" stroke-miterlimit="3.864" d="M7 153.4h165.4v6H7z"/></g><g clip-rule="evenodd"><path fill-rule="evenodd" fill="#FFF" d="M7 165.9h165.4v6H7z"/><path fill="none" stroke="#000" stroke-width=".2" stroke-miterlimit="3.864" d="M7 165.9h165.4v6H7z"/></g></svg>