<svg version="1.0" xmlns="http://www.w3.org/2000/svg" viewBox="0 0 520 300"><path fill="none" stroke="#000" stroke-width=".893" stroke-miterlimit="3.864" d="M52.7 17.3h439.1v236.5H52.7V17.3z"/><path clip-rule="evenodd" fill="none" stroke="#000" stroke-width=".303" stroke-miterlimit="3.864" d="M107.4 17.5v236.6m54.9-236.9v236.9m54.5-236.7v236.7m55.5-236.9v236.9m55.1-236.7v236.7m54.8-236.5v236.5m54.5-236.8v236.8"/><path clip-rule="evenodd" fill="none" stroke="#000" stroke-width=".276" stroke-miterlimit="3.864" d="M52.9 85.5H492M52.8 118.7h439.1M52.7 152.3h439M52.8 185.7h439m-439 34.5h439M52.9 17.2H492M52.9 51H492"/><path clip-rule="evenodd" fill="none" stroke="#000" stroke-miterlimit="3.864" d="M74.9 105.7l16-36.5 3-4.8 3.3-3.5 2.2-3.8 2-2.5 1.3-1.6 2.6-.5 2.8-.8 2.2-.9 2.3-.6 7.2-4.9 4.3-2.3 1.8-.2 1.5.4 2 .7 1.8 1.7 1.1 1.3 1.1 1.3 1.5.9 2.3.8 2.3.7 7.3.1 2 .7 2.8 1.1 3.2 1.3 2.7 1.7 3.8 1 2 1.2 2.9 2.5 3.3 3.2 3.9 3.1 7.8 10.2 4.3 4.2 4 2 5.1 2.3 3.2 1.9 5.7 3.4 1.6 1.7 1.5 2.5.8 2.3 1.4 1.8 4.4 8.9 3.2 5.7 3 3.2 5.8 4.5 5.7 3.3 3.1 1.5 4.9 1.6 3.6.4 2.5 1 2.4 1.9 2.5 2.3 2.2 3 2.3 3.4 1.8 2.9 2.9 3.6 3.8 3.7 3.6 4.3 3.5 5 2.6 3.7 2.6 4.1 2.7 3.2 2.4 2.1 3 3 2.6 1.6 3.8 1.3 3.8 1.5 3.2 2 4.1 3.2 3.6 3.2 2.1 2.1 2.3 3 3.9 3.9 2.6 1.9 4.4 3.5 5.4 4.4 3.5 2.7 4.1 2.9 3.1 2.5 2.9 2.6 5.6 3.4 5.3 2.6 3.3 1 4.6 2.6 16.9 8.4 3.5 2 2.8.8 3.1.8 4.3 1.7 14.4 5.1 4.4.1 3.5 1.2 4.9 1.6 4 .5 6 .9 4.3.7 10.5.4 2.2.8H456l1.7 1 6.6.2"/><text transform="rotate(-90 103.724 82.136)" fill="#131718" font-family="Helvetica,Arial,sans-serif" font-size="12">Quantum Efficiency</text><text transform="translate(222.731 288.808)" font-family="Helvetica,Arial,sans-serif" font-size="12">Wavelength (nm)</text><path fill="none" d="M44.2 260.5h17.6v10.1H44.2z"/><text transform="translate(44.209 270.02)" font-family="Helvetica,Arial,sans-serif" font-size="8.966">350</text><path fill="none" d="M98.7 260.5h17.6v10.1H98.7z"/><text transform="translate(98.705 270.02)" font-family="Helvetica,Arial,sans-serif" font-size="8.966">450</text><path fill="none" d="M153.8 260.5h17.6v10.1h-17.6z"/><text transform="translate(153.835 270.02)" font-family="Helvetica,Arial,sans-serif" font-size="8.966">550</text><path fill="none" d="M207.4 260.5H225v10.1h-17.6z"/><text transform="translate(207.376 270.02)" font-family="Helvetica,Arial,sans-serif" font-size="8.966">650</text><path fill="none" d="M263.8 260.5h17.6v10.1h-17.6z"/><text transform="translate(263.778 270.02)" font-family="Helvetica,Arial,sans-serif" font-size="8.966">750</text><path fill="none" d="M318.9 260.5h17.6v10.1h-17.6z"/><text transform="translate(318.908 270.02)" font-family="Helvetica,Arial,sans-serif" font-size="8.966">850</text><path fill="none" d="M373.7 260.5h17.6v10.1h-17.6z"/><text transform="translate(373.72 270.02)" font-family="Helvetica,Arial,sans-serif" font-size="8.966">950</text><path fill="none" d="M425 260.5h23.5v10.1H425z"/><text transform="translate(425.038 270.02)" font-family="Helvetica,Arial,sans-serif" font-size="8.966">1050</text><path fill="none" d="M481.1 260.5H504v10.1h-22.9z"/><text transform="translate(481.123 270.02)"><tspan x="0" y="0" font-family="Helvetica,Arial,sans-serif" font-size="8.966">1</tspan><tspan x="5.3" y="0" font-family="Helvetica,Arial,sans-serif" font-size="8.966">150</tspan></text><path fill="none" d="M41.3 246.4h5.9v10.1h-5.9z"/><text transform="translate(41.27 255.824)" font-family="Helvetica,Arial,sans-serif" font-size="8.966">0</text><path fill="none" d="M35.4 212.5h11.7v10.1H35.4z"/><text transform="translate(35.407 221.978)" font-family="Helvetica,Arial,sans-serif" font-size="8.966">10</text><path fill="none" d="M35.4 178.3h11.7v10.1H35.4z"/><text transform="translate(35.407 187.815)" font-family="Helvetica,Arial,sans-serif" font-size="8.966">20</text><path fill="none" d="M35.4 145.8h11.7v10.1H35.4z"/><text transform="translate(35.407 155.24)" font-family="Helvetica,Arial,sans-serif" font-size="8.966">30</text><path fill="none" d="M35.4 111.5h11.7v10.1H35.4z"/><text transform="translate(35.407 121.001)" font-family="Helvetica,Arial,sans-serif" font-size="8.966">40</text><path fill="none" d="M35.4 77.9h11.7V88H35.4z"/><text transform="translate(35.407 87.399)" font-family="Helvetica,Arial,sans-serif" font-size="8.966">50</text><path fill="none" d="M35.4 43.4h11.7v10.1H35.4z"/><text transform="translate(35.407 52.844)" font-family="Helvetica,Arial,sans-serif" font-size="8.966">60</text><path fill="none" d="M35.4 11h11.7v10.1H35.4z"/><text transform="translate(35.407 20.511)" font-family="Helvetica,Arial,sans-serif" font-size="8.966">70</text></svg>