<svg version="1.0" xmlns="http://www.w3.org/2000/svg" xmlns:xlink="http://www.w3.org/1999/xlink" viewBox="0 32 400 400"><path fill="#FFF" d="M61.5 323.5h322V74.1h-322v249.4z"/><path fill="none" stroke="#000" stroke-linecap="square" d="M124.6 323.5h258.9M61.5 74.1H321m62.5 249.4V74.1m-322 249.4V74.1"/><path stroke="#000" stroke-width=".5" stroke-linejoin="round" d="M61.5 323.5v-2.9m0-246.5V77m63.1 246.5v-2.9m0-246.5V77m63.1 246.5v-2.9m0-246.5V77m63.2 246.5v-2.9m0-246.5V77M314 323.5v-2.9m0-246.5V77m63.2 246.5v-2.9m0-246.5V77m6.3 246.5h-2.9M61.5 274.6h2.9m319.1 0h-2.9M61.5 225.7h2.9m319.1 0h-2.9M61.5 176.8h2.9m319.1 0h-2.9M61.5 127.9h2.9m319.1 0h-2.9M61.5 79h2.9m319.1 0h-2.9"/><defs><path id="a" d="M61.5 74.4h322v249.3h-322z"/></defs><clipPath id="b"><use xlink:href="#a" overflow="visible"/></clipPath><path clip-path="url(#b)" fill="none" stroke="#006AB3" stroke-linecap="square" stroke-linejoin="round" d="M98.6 355.6L346.4 42.5h0"/><defs><path id="c" d="M61.5 74.9h322v249.3h-322z"/></defs><clipPath id="d"><use xlink:href="#c" overflow="visible"/></clipPath><g clip-path="url(#d)"><path fill="green" stroke="#000" stroke-width=".5" stroke-linejoin="round" d="M222.5 201.7c.6 0 1.1-.2 1.5-.6.4-.4.6-1 .6-1.5s-.2-1.1-.6-1.5c-.4-.4-1-.6-1.5-.6-.6 0-1.1.2-1.5.6-.4.4-.6 1-.6 1.5s.2 1.1.6 1.5c.3.4.9.6 1.5.6z"/></g><g fill="none" stroke="#006AB3" stroke-linecap="square" stroke-linejoin="round"><path d="M321.3 74.1h6"/><path stroke-dasharray="14.3348,7.1674" d="M334.5 74.1h39.4"/><path d="M377.5 74.1h6"/></g><g fill="none" stroke="#006AB3" stroke-linecap="square" stroke-linejoin="round"><path d="M61.5 323.5h6"/><path stroke-dasharray="10.143,5.0715" d="M72.5 323.5h43.1"/><path d="M118.2 323.5h6"/></g><text transform="translate(41.742 278.812)" font-family="Helvetica,Arial,sans-serif" font-size="13">50</text><text transform="translate(117.478 340.611)" font-family="Helvetica,Arial,sans-serif" font-size="13">50</text><text transform="translate(34.52 229.829)" font-family="Helvetica,Arial,sans-serif" font-size="13">100</text><text transform="translate(176.989 340.611)" font-family="Helvetica,Arial,sans-serif" font-size="13">100</text><text transform="translate(34.52 180.846)" font-family="Helvetica,Arial,sans-serif" font-size="13">150</text><text transform="translate(240.113 340.611)" font-family="Helvetica,Arial,sans-serif" font-size="13">150</text><text transform="translate(34.52 131.862)" font-family="Helvetica,Arial,sans-serif" font-size="13">200</text><text transform="translate(303.233 340.612)" font-family="Helvetica,Arial,sans-serif" font-size="13">200</text><text transform="translate(34.52 82.88)" font-family="Helvetica,Arial,sans-serif" font-size="13">250</text><text transform="translate(366.355 340.61)" font-family="Helvetica,Arial,sans-serif" font-size="13">250</text><text transform="translate(48.963 340.611)" font-family="Helvetica,Arial,sans-serif" font-size="13">0</text><g fill="none" stroke="#000" stroke-linecap="square" stroke-linejoin="round"><path stroke-dasharray="12,6" d="M124.6 57.2v8.3m196.7-8.3v8.3"/><path d="M124.6 61.4h196.7"/></g><text transform="translate(181.085 55.484)" font-family="Helvetica,Arial,sans-serif" font-size="13">Dynamic range</text><text transform="translate(59.456 385.544)"><tspan x="0" y="0" fill="#F99D33" font-family="Helvetica,Arial,sans-serif" font-weight="bold" font-size="13">Contrast = 0.3</tspan><tspan x="0" y="15.6" font-family="Helvetica,Arial,sans-serif" font-size="13">Brightness = 0</tspan><tspan x="0" y="31.2" font-family="Helvetica,Arial,sans-serif" font-size="13">Linear contrast mode</tspan></text><text transform="translate(247.789 401.144)"><tspan x="0" y="0" font-family="Helvetica,Arial,sans-serif" font-size="13">8-bit pixel values shown</tspan><tspan x="0" y="15.6" font-family="Helvetica,Arial,sans-serif" font-size="13">as an example</tspan></text><text transform="translate(169.258 362.21)" font-family="Helvetica,Arial,sans-serif" font-size="13">Input pixel values</text><text transform="rotate(-90 136.901 114.31)" font-family="Helvetica,Arial,sans-serif" font-size="13">Output pixel values</text></svg>