<svg version="1.0" xmlns="http://www.w3.org/2000/svg" viewBox="0 0 746 276"><path fill="#F6F6F6" d="M527.8 43.8h1.4c.6 0 5.8-5.8 5.8-6.4V26c0-.5-5.2-6.4-5.8-6.4h-1.4v-5.9h-364v5.9h-1.4c-.6 0-5.8 5.8-5.8 6.4v11.4c0 .5 5.2 6.4 5.8 6.4h1.4v194.5h-1.4c-.6 0-5.8 5.8-5.8 6.4v11.4c0 .5 5.2 6.4 5.8 6.4h1.4v5.9h364v-5.9h1.4c.6 0 5.8-5.8 5.8-6.4v-11.4c0-.5-5.2-6.4-5.8-6.4h-1.4V43.8z"/><path fill="none" stroke="#000" stroke-width=".425" d="M501.8 48.7s-3.3.7-5.8 3.6h-7.7c-2 .2-1.9 3.9-1.9 3.9m-15.9-4.5h10.4v10.2zm-1.5.7v10.4h10.3zm42.8-3.7h-52.5"/><path fill="none" stroke="#000" stroke-width=".425" d="M501.8 63.6s-3.3-.7-5.8-3.6h-7.7c-2-.2-1.9-3.9-1.9-3.9m25.4 7.5h-52.5m11.2-11.9h-3.8v11.9h14.2v-1.7m-21.6-14.3h60m-60 186.9h60m-17.5-156s-3.3.7-5.8 3.6h-7.7c-2 .2-1.9 3.9-1.9 3.9m-15.9-4.6h10.4v10.3zm-1.5.8v10.4h10.3zm42.8-3.7h-52.5"/><path fill="none" stroke="#000" stroke-width=".425" d="M501.8 93.4s-3.3-.7-5.8-3.6h-7.7c-2-.2-1.9-3.9-1.9-3.9m-15.9-4.5h-3.8v12h14.2v-1.7m20.9-28.1s-3.3.7-5.8 3.6h-7.7c-2 .2-1.9 3.9-1.9 3.9m-15.9-4.5h10.4v10.2zm-1.5.7v10.4h10.3z"/><path fill="none" stroke="#000" stroke-width=".425" d="M501.8 78.5s-3.3-.7-5.8-3.6h-7.7c-2-.2-1.9-3.9-1.9-3.9m-15.9-4.4h-3.8v11.9h14.2v-1.7m20.9 16.6s-3.3.7-5.8 3.6h-7.7c-2 .2-1.9 3.9-1.9 3.9m-15.9-4.6h10.4v10.3zm-1.5.8v10.4h10.3zm42.8-3.7h-52.5"/><path fill="none" stroke="#000" stroke-width=".425" d="M501.8 108.3s-3.3-.7-5.8-3.6h-7.7c-2-.2-1.9-3.9-1.9-3.9m-15.9-4.5h-3.8v12h14.2v-1.7m20.9 1.7s-3.3.7-5.8 3.6h-7.7c-2 .2-1.9 3.9-1.9 3.9m-15.9-4.6h10.4v10.3zm-1.5.8v10.4h10.3zm42.8-3.7h-52.5"/><path fill="none" stroke="#000" stroke-width=".425" d="M501.8 123.2s-3.3-.7-5.8-3.6h-7.7c-2-.2-1.9-3.9-1.9-3.9m-15.9-4.5h-3.8v12h14.2v-1.7m20.9 1.7s-3.3.7-5.8 3.6h-7.7c-2 .2-1.9 3.9-1.9 3.9m-15.9-4.6h10.4v10.3zm-1.5.8v10.4h10.3zm42.8-3.7h-52.5"/><path fill="none" stroke="#000" stroke-width=".425" d="M501.8 138s-3.3-.7-5.8-3.6h-7.7c-2-.2-1.9-3.9-1.9-3.9m-15.9-4.4h-3.8V138h14.2v-1.6m20.9 1.6s-3.3.7-5.8 3.6h-7.7c-2 .2-1.9 3.9-1.9 3.9m-15.9-4.5h10.4v10.3zm-1.5.8v10.4h10.3zm42.8-3.8h-52.5"/><path fill="none" stroke="#000" stroke-width=".425" d="M501.8 152.9s-3.3-.7-5.8-3.6h-7.7c-2-.2-1.9-3.9-1.9-3.9m-15.9-4.4h-3.8v11.9h14.2v-1.6m20.9 1.6s-3.3.7-5.8 3.6h-7.7c-2 .2-1.9 3.9-1.9 3.9m-15.9-4.5h10.4v10.3zm-1.5.8v10.4h10.3zm42.8-3.8h-52.5"/><path fill="none" stroke="#000" stroke-width=".425" d="M501.8 167.8s-3.3-.7-5.8-3.6h-7.7c-2-.2-1.9-3.9-1.9-3.9m-15.9-4.4h-3.8v11.9h14.2v-1.6m20.9 1.6s-3.3.7-5.8 3.6h-7.7c-2 .2-1.9 3.9-1.9 3.9m-15.9-4.5h10.4v10.3zm-1.5.8V182h10.3zm42.8-3.8h-52.5"/><path fill="none" stroke="#000" stroke-width=".425" d="M501.8 182.7s-3.3-.7-5.8-3.6h-7.7c-2-.2-1.9-3.9-1.9-3.9m-15.9-4.4h-3.8v11.9h14.2v-1.6m20.9 1.6s-3.3.7-5.8 3.6h-7.7c-2 .2-1.9 3.9-1.9 3.9m-15.9-4.5h10.4V196zm-1.5.8v10.3h10.3zm42.8-3.8h-52.5"/><path fill="none" stroke="#000" stroke-width=".425" d="M501.8 197.6s-3.3-.7-5.8-3.6h-7.7c-2-.2-1.9-3.9-1.9-3.9m-15.9-4.4h-3.8v11.9h14.2V196m20.9 1.6s-3.3.7-5.8 3.6h-7.7c-2 .2-1.9 3.9-1.9 3.9m-15.9-4.5h10.4v10.3zm-1.5.8v10.3h10.3zm42.8-3.8h-52.5"/><path fill="none" stroke="#000" stroke-width=".425" d="M501.8 212.5s-3.3-.7-5.8-3.6h-7.7c-2-.2-1.9-3.9-1.9-3.9m-15.9-4.4h-3.8v11.9h14.2v-1.6m20.9 1.6s-3.3.7-5.8 3.6h-7.7c-2 .2-1.9 3.9-1.9 3.9m-15.9-4.5h10.4v10.3zm-1.5.8v10.3h10.3zm42.8-3.8h-52.5m52.5 14.9h-52.5"/><path fill="none" stroke="#000" stroke-width=".425" d="M501.8 227.4s-3.3-.7-5.8-3.6h-7.7c-2-.2-1.9-3.9-1.9-3.9m-15.9-4.4h-3.8v11.9h14.2v-1.6m7.4-173.6c3.4 0 3.6 7.8 0 7.8m0 7.1c3.4 0 3.6 7.8 0 7.8m0 7.1c3.4 0 3.6 7.8 0 7.8m0 7.1c3.4 0 3.6 7.8 0 7.8m0 7.1c3.4 0 3.6 7.8 0 7.8m0 7.1c3.4 0 3.6 7.8 0 7.8m0 7.1c3.4 0 3.6 7.8 0 7.8m0 7.1c3.4 0 3.6 7.8 0 7.8m0 7.1c3.4 0 3.6 7.8 0 7.8m0 7.1c3.4 0 3.6 7.8 0 7.8m0 7.1c3.4 0 3.6 7.8 0 7.8m0 7.1c3.4 0 3.6 7.8 0 7.8m-299.4 13s3.3-.7 5.8-3.6h7.7c2-.2 1.9-3.9 1.9-3.9m15.9 4.5h-10.5v-10.3zm1.5-.8v-10.3h-10.3z"/><path fill="none" stroke="#000" stroke-width=".425" d="M188.9 222s3.3.7 5.8 3.6h7.7c2 .2 1.9 3.9 1.9 3.9m15.9 4.4h3.7V222h-14.2v1.6m-20.8-1.6s3.3-.7 5.8-3.6h7.7c2-.2 1.9-3.9 1.9-3.9m15.9 4.5h-10.5v-10.3zm1.5-.8v-10.3h-10.3zm-42.8 3.8h52.5"/><path fill="none" stroke="#000" stroke-width=".425" d="M188.9 207.1s3.3.7 5.8 3.6h7.7c2 .2 1.9 3.9 1.9 3.9m15.9 4.4h3.7v-11.9h-14.2v1.6m-20.8-1.6s3.3-.7 5.8-3.6h7.7c2-.2 1.9-3.9 1.9-3.9m15.9 4.5h-10.5v-10.3zm1.5-.8V193h-10.3zm-42.8 3.8h52.5"/><path fill="none" stroke="#000" stroke-width=".425" d="M188.9 192.2s3.3.7 5.8 3.6h7.7c2 .2 1.9 3.9 1.9 3.9m15.9 4.4h3.7v-11.9h-14.2v1.6m-20.8-1.6s3.3-.7 5.8-3.6h7.7c2-.2 1.9-3.9 1.9-3.9m15.9 4.5h-10.5V179zm1.5-.7v-10.4h-10.3zm-42.8 3.7h52.5"/><path fill="none" stroke="#000" stroke-width=".425" d="M188.9 177.3s3.3.7 5.8 3.6h7.7c2 .2 1.9 3.9 1.9 3.9m15.9 4.4h3.7v-11.9h-14.2v1.7m-20.8-1.7s3.3-.7 5.8-3.6h7.7c2-.2 1.9-3.9 1.9-3.9m15.9 4.5h-10.5v-10.2zm1.5-.7v-10.4h-10.3zm-42.8 3.7h52.5"/><path fill="none" stroke="#000" stroke-width=".425" d="M188.9 162.4s3.3.7 5.8 3.6h7.7c2 .2 1.9 3.9 1.9 3.9m15.9 4.4h3.7v-11.9h-14.2v1.7m-20.8-1.7s3.3-.7 5.8-3.6h7.7c2-.2 1.9-3.9 1.9-3.9m15.9 4.5h-10.5v-10.2zm1.5-.7v-10.4h-10.3zm-42.8 3.7h52.5m-52.5-14.9h52.5"/><path fill="none" stroke="#000" stroke-width=".425" d="M188.9 147.5s3.3.7 5.8 3.6h7.7c2 .2 1.9 3.9 1.9 3.9m15.9 4.4h3.7v-11.9h-14.2v1.7m-7.4 84.1c-3.4 0-3.6-7.8 0-7.8m0-7.1c-3.4 0-3.6-7.8 0-7.8m0-7.1c-3.4 0-3.6-7.8 0-7.8m0-7c-3.4 0-3.6-7.8 0-7.8m0-7.1c-3.4 0-3.6-7.8 0-7.8m0-7.1c-3.4 0-3.6-7.8 0-7.8M511.8 47.6v186.9m-52.5 0V47.6m-250.6 72.5l-4.5-2.2-2.5 2.2h-19.1v-1.7l.8-4.9-.8-4.8V107h19.1l2.5 2.1 4.5-2.1zm0 14.9l-4.5-2.2-2.5 2.2h-19.1v-1.7l.8-4.9-.8-4.8v-1.7h19.1l2.5 2.1 4.5-2.1zm0-44.7l-4.5-2.1-2.5 2.1h-19.1v-1.7l.8-4.9-.8-4.8v-1.7h19.1l2.5 2.1 4.5-2.1zm0 14.9l-4.5-2.2-2.5 2.2h-19.1v-1.7l.8-4.9-.8-4.8v-1.7h19.1l2.5 2.1 4.5-2.1zm0-44.7l-4.5-2.1-2.5 2.1h-19.1v-1.7l.8-4.8-.8-4.9v-1.7h19.1l2.5 2.2 4.5-2.2zm0 14.9l-4.5-2.1-2.5 2.1h-19.1v-1.7l.8-4.8-.8-4.9v-1.7h19.1l2.5 2.1 4.5-2.1zM172.3 44h39.4m0 0v96.1m0 0h19.8m0 0v96.8m0 0h-59.2m6.4-192.5v192.8M302.5 47.4c0 5.6-4.6 10.2-10.3 10.2-5.7 0-10.3-4.5-10.3-10.2s4.6-10.2 10.3-10.2c5.7.1 10.3 4.6 10.3 10.2z"/><path fill="none" stroke="#000" stroke-width=".85" stroke-linecap="round" stroke-linejoin="round" d="M527.8 43.8h1.4c.6 0 5.8-5.8 5.8-6.4V26c0-.5-5.2-6.4-5.8-6.4h-1.4v-5.9h-364v5.9h-1.4c-.6 0-5.8 5.8-5.8 6.4v11.4c0 .5 5.2 6.4 5.8 6.4h1.4v194.5h-1.4c-.6 0-5.8 5.8-5.8 6.4v11.4c0 .5 5.2 6.4 5.8 6.4h1.4v5.9h364v-5.9h1.4c.6 0 5.8-5.8 5.8-6.4v-11.4c0-.5-5.2-6.4-5.8-6.4h-1.4V43.8z"/><path fill="none" stroke="#000" stroke-width=".425" d="M302.5 234.7c0-5.6-4.6-10.2-10.3-10.2-5.7 0-10.3 4.5-10.3 10.2 0 5.6 4.6 10.2 10.3 10.2 5.7 0 10.3-4.6 10.3-10.2z"/><path fill="none" stroke="#000" stroke-width=".425" stroke-linecap="round" stroke-linejoin="round" d="M168 268.4V13.5m0 4.5h355.5m-6.4 12.7c0-3.3 2.1-7.5 6.4-7.5h.1-355.5c4.2 0 6.4 4.2 6.4 7.5m-10.8 13.1V19.7m364.1 24.1V19.7M168 264.2h355.5m-6.4-12.7c0 3.3 2.1 7.5 6.4 7.5h.1-355.5c4.2 0 6.4-4.2 6.4-7.5m-10.8-13.2v24.2m364.1-24.2v24.2"/><path fill="none" d="M17 147h63v16H17z"/><text transform="translate(17 158.25)" font-family="Helvetica,Arial,sans-serif" font-size="15">Light +</text><path fill="none" stroke="#030304" stroke-miterlimit="10" d="M68 154.3h118.3M69.6 170.8h116.7"/><path fill="none" d="M17 165.8h63v16H17z"/><text transform="translate(17 177.008)" font-family="Helvetica,Arial,sans-serif" font-size="15">Light -</text><path fill="none" stroke="#030304" stroke-miterlimit="10" d="M501.8 146.7h118.3m-116.7 15.6h116.7"/><path fill="none" d="M631 139h63v16h-63z"/><text transform="translate(631 150.25)" font-family="Helvetica,Arial,sans-serif" font-size="15">Ground</text><path fill="none" d="M631 156.1h63v16h-63z"/><text transform="translate(631 167.309)" font-family="Helvetica,Arial,sans-serif" font-size="15">24 VDC</text><path fill="none" stroke="#030304" stroke-miterlimit="10" d="M302.5 47.6H616"/><path fill="none" d="M620.1 40.7h132v16h-132z"/><text transform="translate(620.075 51.928)" font-family="Helvetica,Arial,sans-serif" font-size="15">Device status LED</text><path fill="none" stroke="#030304" stroke-miterlimit="10" d="M303.5 236H617"/><path fill="none" d="M620.1 229h148v47h-148z"/><text transform="translate(620.075 240.25)"><tspan x="0" y="0" font-family="Helvetica,Arial,sans-serif" font-size="15">Communication </tspan><tspan x="0" y="18" font-family="Helvetica,Arial,sans-serif" font-size="15">status LED</tspan></text></svg>