<svg version="1.1" id="Layer_1" xmlns="http://www.w3.org/2000/svg" x="0" y="0" viewBox="0 0 556 330" xml:space="preserve"><style>.st4{fill:none}.st5{font-family:Helvetica,Arial,sans-serif}.st6{font-size:7.5px}.st11{stroke-miterlimit:3.864}.st11,.st12,.st7{fill:none;stroke:#000}.st7{stroke-width:.5;stroke-miterlimit:3.864}.st11{stroke-width:.227}.st12{stroke-width:.709;stroke-miterlimit:10}.st14{font-size:11.251px}</style><path d="M61.6 35.7h354.8v229.1H61.6V35.7z" fill="#bde4f7"/><path d="M61.6 35.7h354.8v229.1H61.6V35.7z" fill="#bde4f7" stroke="#fff" stroke-miterlimit="3.864"/><path d="M217.9 114.4h56.3v67.5h-56.3v-67.5h0z" fill="#f99d33" stroke="#5a5a5a" stroke-miterlimit="3.864"/><path d="M217.9 114.4h56.3v67.5h-56.3v-67.5h0z" fill="#f99d33" stroke="#5a5a5a" stroke-width=".001" stroke-miterlimit="3.864"/><path class="st4" d="M64.4 24.8h3.5v8.4h-3.5v-8.4z"/><text transform="translate(64.41 32.907)" class="st5 st6">0</text><path class="st4" d="M75.7 24.8h3.5v8.4h-3.5v-8.4z"/><text transform="translate(75.66 32.907)" class="st5 st6">1</text><path class="st4" d="M54.4 36h3.5v8.4h-3.5V36z"/><text transform="translate(54.405 44.125)" class="st5 st6">0</text><path class="st7" d="M62.3 37.5h7.5V45h-7.5v-7.5zm11.3 0h7.5V45h-7.5v-7.5z"/><path class="st4" d="M86.9 24.8h3.5v8.4h-3.5v-8.4z"/><text transform="translate(86.91 32.907)" class="st5 st6">2</text><path class="st4" d="M98.2 24.8h3.5v8.4h-3.5v-8.4z"/><text transform="translate(98.162 32.907)" class="st5 st6">3</text><path class="st7" d="M84.8 37.5h7.5V45h-7.5v-7.5zm11.3 0h7.5V45h-7.5v-7.5z"/><path class="st4" d="M109.4 24.8h3.5v8.4h-3.5v-8.4z"/><text transform="translate(109.413 32.907)" class="st5 st6">4</text><path class="st4" d="M120.7 24.8h3.5v8.4h-3.5v-8.4z"/><text transform="translate(120.662 32.907)" class="st5 st6">5</text><path class="st7" d="M107.3 37.5h7.5V45h-7.5v-7.5zm11.3 0h7.5V45h-7.5v-7.5z"/><path class="st4" d="M131.9 24.8h3.5v8.4h-3.5v-8.4z"/><text transform="translate(131.913 32.907)" class="st5 st6">6</text><path class="st4" d="M143.2 24.8h3.5v8.4h-3.5v-8.4z"/><text transform="translate(143.164 32.907)" class="st5 st6">7</text><path class="st7" d="M129.8 37.5h7.5V45h-7.5v-7.5zm11.3 0h7.5V45h-7.5v-7.5z"/><path class="st4" d="M154.4 24.8h3.5v8.4h-3.5v-8.4z"/><text transform="translate(154.414 32.907)" class="st5 st6">8</text><path class="st4" d="M165.1 24.8h3.5v8.4h-3.5v-8.4z"/><text transform="translate(165.102 32.907)" class="st5 st6">9</text><path class="st7" d="M152.3 37.5h7.5V45h-7.5v-7.5zm11.3 0h7.5V45h-7.5v-7.5z"/><path class="st4" d="M175.3 24.5h6.9v8.4h-6.9v-8.4z"/><text transform="translate(175.25 32.617)" class="st5 st6">10</text><path class="st4" d="M186.5 24.5h6.5v8.4h-6.5v-8.4z"/><text transform="translate(186.504 32.617)" class="st5 st6">1</text><text transform="translate(189.504 32.617)" class="st5 st6">1</text><path class="st7" d="M174.8 37.5h7.5V45h-7.5v-7.5zm11.3 0h7.5V45h-7.5v-7.5z"/><path class="st4" d="M197.8 24.5h6.9v8.4h-6.9v-8.4z"/><text transform="translate(197.751 32.617)" class="st5 st6">12</text><path class="st4" d="M209 24.5h6.9v8.4H209v-8.4z"/><text transform="translate(209.001 32.617)" class="st5 st6">13</text><path class="st7" d="M197.3 37.5h7.5V45h-7.5v-7.5zm11.3 0h7.5V45h-7.5v-7.5z"/><path class="st4" d="M220.3 24.5h6.9v8.4h-6.9v-8.4z"/><text transform="translate(220.252 32.617)" class="st5 st6">14</text><path class="st4" d="M231.5 24.5h6.9v8.4h-6.9v-8.4z"/><text transform="translate(231.496 32.617)" class="st5 st6">15</text><path class="st7" d="M219.9 37.5h7.5V45h-7.5v-7.5zm11.2 0h7.5V45h-7.5v-7.5z"/><path class="st4" d="M242.7 24.5h6.9v8.4h-6.9v-8.4z"/><text transform="translate(242.726 32.617)" class="st5 st6">16</text><path class="st4" d="M254 24.5h6.9v8.4H254v-8.4z"/><text transform="translate(253.975 32.617)" class="st5 st6">17</text><path class="st7" d="M242.3 37.5h7.5V45h-7.5v-7.5zm11.3 0h7.5V45h-7.5v-7.5z"/><path class="st4" d="M265.2 24.5h6.9v8.4h-6.9v-8.4z"/><text transform="translate(265.225 32.617)" class="st5 st6">18</text><path class="st4" d="M276.5 24.5h6.9v8.4h-6.9v-8.4z"/><text transform="translate(276.476 32.617)" class="st5 st6">19</text><path class="st7" d="M264.8 37.5h7.5V45h-7.5v-7.5zm11.3 0h7.5V45h-7.5v-7.5z"/><path class="st4" d="M287.7 24.5h6.9v8.4h-6.9v-8.4z"/><text transform="translate(287.726 32.617)" class="st5 st6">20</text><path class="st4" d="M299 24.5h6.9v8.4H299v-8.4z"/><text transform="translate(298.976 32.617)" class="st5 st6">21</text><path class="st7" d="M287.3 37.5h7.5V45h-7.5v-7.5zm11.3 0h7.5V45h-7.5v-7.5z"/><path class="st4" d="M310.2 24.5h6.9v8.4h-6.9v-8.4z"/><text transform="translate(310.227 32.617)" class="st5 st6">22</text><path class="st4" d="M321.5 24.5h6.9v8.4h-6.9v-8.4z"/><text transform="translate(321.477 32.617)" class="st5 st6">23</text><path class="st7" d="M309.8 37.5h7.5V45h-7.5v-7.5zm11.3 0h7.5V45h-7.5v-7.5z"/><path class="st4" d="M332.7 24.5h6.9v8.4h-6.9v-8.4z"/><text transform="translate(332.727 32.617)" class="st5 st6">24</text><path class="st4" d="M344 24.5h6.9v8.4H344v-8.4z"/><text transform="translate(343.978 32.617)" class="st5 st6">25</text><path class="st7" d="M332.3 37.5h7.5V45h-7.5v-7.5zm11.3 0h7.5V45h-7.5v-7.5z"/><path class="st4" d="M355.2 24.5h6.9v8.4h-6.9v-8.4z"/><text transform="translate(355.229 32.617)" class="st5 st6">26</text><path class="st4" d="M366.5 24.5h6.9v8.4h-6.9v-8.4z"/><text transform="translate(366.48 32.617)" class="st5 st6">27</text><path class="st7" d="M354.8 37.5h7.5V45h-7.5v-7.5zm11.3 0h7.5V45h-7.5v-7.5z"/><path class="st4" d="M377.7 24.5h6.9v8.4h-6.9v-8.4z"/><text transform="translate(377.73 32.617)" class="st5 st6">28</text><path class="st4" d="M389 24.5h6.9v8.4H389v-8.4z"/><text transform="translate(388.981 32.617)" class="st5 st6">29</text><path class="st7" d="M377.3 37.5h7.5V45h-7.5v-7.5zm11.3 0h7.5V45h-7.5v-7.5z"/><path class="st4" d="M400.2 24.5h6.9v8.4h-6.9v-8.4z"/><text transform="translate(400.232 32.617)" class="st5 st6">30</text><path class="st7" d="M399.8 37.5h7.5V45h-7.5v-7.5zm11.3 0h7.5V45h-7.5v-7.5zM62.3 48.8h7.5v7.5h-7.5v-7.5zm11.3 0h7.5v7.5h-7.5v-7.5zm11.2 0h7.5v7.5h-7.5v-7.5zm11.3 0h7.5v7.5h-7.5v-7.5zm11.2 0h7.5v7.5h-7.5v-7.5zm11.3 0h7.5v7.5h-7.5v-7.5zm11.2 0h7.5v7.5h-7.5v-7.5zm11.3 0h7.5v7.5h-7.5v-7.5zm11.2 0h7.5v7.5h-7.5v-7.5zm11.3 0h7.5v7.5h-7.5v-7.5zm11.2 0h7.5v7.5h-7.5v-7.5zm11.3 0h7.5v7.5h-7.5v-7.5zm11.2 0h7.5v7.5h-7.5v-7.5zm11.3 0h7.5v7.5h-7.5v-7.5zm11.3 0h7.5v7.5h-7.5v-7.5zm11.2 0h7.5v7.5h-7.5v-7.5zm11.2 0h7.5v7.5h-7.5v-7.5zm11.3 0h7.5v7.5h-7.5v-7.5zm11.2 0h7.5v7.5h-7.5v-7.5zm11.3 0h7.5v7.5h-7.5v-7.5zm11.2 0h7.5v7.5h-7.5v-7.5zm11.3 0h7.5v7.5h-7.5v-7.5zm11.2 0h7.5v7.5h-7.5v-7.5zm11.3 0h7.5v7.5h-7.5v-7.5zm11.2 0h7.5v7.5h-7.5v-7.5zm11.3 0h7.5v7.5h-7.5v-7.5zm11.2 0h7.5v7.5h-7.5v-7.5zm11.3 0h7.5v7.5h-7.5v-7.5zm11.2 0h7.5v7.5h-7.5v-7.5zm11.3 0h7.5v7.5h-7.5v-7.5zm11.2 0h7.5v7.5h-7.5v-7.5zm11.3 0h7.5v7.5h-7.5v-7.5zM62.3 60h7.5v7.5h-7.5V60zm11.3 0h7.5v7.5h-7.5V60zm11.2 0h7.5v7.5h-7.5V60zm11.3 0h7.5v7.5h-7.5V60zm11.2 0h7.5v7.5h-7.5V60zm11.3 0h7.5v7.5h-7.5V60zm11.2 0h7.5v7.5h-7.5V60zm11.3 0h7.5v7.5h-7.5V60zm11.2 0h7.5v7.5h-7.5V60zm11.3 0h7.5v7.5h-7.5V60zm11.2 0h7.5v7.5h-7.5V60zm11.3 0h7.5v7.5h-7.5V60zm11.2 0h7.5v7.5h-7.5V60zm11.3 0h7.5v7.5h-7.5V60zm11.3 0h7.5v7.5h-7.5V60zm11.2 0h7.5v7.5h-7.5V60zm11.2 0h7.5v7.5h-7.5V60zm11.3 0h7.5v7.5h-7.5V60zm11.2 0h7.5v7.5h-7.5V60zm11.3 0h7.5v7.5h-7.5V60zm11.2 0h7.5v7.5h-7.5V60zm11.3 0h7.5v7.5h-7.5V60zm11.2 0h7.5v7.5h-7.5V60zm11.3 0h7.5v7.5h-7.5V60zm11.2 0h7.5v7.5h-7.5V60zm11.3 0h7.5v7.5h-7.5V60zm11.2 0h7.5v7.5h-7.5V60zm11.3 0h7.5v7.5h-7.5V60zm11.2 0h7.5v7.5h-7.5V60zm11.3 0h7.5v7.5h-7.5V60zm11.2 0h7.5v7.5h-7.5V60zm11.3 0h7.5v7.5h-7.5V60zM62.3 71.3h7.5v7.5h-7.5v-7.5zm11.3 0h7.5v7.5h-7.5v-7.5zm11.2 0h7.5v7.5h-7.5v-7.5zm11.3 0h7.5v7.5h-7.5v-7.5zm11.2 0h7.5v7.5h-7.5v-7.5zm11.3 0h7.5v7.5h-7.5v-7.5zm11.2 0h7.5v7.5h-7.5v-7.5zm11.3 0h7.5v7.5h-7.5v-7.5zm11.2 0h7.5v7.5h-7.5v-7.5zm11.3 0h7.5v7.5h-7.5v-7.5zm11.2 0h7.5v7.5h-7.5v-7.5zm11.3 0h7.5v7.5h-7.5v-7.5zm11.2 0h7.5v7.5h-7.5v-7.5zm11.3 0h7.5v7.5h-7.5v-7.5zm11.3 0h7.5v7.5h-7.5v-7.5zm11.2 0h7.5v7.5h-7.5v-7.5zm11.2 0h7.5v7.5h-7.5v-7.5zm11.3 0h7.5v7.5h-7.5v-7.5zm11.2 0h7.5v7.5h-7.5v-7.5zm11.3 0h7.5v7.5h-7.5v-7.5zm11.2 0h7.5v7.5h-7.5v-7.5zm11.3 0h7.5v7.5h-7.5v-7.5zm11.2 0h7.5v7.5h-7.5v-7.5zm11.3 0h7.5v7.5h-7.5v-7.5zm11.2 0h7.5v7.5h-7.5v-7.5zm11.3 0h7.5v7.5h-7.5v-7.5zm11.2 0h7.5v7.5h-7.5v-7.5zm11.3 0h7.5v7.5h-7.5v-7.5zm11.2 0h7.5v7.5h-7.5v-7.5zm11.3 0h7.5v7.5h-7.5v-7.5zm11.2 0h7.5v7.5h-7.5v-7.5zm11.3 0h7.5v7.5h-7.5v-7.5zM62.3 82.6h7.5v7.5h-7.5v-7.5zm11.3 0h7.5v7.5h-7.5v-7.5zm11.2 0h7.5v7.5h-7.5v-7.5zm11.3 0h7.5v7.5h-7.5v-7.5zm11.2 0h7.5v7.5h-7.5v-7.5zm11.3 0h7.5v7.5h-7.5v-7.5zm11.2 0h7.5v7.5h-7.5v-7.5zm11.3 0h7.5v7.5h-7.5v-7.5zm11.2 0h7.5v7.5h-7.5v-7.5zm11.3 0h7.5v7.5h-7.5v-7.5zm11.2 0h7.5v7.5h-7.5v-7.5zm11.3 0h7.5v7.5h-7.5v-7.5zm11.2 0h7.5v7.5h-7.5v-7.5zm11.3 0h7.5v7.5h-7.5v-7.5zm11.3 0h7.5v7.5h-7.5v-7.5zm11.2 0h7.5v7.5h-7.5v-7.5zm11.2 0h7.5v7.5h-7.5v-7.5zm11.3 0h7.5v7.5h-7.5v-7.5zm11.2 0h7.5v7.5h-7.5v-7.5zm11.3 0h7.5v7.5h-7.5v-7.5zm11.2 0h7.5v7.5h-7.5v-7.5zm11.3 0h7.5v7.5h-7.5v-7.5zm11.2 0h7.5v7.5h-7.5v-7.5zm11.3 0h7.5v7.5h-7.5v-7.5zm11.2 0h7.5v7.5h-7.5v-7.5zm11.3 0h7.5v7.5h-7.5v-7.5zm11.2 0h7.5v7.5h-7.5v-7.5zm11.3 0h7.5v7.5h-7.5v-7.5zm11.2 0h7.5v7.5h-7.5v-7.5zm11.3 0h7.5v7.5h-7.5v-7.5zm11.2 0h7.5v7.5h-7.5v-7.5zm11.3 0h7.5v7.5h-7.5v-7.5zM62.3 93.8h7.5v7.5h-7.5v-7.5zm11.3 0h7.5v7.5h-7.5v-7.5zm11.2 0h7.5v7.5h-7.5v-7.5zm11.3 0h7.5v7.5h-7.5v-7.5zm11.2 0h7.5v7.5h-7.5v-7.5zm11.3 0h7.5v7.5h-7.5v-7.5zm11.2 0h7.5v7.5h-7.5v-7.5zm11.3 0h7.5v7.5h-7.5v-7.5zm11.2 0h7.5v7.5h-7.5v-7.5zm11.3 0h7.5v7.5h-7.5v-7.5zm11.2 0h7.5v7.5h-7.5v-7.5zm11.3 0h7.5v7.5h-7.5v-7.5zm11.2 0h7.5v7.5h-7.5v-7.5zm11.3 0h7.5v7.5h-7.5v-7.5zm11.3 0h7.5v7.5h-7.5v-7.5zm11.2 0h7.5v7.5h-7.5v-7.5zm11.2 0h7.5v7.5h-7.5v-7.5zm11.3 0h7.5v7.5h-7.5v-7.5zm11.2 0h7.5v7.5h-7.5v-7.5zm11.3 0h7.5v7.5h-7.5v-7.5zm11.2 0h7.5v7.5h-7.5v-7.5zm11.3 0h7.5v7.5h-7.5v-7.5zm11.2 0h7.5v7.5h-7.5v-7.5zm11.3 0h7.5v7.5h-7.5v-7.5zm11.2 0h7.5v7.5h-7.5v-7.5zm11.3 0h7.5v7.5h-7.5v-7.5zm11.2 0h7.5v7.5h-7.5v-7.5zm11.3 0h7.5v7.5h-7.5v-7.5zm11.2 0h7.5v7.5h-7.5v-7.5zm11.3 0h7.5v7.5h-7.5v-7.5zm11.2 0h7.5v7.5h-7.5v-7.5zm11.3 0h7.5v7.5h-7.5v-7.5zM62.3 105.1h7.5v7.5h-7.5v-7.5zm11.3 0h7.5v7.5h-7.5v-7.5zm11.2 0h7.5v7.5h-7.5v-7.5zm11.3 0h7.5v7.5h-7.5v-7.5zm11.2 0h7.5v7.5h-7.5v-7.5zm11.3 0h7.5v7.5h-7.5v-7.5zm11.2 0h7.5v7.5h-7.5v-7.5zm11.3 0h7.5v7.5h-7.5v-7.5zm11.2 0h7.5v7.5h-7.5v-7.5zm11.3 0h7.5v7.5h-7.5v-7.5zm11.2 0h7.5v7.5h-7.5v-7.5zm11.3 0h7.5v7.5h-7.5v-7.5zm11.2 0h7.5v7.5h-7.5v-7.5zm11.3 0h7.5v7.5h-7.5v-7.5zm11.3 0h7.5v7.5h-7.5v-7.5zm11.2 0h7.5v7.5h-7.5v-7.5zm11.2 0h7.5v7.5h-7.5v-7.5zm11.3 0h7.5v7.5h-7.5v-7.5zm11.2 0h7.5v7.5h-7.5v-7.5zm11.3 0h7.5v7.5h-7.5v-7.5zm11.2 0h7.5v7.5h-7.5v-7.5zm11.3 0h7.5v7.5h-7.5v-7.5zm11.2 0h7.5v7.5h-7.5v-7.5zm11.3 0h7.5v7.5h-7.5v-7.5zm11.2 0h7.5v7.5h-7.5v-7.5zm11.3 0h7.5v7.5h-7.5v-7.5zm11.2 0h7.5v7.5h-7.5v-7.5zm11.3 0h7.5v7.5h-7.5v-7.5zm11.2 0h7.5v7.5h-7.5v-7.5zm11.3 0h7.5v7.5h-7.5v-7.5zm11.2 0h7.5v7.5h-7.5v-7.5zm11.3 0h7.5v7.5h-7.5v-7.5zM62.3 116.3h7.5v7.5h-7.5v-7.5zm11.3 0h7.5v7.5h-7.5v-7.5zm11.2 0h7.5v7.5h-7.5v-7.5zm11.3 0h7.5v7.5h-7.5v-7.5zm11.2 0h7.5v7.5h-7.5v-7.5zm11.3 0h7.5v7.5h-7.5v-7.5zm11.2 0h7.5v7.5h-7.5v-7.5zm11.3 0h7.5v7.5h-7.5v-7.5z"/><path class="st7" d="M141.1 116.3h7.5v7.5h-7.5v-7.5zm11.2 0h7.5v7.5h-7.5v-7.5z"/><path class="st7" d="M152.3 116.3h7.5v7.5h-7.5v-7.5zm11.3 0h7.5v7.5h-7.5v-7.5z"/><path class="st7" d="M163.6 116.3h7.5v7.5h-7.5v-7.5zm11.2 0h7.5v7.5h-7.5v-7.5z"/><path class="st7" d="M174.8 116.3h7.5v7.5h-7.5v-7.5zm11.3 0h7.5v7.5h-7.5v-7.5zm11.2 0h7.5v7.5h-7.5v-7.5zm11.3 0h7.5v7.5h-7.5v-7.5zm11.3 0h7.5v7.5h-7.5v-7.5zm11.2 0h7.5v7.5h-7.5v-7.5zm11.2 0h7.5v7.5h-7.5v-7.5zm11.3 0h7.5v7.5h-7.5v-7.5zm11.2 0h7.5v7.5h-7.5v-7.5zm11.3 0h7.5v7.5h-7.5v-7.5zm11.2 0h7.5v7.5h-7.5v-7.5zm11.3 0h7.5v7.5h-7.5v-7.5zm11.2 0h7.5v7.5h-7.5v-7.5zm11.3 0h7.5v7.5h-7.5v-7.5zm11.2 0h7.5v7.5h-7.5v-7.5zm11.3 0h7.5v7.5h-7.5v-7.5zm11.2 0h7.5v7.5h-7.5v-7.5zm11.3 0h7.5v7.5h-7.5v-7.5zm11.2 0h7.5v7.5h-7.5v-7.5zm11.3 0h7.5v7.5h-7.5v-7.5zm11.2 0h7.5v7.5h-7.5v-7.5zm11.3 0h7.5v7.5h-7.5v-7.5zM62.3 127.6h7.5v7.5h-7.5v-7.5zm11.3 0h7.5v7.5h-7.5v-7.5zm11.2 0h7.5v7.5h-7.5v-7.5zm11.3 0h7.5v7.5h-7.5v-7.5zm11.2 0h7.5v7.5h-7.5v-7.5zm11.3 0h7.5v7.5h-7.5v-7.5zm11.2 0h7.5v7.5h-7.5v-7.5zm11.3 0h7.5v7.5h-7.5v-7.5z"/><path class="st7" d="M141.1 127.6h7.5v7.5h-7.5v-7.5zm11.2 0h7.5v7.5h-7.5v-7.5zm11.3 0h7.5v7.5h-7.5v-7.5zm11.2 0h7.5v7.5h-7.5v-7.5zm11.3 0h7.5v7.5h-7.5v-7.5z"/><path class="st7" d="M186.1 127.6h7.5v7.5h-7.5v-7.5zm11.2 0h7.5v7.5h-7.5v-7.5zm11.3 0h7.5v7.5h-7.5v-7.5zm11.3 0h7.5v7.5h-7.5v-7.5zm11.2 0h7.5v7.5h-7.5v-7.5zm11.2 0h7.5v7.5h-7.5v-7.5zm11.3 0h7.5v7.5h-7.5v-7.5zm11.2 0h7.5v7.5h-7.5v-7.5zm11.3 0h7.5v7.5h-7.5v-7.5zm11.2 0h7.5v7.5h-7.5v-7.5zm11.3 0h7.5v7.5h-7.5v-7.5zm11.2 0h7.5v7.5h-7.5v-7.5zm11.3 0h7.5v7.5h-7.5v-7.5zm11.2 0h7.5v7.5h-7.5v-7.5zm11.3 0h7.5v7.5h-7.5v-7.5zm11.2 0h7.5v7.5h-7.5v-7.5zm11.3 0h7.5v7.5h-7.5v-7.5zm11.2 0h7.5v7.5h-7.5v-7.5zm11.3 0h7.5v7.5h-7.5v-7.5zm11.2 0h7.5v7.5h-7.5v-7.5zm11.3 0h7.5v7.5h-7.5v-7.5zM62.3 138.8h7.5v7.5h-7.5v-7.5zm11.3 0h7.5v7.5h-7.5v-7.5zm11.2 0h7.5v7.5h-7.5v-7.5zm11.3 0h7.5v7.5h-7.5v-7.5zm11.2 0h7.5v7.5h-7.5v-7.5zm11.3 0h7.5v7.5h-7.5v-7.5zm11.2 0h7.5v7.5h-7.5v-7.5zm11.3 0h7.5v7.5h-7.5v-7.5z"/><path class="st7" d="M141.1 138.8h7.5v7.5h-7.5v-7.5zm11.2 0h7.5v7.5h-7.5v-7.5zm11.3 0h7.5v7.5h-7.5v-7.5zm11.2 0h7.5v7.5h-7.5v-7.5zm11.3 0h7.5v7.5h-7.5v-7.5z"/><path class="st7" d="M186.1 138.8h7.5v7.5h-7.5v-7.5zm11.2 0h7.5v7.5h-7.5v-7.5zm11.3 0h7.5v7.5h-7.5v-7.5zm11.3 0h7.5v7.5h-7.5v-7.5zm11.2 0h7.5v7.5h-7.5v-7.5zm11.2 0h7.5v7.5h-7.5v-7.5zm11.3 0h7.5v7.5h-7.5v-7.5zm11.2 0h7.5v7.5h-7.5v-7.5zm11.3 0h7.5v7.5h-7.5v-7.5zm11.2 0h7.5v7.5h-7.5v-7.5zm11.3 0h7.5v7.5h-7.5v-7.5zm11.2 0h7.5v7.5h-7.5v-7.5zm11.3 0h7.5v7.5h-7.5v-7.5zm11.2 0h7.5v7.5h-7.5v-7.5zm11.3 0h7.5v7.5h-7.5v-7.5zm11.2 0h7.5v7.5h-7.5v-7.5zm11.3 0h7.5v7.5h-7.5v-7.5zm11.2 0h7.5v7.5h-7.5v-7.5zm11.3 0h7.5v7.5h-7.5v-7.5zm11.2 0h7.5v7.5h-7.5v-7.5zm11.3 0h7.5v7.5h-7.5v-7.5zM62.3 150.1h7.5v7.4h-7.5v-7.4zm11.3 0h7.5v7.4h-7.5v-7.4zm11.2 0h7.5v7.4h-7.5v-7.4zm11.3 0h7.5v7.4h-7.5v-7.4zm11.2 0h7.5v7.4h-7.5v-7.4zm11.3 0h7.5v7.4h-7.5v-7.4zm11.2 0h7.5v7.4h-7.5v-7.4zm11.3 0h7.5v7.4h-7.5v-7.4z"/><path class="st7" d="M141.1 150.1h7.5v7.4h-7.5v-7.4zm11.2 0h7.5v7.4h-7.5v-7.4z"/><path class="st7" d="M152.3 150.1h7.5v7.4h-7.5v-7.4zm11.3 0h7.5v7.4h-7.5v-7.4z"/><path class="st7" d="M163.6 150.1h7.5v7.4h-7.5v-7.4zm11.2 0h7.5v7.4h-7.5v-7.4z"/><path class="st7" d="M174.8 150.1h7.5v7.4h-7.5v-7.4zm11.3 0h7.5v7.4h-7.5v-7.4zm11.2 0h7.5v7.4h-7.5v-7.4zm11.3 0h7.5v7.4h-7.5v-7.4zm11.3 0h7.5v7.4h-7.5v-7.4zm11.2 0h7.5v7.4h-7.5v-7.4zm11.2 0h7.5v7.4h-7.5v-7.4zm11.3 0h7.5v7.4h-7.5v-7.4zm11.2 0h7.5v7.4h-7.5v-7.4zm11.3 0h7.5v7.4h-7.5v-7.4zm11.2 0h7.5v7.4h-7.5v-7.4zm11.3 0h7.5v7.4h-7.5v-7.4zm11.2 0h7.5v7.4h-7.5v-7.4zm11.3 0h7.5v7.4h-7.5v-7.4zm11.2 0h7.5v7.4h-7.5v-7.4zm11.3 0h7.5v7.4h-7.5v-7.4zm11.2 0h7.5v7.4h-7.5v-7.4zm11.3 0h7.5v7.4h-7.5v-7.4zm11.2 0h7.5v7.4h-7.5v-7.4zm11.3 0h7.5v7.4h-7.5v-7.4zm11.2 0h7.5v7.4h-7.5v-7.4zm11.3 0h7.5v7.4h-7.5v-7.4zM62.3 161.3h7.5v7.5h-7.5v-7.5zm11.3 0h7.5v7.5h-7.5v-7.5zm11.2 0h7.5v7.5h-7.5v-7.5zm11.3 0h7.5v7.5h-7.5v-7.5zm11.2 0h7.5v7.5h-7.5v-7.5zm11.3 0h7.5v7.5h-7.5v-7.5zm11.2 0h7.5v7.5h-7.5v-7.5zm11.3 0h7.5v7.5h-7.5v-7.5z"/><path class="st7" d="M141.1 161.3h7.5v7.5h-7.5v-7.5zm11.2 0h7.5v7.5h-7.5v-7.5zm11.3 0h7.5v7.5h-7.5v-7.5z"/><path class="st7" d="M163.6 161.3h7.5v7.5h-7.5v-7.5zm11.2 0h7.5v7.5h-7.5v-7.5zm11.3 0h7.5v7.5h-7.5v-7.5zm11.2 0h7.5v7.5h-7.5v-7.5zm11.3 0h7.5v7.5h-7.5v-7.5zm11.3 0h7.5v7.5h-7.5v-7.5zm11.2 0h7.5v7.5h-7.5v-7.5zm11.2 0h7.5v7.5h-7.5v-7.5zm11.3 0h7.5v7.5h-7.5v-7.5zm11.2 0h7.5v7.5h-7.5v-7.5zm11.3 0h7.5v7.5h-7.5v-7.5zm11.2 0h7.5v7.5h-7.5v-7.5zm11.3 0h7.5v7.5h-7.5v-7.5zm11.2 0h7.5v7.5h-7.5v-7.5zm11.3 0h7.5v7.5h-7.5v-7.5zm11.2 0h7.5v7.5h-7.5v-7.5zm11.3 0h7.5v7.5h-7.5v-7.5zm11.2 0h7.5v7.5h-7.5v-7.5zm11.3 0h7.5v7.5h-7.5v-7.5zm11.2 0h7.5v7.5h-7.5v-7.5zm11.3 0h7.5v7.5h-7.5v-7.5zm11.2 0h7.5v7.5h-7.5v-7.5zm11.3 0h7.5v7.5h-7.5v-7.5zM62.3 172.5h7.5v7.5h-7.5v-7.5zm11.3 0h7.5v7.5h-7.5v-7.5zm11.2 0h7.5v7.5h-7.5v-7.5zm11.3 0h7.5v7.5h-7.5v-7.5zm11.2 0h7.5v7.5h-7.5v-7.5zm11.3 0h7.5v7.5h-7.5v-7.5zm11.2 0h7.5v7.5h-7.5v-7.5zm11.3 0h7.5v7.5h-7.5v-7.5z"/><path class="st7" d="M141.1 172.5h7.5v7.5h-7.5v-7.5zm11.2 0h7.5v7.5h-7.5v-7.5zm11.3 0h7.5v7.5h-7.5v-7.5zm11.2 0h7.5v7.5h-7.5v-7.5z"/><path class="st7" d="M174.8 172.5h7.5v7.5h-7.5v-7.5zm11.3 0h7.5v7.5h-7.5v-7.5zm11.2 0h7.5v7.5h-7.5v-7.5zm11.3 0h7.5v7.5h-7.5v-7.5zm11.3 0h7.5v7.5h-7.5v-7.5zm11.2 0h7.5v7.5h-7.5v-7.5zm11.2 0h7.5v7.5h-7.5v-7.5zm11.3 0h7.5v7.5h-7.5v-7.5zm11.2 0h7.5v7.5h-7.5v-7.5zm11.3 0h7.5v7.5h-7.5v-7.5zm11.2 0h7.5v7.5h-7.5v-7.5zm11.3 0h7.5v7.5h-7.5v-7.5zm11.2 0h7.5v7.5h-7.5v-7.5zm11.3 0h7.5v7.5h-7.5v-7.5zm11.2 0h7.5v7.5h-7.5v-7.5zm11.3 0h7.5v7.5h-7.5v-7.5zm11.2 0h7.5v7.5h-7.5v-7.5zm11.3 0h7.5v7.5h-7.5v-7.5zm11.2 0h7.5v7.5h-7.5v-7.5zm11.3 0h7.5v7.5h-7.5v-7.5zm11.2 0h7.5v7.5h-7.5v-7.5zm11.3 0h7.5v7.5h-7.5v-7.5zM62.3 183.8h7.5v7.5h-7.5v-7.5zm11.3 0h7.5v7.5h-7.5v-7.5zm11.2 0h7.5v7.5h-7.5v-7.5zm11.3 0h7.5v7.5h-7.5v-7.5zm11.2 0h7.5v7.5h-7.5v-7.5zm11.3 0h7.5v7.5h-7.5v-7.5zm11.2 0h7.5v7.5h-7.5v-7.5zm11.3 0h7.5v7.5h-7.5v-7.5z"/><path class="st7" d="M141.1 183.8h7.5v7.5h-7.5v-7.5zm11.2 0h7.5v7.5h-7.5v-7.5zm11.3 0h7.5v7.5h-7.5v-7.5zm11.2 0h7.5v7.5h-7.5v-7.5zm11.3 0h7.5v7.5h-7.5v-7.5z"/><path class="st7" d="M186.1 183.8h7.5v7.5h-7.5v-7.5zm11.2 0h7.5v7.5h-7.5v-7.5zm11.3 0h7.5v7.5h-7.5v-7.5zm11.3 0h7.5v7.5h-7.5v-7.5zm11.2 0h7.5v7.5h-7.5v-7.5zm11.2 0h7.5v7.5h-7.5v-7.5zm11.3 0h7.5v7.5h-7.5v-7.5zm11.2 0h7.5v7.5h-7.5v-7.5zm11.3 0h7.5v7.5h-7.5v-7.5zm11.2 0h7.5v7.5h-7.5v-7.5zm11.3 0h7.5v7.5h-7.5v-7.5zm11.2 0h7.5v7.5h-7.5v-7.5zm11.3 0h7.5v7.5h-7.5v-7.5zm11.2 0h7.5v7.5h-7.5v-7.5zm11.3 0h7.5v7.5h-7.5v-7.5zm11.2 0h7.5v7.5h-7.5v-7.5zm11.3 0h7.5v7.5h-7.5v-7.5zm11.2 0h7.5v7.5h-7.5v-7.5zm11.3 0h7.5v7.5h-7.5v-7.5zm11.2 0h7.5v7.5h-7.5v-7.5zm11.3 0h7.5v7.5h-7.5v-7.5zM62.3 195h7.5v7.5h-7.5V195zm11.3 0h7.5v7.5h-7.5V195zm11.2 0h7.5v7.5h-7.5V195zm11.3 0h7.5v7.5h-7.5V195zm11.2 0h7.5v7.5h-7.5V195zm11.3 0h7.5v7.5h-7.5V195zm11.2 0h7.5v7.5h-7.5V195zm11.3 0h7.5v7.5h-7.5V195zm11.2 0h7.5v7.5h-7.5V195zm11.3 0h7.5v7.5h-7.5V195zm11.2 0h7.5v7.5h-7.5V195zm11.3 0h7.5v7.5h-7.5V195zm11.2 0h7.5v7.5h-7.5V195zm11.3 0h7.5v7.5h-7.5V195zm11.3 0h7.5v7.5h-7.5V195zm11.2 0h7.5v7.5h-7.5V195zm11.2 0h7.5v7.5h-7.5V195zm11.3 0h7.5v7.5h-7.5V195zm11.2 0h7.5v7.5h-7.5V195zm11.3 0h7.5v7.5h-7.5V195zm11.2 0h7.5v7.5h-7.5V195zm11.3 0h7.5v7.5h-7.5V195zm11.2 0h7.5v7.5h-7.5V195zm11.3 0h7.5v7.5h-7.5V195zm11.2 0h7.5v7.5h-7.5V195zm11.3 0h7.5v7.5h-7.5V195zm11.2 0h7.5v7.5h-7.5V195zm11.3 0h7.5v7.5h-7.5V195zm11.2 0h7.5v7.5h-7.5V195zm11.3 0h7.5v7.5h-7.5V195zm11.2 0h7.5v7.5h-7.5V195zm11.3 0h7.5v7.5h-7.5V195zM62.3 206.3h7.5v7.5h-7.5v-7.5zm11.3 0h7.5v7.5h-7.5v-7.5zm11.2 0h7.5v7.5h-7.5v-7.5zm11.3 0h7.5v7.5h-7.5v-7.5zm11.2 0h7.5v7.5h-7.5v-7.5zm11.3 0h7.5v7.5h-7.5v-7.5zm11.2 0h7.5v7.5h-7.5v-7.5zm11.3 0h7.5v7.5h-7.5v-7.5zm11.2 0h7.5v7.5h-7.5v-7.5zm11.3 0h7.5v7.5h-7.5v-7.5zm11.2 0h7.5v7.5h-7.5v-7.5zm11.3 0h7.5v7.5h-7.5v-7.5zm11.2 0h7.5v7.5h-7.5v-7.5zm11.3 0h7.5v7.5h-7.5v-7.5zm11.3 0h7.5v7.5h-7.5v-7.5zm11.2 0h7.5v7.5h-7.5v-7.5zm11.2 0h7.5v7.5h-7.5v-7.5zm11.3 0h7.5v7.5h-7.5v-7.5zm11.2 0h7.5v7.5h-7.5v-7.5zm11.3 0h7.5v7.5h-7.5v-7.5zm11.2 0h7.5v7.5h-7.5v-7.5zm11.3 0h7.5v7.5h-7.5v-7.5zm11.2 0h7.5v7.5h-7.5v-7.5zm11.3 0h7.5v7.5h-7.5v-7.5zm11.2 0h7.5v7.5h-7.5v-7.5zm11.3 0h7.5v7.5h-7.5v-7.5zm11.2 0h7.5v7.5h-7.5v-7.5zm11.3 0h7.5v7.5h-7.5v-7.5zm11.2 0h7.5v7.5h-7.5v-7.5zm11.3 0h7.5v7.5h-7.5v-7.5zm11.2 0h7.5v7.5h-7.5v-7.5zm11.3 0h7.5v7.5h-7.5v-7.5zM62.3 217.5h7.5v7.5h-7.5v-7.5zm11.3 0h7.5v7.5h-7.5v-7.5zm11.2 0h7.5v7.5h-7.5v-7.5zm11.3 0h7.5v7.5h-7.5v-7.5zm11.2 0h7.5v7.5h-7.5v-7.5zm11.3 0h7.5v7.5h-7.5v-7.5zm11.2 0h7.5v7.5h-7.5v-7.5zm11.3 0h7.5v7.5h-7.5v-7.5zm11.2 0h7.5v7.5h-7.5v-7.5zm11.3 0h7.5v7.5h-7.5v-7.5zm11.2 0h7.5v7.5h-7.5v-7.5zm11.3 0h7.5v7.5h-7.5v-7.5zm11.2 0h7.5v7.5h-7.5v-7.5zm11.3 0h7.5v7.5h-7.5v-7.5zm11.3 0h7.5v7.5h-7.5v-7.5zm11.2 0h7.5v7.5h-7.5v-7.5zm11.2 0h7.5v7.5h-7.5v-7.5zm11.3 0h7.5v7.5h-7.5v-7.5zm11.2 0h7.5v7.5h-7.5v-7.5zm11.3 0h7.5v7.5h-7.5v-7.5zm11.2 0h7.5v7.5h-7.5v-7.5zm11.3 0h7.5v7.5h-7.5v-7.5zm11.2 0h7.5v7.5h-7.5v-7.5zm11.3 0h7.5v7.5h-7.5v-7.5zm11.2 0h7.5v7.5h-7.5v-7.5zm11.3 0h7.5v7.5h-7.5v-7.5zm11.2 0h7.5v7.5h-7.5v-7.5zm11.3 0h7.5v7.5h-7.5v-7.5zm11.2 0h7.5v7.5h-7.5v-7.5zm11.3 0h7.5v7.5h-7.5v-7.5zm11.2 0h7.5v7.5h-7.5v-7.5zm11.3 0h7.5v7.5h-7.5v-7.5zM62.3 228.8h7.5v7.5h-7.5v-7.5zm11.3 0h7.5v7.5h-7.5v-7.5zm11.2 0h7.5v7.5h-7.5v-7.5zm11.3 0h7.5v7.5h-7.5v-7.5zm11.2 0h7.5v7.5h-7.5v-7.5zm11.3 0h7.5v7.5h-7.5v-7.5zm11.2 0h7.5v7.5h-7.5v-7.5zm11.3 0h7.5v7.5h-7.5v-7.5zm11.2 0h7.5v7.5h-7.5v-7.5zm11.3 0h7.5v7.5h-7.5v-7.5zm11.2 0h7.5v7.5h-7.5v-7.5zm11.3 0h7.5v7.5h-7.5v-7.5zm11.2 0h7.5v7.5h-7.5v-7.5zm11.3 0h7.5v7.5h-7.5v-7.5zm11.3 0h7.5v7.5h-7.5v-7.5zm11.2 0h7.5v7.5h-7.5v-7.5zm11.2 0h7.5v7.5h-7.5v-7.5zm11.3 0h7.5v7.5h-7.5v-7.5zm11.2 0h7.5v7.5h-7.5v-7.5zm11.3 0h7.5v7.5h-7.5v-7.5zm11.2 0h7.5v7.5h-7.5v-7.5zm11.3 0h7.5v7.5h-7.5v-7.5zm11.2 0h7.5v7.5h-7.5v-7.5zm11.3 0h7.5v7.5h-7.5v-7.5zm11.2 0h7.5v7.5h-7.5v-7.5zm11.3 0h7.5v7.5h-7.5v-7.5zm11.2 0h7.5v7.5h-7.5v-7.5zm11.3 0h7.5v7.5h-7.5v-7.5zm11.2 0h7.5v7.5h-7.5v-7.5zm11.3 0h7.5v7.5h-7.5v-7.5zm11.2 0h7.5v7.5h-7.5v-7.5zm11.3 0h7.5v7.5h-7.5v-7.5zM62.3 240h7.5v7.5h-7.5V240zm11.3 0h7.5v7.5h-7.5V240zm11.2 0h7.5v7.5h-7.5V240zm11.3 0h7.5v7.5h-7.5V240zm11.2 0h7.5v7.5h-7.5V240zm11.3 0h7.5v7.5h-7.5V240zm11.2 0h7.5v7.5h-7.5V240zm11.3 0h7.5v7.5h-7.5V240zm11.2 0h7.5v7.5h-7.5V240zm11.3 0h7.5v7.5h-7.5V240zm11.2 0h7.5v7.5h-7.5V240zm11.3 0h7.5v7.5h-7.5V240zm11.2 0h7.5v7.5h-7.5V240zm11.3 0h7.5v7.5h-7.5V240zm11.3 0h7.5v7.5h-7.5V240zm11.2 0h7.5v7.5h-7.5V240zm11.2 0h7.5v7.5h-7.5V240zm11.3 0h7.5v7.5h-7.5V240zm11.2 0h7.5v7.5h-7.5V240zm11.3 0h7.5v7.5h-7.5V240zm11.2 0h7.5v7.5h-7.5V240zm11.3 0h7.5v7.5h-7.5V240zm11.2 0h7.5v7.5h-7.5V240zm11.3 0h7.5v7.5h-7.5V240zm11.2 0h7.5v7.5h-7.5V240zm11.3 0h7.5v7.5h-7.5V240zm11.2 0h7.5v7.5h-7.5V240zm11.3 0h7.5v7.5h-7.5V240zm11.2 0h7.5v7.5h-7.5V240zm11.3 0h7.5v7.5h-7.5V240zm11.2 0h7.5v7.5h-7.5V240zm11.3 0h7.5v7.5h-7.5V240zM62.3 251.3h7.5v7.5h-7.5v-7.5zm11.3 0h7.5v7.5h-7.5v-7.5zm11.2 0h7.5v7.5h-7.5v-7.5zm11.3 0h7.5v7.5h-7.5v-7.5zm11.2 0h7.5v7.5h-7.5v-7.5zm11.3 0h7.5v7.5h-7.5v-7.5zm11.2 0h7.5v7.5h-7.5v-7.5zm11.3 0h7.5v7.5h-7.5v-7.5zm11.2 0h7.5v7.5h-7.5v-7.5zm11.3 0h7.5v7.5h-7.5v-7.5zm11.2 0h7.5v7.5h-7.5v-7.5zm11.3 0h7.5v7.5h-7.5v-7.5zm11.2 0h7.5v7.5h-7.5v-7.5zm11.3 0h7.5v7.5h-7.5v-7.5zm11.3 0h7.5v7.5h-7.5v-7.5zm11.2 0h7.5v7.5h-7.5v-7.5zm11.2 0h7.5v7.5h-7.5v-7.5zm11.3 0h7.5v7.5h-7.5v-7.5zm11.2 0h7.5v7.5h-7.5v-7.5zm11.3 0h7.5v7.5h-7.5v-7.5zm11.2 0h7.5v7.5h-7.5v-7.5zm11.3 0h7.5v7.5h-7.5v-7.5zm11.2 0h7.5v7.5h-7.5v-7.5zm11.3 0h7.5v7.5h-7.5v-7.5zm11.2 0h7.5v7.5h-7.5v-7.5zm11.3 0h7.5v7.5h-7.5v-7.5zm11.2 0h7.5v7.5h-7.5v-7.5zm11.3 0h7.5v7.5h-7.5v-7.5zm11.2 0h7.5v7.5h-7.5v-7.5zm11.3 0h7.5v7.5h-7.5v-7.5zm11.2 0h7.5v7.5h-7.5v-7.5zm11.3 0h7.5v7.5h-7.5v-7.5z"/><path class="st4" d="M54.3 47.2h3.5v8.4h-3.5v-8.4z"/><text transform="translate(54.312 55.376)" class="st5 st6">1</text><path class="st4" d="M54.4 58.5h3.5v8.4h-3.5v-8.4z"/><text transform="translate(54.405 66.626)" class="st5 st6">2</text><path class="st4" d="M54.4 69.7h3.5v8.4h-3.5v-8.4z"/><text transform="translate(54.405 77.877)" class="st5 st6">3</text><path class="st4" d="M54.4 81h3.5v8.4h-3.5V81z"/><text transform="translate(54.405 89.128)" class="st5 st6">4</text><path class="st4" d="M54.4 92.2h3.5v8.4h-3.5v-8.4z"/><text transform="translate(54.405 100.378)" class="st5 st6">5</text><path class="st4" d="M54.4 103.5h3.5v8.4h-3.5v-8.4z"/><text transform="translate(54.405 111.628)" class="st5 st6">6</text><path class="st4" d="M54.4 114.7h3.5v8.4h-3.5v-8.4z"/><text transform="translate(54.405 122.879)" class="st5 st6">7</text><path class="st4" d="M54.4 126h3.5v8.4h-3.5V126z"/><text transform="translate(54.405 134.13)" class="st5 st6">8</text><path class="st4" d="M54.4 137.2h3.5v8.4h-3.5v-8.4z"/><text transform="translate(54.405 145.38)" class="st5 st6">9</text><path class="st4" d="M51.2 148.2h6.9v8.4h-6.9v-8.4z"/><text transform="translate(51.202 156.342)" class="st5 st6">10</text><path class="st4" d="M51.6 159.4h6.5v8.4h-6.5v-8.4z"/><text transform="translate(51.6 167.58)" class="st5 st6">1</text><text transform="translate(54.6 167.58)" class="st5 st6">1</text><path class="st4" d="M51.2 170.7h6.9v8.4h-6.9v-8.4z"/><text transform="translate(51.202 178.816)" class="st5 st6">12</text><path class="st4" d="M51.2 182.7h6.9v8.4h-6.9v-8.4z"/><text transform="translate(51.202 190.864)" class="st5 st6">13</text><path class="st4" d="M51.2 194h6.9v8.4h-6.9V194z"/><text transform="translate(51.202 202.114)" class="st5 st6">14</text><path class="st4" d="M51.2 205.2h6.9v8.4h-6.9v-8.4z"/><text transform="translate(51.202 213.365)" class="st5 st6">15</text><path class="st4" d="M51.2 216.5h6.9v8.4h-6.9v-8.4z"/><text transform="translate(51.202 224.616)" class="st5 st6">16</text><path class="st4" d="M51.2 227.7h6.9v8.4h-6.9v-8.4z"/><text transform="translate(51.202 235.866)" class="st5 st6">17</text><path class="st4" d="M51.2 239h6.9v8.4h-6.9V239z"/><text transform="translate(51.202 247.117)" class="st5 st6">18</text><path class="st4" d="M51.2 250.2h6.9v8.4h-6.9v-8.4z"/><text transform="translate(51.202 258.368)" class="st5 st6">19</text><path class="st7" d="M62.3 262.5h7.5v7.5h-7.5v-7.5zm11.3 0h7.5v7.5h-7.5v-7.5zm11.2 0h7.5v7.5h-7.5v-7.5zm11.3 0h7.5v7.5h-7.5v-7.5zm11.2 0h7.5v7.5h-7.5v-7.5zm11.3 0h7.5v7.5h-7.5v-7.5zm11.2 0h7.5v7.5h-7.5v-7.5zm11.3 0h7.5v7.5h-7.5v-7.5zm11.2 0h7.5v7.5h-7.5v-7.5zm11.3 0h7.5v7.5h-7.5v-7.5zm11.2 0h7.5v7.5h-7.5v-7.5zm11.3 0h7.5v7.5h-7.5v-7.5zm11.2 0h7.5v7.5h-7.5v-7.5zm11.3 0h7.5v7.5h-7.5v-7.5zm11.3 0h7.5v7.5h-7.5v-7.5zm11.2 0h7.5v7.5h-7.5v-7.5zm11.2 0h7.5v7.5h-7.5v-7.5zm11.3 0h7.5v7.5h-7.5v-7.5zm11.2 0h7.5v7.5h-7.5v-7.5zm11.3 0h7.5v7.5h-7.5v-7.5zm11.2 0h7.5v7.5h-7.5v-7.5zm11.3 0h7.5v7.5h-7.5v-7.5zm11.2 0h7.5v7.5h-7.5v-7.5zm11.3 0h7.5v7.5h-7.5v-7.5zm11.2 0h7.5v7.5h-7.5v-7.5zm11.3 0h7.5v7.5h-7.5v-7.5zm11.2 0h7.5v7.5h-7.5v-7.5zm11.3 0h7.5v7.5h-7.5v-7.5zm11.2 0h7.5v7.5h-7.5v-7.5zm11.3 0h7.5v7.5h-7.5v-7.5zm11.2 0h7.5v7.5h-7.5v-7.5zm11.3 0h7.5v7.5h-7.5v-7.5z"/><path d="M47.4 272.5h373.1V32h-3.7L413 75.7l3.8 43.1-3.8 90 1.9 56.2-46.9-1.9-75 3.8-82.4-3.8L77.4 265l-30.2-.6.2 8.1z" fill-rule="evenodd" clip-rule="evenodd" fill="#fff"/><path d="M47.2 264.6l30.2.4 131.3-1.9 84.3 3.8 75-3.8 46.9 1.9-1.9-56.2 3.8-90-3.8-43.1 3.4-40" fill="none" stroke="#fff" stroke-width=".5" stroke-miterlimit="3.864"/><path d="M420.5 114.5H21.1m399.4 67.4H21.1m196.8-137v273.7m56.3-273.7v273.7" fill="none" stroke="#000" stroke-miterlimit="3.864"/><path class="st11" d="M222 304.9h48.2"/><path d="M224.1 303.2v3.5l-6.2-1.7 6.2-1.8zm43.9 0v3.5l6.2-1.7-6.2-1.8z"/><path class="st11" d="M27.1 156.6v20.9"/><path d="M28.8 121h-3.5l1.7-6.2 1.8 6.2zm0 54.6h-3.5l1.7 6.2 1.8-6.2z"/><path class="st12" d="M444.9 137.2H246.1"/><text transform="translate(453.72 139.883)" class="st14" font-family="Arial-BoldMT">Auto function ROI</text><text transform="translate(22.65 41.289)" class="st5 st14">Row</text><text transform="translate(12.636 152.372)" class="st5 st14">Height</text><path class="st12" d="M444.9 203.9H248.3"/><text transform="translate(453.704 206.561)" class="st5 st14">Image ROI</text><text transform="translate(159.835 294.691)" class="st5 st14">Offset X</text><text transform="translate(5.003 93.79)" class="st5 st14">Offset Y</text><text transform="translate(232.025 318.614)" class="st5 st14">Width</text><path class="st11" d="M27 117.9v22.7"/><path d="M51.6 121h-7.3L31.5 99.7m192.1 166.6l-11.3 25.2h-7.5" fill="none" stroke="#000" stroke-width=".709" stroke-miterlimit="3.864"/><text transform="translate(56.12 18.688)" class="st5 st14">Column</text></svg>