<svg version="1.0" xmlns="http://www.w3.org/2000/svg" viewBox="0 0 520 315"><path fill="none" stroke="#1E1F1D" stroke-width=".227" stroke-miterlimit="10" d="M57.8 75.3h439.6M57.7 99.8h439.7M57.8 124.3h440M57.9 148.9h439.6M57.8 173.4h439.8M57.9 197.9h439.6M57.8 222.4h439.7M57.9 246.9H497M57.9 50.7h439.6M93.9 26v245.2M130.7 26v245.3m36.7-245.1v245.2M204 26.6v244.8m36.8-245.9v245.9m73.3-245.8v245.7M350.8 26v245.3M387.5 26v245.3m36.7-244.6v244.5M460.9 26v245.2m-183.5-245v245.2"/><path fill="none" stroke="#1E1F1D" stroke-width=".709" stroke-miterlimit="10" d="M57.8 26h439.8v245.3H57.8z"/><g clip-rule="evenodd"><path fill-rule="evenodd" d="M387 60.9h97.9v57.5H387z"/><path fill="none" stroke="#000" stroke-width="1.117" stroke-miterlimit="3.864" d="M387 60.9h97.9v57.5H387z"/><path fill-rule="evenodd" fill="#FFF" d="M384 58.2h97.9v57.5H384z"/><path fill="none" stroke="#000" stroke-width="1.117" stroke-miterlimit="3.864" d="M384 58.2h97.9v57.5H384z"/><path fill="none" stroke="#2A4B9B" stroke-miterlimit="3.864" stroke-dasharray="12,2,2,2" d="M392.9 70.4h35.3"/><path fill="none" stroke="#66B32E" stroke-miterlimit="3.864" stroke-dasharray="2,2" d="M392.9 88.6h35.3"/><path fill="none" stroke="#E52420" stroke-miterlimit="3.864" stroke-dasharray="72" d="M392.9 106.9h35.3"/></g><g font-family="Helvetica,Arial,sans-serif"><text transform="translate(222.69 305.997)" fill="#010202" font-size="12">Wavelength (nm)</text><text transform="rotate(-90 115.32 92.73)" fill="#1E1E1C" font-size="12">Relative Response</text><text transform="translate(41.233 224.097)" font-size="8">0.2</text><text transform="translate(41.197 177.835)" font-size="8">0.4</text><text transform="translate(41.211 127.007)" font-size="8">0.6</text><text transform="translate(41.088 78.603)" font-size="8">0.8</text><text transform="translate(41.22 28.85)" font-size="8">1.0</text><text transform="translate(49.823 284.94)" font-size="8">400</text><text transform="translate(124.414 284.98)" font-size="8">500</text><text transform="translate(197.83 284.916)" font-size="8">600</text><text transform="translate(270.18 285.034)" font-size="8">700</text><text transform="translate(343.552 284.997)" font-size="8">800</text><text transform="translate(416.748 284.956)" font-size="8">900</text><text transform="translate(488.666 285.058)" font-size="8">1000</text><text transform="translate(42.349 272.718)" font-size="8">0.0</text><text transform="translate(435.947 109.205)" fill="#1E1E1C" font-size="12">Red</text><text transform="translate(435.947 92.454)" fill="#1E1E1C" font-size="12">Green</text><text transform="translate(435.947 74.157)" fill="#1E1E1C" font-size="12">Blue</text></g><g fill="none" stroke-miterlimit="10"><path stroke="#6CB330" stroke-width="1.001" stroke-dasharray="2.0013,2,2,2" d="M57.9 257.7s6 2.3 9.6 3.2c3.6.8 6.3 1.3 7.9 1.3 1.5 0 5.4.1 10-1.2s6.5-2.1 8.5-3.5 4.6-5.1 5.4-7.6c.8-2.4 2.1-5.5 3.4-11.6 1.3-6 2.5-12.5 3.2-17.6.7-5.1 2.9-22 3.2-24.9.3-2.9 3.7-32 4-34.8l4.1-36.9c.3-2.7 2.7-22.2 3.3-26.5.6-4.3 2.9-18.4 3.8-23.1.9-4.7 4.8-19.1 6.4-23.8 1.6-4.7 2.1-6.6 3.2-8.9 1.1-2.4 4.4-7.2 5.8-8.4 1.5-1.3 5.4-6.1 6.9-6.6s2.6-.4 3.5-.4c.9 0 4.2 0 6.7 1.4 2.4 1.4 4.2 2.6 5.6 4.5 1.4 2 10.7 15.8 12.2 18.5 1.5 2.7 8.5 16.3 9.9 19.8 1.4 3.5 7.7 23.8 8.7 28.4 1 4.7 6.7 30.9 7.9 37 1.2 6.1 5.2 26 5.7 28.4.5 2.4 2.9 13.1 3.8 16.5.8 3.5 6.6 23.3 7.3 25.5.7 2.2 3.5 8.9 4.6 10.7 1.1 1.8 8.2 11.6 10.7 13.3 2.5 1.7 7 5.7 9 6.2s3.4.5 4 .5c.6 0 2.6-.1 3.7-.8 1.1-.7 8.5-7 14.6-15.8 6-8.8 9.9-13.7 11.4-15.1 1.4-1.4 4.9-5.8 9.6-5.8 4.6-.1 7.2 1.6 8.3 2.2 1.1.6 4.6 1.7 6.5 1.6 1.9-.1 4.6-.7 9.9-4.2 5.3-3.6 11.6-6.1 13.2-6.5 1.6-.4 7.7-2.4 9.2-2.9 1.5-.5 8.4-2.7 10.9-3 2.5-.3 11.9-.3 12.9-.3 1.1 0 9.5-.6 11.9.4 2.4 1 8.8 2.1 16.5 8.4 7.6 6.3 11.7 9.6 13.5 10.6 1.8 1 8.3 3.8 11.8 6.4 3.4 2.6 11.5 8.6 14.6 11.2 3.1 2.6 18.9 11.9 21.2 13 2.3 1.1 11.4 5 13.9 6.3 5.2 2.7 22.1 11 22.7 11.2 3.4 1.4 14.1 4.7 15 4.9"/><path stroke="#E52822" d="M497.5 257.6s-7.3-2.3-9.1-2.7c-1.8-.5-7.5-2.9-9-3.4s-16.4-8.5-18-9.2c-1.6-.7-8.5-4.4-9.3-4.8-.8-.4-11.2-6-12.6-6.7-1.4-.7-12.5-7.1-13.7-8.1-1.2-1-7.1-6.2-8.9-7.3-1.8-1.1-7.9-5.4-8.8-6-.9-.6-8.5-5.5-10.3-6.8-1.8-1.3-16-14.5-17.1-15.9-1.2-1.4-6.8-5.9-8.7-7.3-1.8-1.4-10-6.3-11-6.9-1-.6-4.9-4-6-4.8-1.1-.8-8.6-10.4-9.9-11.7-1.2-1.3-7.5-7.9-7.6-8.2-.1-.3-12.8-12.3-13.8-13.4-1-1.1-6.6-7.3-7.5-8.4-.9-1.1-7.2-6.4-9.3-8.2-2.1-1.8-5.2-3.5-6.9-4.7-.8-.5-1.2-.9-4.5-1.6-2.3-.5-3.2-1.6-5.9-2-2.1-.3-6.3.1-6.3.1s-4.9.3-7.5 0c-2.7-.3-2.7-.8-3.2-1.2-.5-.4-6.4-6.9-7.1-7.9-.7-1-5.5-7.8-6-8.4-.6-.7-3.5-5.1-4.6-6.3-1.1-1.2-7.4-7.2-8.3-8.2-.8-1-4.8-5.5-5.2-6.1-.4-.5-9.8-10.5-10.2-10.9-.4-.4-3.2-2.5-4.6-3.3-1.4-.8-2.9-1-4.8-1.6-1.9-.7-6-1.8-8.1-2-2.1-.2-4.4-.1-6.6-.2-2.2-.1-3.1.7-3.1.7h.1c-1.7 1.1-3.3 3.9-3.8 4.8-.5.8-1.6 4.5-2.2 7.2-.6 2.7-2.2 11.7-2.4 13.3-.2 1.6-2 16.8-2.3 19.7-.3 3-2 20.3-2.3 24.2-.3 3.9-3.1 31-3.3 33.7-.2 2.7-3 30.6-3.4 36-.5 5.4-2.7 27.7-3.1 31.9-.4 4.2-2.2 15.4-2.5 18.1-.3 2.7-2 8.9-2.2 9.9-.2 1-1.1 3.2-1.4 4.2-.2 1-2.2 2.7-2.2 2.7-.3.4-.6 1.1-4.6 1-4-.1-7.9-3.4-9.4-4.7-1.5-1.3-4.7-4.7-9.9-4.7-5.2.1-6.5 2.7-10.3 5.5-3.8 2.7-7.5 4.7-9 5.2s-11.8 1-13.2 1c-1.4 0-12.8.8-15.7.8-2.8 0-10.5-.2-14-1.1-3.5-.9-9.4-2.5-9.4-2.5-14.2-4.9-19.7-10-19.7-10"/><path stroke="#2A4B9A" stroke-width="1.001" stroke-dasharray="11.9991,2,2,2" d="M58 175.8s4.3-13.3 4.9-15.3c.6-1.9 7.7-21.1 8.1-22.3.5-1.2 9-23.2 9.9-25.3.8-2.1 5.9-12.9 6.6-14.2.8-1.4 4.6-7.4 5.5-8.3.9-1 3.3-3.9 4.2-4.5.9-.6 2.1-1.3 4-1.3s3.9.8 4.4 1c.5.2 2.3.7 3.2 1.7 1 1 3.4 4.3 4 5.8.6 1.5 5.1 11.9 5.7 13.6.6 1.7 5 15.3 5.5 17.3s3.5 13.8 4.1 15.7c.5 1.8 6.4 25.9 6.7 27.2.3 1.3 4.4 18 4.8 19.8.3 1.3 5.4 18.8 6.4 22.1.7 2.2 7.4 17.3 8 18.2.5.9 7.5 12.6 8.3 13.5.8.9 7.9 12.8 14.6 17.1 6.7 4.3 16.3 6.4 19 6.8 2.7.4 13.3 2.2 18.4 2.1 5.1-.2 12.1-1.8 13.3-2.1 1.2-.4 12.6-4.3 13.7-4.8 1.1-.6 11.8-5.7 28.4-5.7 0 0 6.6.2 9.3.7 2.6.6 8.4 2.6 9.7 3.3 1.4.6 6 2.9 8.1 3.3 2 .3 9.8 1.2 14.3 1.3 4.4.1 8.9.4 10.3.1 1.4-.3 5.7-2.4 6.9-3.7 1.1-1.4 3.8-3.7 4.9-6 1.1-2.2 6.3-13.7 9.8-24.8 3.5-11.1 5.9-18 6.6-20 .7-1.9 4-9.9 4.6-11.2.6-1.3 4.1-6.3 4.8-7.2.7-.9 4.4-4.3 7.8-4.2 3.4.1 7.6 2.2 8.8 2.9 1.2.7 7.8 4.5 10.3 6.5 2.4 2.1 13 9.9 14.5 10.7 1.4.8 15.4 9.5 22.8 15.3 7.4 5.8 19.1 12.4 21.5 13.5 2.3 1.1 14.8 7.5 17.6 8.7s16.1 9.1 17.7 9.6c1.7.6 15.8 5.3 17.7 5.6"/></g></svg>