<svg version="1.0" xmlns="http://www.w3.org/2000/svg" viewBox="0 0 520 300"><g clip-rule="evenodd" fill="none" stroke="#000" stroke-miterlimit="3.864"><path stroke-width=".227" d="M95.4 8.1v227.2"/><path stroke-width=".866" d="M62.2 9.1h405.4v225.4H62.2z"/><path stroke-width=".227" d="M129.1 7.8V235M163.4 8.1v227.2m33-226.9v227.3M230.7 8.1v227.2M264.4 9v227.3m34-227.9v227.3M332.3 8.6v227.2M366 8.3v227.2M400 7.7v227.2m33.3-226v227.2M60.3 33l406.2.3M60.2 58.1l406.2.3m-405 25.2l406.3.3M62 108.1l406.3.3M60.2 133.8l406.2.3m-405 24.2l406.3.3m-406.9 26l406.3.3M62.7 209.1l406.3.3"/></g><path d="M62.4 96.3l4.9-1.5 6.2-4.9 5.4-1.4 7.4.9h4.5l11.1-4.8 5.9 1.5 7.4-5.2 12.3 1.8 13.9-6.1 6.2 1.2 6.8 2.4 8 1.8 6.2.9 6.8 6.1 6.8-4.9 7.1 8.2 13-5.5 7.1 4.6 13.6-.6 7 8.2 6.8-1.2 7.7 4.3 6.8 7 5.9 9.5 6.8-1.8 4.6 4.9 4.3 4.6 5.2 8.9 3.7-.3 4.3-1.2 4.6-3.1 6.2-.3c1 .2 5.9 5.7 14.8 16.5l6.2.9 7.1 4.9 13.9 15.6 9.6 3.7 17.9 8.2 8 7.6 4.9 3.4 10.5 2.7 6.5 1.5 4.6 2.8 21.3 13.1-16.3-10m17 9.6l4 .6 7.7 3.7 13.3 4.6 20.4 7.6" clip-rule="evenodd" fill="none" stroke="#000" stroke-miterlimit="3.864"/><text transform="translate(224.73 288.808)" font-family="Helvetica,Arial,sans-serif" font-size="12">Wavelength (nm)</text><text transform="rotate(-90 108.485 84.397)" fill="#131718" font-family="Helvetica,Arial,sans-serif" font-size="12">Quantum Efficiency (%)</text><text transform="translate(49.686 234.066)" font-family="Helvetica,Arial,sans-serif" font-size="8">0</text><text transform="translate(45.232 210.4)" font-family="Helvetica,Arial,sans-serif" font-size="8">10</text><text transform="translate(45.232 185.9)" font-family="Helvetica,Arial,sans-serif" font-size="8">20</text><text transform="translate(45.232 159.9)" font-family="Helvetica,Arial,sans-serif" font-size="8">30</text><text transform="translate(45.232 136.9)" font-family="Helvetica,Arial,sans-serif" font-size="8">40</text><text transform="translate(45.232 110.4)" font-family="Helvetica,Arial,sans-serif" font-size="8">50</text><text transform="translate(45.232 85.4)" font-family="Helvetica,Arial,sans-serif" font-size="8">60</text><text transform="translate(45.232 60.4)" font-family="Helvetica,Arial,sans-serif" font-size="8">70</text><text transform="translate(45.232 35.15)" font-family="Helvetica,Arial,sans-serif" font-size="8">80</text><text transform="translate(45.232 12.585)" font-family="Helvetica,Arial,sans-serif" font-size="8">90</text><text transform="translate(55.116 249.15)" font-family="Helvetica,Arial,sans-serif" font-size="8">400</text><text transform="translate(122.219 249.15)" font-family="Helvetica,Arial,sans-serif" font-size="8">500</text><text transform="translate(189.719 249.15)" font-family="Helvetica,Arial,sans-serif" font-size="8">600</text><text transform="translate(255.72 249.15)" font-family="Helvetica,Arial,sans-serif" font-size="8">700</text><text transform="translate(323.72 249.15)" font-family="Helvetica,Arial,sans-serif" font-size="8">800</text><text transform="translate(393.72 249.15)" font-family="Helvetica,Arial,sans-serif" font-size="8">900</text><text transform="translate(459.72 249.15)" font-family="Helvetica,Arial,sans-serif" font-size="8">1000</text><text transform="translate(90.219 249.15)" font-family="Helvetica,Arial,sans-serif" font-size="8">450</text><text transform="translate(156.719 249.15)" font-family="Helvetica,Arial,sans-serif" font-size="8">550</text><text transform="translate(224.219 249.15)" font-family="Helvetica,Arial,sans-serif" font-size="8">650</text><text transform="translate(289.22 249.15)" font-family="Helvetica,Arial,sans-serif" font-size="8">750</text><text transform="translate(359.22 249.15)" font-family="Helvetica,Arial,sans-serif" font-size="8">850</text><text transform="translate(427.72 249.15)" font-family="Helvetica,Arial,sans-serif" font-size="8">950</text></svg>