<svg version="1.0" xmlns="http://www.w3.org/2000/svg" viewBox="0 0 550 270"><path fill="#5EC5ED" d="M441.5 206.4h7.8v3.8h-7.8v-3.8z"/><path fill="#5EC5ED" stroke="#000" stroke-width=".073" stroke-miterlimit="3.864" d="M441.5 206.4h7.8v3.8h-7.8v-3.8z"/><path fill="#020405" d="M447.6 221.5h1.7v3.9h-1.7v-3.9z"/><path fill="none" stroke="#020405" stroke-width=".073" stroke-miterlimit="3.864" d="M447.6 221.5h1.7v3.9h-1.7v-3.9z"/><g clip-rule="evenodd"><path fill-rule="evenodd" d="M532.1 185.7v-3.6l9 3.6-9 3.6z"/><path fill="none" stroke="#000" stroke-miterlimit="3.864" d="M58.9 185.7h473.8"/></g><path clip-rule="evenodd" fill="none" stroke="#000" stroke-width=".612" stroke-miterlimit="3.864" d="M58.9 29.4h45.6m0 0V17m0 0H162m0 12.4V17m0 12.4h102.8m.1 0V17m0 0h57.7m0 12.4V17m0 12.4h103m.1 0V17m.2 0h57.7m0 12.4V17m0 12.4h52"/><path fill="#C7CDD1" stroke="#000" stroke-width=".2" stroke-miterlimit="3.864" stroke-dasharray="1,1" d="M104.4 42.8H162v116.6h-57.6V42.8z"/><path fill="#5EC5ED" d="M104.6 47.8h57.3v3.8h-57.3v-3.8z"/><path fill="#5EC5ED" stroke="#000" stroke-width=".073" stroke-miterlimit="3.864" d="M104.6 47.8h57.3v3.8h-57.3v-3.8z"/><path fill="#5EC5ED" d="M104.5 67.1h63.3V71h-63.3v-3.9z"/><path fill="#5EC5ED" stroke="#000" stroke-width=".073" stroke-miterlimit="3.864" d="M104.5 67.1h63.3V71h-63.3v-3.9z"/><path fill="#5EC5ED" d="M104.6 138.2h90.3v3.9h-90.3v-3.9z"/><path fill="#5EC5ED" stroke="#000" stroke-width=".073" stroke-miterlimit="3.864" d="M104.6 138.2h90.3v3.9h-90.3v-3.9z"/><path fill="#5EC5ED" d="M104.6 144.7h92.3v3.9h-92.3v-3.9z"/><path fill="#5EC5ED" stroke="#000" stroke-width=".073" stroke-miterlimit="3.864" d="M104.6 144.7h92.3v3.9h-92.3v-3.9z"/><path fill="#5EC5ED" d="M104.6 151.1h94.6v3.9h-94.6v-3.9z"/><path fill="#5EC5ED" stroke="#000" stroke-width=".073" stroke-miterlimit="3.864" d="M104.6 151.1h94.6v3.9h-94.6v-3.9z"/><path fill="#020405" d="M194.9 138.2h1.7v3.9h-1.7v-3.9z"/><path fill="none" stroke="#020405" stroke-width=".073" stroke-miterlimit="3.864" d="M194.9 138.2h1.7v3.9h-1.7v-3.9z"/><path fill="#020405" d="M196.6 144.7h1.8v3.9h-1.8v-3.9z"/><path fill="none" stroke="#020405" stroke-width=".073" stroke-miterlimit="3.864" d="M196.6 144.7h1.8v3.9h-1.8v-3.9z"/><path fill="#020405" d="M198.4 151.1h1.7v3.9h-1.7v-3.9z"/><path fill="none" stroke="#020405" stroke-width=".073" stroke-miterlimit="3.864" d="M198.4 151.1h1.7v3.9h-1.7v-3.9z"/><path d="M112 119.5c0-.4.2-.6.4-.6s.4.3.4.6c0 .4-.2.6-.4.6s-.4-.3-.4-.6z"/><path fill="none" stroke="#000" stroke-width=".092" stroke-miterlimit="3.864" d="M112 119.5c0-.4.2-.6.4-.6s.4.3.4.6c0 .4-.2.6-.4.6s-.4-.3-.4-.6z"/><path d="M113.7 123.4c0-.4.2-.6.4-.6s.4.3.4.6c0 .4-.2.6-.4.6s-.4-.3-.4-.6z"/><path fill="none" stroke="#000" stroke-width=".092" stroke-miterlimit="3.864" d="M113.7 123.4c0-.4.2-.6.4-.6s.4.3.4.6c0 .4-.2.6-.4.6s-.4-.3-.4-.6z"/><path d="M115.5 127.2c0-.4.2-.6.4-.6s.4.3.4.6c0 .4-.2.6-.4.6-.2.1-.4-.2-.4-.6z"/><path fill="none" stroke="#000" stroke-width=".092" stroke-miterlimit="3.864" d="M115.5 127.2c0-.4.2-.6.4-.6s.4.3.4.6c0 .4-.2.6-.4.6-.2.1-.4-.2-.4-.6z"/><path d="M117.2 131.1c0-.4.2-.6.4-.6s.4.3.4.6c0 .4-.2.6-.4.6-.2.1-.4-.2-.4-.6z"/><path fill="none" stroke="#000" stroke-width=".092" stroke-miterlimit="3.864" d="M117.2 131.1c0-.4.2-.6.4-.6s.4.3.4.6c0 .4-.2.6-.4.6-.2.1-.4-.2-.4-.6z"/><path d="M118.9 135c0-.4.2-.6.4-.6s.4.3.4.6c0 .4-.2.6-.4.6s-.4-.3-.4-.6z"/><path fill="none" stroke="#000" stroke-width=".092" stroke-miterlimit="3.864" d="M118.9 135c0-.4.2-.6.4-.6s.4.3.4.6c0 .4-.2.6-.4.6s-.4-.3-.4-.6z"/><path d="M160.3 119.5c0-.4.2-.6.4-.6s.4.3.4.6c0 .4-.2.6-.4.6s-.4-.3-.4-.6z"/><path fill="none" stroke="#000" stroke-width=".092" stroke-miterlimit="3.864" d="M160.3 119.5c0-.4.2-.6.4-.6s.4.3.4.6c0 .4-.2.6-.4.6s-.4-.3-.4-.6z"/><path d="M162 123.4c0-.4.2-.6.4-.6s.4.3.4.6c0 .4-.2.6-.4.6s-.4-.3-.4-.6z"/><path fill="none" stroke="#000" stroke-width=".092" stroke-miterlimit="3.864" d="M162 123.4c0-.4.2-.6.4-.6s.4.3.4.6c0 .4-.2.6-.4.6s-.4-.3-.4-.6z"/><path d="M163.7 127.2c0-.4.2-.6.4-.6s.4.3.4.6c0 .4-.2.6-.4.6-.2.1-.4-.2-.4-.6z"/><path fill="none" stroke="#000" stroke-width=".092" stroke-miterlimit="3.864" d="M163.7 127.2c0-.4.2-.6.4-.6s.4.3.4.6c0 .4-.2.6-.4.6-.2.1-.4-.2-.4-.6z"/><path d="M165.4 131.1c0-.4.2-.6.4-.6s.4.3.4.6c0 .4-.2.6-.4.6-.2.1-.4-.2-.4-.6z"/><path fill="none" stroke="#000" stroke-width=".092" stroke-miterlimit="3.864" d="M165.4 131.1c0-.4.2-.6.4-.6s.4.3.4.6c0 .4-.2.6-.4.6-.2.1-.4-.2-.4-.6z"/><path d="M167.2 135c0-.4.2-.6.4-.6s.4.3.4.6c0 .4-.2.6-.4.6-.3 0-.4-.3-.4-.6z"/><path fill="none" stroke="#000" stroke-width=".092" stroke-miterlimit="3.864" d="M167.2 135c0-.4.2-.6.4-.6s.4.3.4.6c0 .4-.2.6-.4.6-.3 0-.4-.3-.4-.6z"/><path fill="#5EC5ED" d="M104.6 54.3h59.1v3.8h-59.1v-3.8z"/><path fill="#5EC5ED" stroke="#000" stroke-width=".073" stroke-miterlimit="3.864" d="M104.6 54.3h59.1v3.8h-59.1v-3.8z"/><g fill="#5EC5ED"><path d="M104.6 60.5h60.8v3.9h-60.8v-3.9z"/><path stroke="#000" stroke-width=".073" stroke-miterlimit="3.864" d="M104.6 60.5h60.8v3.9h-60.8v-3.9z"/></g><g fill="#5EC5ED"><path d="M104.6 73.5h65.2v3.9h-65.2v-3.9z"/><path stroke="#000" stroke-width=".073" stroke-miterlimit="3.864" d="M104.6 73.5h65.2v3.9h-65.2v-3.9z"/></g><g fill="#5EC5ED"><path d="M104.5 80h67v3.9h-67V80z"/><path stroke="#000" stroke-width=".073" stroke-miterlimit="3.864" d="M104.5 80h67v3.9h-67V80z"/></g><g fill="#5EC5ED"><path d="M104.6 86.5h67.7v3.9h-67.7v-3.9z"/><path stroke="#000" stroke-width=".073" stroke-miterlimit="3.864" d="M104.6 86.5h67.7v3.9h-67.7v-3.9z"/></g><g fill="#5EC5ED"><path d="M104.5 105.9h73v3.9h-73v-3.9z"/><path stroke="#000" stroke-width=".073" stroke-miterlimit="3.864" d="M104.5 105.9h73v3.9h-73v-3.9z"/></g><g fill="#5EC5ED"><path d="M104.6 93h70.3v3.9h-70.3V93z"/><path stroke="#000" stroke-width=".073" stroke-miterlimit="3.864" d="M104.6 93h70.3v3.9h-70.3V93z"/></g><g fill="#5EC5ED"><path d="M104.6 99.3h71.2v3.8h-71.2v-3.8z"/><path stroke="#000" stroke-width=".073" stroke-miterlimit="3.864" d="M104.6 99.3h71.2v3.8h-71.2v-3.8z"/></g><g fill="#5EC5ED"><path d="M104.6 112.3h74.6v3.8h-74.6v-3.8z"/><path stroke="#000" stroke-width=".073" stroke-miterlimit="3.864" d="M104.6 112.3h74.6v3.8h-74.6v-3.8z"/></g><path fill="#020405" d="M162 47.8h1.7v3.8H162v-3.8z"/><path fill="none" stroke="#020405" stroke-width=".073" stroke-miterlimit="3.864" d="M162 47.8h1.7v3.8H162v-3.8z"/><path fill="#020405" d="M163.7 54.3h1.7v3.8h-1.7v-3.8z"/><path fill="none" stroke="#020405" stroke-width=".073" stroke-miterlimit="3.864" d="M163.7 54.3h1.7v3.8h-1.7v-3.8z"/><path fill="#020405" d="M165.4 60.5h1.8v3.9h-1.8v-3.9z"/><path fill="none" stroke="#020405" stroke-width=".073" stroke-miterlimit="3.864" d="M165.4 60.5h1.8v3.9h-1.8v-3.9z"/><path fill="#020405" d="M167.2 67.1h1.7V71h-1.7v-3.9z"/><path fill="none" stroke="#020405" stroke-width=".073" stroke-miterlimit="3.864" d="M167.2 67.1h1.7V71h-1.7v-3.9z"/><path fill="#020405" d="M168.9 73.5h1.7v3.9h-1.7v-3.9z"/><path fill="none" stroke="#020405" stroke-width=".073" stroke-miterlimit="3.864" d="M168.9 73.5h1.7v3.9h-1.7v-3.9z"/><path fill="#020405" d="M170.6 80h1.7v3.9h-1.7V80z"/><path fill="none" stroke="#020405" stroke-width=".073" stroke-miterlimit="3.864" d="M170.6 80h1.7v3.9h-1.7V80z"/><path fill="#020405" d="M172.3 86.5h1.8v3.9h-1.8v-3.9z"/><path fill="none" stroke="#020405" stroke-width=".073" stroke-miterlimit="3.864" d="M172.3 86.5h1.8v3.9h-1.8v-3.9z"/><path fill="#020405" d="M174.1 93h1.7v3.9h-1.7V93z"/><path fill="none" stroke="#020405" stroke-width=".073" stroke-miterlimit="3.864" d="M174.1 93h1.7v3.9h-1.7V93z"/><path fill="#020405" d="M175.8 99.3h1.7v3.8h-1.7v-3.8z"/><path fill="none" stroke="#020405" stroke-width=".073" stroke-miterlimit="3.864" d="M175.8 99.3h1.7v3.8h-1.7v-3.8z"/><path fill="#020405" d="M177.5 105.9h1.7v3.9h-1.7v-3.9z"/><path fill="none" stroke="#020405" stroke-width=".073" stroke-miterlimit="3.864" d="M177.5 105.9h1.7v3.9h-1.7v-3.9z"/><path fill="#020405" d="M179.2 112.3h1.8v3.8h-1.8v-3.8z"/><path fill="none" stroke="#020405" stroke-width=".073" stroke-miterlimit="3.864" d="M179.2 112.3h1.8v3.8h-1.8v-3.8z"/><path fill="#C7CDD1" stroke="#000" stroke-width=".2" stroke-miterlimit="3.864" stroke-dasharray="1,1" d="M265.1 43h57.6v116.6h-57.6V43z"/><path fill="#5EC5ED" d="M265.3 48h57.4v3.8h-57.4V48z"/><path fill="#5EC5ED" stroke="#000" stroke-width=".073" stroke-miterlimit="3.864" d="M265.3 48h57.4v3.8h-57.4V48z"/><path fill="#5EC5ED" d="M265.3 67.3h63.2v3.9h-63.2v-3.9z"/><path fill="#5EC5ED" stroke="#000" stroke-width=".073" stroke-miterlimit="3.864" d="M265.3 67.3h63.2v3.9h-63.2v-3.9z"/><path fill="#5EC5ED" d="M265.4 138.4h90.2v3.9h-90.2v-3.9z"/><path fill="#5EC5ED" stroke="#000" stroke-width=".073" stroke-miterlimit="3.864" d="M265.4 138.4h90.2v3.9h-90.2v-3.9z"/><path fill="#5EC5ED" d="M265.4 144.9h92.2v3.8h-92.2v-3.8z"/><path fill="#5EC5ED" stroke="#000" stroke-width=".073" stroke-miterlimit="3.864" d="M265.4 144.9h92.2v3.8h-92.2v-3.8z"/><path fill="#5EC5ED" d="M265.4 151.3h94.5v3.9h-94.5v-3.9z"/><path fill="#5EC5ED" stroke="#000" stroke-width=".073" stroke-miterlimit="3.864" d="M265.4 151.3h94.5v3.9h-94.5v-3.9z"/><path fill="#020405" d="M355.6 138.4h1.8v3.9h-1.8v-3.9z"/><path fill="none" stroke="#020405" stroke-width=".073" stroke-miterlimit="3.864" d="M355.6 138.4h1.8v3.9h-1.8v-3.9z"/><path fill="#020405" d="M357.4 144.9h1.7v3.8h-1.7v-3.8z"/><path fill="none" stroke="#020405" stroke-width=".073" stroke-miterlimit="3.864" d="M357.4 144.9h1.7v3.8h-1.7v-3.8z"/><path fill="#020405" d="M359.1 151.3h1.7v3.9h-1.7v-3.9z"/><path fill="none" stroke="#020405" stroke-width=".073" stroke-miterlimit="3.864" d="M359.1 151.3h1.7v3.9h-1.7v-3.9z"/><path d="M272.7 119.7c0-.4.2-.6.4-.6s.4.3.4.6c0 .4-.2.6-.4.6s-.4-.3-.4-.6z"/><path fill="none" stroke="#000" stroke-width=".092" stroke-miterlimit="3.864" d="M272.7 119.7c0-.4.2-.6.4-.6s.4.3.4.6c0 .4-.2.6-.4.6s-.4-.3-.4-.6z"/><path d="M274.5 123.5c0-.4.2-.6.4-.6s.4.3.4.6c0 .4-.2.6-.4.6-.2.1-.4-.2-.4-.6z"/><path fill="none" stroke="#000" stroke-width=".092" stroke-miterlimit="3.864" d="M274.5 123.5c0-.4.2-.6.4-.6s.4.3.4.6c0 .4-.2.6-.4.6-.2.1-.4-.2-.4-.6z"/><path d="M276.2 127.4c0-.4.2-.6.4-.6s.4.3.4.6c0 .4-.2.6-.4.6-.2.1-.4-.2-.4-.6z"/><path fill="none" stroke="#000" stroke-width=".092" stroke-miterlimit="3.864" d="M276.2 127.4c0-.4.2-.6.4-.6s.4.3.4.6c0 .4-.2.6-.4.6-.2.1-.4-.2-.4-.6z"/><path d="M277.9 131.3c0-.4.2-.6.4-.6s.4.3.4.6c0 .4-.2.6-.4.6s-.4-.2-.4-.6z"/><path fill="none" stroke="#000" stroke-width=".092" stroke-miterlimit="3.864" d="M277.9 131.3c0-.4.2-.6.4-.6s.4.3.4.6c0 .4-.2.6-.4.6s-.4-.2-.4-.6z"/><path d="M279.6 135.2c0-.4.2-.6.4-.6s.4.3.4.6c0 .4-.2.6-.4.6s-.4-.3-.4-.6z"/><path fill="none" stroke="#000" stroke-width=".092" stroke-miterlimit="3.864" d="M279.6 135.2c0-.4.2-.6.4-.6s.4.3.4.6c0 .4-.2.6-.4.6s-.4-.3-.4-.6z"/><path d="M321 119.7c0-.4.2-.6.4-.6s.4.3.4.6c0 .4-.2.6-.4.6s-.4-.3-.4-.6z"/><path fill="none" stroke="#000" stroke-width=".092" stroke-miterlimit="3.864" d="M321 119.7c0-.4.2-.6.4-.6s.4.3.4.6c0 .4-.2.6-.4.6s-.4-.3-.4-.6z"/><path d="M322.7 123.5c0-.4.2-.6.4-.6s.4.3.4.6c0 .4-.2.6-.4.6-.2.1-.4-.2-.4-.6z"/><path fill="none" stroke="#000" stroke-width=".092" stroke-miterlimit="3.864" d="M322.7 123.5c0-.4.2-.6.4-.6s.4.3.4.6c0 .4-.2.6-.4.6-.2.1-.4-.2-.4-.6z"/><path d="M324.4 127.4c0-.4.2-.6.4-.6s.4.3.4.6c0 .4-.2.6-.4.6-.2.1-.4-.2-.4-.6z"/><path fill="none" stroke="#000" stroke-width=".092" stroke-miterlimit="3.864" d="M324.4 127.4c0-.4.2-.6.4-.6s.4.3.4.6c0 .4-.2.6-.4.6-.2.1-.4-.2-.4-.6z"/><path d="M326.2 131.3c0-.4.2-.6.4-.6s.4.3.4.6c0 .4-.2.6-.4.6-.3 0-.4-.2-.4-.6z"/><path fill="none" stroke="#000" stroke-width=".092" stroke-miterlimit="3.864" d="M326.2 131.3c0-.4.2-.6.4-.6s.4.3.4.6c0 .4-.2.6-.4.6-.3 0-.4-.2-.4-.6z"/><path d="M327.9 135.2c0-.4.2-.6.4-.6s.4.3.4.6c0 .4-.2.6-.4.6s-.4-.3-.4-.6z"/><path fill="none" stroke="#000" stroke-width=".092" stroke-miterlimit="3.864" d="M327.9 135.2c0-.4.2-.6.4-.6s.4.3.4.6c0 .4-.2.6-.4.6s-.4-.3-.4-.6z"/><path fill="#5EC5ED" d="M265.3 54.5h59.1v3.8h-59.1v-3.8z"/><path fill="#5EC5ED" stroke="#000" stroke-width=".073" stroke-miterlimit="3.864" d="M265.3 54.5h59.1v3.8h-59.1v-3.8z"/><g fill="#5EC5ED"><path d="M265.3 60.7h60.9v3.9h-60.9v-3.9z"/><path stroke="#000" stroke-width=".073" stroke-miterlimit="3.864" d="M265.3 60.7h60.9v3.9h-60.9v-3.9z"/></g><g fill="#5EC5ED"><path d="M265.4 73.7h65.1v3.9h-65.1v-3.9z"/><path stroke="#000" stroke-width=".073" stroke-miterlimit="3.864" d="M265.4 73.7h65.1v3.9h-65.1v-3.9z"/></g><g fill="#5EC5ED"><path d="M265.2 80.2h67v3.9h-67v-3.9z"/><path stroke="#000" stroke-width=".073" stroke-miterlimit="3.864" d="M265.2 80.2h67v3.9h-67v-3.9z"/></g><g fill="#5EC5ED"><path d="M265.3 86.7h67.8v3.9h-67.8v-3.9z"/><path stroke="#000" stroke-width=".073" stroke-miterlimit="3.864" d="M265.3 86.7h67.8v3.9h-67.8v-3.9z"/></g><g fill="#5EC5ED"><path d="M265.3 106.1h72.9v3.9h-72.9v-3.9z"/><path stroke="#000" stroke-width=".073" stroke-miterlimit="3.864" d="M265.3 106.1h72.9v3.9h-72.9v-3.9z"/></g><g fill="#5EC5ED"><path d="M265.3 93.2h70.3v3.9h-70.3v-3.9z"/><path stroke="#000" stroke-width=".073" stroke-miterlimit="3.864" d="M265.3 93.2h70.3v3.9h-70.3v-3.9z"/></g><g fill="#5EC5ED"><path d="M265.3 99.5h71.2v3.8h-71.2v-3.8z"/><path stroke="#000" stroke-width=".073" stroke-miterlimit="3.864" d="M265.3 99.5h71.2v3.8h-71.2v-3.8z"/></g><g fill="#5EC5ED"><path d="M265.4 112.5H340v3.8h-74.6v-3.8z"/><path stroke="#000" stroke-width=".073" stroke-miterlimit="3.864" d="M265.4 112.5H340v3.8h-74.6v-3.8z"/></g><path fill="#020405" d="M322.7 48h1.7v3.8h-1.7V48z"/><path fill="none" stroke="#020405" stroke-width=".073" stroke-miterlimit="3.864" d="M322.7 48h1.7v3.8h-1.7V48z"/><path fill="#020405" d="M324.4 54.5h1.8v3.8h-1.8v-3.8z"/><path fill="none" stroke="#020405" stroke-width=".073" stroke-miterlimit="3.864" d="M324.4 54.5h1.8v3.8h-1.8v-3.8z"/><path fill="#020405" d="M326.2 60.7h1.7v3.9h-1.7v-3.9z"/><path fill="none" stroke="#020405" stroke-width=".073" stroke-miterlimit="3.864" d="M326.2 60.7h1.7v3.9h-1.7v-3.9z"/><path fill="#020405" d="M327.9 67.3h1.7v3.9h-1.7v-3.9z"/><path fill="none" stroke="#020405" stroke-width=".073" stroke-miterlimit="3.864" d="M327.9 67.3h1.7v3.9h-1.7v-3.9z"/><path fill="#020405" d="M329.6 73.7h1.7v3.9h-1.7v-3.9z"/><path fill="none" stroke="#020405" stroke-width=".073" stroke-miterlimit="3.864" d="M329.6 73.7h1.7v3.9h-1.7v-3.9z"/><path fill="#020405" d="M331.3 80.2h1.8v3.9h-1.8v-3.9z"/><path fill="none" stroke="#020405" stroke-width=".073" stroke-miterlimit="3.864" d="M331.3 80.2h1.8v3.9h-1.8v-3.9z"/><path fill="#020405" d="M333.1 86.7h1.7v3.9h-1.7v-3.9z"/><path fill="none" stroke="#020405" stroke-width=".073" stroke-miterlimit="3.864" d="M333.1 86.7h1.7v3.9h-1.7v-3.9z"/><path fill="#020405" d="M334.8 93.2h1.7v3.9h-1.7v-3.9z"/><path fill="none" stroke="#020405" stroke-width=".073" stroke-miterlimit="3.864" d="M334.8 93.2h1.7v3.9h-1.7v-3.9z"/><path fill="#020405" d="M336.5 99.5h1.7v3.8h-1.7v-3.8z"/><path fill="none" stroke="#020405" stroke-width=".073" stroke-miterlimit="3.864" d="M336.5 99.5h1.7v3.8h-1.7v-3.8z"/><path fill="#020405" d="M338.2 106.1h1.8v3.9h-1.8v-3.9z"/><path fill="none" stroke="#020405" stroke-width=".073" stroke-miterlimit="3.864" d="M338.2 106.1h1.8v3.9h-1.8v-3.9z"/><path fill="#020405" d="M340 112.5h1.7v3.8H340v-3.8z"/><path fill="none" stroke="#020405" stroke-width=".073" stroke-miterlimit="3.864" d="M340 112.5h1.7v3.8H340v-3.8z"/><path fill="#C7CDD1" stroke="#000" stroke-width=".2" stroke-miterlimit="3.864" stroke-dasharray="1,1" d="M425.7 42.6h57.7v116.6h-57.7V42.6z"/><path fill="#5EC5ED" d="M426 47.6h57.3v3.9H426v-3.9z"/><path fill="#5EC5ED" stroke="#000" stroke-width=".073" stroke-miterlimit="3.864" d="M426 47.6h57.3v3.9H426v-3.9z"/><path fill="#5EC5ED" d="M425.9 67h63.2v3.8h-63.2V67z"/><path fill="#5EC5ED" stroke="#000" stroke-width=".073" stroke-miterlimit="3.864" d="M425.9 67h63.2v3.8h-63.2V67z"/><path fill="#5EC5ED" d="M426 138h90.2v3.9H426V138z"/><path fill="#5EC5ED" stroke="#000" stroke-width=".073" stroke-miterlimit="3.864" d="M426 138h90.2v3.9H426V138z"/><path fill="#5EC5ED" d="M426 144.5h92.2v3.9H426v-3.9z"/><path fill="#5EC5ED" stroke="#000" stroke-width=".073" stroke-miterlimit="3.864" d="M426 144.5h92.2v3.9H426v-3.9z"/><path fill="#5EC5ED" d="M426 151h94.6v3.8H426V151z"/><path fill="#5EC5ED" stroke="#000" stroke-width=".073" stroke-miterlimit="3.864" d="M426 151h94.6v3.8H426V151z"/><path fill="#020405" d="M516.3 138h1.7v3.9h-1.7V138z"/><path fill="none" stroke="#020405" stroke-width=".073" stroke-miterlimit="3.864" d="M516.3 138h1.7v3.9h-1.7V138z"/><path fill="#020405" d="M518 144.5h1.7v3.9H518v-3.9z"/><path fill="none" stroke="#020405" stroke-width=".073" stroke-miterlimit="3.864" d="M518 144.5h1.7v3.9H518v-3.9z"/><path fill="#020405" d="M519.7 151h1.8v3.8h-1.8V151z"/><path fill="none" stroke="#020405" stroke-width=".073" stroke-miterlimit="3.864" d="M519.7 151h1.8v3.8h-1.8V151z"/><path d="M433.4 119.3c0-.4.2-.6.4-.6s.4.3.4.6c0 .4-.2.6-.4.6s-.4-.2-.4-.6z"/><path fill="none" stroke="#000" stroke-width=".092" stroke-miterlimit="3.864" d="M433.4 119.3c0-.4.2-.6.4-.6s.4.3.4.6c0 .4-.2.6-.4.6s-.4-.2-.4-.6z"/><path d="M435.1 123.2c0-.4.2-.6.4-.6s.4.3.4.6c0 .4-.2.6-.4.6s-.4-.3-.4-.6z"/><path fill="none" stroke="#000" stroke-width=".092" stroke-miterlimit="3.864" d="M435.1 123.2c0-.4.2-.6.4-.6s.4.3.4.6c0 .4-.2.6-.4.6s-.4-.3-.4-.6z"/><path d="M436.8 127c0-.4.2-.6.4-.6s.4.3.4.6c0 .4-.2.6-.4.6-.2.1-.4-.2-.4-.6z"/><path fill="none" stroke="#000" stroke-width=".092" stroke-miterlimit="3.864" d="M436.8 127c0-.4.2-.6.4-.6s.4.3.4.6c0 .4-.2.6-.4.6-.2.1-.4-.2-.4-.6z"/><path d="M438.6 130.9c0-.4.2-.6.4-.6s.4.3.4.6c0 .4-.2.6-.4.6-.2.1-.4-.2-.4-.6z"/><path fill="none" stroke="#000" stroke-width=".092" stroke-miterlimit="3.864" d="M438.6 130.9c0-.4.2-.6.4-.6s.4.3.4.6c0 .4-.2.6-.4.6-.2.1-.4-.2-.4-.6z"/><path d="M440.3 134.8c0-.4.2-.6.4-.6s.4.3.4.6c0 .4-.2.6-.4.6s-.4-.2-.4-.6z"/><path fill="none" stroke="#000" stroke-width=".092" stroke-miterlimit="3.864" d="M440.3 134.8c0-.4.2-.6.4-.6s.4.3.4.6c0 .4-.2.6-.4.6s-.4-.2-.4-.6z"/><path d="M481.6 119.3c0-.4.2-.6.4-.6s.4.3.4.6c0 .4-.2.6-.4.6s-.4-.2-.4-.6z"/><path fill="none" stroke="#000" stroke-width=".092" stroke-miterlimit="3.864" d="M481.6 119.3c0-.4.2-.6.4-.6s.4.3.4.6c0 .4-.2.6-.4.6s-.4-.2-.4-.6z"/><path d="M483.4 123.2c0-.4.2-.6.4-.6s.4.3.4.6c0 .4-.2.6-.4.6s-.4-.3-.4-.6z"/><path fill="none" stroke="#000" stroke-width=".092" stroke-miterlimit="3.864" d="M483.4 123.2c0-.4.2-.6.4-.6s.4.3.4.6c0 .4-.2.6-.4.6s-.4-.3-.4-.6z"/><path d="M485.1 127c0-.4.2-.6.4-.6s.4.3.4.6c0 .4-.2.6-.4.6-.2.1-.4-.2-.4-.6z"/><path fill="none" stroke="#000" stroke-width=".092" stroke-miterlimit="3.864" d="M485.1 127c0-.4.2-.6.4-.6s.4.3.4.6c0 .4-.2.6-.4.6-.2.1-.4-.2-.4-.6z"/><path d="M486.8 130.9c0-.4.2-.6.4-.6s.4.3.4.6c0 .4-.2.6-.4.6-.2.1-.4-.2-.4-.6z"/><path fill="none" stroke="#000" stroke-width=".092" stroke-miterlimit="3.864" d="M486.8 130.9c0-.4.2-.6.4-.6s.4.3.4.6c0 .4-.2.6-.4.6-.2.1-.4-.2-.4-.6z"/><path d="M488.5 134.8c0-.4.2-.6.4-.6s.4.3.4.6c0 .4-.2.6-.4.6s-.4-.2-.4-.6z"/><path fill="none" stroke="#000" stroke-width=".092" stroke-miterlimit="3.864" d="M488.5 134.8c0-.4.2-.6.4-.6s.4.3.4.6c0 .4-.2.6-.4.6s-.4-.2-.4-.6z"/><path fill="#5EC5ED" d="M426 54.1h59.1V58H426v-3.9z"/><path fill="#5EC5ED" stroke="#000" stroke-width=".073" stroke-miterlimit="3.864" d="M426 54.1h59.1V58H426v-3.9z"/><g fill="#5EC5ED"><path d="M425.9 60.3h60.9v3.9h-60.9v-3.9z"/><path stroke="#000" stroke-width=".073" stroke-miterlimit="3.864" d="M425.9 60.3h60.9v3.9h-60.9v-3.9z"/></g><g fill="#5EC5ED"><path d="M426 73.3h65.1v3.9H426v-3.9z"/><path stroke="#000" stroke-width=".073" stroke-miterlimit="3.864" d="M426 73.3h65.1v3.9H426v-3.9z"/></g><g fill="#5EC5ED"><path d="M425.9 79.8h66.9v3.9h-66.9v-3.9z"/><path stroke="#000" stroke-width=".073" stroke-miterlimit="3.864" d="M425.9 79.8h66.9v3.9h-66.9v-3.9z"/></g><g fill="#5EC5ED"><path d="M426 86.3h67.7v3.9H426v-3.9z"/><path stroke="#000" stroke-width=".073" stroke-miterlimit="3.864" d="M426 86.3h67.7v3.9H426v-3.9z"/></g><g fill="#5EC5ED"><path d="M425.9 105.7h73v3.9h-73v-3.9z"/><path stroke="#000" stroke-width=".073" stroke-miterlimit="3.864" d="M425.9 105.7h73v3.9h-73v-3.9z"/></g><g fill="#5EC5ED"><path d="M426 92.8h70.3v3.9H426v-3.9z"/><path stroke="#000" stroke-width=".073" stroke-miterlimit="3.864" d="M426 92.8h70.3v3.9H426v-3.9z"/></g><g fill="#5EC5ED"><path d="M425.9 99.1h71.3v3.9h-71.3v-3.9z"/><path stroke="#000" stroke-width=".073" stroke-miterlimit="3.864" d="M425.9 99.1h71.3v3.9h-71.3v-3.9z"/></g><g fill="#5EC5ED"><path d="M426 112.1h74.6v3.9H426v-3.9z"/><path stroke="#000" stroke-width=".073" stroke-miterlimit="3.864" d="M426 112.1h74.6v3.9H426v-3.9z"/></g><path fill="#020405" d="M483.4 47.6h1.7v3.9h-1.7v-3.9z"/><path fill="none" stroke="#020405" stroke-width=".073" stroke-miterlimit="3.864" d="M483.4 47.6h1.7v3.9h-1.7v-3.9z"/><path fill="#020405" d="M485.1 54.1h1.7V58h-1.7v-3.9z"/><path fill="none" stroke="#020405" stroke-width=".073" stroke-miterlimit="3.864" d="M485.1 54.1h1.7V58h-1.7v-3.9z"/><path fill="#020405" d="M486.8 60.3h1.7v3.9h-1.7v-3.9z"/><path fill="none" stroke="#020405" stroke-width=".073" stroke-miterlimit="3.864" d="M486.8 60.3h1.7v3.9h-1.7v-3.9z"/><path fill="#020405" d="M488.5 67h1.8v3.8h-1.8V67z"/><path fill="none" stroke="#020405" stroke-width=".073" stroke-miterlimit="3.864" d="M488.5 67h1.8v3.8h-1.8V67z"/><path fill="#020405" d="M490.3 73.3h1.7v3.9h-1.7v-3.9z"/><path fill="none" stroke="#020405" stroke-width=".073" stroke-miterlimit="3.864" d="M490.3 73.3h1.7v3.9h-1.7v-3.9z"/><path fill="#020405" d="M492 79.8h1.7v3.9H492v-3.9z"/><path fill="none" stroke="#020405" stroke-width=".073" stroke-miterlimit="3.864" d="M492 79.8h1.7v3.9H492v-3.9z"/><path fill="#020405" d="M493.7 86.3h1.7v3.9h-1.7v-3.9z"/><path fill="none" stroke="#020405" stroke-width=".073" stroke-miterlimit="3.864" d="M493.7 86.3h1.7v3.9h-1.7v-3.9z"/><path fill="#020405" d="M495.4 92.8h1.8v3.9h-1.8v-3.9z"/><path fill="none" stroke="#020405" stroke-width=".073" stroke-miterlimit="3.864" d="M495.4 92.8h1.8v3.9h-1.8v-3.9z"/><path fill="#020405" d="M497.2 99.1h1.7v3.9h-1.7v-3.9z"/><path fill="none" stroke="#020405" stroke-width=".073" stroke-miterlimit="3.864" d="M497.2 99.1h1.7v3.9h-1.7v-3.9z"/><path fill="#020405" d="M498.9 105.7h1.7v3.9h-1.7v-3.9z"/><path fill="none" stroke="#020405" stroke-width=".073" stroke-miterlimit="3.864" d="M498.9 105.7h1.7v3.9h-1.7v-3.9z"/><path fill="#020405" d="M500.6 112.1h1.7v3.9h-1.7v-3.9z"/><path fill="none" stroke="#020405" stroke-width=".073" stroke-miterlimit="3.864" d="M500.6 112.1h1.7v3.9h-1.7v-3.9z"/><path fill="#C7CDD1" stroke="#000" stroke-width=".2" stroke-miterlimit="3.864" stroke-dasharray="1,1" d="M439.9 238.6h9.4v9.4h-9.4v-9.4z"/><text transform="translate(454.73 211.688)" font-family="Helvetica,Arial,sans-serif" font-size="11">= Exposure</text><text transform="translate(282.736 200.07)" font-family="Helvetica,Arial,sans-serif" font-size="11">Time</text><text transform="translate(10.5 21.536)"><tspan x="0" y="0" font-family="Helvetica,Arial,sans-serif" font-size="11">Flash Window </tspan><tspan x="0" y="13.2" font-family="Helvetica,Arial,sans-serif" font-size="11">signal</tspan></text><text transform="translate(81.873 173.658)" font-family="Helvetica,Arial,sans-serif" font-size="11">Frame acquisition N</text><text transform="translate(242.68 173.658)" font-family="Helvetica,Arial,sans-serif" font-size="11">Frame acquisition N+1</text><text transform="translate(403.486 173.658)" font-family="Helvetica,Arial,sans-serif" font-size="11">Frame acquisition N+2</text><text transform="translate(454.807 227.176)" font-family="Helvetica,Arial,sans-serif" font-size="11">= Readout</text><text transform="translate(454.73 246.414)" font-family="Helvetica,Arial,sans-serif" font-weight="bold" font-size="11">= Flash window</text></svg>