<svg version="1.0" xmlns="http://www.w3.org/2000/svg" viewBox="0 0 359 286"><text transform="matrix(1.0503 0 0 1 30.564 201.438)" fill="#1D1D1B" font-family="Helvetica,Arial,sans-serif" font-size="11.469">0.2</text><text transform="matrix(1.0503 0 0 1 30.52 157.554)" fill="#1D1D1B" font-family="Helvetica,Arial,sans-serif" font-size="11.469">0.4</text><text transform="matrix(1.0503 0 0 1 30.538 111.872)" fill="#1D1D1B" font-family="Helvetica,Arial,sans-serif" font-size="11.469">0.6</text><text transform="matrix(1.0503 0 0 1 30.39 65.532)" fill="#1D1D1B" font-family="Helvetica,Arial,sans-serif" font-size="11.469">0.8</text><text transform="matrix(1.0503 0 0 1 30.549 19.938)" fill="#1D1D1B" font-family="Helvetica,Arial,sans-serif" font-size="11.469">1.0</text><text transform="matrix(1.0503 0 0 1 45.434 259.749)" fill="#1D1D1B" font-family="Helvetica,Arial,sans-serif" font-size="11.469">400</text><text transform="matrix(1.0503 0 0 1 92.479 259.796)" fill="#1D1D1B" font-family="Helvetica,Arial,sans-serif" font-size="11.469">450</text><text transform="matrix(1.0503 0 0 1 140.982 259.723)" fill="#1D1D1B" font-family="Helvetica,Arial,sans-serif" font-size="11.469">500</text><text transform="matrix(1.0503 0 0 1 188.086 259.856)" fill="#1D1D1B" font-family="Helvetica,Arial,sans-serif" font-size="11.469">550</text><text transform="matrix(1.0503 0 0 1 235.517 259.815)" fill="#1D1D1B" font-family="Helvetica,Arial,sans-serif" font-size="11.469">600</text><text transform="matrix(1.0503 0 0 1 331 259.886)" fill="#1D1D1B" font-family="Helvetica,Arial,sans-serif" font-size="11.469">700</text><text transform="matrix(1.0503 0 0 1 31.908 246.879)" fill="#1D1D1B" font-family="Helvetica,Arial,sans-serif" font-size="11.469">0.0</text><text transform="matrix(0 -.9964 1 0 23.722 176.165)" font-family="Helvetica,Arial,sans-serif" font-size="10.902">Relative Response</text><text transform="matrix(1.0036 0 0 1 155.524 275.286)" font-family="Helvetica,Arial,sans-serif" font-size="10.863">Wavelength (nm)</text><text transform="matrix(1.0503 0 0 1 282.791 259.817)" fill="#1D1D1B" font-family="Helvetica,Arial,sans-serif" font-size="11.469">650</text><g fill="none" stroke-miterlimit="10"><path d="M55 61.3h285.1M55 84h285.1M55 106.7h285.3M55.1 129.4h285.1M55.1 152.1h285.1M55.1 174.9h285m-285 22.7h285.1M55.1 220.3h284.7M55.1 38.6h285.1M102.6 16.1v227.1m47.5-227.1v227.1m47.6-226.9v227m47.5-226.7v226.7m47.6-227.8v227.8" stroke="#1D1E1C" stroke-width=".227"/><path stroke="#1D1D1B" d="M54.6 16.3h286.2v226.3H54.6z"/></g><g clip-rule="evenodd"><path fill-rule="evenodd" fill="#1D1E1C" d="M261.4 118.7h77.7v53.2h-77.7z"/><path fill="none" stroke="#1D1E1C" stroke-width="1.117" stroke-miterlimit="3.864" d="M261.4 118.7h77.7v53.2h-77.7z"/><path fill-rule="evenodd" fill="#FFF" d="M260 116.1h77.7v53.2H260z"/><path fill="none" stroke="#1D1E1C" stroke-width="1.117" stroke-miterlimit="3.864" d="M259.8 116.1h77.7v53.2h-77.7z"/></g><path clip-rule="evenodd" fill="none" stroke="#294B9A" stroke-miterlimit="3.864" stroke-dasharray="12,2,2,2" d="M265.9 124.9h32.8"/><path clip-rule="evenodd" fill="none" stroke="#6CB330" stroke-miterlimit="3.864" stroke-dasharray="2,2" d="M265.9 141.9h32.8"/><path clip-rule="evenodd" fill="none" stroke="#E42621" stroke-miterlimit="3.864" d="M265.9 158.8h32.8"/><text transform="matrix(1.0036 0 0 1 309.057 127.53)" font-family="Helvetica,Arial,sans-serif" font-size="9.505">Blue</text><text transform="matrix(1.0036 0 0 1 308.799 144.576)" font-family="Helvetica,Arial,sans-serif" font-size="9.504">Green</text><text transform="matrix(1.0036 0 0 1 309.057 161.355)" font-family="Helvetica,Arial,sans-serif" font-size="9.504">Red</text><g clip-rule="evenodd" fill="none" stroke-miterlimit="3.864"><path stroke="#294B9A" stroke-dasharray="12,2,2,2" d="M54.5 146.1s6.9-18.4 8-20.5c1.1-2.1 6-11.8 6.8-13.4.8-1.6 8.1-14 9.1-15.6 1-1.6 7.8-13.2 8.2-13.9.4-.6 7.4-10 8.9-11.7 1.5-1.7 8-7.7 11.9-7.5 3.9.1 10.3 3.8 13.4 7.3 3.1 3.5 7.1 7 13.9 25.2 0 0 8.2 22.3 9.4 25.9 1.2 3.6 9.7 29.3 10.3 31.9 0 0 7.2 20.4 8 22.6.8 2.2 7.7 17.6 9.5 20.5 1.8 2.9 7.8 10.8 10.1 13.2 2.3 2.5 17.9 15.8 24.1 18.3 6.2 2.5 15.5 3.9 17.4 3.9 1.9 0 10.9 1.3 11.4 1.3s17.3 2.3 26.9 2.5c9.6.1 27.3-3.5 30.7-4.3 3.5-.8 19.4-4 21.4-4.3 2-.3 25-3.2 26.3-3.5h0"/><path stroke="#6CB330" stroke-dasharray="2,2" d="M54.4 224.9s14.3 6.5 20.6 7c6.3.5 12.9-1 14-1.2 1.2-.1 7.7-1 8.8-1.3 1-.3 6.7-2.7 8.8-5.3 2.1-2.6 5.4-9.7 6.3-12.7 0 0 1.9-7 4.1-17.6 2.2-10.6 6.9-38.6 7.5-42.1.5-3.5 6.3-42.3 6.8-45.6.5-3.4 6-34.2 7.3-39.2 1.3-4.9 5.8-20.9 7.5-24.4 1.6-3.5 9.1-17.2 11.6-19.5 2.5-2.2 10.8-7 14.5-6.7 0 0 7.2.3 13.5 4.8 0 0 6.7 5.1 11.2 11 4.5 6 11.1 14.1 12.5 16.1 1.4 1.9 10.3 13.4 12.6 17.9 0 0 4.5 8 5.9 11.5 1.5 3.5 6.6 17 7.8 21.3 1.3 4.3 10.8 36.6 11.4 39.2.6 2.6 6.3 20.7 7.1 23.3.8 2.6 6.5 16.4 8.7 20.4 0 .1.1.1.1.2 0 0 5.8 10.6 10.4 14.4 4.6 3.8 12.1 8.6 14.5 9.6 2.4 1 4 1.6 4.7 1.7.7.1 2.9.9 6.2.9 3.3 0 8.5-1.2 9.9-1.9 1.5-.8 7.2-5.1 8.1-5.7.9-.6 3.8-2.6 5.4-3.9 1.5-1.3 9.9-9.3 10.4-9.9.5-.5 7.2-6.5 8-6.6"/><path stroke="#E42621" d="M54.8 224.3s10.7 6.2 14.4 7.7c3.7 1.4 16.5 4.3 23.3 5.1 6.8.8 13.1 1 14.3 1 1.2 0 9.3-.9 23.6-2.5s15.2-1.6 19.5-2.9c4.3-1.3 17-7.9 23.7-7.9 6.7 0 19 5.6 21.1 6 2.1.4 7 .5 7.9.3.9-.3 4.3-1.7 5.4-3.6 1.1-1.9 2.6-5.5 3.3-7.3.6-1.8 3-12.3 4.2-18.9 1.2-6.6 4.7-27.5 5.7-35.7 1-8.2 4.3-32.2 4.4-32.8.1-.6 3.7-29.2 4.1-31.6.4-2.5 3.2-21.3 3.6-24.3.5-3 2.9-15 3.2-15.8.3-.8 3.2-11.3 4.2-12.2 1-.9 2.7-4.3 4.4-4.9 1.6-.6 1.1-1.4 4-1.3l2.9.1s4 2.1 6.8 4.8c2.8 2.7 9.7 7.5 10.6 8.6.9 1 3.5 2.9 4.4 3.4.9.5 4.1 1.6 5.2 2.1 1.1.5 12 6 12 6s2.7 1.3 3.5 1.3 1 .1 2.4.8c1.4.6 2.9 2.5 3.5 3.2.5.8 13.3 15.6 14 16.5.6.9 2.1 3 3.1 4.7 1 1.7 6.7 11.4 8.8 13.4 2.2 1.9 5.9 3.8 7.1 4.1 1.2.4 6.3 1.3 7.4 1.3"/></g></svg>