<svg version="1.0" xmlns="http://www.w3.org/2000/svg" viewBox="0 0 450 105"><text transform="translate(6 29.936)" fill="#00305F" font-family="Helvetica,Arial,sans-serif" font-size="11">0001 1000 1000 0000 0111 0010 1011 1010</text><text transform="translate(6.535 14.875)" font-family="Helvetica,Arial,sans-serif" font-size="11">MSB</text><text transform="translate(79.763 73.825)" fill="#00305F" font-family="Helvetica,Arial,sans-serif" font-size="11">High part (32 bit)</text><text transform="translate(184.153 52.411)" font-family="Helvetica,Arial,sans-serif" font-size="11">Timestamp (64 bit)</text><text transform="translate(303.126 73.825)" fill="#0090D4" font-family="Helvetica,Arial,sans-serif" font-size="11">Low part (32 bit)</text><text transform="translate(424.385 15.797)" font-family="Helvetica,Arial,sans-serif" font-size="11">LSB</text><text transform="translate(226.473 29.936)" fill="#0090D4" font-family="Helvetica,Arial,sans-serif" font-size="11">1010 1011 1011 1100 1110 0000 0000 0000</text><path fill="none" stroke="#1D1D1B" stroke-miterlimit="10" d="M14.9 39.6h419.2"/><path fill="#1D1D1B" d="M16.8 42.5L6 39.6l10.8-2.9zm415.3 0l10.8-2.9-10.8-2.9z"/><path fill="none" stroke="#1D1D1B" stroke-miterlimit="10" d="M15.4 60.7h200.2"/><path fill="#1D1D1B" d="M17.4 63.6L6.5 60.7l10.9-2.9zm196.2 0l10.9-2.9-10.9-2.9z"/><path fill="none" stroke="#1D1D1B" stroke-miterlimit="10" d="M234.5 60.7h199.6"/><path fill="#1D1D1B" d="M236.5 63.6l-10.8-2.9 10.8-2.9zm195.6 0l10.8-2.9-10.8-2.9z"/><text transform="translate(63 95.5)" fill="#00305F" font-family="Helvetica,Arial,sans-serif" font-size="11">= 411071162 (decimal)</text><text transform="translate(283.5 95.5)" fill="#0090D4" font-family="Helvetica,Arial,sans-serif" font-size="11">= 2881282048 (decimal)</text></svg>