<svg version="1.0" xmlns="http://www.w3.org/2000/svg" viewBox="0 0 520 310.5"><g clip-rule="evenodd" fill="none" stroke="#000" stroke-miterlimit="3.864"><path stroke-width=".712" d="M56.9 13h413.7v253.5H56.9z"/><path stroke-width=".227" d="M56.9 49.1h413.9M57 86.2h413.8M57.1 122.5h413.8M56.8 157.9h413.9M57 195h413.9M57 230.5h413.8m-345-218.2v254.4m69.1-254.2v254.3m69.3-253.9v253.7m68.4-253.7v253.7m69.2-253.7v254"/></g><path clip-rule="evenodd" fill="none" stroke="#000" stroke-miterlimit="3.864" d="M58.3 150.7c.7-6.3 0 1.6.7-6.3s0 .5.7-7.9 2.2-14.5 2.2-14.5l.7-3 .8-1.3 2-1.8 2-4.9 1.2-4.9 6.8-10.5.8-3.8.5-7.3 1.1-7.1 1.3-6.4 1.8 7.9 1.1 6.4 1.1 2.8 1.7-4.3 1.4-6.1 1.1-4.3 1-4 2.2-6.9.6-3.6 1.3-2.8 2-3.8 2.4-1 2.4-2.6h2.2l1.4 3.3 1.2 2.5 1.2 3.5 1.2 2.8 1.2-2.5.6-5.6.7-4.3 1.4-5.6h1.2l1.8 3.3 3.4-.2 2.2 5.6.6 5.1 1.3 3.6 1.3.7 1.7-.5 1.2-3.5.5-4.8.8-3.3.7-4.9.4-1.3h4l.7-1.6 1.7-1.3 1.3 1.6 1.6 3 1 2 1.2-1.2 2-2.8.7-4 2.4-6.1 1.3.2.6 4.9 1.2 6.1.6 3.5 2 1.8 1.3-1.6 1.6-2.5v-3.1l1.1-4.3 1.2-2.8 1 1.2 1.4 2.6.8 2.3.6-.3 2.3-4 .7-.3 2.2 3.6 1.9 4.9 1.6 4.4 1.8 3.5 2-1 1.8-4.8 2.3-4.5 1.8 4 1.3 3.3 3 12.7.8 2 1.4.3 4.6-6.8 3.8-9.6 1.9-3.5 1.6-1 2.5 4.5 1.8 7.6 2 5.6.2 3.3 1.9-.3 1.3-.5 1.8-6.1 1-3.5 1.2-5.8 2.3-4 2.5 4.1.5 4.6 1.3 6.3.8 7.1 1.4 4.6 1 3 1.3 1.6 1.1.3 1.3-2.3 4.6-4.9s1.8.8 1.8 1.5.8 2.1.8 2.1l2.3 1.3.7.8 1.4-1.5 1.3-3.8 2.2-2.8 1.9 1.8 1.6 3 2.3 11.5 3.7 11.5h2s1.3-.2 1.1-1.3c-.2-1.2 2.8-10.2 2.8-10.2l1.6-3.3 1.8-3.1 1 .7s1.8 2.8 2.3 3.8c.5 1 4.3 15 4.3 15l3.4 12 3 5.3h1.7l2.8-3.8 1.1.5 3.1 4.8 1.6.7 2.5.7 3.1-2 1.3-.3.4 1.2h4.5l.8 3.6 2.4 7.4 2.3 10.2 4 8.4h5.4l5.9-8.1 1.4 1.2 5.4 15.7 5.3 12.7 4.4 11.9 2.5 3.3 2.6-.2 1.4-2.1 4.4-3.5 3.5 3 1.3 2.1 1.1.3 2.5-1.6 1.8-1.3 5 .5 4.3 8.4 3.6 11 3.6 8.1 2.5-.7 1.8-3 4.3-.5 1.4-2.1 1.7-1.3 2.5.5 3.2 3.5 5 5.4 2.5 1.3 1.8.7 1.9 1 .8 3.5 2.5 7.4 2.6 1.6 1.7.8 2.8 2.8 4.7-.3 1.7.8 1.4 3.6 1 2.8 1.4 1.8 1.4 1.6 2.4-.7 1.7-1.5 3.1.2 1.6 2.8 1.8 1.5 3.2.2 4.1.3 2.6.3 3.1 3.3 1.9.2 1.6 1.2 1.9 2.8 6.2 7.9 8.4.2 1.2 3 3 1.3 2.5.5 2.5 2.8v1"/><text transform="matrix(0 -1.1267 1 0 23.796 220.209)" font-family="Helvetica,Arial,sans-serif" font-size="12">Quantum Efficiency (%)</text><text transform="matrix(.8876 0 0 1 48.532 267.442)" font-family="Helvetica,Arial,sans-serif" font-size="8">0</text><text transform="matrix(.8876 0 0 1 43.243 234.442)" font-family="Helvetica,Arial,sans-serif" font-size="8">10</text><text transform="matrix(.8876 0 0 1 43.243 196.313)" font-family="Helvetica,Arial,sans-serif" font-size="8">20</text><text transform="matrix(.8876 0 0 1 43.243 158.853)" font-family="Helvetica,Arial,sans-serif" font-size="8">30</text><text transform="matrix(.8876 0 0 1 43.243 126.745)" font-family="Helvetica,Arial,sans-serif" font-size="8">40</text><text transform="matrix(.8876 0 0 1 43.243 87.28)" font-family="Helvetica,Arial,sans-serif" font-size="8">50</text><text transform="matrix(.8876 0 0 1 43.243 51.157)" font-family="Helvetica,Arial,sans-serif" font-size="8">60</text><text transform="matrix(.8876 0 0 1 43.243 17.71)" font-family="Helvetica,Arial,sans-serif" font-size="8">70</text><text transform="matrix(.8876 0 0 1 213.32 297.095)" font-family="Helvetica,Arial,sans-serif" font-size="12">Wavelength (nm)</text><text transform="translate(257.404 278.718)" font-family="Helvetica,Arial,sans-serif" font-size="8">700</text><text transform="translate(325.404 278.718)" font-family="Helvetica,Arial,sans-serif" font-size="8">800</text><text transform="translate(395.404 278.718)" font-family="Helvetica,Arial,sans-serif" font-size="8">900</text><text transform="translate(462.404 278.718)" font-family="Helvetica,Arial,sans-serif" font-size="8">1000</text><text transform="translate(189.404 278.718)" font-family="Helvetica,Arial,sans-serif" font-size="8">600</text><text transform="translate(118.404 278.718)" font-family="Helvetica,Arial,sans-serif" font-size="8">500</text><text transform="translate(50.404 278.718)" font-family="Helvetica,Arial,sans-serif" font-size="8">400</text></svg>