<svg version="1.1" id="Layer_1" xmlns="http://www.w3.org/2000/svg" x="0" y="0" viewBox="0 0 337 180" xml:space="preserve"><style>.st1{font-family:Helvetica,Arial,sans-serif}.st2{font-size:12px}</style><path d="M95.9 19.7l.2.2M65.8 158.7l-.2-.2m36-138.6l.2-.2M60.1 158.5l-.2.2M96.3 20.1c.2 1.4 1.5 2.4 2.9 2.2 1.1-.2 2-1 2.2-2.2m-36 138.2c-.2-1.4-1.5-2.4-2.9-2.2-1.1.2-2 1-2.2 2.2m84.3-32.2h2.8m0 0v5.4m0 0h-2.8m0 0v-5.4M70 87.6V82m0 0h13.4m0 0v5.6m0 0H70m-18.5 63.1c0-1.4-1.2-2.6-2.6-2.6-1.4 0-2.6 1.2-2.6 2.6 0 1.4 1.2 2.6 2.6 2.6 1.4 0 2.6-1.2 2.6-2.6zm9.4-5.3v2.9m0 0h-5.4m0 0v-2.9m0 0h5.4m-11.6-44.8v2.9m0 0h-5.4m0 0v-2.9m0 0h5.4m36.2-13V82m0 0h13.4m0 0v5.6m0 0H85.5m28.2 44.5h-2.9m0 0v-5.4m0 0h2.9m0 0v5.4m-58.2 1.8h-2.8m0 0v-5.4m0 0h2.8m0 0v5.4m58.2-29.1h-2.9m0 0v-5.4m0 0h2.9m0 0v5.4m-4.4 12.3h-2.8m0 0v-5.4m0 0h2.8m0 0v5.4m-58.2 16.8h-2.8m0 0v-5.4m0 0h2.8m0 0v5.4m99.7-25.8v2.8m0 0h-5.4m0 0v-2.8m0 0h5.4m0-4.4v2.9m0 0h-5.4m0 0v-2.9m0 0h5.4m-2.9-47.6v-2.8m0 0h5.4m0 0v2.8m0 0h-5.4m-32 71.5v-26.3m0 0h26.2m0 0v26.3m0 0h-26.2m34.9-15.1v2.8m0 0h-5.4m0 0v-2.8m0 0h5.4m-41.5 19.6h-2.8m0 0v-5.4m0 0h2.8m0 0v5.4m21.1-2.4v2.9m0 0H125m0 0v-2.9m0 0h5.4m-77.7-10.3h2.8m0 0v5.5m0 0h-2.8m0 0v-5.5m49.4-17.7h2.8m0 0v5.4m0 0h-2.8m0 0v-5.4m-14.4 46.6v-2.9m0 0h5.4m0 0v2.9m0 0h-5.4m19.8-38.6v-2.9m0 0h5.4m0 0v2.9m0 0h-5.4m-7.6-8.7v42.3m0 0H57.7m0 0V101m0 0h42.2m10.9 10.7h2.9m0 0v5.4m0 0h-2.9m0 0v-5.4m28.9-55.6v-2.8m0 0h5.4m0 0v2.8m0 0h-5.4M38.6 146.9c0-4.3-3.5-7.7-7.7-7.7s-7.7 3.5-7.7 7.7c0 4.3 3.5 7.7 7.7 7.7s7.7-3.5 7.7-7.7zm0-115.4c0-4.3-3.5-7.7-7.7-7.7s-7.7 3.5-7.7 7.7c0 4.3 3.5 7.7 7.7 7.7s7.7-3.4 7.7-7.7zm115.4 0c0-4.3-3.5-7.7-7.7-7.7s-7.7 3.5-7.7 7.7c0 4.3 3.5 7.7 7.7 7.7s7.7-3.4 7.7-7.7zm0 115.4c0-4.3-3.5-7.7-7.7-7.7s-7.7 3.5-7.7 7.7c0 4.3 3.5 7.7 7.7 7.7s7.7-3.5 7.7-7.7zm-88.4 11.6l-.2-.2m85 .4H65.8m84.6 0c4.3 0 7.7-3.5 7.7-7.7m0-123.6V151m0-123.6c0-4.3-3.5-7.7-7.7-7.7m0 0h-48.6m-.4.4l.2-.2m-5.5 0l.2.2m-69.5-.4h69.1m-69.1 0c-4.3 0-7.7 3.5-7.7 7.7m0 123.6V27.4m0 123.6c0 4.3 3.5 7.7 7.7 7.7m0 0h33.1m.4-.4l-.2.2m56.4-25.9v-2.9m5.4 2.9h-5.4m5.4-2.9v2.9m-5.4-2.9h5.4M152 123h-2.8m2.8-5.4v5.4m-2.8-5.4h2.8m-2.8 5.4v-5.4m-24.8-29.3v-7.5m11.3 7.5h-11.3m11.3-7.5v7.5m-11.3-7.5h11.3m-81.1 6.8V82M68 87.6H54.6M68 82v5.6M54.6 82H68m82.8 17.4v2.8m-5.4-2.8h5.4m-5.4 2.8v-2.8m5.4 2.8h-5.4m-89.9 4.6h-2.8m2.8-5.4v5.4m-2.8-5.4h2.8m-2.8 5.4v-5.4m100-31.3h-13.4m13.4-10.8v10.8m-13.4-10.8h13.4m-13.4 10.8V59.3m-64.2 90.5v2.9m-5.4-2.9h5.4m-5.4 2.9v-2.9m5.4 2.9h-5.4m39.6-47.9h-2.8m2.8-5.4v5.4m-2.8-5.4h2.8m-2.8 5.4v-5.4M49.3 105v2.9m-5.4-2.9h5.4m-5.4 2.9V105m5.4 2.9h-5.4M98 148.3v-2.9m5.4 2.9H98m5.4-2.9v2.9m-5.4-2.9h5.4m21-47.8v-7.5m11.3 7.5h-11.3m11.3-7.5v7.5m-11.3-7.5h11.3m11.7 32.9h-2.8m2.8-5.4v5.4m-2.8-5.4h2.8m-2.8 5.4v-5.4m-89.1-1.5h-2.8m2.8-5.4v5.4m-2.8-5.4h2.8m-2.8 5.4v-5.4m22.4 34.7v2.9m-5.4-2.9h5.4m-5.4 2.9v-2.9m5.4 2.9h-5.4m31.2-60.7V82m13.4 5.6h-13.4m13.4-5.6v5.6M100.9 82h13.4m-30.2 63.4v2.9m-5.4-2.9h5.4m-5.4 2.9v-2.9m5.4 2.9h-5.4m-17.8 1.5v2.9m-5.4-2.9h5.4m-5.4 2.9v-2.9m5.4 2.9h-5.4m49.4-37.1h-2.8m2.8-5.4v5.4m-2.8-5.4h2.8m-2.8 5.4v-5.4m31.4 22.4v-2.9m5.4 2.9h-5.4m5.4-2.9v2.9m-5.4-2.9h5.4m11.6-55.8v4.9m-9-4.9h9m-9 4.9v-4.9m9 4.9h-9m7.5 47.1h3.3m-3.3 5.9v-5.9m3.3 5.9H149m3.3-5.9v5.9m-96.8 11.1h-2.8m2.8-5.4v5.4m-2.8-5.4h2.8m-2.8 5.4v-5.4m52.2-5.4h-2.8m2.8-5.4v5.4m-2.8-5.4h2.8m-2.8 5.4v-5.4M76.7 73.9v1m0-1v-1.2m0-.4v.4m.6-.4v.4m0 1.2v-1.2m0 1.2v1m0 0h-.6m51.5-2.6H49m18 2.6h-.6m0-1v1m.6-1v1m65.1-11H45m81.9-2.3h-3.3m-.6 0h-1.9m-.6 0h-2m-.6 0h-2m-.6 0h-2m-.6 0h-1.9m-.6 0h-2m-.6 0h-2m-.6 0h-2m-.6 0h-1.9m-.6 0h-2m-.6 0h-2m-.6 0h-2m-.6 0h-1.9m-.6 0h-2m-.6 0h-2m-.6 0h-1.9m-.7 0h-1.9m-.6 0h-2m-.6 0h-2m-.6 0h-1.9m-.7 0h-1.9m-.6 0h-2m-.6 0h-2m-.6 0h-1.9m-.7 0h-1.9m-2.6 0h2m-4.6 0h2m-5.9 0h3.3m73.4 0v-.9m0 0h4.9m-8.2-.7v.7m0 0v3.2m0-3.9h-.6m0 0v.7m0 0h.6m-.6 0v3.2M53.5 60h.6m2 0h.6m2 0h.6m2.6 0h-.7m3.2 0h-.6m3.2 0h-.6m3.2 0H69m3.2 0h-.7m3.2 0h-.6m3.2 0h-.6m3.2 0h-.6m3.2 0h-.7m3.2 0h-.6m3.2 0H87m3.2 0h-.6m3.1 0h-.6m3.2 0h-.6m3.2 0h-.6m3.2 0h-.6m3.1 0h-.6m3.2 0h-.6m3.2 0h-.6m3.2 0h-.6m3.1 0h-.6m3.2 0h-.6m3.2 0h-.6m3.2 0h-.6m11.3.7v-9.8m-2 0h2m-2 5.7H47.4m0-5.7h-2.1m0 9.8v-9.8m4.9 9.8h-4.9m4.9.9v-.9m3.9-.7v.7m0 3.2v-3.2m0 0h-.6m0 0v3.2m0-3.9v.7m2.6 0v3.2m0-3.9v.7m.6 0h-.6m.6-.7v.7m0 0v3.2m2-3.2v3.2m0-3.9v.7m.6 0h-.6m.6-.7v.7m0 0v3.2m4.5-3.2v3.2m0-3.9v.7m0 0h.6m0-.7v.7m0 0v3.2m2 0v-3.2m0-.7v.7m.6-.7v.7m0 3.2v-3.2m-.6 0h.6m2 0v3.2m0-3.9v.7m0 0h.6m0-.7v.7m0 0v3.2m1.9-3.2v3.2m0-3.9v.7m0 0h.7m0-.7v.7m0 0v3.2m1.9 0v-3.2m0-.7v.7m.6-.7v.7m0 3.2v-3.2m-.6 0h.6m2 0v3.2m0-3.9v.7m0 0h.6m0-.7v.7m0 0v3.2m2-3.2v3.2m0-3.9v.7m0 0h.6m0-.7v.7m0 0v3.2m1.9-3.2v3.2m0-3.9v.7m0 0h.7m0-.7v.7m0 0v3.2m1.9-3.2v3.2m0-3.9v.7m0 0h.6m0-.7v.7m0 0v3.2m2-3.2v3.2m0-3.9v.7m0 0h.6m0-.7v.7m0 0v3.2m2-3.2v3.2m0-3.9v.7m0 0h.6m0-.7v.7m0 0v3.2m1.9 0v-3.2m0-.7v.7m.6-.7v.7m0 3.2v-3.2m-.6 0h.6m2 0v3.2m0-3.9v.7m0 0h.6m0-.7v.7m0 0v3.2m2-3.2v3.2m0-3.9v.7m0 0h.6m0-.7v.7m0 0v3.2m2 0v-3.2m0-.7v.7m.6-.7v.7m0 3.2v-3.2m-.6 0h.6m1.9 0v3.2m0-3.9v.7m0 0h.6m0-.7v.7m0 0v3.2m2-3.2v3.2m0-3.9v.7m0 0h.6m0-.7v.7m0 0v3.2m2 0v-3.2m0-.7v.7m.6-.7v.7m0 3.2v-3.2m-.6 0h.6m2 0v3.2m0-3.9v.7m0 0h.6m0-.7v.7m0 0v3.2m1.9-3.2v3.2m0-3.9v.7m0 0h.6m0-.7v.7m0 0v3.2m2-3.2v3.2m0-3.9v.7m0 0h.6m0-.7v.7m0 0v3.2m2-3.2v3.2m0-3.9v.7m0 0h.6m0-.7v.7m0 0v3.2m2-3.2v3.2m0-3.9v.7m0 0h.6m0-.7v.7m0 0v3.2M47.4 44.3h82.4m-82.4 1v-1m82.4 1v-1M47.4 54.7v-9.4m82.4 9.4H47.4m82.4 0v-9.4m0 11.3v-1.9m-82.4 1.9v-1.9M61.9 60v.7m0 0v3.2m-.7-3.2v3.2m0-3.9v.7m0 0h.7m64.2 1.1v2.1m1-3.2h2.1m-3.1 1.1l.2-.2m.6-.7l.2-.2m7.8-14.4h-4.8m-.3 0h.3m-.9 14.4v3.2m-78.1-2.1v2.1m-4-14.5v-3.1m6.4 27.6v1m0-2.2v1.2m0-1.6v.4M42.2 46.3v22.4m7.8-8h-2m-3-11.3v14.5m6.1-2.1l-.2-.2m-.7-.7l-.2-.2m78.2 11.6v-3.6m-80.2-8v3.2m86.9 4.8h-6.7m1.9-19.3v-3.1m2 3.1h-2m2 0v14.5m-13.6-21.2v.3m0 0v.2m0 1.1v-1.1m-.6 1.1v-1.1m0-.2v.2m0-.5v.3m0-.3h.6m-12.9 0v.3m0 0v.2m0 1.1v-1.1m-.6 1.1v-1.1m0-.2v.2m0-.5v.3m0-.3h.6m-12.9 0v.3m0 0v.2m0 1.1v-1.1m-.6 1.1v-1.1m0-.2v.2m0-.5v.3m0-.3h.6m-12.8 0v.3m0 0v.2m0 1.1v-1.1m-.6 1.1v-1.1m0-.2v.2m0-.5v.3m0-.3h.6m-12.9 0v.3m0 0v.2m0 1.1v-1.1m-.6 1.1v-1.1m0-.2v.2m0-.5v.3m0-.3h.6m63 1.6v2m-.2-2h.2m4.9 2v22.4m-68.5 3.6v.4m.6-.4v.4m-12.9-.4v.4m0 1.2v-1.2m0 1.2v1m-.6 0h.6m10.3-2.6v.4m0 1.2v-1.2m0 1.2v1m-.6-1v-1.2m0 1.2v1m0-2.6v.4m.6 2.2h-.6m5.8-2.6v.4m0 1.2v-1.2m0 1.2v1m-.6-1v-1.2m0 1.2v1m0-2.6v.4m.6 2.2H69m-7.1-2.6v.4m0 1.2v-1.2m0 1.2v1m-.7-1v-1.2m0 1.2v1m0-2.6v.4m.7 2.2h-.7m-5.1-1v1m0-1v-1.2m0-.4v.4m.6 1.2v-1.2m-.6 2.2h.6m0-1v1m0-2.6v.4m2 1.2v1m0-1v-1.2m0-.4v.4m.6 1.2v-1.2m-.6 2.2h.6m0-1v1m0-2.6v.4m64.3-.4v.4m0 1.2v-1.2m0 1.2v1m-.6-1v-1.2m0 1.2v1m0-2.6v.4m.6 2.2h-.6m-1.9-2.6v.4m0 1.2v-1.2m0 1.2v1m-.6-1v-1.2m0 1.2v1m0-2.6v.4m.6 2.2h-.6m-2-2.6v.4m0 1.2v-1.2m0 1.2v1m-.6-1v-1.2m0 1.2v1m0-2.6v.4m.6 2.2h-.6m-2-2.6v.4m0 1.2v-1.2m0 1.2v1m-.6-1v-1.2m0 1.2v1m0-2.6v.4m.6 2.2h-.6m-2-2.6v.4m0 1.2v-1.2m0 1.2v1m-.6-1v-1.2m0 1.2v1m0-2.6v.4m.6 2.2h-.6m-2.5-1v1m0-1v-1.2m0-.4v.4m.6 1.2v-1.2m0 2.2h-.6m.6-1v1m0-2.6v.4m-2.6-.4v.4m0 1.2v-1.2m0 1.2v1m-.6-1v-1.2m0 1.2v1m0-2.6v.4m.6 2.2h-.6m-2-2.6v.4m0 1.2v-1.2m0 1.2v1m-.6-1v-1.2m0 1.2v1m0-2.6v.4m.6 2.2h-.6m-2-2.6v.4m0 1.2v-1.2m0 1.2v1m-.6-1v-1.2m0 1.2v1m0-2.6v.4m.6 2.2h-.6m-1.9-2.6v.4m0 1.2v-1.2m0 1.2v1m-.6-1v-1.2m0 1.2v1m0-2.6v.4m.6 2.2h-.6m-2-2.6v.4m0 1.2v-1.2m0 1.2v1m-.6-1v-1.2m0 1.2v1m0-2.6v.4m.6 2.2h-.6m-2-2.6v.4m0 1.2v-1.2m0 1.2v1m-.6-1v-1.2m0 1.2v1m0-2.6v.4m.6 2.2h-.6m-2.6-1v1m0-1v-1.2m0-.4v.4m.6 1.2v-1.2m0 2.2h-.6m.6-1v1m0-2.6v.4m-2.5-.4v.4m0 1.2v-1.2m0 1.2v1m-.6-1v-1.2m0 1.2v1m0-2.6v.4m.6 2.2h-.6m-2-2.6v.4m0 1.2v-1.2m0 1.2v1m-.6-1v-1.2m0 1.2v1m0-2.6v.4m.6 2.2H87m-2-2.6v.4m0 1.2v-1.2m0 1.2v1m-.6-1v-1.2m0 1.2v1m0-2.6v.4m.6 2.2h-.6m-1.9-2.6v.4m0 1.2v-1.2m0 1.2v1m-.7-1v-1.2m0 1.2v1m0-2.6v.4m.7 2.2h-.7m-2.5-1v1m0-1v-1.2m0-.4v.4m.6 1.2v-1.2m0 2.2h-.6m.6-1v1m0-2.6v.4m-5.2-.4v.4m0 1.2v-1.2m0 1.2v1m-.6-1v-1.2m0 1.2v1m0-2.6v.4m.6 2.2h-.6m-1.9-2.6v.4m0 1.2v-1.2m0 1.2v1m-.7-1v-1.2m0 1.2v1m0-2.6v.4m.7 2.2h-.7m-4.5-1v-1.2m-.6 1.2v-1.2m-19-26.4h-.3M45 49.4h2.1M49 72.3v-3.6m-6.8-22.4h4.9m-4.9 22.4H49m-1.9-24.4v2m.3-2h-.3m.8 75.1h2.8m0 0v5.5m0 0h-2.8m0 0v-5.5m-6.7 27.5H20.6m10.3-10.3v20.6M41.2 31.5H20.6m10.3-10.3v20.6m125.7-10.3H136m10.3-10.3v20.6m10.3 105.1H136m10.3-10.3v20.6M30.9 31.5H20.6m10.3 115.4H20.6m10.3 0" fill="none" stroke="#010202" stroke-width=".8" stroke-linecap="round" stroke-linejoin="round" stroke-miterlimit="10"/><text transform="translate(198.5 139.141)" class="st1 st2">Parts on the board are</text><text transform="translate(198.5 153.541)" class="st1 st2">symbolic only</text><path d="M122 51.3h102.7" fill="none" stroke="#000" stroke-miterlimit="10"/><text transform="translate(235.447 54.688)" class="st1" font-size="14">FFC connector</text></svg>