<svg version="1.0" xmlns="http://www.w3.org/2000/svg" viewBox="0 0 746.3 629.3"><path fill="none" stroke="#000" stroke-width=".565" stroke-linejoin="round" stroke-miterlimit="10" d="M307.1 5.3h271.1v297.5H307.1zM6.8 44.6h109.8v148.6H6.8z"/><path fill="none" stroke="#000" stroke-width=".565" stroke-linejoin="round" stroke-miterlimit="10" d="M72.8 60h43.7v117.7H72.8zM14.3 240.2h102.3v55H14.3z"/><g fill="none" stroke="#000" stroke-width=".565" stroke-linejoin="round"><path d="M116.6 566.5v2.5h-2.5"/><path stroke-dasharray="5.1225,5.1225" d="M109 569H19.3"/><path d="M16.8 569h-2.5v-2.5"/><path stroke-dasharray="4.5441,4.5441" d="M14.3 562v-43.2"/><path d="M14.3 516.5V514h2.5"/><path stroke-dasharray="5.1225,5.1225" d="M21.9 514h89.6"/><path d="M114.1 514h2.5v2.5"/><path stroke-dasharray="4.5441,4.5441" d="M116.6 521.1v43.2"/></g><g fill="none" stroke="#000" stroke-width=".565" stroke-linejoin="round"><path d="M578.4 621.3v2.5h-2.5"/><path stroke-dasharray="5.0251,5.0251" d="M570.9 623.8H312.1"/><path d="M309.6 623.8h-2.5v-2.5"/><path stroke-dasharray="4.9497,4.9497" d="M307.1 616.3V331.7"/><path d="M307.1 329.3v-2.5h2.5"/><path stroke-dasharray="5.0251,5.0251" d="M314.6 326.8h258.8"/><path d="M575.9 326.8h2.5v2.5"/><path stroke-dasharray="4.9497,4.9497" d="M578.4 334.2v284.6"/></g><path fill="none" stroke="#000" stroke-width=".565" stroke-linejoin="round" stroke-miterlimit="10" d="M566.2 99.4c0 1.7-1.3 3.1-2.9 3.1-1.6 0-2.9-1.4-2.9-3.1 0-1.7 1.3-3.1 2.9-3.1 1.7.1 2.9 1.4 2.9 3.1zm0 15.7c0 1.7-1.3 3.1-2.9 3.1-1.6 0-2.9-1.4-2.9-3.1 0-1.7 1.3-3.1 2.9-3.1 1.7 0 2.9 1.4 2.9 3.1zm0 15.6c0 1.7-1.3 3.1-2.9 3.1-1.6 0-2.9-1.4-2.9-3.1 0-1.7 1.3-3.1 2.9-3.1 1.7.1 2.9 1.5 2.9 3.1zm0 15.7c0 1.7-1.3 3.1-2.9 3.1-1.6 0-2.9-1.4-2.9-3.1 0-1.7 1.3-3.1 2.9-3.1 1.7 0 2.9 1.4 2.9 3.1zm0 15.7c0 1.7-1.3 3.1-2.9 3.1-1.6 0-2.9-1.4-2.9-3.1 0-1.7 1.3-3.1 2.9-3.1 1.7 0 2.9 1.4 2.9 3.1zm0 15.6c0 1.7-1.3 3.1-2.9 3.1-1.6 0-2.9-1.4-2.9-3.1 0-1.7 1.3-3.1 2.9-3.1 1.7.1 2.9 1.4 2.9 3.1zm0 15.7c0 1.7-1.3 3.1-2.9 3.1-1.6 0-2.9-1.4-2.9-3.1 0-1.7 1.3-3.1 2.9-3.1 1.7 0 2.9 1.4 2.9 3.1zm0 15.6c0 1.7-1.3 3.1-2.9 3.1-1.6 0-2.9-1.4-2.9-3.1 0-1.7 1.3-3.1 2.9-3.1 1.7.1 2.9 1.4 2.9 3.1zm0 15.7c0 1.7-1.3 3.1-2.9 3.1-1.6 0-2.9-1.4-2.9-3.1 0-1.7 1.3-3.1 2.9-3.1 1.7 0 2.9 1.4 2.9 3.1zm0 15.6c0 1.7-1.3 3.1-2.9 3.1-1.6 0-2.9-1.4-2.9-3.1 0-1.7 1.3-3.1 2.9-3.1 1.7.1 2.9 1.5 2.9 3.1zm0 15.7c0 1.7-1.3 3.1-2.9 3.1-1.6 0-2.9-1.4-2.9-3.1 0-1.7 1.3-3.1 2.9-3.1 1.7 0 2.9 1.4 2.9 3.1zm0 15.7c0 1.7-1.3 3.1-2.9 3.1-1.6 0-2.9-1.4-2.9-3.1 0-1.7 1.3-3.1 2.9-3.1 1.7 0 2.9 1.4 2.9 3.1zM324.5 99.4c0 1.7-1.3 3.1-2.9 3.1-1.6 0-2.9-1.4-2.9-3.1 0-1.7 1.3-3.1 2.9-3.1 1.6.1 2.9 1.4 2.9 3.1zm0-15.6c0 1.7-1.3 3.1-2.9 3.1-1.6 0-2.9-1.4-2.9-3.1 0-1.7 1.3-3.1 2.9-3.1 1.6 0 2.9 1.4 2.9 3.1zm0 31.3c0 1.7-1.3 3.1-2.9 3.1-1.6 0-2.9-1.4-2.9-3.1 0-1.7 1.3-3.1 2.9-3.1 1.6 0 2.9 1.4 2.9 3.1zm0 15.6c0 1.7-1.3 3.1-2.9 3.1-1.6 0-2.9-1.4-2.9-3.1 0-1.7 1.3-3.1 2.9-3.1 1.6.1 2.9 1.5 2.9 3.1zm0 15.7c0 1.7-1.3 3.1-2.9 3.1-1.6 0-2.9-1.4-2.9-3.1 0-1.7 1.3-3.1 2.9-3.1 1.6 0 2.9 1.4 2.9 3.1zm0 15.7c0 1.7-1.3 3.1-2.9 3.1-1.6 0-2.9-1.4-2.9-3.1 0-1.7 1.3-3.1 2.9-3.1 1.6 0 2.9 1.4 2.9 3.1zm0 46.9c0 1.7-1.3 3.1-2.9 3.1-1.6 0-2.9-1.4-2.9-3.1 0-1.7 1.3-3.1 2.9-3.1 1.6.1 2.9 1.4 2.9 3.1zM105 255.8c0 1.7-1.3 3.1-2.9 3.1-1.6 0-2.9-1.4-2.9-3.1 0-1.7 1.3-3.1 2.9-3.1 1.6.1 2.9 1.4 2.9 3.1zm0 15.8c0 1.7-1.3 3.1-2.9 3.1-1.6 0-2.9-1.4-2.9-3.1 0-1.7 1.3-3.1 2.9-3.1 1.6 0 2.9 1.4 2.9 3.1zm0 258.1c0 1.7-1.3 3.1-2.9 3.1-1.6 0-2.9-1.4-2.9-3.1 0-1.7 1.3-3.1 2.9-3.1 1.6.1 2.9 1.4 2.9 3.1zm0 15.8c0 1.7-1.3 3.1-2.9 3.1-1.6 0-2.9-1.4-2.9-3.1 0-1.7 1.3-3.1 2.9-3.1 1.6.1 2.9 1.4 2.9 3.1zm219.5-320.8c0 1.7-1.3 3.1-2.9 3.1-1.6 0-2.9-1.4-2.9-3.1 0-1.7 1.3-3.1 2.9-3.1 1.6 0 2.9 1.4 2.9 3.1zm0 15.6c0 1.7-1.3 3.1-2.9 3.1-1.6 0-2.9-1.4-2.9-3.1 0-1.7 1.3-3.1 2.9-3.1 1.6.1 2.9 1.5 2.9 3.1zm0 15.7c0 1.7-1.3 3.1-2.9 3.1-1.6 0-2.9-1.4-2.9-3.1 0-1.7 1.3-3.1 2.9-3.1 1.6 0 2.9 1.4 2.9 3.1zm0 15.7c0 1.7-1.3 3.1-2.9 3.1-1.6 0-2.9-1.4-2.9-3.1 0-1.7 1.3-3.1 2.9-3.1 1.6 0 2.9 1.4 2.9 3.1zm0 15.7c0 1.7-1.3 3.1-2.9 3.1-1.6 0-2.9-1.4-2.9-3.1 0-1.7 1.3-3.1 2.9-3.1 1.6 0 2.9 1.4 2.9 3.1zm0 117.3c0 1.7-1.3 3.1-2.9 3.1-1.6 0-2.9-1.4-2.9-3.1 0-1.7 1.3-3.1 2.9-3.1 1.6 0 2.9 1.4 2.9 3.1zm0 15.6c0 1.7-1.3 3.1-2.9 3.1-1.6 0-2.9-1.4-2.9-3.1 0-1.7 1.3-3.1 2.9-3.1 1.6.1 2.9 1.4 2.9 3.1zm0 15.7c0 1.7-1.3 3.1-2.9 3.1-1.6 0-2.9-1.4-2.9-3.1 0-1.7 1.3-3.1 2.9-3.1 1.6 0 2.9 1.4 2.9 3.1zm0 15.6c0 1.7-1.3 3.1-2.9 3.1-1.6 0-2.9-1.4-2.9-3.1 0-1.7 1.3-3.1 2.9-3.1 1.6.1 2.9 1.4 2.9 3.1zm0 15.7c0 1.7-1.3 3.1-2.9 3.1-1.6 0-2.9-1.4-2.9-3.1 0-1.7 1.3-3.1 2.9-3.1 1.6 0 2.9 1.4 2.9 3.1zm0 15.7c0 1.7-1.3 3.1-2.9 3.1-1.6 0-2.9-1.4-2.9-3.1 0-1.7 1.3-3.1 2.9-3.1 1.6.1 2.9 1.4 2.9 3.1zm241.8-62.7c0 1.7-1.3 3.1-2.9 3.1-1.6 0-2.9-1.4-2.9-3.1 0-1.7 1.3-3.1 2.9-3.1 1.6.1 2.9 1.4 2.9 3.1zm0 15.7c0 1.7-1.3 3.1-2.9 3.1-1.6 0-2.9-1.4-2.9-3.1 0-1.7 1.3-3.1 2.9-3.1 1.6 0 2.9 1.4 2.9 3.1zm0 15.6c0 1.7-1.3 3.1-2.9 3.1-1.6 0-2.9-1.4-2.9-3.1 0-1.7 1.3-3.1 2.9-3.1 1.6.1 2.9 1.4 2.9 3.1zm0 15.7c0 1.7-1.3 3.1-2.9 3.1-1.6 0-2.9-1.4-2.9-3.1 0-1.7 1.3-3.1 2.9-3.1 1.6 0 2.9 1.4 2.9 3.1zm0 15.7c0 1.7-1.3 3.1-2.9 3.1-1.6 0-2.9-1.4-2.9-3.1 0-1.7 1.3-3.1 2.9-3.1 1.6.1 2.9 1.4 2.9 3.1zm0 15.7c0 1.7-1.3 3.1-2.9 3.1-1.6 0-2.9-1.4-2.9-3.1 0-1.7 1.3-3.1 2.9-3.1 1.6 0 2.9 1.4 2.9 3.1zm0 15.6c0 1.7-1.3 3.1-2.9 3.1-1.6 0-2.9-1.4-2.9-3.1 0-1.7 1.3-3.1 2.9-3.1 1.6.1 2.9 1.4 2.9 3.1zm0 15.7c0 1.7-1.3 3.1-2.9 3.1-1.6 0-2.9-1.4-2.9-3.1 0-1.7 1.3-3.1 2.9-3.1 1.6 0 2.9 1.4 2.9 3.1zm0 15.7c0 1.7-1.3 3.1-2.9 3.1-1.6 0-2.9-1.4-2.9-3.1 0-1.7 1.3-3.1 2.9-3.1 1.6.1 2.9 1.4 2.9 3.1zm0 15.7c0 1.7-1.3 3.1-2.9 3.1-1.6 0-2.9-1.4-2.9-3.1 0-1.7 1.3-3.1 2.9-3.1 1.6 0 2.9 1.4 2.9 3.1zm0 15.6c0 1.7-1.3 3.1-2.9 3.1-1.6 0-2.9-1.4-2.9-3.1 0-1.7 1.3-3.1 2.9-3.1 1.6.1 2.9 1.4 2.9 3.1zm0 15.8c0 1.7-1.3 3.1-2.9 3.1-1.6 0-2.9-1.4-2.9-3.1 0-1.7 1.3-3.1 2.9-3.1 1.6 0 2.9 1.4 2.9 3.1zm-241.8-62.9c0 1.7-1.3 3.1-2.9 3.1-1.6 0-2.9-1.4-2.9-3.1 0-1.7 1.3-3.1 2.9-3.1 1.6 0 2.9 1.4 2.9 3.1zm0 15.6c0 1.7-1.3 3.1-2.9 3.1-1.6 0-2.9-1.4-2.9-3.1 0-1.7 1.3-3.1 2.9-3.1 1.6.1 2.9 1.5 2.9 3.1zm0 15.7c0 1.7-1.3 3.1-2.9 3.1-1.6 0-2.9-1.4-2.9-3.1 0-1.7 1.3-3.1 2.9-3.1 1.6 0 2.9 1.4 2.9 3.1zm0 15.7c0 1.7-1.3 3.1-2.9 3.1-1.6 0-2.9-1.4-2.9-3.1 0-1.7 1.3-3.1 2.9-3.1 1.6 0 2.9 1.4 2.9 3.1zm0 15.6c0 1.7-1.3 3.1-2.9 3.1-1.6 0-2.9-1.4-2.9-3.1 0-1.7 1.3-3.1 2.9-3.1 1.6.1 2.9 1.4 2.9 3.1zm0 15.7c0 1.7-1.3 3.1-2.9 3.1-1.6 0-2.9-1.4-2.9-3.1 0-1.7 1.3-3.1 2.9-3.1 1.6.1 2.9 1.5 2.9 3.1z"/><path fill="none" stroke="#000" stroke-width=".565" stroke-linecap="round" stroke-linejoin="round" stroke-miterlimit="10" d="M571 115.1l39.9 7.8M571 146.4l39.9-15.8m1.7 62.8h-49.2m49.2 15.6h-49.2m49.2 305.3h-49.2m49.2 15.7h-49.2m49.2-258.3H439V162.1H113.7m449.7-15.7H113.7"/><path fill="none" stroke="#000" stroke-width=".565" stroke-linecap="round" stroke-linejoin="round" stroke-miterlimit="10" stroke-dasharray="5,5" d="M563.4 420.3H321.6M563.4 436H321.6m241.8 31.3H321.6m0 15.7h117v109.8h118.5"/><path fill="none" stroke="#000" stroke-width=".565" stroke-linecap="round" stroke-linejoin="round" stroke-miterlimit="10" d="M563.4 115.1H113.7"/><path fill="none" stroke="#000" stroke-width=".565" stroke-linecap="round" stroke-linejoin="round" stroke-miterlimit="10" stroke-dasharray="5,5" d="M314.2 529.8H101m213.2 15.7H101"/><path fill="none" stroke="#000" stroke-width=".565" stroke-linecap="round" stroke-linejoin="round" stroke-miterlimit="10" d="M321.6 130.7H113.7M321.6 209H146v46.8h-43.8"/><path fill="none" stroke="#000" stroke-width=".565" stroke-linecap="round" stroke-linejoin="round" stroke-miterlimit="10" d="M321.6 224.8H160.7v46.8h-58.5m219.4.1h-43.7v179.9h43.7"/><path fill="none" stroke="#000" stroke-width=".565" stroke-linecap="round" stroke-linejoin="round" stroke-miterlimit="10" d="M321.6 287.4h-29.3v117.3h29.3M563.4 99.4H113.7m207.9-15.7H113.7"/><g fill="none" stroke="#000" stroke-width=".565" stroke-linecap="round" stroke-linejoin="round"><path d="M227.2 68.9h-1"/><path stroke-dasharray="1.9684,1.9684" d="M224.2 68.9H118.9"/><path d="M117.9 68.9h-1"/></g><path fill="none" stroke="#000" stroke-width=".565" stroke-linecap="round" stroke-linejoin="round" stroke-miterlimit="10" d="M612.6 225.1L593 240.2m-29.6 0h44.1v23.6h-44.1v7.9"/><path fill="none" stroke="#000" stroke-width=".565" stroke-linecap="round" stroke-linejoin="round" stroke-miterlimit="10" stroke-dasharray="2.5998,2.5998" d="M219.5 123.3c0 30.1 3.2 54.4 7.2 54.4s7.2-24.4 7.2-54.4c0-30.1-3.2-54.4-7.2-54.4-4-.1-7.2 24.3-7.2 54.4z"/><path fill="none" stroke="#000" stroke-width=".565" stroke-linecap="round" stroke-linejoin="round" stroke-miterlimit="10" d="M271.8 52.4H168.2l-29.3 117.4"/><path fill="none" stroke="#000" stroke-width=".505" stroke-linecap="round" stroke-linejoin="round" stroke-miterlimit="10" d="M109.4 79.2s0 0 0 0c2.4 0 4.3 2 4.3 4.6 0 2.5-1.9 4.6-4.3 4.6"/><path d="M100.6 85c-.1 0-.2-.1-.2-.2v-2c0-.1.1-.2.2-.2h9.1c.1 0 .2.1.2.2v2c0 .1-.1.2-.2.2h-9.1z"/><path d="M109.6 82.8v2h-8.9v-2h8.9m.1-.5h-9.1c-.2 0-.4.2-.4.5v2c0 .3.2.5.4.5h9.1c.2 0 .4-.2.4-.5v-2c0-.3-.2-.5-.4-.5z"/><path fill="none" stroke="#000" stroke-width=".505" stroke-linecap="round" stroke-linejoin="round" stroke-miterlimit="10" d="M109.4 94.9s0 0 0 0c2.4 0 4.3 2 4.3 4.6 0 2.5-1.9 4.6-4.3 4.6"/><path d="M100.6 100.7c-.1 0-.2-.1-.2-.2v-2c0-.1.1-.2.2-.2h9.1c.1 0 .2.1.2.2v2c0 .1-.1.2-.2.2h-9.1z"/><path d="M109.6 98.5v2h-8.9v-2h8.9m.1-.5h-9.1c-.2 0-.4.2-.4.5v2c0 .3.2.5.4.5h9.1c.2 0 .4-.2.4-.5v-2c0-.3-.2-.5-.4-.5z"/><path fill="none" stroke="#000" stroke-width=".505" stroke-linecap="round" stroke-linejoin="round" stroke-miterlimit="10" d="M109.4 110.5s0 0 0 0c2.4 0 4.3 2 4.3 4.6 0 2.5-1.9 4.6-4.3 4.6"/><path d="M100.6 116.3c-.1 0-.2-.1-.2-.2V114c0-.1.1-.2.2-.2h9.1c.1 0 .2.1.2.2v2.1c0 .1-.1.2-.2.2h-9.1z"/><path d="M109.6 114.1v2h-8.9v-2h8.9m.1-.5h-9.1c-.2 0-.4.2-.4.5v2.1c0 .3.2.5.4.5h9.1c.2 0 .4-.2.4-.5V114c0-.2-.2-.4-.4-.4z"/><path fill="none" stroke="#000" stroke-width=".505" stroke-linecap="round" stroke-linejoin="round" stroke-miterlimit="10" d="M109.4 126.3s0 0 0 0c2.4 0 4.3 2 4.3 4.6 0 2.5-1.9 4.6-4.3 4.6"/><path d="M100.6 132.1c-.1 0-.2-.1-.2-.2v-2c0-.1.1-.2.2-.2h9.1c.1 0 .2.1.2.2v2c0 .1-.1.2-.2.2h-9.1z"/><path d="M109.6 129.9v1.9h-8.9v-1.9h8.9m.1-.6h-9.1c-.2 0-.4.2-.4.5v2c0 .3.2.5.4.5h9.1c.2 0 .4-.2.4-.5v-2c0-.2-.2-.5-.4-.5z"/><path fill="none" stroke="#000" stroke-width=".505" stroke-linecap="round" stroke-linejoin="round" stroke-miterlimit="10" d="M109.4 141.9s0 0 0 0c2.4 0 4.3 2 4.3 4.6 0 2.5-1.9 4.6-4.3 4.6"/><path d="M100.6 147.6c-.1 0-.2-.1-.2-.2v-2c0-.1.1-.2.2-.2h9.1c.1 0 .2.1.2.2v2c0 .1-.1.2-.2.2h-9.1z"/><path d="M109.6 145.4v1.9h-8.9v-1.9h8.9m.1-.5h-9.1c-.2 0-.4.2-.4.5v2c0 .3.2.5.4.5h9.1c.2 0 .4-.2.4-.5v-2c0-.3-.2-.5-.4-.5z"/><path fill="none" stroke="#000" stroke-width=".505" stroke-linecap="round" stroke-linejoin="round" stroke-miterlimit="10" d="M109.4 157.6s0 0 0 0c2.4 0 4.3 2 4.3 4.6 0 2.5-1.9 4.6-4.3 4.6"/><path d="M100.6 163.4c-.1 0-.2-.1-.2-.2v-2c0-.1.1-.2.2-.2h9.1c.1 0 .2.1.2.2v2c0 .1-.1.2-.2.2h-9.1z"/><path d="M109.6 161.2v1.9h-8.9v-1.9h8.9m.1-.5h-9.1c-.2 0-.4.2-.4.5v2c0 .3.2.5.4.5h9.1c.2 0 .4-.2.4-.5v-2c0-.3-.2-.5-.4-.5zm9.8-91.9c0 1.7-1.3 3.1-2.9 3.1-1.6 0-2.9-1.4-2.9-3.1 0-1.7 1.3-3.1 2.9-3.1 1.6 0 2.9 1.4 2.9 3.1zm110.1 0c0 1.7-1.3 3.1-2.9 3.1-1.6 0-2.9-1.4-2.9-3.1 0-1.7 1.3-3.1 2.9-3.1 1.6 0 2.9 1.4 2.9 3.1z"/><text transform="matrix(.9355 0 0 1 354.878 23.121)" font-family="Helvetica,Arial,sans-serif" font-size="14.97">Basler SLP Strobe Controller</text><text transform="matrix(.9355 0 0 1 316.031 62.506)" font-family="Helvetica,Arial,sans-serif" font-size="13.307">Camera</text><text transform="matrix(.9355 0 0 1 498.093 62.506)" font-family="Helvetica,Arial,sans-serif" font-size="13.307">Power &amp; I/0</text><text transform="matrix(.9355 0 0 1 329.445 79.966)" font-family="Helvetica,Arial,sans-serif" font-size="9.98">Camera GND</text><text transform="matrix(.9355 0 0 1 94.911 79.966)" font-family="Helvetica,Arial,sans-serif" font-size="9.98">6</text><text transform="matrix(.9355 0 0 1 168.422 48.065)" font-family="Helvetica,Arial,sans-serif" font-size="9.98">LIYCY (TP)</text><text transform="matrix(.9355 0 0 1 215.797 48.065)" font-family="Helvetica,Arial,sans-serif" font-size="9.98">3x2x</text><text transform="matrix(.9355 0 0 1 239.271 48.065)" font-family="Helvetica,Arial,sans-serif" font-size="9.98">0</text><text transform="matrix(.9355 0 0 1 244.513 48.065)" font-family="Helvetica,Arial,sans-serif" font-size="9.98">,</text><text transform="matrix(.9355 0 0 1 245.413 48.065)" font-family="Helvetica,Arial,sans-serif" font-size="9.98" letter-spacing="-1.1">1</text><text transform="matrix(.9355 0 0 1 248.975 48.065)" font-family="Helvetica,Arial,sans-serif" font-size="9.98">4mm</text><text transform="matrix(.5454 0 0 .583 270.583 44.741)" font-family="Helvetica,Arial,sans-serif" font-size="9.98">2</text><text transform="matrix(.9355 0 0 1 94.911 95.25)" font-family="Helvetica,Arial,sans-serif" font-size="9.98">5</text><text transform="matrix(.9355 0 0 1 94.911 111.294)" font-family="Helvetica,Arial,sans-serif" font-size="9.98">2</text><text transform="matrix(.9355 0 0 1 94.911 126.58)" font-family="Helvetica,Arial,sans-serif" font-size="9.98">3</text><text transform="matrix(.9355 0 0 1 94.911 142.499)" font-family="Helvetica,Arial,sans-serif" font-size="9.98">4</text><text transform="matrix(.9355 0 0 1 94.911 158.038)" font-family="Helvetica,Arial,sans-serif" font-size="9.98">1</text><text transform="matrix(.9355 0 0 1 271.831 79.966)" font-family="Helvetica,Arial,sans-serif" font-size="9.98">wh</text><text transform="matrix(.9355 0 0 1 271.831 95.25)" font-family="Helvetica,Arial,sans-serif" font-size="9.98">gy</text><text transform="matrix(.9355 0 0 1 271.831 111.294)" font-family="Helvetica,Arial,sans-serif" font-size="9.98">pk</text><text transform="matrix(.9355 0 0 1 271.831 126.58)" font-family="Helvetica,Arial,sans-serif" font-size="9.98">gn</text><text transform="matrix(.9355 0 0 1 271.831 142.499)" font-family="Helvetica,Arial,sans-serif" font-size="9.98">ye</text><text transform="matrix(.9355 0 0 1 271.831 158.038)" font-family="Helvetica,Arial,sans-serif" font-size="9.98">bn</text><text transform="matrix(.9355 0 0 1 615.566 126.77)"><tspan x="0" y="0" font-family="Helvetica,Arial,sans-serif" font-size="9.98">Direct access</tspan><tspan x="0" y="12" font-family="Helvetica,Arial,sans-serif" font-size="9.98">to camera I/Os</tspan></text><text transform="matrix(.9355 0 0 1 615.566 228.719)"><tspan x="0" y="0" font-family="Helvetica,Arial,sans-serif" font-size="9.98">Connect to supply power to</tspan><tspan x="0" y="12" font-family="Helvetica,Arial,sans-serif" font-size="9.98">ace/ace 2 GigE</tspan></text><text transform="matrix(.9355 0 0 1 615.742 275.904)"><tspan x="0" y="0" font-family="Helvetica,Arial,sans-serif" font-size="9.98">Use as GPIO </tspan><tspan x="0" y="12" font-family="Helvetica,Arial,sans-serif" font-size="9.98">(ace USB only)</tspan></text><text transform="matrix(.9355 0 0 1 615.566 197.726)"><tspan x="0" y="0" font-family="Helvetica,Arial,sans-serif" font-size="9.98">Ground</tspan><tspan x="0" y="12" font-family="Helvetica,Arial,sans-serif" font-size="9.98">24VDC</tspan></text><text transform="matrix(.9355 0 0 1 615.566 518.638)"><tspan x="0" y="0" font-family="Helvetica,Arial,sans-serif" font-size="9.98">Ground</tspan><tspan x="0" y="12" font-family="Helvetica,Arial,sans-serif" font-size="9.98">24VDC</tspan></text><text transform="matrix(.9355 0 0 1 316.031 187.951)" font-family="Helvetica,Arial,sans-serif" font-size="13.307">Lighting</text><text transform="matrix(.9355 0 0 1 329.445 205.41)" font-family="Helvetica,Arial,sans-serif" font-size="9.98">Light +</text><text transform="matrix(.9355 0 0 1 329.445 220.571)" font-family="Helvetica,Arial,sans-serif" font-size="9.98">Light</text><text transform="matrix(1.6839 0 0 1 354.787 220.571)" font-family="Helvetica,Arial,sans-serif" font-size="9.98">-</text><text transform="matrix(.9355 0 0 1 13.424 507.349)" font-family="Helvetica,Arial,sans-serif" font-size="13.307">Light</text><text transform="matrix(.9355 0 0 1 125.226 415.63)" font-family="Helvetica,Arial,sans-serif" font-size="13.307">Daisy-Chain Connection</text><text transform="matrix(.9355 0 0 1 60.48 533.303)" font-family="Helvetica,Arial,sans-serif" font-size="9.98">Light +</text><text transform="matrix(.9355 0 0 1 60.48 548.462)" font-family="Helvetica,Arial,sans-serif" font-size="9.98">Light</text><text transform="matrix(1.6839 0 0 1 85.823 548.462)" font-family="Helvetica,Arial,sans-serif" font-size="9.98">-</text><text transform="matrix(.9355 0 0 1 13.424 234.474)" font-family="Helvetica,Arial,sans-serif" font-size="13.307">Light</text><text transform="matrix(.9355 0 0 1 13.424 62.032)" font-family="Helvetica,Arial,sans-serif" font-size="13.307">Camera</text><text transform="matrix(.9355 0 0 1 60.48 259.48)" font-family="Helvetica,Arial,sans-serif" font-size="9.98">Light +</text><text transform="matrix(.9355 0 0 1 60.48 274.64)" font-family="Helvetica,Arial,sans-serif" font-size="9.98">Light</text><text transform="matrix(1.6839 0 0 1 85.823 274.64)" font-family="Helvetica,Arial,sans-serif" font-size="9.98">-</text><text transform="matrix(.9355 0 0 1 329.445 236.204)" font-family="Helvetica,Arial,sans-serif" font-size="9.98">Light Data</text><text transform="matrix(.9355 0 0 1 329.445 251.79)" font-family="Helvetica,Arial,sans-serif" font-size="9.98">GND</text><text transform="matrix(.9355 0 0 1 329.445 267.708)" font-family="Helvetica,Arial,sans-serif" font-size="9.98">SLP Comm</text><text transform="matrix(.9355 0 0 1 329.445 283.435)" font-family="Helvetica,Arial,sans-serif" font-size="9.98">GND</text><text transform="matrix(.9355 0 0 1 513.99 95.361)" font-family="Helvetica,Arial,sans-serif" font-size="9.98">Opto GND</text><text transform="matrix(.9355 0 0 1 525.437 110.9)" font-family="Helvetica,Arial,sans-serif" font-size="9.98">Opto In</text><text transform="matrix(.9355 0 0 1 513.99 126.629)" font-family="Helvetica,Arial,sans-serif" font-size="9.98">Opto GND</text><text transform="matrix(.9355 0 0 1 503.764 142.215)" font-family="Helvetica,Arial,sans-serif" font-size="9.98">Camera I/02</text><text transform="matrix(.9355 0 0 1 536.332 158.275)" font-family="Helvetica,Arial,sans-serif" font-size="9.98">GND</text><text transform="matrix(.9355 0 0 1 534.263 173.577)" font-family="Helvetica,Arial,sans-serif" font-size="9.98">GPIO</text><text transform="matrix(.9355 0 0 1 507.685 189.304)" font-family="Helvetica,Arial,sans-serif" font-size="9.98">Power GND</text><text transform="matrix(.9355 0 0 1 510.397 204.985)" font-family="Helvetica,Arial,sans-serif" font-size="9.98">24V Power</text><text transform="matrix(.9355 0 0 1 536.332 220.571)" font-family="Helvetica,Arial,sans-serif" font-size="9.98">GND</text><text transform="matrix(.9355 0 0 1 522.118 236.3)" font-family="Helvetica,Arial,sans-serif" font-size="9.98">24V Out</text><text transform="matrix(.9355 0 0 1 536.332 251.648)" font-family="Helvetica,Arial,sans-serif" font-size="9.98">GND</text><text transform="matrix(.9355 0 0 1 494.3 266.856)" font-family="Helvetica,Arial,sans-serif" font-size="9.98">Camera Power</text><text transform="matrix(.9355 0 0 1 329.445 95.408)" font-family="Helvetica,Arial,sans-serif" font-size="9.98">Opto GND</text><text transform="matrix(.9355 0 0 1 329.445 110.98)" font-family="Helvetica,Arial,sans-serif" font-size="9.98">Opto In</text><text transform="matrix(.9355 0 0 1 329.445 126.77)" font-family="Helvetica,Arial,sans-serif" font-size="9.98">SLP Comm</text><text transform="matrix(.9355 0 0 1 329.445 142.278)" font-family="Helvetica,Arial,sans-serif" font-size="9.98">Camera I/02</text><text transform="matrix(.9355 0 0 1 329.445 158.1)" font-family="Helvetica,Arial,sans-serif" font-size="9.98">Camera Power</text><text transform="matrix(.9355 0 0 1 354.878 345.127)" font-family="Helvetica,Arial,sans-serif" font-size="14.97">Basler SLP Strobe Controller</text><text transform="matrix(.9355 0 0 1 316.031 382.849)" font-family="Helvetica,Arial,sans-serif" font-size="13.307">Camera</text><text transform="matrix(.9355 0 0 1 498.093 382.849)" font-family="Helvetica,Arial,sans-serif" font-size="13.307">Power &amp; I/0</text><text transform="matrix(.9355 0 0 1 329.445 400.309)" font-family="Helvetica,Arial,sans-serif" font-size="9.98">Camera GND</text><text transform="matrix(.9355 0 0 1 316.031 508.295)" font-family="Helvetica,Arial,sans-serif" font-size="13.307">Lighting</text><text transform="matrix(.9355 0 0 1 329.445 525.754)" font-family="Helvetica,Arial,sans-serif" font-size="9.98">Light +</text><text transform="matrix(.9355 0 0 1 329.445 540.914)" font-family="Helvetica,Arial,sans-serif" font-size="9.98">Light</text><text transform="matrix(1.6839 0 0 1 354.787 540.914)" font-family="Helvetica,Arial,sans-serif" font-size="9.98">-</text><text transform="matrix(.9355 0 0 1 329.445 556.547)" font-family="Helvetica,Arial,sans-serif" font-size="9.98">Light Data</text><text transform="matrix(.9355 0 0 1 329.445 572.132)" font-family="Helvetica,Arial,sans-serif" font-size="9.98">GND</text><text transform="matrix(.9355 0 0 1 329.445 588.05)" font-family="Helvetica,Arial,sans-serif" font-size="9.98">SLP Comm</text><text transform="matrix(.9355 0 0 1 329.445 603.778)" font-family="Helvetica,Arial,sans-serif" font-size="9.98">GND</text><text transform="matrix(.9355 0 0 1 513.99 415.703)" font-family="Helvetica,Arial,sans-serif" font-size="9.98">Opto GND</text><text transform="matrix(.9355 0 0 1 525.437 431.243)" font-family="Helvetica,Arial,sans-serif" font-size="9.98">Opto In</text><text transform="matrix(.9355 0 0 1 513.99 446.97)" font-family="Helvetica,Arial,sans-serif" font-size="9.98">Opto GND</text><text transform="matrix(.9355 0 0 1 503.764 462.558)" font-family="Helvetica,Arial,sans-serif" font-size="9.98">Camera I/02</text><text transform="matrix(.9355 0 0 1 536.332 478.617)" font-family="Helvetica,Arial,sans-serif" font-size="9.98">GND</text><text transform="matrix(.9355 0 0 1 534.263 493.918)" font-family="Helvetica,Arial,sans-serif" font-size="9.98">GPIO</text><text transform="matrix(.9355 0 0 1 507.685 509.647)" font-family="Helvetica,Arial,sans-serif" font-size="9.98">Power GND</text><text transform="matrix(.9355 0 0 1 510.397 525.33)" font-family="Helvetica,Arial,sans-serif" font-size="9.98">24V Power</text><text transform="matrix(.9355 0 0 1 536.332 540.914)" font-family="Helvetica,Arial,sans-serif" font-size="9.98">GND</text><text transform="matrix(.9355 0 0 1 522.118 556.64)" font-family="Helvetica,Arial,sans-serif" font-size="9.98">24V Out</text><text transform="matrix(.9355 0 0 1 536.332 571.991)" font-family="Helvetica,Arial,sans-serif" font-size="9.98">GND</text><text transform="matrix(.9355 0 0 1 494.3 587.197)" font-family="Helvetica,Arial,sans-serif" font-size="9.98">Camera Power</text><text transform="matrix(.9355 0 0 1 329.445 415.752)" font-family="Helvetica,Arial,sans-serif" font-size="9.98">Opto GND</text><text transform="matrix(.9355 0 0 1 329.445 431.32)" font-family="Helvetica,Arial,sans-serif" font-size="9.98">Opto In</text><text transform="matrix(.9355 0 0 1 329.445 447.113)" font-family="Helvetica,Arial,sans-serif" font-size="9.98">SLP Comm</text><text transform="matrix(.9355 0 0 1 329.445 462.62)" font-family="Helvetica,Arial,sans-serif" font-size="9.98">Camera I/02</text><text transform="matrix(.9355 0 0 1 329.445 478.442)" font-family="Helvetica,Arial,sans-serif" font-size="9.98">Camera Power</text></svg>