<svg version="1.0" xmlns="http://www.w3.org/2000/svg" viewBox="0 0 520 314"><text transform="translate(30.382 269.117)" font-family="Helvetica,Arial,sans-serif" font-size="8">0.0</text><text transform="translate(30.585 219.747)" font-family="Helvetica,Arial,sans-serif" font-size="8">0.2</text><text transform="translate(30.549 171.689)" font-family="Helvetica,Arial,sans-serif" font-size="8">0.4</text><text transform="translate(30.564 122.166)" font-family="Helvetica,Arial,sans-serif" font-size="8">0.6</text><text transform="translate(30.44 71.457)" font-family="Helvetica,Arial,sans-serif" font-size="8">0.8</text><text transform="translate(30.572 23.703)" font-family="Helvetica,Arial,sans-serif" font-size="8">1.0</text><text transform="translate(43.175 282.793)" font-family="Helvetica,Arial,sans-serif" font-size="8">400</text><text transform="translate(113.766 282.834)" font-family="Helvetica,Arial,sans-serif" font-size="8">500</text><text transform="translate(188.182 282.77)" font-family="Helvetica,Arial,sans-serif" font-size="8">600</text><text transform="translate(262.532 282.887)" font-family="Helvetica,Arial,sans-serif" font-size="8">700</text><text transform="translate(339.904 282.85)" font-family="Helvetica,Arial,sans-serif" font-size="8">800</text><text transform="translate(411.1 282.81)" font-family="Helvetica,Arial,sans-serif" font-size="8">900</text><text transform="translate(484.019 282.912)" font-family="Helvetica,Arial,sans-serif" font-size="8">1000</text><text transform="rotate(-90 105.973 87.55)" fill="#1E1E1C" font-family="Helvetica,Arial,sans-serif" font-size="12">Relative Response</text><text transform="translate(231.182 303.805)" fill="#010202" font-family="Helvetica,Arial,sans-serif" font-size="12">Wavelength (nm)</text><g fill="none" stroke="#1E1F1D" stroke-miterlimit="10"><path stroke-width=".227" d="M47.4 70H493M47.4 94.8H493M47.4 119.7h445.9M47.5 144.6h445.6M47.5 169.5h445.6M47.5 194.3h445.6M47.5 219.1h445.6M47.5 243.9h445.1M47.5 45.1h445.6M84 20.1v248.5m37.3-248.5v248.6m37.2-248.4v248.4m37.1-248v248m37.3-249.2v249.2m74.3-249v249m37.2-248.6v248.6m37.2-248.6v248.6m37.2-247.9v247.8M456 20.1v248.5M270 20.2v248.6"/><path stroke-width=".709" d="M47.5 20.1h445.8v248.6H47.5z"/></g><path fill="none" stroke="#1E1E1C" stroke-miterlimit="10" d="M48.1 145.7l15.6-30.4S72 101.9 74.2 99c2.2-2.8 8.7-11.1 13.4-14.7 4.8-3.5 3.6-3.7 4.6-4.8 1-1.1 3.7-2.7 5.4-3.7 1.7-1.1 3.9-3 4.8-4.1.9-1.1 3.4-2.5 4.4-3.2 1-.7 3.4-1.6 4.4-2.5 1-.9 7.8-6.2 9.2-7.1 1.4-.9 11.7-9.6 13.1-11.3 1.4-1.8 10.2-8.7 13.1-10.3 2.9-1.6 7.6-4.4 10.4-5.3 2.7-.9 14.3-5 15.3-5.1 1-.2 9-5.5 19.2-5.7 10.2-.2 11.2 2.3 13.9 1.9 2.7-.4 12.6 0 17.2.9s7.6 2.8 11.2 4.6c3.6 1.8 28.2 20.2 29.2 20.7s22.8 17.2 24.8 19.1c2 1.9 16.5 17.2 18.4 19.1 1.9 1.9 16.3 11.9 19.5 16.3 3.2 4.4 18 24.9 19.4 26.5 1.4 1.6 15 15 18.7 18.9 3.7 3.9 9.9 12.4 12.1 13.8 2.2 1.4 17 14.7 19.9 18 2.9 3.4 17.7 19.5 20.9 22.5 3.2 3 17.3 14.2 21.6 16.8 4.2 2.7 11.9 9.9 16 12.4s19.2 10.8 22.6 12.6c3.4 1.8 18 9.9 18 9.9"/></svg>