<svg version="1.0" xmlns="http://www.w3.org/2000/svg" viewBox="0 0 550 118.8"><path fill-rule="evenodd" clip-rule="evenodd" fill="#BDE4F7" stroke="#000" stroke-width=".425" stroke-miterlimit="3.864" d="M105.9 28.5h371.6V84H105.9z"/><path fill="none" stroke="#000" stroke-miterlimit="3.864" d="M476.8 28.5V84"/><path fill="#F1F2F2" d="M229.8 47h24.7v24.7h-24.7V47z"/><path fill="none" stroke="#000" stroke-width=".567" stroke-miterlimit="3.864" d="M229.8 47h24.7v24.7h-24.7V47z"/><path fill="#F1F2F2" d="M56.4 47h24.7v24.7H56.4V47z"/><path fill="none" stroke="#000" stroke-width=".567" stroke-miterlimit="3.864" d="M56.4 47h24.7v24.7H56.4V47z"/><path fill="#F1F2F2" d="M81.1 47h24.8v24.7H81.1V47z"/><path fill="none" stroke="#000" stroke-width=".567" stroke-miterlimit="3.864" d="M81.1 47h24.8v24.7H81.1V47z"/><path fill="#F1F2F2" d="M105.9 47h24.8v24.7h-24.8V47z"/><path fill="none" stroke="#000" stroke-width=".567" stroke-miterlimit="3.864" d="M105.9 47h24.8v24.7h-24.8V47z"/><path fill="#F1F2F2" d="M130.7 47h24.8v24.7h-24.8V47z"/><path fill="none" stroke="#000" stroke-width=".567" stroke-miterlimit="3.864" d="M130.7 47h24.8v24.7h-24.8V47z"/><path fill="#F1F2F2" d="M155.5 47h24.7v24.7h-24.7V47z"/><path fill="none" stroke="#000" stroke-width=".567" stroke-miterlimit="3.864" d="M155.5 47h24.7v24.7h-24.7V47z"/><path fill="#F1F2F2" d="M180.2 47H205v24.7h-24.8V47z"/><path fill="none" stroke="#000" stroke-width=".567" stroke-miterlimit="3.864" d="M180.2 47H205v24.7h-24.8V47z"/><path fill="#F1F2F2" d="M205 47h24.8v24.7H205V47z"/><path fill="none" stroke="#000" stroke-width=".567" stroke-miterlimit="3.864" d="M205 47h24.8v24.7H205V47z"/><path fill="#F1F2F2" d="M254.5 47h24.8v24.7h-24.8V47z"/><path fill="none" stroke="#000" stroke-width=".567" stroke-miterlimit="3.864" d="M254.5 47h24.8v24.7h-24.8V47z"/><path fill="#F1F2F2" d="M279.3 47h24.8v24.7h-24.8V47z"/><path fill="none" stroke="#000" stroke-width=".567" stroke-miterlimit="3.864" d="M279.3 47h24.8v24.7h-24.8V47z"/><path fill="#F1F2F2" d="M304.1 47h24.8v24.7h-24.8V47z"/><path fill="none" stroke="#000" stroke-width=".567" stroke-miterlimit="3.864" d="M304.1 47h24.8v24.7h-24.8V47z"/><g clip-rule="evenodd"><path fill-rule="evenodd" fill="#FFF" d="M25.2 52.9v3.9h19.5v5.5H25.1v3.8L10 59.5z"/><path fill="none" stroke="#000" stroke-miterlimit="3.864" d="M25.2 52.9v3.9h19.5v5.5H25.1v3.8L10 59.5z"/></g><path fill="#F9CCD1" d="M328.9 47h24.7v24.7h-24.7V47z"/><path fill="#F9CCD1" stroke="#000" stroke-width=".567" stroke-miterlimit="3.864" d="M328.9 47h24.7v24.7h-24.7V47zm24.7 0h24.8v24.7h-24.8V47z"/><path fill="#F9CCD1" stroke="#000" stroke-width=".567" stroke-miterlimit="3.864" d="M353.6 47h24.8v24.7h-24.8V47z"/><path fill="#F9CCD1" stroke="#000" stroke-width=".567" stroke-miterlimit="3.864" d="M378.4 47h24.8v24.7h-24.8V47z"/><path fill="#F9CCD1" stroke="#000" stroke-width=".567" stroke-miterlimit="3.864" d="M378.4 47h24.8v24.7h-24.8V47z"/><path fill="#F1F2F2" d="M427.9 47h24.8v24.7h-24.8V47z"/><path fill="none" stroke="#000" stroke-width=".567" stroke-miterlimit="3.864" d="M427.9 47h24.8v24.7h-24.8V47z"/><path fill="#F1F2F2" d="M452.7 47h24.8v24.7h-24.8V47z"/><path fill="none" stroke="#000" stroke-width=".567" stroke-miterlimit="3.864" d="M452.7 47h24.8v24.7h-24.8V47z"/><path fill="#FFF" d="M477.5 47h24.8v24.7h-24.8V47z"/><path fill="none" stroke="#000" stroke-width=".567" stroke-miterlimit="3.864" d="M477.5 47h24.8v24.7h-24.8V47z"/><path fill="#FFF" d="M502.3 47H527v24.7h-24.7V47z"/><path fill="none" stroke="#000" stroke-width=".567" stroke-miterlimit="3.864" d="M502.3 47H527v24.7h-24.7V47z"/><g clip-rule="evenodd"><path fill-rule="evenodd" fill="#FFF" d="M526.9 47h7.7c-2.9 6.8 1.1 17.3 0 24.8-4.3-.1-7.7 0-7.7 0V47z"/><path fill="none" stroke="#000" stroke-width=".567" stroke-miterlimit="3.864" d="M526.9 47h7.7c-2.9 6.8 1.1 17.3 0 24.8-4.3-.1-7.7 0-7.7 0V47z"/></g><g clip-rule="evenodd"><path fill-rule="evenodd" fill="#F1F2F2" d="M56.5 71.7h-6.6c2.5-6.8-.9-17.3 0-24.8 3.7.1 6.6 0 6.6 0v24.8z"/><path fill="none" stroke="#000" stroke-width=".567" stroke-miterlimit="3.864" d="M56.5 71.7h-6.6c2.5-6.8-.9-17.3 0-24.8 3.7.1 6.6 0 6.6 0v24.8z"/></g><g fill="#F9CCD1" stroke="#000" stroke-width=".567" stroke-miterlimit="3.864"><path d="M403.2 47H428v24.7h-24.8V47z"/><path d="M403.2 47H428v24.7h-24.8V47z"/></g><path fill="none" d="M263.1 54.6h14.6v9.6h-14.6z"/><text transform="translate(263.06 63.538)" font-family="Helvetica,Arial,sans-serif" font-size="8.5">96</text><path fill="none" d="M288.1 54.6h14.6v9.6h-14.6z"/><text transform="translate(288.147 63.54)" font-family="Helvetica,Arial,sans-serif" font-size="8.5">97</text><path fill="none" d="M313.2 54.6h17v9.6h-17z"/><text transform="translate(313.176 63.538)" font-family="Helvetica,Arial,sans-serif" font-size="8.5">98</text><path fill="none" d="M337.1 54.6h14.6v9.6h-14.6z"/><text transform="translate(337.074 63.539)" font-family="Helvetica,Arial,sans-serif" font-size="8.5">99</text><path fill="none" d="M358.4 54.6h19.5v9.6h-19.5z"/><text transform="translate(358.4 63.538)" font-family="Helvetica,Arial,sans-serif" font-size="8.5">100</text><path fill="none" d="M383.1 54.6h19.5v9.6h-19.5z"/><text transform="translate(383.146 63.538)" font-family="Helvetica,Arial,sans-serif" font-size="8.5">101</text><path fill="none" d="M407.5 54.6h21.9v9.6h-21.9z"/><text transform="translate(407.503 63.538)" font-family="Helvetica,Arial,sans-serif" font-size="8.5">102</text><path fill="none" d="M432.5 54.6H452v9.6h-19.5z"/><text transform="translate(432.486 63.539)" font-family="Helvetica,Arial,sans-serif" font-size="8.5">103</text><path fill="none" d="M457.2 54.6h19.5v9.6h-19.5z"/><text transform="translate(457.241 63.538)" font-family="Helvetica,Arial,sans-serif" font-size="8.5">104</text><path fill="none" d="M481.6 54.6h19.5v9.6h-19.5z"/><text transform="translate(481.634 63.538)" font-family="Helvetica,Arial,sans-serif" font-size="8.5">105</text><path fill="none" d="M506.4 54.6h19.5v9.6h-19.5z"/><text transform="translate(506.377 63.538)" font-family="Helvetica,Arial,sans-serif" font-size="8.5">106</text><path fill="none" d="M238 54.6h14.6v9.6H238z"/><text transform="translate(237.966 63.54)" font-family="Helvetica,Arial,sans-serif" font-size="8.5">95</text><path fill="none" d="M213.3 54.6h14.6v9.6h-14.6z"/><text transform="translate(213.289 63.538)" font-family="Helvetica,Arial,sans-serif" font-size="8.5">94</text><path fill="none" d="M188.1 54.6h17v9.6h-17z"/><text transform="translate(188.125 63.538)" font-family="Helvetica,Arial,sans-serif" font-size="8.5">93</text><path fill="none" d="M163.6 54.6h14.6v9.6h-14.6z"/><text transform="translate(163.594 63.54)" font-family="Helvetica,Arial,sans-serif" font-size="8.5">92</text><path fill="none" d="M139 54.6h14.6v9.6H139z"/><text transform="translate(138.987 63.538)" font-family="Helvetica,Arial,sans-serif" font-size="8.5">91</text><path fill="none" d="M114 54.6h14.6v9.6H114z"/><text transform="translate(113.992 63.538)" font-family="Helvetica,Arial,sans-serif" font-size="8.5">90</text><path fill="none" d="M89.8 54.6h14.6v9.6H89.8z"/><text transform="translate(89.757 63.538)" font-family="Helvetica,Arial,sans-serif" font-size="8.5">89</text><path fill="none" d="M64.4 54.6H79v9.6H64.4z"/><text transform="translate(64.376 63.538)" font-family="Helvetica,Arial,sans-serif" font-size="8.5">88</text><g clip-rule="evenodd"><path fill-rule="evenodd" d="M531.2 94.4v-1.6l3.6 1.6-3.6 1.6z"/><path fill="none" stroke="#000" stroke-width=".567" stroke-miterlimit="3.864" d="M56.5 94.4h474.9"/></g><text transform="translate(490.382 110)" font-family="Helvetica,Arial,sans-serif" font-size="12">Time</text><text transform="translate(242.163 41.554)" font-family="Helvetica,Arial,sans-serif" font-size="12">Receive window</text><text transform="translate(50.73 84.003)" font-family="Helvetica,Arial,sans-serif" font-size="10">Frames</text><text transform="translate(457.753 22.887)" font-family="Helvetica,Arial,sans-serif" font-size="9">Start</text><path fill="none" stroke="#000" stroke-miterlimit="10" d="M353.6 17.5l-8.9 35.4"/><text transform="translate(293.957 13.5)" font-family="Helvetica,Arial,sans-serif" font-size="10">Frames with missing packets</text></svg>