<svg version="1.0" xmlns="http://www.w3.org/2000/svg" viewBox="0 0 600 360"><path fill="#BDE4F7" d="M93.5 114.6h191.8v120H93.5v-120z"/><path fill="#BDE4F7" stroke="#FFF" stroke-miterlimit="3.864" d="M93.5 114.6h191.8v120H93.5v-120z"/><path fill="none" d="M73.6 31.2h3.7v9h-3.7z"/><text transform="translate(73.617 39.895)" font-family="Helvetica,Arial,sans-serif" font-size="8">0</text><path fill="none" d="M85.6 31.2h3.7v9h-3.7z"/><text transform="translate(85.617 39.895)" font-family="Helvetica,Arial,sans-serif" font-size="8">1</text><path fill="none" d="M62.9 43.2h3.7v9h-3.7z"/><text transform="translate(62.946 51.86)" font-family="Helvetica,Arial,sans-serif" font-size="8">0</text><path fill="none" stroke="#000" stroke-width=".5" stroke-miterlimit="3.864" d="M71.4 44.8h8v8h-8v-8zm12 0h8v8h-8v-8z"/><path fill="none" d="M97.6 31.2h3.7v9h-3.7z"/><text transform="translate(97.617 39.895)" font-family="Helvetica,Arial,sans-serif" font-size="8">2</text><path fill="none" d="M109.6 31.2h3.7v9h-3.7z"/><text transform="translate(109.617 39.895)" font-family="Helvetica,Arial,sans-serif" font-size="8">3</text><path fill="none" stroke="#000" stroke-width=".5" stroke-miterlimit="3.864" d="M95.4 44.8h8v8h-8v-8zm12 0h8v8h-8v-8z"/><path fill="none" d="M121.6 31.2h3.7v9h-3.7z"/><text transform="translate(121.617 39.895)" font-family="Helvetica,Arial,sans-serif" font-size="8">4</text><path fill="none" d="M133.6 31.2h3.7v9h-3.7z"/><text transform="translate(133.617 39.895)" font-family="Helvetica,Arial,sans-serif" font-size="8">5</text><path fill="none" stroke="#000" stroke-width=".5" stroke-miterlimit="3.864" d="M119.4 44.8h8v8h-8v-8zm12 0h8v8h-8v-8z"/><path fill="none" d="M145.6 31.2h3.7v9h-3.7z"/><text transform="translate(145.617 39.895)" font-family="Helvetica,Arial,sans-serif" font-size="8">6</text><path fill="none" d="M157.6 31.2h3.7v9h-3.7z"/><text transform="translate(157.617 39.895)" font-family="Helvetica,Arial,sans-serif" font-size="8">7</text><path fill="none" stroke="#000" stroke-width=".5" stroke-miterlimit="3.864" d="M143.4 44.8h8v8h-8v-8zm12 0h8v8h-8v-8z"/><path fill="none" d="M169.6 31.2h3.7v9h-3.7z"/><text transform="translate(169.617 39.895)" font-family="Helvetica,Arial,sans-serif" font-size="8">8</text><path fill="none" d="M181 31.2h3.7v9H181z"/><text transform="translate(181.018 39.895)" font-family="Helvetica,Arial,sans-serif" font-size="8">9</text><path fill="none" stroke="#000" stroke-width=".5" stroke-miterlimit="3.864" d="M167.4 44.8h8v8h-8v-8zm12 0h8v8h-8v-8z"/><path fill="none" d="M191.8 30.9h7.4v9h-7.4z"/><text transform="translate(191.84 39.586)" font-family="Helvetica,Arial,sans-serif" font-size="8">10</text><path fill="none" d="M203.8 30.9h6.9v9h-6.9z"/><text transform="translate(203.845 39.586)"><tspan x="0" y="0" font-family="Helvetica,Arial,sans-serif" font-size="8">1</tspan><tspan x="3.2" y="0" font-family="Helvetica,Arial,sans-serif" font-size="8">1</tspan></text><path fill="none" stroke="#000" stroke-width=".5" stroke-miterlimit="3.864" d="M191.4 44.8h8v8h-8v-8zm12 0h8v8h-8v-8z"/><path fill="none" d="M215.8 30.9h7.4v9h-7.4z"/><text transform="translate(215.84 39.586)" font-family="Helvetica,Arial,sans-serif" font-size="8">12</text><path fill="none" d="M227.8 30.9h7.4v9h-7.4z"/><text transform="translate(227.84 39.586)" font-family="Helvetica,Arial,sans-serif" font-size="8">13</text><path fill="none" stroke="#000" stroke-width=".5" stroke-miterlimit="3.864" d="M215.4 44.8h8v8h-8v-8zm12 0h8v8h-8v-8z"/><path fill="none" d="M239.8 30.9h7.4v9h-7.4z"/><text transform="translate(239.84 39.586)" font-family="Helvetica,Arial,sans-serif" font-size="8">14</text><path fill="none" d="M251.8 30.9h7.3v9h-7.3z"/><text transform="translate(251.833 39.586)" font-family="Helvetica,Arial,sans-serif" font-size="8">15</text><path fill="none" stroke="#000" stroke-width=".5" stroke-miterlimit="3.864" d="M239.4 44.8h8v8h-8v-8zm12 0h8v8h-8v-8z"/><path fill="none" d="M263.8 30.9h7.3v9h-7.3z"/><text transform="translate(263.813 39.586)" font-family="Helvetica,Arial,sans-serif" font-size="8">16</text><path fill="none" d="M275.8 30.9h7.4v9h-7.4z"/><text transform="translate(275.81 39.586)" font-family="Helvetica,Arial,sans-serif" font-size="8">17</text><path fill="none" stroke="#000" stroke-width=".5" stroke-miterlimit="3.864" d="M263.4 44.8h8v8h-8v-8zm12 0h8v8h-8v-8z"/><path fill="none" d="M287.8 30.9h7.4v9h-7.4z"/><text transform="translate(287.81 39.586)" font-family="Helvetica,Arial,sans-serif" font-size="8">18</text><path fill="none" d="M299.8 30.9h7.4v9h-7.4z"/><text transform="translate(299.81 39.586)" font-family="Helvetica,Arial,sans-serif" font-size="8">19</text><path fill="none" stroke="#000" stroke-width=".5" stroke-miterlimit="3.864" d="M287.4 44.8h8v8h-8v-8zm12 0h8v8h-8v-8z"/><path fill="none" d="M311.8 30.9h7.4v9h-7.4z"/><text transform="translate(311.81 39.586)" font-family="Helvetica,Arial,sans-serif" font-size="8">20</text><path fill="none" d="M323.8 30.9h7.4v9h-7.4z"/><text transform="translate(323.81 39.586)" font-family="Helvetica,Arial,sans-serif" font-size="8">21</text><path fill="none" stroke="#000" stroke-width=".5" stroke-miterlimit="3.864" d="M311.4 44.8h8v8h-8v-8zm12 0h8v8h-8v-8z"/><path fill="none" d="M335.8 30.9h7.4v9h-7.4z"/><text transform="translate(335.81 39.586)" font-family="Helvetica,Arial,sans-serif" font-size="8">22</text><path fill="none" d="M347.8 30.9h7.4v9h-7.4z"/><text transform="translate(347.81 39.586)" font-family="Helvetica,Arial,sans-serif" font-size="8">23</text><path fill="none" stroke="#000" stroke-width=".5" stroke-miterlimit="3.864" d="M335.4 44.8h8v8h-8v-8zm12 0h8v8h-8v-8z"/><path fill="none" d="M359.8 30.9h7.4v9h-7.4z"/><text transform="translate(359.81 39.586)" font-family="Helvetica,Arial,sans-serif" font-size="8">24</text><path fill="none" d="M371.8 30.9h7.4v9h-7.4z"/><text transform="translate(371.81 39.586)" font-family="Helvetica,Arial,sans-serif" font-size="8">25</text><path fill="none" stroke="#000" stroke-width=".5" stroke-miterlimit="3.864" d="M359.4 44.8h8v8h-8v-8zm12 0h8v8h-8v-8z"/><path fill="none" d="M383.8 30.9h7.4v9h-7.4z"/><text transform="translate(383.81 39.586)" font-family="Helvetica,Arial,sans-serif" font-size="8">26</text><path fill="none" d="M395.8 30.9h7.4v9h-7.4z"/><text transform="translate(395.81 39.586)" font-family="Helvetica,Arial,sans-serif" font-size="8">27</text><path fill="none" stroke="#000" stroke-width=".5" stroke-miterlimit="3.864" d="M383.4 44.8h8v8h-8v-8zm12 0h8v8h-8v-8z"/><path fill="none" d="M407.8 30.9h7.4v9h-7.4z"/><text transform="translate(407.81 39.586)" font-family="Helvetica,Arial,sans-serif" font-size="8">28</text><path fill="none" d="M419.8 30.9h7.4v9h-7.4z"/><text transform="translate(419.81 39.586)" font-family="Helvetica,Arial,sans-serif" font-size="8">29</text><path fill="none" stroke="#000" stroke-width=".5" stroke-miterlimit="3.864" d="M407.4 44.8h8v8h-8v-8zm12 0h8v8h-8v-8z"/><path fill="none" d="M431.8 30.9h7.4v9h-7.4z"/><text transform="translate(431.81 39.586)" font-family="Helvetica,Arial,sans-serif" font-size="8">30</text><path fill="none" stroke="#000" stroke-width=".5" stroke-miterlimit="3.864" d="M431.4 44.8h8v8h-8v-8zm12 0h8v8h-8v-8zm-372 12h8v8h-8v-8zm12 0h8v8h-8v-8zm12 0h8v8h-8v-8zm12 0h8v8h-8v-8zm12 0h8v8h-8v-8zm12 0h8v8h-8v-8zm12 0h8v8h-8v-8zm12 0h8v8h-8v-8zm12 0h8v8h-8v-8zm12 0h8v8h-8v-8zm12 0h8v8h-8v-8zm12 0h8v8h-8v-8zm12 0h8v8h-8v-8zm12 0h8v8h-8v-8zm12 0h8v8h-8v-8zm12 0h8v8h-8v-8zm12 0h8v8h-8v-8zm12 0h8v8h-8v-8zm12 0h8v8h-8v-8zm12 0h8v8h-8v-8zm12 0h8v8h-8v-8zm12 0h8v8h-8v-8zm12 0h8v8h-8v-8zm12 0h8v8h-8v-8zm12 0h8v8h-8v-8zm12 0h8v8h-8v-8zm12 0h8v8h-8v-8zm12 0h8v8h-8v-8zm12 0h8v8h-8v-8zm12 0h8v8h-8v-8zm12 0h8v8h-8v-8zm12 0h8v8h-8v-8zm-372 12h8v8h-8v-8zm12 0h8v8h-8v-8zm12 0h8v8h-8v-8zm12 0h8v8h-8v-8zm12 0h8v8h-8v-8zm12 0h8v8h-8v-8zm12 0h8v8h-8v-8zm12 0h8v8h-8v-8zm12 0h8v8h-8v-8zm12 0h8v8h-8v-8zm12 0h8v8h-8v-8zm12 0h8v8h-8v-8zm12 0h8v8h-8v-8zm12 0h8v8h-8v-8zm12 0h8v8h-8v-8zm12 0h8v8h-8v-8zm12 0h8v8h-8v-8zm12 0h8v8h-8v-8zm12 0h8v8h-8v-8zm12 0h8v8h-8v-8zm12 0h8v8h-8v-8zm12 0h8v8h-8v-8zm12 0h8v8h-8v-8zm12 0h8v8h-8v-8zm12 0h8v8h-8v-8zm12 0h8v8h-8v-8zm12 0h8v8h-8v-8zm12 0h8v8h-8v-8zm12 0h8v8h-8v-8zm12 0h8v8h-8v-8zm12 0h8v8h-8v-8zm12 0h8v8h-8v-8zm-372 12h8v8h-8v-8zm12 0h8v8h-8v-8zm12 0h8v8h-8v-8zm12 0h8v8h-8v-8zm12 0h8v8h-8v-8zm12 0h8v8h-8v-8zm12 0h8v8h-8v-8zm12 0h8v8h-8v-8zm12 0h8v8h-8v-8zm12 0h8v8h-8v-8zm12 0h8v8h-8v-8zm12 0h8v8h-8v-8zm12 0h8v8h-8v-8zm12 0h8v8h-8v-8zm12 0h8v8h-8v-8zm12 0h8v8h-8v-8zm12 0h8v8h-8v-8zm12 0h8v8h-8v-8zm12 0h8v8h-8v-8zm12 0h8v8h-8v-8zm12 0h8v8h-8v-8zm12 0h8v8h-8v-8zm12 0h8v8h-8v-8zm12 0h8v8h-8v-8zm12 0h8v8h-8v-8zm12 0h8v8h-8v-8zm12 0h8v8h-8v-8zm12 0h8v8h-8v-8zm12 0h8v8h-8v-8zm12 0h8v8h-8v-8zm12 0h8v8h-8v-8zm12 0h8v8h-8v-8zm-372 12h8v8h-8v-8zm12 0h8v8h-8v-8zm12 0h8v8h-8v-8zm12 0h8v8h-8v-8zm12 0h8v8h-8v-8zm12 0h8v8h-8v-8zm12 0h8v8h-8v-8zm12 0h8v8h-8v-8zm12 0h8v8h-8v-8zm12 0h8v8h-8v-8zm12 0h8v8h-8v-8zm12 0h8v8h-8v-8zm12 0h8v8h-8v-8zm12 0h8v8h-8v-8zm12 0h8v8h-8v-8zm12 0h8v8h-8v-8zm12 0h8v8h-8v-8zm12 0h8v8h-8v-8zm12 0h8v8h-8v-8zm12 0h8v8h-8v-8zm12 0h8v8h-8v-8zm12 0h8v8h-8v-8zm12 0h8v8h-8v-8zm12 0h8v8h-8v-8zm12 0h8v8h-8v-8zm12 0h8v8h-8v-8zm12 0h8v8h-8v-8zm12 0h8v8h-8v-8zm12 0h8v8h-8v-8zm12 0h8v8h-8v-8zm12 0h8v8h-8v-8zm12 0h8v8h-8v-8zm-372 12h8v8h-8v-8zm12 0h8v8h-8v-8zm12 0h8v8h-8v-8zm12 0h8v8h-8v-8zm12 0h8v8h-8v-8zm12 0h8v8h-8v-8zm12 0h8v8h-8v-8zm12 0h8v8h-8v-8zm12 0h8v8h-8v-8zm12 0h8v8h-8v-8zm12 0h8v8h-8v-8zm12 0h8v8h-8v-8zm12 0h8v8h-8v-8zm12 0h8v8h-8v-8zm12 0h8v8h-8v-8zm12 0h8v8h-8v-8zm12 0h8v8h-8v-8zm12 0h8v8h-8v-8zm12 0h8v8h-8v-8zm12 0h8v8h-8v-8zm12 0h8v8h-8v-8zm12 0h8v8h-8v-8zm12 0h8v8h-8v-8zm12 0h8v8h-8v-8zm12 0h8v8h-8v-8zm12 0h8v8h-8v-8zm12 0h8v8h-8v-8zm12 0h8v8h-8v-8zm12 0h8v8h-8v-8zm12 0h8v8h-8v-8zm12 0h8v8h-8v-8zm12 0h8v8h-8v-8zm-372 12h8v8h-8v-8zm12 0h8v8h-8v-8zm12 0h8v8h-8v-8zm12 0h8v8h-8v-8zm12 0h8v8h-8v-8zm12 0h8v8h-8v-8zm12 0h8v8h-8v-8zm12 0h8v8h-8v-8zm12 0h8v8h-8v-8zm12 0h8v8h-8v-8zm12 0h8v8h-8v-8zm12 0h8v8h-8v-8zm12 0h8v8h-8v-8zm12 0h8v8h-8v-8zm12 0h8v8h-8v-8zm12 0h8v8h-8v-8zm12 0h8v8h-8v-8zm12 0h8v8h-8v-8zm12 0h8v8h-8v-8zm12 0h8v8h-8v-8zm12 0h8v8h-8v-8zm12 0h8v8h-8v-8zm12 0h8v8h-8v-8zm12 0h8v8h-8v-8zm12 0h8v8h-8v-8zm12 0h8v8h-8v-8zm12 0h8v8h-8v-8zm12 0h8v8h-8v-8zm12 0h8v8h-8v-8zm12 0h8v8h-8v-8zm12 0h8v8h-8v-8zm12 0h8v8h-8v-8zm-372 12h8v8h-8v-8zm12 0h8v8h-8v-8zm12 0h8v8h-8v-8zm12 0h8v8h-8v-8zm12 0h8v8h-8v-8zm12 0h8v8h-8v-8zm12 0h8v8h-8v-8zm12 0h8v8h-8v-8z"/><path fill="none" stroke="#000" stroke-width=".5" stroke-miterlimit="3.864" d="M155.4 128.8h8v8h-8v-8zm12 0h8v8h-8v-8z"/><path fill="none" stroke="#000" stroke-width=".5" stroke-miterlimit="3.864" d="M167.4 128.8h8v8h-8v-8zm12 0h8v8h-8v-8z"/><path fill="none" stroke="#000" stroke-width=".5" stroke-miterlimit="3.864" d="M179.4 128.8h8v8h-8v-8zm12 0h8v8h-8v-8z"/><path fill="none" stroke="#000" stroke-width=".5" stroke-miterlimit="3.864" d="M191.4 128.8h8v8h-8v-8zm12 0h8v8h-8v-8zm12 0h8v8h-8v-8zm12 0h8v8h-8v-8zm12 0h8v8h-8v-8zm12 0h8v8h-8v-8zm12 0h8v8h-8v-8zm12 0h8v8h-8v-8zm12 0h8v8h-8v-8zm12 0h8v8h-8v-8zm12 0h8v8h-8v-8zm12 0h8v8h-8v-8zm12 0h8v8h-8v-8zm12 0h8v8h-8v-8zm12 0h8v8h-8v-8zm12 0h8v8h-8v-8zm12 0h8v8h-8v-8zm12 0h8v8h-8v-8zm12 0h8v8h-8v-8zm12 0h8v8h-8v-8zm12 0h8v8h-8v-8zm12 0h8v8h-8v-8zm-372 12h8v8h-8v-8zm12 0h8v8h-8v-8zm12 0h8v8h-8v-8zm12 0h8v8h-8v-8zm12 0h8v8h-8v-8zm12 0h8v8h-8v-8zm12 0h8v8h-8v-8zm12 0h8v8h-8v-8z"/><path fill="none" stroke="#000" stroke-width=".5" stroke-miterlimit="3.864" d="M155.4 140.8h8v8h-8v-8zm12 0h8v8h-8v-8zm12 0h8v8h-8v-8zm12 0h8v8h-8v-8zm12 0h8v8h-8v-8z"/><path fill="none" stroke="#000" stroke-width=".5" stroke-miterlimit="3.864" d="M203.4 140.8h8v8h-8v-8zm12 0h8v8h-8v-8zm12 0h8v8h-8v-8zm12 0h8v8h-8v-8zm12 0h8v8h-8v-8zm12 0h8v8h-8v-8zm12 0h8v8h-8v-8zm12 0h8v8h-8v-8zm12 0h8v8h-8v-8zm12 0h8v8h-8v-8zm12 0h8v8h-8v-8zm12 0h8v8h-8v-8zm12 0h8v8h-8v-8zm12 0h8v8h-8v-8zm12 0h8v8h-8v-8zm12 0h8v8h-8v-8zm12 0h8v8h-8v-8zm12 0h8v8h-8v-8zm12 0h8v8h-8v-8zm12 0h8v8h-8v-8zm12 0h8v8h-8v-8zm-372 12h8v8h-8v-8zm12 0h8v8h-8v-8zm12 0h8v8h-8v-8zm12 0h8v8h-8v-8zm12 0h8v8h-8v-8zm12 0h8v8h-8v-8zm12 0h8v8h-8v-8zm12 0h8v8h-8v-8z"/><path fill="none" stroke="#000" stroke-width=".5" stroke-miterlimit="3.864" d="M155.4 152.8h8v8h-8v-8zm12 0h8v8h-8v-8zm12 0h8v8h-8v-8zm12 0h8v8h-8v-8zm12 0h8v8h-8v-8z"/><path fill="none" stroke="#000" stroke-width=".5" stroke-miterlimit="3.864" d="M203.4 152.8h8v8h-8v-8zm12 0h8v8h-8v-8zm12 0h8v8h-8v-8zm12 0h8v8h-8v-8zm12 0h8v8h-8v-8zm12 0h8v8h-8v-8zm12 0h8v8h-8v-8zm12 0h8v8h-8v-8zm12 0h8v8h-8v-8zm12 0h8v8h-8v-8zm12 0h8v8h-8v-8zm12 0h8v8h-8v-8zm12 0h8v8h-8v-8zm12 0h8v8h-8v-8zm12 0h8v8h-8v-8zm12 0h8v8h-8v-8zm12 0h8v8h-8v-8zm12 0h8v8h-8v-8zm12 0h8v8h-8v-8zm12 0h8v8h-8v-8zm12 0h8v8h-8v-8zm-372 12h8v8h-8v-8zm12 0h8v8h-8v-8zm12 0h8v8h-8v-8zm12 0h8v8h-8v-8zm12 0h8v8h-8v-8zm12 0h8v8h-8v-8zm12 0h8v8h-8v-8zm12 0h8v8h-8v-8z"/><path fill="none" stroke="#000" stroke-width=".5" stroke-miterlimit="3.864" d="M155.4 164.8h8v8h-8v-8zm12 0h8v8h-8v-8z"/><path fill="none" stroke="#000" stroke-width=".5" stroke-miterlimit="3.864" d="M167.4 164.8h8v8h-8v-8zm12 0h8v8h-8v-8z"/><path fill="none" stroke="#000" stroke-width=".5" stroke-miterlimit="3.864" d="M179.4 164.8h8v8h-8v-8zm12 0h8v8h-8v-8z"/><path fill="none" stroke="#000" stroke-width=".5" stroke-miterlimit="3.864" d="M191.4 164.8h8v8h-8v-8zm12 0h8v8h-8v-8zm12 0h8v8h-8v-8zm12 0h8v8h-8v-8zm12 0h8v8h-8v-8zm12 0h8v8h-8v-8zm12 0h8v8h-8v-8zm12 0h8v8h-8v-8zm12 0h8v8h-8v-8zm12 0h8v8h-8v-8zm12 0h8v8h-8v-8zm12 0h8v8h-8v-8zm12 0h8v8h-8v-8zm12 0h8v8h-8v-8zm12 0h8v8h-8v-8zm12 0h8v8h-8v-8zm12 0h8v8h-8v-8zm12 0h8v8h-8v-8zm12 0h8v8h-8v-8zm12 0h8v8h-8v-8zm12 0h8v8h-8v-8zm12 0h8v8h-8v-8zm-372 12h8v8h-8v-8zm12 0h8v8h-8v-8zm12 0h8v8h-8v-8zm12 0h8v8h-8v-8zm12 0h8v8h-8v-8zm12 0h8v8h-8v-8zm12 0h8v8h-8v-8zm12 0h8v8h-8v-8z"/><path fill="none" stroke="#000" stroke-width=".5" stroke-miterlimit="3.864" d="M155.4 176.8h8v8h-8v-8zm12 0h8v8h-8v-8zm12 0h8v8h-8v-8z"/><path fill="none" stroke="#000" stroke-width=".5" stroke-miterlimit="3.864" d="M179.4 176.8h8v8h-8v-8zm12 0h8v8h-8v-8zm12 0h8v8h-8v-8zm12 0h8v8h-8v-8zm12 0h8v8h-8v-8zm12 0h8v8h-8v-8zm12 0h8v8h-8v-8zm12 0h8v8h-8v-8zm12 0h8v8h-8v-8zm12 0h8v8h-8v-8zm12 0h8v8h-8v-8zm12 0h8v8h-8v-8zm12 0h8v8h-8v-8zm12 0h8v8h-8v-8zm12 0h8v8h-8v-8zm12 0h8v8h-8v-8zm12 0h8v8h-8v-8zm12 0h8v8h-8v-8zm12 0h8v8h-8v-8zm12 0h8v8h-8v-8zm12 0h8v8h-8v-8zm12 0h8v8h-8v-8zm12 0h8v8h-8v-8zm-372 12h8v8h-8v-8zm12 0h8v8h-8v-8zm12 0h8v8h-8v-8zm12 0h8v8h-8v-8zm12 0h8v8h-8v-8zm12 0h8v8h-8v-8zm12 0h8v8h-8v-8zm12 0h8v8h-8v-8z"/><path fill="none" stroke="#000" stroke-width=".5" stroke-miterlimit="3.864" d="M155.4 188.8h8v8h-8v-8zm12 0h8v8h-8v-8zm12 0h8v8h-8v-8zm12 0h8v8h-8v-8z"/><path fill="none" stroke="#000" stroke-width=".5" stroke-miterlimit="3.864" d="M191.4 188.8h8v8h-8v-8zm12 0h8v8h-8v-8zm12 0h8v8h-8v-8zm12 0h8v8h-8v-8zm12 0h8v8h-8v-8zm12 0h8v8h-8v-8zm12 0h8v8h-8v-8zm12 0h8v8h-8v-8zm12 0h8v8h-8v-8zm12 0h8v8h-8v-8zm12 0h8v8h-8v-8zm12 0h8v8h-8v-8zm12 0h8v8h-8v-8zm12 0h8v8h-8v-8zm12 0h8v8h-8v-8zm12 0h8v8h-8v-8zm12 0h8v8h-8v-8zm12 0h8v8h-8v-8zm12 0h8v8h-8v-8zm12 0h8v8h-8v-8zm12 0h8v8h-8v-8zm12 0h8v8h-8v-8zm-372 12h8v8h-8v-8zm12 0h8v8h-8v-8zm12 0h8v8h-8v-8zm12 0h8v8h-8v-8zm12 0h8v8h-8v-8zm12 0h8v8h-8v-8zm12 0h8v8h-8v-8zm12 0h8v8h-8v-8z"/><path fill="none" stroke="#000" stroke-width=".5" stroke-miterlimit="3.864" d="M155.4 200.8h8v8h-8v-8zm12 0h8v8h-8v-8zm12 0h8v8h-8v-8zm12 0h8v8h-8v-8zm12 0h8v8h-8v-8z"/><path fill="none" stroke="#000" stroke-width=".5" stroke-miterlimit="3.864" d="M203.4 200.8h8v8h-8v-8zm12 0h8v8h-8v-8zm12 0h8v8h-8v-8zm12 0h8v8h-8v-8zm12 0h8v8h-8v-8zm12 0h8v8h-8v-8zm12 0h8v8h-8v-8zm12 0h8v8h-8v-8zm12 0h8v8h-8v-8zm12 0h8v8h-8v-8zm12 0h8v8h-8v-8zm12 0h8v8h-8v-8zm12 0h8v8h-8v-8zm12 0h8v8h-8v-8zm12 0h8v8h-8v-8zm12 0h8v8h-8v-8zm12 0h8v8h-8v-8zm12 0h8v8h-8v-8zm12 0h8v8h-8v-8zm12 0h8v8h-8v-8zm12 0h8v8h-8v-8zm-372 12h8v8h-8v-8zm12 0h8v8h-8v-8zm12 0h8v8h-8v-8zm12 0h8v8h-8v-8zm12 0h8v8h-8v-8zm12 0h8v8h-8v-8zm12 0h8v8h-8v-8zm12 0h8v8h-8v-8zm12 0h8v8h-8v-8zm12 0h8v8h-8v-8zm12 0h8v8h-8v-8zm12 0h8v8h-8v-8zm12 0h8v8h-8v-8zm12 0h8v8h-8v-8zm12 0h8v8h-8v-8zm12 0h8v8h-8v-8zm12 0h8v8h-8v-8zm12 0h8v8h-8v-8zm12 0h8v8h-8v-8zm12 0h8v8h-8v-8zm12 0h8v8h-8v-8zm12 0h8v8h-8v-8zm12 0h8v8h-8v-8zm12 0h8v8h-8v-8zm12 0h8v8h-8v-8zm12 0h8v8h-8v-8zm12 0h8v8h-8v-8zm12 0h8v8h-8v-8zm12 0h8v8h-8v-8zm12 0h8v8h-8v-8zm12 0h8v8h-8v-8zm12 0h8v8h-8v-8zm-372 12h8v8h-8v-8zm12 0h8v8h-8v-8zm12 0h8v8h-8v-8zm12 0h8v8h-8v-8zm12 0h8v8h-8v-8zm12 0h8v8h-8v-8zm12 0h8v8h-8v-8zm12 0h8v8h-8v-8zm12 0h8v8h-8v-8zm12 0h8v8h-8v-8zm12 0h8v8h-8v-8zm12 0h8v8h-8v-8zm12 0h8v8h-8v-8zm12 0h8v8h-8v-8zm12 0h8v8h-8v-8zm12 0h8v8h-8v-8zm12 0h8v8h-8v-8zm12 0h8v8h-8v-8zm12 0h8v8h-8v-8zm12 0h8v8h-8v-8zm12 0h8v8h-8v-8zm12 0h8v8h-8v-8zm12 0h8v8h-8v-8zm12 0h8v8h-8v-8zm12 0h8v8h-8v-8zm12 0h8v8h-8v-8zm12 0h8v8h-8v-8zm12 0h8v8h-8v-8zm12 0h8v8h-8v-8zm12 0h8v8h-8v-8zm12 0h8v8h-8v-8zm12 0h8v8h-8v-8zm-372 12h8v8h-8v-8zm12 0h8v8h-8v-8zm12 0h8v8h-8v-8zm12 0h8v8h-8v-8zm12 0h8v8h-8v-8zm12 0h8v8h-8v-8zm12 0h8v8h-8v-8zm12 0h8v8h-8v-8zm12 0h8v8h-8v-8zm12 0h8v8h-8v-8zm12 0h8v8h-8v-8zm12 0h8v8h-8v-8zm12 0h8v8h-8v-8zm12 0h8v8h-8v-8zm12 0h8v8h-8v-8zm12 0h8v8h-8v-8zm12 0h8v8h-8v-8zm12 0h8v8h-8v-8zm12 0h8v8h-8v-8zm12 0h8v8h-8v-8zm12 0h8v8h-8v-8zm12 0h8v8h-8v-8zm12 0h8v8h-8v-8zm12 0h8v8h-8v-8zm12 0h8v8h-8v-8zm12 0h8v8h-8v-8zm12 0h8v8h-8v-8zm12 0h8v8h-8v-8zm12 0h8v8h-8v-8zm12 0h8v8h-8v-8zm12 0h8v8h-8v-8zm12 0h8v8h-8v-8zm-372 12h8v8h-8v-8zm12 0h8v8h-8v-8zm12 0h8v8h-8v-8zm12 0h8v8h-8v-8zm12 0h8v8h-8v-8zm12 0h8v8h-8v-8zm12 0h8v8h-8v-8zm12 0h8v8h-8v-8zm12 0h8v8h-8v-8zm12 0h8v8h-8v-8zm12 0h8v8h-8v-8zm12 0h8v8h-8v-8zm12 0h8v8h-8v-8zm12 0h8v8h-8v-8zm12 0h8v8h-8v-8zm12 0h8v8h-8v-8zm12 0h8v8h-8v-8zm12 0h8v8h-8v-8zm12 0h8v8h-8v-8zm12 0h8v8h-8v-8zm12 0h8v8h-8v-8zm12 0h8v8h-8v-8zm12 0h8v8h-8v-8zm12 0h8v8h-8v-8zm12 0h8v8h-8v-8zm12 0h8v8h-8v-8zm12 0h8v8h-8v-8zm12 0h8v8h-8v-8zm12 0h8v8h-8v-8zm12 0h8v8h-8v-8zm12 0h8v8h-8v-8zm12 0h8v8h-8v-8zm-372 12h8v8h-8v-8zm12 0h8v8h-8v-8zm12 0h8v8h-8v-8zm12 0h8v8h-8v-8zm12 0h8v8h-8v-8zm12 0h8v8h-8v-8zm12 0h8v8h-8v-8zm12 0h8v8h-8v-8zm12 0h8v8h-8v-8zm12 0h8v8h-8v-8zm12 0h8v8h-8v-8zm12 0h8v8h-8v-8zm12 0h8v8h-8v-8zm12 0h8v8h-8v-8zm12 0h8v8h-8v-8zm12 0h8v8h-8v-8zm12 0h8v8h-8v-8zm12 0h8v8h-8v-8zm12 0h8v8h-8v-8zm12 0h8v8h-8v-8zm12 0h8v8h-8v-8zm12 0h8v8h-8v-8zm12 0h8v8h-8v-8zm12 0h8v8h-8v-8zm12 0h8v8h-8v-8zm12 0h8v8h-8v-8zm12 0h8v8h-8v-8zm12 0h8v8h-8v-8zm12 0h8v8h-8v-8zm12 0h8v8h-8v-8zm12 0h8v8h-8v-8zm12 0h8v8h-8v-8zm-372 12h8v8h-8v-8zm12 0h8v8h-8v-8zm12 0h8v8h-8v-8zm12 0h8v8h-8v-8zm12 0h8v8h-8v-8zm12 0h8v8h-8v-8zm12 0h8v8h-8v-8zm12 0h8v8h-8v-8zm12 0h8v8h-8v-8zm12 0h8v8h-8v-8zm12 0h8v8h-8v-8zm12 0h8v8h-8v-8zm12 0h8v8h-8v-8zm12 0h8v8h-8v-8zm12 0h8v8h-8v-8zm12 0h8v8h-8v-8zm12 0h8v8h-8v-8zm12 0h8v8h-8v-8zm12 0h8v8h-8v-8zm12 0h8v8h-8v-8zm12 0h8v8h-8v-8zm12 0h8v8h-8v-8zm12 0h8v8h-8v-8zm12 0h8v8h-8v-8zm12 0h8v8h-8v-8zm12 0h8v8h-8v-8zm12 0h8v8h-8v-8zm12 0h8v8h-8v-8zm12 0h8v8h-8v-8zm12 0h8v8h-8v-8zm12 0h8v8h-8v-8zm12 0h8v8h-8v-8z"/><path fill="none" d="M62.8 55.2h3.7v9h-3.7z"/><text transform="translate(62.846 63.86)" font-family="Helvetica,Arial,sans-serif" font-size="8">1</text><path fill="none" d="M62.9 67.2h3.7v9h-3.7z"/><text transform="translate(62.946 75.86)" font-family="Helvetica,Arial,sans-serif" font-size="8">2</text><path fill="none" d="M62.9 79.2h3.7v9h-3.7z"/><text transform="translate(62.946 87.86)" font-family="Helvetica,Arial,sans-serif" font-size="8">3</text><path fill="none" d="M62.9 91.2h3.7v9h-3.7z"/><text transform="translate(62.946 99.86)" font-family="Helvetica,Arial,sans-serif" font-size="8">4</text><path fill="none" d="M62.9 103.2h3.7v9h-3.7z"/><text transform="translate(62.946 111.86)" font-family="Helvetica,Arial,sans-serif" font-size="8">5</text><path fill="none" d="M62.9 115.2h3.7v9h-3.7z"/><text transform="translate(62.946 123.86)" font-family="Helvetica,Arial,sans-serif" font-size="8">6</text><path fill="none" d="M62.9 127.2h3.7v9h-3.7z"/><text transform="translate(62.946 135.86)" font-family="Helvetica,Arial,sans-serif" font-size="8">7</text><path fill="none" d="M62.9 139.2h3.7v9h-3.7z"/><text transform="translate(62.946 147.86)" font-family="Helvetica,Arial,sans-serif" font-size="8">8</text><path fill="none" d="M62.9 151.2h3.7v9h-3.7z"/><text transform="translate(62.946 159.86)" font-family="Helvetica,Arial,sans-serif" font-size="8">9</text><path fill="none" d="M59.5 162.9h7.3v9h-7.3z"/><text transform="translate(59.529 171.553)" font-family="Helvetica,Arial,sans-serif" font-size="8">10</text><path fill="none" d="M60 174.9h6.9v9H60z"/><text transform="translate(59.954 183.539)"><tspan x="0" y="0" font-family="Helvetica,Arial,sans-serif" font-size="8">1</tspan><tspan x="3.2" y="0" font-family="Helvetica,Arial,sans-serif" font-size="8">1</tspan></text><path fill="none" d="M59.5 186.8h7.3v9h-7.3z"/><text transform="translate(59.529 195.527)" font-family="Helvetica,Arial,sans-serif" font-size="8">12</text><path fill="none" d="M59.5 199.7h7.3v9h-7.3z"/><text transform="translate(59.529 208.376)" font-family="Helvetica,Arial,sans-serif" font-size="8">13</text><path fill="none" d="M59.5 211.7h7.3v9h-7.3z"/><text transform="translate(59.529 220.376)" font-family="Helvetica,Arial,sans-serif" font-size="8">14</text><path fill="none" d="M59.5 223.7h7.3v9h-7.3z"/><text transform="translate(59.529 232.376)" font-family="Helvetica,Arial,sans-serif" font-size="8">15</text><path fill="none" d="M59.5 235.7h7.3v9h-7.3z"/><text transform="translate(59.529 244.376)" font-family="Helvetica,Arial,sans-serif" font-size="8">16</text><path fill="none" d="M59.5 247.7h7.3v9h-7.3z"/><text transform="translate(59.529 256.377)" font-family="Helvetica,Arial,sans-serif" font-size="8">17</text><path fill="none" d="M59.5 259.7h7.3v9h-7.3z"/><text transform="translate(59.529 268.377)" font-family="Helvetica,Arial,sans-serif" font-size="8">18</text><path fill="none" d="M59.5 271.7h7.3v9h-7.3z"/><text transform="translate(59.529 280.377)" font-family="Helvetica,Arial,sans-serif" font-size="8">19</text><path fill="none" stroke="#000" stroke-width=".5" stroke-miterlimit="3.864" d="M71.4 284.8h8v8h-8v-8zm12 0h8v8h-8v-8zm12 0h8v8h-8v-8zm12 0h8v8h-8v-8zm12 0h8v8h-8v-8zm12 0h8v8h-8v-8zm12 0h8v8h-8v-8zm12 0h8v8h-8v-8zm12 0h8v8h-8v-8zm12 0h8v8h-8v-8zm12 0h8v8h-8v-8zm12 0h8v8h-8v-8zm12 0h8v8h-8v-8zm12 0h8v8h-8v-8zm12 0h8v8h-8v-8zm12 0h8v8h-8v-8zm12 0h8v8h-8v-8zm12 0h8v8h-8v-8zm12 0h8v8h-8v-8zm12 0h8v8h-8v-8zm12 0h8v8h-8v-8zm12 0h8v8h-8v-8zm12 0h8v8h-8v-8zm12 0h8v8h-8v-8zm12 0h8v8h-8v-8zm12 0h8v8h-8v-8zm12 0h8v8h-8v-8zm12 0h8v8h-8v-8zm12 0h8v8h-8v-8zm12 0h8v8h-8v-8zm12 0h8v8h-8v-8zm12 0h8v8h-8v-8z"/><path fill-rule="evenodd" clip-rule="evenodd" fill="#FFF" d="M55.5 295.5h398V38.9h-4l-4 46.6 4 46-4 96 2 60-50-2-80 4-88-4-142 2-32.2-.7z"/><path clip-rule="evenodd" fill="none" stroke="#FFF" stroke-width=".5" stroke-miterlimit="3.864" d="M55.3 287l32.2.5 140-2 90 4 80-4 50 2-2-60 4-96-4-46 3.6-42.6"/><path clip-rule="evenodd" fill="none" stroke="#000" stroke-miterlimit="3.864" d="M453.4 114.9h-426m426 119.7h-426M93.3 52.7v291.9m192.1-292v292"/><path clip-rule="evenodd" fill="none" stroke="#000" stroke-width=".227" stroke-miterlimit="3.864" d="M33.8 180v48.1"/><path d="M35.6 121.9h-3.7l1.8-6.6zm0 106.2h-3.7l1.8 6.6z"/><path fill="none" stroke="#000" stroke-width=".709" stroke-miterlimit="10" d="M479.5 151.2H267.4"/><text transform="translate(29.076 48.835)" font-family="Helvetica,Arial,sans-serif" font-size="12">Row</text><text transform="translate(18.394 176.319)" font-family="Helvetica,Arial,sans-serif" font-size="12">Height</text><text transform="translate(30.4 318.119)" font-family="Helvetica,Arial,sans-serif" font-size="12">Offset X</text><path clip-rule="evenodd" fill="none" stroke="#000" stroke-width=".227" stroke-miterlimit="3.864" d="M100 330h179.4"/><path d="M100 328.2v3.7l-6.7-1.8zm178.8 0v3.7l6.6-1.8z"/><text transform="translate(175.399 344.635)" font-family="Helvetica,Arial,sans-serif" font-size="12">Width</text><path clip-rule="evenodd" fill="none" stroke="#000" stroke-width=".227" stroke-miterlimit="3.864" d="M33.7 121.9v42.9"/><text transform="translate(10.253 91.835)" font-family="Helvetica,Arial,sans-serif" font-size="12">Offset Y</text><path fill="none" stroke="#000" stroke-width=".709" stroke-miterlimit="3.864" d="M59.9 120.9h-7.7L38.5 98.1m59.9 189.7l-12 27h-8"/><text transform="translate(64.775 24.73)" font-family="Helvetica,Arial,sans-serif" font-size="12">Column</text><text transform="translate(488.065 154.173)" font-family="Helvetica,Arial,sans-serif" font-weight="bold" font-size="12">Image ROI</text></svg>