<svg xmlns="http://www.w3.org/2000/svg" viewBox="0 0 487.9 210"><style>.st2,.st3{fill:none;stroke-linecap:round;stroke-linejoin:round;stroke-miterlimit:10;stroke:#1a1a18;stroke-width:.3454}.st3{stroke:#1c1c1a;stroke-width:.2835}.st6{font-family:Helvetica,Arial,sans-serif}.st7{font-size:14px}</style><g id="Ebene_2"><path d="M193.7 197.1H20.2c-.4 0-.8-.3-1-.6-1.1-1.5-2.5-2.9-4-4-.3-.2-.4-.5-.4-.8V18.2c0-.4.1-.7.4-.9 1.5-1.1 2.9-2.5 4-4 .2-.3.6-.4 1-.4h173.4c.4 0 .8.1 1 .4 1.1 1.5 2.5 2.9 4 4 .3.2.4.6.4 1v173.4c0 .4-.1.6-.4.8-1.5 1.1-2.9 2.5-4 4-.2.3-.6.6-.9.6z" fill="#f6f6f6"/><path d="M193.7 197.1H20.2c-.4 0-.8-.3-1-.6-1.1-1.5-2.5-2.9-4-4-.3-.2-.4-.5-.4-.8V18.2c0-.4.1-.7.4-.9 1.5-1.1 2.9-2.5 4-4 .2-.3.6-.4 1-.4h173.4c.4 0 .8.1 1 .4 1.1 1.5 2.5 2.9 4 4 .3.2.4.6.4 1v173.4c0 .4-.1.6-.4.8-1.5 1.1-2.9 2.5-4 4-.2.3-.6.6-.9.6z" fill="none" stroke="#1a1a18" stroke-width=".576" stroke-linecap="round" stroke-linejoin="round" stroke-miterlimit="10"/><path class="st2" d="M150.7 140.8c.7-1.9-.3-4.1-2.2-4.8s-4.1.3-4.8 2.2.3 4.1 2.2 4.8c2 .7 4.1-.3 4.8-2.2m38 50.5c2.5 0 4.6-2.1 4.6-4.6m-172.7 0c0 2.5 2.1 4.6 4.6 4.6M193.3 23.2c0-2.5-2.1-4.6-4.6-4.6m-163.5 0c-2.5 0-4.6 2.1-4.6 4.6m172.7 163.5V23.3m-172.7 0v163.4M188.8 18.6H25.1m0 172.7h163.7m3.3-8c-.2-3.5-3.3-6.2-6.8-5.9-3.5.2-6.2 3.3-5.9 6.8.2 3.5 3.3 6.2 6.8 5.9 3.5-.2 6.1-3.3 5.9-6.8"/><path class="st2" d="M182.9 185.6l-.1-3.4 2.7-1.7 3 1.4.1 3.2-2.6 1.9-3.1-1.4M24.5 21.1c-2.9 2-3.6 6-1.5 8.9 2 2.9 6 3.6 8.9 1.5 2.9-2 3.6-6 1.5-8.9-2.1-2.9-6.1-3.6-8.9-1.5"/><path class="st2" d="M31.3 27.6l-2.8 1.9-3.1-1.4-.3-3.2 2.8-1.9 2.9 1.3.5 3.3m3 157.5c.7-3.4-1.5-6.8-4.9-7.5s-6.8 1.5-7.5 4.9c-.7 3.4 1.5 6.8 4.9 7.5 3.4.7 6.8-1.5 7.5-4.9"/><path class="st2" d="M25 184.7l.7-3.2 3.2-1 2.4 2.1-.6 3.3-3.2 1.1-2.5-2.3M180.3 23c-1.8 3-.8 6.9 2.3 8.7 3 1.8 6.9.8 8.7-2.3s.8-6.9-2.3-8.7c-3.1-1.7-7-.7-8.7 2.3"/><path class="st2" d="M189 26.2l-1.7 2.9h-3.2l-1.8-2.9 1.8-2.9 3.3.1 1.6 2.8m-152.6.6v-8.3m-7.6 15.9c4.2 0 7.6-3.4 7.6-7.6m-15.7 7.6h8.1m7.6 148.7c0-4.2-3.5-7.6-7.6-7.6h-8.2m15.8 15.8v-8.2m-11.7 8.2h11.7M185.1 34.4h8.2m-15.8-7.6c0 4.2 3.5 7.6 7.7 7.6m-7.7-15.8v8.2m0 156.3v8.2m7.6-15.8c-4.2 0-7.6 3.4-7.6 7.6m15.6-7.6h-8m-63.2 15.8V160m13.8-13.8c-7.6 0-13.8 6.2-13.8 13.8m71.4-13.8h-57.5m-9.2 45.1V160m9.1-9.1c-5.1 0-9.1 4.1-9.1 9.1m9.2-9.2h57.5M24.8 192.9H189m-169.9-5.8c0 3.2 2.6 5.8 5.8 5.8M19.1 22.8V187m5.8-169.9c-3.2 0-5.8 2.6-5.8 5.8M189 17.1H24.8m170 5.8c0-3.2-2.6-5.8-5.8-5.8m5.8 169.9V22.8M189 192.9c3.2 0 5.8-2.6 5.8-5.8m-47.9-15.5c0 .3.2.5.5.5s.5-.2.5-.5-.2-.5-.5-.5c-.2 0-.5.2-.5.5"/><path class="st2" d="M142.1 171.6c0 2.9 2.4 5.3 5.3 5.3s5.3-2.4 5.3-5.3-2.4-5.3-5.3-5.3-5.3 2.3-5.3 5.3m3.8 6.4h.2l.2.1h2.1l.4-.1m0-12.8h-.4l-.4-.1h-1.2l-.5.1h-.4m2.9 0v1.3m-2.9-1.3v1.3m2.9 10.1v1.4m-2.9-1.4v1.4m-3.5.7l.4-.7m7.1-13.6l.4-.9m-7.8 15.2c.6.4 1.3.8 2.1 1.1m.3-.8l-.3.7m7.7-15.2l-.4.9m.5-1c-.6-.4-1.3-.8-2.1-1.1"/><path class="st2" d="M144.5 179.8c4.1 1.4 8.7-.4 10.6-4.2 2-3.9.8-8.6-2.8-11.1m-2-1.1c-4.1-1.4-8.7.4-10.6 4.2-2 3.9-.8 8.6 2.8 11.1"/><path class="st2" d="M145 178.9c3.6 1.2 7.5-.4 9.3-3.8 1.7-3.4.7-7.5-2.4-9.7m-2-1.1c-3.6-1.2-7.5.4-9.3 3.8-1.7 3.4-.7 7.5 2.4 9.7"/><path class="st3" d="M113.1 165c0-3.6-2.9-6.5-6.5-6.5s-6.5 2.9-6.5 6.5 2.9 6.5 6.5 6.5 6.5-2.9 6.5-6.5"/><path class="st3" d="M118.1 165c0-6.3-5.1-11.5-11.5-11.5-6.3 0-11.5 5.1-11.5 11.5 0 6.3 5.1 11.5 11.5 11.5s11.5-5.1 11.5-11.5"/><path class="st3" d="M116.3 165c0-5.4-4.4-9.7-9.7-9.7-5.4 0-9.7 4.4-9.7 9.7 0 5.4 4.4 9.7 9.7 9.7 5.4.1 9.7-4.3 9.7-9.7"/><path class="st3" d="M105.5 159.2c.2.4.6.7 1.1.7.5 0 .9-.3 1.1-.7m-2.3-.4v.2l.1.3m2.2 0l.2-.3v-.2"/><path class="st3" d="M105.3 158.7c-3.3.7-5.5 3.7-5.2 7 .3 3.3 3.1 5.9 6.5 5.9 3.3 0 6.1-2.5 6.5-5.9.3-3.3-1.9-6.4-5.2-7m0-.1c-.8-.2-1.7-.2-2.5 0"/><path d="M108 165c0 .7-.6 1.3-1.3 1.3-.7 0-1.3-.6-1.3-1.3 0-.7.6-1.3 1.3-1.3.7 0 1.3.6 1.3 1.3zm4.1 1.8c0 .7-.6 1.3-1.3 1.3-.7 0-1.3-.6-1.3-1.3 0-.7.6-1.3 1.3-1.3.6-.1 1.3.5 1.3 1.3zm-4.1 2.6c0 .7-.6 1.3-1.3 1.3-.7 0-1.3-.6-1.3-1.3 0-.7.6-1.3 1.3-1.3.7 0 1.3.6 1.3 1.3zm-4-2.6c0 .7-.6 1.3-1.3 1.3-.7 0-1.3-.6-1.3-1.3 0-.7.6-1.3 1.3-1.3.7-.1 1.3.5 1.3 1.3zm7.2-4.7c0 .7-.6 1.3-1.3 1.3-.7 0-1.3-.6-1.3-1.3 0-.7.6-1.3 1.3-1.3.7 0 1.3.6 1.3 1.3zm-6.3 0c0 .7-.6 1.3-1.3 1.3-.7 0-1.3-.6-1.3-1.3 0-.7.6-1.3 1.3-1.3.7 0 1.3.6 1.3 1.3z" stroke-width=".283" fill="#fff" stroke="#1a1a18" stroke-miterlimit="10"/><path d="M148 138.8l117.1-66.2M108 165.2L265.1 123m-114.8 48.9l114.8.2" fill="none" stroke="#000" stroke-miterlimit="10"/><text transform="translate(273.902 118.977)" class="st6 st7">I/O connector</text><text transform="translate(273.902 135.777)" class="st6 st7">(M8 6-pin connector)</text><text transform="translate(273.23 75.722)" class="st6 st7">Status LED</text><text transform="translate(273.902 175.722)" class="st6 st7">Micro-BNC (HD-BNC) connector</text></g></svg>