<svg version="1.1" id="Layer_1" xmlns="http://www.w3.org/2000/svg" x="0" y="0" viewBox="0 0 545 280" xml:space="preserve"><style>.st0{font-family:Helvetica,Arial,sans-serif}.st1{font-size:12px}.st6{fill:none}.st7{font-size:7.518px}.st8{fill:none;stroke:#000;stroke-width:.5;stroke-miterlimit:3.864}.st15{fill-rule:evenodd;clip-rule:evenodd}.st16{fill:none;stroke:#fff;stroke-width:1.000000e-03;stroke-miterlimit:3.864}</style><text transform="translate(432.344 124.079)" class="st0 st1">Auto function ROI</text><text transform="translate(432.326 203.848)" class="st0 st1">Image ROI</text><path d="M68.4 97.4h180.3v112.7H68.4V97.4z" fill="#bde4f7"/><path d="M68.4 97.4h180.3v112.7H68.4V97.4z" fill="#bde4f7" stroke="#fff" stroke-miterlimit="3.864"/><path d="M293.9 75h56.5v67.7h-56.5V75z" fill="#f99d33"/><path d="M293.9 75h56.5v67.7h-56.5V75z" fill="#f99d33" stroke="#000" stroke-width=".001" stroke-miterlimit="3.864"/><path class="st6" d="M27 20.1h3.5v8.5H27v-8.5z"/><text transform="translate(27.002 28.284)" class="st0 st7">0</text><path class="st6" d="M38.3 20.1h3.5v8.5h-3.5v-8.5z"/><text transform="translate(38.278 28.284)" class="st0 st7">1</text><path class="st6" d="M17.2 30.3h3.5v8.5h-3.5v-8.5z"/><text transform="translate(17.235 38.463)" class="st0 st7">0</text><path class="st8" d="M25.1 31.8h7.5v7.5h-7.5v-7.5zm11.3 0h7.5v7.5h-7.5v-7.5z"/><path class="st6" d="M49.6 20.1h3.5v8.5h-3.5v-8.5z"/><text transform="translate(49.555 28.284)" class="st0 st7">2</text><path class="st6" d="M60.8 20.1h3.5v8.5h-3.5v-8.5z"/><text transform="translate(60.833 28.284)" class="st0 st7">3</text><path class="st8" d="M47.7 31.8h7.5v7.5h-7.5v-7.5zm11.3 0h7.5v7.5H59v-7.5z"/><path class="st6" d="M72.1 20.1h3.5v8.5h-3.5v-8.5z"/><text transform="translate(72.11 28.284)" class="st0 st7">4</text><path class="st6" d="M83.4 20.1h3.5v8.5h-3.5v-8.5z"/><text transform="translate(83.386 28.284)" class="st0 st7">5</text><path class="st8" d="M70.2 31.8h7.5v7.5h-7.5v-7.5zm11.3 0H89v7.5h-7.5v-7.5z"/><path class="st6" d="M94.7 20.1h3.5v8.5h-3.5v-8.5z"/><text transform="translate(94.664 28.284)" class="st0 st7">6</text><path class="st6" d="M105.9 20.1h3.5v8.5h-3.5v-8.5z"/><text transform="translate(105.94 28.284)" class="st0 st7">7</text><path class="st8" d="M92.8 31.8h7.5v7.5h-7.5v-7.5zm11.3 0h7.5v7.5h-7.5v-7.5z"/><path class="st6" d="M117.2 20.1h3.5v8.5h-3.5v-8.5z"/><text transform="translate(117.217 28.284)" class="st0 st7">8</text><path class="st6" d="M127.9 20.1h3.5v8.5h-3.5v-8.5z"/><text transform="translate(127.931 28.284)" class="st0 st7">9</text><path class="st8" d="M115.3 31.8h7.6v7.5h-7.6v-7.5zm11.3 0h7.5v7.5h-7.5v-7.5z"/><path class="st6" d="M137.9 20.1h6.9v8.5h-6.9v-8.5z"/><text transform="translate(137.892 28.284)" class="st0 st7">10</text><path class="st6" d="M149.2 20.1h6.5v8.5h-6.5v-8.5z"/><text transform="translate(149.17 28.284)" class="st0 st7">1</text><text transform="translate(152.17 28.284)" class="st0 st7">1</text><path class="st8" d="M137.9 31.8h7.5v7.5h-7.5v-7.5zm11.3 0h7.5v7.5h-7.5v-7.5z"/><path class="st6" d="M160.4 20.1h6.9v8.5h-6.9v-8.5z"/><text transform="translate(160.446 28.284)" class="st0 st7">12</text><path class="st6" d="M171.7 20.1h6.9v8.5h-6.9v-8.5z"/><text transform="translate(171.723 28.284)" class="st0 st7">13</text><path class="st8" d="M160.4 31.8h7.6v7.5h-7.6v-7.5zm11.3 0h7.5v7.5h-7.5v-7.5z"/><path class="st6" d="M183 20.1h6.9v8.5H183v-8.5z"/><text transform="translate(183 28.284)" class="st0 st7">14</text><path class="st6" d="M194.3 20.1h6.9v8.5h-6.9v-8.5z"/><text transform="translate(194.277 28.284)" class="st0 st7">15</text><path class="st8" d="M183 31.8h7.5v7.5H183v-7.5zm11.3 0h7.5v7.5h-7.5v-7.5z"/><path class="st6" d="M205.6 20.1h6.9v8.5h-6.9v-8.5z"/><text transform="translate(205.554 28.284)" class="st0 st7">16</text><path class="st6" d="M216.8 20.1h6.9v8.5h-6.9v-8.5z"/><text transform="translate(216.832 28.284)" class="st0 st7">17</text><path class="st8" d="M205.6 31.8h7.5v7.5h-7.5v-7.5zm11.2 0h7.5v7.5h-7.5v-7.5z"/><path class="st6" d="M228.1 20.1h6.9v8.5h-6.9v-8.5z"/><text transform="translate(228.109 28.284)" class="st0 st7">18</text><path class="st6" d="M239.4 20.1h6.9v8.5h-6.9v-8.5z"/><text transform="translate(239.387 28.284)" class="st0 st7">19</text><path class="st8" d="M228.1 31.8h7.5v7.5h-7.5v-7.5zm11.3 0h7.5v7.5h-7.5v-7.5z"/><path class="st6" d="M250.7 20.1h6.9v8.5h-6.9v-8.5z"/><text transform="translate(250.664 28.284)" class="st0 st7">20</text><path class="st6" d="M261.9 20.1h6.9v8.5h-6.9v-8.5z"/><text transform="translate(261.939 28.284)" class="st0 st7">21</text><path class="st8" d="M250.7 31.8h7.5v7.5h-7.5v-7.5zm11.2 0h7.6v7.5h-7.6v-7.5z"/><path class="st6" d="M273.2 20.1h6.9v8.5h-6.9v-8.5z"/><text transform="translate(273.217 28.284)" class="st0 st7">22</text><path class="st6" d="M284.5 20.1h6.9v8.5h-6.9v-8.5z"/><text transform="translate(284.495 28.284)" class="st0 st7">23</text><path class="st8" d="M273.2 31.8h7.5v7.5h-7.5v-7.5zm11.3 0h7.5v7.5h-7.5v-7.5z"/><path class="st6" d="M295.8 20.1h6.9v8.5h-6.9v-8.5z"/><text transform="translate(295.771 28.284)" class="st0 st7">24</text><path class="st6" d="M307 20.1h6.9v8.5H307v-8.5z"/><text transform="translate(307.05 28.284)" class="st0 st7">25</text><path class="st8" d="M295.8 31.8h7.5v7.5h-7.5v-7.5zm11.2 0h7.6v7.5H307v-7.5z"/><path class="st6" d="M318.3 20.1h6.9v8.5h-6.9v-8.5z"/><text transform="translate(318.326 28.284)" class="st0 st7">26</text><path class="st6" d="M329.6 20.1h6.9v8.5h-6.9v-8.5z"/><text transform="translate(329.601 28.284)" class="st0 st7">27</text><path class="st8" d="M318.3 31.8h7.5v7.5h-7.5v-7.5zm11.3 0h7.5v7.5h-7.5v-7.5z"/><path class="st6" d="M340.9 20.1h6.9v8.5h-6.9v-8.5z"/><text transform="translate(340.878 28.284)" class="st0 st7">28</text><path class="st6" d="M352.2 20.1h6.9v8.5h-6.9v-8.5z"/><text transform="translate(352.157 28.284)" class="st0 st7">29</text><path class="st8" d="M340.9 31.8h7.5v7.5h-7.5v-7.5zm11.3 0h7.5v7.5h-7.5v-7.5z"/><path class="st6" d="M363.4 20.1h6.9v8.5h-6.9v-8.5z"/><text transform="translate(363.433 28.284)" class="st0 st7">30</text><path class="st8" d="M363.4 31.8h7.6v7.5h-7.6v-7.5zm11.3 0h7.5v7.5h-7.5v-7.5zM25.1 43h7.5v7.6h-7.5V43zm11.3 0h7.5v7.6h-7.5V43zm11.3 0h7.5v7.6h-7.5V43zM59 43h7.5v7.6H59V43zm11.2 0h7.5v7.6h-7.5V43zm11.3 0H89v7.6h-7.5V43zm11.3 0h7.5v7.6h-7.5V43zm11.3 0h7.5v7.6h-7.5V43zm11.2 0h7.6v7.6h-7.6V43zm11.3 0h7.5v7.6h-7.5V43zm11.3 0h7.5v7.6h-7.5V43zm11.3 0h7.5v7.6h-7.5V43zm11.2 0h7.6v7.6h-7.6V43zm11.3 0h7.5v7.6h-7.5V43zm11.3 0h7.5v7.6H183V43zm11.3 0h7.5v7.6h-7.5V43zm11.3 0h7.5v7.6h-7.5V43zm11.2 0h7.5v7.6h-7.5V43zm11.3 0h7.5v7.6h-7.5V43zm11.3 0h7.5v7.6h-7.5V43zm11.3 0h7.5v7.6h-7.5V43zm11.2 0h7.6v7.6h-7.6V43zm11.3 0h7.5v7.6h-7.5V43zm11.3 0h7.5v7.6h-7.5V43zm11.3 0h7.5v7.6h-7.5V43zm11.2 0h7.6v7.6H307V43zm11.3 0h7.5v7.6h-7.5V43zm11.3 0h7.5v7.6h-7.5V43zm11.3 0h7.5v7.6h-7.5V43zm11.3 0h7.5v7.6h-7.5V43zm11.2 0h7.6v7.6h-7.6V43zm11.3 0h7.5v7.6h-7.5V43zM25.1 54.3h7.5v7.5h-7.5v-7.5zm11.3 0h7.5v7.5h-7.5v-7.5zm11.3 0h7.5v7.5h-7.5v-7.5zm11.3 0h7.5v7.5H59v-7.5zm11.2 0h7.5v7.5h-7.5v-7.5zm11.3 0H89v7.5h-7.5v-7.5zm11.3 0h7.5v7.5h-7.5v-7.5zm11.3 0h7.5v7.5h-7.5v-7.5zm11.2 0h7.6v7.5h-7.6v-7.5zm11.3 0h7.5v7.5h-7.5v-7.5zm11.3 0h7.5v7.5h-7.5v-7.5zm11.3 0h7.5v7.5h-7.5v-7.5zm11.2 0h7.6v7.5h-7.6v-7.5zm11.3 0h7.5v7.5h-7.5v-7.5zm11.3 0h7.5v7.5H183v-7.5zm11.3 0h7.5v7.5h-7.5v-7.5zm11.3 0h7.5v7.5h-7.5v-7.5zm11.2 0h7.5v7.5h-7.5v-7.5zm11.3 0h7.5v7.5h-7.5v-7.5zm11.3 0h7.5v7.5h-7.5v-7.5zm11.3 0h7.5v7.5h-7.5v-7.5zm11.2 0h7.6v7.5h-7.6v-7.5zm11.3 0h7.5v7.5h-7.5v-7.5zm11.3 0h7.5v7.5h-7.5v-7.5zm11.3 0h7.5v7.5h-7.5v-7.5zm11.2 0h7.6v7.5H307v-7.5zm11.3 0h7.5v7.5h-7.5v-7.5zm11.3 0h7.5v7.5h-7.5v-7.5zm11.3 0h7.5v7.5h-7.5v-7.5zm11.3 0h7.5v7.5h-7.5v-7.5zm11.2 0h7.6v7.5h-7.6v-7.5zm11.3 0h7.5v7.5h-7.5v-7.5zM25.1 65.6h7.5v7.5h-7.5v-7.5zm11.3 0h7.5v7.5h-7.5v-7.5zm11.3 0h7.5v7.5h-7.5v-7.5zm11.3 0h7.5v7.5H59v-7.5zm11.2 0h7.5v7.5h-7.5v-7.5zm11.3 0H89v7.5h-7.5v-7.5zm11.3 0h7.5v7.5h-7.5v-7.5zm11.3 0h7.5v7.5h-7.5v-7.5zm11.2 0h7.6v7.5h-7.6v-7.5zm11.3 0h7.5v7.5h-7.5v-7.5zm11.3 0h7.5v7.5h-7.5v-7.5zm11.3 0h7.5v7.5h-7.5v-7.5zm11.2 0h7.6v7.5h-7.6v-7.5zm11.3 0h7.5v7.5h-7.5v-7.5zm11.3 0h7.5v7.5H183v-7.5zm11.3 0h7.5v7.5h-7.5v-7.5zm11.3 0h7.5v7.5h-7.5v-7.5zm11.2 0h7.5v7.5h-7.5v-7.5zm11.3 0h7.5v7.5h-7.5v-7.5zm11.3 0h7.5v7.5h-7.5v-7.5zm11.3 0h7.5v7.5h-7.5v-7.5zm11.2 0h7.6v7.5h-7.6v-7.5zm11.3 0h7.5v7.5h-7.5v-7.5zm11.3 0h7.5v7.5h-7.5v-7.5zm11.3 0h7.5v7.5h-7.5v-7.5zm11.2 0h7.6v7.5H307v-7.5zm11.3 0h7.5v7.5h-7.5v-7.5zm11.3 0h7.5v7.5h-7.5v-7.5zm11.3 0h7.5v7.5h-7.5v-7.5zm11.3 0h7.5v7.5h-7.5v-7.5zm11.2 0h7.6v7.5h-7.6v-7.5zm11.3 0h7.5v7.5h-7.5v-7.5zM25.1 76.9h7.5v7.5h-7.5v-7.5zm11.3 0h7.5v7.5h-7.5v-7.5zm11.3 0h7.5v7.5h-7.5v-7.5zm11.3 0h7.5v7.5H59v-7.5zm11.2 0h7.5v7.5h-7.5v-7.5zm11.3 0H89v7.5h-7.5v-7.5zm11.3 0h7.5v7.5h-7.5v-7.5zm11.3 0h7.5v7.5h-7.5v-7.5zm11.2 0h7.6v7.5h-7.6v-7.5zm11.3 0h7.5v7.5h-7.5v-7.5zm11.3 0h7.5v7.5h-7.5v-7.5zm11.3 0h7.5v7.5h-7.5v-7.5zm11.2 0h7.6v7.5h-7.6v-7.5zm11.3 0h7.5v7.5h-7.5v-7.5zm11.3 0h7.5v7.5H183v-7.5zm11.3 0h7.5v7.5h-7.5v-7.5zm11.3 0h7.5v7.5h-7.5v-7.5zm11.2 0h7.5v7.5h-7.5v-7.5zm11.3 0h7.5v7.5h-7.5v-7.5zm11.3 0h7.5v7.5h-7.5v-7.5zm11.3 0h7.5v7.5h-7.5v-7.5zm11.2 0h7.6v7.5h-7.6v-7.5zm11.3 0h7.5v7.5h-7.5v-7.5zm11.3 0h7.5v7.5h-7.5v-7.5zm11.3 0h7.5v7.5h-7.5v-7.5zm11.2 0h7.6v7.5H307v-7.5zm11.3 0h7.5v7.5h-7.5v-7.5zm11.3 0h7.5v7.5h-7.5v-7.5zm11.3 0h7.5v7.5h-7.5v-7.5zm11.3 0h7.5v7.5h-7.5v-7.5zm11.2 0h7.6v7.5h-7.6v-7.5zm11.3 0h7.5v7.5h-7.5v-7.5zM25.1 88.1h7.5v7.6h-7.5v-7.6zm11.3 0h7.5v7.6h-7.5v-7.6zm11.3 0h7.5v7.6h-7.5v-7.6zm11.3 0h7.5v7.6H59v-7.6zm11.2 0h7.5v7.6h-7.5v-7.6zm11.3 0H89v7.6h-7.5v-7.6zm11.3 0h7.5v7.6h-7.5v-7.6zm11.3 0h7.5v7.6h-7.5v-7.6zm11.2 0h7.6v7.6h-7.6v-7.6zm11.3 0h7.5v7.6h-7.5v-7.6zm11.3 0h7.5v7.6h-7.5v-7.6zm11.3 0h7.5v7.6h-7.5v-7.6zm11.2 0h7.6v7.6h-7.6v-7.6zm11.3 0h7.5v7.6h-7.5v-7.6zm11.3 0h7.5v7.6H183v-7.6zm11.3 0h7.5v7.6h-7.5v-7.6zm11.3 0h7.5v7.6h-7.5v-7.6zm11.2 0h7.5v7.6h-7.5v-7.6zm11.3 0h7.5v7.6h-7.5v-7.6zm11.3 0h7.5v7.6h-7.5v-7.6zm11.3 0h7.5v7.6h-7.5v-7.6zm11.2 0h7.6v7.6h-7.6v-7.6zm11.3 0h7.5v7.6h-7.5v-7.6zm11.3 0h7.5v7.6h-7.5v-7.6zm11.3 0h7.5v7.6h-7.5v-7.6zm11.2 0h7.6v7.6H307v-7.6zm11.3 0h7.5v7.6h-7.5v-7.6zm11.3 0h7.5v7.6h-7.5v-7.6zm11.3 0h7.5v7.6h-7.5v-7.6zm11.3 0h7.5v7.6h-7.5v-7.6zm11.2 0h7.6v7.6h-7.6v-7.6zm11.3 0h7.5v7.6h-7.5v-7.6zM25.1 99.4h7.5v7.5h-7.5v-7.5zm11.3 0h7.5v7.5h-7.5v-7.5zm11.3 0h7.5v7.5h-7.5v-7.5zm11.3 0h7.5v7.5H59v-7.5zm11.2 0h7.5v7.5h-7.5v-7.5zm11.3 0H89v7.5h-7.5v-7.5zm11.3 0h7.5v7.5h-7.5v-7.5zm11.3 0h7.5v7.5h-7.5v-7.5zm11.2 0h7.6v7.5h-7.6v-7.5zm11.3 0h7.5v7.5h-7.5v-7.5zm11.3 0h7.5v7.5h-7.5v-7.5zm11.3 0h7.5v7.5h-7.5v-7.5zm11.2 0h7.6v7.5h-7.6v-7.5zm11.3 0h7.5v7.5h-7.5v-7.5zm11.3 0h7.5v7.5H183v-7.5zm11.3 0h7.5v7.5h-7.5v-7.5zm11.3 0h7.5v7.5h-7.5v-7.5zm11.2 0h7.5v7.5h-7.5v-7.5zm11.3 0h7.5v7.5h-7.5v-7.5zm11.3 0h7.5v7.5h-7.5v-7.5zm11.3 0h7.5v7.5h-7.5v-7.5zm11.2 0h7.6v7.5h-7.6v-7.5zm11.3 0h7.5v7.5h-7.5v-7.5zm11.3 0h7.5v7.5h-7.5v-7.5zm11.3 0h7.5v7.5h-7.5v-7.5zm11.2 0h7.6v7.5H307v-7.5zm11.3 0h7.5v7.5h-7.5v-7.5zm11.3 0h7.5v7.5h-7.5v-7.5zm11.3 0h7.5v7.5h-7.5v-7.5zm11.3 0h7.5v7.5h-7.5v-7.5zm11.2 0h7.6v7.5h-7.6v-7.5zm11.3 0h7.5v7.5h-7.5v-7.5zM25.1 110.7h7.5v7.5h-7.5v-7.5zm11.3 0h7.5v7.5h-7.5v-7.5zm11.3 0h7.5v7.5h-7.5v-7.5zm11.3 0h7.5v7.5H59v-7.5zm11.2 0h7.5v7.5h-7.5v-7.5zm11.3 0H89v7.5h-7.5v-7.5zm11.3 0h7.5v7.5h-7.5v-7.5zm11.3 0h7.5v7.5h-7.5v-7.5z"/><path class="st8" d="M104.1 110.7h7.5v7.5h-7.5v-7.5zm11.2 0h7.6v7.5h-7.6v-7.5z"/><path class="st8" d="M115.3 110.7h7.6v7.5h-7.6v-7.5zm11.3 0h7.5v7.5h-7.5v-7.5z"/><path class="st8" d="M126.6 110.7h7.5v7.5h-7.5v-7.5zm11.3 0h7.5v7.5h-7.5v-7.5z"/><path class="st8" d="M137.9 110.7h7.5v7.5h-7.5v-7.5zm11.3 0h7.5v7.5h-7.5v-7.5zm11.2 0h7.6v7.5h-7.6v-7.5zm11.3 0h7.5v7.5h-7.5v-7.5zm11.3 0h7.5v7.5H183v-7.5zm11.3 0h7.5v7.5h-7.5v-7.5zm11.3 0h7.5v7.5h-7.5v-7.5zm11.2 0h7.5v7.5h-7.5v-7.5zm11.3 0h7.5v7.5h-7.5v-7.5zm11.3 0h7.5v7.5h-7.5v-7.5zm11.3 0h7.5v7.5h-7.5v-7.5zm11.2 0h7.6v7.5h-7.6v-7.5zm11.3 0h7.5v7.5h-7.5v-7.5zm11.3 0h7.5v7.5h-7.5v-7.5zm11.3 0h7.5v7.5h-7.5v-7.5zm11.2 0h7.6v7.5H307v-7.5zm11.3 0h7.5v7.5h-7.5v-7.5zm11.3 0h7.5v7.5h-7.5v-7.5zm11.3 0h7.5v7.5h-7.5v-7.5zm11.3 0h7.5v7.5h-7.5v-7.5zm11.2 0h7.6v7.5h-7.6v-7.5zm11.3 0h7.5v7.5h-7.5v-7.5zM25.1 122h7.5v7.5h-7.5V122zm11.3 0h7.5v7.5h-7.5V122zm11.3 0h7.5v7.5h-7.5V122zm11.3 0h7.5v7.5H59V122zm11.2 0h7.5v7.5h-7.5V122zm11.3 0H89v7.5h-7.5V122zm11.3 0h7.5v7.5h-7.5V122zm11.3 0h7.5v7.5h-7.5V122z"/><path class="st8" d="M104.1 122h7.5v7.5h-7.5V122zm11.2 0h7.6v7.5h-7.6V122zm11.3 0h7.5v7.5h-7.5V122zm11.3 0h7.5v7.5h-7.5V122zm11.3 0h7.5v7.5h-7.5V122z"/><path class="st8" d="M149.2 122h7.5v7.5h-7.5V122zm11.2 0h7.6v7.5h-7.6V122zm11.3 0h7.5v7.5h-7.5V122zm11.3 0h7.5v7.5H183V122zm11.3 0h7.5v7.5h-7.5V122zm11.3 0h7.5v7.5h-7.5V122zm11.2 0h7.5v7.5h-7.5V122zm11.3 0h7.5v7.5h-7.5V122zm11.3 0h7.5v7.5h-7.5V122zm11.3 0h7.5v7.5h-7.5V122zm11.2 0h7.6v7.5h-7.6V122zm11.3 0h7.5v7.5h-7.5V122zm11.3 0h7.5v7.5h-7.5V122zm11.3 0h7.5v7.5h-7.5V122zm11.2 0h7.6v7.5H307V122zm11.3 0h7.5v7.5h-7.5V122zm11.3 0h7.5v7.5h-7.5V122zm11.3 0h7.5v7.5h-7.5V122zm11.3 0h7.5v7.5h-7.5V122zm11.2 0h7.6v7.5h-7.6V122zm11.3 0h7.5v7.5h-7.5V122zM25.1 133.3h7.5v7.5h-7.5v-7.5zm11.3 0h7.5v7.5h-7.5v-7.5zm11.3 0h7.5v7.5h-7.5v-7.5zm11.3 0h7.5v7.5H59v-7.5zm11.2 0h7.5v7.5h-7.5v-7.5zm11.3 0H89v7.5h-7.5v-7.5zm11.3 0h7.5v7.5h-7.5v-7.5zm11.3 0h7.5v7.5h-7.5v-7.5z"/><path class="st8" d="M104.1 133.3h7.5v7.5h-7.5v-7.5zm11.2 0h7.6v7.5h-7.6v-7.5zm11.3 0h7.5v7.5h-7.5v-7.5zm11.3 0h7.5v7.5h-7.5v-7.5zm11.3 0h7.5v7.5h-7.5v-7.5z"/><path class="st8" d="M149.2 133.3h7.5v7.5h-7.5v-7.5zm11.2 0h7.6v7.5h-7.6v-7.5zm11.3 0h7.5v7.5h-7.5v-7.5zm11.3 0h7.5v7.5H183v-7.5zm11.3 0h7.5v7.5h-7.5v-7.5zm11.3 0h7.5v7.5h-7.5v-7.5zm11.2 0h7.5v7.5h-7.5v-7.5zm11.3 0h7.5v7.5h-7.5v-7.5zm11.3 0h7.5v7.5h-7.5v-7.5zm11.3 0h7.5v7.5h-7.5v-7.5zm11.2 0h7.6v7.5h-7.6v-7.5zm11.3 0h7.5v7.5h-7.5v-7.5zm11.3 0h7.5v7.5h-7.5v-7.5zm11.3 0h7.5v7.5h-7.5v-7.5zm11.2 0h7.6v7.5H307v-7.5zm11.3 0h7.5v7.5h-7.5v-7.5zm11.3 0h7.5v7.5h-7.5v-7.5zm11.3 0h7.5v7.5h-7.5v-7.5zm11.3 0h7.5v7.5h-7.5v-7.5zm11.2 0h7.6v7.5h-7.6v-7.5zm11.3 0h7.5v7.5h-7.5v-7.5zM25.1 144.5h7.5v7.5h-7.5v-7.5zm11.3 0h7.5v7.5h-7.5v-7.5zm11.3 0h7.5v7.5h-7.5v-7.5zm11.3 0h7.5v7.5H59v-7.5zm11.2 0h7.5v7.5h-7.5v-7.5zm11.3 0H89v7.5h-7.5v-7.5zm11.3 0h7.5v7.5h-7.5v-7.5zm11.3 0h7.5v7.5h-7.5v-7.5z"/><path class="st8" d="M104.1 144.5h7.5v7.5h-7.5v-7.5zm11.2 0h7.6v7.5h-7.6v-7.5z"/><path class="st8" d="M115.3 144.5h7.6v7.5h-7.6v-7.5zm11.3 0h7.5v7.5h-7.5v-7.5z"/><path class="st8" d="M126.6 144.5h7.5v7.5h-7.5v-7.5zm11.3 0h7.5v7.5h-7.5v-7.5z"/><path class="st8" d="M137.9 144.5h7.5v7.5h-7.5v-7.5zm11.3 0h7.5v7.5h-7.5v-7.5zm11.2 0h7.6v7.5h-7.6v-7.5zm11.3 0h7.5v7.5h-7.5v-7.5zm11.3 0h7.5v7.5H183v-7.5zm11.3 0h7.5v7.5h-7.5v-7.5zm11.3 0h7.5v7.5h-7.5v-7.5zm11.2 0h7.5v7.5h-7.5v-7.5zm11.3 0h7.5v7.5h-7.5v-7.5zm11.3 0h7.5v7.5h-7.5v-7.5zm11.3 0h7.5v7.5h-7.5v-7.5zm11.2 0h7.6v7.5h-7.6v-7.5zm11.3 0h7.5v7.5h-7.5v-7.5zm11.3 0h7.5v7.5h-7.5v-7.5zm11.3 0h7.5v7.5h-7.5v-7.5zm11.2 0h7.6v7.5H307v-7.5zm11.3 0h7.5v7.5h-7.5v-7.5zm11.3 0h7.5v7.5h-7.5v-7.5zm11.3 0h7.5v7.5h-7.5v-7.5zm11.3 0h7.5v7.5h-7.5v-7.5zm11.2 0h7.6v7.5h-7.6v-7.5zm11.3 0h7.5v7.5h-7.5v-7.5zM25.1 155.8h7.5v7.5h-7.5v-7.5zm11.3 0h7.5v7.5h-7.5v-7.5zm11.3 0h7.5v7.5h-7.5v-7.5zm11.3 0h7.5v7.5H59v-7.5zm11.2 0h7.5v7.5h-7.5v-7.5zm11.3 0H89v7.5h-7.5v-7.5zm11.3 0h7.5v7.5h-7.5v-7.5zm11.3 0h7.5v7.5h-7.5v-7.5z"/><path class="st8" d="M104.1 155.8h7.5v7.5h-7.5v-7.5zm11.2 0h7.6v7.5h-7.6v-7.5zm11.3 0h7.5v7.5h-7.5v-7.5z"/><path class="st8" d="M126.6 155.8h7.5v7.5h-7.5v-7.5zm11.3 0h7.5v7.5h-7.5v-7.5zm11.3 0h7.5v7.5h-7.5v-7.5zm11.2 0h7.6v7.5h-7.6v-7.5zm11.3 0h7.5v7.5h-7.5v-7.5zm11.3 0h7.5v7.5H183v-7.5zm11.3 0h7.5v7.5h-7.5v-7.5zm11.3 0h7.5v7.5h-7.5v-7.5zm11.2 0h7.5v7.5h-7.5v-7.5zm11.3 0h7.5v7.5h-7.5v-7.5zm11.3 0h7.5v7.5h-7.5v-7.5zm11.3 0h7.5v7.5h-7.5v-7.5zm11.2 0h7.6v7.5h-7.6v-7.5zm11.3 0h7.5v7.5h-7.5v-7.5zm11.3 0h7.5v7.5h-7.5v-7.5zm11.3 0h7.5v7.5h-7.5v-7.5zm11.2 0h7.6v7.5H307v-7.5zm11.3 0h7.5v7.5h-7.5v-7.5zm11.3 0h7.5v7.5h-7.5v-7.5zm11.3 0h7.5v7.5h-7.5v-7.5zm11.3 0h7.5v7.5h-7.5v-7.5zm11.2 0h7.6v7.5h-7.6v-7.5zm11.3 0h7.5v7.5h-7.5v-7.5zM25.1 167.1h7.5v7.5h-7.5v-7.5zm11.3 0h7.5v7.5h-7.5v-7.5zm11.3 0h7.5v7.5h-7.5v-7.5zm11.3 0h7.5v7.5H59v-7.5zm11.2 0h7.5v7.5h-7.5v-7.5zm11.3 0H89v7.5h-7.5v-7.5zm11.3 0h7.5v7.5h-7.5v-7.5zm11.3 0h7.5v7.5h-7.5v-7.5z"/><path class="st8" d="M104.1 167.1h7.5v7.5h-7.5v-7.5zm11.2 0h7.6v7.5h-7.6v-7.5zm11.3 0h7.5v7.5h-7.5v-7.5zm11.3 0h7.5v7.5h-7.5v-7.5z"/><path class="st8" d="M137.9 167.1h7.5v7.5h-7.5v-7.5zm11.3 0h7.5v7.5h-7.5v-7.5zm11.2 0h7.6v7.5h-7.6v-7.5zm11.3 0h7.5v7.5h-7.5v-7.5zm11.3 0h7.5v7.5H183v-7.5zm11.3 0h7.5v7.5h-7.5v-7.5zm11.3 0h7.5v7.5h-7.5v-7.5zm11.2 0h7.5v7.5h-7.5v-7.5zm11.3 0h7.5v7.5h-7.5v-7.5zm11.3 0h7.5v7.5h-7.5v-7.5zm11.3 0h7.5v7.5h-7.5v-7.5zm11.2 0h7.6v7.5h-7.6v-7.5zm11.3 0h7.5v7.5h-7.5v-7.5zm11.3 0h7.5v7.5h-7.5v-7.5zm11.3 0h7.5v7.5h-7.5v-7.5zm11.2 0h7.6v7.5H307v-7.5zm11.3 0h7.5v7.5h-7.5v-7.5zm11.3 0h7.5v7.5h-7.5v-7.5zm11.3 0h7.5v7.5h-7.5v-7.5zm11.3 0h7.5v7.5h-7.5v-7.5zm11.2 0h7.6v7.5h-7.6v-7.5zm11.3 0h7.5v7.5h-7.5v-7.5zM25.1 178.4h7.5v7.5h-7.5v-7.5zm11.3 0h7.5v7.5h-7.5v-7.5zm11.3 0h7.5v7.5h-7.5v-7.5zm11.3 0h7.5v7.5H59v-7.5zm11.2 0h7.5v7.5h-7.5v-7.5zm11.3 0H89v7.5h-7.5v-7.5zm11.3 0h7.5v7.5h-7.5v-7.5zm11.3 0h7.5v7.5h-7.5v-7.5z"/><path class="st8" d="M104.1 178.4h7.5v7.5h-7.5v-7.5zm11.2 0h7.6v7.5h-7.6v-7.5zm11.3 0h7.5v7.5h-7.5v-7.5zm11.3 0h7.5v7.5h-7.5v-7.5zm11.3 0h7.5v7.5h-7.5v-7.5z"/><path class="st8" d="M149.2 178.4h7.5v7.5h-7.5v-7.5zm11.2 0h7.6v7.5h-7.6v-7.5zm11.3 0h7.5v7.5h-7.5v-7.5zm11.3 0h7.5v7.5H183v-7.5zm11.3 0h7.5v7.5h-7.5v-7.5zm11.3 0h7.5v7.5h-7.5v-7.5zm11.2 0h7.5v7.5h-7.5v-7.5zm11.3 0h7.5v7.5h-7.5v-7.5zm11.3 0h7.5v7.5h-7.5v-7.5zm11.3 0h7.5v7.5h-7.5v-7.5zm11.2 0h7.6v7.5h-7.6v-7.5zm11.3 0h7.5v7.5h-7.5v-7.5zm11.3 0h7.5v7.5h-7.5v-7.5zm11.3 0h7.5v7.5h-7.5v-7.5zm11.2 0h7.6v7.5H307v-7.5zm11.3 0h7.5v7.5h-7.5v-7.5zm11.3 0h7.5v7.5h-7.5v-7.5zm11.3 0h7.5v7.5h-7.5v-7.5zm11.3 0h7.5v7.5h-7.5v-7.5zm11.2 0h7.6v7.5h-7.6v-7.5zm11.3 0h7.5v7.5h-7.5v-7.5zM25.1 189.6h7.5v7.5h-7.5v-7.5zm11.3 0h7.5v7.5h-7.5v-7.5zm11.3 0h7.5v7.5h-7.5v-7.5zm11.3 0h7.5v7.5H59v-7.5zm11.2 0h7.5v7.5h-7.5v-7.5zm11.3 0H89v7.5h-7.5v-7.5zm11.3 0h7.5v7.5h-7.5v-7.5zm11.3 0h7.5v7.5h-7.5v-7.5zm11.2 0h7.6v7.5h-7.6v-7.5zm11.3 0h7.5v7.5h-7.5v-7.5zm11.3 0h7.5v7.5h-7.5v-7.5zm11.3 0h7.5v7.5h-7.5v-7.5zm11.2 0h7.6v7.5h-7.6v-7.5zm11.3 0h7.5v7.5h-7.5v-7.5zm11.3 0h7.5v7.5H183v-7.5zm11.3 0h7.5v7.5h-7.5v-7.5zm11.3 0h7.5v7.5h-7.5v-7.5zm11.2 0h7.5v7.5h-7.5v-7.5zm11.3 0h7.5v7.5h-7.5v-7.5zm11.3 0h7.5v7.5h-7.5v-7.5zm11.3 0h7.5v7.5h-7.5v-7.5zm11.2 0h7.6v7.5h-7.6v-7.5zm11.3 0h7.5v7.5h-7.5v-7.5zm11.3 0h7.5v7.5h-7.5v-7.5zm11.3 0h7.5v7.5h-7.5v-7.5zm11.2 0h7.6v7.5H307v-7.5zm11.3 0h7.5v7.5h-7.5v-7.5zm11.3 0h7.5v7.5h-7.5v-7.5zm11.3 0h7.5v7.5h-7.5v-7.5zm11.3 0h7.5v7.5h-7.5v-7.5zm11.2 0h7.6v7.5h-7.6v-7.5zm11.3 0h7.5v7.5h-7.5v-7.5zM25.1 200.9h7.5v7.5h-7.5v-7.5zm11.3 0h7.5v7.5h-7.5v-7.5zm11.3 0h7.5v7.5h-7.5v-7.5zm11.3 0h7.5v7.5H59v-7.5zm11.2 0h7.5v7.5h-7.5v-7.5zm11.3 0H89v7.5h-7.5v-7.5zm11.3 0h7.5v7.5h-7.5v-7.5zm11.3 0h7.5v7.5h-7.5v-7.5zm11.2 0h7.6v7.5h-7.6v-7.5zm11.3 0h7.5v7.5h-7.5v-7.5zm11.3 0h7.5v7.5h-7.5v-7.5zm11.3 0h7.5v7.5h-7.5v-7.5zm11.2 0h7.6v7.5h-7.6v-7.5zm11.3 0h7.5v7.5h-7.5v-7.5zm11.3 0h7.5v7.5H183v-7.5zm11.3 0h7.5v7.5h-7.5v-7.5zm11.3 0h7.5v7.5h-7.5v-7.5zm11.2 0h7.5v7.5h-7.5v-7.5zm11.3 0h7.5v7.5h-7.5v-7.5zm11.3 0h7.5v7.5h-7.5v-7.5zm11.3 0h7.5v7.5h-7.5v-7.5zm11.2 0h7.6v7.5h-7.6v-7.5zm11.3 0h7.5v7.5h-7.5v-7.5zm11.3 0h7.5v7.5h-7.5v-7.5zm11.3 0h7.5v7.5h-7.5v-7.5zm11.2 0h7.6v7.5H307v-7.5zm11.3 0h7.5v7.5h-7.5v-7.5zm11.3 0h7.5v7.5h-7.5v-7.5zm11.3 0h7.5v7.5h-7.5v-7.5zm11.3 0h7.5v7.5h-7.5v-7.5zm11.2 0h7.6v7.5h-7.6v-7.5zm11.3 0h7.5v7.5h-7.5v-7.5zM25.1 212.2h7.5v7.5h-7.5v-7.5zm11.3 0h7.5v7.5h-7.5v-7.5zm11.3 0h7.5v7.5h-7.5v-7.5zm11.3 0h7.5v7.5H59v-7.5zm11.2 0h7.5v7.5h-7.5v-7.5zm11.3 0H89v7.5h-7.5v-7.5zm11.3 0h7.5v7.5h-7.5v-7.5zm11.3 0h7.5v7.5h-7.5v-7.5zm11.2 0h7.6v7.5h-7.6v-7.5zm11.3 0h7.5v7.5h-7.5v-7.5zm11.3 0h7.5v7.5h-7.5v-7.5zm11.3 0h7.5v7.5h-7.5v-7.5zm11.2 0h7.6v7.5h-7.6v-7.5zm11.3 0h7.5v7.5h-7.5v-7.5zm11.3 0h7.5v7.5H183v-7.5zm11.3 0h7.5v7.5h-7.5v-7.5zm11.3 0h7.5v7.5h-7.5v-7.5zm11.2 0h7.5v7.5h-7.5v-7.5zm11.3 0h7.5v7.5h-7.5v-7.5zm11.3 0h7.5v7.5h-7.5v-7.5zm11.3 0h7.5v7.5h-7.5v-7.5zm11.2 0h7.6v7.5h-7.6v-7.5zm11.3 0h7.5v7.5h-7.5v-7.5zm11.3 0h7.5v7.5h-7.5v-7.5zm11.3 0h7.5v7.5h-7.5v-7.5zm11.2 0h7.6v7.5H307v-7.5zm11.3 0h7.5v7.5h-7.5v-7.5zm11.3 0h7.5v7.5h-7.5v-7.5zm11.3 0h7.5v7.5h-7.5v-7.5zm11.3 0h7.5v7.5h-7.5v-7.5zm11.2 0h7.6v7.5h-7.6v-7.5zm11.3 0h7.5v7.5h-7.5v-7.5zM25.1 223.5h7.5v7.5h-7.5v-7.5zm11.3 0h7.5v7.5h-7.5v-7.5zm11.3 0h7.5v7.5h-7.5v-7.5zm11.3 0h7.5v7.5H59v-7.5zm11.2 0h7.5v7.5h-7.5v-7.5zm11.3 0H89v7.5h-7.5v-7.5zm11.3 0h7.5v7.5h-7.5v-7.5zm11.3 0h7.5v7.5h-7.5v-7.5zm11.2 0h7.6v7.5h-7.6v-7.5zm11.3 0h7.5v7.5h-7.5v-7.5zm11.3 0h7.5v7.5h-7.5v-7.5zm11.3 0h7.5v7.5h-7.5v-7.5zm11.2 0h7.6v7.5h-7.6v-7.5zm11.3 0h7.5v7.5h-7.5v-7.5zm11.3 0h7.5v7.5H183v-7.5zm11.3 0h7.5v7.5h-7.5v-7.5zm11.3 0h7.5v7.5h-7.5v-7.5zm11.2 0h7.5v7.5h-7.5v-7.5zm11.3 0h7.5v7.5h-7.5v-7.5zm11.3 0h7.5v7.5h-7.5v-7.5zm11.3 0h7.5v7.5h-7.5v-7.5zm11.2 0h7.6v7.5h-7.6v-7.5zm11.3 0h7.5v7.5h-7.5v-7.5zm11.3 0h7.5v7.5h-7.5v-7.5zm11.3 0h7.5v7.5h-7.5v-7.5zm11.2 0h7.6v7.5H307v-7.5zm11.3 0h7.5v7.5h-7.5v-7.5zm11.3 0h7.5v7.5h-7.5v-7.5zm11.3 0h7.5v7.5h-7.5v-7.5zm11.3 0h7.5v7.5h-7.5v-7.5zm11.2 0h7.6v7.5h-7.6v-7.5zm11.3 0h7.5v7.5h-7.5v-7.5zM25.1 234.7h7.5v7.6h-7.5v-7.6zm11.3 0h7.5v7.6h-7.5v-7.6zm11.3 0h7.5v7.6h-7.5v-7.6zm11.3 0h7.5v7.6H59v-7.6zm11.2 0h7.5v7.6h-7.5v-7.6zm11.3 0H89v7.6h-7.5v-7.6zm11.3 0h7.5v7.6h-7.5v-7.6zm11.3 0h7.5v7.6h-7.5v-7.6zm11.2 0h7.6v7.6h-7.6v-7.6zm11.3 0h7.5v7.6h-7.5v-7.6zm11.3 0h7.5v7.6h-7.5v-7.6zm11.3 0h7.5v7.6h-7.5v-7.6zm11.2 0h7.6v7.6h-7.6v-7.6zm11.3 0h7.5v7.6h-7.5v-7.6zm11.3 0h7.5v7.6H183v-7.6zm11.3 0h7.5v7.6h-7.5v-7.6zm11.3 0h7.5v7.6h-7.5v-7.6zm11.2 0h7.5v7.6h-7.5v-7.6zm11.3 0h7.5v7.6h-7.5v-7.6zm11.3 0h7.5v7.6h-7.5v-7.6zm11.3 0h7.5v7.6h-7.5v-7.6zm11.2 0h7.6v7.6h-7.6v-7.6zm11.3 0h7.5v7.6h-7.5v-7.6zm11.3 0h7.5v7.6h-7.5v-7.6zm11.3 0h7.5v7.6h-7.5v-7.6zm11.2 0h7.6v7.6H307v-7.6zm11.3 0h7.5v7.6h-7.5v-7.6zm11.3 0h7.5v7.6h-7.5v-7.6zm11.3 0h7.5v7.6h-7.5v-7.6zm11.3 0h7.5v7.6h-7.5v-7.6zm11.2 0h7.6v7.6h-7.6v-7.6zm11.3 0h7.5v7.6h-7.5v-7.6zM25.1 246h7.5v7.5h-7.5V246zm11.3 0h7.5v7.5h-7.5V246zm11.3 0h7.5v7.5h-7.5V246zm11.3 0h7.5v7.5H59V246zm11.2 0h7.5v7.5h-7.5V246zm11.3 0H89v7.5h-7.5V246zm11.3 0h7.5v7.5h-7.5V246zm11.3 0h7.5v7.5h-7.5V246zm11.2 0h7.6v7.5h-7.6V246zm11.3 0h7.5v7.5h-7.5V246zm11.3 0h7.5v7.5h-7.5V246zm11.3 0h7.5v7.5h-7.5V246zm11.2 0h7.6v7.5h-7.6V246zm11.3 0h7.5v7.5h-7.5V246zm11.3 0h7.5v7.5H183V246zm11.3 0h7.5v7.5h-7.5V246zm11.3 0h7.5v7.5h-7.5V246zm11.2 0h7.5v7.5h-7.5V246zm11.3 0h7.5v7.5h-7.5V246zm11.3 0h7.5v7.5h-7.5V246zm11.3 0h7.5v7.5h-7.5V246zm11.2 0h7.6v7.5h-7.6V246zm11.3 0h7.5v7.5h-7.5V246zm11.3 0h7.5v7.5h-7.5V246zm11.3 0h7.5v7.5h-7.5V246zm11.2 0h7.6v7.5H307V246zm11.3 0h7.5v7.5h-7.5V246zm11.3 0h7.5v7.5h-7.5V246zm11.3 0h7.5v7.5h-7.5V246zm11.3 0h7.5v7.5h-7.5V246zm11.2 0h7.6v7.5h-7.6V246zm11.3 0h7.5v7.5h-7.5V246z"/><path class="st6" d="M17.1 41.6h3.5v8.5h-3.5v-8.5z"/><text transform="translate(17.14 49.74)" class="st0 st7">1</text><path class="st6" d="M17.2 52.9h3.5v8.5h-3.5v-8.5z"/><text transform="translate(17.235 61.017)" class="st0 st7">2</text><path class="st6" d="M17.2 64.1h3.5v8.5h-3.5v-8.5z"/><text transform="translate(17.235 72.294)" class="st0 st7">3</text><path class="st6" d="M17.2 75.4h3.5v8.5h-3.5v-8.5z"/><text transform="translate(17.235 83.571)" class="st0 st7">4</text><path class="st6" d="M17.2 86.7h3.5v8.5h-3.5v-8.5z"/><text transform="translate(17.235 94.848)" class="st0 st7">5</text><path class="st6" d="M17.2 98h3.5v8.5h-3.5V98z"/><text transform="translate(17.235 106.126)" class="st0 st7">6</text><path class="st6" d="M17.2 109.2h3.5v8.5h-3.5v-8.5z"/><text transform="translate(17.235 117.402)" class="st0 st7">7</text><path class="st6" d="M17.2 120.5h3.5v8.5h-3.5v-8.5z"/><text transform="translate(17.235 128.68)" class="st0 st7">8</text><path class="st6" d="M17.2 131.8h3.5v8.5h-3.5v-8.5z"/><text transform="translate(17.235 139.957)" class="st0 st7">9</text><path class="st6" d="M13.8 143.1h6.9v8.5h-6.9v-8.5z"/><text transform="translate(13.809 151.233)" class="st0 st7">10</text><path class="st6" d="M14.2 154.4h6.5v8.5h-6.5v-8.5z"/><text transform="translate(14.207 162.51)" class="st0 st7">1</text><text transform="translate(17.207 162.51)" class="st0 st7">1</text><path class="st6" d="M13.8 165.6h6.9v8.4h-6.9v-8.4z"/><text transform="translate(13.809 173.787)" class="st0 st7">12</text><path class="st6" d="M13.8 176.9h6.9v8.5h-6.9v-8.5z"/><text transform="translate(13.809 185.065)" class="st0 st7">13</text><path class="st6" d="M13.8 188.2h6.9v8.5h-6.9v-8.5z"/><text transform="translate(13.809 196.34)" class="st0 st7">14</text><path class="st6" d="M13.8 199.4h6.9v8.5h-6.9v-8.5z"/><text transform="translate(13.809 207.619)" class="st0 st7">15</text><path class="st6" d="M13.8 210.7h6.9v8.5h-6.9v-8.5z"/><text transform="translate(13.809 218.896)" class="st0 st7">16</text><path class="st6" d="M13.8 222h6.9v8.5h-6.9V222z"/><text transform="translate(13.809 230.171)" class="st0 st7">17</text><path class="st6" d="M13.8 233.3h6.9v8.5h-6.9v-8.5z"/><text transform="translate(13.809 241.45)" class="st0 st7">18</text><path class="st6" d="M13.8 244.6h6.9v8.5h-6.9v-8.5z"/><text transform="translate(13.809 252.727)" class="st0 st7">19</text><path class="st8" d="M25.1 257.3h7.5v7.5h-7.5v-7.5zm11.3 0h7.5v7.5h-7.5v-7.5zm11.3 0h7.5v7.5h-7.5v-7.5zm11.3 0h7.5v7.5H59v-7.5zm11.2 0h7.5v7.5h-7.5v-7.5zm11.3 0H89v7.5h-7.5v-7.5zm11.3 0h7.5v7.5h-7.5v-7.5zm11.3 0h7.5v7.5h-7.5v-7.5zm11.2 0h7.6v7.5h-7.6v-7.5zm11.3 0h7.5v7.5h-7.5v-7.5zm11.3 0h7.5v7.5h-7.5v-7.5zm11.3 0h7.5v7.5h-7.5v-7.5zm11.2 0h7.6v7.5h-7.6v-7.5zm11.3 0h7.5v7.5h-7.5v-7.5zm11.3 0h7.5v7.5H183v-7.5zm11.3 0h7.5v7.5h-7.5v-7.5zm11.3 0h7.5v7.5h-7.5v-7.5zm11.2 0h7.5v7.5h-7.5v-7.5zm11.3 0h7.5v7.5h-7.5v-7.5zm11.3 0h7.5v7.5h-7.5v-7.5zm11.3 0h7.5v7.5h-7.5v-7.5zm11.2 0h7.6v7.5h-7.6v-7.5zm11.3 0h7.5v7.5h-7.5v-7.5zm11.3 0h7.5v7.5h-7.5v-7.5zm11.3 0h7.5v7.5h-7.5v-7.5zm11.2 0h7.6v7.5H307v-7.5zm11.3 0h7.5v7.5h-7.5v-7.5zm11.3 0h7.5v7.5h-7.5v-7.5zm11.3 0h7.5v7.5h-7.5v-7.5zm11.3 0h7.5v7.5h-7.5v-7.5zm11.2 0h7.6v7.5h-7.6v-7.5zm11.3 0h7.5v7.5h-7.5v-7.5z"/><path d="M10.2 267.3h374V26.2h-3.8L376.7 70l3.7 43.2-3.7 90.2 1.9 56.4-47-1.9-75.2 3.8-82.7-3.8-133.4 1.9-30.3-.6.2 8.1z" fill-rule="evenodd" clip-rule="evenodd" fill="#fff"/><path d="M10 259.4l30.3.4 131.5-1.9 84.6 3.8 75.2-3.8 47 1.9-1.9-56.4 3.7-90.2-3.7-43.2 3.4-40.1" fill="none" stroke="#fff" stroke-width=".5" stroke-miterlimit="3.864"/><path d="M8.5 18.5h377.3v250H8.5v-250z" fill="none" stroke="#fff" stroke-miterlimit="3.864"/><path d="M424.1 200.2H214.9M424.1 120H319.5" fill="none" stroke="#000" stroke-width="1.417" stroke-miterlimit="10"/><path class="st6" d="M428.5 28.5h16v16.1h-16V28.5z"/><path d="M428.5 28.5h16v16.1h-16V28.5z" fill="#9ba566"/><path d="M428.5 28.5h16v16.1h-16V28.5z" fill="#9ba566" stroke="#000" stroke-width=".001" stroke-miterlimit="3.864"/><path class="st15" d="M428.5 41.1v3.6h3.6l-3.6-3.6z"/><path class="st16" d="M428.5 41.1v3.6h3.6l-3.6-3.6z"/><path class="st15" d="M428.5 34v3.5l7.1 7.1h3.6L428.5 34z"/><path class="st16" d="M428.5 34v3.5l7.1 7.1h3.6L428.5 34z"/><path class="st15" d="M444.5 39.2v-3.5l-7.1-7.2h-3.6l10.7 10.7z"/><path class="st16" d="M444.5 39.2v-3.5l-7.1-7.2h-3.6l10.7 10.7z"/><path class="st15" d="M444.5 32.1v-3.6h-3.6l3.6 3.6z"/><path class="st16" d="M444.5 32.1v-3.6h-3.6l3.6 3.6z"/><path class="st15" d="M428.5 28.5v1.9l14.3 14.2h1.7v-1.7l-14.3-14.4h-1.7z"/><path class="st16" d="M428.5 28.5v1.9l14.3 14.2h1.7v-1.7l-14.3-14.4h-1.7z"/><text transform="translate(451.898 41.084)" class="st0 st1">= overlap</text></svg>