<svg version="1.1" id="Layer_1" xmlns="http://www.w3.org/2000/svg" x="0" y="0" viewBox="0 0 1000 909.1" xml:space="preserve"><style>.st0,.st1{fill:none;stroke:#1d1d1b;stroke-width:.283;stroke-miterlimit:3.864}.st1{stroke-width:.227}.st2{fill:#1d1d1b}.st2,.st3{fill-rule:evenodd;clip-rule:evenodd}.st4{fill:none;stroke:#000;stroke-width:.288;stroke-linecap:round;stroke-linejoin:round;stroke-miterlimit:10}.st5{font-family:Helvetica,Arial,sans-serif}.st6{font-size:21.155px}</style><path class="st0" d="M256.5 393.9v-3.2l-.1-.7v-2.3m6.3 143.2l-6.2-137m6.2 137h-1l-.3.2h-1l-.4.2h-.7l-.5.1h-.4l-.5.1h-.8l-.2.1h-.5l-.3.3-.3.1h-.3l-.4.1-.1.2-.2.1-.2.2-.2.2m0-145.7v145.7"/><path class="st0" d="M254.4 393.2h.5l.1.2h.5v.1h.4l.2.2h.4v.2m-2.1-6.8l2 .6m-1.8 175.7h212m-223.1 0h11.1m212-6.2H254.4m.2 6.2v-1l-.2-.5v-4.7m0 0h-10.9m-1.9-64.6v-.1h-.2l-.5-.2h-.4v68.1h.4l.5.3.2.5v.4m0-103.8v.1h-.7l-.4.2.1 1.3v4.3l.2 1.5v1.4l.1 1.5v1.5l.2 1.2v8.8l-.2 1.4v1.5l-.1 1.3v1.5l-.2 1.3v4.4l-.1 1.3m1.1.3v-2.8l.3-1.5v-2.8l.1-1.5v-7.3l.1-1.5-.1-1.5v-5.9l-.1-1.2v-4.4l-.3-1.5v-2.9m-1.1 102.6v.2l.1.1v.6l.2.1v.2l.1.1m.7-172.5v.4l-.2.5-.5.1-.4.2v67.7"/><path class="st0" d="M241.1 388.6v.1h-.2v.3h-.1v.4l-.2.1v.6l-.1.1v.2m1.5 172l-.4-.3-.2-.2-.5-.2m.2-173.1h.4l.4-.1.2-.4"/><path class="st0" d="M243.5 387.3l-.6.2-.5.2-.3.4-.2.5-.3.6m0 4.2v64.4m0-68.6v4.2m0 99.2v64.6m1.9 0h-1.9m1.9 0V393.4h-1.9m0 163.8v4.4m1.9 1.8l-.5-.2-.6-.1-.3-.4-.2-.6-.3-.5m1.9 1.8v-6.2m0-163.8v-6.1M170 559.9V390.5m-1.2 1.2v167m0-167l1.2-1.2m-1.2 168.2l1.2 1.2m296.6-2.7v-16.7m-212.2-7.7l1.5.1h3.2l1.5.1h1.6l1.5.1h3.1l1.5.3h3l1.5.1h3.1l1.5.2h1.5l1.5.1h3l1.7.1h3l1.5.3h1.5l1.5.1h3.1l1.5.1h3l1.5.1h1.8l1.5.2h3l1.5.2h3l1.6.1h3l1.5.2h1.5l1.5.1h3.1l1.5.1h3l1.5.3h1.7l1.5.1h3l1.5.1h3.1l1.5.1h1.5l1.5.2h3l1.8.2h3l1.5.1h3l1.6.2h1.5l1.5.1h3l1.5.1h3.1l1.5.3h1.5l1.5.1h3l1.7.1h3l1.5.1h3l1.6.2h1.5l1.5.2h3l1.5.1h3.3l1.5.2h1.5l1.5.1h3.1l1.5.1h3l1.5.3h1.5l1.6.1h3l1.5.1h3l1.7.1h3l1.5.2h1.5l1.5.2h3.1l1.5.1h3l1.5.2h1.5l1.8.1h3l1.5.1h3l1.6.3h1.5l1.5.1h3l1.5.1h3.1l1.5.1m-212.2-7.7v24.4m8.3-28.3l203.9 9M243.5 393.4l10.9-.2m-10.9-5.9h2.3l.3-.1h5.7l.3-.1h2.3m-84.4 3.4l71.1-1.9M170 559.9l70.9 1.8m256-52.7V393.9m0 162.5v-40.8m0 45.2v-4.4m0-162.5v-4.3m-1.7 173.1l.6-.3.4-.2.5-.3.2-.6v-.5m0-4.4h-1.7l.1 1.2v4.8l-.1.3m1.7-53.7v6.6m0-121.7h-1.7v162.5m1.7-166.8v-.6l-.2-.4-.5-.5-.4-.3h-.6"/><path class="st0" d="M495.2 387.8h.1v4.9l-.1 1.2m-28.6 169.5l28.6-.7m0-6.3l-28.6.8m0 0v6.2m31-118.1v-21.5m-2.4-36l-26.8-.7m0 6l26.8.8m5.5 154.8v-72.9m-1.1-1.2v75.3m-2-104.6v.4l-.3.3-.4.4m0-23.8l.4.4.3.3v.5m2 50.8l.3.2.4.3.3.2.1.5m0 72.9l-.1.5-.3.3-.4.4h-.3m-33-9.6v16.9m0-16.9V387.7m0 143.9h1.8m0-138.5v138.5m-1.8-138.5h1.8m0-6v6m-1.8-5.4l1.8-.6m0 144.5v1.9l-.1.3v.7l-.2.4v.8l-.1.2v.5l-.1.3-.3.2v.5l-.1.3-.1.5-.1.2v.4l-.2.4-.2.3-.1.4-.2.4m33 9.6l-2.7.1m2.7-75.4h-2.7m-239.6-67.1h11.4v-5.4H257m11.7 32.2v5.2l2-.2 1.7-.3 1.9-.2 1.6-.8 1.6-.7 1.5-1 1.5-1 1.4-1.4 1.3-1.4 1.1-1.2.9-1.8.7-1.6.7-1.6.5-1.8.2-1.9.1-1.7-.1-1.9-.2-1.9-.5-1.6-.7-1.9-.7-1.6-.9-1.5-1.1-1.5-1.3-1.4-1.4-1.1-1.5-1.3-1.5-.8-1.6-.8-1.6-.6-1.9-.5-1.7-.3-2-.1"/><path class="st0" d="M268.7 407.5h1.7l1.5.3 1.5.5 1.3.6 1.3.7 1.4.9 1 1.3 1.1 1 .9 1.3.6 1.4.7 1.5.2 1.5.1 1.5v1.6l-.1 1.5-.2 1.5-.7 1.5-.6 1.4-.9 1.3-1.1 1.2-1 1-1.4 1-1.3.8-1.3.5-1.5.5-1.5.2-1.7.3m-10.1 5.2h10.1m0-5.2h-10.2"/><path class="st0" d="M258.4 433.8h12l1.3-.3 1.5-.5 1.3-.6 1.4-.7 1.3-.9 1.1-1 .9-1.2 1-1.3.5-1.3.6-1.4.4-1.5.1-1.5v-1.5l-.1-1.5-.4-1.5-.6-1.5-.5-1.3-1-1.3-.9-1.1-1.1-1.1-1.3-.9-1.4-.8-1.3-.6-1.5-.4-1.3-.3h-13.1m209.3 26.5h-11v5.2h11m-11-32v-5.4l-1.7.1-1.8.3-1.8.5-1.7.6-1.6.8-1.6.8-1.5 1.3-1.4 1.1-1.3 1.4-1 1.5-.8 1.5-1 1.6-.5 1.9-.5 1.6-.3 1.9v3.6l.3 1.9.5 1.8.5 1.6 1 1.6.8 1.8 1 1.2 1.3 1.4 1.4 1.4 1.5 1 1.6 1 1.6.7 1.7.8 1.8.2 1.8.3 1.7.2"/><path class="st0" d="M455.6 434.3l-1.5-.3-1.5-.2-1.5-.5-1.5-.5-1.2-.8-1.3-1-1.2-1-.9-1.2-.9-1.3-.7-1.4-.5-1.5-.4-1.5-.1-1.5V420l.1-1.5.4-1.5.5-1.5.7-1.4.9-1.3.9-1 1.2-1.3 1.3-.9 1.2-.7 1.5-.6 1.5-.5 1.5-.3h1.5m11-5.4h-11m0 5.4h11m-11 23.8v2.5h11m0-2.5h-11"/><path class="st0" d="M455.6 410.4v-2.6h-1.5l-1.5.3-1.5.4-1.2.6-1.4.8-1.2.9-1.1 1.1-1.1 1.1-.7 1.3m0 0l-.8 1.3-.4 1.5-.3 1.5-.3 1.5v1.5l.3 1.5.3 1.5.4 1.4.8 1.3.7 1.3 1.1 1.2 1.1 1 1.2.9 1.4.7 1.2.6 1.5.5 1.5.3h1.5"/><path class="st0" d="M455.6 431.3l-1.2-.3-1.4-.1-1.2-.4-1.4-.6-1-.7-1-.9-1-1.2-.8-1.1-.5-1.2-.5-1.3-.2-1.2v-2.8l.2-1.4.5-1.3.5-1.2.8-1.1 1-1 1-.9 1-.7 1.4-.6 1.2-.5 1.4-.3 1.2-.1m11-2.6h-11m0 2.6h11m-197.9 23.4v-2.5h-10.3m10.3-23.5v2.6l1.5.1 1.2.3 1.4.5 1.1.6 1.3.7.8.9.9 1 .8 1.1.6 1.2.5 1.3.2 1.4.2 1.4-.2 1.4-.2 1.2-.5 1.3-.6 1.2-.8 1.1-.9 1.2-.8.9-1.3.7-1.1.6-1.4.4-1.2.1-1.5.3m-11.4-20.9h11.4m0 23.4v.5m0-26.5v-.3m186.9 26.3v.5m0-26.5v-.3m-197 32l3.8 83m-5.9-128.6l.5 8.2m5.4 120.4l204.2 9.8m0-.7v-92.1m0-37.4v-8.2m-210.1 0h210.1m-210.2-6.2h210.2M262.7 528.5h1.5l1.5.1h3l1.5.3h1.5l1.7.1h1.5l1.5.1h1.5l1.5.2h1.5l1.5.1h3.2l1.5.2h1.5l1.5.2h1.5l1.5.1h1.6l1.5.1h1.5l1.5.1h3l1.5.3h1.5l1.6.1h1.5l1.5.2h1.5l1.5.1h1.5l1.5.1h1.7l1.5.2h3l1.5.2h1.5l1.5.1h1.7l1.5.1h1.5l1.5.1h1.5l1.5.3h3l1.7.1h1.5l1.5.1h1.5l1.5.2h1.5l1.5.1h1.6l1.5.2h3l1.5.2h1.5l1.5.1h1.6l1.5.1h1.6l1.5.1h1.5l1.5.3h3l1.6.1h1.5l1.5.2h1.5l1.5.1h1.5l1.5.1h1.7l1.6.3h3l1.5.1h1.5l1.5.1h1.6l1.5.1h1.5l1.5.2h1.5l1.5.2h3l1.6.1h1.5l1.5.2h1.5l1.5.1h1.5l1.5.1h1.7l1.5.3h3l1.5.1h1.5l1.5.1h1.6l1.5.1h1.5l1.5.2h1.5l1.5.2h3l1.8.1h1.5l1.5.2h1.5l1.5.1h1.5l1.5.1h1.6l1.5.3h3l1.5.1h1.5l1.5.1h1.6l1.5.1h1.5l1.5.2M267.8 415.9v-.1l-.1-.2v-1.3m.1 1.6h2"/><path class="st0" d="M269.9 414.3v1.2l-.1.1v.3m.1-1.6h-2.2m-3.8 7.5v.1h-1.6m1.6-.1l-.1-.7v-.7l.1-.6m-1.6 0h1.6m-1.6 0v2.1m7.5 3.7v.5h.1v1.2m-.1-1.7l-.6.2h-.8l-.6-.2"/><path class="st0" d="M267.7 427.3V426h.1v-.4m-.1 1.7l1 .2 1.2-.2m3.8-7.5h1.6m-1.6 0v2m1.6.1h-1.6v-.1m1.6.1v-2.1m-7.5-3.9v.7l.1.2v.7l.3.3v.7m1.2 0l-.7-.2-.5.2m1.2 0v-1h.3v-.9l.1-.1v-.6m-5.9 5.9h.8l.1-.2h.9l.2-.1h.5"/><path class="st0" d="M266.4 420.1l-.1.8.1.6m0-1.4h-1v-.1h-.9l-.1-.2h-.5m5.9 5.8v-.3m0 0v-.3l-.1-.1v-.8l-.3-.1v-.7m-1.2 0h1.2m-1.2 0v.7h-.3v.9h-.1v.7m5.9-5.8h-.5l-.2.2h-.8v.1h-1"/><path class="st0" d="M271.2 421.5l.1-.6-.1-.8m0 1.4h.5l.2.1h.9v.2h.9m-7.3-.3h.4l.1.1h.1l.2.2m0 0h.2v.1h.1l.2.1.1.3v.1l.1.1v.1l.3.2v.5m1.2 0v-.7l.3-.1v-.1l.1-.1.1-.3.1-.1h.2v-.1h.2v-.2h.3l.1-.1h.4m0-1.4h-.5l-.2-.1h-.1l-.2-.2-.2-.2h-.1v-.1h-.1v-.1l-.1-.1v-.3l-.3-.1v-.4m-1.2 0v.4h-.3v.4h-.1v.2h-.1v.1h-.2l-.1.2-.2.2h-.2l-.1.1h-.5"/><path class="st0" d="M268.7 411.8l1.3.1 1.3.1 1.1.5 1.3.5.8.8 1.2 1 .7 1 .5 1 .5 1.2.3 1.3.2 1.2v1.3l-.4 1.2-.2 1.1-.6 1.3-.8 1-.7.9-1 1-1.2.5-1.1.6-1.2.4-1.3.1h-1.2l-1.3-.1-1.2-.4-1.2-.6-1.1-.5-1-1-.7-.9-.8-1-.6-1.3-.3-1.1-.4-1.2v-1.3l.3-1.2.2-1.3.5-1.2.5-1 .8-1 1-1 1-.8 1.3-.5 1.1-.5 1.2-.1 1.2-.1"/><path class="st0" d="M268.7 413l1.2.3 1.3.1 1 .4 1 .6 1 .7.8.9.7 1.1.3 1 .4 1.3.1 1.1v1.3l-.3 1-.3 1.2-.6 1-.8 1-.8.9-.9.6-1.1.5-1.2.4-1.2.1h-1l-1.3-.1-1.1-.4-1.1-.5-.9-.6-.9-.9-.7-1-.6-1-.3-1.2-.4-1v-1.3l.1-1.1.4-1.3.4-1 .6-1.1.9-.9 1-.7.9-.6 1.1-.4 1.3-.1 1-.3"/><path class="st0" d="M268.7 429.9l1.3-.1 1.3-.4 1.1-.4 1.3-.6 1-.8 1-.8.7-1.2.5-1 .5-1.2.3-1.4v-2.5l-.3-1.2-.5-1.2-.5-1.2-.7-1-1-.9-1-.7-1.3-.7-1.1-.5-1.3-.2h-2.5l-1.2.2-1.1.5-1.3.7-1 .7-1 .9-.8 1-.5 1.2-.5 1.2-.2 1.2v2.5l.2 1.4.5 1.2.5 1 .8 1.2 1 .8 1 .8 1.3.6 1.1.4 1.2.4 1.2.1m1.2-11.8v-3.8"/><path class="st0" d="M271.4 419.6h-.5l-.4-.2-.3-.4-.2-.4-.1-.5m5.4 1.7l-3.9-.2m0 2.3h3.9m-5.4 1.5l.1-.4.2-.5.3-.2.4-.3.5-.1m-1.5 5.4v-3.9m-2.2 0v3.9m-1.5-5.4l.5.1.3.3.4.2.1.5.2.4m-5.4-1.5h3.9m0 0v-.4m1.5 1.9h.5m1.7 0h-.5m2-1.5v-.4m0-1.9v.5m-1.5-2h-.5m-3.2 1.5l-3.9.2m5.4-1.7l-.2.5-.1.4-.4.4-.3.2h-.5m1.5-5.3v3.8m0 0h.5m-2 1.5v.5m188.4-4.2v-1.6m0 1.6h2.2m0-1.6v1.6m0-1.6h-2.2m-3.7 7.5h-.1v.1h-1.5m1.6-.1l-.1-.7v-.7l.1-.6m-1.6 0h1.6m-1.6 0l-.2 1.1.2 1m7.5 3.7v1.7m0-1.7l-.8.2h-.6l-.8-.2m0 1.7v-1.7m0 1.7l1 .2 1.2-.2m3.7-7.5h1.6m-1.6 0l.1.6v.7l-.1.7"/><path class="st0" d="M462.1 421.9h-1.5v-.1h-.1m1.6.1l.2-1-.2-1.1m-7.5-3.9v.1l.2.3v.8h.1v.9h.2v.5m1.2 0l-.7-.2-.5.2m1.2 0v-.4h.1v-.8l.2-.2v-.7l.2-.1v-.4m-5.9 5.9h.7l.2-.2h.8v-.1h.7m0-1.4v1.4m0-1.4h-.9l-.1-.1h-.8l-.1-.2h-.5m5.9 5.8v-.2h-.2v-.1m0 0v-.8l-.2-.2v-.8l-.1-.1v-.1m-1.2 0h1.2m-1.2 0v.2l-.2.3v.7l-.1.1v.8l-.2.1v.1m5.9-5.8h-.5v.2h-.9l-.1.1h-.9m0 1.4v-1.4m0 1.4h.5v.1h1l.2.2h.7m-7.2-.3h.5l.1.1h.1l.1.2m0 0l.3.1h.1v.1h.1v.3h.2v.2h.1v.3l.2.2v.3"/><path class="st0" d="M456.3 423.3v-.3l.1-.2v-.3h.2v-.1l.2-.1v-.3h.1l.1-.1.1-.1.3-.2h.1l.1-.1h.5m0-1.4h-.6v-.1h-.4v-.2h-.1v-.2h-.1l-.1-.1v-.1l-.2-.1-.2-.3v-.2l-.1-.2v-.1m-1.2 0v.1l-.2.2v.2l-.1.3v.1l-.2.1-.1.1-.1.2h-.3v.2h-.2v.1h-.6"/><path class="st0" d="M455.6 411.8l1.4.1 1.3.1 1.1.5 1.1.5 1 .8.9 1 .7 1 .8 1 .5 1.2.2 1.3.3 1.2-.3 1.3-.1 1.2-.4 1.1-.5 1.3-.7 1-.9.9-.9 1-1.1.5-1.1.6-1.3.4-1.3.1h-1.2l-1.3-.1-1.3-.4-1-.6-1.2-.5-.9-1-.9-.9-.7-1-.5-1.3-.4-1.1-.3-1.2-.1-1.3.1-1.2.4-1.3.6-1.2.5-1 .8-1 1-1 1-.8 1-.5 1.2-.5 1.4-.1 1.1-.1"/><path class="st0" d="M455.6 413l1.3.3 1.2.1 1 .4 1 .6 1 .7.8.9.7 1.1.4 1 .4 1.3.1 1.1-.1 1.3-.3 1-.3 1.2-.5 1-.8 1-.9.9-.8.6-1.3.5-1 .4-1.2.1h-1.2l-1.2-.1-1-.4-1.1-.5-1-.6-.9-.9-.6-1-.7-1-.5-1.2-.1-1-.1-1.3.1-1.1.4-1.3.5-1 .6-1.1.8-.9.8-.7 1.2-.6 1-.4 1.2-.1 1.1-.3"/><path class="st0" d="M455.6 429.9l1.4-.1 1.3-.4 1.1-.4 1.1-.6 1-.8.9-.8.7-1.2.8-1 .5-1.2.1-1.4.1-1.1-.1-1.4-.1-1.2-.5-1.2-.8-1.2-.7-1-.9-.9-1-.7-1.1-.7-1.1-.5-1.3-.2h-2.5l-1.4.2-1.2.5-1 .7-1 .7-1 .9-.8 1-.5 1.2-.5 1.2-.2 1.2-.3 1.4.3 1.1.2 1.4.5 1.2.5 1 .8 1.2 1 .8 1 .8 1 .6 1.2.4 1.4.4 1.1.1m1.3-11.8l-.1-3.8"/><path class="st0" d="M458.4 419.6h-.5l-.4-.2-.4-.4-.2-.4v-.5m5.2 1.7l-3.7-.2m0 2.3h3.7m-5.2 1.5v-.4l.2-.5.4-.2.4-.3.5-.1m-1.6 5.4l.1-3.9m-2.4 0l.1 3.9m-1.5-5.4l.5.1.3.3.5.2.1.5v.4m-5.2-1.5h3.8m0 0v-.4m1.4 1.9h.6m1.8 0h-.6m2.1-1.5v-.4m0-1.9v.5m-1.5-2h-.6m-3.2 1.5l-3.8.2m5.2-1.7v.5l-.1.4-.5.4-.3.2h-.5m1.5-5.3l-.1 3.8m0 0h.6m-2 1.5v.5m49.1 126.3v-66.9m33 60.3v-53.7m-34.5-6.6h1.5m-1.5 66.9h1.5m0-60.3h33m-33 53.7h33m376.3-263.3v-.4m2.2.4h-2.2m8.2-22.8v16.6m-120.6 6.2h-49.6m161.8-.3v-.1m-167.8-5.8v-16.6m55.6 22.8v-.4m.4.1v-.1m96.1.4h2.7m0 0h2.7l1.1-.2h3.4l.3-.1h.4l-.4-.1h-2.7l-1.1-.1h-13.1l-1.1.1h-2.6l-.4.1h-.1.4l.3.1h3.4l1.1.2h2.7m0 0h3m0 0v-.5m-80.4.5h3m-5.8 0h2.8m3 0h2.5l1.3-.2h3.2l.5-.1h.3-.1l-.4-.1h-2.6l-1.2-.1h-13l-1 .1h-2.9l-.3.1h.3l.4.1h3.4l1.1.2h2.7m2.8 0v-.5"/><path class="st0" d="M906.1 276.2h-.3l-.1-.1h-3.1l-1.5-.1h-11.3l-1.5.1h-3.1l-.1.1h-.3m-58.9 0h-.2l-.2-.1h-3.1l-1.5-.1h-11.3l-1.5.1H805l-.2.1h-.1m87.9.3h-74.4m-5.8 0h-13.3m112.4 0h-13.2m13-.3l.2.3"/><path class="st0" d="M895.6 275.7h3.1l1.6.3h7.8l1 .1h1.2l.5.1h.5m-96.1-.5h80.4m-96.1.5h.3l.5-.1h1.4l.9-.1h7.8l1.6-.3h3.2m-16.1.8l.4-.3m120.2-30.3v7.5m-176.2-7.5v7m0 0v.5m0-8.1v.6m6-145.6l-1 .1-1.1.1-.9.5-.8.5-.8.8-.6 1-.4 1-.4.8v140.8m176.2 0v-.6m0 .6V106.3m0 0v-1.2l-.3-.8-.4-1-.6-1-.8-.8-.9-.5-.8-.5-1.2-.1-1-.1m-9.6 47.4v-.9l-.3-.7-.5-.8-.5-.6-.7-.5-.8-.4-.8-.2h-.8l-.9.2-.7.4-.6.5-.7.6-.3.8-.2.7-.2.9.2.7.2.8.3.7.7.7.6.5.7.3.9.2h.8l.8-.2.8-.3.7-.5.5-.7.5-.7.3-.8v-.7"/><path class="st0" d="M895.3 147.7l.3-1.1.1-.8.4-.9.6-.7.8-.6.8-.4 1-.1.9-.3.9.3.9.1.7.4.8.6.6.7.5.9.2.8v2l-.2.8-.5.8-.6.7-.8.7-.7.5-.9.2h-1.8l-1-.2-.8-.5-.8-.7-.6-.7-.4-.8-.1-.8-.3-.9m-121.6 0l.2-1.1.3-.8.5-.9.5-.7.7-.6.8-.4 1-.1.9-.3.8.3.9.1.9.4.7.6.7.7.3.9.3.8.1 1.1-.1.9-.3.8-.3.8-.7.7-.7.7-.9.5-.9.2h-1.7l-1-.2-.8-.5-.7-.7-.5-.7-.5-.8-.3-.8-.2-.9"/><path class="st0" d="M907.2 147.7l-.1-1.3-.3-1-.5-1.1-.6-.9-.7-.8-.9-.8-.9-.6-1.1-.3-1.1-.3h-1.2l-1.1.2-1.1.3-1 .5-.9.5-.7 1-.8.8-.5.9-.4 1-.2 1.3v1l.2 1.2.4 1 .5 1.1.8.9.7.8.9.6 1 .4 1.1.5h2.3l1.1-.2 1.1-.5.9-.6.9-.7.7-.8.6-1 .5-1 .3-1.1.1-1m-121.6 0l-.2-1.3-.1-1-.5-1.1-.6-.9-.8-.8-.8-.8-1-.6-1.2-.3-1-.3h-1.2l-1 .2-1 .3-1.1.5-.9.5-.9 1-.6.8-.6.9-.3 1-.1 1.3v1l.1 1.2.3 1 .6 1.1.6.9.9.8.9.6 1.1.4 1 .5h2.2l1-.2 1.2-.5 1-.6.8-.7.8-.8.6-1 .5-1 .1-1.1.2-1"/><path class="st0" d="M782.6 147.7l-.2-.9-.1-.7-.5-.8-.6-.6-.5-.5-1-.4-.8-.2h-.8l-.8.2-.7.4-.8.5-.4.6-.5.8-.2.7-.3.9.3.7.2.8.5.7.4.7"/><path class="st0" d="M775.8 150.6l.8.5.7.3.8.2h.8l.8-.2 1-.3.5-.5.6-.7.5-.7.1-.8.2-.7m121.5 0v-.9l-.3-.7-.5-.8-.6-.6-.6-.5-.8-.3-.8-.3h-.8l-.7.3-.9.3-.6.5-.7.6-.2.8-.3.7-.2.9.2.7.3.8.2.7.7.7.6.5.9.3.7.2h.8l.8-.2.8-.3.6-.5.6-.7.5-.7.3-.8v-.7"/><path class="st0" d="M782.6 147.7l-.2-.9-.2-.7-.4-.8-.6-.6-.8-.5-.7-.3-.8-.3h-.8l-.8.3-.7.3-.7.5-.5.6-.5.8-.2.7v1.6l.2.8.5.7.5.7.7.5.7.3.8.2h.8l.8-.2.7-.3.8-.5.6-.7.4-.7.2-.8.2-.7m11-40.6v-.8h-.5l-.6.2-.4.3-.4.5-.1.5-.1.5h.8m92.9-1.2v-.8h-91.6m-2.1 73.3h.8m-.8-71.3v71.3"/><path class="st0" d="M886.3 108.3h1l-.2-.5-.2-.5-.2-.5-.5-.3-.6-.2h-.4m-91.6 75.4v-.9m-2.1-1.2l.1.5.1.6.4.4.4.4.6.1.5.1m92.7-2.1h1v-71.3m-2.1 73.4v-.9m-91.6.9h91.6l.4-.1.6-.1.5-.4.2-.4.2-.6.2-.5m-93.7-72.5h-.4l-.2.2-.3.2-.2.4-.2.4m1.3-1.2h91.6m-92.9 72.5v-71.3"/><path class="st0" d="M886.3 108.3l-.1-.4-.1-.4-.3-.2-.4-.2h-.2m-92.9 72.5l.2.4.2.3.3.3.2.2h.4m92.7-72.5v71.3m-1.1 1.2h-91.6m91.6 0h.2l.4-.2.3-.3.1-.3.1-.4m-119.6-31.9l.1-1.5.4-1.5.4-1.4.6-1.4.7-1.1.9-1.1 1.1-1 1.2-.9 1.2-.8 1.4-.6 1.2-.4 1.5-.2h1.5l1.4.1 1.5.4 1.4.4 1.4.6 1.1.9 1.1.8 1 1.2.8 1.1.7 1.4.5 1.4.4 1.3.3 1.5v1.4l-.3 1.5-.4 1.5-.5 1.3-.7 1.2-.8 1.3-1 1-1.1 1-1.1.7-1.4.6-1.4.5-1.5.4h-2.9l-1.5-.1-1.2-.4-1.4-.6-1.2-.8-1.2-.8-1.1-1-.9-1.2-.7-1.2-.6-1.4-.4-1.2-.4-1.5-.1-1.4m121.6 0v-1.5l.3-1.5.5-1.4.6-1.4.7-1.1.9-1.1 1-1 1.3-.9 1.4-.8 1.3-.6 1.3-.4 1.4-.2h1.5l1.5.1 1.3.4 1.4.4 1.4.6 1.1.9 1.3.8.8 1.2.9 1.1.6 1.4.7 1.4.2 1.3.2 1.5v1.4l-.2 1.5-.2 1.5-.7 1.3-.6 1.2-.9 1.3-.8 1-1.3 1-1.1.7-1.4.6-1.4.5-1.3.4h-3l-1.4-.1-1.3-.4-1.3-.6-1.4-.8-1.3-.8-1-1-.9-1.2-.7-1.2-.6-1.4-.5-1.2-.3-1.5v-1.4m31.4 122.6l-.6-.7m0-162.6l.6-.7M913 275.7l.7.8m0 0l1-.2 1.2-.2.8-.5.9-.6.8-.8.6-.7.4-1 .3-1v-1.2m-170.2 6.2l.8-.8m-6-6.1l-.8.7m0 0v1.2l.4 1 .4 1 .6.7.8.8.8.6.9.5 1.1.2 1 .2"/><path class="st0" d="M889.3 147.7l.3-1.5.1-1.4.4-1.4.7-1.1.8-1.2 1-1.1 1-1 1.2-.8 1.2-.7 1.3-.3 1.4-.4h2.9l1.2.4 1.4.3 1.4.7 1 .8 1.1 1 1 1.1.8 1.2.6 1.1.5 1.4.2 1.4.2 1.5-.2 1.4-.2 1.2-.5 1.4-.6 1.4-.8 1-1 1.1-1.1 1-1 .7-1.4.7-1.4.5-1.2.2h-2.9l-1.4-.2-1.3-.5-1.2-.7-1.2-.7-1-1-1-1.1-.8-1-.7-1.4-.4-1.4-.1-1.2-.3-1.4m-121.6 0l.2-1.5.3-1.4.5-1.4.5-1.1.7-1.2 1-1.1 1-1 1.3-.8 1.2-.7 1.4-.3 1.4-.4h2.9l1.3.4 1.3.3 1.2.7 1.3.8 1 1 .9 1.1.7 1.2.8 1.1.5 1.4.1 1.4.1 1.5-.1 1.4-.1 1.2-.5 1.4-.8 1.4-.7 1-.9 1.1-1 1-1.3.7-1.2.7-1.3.5-1.3.2h-2.9l-1.4-.2-1.4-.5-1.2-.7-1.3-.7-1-1-1-1.1-.7-1-.5-1.4-.5-1.4-.3-1.2-.2-1.4m146-47.4l-.7.7m-162.7 0l-.8-.7m-6 6l.8.7m4.6 118.4v-2.5l.4-2.5.4-2.6.6-2.4.9-2.4 1.1-2.2 1-2.3 1.4-2.2 1.5-2.2 1.6-2 1.6-1.7 2-1.7 2-1.5 2-1.5 2.3-1.2 2.2-1 2.5-.9 2.4-.7 2.5-.7 2.6-.3 2.4-.2h2.5l2.6.2 2.6.3 2.3.7 2.4.7 2.5.9 2.4 1 2.1 1.2 2 1.5 2.1 1.5 1.9 1.7 1.8 1.7 1.6 2 1.5 2.2 1.3 2.2 1.1 2.3 1.1 2.2.8 2.4.6 2.4.5 2.6.2 2.5.2 2.5-.2 2.6-.2 2.4-.5 2.5-.6 2.5-.8 2.4-1.1 2.4-1.1 2.2-1.3 2.2-1.5 2.1-1.6 1.9-1.8 1.8-1.9 1.7-2.1 1.6-2 1.4-2.1 1.1-2.4 1.1-2.5.9-2.4.7-2.3.7-2.6.2-2.6.4h-2.5l-2.4-.4-2.6-.2-2.5-.7-2.4-.7-2.5-.9-2.2-1.1-2.3-1.1-2-1.4-2-1.6-2-1.7-1.6-1.8-1.6-1.9-1.5-2.1-1.4-2.2-1-2.2-1.1-2.4-.9-2.4-.6-2.5-.4-2.5-.4-2.4v-2.6"/><path class="st0" d="M819.5 225.4l-.1-2.5-.2-2.5-.5-2.6-.7-2.5-.8-2.4-1-2.5-1-2.3-1.3-2.2-1.5-2-1.5-2-1.9-1.8-1.9-1.9-2-1.6-2.1-1.5-2.3-1.2m0 0l-2.2-1.2-2.4-.8-2.4-1-2.4-.5-2.6-.5-2.5-.3-2.5-.2-2.6.2-2.5.3-2.7.5-2.5.5-2.3 1-2.4.8-2.3 1.2-2.2 1.2-2.2 1.5-2 1.6-1.7 1.9-1.9 1.8-1.6 2-1.4 2-1.2 2.2-1.3 2.3-.9 2.5-.8 2.4-.7 2.5-.5 2.6-.2 2.5v5.1l.2 2.5.5 2.7.7 2.3.8 2.4.9 2.4 1.3 2.2 1.2 2.3 1.4 2.1 1.6 2 1.9 1.9 1.7 1.9 2 1.5 2.2 1.5 2.2 1.2 2.3 1.2 2.4 1 2.3.7 2.5.8 2.7.5 2.5.1 2.6.1 2.5-.1 2.5-.1 2.6-.5 2.4-.8 2.4-.7 2.4-1 2.2-1.2 2.3-1.2 2.1-1.5 2-1.5 1.9-1.9 1.9-1.9 1.5-2 1.5-2.1 1.3-2.3 1-2.2 1-2.4.8-2.4.7-2.3.5-2.7.2-2.5.1-2.6"/><path class="st0" d="M747.2 225.4l.1-2.5.3-2.5.4-2.6.7-2.5.7-2.4 1-2.5 1.1-2.3 1.4-2.2 1.5-2 1.5-2.2 1.8-1.8 1.7-1.8 2.1-1.6 2-1.5 2.3-1.4 2.3-1 2.3-1.1 2.4-.9 2.6-.6 2.4-.6 2.5-.3 2.8-.1 2.5.1 2.6.1 2.5.5 2.4.7 2.6.7 2.4.9 2.2 1 2.3 1.4 2.1 1.3 2 1.7 2 1.6 1.8 1.9 1.7 1.9 1.5 2.1 1.3 2.1 1.2 2.3 1 2.3 1 2.4.8 2.4.4 2.6.5 2.5.1 2.7v2.5l-.1 2.5-.5 2.6-.4 2.5-.8 2.4-1 2.6-1 2.2-1.2 2.3-1.3 2.3-1.5 1.8-1.7 2-1.8 2-2 1.7-2 1.5-2.1 1.5-2.3 1.1-2.2 1.1-2.4 1-2.6.8-2.4.6-2.5.2-2.6.4h-2.5l-2.8-.1-2.5-.4-2.4-.4-2.6-.7-2.4-.8-2.3-1.1-2.3-1.1-2.3-1.4-2-1.5-2.1-1.6-1.7-1.8-1.8-1.8-1.5-2-1.5-2.3-1.4-2.1-1.1-2.4-1-2.3-.7-2.5-.7-2.3-.4-2.7-.3-2.5-.1-2.6"/><path class="st0" d="M821.2 225.4v-2.6l-.3-2.7-.4-2.5-.6-2.5-.9-2.6-1-2.4-1.1-2.3-1.4-2.3-1.4-2.2-1.6-2.1-1.8-1.8-2-1.9-2-1.8-2-1.5-2.2-1.3-2.3-1.3-2.5-1.1-2.5-.9-2.5-.6-2.6-.6-2.5-.3-2.7-.4h-2.6l-2.6.4-2.6.3-2.7.6-2.5.6-2.3.9-2.4 1.1-2.3 1.3-2.2 1.3-2.2 1.5-2.1 1.8-1.7 1.9-1.9 1.8-1.6 2.1-1.5 2.2-1.3 2.3m0 0l-1.1 2.3-1.1 2.4-.8 2.6-.5 2.5-.5 2.5-.3 2.7-.2 2.6.2 2.6.3 2.7.5 2.6.5 2.5.8 2.4 1.1 2.6 1.1 2.2 1.3 2.3 1.5 2.3 1.6 2.1 1.9 1.9 1.7 1.8 2.1 1.7 2.2 1.5 2.2 1.5 2.3 1.1 2.4 1.1 2.3.9 2.5.7 2.7.5 2.6.4 2.6.1h2.6l2.7-.1 2.5-.4 2.6-.5 2.5-.7 2.5-.9 2.5-1.1 2.3-1.1 2.2-1.5 2-1.5 2-1.7 2-1.8 1.8-1.9 1.6-2.1 1.4-2.3 1.4-2.3 1.1-2.2 1-2.6.9-2.4.6-2.5.4-2.6.3-2.7v-2.6m-75.1-3.3V107m0 162.6v-40.9m4.2 45.3l-.8-.2-.8-.3-.8-.3-.6-.6-.4-.6-.5-.8-.3-.7v-.9M913 274H750.3m166.8-4.4v.9l-.2.7-.3.8-.6.6-.6.6-.8.3-.7.3-.9.2m4.1-167v162.6M913 102.8h.9l.7.2.8.5.6.5.6.5.3.8.2 1v.7m-166.8-4.2H913M746.1 107v-.7l.3-1 .5-.8.4-.5.6-.5.8-.5.8-.2h.8m0 172.9V274"/><path class="st0" d="M746.1 269.6h-1.8v1.1l.3 1 .4 1 .7.8.7.7.9.6.9.5 1.1.3 1 .1m162.7 0V274m-162.7 1.7H913m-166.9-53.6v.7l-.2.2v4.9l.2.3v.5m0-121.7h-1.8v162.6m174.8 0h-2m-4.1 6.1l1-.1 1.1-.3.9-.5.9-.6.7-.7.6-.8.4-1 .4-1 .1-1.1M750.3 102.8V101h-1l-1.1.3-.9.5-.9.5-.7.7-.7 1-.4.9-.3 1v1.1m174.8 0h-2m2 162.6V107m-6.1-4.2V101H750.3m168.8 6l-.1-1.1-.4-1-.4-.9-.6-1-.7-.7-.9-.5-.9-.5-1.1-.3h-1M746.1 222.1l.3-2.5.5-2.6.7-2.5.8-2.6 1-2.4 1.3-2.2 1.2-2.3 1.5-2.2 1.8-1.9 1.7-2 1.8-1.8 2.1-1.7 2.1-1.5 2.3-1.3 2.2-1.2 2.4-1 2.6-1 2.5-.5 2.5-.7 2.7-.3 2.5-.2h2.7l2.5.2 2.7.5 2.5.6 2.5.7 2.5.9 2.3 1 2.4 1.3 2.1 1.3 2.2 1.7 2 1.6 1.9 1.9 1.7 1.8 1.5 2.2 1.5 2.1 1.4 2.4 1 2.2 1.1 2.4.8 2.6.6 2.5.4 2.5.3 2.7.2 2.6-.2 2.6-.3 2.5-.4 2.8-.6 2.5-.8 2.4-1.1 2.5-1 2.3-1.4 2.3-1.5 2.3-1.5 1.8-1.7 2-1.9 1.8-2 1.9-2.2 1.5-2.1 1.3-2.4 1.3-2.3 1.1-2.5.9-2.5.7-2.5.7-2.7.2-2.5.1-2.7.3-2.5-.3-2.7-.3-2.5-.5-2.5-.8-2.6-.9-2.4-1-2.2-1.2-2.3-1.4-2.1-1.5-2.1-1.6-1.8-1.8-1.7-1.8-1.8-2.2-1.5-2-1.2-2.2-1.3-2.5-1-2.4-.8-2.4-.7-2.5-.5-2.6-.3-2.6"/><path class="st0" d="M818.4 225.4l-.2-2.5-.3-2.5-.4-2.5-.6-2.5-.9-2.4-1-2.2-1.1-2.3-1.4-2.2-1.5-2-1.5-1.9-1.8-1.9-2-1.8-2-1.5-2-1.3-2.2-1.3-2.3-1.1-2.5-.9-2.4-.6-2.3-.6-2.6-.5-2.6-.2h-2.5l-2.4.2-2.6.5-2.5.6-2.4.6-2.2.9-2.5 1.1-2 1.3-2.2 1.3-2.1 1.5-1.7 1.8-1.9 1.9-1.6 1.9-1.5 2-1.3 2.2-1.1 2.3-1.1 2.2-.8 2.4-.5 2.5-.5 2.5-.2 2.5-.3 2.5.3 2.6.2 2.4.5 2.5.5 2.5.8 2.4 1.1 2.4 1.1 2.2 1.3 2.2 1.5 2.1 1.6 1.9 1.9 1.8 1.7 1.7 2.1 1.5 2.2 1.5 2 1.1 2.5 1.1 2.2.9 2.4.7 2.5.7 2.6.2 2.4.1h2.5l2.6-.1 2.6-.2 2.3-.7 2.4-.7 2.5-.9 2.3-1.1 2.2-1.1 2-1.5 2-1.5 2-1.7 1.8-1.8 1.5-1.9 1.5-2.1 1.4-2.2 1.1-2.2 1-2.4.9-2.4.6-2.5.4-2.5.3-2.4.2-2.6m101.3 44.9v-16.9m-170.2 23.1h48.2m115.3 0h.7m-170.2-23.1v16.9m176.2-16.9v-8m0 0V106.3m-176.2 0v138.5m6-144.5h-.7l-.4.1h-.4l-.4.1-.3.1-.4.2-.4.2-.2.3-.4.1-.2.4-.3.2-.4.3-.2.3-.2.3-.2.4-.3.2-.1.5-.1.3-.3.5v.2l-.1.5v.8m170.2-6H749.5m170.2 6v-.8l-.1-.5v-.2l-.2-.5-.2-.3-.1-.5-.1-.2-.4-.4-.1-.3-.3-.3-.3-.3-.3-.2-.2-.4-.4-.1-.3-.3-.3-.2-.4-.2-.4-.1-.4-.1h-.3l-.4-.1h-.8M743.5 244.8v8.6m40.2 22.3h-7.1l-1.2.3h-3.2l-.4.1h-.4.3l.2.1h2l1 .1h17.4l.9-.1h2.1l.4-.1h.1-.3l-.4-.1h-3.4l-1-.3h-7"/><path class="st0" d="M795.3 276.1l-.2-.1h-2l-1.5-.3h-15.9l-1.5.3h-2l-.3.1h-.1m25.9.4l.3-.3h.1l.4-.1h2l.8-.1h5.4l1.5-.3h94.3l1.5.3h5.2l1 .1h2l.4.1.4.3m-11.8-122.8l1.1-.4.9-.4.9-.6.7-.7.7-.9.3-1.1.4-.9v-2.1l-.4-1-.3-1-.7-.8-.7-.7-.9-.7-.9-.5-1.1-.2-1-.1-1.1.1-1 .2-1 .5-.8.7-.7.7-.6.8-.5 1-.3 1-.1 1.1.1 1m-114.6 5l1.1-.4.9-.4.8-.6.8-.7.6-.9.4-1.1.4-.9.1-1-.1-1.1-.4-1-.4-1-.6-.8-.8-.7-.8-.7-.9-.5-1.1-.2-1-.1-1.2.1-1 .2-.8.5-.9.7-.8.7-.6.8-.5 1-.2 1v2.1m19.7-37.6h1.4m-1.4 1.9h1.4m92.6-4.9h-4.5m3.3 1.4h1.2m0 8h-1.2m1.2 1.8h-1.2m-97.7 97.3l.2-.6.1-.5.5-.4.5-.2h1.1l.4.4.4.3.1.7v.6l-.1.5-.4.4-.4.3-.6.2-.5-.2-.5-.2-.5-.3-.1-.6-.2-.4m-11 0l.2-.6.3-.5.3-.4.6-.2h1l.5.4.3.3.1.7v.6l-.1.5-.3.4-.5.3-.6.2-.4-.2-.6-.2-.3-.3-.3-.6-.2-.4m-5.3 9.4v-.6l.2-.4.5-.5.4-.1h.6l.5.1.6.4.3.3.1.6v.6l-.1.4-.3.5-.6.2-.5.2h-.6l-.4-.3-.5-.2-.2-.7v-.5m5.3 9.5l.2-.6.3-.5.3-.2.6-.3h.4l.6.1.5.3.3.5.1.4v.6l-.1.5-.3.4-.5.3-.6.2h-.4l-.6-.3-.3-.4-.3-.6-.2-.4m11 0l.2-.6.1-.5.5-.2.5-.3h.5l.6.1.4.3.4.5.1.4v.6l-.1.5-.4.4-.4.3-.6.2h-.5l-.5-.3-.5-.4-.1-.6-.2-.4m5.6-9.5v-.6l.2-.4.5-.5.5-.1h.5l.5.1.5.4.3.3.2.6v.6l-.2.4-.3.5-.5.2-.5.2h-.5l-.5-.3-.5-.2-.2-.7v-.5"/><path class="st0" d="M750.2 226l.1-2.5.4-2.4.3-2.5.7-2.3.7-2.4 1-2.3 1.1-2.1 1.4-2.1 1.5-2 1.5-1.9 1.8-1.8 1.7-1.6 2-1.5 2.2-1.4 2.2-1.1 2.3-1 2.2-.9 2.4-.6 2.4-.6 2.3-.3 2.7-.1 2.3.1 2.5.2 2.6.5 2.3.5 2.3.7 2.4 1 2.1 1 2.2 1.4 1.9 1.4 2 1.6 1.8 1.6 1.7 1.8 1.5 2 1.3 2.1 1.2 2.1 1 2.3 1 2.2.8 2.4.5 2.4.4 2.4.1 2.6v2.4l-.1 2.4-.4 2.5-.5 2.5-.8 2.2-1 2.4-1 2.2-1.2 2.2-1.3 2-1.5 2-1.7 1.7-1.8 1.8-2 1.5-1.9 1.5-2.2 1.1-2.1 1.3-2.4.8-2.3.8-2.3.6-2.6.4-2.5.2h-2.3l-2.7-.2-2.3-.3-2.4-.5-2.4-.5-2.2-1-2.3-1-2.2-1.2-2.2-1.3-2-1.5-1.7-1.5-1.8-1.8-1.5-1.9-1.5-2-1.4-2.2-1.1-2.2-1-2.3-.7-2.2-.7-2.4-.3-2.4-.4-2.6-.1-2.4"/><path class="st0" d="M762 226l.2-1.8.2-2.2.5-2 .6-1.7.8-1.9 1-1.8 1.1-1.6 1.3-1.5 1.4-1.4 1.5-1.3 1.6-1 1.9-1.2 1.7-.7 2-.5 1.8-.5 2.1-.3 2-.2 1.9.2 2 .3 1.9.5 2 .5 1.7.7 1.8 1.2 1.6 1 1.6 1.3 1.4 1.4 1.1 1.5 1.3 1.6.8 1.8.9 1.9.6 1.7.5 2 .3 2.2.1 1.8-.1 2-.3 1.9-.5 2-.6 2-.9 1.8-.8 1.6-1.3 1.6-1.1 1.8-1.4 1.2-1.6 1.3-1.6 1.2-1.8.9-1.7.9-2 .6-1.9.4-2 .4h-3.9l-2.1-.4-1.8-.4-2-.6-1.7-.9-1.9-.9-1.6-1.2-1.5-1.3-1.4-1.2-1.3-1.8-1.1-1.6-1-1.6-.8-1.8-.6-2-.5-2-.2-1.9-.2-2"/><path class="st0" d="M756.8 226v-2.2l.2-2.3.5-2.1.7-2 .8-2.1.9-2 1.3-1.9 1.1-1.9 1.5-1.7 1.6-1.5 1.8-1.5 1.7-1.3 2-1.1 1.9-1 2.1-.9 2.2-.6 2.1-.4 2.2-.4h4.5l2 .4 2.3.4 2.1.6 2.2.9 2 1 1.8 1.1 1.9 1.3 1.6 1.5 1.7 1.5 1.3 1.7 1.4 1.9 1 1.9 1 2 .8 2.1.6 2 .5 2.1.3 2.3.1 2.2-.1 2.3-.3 2.1-.5 2.3-.6 2.1-.8 2.1-1 1.9-1 2-1.4 1.7-1.3 1.7-1.7 1.7-1.6 1.3-1.9 1.4-1.8 1.1-2 1-2.2.7-2.1.7-2.3.3-2 .4-2.2.1-2.3-.1-2.2-.4-2.1-.3-2.2-.7-2.1-.7-1.9-1-2-1.1-1.7-1.4-1.8-1.3-1.6-1.7-1.5-1.7-1.1-1.7-1.3-2-.9-1.9-.8-2.1-.7-2.1-.5-2.3-.2-2.1V226m35.5-112.7h1.4m57.3-4.5v-1.7m-55.8 0v1.7m-2.9 7.2l.8-.2.6-.3m92.6 63.1h-1.2m-2 2.2v-2.2m-14.1 2.2v-2.2m-59.4 2.2v-2.2m-13.9 2.2v-2.2m-2 0h-1.4m1.4 0v-16.4m0-9.1v-16.4m0-9.2v-18.7m77.9 69.8h-64.5m-9 0h-4.4m91.4 0h-4.4m4.4-69.8v18.7m0 9.2v16.4m0 9.1v16.4m-3.3-69.8h3.3m-91.4 0h3.1m9 0h20.1m27 0h19.9m7.9 69.8v2.2m-9.1 0v-2.2m9.1 0h-9.1m-73.5 0v2.2m9 0v-2.2h-9m88.2-25.5h-1.2m0 9.1h1.2m-1.2-9.1v9.1m1.2-25.5h-1.2m0-9.2h1.2m-1.2 0v9.2m-92.8 16.4h1.4m0 9.1h-1.4m1.4 0v-9.1m-1.4-16.4h1.4m0-9.2h-1.4m1.4 9.2v-9.2m88.1-20.4v1.7m-9 0v-1.7m0 1.7h9m-55.9 0h27v4.2m-27 0v-4.2m27 4.2h-27m-29.1-5.9v1.7m9 0v-1.7m-9 1.7h9m47.1 4.2h7.1v9.4m0 0h4.9v3m-51 0v-3h4.7V113h7.3m39 12.4h12.2v43.7h-75.4v-43.7h12.2m-21.6-12.1h1.4"/><path class="st0" d="M792.3 116l.8-.2.6-.3m92.6 60.8h-1.2m.1-35.2h1.1m-1.1 12v-12m-92.9 27.1h1.4m91.5-45.9h1.1m-1.1 16.4v-2m0-9.2v-5.2m1.1 16.4h-1.1m-92.4-15.2v4m0 9.2v3.1m-.5-16.3h.5m0 16.3h-.5M256.4 695.1v-4.6l.1-.7v-.7m-.1 168.9V695.1m.1 168.9v-.7l-.1-.6V858m6.3 6l-.3.2h-1.5l-.5.1h-1.6l-.4.3h-1.5l-.5.1h-2m0-6v6m0-176.2h1.5l.4.1h1.7l.5.2h1.6l.3.2h1.8l.2.1h.3"/><path class="st0" d="M254.4 688.5h.5v.1h.5l.1.2h.4v.2h.5l.1.1m-2.1 175.6h.5l.1-.1h.5v-.3h.4l.2-.1h.4v-.2m-2.1-5.3l2-.7m-2-163.5v164.2m0-164.2h.2l.2.1h.2l.1.2h.4l.1.2h.3l.2.1h.3m-2-6.6v6m-12.8 168v-.5l-.2-.2-.5-.3-.4-.2v.2l.1.2v.7l.2.1v.2l.1.1v.2h.2v.2"/><path class="st0" d="M241.6 794.1l-.2-.4h-.9v67.6m1.1-102.1l-.2.2h-.9l.1 1.5v4.2l.2 1.5v1.3l.1 1.5v1.4l.2 1.5v8.5l-.2 1.5v1.4l-.1 1.5v1.5l-.2 1.4v4.4l-.1 1.2m1.1.4v-3l.3-1.4v-2.9l.1-1.5v-7.4l.1-1.2-.1-1.5v-5.9l-.1-1.5v-4.4l-.3-1.3v-2.9m-.5-69.2l-.2.1v.4h-.1v.2h-.2v.8l-.1.1v.2l.4-.2.5-.3.2-.2v-.5m-1.1 1.2v67.6m1.6 104.1l-.2-.1-.4-.2h-.4m0-173.2h.4l.4-.3.2-.1m-.5 104.5v64.2m1.9 0h-1.9m1.9 0V694.8m-1.9 0h1.9m-1.9 0v64.4m0 99.1v4.2"/><path class="st0" d="M243.5 864.6l-.6-.3-.5-.3-.3-.5-.2-.3-.3-.7m0-171.9l.3-.6.2-.4.3-.5.5-.3h.6m0 175.8v-6.3m0-163.5v-6m-1.9 1.8v4.2M170 861.3V691.8m-1.2 1.3V860m0-166.9l1.2-1.3M168.8 860l1.2 1.3m84.4-172.8h212.2M254.4 864.7h58.1m0 0h154.1m-223.1-.1l10.9.1m-10.9-6.4h2.3l.3.2h5.2l.5.2h2.6m-10.9-169.9h.4l.5-.2h5.1l.4-.1h4.5m-10.9 6.3l10.9-.3m-84.4-2.7l71.1-1.8M170 861.3l71.1 1.9m255.8-168v-4.1m0 166.8V695.2m0 166.8v-4.1m0 4.1v.7l-.2.5-.5.3-.4.4h-.6"/><path class="st0" d="M496.9 857.9h-1.7l.1 1v5h-.1m0-174.7h.6l.4.4.5.4.2.5v.6"/><path class="st0" d="M496.9 695.2h-1.7v162.7m0-168.7h.1v5l-.1 1m-28.6-6.7h1.8m-1.8 176.2V688.5m0 175.5l1.8.7m0-6v6m-1.8-6h1.8m0-164.2v164.2m-1.8-164.2h1.8m0-6v6m-1.8-5.4l1.8-.6m0 176.2h-1.8m28.6-175.5l-26.8-.7m29.2 30.4v-21.6m0 143.2v-21.6m-29.2-124.4l26.8.7m0 162.7l-26.8.8m0 6l26.8-.8m5.5-2.9v-72.8m-1.1-1.2v75.3m-2-21.8v.4l-.3.4-.4.2m0-23.8l.4.4.3.3v.5m0-100v.4l-.3.3-.4.3m0-23.6l.4.2.3.3v.5m2 89.7h.3l.4.3.3.4.1.5m0 72.8l-.1.5-.3.3-.4.2-.3.3h-2.7m2.7-75.3l-2.7-.2m-240.4-97.7h210.1M256.5 864h210.1m-210.2-6h210.2M256.4 695.1h210.2M256.4 858v4.7l.1.6v.7m-.1-168.9V858m.1-168.9v.7l-.1.7v4.6M424.1 714l.6.1.6.3.5.3.3.7.2.6v.6l-.2.5-.3.6-.5.5-.6.3h-1.4l-.5-.3-.5-.5-.2-.6-.3-.5v-.6l.3-.6.2-.7.5-.3.5-.3.8-.1"/><path class="st0" d="M424.1 723h1.1l1-.2 1.2-.5.8-.7.8-.7.7-.8.4-1 .5-.9.3-1.1V716l-.2-1.1-.2-1-.5-1-.6-1-.8-.8-.9-.5-1-.6-1.1-.4-1-.1h-1l-1.1.1-1 .4-1.2.6-.7.5-.8.8-.7 1-.4 1-.4 1-.1 1.1.1 1.1.3 1.1.4.9.5 1 .7.8.8.7 1 .7.8.5 1.2.2h1.1m0 120.6h1.1l1-.3 1.2-.4.8-.6.8-.8.7-.7.4-1 .5-1 .3-1v-1.3l-.2-1-.2-1-.5-1.1-.6-.9-.8-.7-.9-.7-1-.6-1.1-.2-1-.2h-1l-1.1.2-1 .2-1.2.6-.7.7-.8.7-.7.9-.4 1.1-.4 1-.1 1 .1 1.3.3 1 .4 1 .5 1 .7.7.8.8 1 .6.8.4 1.2.3h1.1"/><path class="st0" d="M424.1 839.1h.6l.6-.3.5-.4.3-.6.2-.7v-.6l-.2-.5-.3-.6-.5-.5-.6-.1-.6-.2-.8.2-.5.1-.5.5-.2.6-.3.5v.6l.3.7.2.6.5.4.5.3h.8m78.1 18.9v-66.8m33 60.2v-53.7m-34.5-6.5h1.5m-1.5 66.8h1.5m0-60.3h33m-33 53.7h33M260 256.3h1l1.3-.4.9-.3 1-.7 1-.7.5-.8.6-1.1.5-1 .2-1 .2-1.2-.2-1-.2-1.2-.5-1-.6-1.1-.5-.7-1-.8-1-.5-.9-.5-1.3-.3h-2.2l-1 .3-1.2.5-.8.5-.9.8-.8.7-.6 1.1-.4 1-.2 1.2-.1 1 .1 1.2.2 1 .4 1 .6 1.1.8.8.9.7.8.7 1.2.3 1 .4h1.2"/><path class="st0" d="M260 241.7h1.1l1.2.3 1 .4 1.1.6.9.8.7.9.7 1.1.3 1 .4 1.3v2.2l-.4 1.1-.3 1.2-.7 1-.7.8-.9.8-1.1.6-1 .5-1.2.3h-2.3l-1.2-.3-1.1-.5-1-.6-.7-.8-.9-.8-.6-1-.5-1.2-.2-1.1-.1-1.2.1-1 .2-1.3.5-1 .6-1.1.9-.9.7-.8 1-.6 1.1-.4 1.2-.3h1.2m0-121.7l1.1.2 1.2.3 1 .4 1.1.6.9.8.7.9.7 1 .3 1.1.4 1.1v2.4l-.4 1-.3 1.2-.7.9-.7.9-.9.7-1.1.7-1 .5-1.2.2-1.1.1-1.2-.1-1.2-.2-1.1-.5-1-.7-.7-.7-.9-.9-.6-.9-.5-1.2-.2-1-.1-1.3.1-1.1.2-1.1.5-1.1.6-1 .9-.9m0 0l.7-.8 1-.6 1.1-.4 1.2-.3 1.2-.2"/><path class="st0" d="M260 138.2l1.4-.2 1.3-.1 1.3-.5 1.3-.5 1.1-1 1.1-.9.9-1 .8-1.2.6-1.1.4-1.4.3-1.4.2-1.4-.2-1.3-.3-1.3-.4-1.4-.6-1.3-.8-1-.9-1.2-1.1-.8-1.1-.9-1.3-.7-1.3-.5-1.3-.2h-2.9l-1.4.2-1.2.5-1.3.7-1.2.9-1 .8-1 1.2-.8 1-.5 1.3-.5 1.4-.2 1.3v2.7l.2 1.4.5 1.4.5 1.1.8 1.2 1 1 1 .9 1.2 1 1.3.5 1.2.5 1.4.1 1.5.2m0 121.6l1.4-.1 1.3-.3 1.3-.5 1.3-.6 1.1-.7 1.1-.9.9-1 .8-1.3.6-1.1.4-1.4.3-1.3.2-1.5-.2-1.4-.3-1.4-.4-1.2-.6-1.3-.8-1.2-.9-1.1-1.1-.8-1.1-.8-1.3-.6-1.3-.5-1.3-.3-1.4-.1-1.5.1-1.4.3-1.2.5-1.3.6-1.2.8-1 .8-1 1.1-.8 1.2-.5 1.3-.5 1.2-.2 1.4v2.9l.2 1.3.5 1.4.5 1.1.8 1.3 1 1 1 .9 1.2.7 1.3.6 1.2.5 1.4.3 1.5.1"/><path class="st0" d="M260 134.8l1-.1 1.3-.4.9-.3 1-.6 1-.7.5-.9.6-.9.5-1.1.2-1.1.2-1.2-.2-1.1-.2-1.1-.5-1-.6-.9-.5-1-1-.7-1-.5-.9-.5-1.3-.2-1-.1-1.2.1-1 .2-1.2.5-.8.5-.9.7-.8 1-.6.9-.4 1-.2 1.1-.1 1.1.1 1.2.2 1.1.4 1.1.6.9.8.9.9.7.8.6 1.2.3 1 .4 1.2.1"/><path class="st0" d="M260 134.7l1-.3 1.3-.1 1-.4.9-.6 1-.8.5-.8.6-1.2.5-1 .1-1.1.1-1.1-.1-1.1-.2-1.2-.7-1.1-.6-.9-.7-.7-.9-.8-1.1-.3-1-.5-1.1-.2h-1.2l-1.3.2-1 .5-.8.3-.9.8-1 .7-.5.9-.5 1.1-.3 1.2-.2 1.1v1.1l.4 1.1.2 1 .6 1.2.8.8.9.8.8.6 1.2.4 1 .1 1.2.3m0 121.4h1l1.3-.3 1-.5.9-.5 1-.7.5-1 .6-.9.5-1 .1-1.3.1-1-.1-1.2-.2-1-.7-1.1-.6-.9-.7-.9-.9-.6-1.1-.6-1-.3-1.1-.1h-1.2m0 0l-1.3.1-1 .3-.8.6-.9.6-1 .9-.5.9-.5 1.1-.3 1-.2 1.2v1l.4 1.3.2 1 .6.9.8 1 .9.7.8.5 1.2.5 1 .3h1.2m9-26.8l.9-.3.9-.1.7-.4.8-.6.5-.7.4-.8.3-.9v-1l-.1-.8-.4-.8-.3-.8-.7-.7-.7-.4-.9-.5-1-.1h-.9l-.7.1-.9.5-.7.4-.7.7-.3.8-.4.8-.1.8v1l.2.9.4.8.6.7.8.6.7.4.9.1.7.3"/><path class="st0" d="M269 220h1l.9.4.8.4.7.6.6.7.5.8.3.9v2l-.3.9-.5.7-.6.8-.7.6-.8.5-.9.2h-1.8l-1-.2-.8-.5-.7-.6-.5-.8-.5-.7-.3-.9v-2l.3-.9.5-.8.5-.7.7-.6.8-.4 1-.4h.8m0-72.9l1 .1.9.4.8.2.7.6.6.8.5.9.3.8v1.9l-.3.9-.5.7-.6.8-.7.6-.8.4-.9.4-1 .1-.8-.1-1-.4-.8-.4-.7-.6-.5-.8-.5-.7-.3-.9v-1.9l.3-.8.5-.9.5-.8.7-.6.8-.2 1-.4.8-.1"/><path class="st0" d="M269 158.9l1.2-.1 1.1-.4 1-.3 1.1-.7.8-.7.7-.9.5-.9.4-1.1.2-1.1v-1.1l-.1-1-.2-1.3-.5-.9-.7-1-.8-.7-.9-.8-.9-.5-1.1-.5-1.1-.1h-1.2l-1.1.1-1.1.5-1 .5-.9.8-.7.7-.7 1-.5.9-.2 1.3-.1 1v1.1l.2 1.1.3 1.1.6.9.7.9.8.7 1.1.7 1 .3 1 .4 1.1.1m0 72.9h1.2l1.1-.3 1-.5 1.1-.6.8-.7.7-.9.5-.9.4-1.1.2-1.1v-1.2l-.1-1.1-.2-1.1-.5-1-.7-.9-.8-.8-.9-.7-.9-.5-1.1-.4-1.1-.2h-1.2l-1.1.2-1.1.4-1 .5-.9.7-.7.8-.7.9-.5 1-.2 1.1-.1 1.1v1.2l.2 1.1.3 1.1.6.9.7.9.8.7 1.1.6 1 .5 1 .3h1.1"/><path class="st0" d="M269 156.2h.9l.9-.3.7-.5.8-.5.5-.7.4-.8.3-1v-.8"/><path class="st0" d="M273.5 151.6l-.1-.9-.4-.8-.3-.7-.7-.8-.7-.5-.9-.2-1-.1h-.9l-.7.1-.9.2-.7.5-.7.8-.3.7-.4.8-.1.9v.8l.2 1 .4.8.6.7.8.5.7.5.9.3h.7l.9-.1.9-.3.7-.4.7-.5.6-.7.2-.8.4-1 .1-.8-.3-.8-.3-.9-.5-.7-.5-.6-.7-.4-.8-.5-1-.1h-.7l-.9.1-.9.5-.6.4-.6.6-.4.7-.4.9-.1.8v.8l.1 1 .5.8.6.7.7.5.7.4.9.3.7.1m0 72.8h.9l.9-.2.7-.5.7-.5.6-.6.2-.8.4-.9v-1l-.2-.8-.3-.8-.5-.8-.5-.6-.7-.5-.8-.4-1-.1h-.7l-.9.1-.9.4-.6.5-.6.6-.4.8-.4.8-.1.8v1l.1.9.5.8.6.6.7.5.7.5.9.2h.7m197.6 41.3v-2m0-112.4v-49.6m-63.8 57.4h1.5l1.4-.2 1.5-.5 1.1-.5 1.4-.8 1.1-1 1-1.1.9-1.2.8-1.2.6-1.4.2-1.4.4-1.5v-1.5l-.1-1.3-.4-1.5-.4-1.4-.6-1.3-.9-1.2-1-1-1-1.1-1.2-.9-1.3-.6-1.4-.7-1.3-.2-1.5-.1h-1.5l-1.5.1-1.4.2-1.4.7-1.2.6-1.3.9-1 1.1-1 1-.9 1.2-.6 1.3-.4 1.4-.3 1.5-.2 1.3v1.5l.2 1.5.5 1.4.6 1.4.7 1.2.9 1.2.9 1.1 1.2 1 1.2.8 1.3.5 1.5.5 1.4.2h1.5m0 73.1l1.5-.3 1.4-.1 1.5-.4 1.1-.7 1.4-.8 1.1-1 1-1 .9-1.2.8-1.1.6-1.4.2-1.4.4-1.5v-1.5l-.1-1.5-.4-1.4-.4-1.2-.6-1.4-.9-1.3-1-1.1-1-1-1.2-.9-1.3-.7-1.4-.4-1.3-.4-1.5-.2h-1.5l-1.5.2-1.4.4-1.4.4-1.2.7-1.3.9-1 1-1 1.1-.9 1.3-.6 1.4-.4 1.2-.3 1.4-.2 1.5v1.5l.2 1.5.5 1.4.6 1.4.7 1.1.9 1.2.9 1 1.2 1 1.2.8 1.3.7 1.5.4 1.4.1 1.5.3"/><path class="st0" d="M418.6 224.9v-25.5l1-1.5.7-1.7.8-1.7.6-1.8.4-1.6.1-1.9v-1.7l-.1-1.8-.4-1.8-.6-1.7-.8-1.7-.7-1.5-1-1.5v-25.6l-.1-1.8-.2-1.7-.5-1.6-.7-1.5-.8-1.5-.8-1.5-1.3-1.2-1.1-1.2-1.4-1.1-1.5-.9-1.5-.7-1.6-.5-1.8-.4-1.6-.1h-1.8l-1.6.1-1.7.4-1.7.5-1.5.7-1.5.9-1.3 1.1-1.2 1.2-1.2 1.2-.9 1.5-.7 1.5-.8 1.5-.5 1.6-.2 1.7v31.6l-.7 1.8-.2 1.6-.4 1.6v3.3l.4 1.7.2 1.7.7 1.5v31.6l.2 1.7.5 1.6.8 1.7.7 1.5.9 1.3 1.2 1.4 1.2 1.2 1.3 1 1.5.8 1.5.7 1.7.6 1.7.3 1.6.4h1.8l1.6-.4 1.8-.3 1.6-.6 1.5-.7 1.5-.8 1.4-1 1.1-1.2 1.3-1.4.8-1.3.8-1.5.7-1.7.5-1.6.2-1.7.1-1.6"/><path class="st0" d="M404.1 202.6h1.6l1.5-.2 1.6-.5 1.4-.7 1.5-.7 1.4-1 1.1-1 1.1-1.3.9-1.2.8-1.5.6-1.5.4-1.5.3-1.6.2-1.5-.2-1.7-.3-1.6-.4-1.5-.6-1.5-.8-1.4-.9-1.4-1.1-1.1-1.1-1.1-1.4-.9-1.5-.7-1.4-.7-1.6-.3-1.5-.4-1.6-.1-1.8.1-1.5.4-1.6.3-1.4.7-1.5.7-1.2.9-1.3 1.1-1 1.1-1 1.4-.7 1.4-.5 1.5-.5 1.5-.3 1.6-.2 1.7.2 1.5.3 1.6.5 1.5.5 1.5.7 1.5 1 1.2 1 1.3 1.3 1 1.2 1 1.5.7 1.4.7 1.6.5 1.5.2h1.8m-17-7.7l-.7-1.5-.2-1.7-.4-1.7v-3.3l.4-1.6.2-1.6.7-1.8m31.5 17.7v25.5m0-47.4l1 1.5.7 1.5.8 1.7.6 1.7.4 1.8.1 1.8v1.7l-.1 1.9-.4 1.6-.6 1.8-.8 1.7-.7 1.7-1 1.5m0 25.5l-.1 1.6-.2 1.7-.5 1.6-.7 1.7-.8 1.5-.8 1.3-1.3 1.4-1.1 1.2-1.4 1-1.5.8-1.5.7-1.6.6-1.8.3-1.6.4h-1.8l-1.6-.4-1.7-.3-1.7-.6-1.5-.7-1.5-.8-1.3-1-1.2-1.2-1.2-1.4-.9-1.3-.7-1.5-.8-1.7-.5-1.6-.2-1.7v-1.6m31.5-73v25.6m-31.5 47.4v-30m0-43v-1.8l.2-1.7.5-1.6.8-1.5.7-1.5.9-1.5 1.2-1.2 1.2-1.2 1.3-1.1 1.5-.9 1.5-.7 1.7-.5 1.7-.4 1.6-.1h1.8l1.6.1 1.8.4 1.6.5 1.5.7 1.5.9 1.4 1.1 1.1 1.2 1.3 1.2.8 1.5.8 1.5.7 1.5.5 1.6.2 1.7.1 1.8m-31.5 29.8v-29.8"/><path class="st0" d="M402.8 140.7h1.4l1.5.2 1.4.5 1.1.5 1.3.8 1 1 1.1 1 .9 1.2.6 1.2.5 1.3.4 1.4.1 1.4v1.5l-.1 1.2-.4 1.4-.5 1.4-.6 1.2-.9 1.2-1.1 1.1-1 .9-1.3.7-1.1.7-1.4.3-1.5.4h-2.9l-1.4-.4-1.3-.3-1.2-.7-1.2-.7-1.1-.9-1-1.1-.9-1.2-.6-1.2-.5-1.4-.4-1.4-.1-1.2v-1.5l.1-1.4.4-1.4.5-1.3.6-1.2.9-1.2 1-1 1.1-1 1.2-.8 1.2-.5 1.3-.5 1.4-.2h1.5m0 72.8l1.4.1 1.5.3 1.4.5 1.1.6 1.3.8 1 .8 1.1 1 .9 1.2.6 1.2.5 1.3.4 1.3.1 1.6v1.3l-.1 1.5-.4 1.3-.5 1.4-.6 1.2-.9 1.1-1.1 1-1 1-1.3.8-1.1.6-1.4.4-1.5.2-1.4.2-1.5-.2-1.4-.2-1.3-.4-1.2-.6-1.2-.8-1.1-1-1-1-.9-1.1-.6-1.2-.5-1.4-.4-1.3-.1-1.5v-1.3l.1-1.6.4-1.3.5-1.3.6-1.2.9-1.2 1-1 1.1-.8 1.2-.8 1.2-.6 1.3-.5 1.4-.3 1.5-.1m1.3-38.9l1.5.1 1.6.3 1.5.5 1.4.6 1.2.7 1.4.9 1.3 1 .8 1.3.9 1.2.8 1.5.6 1.3.5 1.7.1 1.5v3.2l-.4 1.5-.5 1.5-.6 1.3-.7 1.3-1.2 1.4-1 1.1-1.2 1-1.3.7-1.3.8-1.5.6-1.6.3-1.6.1h-1.5l-1.7-.1-1.5-.3-1.5-.6-1.3-.8-1.4-.7-1.2-1-1-1.1-1.1-1.4-.8-1.3-.5-1.3-.5-1.5-.5-1.5v-3.2l.3-1.5.3-1.7.7-1.3.7-1.5.9-1.2.9-1.3 1.2-1 1.4-.9 1.4-.7 1.2-.6 1.5-.5 1.8-.3 1.5-.1m62.3 77.6v1.5l.1.1v1h.1v.3m0 0l.5 1.3.5 1.2 1.1 1.2.8 1 1 1 1.3.8 1.1.5 1.4.5 1.4.2h2.8l1.4-.2 1.3-.5 1.2-.5 1.3-1 1-.9.8-1 .8-1.3.6-1.1.5-1.4.3-1.3v-2.9l-.3-1.4-.5-1.2-.6-1.3-.8-1.2-.8-1-1-.9-1.3-.8-1.2-.6-1.3-.5-1.4-.3-1.5-.1-1.3.1-1.4.2-1.4.5-1.1.6-1.3.8-1 .8-.8 1-1.1 1.3-.5 1.1-.5 1.4m0 0v.5h-.1v.7l-.1.2v1.6"/><path class="st0" d="M466.4 252.2h.4l.1-1.6.4-1.5.6-1.4.8-1.4 1-1.1 1.2-1.1 1.1-.9 1.5-.6 1.5-.4 1.5-.2 1.5.2 1.7.2 1.3.5 1.4.8 1.4.9 1 1.2.9 1.1.6 1.4.5 1.5.2 1.6v1.5l-.2 1.5-.5 1.5-.6 1.4-.9 1.4-1 1-1.4.9-1.4.7-1.3.6-1.7.4h-1.5l-1.5-.2-1.5-.4-1.5-.6-1.1-.9-1.2-.9-1-1.2-.8-1.4-.6-1.5-.4-1.5-.1-1.5m-.4-80.4v1.7l.1.2v.8l.1.1v.2m0-5.8v.3l-.1.2v.7l-.1.1v1.5m-47.2 53.1v-25.4m-32.8 25.4v1.6l.4 1.7.4 1.6.6 1.7.8 1.5 1 1.5 1.1 1.3 1.1 1.2 1.4 1 1.4 1 1.6.8 1.5.5 1.6.5 1.9.2 1.6.3 1.6-.3 1.9-.2 1.7-.5 1.5-.5 1.6-.8 1.4-1 1.3-1 1.2-1.2 1.1-1.3.9-1.5.8-1.5.7-1.7.3-1.6.4-1.7v-1.6M386.4 195v29.9m0-43.3l-.6 1.6-.3 1.8-.2 1.6v3.4l.2 1.7.3 1.7.6 1.6m0-43.1v29.7m32.8-29.7v-1.8l-.4-1.7-.3-1.6-.7-1.6-.8-1.5-.9-1.4-1.1-1.4-1.2-1.2-1.3-1-1.4-1-1.6-.8-1.5-.6-1.7-.5-1.9-.3h-3.2l-1.9.3-1.6.5-1.5.6-1.6.8-1.4 1-1.4 1-1.1 1.2-1.1 1.4-1 1.4-.8 1.5-.6 1.6-.4 1.6-.4 1.7v1.8m32.8 25.3v-25.3m0 47.6l1-1.5.9-1.6.6-1.7.6-1.8.3-1.8.2-1.9v-1.7l-.2-2-.3-1.6-.6-1.8-.6-1.6-.9-1.8-1-1.5m47.4-2.4l.5 1.4.5 1.3 1.1 1.1.8 1.1 1 .9 1.3.8 1.1.6 1.4.4 1.4.3h1.3l1.5-.2 1.4-.3 1.3-.5 1.2-.5 1.3-.7 1-1 .8-1 .8-1.3.6-1.1.5-1.4.3-1.4v-2.8l-.3-1.3-.5-1.4-.6-1.2-.8-1.1-.8-1.2-1-.8-1.3-.8-1.2-.7-1.3-.5-1.4-.3h-2.8l-1.4.3-1.4.5-1.1.6-1.3.7-1 .9-.8 1-1.1 1.3-.5 1.2-.5 1.3"/><path class="st0" d="M466.4 171.8h.4l.1-1.5.4-1.5.6-1.5.8-1.1 1-1.2 1.2-1 1.1-1 1.5-.5 1.5-.5 1.5-.2h1.5l1.7.3 1.3.6 1.4.8 1.4.8 1 1.2.9 1.2.6 1.4.5 1.5.2 1.5v1.6l-.2 1.5-.5 1.5-.6 1.4-.9 1.2-1 1.2-1.4 1-1.4.7-1.3.5-1.7.4h-1.5l-1.5-.1-1.5-.5-1.5-.6-1.1-.9-1.2-1-1-1.3-.8-1.4-.6-1.3-.4-1.5-.1-1.7m-80.4 9.8l.2.1h.5m-.7 13.3h.5v-.1h.2m31.5 30h.6m0-25.4h-.1v-.1h-.5m.6-22.2h-.5v.3h-.1m-31.5 47.4h-.7m32.8-73h-.6m-32.2 0h.7m-145.5-49.5v.4l-.2.3-.5.3-.4.1v69.1h.9l.2-.1"/><path class="st0" d="M241.1 101.8l-.2.1v.2h-.1v.4h-.2v.8l-.1.1v.1m0 69.1v1.4l.1 1.2v3.9l.2 1.4v2.6l.1 1.3v7.8l-.1 1.4v2.6l-.2 1.3v4l-.1 1.3v1.2h.4l.5.1h.2v.2-2.7l.3-1.4v-6.6l.1-1.4v-7.8l-.1-1.4v-6.7l-.3-1.3v-2.5m-1.1 100.7h.4l.5.4.2.4v.5"/><path class="st0" d="M240.5 204v69.3h.1v.8l.2.2v.2l.1.1v.1h.2v.1m0-173h.4l.4-.2.2-.3m0 174.2l-.2-.3-.4-.1-.4-.3m225.5-25.6v-74.4m0-5.8v-13.1m0 112.4v-13.2m9.6 12.9l-9.6.3m25-16.1l-.2 1.6-.1 1.5-.5 1.8-.6 1.5-.8 1.5-.9 1.2-.8 1.3-1.3 1.2-1.1 1-1.4.9-1.5.8-1.5.6-1.5.5-1.6.2-1.6.2m15.4-96.2v80.4m-15.4-96.1l1.6.1 1.6.4 1.5.3 1.5.7 1.5.7 1.4.9 1.1 1.1 1.3 1.2.8 1.2.9 1.5.8 1.4.6 1.5.5 1.6.1 1.6.2 1.5m-25-15.9l9.6.2m-221.6-49.8h212m-223.1.2l11.1-.2m0 164l-11.1-.2m223.1.2h-212m-.2 6.3h212.2m-212-6.3v3l-.2 1v2.3m212.2-176.3H254.4m.2 6v-3l-.2-.9v-2.1l-10.9.2m0 175.7l10.9.4m-10.9-6.5V106.5m0-6h-.6l-.5.4-.3.4-.2.5-.3.6m0 4.1v66m0-70.1v4.1m0 97.8v65.8m0 0h1.9m0-163.6h-1.9m1.9 0v-6m-1.9 174l.3.3.2.7.3.3.5.3.6.1m0 0v-6.1m-1.9 0v4.4M477 262.3l1.4-.2 1.1-.3 1.4-.5 1.3-.5 1-.7 1-1 1-1 .5-1 .6-1.3.5-1.4.1-1.3v-2.5l-.2-1.4-.7-1.1-.6-1.3-.7-1-.9-1.1-1.1-.8-1.2-.7-1.2-.4-1.4-.5-1.2-.1h-1.4l-1.4.1-1.2.5-1.2.4-1.2.7-1 .8-.9 1.1-1 1-.5 1.3-.5 1.1-.3 1.4-.2 1.2v1.3l.4 1.3.2 1.4.6 1.3.8 1 .9 1 .9 1 1.2.7 1.3.5 1.1.5 1.4.3 1.3.2m0-80.3h1.4l1.1-.4 1.4-.4 1.3-.6 1-.8 1-.8 1-1.2.5-1 .6-1.3.5-1.3.1-1.2v-2.8l-.2-1.2-.7-1.3-.6-1.2-.7-1-.9-1-1.1-.9-1.2-.6-1.2-.5-1.4-.4-1.2-.1h-1.4l-1.4.1-1.2.4-1.2.5-1.2.6-1 .9-.9 1-1 1-.5 1.2-.5 1.3-.3 1.2-.2 1.4v1.4l.4 1.2.2 1.3.6 1.3.8 1 .9 1.2.9.8 1.2.8 1.3.6 1.1.4 1.4.4h1.3m-307 91.1V103.6m-1.2 1.3v69.8m0 0v97m0-166.8l1.2-1.3m-1.2 168.1l1.2 1.4m0-169.5l71.1-1.8M170 273.1l71.1 1.7m9.9-24.1l.3 1.2.5 1.2.6 1.1.7 1 .9.9 1 .7 1.3.6 1.1.5 1.2.3h2.5l1.3-.3 1.3-.5 1-.6 1-.5 1-1 .7-1 .8-1 .3-1.2.4-1.3.1-1.1v-1.3l-.1-1.3-.4-1.2-.6-1.2-.5-1-1-.9-.9-1-1-.5-1.2-.6-1.1-.4-1.3-.3h-1.3l-1.2.2m-7.4-111l.3 1.2.5 1 .6 1.3.7.8.9.9 1 .8 1.3.6 1.1.5 1.2.2 1.3.2 1.2-.2 1.3-.1 1.3-.5 1-.5 1-.7 1-1 .7-.9.8-1 .3-1.3.4-1.1.1-1.4v-1.2l-.1-1.1-.4-1.3-.6-1.2-.5-1-1-1-.9-.8-1-.7-1.2-.5-1.1-.6-1.3-.1-1.3-.1-1.2.1m4.8 107.4l.1.9.5 1.1.6.9.8.7.8.7 1 .3.9.3 1.1.1 1-.1 1.2-.3 1-.3.7-.7.8-.7.7-.9.3-1.1.3-.9.2-1-.2-1.1-.3-1-.3-1-.7-.8-.8-.7-.7-.7-1-.5-1.2-.2-1-.1-1.1.1m-4.7-66l.1 1 .5 1 .6.9.8.8.8.6 1 .4.9.3h2.1l1.2-.3 1-.4.7-.6.8-.8.7-.9.3-1 .3-1 .2-1-.2-1.1-.3-1-.3-.9-.7-1-.8-.7-.7-.5-1-.5-1.2-.3-1-.2-1.1.2m134.9 1.2l.9.1.9.4 1 .2.5.6.6.8.5.9.3.8.1 1-.1.9-.3.9-.5.7-.6.8-.5.6-1 .4-.9.4-.9.1-.9-.1-.8-.4-1-.4-.5-.6-.7-.8-.5-.7-.2-.9-.1-.9.1-1 .2-.8.5-.9.7-.8.5-.6 1-.2.8-.4.9-.1"/><path class="st0" d="M396.8 150.8l.3-1 .5-.9.6-1 .7-.7.9-.5.9-.5 1.1-.3 1-.2 1 .2 1.2.3.8.5.9.5.8.7.6 1 .5.9.2 1v2.1l-.2 1-.5 1-.6.9-.8.8-.9.6-.8.4-1.2.3h-2"/><path class="st0" d="M402.8 141.4l1.4.2 1.4.1 1.2.5 1.3.5 1 .7 1.1 1 .9 1 .7 1.3.7 1.1.3 1.4.4 1.4.1 1.3-.1 1.3-.4 1.4-.3 1.3-.7 1.3-.7 1-.9 1-1.1 1-1 .8-1.3.5-1.2.5-1.4.2-1.4.3-1.4-.3-1.3-.2-1.3-.5-1.2-.5-1.3-.8-.9-1-.8-1-.9-1-.6-1.3-.5-1.3-.2-1.4-.1-1.3.1-1.3.2-1.4.5-1.4.6-1.1.9-1.3.8-1 .9-1 1.3-.7 1.2-.5 1.3-.5 1.3-.1 1.4-.2"/><path class="st0" d="M402.8 141.1l1.4.1 1.5.2 1.1.4 1.4.8 1.3.7 1 .9.8 1.1.8 1.1.6 1.3.5 1.4.3 1.3.1 1.5-.1 1.3-.3 1.4-.5 1.3-.6 1.4-.8 1.1-.8 1.2-1 .9-1.3.7-1.4.6-1.1.4-1.5.4-1.4.1-1.4-.1-1.5-.4-1.3-.4-1.2-.6-1.2-.7-1-.9-.9-1.2-.7-1.1-.7-1.4-.5-1.3-.2-1.4-.1-1.3.1-1.5.2-1.3.5-1.4.7-1.3.7-1.1.9-1.1 1-.9 1.2-.7 1.2-.8 1.3-.4 1.5-.2 1.4-.1m0 78.9h.9l.9.4 1 .4.5.6.6.7.5.8.3.9.1 1.1-.1.9-.3.9-.5.7-.6.8-.5.6-1 .5-.9.2h-1.8l-.8-.2-1-.5-.5-.6-.7-.8-.5-.7-.2-.9-.1-.9.1-1.1.2-.9.5-.8.7-.7.5-.6 1-.4.8-.4h.9"/><path class="st0" d="M396.8 223.8l.3-1 .5-1 .6-.8.7-.7.9-.7.9-.5 1.1-.2 1-.1 1 .1 1.2.2.8.5.9.7.8.7.6.8.5 1 .2 1v2.1l-.2.9-.5 1.1-.6.9-.8.7-.9.7-.8.3-1.2.3-1 .1-1-.1"/><path class="st0" d="M402.8 214.4h1.4l1.4.2 1.2.5 1.3.7 1 .7 1.1.9.9 1 .7 1.2.7 1.2.3 1.3.4 1.3.1 1.5-.1 1.4-.4 1.2-.3 1.3-.7 1.2-.7 1.2-.9 1.1-1.1.9-1 .7-1.3.6-1.2.4-1.4.4h-2.8l-1.3-.4-1.3-.4-1.2-.6-1.3-.7-.9-.9-.8-1.1-.9-1.2-.6-1.2-.5-1.3-.2-1.2-.1-1.4.1-1.5.2-1.3.5-1.3.6-1.2.9-1.2.8-1 .9-.9 1.3-.7 1.2-.7 1.3-.5 1.3-.2h1.4"/><path class="st0" d="M402.8 214h1.4l1.5.4 1.1.4 1.4.6 1.3.9 1 1 .8 1 .8 1.2.6 1.1.5 1.4.3 1.4.1 1.5-.1 1.4-.3 1.2-.5 1.4-.6 1.4-.8 1-.8 1.1-1 1-1.3.8-1.4.6-1.1.5-1.5.2h-2.8l-1.5-.2-1.3-.5-1.2-.6-1.2-.8-1-1-.9-1.1-.7-1-.7-1.4-.5-1.4-.2-1.2-.1-1.4.1-1.5.2-1.4.5-1.4.7-1.1.7-1.2.9-1 1-1 1.2-.9 1.2-.6 1.3-.4 1.5-.4h1.4m8.8-25.6l-.3 1.2-.2 1-.5 1.1-.5 1-.8.9-1 .8-.8.6-1.2.5-1.1.2h-2.4l-1-.2-1.2-.5-.9-.6-.9-.8-.7-.9-.7-1-.5-1.1-.2-1-.1-1.2.1-1.2.2-1.2.5-1 .7-1.1.7-.8.9-.9.9-.6 1.2-.4 1-.2 1.3-.1 1.1.1 1.1.2 1.2.4.8.6 1 .9.8.8.5 1.1.5 1 .2 1.2.3 1.2"/><path class="st0" d="M405.7 179.3l1.1.4 1.3.4 1 .6 1 .8.9.9.7 1.1.6 1.1.4 1.3.4 1.1.1 1.2-.1 1.3-.3 1.2-.3 1.3-.7 1-.7 1.1-.9.9-.9.7-1.1.8-1.1.5-1.3.2-1.4.2h-1.1l-1.2-.2-1.3-.2-1.1-.6-1.1-.7-.9-.8-.9-.9-.7-1.1-.5-1.2-.4-1.2-.1-1.3-.3-1.1.3-1.4"/><path class="st0" d="M417 188.4l-.2 1.5-.2 1.5-.4 1.5-.6 1.3-.9 1.4-.9 1.1-1.1 1.2-1.1 1-1.3.7-1.5.6-1.3.7-1.5.2-1.6.1-1.6-.1-1.5-.1-1.5-.5-1.4-.5-1.3-.8-1.2-.7-1.2-1.1-.9-1.2-.9-1.3-.7-1.4-.5-1.4-.4-1.5-.2-1.5v-1.5l.2-1.5.4-1.5.5-1.5.7-1.4.9-1.1.9-1.3 1.2-1 1.2-.8 1.3-.8 1.4-.6 1.5-.4 1.5-.2h1.6l1.6.1 1.5.4 1.3.3 1.5.7 1.3.8 1.1.9 1.1 1.3.9 1.2.9 1.2.6 1.5.4 1.5.2 1.5.2 1.5"/><path class="st0" d="M417.2 188.4l-.1 1.5-.1 1.5-.5 1.5-.7 1.3-.7 1.4-1 1.1-1 1.3-1.1.9-1.4.8-1.3.8-1.5.5-1.5.2-1.5.4h-1.5l-1.5-.4-1.5-.2-1.5-.5-1.4-.8-1.3-.8-1-.9-1.2-1.3-1-1.1-.7-1.4-.6-1.3-.5-1.5-.2-1.5-.1-1.5.1-1.5.2-1.7.5-1.3.6-1.5.7-1.4 1-1.2 1.2-1.1 1-1 1.3-.9 1.4-.6 1.5-.6 1.5-.3 1.5-.1h1.5l1.5.1 1.5.3 1.5.6 1.3.6 1.4.9 1.1 1 1 1.1 1 1.2.7 1.4.7 1.5.5 1.3.1 1.7.1 1.5m79.7-81.4v-4.2m0 166.8V107m0 166.8v-4.2M495.2 107h1.7m0-4.2v-.7l-.2-.3-.5-.5-.4-.3h-.6"/><path class="st0" d="M495.2 101h.1v4.9l-.1 1.1m0 162.6h1.7M495.2 107v162.6m0 6.2l.6-.2.4-.3.5-.2.2-.6v-.7m-1.7-4.2l.1 1.1v4.9l-.1.2m-18.9-6.6l-9.7.3m26.2-17.3l-.1 1.6-.3 1.9-.3 1.6-.8 1.6-.7 1.7-.9 1.3-1.2 1.6-1.1 1.2-1.4 1-1.5 1.1-1.5.8-1.6.7-1.7.4-1.8.4-1.6.1m16.5-97.4v80.4m-16.5-97.3l1.6.2 1.8.2 1.7.5 1.6.8 1.5.7 1.5 1 1.4 1.1 1.1 1.3 1.2 1.4.9 1.5.7 1.5.8 1.6.3 1.8.3 1.7.1 1.6m-26.2-17.2l9.7.3"/><path class="st0" d="M466.6 154.4l9.7.3 1.6.2 1.8.3 1.7.5 1.6.5 1.7 1 1.5 1 1.3 1 1.2 1.4 1.1 1.4 1 1.5.8 1.5.6 1.7.5 1.8.2 1.7v83.9l-.2 1.6-.5 1.7-.6 1.7-.8 1.5-1 1.5-1.1 1.5-1.2 1.2-1.3 1.3-1.5.9-1.7.8-1.6.7-1.7.6-1.8.2-1.6.2-9.7.1m9.7-114.7v-.2m16.5 17.1h.1m-.1 80.4h.1m-16.6 17v.3m-9.7 7.1l28.6-.8m0-6.2l-28.6.7m0 0v6.3m0-170.3l28.6.7m0-6l-28.6-.7v6m31 161.4v-21.6m3.1-69.4V104m-1.1-1.4v75.2m-2 89.9v.3l-.3.5-.4.2m0-23.6l.4.2.3.3v.5m2-143.5l.3.2.4.3.3.3.1.6m0 72.7l-.1.4-.3.5-.4.2h-.3m-5.7-37.5l-.1-1.5-.2-1.5-.5-1.4-.7-1.2-.7-1.4-.9-1.1-1.1-1-1.3-.9-1.2-.8-1.3-.6-1.5-.5-1.5-.1-1.5-.1-1.5.1-1.4.4-1.5.5-1.3.6-1.3.7-1 1.2-1 1-1 1.2-.7 1.3-.4 1.3-.5 1.5-.1 1.6v1.5l.1 1.5.5 1.3.4 1.5.7 1.3 1 1.2 1 1.2 1 .8 1.3.9 1.3.6 1.5.7 1.4.2 1.5.1 1.5-.1 1.5-.1 1.5-.5 1.3-.5 1.2-.8 1.3-1 1.1-1 .9-1 .7-1.3.7-1.4.5-1.4.2-1.5.1-1.5h-1.2v1.5l-.4 1.5-.6 1.5-.8 1.3-.9 1.3-1 1-1.2.9-1.1.8-1.5.6-1.5.5-1.5.1-1.5-.1-1.5-.4-1.4-.4-1.5-.6-1.3-.9-1.1-1.1-1-1-.7-1.4-.8-1.3-.2-1.5-.3-1.5v-1.5l.3-1.6.2-1.5.6-1.3.9-1.3 1-1.1 1.1-1 1.3-.9 1.5-.6 1.4-.5 1.5-.3 1.5-.1 1.5.1 1.5.4 1.2.6 1.4.8 1.2.9 1 1.1.9 1.4.8 1.1.6 1.5.4 1.5v1.5m-26.1-34v48.1m0 115.2v.7"/><path class="st0" d="M481.8 129.7l-1.5.1-1.4.4-1.1.3-1.4.7-1 .7-1.1.9-.9 1.1-.9 1.1-.6 1.3-.5 1.4-.2 1.2v2.8l.2 1.4.5 1.3.6 1.2.9 1.2.9 1 1.1.9 1 .7 1.4.7 1.1.5 1.4.2 1.5.1 1.4-.1 1.3-.2 1.4-.5 1.1-.7 1.3-.7 1-.9.9-1 .7-1.2.7-1.2.5-1.3.2-1.4.1-1.4-.1-1.4-.2-1.2-.5-1.4-.7-1.3-.7-1.1-.9-1.1-1-.9-1.3-.7-1.1-.7-1.4-.3-1.3-.4-1.4-.1m17.8 48.1l-2.7.2m2.7-75.4h-2.7m-19 154.5h.1v1.6m-.1-1.6l-.6.1h-.8l-.6-.1m0 1.6v-1.6m0 1.6l1.1.1 1-.1m3.8-7.5h1.6m-1.6 0l.1.6v.8l-.1.5m1.6.2h-1.6v-.2m1.6.2l.3-1.1-.3-1m-7.5-3.9v-1.7m0 1.7h2m.1-1.7v1.7h-.1m.1-1.7h-2.1m-3.9 7.5v.2h-1.6m1.6-.2v-1.9m-1.6 0h1.6m-1.6 0v2.1m7.5 3.8v-1l-.1-.2v-.7h-.1v-.6m-1.3 0h1.3m-1.3 0h-.1v1l-.1.1v.7l-.3.2v.5m5.9-5.9h-.4l-.2.1h-.8l-.1.1h-.9v.2m0 1.2v-1.2m0 1.2h.6v.1h.8l.1.2h.9m-5.9-5.8v.5m0 0h.3v1h.1v.9h.1v.1"/><path class="st0" d="M477.7 249.8l-.7-.1-.6.1m1.3 0v-.6l.1-.1v-.8l.1-.1v-.9m-5.9 5.8h.9l.3-.2h.7l.1-.1h.7m0-1.2l-.3.6.3.6m0-1.2v-.2h-1.2v-.1h-.8v-.1h-.7m7.4.4l-.1-.2h-.5l-.1-.1h-.2m0 0l-.1-.1-.2-.1-.2-.3-.1-.1v-.1h-.1v-.3l-.1-.2v-.3"/><path class="st0" d="M476.4 249.8l-.1.1v.4l-.1.1v.2l-.3.1v.1h-.1v.3h-.1v.1h-.2l-.1.1h-.2l-.2.1h-.2l-.1.2m0 1.2h.2l.1.1h.4v.2h.1l.2.2.1.1.1.2.3.1v.1l.1.3v.3l.1.2m1.3 0v-.4h.1v-.4l.1-.1v-.1h.1v-.2h.2v-.1h.2v-.2h.1l.2-.2h.2v-.1h.5"/><path class="st0" d="M477 261.2h-1.3l-1.3-.3-1.1-.5-1.1-.6-1-.7-.9-.9-.9-.9-.6-1.2-.5-1.2-.3-1.2-.1-1.1v-1.4l.2-1.3.3-1.1.6-1.2.8-1 .9-1 1-.8 1-.7 1.2-.4 1.1-.5 1.4-.2h1.3l1.1.2 1.4.5 1 .4 1.1.7 1 .8.9 1 .6 1 .6 1.2.5 1.1.1 1.3v2.5l-.5 1.2-.3 1.2-.7 1.2-.7.9-.9.9-1.1.7-1.1.6-1.3.5-1.2.3H477"/><path class="st0" d="M477 259.8h-1.2l-1.1-.2-1.2-.5-1-.5-.8-.8-.8-1-.7-1-.5-1-.3-1.1-.2-1.1v-1.3l.3-1.2.4-1 .5-1 .8-1.2.8-.7.9-.8 1.1-.3 1.2-.5 1.2-.2h1.3l1.1.2 1.1.5 1 .3 1 .8.8.7.7 1.2.6 1 .5 1 .2 1.2v2.4l-.5 1.1-.4 1-.6 1-.8 1-.9.8-1.1.5-1.1.5-1.1.2H477"/><path class="st0" d="M477 243.2h-1.3l-1.3.4-1.1.3-1.3.7-.8.7-.9 1-.9 1-.6 1.1-.5 1.3-.3 1.1v2.6l.3 1.4.5 1.1.6 1.2.9 1 .9.8.8.8 1.3.6 1.1.5 1.3.3 1.3.1 1.2-.1 1.3-.3 1.3-.5 1-.6 1.1-.8.9-.8.7-1 .7-1.2.3-1.1.4-1.4.1-1.2-.1-1.4-.4-1.1-.3-1.3-.7-1.1-.7-1-.9-1-1.1-.7-1-.7-1.3-.3-1.3-.4H477m-1.2 11.6l.1 3.9"/><path class="st0" d="M474.3 253.3l.5.1.4.2.3.2.3.5v.5m-5.4-1.5h3.9m0-2.2l-3.9.1m5.4-1.6v.3l-.3.5-.3.3-.4.4h-.5m1.6-5.5l-.1 4m2.2 0v-4m1.5 5.5h-.3l-.5-.4-.3-.3-.2-.5-.2-.3m5.4 1.6l-3.9-.1m0 0v.3m-1.5-1.8h-.3m-1.9 0h.5m-2 1.5v.3m0 1.9v-.5m1.5 2h.5m3.2-1.5h3.9m-5.4 1.5l.2-.5.2-.5.3-.2.5-.2.3-.1m-1.5 5.4v-3.9m0 0h-.3m1.8-1.5v-.5m-1.6-76h.1v1.7m-.1-1.7h-2m0 1.7v-1.7m0 1.7h2.1m3.8-7.5h.1l.3-.2h1.2m-1.6.2l.1.6v.7l-.1.7m1.6.1h-1l-.1-.1h-.5m1.6.1l.3-1.3-.3-1m-7.5-3.7v-1.6m0 1.6l.6-.1h.8l.6.1"/><path class="st0" d="M478 165.5v1.6h-.1m.1-1.6l-1-.3-1.1.3M472 173h-.3v.1h-1.3m1.6-.1v-2m-1.6-.2h1.5v.2h.1m-1.6-.2v2.3m7.5 3.7v-.8l-.1-.3v-.7l-.1-.2v-.6m-1.3 0l.6.3.7-.3m-1.3 0v.3h-.1v.8l-.1.2v.7l-.3.1v.5m5.9-5.8h-.8v.1h-.8v.1h-.8m0 1.4v-1.4m0 1.4h.8l.1.1h.7l.2.3h.6m-5.9-5.9v.4m0 0l.3.2v.8l.1.1v.9h.1v.1"/><path class="st0" d="M477.7 169.6l-.7-.1-.6.1m1.3 0v-.6l.1-.2v-.7l.1-.1v-.9M472 173h.7l.1-.3h.9v-.1h1m0-1.4l-.3.6.3.8m0-1.4h-.8l-.2-.1h-.8l-.1-.1h-.8m7.4.2h-.5l-.1-.1h-.1l-.2-.1m0 0h-.1l-.2-.2-.2-.1v-.2h-.1v-.2l-.1-.1v-.2h-.1v-.4m-1.3 0h-.1v.5l-.1.1v.1l-.3.2-.1.2v.1h-.1v.2h-.3v.1h-.4v.1h-.3m0 1.4h.3l.2.1h.2l.1.3h.2v.1h.1v.1h.1v.1l.3.2v.2l.1.1v.4h.1m1.3 0v-.2l.1-.2v-.3h.1v-.2l.1-.1.2-.1.2-.1.1-.3h.2l.1-.1h.6"/><path class="st0" d="M477 181h-1.3l-1.3-.3-1.1-.5-1.1-.5-1-.7-.9-1-.9-1-.6-1-.5-1.3-.3-1.2-.1-1.2V171l.2-1.3.3-1.1.6-1.3.8-1 .9-.8 1-1 1-.5 1.2-.7 1.1-.3 1.4-.2h1.3l1.1.2 1.4.3 1 .7 1.1.5 1 1 .9.8.6 1 .6 1.3.5 1.1.1 1.3v2.5l-.5 1.2-.3 1.3-.7 1-.7 1-.9 1-1.1.7-1.1.5-1.3.5-1.2.3H477"/><path class="st0" d="M477 179.7h-1.2l-1.1-.4-1.2-.3-1-.7-.8-.7-.8-.9-.7-1.1-.5-1-.3-1.3-.2-1.1V171l.3-1 .4-1.3.5-1 .8-1 .8-.9.9-.6 1.1-.5 1.2-.4 1.2-.1h1.3l1.1.1 1.1.4 1 .5 1 .6.8.9.7 1 .6 1 .5 1.3.2 1v2.3l-.5 1.3-.4 1-.6 1.1-.8.9-.9.7-1.1.7-1.1.3-1.1.4H477"/><path class="st0" d="M477 163h-1.3l-1.3.3-1.1.4-1.3.6-.8.8-.9.9-.9 1.1-.6 1.1-.5 1.3-.3 1.2v2.5l.3 1.3.5 1.1.6 1.2.9 1 .9.9.8.8 1.3.6 1.1.5 1.3.3h2.5l1.3-.3 1.3-.5 1-.6 1.1-.8.9-.9.7-1 .7-1.2.3-1.1.4-1.3.1-1.4-.1-1.1-.4-1.2-.3-1.3-.7-1.1-.7-1.1-.9-.9-1.1-.8-1-.6-1.3-.4-1.3-.3H477m-1.2 11.6l.1 3.9"/><path class="st0" d="M474.3 173.1l.5.1.4.1.3.4.3.4v.5m-5.4-1.5h3.9m0-2.3h-3.9m5.4-1.5v.4l-.3.5-.3.3-.4.2-.5.1m1.6-5.3l-.1 3.8m2.2 0v-3.8m1.5 5.3l-.3-.1-.5-.2-.3-.3-.2-.5-.2-.4m5.4 1.5h-3.9m0 0v.4m-1.5-1.9h-.3m-1.9 0h.5m-2 1.5v.4m0 1.9v-.5m1.5 2h.5m3.2-1.5h3.9m-5.4 1.5l.2-.5.2-.4.3-.4.5-.1.3-.1m-1.5 5.4v-3.9m0 0h-.3m1.8-1.5v-.5m3.2-27.4l.2.1v1.5m-.2-1.6l-.5.1h-.8l-.6-.1m0 1.6v-1.6m0 1.6l1 .1 1.1-.1m3.8-7.5h1.6m-1.6 0l.1.8v.6l-.1.7m1.6 0h-1.6m1.6 0l.1-1.1-.1-1m-7.5-3.8v-1.6m0 1.6l.6-.1h.8l.5.1"/><path class="st0" d="M482.9 133.9v1.5l-.2.1m.2-1.6l-1.1-.2-1 .2m-3.9 7.5h-1.7m1.7 0v-2.1m-1.7 0h1.7m-1.7 0v2.1m7.5 3.8v-1h-.2v-.9h-.1v-.6m-1.4 0h1.4m-1.4 0v1.1h-.1v.8l-.1.1v.5m5.9-5.9h-.4v.1h-.9v.2h-.9v.1h-.3m0 1.2v-1.2m0 1.2h.3l.2.2h.7l.1.1h.8l.1.2h.3m-5.9-5.9v.4m0 0l.1.3v.7h.1v1m1.4 0H481m1.4 0v-.6h.1v-.9h.2v-.9m-5.8 5.9h.1l.2-.2h.8v-.1h.9v-.2h.5m0-1.2l-.1.6.1.6m0-1.2h-.2l-.3-.1h-.7l-.2-.2h-.7l-.1-.1h-.3m7.3.4h-.3l-.1-.1h-.4v-.2h-.1m0 0h-.1v-.1h-.2v-.1l-.1-.3-.2-.1-.2-.1v-.2l-.1-.1v-.5m-1.4 0v.6h-.1v.3h-.1v.1h-.1v.3l-.3.1-.1.1h-.1l-.2.2h-.3l-.2.1h-.1m0 1.2h.1l.2.2h.3l.2.1h.1l.1.2.3.2.1.1v.1h.1v.4h.1v.5m1.4 0v-.4l.1-.1v-.3l.2-.1.2-.1v-.1h.1v-.2h.2v-.2h.2v-.1h.4l.1-.2h.3"/><path class="st0" d="M481.8 149.4l-1.4-.1-1.1-.2-1.3-.5-1-.7-1.1-.7-.9-.8-.8-1-.7-1-.3-1.2-.4-1.3-.1-1.2v-1.3l.2-1.4.4-1.1.6-1.1.8-1 .8-1.1.9-.8 1-.7 1.3-.4 1.2-.4 1.1-.2h1.4l1.3.2 1.1.4 1.2.4 1 .7 1.2.8.8 1.1.7 1 .5 1.1.5 1.1.1 1.4v2.5l-.4 1.3-.5 1.2-.6 1-.8 1-.8.8-1 .7-1.3.7-1.2.5-1.2.2-1.2.1"/><path class="st0" d="M481.8 148.2l-1.1-.3-1.3-.2-1-.5-1.1-.5-.9-.8-.7-1-.8-.8-.5-1.2-.2-1.1-.2-1.1v-1.3l.3-1.2.4-1 .5-1 .7-1 1-.9.9-.8 1-.3 1.2-.4 1.2-.3h1.2l1.3.3 1 .4 1 .3 1.1.8.7.9.8 1 .6 1 .4 1 .1 1.2v2.4l-.4 1.1-.5 1.2-.6.8-.7 1-1 .8-.9.5-1.3.5-1 .2-1.2.3"/><path class="st0" d="M481.8 131.3l-1.4.1-1.1.4-1.3.4-1.1.6-1 .7-1 .9-.7 1.1-.7 1-.3 1.3-.4 1.1v2.7l.4 1.3.3 1.2.7 1.1.7 1 1 .9 1 .7 1.1.6 1.3.5 1.1.3 1.4.1 1.2-.1 1.4-.3 1.1-.5 1.2-.6 1-.7.8-.9.8-1 .6-1.1.5-1.2.3-1.3.1-1.3-.1-1.4-.3-1.1-.5-1.3-.6-1-.8-1.1-.8-.9-1-.7-1.2-.6-1.1-.4-1.4-.4-1.2-.1m-1.1 11.8l.1 3.7"/><path class="st0" d="M479.2 141.6h.3l.5.2.3.4.4.2v.7m-5.5-1.7l4 .2m0-2.4l-4 .1m5.5-1.6v.3l-.4.5-.3.3-.5.4h-.3m1.6-5.3l-.1 3.8m2.2 0v-3.8m1.5 5.3h-.5l-.5-.4-.2-.3-.2-.5-.1-.3m5.4 1.6l-3.9-.1m0 0v.5m-1.5-2h-.5m-1.7 0h.3m-1.8 1.5v.5m0 1.9v-.7m1.5 2.2l.3-.2m3.4-1.3l3.9-.2m-5.4 1.7l.1-.7.2-.2.2-.4.5-.2h.5m-1.5 5.2v-3.7m0 0l-.5-.2m2-1.3v-.7m17.8 32.9v-66.9m33 60.3v-53.8m-34.5-6.5h1.5m-1.5 66.9h1.5m0-60.4h33m-33 53.8h33m368 308l-.1-3.6-.3-3.5-.3-3.7-.8-3.6-.7-3.6-1.2-3.4-1.1-3.5-1.4-3.3-1.5-3.3-1.6-3.2-1.9-3.1-1.9-3-2.2-3-2.3-2.8-2.3-2.6-2.7-2.6-2.6-2.5-2.9-2.3-2.8-2.1-3-2-3.2-1.9-3.4-1.6-3.1-1.5-3.4-1.4-3.5-1.2-3.5-.9-3.4-.9-3.6-.6-3.6-.5-3.6-.3-3.5-.1-3.8.1-3.6.3-3.7.5-3.5.6-3.5.9-3.5.9-3.5 1.2-3.2 1.4-3.3 1.5-3.4 1.6-3 1.9-3.1 2-2.9 2.1-2.9 2.3-2.6 2.5-2.6 2.6-2.4 2.6-2.2 2.8-2.3 3-1.9 3-1.8 3.1-1.7 3.2-1.5 3.3-1.4 3.3-1.1 3.5-1.1 3.4-.8 3.6-.6 3.6-.4 3.7-.3 3.5-.2 3.6.2 3.6.3 3.7.4 3.6.6 3.5.8 3.5 1.1 3.6 1.1 3.3 1.4 3.5 1.5 3.2 1.7 3.2 1.8 3.2 1.9 3 2.3 3 2.2 2.7 2.4 2.7 2.6 2.5 2.6 2.4 2.9 2.5 2.9 2 3.1 2 3 2 3.4 1.6 3.3 1.5 3.2 1.4 3.5 1.1 3.5.9 3.5 1 3.5.5 3.7.5 3.6.3h7.3l3.6-.3 3.6-.5 3.6-.5 3.4-1 3.5-.9 3.5-1.1 3.4-1.4 3.1-1.5 3.4-1.6 3.2-2 3-2 2.8-2 2.9-2.5 2.6-2.4 2.7-2.5 2.3-2.7 2.3-2.7 2.2-3 1.9-3 1.9-3.2 1.6-3.2"/><path class="st0" d="M895.8 506.7l1.5-3.2 1.4-3.5 1.1-3.3 1.2-3.6.7-3.5.8-3.5.3-3.6.3-3.7.1-3.6"/><path class="st0" d="M902.8 475.2l-.1-3.6-.2-3.5-.5-3.7-.7-3.6-.7-3.5-1-3.4-1.3-3.5-1.2-3.2-1.5-3.4-1.8-3.1-1.7-3.2-2-3-2-2.8-2.5-2.9-2.4-2.7-2.5-2.6-2.8-2.4-2.6-2.2-3-2.1-3-1.9-3-2-3.4-1.6-3.1-1.5-3.5-1.4-3.3-1-3.6-1.2-3.4-.7-3.6-.8-3.5-.3-3.6-.4h-7.2l-3.6.4-3.6.3-3.7.8-3.3.7-3.5 1.2-3.4 1-3.4 1.4-3.3 1.5-3.1 1.6-3.2 2-3 1.9-3.1 2.1-2.6 2.2-2.7 2.4-2.5 2.6-2.4 2.7-2.3 2.9-2.2 2.8-2 3-1.8 3.2-1.7 3.1-1.5 3.4-1.3 3.2-1.2 3.5-.9 3.4-.9 3.5-.6 3.6-.5 3.7-.3 3.5-.1 3.6.1 3.6.3 3.7.5 3.6.6 3.4.9 3.6.9 3.5 1.2 3.4 1.3 3.4 1.5 3.2 1.7 3.1 1.8 3.2 2 3 2.2 2.9 2.3 2.8 2.4 2.8 2.5 2.5 2.7 2.4 2.6 2.2 3.1 2.2 3 2 3.2 1.7 3.1 1.8 3.3 1.5 3.4 1.3 3.4 1.2 3.5 1 3.3.7 3.7.8 3.6.5 3.6.1 3.7.1 3.5-.1 3.6-.1 3.5-.5 3.6-.8 3.4-.7 3.6-1 3.3-1.2 3.5-1.3 3.1-1.5 3.4-1.8 3-1.7 3-2 3-2.2 2.6-2.2 2.8-2.4 2.5-2.5 2.4-2.8 2.5-2.8 2-2.9 2-3 1.7-3.2 1.8-3.1 1.5-3.2 1.2-3.4 1.3-3.4 1-3.5.7-3.6.7-3.4.5-3.6.2-3.7.1-3.6"/><path class="st0" d="M757 475.2l.2-3.7.2-3.7.4-3.5.7-3.7.8-3.7 1.1-3.5 1.1-3.6 1.3-3.4 1.5-3.4 1.7-3.2 1.9-3.1 1.9-3.2 2.1-3 2.3-2.9 2.5-2.8 2.6-2.5 2.6-2.7 2.8-2.3 3-2.3 3-2.1 3.1-1.9 3.2-1.9 3.3-1.6 3.4-1.5 3.5-1.3 3.5-1.1 3.5-.9 3.7-.7 3.6-.6 3.7-.5 3.7-.2 3.7-.1 3.7.1 3.7.3 3.5.6 3.6.6 3.7.9 3.6 1.1 3.4 1.2 3.5 1.3 3.2 1.6 3.4 1.7 3.2 1.9 3 2.1 3 2 2.8 2.5 2.9 2.4 2.5 2.5 2.5 2.7 2.3 2.9 2.2 3 2.2 3 2 3.2 1.6 3.2 1.6 3.4 1.4 3.4 1.4 3.5 1 3.4.8 3.6.8 3.6.5 3.8.5 3.6.1 3.8v3.6l-.1 3.7-.5 3.5-.5 3.7"/><path class="st0" d="M905.1 488l-.8 3.7-.8 3.5-1 3.7-1.4 3.3-1.4 3.5-1.6 3.3-1.6 3.1-2 3.3-2.2 3.1-2.2 2.9-2.3 2.7-2.5 2.8-2.5 2.7-2.9 2.4-2.8 2.4-3 2.1-3 2.2-3.2 1.7-3.4 1.6-3.2 1.7-3.5 1.3-3.4 1.3-3.6 1-3.7.9-3.6.6-3.5.5-3.7.4h-7.4l-3.7-.2-3.7-.3-3.6-.7-3.7-.7-3.5-.9-3.5-1.2-3.5-1.4-3.4-1.4-3.3-1.6-3.2-1.8-3.1-2-3-2.1-3-2.3-2.8-2.3-2.6-2.5-2.6-2.7-2.5-2.7-2.3-2.9-2.1-3-1.9-3.1-1.9-3.3-1.7-3.2-1.5-3.5-1.3-3.4-1.1-3.5-1.1-3.4-.8-3.6-.7-3.8-.4-3.6-.2-3.8-.2-3.6"/><path class="st0" d="M908.8 475.2v-3.7l-.2-3.8-.5-3.8-.5-3.7-1-3.6-.9-3.5-1.1-3.7-1.4-3.6-1.5-3.5-1.6-3.3-2-3.2-2-3.3-2-3.1-2.5-3-2.4-2.9-2.5-2.6-2.8-2.6-2.8-2.5-3-2.3-3-2.2-3.2-2-3.2-1.9-3.4-1.7-3.4-1.7-3.5-1.3-3.6-1.2-3.5-1-3.8-1-3.6-.5-3.8-.6-3.7-.4-3.8-.1h-3.7l-3.8.3-3.7.4-3.8.6-3.6.8-3.8.9-3.6 1.2-3.4 1.1-3.5 1.5-3.5 1.8-3.2 1.8-3.2 2-3.1 2-3 2.2-2.9 2.5-2.9 2.5-2.5 2.8-2.6 2.7-2.4 2.9-2.2 3.1-2.2 3-1.7 3.4-1.9 3.3-1.6 3.5-1.4 3.3-1.2 3.7-1.2 3.6-.8 3.6-.8 3.8-.5 3.6-.4 3.8-.1 3.7v3.8l.1 3.9.4 3.6.5 3.7.8 3.8.8 3.5 1.2 3.6 1.2 3.7 1.4 3.5 1.6 3.3 1.9 3.4 1.7 3.2 2.2 3.1 2.2 3.1 2.4 2.9 2.6 2.9 2.5 2.6 2.9 2.5 2.9 2.5 3 2.3 3.1 2.1 3.2 1.9 3.2 1.8 3.5 1.7 3.5 1.3 3.4 1.4 3.6 1.1 3.8.9 3.6.8 3.8.6 3.7.5 3.8.1 3.7.1 3.8-.1 3.7-.2 3.8-.7 3.6-.6 3.8-.9 3.5-1.1 3.6-1.1 3.5-1.4 3.4-1.6 3.4-1.6 3.2-2 3.2-2 3-2.3 3-2.2 2.8-2.6 2.8-2.5 2.5-2.8 2.4-2.9 2.5-2.9 2-3.1 2-3.1 2-3.4 1.6-3.4 1.5-3.5 1.4-3.4 1.1-3.6.9-3.6 1-3.7.5-3.7.5-3.8.2-3.7v-3.8m-141.6-9h-.3"/><path class="st0" d="M766.8 467.1v-.8h.1v-.1m129.6 0v.9m0-.9h-.4m.2.9h.2m0 .2h-.2m-129.4 16.8l-.1-.9m.1.9h.3m129.3-.9v.9m0-.9h-.2m-.2.9h.4m-.2-.9h.2l.2-3.1.1-3.3v-3.2l-.1-3.2-.2-3.1m-129.6 0l-.2 3.1-.3 3.2v3.2l.3 3.3.2 3.1"/><path class="st0" d="M896.3 483.2h.2l.2-3.1.1-3.3v-3.2l-.1-3.2-.2-3.1m-129.6 0l-.2 3.1-.1 3.2v3.2l.1 3.3.2 3.1m129.6-15.9h-.2m.2-.2v.2m-129.7-.2v.2h.1m129.6 16.8l-.7 3.5-.7 3.4-.9 3.4-1.2 3.2-1.2 3.1-1.5 3.2-1.5 3.2-1.9 3-1.8 2.8-2.2 2.9-2.2 2.6-2.3 2.5-2.6 2.4-2.5 2.2-2.9 2.3-2.6 2-3 1.7-3 1.6-3.3 1.6-3.1 1.3-3.2 1.3-3.4 1-3.4.7-3.4.8-3.4.5-3.5.1-3.3.1-3.6-.1-3.6-.1-3.2-.5-3.5-.8-3.4-.7-3.4-1-3.1-1.3-3.3-1.3-3.2-1.6-3-1.6-2.8-1.7-2.9-2-2.7-2.3-2.7-2.2-2.5-2.4-2.3-2.5-2.3-2.6-2.1-2.9-1.9-2.8-1.6-3-1.8-3.2-1.5-3.2-1.1-3.1-1.2-3.2-.9-3.4-.8-3.4-.5-3.5m0-17.9l.5-3.3.8-3.5.9-3.2 1.2-3.4 1.1-3.3 1.5-3.1 1.8-3 1.6-3 1.9-2.9 2.1-2.8 2.3-2.5 2.3-2.7 2.5-2.4 2.7-2.3 2.7-2.2 2.9-1.8 2.8-1.9 3-1.6 3.2-1.7 3.3-1.2 3.1-1.1 3.4-1.2 3.4-.7 3.5-.8 3.2-.3 3.6-.4h6.9l3.5.4 3.4.3 3.4.8 3.4.7 3.4 1.2 3.2 1.1 3.1 1.2 3.3 1.7m0 0l3 1.6 3 1.9 2.6 1.8 2.9 2.2 2.5 2.3 2.6 2.4 2.3 2.7 2.2 2.5 2.2 2.8 1.8 2.9 1.9 3 1.5 3 1.5 3.1 1.2 3.3 1.2 3.4.9 3.2.7 3.5.7 3.3m16.9 97.2h.3m-164.2 0h.4m-.4 0l-1-.2-1.1-.3-.9-.5-.8-.5-.8-.7-.6-.8-.4-1.1-.4-1v-1.1m170.2 6.2l1-.2 1.2-.3.8-.5.9-.5.8-.7.6-.8.4-1.1.3-1v-1.1m-175.8 0h-.4m6.4 6.2h163.5m-64.3-174.2h64.3m0-1.9v1.9m0-1.9H749.9m0 1.9v-1.9m0 1.9h64.3m103.4 4.2v64.4m-4.2-68.6h.6l.4.2h.1l.2.1h.4l.3.1.1.1.4.3.1.1.2.1.2.2.2.3.3.2.1.2.1.1.3.4v.3l.1.1v.4l.1.2v.8m0 99.2v64.6m2 0h-2"/><path class="st0" d="M919.6 557.2V393.4h-2m-4.2 168.2h-65.8m70-4.4v1l-.2.7-.4.8-.6.5-.5.6-.8.5-.7.1-1 .2m-97.7 0h-65.8v1.8m163.5 0v-1.8"/><path class="st0" d="M913.4 563.4l1.1-.2 1-.3.9-.5 1-.5.7-.7.5-.8.5-1.1.3-1 .2-1.1m-173.9 0h-1.8v1.1l.2 1 .5 1.1.5.8.8.7 1 .5.9.5 1 .3 1.1.2"/><path class="st0" d="M749.9 561.6l-.7-.2-1-.1-.8-.5-.5-.6-.5-.5-.5-.8-.2-.7v-1m0-99.4v-64.4h-1.8v163.8m1.8 0v-64.6m173.9-99.2l-.2-.3v-.7l-.2-.5-.1-.4-.1-.4-.1-.2-.3-.5-.1-.3-.3-.4-.1-.2-.4-.3-.2-.3-.4-.3-.2-.1-.5-.4-.3-.1-.2-.2-.5-.1-.3-.2h-.5l-.5-.2h-.7m-163.5 0h-.7l-.5.2h-.3l-.5.2-.3.1-.4.2-.3.1-.4.4-.4.1-.3.3-.3.3-.1.3-.4.2-.2.4-.2.3-.2.5-.1.2-.2.4-.1.4-.1.5v1"/><path class="st0" d="M745.7 393.4v-.8l.1-.2v-.4l.1-.1.2-.3.2-.4.1-.1.1-.2.2-.2.2-.3.1-.2.3-.1.1-.1.4-.3.2-.1.2-.1h.3l.3-.1h.4l.1-.2h.6m167.7 103.4l-.5-.1h-.2l-.3-.2-1 3.9-1 3.8-1.2 3.7-1.5 3.8-1.6 3.6-1.7 3.7-1.8 3.3-2.1 3.5-2.1 3.3-2.4 3.2-2.6 3-2.5 3.1-2.8 2.7-3 2.8-3 2.5"/><path class="st0" d="M886.3 542.2l-3 2.5-3.2 2.3-3.3 2.2-3.5 1.8-3.5 1.9-3.5 1.6-3.6 1.6-3.8 1.3-3.7 1.2-3.9.8-4 1 .2.3v.5l.1.4 3.9-.9 3.9-.9 3.8-1.2 3.7-1.4 3.8-1.5 3.6-1.8 3.6-1.7 3.4-2 3.5-2.3 3.1-2.2 3.4-2.5 3-2.7 2.8-2.6 2.9-2.9 2.7-3 2.4-3.1 2.4-3.4 2.2-3.2 2.1-3.5 2-3.4 1.7-3.6 1.6-3.8 1.4-3.8 1.1-3.7 1.3-3.9.7-4m0-34.8l-.5.1h-.5v.2l.1 1.3.3 1.4.4 1.5.1 1.4.1 1.5.1 1.4.2 1.5.2 1.5v1.2l.1 1.5v5.8l-.1 1.5v1.4l-.2 1.5-.2 1.3-.1 1.5-.1 1.3-.1 1.5-.4 1.4-.3 1.5-.1 1.3"/><path class="st0" d="M917.6 492.6l.3-1.5.2-1.3v-1.5l.1-1.3.2-1.5.1-1.5v-1.4l.1-1.5v-11.8l-.1-1.5v-1.2l-.1-1.5-.2-1.5-.1-1.4v-1.5l-.2-1.4-.3-1.5m-70.3 102.6l-1.2.2-1.3.2-1.4.1-1.1.3-1.4.1-1.4.1-1.4.2H837l-1.4.1h-8l-1.1-.1h-1.4l-1.4-.2-1.3-.1-1.2-.1-1.3-.3-1.4-.1-1.3-.2-1.2-.2v.3l-.3.5v.4l1.3.1h1.4l1.3.2 1.3.2 1.2.1h1.4l1.4.1h4l1.4.1h2.5l1.4-.1h4l1.3-.1h1.4l1.4-.1 1.1-.2 1.4-.2h1.4l1.3-.1m1.5-172.4l-.1.4-.2.5v.3l3.7.8 3.8 1.2 3.7 1.1 3.7 1.4 3.6 1.5 3.6 1.6 3.4 1.9 3.4 2.1 3.2 2 3.2 2.2 3 2.5 2.8 2.6 2.9 2.7 2.8 2.8 2.5 3 2.4 3 2.3 3.2 2.2 3.3 2 3.2 1.7 3.5 1.9 3.5 1.5 3.5 1.3 3.8 1.2 3.6 1 3.8 1 3.9"/><path class="st0" d="M917.6 457.8l-.7-3.9-1-3.7-1.3-3.8-1.5-3.7-1.5-3.7-1.6-3.6-2-3.4-1.9-3.5-2.3-3.2-2.2-3.3-2.6-3-2.5-3-2.8-2.7-2.9-2.9-3-2.6-3.1-2.4-3.1-2.4-3.3-2.1-3.4-2.2-3.6-1.7-3.4-1.8-3.7-1.5-3.7-1.3-3.7-1.3-3.9-1m0 0l-3.8-.9M746.9 492.3h-.2l-.3.2h-.3l-.4.1.8 4 1.1 3.9 1.2 3.7 1.4 3.8 1.6 3.8 1.9 3.6 1.7 3.4 2.1 3.5 2.3 3.2 2.4 3.4 2.5 3.1 2.6 3 2.9 2.9 2.7 2.6 3.3 2.7 3.1 2.5 3.3 2.2 3.3 2.3 3.4 2 3.7 1.7 3.6 1.8 3.7 1.5 3.8 1.4 3.8 1.2 3.8.9 4 .9"/><path class="st0" d="M816 560.4l-4-1-3.8-.8-3.9-1.2-3.6-1.3-3.7-1.6-3.5-1.6-3.5-1.9-3.5-1.8-3.3-2.2-3.1-2.3-3.2-2.5-3-2.5-2.8-2.8-2.9-2.7-2.5-3.1-2.7-3-2.2-3.2-2.3-3.3-2.1-3.5-1.7-3.3-1.8-3.7-1.5-3.6-1.4-3.8-1.3-3.7-1.1-3.8-.7-3.9m67.3-103.1v.4l.3.5v.3l1.5-.3 1.2-.1 1.5-.4 1.4-.1 1.5-.3 1.4-.2 1.5-.1h1.4l1.5-.2h2.9l1.5-.1 1.2.1h2.9l1.5.2h1.4l1.5.1 1.5.2 1.3.3 1.5.1 1.4.4 1.5.1 1.3.3"/><path class="st0" d="M849.1 389.2l-1.5-.2-1.5-.1-1.3-.2-1.5-.1-1.4-.1h-1.5l-1.5-.3H836l-1.5-.1h-5.7l-1.6.1h-2.8l-1.5.3h-1.4l-1.5.1-1.5.1-1.4.2-1.5.1-1.4.2m-67.3 103.1l-.4-1.3-.2-1.5-.2-1.4-.3-1.5-.1-1.3-.2-1.5-.1-1.3-.3-1.5v-1.4l-.1-1.5v-5.8l.1-1.5v-1.2l.3-1.5.1-1.5.2-1.4.1-1.5.3-1.4.2-1.5.2-1.4.4-1.3-.2-.2h-.6l-.4-.1-.2 1.5-.1 1.4-.3 1.5-.1 1.4-.1 1.5-.1 1.5v2.7l-.2 1.5v8.8l.2 1.5v2.9l.1 1.5.1 1.5.1 1.3.3 1.5.1 1.3.2 1.5m68.5-103.4l-3.8.9-3.8 1-3.9 1.3-3.6 1.3-3.6 1.5-3.5 1.8-3.5 1.7-3.6 2.2-3.2 2.1-3.1 2.4-3.2 2.4-3 2.6-2.8 2.9-2.8 2.7-2.5 3-2.6 3-2.3 3.3-2.2 3.2-1.9 3.5-1.9 3.4-1.7 3.6-1.5 3.7-1.4 3.7-1.2 3.8-1.1 3.7-.8 3.9"/><path class="st0" d="M746.9 458.1l.7-3.9 1.1-3.8 1.2-3.6 1.3-3.8 1.5-3.5 1.8-3.5 1.8-3.5 2-3.2 2.2-3.3 2.3-3.2 2.4-3 2.5-3 2.7-2.8m0 0l2.9-2.7 2.9-2.6 3.1-2.5 3.1-2.2 3.2-2 3.5-2.1 3.4-1.9 3.5-1.6 3.6-1.5 3.6-1.4 3.8-1.1 3.7-1.2 3.8-.8"/><path class="st0" d="M916.4 475.2l-.2-3.9-.2-3.9-.5-4.1-.6-3.7-.9-3.9-.9-3.9-1.2-3.8-1.3-3.6-1.5-3.6-1.8-3.5-1.8-3.5-2-3.5-2.2-3.3-2.3-3.1-2.4-3.1-2.8-2.9-2.6-2.9-2.9-2.7-3-2.5-3.1-2.6-3.1-2.2-3.4-2.1-3.4-2-3.5-1.8-3.6-1.6-3.7-1.5-3.7-1.4-3.8-1.1-3.8-.9-3.8-.9-3.9-.6-4-.2-4-.4h-3.9l-3.9.2-3.8.3-3.9.5-4 .7-3.9.9-3.7 1-3.8 1.3-3.8 1.3-3.6 1.5-3.4 1.8-3.5 1.7-3.4 2.2-3.3 2.2-3.2 2.3-3 2.6-3 2.6-2.7 2.8-2.6 2.9-2.7 3.1-2.4 3-2.2 3.2-2.1 3.4-1.8 3.4-1.7 3.6-1.8 3.7-1.2 3.6-1.4 3.7-1.1 3.8-.9 3.9-.8 3.7-.6 3.9-.2 4-.2 4v3.9l.2 3.9.2 3.9.6 3.8.8 4.1.9 3.8 1.1 3.8 1.4 3.7 1.2 3.7 1.8 3.5 1.7 3.6 1.8 3.5 2.1 3.3 2.2 3.1 2.4 3.2 2.7 3 2.6 3.1 2.7 2.6 3 2.7 3 2.4 3.2 2.4 3.3 2.2 3.4 2 3.5 1.9 3.4 1.9 3.6 1.5 3.8 1.4 3.8 1.1 3.7 1.1 3.9.9 4 .8 3.9.3 3.8.4 3.9.1h3.9l4-.2 4-.5 3.9-.6 3.8-.8 3.8-.9 3.8-1.2 3.7-1.2 3.7-1.4 3.6-1.7 3.5-1.9 3.4-1.8 3.4-2.2 3.1-2.3 3.1-2.5 3-2.5 2.9-2.8 2.6-2.8 2.8-2.8 2.4-3.2 2.3-3.2 2.2-3.3 2-3.5 1.8-3.3 1.8-3.7 1.5-3.6 1.3-3.8 1.2-3.7.9-3.8.9-3.9.6-3.8.5-3.9.2-4 .2-3.9"/><path class="st0" d="M748.2 475.2v-3.9l.3-3.9.4-3.8.8-4 .7-3.8 1.1-3.7 1-3.8 1.4-3.8 1.6-3.5 1.7-3.5 1.8-3.5 2.2-3.3 2-3.2 2.2-3.2 2.7-3.2 2.5-2.8 2.7-2.8 2.9-2.6 3-2.5 3.1-2.4 3.1-2.3 3.3-2.1 3.5-2 3.5-1.7 3.5-1.5 3.6-1.5 3.8-1.3 3.8-1 3.7-1.1 3.9-.5 4-.6 3.9-.4 3.9-.3h3.8l3.9.3 4 .4 3.8.6 3.8.5 3.8 1.1 3.8 1 3.7 1.3 3.6 1.5 3.5 1.5 3.6 1.7 3.5 2 3.2 2.1 3.1 2.3 3.2 2.4 3 2.5 2.8 2.6 2.8 2.8 2.5 2.8 2.6 3.2 2.3 3.2 2.2 3.2 1.9 3.3 1.9 3.5 1.7 3.5 1.5 3.5 1.4 3.8 1.2 3.8 1 3.7.8 3.8.7 4 .3 3.8"/><path class="st0" d="M914.7 467.4l.4 3.9v7.8l-.4 4-.3 3.9-.7 3.8-.8 3.8-1 3.8-1.2 3.7-1.4 3.8-1.5 3.6-1.7 3.4-1.9 3.5-1.9 3.2-2.2 3.4-2.3 3.1-2.6 3-2.5 3-2.8 2.9-2.8 2.5-3 2.7-3.2 2.3-3.1 2.3-3.2 2.1-3.5 1.9-3.6 1.6-3.5 1.8-3.6 1.5-3.7 1.1-3.8 1.1-3.8.9-3.8.8-3.8.6-4 .2-3.9.3h-3.8l-3.9-.3-3.9-.2-4-.6-3.9-.8-3.7-.9-3.8-1.1-3.8-1.1-3.6-1.5-3.5-1.8-3.5-1.6-3.5-1.9-3.3-2.1-3.1-2.3-3.1-2.3-3-2.7-2.9-2.5-2.7-2.9-2.5-3-2.7-3-2.2-3.1-2-3.4-2.2-3.2-1.8-3.5-1.7-3.4-1.6-3.6-1.4-3.8-1-3.7-1.1-3.8-.7-3.8-.8-3.8-.4-3.9-.3-4v-3.9"/><path class="st0" d="M899.3 475.2l-.2-3.4-.3-3.6-.5-3.5-.5-3.4-.7-3.5-1.1-3.2-1.2-3.4-1.3-3.3-1.5-3.1-1.7-3-1.9-3-1.8-3-2.2-2.8-2.2-2.7-2.4-2.5-2.6-2.4-2.6-2.4-2.8-2.1-2.9-2.1-3-1.8-3-1.7-3.1-1.7-3.3-1.3-3.3-1.2-3.3-1.1-3.5-.7-3.4-.8-3.5-.4-3.5-.3-3.5-.2H829l-3.5.4-3.4.3-3.6.6-3.3.7-3.5 1-3.2 1.2-3.4 1.2-3.1 1.4-3.2 1.6-3 1.9-2.8 1.9-2.9 2.1-2.7 2.2-2.6 2.3-2.5 2.6-2.2 2.7-2.3 2.7-2.1 2.9-1.8 2.7-1.8 3.3-1.5 3.1-1.5 3.1-1.2 3.3-1.1 3.4-.9 3.4-.7 3.5-.7 3.5-.2 3.4-.1 3.5v3.6l.1 3.4.2 3.5.7 3.3.7 3.5.9 3.6 1.1 3.2 1.2 3.3 1.5 3.2 1.5 3.1 1.8 3 1.8 3.1 2.1 2.8 2.3 2.7 2.2 2.7 2.5 2.4 2.6 2.4 2.7 2.2 2.9 2.2 2.8 1.9 3 1.8 3.2 1.5 3.1 1.5 3.4 1.4 3.2 1 3.5.9 3.3 1 3.6.3 3.4.5 3.5.3h3.5l3.5-.1 3.5-.3 3.5-.5 3.4-.7 3.5-.9 3.3-.9 3.3-1.2 3.3-1.5 3.1-1.5 3-1.7 3-2 2.9-1.9 2.8-2.1 2.6-2.4 2.6-2.5 2.4-2.5 2.2-2.7 2.2-2.6 1.8-3 1.9-3.1 1.7-3 1.5-3.1 1.3-3.4 1.2-3.2 1.1-3.4.7-3.4.5-3.5.5-3.4.3-3.6.2-3.5"/><path class="st0" d="M765.9 475.2l.1-3.4.4-3.5.4-3.5.6-3.4.9-3.3.9-3.3 1.2-3.2 1.4-3.3 1.5-3.1 1.6-3 1.8-3 2-2.9 2.1-2.6 2.3-2.8 2.3-2.4 2.5-2.4 2.8-2.2 2.8-2.1 3-2 2.7-1.8 3.3-1.5 3.1-1.5 3.1-1.4 3.3-1 3.4-1.1 3.3-.7 3.4-.5 3.4-.4 3.5-.3h3.5l3.4.2 3.5.2 3.4.5 3.5.8 3.2.7 3.4 1 3.3 1.3 3.1 1.5 3.2 1.5 3 1.6 2.8 2 2.9 1.9 2.7 2.1 2.5 2.4 2.7 2.5 2.2 2.5 2.3 2.7 2 2.7 1.8 3 1.8 3 1.6 3 1.4 3.1 1.3 3.4 1.1 3.2 1 3.4.5 3.4.6 3.4.4 3.4.2 3.5v3.3l-.2 3.7-.4 3.3-.6 3.4-.5 3.5-1 3.3-1.1 3.4-1.3 3.2-1.4 3.1-1.6 3-1.8 3-1.8 2.9-2 2.9-2.3 2.6-2.2 2.7-2.7 2.3-2.5 2.3-2.7 2.2-2.9 2-2.8 1.9"/><path class="st0" d="M865.5 531.5l-3 1.6-3.2 1.6-3.1 1.5-3.3 1.2-3.4.9-3.2.9-3.5.7-3.4.5-3.5.3-3.4.2H829l-3.5-.4-3.4-.2-3.4-.6-3.3-.9-3.4-.9-3.3-1.1-3.1-1.4-3.1-1.5-3.3-1.6-2.7-1.6-3-2.1-2.8-2-2.8-2.2-2.5-2.5-2.3-2.5-2.3-2.5-2.1-2.8-2-2.9-1.8-3-1.6-3-1.5-3.1-1.4-3.1-1.2-3.4-.9-3.3-.9-3.2-.6-3.5-.4-3.5-.4-3.4-.1-3.5"/><path class="st0" d="M764.7 475.2v-3.4l.3-3.6.4-3.5.6-3.4.9-3.4 1.2-3.3 1-3.4 1.3-3.2 1.5-3.2 1.7-3 2-3 1.8-2.9 2.2-2.9 2.2-2.5 2.4-2.6 2.6-2.4 2.7-2.4 2.7-2.1 3-2 3-1.7 3-1.7 3.1-1.5 3.4-1.3 3.3-1.3 3.2-1 3.5-.7 3.5-.7 3.4-.6 3.5-.1 3.7-.1 3.3.1 3.5.1 3.4.6 3.5.7 3.5.7 3.3 1 3.2 1.3 3.4 1.3 3.1 1.5 3.2 1.7 2.8 1.7 3.1 2 2.7 2.1 2.6 2.4 2.7 2.4 2.3 2.6 2.3 2.5 2.1 2.9 2 2.9 1.9 3 1.6 3 1.5 3.2 1.4 3.2 1.1 3.4 1 3.3.9 3.4.6 3.4.4 3.5.4 3.6.1 3.4-.1 3.5-.4 3.6-.4 3.4-.6 3.5-.9 3.3-1 3.5-1.1 3.2-1.4 3.2-1.5 3.2-1.6 3.1-1.9 3.1-2 2.8-2.1 2.8-2.3 2.6-2.3 2.5-2.7 2.4-2.6 2.2-2.7 2.3-3.1 2-2.8 1.7-3.2 1.8-3.1 1.5-3.4 1.3-3.2 1.2-3.3 1-3.5.8-3.5.6-3.4.5-3.5.2-3.3.2-3.7-.2-3.5-.2-3.4-.5-3.5-.6-3.5-.8-3.2-1-3.3-1.2-3.4-1.3-3.1-1.5-3-1.8-3-1.7-3-2-2.7-2.3-2.7-2.2-2.6-2.4-2.4-2.5-2.2-2.6-2.2-2.8-1.8-2.8-2-3.1-1.7-3.1-1.5-3.2-1.3-3.2-1-3.2-1.2-3.5-.9-3.3-.6-3.5-.4-3.4-.3-3.6v-3.5"/><path class="st0" d="M897.6 475.2l-.1-3.4-.3-3.5-.5-3.5-.6-3.4-.9-3.5-.9-3.2-1.2-3.4-1.3-3.1-1.5-3.2-1.7-3-1.8-3-2.1-2.8-2.1-2.7-2.3-2.7-2.4-2.5-2.5-2.3-2.7-2.2-2.6-2.2-2.9-2-3-1.7-3.2-1.6-3.2-1.5-3.1-1.4-3.3-1.1-3.4-.9-3.4-.9-3.5-.6-3.3-.3-3.5-.3h-3.5l-3.4.2-3.5.3-3.4.5-3.5.7-3.5.9-3.3 1-3.1 1.2-3.4 1.4-3 1.5-3.1 1.8m0 0l-2.9 1.7-2.7 2.1-2.8 2.2-2.5 2.2-2.6 2.5-2.4 2.7-2.1 2.6-2.2 2.7-1.8 3-1.7 3-1.7 3-1.3 3.3-1.3 3.3-1.2 3.2-.8 3.5-.8 3.3-.6 3.5-.3 3.4-.1 3.5v3.6l.1 3.4.3 3.5.6 3.3.8 3.4.8 3.4 1.2 3.4 1.3 3.1 1.3 3.1 1.7 3.2 1.7 3 1.8 2.9 2.2 2.8 2.1 2.8 2.4 2.5 2.6 2.4 2.5 2.3 2.8 2.2 2.7 2.1 2.9 1.7 3.1 1.9 3 1.5 3.4 1.4 3.1 1.1 3.3 1.2 3.5.8 3.5.8 3.4.4 3.5.3 3.4.2h3.5l3.5-.3 3.3-.5 3.5-.6 3.4-.8 3.4-.8 3.3-1.3 3.1-1.1 3.2-1.5 3.2-1.7 3-1.8 2.9-1.9 2.6-2.1 2.7-2.3 2.5-2.4 2.4-2.5 2.3-2.6 2.1-2.7 2.1-2.9 1.8-3 1.7-3 1.5-3.2 1.3-3.1 1.2-3.2.9-3.4.9-3.4.6-3.5.5-3.5.3-3.4.1-3.5m-154.1 82v-24.4m176.2 0v24.4m-.1-163.8l.1-.2m-6.3-5.9h.2v-.1h.1v-.1m-169.8 6.3h-.3v-.2h-.1m6.4-5.9l-.4-.2"/><path class="st0" d="M913.7 387.1l1 .1 1.2.1.8.5.9.8.8.6.6.9.4 1 .3.9v140.8m-176.2 0V393.2m6-6.1h164.2m-170.2 6.1V392l.4-.9.4-1 .6-.9.8-.6.8-.8.9-.5 1.1-.1 1-.1M845 551.2l3.6-.8 3.8-.9 3.5-1 3.6-1.3 3.4-1.4 3.5-1.6 3.3-1.8 3.1-1.9 3.3-2.1 3-2.2 2.7-2.4 2.9-2.5 2.7-2.7 2.4-2.7 2.4-2.9 2.3-3 2.1-3.1 2-3.3 1.7-3.2 1.7-3.3 1.5-3.5 1.2-3.6 1.1-3.6 1-3.5.8-3.7.5-3.7.5-3.8.1-3.7.1-3.8-.1-3.6-.2-3.8-.7-3.7-.6-3.8-.9-3.6-1-3.6-1.2-3.6-1.4-3.5-1.5-3.5-1.7-3.2-1.9-3.1-2-3.2-2.1-3.2-2.4-2.8-2.5-2.9-2.7-2.7-2.7-2.5-2.9-2.6-2.7-2.3-3.3-2-3.1-2-3.3-2-3.4-1.6-3.3-1.5-3.5-1.4-3.7-1.1-3.5-1.2-3.6-.7-3.8-.5-3.7-.6-3.8-.2-3.7-.2h-3.8l-3.6.4-3.8.3-3.7.7-3.6.8-3.7 1-3.5 1.2-3.5 1.3-3.5 1.4-3.4 1.8-3.3 1.8-3.2 1.9-3 2.2-3 2.2-2.9 2.4-2.7 2.6-2.6 2.6-2.5 2.9-2.3 2.9-2.2 3.1-2.2 3-1.7 3.3-1.9 3.4-1.5 3.3-1.5 3.5-1.1 3.6-1.2 3.5-.8 3.7-.7 3.6-.6 3.8-.2 3.8-.2 3.7v3.8l.2 3.7.5 3.8.3 3.6"/><path class="st0" d="M767.4 463.6l.7-3 .7-3.3 1-3 1.1-3 1.2-2.8 1.3-2.8 1.5-2.9 1.7-2.8 1.8-2.5 1.8-2.5m0 0l.1-.2h.1v-.1h.3v-.2m96.1-6.6v.1h.1v.4h.2m-90.9 0l.1-.1h.2v-.4h.2m0 0l2.4-2.3 2.6-2.1 2.9-2 2.9-1.9 3-1.7 3-1.5 3.1-1.4 3.1-1.4 3.4-1 3.3-.8 3.3-.7 3.4-.6 3.4-.2 3.4-.4h3.5l3.4.4 3.5.2 3.2.6 3.4.7 3.3.8 3.3 1 3.2 1.4 3.1 1.4 3.1 1.5 2.9 1.7 3 1.9 2.8 2 2.6 2.1 2.6 2.3m-96.1 87.9h-.3v-.2h-.1v-.1h-.1m0 0l-1.8-2.6-1.8-2.5-1.7-2.8-1.5-2.7-1.3-2.9-1.2-2.9-1.1-3-1-3-.7-3.1-.7-3m128.4 0l-.6 3-.7 3.1-1 3-1.2 3-1.1 2.9-1.4 2.9-1.5 2.7-1.6 2.8-1.9 2.5-1.7 2.6m0 0h-.2v.1h-.1v.2h-.2m-95.9 6.6h-.2v-.1h-.2v-.2l-.1-.2m90.9 0v.2h-.2v.2l-.1.1m0 0l-2.6 2.4-2.6 2.1-2.8 2.1-3 1.8-2.9 1.8-3.1 1.6-3.1 1.2-3.2 1.4-3.3 1.1-3.3.9-3.4.6-3.2.5-3.5.4-3.4.2h-3.5l-3.4-.2-3.4-.4-3.4-.5-3.3-.6-3.3-.9-3.4-1.1-3.1-1.4-3.1-1.2-3-1.6-3-1.8-2.9-1.8-2.9-2.1-2.6-2.1-2.4-2.4m95.9-87.9v.2h.2l.1.1h.2v.2m0 0l1.7 2.5 1.9 2.5 1.6 2.8 1.5 2.9 1.4 2.8 1.1 2.8 1.2 3 1 3 .7 3.3.6 3"/><path class="st0" d="M767.4 463.6l.7-3.3.7-3 1-3 1.1-3 1.2-2.8 1.3-2.8 1.5-2.9 1.7-2.8 1.8-2.6 1.9-2.4m6.2-7l2.6-2.4 2.6-2.1 2.8-2 3-1.9 2.8-1.7 3.2-1.5 3.1-1.4 3.1-1.4 3.4-1 3.3-.8 3.3-.7 3.4-.6 3.4-.2 3.4-.4h3.5l3.4.4 3.5.2 3.2.6 3.4.7 3.4.8 3.2 1 3.3 1.4 3 1.4 3.1 1.5 3 1.7 2.9 1.9 2.8 2 2.6 2.1 2.6 2.4m-96.5 87.5l-1.9-2.6-1.8-2.5-1.7-2.8-1.5-2.7-1.3-2.9-1.2-2.9-1.1-3-1-3-.7-3.1-.7-3m128.4 0l-.6 3-.7 3.1-1 3-1.2 3-1.1 2.9-1.4 2.9-1.5 2.7-1.6 2.8-1.9 2.5-1.7 2.6m-6.3 6.9l-2.6 2.4-2.6 2.1-2.8 2.1-2.9 1.8-3 1.8-3.1 1.6-3 1.2-3.3 1.4-3.2 1.1-3.4.9-3.4.6-3.2.5-3.5.4-3.4.2h-3.5l-3.4-.2-3.4-.4-3.4-.5-3.3-.6-3.3-.9-3.4-1.1-3.1-1.4-3.1-1.2-3.2-1.6-2.8-1.8-3-1.8-2.8-2.1-2.6-2.1-2.6-2.4m96.6-87.4l1.7 2.4 1.9 2.6 1.6 2.8 1.5 2.9 1.4 2.8 1.1 2.8 1.2 3 1 3 .7 3 .6 3.3m-128.4 0v.1m0 23.1v.2m19.1-59v.3m96.4 6.7v-.2h-.1m-101.2 82.1l-.2-.3-.2-.1v-.1h-.1v-.1h-.2v-.2h-.1v-.2l-.1-.1-.3-.2v-.1m6.1 6.8l-.2-.2-.1-.2-.1-.1-.2-.2-.2-.1-.1-.1-.2-.3-.1-.1m92.6 0l-.2.4-.1.1v.1h-.3l-.1.2-.1.1-.2.2-.1.2m6.1-6.8l-.3.3v.1h-.2v.2h-.1v.2l-.1.1-.1.1v.1h-.3v.3h-.1m-4.9-88.6v-.3"/><path class="st0" d="M881.7 433.5v.2h.1v.1h.3v.1h.1v.1l.1.3.1.1v.1h.2v.2h.2v.1l.1.2m-6.1-7v.3h.1v.1h.2v.1h.1v.1l.1.2h.3v.2h.1v.2l.1.1h.1v.1m-92.6 0l.1-.1.2-.1v-.2h.1l.2-.2.2-.2v-.1h.1v-.1h.1v-.1h.2v-.3m-6.1 7v-.3h.3v-.2h.1v-.1h.1v-.1h.2v-.3l.1-.1.2-.1v-.1h.2v-.2m-1.2 1.3v.2m6.1-7h.2v-.1m-6.3 87.6h-.2M882.9 435h.2m-96.4 87.4h-.2v-.1m96.6-6.8h-.2m-6.1-87.6v.1m-96.6 7h.2m115.4 52v-.2m0-23.1v-.1m-129 18.7l.1.3h.3v.1h.1m129.2-.4l-.2.2v.1h-.2v.1m-128.8-15l-.1.1h-.3v.4h-.1m.5-.5v-.1h.1m128.7.1l-.1-.1m.1.1v.1h.2v.3h.2v.1"/><path class="st0" d="M896.5 468.2v.6l.1.5v1.8l.1.5v7.2l-.1.7v1.6l-.1.6v.6m-129.7 0v-1.2l-.1-.6v-1.7l-.1-.6v-6l.1-.6v-1.8l.1-.5v-1.1m129.3 14.5l-.1.1m-128.7-.1l.1.1m128.7.7l.2-.2m-129.4 0h.3v.2m0-16.6v.2h-.3m129.4 0v-.2h-.2m-114.5 50l1.7 2.2 2 1.9m96.4-4.1l-1.8 2.2-2 1.9m18.1-35.2v.3h-.2v.7m.5-3.5v.3m-129.4 0v-.3m.5 3.5v-1h-.1m0-21.2l.1-.9m-.5 3.4v-.3m129.4 0v.3m-.5-3.4v.7h.2v.2m-128.7 3.1l-.1-.1-.3-.2v-.3m0 16.2v-.5h.3v-.1h.1m128.8 0v.1h.2v.5m0-16.2v.5h-.2v.1m-.1 18.1l.3-2.2m0-16.8l-.3-2.2m.1 18.9l-.4 3.3-.7 3.4-.9 3.4-1.1 3.1-1.2 3.2-1.4 3.1-1.5 3.1-1.6 2.9-2 2.9-2 2.9-2 2.5-2.5 2.6-2.4 2.5-2.3 2.2-2.8 2.2-2.6 2.1-3 1.8-2.9 1.6-3 1.6-3.1 1.4-3.2 1.2-3.3 1-3.3.9-3.4.8-3.4.5-3.3.5-3.4.1h-3.5l-3.3-.1-3.5-.5-3.4-.5-3.3-.8-3.3-.9-3.1-1-3.4-1.2-3-1.4-3.1-1.6-2.9-1.6-2.9-1.8-2.7-2.1-2.7-2.2-2.5-2.2-2.4-2.5-2.2-2.6-2.3-2.5-2-2.9-1.7-2.9-1.9-2.9-1.5-3.1-1.4-3.1-1.1-3.2-1.1-3.1-.9-3.4-.7-3.4-.4-3.3m0-16.6l.4-3.2.7-3.5.9-3.3m0 0l1.1-3.1 1.1-3.4 1.4-3 1.5-3.1 1.9-2.9 1.7-2.9 2-2.7 2.3-2.8 2.2-2.5 2.4-2.5 2.5-2.2 2.7-2 2.7-2.2 2.9-1.8 2.9-1.7 3.1-1.6 3-1.4 3.4-1.1 3.1-1.1 3.3-.9 3.3-.7 3.4-.7 3.5-.2 3.3-.1h3.5l3.4.1 3.3.2 3.4.7 3.4.7 3.3.9 3.3 1.1 3.2 1.1 3.1 1.4 3 1.6 2.9 1.7 3 1.8 2.6 2.2 2.8 2 2.3 2.2 2.4 2.5 2.5 2.5 2 2.8 2 2.7 2 2.9 1.6 2.9 1.5 3.1 1.4 3 1.2 3.4 1.1 3.1.9 3.3.7 3.5.4 3.2"/><path class="st0" d="M767.9 475.2v3.5l.3 3.4.5 3.4.5 3.3 1 3.4.9 3.3 1.1 3.1 1.4 3.3 1.5 3 1.6 3 2 3 2 2.6 2 2.8 2.2 2.5 2.5 2.3 2.6 2.5 2.7 2 2.6 2.2 2.9 1.8 3 1.8 3 1.5 3.2 1.4 3.3 1.1 3.2 1.1 3.2.9 3.5.8 3.3.5 3.5.2 3.4.1h3.5l3.2-.2 3.5-.5 3.5-.6 3.3-.8 3.2-.9 3.3-1.1 3.1-1.2 3.1-1.6 3-1.6 3-1.9 2.8-1.8 2.6-2.2 2.8-2.2 2.4-2.4 2.3-2.4 2.2-2.7 2.1-2.8 1.9-2.7 1.8-2.9 1.5-3.1 1.5-3 1.2-3.4 1.1-3.1.9-3.3.7-3.5.7-3.3.2-3.5.4-3.5v-3.2l-.4-3.5-.2-3.4-.7-3.4-.7-3.4-.9-3.3-1.1-3.2-1.2-3.2-1.5-3-1.5-3.2-1.8-2.8-1.9-2.9-2.1-2.8-2.2-2.6-2.3-2.6-2.4-2.3-2.8-2.2-2.6-2-2.8-2-3-1.8-3-1.7-3.1-1.5-3.1-1.3-3.3-1.1-3.2-.9-3.3-.9-3.5-.6-3.5-.2-3.2-.4h-3.5l-3.4.1-3.5.4-3.3.4-3.5.7-3.2 1-3.2 1-3.3 1.3-3.2 1.2-3 1.5-3 1.9-2.9 1.7-2.6 2.2-2.7 2.1-2.6 2.3-2.5 2.5-2.2 2.6-2 2.6-2 2.8-2 2.8-1.6 3-1.5 3.2-1.4 3.1-1.1 3.1-.9 3.4-1 3.3-.5 3.5-.5 3.2-.3 3.5v3.4m-.5-7.6l-.1-.2h-.1v-.5m128.9 0v.2m0 0v.3h-.1v.2"/><path class="st0" d="M767.4 482.8l-.1-.5v-.6l-.1-.7v-1.3l-.3-.6v-3.3l-.1-.6.1-.6v-3.3l.3-.6v-1.1l.1-.8v-.6l.1-.6m-.2 15.9v-.4h.1v-.3h.1m128.6 0v.3h.1v.4m-.1-15.9v.6l.1.6v1.3l.2.6v2l.2.6v3.9l-.2.6v1.9l-.2.6v1.4l-.1.6v.5m-129.1.8l.4 2.2m0-21.2l-.4 2.2m114.8-33.3l-1.8-2.1-2-2m-92.6 0l-2 2-1.7 2.1M275.9 791.3v-29.5"/><path class="st1" d="M160.3 475.2h12.5m4.5 0h4.5m4.6 0h12.3m4.5 0h4.5m4.6 0h12.4m4.5 0h4.7m4.5 0h12.2m4.8 0h4.5m4.5 0h12.3m4.6 0h4.5m4.5 0h12.5m4.5 0h4.5m4.7 0h12.2m4.5 0h4.8m4.5 0h12.3m4.5 0h4.6m4.5 0h12.4m4.6 0h4.5m4.5 0h12.3m4.6 0h4.5m4.8 0h12.3m4.5 0h4.5m4.6 0h12.4m4.5 0h4.6m4.5 0h12.3m4.5 0h4.6m4.5 0h12.4"/><path class="st0" d="M383.5 188.4h4.8m4.5 0h12m4.5 0h4.7"/><path class="st1" d="M158.7 776.7h12.6m4.5 0h4.5m4.6 0h12.4m4.5 0h4.8m4.5 0h12.5m4.5 0h4.5m4.8 0h12.4m4.5 0h4.6m4.5 0H276m4.5 0h4.6m4.6 0h12.5m4.5 0h4.6m4.5 0h12.7m4.5 0h4.5m4.6 0h12.5m4.5 0h4.7m4.5 0h12.6m4.5 0h4.5m4.7 0h12.5m4.5 0h4.6m4.5 0h12.7m4.5 0h4.5m4.6 0h12.4m4.5 0h4.8m4.5 0h12.5m4.5 0h4.5m4.7 0h12.4m320-203.1v-12.3m0-4.6v-4.5m0-4.8v-12.2m0-4.5v-4.6m0-4.6v-12.4m0-4.5v-4.5m0-4.6v-12.3m0-4.5v-4.6m0-4.5v-12.4m0-4.5V448m0-4.5v-12.2m0-4.5V422m0-4.5v-12.3m0-4.6v-4.5m0-4.5v-12.4m96.4 96h-12.1m-4.5 0h-4.5m-4.6 0h-12.2m-4.5 0h-4.7m-4.5 0h-12.2m-4.5 0h-4.6m-4.5 0h-12.2m-4.5 0h-4.6m-4.5 0h-12.3m-4.6 0h-4.5m-4.5 0h-12.2m-4.6 0h-4.5m-4.5 0h-12.1m-4.8 0h-4.5m-4.6 0h-12.2"/><path class="st0" d="M778.4 188.4h4.5"/><path class="st1" d="M736.1 188.4h12.1m4.5 0h4.7m4.5 0h12m13.7 0h11.9m4.6 0h4.5m4.5 0h12m4.7 0h4.5m4.5 0h12m4.5 0h4.6m4.5 0h12m4.5 0h4.7m4.5 0h12m4.5 0h4.5m4.8 0h11.7M831.8 284v-12m0-4.5v-4.7m0-4.5v-12m0-4.5v-4.6m0-4.5v-12.1m0-4.5v-4.6m0-4.5v-12m0-4.5V186m0-4.6v-12.1m0-4.5v-4.5m0-4.7v-12m0-4.6v-4.5m0-4.6v-12m0-4.5v-4.5m0-4.6V92.4"/><path class="st2" d="M144.8 208.3h-6.9l3.5 16.1 3.4-16.1zm-6.9-39.7h6.9l-3.4-16-3.5 16z"/><path class="st1" d="M141.4 208.3v-39.7m241.4 56.3H280.7m-23.3 0h-119m244.4-73H280.7m-23.3 0h-119"/><path class="st2" d="M185.3 332.3v-6.8l-16.1 3.4 16.1 3.4zm67.3-6.8v6.8l16-3.4-16-3.4z"/><path class="st1" d="M185.3 328.9h67.3m-83.8-54.7v57.7"/><path class="st0" d="M269 163.5v24.6m0 .6v24.4"/><path class="st1" d="M269 236.4v12.4m0 .8v82.3m0-107h11.7m-11.7 0h-11.6"/><path class="st0" d="M269 224.9v-11.8"/><path class="st1" d="M269 224.9v11.5"/><path class="st0" d="M402.8 151.9h15.3"/><path class="st1" d="M402.8 151.9h20"/><path class="st0" d="M402.8 151.9h-15.2"/><path class="st1" d="M402.8 151.9h-20"/><path class="st0" d="M402.8 151.9v-15.4"/><path class="st1" d="M402.8 151.9v-20"/><path class="st0" d="M402.8 151.9v15.3"/><path class="st1" d="M404.1 188.4h17.6m-17.6 0h-17.8m-224.5 0h12m4.5 0h4.5m4.6 0h12.1m4.5 0h4.5m4.6 0H225m4.6 0h4.5m4.8 0h11.7m4.8 0h4.5m4.5 0h12m4.6 0h4.6m4.5 0h12m4.6 0h4.5m4.5 0h12m4.7 0h4.5m4.5 0h12m4.5 0h4.6m4.5 0h12m39.5 0h12m4.5 0h4.6m4.5 0h12m4.5 0h4.7m4.5 0h12m4.5 0h4.6m4.5 0h12m-103.3 0h23m-23 0h-22.6m22.6 0v-17.9m0 17.9v17.7"/><path class="st0" d="M402.8 224.9h15.3"/><path class="st1" d="M402.8 224.9H423m-20.2 0h-20m20 0v-15.5"/><path class="st0" d="M402.8 224.9v15.3"/><path class="st1" d="M402.8 224.9v19.8M269 151.9h11.7"/><path class="st0" d="M269 151.9h-11.6"/><path class="st1" d="M269 151.9v-11.6m0 11.6v11.6m0 61.4v-11.8m-9 36h15.2m-15.2 0h-15.4m15.4 0v-15.2m0 15.2v15.2m0-136.8h15.2m-15.2 0h-15.4m15.4 0v-15.1m0 15.1v15.2"/><path class="st2" d="M285.6 332.3v-6.8l-16 3.4 16 3.4zm100.8-6.8v6.8l16.1-3.4-16.1-3.4z"/><path class="st1" d="M285.6 328.9h100.8m102.9 0h-86.5m0-84.2v87.2M269 163.5v24.6m0 .6v24.4"/><path class="st2" d="M185.5 79.7v-6.9l-16.1 3.4 16.1 3.5zm57.9-6.9v6.9l16.1-3.5-16.1-3.4z"/><path class="st1" d="M185.5 76.2h57.9m-74.6 28.7V73.2M260 226.5v-1.3m0-.7v-35.8"/><path class="st0" d="M260 188.1v-35.9m0-.6v-8.9m0-30.3V73.2"/><path class="st2" d="M275.9 79.7v-6.9l-16.1 3.4 16.1 3.5zm111.7-6.9v6.9l16-3.5-16-3.4z"/><path class="st1" d="M275.9 76.2h111.7m118.3 0H404.1m0 94.3v-18.3m0-.6V73.2M260 188.1v-35.9m0-.6v-8.9m0-30.3V73.2"/><path class="st2" d="M117.9 232.6H111l3.5 16 3.4-16zm-6.9-88.5h6.9l-3.4-16-3.5 16z"/><path class="st1" d="M114.5 232.6v-88.5m130.1 105H111.5m133.1-121.6H111.5"/><path class="st2" d="M249.6 232.3l3.4 5.9 12.2-11-15.6 5.1z"/><path class="st1" d="M251.3 235.2l-96.5 55.7H18.5"/><path class="st2" d="M238.2 259.7l3.8 5.7 11.4-11.8-15.2 6.1z"/><path class="st1" d="M240.1 262.5l-85.7 57.9h-136"/><path class="st2" d="M412.6 245.2l5.7-3.9-12.1-11.2 6.4 15.1z"/><path class="st1" d="M415.5 243.2l42.1 60.7h136.2"/><path class="st2" d="M426.9 199.8l2.2-6.5-16.3-1.9 14.1 8.4z"/><path class="st1" d="M428 196.6l75.3 26.7h114.9"/><path class="st2" d="M142.9 543.1h-6.8l3.4 16.1 3.4-16.1zm-6.8-135.9h6.8l-3.4-16.1-3.4 16.1z"/><path class="st1" d="M139.5 543.1V407.2m26.8 152.7h-29.8m30-169.4h-30"/><path class="st2" d="M958.3 546.1h-6.8l3.4 16 3.4-16zm-6.8-141.8h6.8l-3.4-16-3.4 16z"/><path class="st1" d="M954.9 546.1V404.3m-33.5-17.2h36.5m-38.1 176.3h39.4"/><path class="st2" d="M902.2 359.3v6.8l16.1-3.4-16.1-3.4zm-141.8 6.8v-6.8l-16 3.4 16 3.4z"/><path class="st1" d="M902.2 362.7H760.4M743.5 387v-27.3m176.2 26.4v-26.4"/><path class="st2" d="M185.5 596.4v-6.9l-16.1 3.5 16.1 3.4zm39.4-6.9v6.9L241 593l-16.1-3.5z"/><path class="st1" d="M185.5 593h39.4"/><path class="st2" d="M258.8 596.4v-6.9l-16.1 3.5 16.1 3.4zm221.2-6.9v6.9l16.1-3.4-16.1-3.5z"/><path class="st1" d="M258.8 593H480m-238.4-28.3V596"/><path class="st0" d="M496.9 509v3.6"/><path class="st3" d="M513.9 596.6v-7.2l-16.8 3.6 16.8 3.6zm4.6-7.2v7.2l16.8-3.6-16.8-3.6z"/><path class="st4" d="M513.9 593h4.6"/><path class="st1" d="M535.2 542.5V596"/><path class="st0" d="M496.9 509v3.6"/><path class="st2" d="M186.3 625.4v-6.8l-16.1 3.4 16.1 3.4zm293.7-6.8v6.8l16.1-3.4-16.1-3.4z"/><path class="st1" d="M186.3 622H480m-311.2-59.8v62.9"/><path class="st0" d="M496.9 509v3.6"/><path class="st1" d="M496.9 564.3v60.8m5.3-112.2h9.6m4.7 0h4.5m4.7 0h9.9m-45.6 0h12.2m33 0h7.8"/><path class="st0" d="M502.2 824.5h9.6"/><path class="st1" d="M516.5 824.5h4.5"/><path class="st0" d="M525.7 824.5h9.9"/><path class="st1" d="M487.9 824.5h14.3m33 0h7.8"/><path class="st0" d="M839.4 108.1v-3.8m-60.8 43.4h15.2"/><path class="st1" d="M778.6 147.7h18.6m4.6 0h4.5m4.6 0h29.2m-61.5 0h-15.4m15.4 0v-15.5m0 15.5V163m121.6-15.3h15.3"/><path class="st0" d="M900.2 147.7h-15.4"/><path class="st1" d="M900.2 147.7h-18.5m-4.5 0h-4.6m-4.6 0h-28.7m60.9 0v-15.5m0 15.5V163"/><path class="st3" d="M760.6 310.5v-7.2l-16.7 3.6 16.7 3.6zm6.2-7.2v7.2l16.7-3.6-16.7-3.6z"/><path class="st4" d="M760.6 306.9h6.2"/><path class="st0" d="M743.5 279.1v30.8"/><path class="st1" d="M783.7 226v-9.9m0-4.5V207m0-4.5v-19.3m0 42.8v9.9m0 4.5v4.5m0 4.8v19.1m0 0v41.1"/><path class="st3" d="M725.5 259h-7.2l3.6 16.8 3.6-16.8zm-7.2-15.9h7.2l-3.6-16.7-3.6 16.7z"/><path class="st4" d="M721.9 259v-15.9"/><path class="st1" d="M783.7 226h9.9m4.5 0h4.5m4.6 0h19m-42.5 0h-10m-4.5 0h-4.7m-4.5 0h-19.6m0 0h-21.5"/><path class="st2" d="M766.4 131.2l-4.8 4.8 13.7 9-8.9-13.8z"/><path class="st1" d="M764 133.6l-15.9-14.5H600"/><path class="st2" d="M884 56.4v6.9l16.1-3.5-16.1-3.4zm-90.1 6.9v-6.9l-16 3.4 16 3.5z"/><path class="st1" d="M884 59.8h-90.1m-15.3 72.4V56.7m121.6 75.5V56.7"/><path class="st2" d="M759.8 63.3v-6.9l-16.1 3.4 16.1 3.5zm3.1-6.9v6.9l16.1-3.5-16.1-3.4z"/><path class="st1" d="M759.8 59.8h3.1m-19.4 41.5V56.7"/><path class="st2" d="M760 87.7v-6.9l-16.1 3.4 16.1 3.5zm63.6-6.9v6.9l16.1-3.5-16.1-3.4z"/><path class="st1" d="M760 84.2h63.6m15.8 84.9v-15m0-4.5v-4.7m0-4.5v-15m0 58.3v-14.6m0-43.7v-3.6m0-4.7v-4.5m0-8.1V81.2m36.2 3h-36.2"/><path class="st2" d="M185.3 666.1v-6.9l-16.1 3.5 16.1 3.4zm73.8-6.9v6.9l16.1-3.4-16.1-3.5z"/><path class="st1" d="M185.3 662.7h73.8m-90.3 28.1v-31.1m107.1 98.8v-98.8"/><path class="st2" d="M292.2 772.4v-6.9l-16.1 3.4 16.1 3.5z"/><path class="st1" d="M292.2 768.9h6l26.3-106.8h262.9"/><path class="st3" d="M695.8 259.2h-7.2l3.6 16.8 3.6-16.8zm-7.2-94.4h7.2l-3.6-16.7-3.6 16.7z"/><path class="st4" d="M692.2 259.2v-94.4"/><path class="st1" d="M742.2 276.5h-53m74-128.8h-74"/><text transform="translate(755.517 858.667)" class="st5 st6">Not to scale</text><text transform="translate(755.517 884.067)" class="st5 st6">Dimensions in mm</text><text transform="rotate(-90 154.566 48.898)" class="st5 st6">20</text><text transform="rotate(-90 315.737 185.303)" class="st5 st6">27.87</text><text transform="rotate(-90 730.952 -245.908)" class="st5 st6">29</text><text transform="rotate(-90 457.49 -228.743)" class="st5 st6">21.2</text><text transform="rotate(-90 490.096 -225.003)" class="st5 st6">8.3</text><text transform="rotate(-90 169.415 37.262)" class="st5 st6">12</text><text transform="translate(197.506 323.274)" class="st5 st6">16.5</text><text transform="translate(197.17 585.632)" class="st5 st6">12</text><text transform="translate(319.65 616.424)" class="st5 st6">54</text><text transform="translate(192.2 657.01)" class="st5 st6">17.526</text><text transform="translate(348.087 587.472)" class="st5 st6">42</text><text transform="translate(503.036 581.953)" class="st5 st6">6.3</text><text transform="translate(202.983 71.587)" class="st5 st6">15</text><text transform="translate(740.921 49.002)" class="st5 st6">5.77</text><text transform="translate(825.003 53.108)" class="st5 st6">20</text><text transform="translate(821.013 355.495)" class="st5 st6">29</text><text transform="translate(748.18 294.969)" class="st5 st6">6.6</text><text transform="translate(841.909 80.62)" class="st5 st6">15.77</text><text transform="translate(408.886 70.54)" class="st5 st6">23.7 (M3)</text><text transform="translate(507.57 218.485)" class="st5 st6">M3; 3 deep</text><text transform="translate(459.941 299.127)" class="st5 st6">2 x M2; 3 deep</text><text transform="translate(13.271 285.705)" class="st5 st6">2 x M2; 3 deep</text><text transform="translate(600.028 112.296)" class="st5 st6">2 x M2; 4 deep</text><text transform="translate(13.271 315.499)" class="st5 st6">2 x M3; 3 deep</text><text transform="translate(407.467 325.541)" class="st5 st6">22 (M2)</text><text transform="translate(327.553 657.225)" class="st5 st6">Photosensitive surface of the sensor</text><text transform="translate(324.322 763.227)" class="st5 st6">Top</text><text transform="translate(290.055 184.316)" class="st5 st6">Bottom</text></svg>