<svg version="1.0" xmlns="http://www.w3.org/2000/svg" viewBox="0 0 533.3 362.2"><path fill="none" stroke="#1D1D1B" stroke-width=".709" stroke-miterlimit="3.864" d="M51.4 21.4h455.2v295H51.4v-295z"/><path clip-rule="evenodd" fill="none" stroke="#1D1D1B" stroke-width=".227" stroke-miterlimit="3.864" d="M51.5 50.4h455.4M51.4 80.3h455.4M51.5 109.7h455.4M51.4 139.1h455.4M51.5 168.5h455.4M51.5 198.6h455.4M51.3 227.9h455.4M51.5 257.2h455.4M51.4 286.5h455.4M127.2 21.3v295.3m76.1-295.1v295.2m76.2-295.4v295.2m75.3-295.3v295.3m76.1-295v295.3"/><g clip-rule="evenodd"><path fill-rule="evenodd" fill="#1D1D1B" d="M366.3 129.3H484V206H366.3z"/><path fill="none" stroke="#1D1D1B" stroke-width="1.117" stroke-miterlimit="3.864" d="M366.3 129.3H484V206H366.3z"/><path fill-rule="evenodd" fill="#FFF" d="M362.8 125.6h117.7v76.7H362.8z"/><path fill="none" stroke="#1D1D1B" stroke-width="1.117" stroke-miterlimit="3.864" d="M362.8 125.6h117.7v76.7H362.8z"/><path fill="none" stroke="#00F" stroke-miterlimit="3.864" stroke-dasharray="12,2,2,2" d="M373.4 141.9h42.5"/><path fill="none" stroke="#0F0" stroke-miterlimit="3.864" stroke-dasharray="2,2" d="M373.4 166.2h42.5"/><path fill="none" stroke="red" stroke-miterlimit="3.864" stroke-dasharray="72" d="M373.4 190.6h42.5"/></g><g clip-rule="evenodd" fill="none" stroke-miterlimit="3.864"><path stroke="#00F" stroke-dasharray="12,2,2,2" d="M52.5 234.6l2.7-8.6 5.1-13.5 5.7-12.7 7.2-15.8 5.6-11.7 6.5-12.8 7-12 8.2-13.5 6.7-11.7 4.5-8.1 4.6-8.7 4.5-7.8 5.1-7 5.3-4 7.5-3.6 6.4-1.7h5.8l5.3 1.7L161 86l5.1 3.4 3.6 3.4 4.5 5.9 4.7 7.1 6.4 11.1 6.8 15.5 5.3 12.4 5.2 11.3 4.1 10.8L213 181l4.8 12.4 4.6 11.3 4.1 10.8 2.8 7.1 3.4 12.4 4.6 15.1 5.5 16.3 4.1 10.5 5.3 9.1 6.8 6.9 5.7 4.4 8.2 5.8 7.4 4.6 9.4 3.4 7.8 2h28.8l8.7-.6h11.8l10.5-.4 6.1-1 8.1 1.7h8.1l10.2-1h13.5l69.2.7 7.2-1.4 7.3-.7h7.9l10.8 2.7"/><path stroke="#0F0" stroke-dasharray="2,2" d="M52.2 301.5l17.9-3.9 14.2-3.7 12.7-5 11.4-5.7 9.7-7.4 7.7-6.6 9-9.9 6.5-9.1 5.9-9.2 7-14 5.2-10.4 7.2-13.3 8.2-14.4 7.5-12.8 7-11.8 5.4-10.2 4.8-9.1 4.2-9.9 3.7-12.3 4.7-16.3 4.3-14.6 6.2-19.2 6.4-18.8 4-10.3 3.5-6.2 4-5.7 4.7-5.7 4.7-2.7 4.8-1.2 4.7 1 4.7 3.2 4.7 4.9 6 7.4 5.7 8.7 6.5 12.3 7.7 15.1 9.4 20.9 4.5 9.9 9.7 22.2 8.5 21 3.2 10.9 4.5 17 5.7 25.4 8 30.9 2.9 11.6 3.3 8.1 3.2 8.2 4.2 9.6 5.3 8.4 7.4 7.4 8.5 5.9 13.6 6.2 10.7 3.4 10.2 2.5 11 1h9.7l10.4-1.2 13-2.3 12.6-3.2 12.2-4.2 8.7-3.7 6.7-3.2 4.8-2.9"/><path stroke="red" d="M52.1 306.5l18.9 1.6 18.7 1.1 20.2 1.2h13.6l7.5-.6 8.4-.8 9.7-.5 7.3-.8 7.6.2 5.6 1.1 7 .2 9.3-1.7 17.8-.6 8-1 7.7-1.5 9.5-3.6 6.6-2.3 5.2-.6 8.2.4 10.4 1.1 7.6 1.6 8.3.7 6.2.2 4.7-.4 4.8-2.3 2.9-3.1 3.3-5.5 3-5.8 3.2-8.8 4.3-13.3 3.1-11.9 3.1-14.5 3.3-21.7 3.5-23.5 5-31.9 3.9-23.9 2.3-12.3 3.5-12.3 4.3-15 5.6-14.8 5.4-11 3.3-4.6 3.1-2.5 4.5-1.9 4.3-.8 4.8.2 4.3.7 3.1 1.6 7.7 5.4 8.1 5.4 10.1 5.4 12.4 6.5 7.2 2.9 4.1.6 4.2 1.7 14.9 7.5 5.1 2.5 8.9 4.2 10.9 4.5 5.2 2.1 4.3 2.8 4.6 2.2 5.4 2.1 4.7.9 4.1.8 6.4 1.9"/></g><g font-family="Helvetica,Arial,sans-serif"><text transform="translate(230.357 351.997)" font-size="12">Wavelength (nm)</text><text transform="translate(426.71 145.878)" fill="#1D1D1B" font-size="12">Blue</text><text transform="translate(426.71 171.175)" fill="#1D1D1B" font-size="12">Green</text><text transform="rotate(-90 125.653 104.396)" fill="#1D1D1B" font-size="12">Relative Response</text><text transform="translate(426.71 193.926)" fill="#1D1D1B" font-size="12">Red</text><text transform="translate(35.449 26.142)" fill="#1D1D1B" font-size="8">1.0</text><text transform="translate(35.449 53.142)" fill="#1D1D1B" font-size="8">0.9</text><text transform="translate(35.449 84.142)" fill="#1D1D1B" font-size="8">0.8</text><text transform="translate(35.449 113.142)" fill="#1D1D1B" font-size="8">0.7</text><text transform="translate(35.449 143.142)" fill="#1D1D1B" font-size="8">0.6</text><text transform="translate(35.449 170.142)" fill="#1D1D1B" font-size="8">0.5</text><text transform="translate(35.449 202.142)" fill="#1D1D1B" font-size="8">0.4</text><text transform="translate(35.449 232.142)" fill="#1D1D1B" font-size="8">0.3</text><text transform="translate(35.449 261.142)" fill="#1D1D1B" font-size="8">0.2</text><text transform="translate(35.449 289.142)" fill="#1D1D1B" font-size="8">0.1</text><text transform="translate(41.449 319.142)" fill="#1D1D1B" font-size="8">0</text><text transform="translate(47.701 331)" fill="#1D1D1B" font-size="8">400</text><text transform="translate(123.701 331)" fill="#1D1D1B" font-size="8">450</text><text transform="translate(195.701 331)" fill="#1D1D1B" font-size="8">500</text><text transform="translate(273.701 331)" fill="#1D1D1B" font-size="8">550</text><text transform="translate(351.7 331)" fill="#1D1D1B" font-size="8">600</text><text transform="translate(423.7 331)" fill="#1D1D1B" font-size="8">650</text><text transform="translate(496.7 331)" fill="#1D1D1B" font-size="8">700</text></g></svg>