<svg version="1.0" xmlns="http://www.w3.org/2000/svg" viewBox="0 0 420 250"><path clip-rule="evenodd" fill="none" stroke="#000" stroke-width=".283" stroke-linecap="round" stroke-linejoin="round" stroke-miterlimit="10" d="M234.7 56l.1 4.9 4.9 107.8-3.8.3-1.6.3-1 .7V55.5m0 4.9l1.5.5m-1.5-5.4l1.4.5m104.5 138h20m-4.7 0v-.5m4.7.5v-.5m-125.9.5h105.9v-20.5m0 15.7H233.3m0 0v4.8m0-4.8h0m0-19.2l105.9 3.8M233.3 170v19.2m6.4-22.3l99.5 4.5m0 2.1v-.5l1.2-3.3.3-3.3m-1.5 22.5h1.5"/><path clip-rule="evenodd" fill="none" stroke="#000" stroke-width=".283" stroke-linecap="round" stroke-linejoin="round" stroke-miterlimit="10" d="M340.7 166.4v22.5c.1 1.8-.1 2.8-.2 4.3v.3h-1.4m1.6-27.1h-1.5m0 6.6v-6.6m22.4 22.5h-20.9m2.6-128.5l18.3.5m-21 132.6h21m0-137.3l-18.3-.5m18.3.5l.2.3v.3c.1 1.7-.1 2.5-.2 4v132.7m1.6-135.9v134.5"/><path clip-rule="evenodd" fill="none" stroke="#000" stroke-width=".283" stroke-linecap="round" stroke-linejoin="bevel" stroke-miterlimit="10" d="M363 57.6l-.3-1-1.1-.4"/><path clip-rule="evenodd" fill="none" stroke="#000" stroke-width=".283" stroke-linecap="round" stroke-linejoin="round" stroke-miterlimit="10" d="M363.2 60.9h-1.6m1.6 128h-1.6"/><path clip-rule="evenodd" fill="none" stroke="#000" stroke-width=".283" stroke-linecap="round" stroke-linejoin="bevel" stroke-miterlimit="10" d="M361.6 193.5l1.1-.3.3-1.1"/><path clip-rule="evenodd" fill="none" stroke="#000" stroke-width=".283" stroke-linecap="round" stroke-linejoin="round" stroke-miterlimit="10" d="M343.3 60.4v15.5c-.2 3.8-2.7 3.8-2.6 6v84.5m1.4-90.5V60.4m-2.9 106V81.9m0 0h1.5m1.4-6h1.2m-2.4 2.8l1 .8m-1.5-.3l.8 1m.9-19.8V56m1.2 4.4v-4.7l-1.2.3m0 4.4h1.2"/><path clip-rule="evenodd" fill="none" stroke="#000" stroke-width=".283" stroke-linecap="round" stroke-linejoin="bevel" stroke-miterlimit="10" d="M341.1 78.7l.7-1.4.3-1.4"/><path clip-rule="evenodd" fill="none" stroke="#000" stroke-width=".283" stroke-linecap="round" stroke-linejoin="round" stroke-miterlimit="10" d="M340.4 79.2l.5-.5"/><path clip-rule="evenodd" fill="none" stroke="#000" stroke-width=".283" stroke-linecap="round" stroke-linejoin="bevel" stroke-miterlimit="10" d="M340.2 79.2l-.7 1.4-.3 1.3"/><path clip-rule="evenodd" fill="none" stroke="#000" stroke-width=".283" stroke-linecap="round" stroke-linejoin="round" stroke-miterlimit="10" d="M363.2 57.6v.5l.7.7.3.2h.4v59.9m0-59.9l-.6-1.4-.3-.5"/><path clip-rule="evenodd" fill="none" stroke="#000" stroke-width=".283" stroke-linecap="round" stroke-linejoin="bevel" stroke-miterlimit="10" d="M364.6 118.9l-1.1.4-.3 1m-.4-63.7l1.1.5"/><path clip-rule="evenodd" fill="none" stroke="#000" stroke-width=".283" stroke-linecap="round" stroke-linejoin="round" stroke-miterlimit="10" d="M367.8 118.7V57.2m1.1.9v59.8"/><path clip-rule="evenodd" fill="none" stroke="#000" stroke-width=".283" stroke-linecap="round" stroke-linejoin="bevel" stroke-miterlimit="10" d="M368.7 58.1l-.2-.5-.7-.4m0 61.5l.7-.3.2-.5"/><path clip-rule="evenodd" fill="none" stroke="#000" stroke-width=".283" stroke-linecap="round" stroke-linejoin="round" stroke-miterlimit="10" d="M365.9 138.4v38.7"/><path clip-rule="evenodd" fill="none" stroke="#000" stroke-width=".283" stroke-linecap="round" stroke-linejoin="bevel" stroke-miterlimit="10" d="M365.1 178l.7-.4.1-.5"/><path clip-rule="evenodd" fill="none" stroke="#000" stroke-width=".283" stroke-linecap="round" stroke-linejoin="round" stroke-miterlimit="10" d="M365.1 178v-9.5h.8m-.8 0v-21.4h.8"/><path clip-rule="evenodd" fill="none" stroke="#000" stroke-width=".283" stroke-linecap="round" stroke-linejoin="bevel" stroke-miterlimit="10" d="M365.9 138.4l-.1-.5-.7-.3"/><path clip-rule="evenodd" fill="none" stroke="#000" stroke-width=".283" stroke-linecap="round" stroke-linejoin="round" stroke-miterlimit="10" d="M365.1 147.1v-9.7"/><path clip-rule="evenodd" fill="none" stroke="#000" stroke-width=".283" stroke-linecap="round" stroke-linejoin="bevel" stroke-miterlimit="10" d="M364 178.2l-.6.3-.2.5"/><path clip-rule="evenodd" fill="none" stroke="#000" stroke-width=".283" stroke-linecap="round" stroke-linejoin="round" stroke-miterlimit="10" d="M364 178.2v-9.7h-.8m.8 0v-21.4h-.8"/><path clip-rule="evenodd" fill="none" stroke="#000" stroke-width=".283" stroke-linecap="round" stroke-linejoin="bevel" stroke-miterlimit="10" d="M363.2 136.5l.2.5.6.4"/><path clip-rule="evenodd" fill="none" stroke="#000" stroke-width=".283" stroke-linecap="round" stroke-linejoin="round" stroke-miterlimit="10" d="M364 137.4v9.7m1.1-9.7H364m1.1 9.7H364m1.1 21.4H364m1.1 9.5l-1.1.2m3.8-59.5l-3.2.2m3.2-61.7l-4.1-.1m-21.6 18.3V60.9m-1.7 17.8l.5-.6"/><path clip-rule="evenodd" fill="none" stroke="#000" stroke-width=".283" stroke-linecap="round" stroke-linejoin="bevel" stroke-miterlimit="10" d="M340.2 78.7l-.7 1.3-.3 1.4m1.9-3.3l.7-1.3.3-1.4"/><path clip-rule="evenodd" fill="none" stroke="#000" stroke-width=".283" stroke-linecap="round" stroke-linejoin="round" stroke-miterlimit="10" d="M339.2 128.8V81.4m0 85v-8.3M234.8 60.9h107.3m-102.6 101l99.7 4.7m-99.5 0l99.5 4.5M234.7 56h107.4M235.4 71.6h9.1v-4.2h-9.3m9.3 29.4v-4.1"/><path clip-rule="evenodd" fill="none" stroke="#000" stroke-width=".283" stroke-linecap="round" stroke-linejoin="bevel" stroke-miterlimit="10" d="M244.5 96.6l2.6-.2c15.9-3.7 15.9-25 0-28.7l-2.6-.2"/><path clip-rule="evenodd" fill="none" stroke="#000" stroke-width=".283" stroke-linecap="round" stroke-linejoin="bevel" stroke-miterlimit="10" d="M244.5 92.5l2.1-.2c11.1-2.6 11.1-17.7 0-20.4l-2.1-.2"/><path clip-rule="evenodd" fill="none" stroke="#000" stroke-width=".283" stroke-linecap="round" stroke-linejoin="round" stroke-miterlimit="10" d="M236.6 96.8h7.9m0-4.1h-8.1m-.2-.4h8.3"/><path clip-rule="evenodd" fill="none" stroke="#000" stroke-width=".283" stroke-linecap="round" stroke-linejoin="bevel" stroke-miterlimit="10" d="M244.5 92.3l2.1-.2c10.8-2.6 10.8-17.4 0-20l-2.1-.2"/><path clip-rule="evenodd" fill="none" stroke="#000" stroke-width=".283" stroke-linecap="round" stroke-linejoin="round" stroke-miterlimit="10" d="M244.5 71.9h-9.1M339.2 154h-8.5v4.1h8.5m-8.5-29.3v4.1"/><path clip-rule="evenodd" fill="none" stroke="#000" stroke-width=".283" stroke-linecap="round" stroke-linejoin="bevel" stroke-miterlimit="10" d="M330.7 128.9l-2.6.2c-15.9 3.7-15.9 25 0 28.7l2.6.2"/><path clip-rule="evenodd" fill="none" stroke="#000" stroke-width=".283" stroke-linecap="round" stroke-linejoin="bevel" stroke-miterlimit="10" d="M330.7 133.1l-2.1.2c-11.1 2.6-11.1 17.7 0 20.4l2.1.2"/><path clip-rule="evenodd" fill="none" stroke="#000" stroke-width=".283" stroke-linecap="round" stroke-linejoin="round" stroke-miterlimit="10" d="M339.2 128.8h-8.5m0 4.1h8.5m0 18.7h-8.5v2h8.5m-8.5-18.3v-2.1"/><path clip-rule="evenodd" fill="none" stroke="#000" stroke-width=".283" stroke-linecap="round" stroke-linejoin="bevel" stroke-miterlimit="10" d="M330.7 133.2l-2.1.2c-10.8 2.6-10.8 17.4 0 20l2.1.2"/><path clip-rule="evenodd" fill="none" stroke="#000" stroke-width=".283" stroke-linecap="round" stroke-linejoin="bevel" stroke-miterlimit="10" d="M330.7 135.3l-1.9.2c-8.4 2.4-8.4 13.5 0 15.9l1.9.2"/><path clip-rule="evenodd" fill="none" stroke="#000" stroke-width=".283" stroke-linecap="round" stroke-linejoin="round" stroke-miterlimit="10" d="M339.2 133.2h-8.5m0 2.1h8.5m-94.7-43v-2.1h-8.3m8.3-18.3V74"/><path clip-rule="evenodd" fill="none" stroke="#000" stroke-width=".283" stroke-linecap="round" stroke-linejoin="bevel" stroke-miterlimit="10" d="M244.5 90.2l1.9-.2c8.4-2.4 8.4-13.5 0-15.9l-1.9-.2"/><path clip-rule="evenodd" fill="none" stroke="#000" stroke-width=".283" stroke-linecap="round" stroke-linejoin="round" stroke-miterlimit="10" d="M235.5 74h9m0 18.3v.4m0-20.8v-.3m86.2 82v.4m0-20.8v-.3m-94.1-36.1l2.9 65.1m-4.7-101l.4 6.5m152.7-.5v.4h-15.2v-.4m0 42.2v-.4h15.2v.4m-17.8-47.4v52.5M396 66.9v42.2m-27.1-47.4h1.2m-1.2 52.5h1.2m0-47.3h2.6m15.2 0h8.1m-25.9 42.2h2.6m15.2 0h8.1M248.5 81.3h.7"/><path clip-rule="evenodd" fill="none" stroke="#000" stroke-width=".283" stroke-linecap="round" stroke-linejoin="bevel" stroke-miterlimit="10" d="M248.5 83v-1.7"/><path clip-rule="evenodd" fill="none" stroke="#000" stroke-width=".283" stroke-linecap="round" stroke-linejoin="round" stroke-miterlimit="10" d="M249.2 83h-.7"/><path clip-rule="evenodd" fill="none" stroke="#000" stroke-width=".283" stroke-linecap="round" stroke-linejoin="bevel" stroke-miterlimit="10" d="M249.2 83v-1.7"/><path clip-rule="evenodd" fill="none" stroke="#000" stroke-width=".283" stroke-linecap="round" stroke-linejoin="round" stroke-miterlimit="10" d="M243.7 78.1v-.6"/><path clip-rule="evenodd" fill="none" stroke="#000" stroke-width=".283" stroke-linecap="round" stroke-linejoin="bevel" stroke-miterlimit="10" d="M245.4 78.1h-1.7"/><path clip-rule="evenodd" fill="none" stroke="#000" stroke-width=".283" stroke-linecap="round" stroke-linejoin="round" stroke-miterlimit="10" d="M245.4 77.5l-.2.6"/><path clip-rule="evenodd" fill="none" stroke="#000" stroke-width=".283" stroke-linecap="round" stroke-linejoin="bevel" stroke-miterlimit="10" d="M245.4 77.5h-1.7"/><path clip-rule="evenodd" fill="none" stroke="#000" stroke-width=".283" stroke-linecap="round" stroke-linejoin="round" stroke-miterlimit="10" d="M240.4 83h-.5"/><path clip-rule="evenodd" fill="none" stroke="#000" stroke-width=".283" stroke-linecap="round" stroke-linejoin="bevel" stroke-miterlimit="10" d="M240.5 81.3V83"/><path clip-rule="evenodd" fill="none" stroke="#000" stroke-width=".283" stroke-linecap="round" stroke-linejoin="round" stroke-miterlimit="10" d="M239.9 81.3h.5"/><path clip-rule="evenodd" fill="none" stroke="#000" stroke-width=".283" stroke-linecap="round" stroke-linejoin="bevel" stroke-miterlimit="10" d="M239.9 81.3V83"/><path clip-rule="evenodd" fill="none" stroke="#000" stroke-width=".283" stroke-linecap="round" stroke-linejoin="round" stroke-miterlimit="10" d="M245.2 86.1l.2.7"/><path clip-rule="evenodd" fill="none" stroke="#000" stroke-width=".283" stroke-linecap="round" stroke-linejoin="bevel" stroke-miterlimit="10" d="M243.7 86.1h1.7"/><path clip-rule="evenodd" fill="none" stroke="#000" stroke-width=".283" stroke-linecap="round" stroke-linejoin="round" stroke-miterlimit="10" d="M243.7 86.8v-.7"/><path clip-rule="evenodd" fill="none" stroke="#000" stroke-width=".283" stroke-linecap="round" stroke-linejoin="bevel" stroke-miterlimit="10" d="M243.7 86.8h1.7"/><path clip-rule="evenodd" fill="none" stroke="#000" stroke-width=".283" stroke-linecap="round" stroke-linejoin="round" stroke-miterlimit="10" d="M248.5 81.3l-1.9.3h-.4"/><path clip-rule="evenodd" fill="none" stroke="#000" stroke-width=".283" stroke-linecap="round" stroke-linejoin="bevel" stroke-miterlimit="10" d="M246.4 82.6v-1"/><path clip-rule="evenodd" fill="none" stroke="#000" stroke-width=".283" stroke-linecap="round" stroke-linejoin="round" stroke-miterlimit="10" d="M246.2 82.6h.4l1.9.4m-4.8-4.9l.3 1.9v.2"/><path clip-rule="evenodd" fill="none" stroke="#000" stroke-width=".283" stroke-linecap="round" stroke-linejoin="bevel" stroke-miterlimit="10" d="M245 80.2h-1"/><path clip-rule="evenodd" fill="none" stroke="#000" stroke-width=".283" stroke-linecap="round" stroke-linejoin="round" stroke-miterlimit="10" d="M245 80.2V80l.2-1.9m-4.8 4.9l2-.4h.2"/><path clip-rule="evenodd" fill="none" stroke="#000" stroke-width=".283" stroke-linecap="round" stroke-linejoin="bevel" stroke-miterlimit="10" d="M242.6 81.6v1"/><path clip-rule="evenodd" fill="none" stroke="#000" stroke-width=".283" stroke-linecap="round" stroke-linejoin="round" stroke-miterlimit="10" d="M242.6 81.6h-.2l-2-.3m4.8 4.8l-.2-1.9V84"/><path clip-rule="evenodd" fill="none" stroke="#000" stroke-width=".283" stroke-linecap="round" stroke-linejoin="bevel" stroke-miterlimit="10" d="M244 84h1"/><path clip-rule="evenodd" fill="none" stroke="#000" stroke-width=".283" stroke-linecap="round" stroke-linejoin="round" stroke-miterlimit="10" d="M244 84v.2l-.3 1.9m.3-5.9l-.5.9-.9.5m0 1l.9.4.5 1m1 0l.4-1 .8-.4m0-1l-.8-.5-.4-.9"/><path clip-rule="evenodd" fill="none" stroke="#000" stroke-width=".283" stroke-linecap="round" stroke-linejoin="bevel" stroke-miterlimit="10" d="M250.6 82.1l-.2-1.6-.7-1.6c-2.4-4.1-8.8-3.9-10.7.7l-.5 1.6V83c1 5.6 8.3 7.1 11.2 2.2l.7-1.6.2-1.5z"/><path clip-rule="evenodd" fill="none" stroke="#000" stroke-width=".283" stroke-linecap="round" stroke-linejoin="bevel" stroke-miterlimit="10" d="M251.6 82.1l-.2-1.7-.7-1.7c-2.8-5.2-10.7-4.6-12.8.9l-.5 1.7V83c1.1 6.7 9.9 8.6 13.3 2.6l.7-1.7.2-1.8z"/><path clip-rule="evenodd" fill="none" stroke="#000" stroke-width=".283" stroke-linecap="round" stroke-linejoin="bevel" stroke-miterlimit="10" d="M246.6 83.2l-.7.3-.3.7m-2.1 0l-.4-.7-.7-.3m0-2.1l.7-.4.4-.7"/><path clip-rule="evenodd" fill="none" stroke="#000" stroke-width=".283" stroke-linecap="round" stroke-linejoin="round" stroke-miterlimit="10" d="M243.5 80h.5m-1.6 1.3v.3m0 1.4v-.4m1.1 1.6h.5m1.4 0h-.4m1.6-1.2v-.4"/><path clip-rule="evenodd" fill="none" stroke="#000" stroke-width=".283" stroke-linecap="round" stroke-linejoin="bevel" stroke-miterlimit="10" d="M245.6 80l.3.7.7.4"/><path clip-rule="evenodd" fill="none" stroke="#000" stroke-width=".283" stroke-linecap="round" stroke-linejoin="round" stroke-miterlimit="10" d="M246.6 83h2.6m-3.8 3.8v-2.6m-1.9 0l.2 2.6m-3.8-3.8h2.5m0-1.7h-2.5m3.8-3.8l-.2 2.5m1.9 0v-2.5m3.8 3.8h-2.6m0 0v.3m-1.2-1.6h-.4m84.3 67.4l-.3.5"/><path clip-rule="evenodd" fill="none" stroke="#000" stroke-width=".283" stroke-linecap="round" stroke-linejoin="bevel" stroke-miterlimit="10" d="M328.1 146.4l1.4.8"/><path clip-rule="evenodd" fill="none" stroke="#000" stroke-width=".283" stroke-linecap="round" stroke-linejoin="round" stroke-miterlimit="10" d="M327.6 147.1l.3-.6"/><path clip-rule="evenodd" fill="none" stroke="#000" stroke-width=".283" stroke-linecap="round" stroke-linejoin="bevel" stroke-miterlimit="10" d="M327.8 147.1l1.4.7"/><path clip-rule="evenodd" fill="none" stroke="#000" stroke-width=".283" stroke-linecap="round" stroke-linejoin="round" stroke-miterlimit="10" d="M334.5 144.6l.5.4"/><path clip-rule="evenodd" fill="none" stroke="#000" stroke-width=".283" stroke-linecap="round" stroke-linejoin="bevel" stroke-miterlimit="10" d="M333.6 146l.9-1.4"/><path clip-rule="evenodd" fill="none" stroke="#000" stroke-width=".283" stroke-linecap="round" stroke-linejoin="round" stroke-miterlimit="10" d="M334.3 146.5l-.7-.3"/><path clip-rule="evenodd" fill="none" stroke="#000" stroke-width=".283" stroke-linecap="round" stroke-linejoin="bevel" stroke-miterlimit="10" d="M334.3 146.4l.7-1.4"/><path clip-rule="evenodd" fill="none" stroke="#000" stroke-width=".283" stroke-linecap="round" stroke-linejoin="round" stroke-miterlimit="10" d="M331.9 139.5l.4-.6"/><path clip-rule="evenodd" fill="none" stroke="#000" stroke-width=".283" stroke-linecap="round" stroke-linejoin="bevel" stroke-miterlimit="10" d="M333.3 140.5l-1.4-.9"/><path clip-rule="evenodd" fill="none" stroke="#000" stroke-width=".283" stroke-linecap="round" stroke-linejoin="round" stroke-miterlimit="10" d="M333.6 139.8l-.3.5"/><path clip-rule="evenodd" fill="none" stroke="#000" stroke-width=".283" stroke-linecap="round" stroke-linejoin="bevel" stroke-miterlimit="10" d="M333.6 139.8l-1.3-.7"/><path clip-rule="evenodd" fill="none" stroke="#000" stroke-width=".283" stroke-linecap="round" stroke-linejoin="round" stroke-miterlimit="10" d="M326.7 142.2l-.5-.3"/><path clip-rule="evenodd" fill="none" stroke="#000" stroke-width=".283" stroke-linecap="round" stroke-linejoin="bevel" stroke-miterlimit="10" d="M327.8 140.8l-.9 1.4"/><path clip-rule="evenodd" fill="none" stroke="#000" stroke-width=".283" stroke-linecap="round" stroke-linejoin="round" stroke-miterlimit="10" d="M327.1 140.3l.5.4"/><path clip-rule="evenodd" fill="none" stroke="#000" stroke-width=".283" stroke-linecap="round" stroke-linejoin="bevel" stroke-miterlimit="10" d="M327.1 140.5l-.7 1.4"/><path clip-rule="evenodd" fill="none" stroke="#000" stroke-width=".283" stroke-linecap="round" stroke-linejoin="round" stroke-miterlimit="10" d="M329.3 147.4l.7-1.9.2-.2"/><path clip-rule="evenodd" fill="none" stroke="#000" stroke-width=".283" stroke-linecap="round" stroke-linejoin="bevel" stroke-miterlimit="10" d="M329.3 144.8l.9.5"/><path clip-rule="evenodd" fill="none" stroke="#000" stroke-width=".283" stroke-linecap="round" stroke-linejoin="round" stroke-miterlimit="10" d="M329.3 144.8l-.1.2-1.3 1.5m6.6-1.9l-1.9-.6h-.2"/><path clip-rule="evenodd" fill="none" stroke="#000" stroke-width=".283" stroke-linecap="round" stroke-linejoin="bevel" stroke-miterlimit="10" d="M332.1 144.8l.5-.8"/><path clip-rule="evenodd" fill="none" stroke="#000" stroke-width=".283" stroke-linecap="round" stroke-linejoin="round" stroke-miterlimit="10" d="M332.1 144.8v.2l1.5 1.2m-1.7-6.7l-.7 1.9-.1.1"/><path clip-rule="evenodd" fill="none" stroke="#000" stroke-width=".283" stroke-linecap="round" stroke-linejoin="bevel" stroke-miterlimit="10" d="M332.1 142.1l-.9-.6"/><path clip-rule="evenodd" fill="none" stroke="#000" stroke-width=".283" stroke-linecap="round" stroke-linejoin="round" stroke-miterlimit="10" d="M331.9 142.1l.2-.2 1.2-1.6m-6.6 1.9l1.9.7h.2"/><path clip-rule="evenodd" fill="none" stroke="#000" stroke-width=".283" stroke-linecap="round" stroke-linejoin="bevel" stroke-miterlimit="10" d="M329.3 142.1l-.5.8"/><path clip-rule="evenodd" fill="none" stroke="#000" stroke-width=".283" stroke-linecap="round" stroke-linejoin="round" stroke-miterlimit="10" d="M329.3 142.1h-.1l-1.6-1.4m4.8 3.3l-.5-.9v-1m-.8-.6l-.7.7-1.1-.1m-.5.8l.5.9v1m.9.5l.9-.7 1 .2"/><path clip-rule="evenodd" fill="none" stroke="#000" stroke-width=".283" stroke-linecap="round" stroke-linejoin="bevel" stroke-miterlimit="10" d="M336.8 143.4l-.2-1.6-.7-1.6c-2.4-4.1-8.8-3.9-10.7.7l-.5 1.6v1.7c1 5.6 8.3 7.1 11.2 2.2l.7-1.6.2-1.4z"/><path clip-rule="evenodd" fill="none" stroke="#000" stroke-width=".283" stroke-linecap="round" stroke-linejoin="bevel" stroke-miterlimit="10" d="M337.8 143.4l-.2-1.7-.7-1.7c-2.8-5.2-10.7-4.6-12.8.9l-.5 1.7v1.7c1.1 6.7 9.9 8.6 13.3 2.6l.7-1.7.2-1.8z"/><path clip-rule="evenodd" fill="none" stroke="#000" stroke-width=".283" stroke-linecap="round" stroke-linejoin="bevel" stroke-miterlimit="10" d="M328.6 144.8l.2-.8-.5-.6m1-1.9l.9.2.5-.5m1.9 1l-.2.9.6.5"/><path clip-rule="evenodd" fill="none" stroke="#000" stroke-width=".283" stroke-linecap="round" stroke-linejoin="round" stroke-miterlimit="10" d="M333 143.6l-.4.4m-.2-1.9l-.3-.2m-1.2-.7l.3.2m-1.9.3l-.1.4m-.7 1.2l.1-.4m.2 1.9l.4.2"/><path clip-rule="evenodd" fill="none" stroke="#000" stroke-width=".283" stroke-linecap="round" stroke-linejoin="bevel" stroke-miterlimit="10" d="M331.9 145.5l-.8-.2-.6.6"/><path clip-rule="evenodd" fill="none" stroke="#000" stroke-width=".283" stroke-linecap="round" stroke-linejoin="round" stroke-miterlimit="10" d="M328.8 144.8l-1.2 2.3m-1.4-5.2l2.3 1.4m.8-1.6l-2.2-1.4m5.2-1.4l-1.4 2.3m1.5.9l1.2-2.3m1.4 5.2l-2-1.4m-1.1 1.6l2.4 1.3m-5.3 1.4l1.4-2.2m0 0l-.4-.2m1.9-.3l.2-.2"/><path fill="#CCC" d="M166.3 64.3h43.5v121.2h-43.5V64.3z"/><path fill="none" stroke="#1D1D1B" stroke-width=".283" stroke-miterlimit="3.864" d="M166.3 64.3h43.5v121.2h-43.5V64.3z"/><path fill="#BFBFBF" d="M70.4 53.1H166v143.3H70.4V53.1z"/><path fill="none" stroke="#1D1D1B" stroke-width=".283" stroke-miterlimit="3.864" d="M70.4 53.1H166v143.3H70.4V53.1z"/><path clip-rule="evenodd" fill="none" stroke="#1D1D1B" stroke-width=".283" stroke-miterlimit="3.864" d="M167 58.2l46.5-1.2M166 59.2l1-1m-1 5.8v-4.8m45.8 7H168m45.2 2.4l-1.4-2.4m7.7 2.5l-6.3-.1m.3 124l-46.5-1.3m46.2-10.3l6.3-.2m-7.7 2.6l1.4-2.4m-45.2 2.4h43.8m-45.8 2.1l2-2.1m-2 6.9v-4.8m1 5.8l-1-1m56.4-16.6l-.3.8m0 0l-.3.8m0 0l-.3.7m0 0l-.3.8m0 0l-.3.7m0 0l-.3.7m0 0l-.2.7m0 0l-.3.7m0 0l-.4.7m0 0l-.3.6m0 0l-.2.6m0 0l-.3.7m0 0l-.3.6m0 0l-.3.7m0 0l-.3.6m0 0l-.2.5m0 0l-.3.6m0 0l-.3.5m0 0l-.2.5m0 0l-.2.5m0 0l-.3.5m0 0l-.2.4m0 0l-.3.5m0 0l-.2.4m0 0l-.2.4m0 0l-.2.4m0 0l-.2.3m0 0l-.2.3m0 0l-.2.3m0 0l-.1.3m0 0l-.2.3m0 0l-.1.3m0 0l-.2.2m0 0l-.1.2m0 0l-.1.2m0 0l-.1.2m0 0l-.1.1m0 0v.1m0 0l-.2.2m0 0v.1m0 0h-.1m0 0v.2m9.8-21.6v.1m0 0h-.1m0 0v.1m0 0v.2m0 0l-.1.1m0 0l-.1.1m0 0v.1m0 0v.1m0 0v.2m0 0l-.1.1m0 0v.1m0 0l-.1.2m0 0l-.1.1m0 0v.1m0 0v.2m0 0l-.1.1m0 0v.2m0 0l-.1.1m0 0l-.1.2m0 0v.1m0 0v.2m2.3-7.1l-.1.2m0 0l-.1.2m0 0v.2m0 0l-.1.2m0 0v.2m0 0l-.1.2m0 0l-.1.2m0 0v.2m0 0l-.1.2m0 0v.2m0 0l-.1.2m0 0l-.1.2m0 0l-.1.3m0 0v.1m0 0l-.1.2m0 0l-.1.2m0 0v.2m0 0l-.1.2m0 0v.1m0 0v.2m0 0l-.1.2m0 0l-.1.2m0 0v.1m1.4-88l.9 3.3m0 0l.8 3.3m0 0l.7 3.4m0 0l.7 3.4m0 0l.6 3.4m0 0l.5 3.5m0 0l.5 3.6m0 0l.4 3.6m0 0l.3 3.5m0 0l.2 3.5m0 0l.1 3.7m0 0v3.6m0 0v3.5m0 0l-.1 3.7m0 0l-.2 3.6m0 0l-.3 3.5m0 0l-.4 3.6m0 0l-.5 3.5m0 0l-.5 3.5m0 0l-.6 3.5m0 0l-.7 3.4m0 0l-.7 3.4m0 0l-.8 3.2m0 0l-.9 3.4m-1.4-88.1v.1m0 0v.1m0 0l.1.1m0 0l.1.2m0 0v.2m0 0v.1m0 0l.1.2m0 0v.2m0 0l.1.2m0 0l.1.2m0 0v.2m0 0l.1.2m0 0l.1.2m0 0l.1.2m0 0v.2m0 0l.1.2m0 0v.2m0 0l.1.2m0 0l.1.2m0 0v.3m0 0l.1.1m0 0v.4m0 0l.1.2m0 0l.1.1m-2.3-7.1v.1m0 0v.1m0 0l.1.1m0 0v.1m0 0l.1.1m0 0v.1m0 0v.1m0 0l.1.2m0 0v.1m0 0v.1m0 0l.1.1m0 0v.1m0 0l.1.1m0 0v.1m0 0v.1m0 0l.1.1m0 0v.2m0 0l.1.1m0 0v.2m0 0l.1.1m0 0v.1m0 0v.1m0 0l.1.1M213.5 57v.1m0 0h.1m0 0v.1m0 0l.2.2m0 0v.1m0 0l.1.2m0 0l.1.1m0 0l.1.2m0 0l.1.2m0 0l.2.2m0 0l.1.3m0 0l.2.3m0 0l.1.3m0 0l.2.3m0 0l.2.3m0 0l.2.4m0 0l.2.4m0 0l.2.4m0 0l.2.3m0 0l.3.5m0 0l.2.4m0 0l.3.5m0 0l.2.5m0 0l.2.5m0 0l.3.6m0 0l.3.6m0 0l.2.6m0 0l.3.6m0 0l.3.6m0 0l.3.6m0 0l.3.6m0 0l.2.6m0 0l.3.7m0 0l.4.6m0 0l.3.7m0 0l.2.7m0 0l.3.7m0 0l.3.8m0 0l.3.8m0 0l.3.8m0 0l.3.7m0 0l.3.8m0 97.8v2.1m0 0v2m0 0v1.8m0 0v1.8m0 0v1.6m0 0v1.6m0 0v1.4m0 0v1.2m0 0v1.2m0 0v1m0 0v.9m0 0v.7m0 0v.6m0 0l.3.1m0 0l.3.2m0 0l.2.3m0 0l.1.5m-.9-134.6v.7m0 0v.7m0 0v.9m0 0v1m0 0v1.2m0 0v1.2m0 0v1.5m0 0v1.5m0 0v1.6m0 0v1.7m0 0v1.8m0 0v2m0 0v2m.4-19.1h-.1m0 0v.1m0 0v.1m0 0h-.1m0 0v.1m0 0v.1m0 0l-.1.1m0 0v.1m0 0l-.1.1m0 0v.1m0 0v.1m0 0v.1m0 0v.1m0 0v.1m0 0v.1m0 133.5v.1m0 0v.1m0 0v.1m0 0v.1m0 0v.1m0 0v.1m0 0v.1m0 0l.1.1m0 0l.1.2m0 0v.1m0 0v.1m.7-135.6l-.1.3m0 0l-.2.3m0 0l-.3.3m0 0h-.3m1.1 135.2l-.3-.2m0 0l-.2-.2m0 0l-.3-.1m.1-136l.3-.1m0 0l.2-.1m0 0l.2-.2m1.2 26.6V60.5m0 0h-.5m0 0h-.4m0 0h-.3m0 0h-.2m0 0v18m1.4-22.7l-.5.1m0 0l-.4.1m0 0l-.3.4m0 0l-.2.4m0 0v.4m0 0v.1m0 0v.1m0 0v.1m0 0v.2m0 0v.1m0 0v.1m0 0v.1m0 0v.1m0 0v.2m0 0v.2m0 0v.2m0 0v.2m0 0v.1m0 0v.2m0 0v.3m0 0v.1m0 0v.3m0 0v.2m0 0v.2m0 0v.2m0 110.5v18.3m1.4 0h-.5m0 0h-.4m0 0h-.3m0 0h-.2m1.4 0v-22.7m-1.4 22.7v.6m0 0v.6m0 0v.6m0 0v.5m0 0v.4m0 0v.3m0 0v.3m0 0v.1m1.4 1.3h-.5m0 0l-.3-.2m0 0l-.4-.3m0 0l-.2-.4m0 0v-.4m1.4 1.3v-.2m0 0v-.4m0 0v-.4m0 0v-.7m0 0v-.7m0 0v-.7m0 0v-.9m0 0v-.7m0-128.8v-.3m0 0v-.3m0 0v-.3m0 0v-.3m0 0V59m0 0v-.3m0 0v-.3m0 0v-.3m0 0v-.2m0 0v-.2m0 0v-.3m0 0v-.2m0 0v-.3m0 0v-.1m0 0v-.2m0 0v-.2m0 0v-.1m0 0v-.1m0 0V56m0 0v-.1m0 0v-.1M166 64v.4m0 0v.3m0 0v.5m0 0v.6m0 0v.8m0 0v.9m0 0v1m0 0v1.2m0 0V71m0 0v1.4m0 0V74m0 0v1.7m0 0v1.7m0 0v1.9m0 0v2m0 0v2.2m0 0v2.1m0 0v2.3m0 0v2.3m0 0v2.5m0 0v2.6m0 0v2.5m0 0v2.7m0 0v2.8m0 0v2.7m0 0v2.8m0 0v2.9m0 0v2.8m0 0v2.9m0 0v3m0 0v2.9m0 0v2.9m0 0v3m0 0v2.9m0 0v2.9m0 0v2.9m0 0v2.9m0 0v2.7m0 0v2.8m0 0v2.8m0 0v2.6m0 0v2.5m0 0v2.7m0 0v2.4m0 0v2.4m0 0v2.2m0 0v2.3m0 0v2m0 0v2m0 0v1.9m0 0v1.8m0 0v1.7m0 0v1.6m0 0v1.3m0 0v1.4m0 0v1.1m0 0v1m0 0v.9m0 0v.9m0 0v.6m0 0v.5m0 0v.3m0 0v.3m45.8-2.1v-.4m0 0v-.3m0 0v-.5m0 0v-.6m0 0v-.8m0 0v-.9m0 0v-1m0 0v-1.1m0 0v-1.3m0 0v-1.4m0 0v-1.6m0 0v-1.7m0 0V170m0 0v-1.8m0 0v-1.9m0 0v-2.2m0 0V162m0 0v-2.3m0 0v-2.4m0 0v-2.5m0 0v-2.4m0 0v-2.5m0 0v-2.7m0 0v-2.7m0 0v-2.7m0 0V139m0 0v-2.8m0 0v-2.9m0 0v-2.8m0 0v-2.9m0 0v-2.8m0 0v-2.9m0 0V119m0 0v-2.8m0 0v-2.9m0 0v-2.7m0 0v-2.9m0 0V105m0 0v-2.6m0 0v-2.7m0 0v-2.6m0 0v-2.4m0 0v-2.4m0 0v-2.5m0 0v-2.2m0 0v-2.2m0 0v-2m0 0v-2.1m0 0v-1.8m0 0v-1.8m0 0v-1.6m0 0v-1.6m0 0v-1.4m0 0v-1.3m0 0v-1.2m0 0v-1m0 0v-.9m0 0V68m0 0v-.7m0 0v-.5m0 0v-.3m0 0v-.2m0 0v-.1m0-2.1h-45.7m45.7 0v121.4m-45.7 0h45.7m1.4-116.9v.3m0 0v.3m0 0v.5m0 0v.6m0 0v.8m0 0v.9m0 0v1.1m0 0v1.3m0 0v1.2m0 0v1.5m0 0v1.5m0 0v1.7m0 0V82m0 0v2.1m0 0V86m0 0v2.1m0 0v2.2m0 0v2.4m0 0V95m0 0v2.5m0 0v2.5m0 0v2.6m0 0v2.7m0 0v2.6m0 0v2.8m0 0v2.8m0 0v2.7m0 0v2.8m0 0v3m0 0v2.8m0 0v2.8m0 0v2.9m0 0v2.8m0 0v2.7m0 0v2.9m0 0v2.7m0 0v2.7m0 0v2.7m0 0v2.6m0 0v2.5m0 0v2.4m0 0v2.4m0 0v2.3m0 0v2.2m0 0v2.1m0 0v2.1m0 0v1.9m0 0v1.8m0 0v1.6m0 0v1.5m0 0v1.5m0 0v1.4m0 0v1.2m0 0v1m0 0v.9m0 0v.8m0 0v.7m0 0v.4m0 0v.4m0 0v.2m0 0v.1m8.2-107.9v.6m0 102.3v.4m11.9-6.5v.1m0-114.4v.3m0 0v.3m0 0v.4m0 0v.6m0 0v.7m0 0v.8m0 0v.8m0 0v.8m0 0V170m-8.6 24h8.6m0 0v-.2m0 0v-.4m0 0v-.4m0 0v-.7m0 0v-.7m0 0v-.7m0 0v-.9m0 0v-.7m0 0h-8.6m8.6-19.3v19.3m-8.6-128.8l8.6-.2m-8.6-4.5h.3m0 0l.4-.1m0 0h.3m0 0h.4m0 0h.4m0 0h.3m0 0h.3m0 0h.4m0 0h.3m0 0h.4m0 0h.4m0 0h.3m0 0h.5m0 0h.3m0 0l.4-.1m0 0h.3m0 0h.4m0 0h.4m0 0h.3m0 0h.4m0 0h.3m0 0h.3m0 0h.4m0 0h.4M213.5 57l9.3-.2m-9.3 135.8l9.2.2m-1.2-16.8l-2.1-.1m4.8-8.6v.8m.5-1.7l-.3.2m0 0l-.1.3m0 0l-.1.4m2.1-9.9l.1-.2m0 0l.2-.3m0 0l.2-.2m0 0h.3m-.8 2.3v-1.6m-1.8 1.6h1.8m-1.8 1.6V159m-.7 2.3l.2-.1m0 0l.2-.1m0 0l.2-.2m0 0l.1-.3m-2.7.7h2m-2-3.5v3.5m.1-3.9l-.1.4m1.4-5.5l-1.3 5.1m-.4-5.9l.2-.2m0 0l.3-.2m0 0h.3m0 0h.4m0 0l.3.2m0 0l.2.2m0 0l.1.4m0 0l-.1.4m-4.5 4.4l2.8-5.2m-3.1 6.3l.1-.6m0 0l.2-.5m-.3 18.3v-17.2m1 18.1l-1-.9m1-101.3l2.1-.1m-3.1 1.1l1-1m-1 18.1V74.7m.3 18.3l-.2-.6m0 0l-.1-.6m3.1 6.2l-2.8-5m4.5 4.3l.1.4m0 0l-.1.3m0 0l-.2.3m0 0l-.3.1m0 0l-.4.1m0 0l-.3-.1m0 0l-.3-.1m0 0l-.2-.3m.4-5.8l1.3 5.1m-1.4-5.5l.1.4m-.1-4v3.6m2-3.6h-2m2.7.7l-.1-.2m0 0l-.2-.3m0 0l-.2-.1m0 0l-.2-.1m.7 2.4v-1.7m1.8 1.7h-1.8m1.8 1.6v-1.6m.8 2.3h-.3m0 0l-.2-.2m0 0l-.2-.2m0 0l-.1-.3m-2.1-9.9l.1.4m0 0l.1.3m0 0l.3.2m-.5-1.7v.8m-1 6.4v-.5m-4.8 55.7v1.3m0 0v1.3m0 0v1.4m0 0v1.3m0 0v1.2m0 0v1.2m0 0v1.1m0 0v.9m0 0v.9m0 0v.9m0 0v.7m0 0v.6m0 0v.5m0 0v.3m0 0v.2m0 0v.1m0-52.1v38.2m0-52.1v.2m0 0v.1m0 0v.3m0 0v.5m0 0v.6m0 0v.7m0 0v.8m0 0v.9m0 0v1m0 0V98m0 0v1.1m0 0v1.2m0 0v1.4m0 0v1.3m0 0v1.3m0 0v1.4m4.8 55.6v-.5m1.2-72.1h-.1m0 0h-.1m0 0h-.1m0 0h-.1m0 0h-.1m0 0h-.1m0 0h-.1m0 0h-.1m0 0h-.1m0 0h-.1m0 0h-.1m0 0h-.1m3.1 60.7h.2m0 0h.1m0 0h.1m0 0h.1m0 0h.1m0 0h.2m0 0h.1m0 0h.1m0 0h.1m0 0h.1m0 0h.2m0 0h.1m0 0h.1m0 0h.1m0 0h.1m0 0h.1m0 0h.1m0 0h.1m-5.2 10.7h-.1m0 0h-.1m0 0v-.1m0 0h-.1m0 0h-.1m1.7.1h-.1m0 0h-.1m0 0h-.1m0 0h-.1m0 0h-.1m0 0h-.1m0 0h-.1m0 0h-.1m0 0h-.1m0 0h-.1m0 0h-.1m0 0h-.1m0 0h-.1m5.2-60h-.1m0 0h-.1m0 0h-.1m0 0h-.1m0 0h-.1m0 0h-.1m0 0h-.1m0 0h-.2m0 0h-.1m0 0h-.1m0 0h-.1m0 0h-.1m0 0h-.2m0 0h-.1m0 0h-.1m0 0h-.1m0 0h-.1m0 0h-.2m2.4 47.5h-.1m0 0h-.2m0 0h-.1m0 0h-.2m0 0h-.1m0 0h-.2m0 0h-.1m0 0l-.2-.1m0 0h-.1m0 0h-.2m0 0h-.1m0 0h-.2m0 0h-.1m0 0h-.2m0 0h-.1m0 0h-.2m0-45.4h.2m0 0h.1m0 0h.2m0 0h.1m0 0h.2m0 0h.1m0 0h.2m0 0h.1m0 0h.2m0 0h.1m0 0h.2m0 0h.1m0 0h.2m0 0h.1m0 0h.2m0 0h.1m-5.5-13.4v.3m0 0v.3m0 0v.1m0 0v.1m0 0h.1m0 0h.1m0 0h.1m0 0h.1m0 0h.1m0 0h.1m0 0h.1m0 0h.1m0 0h.1m0 0v-.1m0 0h.1m0 0h.1m0 0h.1m0 0h.1m-1.3-.7h-.1m0 0l-.1.3m0 0v.3m0 0l-.1.1m0 0l-.1.1m0 0h.1m0 0h.1m0 0h.1m0 0h.1m-.1-.8h-.1m0 0h-.1m0 0h-.1m0 0h-.1m0 0l-.1.1m0 0l-.2.1m0 0l-.1.1m0 0v.1m0 0l-.1.1m0 0h-.1m0 0v.1m0 0v.1m0 0l-.1.1m0 0v.1m0 0v.1m0 0l-.1.1m0 0v.1m0 0v.2m0 0l-.1.1m0 0v.1m0 0v.1m8.3 24.9h-.1m0 0h-.2m0 0h-.1m0 0h-.2m0 0h-.1m0 0h-.2m0 0h-.2m0 0h-.2m0 0h-.1m0 0h-.2m0 0h-.1m0 0h-.2m0 0h-.1m0 0h-.2m0 0h-.2m0 0h-.1m0 0l-.2.1m0 0h-.1m0 0h-.2m0 0h-.1m0 0h-.2m0 0h-.2m0 0h-.1m0 0h-.2m-3.1 45.4h.1m0 0h.1m0 0h.1m0 0h.1m0 0h.1m0 0h.1m0 0v.1m0 0h.1m0 0h.1m0 0h.1m0 0h.1m0 0h.1m0 0h.1m-1.2-.8v.2m0 0v.2m0 0v.3m-.4-.8l.1.1m0 0l.1.2m0 0v.2m0 0l.1.3m0 0h.1m-1.4-1.7v.2m0 0v.1m0 0h.1m0 0v.2m0 0v.1m0 0l.1.1m0 0v.1m0 0v.1m0 0l.1.1m0 0v.1m0 0v.1m0 0l.1.1m0 0l.1.1m0 0l.1.1m0 0l.2.1m0 0v.1m0 0h.1m0 0h.1m0 0h.1m0 0h.1m0 0h.1m7.1-44.4l-3.9.1m-1.8-33.4l.2-.1m1.9 70.5h.1m0 0h.1m0 0h.1m0 0h.1m0 0h.1m0 0h.1m0 0h.1m-.7 0h-.1m0 0h-.1m0 0h-.1m-3.3 0h-.1m3.7-57.5h.1m0 0h.1m0 0h.1m0 0h.1m0 0h.1m0 0h.1m0 0h.1m-4.4.1h.1m3.3-.1h.1m0 0h.1m0 0h.1m-3.8-5.9h.1m0 0h.1m0 0h.1m0 0h.1m0 0h.1m0 0h.1m0 0h.1m0 0h.1m0 0h.1m0 0h.1m0 0h.1m0 0h.2m0 0h.1m0 0h.1m0 0h.1m0 0h.1m2.1 4.4h-.1m0 0v.1m0 0h-.1m0 0h-.1m-3.3 0h-.1m0 0h-.1m6.6 48.7h-.2m0 0h-.2m0 0h-.1m0 0h-.1m0 0h-.1m0 0h-.1m0 0h-.2m0 0h-.1m0 0h-.1m0 0h-.1m0 0h-.1m0 0h-.2m0 0h-.1m0 0h-.1m0 0h-.1m0 0h-.2m0 0h-.1m0 0h-.1m0 0h-.2m0 0h-.1m0 0h-.1m0 0h-.1m0 0h-.1m0 0h-.2m-3.5 11.6h.1m0 0h.1m3.3.1h.1m0 0h.1m0 0h.1m-2.1 4.4h-.1m0 0h-.1m0 0h-.1m0 0h-.1m0 0h-.2m0 0h-.1m0 0h-.1m0 0h-.1m0 0h-.1m0 0h-.1m0 0h-.1m0 0h-.1m0 0h-.1m0 0h-.1m0 0h-.1m0 0h-.1m1.9 7.2h-.2"/><path clip-rule="evenodd" fill="none" stroke="#000" stroke-width=".718" stroke-linecap="round" stroke-linejoin="round" stroke-miterlimit="10" d="M226.3 144.5h.2m0 0h.1m0 0h.1m0 0h.1m0 0h.1m0 0h.2m0 0h.1m0 0h.1m0 0h.1m0 0h.1m0 0h.1m0 0h.1m0 0h.1m0 0h.2m0 0h.1m0 0h.1m0 0h.1m0 0h.1m0 0h.2m0 0h.1m0 0h.1m0 0h.1m0 0h.1m0 0h.2"/><path clip-rule="evenodd" fill="none" stroke="#1D1D1B" stroke-width=".283" stroke-miterlimit="3.864" d="M227.3 155.8h-.3m0 0h-.2m0 0h-.2m0-.8v.1m0 0v.1m.7.6v-2.3m0 0l-.1.1m0 0v.1m0 0l-.1.1m0 0v.1m0 0h-.1m0 0v.1m0 0l-.1.1m0 0v.1m0 0v.1m0 0l-.1.1m0 0v.1m0 0l-.1.1m0 0v.1m0 0l-.1.1m0 0v.1m0 0v.1m0-60.5v.1m0 0v.1m0 0v.1m0 0h.1m0 0v.1m0 0v.1m0 0h.1m0 0v.1m0 0v.1m0 0l.1.1m0 0v.1m0 0l.1.1m0 0v.1m0 0h.1m0 0v.1m0 0l.1.1m0 0v.1m0 0v.1m0 0h.1m0 0v-2.3m0 0h-.3m0 0h-.2m0 0h-.2m0 .7v.1m0-1.8v1.7m-3.8.2h-.2m.2.9v-.1m0 0v-.1m0 0v-.1m0 0v-.1m0 0V95m0 0v-.1m0 0v-.1m0 0v-.1m0 0v-.1m0-4.5l-.4.1m0 0l-.3.2m0 0l-.2.1m0 0l-.1.3m1 3.8v-1.5m0 0v-1.5m0 0v-1.5m0 0V90m0 0v-.1m0 0v-.1m0 0v-.1m0 0v-.1m0 0v-.1m0 69.9l-.4-.1m0 0l-.3-.1m0 0l-.2-.2m0 0l-.1-.3m1 1.3v-.1m0 0v-.1m0 0v-.1m0 0v-.1m0 0v-.1m0 0v-.1m0-4.5h-.2m.2 4.5V158m0 0v-1.4m0 0v-1.7m0 0v-.1m0 0v-.1m0 0v-.1m0 0v-.1m0 0v-.1m0 0v-.1m0 0v-.1m0 0v-.1m0 0v-.1m4.4-35.1h-.3m0 0h-.3m0 0h-.2m0 0h-.1m0 11.7h.1m0 0h.2m0 0h.3m0 0h.3m0 0v-11.7m3.1.1l-3.1-.1m3.1 11.6l-3.1.1m-.9 2.6l3.9.1m.1-.7l-4-.1m.3 24.4v-1.7m-7.9-11.3v1.3m0 0v1.3m0 0v1.4m0 0v1.2m0 0v1.2m0 0v1.1m0 0v1m0 0v.9m0 0v.8m0 0v.7m0 0v.6m0 0v.6m0 0v.4m0 0v.2m0 0v.1m-.3-12.8h.1m0 0h.2m2.8 0v.9m0 0v1m0 0v1.1m0 0v.9m0 0v.8m0 0v.7m0 0v.7m0 0v.5m0 0v.5m0 0v.3m0 0v.2m-2.8-7.6h2.8m0 0h.2m0 0h.3m0 0h.4m0 0h.3m0 0h.3m-4.3-38.2v38.2m-.3-38.2h.1m0 0h.2m2.8 0v38.2m-2.8-38.2h2.8m0 0h.2m0 0h.3m0 0h.4m0 0h.3m0 0h.3M218.7 93v.3m0 0v.3m0 0v.5m0 0v.6m0 0v.7m0 0v.8m0 0v.9m0 0v1m0 0v1.2m0 0v1.1m0 0v1.4m0 0v1.2m0 0v1.4m0 0v1.3m2.8-7.7v.3m0 0v.3m0 0v.4m0 0v.5m0 0v.7m0 0v.9m0 0v.8m0 0v.8m0 0v1m0 0v1m0 0v1m1.5-14.4h3.3m-3.3 66.9V91.3m3.3 66.9H223m3.3-66.9v66.9M218 68.7l1-1m-4.1.9l3.1-3.1m-5.3 2.2l4.3-4.4m-6.1 2.9l5-5m-8.2 5l7.1-7.1m-10.3 7.1l9.1-9.1m-12.4 9.1l9.1-9.1M198 66.2l9.1-9m-12.3 9l9-8.9m-12.2 8.9l8.8-8.8m-12 8.8l8.7-8.8m-11.9 8.8l8.7-8.7m-12 8.7l8.6-8.6m-11.7 8.6l8.4-8.5m-11.6 8.5l8.4-8.4m-11.7 8.4l8.3-8.3m-11.5 8.3l8.3-8.2M167 65.1l7-7.1m-8 4.9l4.7-4.8m-4.7 1.5l1.4-1.4m45.8 134.4l.7-.8m-3.8.6l7.5-7.5m-10.7 7.4l11.6-11.5m-14.7 11.5l11.4-11.4m-14.5 11.3l8.8-8.8m-12 8.7l8.8-8.7m-11.9 8.6l8.7-8.6m-11.8 8.6l8.5-8.6m-11.7 8.4l8.5-8.4m-11.6 8.4l8.5-8.4m-11.6 8.3l8.3-8.3m-11.4 8.2l8.2-8.2m-11.4 8.1l8.2-8.1m-11.3 8l8-8m-11.1 8l8-8m-10.8 7.5l7.6-7.5m-8.2 5l4.9-5m49.4-7.4l2-2.2m-3.3 1.7l4.2-4.1m-4.8 3.1l5.5-5.5m-5.5 3.8l6-5.9m-6 4.3l6.9-6.8m-6.9 5.2l7.4-7.4m-7.4 5.8l7.9-7.9m-7.9 6.3l5.2-5.1m.9-.9l1.4-1.4m.4-.5l.5-.4m-8.4 6.6l3.6-3.4m-3.6 1.8l3.4-3.3m-3.4 1.7l3.4-3.3m-3.4 1.7l3.8-3.6m-3.8 2.1l4.3-4.3m-3.8 2.2l4.3-4.3m-2.4.8l1.7-1.6m-.4-52.8l1.1-1.1m-1.9.3l1.6-1.6m3.6-3.6l.4-.4m-6.1 4.6l1.8-1.8m3.7-3.9l.3-.3m-6.4 5l2.1-2.1m2.8-2.9l1.2-1.3m-6.8 5.2l2.4-2.2m2.6-2.7L226 88m-7 5.5l2.8-2.9m2.3-2.2l1.6-1.6m-7.1 5.5l3.2-3.3m.9-.8l2.7-2.7m-7 5.2l6.6-6.4m-6.6 4.9l6.2-6.2m-6.2 4.5l5.8-5.7m-5.8 4.2l5.5-5.5m-5.5 3.9l5.1-5.1m-5.1 3.5l4.8-4.7m-4.8 3l4.3-4.2m-4.3 2.6l3.9-3.8m-3.9 2.2l3.5-3.4m-3.5 1.8l2.8-2.6m-2.8 1l1.1-1m4.9 84.5l-1.4-1.3m3 1.3l-3-3m3.3 1.8l-3.3-3.4m3.3 1.7L223 152m3.3 1.8l-3.3-3.3m3.3 1.6l-3.3-3.3m3.3 1.8l-3.3-3.3m3.3 1.7l-3.3-3.4m3.3 1.8L223 144m3.3 1.7l-3.3-3.3m3.3 1.7l-3.3-3.3m3.3 1.7l-3.3-3.3m3.3 1.7l-3.3-3.3m3.3 1.7l-3.3-3.4m3.3 1.9l-3.3-3.4m3.3 1.6l-3.3-3.3m3.3 1.8l-3.3-3.3m3.3 1.7l-3.3-3.3m3.3 1.7l-3.3-3.5m3.3 1.9l-3.3-3.4m3.3 1.7l-3.3-3.3m3.3 1.7l-3.3-3.3m3.3 1.7l-3.3-3.3m3.3 1.7l-3.3-3.3m3.3 1.7l-3.3-3.4m3.3 1.8l-3.3-3.4m3.3 1.7L223 115m3.3 1.8l-3.3-3.3m3.3 1.6l-3.3-3.3m3.3 1.8l-3.3-3.3m3.3 1.7l-3.3-3.4m3.3 1.8L223 107m3.3 1.7l-3.3-3.3m3.3 1.7l-3.3-3.3m3.3 1.7l-3.3-3.3m3.3 1.7l-3.3-3.4m3.3 1.8l-3.3-3.4m3.3 1.8l-3.3-3.3m3.3 1.6l-3.3-3.3m3.3 1.8l-3.3-3.3m3.3 1.7l-3.3-3.3m3.3 1.7l-2.8-3m2.8 1.4l-1.3-1.4m-59 92.1h43.6M166 66.2h43.6M166 64.1v121.4m43.8-6.4V70.4m6.8 108.7h-6.8m6.8-108.7v108.7m-6.8-108.7h6.8m-6.8 115.1H166m43.8-121.4v121.4M166.1 64.1H210M70.4 196.4V53.1M166 196.4H70.4M166 53.1v143.3M70.4 53.1H166"/><path fill="#D9D9D9" d="M209.9 70.3h6.7v108.9h-6.7V70.3z"/><path fill="none" stroke="#1D1D1B" stroke-width=".283" stroke-miterlimit="3.864" d="M209.9 70.3h6.7v108.9h-6.7V70.3z"/><g clip-rule="evenodd"><path fill="none" stroke="#1D1D1B" stroke-width=".227" stroke-miterlimit="3.864" d="M111 239.2H23.9"/><path fill-rule="evenodd" fill="#1D1D1B" d="M215.7 134.9l2.8 2.9 5.4-8z"/><path fill="none" stroke="#1D1D1B" stroke-width=".283" stroke-miterlimit="3.864" d="M217.1 136.3L111 239.2"/><path fill-rule="evenodd" fill="#1D1D1B" d="M32.6 73h3.9l-2-9zm3.9 103.7h-3.9l1.9 9z"/><path fill="none" stroke="#1D1D1B" stroke-width=".227" stroke-miterlimit="3.864" d="M34.5 73v103.7"/><path fill="none" stroke="#1D1D1B" stroke-width=".283" stroke-miterlimit="3.864" d="M166.1 64.1H32.2m133.9 121.4H32.2"/><path fill="none" stroke="#1D1D1B" stroke-width=".227" stroke-miterlimit="3.864" d="M105.6 40H19.5"/><path fill-rule="evenodd" fill="#1D1D1B" d="M53 79.2h3.9l-2-9zm3.9 91.1H53l1.9 9z"/><path fill="none" stroke="#1D1D1B" stroke-width=".227" stroke-miterlimit="3.864" d="M54.9 79.2v91.1"/><path fill="none" stroke="#1D1D1B" stroke-width=".283" stroke-miterlimit="3.864" d="M209.8 179.1H52.6M209.8 70.4H52.6"/><path fill="none" stroke="#1D1D1B" stroke-width=".227" stroke-miterlimit="3.864" d="M113.2 23.5H19.5"/><path fill-rule="evenodd" fill="#1D1D1B" d="M203 38.4v3.8l9-1.9zm-28.1 3.8v-3.8l-9 1.9z"/><path fill="none" stroke="#1D1D1B" stroke-width=".227" stroke-miterlimit="3.864" d="M203 40.3h-28.1m36.9 22.9V37.9"/><path fill-rule="evenodd" fill="#1D1D1B" d="M174.9 21.3v-3.9l-9 2zm34.7-3.9v3.9l9-1.9z"/><path fill="none" stroke="#1D1D1B" stroke-width=".227" stroke-miterlimit="3.864" d="M174.9 19.4h34.7M166 51V17"/><path fill="none" stroke="#1D1D1B" stroke-width=".283" stroke-miterlimit="3.864" d="M218.4 73.1V17"/><path fill-rule="evenodd" fill="#1D1D1B" d="M213.2 79.3l-2 3.5 9.1 2.9z"/><path fill="none" stroke="#1D1D1B" stroke-width=".283" stroke-miterlimit="3.864" d="M212.2 81l-99-57.5"/><path fill-rule="evenodd" fill="#1D1D1B" d="M112.3 43.6l-2.7 2.8 7.9 4.7z"/><path fill="none" stroke="#1D1D1B" stroke-width=".227" stroke-miterlimit="3.864" d="M110.9 45l-5.3-5"/></g><text transform="translate(19.863 19.274)" font-family="Helvetica,Arial,sans-serif" font-size="12">Filter holder</text><text transform="translate(18.863 36.5)" font-family="Helvetica,Arial,sans-serif" font-size="12">C-mount lens</text><text transform="rotate(-90 98.541 69.34)" font-family="Helvetica,Arial,sans-serif" font-size="12">C-mount thread</text><text transform="rotate(-90 106.05 54.348)" font-family="Helvetica,Arial,sans-serif" font-size="12">max. Ø 23.1</text><text transform="translate(27.672 225)" font-family="Helvetica,Arial,sans-serif" font-size="12">IR cut filter</text><text transform="translate(305.81 226)"><tspan x="0" y="0" font-family="Helvetica,Arial,sans-serif" font-size="12">Not to scale</tspan><tspan x="0" y="14.4" font-family="Helvetica,Arial,sans-serif" font-size="12">Dimensions in mm</tspan></text><text transform="translate(27.629 236)" font-family="Helvetica,Arial,sans-serif" font-size="8">(color cameras only)</text><text transform="translate(179.997 15.024)" font-family="Helvetica,Arial,sans-serif" font-size="12">10.8</text><text transform="translate(180.384 36.5)" font-family="Helvetica,Arial,sans-serif" font-size="12">9.6</text></svg>