<svg version="1.0" xmlns="http://www.w3.org/2000/svg" viewBox="0 0 550 290"><path fill="#5EC5ED" d="M428.7 255.9h8.6v4.3h-8.6v-4.3z"/><path fill="#5EC5ED" stroke="#000" stroke-width=".073" stroke-miterlimit="3.864" d="M428.7 255.9h8.6v4.3h-8.6v-4.3z"/><path fill="#020405" d="M435.4 271.6h1.9v4.3h-1.9v-4.3z"/><path fill="none" stroke="#020405" stroke-width=".073" stroke-miterlimit="3.864" d="M435.4 271.6h1.9v4.3h-1.9v-4.3z"/><path fill="#5EC5ED" d="M17.7 81.2h107.2v4.3H17.7v-4.3z"/><path fill="#5EC5ED" stroke="#000" stroke-width=".073" stroke-miterlimit="3.864" d="M17.7 81.2h107.2v4.3H17.7v-4.3z"/><path fill="#020405" d="M124.9 81.2h1.9v4.3h-1.9v-4.3z"/><path fill="none" stroke="#020405" stroke-width=".073" stroke-miterlimit="3.864" d="M124.9 81.2h1.9v4.3h-1.9v-4.3z"/><path fill="#5EC5ED" d="M19.6 88.3h107.2v4.3H19.6v-4.3z"/><path fill="#5EC5ED" stroke="#000" stroke-width=".073" stroke-miterlimit="3.864" d="M19.6 88.3h107.2v4.3H19.6v-4.3z"/><path fill="#020405" d="M126.8 88.3h1.9v4.3h-1.9v-4.3z"/><path fill="none" stroke="#020405" stroke-width=".073" stroke-miterlimit="3.864" d="M126.8 88.3h1.9v4.3h-1.9v-4.3z"/><path fill="#5EC5ED" d="M21.5 95.4h107.2v4.3H21.5v-4.3z"/><path fill="#5EC5ED" stroke="#000" stroke-width=".073" stroke-miterlimit="3.864" d="M21.5 95.4h107.2v4.3H21.5v-4.3z"/><path fill="#020405" d="M128.7 95.4h1.9v4.3h-1.9v-4.3z"/><path fill="none" stroke="#020405" stroke-width=".073" stroke-miterlimit="3.864" d="M128.7 95.4h1.9v4.3h-1.9v-4.3z"/><path fill="#5EC5ED" d="M23.4 102.6h107.2v4.2H23.4v-4.2z"/><path fill="#5EC5ED" stroke="#000" stroke-width=".073" stroke-miterlimit="3.864" d="M23.4 102.6h107.2v4.2H23.4v-4.2z"/><path fill="#020405" d="M130.6 102.6h1.9v4.2h-1.9v-4.2z"/><path fill="none" stroke="#020405" stroke-width=".073" stroke-miterlimit="3.864" d="M130.6 102.6h1.9v4.2h-1.9v-4.2z"/><path fill="#5EC5ED" d="M25.3 109.7h107.2v4.2H25.3v-4.2z"/><path fill="#5EC5ED" stroke="#000" stroke-width=".073" stroke-miterlimit="3.864" d="M25.3 109.7h107.2v4.2H25.3v-4.2z"/><path fill="#020405" d="M132.5 109.7h1.9v4.2h-1.9v-4.2z"/><path fill="none" stroke="#020405" stroke-width=".073" stroke-miterlimit="3.864" d="M132.5 109.7h1.9v4.2h-1.9v-4.2z"/><path fill="#5EC5ED" d="M27.2 116.8h107.2v4.2H27.2v-4.2z"/><path fill="#5EC5ED" stroke="#000" stroke-width=".073" stroke-miterlimit="3.864" d="M27.2 116.8h107.2v4.2H27.2v-4.2z"/><path fill="#020405" d="M134.4 116.8h1.9v4.2h-1.9v-4.2z"/><path fill="none" stroke="#020405" stroke-width=".073" stroke-miterlimit="3.864" d="M134.4 116.8h1.9v4.2h-1.9v-4.2z"/><path fill="#5EC5ED" d="M29.1 123.9h107.2v4.3H29.1v-4.3z"/><path fill="#5EC5ED" stroke="#000" stroke-width=".073" stroke-miterlimit="3.864" d="M29.1 123.9h107.2v4.3H29.1v-4.3z"/><path fill="#020405" d="M136.3 123.9h1.9v4.3h-1.9v-4.3z"/><path fill="none" stroke="#020405" stroke-width=".073" stroke-miterlimit="3.864" d="M136.3 123.9h1.9v4.3h-1.9v-4.3z"/><path fill="#5EC5ED" d="M31 131h107.2v4.3H31V131z"/><path fill="#5EC5ED" stroke="#000" stroke-width=".073" stroke-miterlimit="3.864" d="M31 131h107.2v4.3H31V131z"/><path fill="#020405" d="M138.2 131h1.9v4.3h-1.9V131z"/><path fill="none" stroke="#020405" stroke-width=".073" stroke-miterlimit="3.864" d="M138.2 131h1.9v4.3h-1.9V131z"/><path fill="#5EC5ED" d="M32.9 138.1h107.2v4.3H32.9v-4.3z"/><path fill="#5EC5ED" stroke="#000" stroke-width=".073" stroke-miterlimit="3.864" d="M32.9 138.1h107.2v4.3H32.9v-4.3z"/><path fill="#020405" d="M140.1 138.1h1.9v4.3h-1.9v-4.3z"/><path fill="none" stroke="#020405" stroke-width=".073" stroke-miterlimit="3.864" d="M140.1 138.1h1.9v4.3h-1.9v-4.3z"/><path fill="#5EC5ED" d="M34.8 145.2H142v4.3H34.8v-4.3z"/><path fill="#5EC5ED" stroke="#000" stroke-width=".073" stroke-miterlimit="3.864" d="M34.8 145.2H142v4.3H34.8v-4.3z"/><path fill="#020405" d="M142 145.2h1.9v4.3H142v-4.3z"/><path fill="none" stroke="#020405" stroke-width=".073" stroke-miterlimit="3.864" d="M142 145.2h1.9v4.3H142v-4.3z"/><path fill="#5EC5ED" d="M36.7 152.3h107.2v4.3H36.7v-4.3z"/><path fill="#5EC5ED" stroke="#000" stroke-width=".073" stroke-miterlimit="3.864" d="M36.7 152.3h107.2v4.3H36.7v-4.3z"/><path fill="#020405" d="M143.9 152.3h1.9v4.3h-1.9v-4.3z"/><path fill="none" stroke="#020405" stroke-width=".073" stroke-miterlimit="3.864" d="M143.9 152.3h1.9v4.3h-1.9v-4.3z"/><path fill="#5EC5ED" d="M57.6 180.8h107.1v4.3H57.6v-4.3z"/><path fill="#5EC5ED" stroke="#000" stroke-width=".073" stroke-miterlimit="3.864" d="M57.6 180.8h107.1v4.3H57.6v-4.3z"/><path fill="#020405" d="M164.7 180.8h1.9v4.3h-1.9v-4.3z"/><path fill="none" stroke="#020405" stroke-width=".073" stroke-miterlimit="3.864" d="M164.7 180.8h1.9v4.3h-1.9v-4.3z"/><path fill="#5EC5ED" d="M59.4 187.9h107.2v4.3H59.4v-4.3z"/><path fill="#5EC5ED" stroke="#000" stroke-width=".073" stroke-miterlimit="3.864" d="M59.4 187.9h107.2v4.3H59.4v-4.3z"/><path fill="#020405" d="M166.6 187.9h1.9v4.3h-1.9v-4.3z"/><path fill="none" stroke="#020405" stroke-width=".073" stroke-miterlimit="3.864" d="M166.6 187.9h1.9v4.3h-1.9v-4.3z"/><path fill="#5EC5ED" d="M61.3 195h107.2v4.3H61.3V195z"/><path fill="#5EC5ED" stroke="#000" stroke-width=".073" stroke-miterlimit="3.864" d="M61.3 195h107.2v4.3H61.3V195z"/><path fill="#020405" d="M168.5 195h1.9v4.3h-1.9V195z"/><path fill="none" stroke="#020405" stroke-width=".073" stroke-miterlimit="3.864" d="M168.5 195h1.9v4.3h-1.9V195z"/><path d="M69.9 160.2c0-.4.2-.7.5-.7s.5.3.5.7c0 .4-.2.7-.5.7s-.5-.3-.5-.7z"/><path fill="none" stroke="#000" stroke-width=".092" stroke-miterlimit="3.864" d="M69.9 160.2c0-.4.2-.7.5-.7s.5.3.5.7c0 .4-.2.7-.5.7s-.5-.3-.5-.7z"/><path d="M71.8 164.4c0-.4.2-.7.5-.7s.5.3.5.7c0 .4-.2.7-.5.7-.3.1-.5-.3-.5-.7z"/><path fill="none" stroke="#000" stroke-width=".092" stroke-miterlimit="3.864" d="M71.8 164.4c0-.4.2-.7.5-.7s.5.3.5.7c0 .4-.2.7-.5.7-.3.1-.5-.3-.5-.7z"/><path d="M73.7 168.7c0-.4.2-.7.5-.7s.5.3.5.7c0 .4-.2.7-.5.7s-.5-.3-.5-.7z"/><path fill="none" stroke="#000" stroke-width=".092" stroke-miterlimit="3.864" d="M73.7 168.7c0-.4.2-.7.5-.7s.5.3.5.7c0 .4-.2.7-.5.7s-.5-.3-.5-.7z"/><path d="M75.6 173c0-.4.2-.7.5-.7s.5.3.5.7c0 .4-.2.7-.5.7s-.5-.3-.5-.7z"/><path fill="none" stroke="#000" stroke-width=".092" stroke-miterlimit="3.864" d="M75.6 173c0-.4.2-.7.5-.7s.5.3.5.7c0 .4-.2.7-.5.7s-.5-.3-.5-.7z"/><path d="M77.5 177.2c0-.4.2-.7.5-.7s.5.3.5.7c0 .4-.2.7-.5.7-.3.1-.5-.3-.5-.7z"/><path fill="none" stroke="#000" stroke-width=".092" stroke-miterlimit="3.864" d="M77.5 177.2c0-.4.2-.7.5-.7s.5.3.5.7c0 .4-.2.7-.5.7-.3.1-.5-.3-.5-.7z"/><path d="M123 160.2c0-.4.2-.7.5-.7s.5.3.5.7c0 .4-.2.7-.5.7s-.5-.3-.5-.7z"/><path fill="none" stroke="#000" stroke-width=".092" stroke-miterlimit="3.864" d="M123 160.2c0-.4.2-.7.5-.7s.5.3.5.7c0 .4-.2.7-.5.7s-.5-.3-.5-.7z"/><path d="M124.9 164.4c0-.4.2-.7.5-.7s.5.3.5.7c0 .4-.2.7-.5.7-.3.1-.5-.3-.5-.7z"/><path fill="none" stroke="#000" stroke-width=".092" stroke-miterlimit="3.864" d="M124.9 164.4c0-.4.2-.7.5-.7s.5.3.5.7c0 .4-.2.7-.5.7-.3.1-.5-.3-.5-.7z"/><path d="M126.8 168.7c0-.4.2-.7.5-.7s.5.3.5.7c0 .4-.2.7-.5.7s-.5-.3-.5-.7z"/><path fill="none" stroke="#000" stroke-width=".092" stroke-miterlimit="3.864" d="M126.8 168.7c0-.4.2-.7.5-.7s.5.3.5.7c0 .4-.2.7-.5.7s-.5-.3-.5-.7z"/><path d="M128.7 173c0-.4.2-.7.5-.7s.5.3.5.7c0 .4-.2.7-.5.7s-.5-.3-.5-.7z"/><path fill="none" stroke="#000" stroke-width=".092" stroke-miterlimit="3.864" d="M128.7 173c0-.4.2-.7.5-.7s.5.3.5.7c0 .4-.2.7-.5.7s-.5-.3-.5-.7z"/><path d="M130.6 177.2c0-.4.2-.7.5-.7s.5.3.5.7c0 .4-.2.7-.5.7-.3.1-.5-.3-.5-.7z"/><path fill="none" stroke="#000" stroke-width=".092" stroke-miterlimit="3.864" d="M130.6 177.2c0-.4.2-.7.5-.7s.5.3.5.7c0 .4-.2.7-.5.7-.3.1-.5-.3-.5-.7z"/><path fill="#5EC5ED" d="M194.8 81.2H302v4.3H194.8v-4.3z"/><path fill="#5EC5ED" stroke="#000" stroke-width=".073" stroke-miterlimit="3.864" d="M194.8 81.2H302v4.3H194.8v-4.3z"/><path fill="#020405" d="M302 81.2h1.8v4.3H302v-4.3z"/><path fill="none" stroke="#020405" stroke-width=".073" stroke-miterlimit="3.864" d="M302 81.2h1.8v4.3H302v-4.3z"/><path fill="#5EC5ED" d="M196.7 88.3h107.1v4.3H196.7v-4.3z"/><path fill="#5EC5ED" stroke="#000" stroke-width=".073" stroke-miterlimit="3.864" d="M196.7 88.3h107.1v4.3H196.7v-4.3z"/><path fill="#020405" d="M303.8 88.3h1.9v4.3h-1.9v-4.3z"/><path fill="none" stroke="#020405" stroke-width=".073" stroke-miterlimit="3.864" d="M303.8 88.3h1.9v4.3h-1.9v-4.3z"/><path fill="#5EC5ED" d="M198.6 95.4h107.1v4.3H198.6v-4.3z"/><path fill="#5EC5ED" stroke="#000" stroke-width=".073" stroke-miterlimit="3.864" d="M198.6 95.4h107.1v4.3H198.6v-4.3z"/><path fill="#020405" d="M305.7 95.4h1.9v4.3h-1.9v-4.3z"/><path fill="none" stroke="#020405" stroke-width=".073" stroke-miterlimit="3.864" d="M305.7 95.4h1.9v4.3h-1.9v-4.3z"/><path fill="#5EC5ED" d="M200.5 102.6h107.1v4.2H200.5v-4.2z"/><path fill="#5EC5ED" stroke="#000" stroke-width=".073" stroke-miterlimit="3.864" d="M200.5 102.6h107.1v4.2H200.5v-4.2z"/><path fill="#020405" d="M307.6 102.6h1.9v4.2h-1.9v-4.2z"/><path fill="none" stroke="#020405" stroke-width=".073" stroke-miterlimit="3.864" d="M307.6 102.6h1.9v4.2h-1.9v-4.2z"/><path fill="#5EC5ED" d="M202.4 109.7h107.1v4.2H202.4v-4.2z"/><path fill="#5EC5ED" stroke="#000" stroke-width=".073" stroke-miterlimit="3.864" d="M202.4 109.7h107.1v4.2H202.4v-4.2z"/><path fill="#020405" d="M309.5 109.7h1.9v4.2h-1.9v-4.2z"/><path fill="none" stroke="#020405" stroke-width=".073" stroke-miterlimit="3.864" d="M309.5 109.7h1.9v4.2h-1.9v-4.2z"/><path fill="#5EC5ED" d="M204.3 116.8h107.1v4.2H204.3v-4.2z"/><path fill="#5EC5ED" stroke="#000" stroke-width=".073" stroke-miterlimit="3.864" d="M204.3 116.8h107.1v4.2H204.3v-4.2z"/><path fill="#020405" d="M311.4 116.8h1.9v4.2h-1.9v-4.2z"/><path fill="none" stroke="#020405" stroke-width=".073" stroke-miterlimit="3.864" d="M311.4 116.8h1.9v4.2h-1.9v-4.2z"/><path fill="#5EC5ED" d="M206.2 123.9h107.1v4.3H206.2v-4.3z"/><path fill="#5EC5ED" stroke="#000" stroke-width=".073" stroke-miterlimit="3.864" d="M206.2 123.9h107.1v4.3H206.2v-4.3z"/><path fill="#020405" d="M313.3 123.9h1.9v4.3h-1.9v-4.3z"/><path fill="none" stroke="#020405" stroke-width=".073" stroke-miterlimit="3.864" d="M313.3 123.9h1.9v4.3h-1.9v-4.3z"/><path fill="#5EC5ED" d="M208.1 131h107.1v4.3H208.1V131z"/><path fill="#5EC5ED" stroke="#000" stroke-width=".073" stroke-miterlimit="3.864" d="M208.1 131h107.1v4.3H208.1V131z"/><path fill="#020405" d="M315.2 131h1.9v4.3h-1.9V131z"/><path fill="none" stroke="#020405" stroke-width=".073" stroke-miterlimit="3.864" d="M315.2 131h1.9v4.3h-1.9V131z"/><path fill="#5EC5ED" d="M209.9 138.1h107.2v4.3H209.9v-4.3z"/><path fill="#5EC5ED" stroke="#000" stroke-width=".073" stroke-miterlimit="3.864" d="M209.9 138.1h107.2v4.3H209.9v-4.3z"/><path fill="#020405" d="M317.1 138.1h1.9v4.3h-1.9v-4.3z"/><path fill="none" stroke="#020405" stroke-width=".073" stroke-miterlimit="3.864" d="M317.1 138.1h1.9v4.3h-1.9v-4.3z"/><path fill="#5EC5ED" d="M211.8 145.2H319v4.3H211.8v-4.3z"/><path fill="#5EC5ED" stroke="#000" stroke-width=".073" stroke-miterlimit="3.864" d="M211.8 145.2H319v4.3H211.8v-4.3z"/><path fill="#020405" d="M319 145.2h1.9v4.3H319v-4.3z"/><path fill="none" stroke="#020405" stroke-width=".073" stroke-miterlimit="3.864" d="M319 145.2h1.9v4.3H319v-4.3z"/><g fill="#5EC5ED"><path d="M213.7 152.3h107.2v4.3H213.7v-4.3z"/><path stroke="#000" stroke-width=".073" stroke-miterlimit="3.864" d="M213.7 152.3h107.2v4.3H213.7v-4.3z"/></g><path fill="#020405" d="M320.9 152.3h1.9v4.3h-1.9v-4.3z"/><path fill="none" stroke="#020405" stroke-width=".073" stroke-miterlimit="3.864" d="M320.9 152.3h1.9v4.3h-1.9v-4.3z"/><g fill="#5EC5ED"><path d="M234.6 180.8h107.2v4.3H234.6v-4.3z"/><path stroke="#000" stroke-width=".073" stroke-miterlimit="3.864" d="M234.6 180.8h107.2v4.3H234.6v-4.3z"/></g><path fill="#020405" d="M341.8 180.8h1.9v4.3h-1.9v-4.3z"/><path fill="none" stroke="#020405" stroke-width=".073" stroke-miterlimit="3.864" d="M341.8 180.8h1.9v4.3h-1.9v-4.3z"/><g fill="#5EC5ED"><path d="M236.5 187.9h107.2v4.3H236.5v-4.3z"/><path stroke="#000" stroke-width=".073" stroke-miterlimit="3.864" d="M236.5 187.9h107.2v4.3H236.5v-4.3z"/></g><path fill="#020405" d="M343.7 187.9h1.9v4.3h-1.9v-4.3z"/><path fill="none" stroke="#020405" stroke-width=".073" stroke-miterlimit="3.864" d="M343.7 187.9h1.9v4.3h-1.9v-4.3z"/><g fill="#5EC5ED"><path d="M238.4 195h107.2v4.3H238.4V195z"/><path stroke="#000" stroke-width=".073" stroke-miterlimit="3.864" d="M238.4 195h107.2v4.3H238.4V195z"/></g><path fill="#020405" d="M345.6 195h1.9v4.3h-1.9V195z"/><path fill="none" stroke="#020405" stroke-width=".073" stroke-miterlimit="3.864" d="M345.6 195h1.9v4.3h-1.9V195z"/><path d="M246.9 160.2c0-.4.2-.7.5-.7s.5.3.5.7c0 .4-.2.7-.5.7-.2 0-.5-.3-.5-.7z"/><path fill="none" stroke="#000" stroke-width=".092" stroke-miterlimit="3.864" d="M246.9 160.2c0-.4.2-.7.5-.7s.5.3.5.7c0 .4-.2.7-.5.7-.2 0-.5-.3-.5-.7z"/><path d="M248.8 164.4c0-.4.2-.7.5-.7s.5.3.5.7c0 .4-.2.7-.5.7-.3.1-.5-.3-.5-.7z"/><path fill="none" stroke="#000" stroke-width=".092" stroke-miterlimit="3.864" d="M248.8 164.4c0-.4.2-.7.5-.7s.5.3.5.7c0 .4-.2.7-.5.7-.3.1-.5-.3-.5-.7z"/><path d="M250.7 168.7c0-.4.2-.7.5-.7s.5.3.5.7c0 .4-.2.7-.5.7s-.5-.3-.5-.7z"/><path fill="none" stroke="#000" stroke-width=".092" stroke-miterlimit="3.864" d="M250.7 168.7c0-.4.2-.7.5-.7s.5.3.5.7c0 .4-.2.7-.5.7s-.5-.3-.5-.7z"/><path d="M252.6 173c0-.4.2-.7.5-.7s.5.3.5.7c0 .4-.2.7-.5.7s-.5-.3-.5-.7z"/><path fill="none" stroke="#000" stroke-width=".092" stroke-miterlimit="3.864" d="M252.6 173c0-.4.2-.7.5-.7s.5.3.5.7c0 .4-.2.7-.5.7s-.5-.3-.5-.7z"/><path d="M254.5 177.2c0-.4.2-.7.5-.7s.5.3.5.7c0 .4-.2.7-.5.7-.3.1-.5-.3-.5-.7z"/><path fill="none" stroke="#000" stroke-width=".092" stroke-miterlimit="3.864" d="M254.5 177.2c0-.4.2-.7.5-.7s.5.3.5.7c0 .4-.2.7-.5.7-.3.1-.5-.3-.5-.7z"/><path d="M300.1 160.2c0-.4.2-.7.5-.7s.5.3.5.7c0 .4-.2.7-.5.7s-.5-.3-.5-.7z"/><path fill="none" stroke="#000" stroke-width=".092" stroke-miterlimit="3.864" d="M300.1 160.2c0-.4.2-.7.5-.7s.5.3.5.7c0 .4-.2.7-.5.7s-.5-.3-.5-.7z"/><path d="M302 164.4c0-.4.2-.7.5-.7s.5.3.5.7c0 .4-.2.7-.5.7-.3.1-.5-.3-.5-.7z"/><path fill="none" stroke="#000" stroke-width=".092" stroke-miterlimit="3.864" d="M302 164.4c0-.4.2-.7.5-.7s.5.3.5.7c0 .4-.2.7-.5.7-.3.1-.5-.3-.5-.7z"/><path d="M303.8 168.7c0-.4.2-.7.5-.7s.5.3.5.7c0 .4-.2.7-.5.7-.2 0-.5-.3-.5-.7z"/><path fill="none" stroke="#000" stroke-width=".092" stroke-miterlimit="3.864" d="M303.8 168.7c0-.4.2-.7.5-.7s.5.3.5.7c0 .4-.2.7-.5.7-.2 0-.5-.3-.5-.7z"/><path d="M305.7 173c0-.4.2-.7.5-.7s.5.3.5.7c0 .4-.2.7-.5.7-.2 0-.5-.3-.5-.7z"/><path fill="none" stroke="#000" stroke-width=".092" stroke-miterlimit="3.864" d="M305.7 173c0-.4.2-.7.5-.7s.5.3.5.7c0 .4-.2.7-.5.7-.2 0-.5-.3-.5-.7z"/><path d="M307.6 177.2c0-.4.2-.7.5-.7s.5.3.5.7c0 .4-.2.7-.5.7-.2.1-.5-.3-.5-.7z"/><path fill="none" stroke="#000" stroke-width=".092" stroke-miterlimit="3.864" d="M307.6 177.2c0-.4.2-.7.5-.7s.5.3.5.7c0 .4-.2.7-.5.7-.2.1-.5-.3-.5-.7z"/><g fill="#5EC5ED"><path d="M371.8 81.2H479v4.3H371.8v-4.3z"/><path stroke="#000" stroke-width=".073" stroke-miterlimit="3.864" d="M371.8 81.2H479v4.3H371.8v-4.3z"/></g><path fill="#020405" d="M479 81.2h1.9v4.3H479v-4.3z"/><path fill="none" stroke="#020405" stroke-width=".073" stroke-miterlimit="3.864" d="M479 81.2h1.9v4.3H479v-4.3z"/><g fill="#5EC5ED"><path d="M373.7 88.3h107.2v4.3H373.7v-4.3z"/><path stroke="#000" stroke-width=".073" stroke-miterlimit="3.864" d="M373.7 88.3h107.2v4.3H373.7v-4.3z"/></g><path fill="#020405" d="M480.9 88.3h1.9v4.3h-1.9v-4.3z"/><path fill="none" stroke="#020405" stroke-width=".073" stroke-miterlimit="3.864" d="M480.9 88.3h1.9v4.3h-1.9v-4.3z"/><g fill="#5EC5ED"><path d="M375.6 95.4h107.2v4.3H375.6v-4.3z"/><path stroke="#000" stroke-width=".073" stroke-miterlimit="3.864" d="M375.6 95.4h107.2v4.3H375.6v-4.3z"/></g><path fill="#020405" d="M482.8 95.4h1.9v4.3h-1.9v-4.3z"/><path fill="none" stroke="#020405" stroke-width=".073" stroke-miterlimit="3.864" d="M482.8 95.4h1.9v4.3h-1.9v-4.3z"/><g fill="#5EC5ED"><path d="M377.5 102.6h107.2v4.2H377.5v-4.2z"/><path stroke="#000" stroke-width=".073" stroke-miterlimit="3.864" d="M377.5 102.6h107.2v4.2H377.5v-4.2z"/></g><path fill="#020405" d="M484.7 102.6h1.9v4.2h-1.9v-4.2z"/><path fill="none" stroke="#020405" stroke-width=".073" stroke-miterlimit="3.864" d="M484.7 102.6h1.9v4.2h-1.9v-4.2z"/><g fill="#5EC5ED"><path d="M379.4 109.7h107.2v4.2H379.4v-4.2z"/><path stroke="#000" stroke-width=".073" stroke-miterlimit="3.864" d="M379.4 109.7h107.2v4.2H379.4v-4.2z"/></g><path fill="#020405" d="M486.6 109.7h1.9v4.2h-1.9v-4.2z"/><path fill="none" stroke="#020405" stroke-width=".073" stroke-miterlimit="3.864" d="M486.6 109.7h1.9v4.2h-1.9v-4.2z"/><g fill="#5EC5ED"><path d="M381.3 116.8h107.2v4.2H381.3v-4.2z"/><path stroke="#000" stroke-width=".073" stroke-miterlimit="3.864" d="M381.3 116.8h107.2v4.2H381.3v-4.2z"/></g><path fill="#020405" d="M488.5 116.8h1.9v4.2h-1.9v-4.2z"/><path fill="none" stroke="#020405" stroke-width=".073" stroke-miterlimit="3.864" d="M488.5 116.8h1.9v4.2h-1.9v-4.2z"/><g fill="#5EC5ED"><path d="M383.2 123.9h107.2v4.3H383.2v-4.3z"/><path stroke="#000" stroke-width=".073" stroke-miterlimit="3.864" d="M383.2 123.9h107.2v4.3H383.2v-4.3z"/></g><path fill="#020405" d="M490.4 123.9h1.9v4.3h-1.9v-4.3z"/><path fill="none" stroke="#020405" stroke-width=".073" stroke-miterlimit="3.864" d="M490.4 123.9h1.9v4.3h-1.9v-4.3z"/><g fill="#5EC5ED"><path d="M385.1 131h107.2v4.3H385.1V131z"/><path stroke="#000" stroke-width=".073" stroke-miterlimit="3.864" d="M385.1 131h107.2v4.3H385.1V131z"/></g><path fill="#020405" d="M492.3 131h1.9v4.3h-1.9V131z"/><path fill="none" stroke="#020405" stroke-width=".073" stroke-miterlimit="3.864" d="M492.3 131h1.9v4.3h-1.9V131z"/><g fill="#5EC5ED"><path d="M387 138.1h107.2v4.3H387v-4.3z"/><path stroke="#000" stroke-width=".073" stroke-miterlimit="3.864" d="M387 138.1h107.2v4.3H387v-4.3z"/></g><path fill="#020405" d="M494.2 138.1h1.9v4.3h-1.9v-4.3z"/><path fill="none" stroke="#020405" stroke-width=".073" stroke-miterlimit="3.864" d="M494.2 138.1h1.9v4.3h-1.9v-4.3z"/><g fill="#5EC5ED"><path d="M388.9 145.2h107.2v4.3H388.9v-4.3z"/><path stroke="#000" stroke-width=".073" stroke-miterlimit="3.864" d="M388.9 145.2h107.2v4.3H388.9v-4.3z"/></g><path fill="#020405" d="M496.1 145.2h1.9v4.3h-1.9v-4.3z"/><path fill="none" stroke="#020405" stroke-width=".073" stroke-miterlimit="3.864" d="M496.1 145.2h1.9v4.3h-1.9v-4.3z"/><g fill="#5EC5ED"><path d="M390.8 152.3H498v4.3H390.8v-4.3z"/><path stroke="#000" stroke-width=".073" stroke-miterlimit="3.864" d="M390.8 152.3H498v4.3H390.8v-4.3z"/></g><path fill="#020405" d="M498 152.3h1.9v4.3H498v-4.3z"/><path fill="none" stroke="#020405" stroke-width=".073" stroke-miterlimit="3.864" d="M498 152.3h1.9v4.3H498v-4.3z"/><g fill="#5EC5ED"><path d="M411.7 180.8h107.1v4.3H411.7v-4.3z"/><path stroke="#000" stroke-width=".073" stroke-miterlimit="3.864" d="M411.7 180.8h107.1v4.3H411.7v-4.3z"/></g><path fill="#020405" d="M518.8 180.8h1.9v4.3h-1.9v-4.3z"/><path fill="none" stroke="#020405" stroke-width=".073" stroke-miterlimit="3.864" d="M518.8 180.8h1.9v4.3h-1.9v-4.3z"/><g fill="#5EC5ED"><path d="M413.6 187.9h107.1v4.3H413.6v-4.3z"/><path stroke="#000" stroke-width=".073" stroke-miterlimit="3.864" d="M413.6 187.9h107.1v4.3H413.6v-4.3z"/></g><path fill="#020405" d="M520.7 187.9h1.9v4.3h-1.9v-4.3z"/><path fill="none" stroke="#020405" stroke-width=".073" stroke-miterlimit="3.864" d="M520.7 187.9h1.9v4.3h-1.9v-4.3z"/><g fill="#5EC5ED"><path d="M415.5 195h107.1v4.3H415.5V195z"/><path stroke="#000" stroke-width=".073" stroke-miterlimit="3.864" d="M415.5 195h107.1v4.3H415.5V195z"/></g><path fill="#020405" d="M522.6 195h1.9v4.3h-1.9V195z"/><path fill="none" stroke="#020405" stroke-width=".073" stroke-miterlimit="3.864" d="M522.6 195h1.9v4.3h-1.9V195z"/><path d="M424 160.2c0-.4.2-.7.5-.7s.5.3.5.7c0 .4-.2.7-.5.7s-.5-.3-.5-.7z"/><path fill="none" stroke="#000" stroke-width=".092" stroke-miterlimit="3.864" d="M424 160.2c0-.4.2-.7.5-.7s.5.3.5.7c0 .4-.2.7-.5.7s-.5-.3-.5-.7z"/><path d="M425.9 164.4c0-.4.2-.7.5-.7s.5.3.5.7c0 .4-.2.7-.5.7-.3.1-.5-.3-.5-.7z"/><path fill="none" stroke="#000" stroke-width=".092" stroke-miterlimit="3.864" d="M425.9 164.4c0-.4.2-.7.5-.7s.5.3.5.7c0 .4-.2.7-.5.7-.3.1-.5-.3-.5-.7z"/><path d="M427.8 168.7c0-.4.2-.7.5-.7s.5.3.5.7c0 .4-.2.7-.5.7s-.5-.3-.5-.7z"/><path fill="none" stroke="#000" stroke-width=".092" stroke-miterlimit="3.864" d="M427.8 168.7c0-.4.2-.7.5-.7s.5.3.5.7c0 .4-.2.7-.5.7s-.5-.3-.5-.7z"/><path d="M429.7 173c0-.4.2-.7.5-.7s.5.3.5.7c0 .4-.2.7-.5.7s-.5-.3-.5-.7z"/><path fill="none" stroke="#000" stroke-width=".092" stroke-miterlimit="3.864" d="M429.7 173c0-.4.2-.7.5-.7s.5.3.5.7c0 .4-.2.7-.5.7s-.5-.3-.5-.7z"/><path d="M431.6 177.2c0-.4.2-.7.5-.7s.5.3.5.7c0 .4-.2.7-.5.7-.3.1-.5-.3-.5-.7z"/><path fill="none" stroke="#000" stroke-width=".092" stroke-miterlimit="3.864" d="M431.6 177.2c0-.4.2-.7.5-.7s.5.3.5.7c0 .4-.2.7-.5.7-.3.1-.5-.3-.5-.7z"/><path d="M477.1 160.2c0-.4.2-.7.5-.7s.5.3.5.7c0 .4-.2.7-.5.7s-.5-.3-.5-.7z"/><path fill="none" stroke="#000" stroke-width=".092" stroke-miterlimit="3.864" d="M477.1 160.2c0-.4.2-.7.5-.7s.5.3.5.7c0 .4-.2.7-.5.7s-.5-.3-.5-.7z"/><path d="M479 164.4c0-.4.2-.7.5-.7s.5.3.5.7c0 .4-.2.7-.5.7-.3.1-.5-.3-.5-.7z"/><path fill="none" stroke="#000" stroke-width=".092" stroke-miterlimit="3.864" d="M479 164.4c0-.4.2-.7.5-.7s.5.3.5.7c0 .4-.2.7-.5.7-.3.1-.5-.3-.5-.7z"/><path d="M480.9 168.7c0-.4.2-.7.5-.7s.5.3.5.7c0 .4-.2.7-.5.7s-.5-.3-.5-.7z"/><path fill="none" stroke="#000" stroke-width=".092" stroke-miterlimit="3.864" d="M480.9 168.7c0-.4.2-.7.5-.7s.5.3.5.7c0 .4-.2.7-.5.7s-.5-.3-.5-.7z"/><path d="M482.8 173c0-.4.2-.7.5-.7s.5.3.5.7c0 .4-.2.7-.5.7s-.5-.3-.5-.7z"/><path fill="none" stroke="#000" stroke-width=".092" stroke-miterlimit="3.864" d="M482.8 173c0-.4.2-.7.5-.7s.5.3.5.7c0 .4-.2.7-.5.7s-.5-.3-.5-.7z"/><path d="M484.7 177.2c0-.4.2-.7.5-.7s.5.3.5.7c0 .4-.2.7-.5.7-.3.1-.5-.3-.5-.7z"/><path fill="none" stroke="#000" stroke-width=".092" stroke-miterlimit="3.864" d="M484.7 177.2c0-.4.2-.7.5-.7s.5.3.5.7c0 .4-.2.7-.5.7-.3.1-.5-.3-.5-.7z"/><g clip-rule="evenodd"><path fill-rule="evenodd" d="M532.4 233.2v-3.9l9.9 3.9-9.9 4z"/><path fill="none" stroke="#000" stroke-miterlimit="3.864" d="M11.4 233.2h521.7"/></g><path clip-rule="evenodd" fill="none" stroke="#000" stroke-width=".612" stroke-miterlimit="3.864" d="M11.4 61h6.3m0 0V47.5m0 0h19.8m0 13.5V47.5m0 13.5h157.3m0 0V47.5m0 0h19.7m0 13.5V47.5m0 13.5h157.3m0 0V47.5m0 0h19.8m0 13.5V47.5m0 13.5h144.6"/><text transform="translate(444.774 262.14)" font-family="Helvetica,Arial,sans-serif" font-size="11.199">= Exposure</text><text transform="translate(444.853 277.908)" font-family="Helvetica,Arial,sans-serif" font-size="11.199">= Readout</text><text transform="translate(254.527 252.704)" font-family="Helvetica,Arial,sans-serif" font-size="13.687">Time</text><text transform="translate(245.967 213.517)" font-family="Helvetica,Arial,sans-serif" font-size="10.181">Frame acquisition n+1</text><text transform="translate(67.335 213.517)" font-family="Helvetica,Arial,sans-serif" font-size="10.181">Frame acquisition n</text><text transform="translate(423.743 213.517)" font-family="Helvetica,Arial,sans-serif" font-size="10.181">Frame acquisition n+2</text><text transform="translate(11.39 19.414)"><tspan x="0" y="0" font-family="Helvetica,Arial,sans-serif" font-size="13">Frame Start </tspan><tspan x="0" y="15.6" font-family="Helvetica,Arial,sans-serif" font-size="13">trigger signal</tspan></text></svg>