<svg version="1.0" xmlns="http://www.w3.org/2000/svg" viewBox="0 0 440 180"><path fill="none" stroke="#010202" stroke-width=".8" stroke-linecap="round" stroke-linejoin="round" stroke-miterlimit="10" d="M83.8 159.7l-.2-.2m30.3-138.8l.2.2m-36 138.6l-.2.2m41.7-138.8l.2-.2M83.4 159.3c-.2-1.4-1.5-2.4-2.9-2.2-1.1.2-2 1-2.2 2.2m36.1-138.2c.2 1.4 1.5 2.4 2.9 2.2 1.1-.2 2-1 2.2-2.2M47.8 34.4h2.8m0 0v5.4m0 0h-2.8m0 0v-5.4M35.2 53.2h-2.9m0 0v-5.4m0 0h2.9m0 0v5.4m1 34.8h-2.9m0 0v-5.4m0 0h2.9m0 0V88m73.5 3.7v5.7m0 0H96.3m0 0v-5.7m0 0h13.4m18.5-63.1c0 1.4 1.2 2.6 2.6 2.6s2.6-1.2 2.6-2.6c0-1.4-1.2-2.6-2.6-2.6s-2.6 1.2-2.6 2.6h0zm-9.4 5.3v-2.8m0 0h5.4m0 0v2.8m0 0h-5.4m11.6 44.8v-2.8m0 0h5.4m0 0v2.8m0 0h-5.4m-36.2 13v5.7m0 0H80.9m0 0v-5.7m0 0h13.3M66 47.3h2.9m0 0v5.4m0 0H66m0 0v-5.4m58.2-1.8h2.9m0 0v5.4m0 0h-2.9m0 0v-5.4M66 74.6h2.9m0 0V80m0 0H66m0 0v-5.4m0-37.8h2.9m0 0v5.4m0 0H66m0 0v-5.4m-15.4-5.2h-2.8m0 0v-5.4m0 0h2.8m0 0v5.4m19.8 30.6h2.9m0 0v5.5m0 0h-2.9m0 0v-5.5m58.2-16.7h2.8m0 0v5.4m0 0h-2.8m0 0v-5.4M89.2 83.4v-2.9m0 0h5.4m0 0v2.9m0 0h-5.4M29 71.3v-2.9m0 0h5.4m0 0v2.9m0 0H29m37 11.3h2.9m0 0V88m0 0H66m0 0v-5.4m-37-7v-2.8m0 0h5.4m0 0v2.8m0 0H29m51.2 7.8v-2.9m0 0h5.4m0 0v2.9m0 0h-5.4m-48.4 39.9v2.8m0 0h-5.4m0 0v-2.8m0 0h5.4m18.3-81.1V45m0 0h-5.4m0 0v-2.8m0 0h5.4m13.8 9.6v26.3m0 0H37.6m0 0V51.8m0 0h26.3M29 66.9V64m0 0h5.4m0 0v2.9m0 0H29m41.4-19.6h2.9m0 0v5.4m0 0h-2.9m0 0v-5.4M40.2 91.1v7.5m0 0H28.8m0 0v-7.5m0 0h11.4m9.1-41.5v-2.8m0 0h5.4m0 0v2.8m0 0h-5.4m77.8 10.3h-2.9m0 0v-5.4m0 0h2.9m0 0v5.4M77.6 77.7h-2.8m0 0v-5.4m0 0h2.8m0 0v5.4M26 130.6c0 1.1.9 2.1 2.1 2.1 1.1 0 2.1-.9 2.1-2.1s-.9-2.1-2.1-2.1c-1.2.1-2.1 1-2.1 2.1h0zm81.2-42.9v-2.8m0 0h5.5m0 0v2.8m0 0h-5.5M92.1 31.1v2.8m0 0h-5.5m0 0v-2.8m0 0h5.5M72.2 69.7v2.8m0 0h-5.4m0 0v-2.8m0 0h5.4m7.6 8.6V36.1m0 0H122m0 0v42.2m0 0H79.8M54.7 27.5v-2.8m0 0h5.4m0 0v2.8m0 0h-5.4m14.2 40.2H66m0 0v-5.5m0 0h2.9m0 0v5.5m-19.5 84c0 1.4 1.2 2.6 2.6 2.6 1.4 0 2.6-1.2 2.6-2.6 0-1.4-1.2-2.6-2.6-2.6-1.4 0-2.6 1.2-2.6 2.6h0zm48.8-68.3v-2.9m0 0h5.4m0 0v2.9m0 0h-5.4m57.7 33.9v2.9m0 0h-5.4m0 0v-2.9m0 0h5.4m-115.9 6v2.8m0 0h-5.4m0 0v-2.8m0 0H40m101.1-90.8c0 4.3 3.5 7.7 7.7 7.7 4.3 0 7.7-3.5 7.7-7.7 0-4.3-3.5-7.7-7.7-7.7s-7.7 3.4-7.7 7.7h0zm0 115.4c0 4.3 3.5 7.7 7.7 7.7 4.3 0 7.7-3.5 7.7-7.7 0-4.3-3.5-7.7-7.7-7.7-4.2-.1-7.7 3.4-7.7 7.7h0zm-115.3 0c0 4.3 3.5 7.7 7.7 7.7 4.3 0 7.7-3.5 7.7-7.7 0-4.3-3.5-7.7-7.7-7.7-4.3-.1-7.7 3.4-7.7 7.7h0zm0-115.4c0 4.3 3.5 7.7 7.7 7.7 4.3 0 7.7-3.5 7.7-7.7 0-4.3-3.5-7.7-7.7-7.7-4.3 0-7.7 3.4-7.7 7.7h0zm88.4-11.6l.2.2m-85-.4h84.5m-84.5 0c-4.3 0-7.7 3.5-7.7 7.7M21.6 152V28.4m0 123.6c0 4.3 3.5 7.7 7.7 7.7m.1 0h48.5m.4-.4l-.2.2m5.5 0l-.2-.2m69.5.4H83.8m69.1 0c4.3 0 7.7-3.5 7.7-7.7m.1-123.6V152m0-123.6c0-4.3-3.5-7.7-7.7-7.7m-.1 0h-33m-.5.4l.2-.2M63.2 46.8v2.8m-5.4-2.8h5.4m-5.4 2.8v-2.8m5.4 2.8h-5.4m19.8-7.4h-2.8m2.8-5.4v5.4m-2.8-5.4h2.8m-2.8 5.4v-5.4M27.7 56.3h2.8m-2.8 5.4v-5.4m2.8 5.4h-2.8m2.8-5.4v5.4m105.3 18.6v2.8m-5.4-2.8h5.4m-5.4 2.8v-2.8m5.4 2.8h-5.4m-75 8v7.5M44 91.1h11.4M44 98.6v-7.5m11.4 7.5H44m81.1-6.9v5.7m-13.3-5.7h13.3m-13.3 5.7v-5.7m13.3 5.7h-13.3M29 80v-2.8m5.4 2.8H29m5.4-2.8V80M29 77.2h5.4m40.4 5.4h2.8M74.8 88v-5.4m2.8 5.4h-2.8m2.8-5.4V88m46.6-15.5h2.9m-2.9 5.5v-5.5m2.9 5.5h-2.9m2.9-5.5V78M27 109.2h13.4M27 120.1v-10.9m13.4 10.9H27m13.4-10.9v10.9m64.3-90.6v-2.8m5.4 2.8h-5.4m5.4-2.8v2.8m-5.4-2.8h5.4M70.4 74.6h2.9M70.4 80v-5.4m2.9 5.4h-2.9m2.9-5.4V80m57.1-5.7v-2.8m5.4 2.8h-5.4m5.4-2.8v2.8m-5.4-2.8h5.4M41.1 88h-2.9m2.9-5.4V88m-2.9-5.4h2.9M38.2 88v-5.4m43.6-51.5v2.8m-5.5-2.8h5.5m-5.5 2.8v-2.8m5.5 2.8h-5.5M55.4 81.8v7.5M44 81.8h11.4M44 89.3v-7.5m11.4 7.5H44m-11.7-33h2.9m-2.9 5.4v-5.4m2.9 5.4h-2.9m2.9-5.4v5.4m112.2 55.6v2.9m-5.4-2.9h5.4m-5.4 2.9v-2.9m5.4 2.9H142m-17.8-56.9h2.9m-2.9 5.4v-5.4m2.9 5.4h-2.9m2.9-5.4v5.4m-5.4 11.8v2.9m-5.4-2.9h5.4m-5.4 2.9v-2.9m5.4 2.9h-5.4m-11.6-49.5v-2.8m5.4 2.8h-5.4m5.4-2.8v2.8m-5.4-2.8h5.4M78.8 91.7v5.7m-13.4-5.7h13.4m-13.4 5.7v-5.7m13.4 5.7H65.4m80.1 18.3v-15.5m7.2 15.5h-7.2m7.2-15.5v15.5m-7.2-15.5h7.2m-57-66.3v-2.8m5.4 2.8h-5.4m5.4-2.8v2.8m-5.4-2.8h5.4m6.1 52.3v-2.9m5.5 2.9h-5.5m5.5-2.9v2.9m-5.5-2.9h5.5M52.9 44.2V30.6M64 44.2H52.9M64 30.6v13.6M52.9 30.6H64m71.8 54v2.9m-5.4-2.9h5.4m-5.4 2.9v-2.9m5.4 2.9h-5.4M63.1 27.6v-3.1m5.7 3.1h-5.7m5.7-3.1v3.1m-5.7-3.1h5.7m50 5v-2.8m5.4 2.8h-5.4m5.4-2.8v2.8m-5.4-2.8h5.4M74.8 63.8h2.8m-2.8 5.4v-5.4m2.8 5.4h-2.8m2.8-5.4v5.4M46.2 46.8v2.8m-5.4-2.8h5.4m-5.4 2.8v-2.8m5.4 2.8h-5.4m-11.6 55.9v-4.9m9 4.9h-9m9-4.9v4.9m-9-4.9h9m24.9-4.2h-4.7m4.7-8.8v8.8m-4.7-8.8h4.7m-4.7 8.8v-8.8M30.8 53.5h-3.4m3.4-5.9v5.9m-3.4-5.9h3.4m-3.4 5.9v-5.9m96.8-11.1h2.9m-2.9 5.4v-5.4m2.9 5.4h-2.9m2.9-5.4v5.4M70.4 82.6h2.9M70.4 88v-5.4m2.9 5.4h-2.9m2.9-5.4V88m-42 0h-2.8m2.8-5.4V88m-2.8-5.4h2.8M28.5 88v-5.4m127.2 13.1v2.9m-5.5-2.9h5.5m-5.5 2.9v-2.9m5.5 2.9h-5.5M74.8 47.3h2.8m-2.8 5.4v-5.4m2.8 5.4h-2.8m2.8-5.4v5.4m-7.2-15.9h2.9m-2.9 5.4v-5.4m2.9 5.4h-2.9m2.9-5.4v5.4m29.7 63.3v-1m0 1v1.2m0 .3v-.3m-.6.3v-.3m0-1.2v1.2m0-1.2v-1m0 0h.6M51.6 107h79.1m-18-2.5h.6m0 1v-1m-.6 1v-1m-65.1 11h87.1m-81.9 2.3h3.3m.6 0h2m.6 0h1.9m.7 0h1.9m.6 0h2m.6 0h2m.6 0h1.9m.7 0h1.9m.6 0h2m.6 0h2m.6 0h1.9m.6 0h2m.6 0h2m.6 0h2m.6 0h1.9m.6 0h2m.6 0h2m.6 0h2m.6 0h1.9m.6 0h2m.6 0h2m.6 0h2m.6 0h1.9m.6 0h2m.6 0h2m.6 0h2m2.5 0h-1.9m4.5 0h-2m5.9 0h-3.3m-73.4 0v.9m0 0h-4.9m8.2.7v-.7m0 0v-3.2m0 3.9h.6m0 0v-.7m0 0h-.6m.6 0v-3.2m69.5 3.9h-.6m-2 0h-.6m-1.9 0h-.6m-2.6 0h.6m-3.2 0h.6m-3.2 0h.6m-3.1 0h.6m-3.2 0h.6m-3.2 0h.6m-3.2 0h.6m-3.1 0h.6m-3.2 0h.6m-3.2 0h.6m-3.2 0h.6m-3.1 0h.6m-3.2 0h.6m-3.2 0h.6m-3.2 0h.6m-3.1 0h.6m-3.2 0h.6m-3.2 0h.6m-3.2 0h.7m-3.2 0h.6m-3.2 0h.6m-3.2 0h.6m-3.2 0h.7m-3.2 0h.6m-11.4-.7v9.8m2.1 0h-2.1m2.1-5.7h82.3m0 5.7h2.1m0-9.8v9.8m-4.9-9.8h4.9m-4.9-.9v.9m-3.9.7v-.7m0-3.2v3.2m0 0h.6m0 0v-3.2m0 3.9v-.7m-2.6 0v-3.2m0 3.9v-.7m-.6 0h.6m-.6.7v-.7m0 0v-3.2m-1.9 3.2v-3.2m0 3.9v-.7m-.6 0h.6m-.6.7v-.7m0 0v-3.2m-4.6 3.2v-3.2m0 3.9v-.7m0 0h-.6m0 .7v-.7m0 0v-3.2m-2 0v3.2m0 .7v-.7m-.6.7v-.7m0-3.2v3.2m.6 0h-.6m-1.9 0v-3.2m0 3.9v-.7m0 0h-.6m0 .7v-.7m0 0v-3.2m-2 3.2v-3.2m0 3.9v-.7m0 0h-.6m0 .7v-.7m0 0v-3.2m-2 0v3.2m0 .7v-.7m-.6.7v-.7m0-3.2v3.2m.6 0h-.6m-2 0v-3.2m0 3.9v-.7m0 0h-.6m0 .7v-.7m0 0v-3.2m-1.9 3.2v-3.2m0 3.9v-.7m0 0h-.6m0 .7v-.7m0 0v-3.2m-2 3.2v-3.2m0 3.9v-.7m0 0h-.6m0 .7v-.7m0 0v-3.2m-2 3.2v-3.2m0 3.9v-.7m0 0h-.6m0 .7v-.7m0 0v-3.2m-2 3.2v-3.2m0 3.9v-.7m0 0h-.6m0 .7v-.7m0 0v-3.2m-1.9 3.2v-3.2m0 3.9v-.7m0 0h-.6m0 .7v-.7m0 0v-3.2m-2 0v3.2m0 .7v-.7m-.6.7v-.7m0-3.2v3.2m.6 0H87m-2 0v-3.2m0 3.9v-.7m0 0h-.6m0 .7v-.7m0 0v-3.2m-2 3.2v-3.2m0 3.9v-.7m0 0h-.6m0 .7v-.7m0 0v-3.2m-1.9 0v3.2m0 .7v-.7m-.6.7v-.7m0-3.2v3.2m.6 0h-.6m-2 0v-3.2m0 3.9v-.7m0 0h-.6m0 .7v-.7m0 0v-3.2m-2 3.2v-3.2m0 3.9v-.7m0 0h-.6m0 .7v-.7m0 0v-3.2m-1.9 0v3.2m0 .7v-.7m-.7.7v-.7m0-3.2v3.2m.7 0h-.7m-1.9 0v-3.2m0 3.9v-.7m0 0H69m0 .7v-.7m0 0v-3.2m-2 3.2v-3.2m0 3.9v-.7m0 0h-.6m0 .7v-.7m0 0v-3.2m-2 3.2v-3.2m0 3.9v-.7m0 0h-.6m0 .7v-.7m0 0v-3.2m-1.9 3.2v-3.2m0 3.9v-.7m0 0h-.7m0 .7v-.7m0 0v-3.2m-1.9 3.2v-3.2m0 3.9v-.7m0 0h-.6m0 .7v-.7m0 0v-3.2m73.6 19.6H50m82.3-1v1m-82.3-1v1m82.3-10.4v9.4M50 124.7h82.3m-82.3 0v9.4m0-11.3v1.9m82.3-1.9v1.9m-14.4-5.3v-.7m0 0v-3.2m.6 3.2v-3.2m0 3.9v-.7m0 0h-.6m-64.3-1.1v-2.1m-1 3.1h-2.1m3.1-1l-.2.2m-.6.7l-.2.1m-7.8 14.5h4.8m.4 0h-.4m.9-14.4v-3.2m78.2 2.1v-2.1m4 14.5v3.1m-6.5-27.6v-1m0 2.2v-1.2m0 1.5v-.3m11.3 26.4v-22.4m-7.8 7.9h2.1m2.9 11.4v-14.5m-6 2.1l.2.2m.6.7l.2.1M51.6 107v3.7m80.2 8v-3.2m-87-4.8h6.8m-2 19.3v3.1m-2-3.1h2m-2 0v-14.5m13.6 21.2v-.3m0 0v-.2m0-1.1v1.1m.7-1.1v1.1m0 .2v-.2m0 .5v-.3m0 .3h-.7m12.9 0v-.3m0 0v-.2m0-1.1v1.1m.6-1.1v1.1m0 .2v-.2m0 .5v-.3m0 .3h-.6m12.9 0v-.3m0 0v-.2m0-1.1v1.1m.6-1.1v1.1m0 .2v-.2m0 .5v-.3m0 .3H87m12.9 0v-.3m0 0v-.2m0-1.1v1.1m.6-1.1v1.1m0 .2v-.2m0 .5v-.3m0 .3h-.6m12.8 0v-.3m0 0v-.2m0-1.1v1.1m.6-1.1v1.1m0 .2v-.2m0 .5v-.3m0 .3h-.6m-63-1.6v-2m.3 2h-.3m-4.9-2v-22.4m68.5-3.7v-.3m-.6.3v-.3m12.9.3v-.3m0-1.2v1.2m0-1.2v-1m.6 0h-.6m-10.3 2.5v-.3m0-1.2v1.2m0-1.2v-1m.6 1v1.2m0-1.2v-1m0 2.5v-.3m-.6-2.2h.6m-5.7 2.5v-.3m0-1.2v1.2m0-1.2v-1m.6 1v1.2m0-1.2v-1m0 2.5v-.3m-.6-2.2h.6m7.1 2.5v-.3m0-1.2v1.2m0-1.2v-1m.6 1v1.2m0-1.2v-1m0 2.5v-.3m-.6-2.2h.6m5.1 1v-1m0 1v1.2m0 .3v-.3m-.6-1.2v1.2m.6-2.2h-.6m0 1v-1m0 2.5v-.3m-1.9-1.2v-1m0 1v1.2m0 .3v-.3m-.6-1.2v1.2m.6-2.2h-.6m0 1v-1m0 2.5v-.3m-64.4.3v-.3m0-1.2v1.2m0-1.2v-1m.6 1v1.2m0-1.2v-1m0 2.5v-.3m-.6-2.2h.6m2 2.5v-.3m0-1.2v1.2m0-1.2v-1m.6 1v1.2m0-1.2v-1m0 2.5v-.3m-.6-2.2h.6m1.9 2.5v-.3m0-1.2v1.2m0-1.2v-1m.7 1v1.2m0-1.2v-1m0 2.5v-.3m-.7-2.2h.7m1.9 2.5v-.3m0-1.2v1.2m0-1.2v-1m.6 1v1.2m0-1.2v-1m0 2.5v-.3m-.6-2.2h.6m2 2.5v-.3m0-1.2v1.2m0-1.2v-1m.6 1v1.2m0-1.2v-1m0 2.5v-.3m-.6-2.2h.6m2.6 1v-1m0 1v1.2m0 .3v-.3m-.6-1.2v1.2m0-2.2h.6m-.6 1v-1m0 2.5v-.3m2.5.3v-.3m0-1.2v1.2m0-1.2v-1m.7 1v1.2m0-1.2v-1m0 2.5v-.3m-.7-2.2h.7m1.9 2.5v-.3m0-1.2v1.2m0-1.2v-1m.6 1v1.2m0-1.2v-1m0 2.5v-.3m-.6-2.2h.6m2 2.5v-.3m0-1.2v1.2m0-1.2v-1m.6 1v1.2m0-1.2v-1m0 2.5v-.3m-.6-2.2h.6m2 2.5v-.3m0-1.2v1.2m0-1.2v-1m.6 1v1.2m0-1.2v-1m0 2.5v-.3m-.6-2.2h.6m1.9 2.5v-.3m0-1.2v1.2m0-1.2v-1m.6 1v1.2m0-1.2v-1m0 2.5v-.3m-.6-2.2h.6m2 2.5v-.3m0-1.2v1.2m0-1.2v-1m.6 1v1.2m0-1.2v-1m0 2.5v-.3m-.6-2.2h.6m2.6 1v-1m0 1v1.2m0 .3v-.3m-.6-1.2v1.2m0-2.2h.6m-.6 1v-1m0 2.5v-.3m2.6.3v-.3m0-1.2v1.2m0-1.2v-1m.6 1v1.2m0-1.2v-1m0 2.5v-.3m-.6-2.2h.6m1.9 2.5v-.3m0-1.2v1.2m0-1.2v-1m.6 1v1.2m0-1.2v-1m0 2.5v-.3m-.6-2.2h.6m2 2.5v-.3m0-1.2v1.2m0-1.2v-1m.6 1v1.2m0-1.2v-1m0 2.5v-.3m-.6-2.2h.6m2 2.5v-.3m0-1.2v1.2m0-1.2v-1m.6 1v1.2m0-1.2v-1m0 2.5v-.3m-.6-2.2h.6m2.6 1v-1m0 1v1.2m0 .3v-.3m-.6-1.2v1.2m0-2.2h.6m-.6 1v-1m0 2.5v-.3m5.1.3v-.3m0-1.2v1.2m0-1.2v-1m.6 1v1.2m0-1.2v-1m0 2.5v-.3m-.6-2.2h.6m2 2.5v-.3m0-1.2v1.2m0-1.2v-1m.6 1v1.2m0-1.2v-1m0 2.5v-.3m-.6-2.2h.6m4.5 1v1.2m.6-1.2v1.2m19 26.4h.4m2-3.1h-2m-2-23v3.7m6.8 22.4h-4.8m4.8-22.4h-6.8m1.9 24.4v-2m-.3 2h.3m5.9-102.6h20.6m-10.3 10.3V22.2m-10.3 125.7h20.6m-10.3 10.3v-20.6M23.2 147.9h20.6m-10.3 10.3v-20.6M23.2 32.5h20.6M33.5 42.8V22.2m115.3 125.7h10.3M148.8 32.5h10.3m-10.3 115.4h0m0-115.4h0"/><path fill="none" stroke="#000" stroke-miterlimit="10" d="M122 28.3h102.7M94.2 128.7h130.5"/><text transform="translate(235.447 133.241)" font-family="Helvetica,Arial,sans-serif" font-size="14">FFC connector</text><text transform="translate(235.447 32.925)" font-family="Helvetica,Arial,sans-serif" font-size="14">Status LED</text></svg>