<svg version="1.0" xmlns="http://www.w3.org/2000/svg" viewBox="0 0 510 358"><path fill="#5EC5ED" d="M52.4 66.1h315.3v8.4H52.4v-8.4z"/><path fill="#5EC5ED" stroke="#000" stroke-width=".2" stroke-miterlimit="3.864" d="M52.4 66.1h315.3v8.4H52.4v-8.4z"/><path fill="#020405" d="M367.7 66.1h5.6v8.4h-5.6v-8.4z"/><path fill="none" stroke="#020405" stroke-width=".2" stroke-miterlimit="3.864" d="M367.7 66.1h5.6v8.4h-5.6v-8.4z"/><path fill="#5EC5ED" d="M52.4 80h320.9v8.4H52.4V80z"/><path fill="#5EC5ED" stroke="#000" stroke-width=".2" stroke-miterlimit="3.864" d="M52.4 80h320.9v8.4H52.4V80z"/><path fill="#020405" d="M373.3 80h5.5v8.4h-5.5V80z"/><path fill="none" stroke="#020405" stroke-width=".2" stroke-miterlimit="3.864" d="M373.3 80h5.5v8.4h-5.5V80z"/><path fill="#5EC5ED" d="M52.4 94h326.4v8.4H52.4V94z"/><path fill="#5EC5ED" stroke="#000" stroke-width=".2" stroke-miterlimit="3.864" d="M52.4 94h326.4v8.4H52.4V94z"/><path fill="#020405" d="M378.8 94h5.6v8.4h-5.6V94z"/><path fill="none" stroke="#020405" stroke-width=".2" stroke-miterlimit="3.864" d="M378.8 94h5.6v8.4h-5.6V94z"/><path fill="#5EC5ED" d="M52.4 107.9h332v8.4h-332v-8.4z"/><path fill="#5EC5ED" stroke="#000" stroke-width=".2" stroke-miterlimit="3.864" d="M52.4 107.9h332v8.4h-332v-8.4z"/><path fill="#020405" d="M384.4 107.9h5.6v8.4h-5.6v-8.4z"/><path fill="none" stroke="#020405" stroke-width=".2" stroke-miterlimit="3.864" d="M384.4 107.9h5.6v8.4h-5.6v-8.4z"/><path fill="#5EC5ED" d="M52.4 121.9H390v8.4H52.4v-8.4z"/><path fill="#5EC5ED" stroke="#000" stroke-width=".2" stroke-miterlimit="3.864" d="M52.4 121.9H390v8.4H52.4v-8.4z"/><path fill="#020405" d="M390 121.9h5.6v8.4H390v-8.4z"/><path fill="none" stroke="#020405" stroke-width=".2" stroke-miterlimit="3.864" d="M390 121.9h5.6v8.4H390v-8.4z"/><path fill="#5EC5ED" d="M52.4 135.9h343.2v8.3H52.4v-8.3z"/><path fill="#5EC5ED" stroke="#000" stroke-width=".2" stroke-miterlimit="3.864" d="M52.4 135.9h343.2v8.3H52.4v-8.3z"/><path fill="#020405" d="M395.6 135.9h5.6v8.3h-5.6v-8.3z"/><path fill="none" stroke="#020405" stroke-width=".2" stroke-miterlimit="3.864" d="M395.6 135.9h5.6v8.3h-5.6v-8.3z"/><path fill="#5EC5ED" d="M52.4 149.8h348.8v8.4H52.4v-8.4z"/><path fill="#5EC5ED" stroke="#000" stroke-width=".2" stroke-miterlimit="3.864" d="M52.4 149.8h348.8v8.4H52.4v-8.4z"/><path fill="#020405" d="M401.2 149.8h5.5v8.4h-5.5v-8.4z"/><path fill="none" stroke="#020405" stroke-width=".2" stroke-miterlimit="3.864" d="M401.2 149.8h5.5v8.4h-5.5v-8.4z"/><path fill="#5EC5ED" d="M52.4 163.8h354.3v8.3H52.4v-8.3z"/><path fill="#5EC5ED" stroke="#000" stroke-width=".2" stroke-miterlimit="3.864" d="M52.4 163.8h354.3v8.3H52.4v-8.3z"/><path fill="#020405" d="M406.7 163.8h5.6v8.3h-5.6v-8.3z"/><path fill="none" stroke="#020405" stroke-width=".2" stroke-miterlimit="3.864" d="M406.7 163.8h5.6v8.3h-5.6v-8.3z"/><path fill="#5EC5ED" d="M52.4 177.7h359.9v8.4H52.4v-8.4z"/><path fill="#5EC5ED" stroke="#000" stroke-width=".2" stroke-miterlimit="3.864" d="M52.4 177.7h359.9v8.4H52.4v-8.4z"/><path fill="#020405" d="M412.3 177.7h5.6v8.4h-5.6v-8.4z"/><path fill="none" stroke="#020405" stroke-width=".2" stroke-miterlimit="3.864" d="M412.3 177.7h5.6v8.4h-5.6v-8.4z"/><path fill="#5EC5ED" d="M52.4 191.7h365.5v8.3H52.4v-8.3z"/><path fill="#5EC5ED" stroke="#000" stroke-width=".2" stroke-miterlimit="3.864" d="M52.4 191.7h365.5v8.3H52.4v-8.3z"/><path fill="#020405" d="M417.9 191.7h5.6v8.3h-5.6v-8.3z"/><path fill="none" stroke="#020405" stroke-width=".2" stroke-miterlimit="3.864" d="M417.9 191.7h5.6v8.3h-5.6v-8.3z"/><path fill="#5EC5ED" d="M52.4 205.6h371.1v8.4H52.4v-8.4z"/><path fill="#5EC5ED" stroke="#000" stroke-width=".2" stroke-miterlimit="3.864" d="M52.4 205.6h371.1v8.4H52.4v-8.4z"/><path fill="#020405" d="M423.5 205.6h5.6v8.4h-5.6v-8.4z"/><path fill="none" stroke="#020405" stroke-width=".2" stroke-miterlimit="3.864" d="M423.5 205.6h5.6v8.4h-5.6v-8.4z"/><path fill="#5EC5ED" d="M52.4 261.4h432.5v8.4H52.4v-8.4z"/><path fill="#5EC5ED" stroke="#000" stroke-width=".2" stroke-miterlimit="3.864" d="M52.4 261.4h432.5v8.4H52.4v-8.4z"/><path fill="#020405" d="M484.9 261.4h5.5v8.4h-5.5v-8.4z"/><path fill="none" stroke="#020405" stroke-width=".2" stroke-miterlimit="3.864" d="M484.9 261.4h5.5v8.4h-5.5v-8.4z"/><path fill="#5EC5ED" d="M52.4 275.4h438v8.3h-438v-8.3z"/><path fill="#5EC5ED" stroke="#000" stroke-width=".2" stroke-miterlimit="3.864" d="M52.4 275.4h438v8.3h-438v-8.3z"/><path fill="#020405" d="M490.4 275.4h5.6v8.3h-5.6v-8.3z"/><path fill="none" stroke="#020405" stroke-width=".2" stroke-miterlimit="3.864" d="M490.4 275.4h5.6v8.3h-5.6v-8.3z"/><g fill="#5EC5ED"><path d="M52.4 289.3H496v8.4H52.4v-8.4z"/><path stroke="#000" stroke-width=".2" stroke-miterlimit="3.864" d="M52.4 289.3H496v8.4H52.4v-8.4z"/></g><path fill="#020405" d="M496 289.3h5.6v8.4H496v-8.4z"/><path fill="none" stroke="#020405" stroke-width=".2" stroke-miterlimit="3.864" d="M496 289.3h5.6v8.4H496v-8.4z"/><path clip-rule="evenodd" fill="none" stroke="#000" stroke-width=".5" stroke-miterlimit="3.864" d="M423.5 146.7v44.7m5.6-44.7v58.6"/><g clip-rule="evenodd"><path fill-rule="evenodd" d="M434.1 152.3v1.9l-4.7-1.9 4.7-1.9z"/><path fill="none" stroke="#000" stroke-width=".5" stroke-miterlimit="3.864" d="M433.8 152.3h12"/></g><g clip-rule="evenodd"><path fill-rule="evenodd" d="M418.4 152.3v-1.9l4.8 1.9-4.8 1.9z"/><path fill="none" stroke="#000" stroke-width=".5" stroke-miterlimit="3.864" d="M418.7 152.3h-6.4"/></g><path clip-rule="evenodd" fill="none" stroke="#000" stroke-width=".5" stroke-miterlimit="3.864" d="M52.4 66.1V312M367.7 33.9v32.2"/><g clip-rule="evenodd"><path fill-rule="evenodd" d="M372.8 55.7v1.9l-4.8-1.9 4.8-1.9zm123.7 0v-1.9l4.8 1.9-4.8 1.9z"/><path fill="none" stroke="#000" stroke-width=".5" stroke-miterlimit="3.864" d="M372.5 55.7h124.3"/></g><g fill="#5EC5ED"><path d="M413 320.7h25.1v8.3H413v-8.3z"/><path stroke="#000" stroke-width=".2" stroke-miterlimit="3.864" d="M413 320.7h25.1v8.3H413v-8.3z"/></g><path fill="#020405" d="M432.6 338.2h5.5v8.4h-5.5v-8.4z"/><path fill="none" stroke="#020405" stroke-width=".2" stroke-miterlimit="3.864" d="M432.6 338.2h5.5v8.4h-5.5v-8.4z"/><path d="M111 221c0-.8.6-1.4 1.4-1.4.8 0 1.4.6 1.4 1.4 0 .8-.6 1.4-1.4 1.4-.8 0-1.4-.7-1.4-1.4z"/><path fill="none" stroke="#000" stroke-width=".25" stroke-miterlimit="3.864" d="M111 221c0-.8.6-1.4 1.4-1.4.8 0 1.4.6 1.4 1.4 0 .8-.6 1.4-1.4 1.4-.8 0-1.4-.7-1.4-1.4z"/><path d="M111 229.3c0-.8.6-1.4 1.4-1.4.8 0 1.4.6 1.4 1.4 0 .8-.6 1.4-1.4 1.4-.8 0-1.4-.6-1.4-1.4z"/><path fill="none" stroke="#000" stroke-width=".25" stroke-miterlimit="3.864" d="M111 229.3c0-.8.6-1.4 1.4-1.4.8 0 1.4.6 1.4 1.4 0 .8-.6 1.4-1.4 1.4-.8 0-1.4-.6-1.4-1.4z"/><path d="M111 237.7c0-.8.6-1.4 1.4-1.4.8 0 1.4.6 1.4 1.4 0 .8-.6 1.4-1.4 1.4-.8 0-1.4-.6-1.4-1.4z"/><path fill="none" stroke="#000" stroke-width=".25" stroke-miterlimit="3.864" d="M111 237.7c0-.8.6-1.4 1.4-1.4.8 0 1.4.6 1.4 1.4 0 .8-.6 1.4-1.4 1.4-.8 0-1.4-.6-1.4-1.4z"/><path d="M111 246.1c0-.8.6-1.4 1.4-1.4.8 0 1.4.6 1.4 1.4 0 .8-.6 1.4-1.4 1.4-.8 0-1.4-.7-1.4-1.4z"/><path fill="none" stroke="#000" stroke-width=".25" stroke-miterlimit="3.864" d="M111 246.1c0-.8.6-1.4 1.4-1.4.8 0 1.4.6 1.4 1.4 0 .8-.6 1.4-1.4 1.4-.8 0-1.4-.7-1.4-1.4z"/><path d="M111 254.4c0-.8.6-1.4 1.4-1.4.8 0 1.4.6 1.4 1.4 0 .8-.6 1.4-1.4 1.4-.8 0-1.4-.6-1.4-1.4z"/><path fill="none" stroke="#000" stroke-width=".25" stroke-miterlimit="3.864" d="M111 254.4c0-.8.6-1.4 1.4-1.4.8 0 1.4.6 1.4 1.4 0 .8-.6 1.4-1.4 1.4-.8 0-1.4-.6-1.4-1.4z"/><path d="M362.1 221c0-.8.6-1.4 1.4-1.4.8 0 1.4.6 1.4 1.4 0 .8-.6 1.4-1.4 1.4-.8 0-1.4-.7-1.4-1.4z"/><path fill="none" stroke="#000" stroke-width=".25" stroke-miterlimit="3.864" d="M362.1 221c0-.8.6-1.4 1.4-1.4.8 0 1.4.6 1.4 1.4 0 .8-.6 1.4-1.4 1.4-.8 0-1.4-.7-1.4-1.4z"/><path d="M367.7 229.3c0-.8.6-1.4 1.4-1.4.8 0 1.4.6 1.4 1.4 0 .8-.6 1.4-1.4 1.4-.8 0-1.4-.6-1.4-1.4z"/><path fill="none" stroke="#000" stroke-width=".25" stroke-miterlimit="3.864" d="M367.7 229.3c0-.8.6-1.4 1.4-1.4.8 0 1.4.6 1.4 1.4 0 .8-.6 1.4-1.4 1.4-.8 0-1.4-.6-1.4-1.4z"/><path d="M373.3 237.7c0-.8.6-1.4 1.4-1.4.8 0 1.4.6 1.4 1.4 0 .8-.6 1.4-1.4 1.4-.8 0-1.4-.6-1.4-1.4z"/><path fill="none" stroke="#000" stroke-width=".25" stroke-miterlimit="3.864" d="M373.3 237.7c0-.8.6-1.4 1.4-1.4.8 0 1.4.6 1.4 1.4 0 .8-.6 1.4-1.4 1.4-.8 0-1.4-.6-1.4-1.4z"/><path d="M378.8 246.1c0-.8.6-1.4 1.4-1.4.8 0 1.4.6 1.4 1.4 0 .8-.6 1.4-1.4 1.4-.7 0-1.4-.7-1.4-1.4z"/><path fill="none" stroke="#000" stroke-width=".25" stroke-miterlimit="3.864" d="M378.8 246.1c0-.8.6-1.4 1.4-1.4.8 0 1.4.6 1.4 1.4 0 .8-.6 1.4-1.4 1.4-.7 0-1.4-.7-1.4-1.4z"/><path d="M384.4 254.4c0-.8.6-1.4 1.4-1.4.8 0 1.4.6 1.4 1.4 0 .8-.6 1.4-1.4 1.4-.8 0-1.4-.6-1.4-1.4z"/><path fill="none" stroke="#000" stroke-width=".25" stroke-miterlimit="3.864" d="M384.4 254.4c0-.8.6-1.4 1.4-1.4.8 0 1.4.6 1.4 1.4 0 .8-.6 1.4-1.4 1.4-.8 0-1.4-.6-1.4-1.4z"/><g clip-rule="evenodd"><path fill-rule="evenodd" d="M52.4 51.4h4.5l-4.5 11.3-4.6-11.3z"/><path fill="none" stroke="#000" stroke-width="1.5" stroke-miterlimit="3.864" d="M52.4 41v11.1"/></g><path d="M26.8 120.7c0-.8.7-1.5 1.5-1.5s1.5.7 1.5 1.5-.7 1.5-1.5 1.5-1.5-.6-1.5-1.5z"/><path fill="none" stroke="#000" stroke-width=".25" stroke-miterlimit="3.864" d="M26.8 120.7c0-.8.7-1.5 1.5-1.5s1.5.7 1.5 1.5-.7 1.5-1.5 1.5-1.5-.6-1.5-1.5z"/><path d="M26.8 129.8c0-.8.7-1.5 1.5-1.5s1.5.7 1.5 1.5-.7 1.5-1.5 1.5-1.5-.7-1.5-1.5z"/><path fill="none" stroke="#000" stroke-width=".25" stroke-miterlimit="3.864" d="M26.8 129.8c0-.8.7-1.5 1.5-1.5s1.5.7 1.5 1.5-.7 1.5-1.5 1.5-1.5-.7-1.5-1.5z"/><path d="M26.8 138.8c0-.8.7-1.5 1.5-1.5s1.5.7 1.5 1.5-.7 1.5-1.5 1.5-1.5-.6-1.5-1.5z"/><path fill="none" stroke="#000" stroke-width=".25" stroke-miterlimit="3.864" d="M26.8 138.8c0-.8.7-1.5 1.5-1.5s1.5.7 1.5 1.5-.7 1.5-1.5 1.5-1.5-.6-1.5-1.5z"/><path d="M26.8 147.9c0-.8.7-1.5 1.5-1.5s1.5.7 1.5 1.5-.7 1.5-1.5 1.5-1.5-.7-1.5-1.5z"/><path fill="none" stroke="#000" stroke-width=".25" stroke-miterlimit="3.864" d="M26.8 147.9c0-.8.7-1.5 1.5-1.5s1.5.7 1.5 1.5-.7 1.5-1.5 1.5-1.5-.7-1.5-1.5z"/><path d="M26.8 156.9c0-.8.7-1.5 1.5-1.5s1.5.7 1.5 1.5-.7 1.5-1.5 1.5-1.5-.7-1.5-1.5z"/><path fill="none" stroke="#000" stroke-width=".25" stroke-miterlimit="3.864" d="M26.8 156.9c0-.8.7-1.5 1.5-1.5s1.5.7 1.5 1.5-.7 1.5-1.5 1.5-1.5-.7-1.5-1.5z"/><path d="M26.8 166.2c0-.8.7-1.5 1.5-1.5s1.5.7 1.5 1.5-.7 1.5-1.5 1.5-1.5-.6-1.5-1.5z"/><path fill="none" stroke="#000" stroke-width=".25" stroke-miterlimit="3.864" d="M26.8 166.2c0-.8.7-1.5 1.5-1.5s1.5.7 1.5 1.5-.7 1.5-1.5 1.5-1.5-.6-1.5-1.5z"/><path d="M26.8 175.3c0-.8.7-1.5 1.5-1.5s1.5.7 1.5 1.5-.7 1.5-1.5 1.5-1.5-.7-1.5-1.5z"/><path fill="none" stroke="#000" stroke-width=".25" stroke-miterlimit="3.864" d="M26.8 175.3c0-.8.7-1.5 1.5-1.5s1.5.7 1.5 1.5-.7 1.5-1.5 1.5-1.5-.7-1.5-1.5z"/><circle cx="28.3" cy="184.3" r="1.5"/><circle fill="none" stroke="#000" stroke-width=".25" stroke-miterlimit="3.864" cx="28.3" cy="184.3" r="1.5"/><path d="M26.8 193.4c0-.8.7-1.5 1.5-1.5s1.5.7 1.5 1.5-.7 1.5-1.5 1.5-1.5-.7-1.5-1.5z"/><path fill="none" stroke="#000" stroke-width=".25" stroke-miterlimit="3.864" d="M26.8 193.4c0-.8.7-1.5 1.5-1.5s1.5.7 1.5 1.5-.7 1.5-1.5 1.5-1.5-.7-1.5-1.5z"/><path d="M26.8 202.4c0-.8.7-1.5 1.5-1.5s1.5.7 1.5 1.5-.7 1.5-1.5 1.5-1.5-.7-1.5-1.5z"/><path fill="none" stroke="#000" stroke-width=".25" stroke-miterlimit="3.864" d="M26.8 202.4c0-.8.7-1.5 1.5-1.5s1.5.7 1.5 1.5-.7 1.5-1.5 1.5-1.5-.7-1.5-1.5z"/><path d="M26.8 211.7c0-.8.7-1.5 1.5-1.5s1.5.7 1.5 1.5-.7 1.5-1.5 1.5-1.5-.6-1.5-1.5z"/><path fill="none" stroke="#000" stroke-width=".25" stroke-miterlimit="3.864" d="M26.8 211.7c0-.8.7-1.5 1.5-1.5s1.5.7 1.5 1.5-.7 1.5-1.5 1.5-1.5-.6-1.5-1.5z"/><path d="M26.8 220.8c0-.8.7-1.5 1.5-1.5s1.5.7 1.5 1.5-.7 1.5-1.5 1.5-1.5-.7-1.5-1.5z"/><path fill="none" stroke="#000" stroke-width=".25" stroke-miterlimit="3.864" d="M26.8 220.8c0-.8.7-1.5 1.5-1.5s1.5.7 1.5 1.5-.7 1.5-1.5 1.5-1.5-.7-1.5-1.5z"/><path d="M26.8 229.8c0-.8.7-1.5 1.5-1.5s1.5.7 1.5 1.5-.7 1.5-1.5 1.5-1.5-.6-1.5-1.5z"/><path fill="none" stroke="#000" stroke-width=".25" stroke-miterlimit="3.864" d="M26.8 229.8c0-.8.7-1.5 1.5-1.5s1.5.7 1.5 1.5-.7 1.5-1.5 1.5-1.5-.6-1.5-1.5z"/><path d="M26.8 238.9c0-.8.7-1.5 1.5-1.5s1.5.7 1.5 1.5-.7 1.5-1.5 1.5-1.5-.7-1.5-1.5z"/><path fill="none" stroke="#000" stroke-width=".25" stroke-miterlimit="3.864" d="M26.8 238.9c0-.8.7-1.5 1.5-1.5s1.5.7 1.5 1.5-.7 1.5-1.5 1.5-1.5-.7-1.5-1.5z"/><path d="M26.8 247.9c0-.8.7-1.5 1.5-1.5s1.5.7 1.5 1.5-.7 1.5-1.5 1.5-1.5-.6-1.5-1.5z"/><path fill="none" stroke="#000" stroke-width=".25" stroke-miterlimit="3.864" d="M26.8 247.9c0-.8.7-1.5 1.5-1.5s1.5.7 1.5 1.5-.7 1.5-1.5 1.5-1.5-.6-1.5-1.5z"/><path clip-rule="evenodd" fill="none" stroke="#000" stroke-width=".5" stroke-miterlimit="3.864" d="M501.9 33.9V312"/><text transform="translate(445.272 329.143)" font-family="Helvetica,Arial,sans-serif" font-size="11">= Exposure</text><text transform="translate(26.344 18.832)"><tspan x="0" y="0" font-family="Helvetica,Arial,sans-serif" font-size="11">Frame start</tspan><tspan x="6.3" y="13.2" font-family="Helvetica,Arial,sans-serif" font-size="11">triggered</tspan></text><text transform="translate(445.272 346.48)" font-family="Helvetica,Arial,sans-serif" font-size="11">= Readout</text><text transform="translate(386.06 51.635)" font-family="Helvetica,Arial,sans-serif" font-size="11">Sensor readout time</text><text transform="translate(15.188 73.34)" font-family="Helvetica,Arial,sans-serif" font-size="11">Row 1</text><text transform="translate(15.188 88.165)" font-family="Helvetica,Arial,sans-serif" font-size="11">Row 2</text><text transform="translate(15.188 102.85)" font-family="Helvetica,Arial,sans-serif" font-size="11">Row 3</text><text transform="translate(6.084 268.743)" font-family="Helvetica,Arial,sans-serif" font-size="11">Row n-2</text><text transform="translate(6.084 283.567)" font-family="Helvetica,Arial,sans-serif" font-size="11">Row n-1</text><text transform="translate(15.295 297.392)" font-family="Helvetica,Arial,sans-serif" font-size="11">Row n</text><text transform="translate(450.592 152.803)" font-family="Helvetica,Arial,sans-serif" font-size="11">t</text><text transform="matrix(.583 0 0 .583 454.185 156.466)" font-family="Helvetica,Arial,sans-serif" font-size="11">Row</text></svg>