<svg version="1.0" xmlns="http://www.w3.org/2000/svg" viewBox="0 0 520 410"><g clip-rule="evenodd"><path fill-rule="evenodd" fill="#1D1D1B" d="M498.6 377.4v-4.2l10.4 4.2-10.4 4.2z"/><path fill="none" stroke="#1D1D1B" stroke-width="2.5" stroke-miterlimit="3.864" d="M82.5 377.4h416.8"/></g><g clip-rule="evenodd"><path fill-rule="evenodd" fill="#80FF80" d="M290.8 332h15.4v10.5h-15.4z"/><path fill="none" stroke="#80FF80" stroke-miterlimit="3.864" d="M290.8 332h15.4v10.5h-15.4z"/></g><g clip-rule="evenodd"><path fill-rule="evenodd" fill="#B3B3B3" d="M308.2 356.6h4.8l-4.8 12.1-4.8-12.1z"/><path fill="none" stroke="#B3B3B3" stroke-width="3" stroke-miterlimit="3.864" stroke-dasharray="2,2" d="M308.2 346.1v11.3"/></g><path clip-rule="evenodd" fill="none" stroke="#1D1D1B" stroke-miterlimit="3.864" d="M79 293.4h41.1m0-15.7v15.7m5.3-15.7v15.7m-5.3-15.7h5.3m0 15.7h36.7m0-15.7v15.7m5.3-15.7v15.7m-5.3-15.7h5.3m0 15.7h36.7m0-15.7v15.7m5.3-15.7v15.7m-5.3-15.7h5.3m78.7 0v15.7m5.2-15.7v15.7m-5.2-15.7h5.2m0 15.7h36.8m0-15.7v15.7m5.2-15.7v15.7m-5.2-15.7h5.2m0 15.7h36.8m0-15.7v15.7m5.2-15.7v15.7m-5.2-15.7h5.2m-167.9 15.8h36.7m0-15.8v15.8m5.3-15.8v15.8m-5.3-15.8h5.3m0 15.8h36.7m168-15.8v15.7m5.2-15.7v15.7m-5.2-15.7h5.2m0 15.7h33.6m-117.6.1h36.8m0-15.8v15.8m5.2-15.8v15.8m-5.2-15.8h5.2m0 15.8h36.8"/><path clip-rule="evenodd" fill="none" stroke="#999" stroke-width="1.8" stroke-miterlimit="3.864" d="M93.8 217.2v134.7"/><path clip-rule="evenodd" fill="none" stroke="#1D1D1B" stroke-miterlimit="3.864" d="M79 244.7h39.6m-.8 0H134m-.5 0h28.6m0 0h5.3m0 0h36.7m0 0h5.3m78.6.1h19.1m-.4-15.8v15.7m-.2-15.7h113.1m-211.7 15.7h31.5M239 229v15.8m13.1-15.8v15.8M238.6 229h13.9m-.8 15.8h36.4M449.8 229v15.7m-.2-15.7H464m-.7 0h31.6m-75.6 0v15.8m-.4 0h31.2m-334.8 48.6h5.2"/><g clip-rule="evenodd"><path fill-rule="evenodd" fill="#80FF80" d="M206.8 331.9h15.4v10.5h-15.4z"/><path fill="none" stroke="#80FF80" stroke-miterlimit="3.864" d="M206.8 331.9h15.4v10.5h-15.4z"/></g><g clip-rule="evenodd"><path fill-rule="evenodd" fill="#B3B3B3" d="M224.2 356.6h4.9l-4.9 12-4.8-12z"/><path fill="none" stroke="#B3B3B3" stroke-width="3" stroke-miterlimit="3.864" stroke-dasharray="2,2" d="M224.2 346v11.4"/></g><g clip-rule="evenodd"><path fill-rule="evenodd" fill="#1D1D1B" d="M204.1 300.6l2.3 4.6 2.3-4.6z"/><path fill="none" stroke="#1D1D1B" stroke-miterlimit="3.864" d="M204.1 300.6l2.3 4.6 2.3-4.6z"/></g><path fill="#E64614" d="M206.4 307.9h8.9v8.8h-8.9v-8.8z"/><path fill="none" d="M206.4 307.9h8.9v8.8h-8.9v-8.8z"/><path fill="none" d="M208.4 307.1h4.9v9.6h-4.9z"/><text transform="translate(208.368 316.38)" fill="#FFF" font-family="Helvetica,Arial,sans-serif" font-size="8.749">0</text><g clip-rule="evenodd"><path fill-rule="evenodd" fill="#1D1D1B" d="M288.1 300.7l2.3 4.6 2.3-4.6z"/><path fill="none" stroke="#1D1D1B" stroke-miterlimit="3.864" d="M288.1 300.7l2.3 4.6 2.3-4.6z"/></g><path fill="#E64614" d="M290.4 308h8.8v8.8h-8.8V308z"/><path fill="none" d="M290.4 308h8.8v8.8h-8.8V308z"/><path fill="none" d="M292.4 307.2h4.9v9.6h-4.9z"/><text transform="translate(292.359 316.463)" fill="#FFF" font-family="Helvetica,Arial,sans-serif" font-size="8.749">0</text><g clip-rule="evenodd"><path fill-rule="evenodd" fill="#80FF80" d="M122.9 331.9h15.4v10.5h-15.4z"/><path fill="none" stroke="#80FF80" stroke-miterlimit="3.864" d="M122.9 331.9h15.4v10.5h-15.4z"/></g><g clip-rule="evenodd"><path fill-rule="evenodd" fill="#B3B3B3" d="M140.3 356.6h4.8l-4.8 12-4.8-12z"/><path fill="none" stroke="#B3B3B3" stroke-width="3" stroke-miterlimit="3.864" stroke-dasharray="2,2" d="M140.3 346v11.4"/></g><g clip-rule="evenodd"><path fill-rule="evenodd" fill="#1D1D1B" d="M120.1 300.6l2.3 4.6 2.3-4.6z"/><path fill="none" stroke="#1D1D1B" stroke-miterlimit="3.864" d="M120.1 300.6l2.3 4.6 2.3-4.6z"/></g><path fill="#E64614" d="M122.4 307.9h8.9v8.8h-8.9v-8.8z"/><path fill="none" d="M122.4 307.9h8.9v8.8h-8.9v-8.8z"/><path fill="none" d="M124.4 307.1h4.9v9.6h-4.9z"/><text transform="translate(124.386 316.382)" fill="#FFF" font-family="Helvetica,Arial,sans-serif" font-size="8.749">0</text><path fill="#80FF80" d="M332.8 331.9h31.5v10.5h-31.5v-10.5z"/><path fill="none" stroke="#80FF80" stroke-miterlimit="3.864" d="M332.8 331.9h31.5v10.5h-31.5v-10.5z"/><g clip-rule="evenodd"><path fill-rule="evenodd" fill="#B3B3B3" d="M366.1 356.6h4.9l-4.9 12-4.8-12z"/><path fill="none" stroke="#B3B3B3" stroke-width="3" stroke-miterlimit="3.864" stroke-dasharray="2,2" d="M366.1 346v11.4"/></g><g clip-rule="evenodd"><path fill-rule="evenodd" fill="#1D1D1B" d="M330.1 300.6l2.3 4.6 2.2-4.6z"/><path fill="none" stroke="#1D1D1B" stroke-miterlimit="3.864" d="M330.1 300.6l2.3 4.6 2.2-4.6z"/></g><path fill="#E64614" d="M332.4 307.9h8.8v8.8h-8.8v-8.8z"/><path fill="none" d="M332.4 307.9h8.8v8.8h-8.8v-8.8z"/><path fill="none" d="M334.4 307.1h4.9v9.6h-4.9z"/><text transform="translate(334.351 316.383)" fill="#FFF" font-family="Helvetica,Arial,sans-serif" font-size="8.749">1</text><path fill="#80FF80" d="M374.8 331.9h31.5v10.5h-31.5v-10.5z"/><path fill="none" stroke="#80FF80" stroke-miterlimit="3.864" d="M374.8 331.9h31.5v10.5h-31.5v-10.5z"/><g clip-rule="evenodd"><path fill-rule="evenodd" fill="#B3B3B3" d="M408.1 356.6h4.8l-4.8 12-4.8-12z"/><path fill="none" stroke="#B3B3B3" stroke-width="3" stroke-miterlimit="3.864" stroke-dasharray="2,2" d="M408.1 346v11.4"/></g><g clip-rule="evenodd"><path fill-rule="evenodd" fill="#1D1D1B" d="M372.1 300.6l2.3 4.6 2.2-4.6z"/><path fill="none" stroke="#1D1D1B" stroke-miterlimit="3.864" d="M372.1 300.6l2.3 4.6 2.2-4.6z"/></g><path fill="#E64614" d="M374.4 307.9h8.8v8.8h-8.8v-8.8z"/><path fill="none" d="M374.4 307.9h8.8v8.8h-8.8v-8.8z"/><path fill="none" d="M376.3 307.1h4.9v9.6h-4.9z"/><text transform="translate(376.342 316.383)" fill="#FFF" font-family="Helvetica,Arial,sans-serif" font-size="8.749">1</text><path fill="#80FF80" d="M416.8 332h31.5v10.5h-31.5V332z"/><path fill="none" stroke="#80FF80" stroke-miterlimit="3.864" d="M416.8 332h31.5v10.5h-31.5V332z"/><g clip-rule="evenodd"><path fill-rule="evenodd" fill="#B3B3B3" d="M450.1 356.7h4.8l-4.8 12-4.8-12z"/><path fill="none" stroke="#B3B3B3" stroke-width="3" stroke-miterlimit="3.864" stroke-dasharray="2,2" d="M450.1 346.1v11.4"/></g><g clip-rule="evenodd"><path fill-rule="evenodd" fill="#1D1D1B" d="M414.1 300.7l2.3 4.5 2.2-4.5z"/><path fill="none" stroke="#1D1D1B" stroke-miterlimit="3.864" d="M414.1 300.7l2.3 4.5 2.2-4.5z"/></g><path fill="#E64614" d="M416.4 308h8.8v8.8h-8.8V308z"/><path fill="none" d="M416.4 308h8.8v8.8h-8.8V308z"/><path fill="none" d="M418.3 307.2h4.9v9.6h-4.9z"/><text transform="translate(418.344 316.453)" fill="#FFF" font-family="Helvetica,Arial,sans-serif" font-size="8.749">1</text><path fill="#80FF80" d="M248.8 332h31.5v10.5h-31.5V332z"/><path fill="none" stroke="#80FF80" stroke-miterlimit="3.864" d="M248.8 332h31.5v10.5h-31.5V332z"/><g clip-rule="evenodd"><path fill-rule="evenodd" fill="#B3B3B3" d="M282.2 356.7h4.8l-4.8 12-4.9-12z"/><path fill="none" stroke="#B3B3B3" stroke-width="3" stroke-miterlimit="3.864" stroke-dasharray="2,2" d="M282.2 346.1v11.4"/></g><g clip-rule="evenodd"><path fill-rule="evenodd" fill="#1D1D1B" d="M246.1 300.7l2.3 4.6 2.3-4.6z"/><path fill="none" stroke="#1D1D1B" stroke-miterlimit="3.864" d="M246.1 300.7l2.3 4.6 2.3-4.6z"/></g><path fill="#E64614" d="M248.4 308h8.9v8.8h-8.9V308z"/><path fill="none" d="M248.4 308h8.9v8.8h-8.9V308z"/><path fill="none" d="M250.4 307.2h4.9v9.6h-4.9z"/><text transform="translate(250.366 316.46)" fill="#FFF" font-family="Helvetica,Arial,sans-serif" font-size="8.749">1</text><g clip-rule="evenodd"><path fill-rule="evenodd" fill="#80FF80" d="M164.8 331.9h15.4v10.5h-15.4z"/><path fill="none" stroke="#80FF80" stroke-miterlimit="3.864" d="M164.8 331.9h15.4v10.5h-15.4z"/></g><g clip-rule="evenodd"><path fill-rule="evenodd" fill="#B3B3B3" d="M182.3 356.6h4.8l-4.8 12-4.9-12z"/><path fill="none" stroke="#B3B3B3" stroke-width="3" stroke-miterlimit="3.864" stroke-dasharray="2,2" d="M182.3 346v11.4"/></g><g clip-rule="evenodd"><path fill-rule="evenodd" fill="#1D1D1B" d="M162.1 300.6l2.3 4.6 2.3-4.6z"/><path fill="none" stroke="#1D1D1B" stroke-miterlimit="3.864" d="M162.1 300.6l2.3 4.6 2.3-4.6z"/></g><path fill="#E64614" d="M164.4 307.9h8.9v8.8h-8.9v-8.8z"/><path fill="none" d="M164.4 307.9h8.9v8.8h-8.9v-8.8z"/><path fill="none" d="M166.4 307.2h4.9v9.6h-4.9z"/><text transform="translate(166.375 316.385)" fill="#FFF" font-family="Helvetica,Arial,sans-serif" font-size="8.749">0</text><path fill="#80FF80" d="M458.8 332h31.5v10.5h-31.5V332z"/><path fill="none" stroke="#80FF80" stroke-miterlimit="3.864" d="M458.8 332h31.5v10.5h-31.5V332z"/><g clip-rule="evenodd"><path fill-rule="evenodd" fill="#B3B3B3" d="M492.1 356.7h4.8l-4.8 12-4.8-12z"/><path fill="none" stroke="#B3B3B3" stroke-width="3" stroke-miterlimit="3.864" stroke-dasharray="2,2" d="M492.1 346.1v11.4"/></g><g clip-rule="evenodd"><path fill-rule="evenodd" fill="#1D1D1B" d="M456.1 300.7l2.3 4.5 2.2-4.5z"/><path fill="none" stroke="#1D1D1B" stroke-miterlimit="3.864" d="M456.1 300.7l2.3 4.5 2.2-4.5z"/></g><path fill="#E64614" d="M458.4 308h8.8v8.8h-8.8V308z"/><path fill="none" d="M458.4 308h8.8v8.8h-8.8V308z"/><path fill="none" d="M460.3 307.2h4.9v9.6h-4.9z"/><text transform="translate(460.331 316.454)" fill="#FFF" font-family="Helvetica,Arial,sans-serif" font-size="8.749">1</text><path clip-rule="evenodd" fill="none" stroke="#999" stroke-width="1.8" stroke-miterlimit="3.864" d="M470.6 217.2V352"/><path clip-rule="evenodd" fill="none" stroke="#000" stroke-miterlimit="10" d="M12.5 14.5h313.7v106H12.5z"/><path fill="#80FF80" d="M22.4 64.8h30v12h-30v-12z"/><path fill="none" stroke="#80FF80" stroke-miterlimit="3.864" d="M22.4 64.8h30v12h-30v-12z"/><g clip-rule="evenodd"><path fill-rule="evenodd" fill="#B3B3B3" d="M37.2 97.4h5.5l-5.5 13.7-5.5-13.7z"/><path fill="none" stroke="#B3B3B3" stroke-width="3" stroke-miterlimit="3.864" stroke-dasharray="2,2" d="M37.2 85.3v13"/></g><g clip-rule="evenodd"><path fill-rule="evenodd" fill="#1D1D1B" d="M34.6 27.2l2.6 5.2 2.6-5.2z"/><path fill="none" stroke="#1D1D1B" stroke-miterlimit="3.864" d="M34.6 27.2l2.6 5.2 2.6-5.2z"/></g><path fill="#E64614" d="M32.1 43.9h10.2V54H32.1V43.9z"/><path fill="#E64614" d="M32.1 43.9h10.2V54H32.1V43.9z"/><path fill="none" d="M34.4 42.5H40v11h-5.6z"/><text transform="translate(34.4 52.688)" fill="#FFF" font-family="Helvetica,Arial,sans-serif" font-size="10">0</text><path clip-rule="evenodd" fill="none" stroke="#000" stroke-miterlimit="10" d="M12.5 132h313.7v42.7H12.5z"/><text transform="translate(71.044 197.288)"><tspan x="0" y="0" fill="#1D1D1D" font-family="Helvetica,Arial,sans-serif" font-size="10">Sequencer</tspan><tspan x="6" y="12" fill="#1D1D1D" font-family="Helvetica,Arial,sans-serif" font-size="10">enabled</tspan></text><text transform="translate(446.555 197.288)"><tspan x="0" y="0" fill="#1D1D1D" font-family="Helvetica,Arial,sans-serif" font-size="10">Sequencer</tspan><tspan x="4.8" y="12" fill="#1D1D1D" font-family="Helvetica,Arial,sans-serif" font-size="10">disabled</tspan></text><text transform="translate(283.502 394.259)" fill="#1D1D1D" font-family="Helvetica,Arial,sans-serif" font-weight="bold" font-size="11">Time</text><text transform="translate(17 290.55)"><tspan x="0" y="0" fill="#1D1D1D" font-family="Helvetica,Arial,sans-serif" font-size="10">Frame Start </tspan><tspan x="0" y="12" fill="#1D1D1D" font-family="Helvetica,Arial,sans-serif" font-size="10">trigger signal</tspan></text><text transform="translate(17 245.709)" fill="#1D1D1D" font-family="Helvetica,Arial,sans-serif" font-size="10">Line1 signal</text><text transform="translate(62.3 33.54)" fill="#1D1D1D" font-family="Helvetica,Arial,sans-serif" font-size="10">= Camera selects a sequence set</text><text transform="translate(62.3 52.074)" fill="#1D1D1D" font-family="Helvetica,Arial,sans-serif" font-size="10">= Sequence set used for image acquisition (index number)</text><text transform="translate(62.3 75.206)" fill="#1D1D1D" font-family="Helvetica,Arial,sans-serif" font-size="10">= Frame exposure and readout</text><text transform="translate(62.3 101.266)" fill="#1D1D1D" font-family="Helvetica,Arial,sans-serif" font-size="10">= Frame transmission</text><text transform="translate(22.363 165.25)" fill="#1D1D1D" font-family="Helvetica,Arial,sans-serif" font-size="10">SequenceSetTotalNumber = 2</text><text transform="translate(22.541 148)" fill="#1D1D1D" font-family="Helvetica,Arial,sans-serif" font-size="10">Settings:</text></svg>