<svg version="1.1" id="Layer_1" xmlns="http://www.w3.org/2000/svg" x="0" y="0" viewBox="0 0 545 280" xml:space="preserve"><style>.st0{font-family:Helvetica,Arial,sans-serif}.st1{font-size:12px}.st6{fill:none}.st7{font-size:7.579px}.st8{fill:none;stroke:#000;stroke-width:.5;stroke-miterlimit:3.864}.st11{fill-rule:evenodd;clip-rule:evenodd}.st12,.st13{fill:none;stroke:#fff;stroke-width:1.000000e-03;stroke-miterlimit:3.864}.st13{stroke-width:1.000000e-02}</style><text transform="translate(438.681 147.448)" class="st0 st1">Auto function ROI</text><text transform="translate(438.663 205.957)" class="st0 st1">Image ROI</text><path d="M67.4 97.2h181.8v113.6H67.4V97.2z" fill="#bde4f7"/><path d="M67.4 97.2h181.8v113.6H67.4V97.2z" fill="#bde4f7" stroke="#fff" stroke-miterlimit="3.864"/><path d="M180.9 108.7h56.9v68.2h-56.9v-68.2z" fill="#9aa465"/><path d="M180.9 108.7h56.9v68.2h-56.9v-68.2z" fill="#9aa465" stroke="#000" stroke-width=".001" stroke-miterlimit="3.864"/><path class="st6" d="M25.6 18.5h3.5V27h-3.5v-8.5z"/><text transform="translate(25.648 26.727)" class="st0 st7">0</text><path class="st6" d="M37 18.5h3.5V27H37v-8.5z"/><text transform="translate(37.017 26.727)" class="st0 st7">1</text><path class="st6" d="M15.3 29.3h3.5v8.5h-3.5v-8.5z"/><text transform="translate(15.265 37.527)" class="st0 st7">0</text><path class="st8" d="M23.8 31h7.5v7.6h-7.5V31zm11.3 0h7.6v7.6h-7.6V31z"/><path class="st6" d="M48.4 18.5h3.5V27h-3.5v-8.5z"/><text transform="translate(48.385 26.727)" class="st0 st7">2</text><path class="st6" d="M59.8 18.5h3.5V27h-3.5v-8.5z"/><text transform="translate(59.754 26.727)" class="st0 st7">3</text><path class="st8" d="M46.5 31h7.6v7.6h-7.6V31zm11.4 0h7.5v7.6h-7.5V31z"/><path class="st6" d="M71.1 18.5h3.5V27h-3.5v-8.5z"/><text transform="translate(71.122 26.727)" class="st0 st7">4</text><path class="st6" d="M82.5 18.5H86V27h-3.5v-8.5z"/><text transform="translate(82.49 26.727)" class="st0 st7">5</text><path class="st8" d="M69.2 31h7.6v7.6h-7.6V31zm11.4 0h7.6v7.6h-7.6V31z"/><path class="st6" d="M93.9 18.5h3.5V27h-3.5v-8.5z"/><text transform="translate(93.86 26.727)" class="st0 st7">6</text><path class="st6" d="M105.2 18.5h3.5V27h-3.5v-8.5z"/><text transform="translate(105.228 26.727)" class="st0 st7">7</text><path class="st8" d="M92 31h7.5v7.6H92V31zm11.3 0h7.6v7.6h-7.6V31z"/><path class="st6" d="M116.6 18.5h3.5V27h-3.5v-8.5z"/><text transform="translate(116.597 26.727)" class="st0 st7">8</text><path class="st6" d="M127.4 18.5h3.5V27h-3.5v-8.5z"/><text transform="translate(127.397 26.727)" class="st0 st7">9</text><path class="st8" d="M114.7 31h7.6v7.6h-7.6V31zm11.4 0h7.5v7.6h-7.5V31z"/><path class="st6" d="M137.4 18.5h7V27h-7v-8.5z"/><text transform="translate(137.439 26.727)" class="st0 st7">10</text><path class="st6" d="M148.8 18.5h6.6V27h-6.6v-8.5z"/><text transform="translate(148.808 26.727)" class="st0 st7">1</text><text transform="translate(151.908 26.727)" class="st0 st7">1</text><path class="st8" d="M137.4 31h7.6v7.6h-7.6V31zm11.4 0h7.6v7.6h-7.6V31z"/><path class="st6" d="M160.2 18.5h7V27h-7v-8.5z"/><text transform="translate(160.176 26.727)" class="st0 st7">12</text><path class="st6" d="M171.5 18.5h7V27h-7v-8.5z"/><text transform="translate(171.545 26.727)" class="st0 st7">13</text><path class="st8" d="M160.2 31h7.6v7.6h-7.6V31zm11.3 0h7.6v7.6h-7.6V31z"/><path class="st6" d="M182.9 18.5h7V27h-7v-8.5z"/><text transform="translate(182.913 26.727)" class="st0 st7">14</text><path class="st6" d="M194.3 18.5h7V27h-7v-8.5z"/><text transform="translate(194.281 26.727)" class="st0 st7">15</text><path class="st8" d="M182.9 31h7.6v7.6h-7.6V31zm11.4 0h7.6v7.6h-7.6V31z"/><path class="st6" d="M205.7 18.5h7V27h-7v-8.5z"/><text transform="translate(205.65 26.727)" class="st0 st7">16</text><path class="st6" d="M217 18.5h7V27h-7v-8.5z"/><text transform="translate(217.01 26.727)" class="st0 st7">17</text><path class="st8" d="M205.7 31h7.5v7.6h-7.5V31zm11.3 0h7.6v7.6H217V31z"/><path class="st6" d="M228.4 18.5h7V27h-7v-8.5z"/><text transform="translate(228.379 26.727)" class="st0 st7">18</text><path class="st6" d="M239.7 18.5h7V27h-7v-8.5z"/><text transform="translate(239.747 26.727)" class="st0 st7">19</text><path class="st8" d="M228.4 31h7.6v7.6h-7.6V31zm11.3 0h7.6v7.6h-7.6V31z"/><path class="st6" d="M251.1 18.5h7V27h-7v-8.5z"/><text transform="translate(251.116 26.727)" class="st0 st7">20</text><path class="st6" d="M262.5 18.5h7V27h-7v-8.5z"/><text transform="translate(262.484 26.727)" class="st0 st7">21</text><path class="st8" d="M251.1 31h7.6v7.6h-7.6V31zm11.4 0h7.6v7.6h-7.6V31z"/><path class="st6" d="M273.9 18.5h7V27h-7v-8.5z"/><text transform="translate(273.853 26.727)" class="st0 st7">22</text><path class="st6" d="M285.2 18.5h7V27h-7v-8.5z"/><text transform="translate(285.222 26.727)" class="st0 st7">23</text><path class="st8" d="M273.9 31h7.5v7.6h-7.5V31zm11.3 0h7.6v7.6h-7.6V31z"/><path class="st6" d="M296.6 18.5h7V27h-7v-8.5z"/><text transform="translate(296.59 26.727)" class="st0 st7">24</text><path class="st6" d="M308 18.5h7V27h-7v-8.5z"/><text transform="translate(307.959 26.727)" class="st0 st7">25</text><path class="st8" d="M296.6 31h7.6v7.6h-7.6V31zm11.4 0h7.5v7.6H308V31z"/><path class="st6" d="M319.3 18.5h7V27h-7v-8.5z"/><text transform="translate(319.327 26.727)" class="st0 st7">26</text><path class="st6" d="M330.7 18.5h7V27h-7v-8.5z"/><text transform="translate(330.696 26.727)" class="st0 st7">27</text><path class="st8" d="M319.3 31h7.6v7.6h-7.6V31zm11.4 0h7.6v7.6h-7.6V31z"/><path class="st6" d="M342.1 18.5h7V27h-7v-8.5z"/><text transform="translate(342.065 26.727)" class="st0 st7">28</text><path class="st6" d="M353.4 18.5h7V27h-7v-8.5z"/><text transform="translate(353.433 26.727)" class="st0 st7">29</text><path class="st8" d="M342.1 31h7.5v7.6h-7.5V31zm11.3 0h7.6v7.6h-7.6V31z"/><path class="st6" d="M364.8 18.5h7V27h-7v-8.5z"/><text transform="translate(364.802 26.727)" class="st0 st7">30</text><path class="st8" d="M364.8 31h7.6v7.6h-7.6V31zm11.4 0h7.6v7.6h-7.6V31zM23.8 42.4h7.5V50h-7.5v-7.6zm11.3 0h7.6V50h-7.6v-7.6zm11.4 0h7.6V50h-7.6v-7.6zm11.4 0h7.5V50h-7.5v-7.6zm11.3 0h7.6V50h-7.6v-7.6zm11.4 0h7.6V50h-7.6v-7.6zm11.4 0h7.5V50H92v-7.6zm11.3 0h7.6V50h-7.6v-7.6zm11.4 0h7.6V50h-7.6v-7.6zm11.4 0h7.5V50h-7.5v-7.6zm11.3 0h7.6V50h-7.6v-7.6zm11.4 0h7.6V50h-7.6v-7.6zm11.4 0h7.6V50h-7.6v-7.6zm11.3 0h7.6V50h-7.6v-7.6zm11.4 0h7.6V50h-7.6v-7.6zm11.4 0h7.6V50h-7.6v-7.6zm11.4 0h7.5V50h-7.5v-7.6zm11.3 0h7.6V50H217v-7.6zm11.4 0h7.6V50h-7.6v-7.6zm11.3 0h7.6V50h-7.6v-7.6zm11.4 0h7.6V50h-7.6v-7.6zm11.4 0h7.6V50h-7.6v-7.6zm11.4 0h7.5V50h-7.5v-7.6zm11.3 0h7.6V50h-7.6v-7.6zm11.4 0h7.6V50h-7.6v-7.6zm11.4 0h7.5V50H308v-7.6zm11.3 0h7.6V50h-7.6v-7.6zm11.4 0h7.6V50h-7.6v-7.6zm11.4 0h7.5V50h-7.5v-7.6zm11.3 0h7.6V50h-7.6v-7.6zm11.4 0h7.6V50h-7.6v-7.6zm11.4 0h7.6V50h-7.6v-7.6zM23.8 53.8h7.5v7.6h-7.5v-7.6zm11.3 0h7.6v7.6h-7.6v-7.6zm11.4 0h7.6v7.6h-7.6v-7.6zm11.4 0h7.5v7.6h-7.5v-7.6zm11.3 0h7.6v7.6h-7.6v-7.6zm11.4 0h7.6v7.6h-7.6v-7.6zm11.4 0h7.5v7.6H92v-7.6zm11.3 0h7.6v7.6h-7.6v-7.6zm11.4 0h7.6v7.6h-7.6v-7.6zm11.4 0h7.5v7.6h-7.5v-7.6zm11.3 0h7.6v7.6h-7.6v-7.6zm11.4 0h7.6v7.6h-7.6v-7.6zm11.4 0h7.6v7.6h-7.6v-7.6zm11.3 0h7.6v7.6h-7.6v-7.6zm11.4 0h7.6v7.6h-7.6v-7.6zm11.4 0h7.6v7.6h-7.6v-7.6zm11.4 0h7.5v7.6h-7.5v-7.6zm11.3 0h7.6v7.6H217v-7.6zm11.4 0h7.6v7.6h-7.6v-7.6zm11.3 0h7.6v7.6h-7.6v-7.6zm11.4 0h7.6v7.6h-7.6v-7.6zm11.4 0h7.6v7.6h-7.6v-7.6zm11.4 0h7.5v7.6h-7.5v-7.6zm11.3 0h7.6v7.6h-7.6v-7.6zm11.4 0h7.6v7.6h-7.6v-7.6zm11.4 0h7.5v7.6H308v-7.6zm11.3 0h7.6v7.6h-7.6v-7.6zm11.4 0h7.6v7.6h-7.6v-7.6zm11.4 0h7.5v7.6h-7.5v-7.6zm11.3 0h7.6v7.6h-7.6v-7.6zm11.4 0h7.6v7.6h-7.6v-7.6zm11.4 0h7.6v7.6h-7.6v-7.6zM23.8 65.1h7.5v7.6h-7.5v-7.6zm11.3 0h7.6v7.6h-7.6v-7.6zm11.4 0h7.6v7.6h-7.6v-7.6zm11.4 0h7.5v7.6h-7.5v-7.6zm11.3 0h7.6v7.6h-7.6v-7.6zm11.4 0h7.6v7.6h-7.6v-7.6zm11.4 0h7.5v7.6H92v-7.6zm11.3 0h7.6v7.6h-7.6v-7.6zm11.4 0h7.6v7.6h-7.6v-7.6zm11.4 0h7.5v7.6h-7.5v-7.6zm11.3 0h7.6v7.6h-7.6v-7.6zm11.4 0h7.6v7.6h-7.6v-7.6zm11.4 0h7.6v7.6h-7.6v-7.6zm11.3 0h7.6v7.6h-7.6v-7.6zm11.4 0h7.6v7.6h-7.6v-7.6zm11.4 0h7.6v7.6h-7.6v-7.6zm11.4 0h7.5v7.6h-7.5v-7.6zm11.3 0h7.6v7.6H217v-7.6zm11.4 0h7.6v7.6h-7.6v-7.6zm11.3 0h7.6v7.6h-7.6v-7.6zm11.4 0h7.6v7.6h-7.6v-7.6zm11.4 0h7.6v7.6h-7.6v-7.6zm11.4 0h7.5v7.6h-7.5v-7.6zm11.3 0h7.6v7.6h-7.6v-7.6zm11.4 0h7.6v7.6h-7.6v-7.6zm11.4 0h7.5v7.6H308v-7.6zm11.3 0h7.6v7.6h-7.6v-7.6zm11.4 0h7.6v7.6h-7.6v-7.6zm11.4 0h7.5v7.6h-7.5v-7.6zm11.3 0h7.6v7.6h-7.6v-7.6zm11.4 0h7.6v7.6h-7.6v-7.6zm11.4 0h7.6v7.6h-7.6v-7.6zM23.8 76.5h7.5v7.6h-7.5v-7.6zm11.3 0h7.6v7.6h-7.6v-7.6zm11.4 0h7.6v7.6h-7.6v-7.6zm11.4 0h7.5v7.6h-7.5v-7.6zm11.3 0h7.6v7.6h-7.6v-7.6zm11.4 0h7.6v7.6h-7.6v-7.6zm11.4 0h7.5v7.6H92v-7.6zm11.3 0h7.6v7.6h-7.6v-7.6zm11.4 0h7.6v7.6h-7.6v-7.6zm11.4 0h7.5v7.6h-7.5v-7.6zm11.3 0h7.6v7.6h-7.6v-7.6zm11.4 0h7.6v7.6h-7.6v-7.6zm11.4 0h7.6v7.6h-7.6v-7.6zm11.3 0h7.6v7.6h-7.6v-7.6zm11.4 0h7.6v7.6h-7.6v-7.6zm11.4 0h7.6v7.6h-7.6v-7.6zm11.4 0h7.5v7.6h-7.5v-7.6zm11.3 0h7.6v7.6H217v-7.6zm11.4 0h7.6v7.6h-7.6v-7.6zm11.3 0h7.6v7.6h-7.6v-7.6zm11.4 0h7.6v7.6h-7.6v-7.6zm11.4 0h7.6v7.6h-7.6v-7.6zm11.4 0h7.5v7.6h-7.5v-7.6zm11.3 0h7.6v7.6h-7.6v-7.6zm11.4 0h7.6v7.6h-7.6v-7.6zm11.4 0h7.5v7.6H308v-7.6zm11.3 0h7.6v7.6h-7.6v-7.6zm11.4 0h7.6v7.6h-7.6v-7.6zm11.4 0h7.5v7.6h-7.5v-7.6zm11.3 0h7.6v7.6h-7.6v-7.6zm11.4 0h7.6v7.6h-7.6v-7.6zm11.4 0h7.6v7.6h-7.6v-7.6zM23.8 87.9h7.5v7.6h-7.5v-7.6zm11.3 0h7.6v7.6h-7.6v-7.6zm11.4 0h7.6v7.6h-7.6v-7.6zm11.4 0h7.5v7.6h-7.5v-7.6zm11.3 0h7.6v7.6h-7.6v-7.6zm11.4 0h7.6v7.6h-7.6v-7.6zm11.4 0h7.5v7.6H92v-7.6zm11.3 0h7.6v7.6h-7.6v-7.6zm11.4 0h7.6v7.6h-7.6v-7.6zm11.4 0h7.5v7.6h-7.5v-7.6zm11.3 0h7.6v7.6h-7.6v-7.6zm11.4 0h7.6v7.6h-7.6v-7.6zm11.4 0h7.6v7.6h-7.6v-7.6zm11.3 0h7.6v7.6h-7.6v-7.6zm11.4 0h7.6v7.6h-7.6v-7.6zm11.4 0h7.6v7.6h-7.6v-7.6zm11.4 0h7.5v7.6h-7.5v-7.6zm11.3 0h7.6v7.6H217v-7.6zm11.4 0h7.6v7.6h-7.6v-7.6zm11.3 0h7.6v7.6h-7.6v-7.6zm11.4 0h7.6v7.6h-7.6v-7.6zm11.4 0h7.6v7.6h-7.6v-7.6zm11.4 0h7.5v7.6h-7.5v-7.6zm11.3 0h7.6v7.6h-7.6v-7.6zm11.4 0h7.6v7.6h-7.6v-7.6zm11.4 0h7.5v7.6H308v-7.6zm11.3 0h7.6v7.6h-7.6v-7.6zm11.4 0h7.6v7.6h-7.6v-7.6zm11.4 0h7.5v7.6h-7.5v-7.6zm11.3 0h7.6v7.6h-7.6v-7.6zm11.4 0h7.6v7.6h-7.6v-7.6zm11.4 0h7.6v7.6h-7.6v-7.6zM23.8 99.3h7.5v7.5h-7.5v-7.5zm11.3 0h7.6v7.5h-7.6v-7.5zm11.4 0h7.6v7.5h-7.6v-7.5zm11.4 0h7.5v7.5h-7.5v-7.5zm11.3 0h7.6v7.5h-7.6v-7.5zm11.4 0h7.6v7.5h-7.6v-7.5zm11.4 0h7.5v7.5H92v-7.5zm11.3 0h7.6v7.5h-7.6v-7.5zm11.4 0h7.6v7.5h-7.6v-7.5zm11.4 0h7.5v7.5h-7.5v-7.5zm11.3 0h7.6v7.5h-7.6v-7.5zm11.4 0h7.6v7.5h-7.6v-7.5zm11.4 0h7.6v7.5h-7.6v-7.5zm11.3 0h7.6v7.5h-7.6v-7.5zm11.4 0h7.6v7.5h-7.6v-7.5zm11.4 0h7.6v7.5h-7.6v-7.5zm11.4 0h7.5v7.5h-7.5v-7.5zm11.3 0h7.6v7.5H217v-7.5zm11.4 0h7.6v7.5h-7.6v-7.5zm11.3 0h7.6v7.5h-7.6v-7.5zm11.4 0h7.6v7.5h-7.6v-7.5zm11.4 0h7.6v7.5h-7.6v-7.5zm11.4 0h7.5v7.5h-7.5v-7.5zm11.3 0h7.6v7.5h-7.6v-7.5zm11.4 0h7.6v7.5h-7.6v-7.5zm11.4 0h7.5v7.5H308v-7.5zm11.3 0h7.6v7.5h-7.6v-7.5zm11.4 0h7.6v7.5h-7.6v-7.5zm11.4 0h7.5v7.5h-7.5v-7.5zm11.3 0h7.6v7.5h-7.6v-7.5zm11.4 0h7.6v7.5h-7.6v-7.5zm11.4 0h7.6v7.5h-7.6v-7.5zM23.8 110.6h7.5v7.6h-7.5v-7.6zm11.3 0h7.6v7.6h-7.6v-7.6zm11.4 0h7.6v7.6h-7.6v-7.6zm11.4 0h7.5v7.6h-7.5v-7.6zm11.3 0h7.6v7.6h-7.6v-7.6zm11.4 0h7.6v7.6h-7.6v-7.6zm11.4 0h7.5v7.6H92v-7.6zm11.3 0h7.6v7.6h-7.6v-7.6z"/><path class="st8" d="M103.3 110.6h7.6v7.6h-7.6v-7.6zm11.4 0h7.6v7.6h-7.6v-7.6z"/><path class="st8" d="M114.7 110.6h7.6v7.6h-7.6v-7.6zm11.4 0h7.5v7.6h-7.5v-7.6z"/><path class="st8" d="M126.1 110.6h7.5v7.6h-7.5v-7.6zm11.3 0h7.6v7.6h-7.6v-7.6z"/><path class="st8" d="M137.4 110.6h7.6v7.6h-7.6v-7.6zm11.4 0h7.6v7.6h-7.6v-7.6zm11.4 0h7.6v7.6h-7.6v-7.6zm11.3 0h7.6v7.6h-7.6v-7.6zm11.4 0h7.6v7.6h-7.6v-7.6zm11.4 0h7.6v7.6h-7.6v-7.6zm11.4 0h7.5v7.6h-7.5v-7.6zm11.3 0h7.6v7.6H217v-7.6zm11.4 0h7.6v7.6h-7.6v-7.6zm11.3 0h7.6v7.6h-7.6v-7.6zm11.4 0h7.6v7.6h-7.6v-7.6zm11.4 0h7.6v7.6h-7.6v-7.6zm11.4 0h7.5v7.6h-7.5v-7.6zm11.3 0h7.6v7.6h-7.6v-7.6zm11.4 0h7.6v7.6h-7.6v-7.6zm11.4 0h7.5v7.6H308v-7.6zm11.3 0h7.6v7.6h-7.6v-7.6zm11.4 0h7.6v7.6h-7.6v-7.6zm11.4 0h7.5v7.6h-7.5v-7.6zm11.3 0h7.6v7.6h-7.6v-7.6zm11.4 0h7.6v7.6h-7.6v-7.6zm11.4 0h7.6v7.6h-7.6v-7.6zM23.8 122h7.5v7.6h-7.5V122zm11.3 0h7.6v7.6h-7.6V122zm11.4 0h7.6v7.6h-7.6V122zm11.4 0h7.5v7.6h-7.5V122zm11.3 0h7.6v7.6h-7.6V122zm11.4 0h7.6v7.6h-7.6V122zm11.4 0h7.5v7.6H92V122zm11.3 0h7.6v7.6h-7.6V122z"/><path class="st8" d="M103.3 122h7.6v7.6h-7.6V122zm11.4 0h7.6v7.6h-7.6V122zm11.4 0h7.5v7.6h-7.5V122zm11.3 0h7.6v7.6h-7.6V122zm11.4 0h7.6v7.6h-7.6V122z"/><path class="st8" d="M148.8 122h7.6v7.6h-7.6V122zm11.4 0h7.6v7.6h-7.6V122zm11.3 0h7.6v7.6h-7.6V122zm11.4 0h7.6v7.6h-7.6V122zm11.4 0h7.6v7.6h-7.6V122zm11.4 0h7.5v7.6h-7.5V122zm11.3 0h7.6v7.6H217V122zm11.4 0h7.6v7.6h-7.6V122zm11.3 0h7.6v7.6h-7.6V122zm11.4 0h7.6v7.6h-7.6V122zm11.4 0h7.6v7.6h-7.6V122zm11.4 0h7.5v7.6h-7.5V122zm11.3 0h7.6v7.6h-7.6V122zm11.4 0h7.6v7.6h-7.6V122zm11.4 0h7.5v7.6H308V122zm11.3 0h7.6v7.6h-7.6V122zm11.4 0h7.6v7.6h-7.6V122zm11.4 0h7.5v7.6h-7.5V122zm11.3 0h7.6v7.6h-7.6V122zm11.4 0h7.6v7.6h-7.6V122zm11.4 0h7.6v7.6h-7.6V122zM23.8 133.4h7.5v7.5h-7.5v-7.5zm11.3 0h7.6v7.5h-7.6v-7.5zm11.4 0h7.6v7.5h-7.6v-7.5zm11.4 0h7.5v7.5h-7.5v-7.5zm11.3 0h7.6v7.5h-7.6v-7.5zm11.4 0h7.6v7.5h-7.6v-7.5zm11.4 0h7.5v7.5H92v-7.5zm11.3 0h7.6v7.5h-7.6v-7.5z"/><path class="st8" d="M103.3 133.4h7.6v7.5h-7.6v-7.5zm11.4 0h7.6v7.5h-7.6v-7.5zm11.4 0h7.5v7.5h-7.5v-7.5zm11.3 0h7.6v7.5h-7.6v-7.5zm11.4 0h7.6v7.5h-7.6v-7.5z"/><path class="st8" d="M148.8 133.4h7.6v7.5h-7.6v-7.5zm11.4 0h7.6v7.5h-7.6v-7.5zm11.3 0h7.6v7.5h-7.6v-7.5zm11.4 0h7.6v7.5h-7.6v-7.5zm11.4 0h7.6v7.5h-7.6v-7.5zm11.4 0h7.5v7.5h-7.5v-7.5zm11.3 0h7.6v7.5H217v-7.5zm11.4 0h7.6v7.5h-7.6v-7.5zm11.3 0h7.6v7.5h-7.6v-7.5zm11.4 0h7.6v7.5h-7.6v-7.5zm11.4 0h7.6v7.5h-7.6v-7.5zm11.4 0h7.5v7.5h-7.5v-7.5zm11.3 0h7.6v7.5h-7.6v-7.5zm11.4 0h7.6v7.5h-7.6v-7.5zm11.4 0h7.5v7.5H308v-7.5zm11.3 0h7.6v7.5h-7.6v-7.5zm11.4 0h7.6v7.5h-7.6v-7.5zm11.4 0h7.5v7.5h-7.5v-7.5zm11.3 0h7.6v7.5h-7.6v-7.5zm11.4 0h7.6v7.5h-7.6v-7.5zm11.4 0h7.6v7.5h-7.6v-7.5zM23.8 144.7h7.5v7.6h-7.5v-7.6zm11.3 0h7.6v7.6h-7.6v-7.6zm11.4 0h7.6v7.6h-7.6v-7.6zm11.4 0h7.5v7.6h-7.5v-7.6zm11.3 0h7.6v7.6h-7.6v-7.6zm11.4 0h7.6v7.6h-7.6v-7.6zm11.4 0h7.5v7.6H92v-7.6zm11.3 0h7.6v7.6h-7.6v-7.6z"/><path class="st8" d="M103.3 144.7h7.6v7.6h-7.6v-7.6zm11.4 0h7.6v7.6h-7.6v-7.6z"/><path class="st8" d="M114.7 144.7h7.6v7.6h-7.6v-7.6zm11.4 0h7.5v7.6h-7.5v-7.6z"/><path class="st8" d="M126.1 144.7h7.5v7.6h-7.5v-7.6zm11.3 0h7.6v7.6h-7.6v-7.6z"/><path class="st8" d="M137.4 144.7h7.6v7.6h-7.6v-7.6zm11.4 0h7.6v7.6h-7.6v-7.6zm11.4 0h7.6v7.6h-7.6v-7.6zm11.3 0h7.6v7.6h-7.6v-7.6zm11.4 0h7.6v7.6h-7.6v-7.6zm11.4 0h7.6v7.6h-7.6v-7.6zm11.4 0h7.5v7.6h-7.5v-7.6zm11.3 0h7.6v7.6H217v-7.6zm11.4 0h7.6v7.6h-7.6v-7.6zm11.3 0h7.6v7.6h-7.6v-7.6zm11.4 0h7.6v7.6h-7.6v-7.6zm11.4 0h7.6v7.6h-7.6v-7.6zm11.4 0h7.5v7.6h-7.5v-7.6zm11.3 0h7.6v7.6h-7.6v-7.6zm11.4 0h7.6v7.6h-7.6v-7.6zm11.4 0h7.5v7.6H308v-7.6zm11.3 0h7.6v7.6h-7.6v-7.6zm11.4 0h7.6v7.6h-7.6v-7.6zm11.4 0h7.5v7.6h-7.5v-7.6zm11.3 0h7.6v7.6h-7.6v-7.6zm11.4 0h7.6v7.6h-7.6v-7.6zm11.4 0h7.6v7.6h-7.6v-7.6zM23.8 156.1h7.5v7.6h-7.5v-7.6zm11.3 0h7.6v7.6h-7.6v-7.6zm11.4 0h7.6v7.6h-7.6v-7.6zm11.4 0h7.5v7.6h-7.5v-7.6zm11.3 0h7.6v7.6h-7.6v-7.6zm11.4 0h7.6v7.6h-7.6v-7.6zm11.4 0h7.5v7.6H92v-7.6zm11.3 0h7.6v7.6h-7.6v-7.6z"/><path class="st8" d="M103.3 156.1h7.6v7.6h-7.6v-7.6zm11.4 0h7.6v7.6h-7.6v-7.6zm11.4 0h7.5v7.6h-7.5v-7.6z"/><path class="st8" d="M126.1 156.1h7.5v7.6h-7.5v-7.6zm11.3 0h7.6v7.6h-7.6v-7.6zm11.4 0h7.6v7.6h-7.6v-7.6zm11.4 0h7.6v7.6h-7.6v-7.6zm11.3 0h7.6v7.6h-7.6v-7.6zm11.4 0h7.6v7.6h-7.6v-7.6zm11.4 0h7.6v7.6h-7.6v-7.6zm11.4 0h7.5v7.6h-7.5v-7.6zm11.3 0h7.6v7.6H217v-7.6zm11.4 0h7.6v7.6h-7.6v-7.6zm11.3 0h7.6v7.6h-7.6v-7.6zm11.4 0h7.6v7.6h-7.6v-7.6zm11.4 0h7.6v7.6h-7.6v-7.6zm11.4 0h7.5v7.6h-7.5v-7.6zm11.3 0h7.6v7.6h-7.6v-7.6zm11.4 0h7.6v7.6h-7.6v-7.6zm11.4 0h7.5v7.6H308v-7.6zm11.3 0h7.6v7.6h-7.6v-7.6zm11.4 0h7.6v7.6h-7.6v-7.6zm11.4 0h7.5v7.6h-7.5v-7.6zm11.3 0h7.6v7.6h-7.6v-7.6zm11.4 0h7.6v7.6h-7.6v-7.6zm11.4 0h7.6v7.6h-7.6v-7.6zM23.8 167.5h7.5v7.5h-7.5v-7.5zm11.3 0h7.6v7.5h-7.6v-7.5zm11.4 0h7.6v7.5h-7.6v-7.5zm11.4 0h7.5v7.5h-7.5v-7.5zm11.3 0h7.6v7.5h-7.6v-7.5zm11.4 0h7.6v7.5h-7.6v-7.5zm11.4 0h7.5v7.5H92v-7.5zm11.3 0h7.6v7.5h-7.6v-7.5z"/><path class="st8" d="M103.3 167.5h7.6v7.5h-7.6v-7.5zm11.4 0h7.6v7.5h-7.6v-7.5zm11.4 0h7.5v7.5h-7.5v-7.5zm11.3 0h7.6v7.5h-7.6v-7.5z"/><path class="st8" d="M137.4 167.5h7.6v7.5h-7.6v-7.5zm11.4 0h7.6v7.5h-7.6v-7.5zm11.4 0h7.6v7.5h-7.6v-7.5zm11.3 0h7.6v7.5h-7.6v-7.5zm11.4 0h7.6v7.5h-7.6v-7.5zm11.4 0h7.6v7.5h-7.6v-7.5zm11.4 0h7.5v7.5h-7.5v-7.5zm11.3 0h7.6v7.5H217v-7.5zm11.4 0h7.6v7.5h-7.6v-7.5zm11.3 0h7.6v7.5h-7.6v-7.5zm11.4 0h7.6v7.5h-7.6v-7.5zm11.4 0h7.6v7.5h-7.6v-7.5zm11.4 0h7.5v7.5h-7.5v-7.5zm11.3 0h7.6v7.5h-7.6v-7.5zm11.4 0h7.6v7.5h-7.6v-7.5zm11.4 0h7.5v7.5H308v-7.5zm11.3 0h7.6v7.5h-7.6v-7.5zm11.4 0h7.6v7.5h-7.6v-7.5zm11.4 0h7.5v7.5h-7.5v-7.5zm11.3 0h7.6v7.5h-7.6v-7.5zm11.4 0h7.6v7.5h-7.6v-7.5zm11.4 0h7.6v7.5h-7.6v-7.5zM23.8 178.8h7.5v7.6h-7.5v-7.6zm11.3 0h7.6v7.6h-7.6v-7.6zm11.4 0h7.6v7.6h-7.6v-7.6zm11.4 0h7.5v7.6h-7.5v-7.6zm11.3 0h7.6v7.6h-7.6v-7.6zm11.4 0h7.6v7.6h-7.6v-7.6zm11.4 0h7.5v7.6H92v-7.6zm11.3 0h7.6v7.6h-7.6v-7.6z"/><path class="st8" d="M103.3 178.8h7.6v7.6h-7.6v-7.6zm11.4 0h7.6v7.6h-7.6v-7.6zm11.4 0h7.5v7.6h-7.5v-7.6zm11.3 0h7.6v7.6h-7.6v-7.6zm11.4 0h7.6v7.6h-7.6v-7.6z"/><path class="st8" d="M148.8 178.8h7.6v7.6h-7.6v-7.6zm11.4 0h7.6v7.6h-7.6v-7.6zm11.3 0h7.6v7.6h-7.6v-7.6zm11.4 0h7.6v7.6h-7.6v-7.6zm11.4 0h7.6v7.6h-7.6v-7.6zm11.4 0h7.5v7.6h-7.5v-7.6zm11.3 0h7.6v7.6H217v-7.6zm11.4 0h7.6v7.6h-7.6v-7.6zm11.3 0h7.6v7.6h-7.6v-7.6zm11.4 0h7.6v7.6h-7.6v-7.6zm11.4 0h7.6v7.6h-7.6v-7.6zm11.4 0h7.5v7.6h-7.5v-7.6zm11.3 0h7.6v7.6h-7.6v-7.6zm11.4 0h7.6v7.6h-7.6v-7.6zm11.4 0h7.5v7.6H308v-7.6zm11.3 0h7.6v7.6h-7.6v-7.6zm11.4 0h7.6v7.6h-7.6v-7.6zm11.4 0h7.5v7.6h-7.5v-7.6zm11.3 0h7.6v7.6h-7.6v-7.6zm11.4 0h7.6v7.6h-7.6v-7.6zm11.4 0h7.6v7.6h-7.6v-7.6zM23.8 190.2h7.5v7.6h-7.5v-7.6zm11.3 0h7.6v7.6h-7.6v-7.6zm11.4 0h7.6v7.6h-7.6v-7.6zm11.4 0h7.5v7.6h-7.5v-7.6zm11.3 0h7.6v7.6h-7.6v-7.6zm11.4 0h7.6v7.6h-7.6v-7.6zm11.4 0h7.5v7.6H92v-7.6zm11.3 0h7.6v7.6h-7.6v-7.6zm11.4 0h7.6v7.6h-7.6v-7.6zm11.4 0h7.5v7.6h-7.5v-7.6zm11.3 0h7.6v7.6h-7.6v-7.6zm11.4 0h7.6v7.6h-7.6v-7.6zm11.4 0h7.6v7.6h-7.6v-7.6zm11.3 0h7.6v7.6h-7.6v-7.6zm11.4 0h7.6v7.6h-7.6v-7.6zm11.4 0h7.6v7.6h-7.6v-7.6zm11.4 0h7.5v7.6h-7.5v-7.6zm11.3 0h7.6v7.6H217v-7.6zm11.4 0h7.6v7.6h-7.6v-7.6zm11.3 0h7.6v7.6h-7.6v-7.6zm11.4 0h7.6v7.6h-7.6v-7.6zm11.4 0h7.6v7.6h-7.6v-7.6zm11.4 0h7.5v7.6h-7.5v-7.6zm11.3 0h7.6v7.6h-7.6v-7.6zm11.4 0h7.6v7.6h-7.6v-7.6zm11.4 0h7.5v7.6H308v-7.6zm11.3 0h7.6v7.6h-7.6v-7.6zm11.4 0h7.6v7.6h-7.6v-7.6zm11.4 0h7.5v7.6h-7.5v-7.6zm11.3 0h7.6v7.6h-7.6v-7.6zm11.4 0h7.6v7.6h-7.6v-7.6zm11.4 0h7.6v7.6h-7.6v-7.6zM23.8 201.6h7.5v7.5h-7.5v-7.5zm11.3 0h7.6v7.5h-7.6v-7.5zm11.4 0h7.6v7.5h-7.6v-7.5zm11.4 0h7.5v7.5h-7.5v-7.5zm11.3 0h7.6v7.5h-7.6v-7.5zm11.4 0h7.6v7.5h-7.6v-7.5zm11.4 0h7.5v7.5H92v-7.5zm11.3 0h7.6v7.5h-7.6v-7.5zm11.4 0h7.6v7.5h-7.6v-7.5zm11.4 0h7.5v7.5h-7.5v-7.5zm11.3 0h7.6v7.5h-7.6v-7.5zm11.4 0h7.6v7.5h-7.6v-7.5zm11.4 0h7.6v7.5h-7.6v-7.5zm11.3 0h7.6v7.5h-7.6v-7.5zm11.4 0h7.6v7.5h-7.6v-7.5zm11.4 0h7.6v7.5h-7.6v-7.5zm11.4 0h7.5v7.5h-7.5v-7.5zm11.3 0h7.6v7.5H217v-7.5zm11.4 0h7.6v7.5h-7.6v-7.5zm11.3 0h7.6v7.5h-7.6v-7.5zm11.4 0h7.6v7.5h-7.6v-7.5zm11.4 0h7.6v7.5h-7.6v-7.5zm11.4 0h7.5v7.5h-7.5v-7.5zm11.3 0h7.6v7.5h-7.6v-7.5zm11.4 0h7.6v7.5h-7.6v-7.5zm11.4 0h7.5v7.5H308v-7.5zm11.3 0h7.6v7.5h-7.6v-7.5zm11.4 0h7.6v7.5h-7.6v-7.5zm11.4 0h7.5v7.5h-7.5v-7.5zm11.3 0h7.6v7.5h-7.6v-7.5zm11.4 0h7.6v7.5h-7.6v-7.5zm11.4 0h7.6v7.5h-7.6v-7.5zM23.8 212.9h7.5v7.6h-7.5v-7.6zm11.3 0h7.6v7.6h-7.6v-7.6zm11.4 0h7.6v7.6h-7.6v-7.6zm11.4 0h7.5v7.6h-7.5v-7.6zm11.3 0h7.6v7.6h-7.6v-7.6zm11.4 0h7.6v7.6h-7.6v-7.6zm11.4 0h7.5v7.6H92v-7.6zm11.3 0h7.6v7.6h-7.6v-7.6zm11.4 0h7.6v7.6h-7.6v-7.6zm11.4 0h7.5v7.6h-7.5v-7.6zm11.3 0h7.6v7.6h-7.6v-7.6zm11.4 0h7.6v7.6h-7.6v-7.6zm11.4 0h7.6v7.6h-7.6v-7.6zm11.3 0h7.6v7.6h-7.6v-7.6zm11.4 0h7.6v7.6h-7.6v-7.6zm11.4 0h7.6v7.6h-7.6v-7.6zm11.4 0h7.5v7.6h-7.5v-7.6zm11.3 0h7.6v7.6H217v-7.6zm11.4 0h7.6v7.6h-7.6v-7.6zm11.3 0h7.6v7.6h-7.6v-7.6zm11.4 0h7.6v7.6h-7.6v-7.6zm11.4 0h7.6v7.6h-7.6v-7.6zm11.4 0h7.5v7.6h-7.5v-7.6zm11.3 0h7.6v7.6h-7.6v-7.6zm11.4 0h7.6v7.6h-7.6v-7.6zm11.4 0h7.5v7.6H308v-7.6zm11.3 0h7.6v7.6h-7.6v-7.6zm11.4 0h7.6v7.6h-7.6v-7.6zm11.4 0h7.5v7.6h-7.5v-7.6zm11.3 0h7.6v7.6h-7.6v-7.6zm11.4 0h7.6v7.6h-7.6v-7.6zm11.4 0h7.6v7.6h-7.6v-7.6zM23.8 224.3h7.5v7.6h-7.5v-7.6zm11.3 0h7.6v7.6h-7.6v-7.6zm11.4 0h7.6v7.6h-7.6v-7.6zm11.4 0h7.5v7.6h-7.5v-7.6zm11.3 0h7.6v7.6h-7.6v-7.6zm11.4 0h7.6v7.6h-7.6v-7.6zm11.4 0h7.5v7.6H92v-7.6zm11.3 0h7.6v7.6h-7.6v-7.6zm11.4 0h7.6v7.6h-7.6v-7.6zm11.4 0h7.5v7.6h-7.5v-7.6zm11.3 0h7.6v7.6h-7.6v-7.6zm11.4 0h7.6v7.6h-7.6v-7.6zm11.4 0h7.6v7.6h-7.6v-7.6zm11.3 0h7.6v7.6h-7.6v-7.6zm11.4 0h7.6v7.6h-7.6v-7.6zm11.4 0h7.6v7.6h-7.6v-7.6zm11.4 0h7.5v7.6h-7.5v-7.6zm11.3 0h7.6v7.6H217v-7.6zm11.4 0h7.6v7.6h-7.6v-7.6zm11.3 0h7.6v7.6h-7.6v-7.6zm11.4 0h7.6v7.6h-7.6v-7.6zm11.4 0h7.6v7.6h-7.6v-7.6zm11.4 0h7.5v7.6h-7.5v-7.6zm11.3 0h7.6v7.6h-7.6v-7.6zm11.4 0h7.6v7.6h-7.6v-7.6zm11.4 0h7.5v7.6H308v-7.6zm11.3 0h7.6v7.6h-7.6v-7.6zm11.4 0h7.6v7.6h-7.6v-7.6zm11.4 0h7.5v7.6h-7.5v-7.6zm11.3 0h7.6v7.6h-7.6v-7.6zm11.4 0h7.6v7.6h-7.6v-7.6zm11.4 0h7.6v7.6h-7.6v-7.6zM23.8 235.7h7.5v7.5h-7.5v-7.5zm11.3 0h7.6v7.5h-7.6v-7.5zm11.4 0h7.6v7.5h-7.6v-7.5zm11.4 0h7.5v7.5h-7.5v-7.5zm11.3 0h7.6v7.5h-7.6v-7.5zm11.4 0h7.6v7.5h-7.6v-7.5zm11.4 0h7.5v7.5H92v-7.5zm11.3 0h7.6v7.5h-7.6v-7.5zm11.4 0h7.6v7.5h-7.6v-7.5zm11.4 0h7.5v7.5h-7.5v-7.5zm11.3 0h7.6v7.5h-7.6v-7.5zm11.4 0h7.6v7.5h-7.6v-7.5zm11.4 0h7.6v7.5h-7.6v-7.5zm11.3 0h7.6v7.5h-7.6v-7.5zm11.4 0h7.6v7.5h-7.6v-7.5zm11.4 0h7.6v7.5h-7.6v-7.5zm11.4 0h7.5v7.5h-7.5v-7.5zm11.3 0h7.6v7.5H217v-7.5zm11.4 0h7.6v7.5h-7.6v-7.5zm11.3 0h7.6v7.5h-7.6v-7.5zm11.4 0h7.6v7.5h-7.6v-7.5zm11.4 0h7.6v7.5h-7.6v-7.5zm11.4 0h7.5v7.5h-7.5v-7.5zm11.3 0h7.6v7.5h-7.6v-7.5zm11.4 0h7.6v7.5h-7.6v-7.5zm11.4 0h7.5v7.5H308v-7.5zm11.3 0h7.6v7.5h-7.6v-7.5zm11.4 0h7.6v7.5h-7.6v-7.5zm11.4 0h7.5v7.5h-7.5v-7.5zm11.3 0h7.6v7.5h-7.6v-7.5zm11.4 0h7.6v7.5h-7.6v-7.5zm11.4 0h7.6v7.5h-7.6v-7.5zM23.8 247h7.5v7.6h-7.5V247zm11.3 0h7.6v7.6h-7.6V247zm11.4 0h7.6v7.6h-7.6V247zm11.4 0h7.5v7.6h-7.5V247zm11.3 0h7.6v7.6h-7.6V247zm11.4 0h7.6v7.6h-7.6V247zm11.4 0h7.5v7.6H92V247zm11.3 0h7.6v7.6h-7.6V247zm11.4 0h7.6v7.6h-7.6V247zm11.4 0h7.5v7.6h-7.5V247zm11.3 0h7.6v7.6h-7.6V247zm11.4 0h7.6v7.6h-7.6V247zm11.4 0h7.6v7.6h-7.6V247zm11.3 0h7.6v7.6h-7.6V247zm11.4 0h7.6v7.6h-7.6V247zm11.4 0h7.6v7.6h-7.6V247zm11.4 0h7.5v7.6h-7.5V247zm11.3 0h7.6v7.6H217V247zm11.4 0h7.6v7.6h-7.6V247zm11.3 0h7.6v7.6h-7.6V247zm11.4 0h7.6v7.6h-7.6V247zm11.4 0h7.6v7.6h-7.6V247zm11.4 0h7.5v7.6h-7.5V247zm11.3 0h7.6v7.6h-7.6V247zm11.4 0h7.6v7.6h-7.6V247zm11.4 0h7.5v7.6H308V247zm11.3 0h7.6v7.6h-7.6V247zm11.4 0h7.6v7.6h-7.6V247zm11.4 0h7.5v7.6h-7.5V247zm11.3 0h7.6v7.6h-7.6V247zm11.4 0h7.6v7.6h-7.6V247zm11.4 0h7.6v7.6h-7.6V247z"/><path class="st6" d="M15.2 40.7h3.5v8.5h-3.5v-8.5z"/><text transform="translate(15.17 48.895)" class="st0 st7">1</text><path class="st6" d="M15.3 52h3.5v8.5h-3.5V52z"/><text transform="translate(15.265 60.264)" class="st0 st7">2</text><path class="st6" d="M15.3 63.4h3.5v8.5h-3.5v-8.5z"/><text transform="translate(15.265 71.633)" class="st0 st7">3</text><path class="st6" d="M15.3 74.8h3.5v8.5h-3.5v-8.5z"/><text transform="translate(15.265 83.001)" class="st0 st7">4</text><path class="st6" d="M15.3 86.1h3.5v8.5h-3.5v-8.5z"/><text transform="translate(15.265 94.37)" class="st0 st7">5</text><path class="st6" d="M15.3 97.5h3.5v8.5h-3.5v-8.5z"/><text transform="translate(15.265 105.739)" class="st0 st7">6</text><path class="st6" d="M15.3 108.9h3.5v8.5h-3.5v-8.5z"/><text transform="translate(15.265 117.107)" class="st0 st7">7</text><path class="st6" d="M15.3 120.2h3.5v8.5h-3.5v-8.5z"/><text transform="translate(15.265 128.476)" class="st0 st7">8</text><path class="st6" d="M15.3 131.6h3.5v8.5h-3.5v-8.5z"/><text transform="translate(15.265 139.844)" class="st0 st7">9</text><path class="st6" d="M11.8 143h6.9v8.5h-6.9V143z"/><text transform="translate(11.81 151.213)" class="st0 st7">10</text><path class="st6" d="M12.2 154.4h6.5v8.5h-6.5v-8.5z"/><text transform="translate(12.212 162.582)" class="st0 st7">1</text><text transform="translate(15.312 162.582)" class="st0 st7">1</text><path class="st6" d="M11.8 165.7h6.9v8.5h-6.9v-8.5z"/><text transform="translate(11.81 173.95)" class="st0 st7">12</text><path class="st6" d="M11.8 177.1h6.9v8.5h-6.9v-8.5z"/><text transform="translate(11.81 185.318)" class="st0 st7">13</text><path class="st6" d="M11.8 188.5h6.9v8.5h-6.9v-8.5z"/><text transform="translate(11.81 196.687)" class="st0 st7">14</text><path class="st6" d="M11.8 199.8h6.9v8.5h-6.9v-8.5z"/><text transform="translate(11.81 208.055)" class="st0 st7">15</text><path class="st6" d="M11.8 211.2h6.9v8.5h-6.9v-8.5z"/><text transform="translate(11.81 219.423)" class="st0 st7">16</text><path class="st6" d="M11.8 222.6h6.9v8.5h-6.9v-8.5z"/><text transform="translate(11.81 230.792)" class="st0 st7">17</text><path class="st6" d="M11.8 233.9h6.9v8.5h-6.9v-8.5z"/><text transform="translate(11.81 242.162)" class="st0 st7">18</text><path class="st6" d="M11.8 245.3h6.9v8.5h-6.9v-8.5z"/><text transform="translate(11.81 253.53)" class="st0 st7">19</text><path class="st8" d="M23.8 258.4h7.5v7.6h-7.5v-7.6zm11.3 0h7.6v7.6h-7.6v-7.6zm11.4 0h7.6v7.6h-7.6v-7.6zm11.4 0h7.5v7.6h-7.5v-7.6zm11.3 0h7.6v7.6h-7.6v-7.6zm11.4 0h7.6v7.6h-7.6v-7.6zm11.4 0h7.5v7.6H92v-7.6zm11.3 0h7.6v7.6h-7.6v-7.6zm11.4 0h7.6v7.6h-7.6v-7.6zm11.4 0h7.5v7.6h-7.5v-7.6zm11.3 0h7.6v7.6h-7.6v-7.6zm11.4 0h7.6v7.6h-7.6v-7.6zm11.4 0h7.6v7.6h-7.6v-7.6zm11.3 0h7.6v7.6h-7.6v-7.6zm11.4 0h7.6v7.6h-7.6v-7.6zm11.4 0h7.6v7.6h-7.6v-7.6zm11.4 0h7.5v7.6h-7.5v-7.6zm11.3 0h7.6v7.6H217v-7.6zm11.4 0h7.6v7.6h-7.6v-7.6zm11.3 0h7.6v7.6h-7.6v-7.6zm11.4 0h7.6v7.6h-7.6v-7.6zm11.4 0h7.6v7.6h-7.6v-7.6zm11.4 0h7.5v7.6h-7.5v-7.6zm11.3 0h7.6v7.6h-7.6v-7.6zm11.4 0h7.6v7.6h-7.6v-7.6zm11.4 0h7.5v7.6H308v-7.6zm11.3 0h7.6v7.6h-7.6v-7.6zm11.4 0h7.6v7.6h-7.6v-7.6zm11.4 0h7.5v7.6h-7.5v-7.6zm11.3 0h7.6v7.6h-7.6v-7.6zm11.4 0h7.6v7.6h-7.6v-7.6zm11.4 0h7.6v7.6h-7.6v-7.6z"/><path d="M8.7 268.5h377V25.4h-3.8l-3.7 44.1 3.7 43.6-3.7 91 1.9 56.8-47.4-1.9-75.8 3.8-83.4-3.8L39 260.9l-30.5-.6.2 8.2z" fill-rule="evenodd" clip-rule="evenodd" fill="#fff"/><path d="M8.5 260.5l30.5.4 132.6-1.9 85.3 3.8 75.8-3.8 47.4 1.9-1.9-56.8 3.7-91-3.7-43.6 3.4-40.3" fill="none" stroke="#fff" stroke-width=".5" stroke-miterlimit="3.864"/><path class="st11" d="M180.9 166.9v10h10l-10-10z"/><path class="st12" d="M180.9 166.9v10h10l-10-10z"/><path class="st11" d="M180.9 146.9v10l20 20h9.9l-29.9-30z"/><path class="st12" d="M180.9 146.9v10l20 20h9.9l-29.9-30z"/><path class="st11" d="M180.9 127v9.9L221 177h9.9l-50-50z"/><path class="st13" d="M180.9 127v9.9L221 177h9.9l-50-50z"/><path class="st11" d="M182.7 108.7h-1.8v8.2l56.9 56.8v-9.9l-55.1-55.1z"/><path class="st13" d="M182.7 108.7h-1.8v8.2l56.9 56.8v-9.9l-55.1-55.1z"/><path class="st11" d="M202.6 108.7h-9.9l45.1 45.1.1-9.9-35.3-35.2z"/><path class="st13" d="M202.6 108.7h-9.9l45.1 45.1.1-9.9-35.3-35.2z"/><path class="st11" d="M222.7 108.7h-10l25.1 25.1v-9.9l-15.1-15.2z"/><path class="st12" d="M222.7 108.7h-10l25.1 25.1v-9.9l-15.1-15.2z"/><path class="st11" d="M232.6 108.7l5.2 5.2.1-5.2h-5.3z"/><path class="st12" d="M232.6 108.7l5.2 5.2.1-5.2h-5.3z"/><path d="M430.2 201.6H217m213.2-57.2H211" fill="none" stroke="#000" stroke-width="1.417" stroke-miterlimit="10"/><path class="st6" d="M428.5 28.5h16v16.1h-16V28.5z"/><path d="M428.5 28.5h16v16.1h-16V28.5z" fill="#9ba566"/><path d="M428.5 28.5h16v16.1h-16V28.5z" fill="#9ba566" stroke="#000" stroke-width=".001" stroke-miterlimit="3.864"/><path class="st11" d="M428.5 41.1v3.6h3.6l-3.6-3.6z"/><path class="st12" d="M428.5 41.1v3.6h3.6l-3.6-3.6z"/><path class="st11" d="M428.5 34v3.5l7.1 7.1h3.6L428.5 34z"/><path class="st12" d="M428.5 34v3.5l7.1 7.1h3.6L428.5 34z"/><path class="st11" d="M444.5 39.2v-3.5l-7.1-7.2h-3.6l10.7 10.7z"/><path class="st12" d="M444.5 39.2v-3.5l-7.1-7.2h-3.6l10.7 10.7z"/><path class="st11" d="M444.5 32.1v-3.6h-3.6l3.6 3.6z"/><path class="st12" d="M444.5 32.1v-3.6h-3.6l3.6 3.6z"/><path class="st11" d="M428.5 28.5v1.9l14.3 14.2h1.7v-1.7l-14.3-14.4h-1.7z"/><path class="st12" d="M428.5 28.5v1.9l14.3 14.2h1.7v-1.7l-14.3-14.4h-1.7z"/><text transform="translate(451.898 41.084)" class="st0 st1">= overlap</text></svg>