<svg version="1.0" xmlns="http://www.w3.org/2000/svg" viewBox="0 0 335 220"><path fill="#5EC5ED" d="M236.1 187.8h7.7v3.8h-7.7v-3.8z"/><path fill="#5EC5ED" stroke="#000" stroke-width=".073" stroke-miterlimit="3.864" d="M236.1 187.8h7.7v3.8h-7.7v-3.8z"/><path fill="#020405" d="M242.1 202.9h1.7v3.9h-1.7v-3.9z"/><path fill="none" stroke="#020405" stroke-width=".073" stroke-miterlimit="3.864" d="M242.1 202.9h1.7v3.9h-1.7v-3.9z"/><path fill="#5EC5ED" d="M59.9 42.4h64v4.9h-64v-4.9z"/><path fill="#5EC5ED" stroke="#000" stroke-width=".073" stroke-miterlimit="3.864" d="M59.9 42.4h64v4.9h-64v-4.9z"/><path fill="#5EC5ED" d="M61.7 50h64v5h-64v-5z"/><path fill="#5EC5ED" stroke="#000" stroke-width=".073" stroke-miterlimit="3.864" d="M61.7 50h64v5h-64v-5z"/><path fill="#5EC5ED" d="M63.9 57.4H128v5H63.9v-5z"/><path fill="#5EC5ED" stroke="#000" stroke-width=".073" stroke-miterlimit="3.864" d="M63.9 57.4H128v5H63.9v-5z"/><path fill="#5EC5ED" d="M66.2 64.7h64v5h-64v-5z"/><path fill="#5EC5ED" stroke="#000" stroke-width=".073" stroke-miterlimit="3.864" d="M66.2 64.7h64v5h-64v-5z"/><path fill="#5EC5ED" d="M68.4 72.5h64v4.9h-64v-4.9z"/><path fill="#5EC5ED" stroke="#000" stroke-width=".073" stroke-miterlimit="3.864" d="M68.4 72.5h64v4.9h-64v-4.9z"/><path fill="#5EC5ED" d="M70.7 79.8h64v5h-64v-5z"/><path fill="#5EC5ED" stroke="#000" stroke-width=".073" stroke-miterlimit="3.864" d="M70.7 79.8h64v5h-64v-5z"/><path fill="#5EC5ED" d="M121.9 114.4h64v5h-64v-5z"/><path fill="#5EC5ED" stroke="#000" stroke-width=".073" stroke-miterlimit="3.864" d="M121.9 114.4h64v5h-64v-5z"/><path fill="#5EC5ED" d="M124 122.1h64v5h-64v-5z"/><path fill="#5EC5ED" stroke="#000" stroke-width=".073" stroke-miterlimit="3.864" d="M124 122.1h64v5h-64v-5z"/><path fill="#5EC5ED" d="M126.5 129.5h64.1v4.9h-64.1v-4.9z"/><path fill="#5EC5ED" stroke="#000" stroke-width=".073" stroke-miterlimit="3.864" d="M126.5 129.5h64.1v4.9h-64.1v-4.9z"/><path fill="#020405" d="M123.5 42.4h2.2v4.9h-2.2v-4.9z"/><path fill="none" stroke="#020405" stroke-width=".073" stroke-miterlimit="3.864" d="M123.5 42.4h2.2v4.9h-2.2v-4.9z"/><path fill="#020405" d="M125.7 50h2.2v5h-2.2v-5z"/><path fill="none" stroke="#020405" stroke-width=".073" stroke-miterlimit="3.864" d="M125.7 50h2.2v5h-2.2v-5z"/><path fill="#020405" d="M128 57.4h2.2v5H128v-5z"/><path fill="none" stroke="#020405" stroke-width=".073" stroke-miterlimit="3.864" d="M128 57.4h2.2v5H128v-5z"/><path fill="#020405" d="M130.2 64.8h2.2v4.9h-2.2v-4.9z"/><path fill="none" stroke="#020405" stroke-width=".073" stroke-miterlimit="3.864" d="M130.2 64.8h2.2v4.9h-2.2v-4.9z"/><path fill="#020405" d="M132.4 72.5h2.2v4.9h-2.2v-4.9z"/><path fill="none" stroke="#020405" stroke-width=".073" stroke-miterlimit="3.864" d="M132.4 72.5h2.2v4.9h-2.2v-4.9z"/><path fill="#020405" d="M134.7 79.8h2.2v5h-2.2v-5z"/><path fill="none" stroke="#020405" stroke-width=".073" stroke-miterlimit="3.864" d="M134.7 79.8h2.2v5h-2.2v-5z"/><path fill="#020405" d="M185.9 114.4h2.2v5h-2.2v-5z"/><path fill="none" stroke="#020405" stroke-width=".073" stroke-miterlimit="3.864" d="M185.9 114.4h2.2v5h-2.2v-5z"/><path fill="#020405" d="M188.2 122.1h2.2v5h-2.2v-5z"/><path fill="none" stroke="#020405" stroke-width=".073" stroke-miterlimit="3.864" d="M188.2 122.1h2.2v5h-2.2v-5z"/><path fill="#020405" d="M190.4 129.5h2.2v4.9h-2.2v-4.9z"/><path fill="none" stroke="#020405" stroke-width=".073" stroke-miterlimit="3.864" d="M190.4 129.5h2.2v4.9h-2.2v-4.9z"/><path d="M129.1 89.7c0-.5.2-.8.6-.8.3 0 .6.4.6.8 0 .5-.2.8-.6.8-.4 0-.6-.3-.6-.8z"/><path fill="none" stroke="#000" stroke-width=".092" stroke-miterlimit="3.864" d="M129.1 89.7c0-.5.2-.8.6-.8.3 0 .6.4.6.8 0 .5-.2.8-.6.8-.4 0-.6-.3-.6-.8z"/><path d="M131.3 94.7c0-.5.2-.8.6-.8.3 0 .6.4.6.8 0 .5-.2.8-.6.8-.4 0-.6-.4-.6-.8z"/><path fill="none" stroke="#000" stroke-width=".092" stroke-miterlimit="3.864" d="M131.3 94.7c0-.5.2-.8.6-.8.3 0 .6.4.6.8 0 .5-.2.8-.6.8-.4 0-.6-.4-.6-.8z"/><path d="M133.5 99.6c0-.5.2-.8.6-.8.3 0 .6.4.6.8 0 .5-.2.8-.6.8-.4.1-.6-.3-.6-.8z"/><path fill="none" stroke="#000" stroke-width=".092" stroke-miterlimit="3.864" d="M133.5 99.6c0-.5.2-.8.6-.8.3 0 .6.4.6.8 0 .5-.2.8-.6.8-.4.1-.6-.3-.6-.8z"/><path d="M135.7 104.6c0-.5.2-.8.6-.8.3 0 .6.4.6.8 0 .5-.2.8-.6.8-.4 0-.6-.3-.6-.8z"/><path fill="none" stroke="#000" stroke-width=".092" stroke-miterlimit="3.864" d="M135.7 104.6c0-.5.2-.8.6-.8.3 0 .6.4.6.8 0 .5-.2.8-.6.8-.4 0-.6-.3-.6-.8z"/><path d="M137.9 109.6c0-.5.2-.8.6-.8.3 0 .6.4.6.8 0 .5-.2.8-.6.8-.4 0-.6-.4-.6-.8z"/><path fill="none" stroke="#000" stroke-width=".092" stroke-miterlimit="3.864" d="M137.9 109.6c0-.5.2-.8.6-.8.3 0 .6.4.6.8 0 .5-.2.8-.6.8-.4 0-.6-.4-.6-.8z"/><g clip-rule="evenodd"><path fill-rule="evenodd" d="M208.8 159.4v-3.6l2.9 3.6-2.9 3.6z"/><path fill="none" stroke="#000" stroke-miterlimit="3.864" d="M56.1 159.4H209"/></g><path clip-rule="evenodd" fill="none" stroke="#000" stroke-width=".612" stroke-miterlimit="3.864" d="M52.7 23h163.6"/><text transform="translate(249.252 193.1)" font-family="Helvetica,Arial,sans-serif" font-size="11">= Exposure</text><text transform="translate(121.92 173.737)" font-family="Helvetica,Arial,sans-serif" font-size="11">Time</text><text transform="translate(7.668 15.202)"><tspan x="0" y="0" font-family="Helvetica,Arial,sans-serif" font-size="11">Flash Window </tspan><tspan x="0" y="13.2" font-family="Helvetica,Arial,sans-serif" font-size="11">signal</tspan></text><text transform="translate(249.33 208.588)" font-family="Helvetica,Arial,sans-serif" font-size="11">= Readout</text><path fill="none" stroke="#000" stroke-width=".5" stroke-miterlimit="3.864" stroke-dasharray="1,1" d="M123.5 32v120m3.3-17.6v17.3"/><text transform="translate(221.667 25.166)" font-family="Helvetica,Arial,sans-serif" font-size="8">(low)</text><text transform="translate(30.487 195.39)" font-family="Helvetica,Arial,sans-serif" font-size="11">= Start of exposure row N</text><text transform="translate(30.487 210.117)" font-family="Helvetica,Arial,sans-serif" font-size="11">= End of exposure row 1</text><text transform="translate(20.03 195.891)" fill="#00305F" font-family="Helvetica,Arial,sans-serif" font-size="12">A</text><text transform="translate(129.059 153.807)" fill="#00305F" font-family="Helvetica,Arial,sans-serif" font-size="12">A</text><text transform="translate(19.78 210.454)" fill="#F99D33" font-family="Helvetica,Arial,sans-serif" font-size="12">B</text><text transform="translate(113.911 36.376)" fill="#F99D33" font-family="Helvetica,Arial,sans-serif" font-size="12">B</text></svg>