<svg version="1.0" xmlns="http://www.w3.org/2000/svg" viewBox="0 0 550 290"><path fill="#3C3C3C" d="M86.8 100.8h89.9v17.9H86.8v-17.9z"/><path fill="#3C3C3C" stroke="#000" stroke-width=".5" stroke-miterlimit="3.864" d="M86.8 100.8h89.9v17.9H86.8v-17.9z"/><path fill="#BDE4F7" d="M22.5 100.8h64.4v17.9H22.5v-17.9z"/><path fill="none" stroke="#000" stroke-width=".5" stroke-miterlimit="3.864" d="M22.5 100.8h64.4v17.9H22.5v-17.9z"/><path fill="none" stroke="#000" stroke-width=".5" stroke-miterlimit="3.864" d="M22.6 88.1h154.1v30.7H22.6V88.1z"/><path fill="#3C3C3C" d="M190.3 141.5h89.9v17.9h-89.9v-17.9z"/><path fill="#3C3C3C" stroke="#000" stroke-width=".5" stroke-miterlimit="3.864" d="M190.3 141.5h89.9v17.9h-89.9v-17.9z"/><path fill="#BDE4F7" d="M126 141.5h64.4v17.9H126v-17.9z"/><path fill="#BDE4F7" stroke="#000" stroke-width=".5" stroke-miterlimit="3.864" d="M126 141.5h64.4v17.9H126v-17.9z"/><path fill="none" stroke="#000" stroke-width=".5" stroke-miterlimit="3.864" d="M126 128.8h154.2v30.7H126v-30.7z"/><path fill="#3C3C3C" d="M294.4 182.1h89.8V200h-89.8v-17.9z"/><path fill="#3C3C3C" stroke="#000" stroke-width=".5" stroke-miterlimit="3.864" d="M294.4 182.1h89.8V200h-89.8v-17.9z"/><path fill="#BDE4F7" d="M230 182.1h64.5V200H230v-17.9z"/><path fill="#BDE4F7" stroke="#000" stroke-width=".5" stroke-miterlimit="3.864" d="M230 182.1h64.5V200H230v-17.9z"/><path fill="none" stroke="#000" stroke-width=".5" stroke-miterlimit="3.864" d="M230.1 169.4h154.1v30.7H230.1v-30.7z"/><g clip-rule="evenodd"><path fill-rule="evenodd" d="M527.8 258.6v-6.3l15.7 6.3-15.7 6.3z"/><path fill="none" stroke="#000" stroke-width="2.5" stroke-miterlimit="3.864" d="M2.6 258.6h526.2"/></g><path fill="#3C3C3C" d="M397.3 222.8h89.8v17.9h-89.8v-17.9z"/><path fill="#3C3C3C" stroke="#000" stroke-width=".5" stroke-miterlimit="3.864" d="M397.3 222.8h89.8v17.9h-89.8v-17.9z"/><path fill="#BDE4F7" d="M332.9 222.8h64.5v17.9h-64.5v-17.9z"/><path fill="#BDE4F7" stroke="#000" stroke-width=".5" stroke-miterlimit="3.864" d="M332.9 222.8h64.5v17.9h-64.5v-17.9z"/><path fill="none" stroke="#000" stroke-width=".5" stroke-miterlimit="3.864" d="M333 210.1h154.1v30.7H333v-30.7z"/><path clip-rule="evenodd" fill="none" stroke="#000" stroke-miterlimit="3.864" d="M22.8 75.3V49.2m63.8 25.6v-26m-63.8-.2h64.1m-.4 26.5h39.8m-119 .3h15.6m103.5-.5v-26m64 25.6V48.4m-64.6-.1h65.1m-.9 26.5h40m-.6-.2v-26M294 74.2V48.1m-64.6-.1h65.2m-.8 26.4h39.8m-.2-.1v-26m64.2 25.5v-26m-64.7-.2h65m.2 26.5h129.7"/><text transform="translate(261.965 280.307)" font-family="Helvetica,Arial,sans-serif" font-size="16.568">Time</text><text transform="translate(27.093 115.064)" fill="#101417" font-family="Helvetica,Arial,sans-serif" font-size="13.556">Exposure</text><text transform="translate(108.938 114.755)" fill="#F5F5F5" font-family="Helvetica,Arial,sans-serif" font-size="13.556">Readout</text><text transform="translate(44.453 98.853)" font-family="Helvetica,Arial,sans-serif" font-size="12.324">Frame acquisition n</text><text transform="translate(130.831 155.901)" font-family="Helvetica,Arial,sans-serif" font-size="13.556">Exposure</text><text transform="translate(211.443 155.901)" fill="#F5F5F5" font-family="Helvetica,Arial,sans-serif" font-size="13.556">Readout</text><text transform="translate(143.57 139.69)" font-family="Helvetica,Arial,sans-serif" font-size="12.324">Frame acquisition n+1</text><text transform="translate(235.148 196.734)" font-family="Helvetica,Arial,sans-serif" font-size="13.556">Exposure</text><text transform="translate(313.603 196.734)" fill="#F5F5F5" font-family="Helvetica,Arial,sans-serif" font-size="13.556">Readout</text><text transform="translate(246.961 180.831)" font-family="Helvetica,Arial,sans-serif" font-size="12.324">Frame acquisition n+2</text><text transform="translate(337.963 237.402)" font-family="Helvetica,Arial,sans-serif" font-size="13.556">Exposure</text><text transform="translate(416.419 237.402)" fill="#F5F5F5" font-family="Helvetica,Arial,sans-serif" font-size="13.556">Readout</text><text transform="translate(349.777 221.5)" font-family="Helvetica,Arial,sans-serif" font-size="12.324">Frame acquisition n+3</text><text transform="translate(7.251 17.831)"><tspan x="0" y="0" font-family="Helvetica,Arial,sans-serif" font-size="13.506">Frame Start </tspan><tspan x="0" y="16.2" font-family="Helvetica,Arial,sans-serif" font-size="13.506">trigger signal</tspan></text></svg>