<svg version="1.0" xmlns="http://www.w3.org/2000/svg" xmlns:xlink="http://www.w3.org/1999/xlink" viewBox="0 52 400 380"><path fill="#FFF" d="M58.6 319.1h322V69.8h-322v249.3z"/><path fill="none" stroke="#000" stroke-linecap="square" d="M58.6 319.1h322M58.6 69.8h322m0 249.3V69.8m-322 249.3V69.8"/><path stroke="#000" stroke-width=".5" stroke-linejoin="round" d="M58.6 319.1v-2.9m0-246.4v2.9m63.1 246.4v-2.9m0-246.4v2.9m63.2 246.4v-2.9m0-246.4v2.9M248 319.1v-2.9m0-246.4v2.9m63.1 246.4v-2.9m0-246.4v2.9m63.2 246.4v-2.9m0-246.4v2.9M58.6 319.1h2.9m319.1 0h-2.9M58.6 270.2h2.9m319.1 0h-2.9M58.6 221.3h2.9m319.1 0h-2.9M58.6 172.4h2.9m319.1 0h-2.9M58.6 123.5h2.9m319.1 0h-2.9M58.6 74.7h2.9m319.1 0h-2.9"/><defs><path id="a" d="M58.6 69.8h322v249.3h-322z"/></defs><clipPath id="b"><use xlink:href="#a" overflow="visible"/></clipPath><path clip-path="url(#b)" fill="none" stroke="#006F9F" stroke-linecap="square" stroke-linejoin="round" d="M58.6 319.1l8.8-10.9 8.8-11.2 8.8-11.5 8.8-11.8 8.8-12 8.8-12.3 8.8-12.7 7.6-11.1 7.6-11.4 7.6-11.6 7.6-11.9 7.6-12.2 7.6-12.5 7.6-12.6 2.5-3.7 2.5-3.4 2.5-3.1 2.5-2.9 2.5-2.7 3.8-3.8 3.8-3.5 3.8-3.2 3.8-3 3.8-2.8 3.8-2.6 5.1-3.2 5.1-3 5.1-2.8 5.1-2.6 5.1-2.5 6.3-2.9 6.3-2.7 6.3-2.5 6.3-2.3 6.3-2.2 7.6-2.4 7.6-2.2 7.6-2.1 7.6-1.9 8.8-2.1 8.8-1.9 8.8-1.7 10.1-1.8 10.1-1.6 10.1-1.5 11.4-1.5 11.4-1.3 5.1-.5h0"/><defs><path id="c" d="M58.6 69.8h322v249.3h-322z"/></defs><clipPath id="d"><use xlink:href="#c" overflow="visible"/></clipPath><g clip-path="url(#d)"><path fill="green" stroke="#000" stroke-width=".5" stroke-linejoin="round" d="M171.3 159.2c.6 0 1.1-.2 1.5-.6.4-.4.6-1 .6-1.5 0-.6-.2-1.1-.6-1.5-.4-.4-1-.6-1.5-.6-.6 0-1.1.2-1.5.6-.4.4-.6 1-.6 1.5 0 .6.2 1.1.6 1.5.4.4.9.6 1.5.6z"/></g><text transform="translate(38.882 274.425)" font-family="Helvetica,Arial,sans-serif" font-size="13">50</text><text transform="translate(114.61 336.215)" font-family="Helvetica,Arial,sans-serif" font-size="13">50</text><text transform="translate(31.662 225.447)" font-family="Helvetica,Arial,sans-serif" font-size="13">100</text><text transform="translate(174.112 336.215)" font-family="Helvetica,Arial,sans-serif" font-size="13">100</text><text transform="translate(31.662 176.471)" font-family="Helvetica,Arial,sans-serif" font-size="13">150</text><text transform="translate(237.226 336.215)" font-family="Helvetica,Arial,sans-serif" font-size="13">150</text><text transform="translate(31.662 127.495)" font-family="Helvetica,Arial,sans-serif" font-size="13">200</text><text transform="translate(300.338 336.216)" font-family="Helvetica,Arial,sans-serif" font-size="13">200</text><text transform="translate(31.662 78.519)" font-family="Helvetica,Arial,sans-serif" font-size="13">250</text><text transform="translate(363.452 336.215)" font-family="Helvetica,Arial,sans-serif" font-size="13">250</text><text transform="translate(46.103 336.215)" font-family="Helvetica,Arial,sans-serif" font-size="13">0</text><text transform="translate(243.122 401.144)"><tspan x="0" y="0" font-family="Helvetica,Arial,sans-serif" font-size="13">8-bit pixel values shown</tspan><tspan x="0" y="15.6" font-family="Helvetica,Arial,sans-serif" font-size="13">as an example</tspan></text><text transform="translate(55.593 385.545)"><tspan x="0" y="0" font-family="Helvetica,Arial,sans-serif" font-size="13">Contrast = 0.3</tspan><tspan x="0" y="15.6" fill="#F99D33" font-family="Helvetica,Arial,sans-serif" font-weight="bold" font-size="13">Brightness = 0.3</tspan><tspan x="0" y="31.2" font-family="Helvetica,Arial,sans-serif" font-size="13">S-Curve contrast mode</tspan></text><text transform="translate(170.258 363.21)" font-family="Helvetica,Arial,sans-serif" font-size="13">Input pixel values</text><text transform="rotate(-90 137.901 116.31)" font-family="Helvetica,Arial,sans-serif" font-size="13">Output pixel values</text><text transform="translate(219.75 207.838)" font-family="Helvetica,Arial,sans-serif" font-size="14">Pivot point</text><path fill="none" stroke="#000" stroke-miterlimit="10" d="M215.7 193.4L186 168.6"/><path d="M189.4 167.6l-10.1-4.7 6.4 9.2z"/></svg>