<svg version="1.0" xmlns="http://www.w3.org/2000/svg" viewBox="0 0 440 180"><path fill="none" stroke="#000" stroke-width=".283" stroke-linecap="round" stroke-linejoin="round" stroke-miterlimit="10" d="M201.3 164.8c2.7 0 4.9-2.2 4.9-4.9m0-137c0-2.7-2.2-4.9-4.9-4.9M10.4 159.9c0 2.7 2.2 4.9 4.9 4.9m0-146.8c-2.7 0-4.9 2.2-4.9 4.9m195.8 137v-137m-4.9-4.9h-186m-3.9 141.9v-137m-1 0v137m1 0c0 2.2 1.8 3.9 3.9 3.9m186 .1h-186m0 .9h186m0-.9c2.2 0 3.9-1.8 3.9-3.9m.1-137.1v137m0-137c0-2.2-1.8-3.9-3.9-3.9M15.3 19h186m-186 0c-2.2 0-3.9 1.8-3.9 3.9M76.6 83V28.3m75.9 0V83m-2.5 2.5c1.4 0 2.4-1.1 2.4-2.4M76.6 83c0 1.3 1.1 2.4 2.4 2.4m0-59.5c-1.4 0-2.4 1.1-2.4 2.4m75.9 0c0-1.4-1.1-2.4-2.4-2.4m-.1 59.6H79m0-59.6h71m19.4 32.7c0-3.2-2.6-5.9-5.9-5.9-3.2 0-5.9 2.6-5.9 5.9 0 3.2 2.6 5.9 5.9 5.9 3.2 0 5.9-2.6 5.9-5.9h0z"/><path fill="none" stroke="#000" stroke-width=".283" stroke-linecap="round" stroke-linejoin="round" stroke-miterlimit="10" d="M167.3 58.6c0-2.1-1.7-3.8-3.8-3.8-2.1 0-3.8 1.7-3.8 3.8 0 2.1 1.7 3.8 3.8 3.8 2.1 0 3.8-1.7 3.8-3.8h0zm-95.8 0c0-3.2-2.6-5.9-5.9-5.9-3.2 0-5.9 2.6-5.9 5.9 0 3.2 2.6 5.9 5.9 5.9 3.2 0 5.9-2.6 5.9-5.9h0z"/><path fill="none" stroke="#000" stroke-width=".283" stroke-linecap="round" stroke-linejoin="round" stroke-miterlimit="10" d="M69.4 58.6c0-2.1-1.7-3.8-3.8-3.8-2.1 0-3.8 1.7-3.8 3.8 0 2.1 1.7 3.8 3.8 3.8 2.1 0 3.8-1.7 3.8-3.8h0zm28.2 65.1c0-15.4-12.5-27.9-27.9-27.9-15.4 0-27.9 12.5-27.9 27.9 0 15.4 12.5 27.9 27.9 27.9 15.4 0 27.9-12.5 27.9-27.9h0zm-45.4-2.9h2.9m0 5.9h-2.9m2.9-5.9v5.9m32.1 0h-3m0-5.9h3m-3 5.9v-5.9"/><path fill="none" stroke="#000" stroke-width=".283" stroke-linecap="round" stroke-linejoin="round" stroke-miterlimit="10" d="M87.4 123.7c0-9.8-7.9-17.7-17.7-17.7-9.8 0-17.7 7.9-17.7 17.7 0 9.8 7.9 17.7 17.7 17.7 9.8.1 17.7-7.9 17.7-17.7h0z"/><path stroke="#000" stroke-width=".283" stroke-linecap="round" stroke-linejoin="round" stroke-miterlimit="10" d="M75.4 116.1c0-.7-.6-1.3-1.3-1.3-.7 0-1.3.6-1.3 1.3 0 .7.6 1.3 1.3 1.3.7 0 1.3-.6 1.3-1.3h0zm-8.8 0c0-.7-.6-1.3-1.3-1.3-.7 0-1.3.6-1.3 1.3 0 .7.6 1.3 1.3 1.3.7 0 1.3-.6 1.3-1.3h0zm-4.4 7.6c0-.7-.6-1.3-1.3-1.3-.7 0-1.3.6-1.3 1.3 0 .7.6 1.3 1.3 1.3.7.1 1.3-.5 1.3-1.3h0zm4.4 7.7c0-.7-.6-1.3-1.3-1.3-.7 0-1.3.6-1.3 1.3 0 .7.6 1.3 1.3 1.3.7 0 1.3-.6 1.3-1.3h0zm8.8 0c0-.7-.6-1.3-1.3-1.3-.7 0-1.3.6-1.3 1.3 0 .7.6 1.3 1.3 1.3.7 0 1.3-.6 1.3-1.3h0zm4.4-7.7c0-.7-.6-1.3-1.3-1.3-.7 0-1.3.6-1.3 1.3 0 .7.6 1.3 1.3 1.3.7.1 1.3-.5 1.3-1.3h0z"/><path fill="none" stroke="#000" stroke-width=".283" stroke-linecap="round" stroke-linejoin="round" stroke-miterlimit="10" d="M96.6 123.7c0-14.9-12.1-26.9-26.9-26.9-14.9 0-26.9 12.1-26.9 26.9 0 14.9 12.1 26.9 26.9 26.9 14.8 0 26.9-12 26.9-26.9h0z"/><path fill="none" stroke="#000" stroke-width=".283" stroke-linecap="round" stroke-linejoin="round" stroke-miterlimit="10" d="M91.3 123.7c0-12-9.7-21.7-21.7-21.7s-21.7 9.7-21.7 21.7 9.7 21.7 21.7 21.7 21.7-9.7 21.7-21.7h0zM77.8 83.6V70.4m0-7.4V49.8m0-7.3V27.3m62.7 56.3H88.6m-7.3 0h-3.5m73.5 0h-3.5m3.5-56.3v15.2m0 7.3V63m0 7.4v13.2m-2.5-56.3h2.5m-73.5 0h2.5m7.3 0h16m21.8 0h16.1m6.3 56.3v.3m-7.3 0v-.3m7.3 0h-7.3m-59.2 0v.3m7.3 0v-.3m0 0h-7.3M151.6 63h-.3m0 7.4h.3m-.3-7.4v7.4m.3-20.6h-.3m0-7.3h.3m-.3 0v7.3M77.4 63h.4m0 7.4h-.4m.4 0V63m-.4-13.2h.4m0-7.3h-.4m.4 7.3v-7.3m71-15.6v.4m-7.3 0v-.4m0 .4h7.3m-68.5-.4v.4m7.3 0v-.4m-7.3.4h7.3m37.8 0v3.4m-21.8 0v-3.4m21.8 3.4h-21.8m21.8 0h5.8m0 0v7.7m0 0h3.9m0 0v2.3m-41.1 0v-2.3m0 0h3.9m0 0v-7.7m0 0h5.7m31.5 10h9.8m0 0V76m0 0H84.2m0 0V40.7m0 0H94"/><path fill="none" stroke="#000" stroke-width=".283" stroke-linecap="round" stroke-linejoin="round" stroke-miterlimit="10" d="M52.2 127.1c2.2 9.6 11.8 15.6 21.4 13.4 6.7-1.5 11.9-6.7 13.4-13.4m16.6-99.4h21.8m-115 132.2h1m0-137h-1m4.9 141.9v-.9m186 .9v-.9m4.9-4h-.9m.9-137h-.9m-4-4.9v1m-186-1v1"/><path fill="none" stroke="#000" stroke-width=".227" stroke-linecap="round" stroke-linejoin="round" stroke-miterlimit="10" d="M15.3 164.8h0"/><path fill="none" stroke="#000" stroke-width=".283" stroke-miterlimit="3.864" d="M75.1 58.6c0 5.3-4.3 9.5-9.5 9.5-5.3 0-9.5-4.3-9.5-9.5 0-5.3 4.3-9.5 9.5-9.5 5.3 0 9.5 4.3 9.5 9.5zm97.9 0c0 5.3-4.3 9.5-9.5 9.5-5.3 0-9.5-4.3-9.5-9.5 0-5.3 4.3-9.5 9.5-9.5 5.3 0 9.5 4.2 9.5 9.5zm-73 65.1c0 16.8-13.6 30.4-30.4 30.4-16.8 0-30.4-13.6-30.4-30.4s13.6-30.4 30.4-30.4c16.8 0 30.4 13.6 30.4 30.4z"/><text transform="translate(267.948 58.371)"><tspan x="0" y="0" font-family="Helvetica,Arial,sans-serif" font-size="14">Ethernet connector </tspan><tspan x="0" y="16.8" font-family="Helvetica,Arial,sans-serif" font-size="14">(8-pin RJ-45 jack)</tspan></text><text transform="translate(267.948 122.375)"><tspan x="0" y="0" font-family="Helvetica,Arial,sans-serif" font-size="14">I/O connector </tspan><tspan x="0" y="16.8" font-family="Helvetica,Arial,sans-serif" font-size="14">(6-pin connector)</tspan></text><path fill="none" stroke="#000" stroke-miterlimit="10" d="M114.5 58.6h143.1m-188 65.1h188"/></svg>