<svg version="1.0" xmlns="http://www.w3.org/2000/svg" viewBox="0 0 246 51"><path fill="none" stroke="#000" stroke-linecap="square" stroke-linejoin="round" stroke-miterlimit="10" d="M89.8 25.5h84"/><g font-family="Helvetica,Arial,sans-serif"><text transform="translate(3.25 30.25)" font-size="16">R</text><text transform="translate(14.25 34.75)" font-size="12">corrected</text></g><path d="M69.8 23.2h9.3v1.3h-9.3v-1.3zm9.3 3.3v1.3h-9.3v-1.3h9.3zm7.8-7.7H88c-2.1 2.1-3.1 4.8-3.1 8s1 5.9 3.1 8h-1.1c-2.1-2.1-3.1-4.8-3.1-8s1-6 3.1-8z"/><g font-family="Helvetica,Arial,sans-serif"><text transform="translate(91.75 16.5)" font-size="16">R</text><text transform="translate(102.75 20.5)" font-size="12">uncorrected</text></g><g font-family="Helvetica,Arial,sans-serif"><text transform="translate(114.75 42.5)" font-size="16">R</text><text transform="translate(125.75 46.5)" font-size="12">max</text></g><path d="M177.9 18.8c2.1 2.1 3.1 4.8 3.1 8s-1 5.9-3.1 8h-1.1c2.1-2.1 3.1-4.8 3.1-8s-1-5.9-3.1-8h1.1zm23.8 2.7h1.3l-8 8.7h-1.3l8-8.7zm-7.9 0h1.3l8 8.7h-1.3l-8-8.7z"/><text transform="translate(182.834 15)" font-family="Helvetica,Arial,sans-serif" font-size="12">γ</text><g font-family="Helvetica,Arial,sans-serif"><text transform="translate(208.334 30.25)" font-size="16">R</text><text transform="translate(219.334 34.25)" font-size="12">max</text></g></svg>