<svg version="1.0" xmlns="http://www.w3.org/2000/svg" viewBox="0 0 280.4 86.3"><g font-family="Helvetica,Arial,sans-serif" font-size="14.019"><text transform="translate(18.246 26.121)">Gain00</text><text transform="translate(18.246 48.61)">Gain10</text><text transform="translate(18.246 71.098)">Gain20</text></g><g font-family="Helvetica,Arial,sans-serif" font-size="14.019"><text transform="translate(73.883 26.121)">Gain01</text><text transform="translate(73.883 48.61)">Gain11</text><text transform="translate(73.883 71.098)">Gain21</text></g><g font-family="Helvetica,Arial,sans-serif" font-size="14.019"><text transform="translate(129.52 26.121)">Gain02</text><text transform="translate(129.52 48.61)">Gain12</text><text transform="translate(129.52 71.098)">Gain22</text></g><text transform="translate(227.943 48.608)" font-family="Helvetica,Arial,sans-serif" font-size="14.019">=</text><path fill="none" stroke="#000" stroke-miterlimit="10" d="M17.8 79.2h-7.1V7.1h7.1m158.3 72.1h7.2V7.1h-7.2"/><text transform="translate(201.951 25.828)" font-family="Helvetica,Arial,sans-serif" font-size="14.019">R</text><text transform="translate(201.561 48.317)" font-family="Helvetica,Arial,sans-serif" font-size="14.019">G</text><text transform="translate(202.338 70.806)" font-family="Helvetica,Arial,sans-serif" font-size="14.019">B</text><path fill="none" stroke="#000" stroke-miterlimit="10" d="M200.1 79.2h-7.2V7.1h7.2m14.6 72.1h7.1V7.1h-7.1"/><text transform="translate(249.849 25.828)" font-family="Helvetica,Arial,sans-serif" font-size="14.019">R&apos;</text><text transform="translate(249.458 48.317)" font-family="Helvetica,Arial,sans-serif" font-size="14.019">G&apos;</text><text transform="translate(250.235 70.806)" font-family="Helvetica,Arial,sans-serif" font-size="14.019">B&apos;</text><path fill="none" stroke="#000" stroke-miterlimit="10" d="M248 79.2h-7.2V7.1h7.2m14.6 72.1h7.1V7.1h-7.1"/></svg>